<?xml version="1.0" encoding="utf-8"?>
<!-- Generator: Adobe Illustrator 27.0.0, SVG Export Plug-In . SVG Version: 6.00 Build 0)  -->
<svg version="1.1" id="Layer_1" xmlns="http://www.w3.org/2000/svg" xmlns:xlink="http://www.w3.org/1999/xlink" x="0px" y="0px"
	 viewBox="0 0 1700 1700" style="enable-background:new 0 0 1700 1700;" xml:space="preserve">
<style type="text/css">
	.st0{fill:none;stroke:#B1A7BA;stroke-miterlimit:10;}
</style>
<g>
	<rect class="st0" width="1700" height="1700"/>
	<line class="st0" x1="0" y1="1619" x2="1700" y2="1619"/>
	<line class="st0" x1="0" y1="1538.1" x2="1700" y2="1538.1"/>
	<line class="st0" x1="0" y1="1457.1" x2="1700" y2="1457.1"/>
	<line class="st0" x1="0" y1="1376.2" x2="1700" y2="1376.2"/>
	<line class="st0" x1="0" y1="1295.2" x2="1700" y2="1295.2"/>
	<line class="st0" x1="0" y1="1214.3" x2="1700" y2="1214.3"/>
	<line class="st0" x1="0" y1="1133.3" x2="1700" y2="1133.3"/>
	<line class="st0" x1="0" y1="1052.4" x2="1700" y2="1052.4"/>
	<line class="st0" x1="0" y1="971.4" x2="1700" y2="971.4"/>
	<line class="st0" x1="0" y1="890.5" x2="1700" y2="890.5"/>
	<line class="st0" x1="0" y1="809.5" x2="1700" y2="809.5"/>
	<line class="st0" x1="0" y1="728.6" x2="1700" y2="728.6"/>
	<line class="st0" x1="0" y1="647.6" x2="1700" y2="647.6"/>
	<line class="st0" x1="0" y1="566.7" x2="1700" y2="566.7"/>
	<line class="st0" x1="0" y1="485.7" x2="1700" y2="485.7"/>
	<line class="st0" x1="0" y1="404.8" x2="1700" y2="404.8"/>
	<line class="st0" x1="0" y1="323.8" x2="1700" y2="323.8"/>
	<line class="st0" x1="0" y1="242.9" x2="1700" y2="242.9"/>
	<line class="st0" x1="0" y1="161.9" x2="1700" y2="161.9"/>
	<line class="st0" x1="0" y1="81" x2="1700" y2="81"/>
	<line class="st0" x1="1619" y1="0" x2="1619" y2="1700"/>
	<line class="st0" x1="1538.1" y1="0" x2="1538.1" y2="1700"/>
	<line class="st0" x1="1457.1" y1="0" x2="1457.1" y2="1700"/>
	<line class="st0" x1="1376.2" y1="0" x2="1376.2" y2="1700"/>
	<line class="st0" x1="1295.2" y1="0" x2="1295.2" y2="1700"/>
	<line class="st0" x1="1214.3" y1="0" x2="1214.3" y2="1700"/>
	<line class="st0" x1="1133.3" y1="0" x2="1133.3" y2="1700"/>
	<line class="st0" x1="1052.4" y1="0" x2="1052.4" y2="1700"/>
	<line class="st0" x1="971.4" y1="0" x2="971.4" y2="1700"/>
	<line class="st0" x1="890.5" y1="0" x2="890.5" y2="1700"/>
	<line class="st0" x1="809.5" y1="0" x2="809.5" y2="1700"/>
	<line class="st0" x1="728.6" y1="0" x2="728.6" y2="1700"/>
	<line class="st0" x1="647.6" y1="0" x2="647.6" y2="1700"/>
	<line class="st0" x1="566.7" y1="0" x2="566.7" y2="1700"/>
	<line class="st0" x1="485.7" y1="0" x2="485.7" y2="1700"/>
	<line class="st0" x1="404.8" y1="0" x2="404.8" y2="1700"/>
	<line class="st0" x1="323.8" y1="0" x2="323.8" y2="1700"/>
	<line class="st0" x1="242.9" y1="0" x2="242.9" y2="1700"/>
	<line class="st0" x1="161.9" y1="0" x2="161.9" y2="1700"/>
	<line class="st0" x1="81" y1="0" x2="81" y2="1700"/>
</g>
</svg>
