<?xml version="1.0" encoding="utf-8"?>
<!-- Generator: Adobe Illustrator 26.2.1, SVG Export Plug-In . SVG Version: 6.00 Build 0)  -->
<svg version="1.1" xmlns="http://www.w3.org/2000/svg" xmlns:xlink="http://www.w3.org/1999/xlink" x="0px" y="0px"
	 viewBox="0 0 225 225" style="enable-background:new 0 0 225 225;" xml:space="preserve">
<style type="text/css">
	.st0{display:none;}
	.st1{display:inline;fill:#FAB433;}
	.st2{fill:none;}
	.st3{fill:none;stroke:#000000;stroke-width:1.6;stroke-miterlimit:10;}
	.st4{fill:none;stroke:#000000;stroke-width:0.7265;stroke-miterlimit:10;}
	.st5{fill:none;stroke:#000000;stroke-linecap:round;stroke-linejoin:round;stroke-miterlimit:10;}
	.st6{fill:none;stroke:#000000;stroke-miterlimit:10;}
	.st7{fill:none;stroke:#000000;stroke-width:0.7105;stroke-miterlimit:10;}
	.st8{fill:none;stroke:#000000;stroke-width:5.4;stroke-linecap:round;stroke-linejoin:round;stroke-miterlimit:10;}
	.st9{fill:none;stroke:#000000;stroke-width:2.9309;stroke-linecap:round;stroke-linejoin:round;stroke-miterlimit:10;}
	.st10{fill:none;stroke:#000000;stroke-width:0.5;stroke-linecap:round;stroke-linejoin:round;}
	.st11{fill:none;stroke:#FFFFFF;stroke-width:0;stroke-linecap:round;stroke-linejoin:round;}
	.st12{fill:#FFFFFF;}
	.st13{fill:none;stroke:#000000;stroke-width:1.4;stroke-miterlimit:10;}
	.st14{fill:url(#);stroke:#000000;stroke-width:1.4387;stroke-miterlimit:10;}
	.st15{fill:url(#);stroke:#000000;stroke-width:1.3718;stroke-miterlimit:10;}
	.st16{fill:none;stroke:#000000;stroke-width:1.0041;stroke-miterlimit:10;}
	.st17{fill:none;stroke:#000000;stroke-width:1.3621;stroke-miterlimit:10;}
	.st18{fill:none;stroke:#000000;stroke-width:0.25;stroke-miterlimit:10;}
</style>
<g id="Layer_2" class="st0">
	<rect id="XMLID_1014_" x="-345.99" y="-30.01" class="st1" width="1160" height="772"/>
</g>
<g id="Layer_1">
	<g>
		<path class="st2" d="M150.63,102.71c-0.09-0.37-0.19-0.74-0.3-1.1c-0.12-0.42-0.25-0.84-0.39-1.25c-0.09-0.28-0.18-0.57-0.28-0.85
			v0c-0.83-2.34-1.87-4.58-3.12-6.69h-1.78v1h-1.77v-1h-7.08v1h-1.77v-1h-7.08v1h-1.77v-1h-7.08v1h-1.77v-1h-7.08v1h-1.77v-1h-7.08
			v1h-1.77v-1h-7.08v1h-1.77v-1h-7.08v1h-1.77v-1h-2.55c-1.61,2.73-2.88,5.67-3.77,8.77c-0.49,1.69-0.86,3.42-1.12,5.2
			c-0.01,0.05-0.02,0.1-0.02,0.15c-0.11,0.79-0.19,1.6-0.26,2.41c-0.01,0.12-0.03,0.25-0.04,0.37c-0.06,0.91-0.1,1.83-0.1,2.76
			c0,0.01,0,0.02,0,0.02c0,0,0,0,0,0.01c0,0.86,0.04,1.7,0.09,2.54c0.01,0.2,0.03,0.39,0.05,0.59c0.06,0.77,0.14,1.53,0.25,2.28
			c0.01,0.07,0.02,0.13,0.03,0.2c0.26,1.8,0.64,3.55,1.13,5.27c0.97,3.36,2.36,6.54,4.13,9.46v-3c0.55,0.91,1.15,1.79,1.77,2.66v3
			c1.25,1.73,2.63,3.36,4.13,4.86v-3c0.57,0.57,1.17,1.12,1.77,1.65v3c1.31,1.15,2.68,2.22,4.13,3.2v-3
			c0.58,0.39,1.17,0.76,1.77,1.12v3c1.33,0.79,2.71,1.5,4.13,2.14v-3c0.58,0.26,1.17,0.51,1.77,0.74v3
			c1.34,0.52,2.72,0.98,4.13,1.35v-3c0.58,0.15,1.18,0.29,1.77,0.42v3c1.35,0.29,2.73,0.52,4.13,0.66v-3
			c0.59,0.06,1.18,0.11,1.77,0.14v3c0.79,0.05,1.59,0.08,2.39,0.08c0.58,0,1.16-0.02,1.74-0.04v-3c0.59-0.03,1.18-0.07,1.77-0.12v3
			c1.4-0.12,2.78-0.32,4.13-0.59v-3c0.6-0.12,1.19-0.25,1.77-0.39v3c1.41-0.35,2.79-0.76,4.13-1.26v-3c0.6-0.22,1.19-0.45,1.77-0.7
			v3c1.42-0.6,2.8-1.3,4.13-2.06v-3c0.6-0.34,1.19-0.7,1.77-1.07v3c1.44-0.93,2.83-1.94,4.13-3.05v-3c0.61-0.51,1.2-1.05,1.77-1.59
			v3c1.49-1.42,2.88-2.96,4.13-4.6v-3c0.62-0.81,1.21-1.65,1.77-2.51v3c1.7-2.61,3.09-5.43,4.13-8.42v-3
			c0.64,0.55,1.15-0.85,1.52-2.7c0.06-0.34,0.13-0.69,0.18-1.03c0.02-0.15,0.05-0.3,0.07-0.45c0.28-1.88,0.43-3.81,0.43-5.77
			c0-1.97-0.15-3.89-0.43-5.77c-0.15-1.03-0.35-2.04-0.58-3.04C150.79,103.36,150.71,103.03,150.63,102.71z"/>
		<path d="M155.57,159.01V97.38v-0.41v-4.16h-4.13v4.16v0.41v9.35c0,0,0-0.01,0-0.01c0.27,1.88,0.43,3.8,0.43,5.77
			c0,1.96-0.15,3.88-0.43,5.77c0,0,0,0,0,0v40.75v0.41v5.85c1.43-1.05,2.8-2.17,4.13-3.33v-2.52V159.01z"/>
		<path d="M137.86,159.01v-16.44c-1.31,1.1-2.69,2.12-4.13,3.05v13.39v0.41v15.14c1.4-0.48,2.78-0.99,4.13-1.56v-13.58V159.01z"/>
		<path d="M149.67,156.01v-30.57c-1.04,2.99-2.44,5.81-4.13,8.42v25.14v0.41v9.73c1.41-0.82,2.79-1.7,4.13-2.62v-7.11V156.01z"/>
		<path d="M131.96,156.01v-9.32c-1.33,0.76-2.71,1.45-4.13,2.06v7.26v0.41v19.85c1.39-0.33,2.77-0.7,4.13-1.12v-18.73V156.01z"/>
		<path d="M49.31,96.97v-2.05c-1.56,5.6-2.39,11.45-2.39,17.57c0,6.08,0.85,11.96,2.39,17.54V97.38V96.97z"/>
		<path d="M175.06,96.97v0.41v34.9c1.98-6.25,3.05-12.89,3.05-19.79c0-6.89-1.05-13.45-3.02-19.68h-0.03V96.97z"/>
		<path d="M151.37,118.71c-0.06,0.35-0.12,0.69-0.18,1.03C151.25,119.41,151.31,119.07,151.37,118.71z"/>
		<path d="M73.15,112.47c0,0.01,0,0.02,0,0.02c0,0,0,0,0,0.01c0,0,0,0,0-0.01C73.15,112.48,73.15,112.48,73.15,112.47z"/>
		<path d="M73.56,118.11c-0.01-0.07-0.02-0.13-0.03-0.2C73.54,117.98,73.55,118.04,73.56,118.11z"/>
		<path d="M78.46,92.81h-3.77v4.16v0.41v4.2c0,0,0,0,0,0C75.59,98.49,76.85,95.54,78.46,92.81L78.46,92.81z"/>
		<path d="M73.29,115.63c-0.02-0.2-0.03-0.39-0.05-0.59C73.26,115.24,73.27,115.44,73.29,115.63z"/>
		<path d="M108.34,156.01v-4.38c-1.4-0.15-2.78-0.37-4.13-0.66v5.05v0.41v21.13c1.37,0.17,2.74,0.31,4.13,0.4v-21.52V156.01z"/>
		<path d="M72.92,159.01V97.38v-0.41v-4.16h-4.13v4.16v0.41v61.63v0.41v1.95c1.33,1.19,2.71,2.33,4.13,3.41v-5.36V159.01z"/>
		<path d="M78.83,159.01v-26.17c-1.77-2.93-3.17-6.11-4.13-9.46c0,0,0,0,0,0v35.63v0.41v6.64c1.34,0.95,2.72,1.86,4.13,2.71v-9.35
			V159.01z"/>
		<path d="M90.63,159.01V145.2c-1.45-0.97-2.83-2.04-4.13-3.2v17.01v0.41v13.29c1.35,0.59,2.73,1.13,4.13,1.62v-14.91V159.01z"/>
		<path d="M67.02,159.01V97.38v-0.41v-4.16h-4.13v4.16v0.41v57.97c1.31,1.52,2.69,2.97,4.13,4.36v-0.29V159.01z"/>
		<path d="M55.21,96.97v-4.16h-4.13v4.16v0.41v38.12c1.16,3.09,2.54,6.06,4.13,8.9V97.38V96.97z"/>
		<path d="M84.73,159.01v-18.66c-1.51-1.5-2.88-3.13-4.13-4.86v23.51v0.41v10.37c1.35,0.75,2.73,1.46,4.13,2.12v-12.49V159.01z"/>
		<path d="M96.54,156.01v-7.56c-1.42-0.63-2.8-1.35-4.13-2.14v12.69v0.41v15.51c1.36,0.44,2.74,0.84,4.13,1.19v-16.7V156.01z"/>
		<path d="M102.44,156.01v-5.47c-1.41-0.37-2.79-0.83-4.13-1.35v6.82v0.41v20.11c1.36,0.3,2.74,0.57,4.13,0.79v-20.9V156.01z"/>
		<path d="M61.11,96.97v-4.16h-4.13v4.16v0.41v50c1.27,2.02,2.65,3.97,4.13,5.83V97.38V96.97z"/>
		<path d="M161.48,96.97v-4.16h-4.13v4.16v0.41v61.63v0.41v0.92c1.44-1.35,2.82-2.76,4.13-4.23V97.38V96.97z"/>
		<path d="M167.38,96.97v-4.16h-4.13v4.16v0.41v56.67c1.48-1.8,2.85-3.69,4.13-5.64V97.38V96.97z"/>
		<path d="M143.77,159.01v-22.63c-1.26,1.64-2.64,3.18-4.13,4.6v18.03v0.41v12.79c1.4-0.64,2.79-1.31,4.13-2.04v-10.75V159.01z"/>
		<path d="M126.06,156.01v-6.56c-1.34,0.49-2.72,0.91-4.13,1.26v5.3v0.41v20.99c1.39-0.2,2.77-0.44,4.13-0.73v-20.26V156.01z"/>
		<path d="M173.28,96.97v-4.16h-4.13v4.16v0.41v48.16c1.57-2.68,2.95-5.48,4.13-8.38V97.38V96.97z"/>
		<path d="M73.25,109.71c0.01-0.12,0.03-0.25,0.04-0.37C73.28,109.46,73.26,109.58,73.25,109.71z"/>
		<path d="M114.25,156.01v-4.2c-0.58,0.03-1.16,0.04-1.74,0.04c-0.8,0-1.6-0.03-2.39-0.08v4.24v0.41v21.61
			c0.8,0.03,1.59,0.06,2.39,0.06c0.58,0,1.16-0.03,1.74-0.04v-21.63V156.01z"/>
		<path d="M73.54,106.93c0.01-0.05,0.02-0.1,0.02-0.15C73.56,106.83,73.55,106.88,73.54,106.93z"/>
		<path d="M149.67,97.38v-0.41v-4.16h-3.12c1.25,2.11,2.29,4.35,3.12,6.69V97.38z"/>
		<path d="M120.15,156.01v-4.91c-1.35,0.27-2.73,0.46-4.13,0.59v4.32v0.41v21.57c1.39-0.07,2.77-0.2,4.13-0.36v-21.21V156.01z"/>
		<path d="M51.08,92.81h4.13h1.77h4.13h1.77h4.13h1.77h4.13h1.77h3.77c1.25-2.16,2.7-4.2,4.32-6.08c0,0,0,0,0,0l0,0
			c2.09-2.41,4.47-4.56,7.08-6.41v0c0,0,0,0,0,0c2.72-1.92,5.69-3.5,8.85-4.69v0c0,0,0,0,0,0c0.58-0.22,1.17-0.42,1.77-0.61
			c0,0,0,0,0,0v0c2.28-0.73,4.65-1.27,7.08-1.57v0c0.52-0.06,1.04-0.11,1.56-0.16c1.11-0.09,2.23-0.16,3.37-0.16
			c4.48,0,8.78,0.76,12.78,2.14v0c0,0,0,0,0,0c0.6,0.21,1.18,0.44,1.77,0.67c0,0,0,0,0,0v0c3.18,1.27,6.15,2.94,8.85,4.95
			c0,0,0,0,0.01,0v0c3.43,2.55,6.42,5.64,8.85,9.14c0,0,0,0,0,0v0c0.63,0.9,1.23,1.82,1.78,2.77h3.12h1.77h4.13h1.77h4.13h1.77h4.13
			h1.77h4.13h1.77h0.03c-8.4-26.63-33.26-45.92-62.58-45.92S58.33,66.18,49.93,92.81h0H51.08z"/>
		<path d="M100.5,76.29v16.52h7.08V76.29v-0.61v-2.23c-2.44,0.31-4.81,0.84-7.08,1.57v0.65V76.29z"/>
		<path d="M91.64,92.81h7.08V76.29v-0.61v-0.04c-3.17,1.19-6.14,2.77-8.85,4.69c0.58-0.41,1.17-0.8,1.77-1.17V92.81z"/>
		<path d="M89.87,92.81V80.33c-2.61,1.85-5,3.99-7.08,6.41v6.08H89.87z"/>
		<path d="M125.3,75.27c0.6,0.21,1.18,0.44,1.77,0.67C126.48,75.71,125.89,75.48,125.3,75.27z"/>
		<path d="M146.55,92.81c-0.55-0.95-1.15-1.87-1.78-2.77v2.77H146.55z"/>
		<path d="M81.02,92.81v-3.86c0.57-0.76,1.15-1.5,1.77-2.22c-1.63,1.88-3.08,3.91-4.32,6.08h0H81.02z"/>
		<path d="M98.73,75.64c0.58-0.22,1.17-0.42,1.77-0.61C99.9,75.22,99.31,75.42,98.73,75.64z"/>
		<path d="M143.01,92.81v-5.13c0.62,0.76,1.21,1.54,1.77,2.35c-2.43-3.51-5.43-6.59-8.85-9.14v11.92H143.01z"/>
		<path d="M127.06,92.81h7.08V79.65c0.6,0.4,1.19,0.82,1.77,1.24c-2.7-2.01-5.67-3.68-8.85-4.95v0.35V92.81z"/>
		<path d="M109.35,75.68v0.61v16.52h7.08V76.29v-0.61v-2.33c0.59,0.06,1.19,0.12,1.77,0.2v2.12v0.61v16.52h7.08V76.29v-0.61v-0.41
			c-4.01-1.38-8.31-2.14-12.78-2.14c-1.14,0-2.26,0.06-3.37,0.16c0.07-0.01,0.14-0.02,0.21-0.02V75.68z"/>
	</g>
</g>
</svg>
