<?xml version="1.0" encoding="utf-8"?>
<!-- Generator: Adobe Illustrator 26.2.1, SVG Export Plug-In . SVG Version: 6.00 Build 0)  -->
<svg version="1.1" xmlns="http://www.w3.org/2000/svg" xmlns:xlink="http://www.w3.org/1999/xlink" x="0px" y="0px"
	 viewBox="0 0 225 225" style="enable-background:new 0 0 225 225;" xml:space="preserve">
<style type="text/css">
	.st0{display:none;}
	.st1{display:inline;fill:#FAB433;}
	.st2{fill:none;}
	.st3{fill:none;stroke:#000000;stroke-width:1.6;stroke-miterlimit:10;}
	.st4{fill:none;stroke:#000000;stroke-width:0.7265;stroke-miterlimit:10;}
	.st5{fill:none;stroke:#000000;stroke-linecap:round;stroke-linejoin:round;stroke-miterlimit:10;}
	.st6{fill:none;stroke:#000000;stroke-miterlimit:10;}
	.st7{fill:none;stroke:#000000;stroke-width:0.7105;stroke-miterlimit:10;}
	.st8{fill:none;stroke:#000000;stroke-width:5.4;stroke-linecap:round;stroke-linejoin:round;stroke-miterlimit:10;}
	.st9{fill:none;stroke:#000000;stroke-width:2.9309;stroke-linecap:round;stroke-linejoin:round;stroke-miterlimit:10;}
	.st10{fill:none;stroke:#000000;stroke-width:0.5;stroke-linecap:round;stroke-linejoin:round;}
	.st11{fill:none;stroke:#FFFFFF;stroke-width:0;stroke-linecap:round;stroke-linejoin:round;}
	.st12{fill:#FFFFFF;}
	.st13{fill:none;stroke:#000000;stroke-width:1.4;stroke-miterlimit:10;}
	.st14{fill:url(#);stroke:#000000;stroke-width:1.4387;stroke-miterlimit:10;}
	.st15{fill:url(#);stroke:#000000;stroke-width:1.3718;stroke-miterlimit:10;}
	.st16{fill:none;stroke:#000000;stroke-width:1.0041;stroke-miterlimit:10;}
	.st17{fill:none;stroke:#000000;stroke-width:1.3621;stroke-miterlimit:10;}
	.st18{fill:none;stroke:#000000;stroke-width:0.25;stroke-miterlimit:10;}
</style>
<g id="Layer_2" class="st0">
	<rect id="XMLID_1014_" x="-100.99" y="-275.01" class="st1" width="1160" height="772"/>
</g>
<g id="Layer_1">
	<g id="XMLID_1215_">
		<g id="XMLID_1229_">
			<path id="XMLID_1230_" d="M162.56,154.56l-4.84-4.84l-2.94,2.94l-0.28,0.28l-2.94,2.94l4.95,4.95c-0.2,0.18-0.4,0.34-0.6,0.52
				l-4.91-4.91l-6.17,6.17l4.12,4.12c-0.22,0.15-0.45,0.3-0.68,0.45l-4.01-4.01l-6.17,6.17l2.25,2.25
				c-0.26,0.12-0.52,0.23-0.77,0.35l-2.03-2.03l-4.6,4.6c-0.55,0.18-1.1,0.37-1.66,0.53l5.7-5.7l-6.17-6.17l-6.17,6.17l5.9,5.9
				c-0.29,0.08-0.59,0.16-0.88,0.24l-5.58-5.58l-6.17,6.17l1.34,1.34c-0.34,0.04-0.68,0.06-1.03,0.09l-0.87-0.87l-1.01,1.01
				c-0.39,0.02-0.79,0.04-1.18,0.06l1.63-1.63l-6.17-6.17l-6.17,6.17l1.34,1.34c-0.43-0.04-0.85-0.1-1.27-0.15l-0.63-0.63
				l-0.49,0.49c-0.33-0.05-0.65-0.1-0.97-0.15l0.9-0.9l-6.17-6.17l-2.94,2.94l-0.28,0.28l-1.49,1.49c-0.28-0.09-0.57-0.18-0.85-0.27
				l1.78-1.78l0.28-0.28l2.94-2.94l-6.17-6.17l-2.94,2.94l-0.28,0.28l-2.94,2.94L87.9,173c-0.66-0.27-1.32-0.56-1.97-0.85
				l-2.24-2.24l-0.8,0.8c-0.25-0.13-0.5-0.24-0.75-0.37l0.99-0.99l-2.94-2.94l-0.28-0.28l-2.94-2.94l-2.46,2.46
				c-0.22-0.16-0.44-0.3-0.66-0.46l2.56-2.56l-6.17-6.17l-3.09,3.09c-0.19-0.18-0.39-0.36-0.58-0.55l3.1-3.1l-5.07-5.07l0.56-0.56
				l5.07,5.07l2.94-2.94l0.28-0.28l2.94-2.94l-5.07-5.07l0.56-0.56l5.07,5.07l6.17-6.17l-5.07-5.07l0.56-0.56l5.07,5.07l6.17-6.17
				l-5.07-5.07l0.56-0.56l5.07,5.07l6.17-6.17l-5.07-5.07l0.56-0.56l5.07,5.07l1.9-1.9c0.19,0.18,0.39,0.36,0.59,0.53l-1.93,1.93
				l6.17,6.17l3.87-3.87c0.3,0.08,0.6,0.16,0.9,0.22l-4.21,4.21l2.94,2.94l0.28,0.28l2.94,2.94l6.17-6.17l-2.94-2.94l-0.28-0.28
				l-0.62-0.62c0.36-0.01,0.71-0.02,1.07-0.05l0.11,0.11l0.28,0.28l2.94,2.94l6.17-6.17l-0.28-0.28c0.22-0.15,0.44-0.31,0.65-0.47
				l0.18,0.18l1.84-1.84c0.17-0.16,0.35-0.3,0.52-0.47s0.31-0.35,0.47-0.52l0.12-0.12l0.28-0.28l2.94-2.94l-0.52-0.52
				c0.13-0.24,0.27-0.49,0.39-0.73l0.69,0.69l6.17-6.17l-2.94-2.94l-0.28-0.28l-1.62-1.62c-0.03-0.42-0.09-0.85-0.15-1.27l2.33,2.33
				l0.28,0.28l2.94,2.94l6.17-6.17l-2.94-2.94l-0.28-0.28l-2.94-2.94l-5.72,5.72c-0.06-0.3-0.15-0.6-0.22-0.9l5.38-5.38l-6.17-6.17
				l-3.43,3.43c-0.17-0.2-0.35-0.4-0.53-0.59l3.4-3.4l-5.07-5.07l0.56-0.56l5.07,5.07l6.17-6.17l-5.07-5.07l0.56-0.56l5.07,5.07
				l6.17-6.17l-5.07-5.07l0.56-0.56l5.07,5.07l6.17-6.17l-5.07-5.07l0.56-0.56l5.07,5.07l2.94-2.94l0.28-0.28l2.94-2.94l-5.07-5.07
				l0.56-0.56l5.07,5.07l1.59-1.59c0.19,0.19,0.36,0.38,0.55,0.58l-1.58,1.58l6.17,6.17l1.05-1.05c0.16,0.22,0.3,0.44,0.46,0.66
				l-0.95,0.95l2.94,2.94l0.28,0.28l1.15,1.15c0.58,1.01,1.13,2.03,1.65,3.06l-2.8,2.8l-0.28,0.28l-2.94,2.94l6.17,6.17l2.94-2.94
				l0.28-0.28l0.27-0.27c0.09,0.28,0.18,0.57,0.27,0.85l-0.26,0.26l-2.94,2.94l5.32,5.32c0.08,0.45,0.16,0.9,0.23,1.35l-6.11-6.11
				l-6.17,6.17l6.17,6.17l6.13-6.13c0.05,0.32,0.1,0.65,0.15,0.97l-5.72,5.72l6.17,6.17l0.13-0.13c-0.02,0.43-0.04,0.87-0.07,1.3
				l-0.06-0.06l-6.17,6.17l4.68,4.68c-0.07,0.31-0.13,0.61-0.2,0.92l-5.03-5.03l-6.17,6.17l6.17,6.17l4.19-4.19
				c-0.17,0.56-0.35,1.11-0.53,1.66l-3.1,3.1l1.44,1.44c-0.11,0.26-0.23,0.52-0.34,0.78l-1.66-1.66l-6.17,6.17l3.66,3.66
				c-0.14,0.23-0.29,0.46-0.43,0.69l-3.79-3.79l-6.17,6.17l4.8,4.8C162.91,154.16,162.73,154.35,162.56,154.56z M163.88,142.42
				l-6.17-6.17l-6.17,6.17l6.17,6.17L163.88,142.42z M87.47,159.11l2.94,2.94l6.17-6.17l-2.94-2.94l-0.28-0.28l-2.94-2.94
				l-6.17,6.17l2.94,2.94L87.47,159.11z M97.15,155.32l6.17-6.17l-2.94-2.94l-0.28-0.28l-2.94-2.94l-6.17,6.17l2.94,2.94l0.28,0.28
				L97.15,155.32z M97.71,155.88l6.17,6.17l6.17-6.17l-6.17-6.17L97.71,155.88z M110.61,155.32l6.17-6.17l-6.17-6.17l-6.17,6.17
				L110.61,155.32z M104.44,162.61l6.17,6.17l6.17-6.17l-6.17-6.17L104.44,162.61z M117.34,162.05l6.17-6.17l-6.17-6.17l-6.17,6.17
				L117.34,162.05z M124.07,155.32l6.17-6.17l-6.17-6.17l-6.17,6.17L124.07,155.32z M148.04,98.54l2.94,2.94l6.17-6.17l-2.94-2.94
				l-0.28-0.28l-2.94-2.94l-6.17,6.17l2.94,2.94L148.04,98.54z M160.66,85.36l-2.94-2.94l-6.17,6.17l2.94,2.94l0.28,0.28l2.94,2.94
				l6.17-6.17l-2.94-2.94L160.66,85.36z M151.55,102.04l6.17,6.17l6.17-6.17l-6.17-6.17L151.55,102.04z M150.99,102.6l-6.17,6.17
				l6.17,6.17l6.17-6.17L150.99,102.6z M151.55,115.5l6.17,6.17l6.17-6.17l-6.17-6.17L151.55,115.5z M150.99,116.06l-6.17,6.17
				l6.17,6.17l6.17-6.17L150.99,116.06z M151.55,128.96l6.17,6.17l6.17-6.17l-6.17-6.17L151.55,128.96z M144.26,122.79l-6.17,6.17
				l6.17,6.17l6.17-6.17L144.26,122.79z M137.53,129.52l-2.94,2.94l-0.28,0.28l-2.94,2.94l6.17,6.17l2.94-2.94l0.28-0.28l2.94-2.94
				L137.53,129.52z M130.8,136.25l-6.17,6.17l6.17,6.17l6.17-6.17L130.8,136.25z M124.63,155.88l6.17,6.17l6.17-6.17l-6.17-6.17
				L124.63,155.88z M137.53,155.32l6.17-6.17l-6.17-6.17l-6.17,6.17L137.53,155.32z M144.26,148.59l2.94-2.94l0.28-0.28l2.94-2.94
				l-6.17-6.17l-2.94,2.94l-0.28,0.28l-2.94,2.94L144.26,148.59z M150.99,141.86l6.17-6.17l-6.17-6.17l-6.17,6.17L150.99,141.86z
				 M164.45,129.52l-6.17,6.17l6.17,6.17l6.17-6.17L164.45,129.52z M170.61,122.23l-6.17-6.17l-6.17,6.17l6.17,6.17L170.61,122.23z
				 M171.18,109.33l-6.17,6.17l6.17,6.17l6.17-6.17L171.18,109.33z M164.45,102.6l-6.17,6.17l6.17,6.17l6.17-6.17L164.45,102.6z
				 M164.45,89.14l-6.17,6.17l6.17,6.17l6.17-6.17L164.45,89.14z M164.45,75.68l-2.94,2.94l-0.28,0.28l-2.94,2.94l2.94,2.94
				l0.28,0.28l2.94,2.94l2.94-2.94l0.28-0.28l2.94-2.94l-2.94-2.94l-0.28-0.28L164.45,75.68z M151.55,75.12l6.17,6.17l2.94-2.94
				l0.28-0.28l2.94-2.94l-6.17-6.17l-2.94,2.94l-0.28,0.28L151.55,75.12z M144.82,81.85l6.17,6.17l6.17-6.17l-6.17-6.17
				L144.82,81.85z M138.09,88.58l6.17,6.17l6.17-6.17l-6.17-6.17L138.09,88.58z M137.53,101.48l6.17-6.17l-6.17-6.17l-6.17,6.17
				L137.53,101.48z M144.26,108.21l6.17-6.17l-2.94-2.94l-0.28-0.28l-2.94-2.94l-6.17,6.17l2.94,2.94l0.28,0.28L144.26,108.21z
				 M138.09,115.5l6.17,6.17l6.17-6.17l-6.17-6.17L138.09,115.5z M131.36,122.23l6.17,6.17l6.17-6.17l-6.17-6.17L131.36,122.23z
				 M124.63,128.96l6.17,6.17l2.94-2.94l0.28-0.28l2.94-2.94l-6.17-6.17l-2.94,2.94l-0.28,0.28L124.63,128.96z M117.9,135.69
				l6.17,6.17l6.17-6.17l-6.17-6.17L117.9,135.69z M111.17,142.42l6.17,6.17l6.17-6.17l-6.17-6.17L111.17,142.42z M103.88,136.25
				l-6.17,6.17l2.94,2.94l0.28,0.28l2.94,2.94l6.17-6.17l-2.94-2.94l-0.28-0.28L103.88,136.25z M90.98,135.69l6.17,6.17l6.17-6.17
				l-6.17-6.17L90.98,135.69z M84.25,142.42l6.17,6.17l6.17-6.17l-6.17-6.17L84.25,142.42z M77.52,149.15l6.17,6.17l6.17-6.17
				l-6.17-6.17L77.52,149.15z M76.96,162.05l2.94-2.94l0.28-0.28l2.94-2.94l-6.17-6.17l-2.94,2.94l-0.28,0.28l-2.94,2.94
				L76.96,162.05z M89.85,162.61l-2.94-2.94l-0.28-0.28l-2.94-2.94l-2.94,2.94l-0.28,0.28l-2.94,2.94l2.94,2.94l0.28,0.28l2.94,2.94
				l2.94-2.94l0.28-0.28L89.85,162.61z M97.15,168.78l6.17-6.17l-6.17-6.17l-6.17,6.17L97.15,168.78z M110.04,169.34l-6.17-6.17
				l-6.17,6.17l6.17,6.17L110.04,169.34z M123.51,169.34l-6.17-6.17l-6.17,6.17l6.17,6.17L123.51,169.34z M130.24,162.61l-6.17-6.17
				l-6.17,6.17l6.17,6.17L130.24,162.61z M143.7,162.61l-6.17-6.17l-6.17,6.17l6.17,6.17L143.7,162.61z M150.43,155.88l-6.17-6.17
				l-6.17,6.17l6.17,6.17L150.43,155.88z M157.15,149.15l-6.17-6.17l-2.94,2.94l-0.28,0.28l-2.94,2.94l6.17,6.17l2.94-2.94
				l0.28-0.28L157.15,149.15z"/>
		</g>
		<path id="XMLID_1228_" d="M120.95,94.46l-26.16,26.16c0.88,1.99,2.18,3.85,3.8,5.47c7.7,7.7,20.13,7.7,27.83,0s7.7-20.13,0-27.83
			C124.8,96.64,122.94,95.34,120.95,94.46z"/>
		<path d="M63.59,68.49c0.81-0.92,1.66-1.82,2.54-2.7C65.24,66.68,64.41,67.58,63.59,68.49z M66.12,65.8
			c0.88-0.88,1.78-1.72,2.7-2.54C67.91,64.08,67,64.92,66.12,65.8z M86.81,75.04l0.39-0.39l27.99-27.99
			c-2.28-0.09-4.57-0.05-6.85,0.09L83.82,71.27l-0.39,0.39l-36.36,36.36c-0.14,2.28-0.18,4.57-0.09,6.85L86.81,75.04z M125.27,47.86
			l-0.01,0.01c0.11,0.02,0.22,0.04,0.33,0.06C125.48,47.91,125.37,47.88,125.27,47.86z M48.18,124.94l44.26-44.26l0.39-0.39
			l32.42-32.42c-1.95-0.38-3.91-0.68-5.88-0.88L89.46,76.9l-0.39,0.39L47.3,119.06 M98.47,85.92l35.66-35.66
			c-1.71-0.6-3.45-1.12-5.19-1.57L95.09,82.54l-0.39,0.39l-45.68,45.68c0.45,1.75,0.97,3.48,1.57,5.19l47.5-47.5L98.47,85.92z
			 M75.93,63.38l12.01-12.01c-5.73,2.31-11.19,5.46-16.21,9.45l-10.6,10.6c-3.99,5.02-7.14,10.48-9.45,16.21l23.85-23.85
			L75.93,63.38z M81.18,69.4l0.39-0.39l21.77-21.77c-2.89,0.4-5.75,1.01-8.57,1.8L78.19,65.63l-0.39,0.39L49.37,94.44
			c-0.79,2.82-1.4,5.68-1.8,8.57L81.18,69.4z M94.42,49.14c0.12-0.03,0.23-0.06,0.35-0.09l0.03-0.03
			C94.67,49.06,94.55,49.1,94.42,49.14z M49.35,94.47l0.02-0.02c0.03-0.12,0.06-0.23,0.09-0.35C49.43,94.22,49.38,94.34,49.35,94.47
			z M151.79,59.65L118.1,93.34c0.97,0.3,1.92,0.67,2.85,1.12l33.07-33.07C153.29,60.79,152.54,60.21,151.79,59.65z M92.93,114.01
			C92.93,114.01,92.93,114.01,92.93,114.01c-0.25-2.51,0-5.05,0.73-7.49c0,0,0,0,0,0l-38.13,38.13c0.81,1.42,1.65,2.82,2.57,4.19
			L92.93,114.01z M144.98,55.19l-38.14,38.14c0,0,0,0,0,0c2.44-0.73,4.98-0.98,7.5-0.73c0,0,0,0,0,0l34.83-34.83 M137.4,51.5
			l-36.67,36.67l-0.39,0.39l-48.51,48.51c0.64,1.57,1.36,3.11,2.13,4.63l49.76-49.76l0.39-0.39l37.94-37.94 M59.98,151.47
			c0.56,0.75,1.14,1.5,1.74,2.23l33.07-33.07c-0.45-0.92-0.83-1.88-1.12-2.85L59.98,151.47z"/>
	</g>
</g>
</svg>
