<?xml version="1.0" encoding="utf-8"?>
<!-- Generator: Adobe Illustrator 26.2.1, SVG Export Plug-In . SVG Version: 6.00 Build 0)  -->
<svg version="1.1" xmlns="http://www.w3.org/2000/svg" xmlns:xlink="http://www.w3.org/1999/xlink" x="0px" y="0px"
	 viewBox="0 0 225 225" style="enable-background:new 0 0 225 225;" xml:space="preserve">
<style type="text/css">
	.st0{display:none;}
	.st1{display:inline;fill:#FAB433;}
	.st2{fill:none;}
	.st3{fill:none;stroke:#000000;stroke-width:1.6;stroke-miterlimit:10;}
	.st4{fill:none;stroke:#000000;stroke-width:0.7265;stroke-miterlimit:10;}
	.st5{fill:none;stroke:#000000;stroke-linecap:round;stroke-linejoin:round;stroke-miterlimit:10;}
	.st6{fill:none;stroke:#000000;stroke-miterlimit:10;}
	.st7{fill:none;stroke:#000000;stroke-width:0.7105;stroke-miterlimit:10;}
	.st8{fill:none;stroke:#000000;stroke-width:5.4;stroke-linecap:round;stroke-linejoin:round;stroke-miterlimit:10;}
	.st9{fill:none;stroke:#000000;stroke-width:2.9309;stroke-linecap:round;stroke-linejoin:round;stroke-miterlimit:10;}
	.st10{fill:none;stroke:#000000;stroke-width:0.5;stroke-linecap:round;stroke-linejoin:round;}
	.st11{fill:none;stroke:#FFFFFF;stroke-width:0;stroke-linecap:round;stroke-linejoin:round;}
	.st12{fill:#FFFFFF;}
	.st13{fill:none;stroke:#000000;stroke-width:1.4;stroke-miterlimit:10;}
	.st14{fill:url(#);stroke:#000000;stroke-width:1.4387;stroke-miterlimit:10;}
	.st15{fill:url(#);stroke:#000000;stroke-width:1.3718;stroke-miterlimit:10;}
	.st16{fill:none;stroke:#000000;stroke-width:1.0041;stroke-miterlimit:10;}
	.st17{fill:none;stroke:#000000;stroke-width:1.3621;stroke-miterlimit:10;}
	.st18{fill:none;stroke:#000000;stroke-width:0.25;stroke-miterlimit:10;}
</style>
<g id="Layer_2" class="st0">
	<rect id="XMLID_2028_" x="-345.99" y="-275.01" class="st1" width="1160" height="772"/>
</g>
<g id="Layer_1">
	<g id="XMLID_11005_">
		<polygon id="XMLID_11327_" points="77.75,113.19 78.25,112.63 58.72,94.05 57.36,95.56 74.1,111.54 74.97,110.55 		"/>
		<polygon id="XMLID_11326_" points="127.43,168.65 127.92,167.94 107.05,151.14 105.91,152.82 123.71,167.19 124.38,166.2 		"/>
		<polygon id="XMLID_11325_" points="56.12,126.66 55.55,126.78 63.55,155.37 65.75,154.93 58.76,129.74 57.11,130.14 		"/>
		<polygon id="XMLID_11324_" points="125.25,142.28 124.92,141.59 96.41,156.13 97.45,158.31 122.21,145.74 121.43,144.24 		"/>
		<polygon id="XMLID_11323_" points="49.89,113.34 66.06,140.95 68.73,140.54 52.53,112.94 		"/>
		<polygon id="XMLID_11322_" points="70.77,154.1 62.44,126.08 59.9,125.62 68.25,153.64 		"/>
		<polygon id="XMLID_11321_" points="70.27,104.61 70.85,107.2 95.79,88.52 95.21,85.9 		"/>
		<polygon id="XMLID_11320_" points="54.82,86.63 73.95,109.97 76.08,108.95 56.99,85.59 		"/>
		<polygon id="XMLID_11319_" points="126.01,145.15 124.93,144.49 106.35,163.62 108.14,164.71 124.13,148.27 123.42,147.81 		"/>
		<polygon id="XMLID_11318_" points="58.78,130.02 58.16,130.65 72.87,149.52 74.15,148.22 61.63,132.11 60.94,132.8 		"/>
		<polygon id="XMLID_11317_" points="48.1,96.66 48.29,98 80.5,99.01 80.13,96.54 52.61,95.65 52.76,96.81 		"/>
		<polygon id="XMLID_11316_" points="62.36,90.5 62.3,90.48 60.67,118.36 62.77,119.12 64.39,91.72 62.32,91.22 		"/>
		<polygon id="XMLID_11315_" points="57.75,76.58 63.55,109.26 66.27,109.69 60.41,76.99 		"/>
		<polygon id="XMLID_11314_" points="89.16,169.19 89.32,169.18 81.78,146.64 79.93,146.81 87.06,168.19 88.72,167.9 		"/>
		<polygon id="XMLID_11313_" points="47.98,116.04 48.01,116.38 77.29,107.76 77.05,105.42 50.07,113.31 50.43,115.3 		"/>
		<polygon id="XMLID_11312_" points="103.05,79.35 79.17,58.62 76.58,59.98 103.29,83.24 104.13,82.8 101.29,80.34 		"/>
		<polygon id="XMLID_11311_" points="77.58,77.87 98.75,66.79 98.46,64.63 74.73,77 74.82,77.69 77.41,76.34 		"/>
		<polygon id="XMLID_11310_" points="161.56,124.74 178.04,106.47 176.97,104.56 158.78,124.67 159.11,125.26 160.88,123.33 		"/>
		<polygon id="XMLID_11309_" points="67.47,96.6 96.48,103.57 97.79,101.37 66.83,93.91 66.44,94.57 68.58,95.11 		"/>
		<polygon id="XMLID_11308_" points="48.48,114.91 76.58,116.82 77.73,114.56 47.71,112.5 47.34,113.23 49.1,113.33 		"/>
		<polygon id="XMLID_11307_" points="96.33,81.36 71.09,77.59 69.98,79.27 95.54,83.49 96.06,82.73 95.72,82.68 		"/>
		<polygon id="XMLID_11306_" points="67.32,85.02 85.1,57.43 83.37,54.96 63.86,85.53 64.29,86.15 66.04,83.41 		"/>
		<polygon id="XMLID_11305_" points="104.89,81.42 80.48,59.72 78.26,61.14 103.08,83.27 103.72,82.85 103.06,82.25 		"/>
		<polygon id="XMLID_11304_" points="110.49,176.14 110.84,175.81 86.76,156.63 85.06,158.25 106.67,175.53 107.95,174.14 		"/>
		<polygon id="XMLID_11303_" points="61.04,149.51 59.34,148.3 58.24,149.53 59.83,150.68 		"/>
		<polygon id="XMLID_11302_" points="70.71,161.84 71.06,161.33 69.79,160.04 69.55,160.38 		"/>
		<polygon id="XMLID_11301_" points="54.95,103.96 53.67,104.61 54.21,106.28 55.35,105.72 		"/>
		<polygon id="XMLID_11300_" points="52.59,126.08 53.74,122.64 52.39,122.19 51.24,125.58 		"/>
		<polygon id="XMLID_11299_" points="57.19,149.73 61.34,149.08 61.03,147.82 56.9,148.47 		"/>
		<polygon id="XMLID_11298_" points="102.22,135.43 99.24,134.79 98.88,136.18 101.8,136.82 		"/>
		<polygon id="XMLID_11297_" points="112.22,122.75 115.19,122.07 114.93,120.31 112.06,120.95 		"/>
		<polygon id="XMLID_11296_" points="113.97,124.26 116.29,125.61 116.48,125.03 114.15,123.68 		"/>
		<polygon id="XMLID_11295_" points="75.44,99.9 78.25,98.35 77.75,97.72 74.93,99.28 		"/>
		<polygon id="XMLID_11294_" points="77.99,140.05 80.41,136.18 79.03,135.39 76.62,139.25 		"/>
		<polygon id="XMLID_11293_" points="50.4,107.1 47.65,110.44 48.66,111.09 51.42,107.75 		"/>
		<polygon id="XMLID_11292_" points="92.34,64.7 89.19,65.88 89.19,66.57 107.11,59.61 107.11,59.11 105.18,59.87 105.16,58.78 
			92.43,63.73 		"/>
		<polygon id="XMLID_11291_" points="81.8,92.5 76.53,91.52 76.07,92.32 101.01,96.75 101.35,96.16 98.66,95.68 99.42,94.45 
			82.51,91.5 		"/>
		<polygon id="XMLID_11290_" points="100.48,65.7 97.61,68.58 98.02,69.48 120.34,46.27 120,45.51 117.93,47.69 117.06,46.06 
			99.98,63.84 		"/>
		<polygon id="XMLID_11289_" points="123.79,48.41 123.98,46.86 123.29,46.49 120.55,74.65 121.19,74.99 121.34,73.2 122.84,73.81 
			125.2,49.54 		"/>
		<polygon id="XMLID_11288_" points="74.51,93.3 79.34,102.78 80.87,102.5 64.48,70.81 63.58,70.98 63.94,71.7 61.84,71.75 
			73.1,93.47 		"/>
		<polygon id="XMLID_11287_" points="83.81,57.64 77.87,55.01 77.21,55.76 99.01,65.19 99.41,64.74 98.01,64.12 99.02,63.2 
			84.52,56.94 		"/>
		<polygon id="XMLID_11286_" points="117.05,76.59 118.9,48.03 118.27,47.71 118.25,48.22 116.68,47.7 114.9,75.51 		"/>
		<polygon id="XMLID_11285_" points="92.17,74.39 95.18,81.34 96.42,81.24 83.84,52.87 83.05,52.94 84.21,55.58 82.43,55.63 
			90.76,74.39 		"/>
		<polygon id="XMLID_11284_" points="106.93,131.06 108.02,131.8 119.96,114.14 118.62,113.22 111.14,124.31 111.37,124.46 		"/>
		<polygon id="XMLID_11283_" points="71.02,89.67 70.03,88.49 51.02,103.47 52.21,104.9 64.25,95.37 64.08,95.18 		"/>
		<polygon id="XMLID_11282_" points="83.93,148.12 83.33,149.43 105.47,158.68 106.24,157.03 92.47,151.28 92.32,151.62 		"/>
		<polygon id="XMLID_11281_" points="87.21,132.23 86.95,131.79 96.09,125.57 95.24,124.12 71.28,140.37 72.4,142.3 		"/>
		<polygon id="XMLID_11280_" points="59.25,120 59.6,119.72 65.05,124.94 65.88,124.27 51.6,110.63 50.43,111.58 		"/>
		<polygon id="XMLID_11279_" points="78.59,152.18 78.24,151.94 82.21,144.84 81.24,144.16 70.86,162.67 72.2,163.6 		"/>
		<polygon id="XMLID_11278_" points="107.13,153.88 106.04,154.96 120.02,172.25 121.23,171.04 112.1,159.79 112.02,159.88 		"/>
		<polygon id="XMLID_11277_" points="62.33,119.88 61.05,119.16 48.74,135.28 50.1,136.04 58.25,125.35 58.2,125.32 		"/>
		<polygon id="XMLID_11276_" points="72.19,145.19 73.26,144.02 56.74,126.75 55.51,128.1 66.13,139.18 66.25,139.03 		"/>
		<polygon id="XMLID_11275_" points="96.13,100.18 83.49,100.35 83.12,102.04 118.96,101.44 119.57,98.66 96.42,99.06 		"/>
		<polygon id="XMLID_11274_" points="49.3,122.51 48.78,123.92 80.82,127.24 81.71,124.84 60.55,122.65 60.11,123.68 		"/>
		<polygon id="XMLID_11273_" points="107.06,167.41 107.02,166.63 118.53,164.11 118.43,162.46 88.03,169.17 88.18,171.57 		"/>
		<polygon id="XMLID_11272_" points="60.76,104.28 68.62,95.82 67.71,94.53 46.17,117.84 47.61,119.88 61.28,105.07 		"/>
		<polygon id="XMLID_11271_" points="70.56,147.69 71.31,147.67 73.66,157.6 75.06,157.53 68.69,130.9 66.55,131.02 		"/>
		<polygon id="XMLID_11270_" points="69.01,99.52 65.6,66.82 62.91,65.95 66.35,98.66 		"/>
		<polygon id="XMLID_11269_" points="61.07,111.6 60.46,112.63 86.08,119.66 87.19,117.84 69.82,113.09 69.27,113.9 		"/>
		<polygon id="XMLID_11268_" points="97.28,84.21 96.2,85.59 99.31,86.61 100.43,85.26 		"/>
		<polygon id="XMLID_11267_" points="78.2,88.02 78.69,89.13 80.1,87.81 79.68,86.66 		"/>
		<polygon id="XMLID_11266_" points="124.74,58.26 123.17,57.49 122.87,60.8 124.45,61.54 		"/>
		<polygon id="XMLID_11265_" points="123.07,56.52 124.33,56.31 123.53,55.02 122.33,55.35 		"/>
		<polygon id="XMLID_11264_" points="166.9,100.16 166.51,101.18 168.35,101.14 168.67,100.11 		"/>
		<polygon id="XMLID_11263_" points="75.92,93.2 75.07,92.19 74.36,93.35 75.11,94.46 		"/>
		<polygon id="XMLID_11262_" points="98.15,59.48 98.74,60.64 98.95,60.43 98.53,59.12 		"/>
		<polygon id="XMLID_11261_" points="98.45,74.49 99.44,72.98 98.65,72.84 97.92,74.41 		"/>
		<polygon id="XMLID_11260_" points="119.14,137.67 118.86,135.89 103.48,136.07 103.49,136.22 95.27,136.29 95.54,137.96 		"/>
		<polygon id="XMLID_11259_" points="86.79,153.36 85.4,153.65 85.63,165.99 85.7,165.98 85.8,172.26 87.16,171.98 		"/>
		<polygon id="XMLID_11258_" points="89.27,157.97 89.35,156.59 65.71,156.46 65.6,158.24 80.22,158.33 80.25,157.92 		"/>
		<polygon id="XMLID_11257_" points="141.85,119.5 140.01,118.38 129.02,132.82 129.23,132.96 123.08,141 124.74,142.01 		"/>
		<polygon id="XMLID_11256_" points="96.56,114.36 98.4,114.33 94.89,82.2 92.42,82.24 94.57,102.06 95.22,102.05 		"/>
		<polygon id="XMLID_11255_" points="77.97,104.07 78.68,101.71 58.05,102.36 57.81,103.38 48,103.74 47.61,105.04 		"/>
		<polygon id="XMLID_11254_" points="76.58,64.46 74.42,64.79 89.75,79.95 91.88,79.63 		"/>
		<polygon id="XMLID_11253_" points="126.82,60.89 124.49,58.84 120.38,90.15 122.63,92.13 		"/>
		<polygon id="XMLID_11252_" points="137.04,154.78 137.97,153.39 109.22,140.52 107.87,142.54 125.72,150.56 126.14,149.91 		"/>
		<polygon id="XMLID_11251_" points="58.85,81.04 58.63,82.65 90.39,80.69 90.74,78.24 70.83,79.45 70.73,80.28 		"/>
		<polygon id="XMLID_11250_" points="115.5,100.92 116.55,99.75 93.2,83.61 91.75,85.21 106.16,95.21 106.58,94.75 		"/>
		<polygon id="XMLID_11249_" points="108.32,95.68 106.61,96.95 120.77,107.41 121.45,106.86 128.74,112.2 129.72,111.48 		"/>
		<polygon id="XMLID_11248_" points="96.07,74.91 95.85,76.19 122.18,74.45 122.52,72.41 105.79,73.5 105.68,74.25 		"/>
		<polygon id="XMLID_11247_" points="45.8,112.57 45,113 58.27,127.08 59.62,126.37 51.03,117.26 50.53,117.55 		"/>
		<polygon id="XMLID_11246_" points="72,82.3 70.75,82.69 93.77,108.61 96.6,107.73 78.5,87.32 77.07,87.9 		"/>
		<polygon id="XMLID_11245_" points="54.49,142.65 55.66,143.7 64.19,133.81 63.95,133.59 69.15,127.57 68.19,126.72 		"/>
		<polygon id="XMLID_11244_" points="57.98,116.19 57.81,117.21 82.42,111.89 82.76,109.82 64.9,113.68 64.81,114.65 		"/>
		<polygon id="XMLID_11243_" points="90.37,95.15 91.59,94.59 66.44,71.89 63.85,73.09 82.81,90.23 84.05,89.54 		"/>
		<polygon id="XMLID_11242_" points="71.61,110.13 72.21,109.46 52.62,101.82 51.49,103.1 65.21,108.46 65.69,107.86 		"/>
		<polygon id="XMLID_11241_" points="131.29,128.03 132.28,125.64 112.74,117.05 112.55,117.48 100.92,112.34 100.1,114.36 		"/>
		<polygon id="XMLID_11240_" points="110.38,113.67 112.11,114.15 117.08,99.87 116.82,99.79 119.7,91.55 118.18,91.13 		"/>
		<polygon id="XMLID_11239_" points="66.2,87.81 66.52,88.42 77.71,73.17 76.96,71.73 67.73,84.28 68.21,85.02 		"/>
		<polygon id="XMLID_11238_" points="76.54,121.39 77.14,121.88 80.34,96.1 78.46,94.59 75.42,118.9 76.73,119.6 		"/>
		<polygon id="XMLID_11237_" points="133.62,61.23 134.31,60.96 115.99,46.27 114,47.04 129.97,59.87 131.04,59.24 		"/>
		<polygon id="XMLID_11236_" points="82.27,73.64 83.79,74.39 84.84,73.47 83.62,72.83 		"/>
		<polygon id="XMLID_11235_" points="87.15,90.1 88.4,86.65 87.69,86.04 86.45,89.35 		"/>
		<polygon id="XMLID_11234_" points="102.53,170.96 112.36,174.04 112.65,173.45 102.84,170.35 		"/>
		<polygon id="XMLID_11233_" points="133.63,55.76 130.09,52.6 128.47,53.4 131.65,56.37 		"/>
		<polygon id="XMLID_11232_" points="130.7,136.9 123.73,142.35 123.93,142.59 130.89,137.15 		"/>
		<polygon id="XMLID_11231_" points="102.32,99.2 110.17,93.46 109.99,93.24 102.13,98.96 		"/>
		<polygon id="XMLID_11230_" points="180,111.98 172.98,111.48 172.52,112.57 179.4,113.12 		"/>
		<polygon id="XMLID_11229_" points="49.02,96.13 57.57,89.25 57.07,88 48.57,94.75 		"/>
		<polygon id="XMLID_11228_" points="49.5,114.9 58.43,109.95 58.24,109.58 49.31,114.52 		"/>
		<polygon id="XMLID_11227_" points="102.74,112.62 108.33,108.36 108.01,107.43 102.46,111.58 		"/>
		<polygon id="XMLID_11226_" points="96.74,56.09 91.34,59.87 91.69,61.17 96.99,57.54 		"/>
		<polygon id="XMLID_11225_" points="108.41,70.41 106.89,57.95 105.82,57.84 107.28,70.25 		"/>
		<polygon id="XMLID_11224_" points="128.69,125.67 123.19,120.34 122.88,120.6 128.39,125.93 		"/>
		<polygon id="XMLID_11223_" points="114.76,94.21 116.85,103.27 117.28,103.2 115.19,94.13 		"/>
		<polygon id="XMLID_11222_" points="112.68,134.66 101.36,133.07 101.06,133.91 112.33,135.54 		"/>
		<polygon id="XMLID_11221_" points="132.41,167.29 135.02,160.24 134.96,160.23 132.33,167.27 		"/>
		<polygon id="XMLID_11220_" points="49.11,128.95 47.06,121.05 46.88,121.12 48.91,129.02 		"/>
		<polygon id="XMLID_11219_" points="93.17,175.9 101.68,167.6 101.53,167.49 93,175.76 		"/>
		<polygon id="XMLID_11218_" points="79.75,145.79 70.85,140.12 70.34,140.67 79.22,146.35 		"/>
		<polygon id="XMLID_11217_" points="48.52,127.53 58.21,132.64 58.58,132.13 48.9,127 		"/>
		<polygon id="XMLID_11216_" points="66.18,83.19 59.5,82.84 59.26,83.48 65.99,83.8 		"/>
		<polygon id="XMLID_11215_" points="141.3,53.22 134.27,62.05 134.99,63.14 142.01,54.2 		"/>
		<polygon id="XMLID_11214_" points="95.48,141.57 94.2,142.53 110.07,155.86 111.27,154.95 		"/>
		<polygon id="XMLID_11213_" points="133.96,86.58 135.59,85.85 119.61,72.91 117.95,73.65 		"/>
		<polygon id="XMLID_11212_" points="166.02,144.18 168.15,146.42 178.85,113.53 176.69,111.27 		"/>
		<polygon id="XMLID_11211_" points="95.49,106.57 95.3,103.61 64.98,120.17 65.17,123.17 		"/>
		<path id="XMLID_11210_" d="M69.75,87.79c0.7,0.73,1.4,1.48,2.1,2.24l3.65-28.95c-0.73-0.8-1.47-1.57-2.2-2.33L69.75,87.79z"/>
		<polygon id="XMLID_11209_" points="79.61,125.62 79.21,127.91 107.4,123.24 107.8,120.92 		"/>
		<polygon id="XMLID_11208_" points="108.9,98.16 110.88,98.35 106.66,73.46 104.66,73.28 		"/>
		<polygon id="XMLID_11207_" points="158.59,105.85 160.24,103.81 129.95,94.02 128.25,96.11 		"/>
		<polygon id="XMLID_11206_" points="99.14,160.55 101.55,161.21 100.57,130.16 98.14,129.51 		"/>
		<polygon id="XMLID_11205_" points="122.67,113.12 121.31,114 133.87,131.4 135.24,130.51 		"/>
		<polygon id="XMLID_11204_" points="131.91,104.39 133.61,103.36 119.38,80.13 117.6,81.21 		"/>
		<polygon id="XMLID_11203_" points="137.58,138.73 138.98,139.47 145.22,119.9 143.81,119.15 		"/>
		<polygon id="XMLID_11202_" points="72.67,130.86 70.93,131.32 79.04,153.69 80.8,153.23 		"/>
		<polygon id="XMLID_11201_" points="87.35,169.06 89.27,167.07 60.16,145.74 58.2,147.78 		"/>
		<polygon id="XMLID_11200_" points="89.94,128.15 117.11,147.2 118.28,144.95 91.14,125.86 		"/>
		<polygon id="XMLID_11199_" points="136.1,104.96 133.84,105.05 145.49,129.35 147.78,129.26 		"/>
		<polygon id="XMLID_11198_" points="106.94,164.3 87.46,160.32 87.42,161.84 106.91,165.84 		"/>
		<polygon id="XMLID_11197_" points="117.13,166 81.64,164.82 81.78,167.53 117.27,168.74 		"/>
		<polygon id="XMLID_11196_" points="74.3,165 103.82,162.46 103.53,160.23 74.01,162.75 		"/>
		<polygon id="XMLID_11195_" points="107.43,48.92 105.94,50.73 128.82,51.51 130.32,49.69 		"/>
		<polygon id="XMLID_11194_" points="146.93,69.88 146.2,67.61 129.38,87.21 130.12,89.55 		"/>
		<polygon id="XMLID_11193_" points="85.87,55.1 85.19,56.98 101.75,50.08 102.45,48.13 		"/>
		<polygon id="XMLID_11192_" points="137.29,98.96 141.22,99.68 122.43,72.41 118.37,71.66 		"/>
		<polygon id="XMLID_11191_" points="97.4,83.66 96.17,82.49 91.86,100.84 93.11,102.04 		"/>
		<polygon id="XMLID_11190_" points="130.79,88.32 136.77,60.2 134.8,58.23 128.87,86.4 		"/>
		<polygon id="XMLID_11189_" points="124.11,80.47 141.88,65.12 141.62,62.82 123.86,78.22 		"/>
		<polygon id="XMLID_11188_" points="95.23,51.16 92.98,52.61 119.36,69.27 121.63,67.8 		"/>
		<polygon id="XMLID_11187_" points="108.13,61.25 105.89,61.89 124.19,80.71 126.47,80.07 		"/>
		<polygon id="XMLID_11186_" points="133.03,89.4 134.27,92.08 152.98,65.62 151.73,62.92 		"/>
		<polygon id="XMLID_11185_" points="94.25,59.54 94.42,61.48 111.35,48.94 111.19,46.97 		"/>
		<polygon id="XMLID_11184_" points="62.09,147.06 62.66,149.68 98.53,142.77 97.94,140.01 65.06,146.4 65.07,146.48 		"/>
		<polygon id="XMLID_11183_" points="75.2,90.18 74.72,92.31 101.82,101.67 102.31,99.51 		"/>
		<polygon id="XMLID_11182_" points="117.61,135.68 116.13,134.49 97.75,151.19 99.24,152.4 		"/>
		<polygon id="XMLID_11181_" points="128.41,127.1 128.6,126.91 130.09,128.23 131.22,127.09 112.73,110.82 111.39,112.16 		"/>
		<polygon id="XMLID_11180_" points="66.89,123.18 66.99,123.37 64.43,124.77 65.56,126.96 96.58,110.04 95.32,107.61 		"/>
		<polygon id="XMLID_11179_" points="114.9,159.28 113.91,156.9 81.71,167.96 82.73,170.39 		"/>
		<polygon id="XMLID_11178_" points="51.73,136.33 53.6,138.13 81.55,120.27 79.64,118.44 		"/>
		<polygon id="XMLID_11177_" points="71.08,144.87 72.48,144.22 67.75,124.74 66.34,125.4 		"/>
		<polygon id="XMLID_11176_" points="95.63,74.85 96.99,74.01 96.6,72.51 65.77,91.69 66.52,94.57 95.95,76.19 		"/>
		<polygon id="XMLID_11175_" points="107.68,76.45 108.09,77.24 124.92,57.89 123.93,55.99 107.51,74.89 108.06,76.02 		"/>
		<polygon id="XMLID_11174_" points="53.45,118.36 52.38,118.57 52.31,119.5 72.32,115.6 72.44,113.98 53.51,117.69 		"/>
		<polygon id="XMLID_11173_" points="72.06,129.53 71.69,129.51 71.6,127.63 70.13,127.54 71.33,151.65 73.19,151.75 		"/>
		<polygon id="XMLID_11172_" points="84.48,105.36 83.77,105.63 96.71,120.7 98.23,120.11 85.73,105.58 84.92,105.87 		"/>
		<polygon id="XMLID_11171_" points="109.7,126.32 109.42,125.5 111.55,124.27 110.9,122.45 79.74,140.51 80.69,143.2 		"/>
		<polygon id="XMLID_11170_" points="114.93,150.09 115.01,149.53 117.21,149.52 117.45,147.82 87.6,147.94 87.26,150.26 		"/>
		<polygon id="XMLID_11169_" points="81.72,89.69 79.84,89.68 79.49,91.17 110.19,91.09 110.7,88.89 81.93,88.84 		"/>
		<polygon id="XMLID_11168_" points="149.09,71.5 148.94,70.6 124.08,86.68 124.51,89.17 149.08,73.25 148.86,71.66 		"/>
		<polygon id="XMLID_11167_" points="126.39,58.89 132.59,78.82 134.4,79.13 128.18,59.19 		"/>
		<polygon id="XMLID_11166_" points="124.03,137.48 123.89,137.5 123.98,134.63 122.2,134.79 121.24,160.2 123.19,160.02 		"/>
		<polygon id="XMLID_11165_" points="128.6,170.94 128.84,171.3 125.53,172.99 126.56,174.68 154.9,160.34 153.62,158.25 		"/>
		<polygon id="XMLID_11164_" points="158.29,103 157.58,100.57 125.77,101.16 126.48,103.6 		"/>
		<polygon id="XMLID_11163_" points="110.11,178.04 110.11,178.04 112.43,179.62 113.2,177.68 90.92,162.37 90.12,164.36 		"/>
		<polygon id="XMLID_11162_" points="120.85,127.22 111.1,111.81 111.03,111.88 109.84,110.01 108.76,110.99 119.74,128.23 		"/>
		<polygon id="XMLID_11161_" points="172.63,85.5 172.69,85.41 170.98,85.47 171.85,84.04 154.57,84.75 153.68,86.29 		"/>
		<polygon id="XMLID_11160_" points="143.3,73.99 143.3,73.99 145.42,75.16 143.51,76.24 162.38,86.58 164.27,85.45 		"/>
		<polygon id="XMLID_11159_" points="118.06,73.47 118.49,73.73 118.39,71.99 120.31,73.28 118.72,46.85 116.34,45.38 		"/>
		<polygon id="XMLID_11158_" points="102.03,89.46 102.32,89.51 101.5,87.75 103.61,88.12 93.61,67.08 91.2,66.73 		"/>
		<polygon id="XMLID_11157_" points="145.38,74.86 144.87,75.39 145.43,75.45 144.2,76.64 167.13,78.95 168.84,77.16 		"/>
		<polygon id="XMLID_11156_" points="177.77,100.77 178.04,100.34 177.11,100.41 178.03,99.04 157.7,100.83 156.57,102.68 		"/>
		<polygon id="XMLID_11155_" points="64.74,72.38 63.75,71.73 57.1,90.79 57.99,91.35 56.95,94.34 57.59,94.76 64.82,74.09 
			64.27,73.74 		"/>
		<polygon id="XMLID_11154_" points="134.49,98.94 132.07,99.36 129.7,96.01 129.27,96.09 148.43,123.01 150.17,122.63 
			150.39,122.94 151.45,122.74 		"/>
		<polygon id="XMLID_11153_" points="102.56,151.58 103.53,150.67 82.71,138.21 81.68,139.17 78.43,137.22 77.83,137.78 
			100.59,151.44 101.25,150.79 		"/>
		<polygon id="XMLID_11152_" points="132.81,172.81 134.07,172.47 126.24,154.73 125.47,154.95 124.28,152.23 123.39,152.47 
			131.74,171.42 132.14,171.3 		"/>
		<polygon id="XMLID_11151_" points="153.57,106.67 155.15,107.37 161.06,80.99 159.9,80.49 160.82,76.39 159.77,75.92 
			153.36,104.29 154.04,104.59 		"/>
		<polygon id="XMLID_11150_" points="166.57,81.55 167.4,81.23 156.08,67.63 155.03,68.04 153.28,65.93 152.79,66.12 165.28,81.13 
			165.98,80.84 		"/>
		<polygon id="XMLID_11149_" points="91.97,58.04 91.78,59.28 89.44,59.9 89.4,60.23 107.24,55.47 107.34,54.57 107.78,54.45 
			107.87,53.79 		"/>
		<polygon id="XMLID_11148_" points="124.75,132 123.21,132.41 121.19,129.62 120.66,129.77 135.41,150.16 136.48,149.84 
			137.02,150.58 138.02,150.31 		"/>
		<polygon id="XMLID_11147_" points="76.15,136.46 74.25,136.26 72.15,159.98 72.42,160 72.75,160.03 72.46,163.4 73.9,163.55 
			76.11,138.71 75.95,138.7 		"/>
		<polygon id="XMLID_11146_" points="121.24,164.77 122.3,165.49 130.84,149.44 130.34,149.11 131.62,146.7 130.81,146.15 
			121.75,163.15 122.01,163.32 		"/>
		<polygon id="XMLID_11145_" points="154.42,150.04 152.89,148.67 136.29,169.94 136.92,170.47 134.48,173.6 135.62,174.6 
			153.14,152.23 152.88,152.01 		"/>
		<polygon id="XMLID_11144_" points="71.66,64.32 69.96,64.34 68.8,62.16 68.63,62.16 78.67,80.81 80.53,80.77 		"/>
		<polygon id="XMLID_11143_" points="87.91,69.66 89.18,72.12 87.29,75.02 87.35,75.13 104.71,48.41 103.34,45.88 		"/>
		<polygon id="XMLID_11142_" points="125.01,164.6 125.4,164.53 125.72,167.14 126.95,166.95 124.51,147.19 124.47,147.2 
			124.25,145.41 122.66,145.65 		"/>
		<polygon id="XMLID_11141_" points="84.96,154.93 86.23,154.21 86.12,153.96 84.85,154.68 		"/>
		<polygon id="XMLID_11140_" points="103.42,164.65 103.64,162.92 103.41,162.87 103.19,164.61 		"/>
		<polygon id="XMLID_11139_" points="102.42,116.69 103.14,118.76 103.29,118.71 102.57,116.64 		"/>
		<polygon id="XMLID_11138_" points="92.74,168.12 92.68,171.17 92.76,171.17 92.83,168.12 		"/>
		<polygon id="XMLID_11137_" points="75.91,118.26 76.42,118.35 77.05,117.41 76.5,117.31 		"/>
		<polygon id="XMLID_11136_" points="68.5,123.47 69.36,124.12 70.53,123.39 69.63,122.71 		"/>
		<polygon id="XMLID_11135_" points="150.34,102.65 151.85,102.8 152,102.3 150.5,102.14 		"/>
		<polygon id="XMLID_11134_" points="127.15,160.15 129.08,159.85 129.22,158.66 127.3,158.95 		"/>
		<polygon id="XMLID_11133_" points="100.44,105.18 99.84,103.43 99,103.51 99.59,105.26 		"/>
		<polygon id="XMLID_11132_" points="138.86,109.58 139,108.05 137.82,107.56 137.68,109.06 		"/>
		<polygon id="XMLID_11131_" points="74.83,106.97 74.86,106.67 73.41,105.8 73.37,106.15 		"/>
		<polygon id="XMLID_11130_" points="125.84,136.59 124.72,135.41 124.38,135.65 125.5,136.83 		"/>
		<polygon id="XMLID_11129_" points="155.53,104.98 155.5,104.08 132.46,109.38 132.53,111.19 152.47,106.64 152.44,105.69 		"/>
		<polygon id="XMLID_11128_" points="152.37,113.47 151.58,113.4 155.02,136.54 156.83,136.69 153.88,116.69 152.83,116.59 		"/>
		<polygon id="XMLID_11127_" points="129.01,143.69 128.2,144.18 151.08,165.19 153.17,163.91 133.44,145.72 132.1,146.52 		"/>
		<polygon id="XMLID_11126_" points="120.68,144.51 120.46,145.74 150.16,146.8 150.55,144.66 148.41,144.58 148.43,144.48 
			124.81,143.61 124.61,144.66 		"/>
		<polygon id="XMLID_11125_" points="113.34,91.85 113.44,91.9 113.13,64.42 110.95,63.22 111.22,87.71 113.3,88.8 		"/>
		<polygon id="XMLID_11124_" points="147.42,95.07 147.7,95.1 136.74,67.19 134.13,66.9 143.75,91.55 146.12,91.77 		"/>
		<polygon id="XMLID_11123_" points="148.81,90.6 148.97,90.82 158.48,73.46 157.49,72.08 149.14,87.29 149.99,88.44 		"/>
		<polygon id="XMLID_11122_" points="86.24,134.32 85.87,134 78.24,154.23 79.56,155.4 86.21,137.87 85.23,137 		"/>
		<polygon id="XMLID_11121_" points="117.72,102.67 118.65,102.72 109.33,68.86 106.47,68.71 114.53,98.03 116.47,98.13 		"/>
		<polygon id="XMLID_11120_" points="128.4,92.8 128.38,93.38 158.01,82.13 158.12,79.46 132.29,89.24 132.22,91.34 		"/>
		<polygon id="XMLID_11119_" points="105.68,130.99 90,122.95 89.71,124.58 108.15,134.03 108.27,133.36 105.49,131.92 		"/>
		<polygon id="XMLID_11118_" points="132.19,67.93 162.92,72.1 164.92,69.63 130.78,64.93 130.73,64.99 134.13,65.44 		"/>
		<polygon id="XMLID_11117_" points="126.94,55.69 138.33,76.82 140.83,77.05 128.33,53.8 128.14,53.79 129.25,55.83 		"/>
		<polygon id="XMLID_11116_" points="128.14,47.09 124.55,71.06 126.35,72.98 130.13,47.93 129.66,47.43 129.51,48.44 		"/>
		<polygon id="XMLID_11115_" points="148.17,109.27 124.88,121.84 124.31,124.68 148.16,111.84 148.35,110.91 147.86,111.17 		"/>
		<polygon id="XMLID_11114_" points="164.92,78.8 158.79,96.68 159.91,98.35 166.48,79.34 166.25,78.99 165.87,80.11 		"/>
		<polygon id="XMLID_11113_" points="125.67,78.64 150.94,69.59 151.7,66.84 124.32,76.62 124.22,77 126.25,76.27 		"/>
		<polygon id="XMLID_11112_" points="107.37,177.46 109.4,177.8 117.01,143.83 115.17,143.51 114.32,147.24 113.58,147.08 
			107.67,173.23 108.3,173.35 		"/>
		<polygon id="XMLID_11111_" points="125.61,177.14 125.82,175.67 96.65,172.78 96.39,174.6 99.03,174.88 98.97,175.23 
			121.76,177.54 121.89,176.77 		"/>
		<polygon id="XMLID_11110_" points="155.68,105.22 154.02,104.58 141.06,127.29 142.16,127.71 143.82,124.84 144.55,125.15 
			154.36,107.84 154.22,107.78 		"/>
		<polygon id="XMLID_11109_" points="89.66,146.99 87.95,147.47 92.63,175.03 93.97,174.66 93.42,171.39 94.14,171.22 90.57,150.12 
			90.2,150.21 		"/>
		<polygon id="XMLID_11108_" points="103.71,175.23 104.99,176.47 127.64,153.2 126.27,151.88 123.99,154.2 123.61,153.8 
			106.01,171.83 106.53,172.35 		"/>
		<polygon id="XMLID_11107_" points="108,132.21 109.05,131.94 101.03,109.55 99.48,109.95 100.13,111.77 99.94,111.81 
			106.29,129.46 106.96,129.29 		"/>
		<polygon id="XMLID_11106_" points="91.45,169.7 94.2,169.14 95.7,133.86 94.41,134.12 94.18,139.19 92.75,139.44 91.61,166.03 
			91.62,166.02 		"/>
		<polygon id="XMLID_11105_" points="86.92,129.03 87.23,130.39 106.28,129.93 106.11,129.17 103.53,129.22 103.4,128.56 
			88.97,128.89 88.98,128.99 		"/>
		<polygon id="XMLID_11104_" points="127.58,164.44 124.73,164.71 124.72,165.35 127.59,165.07 		"/>
		<polygon id="XMLID_11103_" points="151.14,65.47 152.86,65.99 152.68,65.51 150.92,64.9 		"/>
		<polygon id="XMLID_11102_" points="140.99,61.59 141.96,59.99 140.96,60.08 139.91,61.68 		"/>
		<polygon id="XMLID_11101_" points="103.68,60.92 104.67,63.93 106.96,61.36 106.02,58.3 		"/>
		<polygon id="XMLID_11100_" points="147.21,105.8 143.07,104.26 142.85,104.9 147.01,106.44 		"/>
		<polygon id="XMLID_11099_" points="136.41,50.74 134.54,52.48 136.35,52.87 138.32,51.16 		"/>
		<polygon id="XMLID_11098_" points="108.3,57.4 106.81,58.63 108.65,59.23 110.19,58.03 		"/>
		<polygon id="XMLID_11097_" points="136.45,57.18 136.56,54.19 134.3,55.56 134.08,58.6 		"/>
		<polygon id="XMLID_11096_" points="156.19,146.46 155.98,146.21 152.82,148.81 153.28,149.39 156.45,146.78 		"/>
		<polygon id="XMLID_11095_" points="151.72,136.42 154.05,136.09 154.01,135.99 151.68,136.32 		"/>
		<polygon id="XMLID_11094_" points="87.89,171.01 84.49,169.31 84.33,169.73 87.73,171.43 		"/>
		
			<rect id="XMLID_11093_" x="162.47" y="143.78" transform="matrix(0.7168 -0.6972 0.6972 0.7168 -55.0219 154.3096)" width="0" height="2.24"/>
		<polygon id="XMLID_11092_" points="143.98,134.34 146.35,134.38 146.34,134.25 143.96,134.22 		"/>
		<polygon id="XMLID_11091_" points="82.78,160.49 85.64,157.86 85.13,157.23 82.25,159.87 		"/>
		<polygon id="XMLID_11090_" points="120.99,71.77 123.35,73.83 124.79,73.12 122.45,71.07 		"/>
		<polygon id="XMLID_11089_" points="177.83,101 179,97.73 177.41,96.05 176.24,99.26 		"/>
		<polygon id="XMLID_11088_" points="139.07,60.53 135.95,59.78 134.3,61.63 137.36,62.36 		"/>
		<polygon id="XMLID_11087_" points="128.07,117.35 131.66,117.44 132.59,115.56 129.03,115.46 		"/>
		<polygon id="XMLID_11086_" points="86.06,81.25 82.95,82.09 82.97,83.16 86.09,82.33 		"/>
		<polygon id="XMLID_11085_" points="142.65,152.27 141.52,156.8 142.69,157.29 143.82,152.75 		"/>
		<polygon id="XMLID_11084_" points="164.13,84.4 159.83,82.38 158.47,83.8 162.78,85.83 		"/>
		<polygon id="XMLID_11083_" points="162.27,153.45 166.24,151.49 165.96,149.86 161.97,151.82 		"/>
		<polygon id="XMLID_11082_" points="132.58,81.47 130.1,79.49 128.85,80.23 131.32,82.21 		"/>
		<polygon id="XMLID_11081_" points="143.74,164.65 146.66,164.66 146.84,163.81 143.91,163.79 		"/>
		<polygon id="XMLID_11080_" points="139.29,168.32 121.12,159.35 120.32,160.85 140.51,170.81 141.13,169.65 139.12,168.67 		"/>
		<polygon id="XMLID_11079_" points="127.79,98.98 127.47,100.63 156.7,93.2 157.19,90.63 131.85,97.1 131.69,97.99 		"/>
		<polygon id="XMLID_11078_" points="112.44,92.44 111.26,93.36 132.94,105.51 134.62,104.21 115.71,93.66 115.27,94.02 		"/>
		<polygon id="XMLID_11077_" points="153.85,136.04 149.48,118.59 148.02,119.14 153.02,139.14 153.91,138.8 153.26,136.29 		"/>
		<polygon id="XMLID_11076_" points="157.55,122.88 159.58,124.57 159.48,128.83 160.13,129.36 160.91,95.91 158.2,93.7 		"/>
		<polygon id="XMLID_11075_" points="150.15,125.84 171.19,119.62 171,117.82 148.32,124.48 148.51,126.24 150.14,125.75 		"/>
		<polygon id="XMLID_11074_" points="131.05,81.87 130.24,80.56 114.37,111.43 116.09,114.21 129.73,87.54 128.86,86.15 		"/>
		<polygon id="XMLID_11073_" points="170.4,86.68 171.51,85.15 174.13,84.97 174.36,84.64 152.86,86.14 151.5,88.04 		"/>
		<polygon id="XMLID_11072_" points="131.03,68.51 130.67,67.12 106.8,93.17 107.65,96.47 128.23,73.95 127.75,72.1 		"/>
		<polygon id="XMLID_11071_" points="122.9,171.19 119.81,145.75 117.65,146.16 121.11,175.03 122.56,174.75 122.14,171.36 		"/>
		<polygon id="XMLID_11070_" points="112.81,92.08 112.02,92.67 130.4,100.82 131.87,99.74 115.99,92.72 115.34,93.21 		"/>
		<polygon id="XMLID_11069_" points="96.56,55.31 96.09,57.04 129.08,50.1 129.87,47.19 101.35,53.24 101.06,54.36 		"/>
		<polygon id="XMLID_11068_" points="154.84,124.74 153.24,124.91 160.42,145.01 161.97,144.84 155.64,126.86 155.6,126.86 		"/>
		<polygon id="XMLID_11067_" points="101.27,96.6 101.35,98.28 125.35,87.97 125.25,85.81 104.25,94.85 104.28,95.3 		"/>
		<polygon id="XMLID_11066_" points="116.03,146.62 117.63,150.98 116.47,151.86 125.5,176.6 127.52,175.16 116.88,146.02 		"/>
		<polygon id="XMLID_11065_" points="168.33,134.68 154.12,153.89 155.76,155.06 171.76,133.52 170.55,132.66 168.82,135.01 		"/>
		<polygon id="XMLID_11064_" points="162.25,150.64 131.12,157.67 131.49,160.32 165.74,152.63 165.42,150.37 162.33,151.08 		"/>
		<polygon id="XMLID_11063_" points="100.63,114.38 79.27,135.23 80.76,137.22 104.05,114.56 102.69,112.75 100.81,114.6 		"/>
		<polygon id="XMLID_11062_" points="158.68,146.92 149.09,127.21 147.51,128.35 158.59,151.17 159.46,150.54 157.96,147.48 		"/>
		<polygon id="XMLID_11061_" points="165.73,120.17 163.75,119.88 167.08,147.6 169.31,147.94 166.31,123.33 166.12,123.31 		"/>
		<polygon id="XMLID_11060_" points="151.29,89.2 153.28,89.78 152.32,59.62 149.95,58.93 150.82,85.51 151.16,85.6 		"/>
		<polygon id="XMLID_11059_" points="144.44,146.13 171.56,140.96 170.55,138.63 138.89,144.67 139.37,145.79 143.87,144.92 		"/>
		<polygon id="XMLID_11058_" points="126.56,52.63 126.33,51.5 104.09,74.9 104.74,78.03 123.95,57.78 123.54,55.82 		"/>
		<polygon id="XMLID_11057_" points="134.93,107.4 135.1,106.4 105.51,121.32 104.96,124.64 130.62,111.66 131.03,109.36 		"/>
		<polygon id="XMLID_11056_" points="102.77,168.66 101.88,168.72 101.76,172.62 102.64,172.59 		"/>
		<polygon id="XMLID_11055_" points="149.04,132.21 149.35,131.52 146.04,129.8 145.71,130.46 		"/>
		<polygon id="XMLID_11054_" points="136.12,149.78 135.32,149.17 132.43,151.99 133.19,152.61 		"/>
		<polygon id="XMLID_11053_" points="159.54,155.12 159.48,155.03 157.88,156.53 157.94,156.62 		"/>
		<polygon id="XMLID_11052_" points="117.91,148.28 116.71,147.72 113.8,151.68 114.97,152.27 		"/>
		<polygon id="XMLID_11051_" points="111.14,119.36 111.85,119.68 113.51,117.55 112.82,117.22 		"/>
		<polygon id="XMLID_11050_" points="133.08,166.53 132.97,166.79 134.84,167.5 134.96,167.26 		"/>
		<polygon id="XMLID_11049_" points="105.94,112.8 105.78,113 107.75,114.37 107.92,114.18 		"/>
		<polygon id="XMLID_11048_" points="142.52,135.21 142.85,135.36 143.74,133.46 143.41,133.29 		"/>
		<polygon id="XMLID_11047_" points="160.94,90.77 160.32,91.26 172.57,120.42 174.58,118.84 165.66,97.72 164.23,98.72 		"/>
		<polygon id="XMLID_11046_" points="118.44,124.77 117.88,124.93 119.37,152.63 121.47,152.04 120.35,131.41 118.78,131.76 		"/>
		<polygon id="XMLID_11045_" points="113.29,131.17 113.49,131.43 130.84,122.49 129.93,121.29 116.68,128.12 117.34,129.11 		"/>
		<polygon id="XMLID_11044_" points="113.06,118.85 113.16,118.79 98.8,94.17 96.94,95.29 108.73,115.51 110.58,114.54 		"/>
		<path id="XMLID_11043_" d="M113.42,71.4l1.63,0.31c-0.08,0.07-0.16,0.14-0.24,0.21l16.54,2.95l0.93-0.93l2.86,0.51l0.55-0.55
			l-21.01-3.75L113.42,71.4z"/>
		<polygon id="XMLID_11042_" points="142.54,52.7 142.66,53.64 142.61,53.6 145.97,75.91 147.64,76.79 148.18,80.34 148.94,80.75 
			144.87,53.94 		"/>
		<polygon id="XMLID_11041_" points="96.69,139.16 113.75,138.5 113.75,136.97 93.53,137.75 93.53,137.76 96.78,137.65 		"/>
		<polygon id="XMLID_11040_" points="123.86,172.98 123.85,172.7 103.42,171.05 103.48,172.62 119.47,173.9 119.5,172.62 		"/>
		<polygon id="XMLID_11039_" points="143.93,157.1 145.63,156.45 147.38,161.22 147.58,161.13 138.34,136.55 136.52,137.38 		"/>
		<polygon id="XMLID_11038_" points="126.43,161.5 150.18,165.54 150.28,165.34 153.67,165.93 154.55,163.9 124.42,158.78 
			124.19,159.31 127.24,159.84 		"/>
		<polygon id="XMLID_11037_" points="112.31,135.27 88.96,127.38 88.92,127.44 85.78,126.37 84.6,128.45 114.38,138.52 
			114.6,138.13 111.23,136.97 		"/>
		<polygon id="XMLID_11036_" points="147.81,134.62 167.09,130.48 167.12,130.18 170.02,129.57 170.16,127.87 145.78,133.1 
			145.73,133.69 147.96,133.22 		"/>
		<polygon id="XMLID_11035_" points="143.05,137.34 163.2,142.12 163.46,141.74 166.64,142.5 167.55,141.07 142.09,135.05 
			141.68,135.69 143.82,136.2 		"/>
		<polygon id="XMLID_11034_" points="158.01,141.22 171.67,132.51 171.61,131.8 173.98,130.29 173.86,129.18 156.41,140.35 
			156.51,141.31 157.93,140.4 		"/>
		<polygon id="XMLID_11033_" points="173.48,101.35 155.4,121.18 155.85,122.53 152.63,126.06 153.19,127.7 176.56,102.02 
			175.95,100.26 173.9,102.52 		"/>
		<path id="XMLID_11032_" d="M85.07,75.98l22.12-4.41l0.59-1.48l3.97-0.79l0.45-1.13l-28.89,5.76l-0.77,1.95l2.8-0.55
			C85.26,75.54,85.16,75.76,85.07,75.98z"/>
		<polygon id="XMLID_11031_" points="152.9,72.6 142.32,86.31 142.7,87.31 140.79,89.79 141.16,90.75 155.01,72.78 154.51,71.5 
			153.16,73.25 		"/>
		<polygon id="XMLID_11030_" points="176.24,96.29 156.49,76.69 155.5,77.06 152.16,73.75 150.25,74.49 175.44,99.33 176.79,98.81 
			174.8,96.85 		"/>
		<polygon id="XMLID_11029_" points="112.04,122.7 135.69,135.28 136.3,134.79 140.17,136.86 141.76,135.51 111.83,119.62 
			110.93,120.38 113.32,121.65 		"/>
		<polygon id="XMLID_11028_" points="170.04,106.3 177.84,123.9 179.46,123.35 170.39,102.92 170.29,102.95 171.57,105.88 		"/>
		<polygon id="XMLID_11027_" points="150.98,98.9 162.02,114 163.47,113.23 150.86,95.99 150.69,96.08 152.29,98.28 		"/>
		<polygon id="XMLID_11026_" points="161.44,121.41 163.15,119.32 162.93,118.91 161.22,120.99 		"/>
		<polygon id="XMLID_11025_" points="113.84,117.32 110.13,114.45 109.21,114.95 112.9,117.8 		"/>
		<polygon id="XMLID_11024_" points="165.59,92.04 162.54,93.56 162.54,94.41 165.57,92.9 		"/>
		<polygon id="XMLID_11023_" points="115.72,104.44 112.6,107.38 112.91,108.81 116.03,105.87 		"/>
		<polygon id="XMLID_11022_" points="171.25,98.26 167.54,95.76 166.36,96.36 170.07,98.86 		"/>
		<polygon id="XMLID_11021_" points="179.96,97.46 176.23,97.87 176.22,97.94 179.95,97.54 		"/>
		<polygon id="XMLID_11020_" points="167.46,123.14 170.47,121.73 170.44,121.54 167.43,122.93 		"/>
		<polygon id="XMLID_11019_" points="122.02,95.83 122.51,91.52 122.12,91.36 121.62,95.64 		"/>
		<polygon id="XMLID_11018_" points="151.09,75.41 148.16,76.15 148.12,76.56 151.04,75.84 		"/>
		<polygon id="XMLID_11017_" points="114.21,163.7 115.49,164.24 115.89,161.8 114.59,161.32 		"/>
		<polygon id="XMLID_11016_" points="149.04,146.97 146.41,152.43 148.35,153.21 150.96,147.88 		"/>
		<polygon id="XMLID_11015_" points="156.63,116.44 158.17,117.25 158.76,114.41 157.2,113.67 		"/>
		<polygon id="XMLID_11014_" points="158.08,113.67 162.46,119.03 163.32,117.93 158.86,112.55 		"/>
		<polygon id="XMLID_11013_" points="139.11,125.88 145.42,121.95 144.29,120.68 137.93,124.68 		"/>
		<polygon id="XMLID_11012_" points="143.88,129.99 138.52,131.73 139.17,134.01 144.65,132.19 		"/>
		<polygon id="XMLID_11011_" points="171.77,124.76 165.44,127.55 166.39,129.37 172.8,126.51 		"/>
		<polygon id="XMLID_11010_" points="159.64,146.32 159.64,141.13 158.29,141.28 158.32,146.55 		"/>
		<polygon id="XMLID_11009_" points="123.62,178.68 125.44,177.1 121.92,174.29 120.17,175.96 		"/>
		<polygon id="XMLID_11008_" points="158.54,155.13 156.45,154.75 156.29,158.98 158.4,159.24 		"/>
		<polygon id="XMLID_11007_" points="164.79,141.99 162.42,142.45 163.85,147.35 166.2,146.75 		"/>
		<polygon id="XMLID_11006_" points="128.75,143.57 130.37,143.29 129.12,140.95 127.52,141.28 		"/>
	</g>
</g>
</svg>
