<?xml version="1.0" encoding="utf-8"?>
<!-- Generator: Adobe Illustrator 26.2.1, SVG Export Plug-In . SVG Version: 6.00 Build 0)  -->
<svg version="1.1" xmlns="http://www.w3.org/2000/svg" xmlns:xlink="http://www.w3.org/1999/xlink" x="0px" y="0px"
	 viewBox="0 0 225 225" style="enable-background:new 0 0 225 225;" xml:space="preserve">
<style type="text/css">
	.st0{display:none;}
	.st1{display:inline;fill:#FAB433;}
	.st2{fill:none;}
	.st3{fill:none;stroke:#000000;stroke-width:1.6;stroke-miterlimit:10;}
	.st4{fill:none;stroke:#000000;stroke-width:0.7265;stroke-miterlimit:10;}
	.st5{fill:none;stroke:#000000;stroke-linecap:round;stroke-linejoin:round;stroke-miterlimit:10;}
	.st6{fill:none;stroke:#000000;stroke-miterlimit:10;}
	.st7{fill:none;stroke:#000000;stroke-width:0.7105;stroke-miterlimit:10;}
	.st8{fill:none;stroke:#000000;stroke-width:5.4;stroke-linecap:round;stroke-linejoin:round;stroke-miterlimit:10;}
	.st9{fill:none;stroke:#000000;stroke-width:2.9309;stroke-linecap:round;stroke-linejoin:round;stroke-miterlimit:10;}
	.st10{fill:none;stroke:#000000;stroke-width:0.5;stroke-linecap:round;stroke-linejoin:round;}
	.st11{fill:none;stroke:#FFFFFF;stroke-width:0;stroke-linecap:round;stroke-linejoin:round;}
	.st12{fill:#FFFFFF;}
	.st13{fill:none;stroke:#000000;stroke-width:1.4;stroke-miterlimit:10;}
	.st14{fill:url(#);stroke:#000000;stroke-width:1.4387;stroke-miterlimit:10;}
	.st15{fill:url(#);stroke:#000000;stroke-width:1.3718;stroke-miterlimit:10;}
	.st16{fill:none;stroke:#000000;stroke-width:1.0041;stroke-miterlimit:10;}
	.st17{fill:none;stroke:#000000;stroke-width:1.3621;stroke-miterlimit:10;}
	.st18{fill:none;stroke:#000000;stroke-width:0.25;stroke-miterlimit:10;}
</style>
<g id="Layer_2" class="st0">
	
		<rect id="XMLID_00000049924193275795927410000016330201882968263580_" x="-590.99" y="-520.01" class="st1" width="1160" height="772"/>
</g>
<g id="Layer_1">
	<path id="XMLID_00000134214223378044661680000009444709928201859979_" d="M128.18,48.89c-21.31-5.23-43.73,0.83-59.62,15.18
		c-11.62,27.99,1.66,56.22,22.87,68.84C71.9,112.79,82.71,57.59,128.18,48.89z"/>
	<path id="XMLID_00000135661149115772090490000002905666197238918838_" d="M65.2,67.26c-15.1,15.77-21.07,38.09-16.7,58.95
		c18.35,24.2,49.78,27.09,71.65,14.7C92.14,148.44,50.5,110.28,65.2,67.26z"/>
	<path id="XMLID_00000044871099616473407990000002903366302385353401_" d="M49.62,130.79c6.12,21.04,22.54,37.41,42.88,44.02
		c29.88-3.88,47.86-29.29,48.23-54.12C133.18,146.98,80.43,166.4,49.62,130.79z"/>
	<path id="XMLID_00000011725849029700109350000000771685441916765076_" d="M97,176.11c21.21,5.19,43.52-0.8,59.4-15.01
		c11.77-28.04-1.5-56.57-22.97-69.28C153.22,111.82,142.34,167.19,97,176.11z"/>
	<path id="XMLID_00000133489244591954167790000000028287055398067843_" d="M105.53,84c26.71-6.6,69.6,29.66,54.25,73.87
		c15.18-15.84,21.15-38.28,16.66-59.22C158.16,74.82,127.23,71.92,105.53,84z"/>
	<path id="XMLID_00000012452559054902293200000001024729732281109385_" d="M132.75,50.2c-30.25,3.79-48.38,29.64-48.6,54.65
		c1.65-6.09,5.23-11.52,10.38-15.51c23.96-21.18,60.61-18.34,80.87,4.84C169.38,73.52,153.39,56.91,132.75,50.2z"/>
</g>
</svg>
