<?xml version="1.0" encoding="utf-8"?>
<!-- Generator: Adobe Illustrator 26.2.1, SVG Export Plug-In . SVG Version: 6.00 Build 0)  -->
<svg version="1.1" xmlns="http://www.w3.org/2000/svg" xmlns:xlink="http://www.w3.org/1999/xlink" x="0px" y="0px"
	 viewBox="0 0 225 225" style="enable-background:new 0 0 225 225;" xml:space="preserve">
<style type="text/css">
	.st0{display:none;}
	.st1{display:inline;fill:#FAB433;}
	.st2{fill:none;}
	.st3{fill:none;stroke:#000000;stroke-width:1.6;stroke-miterlimit:10;}
	.st4{fill:none;stroke:#000000;stroke-width:0.7265;stroke-miterlimit:10;}
	.st5{fill:none;stroke:#000000;stroke-linecap:round;stroke-linejoin:round;stroke-miterlimit:10;}
	.st6{fill:none;stroke:#000000;stroke-miterlimit:10;}
	.st7{fill:none;stroke:#000000;stroke-width:0.7105;stroke-miterlimit:10;}
	.st8{fill:none;stroke:#000000;stroke-width:5.4;stroke-linecap:round;stroke-linejoin:round;stroke-miterlimit:10;}
	.st9{fill:none;stroke:#000000;stroke-width:2.9309;stroke-linecap:round;stroke-linejoin:round;stroke-miterlimit:10;}
	.st10{fill:none;stroke:#000000;stroke-width:0.5;stroke-linecap:round;stroke-linejoin:round;}
	.st11{fill:none;stroke:#FFFFFF;stroke-width:0;stroke-linecap:round;stroke-linejoin:round;}
	.st12{fill:#FFFFFF;}
	.st13{fill:none;stroke:#000000;stroke-width:1.4;stroke-miterlimit:10;}
	.st14{fill:url(#);stroke:#000000;stroke-width:1.4387;stroke-miterlimit:10;}
	.st15{fill:url(#);stroke:#000000;stroke-width:1.3718;stroke-miterlimit:10;}
	.st16{fill:none;stroke:#000000;stroke-width:1.0041;stroke-miterlimit:10;}
	.st17{fill:none;stroke:#000000;stroke-width:1.3621;stroke-miterlimit:10;}
	.st18{fill:none;stroke:#000000;stroke-width:0.25;stroke-miterlimit:10;}
</style>
<g id="Layer_2" class="st0">
	<rect id="XMLID_1014_" x="-100.99" y="-520.01" class="st1" width="1160" height="772"/>
</g>
<g id="Layer_1">
	<g id="XMLID_1284_">
		<path d="M109.2,164.87c-12.29-0.79-24.4-5.84-33.81-15.26c-9.42-9.42-14.47-21.52-15.26-33.81L47.6,103.28
			c-2.83,19.71,3.34,40.45,18.51,55.62s35.9,21.34,55.62,18.51L109.2,164.87z"/>
		<g id="XMLID_1333_">
			<path id="XMLID_1344_" d="M90.71,146.38l-8.77,8.77c0.35,0.25,0.71,0.51,1.07,0.76l8.62-8.62L90.71,146.38z"/>
			<path id="XMLID_1343_" d="M81.58,137.25l-9.14,9.14c0.28,0.33,0.56,0.65,0.85,0.98l9.21-9.21L81.58,137.25z"/>
			<path id="XMLID_1342_" d="M72.45,128.12l-7.2,7.2c0.2,0.41,0.4,0.81,0.61,1.22l7.51-7.51L72.45,128.12z"/>
			<path id="XMLID_1341_" d="M63.31,118.99l-2.5,2.5c0.09,0.51,0.18,1.03,0.28,1.54l3.13-3.13L63.31,118.99z"/>
			<path id="XMLID_1340_" d="M86.15,141.82l-9.24,9.24c0.32,0.29,0.64,0.58,0.96,0.86l9.19-9.19L86.15,141.82z"/>
			<path id="XMLID_1339_" d="M77.01,132.69l-8.47,8.47c0.24,0.37,0.48,0.74,0.73,1.1l8.66-8.66L77.01,132.69z"/>
			<path id="XMLID_1338_" d="M67.88,123.55l-5.25,5.25c0.15,0.46,0.3,0.91,0.46,1.36l5.7-5.7L67.88,123.55z"/>
			<path id="XMLID_1337_" d="M108.98,164.65l-0.19,0.19c0.14,0.01,0.28,0.03,0.42,0.04L108.98,164.65z"/>
			<path id="XMLID_1336_" d="M99.84,155.52l-6.02,6.02c0.44,0.17,0.89,0.33,1.34,0.49l5.6-5.6L99.84,155.52z"/>
			<path id="XMLID_1335_" d="M104.41,160.08l-3.57,3.57c0.5,0.11,1,0.23,1.5,0.33l2.99-2.99L104.41,160.08z"/>
			<path id="XMLID_1334_" d="M96.19,151.86l-0.91-0.91l-7.72,7.72c0.4,0.21,0.79,0.43,1.2,0.63L96.19,151.86z"/>
		</g>
		<path d="M129.66,51.82l0.22,0.22l31.09,31.09l0.22,0.22l15.43,15.43c-0.3-1.41-0.66-2.8-1.06-4.19l-12.81-12.81l-0.22-0.22
			l-31.09-31.09l-0.22-0.22l-0.82-0.82c-1.39-0.39-2.78-0.76-4.19-1.06L129.66,51.82z M150.01,156.71l-3.91-3.91
			c0,0,0.01,0,0.01-0.01c-0.58,0.48-1.16,0.95-1.75,1.4c0,0,0,0,0,0l4.09,4.09l0.22,0.22l5.03,5.03c0.57-0.46,1.14-0.94,1.71-1.42
			l-5.17-5.17L150.01,156.71z M137.49,169.23l-7.31-7.31c-0.78,0.28-1.56,0.54-2.35,0.78l8.1,8.1l0.22,0.22l1.88,1.88
			c0.73-0.31,1.45-0.63,2.17-0.96l-2.48-2.48L137.49,169.23z M143.75,162.97l-5.02-5.02c-0.67,0.39-1.35,0.75-2.03,1.11
			c0,0,0,0,0.01,0l5.48,5.48l0.22,0.22l3.93,3.93c0.65-0.39,1.29-0.8,1.92-1.21l-4.29-4.29L143.75,162.97z M147.1,160.06l-0.22-0.22
			l-4.32-4.32c0,0,0,0,0,0c-0.62,0.43-1.24,0.86-1.87,1.26l4.63,4.63l0.22,0.22l4.59,4.59c0.96-0.67,2.16-1.57,1.82-1.31
			L147.1,160.06z M140.62,166.1l-6.01-6.01c0,0,0,0,0.01,0c-0.72,0.34-1.45,0.66-2.18,0.96l6.62,6.62l0.22,0.22l3.03,3.03
			c0.69-0.35,1.38-0.7,2.06-1.08l-3.52-3.52L140.62,166.1z M134.36,172.36l-8.98-8.98c-0.85,0.21-1.7,0.41-2.56,0.58c0,0,0,0,0,0
			l9.97,9.97l0.22,0.22l0.47,0.47c0.77-0.26,1.54-0.53,2.31-0.82l-1.22-1.22L134.36,172.36z M126.75,55.17l11.76,11.76c0,0,0,0,0,0
			c3.97,2.27,7.71,5.09,11.1,8.47s6.21,7.13,8.47,11.1c0,0,0,0,0,0l19.7,19.7c-0.11-1.2-0.27-2.39-0.45-3.58l-17.7-17.7l-0.22-0.22
			L128.31,53.6l-0.22-0.22l-5.71-5.71c-1.19-0.18-2.39-0.34-3.58-0.45l7.73,7.73L126.75,55.17z M174.1,90L174.1,90
			c0.01,0.04,0.03,0.08,0.04,0.13C174.13,90.09,174.12,90.05,174.1,90z M140.33,53.1L140.33,53.1
			C140.33,53.1,140.33,53.1,140.33,53.1C140.33,53.1,140.33,53.1,140.33,53.1z M135,50.9c-0.04-0.02-0.09-0.03-0.13-0.04
			C134.92,50.87,134.96,50.89,135,50.9L135,50.9z M164.32,80.22L174.1,90c-0.65-1.8-1.38-3.58-2.2-5.33l-6.02-6.02l-0.22-0.22
			L140.33,53.1c-1.75-0.82-3.53-1.55-5.33-2.2L164.1,80L164.32,80.22z M159.41,147.31l-4.25-4.25c0,0,0,0,0,0
			c-0.43,0.6-0.89,1.2-1.35,1.79l4.03,4.03l0.22,0.22l5.07,5.07c0.47-0.57,0.94-1.15,1.39-1.74l-4.89-4.89L159.41,147.31z
			 M162.75,144.4l-0.22-0.22l-4.9-4.9c0,0,0,0,0,0c-0.39,0.65-0.79,1.29-1.21,1.93c0,0,0,0,0,0l4.54,4.54l0.22,0.22l4.66,4.66
			c0.44-0.61,0.89-1.21,1.3-1.83L162.75,144.4z M165.67,141.05l-5.85-5.85c-0.34,0.7-0.68,1.39-1.05,2.08l5.34,5.34l0.22,0.22
			l4.04,4.04c0.4-0.65,0.79-1.3,1.17-1.96l-3.64-3.64L165.67,141.05z M156.27,150.45l-3.88-3.88c-0.48,0.56-0.97,1.11-1.48,1.66
			l3.79,3.79l0.22,0.22l5.27,5.27c0.51-0.54,1.01-1.08,1.5-1.63l-5.21-5.21L156.27,150.45z M67.5,64.8l9.28,9.28
			c0.54-0.51,1.1-1,1.66-1.48l-9.3-9.3C68.58,63.79,68.04,64.29,67.5,64.8z M86.36,52.35l10.17,10.17c0.8-0.26,1.61-0.49,2.42-0.71
			L88.57,51.43C87.83,51.72,87.09,52.03,86.36,52.35z M90.85,50.58l10.63,10.63c0,0,0,0,0,0c0.88-0.19,1.76-0.35,2.64-0.5
			c0,0,0,0,0,0L93.21,49.81 M95.56,49.15 M95.56,49.15c0.03-0.01,0.07-0.02,0.1-0.03l0,0C95.62,49.13,95.59,49.14,95.56,49.15z
			 M109.76,60.1L98.17,48.51c-0.84,0.19-1.68,0.4-2.52,0.61l11.21,11.21c0,0,0,0,0,0C107.83,60.23,108.79,60.15,109.76,60.1z
			 M83.79,68.57C83.79,68.57,83.79,68.57,83.79,68.57c0.64-0.42,1.28-0.82,1.93-1.21c0,0,0,0,0,0l-9.49-9.49
			c-0.62,0.41-1.24,0.84-1.85,1.28L83.79,68.57z M87.72,66.24c0,0-0.01,0.01-0.01,0.01c0.69-0.37,1.39-0.72,2.09-1.06l-9.71-9.71
			c-0.66,0.38-1.31,0.77-1.96,1.17L87.72,66.24z M80.15,71.19c0.59-0.46,1.18-0.91,1.79-1.35l-9.36-9.36
			c-0.59,0.45-1.17,0.91-1.74,1.39L80.15,71.19z M72.57,60.48c0.09-0.07,0.17-0.14,0.26-0.2C72.75,60.35,72.66,60.41,72.57,60.48
			L72.57,60.48z M80.09,55.48c0.03-0.02,0.06-0.03,0.08-0.05C80.15,55.45,80.12,55.46,80.09,55.48L80.09,55.48z M82.12,54.37
			l9.84,9.84c0.74-0.32,1.49-0.61,2.24-0.89l-10-10C83.5,53.66,82.81,54.01,82.12,54.37z M123.35,61.17l-1.3-1.3l-0.22-0.22
			L109.2,47.02c-0.97,0.05-1.95,0.12-2.92,0.21l13.28,13.28C120.83,60.68,122.1,60.9,123.35,61.17z M117.36,164.76l11.26,11.26
			c0.82-0.21,1.64-0.43,2.46-0.67l-10.92-10.92C119.23,164.56,118.3,164.67,117.36,164.76z M100.78,47.98l12.05,12.05c0,0,0,0,0,0
			c1.09,0.01,2.18,0.06,3.27,0.13c0,0,0,0,0,0l-12.61-12.61 M98.18,48.51 M167.45,77.09l0.68,0.68c-2.58-4.13-5.65-8.05-9.25-11.64
			c-3.59-3.59-7.51-6.66-11.64-9.25l19.99,19.99L167.45,77.09z M123.4,58.08l0.22,0.22l3.92,3.92c1.63,0.49,3.25,1.06,4.84,1.71
			c0,0,0,0,0,0l-7.19-7.19l-0.22-0.22l-9.53-9.53c-1.07-0.05-2.13-0.07-3.2-0.06L123.4,58.08z M65.94,88.29
			C65.94,88.29,65.94,88.3,65.94,88.29c0.35-0.68,0.72-1.36,1.11-2.03c0,0,0,0,0,0.01l-9.53-9.53c-0.41,0.64-0.8,1.29-1.19,1.94
			L65.94,88.29z M68.22,84.31C68.22,84.31,68.22,84.31,68.22,84.31c0.4-0.63,0.83-1.25,1.26-1.87c0,0,0,0,0,0l-9.38-9.38
			c-0.45,0.6-0.89,1.2-1.32,1.81L68.22,84.31z M61.47,71.3l9.34,9.34c0,0,0,0,0,0c0.45-0.59,0.92-1.17,1.4-1.75c0,0,0,0,0,0
			l-9.3-9.3 M62.3,97.18c0,0,0,0.01,0,0.01c0.24-0.79,0.51-1.58,0.79-2.36L53.07,84.82c-0.33,0.72-0.66,1.44-0.96,2.17L62.3,97.18z
			 M65.91,66.34c-0.52,0.53-1.02,1.07-1.52,1.61l9.28,9.28c0.56-0.62,1.13-1.23,1.73-1.83c-0.07,0.07-0.13,0.15-0.2,0.22
			L65.91,66.34z M63.96,92.57c0.3-0.73,0.62-1.46,0.96-2.18c0,0,0,0,0,0l-9.73-9.73c-0.37,0.68-0.74,1.35-1.09,2.04L63.96,92.57z
			 M114.42,164.94c-1.04,0.04-2.08,0.03-3.12,0.01l12.17,12.17c0.88-0.15,1.76-0.31,2.64-0.5L114.42,164.94
			C114.42,164.94,114.42,164.94,114.42,164.94z M109.2,164.87c0.7,0.04,1.39,0.06,2.09,0.08l0,0
			C110.6,164.94,109.9,164.92,109.2,164.87z M50.38,91.52l10.66,10.66c0,0,0,0,0,0c0.17-0.86,0.36-1.71,0.58-2.55L51.21,89.21
			C50.92,89.97,50.64,90.74,50.38,91.52z M60.05,113.71c-0.02-1.04-0.03-2.08,0.01-3.12c0,0,0,0,0,0L48.39,98.91
			c-0.18,0.88-0.35,1.75-0.5,2.63L60.05,113.71z M48.97,96.37l11.27,11.27c0.09-0.93,0.2-1.87,0.34-2.8L49.64,93.91
			C49.4,94.72,49.18,95.55,48.97,96.37z M161.07,92.62c0.65,1.59,1.22,3.21,1.71,4.84c0,0,0,0,0,0l15.29,15.29
			c0-1.07-0.02-2.13-0.06-3.2L161.07,92.62C161.08,92.63,161.08,92.63,161.07,92.62z M178.01,109.56
			C178.01,109.56,178.01,109.56,178.01,109.56C178.01,109.56,178.01,109.56,178.01,109.56L178.01,109.56z M168.8,137.92l-7.12-7.12
			c-0.28,0.75-0.58,1.5-0.89,2.24l6.44,6.44l0.22,0.22l3.19,3.19c0.36-0.69,0.7-1.39,1.04-2.1l-2.66-2.66L168.8,137.92z
			 M164.9,115.24c-0.05,0.97-0.13,1.94-0.24,2.9c0,0,0,0,0,0l11.21,11.21c0.22-0.84,0.43-1.68,0.61-2.52L164.9,115.24z
			 M175.19,131.79l-0.13-0.13l-10.77-10.77c0,0,0,0,0,0c-0.14,0.88-0.31,1.76-0.5,2.64c0,0,0,0,0,0l9.7,9.7l0.22,0.22l0.71,0.71
			 M175.85,129.45 M171.93,134.79l-8.74-8.74c-0.22,0.81-0.45,1.62-0.71,2.42l7.88,7.88l0.22,0.22l2.07,2.07
			c0.32-0.73,0.63-1.47,0.92-2.21l-1.42-1.42L171.93,134.79z M153.36,153.79l-0.22-0.22l-3.76-3.76c0.07-0.07,0.15-0.13,0.22-0.2
			c-0.6,0.6-1.21,1.17-1.83,1.73l3.8,3.8l0.22,0.22l5.27,5.27c0.61-0.57,1.22-1.14,1.81-1.74c-0.07,0.07-0.14,0.14-0.22,0.21
			L153.36,153.79z M164.49,105.44C164.49,105.44,164.49,105.44,164.49,105.44l13.29,13.29c0.09-0.97,0.16-1.95,0.21-2.92
			l-14.16-14.16C164.1,102.91,164.32,104.17,164.49,105.44z M164.84,108.91c0.07,1.09,0.12,2.18,0.13,3.27c0,0,0,0,0,0l12.05,12.05
			c0.16-0.9,0.31-1.79,0.44-2.69L164.84,108.91C164.84,108.92,164.84,108.92,164.84,108.91z"/>
		<path id="XMLID_1285_" d="M149.6,149.61c20.5-20.5,20.5-53.71,0-74.21s-53.71-20.5-74.21,0C64.3,86.49,59.2,101.33,60.13,115.8
			l49.07,49.07C123.67,165.8,138.52,160.7,149.6,149.61z"/>
	</g>
</g>
</svg>
