<?xml version="1.0" encoding="utf-8"?>
<!-- Generator: Adobe Illustrator 26.2.1, SVG Export Plug-In . SVG Version: 6.00 Build 0)  -->
<svg version="1.1" xmlns="http://www.w3.org/2000/svg" xmlns:xlink="http://www.w3.org/1999/xlink" x="0px" y="0px"
	 viewBox="0 0 225 225" style="enable-background:new 0 0 225 225;" xml:space="preserve">
<style type="text/css">
	.st0{display:none;}
	.st1{display:inline;fill:#FAB433;}
	.st2{fill:none;}
	.st3{fill:none;stroke:#000000;stroke-width:1.6;stroke-miterlimit:10;}
	.st4{fill:none;stroke:#000000;stroke-width:0.7265;stroke-miterlimit:10;}
	.st5{fill:none;stroke:#000000;stroke-linecap:round;stroke-linejoin:round;stroke-miterlimit:10;}
	.st6{fill:none;stroke:#000000;stroke-miterlimit:10;}
	.st7{fill:none;stroke:#000000;stroke-width:0.7105;stroke-miterlimit:10;}
	.st8{fill:none;stroke:#000000;stroke-width:5.4;stroke-linecap:round;stroke-linejoin:round;stroke-miterlimit:10;}
	.st9{fill:none;stroke:#000000;stroke-width:2.9309;stroke-linecap:round;stroke-linejoin:round;stroke-miterlimit:10;}
	.st10{fill:none;stroke:#000000;stroke-width:0.5;stroke-linecap:round;stroke-linejoin:round;}
	.st11{fill:none;stroke:#FFFFFF;stroke-width:0;stroke-linecap:round;stroke-linejoin:round;}
	.st12{fill:#FFFFFF;}
	.st13{fill:none;stroke:#000000;stroke-width:1.4;stroke-miterlimit:10;}
	.st14{fill:url(#);stroke:#000000;stroke-width:1.4387;stroke-miterlimit:10;}
	.st15{fill:url(#);stroke:#000000;stroke-width:1.3718;stroke-miterlimit:10;}
	.st16{fill:none;stroke:#000000;stroke-width:1.0041;stroke-miterlimit:10;}
	.st17{fill:none;stroke:#000000;stroke-width:1.3621;stroke-miterlimit:10;}
	.st18{fill:none;stroke:#000000;stroke-width:0.25;stroke-miterlimit:10;}
</style>
<g id="Layer_2" class="st0">
	<rect id="XMLID_1014_" x="-345.99" y="-275.01" class="st1" width="1160" height="772"/>
</g>
<g id="Layer_1">
	<g>
		<path d="M178.11,112.49c0-36.21-29.39-65.6-65.6-65.6c-36.21,0-65.6,29.39-65.6,65.6c0,6.89,1.05,13.45,3.02,19.68l0,0v0h2.46
			c-1.89-5.99-2.9-12.29-2.9-18.9c0-34.78,28.23-63.02,63.02-63.02s63.02,28.23,63.02,63.02c0,6.62-1.01,12.92-2.9,18.9h2.46v0l0,0
			C177.06,125.94,178.11,119.38,178.11,112.49z"/>
		<path d="M113.91,95.12v0.29v36.77h2.89V95.4v-0.29V73.37c-0.95-0.1-1.92-0.17-2.89-0.2V95.12z"/>
		<path d="M134.57,95.12v0.29v36.77h2.89V95.4v-0.29V82.08c-0.93-0.76-1.9-1.49-2.89-2.16V95.12z"/>
		<path d="M109.78,95.12v0.29v36.77h2.89V95.4v-0.29V73.14c-0.05,0-0.11,0-0.16,0c-0.92,0-1.83,0.04-2.73,0.11V95.12z"/>
		<path d="M138.71,95.12v0.29v36.77h2.89V95.4v-0.29V86c-0.91-1-1.88-1.95-2.89-2.86V95.12z"/>
		<path d="M101.51,95.12v0.29v36.77h2.89V95.4v-0.29V73.98c-0.98,0.21-1.94,0.45-2.89,0.73V95.12z"/>
		<path d="M97.38,95.12v0.29v36.77h2.89V95.4v-0.29V75.09c0.41-0.13,0.82-0.26,1.24-0.38c-0.85,0.25-1.7,0.51-2.52,0.82
			c-0.54,0.2-1.08,0.41-1.61,0.63V95.12z"/>
		<path d="M80.85,95.12v0.29v36.77h2.89V95.4v-0.29v-9.45c0.4-0.43,0.81-0.86,1.24-1.27c-0.1,0.09-0.2,0.18-0.29,0.28
			c-1.39,1.39-2.67,2.88-3.84,4.46V95.12z"/>
		<path d="M84.98,95.12v0.29v36.77h2.89V95.4v-0.29V81.82c-1.01,0.81-1.97,1.67-2.89,2.57V95.12z"/>
		<path d="M75.48,99.16c0.17-0.46,0.35-0.92,0.53-1.37c-1.84,4.54-2.86,9.5-2.86,14.7c0,3.61,0.48,7.08,1.38,10.38
			c0.27,1,0.6,1.97,0.95,2.94V99.16z"/>
		<path d="M89.11,95.12v0.29v36.77h2.89V95.4v-0.29V78.91c-0.99,0.61-1.96,1.26-2.89,1.95V95.12z"/>
		<path d="M93.25,95.12v0.29v36.77h2.89V95.4v-0.29V76.71c0.41-0.19,0.82-0.38,1.24-0.55c-1.42,0.59-2.8,1.27-4.13,2.02V95.12z"/>
		<path d="M76.08,97.61c0.2-0.49,0.41-0.98,0.64-1.46C76.49,96.63,76.28,97.12,76.08,97.61z"/>
		<path d="M146.97,95.4v36.01c0.68-1.21,1.31-2.45,1.85-3.73c0.39-0.91,0.72-1.84,1.04-2.78v-24.78c-0.77-2.31-1.73-4.52-2.89-6.61
			v1.62V95.4z"/>
		<path d="M105.64,95.12v0.29v36.77h2.89V95.4v-0.29V73.33c-1.4,0.14-2.78,0.36-4.13,0.64c0.41-0.09,0.82-0.16,1.24-0.23V95.12z"/>
		<path d="M142.84,95.12v0.29v36.77h2.38h0.52V95.4v-0.29v-3.7c0.43,0.68,0.85,1.37,1.24,2.07c-1.5-2.71-3.3-5.22-5.37-7.49
			c0.42,0.47,0.84,0.94,1.24,1.43V95.12z"/>
		<path d="M151.1,120.27c0.5-2.51,0.76-5.1,0.76-7.77c0-4.33-0.71-8.49-2-12.38c0.5,1.51,0.92,3.07,1.24,4.66V120.27z"/>
		<path d="M150.55,122.62c-0.21,0.77-0.43,1.52-0.68,2.27C150.11,124.14,150.35,123.38,150.55,122.62z"/>
		<path d="M79.61,95.4v-0.29v-4.2c0.4-0.6,0.8-1.19,1.23-1.77c-0.33,0.44-0.65,0.89-0.96,1.35c-1.21,1.78-2.26,3.68-3.16,5.65v32.65
			c-0.45-0.97-0.87-1.96-1.24-2.98c0.81,2.22,1.8,4.34,2.98,6.35h1.14V95.4z"/>
		<path d="M118.04,95.12v0.29v36.77h2.89V95.4v-0.29V74.05c-1.24-0.27-2.51-0.48-3.79-0.63c0.3,0.04,0.6,0.07,0.9,0.11V95.12z"/>
		<path d="M126.31,95.12v0.29v36.77h2.89V95.4v-0.29V76.86c0.42,0.2,0.83,0.4,1.24,0.61v17.65v0.29v36.77h2.89V95.4v-0.29v-16
			c0.42,0.26,0.83,0.52,1.24,0.8c-2.91-1.98-6.1-3.56-9.5-4.71c0.41,0.14,0.83,0.28,1.23,0.43V95.12z"/>
		<path d="M122.17,95.12v0.29v36.77h2.89V95.4v-0.29V75.2c-1.3-0.44-2.63-0.81-3.98-1.11c0.37,0.08,0.73,0.16,1.09,0.25V95.12z"/>
		<path d="M137.47,82.08c0.41,0.34,0.81,0.69,1.21,1.04C138.28,82.77,137.88,82.42,137.47,82.08z"/>
		<path d="M92.01,78.9c0.4-0.25,0.81-0.48,1.22-0.71C92.82,78.43,92.41,78.66,92.01,78.9z"/>
		<path d="M88.97,80.96c-0.37,0.27-0.72,0.56-1.08,0.85c0.4-0.32,0.8-0.64,1.22-0.95C89.07,80.89,89.02,80.93,88.97,80.96z"/>
		<path d="M151.1,120.27c-0.15,0.73-0.32,1.46-0.51,2.17C150.78,121.72,150.96,121,151.1,120.27z"/>
		<path d="M172.63,132.17h-26.07c-6.76,11.74-19.48,19.68-34.04,19.68s-27.29-7.94-34.04-19.68H52.39h-2.46v0
			c8.4,26.63,33.26,45.92,62.58,45.92s54.18-19.29,62.58-45.92v0H172.63z"/>
	</g>
</g>
</svg>
