<?xml version="1.0" encoding="utf-8"?>
<!-- Generator: Adobe Illustrator 26.2.1, SVG Export Plug-In . SVG Version: 6.00 Build 0)  -->
<svg version="1.1" xmlns="http://www.w3.org/2000/svg" xmlns:xlink="http://www.w3.org/1999/xlink" x="0px" y="0px"
	 viewBox="0 0 225 225" style="enable-background:new 0 0 225 225;" xml:space="preserve">
<style type="text/css">
	.st0{display:none;}
	.st1{display:inline;fill:#FAB433;}
	.st2{fill:none;}
	.st3{fill:none;stroke:#000000;stroke-width:1.6;stroke-miterlimit:10;}
	.st4{fill:none;stroke:#000000;stroke-width:0.7265;stroke-miterlimit:10;}
	.st5{fill:none;stroke:#000000;stroke-linecap:round;stroke-linejoin:round;stroke-miterlimit:10;}
	.st6{fill:none;stroke:#000000;stroke-miterlimit:10;}
	.st7{fill:none;stroke:#000000;stroke-width:0.7105;stroke-miterlimit:10;}
	.st8{fill:none;stroke:#000000;stroke-width:5.4;stroke-linecap:round;stroke-linejoin:round;stroke-miterlimit:10;}
	.st9{fill:none;stroke:#000000;stroke-width:2.9309;stroke-linecap:round;stroke-linejoin:round;stroke-miterlimit:10;}
	.st10{fill:none;stroke:#000000;stroke-width:0.5;stroke-linecap:round;stroke-linejoin:round;}
	.st11{fill:none;stroke:#FFFFFF;stroke-width:0;stroke-linecap:round;stroke-linejoin:round;}
	.st12{fill:#FFFFFF;}
	.st13{fill:none;stroke:#000000;stroke-width:1.4;stroke-miterlimit:10;}
	.st14{fill:url(#);stroke:#000000;stroke-width:1.4387;stroke-miterlimit:10;}
	.st15{fill:url(#);stroke:#000000;stroke-width:1.3718;stroke-miterlimit:10;}
	.st16{fill:none;stroke:#000000;stroke-width:1.0041;stroke-miterlimit:10;}
	.st17{fill:none;stroke:#000000;stroke-width:1.3621;stroke-miterlimit:10;}
	.st18{fill:none;stroke:#000000;stroke-width:0.25;stroke-miterlimit:10;}
</style>
<g id="Layer_2" class="st0">
	
		<rect id="XMLID_00000049924193275795927410000016330201882968263580_" x="-590.99" y="-275.01" class="st1" width="1160" height="772"/>
</g>
<g id="Layer_1">
	<g id="XMLID_00000083802043320412104320000008343162469221452695_">
		<path id="XMLID_00000124858660242627305200000001853131482753306015_" class="st13" d="M112.5,62.62c-4.59,0-8.31-3.72-8.31-8.31
			S107.91,46,112.5,46"/>
		<path id="XMLID_00000024683353456840666500000009668693826530372277_" class="st13" d="M112.5,46c-9.18,0-16.62,7.44-16.62,16.62
			s7.44,16.62,16.62,16.62"/>
		<path id="XMLID_00000174589225833200555350000012148773744314177156_" class="st13" d="M112.5,46
			c-13.77,0-24.94,11.16-24.94,24.94s11.16,24.94,24.94,24.94"/>
		<path id="XMLID_00000073701250847474274020000005244330333146050479_" class="st13" d="M112.5,46
			c-18.36,0-33.25,14.89-33.25,33.25s14.89,33.25,33.25,33.25"/>
		<path id="XMLID_00000106838504190660763690000000118958309098140084_" class="st13" d="M112.5,46
			c-22.95,0-41.56,18.61-41.56,41.56s18.61,41.56,41.56,41.56"/>
		<path id="XMLID_00000028285404703601591450000015899833583281353604_" class="st13" d="M112.5,46
			c-27.55,0-49.88,22.33-49.88,49.88s22.33,49.88,49.88,49.88"/>
		<path id="XMLID_00000141421138733945999570000017233110403392021695_" class="st13" d="M112.5,46
			c-32.14,0-58.19,26.05-58.19,58.19s26.05,58.19,58.19,58.19"/>
		<path id="XMLID_00000129178403868532501950000004014630965133610642_" class="st13" d="M112.5,46C75.77,46,46,75.77,46,112.5
			S75.77,179,112.5,179"/>
		<path id="XMLID_00000075138703313774649530000013267626382877094546_" class="st13" d="M112.5,162.38c4.59,0,8.31,3.72,8.31,8.31
			s-3.72,8.31-8.31,8.31"/>
		<path id="XMLID_00000003811656793788980060000004624027718693585070_" class="st13" d="M112.5,179c9.18,0,16.62-7.44,16.62-16.62
			s-7.44-16.62-16.62-16.62"/>
		<path id="XMLID_00000103949451868032489690000010000633362876256695_" class="st13" d="M112.5,179
			c13.77,0,24.94-11.16,24.94-24.94s-11.16-24.94-24.94-24.94"/>
		<path id="XMLID_00000054947653119725903990000015250210644159067067_" class="st13" d="M112.5,179
			c18.36,0,33.25-14.89,33.25-33.25s-14.89-33.25-33.25-33.25"/>
		<path id="XMLID_00000160888941524773007410000000585468611181957024_" class="st13" d="M112.5,179
			c22.95,0,41.56-18.61,41.56-41.56s-18.61-41.56-41.56-41.56"/>
		<path id="XMLID_00000035532350556399926090000003340705856912557186_" class="st13" d="M112.5,179
			c27.55,0,49.88-22.33,49.88-49.88s-22.33-49.88-49.88-49.88"/>
		<path id="XMLID_00000023266164709180672980000008547458276757694342_" class="st13" d="M112.5,179
			c32.14,0,58.19-26.05,58.19-58.19s-26.05-58.19-58.19-58.19"/>
		<path id="XMLID_00000137124566307283336060000012975444518578891691_" class="st13" d="M112.5,179c36.73,0,66.5-29.77,66.5-66.5
			S149.23,46,112.5,46"/>
		<path id="XMLID_00000124842682389230923220000016293289763813694861_" class="st13" d="M112.5,62.62c-4.59,0-8.31-3.72-8.31-8.31
			S107.91,46,112.5,46"/>
		<path id="XMLID_00000182528965555829291930000007400378035677556129_" class="st13" d="M112.5,46c-9.18,0-16.62,7.44-16.62,16.62
			s7.44,16.62,16.62,16.62"/>
		<path id="XMLID_00000135651495284772379540000011289159552965773217_" class="st13" d="M112.5,46
			c-13.77,0-24.94,11.16-24.94,24.94s11.16,24.94,24.94,24.94"/>
		<path id="XMLID_00000084509782963149887380000015608684431193725834_" class="st13" d="M112.5,46
			c-18.36,0-33.25,14.89-33.25,33.25s14.89,33.25,33.25,33.25"/>
		<path id="XMLID_00000160182581863346020590000013137376826912061575_" class="st13" d="M112.5,46
			c-22.95,0-41.56,18.61-41.56,41.56s18.61,41.56,41.56,41.56"/>
		<path id="XMLID_00000101087236748032961540000015411432694572091322_" class="st13" d="M112.5,46
			c-27.55,0-49.88,22.33-49.88,49.88s22.33,49.88,49.88,49.88"/>
		<path id="XMLID_00000063617583979017974570000010326514600448356285_" class="st13" d="M112.5,46
			c-32.14,0-58.19,26.05-58.19,58.19s26.05,58.19,58.19,58.19"/>
		<path id="XMLID_00000014617678269427235060000011810960484398070205_" class="st13" d="M112.5,46C75.77,46,46,75.77,46,112.5
			S75.77,179,112.5,179"/>
		<path id="XMLID_00000179623453504887001240000012378337268055523993_" class="st13" d="M112.5,162.38c4.59,0,8.31,3.72,8.31,8.31
			s-3.72,8.31-8.31,8.31"/>
		<path id="XMLID_00000156580591308006812300000002930466161770315429_" class="st13" d="M112.5,179c9.18,0,16.62-7.44,16.62-16.62
			s-7.44-16.62-16.62-16.62"/>
		<path id="XMLID_00000036939190873543046950000003362069475094594950_" class="st13" d="M112.5,179
			c13.77,0,24.94-11.16,24.94-24.94s-11.16-24.94-24.94-24.94"/>
		<path id="XMLID_00000013914621319811362030000001595043503934346156_" class="st13" d="M112.5,179
			c18.36,0,33.25-14.89,33.25-33.25s-14.89-33.25-33.25-33.25"/>
		<path id="XMLID_00000019661214055316074880000008864275635909742262_" class="st13" d="M112.5,179
			c22.95,0,41.56-18.61,41.56-41.56s-18.61-41.56-41.56-41.56"/>
		<path id="XMLID_00000003783824183921487840000001135744480006080688_" class="st13" d="M112.5,179
			c27.55,0,49.88-22.33,49.88-49.88s-22.33-49.88-49.88-49.88"/>
		<path id="XMLID_00000054955601539235097720000015377622174667830164_" class="st13" d="M112.5,179
			c32.14,0,58.19-26.05,58.19-58.19s-26.05-58.19-58.19-58.19"/>
		<path id="XMLID_00000147211075233342112430000004795469820839435418_" class="st13" d="M112.5,179c36.73,0,66.5-29.77,66.5-66.5
			S149.23,46,112.5,46"/>
	</g>
</g>
</svg>
