<?xml version="1.0" encoding="utf-8"?>
<!-- Generator: Adobe Illustrator 26.2.1, SVG Export Plug-In . SVG Version: 6.00 Build 0)  -->
<svg version="1.1" xmlns="http://www.w3.org/2000/svg" xmlns:xlink="http://www.w3.org/1999/xlink" x="0px" y="0px"
	 viewBox="0 0 225 225" style="enable-background:new 0 0 225 225;" xml:space="preserve">
<style type="text/css">
	.st0{display:none;}
	.st1{display:inline;fill:#FAB433;}
	.st2{fill:none;}
	.st3{fill:none;stroke:#000000;stroke-width:1.6;stroke-miterlimit:10;}
	.st4{fill:none;stroke:#000000;stroke-width:0.7265;stroke-miterlimit:10;}
	.st5{fill:none;stroke:#000000;stroke-linecap:round;stroke-linejoin:round;stroke-miterlimit:10;}
	.st6{fill:none;stroke:#000000;stroke-miterlimit:10;}
	.st7{fill:none;stroke:#000000;stroke-width:0.7105;stroke-miterlimit:10;}
	.st8{fill:none;stroke:#000000;stroke-width:5.4;stroke-linecap:round;stroke-linejoin:round;stroke-miterlimit:10;}
	.st9{fill:none;stroke:#000000;stroke-width:2.9309;stroke-linecap:round;stroke-linejoin:round;stroke-miterlimit:10;}
	.st10{fill:none;stroke:#000000;stroke-width:0.5;stroke-linecap:round;stroke-linejoin:round;}
	.st11{fill:none;stroke:#FFFFFF;stroke-width:0;stroke-linecap:round;stroke-linejoin:round;}
	.st12{fill:#FFFFFF;}
	.st13{fill:none;stroke:#000000;stroke-width:1.4;stroke-miterlimit:10;}
	.st14{fill:url(#);stroke:#000000;stroke-width:1.4387;stroke-miterlimit:10;}
	.st15{fill:url(#);stroke:#000000;stroke-width:1.3718;stroke-miterlimit:10;}
	.st16{fill:none;stroke:#000000;stroke-width:1.0041;stroke-miterlimit:10;}
	.st17{fill:none;stroke:#000000;stroke-width:1.3621;stroke-miterlimit:10;}
	.st18{fill:none;stroke:#000000;stroke-width:0.25;stroke-miterlimit:10;}
</style>
<g id="Layer_2" class="st0">
	<rect id="XMLID_573_" x="-590.99" y="-30.01" class="st1" width="1160" height="772"/>
</g>
<g id="Layer_1">
	<g>
		<path class="st2" d="M122.69,77.06c1.08,0.11,2.31,0.3,3.35,0.48c0.53,0.09,1.04,0.18,1.49,0.28c0.05,0.01,0.1,0.02,0.14,0.03
			c0.32,0.06,0.66,0.13,0.98,0.2c0.19,0.02,0.37,0.05,0.55,0.08l0.13,0.03l2.04,0.51c0.23,0.07,0.47,0.14,0.72,0.22
			c0,0,0.01,0,0.01,0c-0.05-0.04-0.1-0.08-0.16-0.12c-0.01-0.01-0.02-0.02-0.04-0.03c-0.44-0.31-0.89-0.63-1.28-0.89l-0.27-0.17
			c-0.04-0.03-0.08-0.05-0.11-0.07c-0.03-0.02-0.06-0.03-0.09-0.05c-0.12-0.06-0.24-0.13-0.37-0.2c-0.04-0.02-0.08-0.04-0.12-0.07
			c-0.19-0.1-0.38-0.2-0.56-0.29c-0.13-0.06-0.25-0.12-0.37-0.17l-0.43-0.18l-0.16-0.07c0,0,0,0,0,0c0,0,0,0,0,0
			c-0.13-0.04-0.27-0.09-0.42-0.14c0,0-0.01,0-0.01,0c-0.15-0.05-0.3-0.1-0.43-0.14c-0.01,0-0.02-0.01-0.03-0.01
			c-0.11-0.03-0.23-0.05-0.35-0.08c-0.07-0.02-0.14-0.03-0.2-0.04c-0.01,0-0.01,0-0.02,0c-0.12-0.02-0.23-0.04-0.35-0.06
			c-0.13-0.02-0.26-0.04-0.4-0.05c-0.07,0-0.15-0.01-0.23-0.01c-0.14-0.01-0.28-0.01-0.43-0.01c-0.03,0-0.05,0-0.08,0
			c-0.11,0-0.21,0.02-0.31,0.03c-0.18,0.02-0.36,0.05-0.55,0.1l-0.09,0.03l0,0c-0.15,0.05-0.28,0.1-0.4,0.15
			c-0.08,0.03-0.16,0.08-0.29,0.14c-0.05,0.03-0.11,0.06-0.18,0.09c-0.11,0.07-0.24,0.15-0.36,0.24c-0.07,0.05-0.13,0.09-0.2,0.14
			c-0.05,0.04-0.11,0.08-0.16,0.11c-0.1,0.08-0.18,0.15-0.25,0.21c0.07-0.06,0.14-0.12,0.25-0.21
			C122.66,77.08,122.67,77.07,122.69,77.06z"/>
		<path class="st2" d="M119.81,80.79c0.19-0.35,0.43-0.75,0.67-1.14C120.24,80.04,120,80.44,119.81,80.79
			c-0.25,0.52-0.54,1.16-0.79,1.76c-0.01,0.02-0.02,0.04-0.03,0.06c0.01-0.02,0.02-0.04,0.02-0.06
			C119.27,81.95,119.56,81.31,119.81,80.79z"/>
		<path class="st2" d="M117.46,88.54c-0.04,0.28-0.08,0.57-0.11,0.85c0,0,0,0.01,0,0.01c0,0,0-0.01,0-0.01
			C117.39,89.1,117.43,88.82,117.46,88.54z"/>
		<path class="st2" d="M121.96,77.72c-0.01,0.01-0.01,0.01-0.02,0.02c0,0,0,0-0.01,0.01c0,0,0,0,0.01-0.01
			C121.96,77.73,121.96,77.73,121.96,77.72z"/>
		<path class="st2" d="M117.22,90.49c-0.01,0.06-0.01,0.12-0.02,0.18c0,0.04-0.01,0.08-0.01,0.11c0-0.04,0.01-0.08,0.01-0.12
			C117.21,90.61,117.22,90.54,117.22,90.49z"/>
		<path class="st2" d="M121.76,77.94c-0.05,0.06-0.11,0.12-0.16,0.17c-0.01,0.01-0.01,0.01-0.02,0.02c0.01-0.01,0.01-0.01,0.02-0.02
			C121.65,78.06,121.71,77.99,121.76,77.94z"/>
		<path class="st2" d="M117.61,87.55c-0.01,0.04-0.01,0.07-0.02,0.11c-0.04,0.26-0.08,0.53-0.12,0.82c0.04-0.28,0.08-0.56,0.12-0.82
			C117.6,87.62,117.6,87.59,117.61,87.55z"/>
		<path class="st2" d="M117.09,93.29c0-0.16,0.01-0.32,0.01-0.48C117.09,92.97,117.09,93.13,117.09,93.29
			c-0.01,0.65-0.01,1.3-0.01,1.86l0.03,0.59l-0.02-0.59C117.08,94.59,117.08,93.95,117.09,93.29z"/>
		<path class="st2" d="M80.77,112.7l-0.01-0.05c0,0,0,0,0,0c-0.23-0.99-0.48-2.11-0.72-3.34c0.17,0.9,0.35,1.75,0.53,2.53
			c0.36,1.61,0.71,2.91,0.95,3.78C81.32,114.92,81.06,113.92,80.77,112.7z"/>
		<path class="st2" d="M83.26,121.19c0.02,0.06,0.04,0.11,0.06,0.16c-0.05-0.12-0.09-0.25-0.14-0.38
			C83.21,121.04,83.24,121.12,83.26,121.19z"/>
		<path class="st2" d="M98.86,147.91l0.12-0.03l0.01,0c-0.86-0.93-1.68-1.87-2.43-2.78c-0.05-0.06-0.1-0.12-0.15-0.18
			c-0.04-0.04-0.07-0.09-0.11-0.13c-0.66-0.81-1.27-1.59-1.82-2.33c0,0,0,0-0.01-0.01l-0.02-0.03c-2.1-2.81-3.39-4.94-3.4-4.97
			c-0.01-0.01-0.01-0.02-0.01-0.02c-0.34-0.54-0.67-1.07-0.97-1.6c0,0-0.01-0.01-0.01-0.01l0,0l-0.02-0.03
			c-0.45-0.75-0.87-1.49-1.25-2.19l-0.03-0.06c-0.02-0.03-0.04-0.07-0.05-0.1c-0.8-1.41-1.47-2.7-2.1-4.1c0,0,0,0,0,0
			c-0.13-0.28-0.26-0.55-0.39-0.82c-0.09,0.1-0.18,0.2-0.27,0.29c-0.02,0.02-0.04,0.04-0.05,0.06c-0.11,0.12-0.23,0.24-0.35,0.37
			c0,0,0,0.01-0.01,0.01c0,0,0,0.01-0.01,0.02l-0.13,0.14c0.04-0.04,0.07-0.08,0.1-0.13c-0.05,0.06-0.11,0.13-0.17,0.2
			c-0.02,0.02-0.04,0.05-0.06,0.07c-0.08,0.1-0.17,0.21-0.26,0.32c-0.14,0.17-0.29,0.35-0.43,0.53c-0.45,0.56-0.9,1.14-1.3,1.66
			c0,0.01-0.01,0.01-0.01,0.02c-0.04,0.07-0.08,0.14-0.13,0.21l-0.2,0.29c-0.3,0.43-0.65,0.97-1.01,1.58
			c-0.16,0.27-0.31,0.54-0.48,0.83l-0.05,0.07c0.04-0.08,0.08-0.16,0.12-0.23c-0.03,0.06-0.07,0.12-0.1,0.17
			c-0.1,0.18-0.2,0.36-0.28,0.53l-0.13,0.24c-0.14,0.31-0.31,0.67-0.48,1.04c-0.06,0.14-0.12,0.28-0.18,0.42
			c-0.04,0.13-0.08,0.27-0.13,0.4l-0.05,0.13c-0.11,0.29-0.22,0.59-0.3,0.84l-0.22,0.75l-0.13,0.48l-0.02,0.05
			c0.03-0.11,0.05-0.21,0.06-0.32c-0.07,0.29-0.14,0.57-0.2,0.84c-0.04,0.22-0.08,0.43-0.11,0.62l-0.02,0.16
			c0,0.18-0.01,0.37-0.02,0.56l-0.01,0l0,0.07c-0.01,0.31-0.03,0.51-0.03,0.67c0,0.11,0,0.22,0.01,0.33l0.01,0.36
			c-0.01-0.17-0.04-0.33-0.06-0.5c0,0.06,0,0.11,0,0.17c0.01,0.18,0.02,0.34,0.05,0.5c0.01,0.07,0.02,0.15,0.03,0.23
			c0.01,0.04,0.02,0.09,0.03,0.13c0.01,0.05,0.02,0.09,0.02,0.14c0.05,0.12,0.1,0.25,0.15,0.39l-0.01,0l0.02,0.06
			c0.03,0.08,0.05,0.15,0.08,0.24l0.02,0.06c0.04,0.09,0.09,0.2,0.15,0.36l-0.11-0.2c-0.03-0.06-0.07-0.12-0.11-0.18
			c0.06,0.17,0.14,0.33,0.23,0.51c0.02,0.03,0.04,0.07,0.06,0.1c0,0,0,0.01,0.01,0.01c0.12,0.14,0.24,0.28,0.36,0.42l0.15,0.17
			c0.1,0.11,0.22,0.22,0.34,0.33l0.09,0.09l0.05,0.04l0.05,0.06c-0.13-0.11-0.27-0.22-0.4-0.32c0.05,0.05,0.09,0.09,0.14,0.13
			c0.06,0.06,0.12,0.12,0.18,0.17c0,0,0.01,0,0.01,0.01c0.14,0.12,0.28,0.23,0.42,0.33c0.06,0.03,0.11,0.07,0.17,0.11
			c0,0,0,0,0.01,0c0.2,0.1,0.4,0.2,0.6,0.32l0.23,0.13c0.15,0.08,0.32,0.17,0.56,0.28l0.09,0.04c0.16,0.08,0.33,0.15,0.5,0.21
			l0.22,0.1l-0.09-0.03c-0.16-0.06-0.31-0.11-0.45-0.16l0.27,0.12c0.07,0.03,0.15,0.06,0.23,0.09c0.22,0.08,0.46,0.16,0.71,0.24
			c0.25,0.08,0.5,0.15,0.71,0.22l0.1,0.02c0.21,0.02,0.41,0.06,0.61,0.1c0.38,0.08,0.83,0.15,1.27,0.23
			c0.36,0.06,0.71,0.12,1.02,0.16l0.26,0.03l0.08,0.02c-0.12-0.01-0.25-0.02-0.38-0.02l0.37,0.04c0,0,0,0,0.01,0
			c0.47,0.03,1.01,0.05,1.56,0.07c0.48,0.02,0.96,0.03,1.39,0.03c0.09-0.01,0.17-0.02,0.24-0.03l0.25-0.01
			c1.08-0.04,2.17-0.13,3.3-0.27c-0.07,0.01-0.13,0.02-0.2,0.04c0.04-0.01,0.08-0.01,0.12-0.01c0.24-0.03,0.48-0.07,0.73-0.11
			c0.53-0.1,1.14-0.21,1.75-0.34c0.45-0.09,0.88-0.18,1.28-0.27c0.02,0,0.03-0.01,0.05-0.01c0,0,0.01,0,0.01-0.01
			C98.79,147.94,98.83,147.92,98.86,147.91z"/>
		<path class="st2" d="M117.13,96.12c0.01,0.09,0.01,0.17,0.02,0.27c0.01,0.13,0.02,0.28,0.04,0.42c-0.01-0.14-0.02-0.28-0.03-0.42
			C117.14,96.3,117.13,96.21,117.13,96.12z"/>
		<path class="st2" d="M117.43,99.35c0,0.02,0,0.04,0.01,0.06l0.23,1.53c0,0.01,0.01,0.03,0.01,0.04c0-0.02-0.01-0.03-0.01-0.04
			l-0.23-1.53c-0.01-0.11-0.02-0.21-0.03-0.32c-0.04-0.41-0.09-0.86-0.14-1.31c0.05,0.54,0.11,1.08,0.16,1.55
			C117.43,99.33,117.43,99.34,117.43,99.35C117.43,99.35,117.43,99.35,117.43,99.35z"/>
		<path class="st2" d="M79.25,104.47c0,0.01,0,0.02,0,0.03l0,0.02l0-0.02C79.25,104.49,79.25,104.48,79.25,104.47z"/>
		<path class="st2" d="M78.7,88.81l0.01-0.13L78.7,88.81c0,0.01,0,0.02,0,0.03c0,0.01,0,0.02,0,0.03c0-0.01,0-0.02,0-0.03
			C78.7,88.83,78.7,88.82,78.7,88.81z"/>
		<path class="st2" d="M78.54,92.8c0,0.01,0,0.03,0,0.04c0,0.15,0,0.31,0,0.47c0-0.15,0-0.32,0-0.47
			C78.54,92.83,78.54,92.82,78.54,92.8z"/>
		<path class="st2" d="M78.74,88.24C78.74,88.24,78.74,88.24,78.74,88.24c-0.01,0.06-0.01,0.11-0.02,0.17c0,0,0,0,0,0
			c0,0,0,0,0-0.01C78.73,88.35,78.74,88.3,78.74,88.24z"/>
		<path class="st2" d="M78.69,88.97c0,0.01,0,0.02,0,0.03c0,0.01,0,0.02,0,0.03c0-0.01,0-0.02,0-0.03
			C78.69,88.99,78.69,88.98,78.69,88.97z"/>
		<path class="st2" d="M80.04,109.28c-0.06-0.29-0.11-0.58-0.17-0.88C79.92,108.7,79.98,108.99,80.04,109.28z"/>
		<path class="st2" d="M120.08,109.67c0.11,0.28,0.21,0.56,0.31,0.82l0.37,0.86l-0.37-0.86
			C120.29,110.23,120.18,109.95,120.08,109.67z"/>
		<path class="st2" d="M118.32,103.98c0.03,0.14,0.06,0.27,0.1,0.41l0.01,0.04C118.39,104.28,118.35,104.13,118.32,103.98z"/>
		<path class="st2" d="M119.5,108.05l0.01,0.03c0.15,0.43,0.31,0.87,0.46,1.28c-0.12-0.32-0.24-0.64-0.35-0.97
			C119.58,108.28,119.54,108.17,119.5,108.05z"/>
		<path class="st2" d="M83.03,120.53c-0.09-0.28-0.19-0.56-0.28-0.85c-0.13-0.4-0.27-0.83-0.4-1.26c0.13,0.43,0.27,0.86,0.4,1.26
			C82.84,119.97,82.93,120.25,83.03,120.53z"/>
		<path class="st2" d="M118.15,85.22c0.02-0.06,0.03-0.12,0.05-0.19C118.18,85.1,118.17,85.16,118.15,85.22z"/>
		<path class="st2" d="M124.94,118.82c0.14,0.2,0.29,0.4,0.43,0.59c0.01,0.02,0.03,0.03,0.04,0.05c-0.03-0.04-0.05-0.09-0.08-0.13
			c0.57,0.74,1.14,1.43,1.73,2.1c0-0.01,0-0.02,0-0.03c0-0.12-0.02-0.26-0.03-0.45c-0.01-0.06-0.02-0.12-0.03-0.19
			c-0.01-0.08-0.02-0.16-0.04-0.24c-0.02-0.15-0.05-0.3-0.08-0.42c-0.02-0.07-0.04-0.13-0.06-0.19c-0.04-0.13-0.08-0.22-0.11-0.3
			c-0.05-0.13-0.11-0.25-0.17-0.39l-0.05-0.09c-0.1-0.17-0.2-0.32-0.31-0.46c-0.06-0.08-0.12-0.16-0.2-0.24
			c-0.01-0.02-0.03-0.04-0.05-0.06c-0.1-0.11-0.2-0.2-0.31-0.3c-0.06-0.05-0.11-0.11-0.17-0.15c-0.11-0.09-0.21-0.17-0.32-0.25
			c-0.1-0.07-0.19-0.14-0.29-0.2l-0.01-0.01c-0.06-0.04-0.12-0.08-0.18-0.11c-0.1-0.07-0.21-0.14-0.3-0.19l-0.03-0.02
			c-0.12-0.07-0.25-0.14-0.39-0.21c0,0,0,0-0.01,0c-0.14-0.06-0.27-0.13-0.38-0.19c-0.02-0.04-0.05-0.07-0.07-0.11
			c0.16,0.24,0.31,0.48,0.47,0.74C124.29,117.86,124.64,118.38,124.94,118.82z"/>
		<path class="st2" d="M78.55,95.13c0.01,0.38,0.01,0.75,0.02,1.14c0,0,0-0.01,0-0.01C78.56,95.87,78.56,95.5,78.55,95.13z"/>
		<path class="st2" d="M118.78,83.19c-0.05,0.13-0.1,0.27-0.15,0.39c-0.03,0.1-0.07,0.23-0.12,0.37c0.05-0.14,0.09-0.27,0.12-0.37
			C118.68,83.46,118.73,83.32,118.78,83.19z"/>
		<path class="st2" d="M113.19,39.31c-0.06,0.02-0.12,0.03-0.18,0.05c0.02,0,0.03-0.01,0.05-0.01L113.19,39.31z"/>
		<polygon points="98.44,47.05 98.45,47.04 98.44,47.05 		"/>
		<polygon points="98.44,47.05 98.44,47.05 98.44,47.04 		"/>
		<polygon points="98.35,47.12 98.35,47.12 98.35,47.12 98.43,47.06 98.44,47.04 98.44,47.04 		"/>
		<path d="M123.06,115.92l-0.51-0.9c-0.01-0.02-0.02-0.04-0.03-0.06c-0.2-0.39-0.43-0.84-0.66-1.29c-0.21-0.42-0.42-0.85-0.6-1.22
			c0-0.01-0.01-0.01-0.01-0.02c-0.01-0.02-0.02-0.03-0.03-0.05c0.04,0.23,0.16,0.82-1.58,2.34c-0.08,0.07-0.16,0.14-0.25,0.21
			c-0.89,0.73-1.87,1.41-2.52,1.86c0.03,0.06,0.06,0.13,0.09,0.19c-0.03-0.06-0.06-0.13-0.09-0.2
			c-10.79,7.06-28.79,13.99-30.59,11.76c0.3,0.64,0.68,1.4,1.22,2.45c0.5,1.01,0.89,1.76,1.22,2.37l0.04,0.07l1.31,2.3
			c0.69,0.96,2.65,1.06,5.67,0.31c0.58-0.15,1.21-0.33,1.86-0.54c1.94-0.63,4.07-1.51,6.35-2.62l0.37-0.18
			c0.21-0.1,0.42-0.21,0.63-0.31c5.55-2.81,10.81-6.41,14.81-10.14c1.45-1.43,2.44-2.61,3.01-3.63l0.03-0.05
			c0.05-0.09,0.09-0.17,0.13-0.25l0.06-0.11c0.35-0.74,0.44-1.36,0.29-1.91c-0.01-0.05-0.03-0.1-0.05-0.15
			C123.16,116.09,123.11,116,123.06,115.92z"/>
		<path d="M119.37,107.69l-0.52-1.64l-0.34-1.3c-0.03-0.11-0.05-0.22-0.08-0.33l-0.01-0.04l-0.17-0.62c-0.3-0.18-2.45,0.18-5.62,0.8
			l0.03,0.11c-0.01-0.02-0.03-0.1-0.03-0.11c-7.89,1.58-19.51,4.34-26.47,6.28c-3.16,0.88-5.02,1.51-5.39,1.81c0,0,0,0,0,0
			l0.01,0.05l1.07,4.03c0.02,0.05,0.03,0.09,0.03,0.09c0.01,0.04,0.02,0.07,0.03,0.11l1.25,3.9c1,0.81,19.44-5.05,31.32-9.97
			c-0.02-0.05-0.03-0.09-0.05-0.14l0.05,0.14c4.95-2.07,5.04-2.51,5.07-2.67l-0.04-0.12l-0.01-0.03
			C119.45,107.93,119.41,107.81,119.37,107.69z"/>
		<path d="M81.67,72.7l0.04-0.11c0.03-0.09,0.07-0.18,0.11-0.26c0.11-0.21,0.23-0.42,0.37-0.62c0.29-0.4,0.65-0.78,1.08-1.12
			c0.89-0.71,2.06-1.27,3.49-1.66c7.23-2.01,19.04,0.72,26.32,6.08c0.01-0.02,0.01-0.04,0.02-0.06l-0.02,0.07
			c2.85,2.1,4.67,4.35,5.27,6.5c0.11,0.41,0.18,0.83,0.2,1.22c0,0.04,0,0.08,0,0.11l0,0.08c0.01,0.49-0.06,0.96-0.18,1.38l0.24-0.73
			l-0.01,0l0.03-0.07c0.06-0.17,0.09-0.27,0.09-0.27c0.09-0.23,0.19-0.48,0.3-0.74c0.12-0.29,0.23-0.58,0.34-0.83
			c0.61-1.34,0.69-2.94,0.22-4.63c-0.64-2.29-2.24-4.7-4.63-6.98l0,0l-0.04,0.09l0.04-0.1c-6.85-6.51-18.3-10.17-25.54-8.16
			c-2.3,0.64-3.97,1.82-4.89,3.43c-0.06,0.1-0.12,0.2-0.18,0.31l-0.14,0.34l0.05-0.13l-0.01,0l-0.03,0.05l-0.11,0.26l-0.13,0.29
			c-0.14,0.34-0.29,0.71-0.44,1.07c-0.12,0.31-0.25,0.63-0.37,0.95c-0.29,0.74-0.54,1.37-0.75,1.94c-0.1,0.27-0.19,0.52-0.28,0.75
			l-0.59,1.83c-0.04,0.13-0.07,0.27-0.1,0.43c-0.01,0.06-0.02,0.12-0.03,0.19C81.5,73.3,81.58,73,81.67,72.7z"/>
		<path d="M150.11,159.79c-0.09,0.11-0.18,0.22-0.27,0.32c0.01-0.02,0.03-0.04,0.04-0.06c-0.04,0.05-0.08,0.1-0.13,0.16l0,0
			l-0.01,0.01l-0.26,0.29c0,0.01-0.01,0.01-0.02,0.02c-0.02,0.02-0.04,0.05-0.06,0.07c-0.01,0.02-0.03,0.03-0.04,0.06
			c-0.01,0.01-0.02,0.01-0.02,0.02c-0.96,1.08-1.77,1.94-2.62,2.78c-0.58,0.58-1.19,1.18-1.83,1.78c2.64-1.24,4.79-3.62,6.27-6.67
			c-0.31,0.37-0.63,0.75-0.97,1.14C150.16,159.74,150.13,159.77,150.11,159.79z"/>
		<path d="M88.44,58.25c1.03-1.26,2.5-2.16,4.35-2.67c7.23-2.01,18.24,2.49,24.54,10.03l0,0.01c1.88,2.26,3.21,4.64,3.84,6.9
			c0.15,0.55,0.27,1.11,0.34,1.64c0.01,0.05,0.01,0.1,0.01,0.15l0.01,0.11c0.05,0.47,0.07,0.91,0.06,1.32l0,0.13
			c-0.01,0.27-0.04,0.55-0.07,0.81c-0.03,0.21-0.07,0.41-0.13,0.65c-0.05,0.22-0.11,0.43-0.18,0.65c-0.08,0.26-0.18,0.51-0.29,0.75
			c-0.16,0.34-0.3,0.62-0.45,0.87l0.32-0.47l0.1-0.16l0,0l0.05-0.06c0.2-0.28,0.41-0.54,0.65-0.82c2.13-2.41,2.71-6.12,1.58-10.16
			c-0.57-2.06-1.56-4.15-2.93-6.21l0-0.01c-5.62-8.44-16.09-13.67-23.33-11.66c-1.1,0.31-2.09,0.77-2.93,1.37
			c-0.27,0.19-0.53,0.41-0.77,0.64c-0.2,0.18-0.39,0.37-0.57,0.58l-2.16,2.66l-0.26,0.34c-0.34,0.47-0.71,1-1.07,1.53
			c-0.52,0.74-0.89,1.29-1.19,1.75c-0.11,0.17-0.22,0.37-0.32,0.59c-0.04,0.08-0.08,0.16-0.12,0.26
			C87.82,59.24,88.13,58.74,88.44,58.25z"/>
		<path d="M161.45,141.72c-0.01,0.03-0.02,0.05-0.03,0.07c-0.07,0.16-0.14,0.32-0.21,0.48c-0.32,0.81-0.75,1.75-1.18,2.62
			c-0.02,0.04-0.04,0.09-0.06,0.13c-0.11,0.24-0.22,0.47-0.32,0.67l-0.89,1.7c-0.06,0.11-0.13,0.23-0.22,0.35
			c-0.04,0.07-0.08,0.14-0.12,0.21c0.26,3.59-0.25,7.05-1.54,9.93c-0.12,0.27-0.25,0.54-0.39,0.8c-0.09,0.18-0.19,0.36-0.29,0.54
			c-0.12,0.21-0.25,0.42-0.38,0.63c-0.59,0.92-1.28,1.74-2.05,2.44c-0.94,0.86-1.99,1.51-3.12,1.95c-0.14,0.05-0.27,0.1-0.41,0.16
			l0-0.01l-0.26,0.09l0,0l-0.03,0.02c0,0,0.21-0.07,0.29-0.09c1.72-0.56,2.64-0.9,3.65-1.33c1.22-0.48,2.17-0.95,3.85-1.82
			c1.15-0.62,2.28-1.64,3.18-2.86c0.92-1.21,1.6-2.62,2.02-4.2c0.65-2.31,0.76-4.91,0.33-7.72c-0.16-1.09-0.39-2.19-0.69-3.28
			c-0.22-0.78-0.48-1.56-0.78-2.33l-0.08,0.21C161.64,141.29,161.55,141.5,161.45,141.72z"/>
		<polygon points="149.95,164.5 149.95,164.5 149.95,164.5 		"/>
		<path d="M164.33,132.95c-0.04,0.2-0.11,0.41-0.19,0.63c0,0.01,0,0.02-0.01,0.04c-0.12,0.49-0.26,0.99-0.4,1.48
			c0.67,0.95,1.29,1.95,1.84,2.99c0.06-0.06,0.11-0.1,0.14-0.13c-0.03,0.03-0.07,0.07-0.14,0.14c0.84,1.6,1.5,3.23,1.95,4.85
			c1.55,5.56,0.58,10.59-2.57,13.46l1.47-1.26c0.55-0.51,1.22-1.18,1.99-1.97c0.37-0.38,0.74-0.75,1.09-1.12l0.2-0.22l0.63-0.66
			c2.11-2.41,2.68-6.11,1.56-10.14c-0.57-2.07-1.56-4.16-2.94-6.21c-0.09,0.09-0.16,0.15-0.21,0.2c0.05-0.05,0.12-0.12,0.21-0.21
			c-1.15-1.73-2.53-3.33-4.05-4.77c-0.05,0.27-0.11,0.55-0.16,0.84C164.58,131.77,164.45,132.42,164.33,132.95z"/>
		<path d="M122.59,40.99c-0.29-0.18-0.61-0.36-0.96-0.54c1.48,0.8,2.9,1.89,4.2,3.23c2.53,2.64,4.51,6.13,5.89,10.41l0.09,0.32
			c0.14,0.5,0.27,1.02,0.38,1.54c0.91,4.22,0.76,8.5-0.44,12.07c-0.35,1.03-0.78,2-1.27,2.87c-0.49,0.86-1.06,1.64-1.69,2.33
			c-0.23,0.26-0.49,0.51-0.8,0.78c-0.47,0.43-0.98,0.8-1.51,1.13c-0.3,0.18-0.59,0.35-0.88,0.48c-0.19,0.09-0.39,0.18-0.59,0.26
			c-0.14,0.06-0.29,0.11-0.43,0.16l-0.11,0.04c-0.08,0.03-0.16,0.06-0.25,0.08l0.09-0.02c0.03-0.01,0.38-0.08,0.38-0.08l0-0.01
			l0.06,0l0.23-0.03c0.51-0.05,1.02-0.15,1.54-0.29c0,0,0.07-0.01,0.1-0.01c8.24-2.29,12.01-14.39,9.1-24.84c0,0,0,0,0,0
			c-1.03-3.71-2.8-6.93-5.11-9.31c-0.33-0.34-0.68-0.67-1.03-0.97c-0.35-0.3-0.72-0.59-1.09-0.85c-0.37-0.26-0.75-0.5-1.13-0.71
			c-0.38-0.21-0.77-0.41-1.17-0.58c-0.59-0.25-1.2-0.45-1.81-0.59c-0.2-0.05-0.41-0.09-0.61-0.12c-0.41-0.07-0.84-0.1-1.27-0.11
			c-0.11,0-0.21-0.01-0.32-0.01l-0.26,0.02c-0.39,0.02-0.76,0.05-1.11,0.07c-0.77,0.08-1.34,0.15-1.93,0.24l-0.3,0.05
			c-0.39,0.07-0.8,0.15-1.31,0.26l-0.53,0.09c-0.21,0.04-0.43,0.08-0.66,0.13c-0.55,0.12-1.12,0.27-1.89,0.48L114.07,39l-0.05,0.01
			l-0.82,0.24l-0.18,0.06c0.24-0.07,0.48-0.11,0.72-0.16C116.6,38.55,119.71,39.18,122.59,40.99z"/>
		<path d="M119.37,136.28c0.47-0.47,0.94-0.96,1.33-1.38c0.05-0.06,0.11-0.13,0.17-0.2c0.04-0.05,0.08-0.1,0.13-0.15
			c0.05-0.07,0.11-0.13,0.16-0.2c0.16-0.19,0.31-0.38,0.48-0.58c0.09-0.12,0.19-0.23,0.28-0.35c0.02-0.02,0.03-0.04,0.05-0.06
			c0.38-0.47,0.75-0.96,1.07-1.38c0.09-0.13,0.18-0.26,0.27-0.38c0.23-0.35,0.49-0.77,0.75-1.18c0.25-0.4,0.49-0.8,0.7-1.16
			c0.2-0.37,0.36-0.67,0.46-0.87c0.11-0.24,0.23-0.49,0.35-0.76c0.04-0.08,0.08-0.16,0.11-0.24c0.25-0.6,0.51-1.26,0.71-1.79
			c0.16-0.53,0.34-1.23,0.47-1.8c0.03-0.21,0.07-0.41,0.11-0.59l0.08-0.72c0-0.01,0-0.03,0-0.05c0-0.15,0.01-0.31,0.02-0.48
			c0-0.01,0-0.02,0-0.02c0-0.01,0-0.02,0-0.04c0-0.14,0-0.27,0-0.4c0-0.01,0-0.03,0-0.04c-0.59-0.66-1.16-1.36-1.73-2.1
			c0.03,0.04,0.05,0.09,0.08,0.13c0.13,0.2,0.24,0.42,0.31,0.67c0.45,1.62-0.51,4.14-2.69,7.08l0.01,0.01l-0.01-0.01
			c-4.98,6.68-14.91,13.75-22.15,15.76c-3.11,0.86-5.37,0.68-6.34-0.53l-0.05-0.06l-0.04-0.04l0.03,0.05l0.11,0.14
			c0.64,0.81,1.42,1.77,2.27,2.79c0.81,0.97,1.53,1.82,2.17,2.55l0.57-0.15l0.57-0.16c0.48-0.14,1.06-0.32,1.6-0.5l0.63-0.2
			c0.14-0.05,0.27-0.1,0.44-0.13c0.02-0.01,0.05-0.02,0.08-0.03l1.9-0.73c0.66-0.29,1.44-0.64,2.21-1l0.53-0.27l0.44-0.22
			c0.37-0.19,0.72-0.37,1.09-0.56l0.16-0.08c0.15-0.09,0.32-0.17,0.48-0.27c0.01-0.01,0.01-0.01,0.02-0.01
			c0.17-0.1,0.33-0.2,0.51-0.3l0.38-0.21l0.03-0.02c0.98-0.59,1.99-1.24,2.82-1.79c0.01-0.01,0.03-0.02,0.04-0.02l1.25-0.91
			c0.02-0.01,0.04-0.03,0.06-0.04c-0.01,0-0.01,0-0.01,0.01c0.04-0.03,0.08-0.06,0.11-0.08c0.38-0.3,0.8-0.63,1.22-0.98
			c0.29-0.24,0.58-0.47,0.85-0.7c0.05-0.04,0.09-0.07,0.13-0.11c0.13-0.12,0.26-0.22,0.37-0.32l0.09-0.08l0.46-0.42
			C118.45,137.2,118.91,136.74,119.37,136.28z"/>
		<path d="M78.82,87.36c-0.03,0.3-0.06,0.58-0.08,0.89c0,0,0-0.01,0-0.01c0.2-1.45,2.02-2.72,5.15-3.59
			c7.23-2.01,19.42-1.36,27.17,1.44l0,0.01c1.02,0.37,1.94,0.77,2.72,1.18c0.38,0.2,0.74,0.41,1.06,0.62
			c0.16,0.1,0.31,0.21,0.46,0.32c0.29,0.21,0.54,0.43,0.76,0.64c0.33,0.32,0.59,0.65,0.77,0.97c0.11,0.19,0.19,0.38,0.24,0.57
			l0.02,0.07c0.05,0.21,0.07,0.42,0.07,0.59c0.04-0.57,0.11-1.23,0.17-1.76c0.09-0.7,0.19-1.27,0.26-1.72l0.01-0.09
			c0.09-0.48,0.06-0.99-0.09-1.52l-0.05-0.17l-0.01-0.02c-0.6-1.84-2.57-3.71-5.69-5.4l0-0.01c-7.58-4.13-19.63-5.85-26.86-3.84
			c-2.94,0.82-4.75,2.18-5.16,3.86c-0.01,0.06-0.04,0.11-0.05,0.17c-0.04,0.22-0.07,0.46-0.11,0.71c-0.14,0.95-0.29,2.05-0.44,3.24
			C79.02,85.52,78.91,86.48,78.82,87.36z"/>
		<path d="M79.25,104.43c-0.04-0.68,1.81-1.58,5.21-2.52c7.24-2.01,19.34-3.64,27-3.65c0,0,0,0,0,0.01c3.65,0,5.76,0.37,5.97,1.09
			c0,0,0,0,0,0c0-0.01,0-0.02,0-0.03c-0.05-0.34-0.08-0.66-0.12-0.97l-0.09-1.11c-0.04-0.46-0.08-0.91-0.11-1.31l-0.01-0.15
			c-0.01-0.18-0.02-0.41-0.03-0.7c0-0.08-0.02-0.16-0.04-0.23c-0.31-1.13-2.48-2.11-6.09-2.78c-7.77-1.43-19.98-0.95-27.21,1.06
			c-3.29,0.91-5.1,2.02-5.15,3.13c0,0,0,0.01,0,0.01c0,0.01,0,0.02,0,0.03c0,0.03,0,0.06,0,0.1l0,0.15
			c0.02,0.39,0.03,0.77,0.05,1.17c0,0.04,0,0.07,0,0.1c0,0.01,0.01,0.27,0.04,0.69c0.06,0.77,0.13,1.65,0.24,2.72
			C79.02,102.5,79.12,103.53,79.25,104.43z"/>
		<path d="M125.56,63.28C125.56,63.28,125.56,63.28,125.56,63.28c1.6,5.75,0.46,11.03-2.93,13.77l0.07-0.05
			c0.3-0.23,0.52-0.37,0.67-0.46l0.11-0.06c0.08-0.04,0.15-0.08,0.22-0.13l0.15-0.08c0.12-0.07,0.23-0.14,0.34-0.21
			c0.14-0.09,0.27-0.18,0.4-0.27c0.19-0.14,0.37-0.29,0.55-0.44c0.3-0.25,0.58-0.53,0.85-0.81c0.63-0.68,1.18-1.46,1.63-2.32
			c0.12-0.22,0.23-0.44,0.33-0.67c1.62-3.55,1.8-8.11,0.49-12.83c-0.26-0.95-0.59-1.9-0.97-2.85c-3.96-9.79-13.06-16.11-20.3-14.1
			c-0.41,0.11-0.82,0.27-1.28,0.48c-0.06,0.03-0.11,0.04-0.17,0.07l-0.16,0.07c-0.12,0.05-0.24,0.11-0.35,0.17l-1.1,0.61
			c-0.72,0.45-1.55,1-2.41,1.58c-0.23,0.16-0.47,0.32-0.71,0.48c-0.66,0.45-1.3,0.91-1.9,1.35c-0.05,0.04-0.1,0.07-0.15,0.11
			l-0.01-0.01c-0.17,0.11-0.33,0.24-0.48,0.37c0.16-0.12,0.32-0.24,0.49-0.36c0.01-0.01,0.03-0.01,0.04-0.02
			c0.82-0.55,1.74-0.98,2.73-1.25C110.36,43,122.37,51.81,125.56,63.28z"/>
		<path d="M159.37,52.43c0.04,0.12,0.08,0.25,0.11,0.37c0.61,2.2,0.28,5.09-0.94,8.37l-0.01,0c-3.78,10.03-14.13,19.03-21.15,19.57
			c0.02,0.01,0.03,0.01,0.05,0.02c0.33,0.13,0.66,0.26,0.97,0.38c0.96,0.4,2.1,0.94,3.15,1.48c6.84-1.78,16.5-9.4,20.95-17.69
			l0.01,0c1.43-2.66,2.11-5.05,1.98-6.91c-0.03-0.36-0.08-0.7-0.17-1.01l0-0.01c-0.04-0.15-0.09-0.3-0.15-0.44
			c-0.13-0.33-0.32-0.63-0.53-0.9c-0.05-0.06-0.09-0.14-0.15-0.2l0,0l-0.04-0.05c-0.36-0.36-0.75-0.75-1.17-1.16
			c-0.99-0.96-2.1-2.02-3.17-3.01c-0.38-0.35-0.76-0.7-1.13-1.03l0,0l-0.08-0.06c0.06,0.05,0.1,0.11,0.15,0.17
			c0.42,0.41,0.78,0.89,1.05,1.45C159.21,52.01,159.29,52.22,159.37,52.43z"/>
		<path d="M168.95,62.76c0.15,1.63-0.82,3.9-2.79,6.55c0.03,0.03,0.05,0.07,0.08,0.1l-0.08-0.1c-4.7,6.31-13.82,12.96-20.92,15.38
			c0.16,0.11,0.33,0.22,0.51,0.33c0.33,0.21,0.66,0.42,0.97,0.63c0.33,0.22,0.65,0.44,0.94,0.64l0.77,0.6l0.2,0.16
			c6.97-2.58,15.76-7.92,20.82-12.81c0,0,0,0,0,0c1.82-1.75,3.01-3.31,3.44-4.51c0.19-0.53,0.24-0.99,0.13-1.37
			c-0.01-0.04-0.03-0.08-0.04-0.12c-0.01-0.02-0.01-0.04-0.02-0.06l-0.37-0.62c-0.18-0.29-0.39-0.61-0.6-0.95
			c-0.49-0.76-1.06-1.62-1.73-2.64c-0.02-0.04-0.05-0.07-0.07-0.11c-0.2-0.3-0.4-0.6-0.59-0.89l-0.3-0.44l-0.82-1.09
			c0.02,0.02,0.03,0.05,0.04,0.07c0.15,0.21,0.26,0.45,0.33,0.71C168.9,62.39,168.93,62.57,168.95,62.76z"/>
		<path d="M133.14,38.77c0.1,0.05,0.19,0.11,0.29,0.17l0.05,0.03c0.54,0.32,1.06,0.7,1.54,1.11c0.3,0.25,0.59,0.53,0.87,0.82
			c0.28,0.29,0.55,0.6,0.81,0.92c0.13,0.16,0.26,0.33,0.39,0.5c0.25,0.34,0.49,0.69,0.73,1.07c0.46,0.74,0.89,1.55,1.26,2.41
			c0.19,0.43,0.36,0.88,0.52,1.33c0.16,0.46,0.31,0.94,0.44,1.42c0.41,1.47,0.68,3.03,0.82,4.65c0.03,0,0.06,0.01,0.09,0.01l-0.04,0
			l-0.06,0c0.86,10.39-4.32,20.48-11.54,22.51l-0.03,0c-0.83,0.23-1.67,0.35-2.49,0.35c-0.27,0-0.55-0.01-0.79-0.02l0.45,0.06
			c0,0,0.48,0.1,0.6,0.13c0.07,0.02,0.13,0.03,0.22,0.06c0.36,0.1,0.74,0.17,1.11,0.22c8.49,1.06,16.84-10.43,17.07-22.46
			c0.04-2.31-0.21-4.49-0.76-6.46c-1.16-4.16-3.55-7.11-6.62-8.24c-0.23-0.09-0.46-0.19-0.7-0.25c-0.57-0.15-1.29-0.32-2.2-0.51
			c-0.38-0.09-0.77-0.17-1.14-0.25c-0.39-0.08-0.76-0.16-1.11-0.22l-0.98-0.13l-1.79-0.22c0.06,0.01,0.11,0.03,0.17,0.04
			c0.8,0.15,1.58,0.39,2.33,0.75C132.81,38.6,132.97,38.68,133.14,38.77z"/>
		<path d="M165.56,123.78c0,0.21-0.02,0.42-0.03,0.64c0.01,0.26,0,0.52-0.01,0.79l-0.01,0.1c2.36,1.57,4.55,3.46,6.34,5.61
			c1.89,2.26,3.21,4.65,3.84,6.91c0.15,0.55,0.27,1.11,0.34,1.64c0.05,0.42,0.08,0.86,0.08,1.36l0,0.14c0,0.07,0,0.15,0,0.22
			c-0.01,0.27-0.04,0.54-0.07,0.81c-0.12,0.88-0.4,1.72-0.81,2.48l-0.05,0.09c-0.05,0.09-0.1,0.18-0.14,0.28
			c0.43-0.69,0.9-1.52,1.26-2.15c0.43-0.74,0.77-1.35,1.04-1.86l1.34-2.76l0-0.01l0,0l0.03-0.08c0.58-1.33,0.65-2.9,0.19-4.56
			c-0.64-2.29-2.24-4.7-4.64-6.98c-2.44-2.32-5.46-4.26-8.66-5.73c0.01,0.31,0.02,0.62,0.02,0.9
			C165.62,122.34,165.6,123.07,165.56,123.78z"/>
		<path d="M164.92,113.84c0.16,0.73,0.29,1.65,0.38,2.5c3.85,1.12,7.65,2.85,10.8,5.18c2.85,2.1,4.67,4.35,5.27,6.51
			c0.27,0.98,0.28,1.91,0.02,2.81l0.02-0.08c0.26-0.93,0.56-2.07,0.88-3.37c0.33-1.3,0.59-2.43,0.8-3.36l0.11-0.56l0.05-0.28
			c0.08-0.47,0.04-0.96-0.09-1.45c-0.52-1.87-2.56-3.86-5.75-5.6c-3.26-1.78-7.98-3.29-12.84-4.1c0.08,0.4,0.16,0.8,0.23,1.21
			C164.84,113.45,164.89,113.65,164.92,113.84z"/>
		<path d="M162.47,105.26c0.31,0.74,0.59,1.46,0.81,2.15c0.05,0.14,0.1,0.3,0.15,0.46c5.09,0.18,10.41,1.01,14.7,2.57l0.01,0
			c1.3,0.47,2.4,0.98,3.28,1.5c0.35,0.21,0.68,0.42,0.96,0.63c0.86,0.64,1.43,1.29,1.68,1.94c0.04,0.11,0.08,0.21,0.1,0.32
			c0.05,0.21,0.07,0.42,0.06,0.63c0,0.01,0,0.01,0,0.02c0,0,0-0.01,0-0.01l0.01-0.18c0,0,0,0,0,0l0.01-0.21
			c0.05-1.15,0.09-2.49,0.11-3.83c0.02-1.26,0.03-2.51,0.02-3.6c0-0.04,0-0.08,0-0.11c0,0.05,0,0.11-0.01,0.16
			c0-0.12-0.01-0.25-0.01-0.36c-0.09-0.46-0.48-0.9-1.18-1.31c-1.01-0.6-2.66-1.13-4.93-1.55c0,0.02,0,0.04,0,0.06
			c0-0.02,0-0.04,0-0.06c-4.82-0.89-10.84-1.02-16.38-0.62c0.21,0.48,0.4,0.92,0.59,1.4C162.46,105.24,162.46,105.25,162.47,105.26z
			"/>
		<path d="M176.31,76.4c-2.5,3.32-14.82,9.88-24.5,13.36c0.12,0.11,0.24,0.23,0.34,0.33c0.02,0.01,0.04,0.04,0.05,0.05
			c0.9,0.85,1.73,1.7,2.37,2.44l0.22,0.26c10.62-3.38,24.36-8.58,24.98-9.77l-0.02-0.1l0.04,0.01l0.01,0l0,0l0.02,0.01l-0.93-2.48
			l-0.12-0.3c-0.17-0.48-0.35-0.94-0.51-1.37l-0.21-0.48l-0.95-2.2l-0.37-0.85l-0.04-0.05c0.01,0.02,0.01,0.04,0.02,0.06
			c0,0,0,0,0,0.01C176.78,75.6,176.65,75.96,176.31,76.4z"/>
		<path d="M157.62,96.26l0.13,0.19c0.22,0.33,0.46,0.68,0.73,1.12l0.31,0.43c0.12,0.18,0.25,0.37,0.37,0.56
			c0.25,0.41,0.51,0.85,0.82,1.4c5.52-0.95,11.93-1.7,17.75-1.7l0,0.01c3.65,0,5.77,0.37,5.95,1.04l0.02,0.05l-0.4-2.65l-0.04-0.23
			c-0.03-0.2-0.07-0.41-0.12-0.64c-0.11-0.56-0.24-1.22-0.41-2.02c-0.15-0.76-0.28-1.38-0.4-1.92c-0.06-0.26-0.11-0.51-0.17-0.74
			l-0.01-0.01l-0.01-0.01C181.75,90.72,168.77,93.47,157.62,96.26z"/>
		<path d="M149.49,47.91c0.6,2.14,0.74,4.68,0.44,7.75c-1.24,9.83-8.13,19.46-15.36,21.47l-0.11,0.02c0,0-0.37,0.08-0.55,0.12
			l-0.25,0.05c-1.79,0.33-2.94,0.22-4.77-0.47l-0.12-0.04l0.12,0.06l0.19,0.1c0.25,0.12,0.52,0.25,0.81,0.41
			c0,0,0.13,0.07,0.37,0.21l0.59,0.36c0.2,0.13,0.41,0.24,0.63,0.35c0.44,0.21,0.91,0.37,1.4,0.47c0.42,0.09,0.87,0.14,1.39,0.15
			c0,0,0.15,0.01,0.19,0.01c0.84,0,1.73-0.13,2.66-0.4c0,0,0.01,0,0.01,0.01c10.28-2.86,20.05-19.18,17.39-28.78
			c-0.49-1.75-1.39-3.12-2.6-4.02c-0.09-0.07-0.16-0.15-0.25-0.21l-0.17-0.11l0.06,0.03l-1.8-1.1c-1.41-0.8-3.31-1.75-4.62-2.4
			c0.08,0.04,0.17,0.09,0.25,0.13l-0.2-0.1l-0.1-0.04c0.01,0,0.01,0.01,0.02,0.01C147.27,43.23,148.75,45.23,149.49,47.91z"/>
		<path d="M164.56,156.73c0.13-0.11,0.26-0.22,0.39-0.33l-0.01-0.01L164.56,156.73z"/>
		<polygon points="175,144.91 175,144.9 175,144.91 175.03,144.86 175.02,144.85 		"/>
		<path d="M79.53,139.8l0.13-0.48l0.22-0.75c0.08-0.25,0.19-0.55,0.3-0.84l0.05-0.13c0.05-0.13,0.09-0.27,0.13-0.4
			c0.53-1.78,0.19-3.82-0.99-5.94c-3.64-6.58-14.28-12.18-23.72-12.5c-3.31-0.11-6.15,0.44-8.23,1.59c-1.5,0.83-2.58,1.98-3.12,3.33
			l-0.03,0.07l0,0l0,0.01l-1.03,2.89c-0.17,0.55-0.37,1.22-0.59,2.05c-0.2,0.7-0.46,1.61-0.66,2.4c0.04-0.1,0.07-0.2,0.1-0.3
			l0.03-0.1c0.25-0.83,0.66-1.61,1.2-2.32c0.17-0.22,0.34-0.42,0.53-0.62c0.05-0.05,0.1-0.1,0.16-0.16l0.1-0.09
			c0.34-0.35,0.68-0.64,1.02-0.89c0.43-0.33,0.91-0.63,1.41-0.91c2.05-1.13,4.69-1.86,7.62-2.1c9.79-0.79,20.71,3.9,24.35,10.46
			c1.02,1.84,1.39,3.72,1.09,5.44c0,0.01,0,0.02-0.01,0.03c-0.02,0.11-0.04,0.21-0.06,0.32L79.53,139.8z"/>
		<path d="M85.53,129.26c0.01-0.01,0.01-0.01,0.01-0.02c0.01,0,0.01-0.01,0.01-0.01c0.12-0.13,0.23-0.25,0.35-0.37
			c0.02-0.02,0.04-0.04,0.05-0.06c0.09-0.09,0.18-0.19,0.27-0.29c0,0,0,0,0,0c-0.08-0.18-0.17-0.36-0.25-0.54
			c-0.05,0.51-0.2,0.94-0.48,1.3c-0.03,0.05-0.06,0.09-0.1,0.13L85.53,129.26z"/>
		<path d="M81.46,134.97c0.16-0.29,0.32-0.56,0.48-0.83c0.36-0.61,0.71-1.15,1.01-1.58l0.2-0.29c0.04-0.07,0.09-0.14,0.13-0.21
			c0.01,0,0.01-0.01,0.01-0.02c0.17-0.3,0.31-0.64,0.38-0.99c0.02-0.11,0.04-0.23,0.05-0.35c0.02-0.17,0.03-0.35,0.03-0.53l0-0.07
			c0-0.05,0-0.1,0-0.16c0-0.13-0.02-0.26-0.03-0.4c-0.03-0.28-0.08-0.57-0.15-0.86c-1.89-7.91-14.55-16.92-22.77-19.43
			c-3.47-1.06-6.32-1.12-8.02-0.18c-0.45,0.25-0.83,0.57-1.1,0.95l-0.17,0.22l-0.32,0.47c-0.52,0.79-1.14,1.78-1.84,2.93
			c-0.7,1.14-1.3,2.15-1.78,2.98l-0.04,0.07c0.46-0.82,1.13-1.46,2.02-1.95c1.95-1.09,4.84-1.36,8.34-0.8
			c13.16,2.11,26.69,14.29,23.65,20.83c-0.04,0.08-0.07,0.15-0.12,0.23L81.46,134.97z"/>
		<path d="M83.52,147.79l-0.22-0.1c-0.17-0.06-0.34-0.13-0.5-0.21l-0.09-0.04c-0.24-0.11-0.41-0.2-0.56-0.28l-0.23-0.13
			c-0.2-0.11-0.39-0.22-0.6-0.32c0,0,0,0-0.01,0c-2.99-1.43-6.8-1.06-10.6,1.05c-1.79,0.99-3.52,2.33-5.14,3.98l0,0
			c-7.16,7.3-10.02,18.58-6.38,25.15c0.82,1.48,1.91,2.63,3.24,3.41c0.52,0.3,1.17,0.64,2.03,1.08c0.84,0.45,1.48,0.77,2.01,1.02
			l2.68,1.14c-1.33-0.62-2.47-1.63-3.38-3.02c-0.14-0.22-0.29-0.45-0.42-0.69c-3.64-6.56-1.59-18.23,4.55-26l0.09,0.04l-0.05-0.03
			c1.74-2.26,3.68-3.97,5.72-5.1c0.67-0.38,1.36-0.68,2.04-0.92c1.46-0.5,2.88-0.65,4.22-0.45c0.26,0.04,0.53,0.09,0.78,0.16
			c0.08,0.02,0.17,0.05,0.26,0.08c0.14,0.05,0.3,0.1,0.45,0.16L83.52,147.79z"/>
		<path d="M80.77,146.23l-0.05-0.04l-0.09-0.09c-0.12-0.12-0.24-0.23-0.34-0.33l-0.15-0.17c-0.12-0.15-0.24-0.29-0.36-0.42
			c0,0-0.01-0.01-0.01-0.01c-4.01-4.42-11.8-4.7-19.18-0.61c-0.68,0.38-1.36,0.79-2.02,1.24l0,0.01
			c-8.78,5.92-12.95,16.09-9.31,22.66c0.27,0.49,0.58,0.96,0.93,1.38l1.49,1.74c0.57,0.6,1.28,1.31,2.1,2.11
			c0.44,0.43,0.88,0.85,1.31,1.24l0.07,0.06c0.29,0.26,0.54,0.5,0.77,0.71c0.17,0.15,0.34,0.28,0.52,0.41
			c0.09,0.07,0.19,0.13,0.28,0.19c-0.47-0.4-0.96-0.8-1.41-1.2c-0.57-0.59-1.07-1.27-1.48-2.01c-3.64-6.56-0.06-17.34,7.96-24.02
			l0,0c1.25-1.03,2.55-1.93,3.88-2.66c4.77-2.65,9.61-3.11,13.19-1.4c0.55,0.26,1.06,0.58,1.55,0.94c0,0,0.01,0,0.01,0.01
			c0.14,0.1,0.27,0.21,0.4,0.32L80.77,146.23z"/>
		<path d="M88.19,148.82l-0.26-0.03c-0.31-0.04-0.67-0.09-1.02-0.16c-0.45-0.07-0.9-0.15-1.27-0.23c-0.2-0.04-0.41-0.08-0.61-0.1
			c-0.91-0.11-1.85-0.02-2.81,0.27c-0.57,0.18-1.15,0.42-1.72,0.74c-2.08,1.16-4.08,3.21-5.79,5.95l0.07,0.02l-0.07-0.02
			c-5.05,8.12-6.19,20.06-2.55,26.63c1.23,2.22,2.89,3.62,4.82,4.06l0.06,0.01c0.96,0.2,2.1,0.4,3.32,0.6
			c1.27,0.22,2.37,0.39,3.3,0.51l0.91,0.09c-1.95-0.22-3.71-1.65-5.08-4.12c-3.64-6.57-3.46-18.66,0.39-26.96
			c-0.06-0.01-0.12-0.02-0.17-0.02l0.17,0.02c1.48-3.17,3.31-5.43,5.3-6.53c0.9-0.5,1.8-0.75,2.7-0.74l0.02,0
			c0.13,0,0.25,0,0.38,0.02L88.19,148.82z"/>
		<path d="M79.19,142.78c-0.01-0.11-0.01-0.22-0.01-0.33c0-0.16,0.01-0.36,0.03-0.67l0-0.07l0.01,0c0.01-0.19,0.02-0.38,0.02-0.56
			c0.06-8.98-13.97-15.02-25.83-12.76l0,0c-2.43,0.46-4.62,1.22-6.49,2.26c-3.66,2.03-5.9,5.03-6.14,8.22l-0.04,0.91l-0.02,0.29
			c-0.02,0.51-0.03,1.03-0.03,1.56c-0.02,1.11-0.03,2.05-0.01,2.8l0.14,1.93c-0.16-4.26,2.75-8.47,7.8-11.26
			c1.47-0.81,3.09-1.5,4.82-2.01c0-0.05,0-0.09,0-0.12c0,0.03,0,0.07,0,0.11c9.95-2.98,21-0.07,24.64,6.5l0-0.04l0.01,0.06
			c0.54,0.97,0.89,1.99,1.05,3.03c0.03,0.17,0.05,0.33,0.06,0.5L79.19,142.78z"/>
		<path d="M91.71,148.93l-0.25,0.01c-0.07,0.01-0.16,0.01-0.24,0.03c-0.32,0.05-0.76,0.13-1.25,0.36c-0.1,0.05-0.19,0.09-0.28,0.14
			l-0.2,0.12l-0.22,0.15c-1.56,1.08-2.89,3.28-3.94,6.54l0.11,0c-0.04,0-0.07,0-0.11,0c-1.15,4.04-1.67,8.5-1.5,12.93l0,0.11
			c0.04,0.84,0.09,1.69,0.17,2.5c0.04,0.39,0.08,0.79,0.14,1.18l0.02,0.16c0.04,0.32,0.09,0.64,0.13,0.94
			c0.02,0.15,0.05,0.31,0.08,0.46c0.03,0.2,0.06,0.4,0.1,0.59l0.09,0.46c0.2,0.98,0.43,1.91,0.67,2.75c0.31,1.07,0.66,2.08,1.06,3
			c0.75,1.82,1.65,3.25,2.65,4.29c1.1,1.15,2.27,1.76,3.46,1.79l0.19,0c1.08-0.06,2.38-0.15,3.87-0.27
			c1.32-0.11,2.56-0.22,3.58-0.34l0.17-0.02l0.05-0.01l-0.05-0.01l-0.08,0.01c-1.55,0.15-3.26-1.33-4.83-4.15
			c-3.64-6.57-5.56-18.61-4.28-26.85l0,0c0.57-3.62,1.69-6.07,3.16-6.89c0.2-0.11,0.41-0.19,0.63-0.24c0,0,0.01,0,0.01,0
			c0.07-0.02,0.13-0.03,0.2-0.04C93.88,148.8,92.79,148.89,91.71,148.93z"/>
		<path d="M79.69,144.93c-0.06-0.16-0.12-0.26-0.15-0.36l-0.02-0.06c-0.03-0.08-0.06-0.16-0.08-0.24l-0.02-0.06l0.01,0
			c-0.05-0.14-0.1-0.27-0.15-0.39c-0.01-0.03-0.02-0.06-0.04-0.09c-0.07-0.18-0.14-0.36-0.22-0.55c-0.14-0.32-0.28-0.64-0.41-0.91
			c0.01,0.05,0.02,0.1,0.04,0.15c-0.02-0.07-0.04-0.13-0.06-0.2c-4.36-7.87-17.69-8.41-26.71-3.42c-0.98,0.55-1.93,1.16-2.82,1.81
			c-2.31,1.66-4.08,3.57-5.27,5.65c-0.83,1.41-1.36,2.89-1.58,4.39c-0.24,1.5-0.17,3.02,0.19,4.27c0.56,1.81,0.9,2.82,1.4,4.02
			c0.4,1.03,0.8,1.92,1.61,3.54c-0.06-0.14-0.12-0.27-0.17-0.4c-0.48-1.11-0.74-2.33-0.8-3.6c-0.04-1.04,0.06-2.11,0.3-3.17
			c0.05-0.24,0.11-0.48,0.18-0.72c0.06-0.19,0.12-0.39,0.18-0.58c0.09-0.28,0.19-0.56,0.3-0.84c1.7-4.34,5.46-8.37,10.33-11.07
			l0.3-0.16c9.26-4.98,19.7-3.8,23.44,2.6c0,0,0,0.01,0,0.01c0.04,0.06,0.07,0.12,0.11,0.18L79.69,144.93z"/>
		<path d="M165.34,116.55c0-0.02-0.01-0.04-0.01-0.06C165.33,116.51,165.33,116.53,165.34,116.55L165.34,116.55z"/>
		<polygon points="165.43,117.16 165.42,117.16 165.43,117.18 165.43,117.28 165.43,117.16 		"/>
		<path d="M165.34,116.55L165.34,116.55c0.02,0.21,0.05,0.4,0.08,0.6C165.41,116.95,165.38,116.75,165.34,116.55z"/>
		<path d="M165.54,124.42c-0.01-0.35-0.03-0.68-0.09-1.02c-0.16-1.03-0.52-2.05-1.07-3.05c-2.9-5.23-10.5-8.7-18.51-8.93
			c-2.05-0.07-4.12,0.09-6.16,0.48l0,0.01c-2.43,0.45-4.61,1.22-6.48,2.26c-3.36,1.86-5.53,4.54-6.04,7.45
			c-0.04,0.26-0.08,0.53-0.1,0.8c-0.03,0.36-0.07,0.7-0.13,1.04l-0.01,0.08l0,0l-0.04,0.18l-0.11,0.56c0.07-0.28,0.17-0.57,0.3-0.92
			c0.09-0.25,0.21-0.49,0.33-0.73c0.08-0.15,0.16-0.3,0.25-0.44c0.03-0.05,0.06-0.09,0.08-0.14c0.14-0.21,0.25-0.38,0.37-0.54
			c0.17-0.22,0.34-0.42,0.53-0.62l0.1-0.09c0.28-0.3,0.61-0.6,0.98-0.88l0.09-0.07c0.04-0.03,0.07-0.07,0.12-0.09
			c0.43-0.33,0.9-0.63,1.4-0.91c2.05-1.13,4.69-1.86,7.61-2.1l0,0c2.07-0.17,4.2-0.09,6.3,0.2c7.79,1.08,15.18,5.09,18.05,10.27
			c0.93,1.69,1.32,3.36,1.15,4.98c-0.13,0.56-0.27,1.14-0.41,1.72c0.03-0.08,0.07-0.17,0.09-0.25c0.01-0.01,0.01-0.02,0.01-0.04
			c0.08-0.23,0.15-0.43,0.19-0.63c0.12-0.53,0.25-1.18,0.42-2.07c0.06-0.28,0.11-0.56,0.16-0.84c0.07-0.35,0.13-0.69,0.18-1.01
			l0.06-0.42l0.37-3.3l0.01-0.1C165.54,124.95,165.55,124.68,165.54,124.42z"/>
		<path d="M101.76,147.07c-0.54,0.17-1.12,0.36-1.6,0.5l-0.57,0.16l-0.57,0.15l-0.03,0.01l-0.01,0l-0.12,0.03
			c-0.04,0.01-0.07,0.03-0.1,0.04c-0.01,0-0.01,0.01-0.01,0.01c-0.04,0.02-0.07,0.04-0.11,0.06c-0.51,0.27-0.88,0.78-1.16,1.55
			l-0.04,0.12c-0.03,0.09-0.06,0.17-0.09,0.27l-0.02,0.06c-0.32,1.12-0.47,2.66-0.48,4.69c0.15,5.47,1.26,11.75,3.15,17.68
			c0.07,0.22,0.14,0.44,0.22,0.67l0.13,0.39c0.8,2.4,1.67,4.54,2.58,6.37c0.31,0.62,0.62,1.19,0.92,1.71
			c1.58,2.68,3.03,4.01,4.2,3.83l2.56-0.68l0.08-0.02c0.66-0.19,1.47-0.44,2.54-0.79c1.14-0.36,1.94-0.62,2.6-0.85
			c-2.84,0.27-10.53-17.42-13.06-30.07l-0.01,0c-0.07-0.4-0.15-0.9-0.23-1.45c-0.08-0.53-0.15-1.09-0.2-1.65
			c-0.01-0.11-0.02-0.22-0.03-0.33c-0.14-2.31,0.37-2.65,0.57-2.77c-0.01,0.01-0.03,0.01-0.04,0.01c-0.16,0.03-0.3,0.09-0.44,0.13
			L101.76,147.07z"/>
		<path d="M158.79,98l-0.31-0.43c-0.28-0.44-0.51-0.8-0.73-1.12l-0.13-0.19l-0.04-0.06c-0.35-0.49-0.69-0.94-1.18-1.55
			c-0.23-0.27-0.48-0.55-0.73-0.85l-0.17-0.2c-0.09-0.1-0.19-0.19-0.29-0.29l0,0c-0.29-0.28-0.6-0.54-0.9-0.76
			c-0.17-0.12-0.34-0.24-0.52-0.35c-0.52-0.33-1.09-0.63-1.69-0.87c-0.4-0.17-0.81-0.31-1.23-0.43c-0.42-0.12-0.85-0.23-1.3-0.31
			c-0.44-0.08-0.91-0.14-1.37-0.18c-0.46-0.04-0.94-0.05-1.42-0.05c-1.7,0.01-3.46,0.27-5.22,0.78c-1.67,0.48-3.36,1.19-5,2.1
			c-4.82,2.67-8.74,6.87-10.88,11.34c-2.07,4.32-2.49,8.89-0.45,12.57c0.02,0.03,0.06,0.08,0.06,0.08c0.25,0.47,0.55,0.91,0.87,1.3
			l0.14,0.18l0.04,0.05l0,0c0,0,0.19,0.3,0.2,0.33l0.06,0.08c-0.04-0.08-0.08-0.16-0.11-0.24l-0.05-0.11
			c-0.07-0.14-0.13-0.28-0.19-0.42c-0.08-0.2-0.16-0.4-0.23-0.6c-0.1-0.3-0.2-0.63-0.27-0.97c-0.14-0.61-0.23-1.24-0.25-1.87
			c-0.02-0.4-0.02-0.77-0.01-1.11c0.05-0.92,0.21-1.88,0.48-2.84c0.27-0.96,0.66-1.95,1.15-2.91c1.71-3.36,4.65-6.47,8.3-8.78
			c0.45-0.28,0.91-0.55,1.37-0.8l0.29-0.16c2.19-1.1,4.34-1.91,6.43-2.42c1.75-0.44,3.46-0.66,5.12-0.68c1.86,0,3.62,0.24,5.23,0.73
			c2.76,0.86,4.99,2.44,6.4,4.57c0.17,0.25,0.33,0.51,0.47,0.78l-0.08-0.18l-0.4-0.75l-0.03-0.05l-0.07-0.12
			c-0.06-0.1-0.11-0.19-0.16-0.29c-0.31-0.55-0.57-0.99-0.82-1.4C159.04,98.37,158.92,98.18,158.79,98z"/>
		<path d="M40.82,146.38L40.82,146.38c0,0.17,0.01,0.34,0.03,0.51L40.82,146.38z"/>
		<polygon points="41.99,131.11 41.98,131.1 41.97,131.14 		"/>
		<path d="M123.18,86.47c1.99-2.36,3.9-4.04,5.84-5.11c1.48-0.82,2.97-1.27,4.46-1.35c0.96-0.06,1.91,0.05,2.86,0.3
			c0.01,0,0.02,0,0.02,0l-0.1-0.05l-0.21-0.08c0.09,0.03,0.19,0.06,0.27,0.09c-0.25-0.09-0.52-0.18-0.8-0.28
			c-0.03-0.01-0.06-0.02-0.09-0.03c-1.03-0.36-2.23-0.76-3.32-1.08c0,0-0.01,0-0.01,0c-0.25-0.08-0.49-0.15-0.72-0.22l-2.04-0.51
			l-0.13-0.03c-0.18-0.04-0.36-0.07-0.55-0.08c-1.43-0.17-2.97,0.18-4.47,1.02c-2.37,1.31-4.44,3.62-6.11,6.48
			c-0.02,0.1-0.05,0.19-0.07,0.29c-0.12,0.48-0.23,0.95-0.32,1.36c-0.02,0.11-0.04,0.23-0.06,0.35c-0.01,0.04-0.01,0.07-0.02,0.11
			c-0.04,0.26-0.08,0.53-0.12,0.82c0,0.02-0.01,0.04-0.01,0.06c-0.04,0.28-0.08,0.57-0.11,0.86c0,0,0,0.01,0,0.01
			c0,0.02-0.01,0.04-0.01,0.06c-0.02,0.15-0.04,0.3-0.05,0.45c-0.02,0.19-0.04,0.39-0.06,0.58c-0.01,0.06-0.01,0.12-0.02,0.18
			c-0.01,0.04-0.01,0.08-0.01,0.12c-0.01,0.05-0.01,0.1-0.02,0.14c-0.01,0.06-0.01,0.13-0.02,0.19c-0.01,0.09-0.01,0.18-0.02,0.26
			c-0.02,0.44-0.03,0.93-0.04,1.44c0,0.16-0.01,0.32-0.01,0.48c-0.01,0.65-0.01,1.3-0.01,1.86l0.02,0.59l0.01,0.17
			c0.01,0.06,0.01,0.14,0.02,0.21c0.01,0.09,0.01,0.17,0.02,0.27c0.01,0.13,0.02,0.28,0.03,0.42c0.02,0.28,0.05,0.56,0.07,0.85
			c0,0.04,0.01,0.07,0.01,0.11c0.05,0.45,0.09,0.9,0.14,1.31C118.31,94.64,120.29,90.13,123.18,86.47z"/>
		<path d="M125.14,164.68c-3.36-5.73-7.48-12.44-10.67-17.32c-0.01,0-0.03,0.01-0.05,0.02l0.04-0.03c-1.78-2.69-3.03-4.48-3.37-4.57
			l-0.44,0.25l-0.03,0.02l-0.38,0.21c-0.17,0.1-0.34,0.2-0.51,0.3c-0.01,0-0.01,0.01-0.02,0.01c-0.16,0.09-0.32,0.18-0.48,0.27
			l-0.16,0.08c-0.37,0.2-0.72,0.37-1.09,0.56l-0.44,0.22l-0.53,0.27c-0.09,0.14-0.34,0.5,1.65,5.49l0.14-0.06
			c-0.05,0.02-0.09,0.04-0.14,0.06c1.08,2.67,2.36,5.61,3.7,8.56c4.67,10.23,10.16,20.66,11.15,20.77l3.42-1.73l0.38-0.2l0.14-0.08
			l3.53-2.01l0.04-0.02c-0.04-0.48-0.9-2.25-2.49-5.12C127.58,168.9,126.41,166.85,125.14,164.68z"/>
		<path d="M45.42,162.48L45.42,162.48c0,0.02,0.02,0.05,0.03,0.08L45.42,162.48z"/>
		<path d="M68.4,93c0.61-0.34,2.36,0.91,4.92,3.52l0,0c1.97,2.01,3.91,4.23,5.75,6.52c-0.24-2.07-0.35-3.67-0.4-4.52
			c-0.02-0.43-0.03-0.68-0.04-0.69c0-0.04,0-0.07,0-0.1c-0.02-0.39-0.03-0.78-0.05-1.17l0-0.15c0-0.03,0-0.06,0-0.1
			c0-0.01,0-0.02,0-0.03c-0.01-0.39-0.02-0.76-0.02-1.14c-0.01-0.62-0.01-1.23-0.01-1.81c0-0.15,0-0.32,0-0.47c0-0.02,0-0.03,0-0.04
			c0-0.01,0-0.01,0-0.02c-1.78-2.7-3.02-4.43-3.25-4.43l-0.02,0l-0.01,0c-0.2,0.12-0.41,0.25-0.61,0.38
			c-0.02,0.02-0.05,0.04-0.08,0.05c-0.45,0.29-0.98,0.62-1.6,1.03c-0.56,0.36-1.03,0.67-1.45,0.94c-0.04,0.02-0.07,0.05-0.1,0.07
			c-0.26,0.18-0.5,0.34-0.71,0.48l-0.29,0.21l-2.07,1.5L68.4,93z"/>
		<polygon points="41.97,131.16 41.97,131.14 41.97,131.15 		"/>
		<polygon points="45.55,162.76 45.55,162.76 45.55,162.75 		"/>
		<path d="M45.53,162.73L45.53,162.73c0-0.01-0.01-0.03-0.02-0.04L45.53,162.73z"/>
		<path d="M161.17,134.02c-2.87-5.19-10.1-9.77-17.67-11.63c-2.02-0.5-4.06-0.8-6.05-0.87l-0.04,0.09l0.04-0.09l0,0
			c-3.31-0.11-6.15,0.44-8.23,1.59c-0.12,0.07-0.24,0.14-0.36,0.21c-1.34,0.83-2.3,1.93-2.79,3.19c-0.1,0.25-0.23,0.54-0.36,0.83
			c-0.11,0.26-0.22,0.51-0.32,0.73c0,0-0.05,0.1-0.13,0.26l-0.03,0.07l0,0l-0.35,0.68c0.22-0.39,0.51-0.76,0.86-1.1l0.06-0.06
			c0.03-0.03,0.06-0.06,0.08-0.08c0.3-0.27,0.64-0.51,1.02-0.71c1.38-0.77,3.23-1.13,5.44-1.08c0.9,0.02,1.87,0.11,2.89,0.27
			l0.03-0.06l-0.03,0.06c1.41,0.23,2.86,0.58,4.3,1.04c7.7,2.45,15.43,7.93,18.49,13.46c0.72,1.29,1.14,2.53,1.26,3.66
			c0.06,0.54,0.04,1.07-0.04,1.56c-0.05,0.24-0.1,0.48-0.18,0.7c-0.03,0.09-0.07,0.18-0.11,0.26l-0.05,0.1
			c-0.15,0.27-0.31,0.54-0.47,0.82c0.05-0.06,0.09-0.12,0.13-0.17c0.09-0.12,0.16-0.24,0.22-0.35l0.89-1.7
			c0.1-0.21,0.21-0.43,0.32-0.67c0.03-0.04,0.04-0.09,0.06-0.13c0.25-0.52,0.52-1.12,0.82-1.82c0.2-0.43,0.39-0.87,0.57-1.29
			c0.01-0.02,0.02-0.04,0.03-0.07c0.1-0.21,0.19-0.43,0.27-0.63l0.08-0.21l0.03-0.09l0.11-0.26l0.02-0.06l0,0l0.09-0.21
			c0.05-0.15,0.1-0.29,0.14-0.44C162.66,138.05,162.31,136.07,161.17,134.02z"/>
		<path d="M83.03,120.53c-0.09-0.28-0.19-0.56-0.28-0.85c-0.13-0.4-0.27-0.83-0.4-1.26c-0.12-0.4-0.25-0.82-0.37-1.23
			c-0.03-0.08-0.05-0.17-0.08-0.25c-0.01-0.04-0.02-0.07-0.03-0.11c0,0-0.01-0.04-0.03-0.09c-0.05-0.16-0.16-0.54-0.32-1.11
			c-0.24-0.87-0.58-2.17-0.95-3.78c-3.62-4.27-7.97-8.52-12.03-11.37c-1.89-1.33-3.43-2.12-4.56-2.43
			c-0.79-0.21-1.38-0.17-1.76,0.08c-0.09,0.08-0.18,0.17-0.27,0.25c0.03-0.04,0.07-0.08,0.11-0.12c-0.03,0.02-0.05,0.05-0.08,0.08
			c-0.79,0.75-1.67,1.64-2.55,2.54c-0.94,0.95-1.88,1.92-2.65,2.76l-0.14,0.16l0,0l-0.12,0.13c0.14-0.15,0.3-0.29,0.48-0.4
			c0.1-0.05,0.2-0.11,0.3-0.15c0.64-0.27,1.5-0.32,2.56-0.15c0.35,0.06,0.73,0.14,1.13,0.25c0.99,0.27,2.12,0.7,3.37,1.29l0,0
			c7.12,3.4,14.89,10.55,18.9,16.44c-0.03-0.07-0.05-0.15-0.08-0.22C83.13,120.83,83.08,120.68,83.03,120.53z"/>
		<path d="M153.88,147.48c-3.64-6.57-13.31-13.96-21.57-16.47l-0.01,0.01c-3.39-1.04-6.1-1.13-7.83-0.27l-0.02,0.01l-0.15,0.08
			c-0.48,0.27-0.86,0.6-1.14,1.01l-0.06,0.07c-0.27,0.37-0.61,0.85-1.04,1.4c-0.33,0.42-0.76,0.92-1.13,1.36
			c0.12-0.12,0.28-0.25,0.47-0.36l0.06-0.04c0.17-0.09,0.37-0.17,0.58-0.23c0.36-0.1,0.77-0.15,1.23-0.13c0.31,0,0.64,0.04,0.99,0.1
			c0.18,0.03,0.36,0.06,0.54,0.1c0.38,0.08,0.78,0.19,1.19,0.32c0.84,0.26,1.77,0.64,2.75,1.11l0,0
			c7.43,3.56,16.44,11.79,20.07,18.36c1.56,2.82,1.94,5,1.07,6.16c-0.01,0.02-0.03,0.04-0.04,0.06c0.09-0.1,0.18-0.21,0.27-0.32
			c0.02-0.03,0.04-0.05,0.06-0.08c0.63-0.75,1.33-1.62,2.06-2.54c0.73-0.92,1.4-1.79,1.98-2.55c0.04-0.06,0.08-0.11,0.12-0.17
			c0.11-0.15,0.23-0.3,0.33-0.44c0.06-0.09,0.12-0.18,0.17-0.27C155.65,152.28,155.31,150.07,153.88,147.48z"/>
		<path d="M142.88,159.96c-3.64-6.57-11.86-15.61-18.32-20.15c-3.01-2.11-5.24-2.96-6.26-2.4c-0.07,0.04-0.14,0.08-0.2,0.14
			c-0.21,0.19-0.38,0.35-0.52,0.47l-0.11,0.1c-0.11,0.09-0.23,0.2-0.36,0.3c-0.04,0.04-0.08,0.07-0.13,0.11
			c-0.17,0.14-0.35,0.29-0.52,0.44l-0.86,0.71c-0.22,0.17-0.44,0.34-0.69,0.53c-0.04,0.02-0.07,0.05-0.11,0.08c0,0,0.01,0,0.01-0.01
			c0.66-0.33,2.41,0.91,4.95,3.5c0,0,0,0,0,0c5.36,5.46,12.69,15.25,16.32,21.81c0.16,0.28,0.3,0.55,0.44,0.82
			c1.38,2.61,1.88,4.26,1.42,4.67c0.09-0.07,0.18-0.14,0.28-0.21c0.65-0.5,1.38-1.08,2.24-1.79c0.8-0.65,1.48-1.21,2.05-1.69
			c0.1-0.09,0.2-0.17,0.29-0.25c0.04-0.02,0.07-0.05,0.1-0.08l0.04-0.05l0,0.01l0.05-0.04l1.2-1.08l0,0c0,0,0,0,0,0
			c0.03-0.02,0.05-0.05,0.08-0.08C145.01,164.98,144.51,162.91,142.88,159.96z"/>
		<path d="M163.08,107.24c-2.89-5.22-10.36-7.6-18.2-6.32c-2.03,0.32-4.08,0.9-6.09,1.73c-0.94,0.39-1.85,0.83-2.71,1.3
			c-4.28,2.37-7.41,5.69-8.81,9.34c-0.09,0.23-0.17,0.46-0.24,0.7c-0.3,0.93-0.46,1.87-0.51,2.79c-0.02,0.39-0.02,0.79,0.01,1.17
			c0.02,0.23,0.04,0.47,0.07,0.7c0.02,0.16,0.06,0.32,0.08,0.48c0.03,0.13,0.05,0.26,0.09,0.39l0.04,0.16
			c0.02,0.09,0.04,0.17,0.06,0.25l0.04,0.12c0.04,0.17,0.1,0.43,0.14,0.8c-0.37-4.32,2.59-8.79,7.77-11.66c0,0,0,0,0,0
			c3.34-1.85,7.12-2.86,10.85-3.12c7.92-0.55,15.65,2.25,18.61,7.59c0.49,0.89,0.83,1.82,1.01,2.77c0-0.02,0-0.04-0.01-0.07
			c-0.1-0.73-0.23-1.52-0.36-2.31c-0.05-0.28-0.1-0.55-0.15-0.82c-0.08-0.42-0.15-0.82-0.23-1.21c-0.11-0.58-0.23-1.14-0.34-1.64
			l-0.33-1.21c-0.04-0.12-0.08-0.25-0.13-0.36l-0.06-0.17c-0.01-0.04-0.03-0.09-0.05-0.13c0-0.01-0.01-0.03-0.01-0.03
			C163.47,108.02,163.29,107.62,163.08,107.24z"/>
		<path d="M136.4,83.03c-1.23,0.31-2.49,0.82-3.75,1.51c-1.79,0.99-3.52,2.33-5.14,3.99c-5.51,5.62-8.42,13.56-7.9,19.86
			c0.12,0.33,0.23,0.65,0.35,0.97c0.04,0.1,0.07,0.2,0.11,0.3c0.11,0.28,0.21,0.56,0.31,0.82l0.37,0.86l0.44,1.01
			c0.01,0.03,0.03,0.06,0.04,0.09c0,0.01,0.01,0.01,0.01,0.02c0.19,0.37,0.39,0.79,0.6,1.22c0.23,0.45,0.46,0.9,0.66,1.29
			c0.01,0.02,0.02,0.04,0.03,0.06l0.51,0.9c0.05,0.08,0.1,0.17,0.15,0.25c0.01,0.02,0.03,0.05,0.04,0.07
			c0.02,0.03,0.03,0.05,0.05,0.08c0.05,0.05,0.1,0.09,0.16,0.14c0.29,0.23,0.61,0.45,0.93,0.64c0.07,0.05,0.13,0.08,0.19,0.12
			c0.1,0.07,0.51,0.34,0.51,0.34l0.36,0.28c-0.17-0.17-0.38-0.35-0.57-0.55c-0.58-0.59-1.08-1.27-1.5-2.02l-0.02-0.02
			c-3.62-6.57-0.05-17.34,7.96-24l-0.04-0.04c0.02,0.01,0.03,0.02,0.05,0.04c1.25-1.04,2.56-1.93,3.89-2.67
			c0.44-0.24,0.88-0.47,1.32-0.68c0.43-0.2,0.88-0.39,1.31-0.56c0.44-0.17,0.89-0.33,1.33-0.46c0.43-0.13,0.85-0.24,1.27-0.34
			c0.42-0.09,0.85-0.17,1.27-0.23c0.21-0.03,0.42-0.05,0.62-0.07c0.42-0.04,0.82-0.06,1.23-0.06c0.4,0,0.8,0.01,1.19,0.04
			c0.64,0.06,1.27,0.16,1.87,0.32l0.05,0.01c0.11,0.03,0.22,0.06,0.32,0.09c0.18,0.06,0.36,0.11,0.53,0.18
			c0.75,0.27,1.44,0.63,2.09,1.07c0.08,0.05,0.15,0.11,0.23,0.16l-1.21-0.96l-0.2-0.16l-0.77-0.6c-0.29-0.21-0.61-0.42-0.94-0.64
			c-0.31-0.21-0.64-0.42-0.97-0.63c-0.18-0.12-0.35-0.23-0.51-0.33c-0.55-0.35-1.01-0.64-1.4-0.87c-0.29-0.17-0.58-0.32-0.88-0.45
			l-0.04-0.02C141,82.53,138.76,82.43,136.4,83.03z"/>
	</g>
</g>
</svg>
