<?xml version="1.0" encoding="utf-8"?>
<!-- Generator: Adobe Illustrator 26.2.1, SVG Export Plug-In . SVG Version: 6.00 Build 0)  -->
<svg version="1.1" xmlns="http://www.w3.org/2000/svg" xmlns:xlink="http://www.w3.org/1999/xlink" x="0px" y="0px"
	 viewBox="0 0 225 225" style="enable-background:new 0 0 225 225;" xml:space="preserve">
<style type="text/css">
	.st0{display:none;}
	.st1{display:inline;fill:#FAB433;}
	.st2{fill:none;}
	.st3{fill:none;stroke:#000000;stroke-width:1.6;stroke-miterlimit:10;}
	.st4{fill:none;stroke:#000000;stroke-width:0.7265;stroke-miterlimit:10;}
	.st5{fill:none;stroke:#000000;stroke-linecap:round;stroke-linejoin:round;stroke-miterlimit:10;}
	.st6{fill:none;stroke:#000000;stroke-miterlimit:10;}
	.st7{fill:none;stroke:#000000;stroke-width:0.7105;stroke-miterlimit:10;}
	.st8{fill:none;stroke:#000000;stroke-width:5.4;stroke-linecap:round;stroke-linejoin:round;stroke-miterlimit:10;}
	.st9{fill:none;stroke:#000000;stroke-width:2.9309;stroke-linecap:round;stroke-linejoin:round;stroke-miterlimit:10;}
	.st10{fill:none;stroke:#000000;stroke-width:0.5;stroke-linecap:round;stroke-linejoin:round;}
	.st11{fill:none;stroke:#FFFFFF;stroke-width:0;stroke-linecap:round;stroke-linejoin:round;}
	.st12{fill:#FFFFFF;}
	.st13{fill:none;stroke:#000000;stroke-width:1.4;stroke-miterlimit:10;}
	.st14{fill:url(#);stroke:#000000;stroke-width:1.4387;stroke-miterlimit:10;}
	.st15{fill:url(#);stroke:#000000;stroke-width:1.3718;stroke-miterlimit:10;}
	.st16{fill:none;stroke:#000000;stroke-width:1.0041;stroke-miterlimit:10;}
	.st17{fill:none;stroke:#000000;stroke-width:1.3621;stroke-miterlimit:10;}
	.st18{fill:none;stroke:#000000;stroke-width:0.25;stroke-miterlimit:10;}
</style>
<g id="Layer_2" class="st0">
	<rect id="XMLID_1014_" x="-590.99" y="-520.01" class="st1" width="1160" height="772"/>
</g>
<g id="Layer_1">
	<g id="XMLID_1434_">
		<path d="M112.5,46.9c-2.21,0-4.4,0.13-6.56,0.33v10.95c1.81-0.15,3.61-0.26,5.47-0.26c30.13,0,54.6,24.45,54.6,54.58
			c0,30.15-24.47,54.6-54.6,54.6c-1.86,0-3.65-0.11-5.47-0.26v10.93c2.16,0.2,4.35,0.33,6.56,0.33c36.21,0,65.6-29.39,65.6-65.6
			C178.1,76.28,148.71,46.9,112.5,46.9z"/>
		<path id="XMLID_1450_" d="M110.23,69.83c23.55,0,42.66,19.11,42.66,42.66c0,23.57-19.11,42.68-42.66,42.68
			c-1.46,0-2.86-0.09-4.29-0.22v-9.88c1.09,0.09,2.16,0.15,3.28,0.15c18.06,0,32.73-14.65,32.73-32.73
			c0-18.06-14.67-32.71-32.73-32.71c-1.12,0-2.19,0.07-3.28,0.15v-9.88C107.37,69.92,108.77,69.83,110.23,69.83z"/>
		<path id="XMLID_1449_" d="M109.22,79.78c18.06,0,32.73,14.65,32.73,32.71c0,18.08-14.67,32.73-32.73,32.73
			c-1.12,0-2.19-0.07-3.28-0.15v-14.08c2.03,0.79,4.26,1.18,6.56,1.18c10.91,0,19.68-8.79,19.68-19.68s-8.77-19.68-19.68-19.68
			c-2.3,0-4.53,0.39-6.56,1.18V79.93C107.04,79.85,108.11,79.78,109.22,79.78z"/>
		<g id="XMLID_1436_">
			<path id="XMLID_1447_" d="M86.6,52.25v28.14v0.45v64.13v0.45v27.35c0.43,0.18,0.86,0.37,1.29,0.55v-27.9v-0.45V80.83v-0.45V51.7
				C87.45,51.87,87.03,52.06,86.6,52.25z"/>
			<path id="XMLID_1446_" d="M73.68,80.39v0.45v64.13v0.45v19.93c0.43,0.32,0.85,0.64,1.29,0.94v-20.87v-0.45V80.83v-0.45V58.72
				c-0.44,0.31-0.86,0.63-1.29,0.94V80.39z"/>
			<path id="XMLID_1445_" d="M60.77,80.39v0.45v64.13v0.45v7.37c0.43,0.55,0.85,1.09,1.29,1.62v-8.99v-0.45V80.83v-0.45V70.6
				c-0.44,0.53-0.87,1.08-1.29,1.62V80.39z"/>
			<path id="XMLID_1444_" d="M80.14,80.39v0.45v64.13v0.45v24.15c0.42,0.24,0.86,0.46,1.29,0.7v-24.84v-0.45V80.83v-0.45V54.75
				c-0.43,0.23-0.87,0.45-1.29,0.7V80.39z"/>
			<path id="XMLID_1443_" d="M67.22,80.39v0.45v64.13v0.45v14.5c0.43,0.41,0.85,0.82,1.29,1.21v-15.72v-0.45V80.83v-0.45V63.88
				c-0.44,0.4-0.86,0.8-1.29,1.21V80.39z"/>
			<path id="XMLID_1442_" d="M54.31,82.27v60.46c0.42,0.8,0.84,1.59,1.29,2.37v-0.14V80.83v-0.45v-0.48
				C55.15,80.69,54.73,81.48,54.31,82.27z"/>
			<path id="XMLID_1441_" d="M99.51,80.39v0.45v16.89c0.41-0.36,0.85-0.7,1.29-1.03V80.83v-0.45V47.97
				c-0.43,0.08-0.86,0.15-1.29,0.24V80.39z"/>
			<path id="XMLID_1440_" d="M93.06,80.39v0.45v28.75c0.24-1.64,0.68-3.21,1.29-4.68V80.83v-0.45V49.47
				c-0.43,0.12-0.86,0.26-1.29,0.39V80.39z"/>
			<path id="XMLID_1439_" d="M47.85,101.52v21.96c0.34,2.01,0.77,3.99,1.29,5.94V95.58C48.62,97.53,48.19,99.51,47.85,101.52z"/>
			<path id="XMLID_1438_" d="M100.8,145.41v-0.45v-16.66c-0.44-0.33-0.88-0.66-1.29-1.03v17.68v0.45v31.39
				c0.43,0.09,0.86,0.16,1.29,0.24V145.41z"/>
			<path id="XMLID_1437_" d="M94.35,175.54v-30.13v-0.45V120.1c-0.62-1.48-1.05-3.05-1.29-4.68v29.54v0.45v29.74
				C93.49,175.28,93.91,175.41,94.35,175.54z"/>
		</g>
		<path id="XMLID_1435_" d="M92.84,112.5c0,8.59,5.45,15.87,13.12,18.5V94C98.28,96.63,92.84,103.91,92.84,112.5z"/>
	</g>
</g>
</svg>
