<?xml version="1.0" encoding="utf-8"?>
<!-- Generator: Adobe Illustrator 26.2.1, SVG Export Plug-In . SVG Version: 6.00 Build 0)  -->
<svg version="1.1" xmlns="http://www.w3.org/2000/svg" xmlns:xlink="http://www.w3.org/1999/xlink" x="0px" y="0px"
	 viewBox="0 0 225 225" style="enable-background:new 0 0 225 225;" xml:space="preserve">
<style type="text/css">
	.st0{display:none;}
	.st1{display:inline;fill:#FAB433;}
	.st2{fill:none;}
	.st3{fill:none;stroke:#000000;stroke-width:1.6;stroke-miterlimit:10;}
	.st4{fill:none;stroke:#000000;stroke-width:0.7265;stroke-miterlimit:10;}
	.st5{fill:none;stroke:#000000;stroke-linecap:round;stroke-linejoin:round;stroke-miterlimit:10;}
	.st6{fill:none;stroke:#000000;stroke-miterlimit:10;}
	.st7{fill:none;stroke:#000000;stroke-width:0.7105;stroke-miterlimit:10;}
	.st8{fill:none;stroke:#000000;stroke-width:5.4;stroke-linecap:round;stroke-linejoin:round;stroke-miterlimit:10;}
	.st9{fill:none;stroke:#000000;stroke-width:2.9309;stroke-linecap:round;stroke-linejoin:round;stroke-miterlimit:10;}
	.st10{fill:none;stroke:#000000;stroke-width:0.5;stroke-linecap:round;stroke-linejoin:round;}
	.st11{fill:none;stroke:#FFFFFF;stroke-width:0;stroke-linecap:round;stroke-linejoin:round;}
	.st12{fill:#FFFFFF;}
	.st13{fill:none;stroke:#000000;stroke-width:1.4;stroke-miterlimit:10;}
	.st14{fill:url(#);stroke:#000000;stroke-width:1.4387;stroke-miterlimit:10;}
	.st15{fill:url(#);stroke:#000000;stroke-width:1.3718;stroke-miterlimit:10;}
	.st16{fill:none;stroke:#000000;stroke-width:1.0041;stroke-miterlimit:10;}
	.st17{fill:none;stroke:#000000;stroke-width:1.3621;stroke-miterlimit:10;}
	.st18{fill:none;stroke:#000000;stroke-width:0.25;stroke-miterlimit:10;}
</style>
<g id="Layer_2" class="st0">
	<rect id="XMLID_1_" x="-345.99" y="-275.01" class="st1" width="1160" height="772"/>
</g>
<g id="Layer_1">
	<path id="XMLID_14463_" d="M164.45,156.89c0.53-0.63,1.04-1.27,1.54-1.92c-0.82,1.04-1.7,2.12-2.67,3.22
		C163.7,157.77,164.08,157.33,164.45,156.89z M166,154.97C166,154.97,166,154.97,166,154.97L166,154.97
		C166,154.97,166,154.97,166,154.97z M58.37,154.14c0.06,0.07,0.12,0.14,0.17,0.22c-0.17-0.22-0.35-0.44-0.51-0.66
		C58.15,153.84,58.26,153.99,58.37,154.14z M161.88,159.27c-2.4,2.23-5.09,4.3-8.04,6.17c-3.13,1.99-6.56,3.75-10.21,5.25
		c-4.43,1.83-9.21,3.27-14.24,4.28c-5.71,1.14-11.74,1.72-17.97,1.64c-5.49-0.07-10.79-0.64-15.84-1.65
		c-5.03-1.01-9.8-2.45-14.22-4.27c-3.66-1.51-7.09-3.27-10.22-5.26c-2.94-1.87-5.63-3.93-8.02-6.16c-1.61-1.49-3.08-3.06-4.4-4.7
		c-0.06-0.07-0.11-0.14-0.17-0.22c0.89,1.17,1.8,2.3,2.75,3.4c0.9,1.01,1.96,2.12,3.61,3.83c0.09,0.09,0.17,0.17,0.26,0.26
		c0.01,0.01,0.02,0.02,0.04,0.04c0.08,0.08,0.16,0.16,0.25,0.23c0.26,0.25,0.54,0.5,0.83,0.76c0.36,0.32,0.73,0.65,1.11,0.98
		c0.11,0.1,0.22,0.2,0.34,0.3c0.82,0.71,1.64,1.41,2.36,2.03c0.1,0.08,0.21,0.17,0.31,0.25c2.76,2.17,5.85,4.11,9.21,5.81
		c4.4,2.22,9.26,4.02,14.48,5.29c5.47,1.33,11.33,2.09,17.43,2.16c6.78,0.08,13.3-0.68,19.36-2.15c5.18-1.26,10.02-3.03,14.41-5.23
		c3.41-1.72,6.55-3.69,9.35-5.89c0.03-0.02,0.06-0.04,0.09-0.07c0.11-0.09,0.21-0.17,0.32-0.26c0.11-0.09,0.22-0.17,0.33-0.27
		c0.13-0.1,0.25-0.21,0.38-0.32c0.35-0.29,0.71-0.6,1.07-0.92c0.02-0.02,0.04-0.03,0.05-0.05c0.5-0.43,0.99-0.87,1.45-1.27
		c-0.19,0.17-0.38,0.35-0.58,0.52c0.32-0.28,0.63-0.55,0.91-0.81c0.09-0.08,0.18-0.17,0.27-0.25c0.06-0.06,0.12-0.12,0.18-0.18
		c0.06-0.06,0.12-0.11,0.18-0.17c0.09-0.09,0.19-0.18,0.28-0.26c0.22-0.22,0.43-0.42,0.63-0.61c0.39-0.38,0.77-0.77,1.14-1.16
		c0.32-0.34,0.65-0.69,0.97-1.03c0.11-0.12,0.22-0.24,0.33-0.36c0.09-0.09,0.17-0.18,0.25-0.27c0.02-0.02,0.04-0.05,0.07-0.07
		c0.01-0.01,0.02-0.03,0.03-0.04c-0.02,0.02-0.03,0.03-0.04,0.05c-0.01,0.01-0.02,0.02-0.03,0.03c0.8-0.91,1.72-2.02,3.1-3.69
		c0.25-0.32,0.5-0.64,0.74-0.96C165.3,155.85,163.67,157.61,161.88,159.27z M177.92,129.49c-0.96,2.59-2.22,5.09-3.74,7.48
		c-1.52,2.39-3.32,4.68-5.36,6.84c-2.05,2.17-4.34,4.22-6.85,6.12c-2.51,1.9-5.23,3.66-8.14,5.25c-2.93,1.6-6.06,3.04-9.34,4.29
		c-3.31,1.26-6.79,2.33-10.4,3.19c-3.81,0.91-7.78,1.58-11.86,2c-3.56,0.36-7.2,0.53-10.91,0.49c-2.9-0.03-5.75-0.2-8.55-0.49
		c-4.08-0.42-8.05-1.09-11.85-1.99c-3.62-0.86-7.1-1.93-10.41-3.19c-3.29-1.25-6.41-2.69-9.35-4.29c-2.91-1.59-5.63-3.34-8.13-5.24
		c-2.52-1.91-4.81-3.96-6.86-6.14c-2.03-2.16-3.83-4.45-5.35-6.84c-1.53-2.4-2.79-4.91-3.75-7.51c-0.65-1.76-1.16-3.56-1.53-5.39
		c-0.02-0.12-0.05-0.24-0.07-0.36c0.07,0.43,0.15,0.87,0.23,1.32c0.19,1.07,0.4,2.12,0.58,3.07c0.07,0.3,0.14,0.6,0.21,0.9
		c0.34,1.26,0.75,2.66,1.18,4.06c0.11,0.35,0.22,0.71,0.33,1.06c0.27,0.86,0.54,1.69,0.8,2.47c0.28,0.77,0.58,1.53,0.89,2.29
		c0.9,2.08,1.98,4.1,3.27,6.05c1.58,2.4,3.45,4.68,5.57,6.84c2.16,2.2,4.57,4.26,7.22,6.16c2.68,1.92,5.59,3.68,8.71,5.25
		c3.27,1.65,6.77,3.09,10.46,4.3c4.2,1.38,8.64,2.45,13.27,3.18c4.26,0.67,8.67,1.05,13.2,1.11c5.33,0.07,10.52-0.33,15.5-1.11
		c4.63-0.73,9.07-1.8,13.28-3.18c3.68-1.21,7.17-2.65,10.44-4.3c3.12-1.57,6.04-3.33,8.72-5.26c2.63-1.89,5.03-3.93,7.18-6.11
		c2.12-2.16,3.99-4.45,5.58-6.85c1.29-1.95,2.37-3.98,3.27-6.07c0.4-0.98,0.78-1.97,1.13-2.97c0.13-0.38,0.25-0.76,0.38-1.15
		c0.1-0.3,0.19-0.6,0.29-0.91c0.3-0.96,0.59-1.91,0.86-2.79c0.33-1.19,0.62-2.4,0.88-3.61c0.22-1.1,0.42-2.24,0.6-3.34
		c-0.01,0.07-0.03,0.15-0.05,0.22C179.04,126.08,178.55,127.81,177.92,129.49z M52.94,105.68c1.06,2.6,2.45,5.11,4.14,7.49
		c1.72,2.42,3.74,4.71,6.03,6.85c2.38,2.22,5.06,4.27,7.99,6.13c0.15,0.1,0.31,0.19,0.47,0.29c3,1.87,6.25,3.53,9.73,4.96
		c4.42,1.83,9.2,3.28,14.23,4.29c5.06,1.01,10.38,1.59,15.88,1.66c1.79,0.02,3.57-0.01,5.32-0.1c4.38-0.21,8.64-0.74,12.73-1.56
		c5.03-1.01,9.81-2.46,14.24-4.29c3.65-1.51,7.06-3.27,10.18-5.26c2.93-1.86,5.6-3.91,7.99-6.13c2.29-2.14,4.32-4.42,6.04-6.84
		c1.69-2.38,3.08-4.89,4.14-7.5c1.04-2.57,1.77-5.23,2.13-7.97c0.15-1.12,0.24-2.25,0.27-3.4v0c0.04-1.66-0.06-3.3-0.27-4.92
		c-0.36-2.73-1.08-5.39-2.12-7.96c-0.72-1.78-1.6-3.51-2.62-5.18c-1.92-2.96-4.04-5.73-6.33-8.3c-0.58-0.63-1.25-1.33-2.1-2.21
		c0.51,0.51,1.02,1.04,1.52,1.57c-1.4-1.53-2.87-2.99-4.39-4.37c-0.32-0.29-0.65-0.57-0.98-0.86c0.19,0.17,0.37,0.34,0.55,0.51
		c-0.15-0.13-0.29-0.26-0.44-0.39c0.19,0.17,0.38,0.34,0.57,0.51c1.47,1.39,2.82,2.85,4.03,4.37c1.89,2.37,3.44,4.88,4.62,7.51
		c1.15,2.55,1.94,5.22,2.34,7.96c0.23,1.59,0.33,3.21,0.29,4.84v0.01c-0.03,1.17-0.13,2.32-0.3,3.46c-0.4,2.75-1.2,5.42-2.34,7.97
		c-1.18,2.63-2.73,5.14-4.61,7.49c-1.96,2.45-4.27,4.75-6.88,6.84c-2.86,2.29-6.08,4.35-9.61,6.13c-4.37,2.21-9.19,3.99-14.36,5.25
		c-4.04,0.99-8.3,1.66-12.69,1.98c-2.24,0.16-4.52,0.23-6.83,0.21c-6.14-0.07-12.03-0.84-17.53-2.19
		c-5.18-1.27-10.01-3.04-14.38-5.25c-1.81-0.92-3.55-1.91-5.2-2.97c-1.55-1-3.02-2.05-4.41-3.17c-2.62-2.1-4.93-4.39-6.88-6.85
		c-1.88-2.36-3.44-4.87-4.62-7.49c-1.15-2.56-1.94-5.23-2.34-7.98c-0.23-1.59-0.34-3.21-0.3-4.86c0.03-1.17,0.13-2.32,0.3-3.46
		c0.4-2.75,1.2-5.42,2.35-7.98c1.18-2.62,2.72-5.13,4.59-7.48c1.48-1.85,3.16-3.61,5.02-5.27c-0.41,0.36-0.81,0.71-1.2,1.05
		c0.24-0.21,0.47-0.42,0.71-0.63c-0.14,0.12-0.28,0.24-0.42,0.36c-1.89,1.69-3.68,3.47-5.34,5.34c-0.72,0.83-1.56,1.84-2.74,3.28
		c-1.16,1.48-2.26,2.99-3.28,4.55c-0.06,0.09-0.12,0.17-0.17,0.26c-0.02,0.02-0.03,0.05-0.04,0.07c-1.06,1.72-1.96,3.5-2.7,5.32
		c-1.04,2.57-1.76,5.23-2.13,7.97c-0.15,1.12-0.25,2.25-0.27,3.4c-0.04,1.66,0.05,3.31,0.27,4.92
		C51.18,100.45,51.89,103.11,52.94,105.68z M180.01,106.08c-0.02-0.18-0.04-0.35-0.06-0.53c-0.02-0.17-0.03-0.33-0.05-0.5
		c-0.03-0.26-0.07-0.53-0.1-0.79c-0.02-0.14-0.04-0.28-0.06-0.42c0.02,0.14,0.04,0.28,0.06,0.42c-0.08-0.51-0.16-1.06-0.26-1.61
		c-0.07-0.44-0.15-0.88-0.23-1.33c-0.1-0.55-0.2-1.09-0.3-1.62c-0.09-0.47-0.17-0.92-0.26-1.35c-0.09-0.41-0.18-0.82-0.28-1.23
		c-0.23-0.88-0.49-1.83-0.77-2.8c-0.04-0.13-0.08-0.26-0.11-0.39c-0.24-0.79-0.5-1.57-0.75-2.34c0.06,0.19,0.11,0.38,0.17,0.57
		c0.43,1.56,0.75,3.14,0.95,4.74c0.2,1.63,0.29,3.28,0.25,4.96v0.01c-0.03,1.12-0.12,2.24-0.25,3.34c-0.34,2.74-1.02,5.4-2,7.98
		c-0.99,2.6-2.29,5.1-3.87,7.5c-1.59,2.4-3.45,4.69-5.57,6.84c-2.15,2.19-4.56,4.24-7.2,6.13c-2.68,1.92-5.6,3.68-8.72,5.25
		c-3.27,1.65-6.77,3.09-10.44,4.3c-4.21,1.38-8.65,2.45-13.28,3.19c-4.98,0.79-10.17,1.17-15.51,1.11
		c-0.82-0.01-1.63-0.03-2.44-0.07c-3.68-0.14-7.28-0.49-10.77-1.04c-4.64-0.73-9.08-1.81-13.28-3.19
		c-3.64-1.19-7.09-2.61-10.32-4.24c-0.04-0.02-0.08-0.04-0.12-0.06c-3.12-1.57-6.03-3.33-8.71-5.25c-2.64-1.89-5.04-3.94-7.19-6.13
		c-2.12-2.16-3.98-4.44-5.57-6.84c-1.58-2.39-2.88-4.9-3.87-7.49c-0.98-2.58-1.66-5.24-2-7.97c-0.21-1.64-0.29-3.3-0.25-4.98
		c0.03-1.13,0.12-2.26,0.26-3.37c0.22-1.73,0.57-3.44,1.05-5.11c0.01-0.05,0.03-0.1,0.04-0.15c-0.1,0.3-0.19,0.6-0.29,0.91
		c-0.24,0.78-0.48,1.55-0.7,2.29c-0.26,0.91-0.5,1.83-0.72,2.76c0,0.02-0.01,0.05-0.01,0.07c-0.19,0.91-0.38,1.88-0.56,2.85
		c-0.08,0.43-0.16,0.86-0.23,1.29c-0.09,0.49-0.17,0.96-0.25,1.42c-0.17,1.26-0.34,2.59-0.47,3.89c-0.02,0.37-0.04,0.73-0.05,1.1
		c-0.04,1.69,0.04,3.37,0.25,5.02c0.33,2.72,0.99,5.38,1.94,7.96c0.96,2.59,2.22,5.09,3.74,7.48c1.53,2.39,3.32,4.68,5.36,6.85
		c2.05,2.17,4.34,4.22,6.85,6.13c2.51,1.9,5.23,3.66,8.15,5.26c2.93,1.6,6.06,3.04,9.34,4.29c3.31,1.26,6.79,2.33,10.4,3.19
		c3.81,0.91,7.77,1.58,11.86,2c2.8,0.29,5.65,0.45,8.55,0.49c3.71,0.05,7.35-0.12,10.91-0.49c4.08-0.42,8.04-1.09,11.86-2
		c3.62-0.86,7.1-1.93,10.41-3.19c3.29-1.25,6.41-2.69,9.35-4.29c2.91-1.59,5.63-3.35,8.14-5.25c2.51-1.9,4.8-3.95,6.85-6.12
		c2.04-2.16,3.83-4.45,5.35-6.85c1.53-2.4,2.79-4.91,3.75-7.51c0.95-2.58,1.61-5.25,1.94-7.99c0.13-1.08,0.22-2.17,0.24-3.27
		c0-0.01,0-0.02,0-0.03C180.15,108.58,180.11,107.33,180.01,106.08z M47.09,95.07c0.03-0.09,0.06-0.19,0.08-0.28
		c0.01-0.04,0.02-0.09,0.04-0.13C47.17,94.8,47.13,94.94,47.09,95.07z M47.3,94.33c-0.03,0.11-0.06,0.22-0.09,0.34
		c0.08-0.28,0.16-0.55,0.24-0.83C47.4,94,47.35,94.16,47.3,94.33z M63.02,76.42c-0.19,1.17-0.32,2.35-0.35,3.54
		c-0.04,1.62,0.08,3.21,0.34,4.78c0.46,2.77,1.37,5.43,2.69,7.97c1.38,2.66,3.2,5.17,5.41,7.49c2.41,2.53,5.27,4.83,8.5,6.84
		c0.58,0.36,1.18,0.72,1.79,1.06c3.67,2.07,7.75,3.79,12.16,5.07c5.58,1.62,11.67,2.55,18.07,2.63c1.06,0.01,2.1,0,3.14-0.03
		c0.09,0,0.18-0.01,0.28-0.01c5.77-0.2,11.29-1.11,16.39-2.59c5.14-1.49,9.85-3.58,13.96-6.13c3.08-1.91,5.82-4.09,8.15-6.49
		c0.12-0.12,0.23-0.24,0.35-0.36c2.2-2.32,4.02-4.83,5.4-7.49c1.31-2.53,2.23-5.2,2.69-7.97c0.19-1.16,0.31-2.35,0.34-3.54v0
		c0.04-1.62-0.08-3.21-0.35-4.78c-0.46-2.77-1.38-5.44-2.69-7.98c-1.39-2.67-3.21-5.19-5.42-7.52c-2.4-2.52-5.25-4.81-8.46-6.81
		c-2.24-1.39-4.65-2.64-7.22-3.73c-0.31-0.13-0.61-0.26-0.91-0.38c-0.29-0.12-0.58-0.23-0.87-0.34c-4.31-1.62-8.77-2.8-13.32-3.52
		c-0.16-0.02-0.33-0.05-0.5-0.07c-0.07-0.01-0.14-0.02-0.21-0.03c-0.29-0.04-0.6-0.09-0.94-0.14c-0.62-0.08-1.25-0.16-1.88-0.23
		c-0.02,0-0.03,0-0.05,0c-0.86-0.07-1.8-0.14-2.74-0.19c-0.93-0.06-1.85-0.11-2.69-0.14c-0.03,0-0.05,0-0.08,0
		c-0.09,0-0.18-0.01-0.27-0.01c-0.21,0-0.42-0.01-0.64-0.01c-0.02,0-0.04,0-0.07,0c-0.25,0.01-0.5,0.01-0.76,0.02
		c-0.19,0-0.39,0-0.58,0c-1,0.02-1.74,0.03-2.34,0.05c-0.05,0-0.09,0-0.14,0c-0.83,0.04-1.67,0.1-2.5,0.17
		c-0.24,0.02-0.47,0.04-0.7,0.06c-1.47,0.14-2.94,0.33-4.41,0.57c-0.33,0.06-0.71,0.13-1.15,0.21c-0.52,0.1-1.13,0.22-1.87,0.36
		c-0.06,0.01-0.13,0.02-0.19,0.04c-0.03,0.01-0.07,0.01-0.1,0.02c-0.38,0.08-0.76,0.17-1.14,0.26l-0.01,0l-0.35,0.09l-0.41,0.1
		l-0.38,0.1c-1.22,0.32-2.52,0.7-3.75,1.07c-0.4,0.12-0.79,0.24-1.17,0.36c-0.07,0.02-0.14,0.04-0.22,0.07
		c-0.29,0.1-0.59,0.2-0.88,0.3c-0.06,0.02-0.13,0.04-0.19,0.07c-0.28,0.1-0.56,0.21-0.84,0.31c-3.32,1.26-6.41,2.78-9.23,4.52
		c-3.26,2.01-6.14,4.32-8.57,6.87c-2.22,2.33-4.06,4.85-5.45,7.54C64.39,70.98,63.48,73.65,63.02,76.42z M110.93,45.36
		c-1,0.04-2.03,0.08-3.03,0.14C108.9,45.43,109.91,45.38,110.93,45.36z M71.16,71.17c0.56-2.81,1.67-5.49,3.26-7.98
		c1.77-2.77,4.12-5.3,6.94-7.53c3.58-2.83,7.91-5.16,12.77-6.85c5.75-2,12.24-3.09,19.1-3.01c6.35,0.08,12.34,1.16,17.69,3.02
		c4.85,1.69,9.16,4.02,12.72,6.84c2.82,2.23,5.17,4.77,6.93,7.53c1.6,2.5,2.72,5.18,3.27,7.98c0.3,1.52,0.45,3.08,0.41,4.67v0
		c-0.03,1.23-0.18,2.44-0.42,3.64c-0.56,2.8-1.66,5.47-3.24,7.96l-0.01,0.01c-1.75,2.75-4.09,5.27-6.88,7.49
		c-3.55,2.82-7.86,5.16-12.69,6.85c-5.79,2.03-12.33,3.14-19.24,3.06c-1.42-0.02-2.82-0.09-4.2-0.2c-4.84-0.4-9.42-1.39-13.6-2.86
		c-4.83-1.69-9.13-4.03-12.68-6.85c-2.8-2.22-5.12-4.75-6.87-7.49c-1.59-2.49-2.71-5.17-3.26-7.97c-0.3-1.53-0.45-3.09-0.41-4.68
		C70.78,73.58,70.93,72.36,71.16,71.17z M84.86,83.16c2.68,3.05,6.33,5.62,10.67,7.5c3.38,1.47,7.17,2.51,11.23,3.02
		c1.68,0.21,3.41,0.34,5.17,0.36c6.42,0.08,12.44-1.17,17.53-3.38c4.33-1.88,7.99-4.44,10.68-7.5c1.06-1.2,1.96-2.47,2.69-3.81
		c0.73-1.33,1.28-2.72,1.65-4.16c0.32-1.22,0.5-2.47,0.53-3.75v0c0.04-1.56-0.15-3.08-0.53-4.56c-0.74-2.89-2.26-5.59-4.38-7.99
		c-2.69-3.05-6.35-5.62-10.7-7.49c-4.77-2.06-10.35-3.28-16.35-3.35c-6.39-0.08-12.38,1.16-17.46,3.34
		c-4.35,1.88-8.04,4.45-10.74,7.52c-2.11,2.4-3.62,5.09-4.36,7.98c-0.32,1.22-0.5,2.47-0.53,3.75c-0.04,1.56,0.15,3.09,0.53,4.56
		C81.25,78.07,82.75,80.76,84.86,83.16z M90.91,63.69c1.22-3.17,3.79-5.93,7.24-7.98c3.98-2.36,9.14-3.75,14.74-3.69
		c5.32,0.07,10.17,1.44,13.96,3.68c3.46,2.05,6.02,4.82,7.24,7.98c0.54,1.41,0.82,2.9,0.78,4.43v0c-0.03,1.34-0.3,2.64-0.78,3.88
		c-0.48,1.25-1.17,2.43-2.04,3.53c-1.34,1.7-3.1,3.2-5.19,4.43c-3.99,2.36-9.14,3.76-14.75,3.69c-0.25,0-0.49-0.01-0.74-0.02
		c-5.04-0.18-9.62-1.53-13.23-3.67c-3.45-2.05-6.01-4.81-7.23-7.97c-0.54-1.41-0.82-2.9-0.79-4.44
		C90.16,66.23,90.43,64.93,90.91,63.69z M112.3,73.89c4.2,0.05,7.9-1.52,9.93-3.89c1.01-1.17,1.61-2.54,1.65-4.01c0,0,0,0,0,0
		c0.04-1.57-0.57-3.04-1.65-4.29c-1.96-2.29-5.47-3.84-9.53-3.89c-4.2-0.05-7.9,1.52-9.93,3.89c-1.01,1.17-1.61,2.54-1.65,4.02
		c-0.04,1.57,0.57,3.05,1.65,4.3C104.73,72.29,108.24,73.84,112.3,73.89z"/>
</g>
</svg>
