<?xml version="1.0" encoding="utf-8"?>
<!-- Generator: Adobe Illustrator 26.2.1, SVG Export Plug-In . SVG Version: 6.00 Build 0)  -->
<svg version="1.1" xmlns="http://www.w3.org/2000/svg" xmlns:xlink="http://www.w3.org/1999/xlink" x="0px" y="0px"
	 viewBox="0 0 225 225" style="enable-background:new 0 0 225 225;" xml:space="preserve">
<style type="text/css">
	.st0{display:none;}
	.st1{display:inline;fill:#FAB433;}
	.st2{fill:none;}
	.st3{fill:none;stroke:#000000;stroke-width:1.6;stroke-miterlimit:10;}
	.st4{fill:none;stroke:#000000;stroke-width:0.7265;stroke-miterlimit:10;}
	.st5{fill:none;stroke:#000000;stroke-linecap:round;stroke-linejoin:round;stroke-miterlimit:10;}
	.st6{fill:none;stroke:#000000;stroke-miterlimit:10;}
	.st7{fill:none;stroke:#000000;stroke-width:0.7105;stroke-miterlimit:10;}
	.st8{fill:none;stroke:#000000;stroke-width:5.4;stroke-linecap:round;stroke-linejoin:round;stroke-miterlimit:10;}
	.st9{fill:none;stroke:#000000;stroke-width:2.9309;stroke-linecap:round;stroke-linejoin:round;stroke-miterlimit:10;}
	.st10{fill:none;stroke:#000000;stroke-width:0.5;stroke-linecap:round;stroke-linejoin:round;}
	.st11{fill:none;stroke:#FFFFFF;stroke-width:0;stroke-linecap:round;stroke-linejoin:round;}
	.st12{fill:#FFFFFF;}
	.st13{fill:none;stroke:#000000;stroke-width:1.4;stroke-miterlimit:10;}
	.st14{fill:url(#);stroke:#000000;stroke-width:1.4387;stroke-miterlimit:10;}
	.st15{fill:url(#);stroke:#000000;stroke-width:1.3718;stroke-miterlimit:10;}
	.st16{fill:none;stroke:#000000;stroke-width:1.0041;stroke-miterlimit:10;}
	.st17{fill:none;stroke:#000000;stroke-width:1.3621;stroke-miterlimit:10;}
	.st18{fill:none;stroke:#000000;stroke-width:0.25;stroke-miterlimit:10;}
</style>
<g id="Layer_2" class="st0">
	<rect id="XMLID_1_" x="-835.99" y="-520.01" class="st1" width="1160" height="772"/>
</g>
<g id="Layer_1">
	<path id="XMLID_15241_" d="M112.5,44.87c-37.29,0-67.63,30.34-67.63,67.63s30.34,67.63,67.63,67.63
		c37.29,0,67.63-30.34,67.63-67.63S149.79,44.87,112.5,44.87z M161.12,75.65l1.11-0.57l0.73,1.01c6.83,9.44,10.86,20.57,11.64,32.18
		l0.1,1.54H157l-0.05-1.39c-0.38-9.57-2.06-18.73-5.01-27.23l-0.46-1.32l1.3-0.5C155.79,78.22,158.59,76.96,161.12,75.65z
		 M131.77,109.81l-0.03-1.42c-0.1-5.04-0.42-12.91-1.4-21.8l-0.15-1.37l1.36-0.22c4.79-0.76,9.37-1.78,13.63-3.04l1.33-0.39
		l0.45,1.31c2.68,7.87,4.23,16.43,4.6,25.42l0.06,1.51H131.77z M151.63,115.18l-0.06,1.51c-0.38,8.99-1.92,17.54-4.6,25.42
		l-0.45,1.31l-1.33-0.39c-4.27-1.26-8.86-2.28-13.63-3.04l-1.36-0.21l0.15-1.37c0.98-8.89,1.3-16.76,1.4-21.8l0.03-1.42H151.63z
		 M142.38,57.89c5.52,3.03,10.55,6.89,14.97,11.48l1.38,1.43l-1.79,0.87c-1.92,0.93-4.02,1.84-6.22,2.69l-1.26,0.48l-0.57-1.22
		c-2.37-5.1-5.17-9.66-8.32-13.56l-4.62-5.71L142.38,57.89z M125.42,53.71c7.33,4.06,13.68,11.43,18.36,21.31l0.73,1.54l-1.64,0.47
		c-3.79,1.09-7.81,1.97-11.93,2.64l-1.44,0.23l-0.22-1.44c-1.46-9.54-3.44-17.25-5.89-22.91l-1.68-3.9L125.42,53.71z M98.62,109.81
		l0.02-1.47c0.12-7.46,0.53-14.54,1.24-21.03l0.15-1.41l1.42,0.13c3.76,0.34,7.48,0.52,11.04,0.52c3.57,0,7.29-0.18,11.06-0.52
		l1.42-0.13l0.15,1.41c0.7,6.5,1.12,13.58,1.24,21.04l0.02,1.47H98.62z M126.38,115.18l-0.02,1.47c-0.12,7.49-0.53,14.58-1.24,21.08
		l-0.15,1.41l-1.42-0.13c-7.34-0.67-14.77-0.67-22.09,0l-1.42,0.13l-0.15-1.41c-0.71-6.51-1.12-13.6-1.24-21.09l-0.02-1.47H126.38z
		 M112.5,50.24c4.81,0,9.35,14.91,11.53,28.77l0.24,1.53l-1.54,0.14c-3.39,0.3-6.81,0.45-10.22,0.45s-6.83-0.15-10.23-0.45
		l-1.54-0.14l0.24-1.53C103.15,65.15,107.68,50.24,112.5,50.24z M99.58,53.71l3.71-2.06l-1.68,3.9c-2.45,5.66-4.43,13.37-5.89,22.91
		L95.5,79.9l-1.44-0.23c-4.13-0.66-8.15-1.55-11.93-2.64l-1.64-0.47l0.73-1.54C85.91,65.14,92.26,57.77,99.58,53.71z M93.23,115.18
		l0.03,1.42c0.1,5.05,0.42,12.94,1.4,21.81l0.15,1.37L93.44,140c-4.78,0.76-9.36,1.78-13.63,3.04l-1.33,0.39l-0.45-1.31
		c-2.68-7.88-4.23-16.43-4.6-25.42l-0.06-1.51H93.23z M73.37,109.81l0.06-1.51c0.38-8.99,1.92-17.54,4.6-25.42l0.45-1.31l1.33,0.39
		c4.26,1.26,8.85,2.28,13.63,3.04l1.36,0.22l-0.15,1.37c-0.98,8.86-1.3,16.75-1.4,21.8l-0.03,1.42H73.37z M67.62,69.41
		c4.42-4.6,9.47-8.48,15-11.52l6.44-3.54l-4.62,5.72c-3.16,3.91-5.97,8.49-8.35,13.6l-0.57,1.22l-1.26-0.48
		c-2.14-0.82-4.24-1.73-6.23-2.7l-1.79-0.87L67.62,69.41z M50.4,108.27c0.78-11.61,4.81-22.73,11.64-32.18l0.73-1.01l1.11,0.57
		c2.53,1.31,5.33,2.56,8.34,3.72l1.3,0.5l-0.46,1.32c-2.94,8.49-4.63,17.65-5.01,27.22L68,109.81H50.29L50.4,108.27z M63.88,149.35
		l-1.11,0.57l-0.73-1.01c-6.83-9.44-10.86-20.57-11.64-32.18l-0.1-1.54H68l0.05,1.39c0.38,9.57,2.06,18.73,5.01,27.23l0.46,1.32
		l-1.3,0.5C69.21,146.79,66.4,148.04,63.88,149.35z M82.62,167.11c-5.53-3.04-10.58-6.91-14.99-11.51l-1.38-1.43l1.79-0.87
		c1.98-0.96,4.08-1.87,6.23-2.7l1.26-0.48l0.57,1.23c2.37,5.11,5.18,9.68,8.34,13.6l4.62,5.71L82.62,167.11z M99.58,171.29
		c-7.32-4.06-13.67-11.42-18.36-21.31l-0.73-1.54l1.64-0.47c3.79-1.08,7.8-1.97,11.93-2.63l1.44-0.23l0.22,1.44
		c1.46,9.54,3.44,17.25,5.89,22.9l1.68,3.89L99.58,171.29z M112.5,174.76c-4.81,0-9.35-14.91-11.52-28.77l-0.24-1.53l1.54-0.14
		c6.78-0.6,13.66-0.6,20.45,0l1.54,0.14l-0.24,1.53C121.85,159.85,117.31,174.76,112.5,174.76z M125.42,171.29l-3.71,2.06l1.68-3.9
		c2.45-5.66,4.43-13.36,5.89-22.91l0.22-1.44l1.44,0.23c4.12,0.66,8.14,1.55,11.94,2.63l1.64,0.47l-0.73,1.54
		C139.09,159.86,132.74,167.23,125.42,171.29z M157.38,155.59c-4.42,4.6-9.47,8.48-15,11.52l-6.44,3.54l4.62-5.72
		c3.16-3.91,5.97-8.49,8.35-13.6l0.57-1.22l1.26,0.48c2.15,0.82,4.25,1.73,6.24,2.7l1.79,0.87L157.38,155.59z M174.6,116.73
		c-0.78,11.61-4.81,22.73-11.64,32.18l-0.73,1.01l-1.11-0.57c-2.52-1.31-5.33-2.56-8.34-3.72l-1.3-0.5l0.46-1.32
		c2.94-8.5,4.63-17.66,5-27.22l0.05-1.39h17.71L174.6,116.73z"/>
</g>
</svg>
