<?xml version="1.0" encoding="utf-8"?>
<!-- Generator: Adobe Illustrator 26.2.1, SVG Export Plug-In . SVG Version: 6.00 Build 0)  -->
<svg version="1.1" xmlns="http://www.w3.org/2000/svg" xmlns:xlink="http://www.w3.org/1999/xlink" x="0px" y="0px"
	 viewBox="0 0 225 225" style="enable-background:new 0 0 225 225;" xml:space="preserve">
<style type="text/css">
	.st0{display:none;}
	.st1{display:inline;fill:#FAB433;}
	.st2{fill:none;}
	.st3{fill:none;stroke:#000000;stroke-width:1.6;stroke-miterlimit:10;}
	.st4{fill:none;stroke:#000000;stroke-width:0.7265;stroke-miterlimit:10;}
	.st5{fill:none;stroke:#000000;stroke-linecap:round;stroke-linejoin:round;stroke-miterlimit:10;}
	.st6{fill:none;stroke:#000000;stroke-miterlimit:10;}
	.st7{fill:none;stroke:#000000;stroke-width:0.7105;stroke-miterlimit:10;}
	.st8{fill:none;stroke:#000000;stroke-width:5.4;stroke-linecap:round;stroke-linejoin:round;stroke-miterlimit:10;}
	.st9{fill:none;stroke:#000000;stroke-width:2.9309;stroke-linecap:round;stroke-linejoin:round;stroke-miterlimit:10;}
	.st10{fill:none;stroke:#000000;stroke-width:0.5;stroke-linecap:round;stroke-linejoin:round;}
	.st11{fill:none;stroke:#FFFFFF;stroke-width:0;stroke-linecap:round;stroke-linejoin:round;}
	.st12{fill:#FFFFFF;}
	.st13{fill:none;stroke:#000000;stroke-width:1.4;stroke-miterlimit:10;}
	.st14{fill:url(#);stroke:#000000;stroke-width:1.4387;stroke-miterlimit:10;}
	.st15{fill:url(#);stroke:#000000;stroke-width:1.3718;stroke-miterlimit:10;}
	.st16{fill:none;stroke:#000000;stroke-width:1.0041;stroke-miterlimit:10;}
	.st17{fill:none;stroke:#000000;stroke-width:1.3621;stroke-miterlimit:10;}
	.st18{fill:none;stroke:#000000;stroke-width:0.25;stroke-miterlimit:10;}
</style>
<g id="Layer_2" class="st0">
	<rect id="XMLID_1638_" x="-835.99" y="-30.01" class="st1" width="1160" height="772"/>
</g>
<g id="Layer_1">
	<g id="XMLID_6243_">
		<g id="XMLID_6277_">
			<g id="XMLID_6294_">
				<path id="XMLID_6309_" class="st4" d="M85.6,175.37c1.76,0.37,3.5,0.81,5.25,1.36c7.24,2.29,14.45,3.41,21.65,3.4"/>
				<path id="XMLID_6308_" class="st4" d="M64.51,63.82c0.09,0,0.19,0,0.29,0c2.4,0,4.48,0.49,6.36,1.55
					c1.34,0.74,2.58,1.77,3.76,3.12c0.03,0.03,0.05,0.06,0.09,0.09c1.34,1.54,2.77,2.96,4.23,4.28c1.79,1.62,3.67,3.08,5.61,4.38
					c2.75,1.85,5.64,3.39,8.62,4.62c6.09,2.53,12.57,3.76,19.04,3.71"/>
				<path id="XMLID_6307_" class="st4" d="M58.7,70.31c0.05,0,0.09,0,0.13,0c1.27,0,2.47,0.19,3.56,0.61
					c1.41,0.54,2.64,1.45,3.66,2.83c0.01,0.02,0.02,0.02,0.03,0.04c1.06,1.44,2.14,2.81,3.27,4.13c1.31,1.55,2.68,3,4.1,4.37
					c1.78,1.73,3.64,3.32,5.59,4.77c2.4,1.79,4.92,3.36,7.57,4.71C91,94,95.7,95.63,100.74,96.6c3.74,0.74,7.65,1.1,11.76,1.1"/>
				<path id="XMLID_6306_" class="st4" d="M71.45,57.83c1.08,0,2.11,0,3.07,0c0.49,0,0.98,0.02,1.45,0.08
					c2.21,0.23,4.23,0.99,6.12,2.21c0.72,0.47,1.43,1,2.12,1.6c0.88,0.76,1.78,1.48,2.7,2.15c2.25,1.66,4.64,3.05,7.13,4.2
					c5.8,2.69,12.14,4.01,18.45,3.98"/>
				<path id="XMLID_6305_" class="st4" d="M53.74,77.55c1.99,0.02,3.73,0.5,5.14,1.59c0.77,0.59,1.44,1.36,2,2.34
					c0.3,0.52,0.62,1.03,0.97,1.52c0.53,0.78,1.1,1.54,1.69,2.28c0.57,0.73,1.14,1.44,1.74,2.14c1.44,1.71,2.95,3.32,4.52,4.83
					c1.8,1.73,3.68,3.32,5.62,4.77c2.46,1.86,5.01,3.5,7.65,4.92c4.34,2.35,8.88,4.14,13.54,5.36c5.21,1.38,10.55,2.05,15.88,2.04"
					/>
				<path id="XMLID_6304_" class="st4" d="M49.88,85.04c2.46,0.23,4.49,1.12,5.99,2.99c0.44,0.54,0.83,1.17,1.18,1.89
					c0.46,0.96,1.04,1.86,1.67,2.74c0.25,0.33,0.51,0.66,0.76,0.98c1.07,1.33,2.17,2.61,3.3,3.85c1.53,1.69,3.12,3.29,4.77,4.8
					c1.94,1.78,3.95,3.43,6.03,4.94c2.75,2,5.62,3.76,8.61,5.28c4.53,2.3,9.34,4.04,14.44,5.2c3.85,0.88,7.87,1.41,12.05,1.61
					c1.28,0.05,2.56,0.09,3.81,0.09"/>
				<path id="XMLID_6303_" class="st4" d="M46.89,93.27c0.75,0.15,1.45,0.35,2.12,0.63c1.75,0.71,3.23,1.9,4.58,3.68
					c0.2,0.26,0.4,0.54,0.59,0.82c0.99,1.46,2,2.87,3.08,4.22c1.34,1.72,2.74,3.35,4.2,4.9c1.66,1.77,3.4,3.44,5.21,4.99
					c2.22,1.93,4.54,3.69,6.93,5.27c3.05,2.04,6.23,3.8,9.5,5.29c5.66,2.59,11.59,4.37,17.64,5.34c3.89,0.64,7.83,0.94,11.76,0.91"
					/>
				<path id="XMLID_6302_" class="st4" d="M79.85,52.42c1.6,0.01,3.12,0.01,4.51,0.02c1.69,0.01,3.37,0.1,5.02,0.33
					c2.84,0.41,5.59,1.25,8.18,2.82c0.12,0.07,0.23,0.14,0.34,0.2c4.82,2.86,9.7,4.27,14.59,4.18"/>
				<path id="XMLID_6301_" class="st4" d="M66.18,162.77c1.93,0.39,3.78,1.06,5.57,2.09c1.39,0.79,2.8,1.54,4.22,2.24
					c4.3,2.11,8.79,3.82,13.44,5.12c0.79,0.23,1.59,0.44,2.39,0.64c7.01,1.75,13.91,2.62,20.7,2.6"/>
				<path id="XMLID_6300_" class="st4" d="M45.05,101.32c1.45,0.23,2.7,0.75,3.82,1.57c0.93,0.68,1.76,1.58,2.53,2.7
					c0.46,0.68,0.93,1.34,1.41,2c1.24,1.7,2.55,3.33,3.9,4.9c1.52,1.75,3.1,3.41,4.75,4.98c1.95,1.87,3.99,3.61,6.1,5.24
					c2.52,1.93,5.14,3.68,7.87,5.26c3.57,2.07,7.32,3.82,11.17,5.25c8.24,3.06,17,4.63,25.89,4.58"/>
				<path id="XMLID_6299_" class="st4" d="M44.18,110.3c1.8,0.2,3.4,0.94,4.73,2.21c0.44,0.41,0.84,0.87,1.21,1.39
					c0.86,1.2,1.76,2.37,2.69,3.5c1.41,1.74,2.89,3.4,4.44,4.98c1.76,1.81,3.61,3.53,5.53,5.14c2.25,1.88,4.59,3.63,7.02,5.24
					c2.96,1.94,6.05,3.68,9.23,5.2c4.62,2.2,9.46,3.94,14.42,5.18c6.19,1.56,12.59,2.36,19.03,2.35"/>
				<path id="XMLID_6298_" class="st4" d="M44.54,119.9c1.62,0.33,3.08,1.06,4.34,2.21c0.35,0.32,0.69,0.67,1.01,1.06
					c1.2,1.45,2.4,2.91,3.71,4.26c0.03,0.04,0.07,0.08,0.11,0.12c1.63,1.68,3.31,3.29,5.03,4.8c2.12,1.87,4.3,3.62,6.57,5.24
					c2.63,1.9,5.35,3.61,8.16,5.13c3.64,1.99,7.44,3.68,11.39,5.04c4.4,1.52,9,2.66,13.79,3.39c4.74,0.71,9.36,1.1,13.86,1.13"/>
				<path id="XMLID_6297_" class="st4" d="M56.58,151.83c2.01,0.47,3.93,1.21,5.8,2.25c0.82,0.45,1.63,0.96,2.43,1.52
					c2.08,1.46,4.19,2.81,6.34,4.04c3.55,2.05,7.2,3.8,10.93,5.25c5.11,1.99,10.39,3.43,15.81,4.32c4.76,0.78,9.62,1.16,14.59,1.13"
					/>
				<path id="XMLID_6296_" class="st4" d="M50.11,140.51c2.35,0.44,4.47,1.52,6.33,3.2c0.81,0.74,1.62,1.45,2.45,2.14
					c2.32,1.96,4.71,3.75,7.16,5.39c2.89,1.93,5.87,3.65,8.94,5.17c3.83,1.89,7.81,3.46,11.91,4.71c5.23,1.6,10.67,2.7,16.31,3.31
					c3.13,0.33,6.22,0.51,9.28,0.52"/>
				<path id="XMLID_6295_" class="st4" d="M46.43,130.11c0.9,0.23,1.76,0.56,2.58,0.99c1.4,0.72,2.67,1.73,3.89,2.98
					c0.97,0.99,1.96,1.96,2.97,2.9c1.93,1.78,3.92,3.46,5.99,5.03c2.41,1.84,4.91,3.54,7.49,5.08c3.19,1.91,6.49,3.6,9.88,5.05
					c4.78,2.06,9.74,3.66,14.8,4.79c6.05,1.36,12.25,2.05,18.45,2.06"/>
			</g>
			<g id="XMLID_6278_">
				<path id="XMLID_6293_" class="st4" d="M85.61,49.63c1.76-0.37,3.5-0.81,5.24-1.36c7.24-2.29,14.45-3.41,21.65-3.4"/>
				<path id="XMLID_6292_" class="st4" d="M112.5,139.42c-6.47-0.05-12.94,1.19-19.03,3.71c-2.98,1.23-5.87,2.77-8.63,4.62
					c-1.94,1.3-3.82,2.75-5.6,4.37c-1.48,1.31-2.89,2.74-4.24,4.28c-0.02,0.03-0.05,0.07-0.09,0.1c-1.18,1.34-2.42,2.38-3.75,3.12
					c-1.88,1.06-3.96,1.55-6.36,1.55c-0.09,0-0.19,0-0.29,0"/>
				<path id="XMLID_6291_" class="st4" d="M112.5,127.3c-4.1,0-8.03,0.37-11.76,1.1c-5.04,0.97-9.75,2.6-14.13,4.83
					c-2.64,1.35-5.17,2.92-7.56,4.72c-1.95,1.45-3.82,3.04-5.59,4.76c-1.42,1.37-2.78,2.83-4.1,4.37c-1.13,1.31-2.21,2.69-3.27,4.13
					c-0.01,0.02-0.02,0.02-0.03,0.04c-1.02,1.38-2.26,2.29-3.67,2.84c-1.09,0.42-2.28,0.61-3.55,0.61c-0.05,0-0.09,0-0.13,0"/>
				<path id="XMLID_6290_" class="st4" d="M112.5,152.96c-6.32-0.04-12.65,1.29-18.45,3.97c-2.49,1.15-4.88,2.55-7.13,4.2
					c-0.92,0.68-1.83,1.39-2.7,2.15c-0.69,0.6-1.4,1.14-2.12,1.61c-1.89,1.22-3.91,1.99-6.12,2.21c-0.47,0.05-0.96,0.08-1.45,0.08
					c-0.96,0-1.99,0-3.07,0"/>
				<path id="XMLID_6289_" class="st4" d="M112.5,115.67c-5.32-0.02-10.65,0.66-15.86,2.04c-4.65,1.22-9.21,3-13.54,5.36
					c-2.64,1.42-5.21,3.06-7.66,4.92c-1.94,1.45-3.82,3.05-5.62,4.77c-1.57,1.52-3.08,3.12-4.52,4.83c-0.6,0.7-1.17,1.41-1.74,2.14
					c-0.58,0.75-1.16,1.5-1.69,2.28c-0.35,0.5-0.67,1-0.97,1.52c-0.57,0.98-1.24,1.75-2,2.33c-1.41,1.1-3.15,1.58-5.15,1.59"/>
				<path id="XMLID_6288_" class="st4" d="M112.5,105.6c-1.25,0-2.53,0.03-3.81,0.09c-4.19,0.19-8.21,0.73-12.07,1.62
					c-5.09,1.15-9.9,2.89-14.42,5.2c-2.99,1.51-5.86,3.27-8.61,5.27c-2.08,1.52-4.09,3.16-6.03,4.95c-1.65,1.5-3.24,3.1-4.77,4.79
					c-1.13,1.24-2.23,2.52-3.3,3.85c-0.26,0.32-0.51,0.65-0.76,0.99c-0.63,0.86-1.21,1.78-1.67,2.74c-0.35,0.72-0.75,1.34-1.18,1.89
					c-1.51,1.87-3.54,2.75-6,2.98"/>
				<path id="XMLID_6287_" class="st4" d="M112.5,95.69c-3.93-0.03-7.86,0.27-11.76,0.91c-6.05,0.98-12,2.76-17.65,5.35
					c-3.27,1.49-6.45,3.25-9.5,5.28c-2.4,1.59-4.72,3.34-6.93,5.28c-1.8,1.55-3.54,3.21-5.2,4.98c-1.46,1.55-2.87,3.18-4.2,4.9
					c-1.06,1.36-2.09,2.77-3.08,4.23c-0.19,0.29-0.39,0.56-0.59,0.82c-1.34,1.77-2.83,2.95-4.58,3.67
					c-0.67,0.28-1.38,0.48-2.13,0.63"/>
				<path id="XMLID_6286_" class="st4" d="M112.5,165.03c-4.9-0.09-9.78,1.31-14.59,4.17c-0.12,0.06-0.23,0.13-0.34,0.2
					c-2.59,1.57-5.33,2.4-8.16,2.81c-1.66,0.24-3.34,0.33-5.04,0.34c-1.39,0.01-2.91,0.01-4.51,0.02"/>
				<path id="XMLID_6285_" class="st4" d="M112.5,49.54c-6.79-0.02-13.69,0.85-20.7,2.6c-0.81,0.2-1.62,0.41-2.42,0.64
					c-4.64,1.31-9.11,3.01-13.4,5.14c-1.43,0.7-2.84,1.45-4.23,2.24c-1.78,1.02-3.63,1.7-5.56,2.07"/>
				<path id="XMLID_6284_" class="st4" d="M112.5,87.19c-8.88-0.05-17.65,1.52-25.88,4.58c-3.86,1.42-7.61,3.19-11.19,5.26
					c-2.73,1.57-5.35,3.33-7.87,5.26c-2.12,1.62-4.16,3.36-6.11,5.23c-1.65,1.58-3.23,3.24-4.74,4.99c-1.36,1.56-2.66,3.19-3.9,4.9
					c-0.47,0.66-0.95,1.33-1.41,2c-0.77,1.13-1.6,2.03-2.53,2.71c-1.12,0.82-2.38,1.33-3.82,1.56"/>
				<path id="XMLID_6283_" class="st4" d="M112.5,79.52c-6.44-0.02-12.84,0.78-19.04,2.35c-4.96,1.24-9.79,2.98-14.41,5.18
					c-3.19,1.52-6.28,3.25-9.24,5.2c-2.43,1.6-4.78,3.35-7.02,5.23c-1.92,1.61-3.77,3.33-5.53,5.14c-1.55,1.59-3.03,3.24-4.44,4.98
					c-0.92,1.13-1.83,2.31-2.69,3.5c-0.37,0.52-0.78,0.99-1.21,1.4c-1.33,1.26-2.93,2-4.73,2.2"/>
				<path id="XMLID_6282_" class="st4" d="M112.5,72.73c-4.5,0.03-9.12,0.41-13.86,1.13c-4.79,0.73-9.39,1.86-13.79,3.39
					c-3.96,1.37-7.75,3.05-11.38,5.04c-2.82,1.53-5.54,3.24-8.17,5.14c-2.26,1.62-4.44,3.36-6.57,5.24c-1.72,1.52-3.4,3.12-5.03,4.8
					c-0.04,0.04-0.08,0.08-0.11,0.12c-1.31,1.35-2.5,2.8-3.71,4.25c-0.32,0.39-0.66,0.75-1.01,1.06c-1.26,1.15-2.71,1.88-4.34,2.21"
					/>
				<path id="XMLID_6281_" class="st4" d="M112.5,54.67c-4.97-0.03-9.84,0.34-14.59,1.13c-5.42,0.89-10.7,2.33-15.81,4.33
					c-3.74,1.44-7.39,3.19-10.94,5.25c-2.14,1.24-4.26,2.58-6.33,4.04c-0.8,0.56-1.61,1.06-2.42,1.52c-1.87,1.03-3.8,1.77-5.81,2.25
					"/>
				<path id="XMLID_6280_" class="st4" d="M112.5,60.05c-3.05,0.01-6.15,0.18-9.28,0.52c-5.63,0.61-11.08,1.71-16.3,3.3
					c-4.11,1.26-8.08,2.82-11.92,4.71c-3.07,1.52-6.05,3.23-8.94,5.17c-2.46,1.64-4.84,3.43-7.16,5.39
					c-0.82,0.69-1.64,1.41-2.45,2.14c-1.86,1.69-3.98,2.77-6.32,3.2"/>
				<path id="XMLID_6279_" class="st4" d="M112.5,66.01c-6.21,0.01-12.4,0.7-18.45,2.06c-5.06,1.13-10.02,2.74-14.81,4.79
					c-3.39,1.45-6.69,3.14-9.88,5.05c-2.58,1.55-5.08,3.23-7.49,5.08c-2.07,1.56-4.06,3.24-5.99,5.04c-1.01,0.93-2,1.9-2.97,2.89
					c-1.22,1.25-2.49,2.25-3.89,2.98c-0.82,0.44-1.67,0.76-2.57,0.99"/>
			</g>
		</g>
		<g id="XMLID_6244_">
			<g id="XMLID_6261_">
				<path id="XMLID_6276_" class="st4" d="M112.5,180.12c7.2,0.02,14.41-1.1,21.66-3.4c1.73-0.54,3.47-0.99,5.23-1.35"/>
				<path id="XMLID_6275_" class="st4" d="M160.49,63.82c-0.09,0-0.19,0-0.28,0c-2.39,0-4.48,0.48-6.36,1.54
					c-1.34,0.75-2.59,1.78-3.77,3.13c-0.03,0.03-0.05,0.06-0.09,0.09c-1.34,1.54-2.77,2.96-4.23,4.28
					c-1.79,1.62-3.67,3.08-5.61,4.38c-2.75,1.85-5.64,3.39-8.62,4.62c-6.09,2.53-12.57,3.76-19.04,3.71"/>
				<path id="XMLID_6274_" class="st4" d="M166.29,70.31c-0.04,0-0.09,0-0.12,0c-1.27,0-2.47,0.19-3.57,0.61
					c-1.41,0.54-2.64,1.45-3.66,2.83c-0.01,0.02-0.02,0.02-0.03,0.04c-1.06,1.44-2.14,2.81-3.26,4.13
					c-1.32,1.55-2.69,3.01-4.11,4.37c-1.79,1.73-3.64,3.32-5.59,4.77c-2.4,1.79-4.93,3.36-7.57,4.71C134,94,129.3,95.63,124.26,96.6
					h-0.01c-3.74,0.74-7.65,1.1-11.76,1.1"/>
				<path id="XMLID_6273_" class="st4" d="M153.54,57.83c-1.08,0-2.11,0-3.06,0c-0.5,0-0.98,0.02-1.46,0.08
					c-2.21,0.23-4.23,0.99-6.11,2.21c-0.73,0.47-1.44,1.01-2.13,1.61c-0.88,0.76-1.78,1.48-2.7,2.15c-2.25,1.66-4.64,3.05-7.13,4.2
					c-5.8,2.69-12.14,4.01-18.45,3.98"/>
				<path id="XMLID_6272_" class="st4" d="M171.26,77.55c-2,0.02-3.73,0.5-5.14,1.59c-0.76,0.59-1.44,1.36-2,2.34
					c-0.3,0.52-0.63,1.03-0.97,1.52c-0.54,0.78-1.1,1.54-1.69,2.28c-0.57,0.73-1.14,1.44-1.74,2.14c-1.44,1.71-2.95,3.32-4.52,4.83
					c-1.8,1.73-3.68,3.32-5.62,4.77c-2.46,1.86-5.02,3.5-7.66,4.92c-4.33,2.35-8.88,4.14-13.54,5.36
					c-5.21,1.38-10.54,2.05-15.88,2.04"/>
				<path id="XMLID_6271_" class="st4" d="M175.12,85.04c-2.46,0.23-4.49,1.12-5.99,2.99c-0.44,0.54-0.83,1.17-1.18,1.89
					c-0.47,0.96-1.04,1.86-1.68,2.74c-0.24,0.33-0.5,0.66-0.75,0.98c-1.07,1.33-2.17,2.61-3.3,3.85c-1.54,1.69-3.13,3.29-4.78,4.79
					c-1.94,1.79-3.95,3.43-6.03,4.95c-2.74,2-5.61,3.76-8.61,5.28c-4.53,2.3-9.33,4.04-14.43,5.19h-0.01
					c-3.85,0.89-7.86,1.42-12.04,1.62c-1.29,0.05-2.56,0.09-3.82,0.09"/>
				<path id="XMLID_6270_" class="st4" d="M178.11,93.27c-0.75,0.15-1.46,0.35-2.13,0.63c-1.75,0.72-3.22,1.9-4.57,3.68
					c-0.21,0.26-0.4,0.54-0.6,0.82c-0.99,1.46-2,2.87-3.07,4.22c-1.34,1.72-2.74,3.35-4.2,4.9c-1.66,1.77-3.4,3.43-5.2,4.99
					c-2.22,1.93-4.54,3.69-6.94,5.28c-3.05,2.04-6.22,3.79-9.5,5.28c-5.66,2.59-11.6,4.37-17.65,5.35
					c-3.89,0.64-7.83,0.94-11.76,0.91"/>
				<path id="XMLID_6269_" class="st4" d="M145.15,52.42c-1.6,0.01-3.12,0.01-4.51,0.02c-1.69,0.01-3.38,0.1-5.03,0.33
					c-2.84,0.41-5.59,1.25-8.18,2.82c-0.12,0.07-0.23,0.14-0.34,0.2c-4.81,2.86-9.69,4.27-14.59,4.18"/>
				<path id="XMLID_6268_" class="st4" d="M158.82,162.78c-1.93,0.38-3.78,1.06-5.57,2.08c-1.39,0.79-2.8,1.54-4.22,2.24
					c-4.3,2.11-8.79,3.82-13.43,5.12c-0.79,0.23-1.59,0.44-2.39,0.64c-7.01,1.75-13.91,2.62-20.71,2.6"/>
				<path id="XMLID_6267_" class="st4" d="M179.95,101.32c-1.45,0.23-2.7,0.74-3.83,1.57c-0.93,0.68-1.76,1.58-2.53,2.7
					c-0.46,0.68-0.93,1.34-1.41,2c-1.24,1.7-2.54,3.33-3.9,4.9c-1.51,1.74-3.09,3.4-4.74,4.98c-1.94,1.86-3.99,3.61-6.11,5.24
					c-2.52,1.93-5.14,3.68-7.86,5.25c-3.57,2.07-7.32,3.83-11.17,5.26c-8.24,3.06-17.01,4.63-25.9,4.58"/>
				<path id="XMLID_6266_" class="st4" d="M180.82,110.3c-1.8,0.2-3.4,0.94-4.73,2.21c-0.44,0.4-0.84,0.87-1.22,1.39
					c-0.86,1.2-1.76,2.37-2.69,3.5c-1.41,1.74-2.9,3.4-4.44,4.99c-1.76,1.81-3.61,3.52-5.52,5.13c-2.25,1.88-4.59,3.63-7.02,5.24
					h-0.01c-2.96,1.94-6.04,3.68-9.22,5.2c-4.62,2.2-9.46,3.94-14.42,5.18c-6.19,1.56-12.6,2.36-19.04,2.35"/>
				<path id="XMLID_6265_" class="st4" d="M180.46,119.9c-1.62,0.33-3.08,1.06-4.34,2.21c-0.35,0.32-0.69,0.67-1.01,1.06
					c-1.2,1.45-2.39,2.91-3.7,4.26c-0.03,0.04-0.07,0.08-0.11,0.12c-1.63,1.69-3.31,3.29-5.04,4.8c-2.12,1.87-4.3,3.62-6.56,5.24
					c-2.63,1.9-5.35,3.61-8.17,5.14c-3.64,1.99-7.44,3.67-11.39,5.04c-4.4,1.52-9,2.66-13.79,3.39c-4.73,0.71-9.36,1.1-13.86,1.13"
					/>
				<path id="XMLID_6264_" class="st4" d="M168.42,151.83c-2.01,0.47-3.94,1.21-5.81,2.25c-0.82,0.45-1.62,0.96-2.42,1.52
					c-2.08,1.46-4.19,2.81-6.34,4.04c-3.55,2.05-7.2,3.8-10.93,5.25c-5.11,2-10.4,3.43-15.82,4.32c-4.76,0.78-9.62,1.16-14.59,1.13"
					/>
				<path id="XMLID_6263_" class="st4" d="M174.89,140.5c-2.35,0.44-4.48,1.52-6.33,3.21c-0.81,0.74-1.62,1.45-2.45,2.14
					c-2.32,1.96-4.71,3.75-7.16,5.4c-2.89,1.93-5.87,3.65-8.95,5.17c-3.83,1.89-7.81,3.45-11.91,4.71
					c-5.23,1.59-10.67,2.69-16.31,3.3c-3.12,0.33-6.22,0.51-9.28,0.52"/>
				<path id="XMLID_6262_" class="st4" d="M178.57,130.11c-0.91,0.23-1.76,0.56-2.59,0.99c-1.4,0.72-2.67,1.73-3.89,2.98
					c-0.97,0.99-1.96,1.96-2.97,2.89c-1.93,1.79-3.92,3.47-5.99,5.04c-2.41,1.84-4.91,3.54-7.48,5.08c-3.19,1.91-6.49,3.6-9.88,5.05
					c-4.79,2.06-9.75,3.66-14.81,4.79c-6.05,1.36-12.25,2.05-18.45,2.06"/>
			</g>
			<g id="XMLID_6245_">
				<path id="XMLID_6260_" class="st4" d="M112.5,44.88c7.2-0.02,14.41,1.1,21.66,3.4c1.73,0.55,3.48,0.99,5.23,1.36"/>
				<path id="XMLID_6259_" class="st4" d="M112.5,139.42c6.47-0.05,12.95,1.19,19.04,3.71c2.98,1.23,5.87,2.77,8.62,4.62
					c1.94,1.3,3.82,2.76,5.61,4.37c1.48,1.32,2.89,2.75,4.23,4.29c0.03,0.03,0.05,0.06,0.09,0.09c1.18,1.34,2.42,2.38,3.76,3.12
					c1.88,1.06,3.96,1.55,6.36,1.55c0.09,0,0.19,0,0.28,0"/>
				<path id="XMLID_6258_" class="st4" d="M112.5,127.3c4.1,0,8.03,0.37,11.76,1.1c5.04,0.97,9.75,2.6,14.13,4.83
					c2.64,1.35,5.16,2.93,7.56,4.72c1.94,1.45,3.8,3.04,5.59,4.77c1.41,1.36,2.78,2.81,4.1,4.36c1.12,1.31,2.21,2.69,3.26,4.13
					c0.02,0.02,0.02,0.03,0.04,0.05c1.02,1.38,2.25,2.28,3.66,2.83c1.1,0.42,2.29,0.61,3.56,0.61c0.04,0,0.09,0,0.12,0"/>
				<path id="XMLID_6257_" class="st4" d="M112.5,152.96c6.32-0.04,12.65,1.29,18.45,3.97c2.49,1.15,4.88,2.55,7.13,4.2
					c0.92,0.67,1.83,1.38,2.7,2.14c0.69,0.6,1.4,1.14,2.13,1.61c1.88,1.22,3.9,1.98,6.12,2.21c0.47,0.05,0.96,0.08,1.45,0.08
					c0.96,0,1.98,0,3.06,0"/>
				<path id="XMLID_6256_" class="st4" d="M112.5,115.67c5.32-0.02,10.66,0.66,15.86,2.03c4.66,1.23,9.22,3.01,13.55,5.36
					c2.64,1.43,5.21,3.07,7.66,4.92c1.94,1.46,3.82,3.05,5.62,4.78c1.57,1.52,3.08,3.12,4.52,4.83c0.6,0.7,1.17,1.41,1.74,2.14
					c0.58,0.75,1.15,1.5,1.68,2.28c0.35,0.5,0.68,1,0.98,1.52c0.57,0.98,1.24,1.75,2,2.33c1.41,1.1,3.15,1.58,5.15,1.59"/>
				<path id="XMLID_6255_" class="st4" d="M112.5,105.6c1.26,0,2.53,0.03,3.82,0.09c4.18,0.19,8.21,0.73,12.06,1.62
					c5.09,1.15,9.9,2.89,14.42,5.2c3,1.51,5.87,3.27,8.61,5.28c2.08,1.51,4.09,3.15,6.03,4.94c1.65,1.5,3.24,3.1,4.78,4.79
					c1.13,1.24,2.23,2.52,3.3,3.85c0.26,0.32,0.51,0.65,0.75,0.99c0.64,0.86,1.21,1.78,1.68,2.74c0.35,0.71,0.74,1.34,1.17,1.88
					c1.51,1.87,3.54,2.76,6,2.99"/>
				<path id="XMLID_6254_" class="st4" d="M112.5,95.69c3.93-0.03,7.86,0.27,11.76,0.91c6.05,0.98,12,2.76,17.65,5.35
					c3.27,1.48,6.45,3.25,9.5,5.28c2.4,1.59,4.72,3.34,6.94,5.28c1.8,1.55,3.54,3.21,5.2,4.98c1.46,1.55,2.87,3.19,4.2,4.9
					c1.07,1.35,2.1,2.76,3.08,4.22c0.19,0.29,0.39,0.56,0.6,0.82c1.34,1.77,2.82,2.95,4.57,3.67c0.67,0.28,1.38,0.48,2.14,0.63"/>
				<path id="XMLID_6253_" class="st4" d="M112.5,165.03c4.9-0.09,9.78,1.31,14.59,4.17c0.12,0.06,0.23,0.13,0.34,0.2
					c2.59,1.57,5.33,2.4,8.17,2.81c1.66,0.24,3.34,0.33,5.04,0.34c1.39,0.01,2.91,0.01,4.51,0.02"/>
				<path id="XMLID_6252_" class="st4" d="M112.5,49.54c6.8-0.02,13.7,0.85,20.71,2.6c0.81,0.2,1.61,0.41,2.41,0.64
					c4.63,1.31,9.11,3.01,13.4,5.14c1.43,0.7,2.84,1.45,4.23,2.24c1.79,1.02,3.63,1.69,5.56,2.07"/>
				<path id="XMLID_6251_" class="st4" d="M112.5,87.19c8.89-0.05,17.65,1.52,25.88,4.58c3.86,1.43,7.61,3.19,11.19,5.26
					c2.72,1.57,5.35,3.33,7.86,5.25c2.12,1.62,4.16,3.37,6.11,5.24c1.65,1.58,3.23,3.24,4.74,4.99c1.36,1.56,2.66,3.19,3.9,4.9
					c0.47,0.66,0.95,1.33,1.41,2c0.77,1.13,1.6,2.03,2.53,2.71c1.13,0.82,2.39,1.34,3.83,1.56"/>
				<path id="XMLID_6250_" class="st4" d="M112.5,79.52c6.44-0.02,12.84,0.78,19.04,2.35c4.96,1.24,9.79,2.98,14.41,5.18
					c3.19,1.52,6.28,3.25,9.24,5.2c2.43,1.6,4.78,3.35,7.02,5.23c1.92,1.61,3.77,3.33,5.53,5.14c1.55,1.59,3.03,3.24,4.44,4.98
					c0.92,1.13,1.83,2.31,2.69,3.5c0.38,0.52,0.78,0.99,1.22,1.4c1.34,1.26,2.93,2,4.73,2.2"/>
				<path id="XMLID_6249_" class="st4" d="M112.5,72.73c4.51,0.03,9.13,0.41,13.86,1.13c4.79,0.73,9.39,1.86,13.79,3.39
					c3.96,1.37,7.75,3.05,11.38,5.04c2.82,1.53,5.55,3.25,8.17,5.14c2.25,1.62,4.44,3.36,6.56,5.24c1.73,1.52,3.4,3.12,5.04,4.8
					c0.04,0.04,0.07,0.08,0.11,0.12c1.3,1.35,2.5,2.8,3.7,4.25c0.32,0.39,0.66,0.75,1.01,1.06c1.26,1.15,2.72,1.88,4.34,2.21"/>
				<path id="XMLID_6248_" class="st4" d="M112.5,54.67c4.97-0.03,9.84,0.34,14.59,1.13c5.42,0.89,10.71,2.33,15.82,4.32
					c3.74,1.45,7.39,3.2,10.94,5.25c2.14,1.24,4.26,2.59,6.33,4.05c0.8,0.56,1.6,1.06,2.42,1.52c1.87,1.03,3.8,1.77,5.81,2.25"/>
				<path id="XMLID_6247_" class="st4" d="M112.5,60.05c3.06,0.01,6.15,0.18,9.28,0.52c5.63,0.61,11.07,1.71,16.3,3.3
					c4.11,1.25,8.08,2.82,11.92,4.71c3.07,1.51,6.05,3.22,8.94,5.17c2.46,1.64,4.85,3.43,7.17,5.39c0.82,0.69,1.64,1.41,2.45,2.14
					c1.85,1.69,3.97,2.77,6.32,3.21"/>
				<path id="XMLID_6246_" class="st4" d="M112.5,66.01c6.21,0.01,12.4,0.7,18.45,2.06c5.06,1.13,10.02,2.74,14.81,4.79
					c3.4,1.45,6.7,3.14,9.88,5.05c2.58,1.55,5.08,3.24,7.49,5.08c2.07,1.57,4.06,3.25,5.99,5.04c1.01,0.93,2,1.9,2.96,2.89
					c1.22,1.25,2.49,2.25,3.89,2.98c0.82,0.44,1.68,0.76,2.59,0.99"/>
			</g>
		</g>
	</g>
</g>
</svg>
