<?xml version="1.0" encoding="utf-8"?>
<!-- Generator: Adobe Illustrator 26.2.1, SVG Export Plug-In . SVG Version: 6.00 Build 0)  -->
<svg version="1.1" xmlns="http://www.w3.org/2000/svg" xmlns:xlink="http://www.w3.org/1999/xlink" x="0px" y="0px"
	 viewBox="0 0 225 225" style="enable-background:new 0 0 225 225;" xml:space="preserve">
<style type="text/css">
	.st0{display:none;}
	.st1{display:inline;fill:#FAB433;}
	.st2{fill:none;}
	.st3{fill:none;stroke:#000000;stroke-width:1.6;stroke-miterlimit:10;}
	.st4{fill:none;stroke:#000000;stroke-width:0.7265;stroke-miterlimit:10;}
	.st5{fill:none;stroke:#000000;stroke-linecap:round;stroke-linejoin:round;stroke-miterlimit:10;}
	.st6{fill:none;stroke:#000000;stroke-miterlimit:10;}
	.st7{fill:none;stroke:#000000;stroke-width:0.7105;stroke-miterlimit:10;}
	.st8{fill:none;stroke:#000000;stroke-width:5.4;stroke-linecap:round;stroke-linejoin:round;stroke-miterlimit:10;}
	.st9{fill:none;stroke:#000000;stroke-width:2.9309;stroke-linecap:round;stroke-linejoin:round;stroke-miterlimit:10;}
	.st10{fill:none;stroke:#000000;stroke-width:0.5;stroke-linecap:round;stroke-linejoin:round;}
	.st11{fill:none;stroke:#FFFFFF;stroke-width:0;stroke-linecap:round;stroke-linejoin:round;}
	.st12{fill:#FFFFFF;}
	.st13{fill:none;stroke:#000000;stroke-width:1.4;stroke-miterlimit:10;}
	.st14{fill:url(#);stroke:#000000;stroke-width:1.4387;stroke-miterlimit:10;}
	.st15{fill:url(#);stroke:#000000;stroke-width:1.3718;stroke-miterlimit:10;}
	.st16{fill:none;stroke:#000000;stroke-width:1.0041;stroke-miterlimit:10;}
	.st17{fill:none;stroke:#000000;stroke-width:1.3621;stroke-miterlimit:10;}
	.st18{fill:none;stroke:#000000;stroke-width:0.25;stroke-miterlimit:10;}
</style>
<g id="Layer_2" class="st0">
	<rect id="XMLID_4_" x="-345.99" y="-30.01" class="st1" width="1160" height="772"/>
</g>
<g id="Layer_1">
	<g id="XMLID_18885_">
		<path id="XMLID_20999_" d="M113.99,105.94c0.02,0,0.04-0.02,0.04-0.04c0-0.02-0.02-0.04-0.04-0.04c-0.02,0-0.04,0.02-0.04,0.04
			C113.95,105.93,113.96,105.94,113.99,105.94z"/>
		<path id="XMLID_20998_" d="M103.39,114.42c0.04,0,0.07-0.03,0.07-0.07c0-0.04-0.03-0.07-0.07-0.07c-0.04,0-0.07,0.03-0.07,0.07
			C103.32,114.39,103.35,114.42,103.39,114.42z"/>
		<path id="XMLID_20997_" d="M97.52,109.72c0.03,0,0.05-0.02,0.05-0.05s-0.02-0.05-0.05-0.05c-0.03,0-0.05,0.02-0.05,0.05
			S97.49,109.72,97.52,109.72z"/>
		<path id="XMLID_20996_" d="M97.52,102.24c0.05,0,0.09-0.04,0.09-0.09c0-0.05-0.04-0.09-0.09-0.09c-0.05,0-0.09,0.04-0.09,0.09
			C97.43,102.2,97.47,102.24,97.52,102.24z"/>
		<path id="XMLID_20995_" d="M103.39,97.55c0.05,0,0.09-0.04,0.09-0.09c0-0.05-0.04-0.09-0.09-0.09c-0.05,0-0.09,0.04-0.09,0.09
			C103.31,97.51,103.34,97.55,103.39,97.55z"/>
		<path id="XMLID_20994_" d="M110.72,99.19c0.03,0,0.06-0.02,0.06-0.05c0-0.03-0.02-0.05-0.06-0.05c-0.03,0-0.05,0.02-0.05,0.05
			C110.67,99.16,110.69,99.19,110.72,99.19z"/>
		<path id="XMLID_20993_" d="M122.65,106.02c0.06,0,0.11-0.05,0.11-0.11c0-0.06-0.05-0.11-0.11-0.11s-0.11,0.05-0.11,0.11
			C122.54,105.97,122.59,106.02,122.65,106.02z"/>
		<path id="XMLID_20992_" d="M120.93,113.48c0.03,0,0.06-0.02,0.06-0.05c0-0.03-0.02-0.05-0.06-0.05c-0.03,0-0.05,0.02-0.05,0.05
			C120.88,113.45,120.9,113.48,120.93,113.48z"/>
		<path id="XMLID_20991_" d="M116.13,119.51c0.03,0,0.05-0.02,0.05-0.05c0-0.03-0.02-0.05-0.05-0.05c-0.03,0-0.06,0.02-0.06,0.05
			C116.07,119.48,116.09,119.51,116.13,119.51z"/>
		<path id="XMLID_20990_" d="M109.18,122.91c0.06,0,0.11-0.05,0.11-0.11c0-0.06-0.05-0.11-0.11-0.11c-0.06,0-0.11,0.05-0.11,0.11
			C109.07,122.86,109.12,122.91,109.18,122.91z"/>
		<path id="XMLID_20989_" d="M101.47,122.96c0.09,0,0.16-0.07,0.16-0.16c0-0.09-0.07-0.16-0.16-0.16c-0.09,0-0.16,0.07-0.16,0.16
			C101.3,122.89,101.38,122.96,101.47,122.96z"/>
		<path id="XMLID_20988_" d="M94.52,119.63c0.1,0,0.18-0.08,0.18-0.18c0-0.1-0.08-0.18-0.18-0.18c-0.1,0-0.18,0.08-0.18,0.18
			C94.34,119.55,94.42,119.63,94.52,119.63z"/>
		<path id="XMLID_20987_" d="M89.71,113.6c0.1,0,0.18-0.08,0.18-0.18c0-0.1-0.08-0.18-0.18-0.18c-0.1,0-0.18,0.08-0.18,0.18
			C89.53,113.52,89.61,113.6,89.71,113.6z"/>
		<path id="XMLID_20986_" d="M88,106.07c0.09,0,0.16-0.07,0.16-0.16c0-0.09-0.07-0.16-0.16-0.16c-0.09,0-0.16,0.07-0.16,0.16
			C87.83,106,87.91,106.07,88,106.07z"/>
		<path id="XMLID_20985_" d="M89.71,98.61c0.12,0,0.22-0.1,0.22-0.22c0-0.12-0.1-0.22-0.22-0.22c-0.12,0-0.22,0.1-0.22,0.22
			C89.49,98.51,89.59,98.61,89.71,98.61z"/>
		<path id="XMLID_20984_" d="M94.52,92.74c0.21,0,0.38-0.17,0.38-0.38c0-0.21-0.17-0.38-0.38-0.38c-0.21,0-0.38,0.17-0.38,0.38
			C94.14,92.57,94.31,92.74,94.52,92.74z"/>
		<path id="XMLID_20983_" d="M101.47,89.23c0.12,0,0.22-0.1,0.22-0.22c0-0.12-0.1-0.21-0.22-0.21c-0.12,0-0.22,0.1-0.22,0.21
			C101.25,89.13,101.35,89.23,101.47,89.23z"/>
		<path id="XMLID_19098_" d="M109.18,89.18c0.09,0,0.16-0.07,0.16-0.16c0-0.09-0.07-0.16-0.16-0.16c-0.09,0-0.16,0.07-0.16,0.16
			C109.02,89.1,109.09,89.18,109.18,89.18z"/>
		<path id="XMLID_19097_" d="M116.13,92.54c0.1,0,0.18-0.08,0.18-0.18c0-0.1-0.08-0.18-0.18-0.18c-0.1,0-0.18,0.08-0.18,0.18
			C115.94,92.46,116.02,92.54,116.13,92.54z"/>
		<path id="XMLID_19096_" d="M120.93,98.46c0.04,0,0.07-0.03,0.07-0.07c0-0.04-0.03-0.07-0.07-0.07c-0.04,0-0.07,0.03-0.07,0.07
			C120.86,98.43,120.89,98.46,120.93,98.46z"/>
		<path id="XMLID_19095_" d="M131.31,106.21c0.17,0,0.31-0.14,0.31-0.31c0-0.17-0.14-0.31-0.31-0.31c-0.17,0-0.31,0.14-0.31,0.31
			C131,106.08,131.14,106.21,131.31,106.21z"/>
		<path id="XMLID_19094_" d="M130.15,113.91c0.19,0,0.34-0.15,0.34-0.34c0-0.19-0.15-0.34-0.34-0.34c-0.19,0-0.34,0.15-0.34,0.34
			C129.81,113.76,129.97,113.91,130.15,113.91z"/>
		<circle id="XMLID_19093_" cx="126.8" cy="120.55" r="0.14"/>
		<path id="XMLID_19092_" d="M121.53,126.48c0.14,0,0.25-0.11,0.25-0.25c0-0.14-0.11-0.25-0.25-0.25c-0.14,0-0.25,0.11-0.25,0.25
			C121.27,126.37,121.38,126.48,121.53,126.48z"/>
		<path id="XMLID_19091_" d="M114.82,130.24c0.08,0,0.14-0.06,0.14-0.14c0-0.08-0.06-0.14-0.14-0.14c-0.08,0-0.14,0.06-0.14,0.14
			C114.67,130.18,114.74,130.24,114.82,130.24z"/>
		<path id="XMLID_19090_" d="M107.26,132.13c0.17,0,0.31-0.14,0.31-0.3c0-0.17-0.14-0.31-0.31-0.31c-0.17,0-0.31,0.14-0.31,0.31
			C106.96,131.99,107.09,132.13,107.26,132.13z"/>
		<path id="XMLID_19089_" d="M99.54,131.62c0.21,0,0.38-0.17,0.38-0.38c0-0.21-0.17-0.38-0.38-0.38c-0.21,0-0.38,0.17-0.38,0.38
			C99.16,131.45,99.33,131.62,99.54,131.62z"/>
		<path id="XMLID_19088_" d="M92.33,128.72c0.17,0,0.31-0.14,0.31-0.31c0-0.17-0.14-0.3-0.31-0.3c-0.17,0-0.31,0.14-0.31,0.3
			C92.02,128.58,92.16,128.72,92.33,128.72z"/>
		<path id="XMLID_19087_" d="M86.27,124.18c0.33,0,0.6-0.27,0.6-0.59c0-0.33-0.26-0.6-0.6-0.6c-0.33,0-0.59,0.27-0.59,0.6
			C85.68,123.91,85.94,124.18,86.27,124.18z"/>
		<path id="XMLID_19086_" d="M81.91,117.63c0.25,0,0.45-0.2,0.45-0.45c0-0.25-0.2-0.45-0.45-0.45c-0.25,0-0.45,0.2-0.45,0.45
			C81.46,117.43,81.66,117.63,81.91,117.63z"/>
		<path id="XMLID_19085_" d="M79.62,110.19c0.23,0,0.41-0.18,0.41-0.41c0-0.23-0.18-0.41-0.41-0.41c-0.23,0-0.42,0.18-0.42,0.41
			C79.21,110.01,79.4,110.19,79.62,110.19z"/>
		<circle id="XMLID_19084_" cx="79.62" cy="102.03" r="0.49"/>
		<path id="XMLID_19083_" d="M81.91,95.32c0.38,0,0.69-0.31,0.69-0.69c0-0.38-0.31-0.68-0.69-0.68c-0.38,0-0.68,0.31-0.68,0.68
			C81.22,95.01,81.53,95.32,81.91,95.32z"/>
		<path id="XMLID_19082_" d="M86.27,88.91c0.38,0,0.69-0.31,0.69-0.68c0-0.38-0.31-0.69-0.69-0.69c-0.38,0-0.68,0.31-0.68,0.69
			C85.59,88.61,85.89,88.91,86.27,88.91z"/>
		<path id="XMLID_19081_" d="M92.33,84.09c0.38,0,0.68-0.31,0.68-0.69c0-0.38-0.31-0.68-0.68-0.68c-0.38,0-0.68,0.31-0.68,0.68
			C91.64,83.78,91.95,84.09,92.33,84.09z"/>
		<path id="XMLID_19080_" d="M99.54,81.06c0.27,0,0.49-0.22,0.49-0.49c0-0.27-0.22-0.49-0.49-0.49c-0.27,0-0.49,0.22-0.49,0.49
			C99.05,80.84,99.27,81.06,99.54,81.06z"/>
		<path id="XMLID_19079_" d="M107.26,80.41c0.23,0,0.42-0.18,0.42-0.41c0-0.23-0.19-0.41-0.42-0.41c-0.23,0-0.41,0.18-0.41,0.41
			C106.85,80.22,107.03,80.41,107.26,80.41z"/>
		<path id="XMLID_19078_" d="M114.82,82.16c0.25,0,0.45-0.2,0.45-0.45s-0.2-0.45-0.45-0.45c-0.25,0-0.45,0.2-0.45,0.45
			S114.57,82.16,114.82,82.16z"/>
		<path id="XMLID_19077_" d="M121.53,86.18c0.33,0,0.6-0.27,0.6-0.59c0-0.33-0.27-0.6-0.6-0.6c-0.33,0-0.6,0.27-0.6,0.6
			C120.93,85.92,121.2,86.18,121.53,86.18z"/>
		<circle id="XMLID_19076_" cx="126.8" cy="91.27" r="0.31"/>
		<path id="XMLID_19075_" d="M130.15,98.63c0.21,0,0.38-0.17,0.38-0.38c0-0.21-0.17-0.38-0.38-0.38c-0.21,0-0.38,0.17-0.38,0.38
			C129.78,98.45,129.95,98.63,130.15,98.63z"/>
		<path id="XMLID_19074_" d="M139.97,106.59c0.38,0,0.69-0.31,0.69-0.69c0-0.38-0.31-0.68-0.69-0.68c-0.38,0-0.68,0.31-0.68,0.68
			C139.29,106.29,139.59,106.59,139.97,106.59z"/>
		<path id="XMLID_19073_" d="M139.1,114.36c0.41,0,0.74-0.33,0.74-0.74c0-0.41-0.33-0.74-0.74-0.74c-0.41,0-0.74,0.33-0.74,0.74
			C138.36,114.03,138.7,114.36,139.1,114.36z"/>
		<path id="XMLID_19072_" d="M136.54,121.28c0.19,0,0.34-0.15,0.34-0.34c0-0.19-0.15-0.34-0.34-0.34s-0.34,0.15-0.34,0.34
			C136.2,121.13,136.35,121.28,136.54,121.28z"/>
		<circle id="XMLID_19071_" cx="132.41" cy="127.51" r="0.49"/>
		<path id="XMLID_19070_" d="M126.93,133.49c0.27,0,0.49-0.22,0.49-0.49c0-0.27-0.22-0.49-0.49-0.49c-0.27,0-0.49,0.22-0.49,0.49
			C126.44,133.27,126.66,133.49,126.93,133.49z"/>
		<path id="XMLID_19069_" d="M120.36,137.47c0.19,0,0.34-0.15,0.34-0.34c0-0.19-0.15-0.34-0.34-0.34c-0.19,0-0.34,0.15-0.34,0.34
			C120.01,137.32,120.17,137.47,120.36,137.47z"/>
		<path id="XMLID_19068_" d="M113.03,140.43c0.41,0,0.74-0.33,0.74-0.74c0-0.41-0.33-0.74-0.74-0.74c-0.41,0-0.74,0.33-0.74,0.74
			C112.29,140.1,112.63,140.43,113.03,140.43z"/>
		<path id="XMLID_19067_" d="M105.32,141.24c0.38,0,0.68-0.31,0.68-0.68c0-0.38-0.31-0.69-0.68-0.69c-0.38,0-0.68,0.31-0.68,0.69
			C104.64,140.94,104.94,141.24,105.32,141.24z"/>
		<path id="XMLID_19066_" d="M97.61,140.45c0.42,0,0.75-0.34,0.75-0.76c0-0.42-0.34-0.76-0.75-0.76c-0.42,0-0.76,0.34-0.76,0.76
			C96.85,140.11,97.19,140.45,97.61,140.45z"/>
		<path id="XMLID_19065_" d="M90.29,137.69c0.31,0,0.56-0.25,0.56-0.56c0-0.31-0.25-0.56-0.56-0.56c-0.31,0-0.56,0.25-0.56,0.56
			C89.73,137.44,89.98,137.69,90.29,137.69z"/>
		<path id="XMLID_19064_" d="M83.72,133.9c0.5,0,0.9-0.4,0.9-0.9c0-0.5-0.41-0.9-0.9-0.9s-0.9,0.4-0.9,0.9
			C82.81,133.5,83.22,133.9,83.72,133.9z"/>
		<path id="XMLID_19063_" d="M78.23,128.11c0.33,0,0.6-0.27,0.6-0.59c0-0.33-0.26-0.6-0.6-0.6c-0.33,0-0.59,0.27-0.59,0.6
			C77.64,127.84,77.9,128.11,78.23,128.11z"/>
		<path id="XMLID_19062_" d="M74.1,121.84c0.5,0,0.9-0.4,0.9-0.9c0-0.5-0.41-0.9-0.9-0.9c-0.5,0-0.9,0.4-0.9,0.9
			C73.2,121.44,73.6,121.84,74.1,121.84z"/>
		<path id="XMLID_19061_" d="M71.54,114.52c0.5,0,0.9-0.4,0.9-0.9s-0.41-0.9-0.9-0.9s-0.9,0.4-0.9,0.9S71.04,114.52,71.54,114.52z"
			/>
		<path id="XMLID_19060_" d="M70.67,106.75c0.47,0,0.85-0.38,0.85-0.85c0-0.47-0.38-0.85-0.85-0.85c-0.47,0-0.85,0.38-0.85,0.85
			C69.83,106.38,70.2,106.75,70.67,106.75z"/>
		<path id="XMLID_19059_" d="M71.54,99.13c0.52,0,0.94-0.42,0.94-0.94c0-0.52-0.42-0.94-0.94-0.94s-0.94,0.42-0.94,0.94
			C70.6,98.71,71.02,99.13,71.54,99.13z"/>
		<path id="XMLID_19058_" d="M74.1,92.08c0.67,0,1.21-0.54,1.21-1.21c0-0.67-0.54-1.21-1.21-1.21c-0.67,0-1.21,0.54-1.21,1.21
			C72.9,91.54,73.43,92.08,74.1,92.08z"/>
		<path id="XMLID_19057_" d="M78.23,85.35c0.58,0,1.05-0.47,1.05-1.05c0-0.58-0.47-1.05-1.05-1.05c-0.57,0-1.04,0.47-1.04,1.05
			C77.19,84.88,77.65,85.35,78.23,85.35z"/>
		<path id="XMLID_19056_" d="M83.72,79.86c0.58,0,1.04-0.47,1.04-1.05c0-0.58-0.47-1.05-1.04-1.05c-0.58,0-1.04,0.47-1.04,1.05
			C82.67,79.39,83.14,79.86,83.72,79.86z"/>
		<path id="XMLID_19055_" d="M90.29,75.89c0.67,0,1.21-0.54,1.21-1.21c0-0.67-0.54-1.21-1.21-1.21s-1.21,0.54-1.21,1.21
			C89.08,75.35,89.62,75.89,90.29,75.89z"/>
		<path id="XMLID_19054_" d="M97.61,73.06c0.51,0,0.93-0.42,0.93-0.94c0-0.52-0.42-0.94-0.93-0.94c-0.52,0-0.94,0.42-0.94,0.94
			C96.67,72.64,97.09,73.06,97.61,73.06z"/>
		<path id="XMLID_19053_" d="M105.32,72.1c0.47,0,0.85-0.38,0.85-0.85c0-0.47-0.38-0.85-0.85-0.85c-0.47,0-0.85,0.38-0.85,0.85
			C104.48,71.72,104.85,72.1,105.32,72.1z"/>
		<path id="XMLID_19052_" d="M113.03,73.02c0.5,0,0.9-0.4,0.9-0.9c0-0.5-0.4-0.9-0.9-0.9c-0.5,0-0.9,0.4-0.9,0.9
			C112.13,72.62,112.53,73.02,113.03,73.02z"/>
		<path id="XMLID_19051_" d="M120.36,75.59c0.5,0,0.9-0.4,0.9-0.9c0-0.5-0.41-0.9-0.9-0.9c-0.5,0-0.9,0.4-0.9,0.9
			C119.46,75.19,119.86,75.59,120.36,75.59z"/>
		<path id="XMLID_19050_" d="M126.93,79.41c0.33,0,0.6-0.27,0.6-0.59c0-0.33-0.27-0.6-0.6-0.6c-0.33,0-0.59,0.27-0.59,0.6
			C126.33,79.14,126.6,79.41,126.93,79.41z"/>
		<path id="XMLID_19049_" d="M132.41,85.2c0.5,0,0.9-0.4,0.9-0.9s-0.4-0.9-0.9-0.9c-0.5,0-0.9,0.4-0.9,0.9S131.92,85.2,132.41,85.2z
			"/>
		<path id="XMLID_19048_" d="M136.54,91.43c0.31,0,0.56-0.25,0.56-0.56s-0.25-0.56-0.56-0.56c-0.31,0-0.56,0.25-0.56,0.56
			S136.23,91.43,136.54,91.43z"/>
		<path id="XMLID_19047_" d="M139.1,98.95c0.42,0,0.76-0.34,0.76-0.76c0-0.42-0.34-0.76-0.76-0.76c-0.42,0-0.76,0.34-0.76,0.76
			C138.35,98.61,138.69,98.95,139.1,98.95z"/>
		<path id="XMLID_19046_" d="M148.64,107.2c0.72,0,1.3-0.58,1.3-1.3c0-0.72-0.58-1.3-1.3-1.3s-1.3,0.58-1.3,1.3
			C147.34,106.62,147.92,107.2,148.64,107.2z"/>
		<path id="XMLID_19045_" d="M147.94,114.99c0.74,0,1.35-0.6,1.35-1.35c0-0.75-0.61-1.35-1.35-1.35c-0.75,0-1.35,0.6-1.35,1.35
			C146.59,114.39,147.19,114.99,147.94,114.99z"/>
		<path id="XMLID_19044_" d="M145.87,121.87c0.41,0,0.74-0.33,0.74-0.74c0-0.41-0.33-0.74-0.74-0.74c-0.41,0-0.74,0.33-0.74,0.74
			C145.14,121.53,145.47,121.87,145.87,121.87z"/>
		<path id="XMLID_19043_" d="M142.51,129.02c0.5,0,0.9-0.4,0.9-0.9c0-0.5-0.4-0.9-0.9-0.9c-0.5,0-0.9,0.4-0.9,0.9
			C141.6,128.62,142.01,129.02,142.51,129.02z"/>
		<path id="XMLID_19042_" d="M137.94,135.16c0.42,0,0.75-0.34,0.75-0.76c0-0.42-0.34-0.76-0.75-0.76c-0.42,0-0.76,0.34-0.76,0.76
			C137.18,134.82,137.52,135.16,137.94,135.16z"/>
		<path id="XMLID_19041_" d="M132.33,141.03c0.7,0,1.26-0.57,1.26-1.26c0-0.7-0.56-1.26-1.26-1.26c-0.69,0-1.26,0.56-1.26,1.26
			C131.07,140.47,131.63,141.03,132.33,141.03z"/>
		<path id="XMLID_19040_" d="M125.85,144.95c0.5,0,0.9-0.4,0.9-0.9c0-0.5-0.4-0.9-0.9-0.9c-0.5,0-0.9,0.4-0.9,0.9
			C124.94,144.55,125.35,144.95,125.85,144.95z"/>
		<path id="XMLID_19039_" d="M118.71,147.84c0.41,0,0.74-0.33,0.74-0.74c0-0.41-0.33-0.74-0.74-0.74c-0.41,0-0.74,0.33-0.74,0.74
			C117.97,147.51,118.3,147.84,118.71,147.84z"/>
		<path id="XMLID_19038_" d="M111.13,150.13c0.72,0,1.3-0.58,1.3-1.3c0-0.72-0.58-1.3-1.3-1.3c-0.72,0-1.29,0.58-1.29,1.3
			C109.84,149.55,110.42,150.13,111.13,150.13z"/>
		<path id="XMLID_19037_" d="M103.38,150.58c0.78,0,1.4-0.63,1.4-1.41c0-0.78-0.63-1.4-1.4-1.4c-0.78,0-1.41,0.63-1.41,1.4
			C101.97,149.95,102.6,150.58,103.38,150.58z"/>
		<path id="XMLID_19036_" d="M95.68,149.54c0.78,0,1.4-0.63,1.4-1.4c0-0.78-0.63-1.41-1.4-1.41c-0.78,0-1.41,0.63-1.41,1.41
			C94.28,148.91,94.91,149.54,95.68,149.54z"/>
		<path id="XMLID_19035_" d="M88.3,146.74c0.56,0,1.01-0.45,1.01-1.01c0-0.56-0.45-1.01-1.01-1.01s-1.01,0.45-1.01,1.01
			C87.29,146.29,87.74,146.74,88.3,146.74z"/>
		<path id="XMLID_19034_" d="M81.46,143.46c0.78,0,1.4-0.63,1.4-1.41c0-0.78-0.63-1.4-1.4-1.4c-0.78,0-1.41,0.63-1.41,1.4
			C80.05,142.83,80.69,143.46,81.46,143.46z"/>
		<circle id="XMLID_19033_" cx="75.39" cy="137.21" r="1.46"/>
		<path id="XMLID_19032_" d="M70.28,132.83c0.81,0,1.46-0.65,1.46-1.46c0-0.81-0.65-1.46-1.46-1.46c-0.81,0-1.46,0.65-1.46,1.46
			C68.82,132.17,69.47,132.83,70.28,132.83z"/>
		<path id="XMLID_19031_" d="M66.3,126.59c1.04,0,1.89-0.85,1.89-1.89c0-1.04-0.85-1.89-1.89-1.89c-1.04,0-1.89,0.85-1.89,1.89
			C64.4,125.74,65.25,126.59,66.3,126.59z"/>
		<path id="XMLID_19030_" d="M63.57,119.07c0.91,0,1.64-0.74,1.64-1.64c0-0.9-0.73-1.64-1.64-1.64c-0.91,0-1.64,0.73-1.64,1.64
			C61.93,118.34,62.66,119.07,63.57,119.07z"/>
		<path id="XMLID_19029_" d="M62.18,111.38c0.87,0,1.58-0.71,1.58-1.59c0-0.88-0.71-1.58-1.58-1.58c-0.88,0-1.59,0.71-1.59,1.58
			C60.6,110.67,61.31,111.38,62.18,111.38z"/>
		<path id="XMLID_19028_" d="M62.18,103.72c0.93,0,1.69-0.76,1.69-1.69c0-0.93-0.76-1.69-1.69-1.69c-0.94,0-1.7,0.76-1.7,1.69
			C60.49,102.96,61.25,103.72,62.18,103.72z"/>
		<path id="XMLID_19027_" d="M63.57,96.42c1.12,0,2.03-0.91,2.03-2.04c0-1.12-0.91-2.04-2.03-2.04c-1.12,0-2.04,0.91-2.04,2.04
			C61.53,95.51,62.44,96.42,63.57,96.42z"/>
		<circle id="XMLID_19026_" cx="66.3" cy="87.11" r="2.59"/>
		<circle id="XMLID_19025_" cx="70.28" cy="80.45" r="1.64"/>
		<path id="XMLID_19024_" d="M75.39,77c1.33,0,2.4-1.07,2.4-2.4c0-1.32-1.07-2.4-2.4-2.4c-1.32,0-2.39,1.07-2.39,2.4
			C72.99,75.92,74.07,77,75.39,77z"/>
		<circle id="XMLID_19023_" cx="81.46" cy="69.76" r="2.59"/>
		<path id="XMLID_19022_" d="M88.3,68.11c1.12,0,2.03-0.91,2.03-2.04c0-1.12-0.91-2.04-2.03-2.04c-1.12,0-2.04,0.91-2.04,2.04
			C86.26,67.2,87.18,68.11,88.3,68.11z"/>
		<path id="XMLID_19021_" d="M95.68,65.37c0.93,0,1.69-0.76,1.69-1.69c0-0.93-0.76-1.69-1.69-1.69c-0.94,0-1.7,0.76-1.7,1.69
			C93.99,64.61,94.75,65.37,95.68,65.37z"/>
		<path id="XMLID_19020_" d="M103.38,64.33c0.93,0,1.69-0.76,1.69-1.69c0-0.94-0.76-1.69-1.69-1.69c-0.94,0-1.7,0.76-1.7,1.69
			C101.68,63.57,102.44,64.33,103.38,64.33z"/>
		<path id="XMLID_19019_" d="M111.13,64.57c0.88,0,1.59-0.71,1.59-1.58c0-0.88-0.71-1.59-1.59-1.59c-0.87,0-1.58,0.71-1.58,1.59
			C109.55,63.86,110.26,64.57,111.13,64.57z"/>
		
			<ellipse id="XMLID_19018_" transform="matrix(0.9246 -0.381 0.381 0.9246 -15.7013 50.1012)" cx="118.71" cy="64.71" rx="1.64" ry="1.64"/>
		<path id="XMLID_19017_" d="M125.85,69.66c1.04,0,1.89-0.85,1.89-1.89s-0.85-1.89-1.89-1.89c-1.04,0-1.89,0.85-1.89,1.89
			S124.8,69.66,125.85,69.66z"/>
		<path id="XMLID_19016_" d="M132.33,73.5c0.81,0,1.46-0.65,1.46-1.46c0-0.81-0.65-1.46-1.46-1.46c-0.8,0-1.46,0.65-1.46,1.46
			C130.87,72.85,131.52,73.5,132.33,73.5z"/>
		<circle id="XMLID_19015_" cx="137.94" cy="77.41" r="1.46"/>
		<path id="XMLID_19014_" d="M142.51,85.1c0.78,0,1.4-0.63,1.4-1.41c0-0.78-0.63-1.4-1.4-1.4c-0.78,0-1.41,0.63-1.41,1.4
			C141.1,84.47,141.73,85.1,142.51,85.1z"/>
		<path id="XMLID_19013_" d="M145.87,91.7c0.56,0,1.01-0.45,1.01-1.01s-0.45-1.01-1.01-1.01c-0.56,0-1.01,0.45-1.01,1.01
			S145.32,91.7,145.87,91.7z"/>
		<path id="XMLID_19012_" d="M147.94,99.58c0.78,0,1.4-0.63,1.4-1.4c0-0.78-0.63-1.4-1.4-1.4c-0.78,0-1.41,0.63-1.41,1.4
			C146.54,98.95,147.16,99.58,147.94,99.58z"/>
		<path id="XMLID_19011_" d="M157.3,108.21c1.27,0,2.31-1.03,2.31-2.31c0-1.27-1.03-2.31-2.31-2.31c-1.28,0-2.31,1.03-2.31,2.31
			C154.99,107.18,156.02,108.21,157.3,108.21z"/>
		<path id="XMLID_19010_" d="M156.72,116.05c1.32,0,2.4-1.07,2.4-2.4c0-1.32-1.08-2.4-2.4-2.4c-1.33,0-2.4,1.07-2.4,2.4
			C154.32,114.98,155.39,116.05,156.72,116.05z"/>
		<path id="XMLID_19009_" d="M154.99,122.58c0.75,0,1.35-0.61,1.35-1.35c0-0.75-0.61-1.35-1.35-1.35c-0.74,0-1.35,0.61-1.35,1.35
			C153.64,121.97,154.24,122.58,154.99,122.58z"/>
		<path id="XMLID_19008_" d="M152.15,130.06c0.89,0,1.6-0.72,1.6-1.6c0-0.88-0.72-1.6-1.6-1.6c-0.88,0-1.6,0.72-1.6,1.6
			C150.55,129.34,151.27,130.06,152.15,130.06z"/>
		<path id="XMLID_19007_" d="M148.27,137.22c1.12,0,2.04-0.91,2.04-2.04c0-1.12-0.91-2.04-2.04-2.04c-1.12,0-2.03,0.91-2.03,2.04
			C146.23,136.31,147.14,137.22,148.27,137.22z"/>
		<path id="XMLID_19006_" d="M143.42,143.13c1.04,0,1.88-0.84,1.88-1.87c0-1.03-0.84-1.87-1.88-1.87c-1.03,0-1.87,0.84-1.87,1.87
			C141.55,142.29,142.39,143.13,143.42,143.13z"/>
		<path id="XMLID_19005_" d="M137.73,147.81c0.69,0,1.26-0.57,1.26-1.26c0-0.7-0.57-1.26-1.26-1.26c-0.7,0-1.26,0.56-1.26,1.26
			C136.47,147.24,137.03,147.81,137.73,147.81z"/>
		<path id="XMLID_19004_" d="M131.31,152.96c1.12,0,2.03-0.91,2.03-2.04c0-1.12-0.91-2.04-2.03-2.04c-1.12,0-2.04,0.91-2.04,2.04
			C129.27,152.04,130.19,152.96,131.31,152.96z"/>
		<path id="XMLID_19003_" d="M124.31,155.89c0.88,0,1.6-0.72,1.6-1.6c0-0.89-0.72-1.6-1.6-1.6c-0.88,0-1.6,0.72-1.6,1.6
			C122.71,155.18,123.43,155.89,124.31,155.89z"/>
		<path id="XMLID_19002_" d="M116.89,158.98c1.33,0,2.4-1.07,2.4-2.4c0-1.32-1.07-2.4-2.4-2.4c-1.32,0-2.4,1.07-2.4,2.4
			C114.49,157.9,115.57,158.98,116.89,158.98z"/>
		<path id="XMLID_19001_" d="M109.21,160.04c1.27,0,2.31-1.03,2.31-2.31c0-1.27-1.03-2.31-2.31-2.31s-2.31,1.03-2.31,2.31
			C106.9,159.01,107.93,160.04,109.21,160.04z"/>
		<path id="XMLID_19000_" d="M101.44,160.21c1.36,0,2.47-1.11,2.47-2.47c0-1.36-1.1-2.47-2.47-2.47c-1.36,0-2.47,1.11-2.47,2.47
			C98.97,159.1,100.07,160.21,101.44,160.21z"/>
		<path id="XMLID_18999_" d="M93.76,159.37c1.54,0,2.79-1.25,2.79-2.79c0-1.54-1.25-2.79-2.79-2.79c-1.54,0-2.79,1.25-2.79,2.79
			C90.96,158.12,92.21,159.37,93.76,159.37z"/>
		<circle id="XMLID_18998_" cx="86.33" cy="154.29" r="2.27"/>
		<circle id="XMLID_18997_" cx="79.33" cy="150.92" r="2.27"/>
		<path id="XMLID_18996_" d="M72.91,148.65c1.17,0,2.11-0.94,2.11-2.11c0-1.16-0.94-2.11-2.11-2.11c-1.16,0-2.11,0.94-2.11,2.11
			C70.81,147.71,71.75,148.65,72.91,148.65z"/>
		<path id="XMLID_18995_" d="M67.22,144.16c1.6,0,2.9-1.3,2.9-2.9s-1.3-2.9-2.9-2.9c-1.6,0-2.9,1.3-2.9,2.9
			S65.62,144.16,67.22,144.16z"/>
		<path id="XMLID_18994_" d="M62.38,137.58c1.32,0,2.4-1.07,2.4-2.4c0-1.32-1.08-2.4-2.4-2.4c-1.33,0-2.4,1.07-2.4,2.4
			C59.98,136.51,61.05,137.58,62.38,137.58z"/>
		<circle id="XMLID_18993_" cx="58.49" cy="128.46" r="2.9"/>
		<path id="XMLID_18992_" d="M55.65,123.98c1.52,0,2.76-1.23,2.76-2.76c0-1.52-1.23-2.76-2.76-2.76c-1.52,0-2.76,1.23-2.76,2.76
			C52.9,122.75,54.13,123.98,55.65,123.98z"/>
		<path id="XMLID_18991_" d="M53.92,116.41c1.52,0,2.76-1.24,2.76-2.76c0-1.52-1.23-2.76-2.76-2.76c-1.52,0-2.76,1.23-2.76,2.76
			C51.17,115.18,52.4,116.41,53.92,116.41z"/>
		<path id="XMLID_18990_" d="M53.35,108.63c1.5,0,2.72-1.22,2.72-2.72c0-1.5-1.22-2.72-2.72-2.72c-1.5,0-2.72,1.22-2.72,2.72
			C50.62,107.41,51.84,108.63,53.35,108.63z"/>
		<path id="XMLID_18989_" d="M53.92,100.97c1.55,0,2.81-1.26,2.81-2.81c0-1.55-1.26-2.81-2.81-2.81c-1.55,0-2.81,1.26-2.81,2.81
			C51.11,99.71,52.37,100.97,53.92,100.97z"/>
		<path id="XMLID_18988_" d="M55.65,93.49c1.6,0,2.9-1.3,2.9-2.9c0-1.6-1.3-2.9-2.9-2.9c-1.6,0-2.9,1.3-2.9,2.9
			C52.75,92.19,54.05,93.49,55.65,93.49z"/>
		<path id="XMLID_18987_" d="M58.49,86.02c1.47,0,2.66-1.19,2.66-2.66c0-1.47-1.19-2.67-2.66-2.67s-2.67,1.19-2.67,2.67
			C55.82,84.83,57.02,86.02,58.49,86.02z"/>
		<path id="XMLID_18986_" d="M62.38,79.51c1.59,0,2.88-1.29,2.88-2.88c0-1.59-1.29-2.88-2.88-2.88c-1.59,0-2.88,1.29-2.88,2.88
			C59.49,78.22,60.78,79.51,62.38,79.51z"/>
		<path id="XMLID_18985_" d="M67.22,73.44c1.59,0,2.88-1.29,2.88-2.88c0-1.59-1.29-2.88-2.88-2.88c-1.59,0-2.88,1.29-2.88,2.88
			C64.34,72.14,65.63,73.44,67.22,73.44z"/>
		<path id="XMLID_18984_" d="M72.91,68.15c1.59,0,2.88-1.29,2.88-2.88c0-1.59-1.29-2.88-2.88-2.88c-1.59,0-2.88,1.29-2.88,2.88
			C70.03,66.86,71.32,68.15,72.91,68.15z"/>
		<path id="XMLID_18983_" d="M79.33,63.56c1.47,0,2.67-1.19,2.67-2.67c0-1.47-1.19-2.67-2.67-2.67c-1.47,0-2.66,1.19-2.66,2.67
			C76.67,62.37,77.86,63.56,79.33,63.56z"/>
		<path id="XMLID_18982_" d="M86.33,60.19c1.47,0,2.66-1.19,2.66-2.67c0-1.47-1.19-2.67-2.66-2.67c-1.47,0-2.67,1.19-2.67,2.67
			C83.66,58.99,84.86,60.19,86.33,60.19z"/>
		<path id="XMLID_18981_" d="M93.76,58.13c1.6,0,2.9-1.3,2.9-2.9c0-1.6-1.3-2.9-2.9-2.9c-1.6,0-2.9,1.3-2.9,2.9
			C90.86,56.83,92.15,58.13,93.76,58.13z"/>
		<path id="XMLID_18980_" d="M101.44,56.89c1.55,0,2.81-1.26,2.81-2.81c0-1.55-1.25-2.81-2.81-2.81c-1.55,0-2.81,1.26-2.81,2.81
			C98.63,55.63,99.89,56.89,101.44,56.89z"/>
		<path id="XMLID_18979_" d="M109.21,56.8c1.5,0,2.72-1.22,2.72-2.72c0-1.5-1.22-2.72-2.72-2.72s-2.72,1.22-2.72,2.72
			C106.48,55.58,107.7,56.8,109.21,56.8z"/>
		<path id="XMLID_18978_" d="M116.89,57.99c1.52,0,2.76-1.23,2.76-2.76c0-1.52-1.23-2.76-2.76-2.76c-1.52,0-2.76,1.24-2.76,2.76
			C114.13,56.75,115.36,57.99,116.89,57.99z"/>
		<path id="XMLID_18977_" d="M124.31,60.42c1.6,0,2.9-1.3,2.9-2.9c0-1.6-1.3-2.9-2.9-2.9c-1.6,0-2.9,1.3-2.9,2.9
			C121.41,59.13,122.71,60.42,124.31,60.42z"/>
		<path id="XMLID_18976_" d="M131.31,63.69c1.54,0,2.79-1.25,2.79-2.79s-1.25-2.79-2.79-2.79c-1.54,0-2.79,1.25-2.79,2.79
			S129.77,63.69,131.31,63.69z"/>
		<path id="XMLID_18975_" d="M137.73,67.67c1.32,0,2.39-1.07,2.39-2.4c0-1.32-1.07-2.4-2.39-2.4c-1.33,0-2.4,1.07-2.4,2.4
			C135.33,66.59,136.4,67.67,137.73,67.67z"/>
		<path id="XMLID_18974_" d="M143.42,72.66c1.17,0,2.11-0.94,2.11-2.11c0-1.16-0.94-2.11-2.11-2.11c-1.16,0-2.11,0.94-2.11,2.11
			C141.31,71.72,142.26,72.66,143.42,72.66z"/>
		<path id="XMLID_18973_" d="M148.27,79.49c1.58,0,2.87-1.28,2.87-2.87c0-1.58-1.28-2.86-2.87-2.86c-1.58,0-2.86,1.28-2.86,2.86
			C145.4,78.21,146.69,79.49,148.27,79.49z"/>
		
			<ellipse id="XMLID_18972_" transform="matrix(0.9869 -0.1611 0.1611 0.9869 -11.4431 25.6062)" cx="152.15" cy="83.35" rx="2.27" ry="2.27"/>
		<path id="XMLID_18971_" d="M154.99,92.32c0.96,0,1.73-0.78,1.73-1.73c0-0.95-0.78-1.73-1.73-1.73c-0.95,0-1.73,0.78-1.73,1.73
			C153.26,91.54,154.04,92.32,154.99,92.32z"/>
		<path id="XMLID_18970_" d="M156.72,100.63c1.36,0,2.47-1.11,2.47-2.47c0-1.36-1.1-2.47-2.47-2.47c-1.36,0-2.47,1.11-2.47,2.47
			C154.25,99.52,155.35,100.63,156.72,100.63z"/>
		<circle id="XMLID_18969_" cx="165.96" cy="105.91" r="2.74"/>
		<path id="XMLID_18968_" d="M165.46,116.36c1.49,0,2.7-1.21,2.7-2.7c0-1.49-1.21-2.7-2.7-2.7c-1.49,0-2.7,1.21-2.7,2.7
			C162.76,115.15,163.97,116.36,165.46,116.36z"/>
		<path id="XMLID_18967_" d="M163.98,123.68c1.32,0,2.39-1.07,2.39-2.4c0-1.32-1.07-2.4-2.39-2.4c-1.33,0-2.4,1.07-2.4,2.4
			C161.58,122.61,162.65,123.68,163.98,123.68z"/>
		<circle id="XMLID_18966_" cx="161.53" cy="128.66" r="2.67"/>
		<path id="XMLID_18965_" d="M158.16,138.57c1.6,0,2.9-1.3,2.9-2.9s-1.3-2.9-2.9-2.9c-1.6,0-2.9,1.3-2.9,2.9
			S156.56,138.57,158.16,138.57z"/>
		<path id="XMLID_18964_" d="M153.92,144.9c1.5,0,2.72-1.22,2.72-2.72c0-1.5-1.22-2.72-2.72-2.72c-1.5,0-2.72,1.22-2.72,2.72
			C151.2,143.68,152.42,144.9,153.92,144.9z"/>
		<circle id="XMLID_18963_" cx="148.88" cy="148.09" r="2.74"/>
		<path id="XMLID_18962_" d="M143.13,156.04c1.5,0,2.72-1.22,2.72-2.72c0-1.5-1.22-2.72-2.72-2.72s-2.72,1.22-2.72,2.72
			C140.41,154.82,141.63,156.04,143.13,156.04z"/>
		<path id="XMLID_18961_" d="M136.76,160.66c1.6,0,2.9-1.3,2.9-2.9c0-1.6-1.3-2.9-2.9-2.9c-1.6,0-2.9,1.3-2.9,2.9
			C133.86,159.36,135.16,160.66,136.76,160.66z"/>
		<path id="XMLID_18960_" d="M129.87,164.02c1.47,0,2.66-1.19,2.66-2.67c0-1.47-1.19-2.67-2.66-2.67c-1.47,0-2.67,1.19-2.67,2.67
			C127.2,162.83,128.4,164.02,129.87,164.02z"/>
		<path id="XMLID_18959_" d="M122.58,166.71c1.47,0,2.66-1.19,2.66-2.67c0-1.47-1.19-2.67-2.66-2.67c-1.47,0-2.67,1.19-2.67,2.67
			C119.91,165.51,121.1,166.71,122.58,166.71z"/>
		<path id="XMLID_18958_" d="M115,168.47c1.49,0,2.7-1.21,2.7-2.7c0-1.49-1.21-2.7-2.7-2.7c-1.49,0-2.7,1.21-2.7,2.7
			C112.3,167.26,113.51,168.47,115,168.47z"/>
		<path id="XMLID_18957_" d="M107.27,169.25c1.51,0,2.74-1.22,2.74-2.74s-1.22-2.74-2.74-2.74c-1.52,0-2.74,1.23-2.74,2.74
			S105.75,169.25,107.27,169.25z"/>
		<path id="XMLID_18956_" d="M99.5,168.9c1.45,0,2.63-1.18,2.63-2.63c0-1.45-1.18-2.63-2.63-2.63c-1.45,0-2.63,1.18-2.63,2.63
			C96.87,167.72,98.05,168.9,99.5,168.9z"/>
		<path id="XMLID_18955_" d="M91.83,167.82c1.54,0,2.79-1.25,2.79-2.79c0-1.54-1.25-2.79-2.79-2.79c-1.54,0-2.79,1.25-2.79,2.79
			C89.04,166.57,90.29,167.82,91.83,167.82z"/>
		<path id="XMLID_18954_" d="M84.38,165.7c1.59,0,2.88-1.29,2.88-2.88c0-1.59-1.29-2.88-2.88-2.88c-1.59,0-2.88,1.29-2.88,2.88
			C81.5,164.41,82.79,165.7,84.38,165.7z"/>
		<path id="XMLID_18953_" d="M77.27,161.98c1.27,0,2.31-1.03,2.31-2.31c0-1.27-1.03-2.31-2.31-2.31c-1.27,0-2.31,1.03-2.31,2.31
			C74.97,160.94,76,161.98,77.27,161.98z"/>
		<circle id="XMLID_18952_" cx="70.63" cy="155.64" r="2.86"/>
		<path id="XMLID_18951_" d="M64.55,153.25c1.35,0,2.45-1.1,2.45-2.45c0-1.35-1.1-2.45-2.45-2.45c-1.35,0-2.45,1.1-2.45,2.45
			C62.1,152.15,63.2,153.25,64.55,153.25z"/>
		<circle id="XMLID_18950_" cx="59.15" cy="145.21" r="2.13"/>
		<path id="XMLID_18949_" d="M54.5,141.78c1.54,0,2.8-1.25,2.8-2.79s-1.25-2.79-2.8-2.79c-1.54,0-2.79,1.25-2.79,2.79
			S52.96,141.78,54.5,141.78z"/>
		<path id="XMLID_18948_" d="M50.69,133.37c0.63,0,1.15-0.52,1.15-1.15c0-0.64-0.52-1.15-1.15-1.15c-0.64,0-1.16,0.52-1.16,1.15
			C49.53,132.85,50.05,133.37,50.69,133.37z"/>
		<path id="XMLID_18947_" d="M47.77,126.89c1.04,0,1.88-0.84,1.88-1.87c0-1.03-0.84-1.87-1.88-1.87c-1.03,0-1.87,0.84-1.87,1.87
			C45.9,126.05,46.74,126.89,47.77,126.89z"/>
		<path id="XMLID_18946_" d="M45.8,119.75c1.24,0,2.25-1.01,2.25-2.25c0-1.24-1.01-2.25-2.25-2.25c-1.24,0-2.25,1.01-2.25,2.25
			C43.55,118.74,44.55,119.75,45.8,119.75z"/>
		<path id="XMLID_18945_" d="M44.81,112.1c1.28,0,2.31-1.03,2.31-2.31c0-1.27-1.03-2.31-2.31-2.31c-1.27,0-2.31,1.03-2.31,2.31
			C42.5,111.07,43.53,112.1,44.81,112.1z"/>
		<path id="XMLID_18944_" d="M44.81,104.15c1.17,0,2.13-0.95,2.13-2.13c0-1.17-0.95-2.13-2.13-2.13s-2.13,0.95-2.13,2.13
			C42.68,103.2,43.63,104.15,44.81,104.15z"/>
		<path id="XMLID_18943_" d="M45.8,95.99c0.93,0,1.67-0.75,1.67-1.68c0-0.93-0.75-1.67-1.67-1.67c-0.92,0-1.67,0.75-1.67,1.67
			C44.13,95.24,44.88,95.99,45.8,95.99z"/>
		<path id="XMLID_18942_" d="M47.77,87.63c0.46,0,0.83-0.37,0.83-0.83c0-0.46-0.37-0.83-0.83-0.83s-0.83,0.37-0.83,0.83
			C46.94,87.26,47.31,87.63,47.77,87.63z"/>
		<path id="XMLID_18941_" d="M50.69,80.42c0.45,0,0.83-0.37,0.83-0.83s-0.37-0.83-0.83-0.83c-0.46,0-0.83,0.37-0.83,0.83
			S50.23,80.42,50.69,80.42z"/>
		<path id="XMLID_18940_" d="M54.5,74.65c1,0,1.82-0.81,1.82-1.82c0-1-0.82-1.82-1.82-1.82c-1,0-1.82,0.81-1.82,1.82
			C52.68,73.83,53.49,74.65,54.5,74.65z"/>
		<path id="XMLID_18939_" d="M59.15,66.94c0.19,0,0.34-0.15,0.34-0.34c0-0.19-0.16-0.34-0.34-0.34c-0.19,0-0.34,0.15-0.34,0.34
			C58.81,66.79,58.96,66.94,59.15,66.94z"/>
		<path id="XMLID_18938_" d="M64.55,61.36c0.19,0,0.34-0.15,0.34-0.34s-0.15-0.34-0.34-0.34c-0.19,0-0.34,0.15-0.34,0.34
			S64.37,61.36,64.55,61.36z"/>
		<path id="XMLID_18937_" d="M70.63,57.99c1,0,1.82-0.82,1.82-1.82c0-1-0.81-1.82-1.82-1.82c-1,0-1.82,0.81-1.82,1.82
			C68.81,57.18,69.62,57.99,70.63,57.99z"/>
		<path id="XMLID_18936_" d="M84.38,49.83c0.46,0,0.83-0.37,0.83-0.83c0-0.46-0.37-0.83-0.83-0.83c-0.46,0-0.83,0.37-0.83,0.83
			C83.55,49.46,83.92,49.83,84.38,49.83z"/>
		<path id="XMLID_18935_" d="M91.83,48.46c0.93,0,1.67-0.75,1.67-1.68c0-0.93-0.75-1.67-1.67-1.67c-0.92,0-1.67,0.75-1.67,1.67
			C90.15,47.71,90.9,48.46,91.83,48.46z"/>
		<path id="XMLID_18934_" d="M99.5,47.67c1.17,0,2.13-0.95,2.13-2.13c0-1.17-0.95-2.13-2.13-2.13c-1.17,0-2.13,0.95-2.13,2.13
			C97.37,46.72,98.32,47.67,99.5,47.67z"/>
		<path id="XMLID_18933_" d="M107.26,47.6c1.28,0,2.31-1.03,2.31-2.31c0-1.27-1.03-2.31-2.31-2.31c-1.27,0-2.31,1.03-2.31,2.31
			C104.96,46.57,105.99,47.6,107.26,47.6z"/>
		<path id="XMLID_18932_" d="M115,48.3c1.24,0,2.25-1.01,2.25-2.25c0-1.24-1.01-2.25-2.25-2.25c-1.24,0-2.25,1.01-2.25,2.25
			C112.75,47.29,113.76,48.3,115,48.3z"/>
		<path id="XMLID_18931_" d="M122.58,49.65c1.03,0,1.87-0.84,1.87-1.87c0-1.03-0.84-1.87-1.87-1.87c-1.04,0-1.88,0.84-1.88,1.87
			C120.7,48.81,121.54,49.65,122.58,49.65z"/>
		<path id="XMLID_18930_" d="M129.87,52.33c1.03,0,1.87-0.84,1.87-1.87c0-1.04-0.84-1.88-1.87-1.88c-1.04,0-1.88,0.84-1.88,1.88
			C127.99,51.49,128.83,52.33,129.87,52.33z"/>
		<path id="XMLID_18929_" d="M136.76,56.84c1.54,0,2.79-1.25,2.79-2.79c0-1.54-1.25-2.79-2.79-2.79c-1.54,0-2.79,1.25-2.79,2.79
			C133.97,55.59,135.21,56.84,136.76,56.84z"/>
		<circle id="XMLID_18928_" cx="143.13" cy="58.5" r="2.13"/>
		<circle id="XMLID_18927_" cx="148.88" cy="63.72" r="2.45"/>
		<path id="XMLID_18926_" d="M153.92,72.09c1.35,0,2.45-1.1,2.45-2.45c0-1.35-1.1-2.45-2.45-2.45c-1.35,0-2.45,1.1-2.45,2.45
			C151.47,70.99,152.57,72.09,153.92,72.09z"/>
		<path id="XMLID_18925_" d="M158.16,78.46c1.28,0,2.31-1.03,2.31-2.31c0-1.27-1.03-2.31-2.31-2.31c-1.27,0-2.31,1.03-2.31,2.31
			C155.85,77.42,156.88,78.46,158.16,78.46z"/>
		<path id="XMLID_18924_" d="M161.53,86.03c1.59,0,2.88-1.29,2.88-2.88c0-1.59-1.29-2.88-2.88-2.88c-1.59,0-2.88,1.29-2.88,2.88
			C158.65,84.74,159.94,86.03,161.53,86.03z"/>
		<path id="XMLID_18923_" d="M163.98,93.32c1.54,0,2.79-1.25,2.79-2.79c0-1.54-1.25-2.79-2.79-2.79c-1.54,0-2.8,1.25-2.8,2.79
			C161.18,92.07,162.44,93.32,163.98,93.32z"/>
		<path id="XMLID_18922_" d="M165.46,100.78c1.45,0,2.63-1.18,2.63-2.63c0-1.45-1.18-2.63-2.63-2.63s-2.63,1.18-2.63,2.63
			C162.83,99.61,164.01,100.78,165.46,100.78z"/>
		<path id="XMLID_18921_" d="M174.63,106.73c0.46,0,0.83-0.37,0.83-0.83c0-0.46-0.37-0.83-0.83-0.83s-0.83,0.37-0.83,0.83
			C173.8,106.36,174.17,106.73,174.63,106.73z"/>
		<path id="XMLID_18920_" d="M174.19,114.42c0.42,0,0.76-0.34,0.76-0.76c0-0.42-0.34-0.76-0.76-0.76c-0.42,0-0.75,0.34-0.75,0.76
			C173.43,114.08,173.77,114.42,174.19,114.42z"/>
		<path id="XMLID_18919_" d="M172.89,124.03c1.49,0,2.7-1.21,2.7-2.7c0-1.49-1.21-2.7-2.7-2.7c-1.49,0-2.7,1.21-2.7,2.7
			C170.18,122.82,171.39,124.03,172.89,124.03z"/>
		<path id="XMLID_18918_" d="M170.74,131.25c1.35,0,2.45-1.1,2.45-2.45c0-1.35-1.1-2.45-2.45-2.45c-1.35,0-2.45,1.1-2.45,2.45
			C168.28,130.15,169.38,131.25,170.74,131.25z"/>
		<path id="XMLID_18917_" d="M167.76,137.85c1.03,0,1.87-0.84,1.87-1.87c0-1.03-0.84-1.87-1.87-1.87c-1.04,0-1.88,0.84-1.88,1.87
			C165.89,137.01,166.73,137.85,167.76,137.85z"/>
		<circle id="XMLID_18916_" cx="164" cy="142.78" r="2.59"/>
		<path id="XMLID_18915_" d="M159.5,150.58c0.81,0,1.46-0.65,1.46-1.46c0-0.81-0.65-1.46-1.46-1.46c-0.8,0-1.46,0.65-1.46,1.46
			C158.04,149.92,158.7,150.58,159.5,150.58z"/>
		<path id="XMLID_18914_" d="M154.33,157.65c1.51,0,2.74-1.22,2.74-2.74c0-1.51-1.23-2.74-2.74-2.74c-1.51,0-2.74,1.22-2.74,2.74
			C151.59,156.42,152.81,157.65,154.33,157.65z"/>
		
			<ellipse id="XMLID_18913_" transform="matrix(0.987 -0.1608 0.1608 0.987 -23.8097 25.9669)" cx="148.53" cy="160.09" rx="1.46" ry="1.46"/>
		<circle id="XMLID_18912_" cx="142.19" cy="164.59" r="2.59"/>
		<path id="XMLID_18911_" d="M135.39,170.22c1.03,0,1.87-0.84,1.87-1.87c0-1.04-0.84-1.88-1.87-1.88c-1.04,0-1.88,0.84-1.88,1.88
			C133.52,169.38,134.36,170.22,135.39,170.22z"/>
		<path id="XMLID_18910_" d="M128.21,173.77c1.35,0,2.45-1.1,2.45-2.45s-1.1-2.45-2.45-2.45c-1.35,0-2.45,1.1-2.45,2.45
			S126.86,173.77,128.21,173.77z"/>
		<path id="XMLID_18909_" d="M120.74,176.17c1.49,0,2.7-1.21,2.7-2.7c0-1.49-1.21-2.7-2.7-2.7c-1.49,0-2.7,1.21-2.7,2.7
			C118.04,174.97,119.25,176.17,120.74,176.17z"/>
		<path id="XMLID_18908_" d="M113.08,175.53c0.42,0,0.76-0.34,0.76-0.76c0-0.42-0.34-0.76-0.76-0.76c-0.42,0-0.75,0.34-0.75,0.76
			C112.33,175.19,112.66,175.53,113.08,175.53z"/>
		<path id="XMLID_18907_" d="M105.32,176.04c0.46,0,0.83-0.37,0.83-0.83c0-0.46-0.37-0.83-0.83-0.83c-0.46,0-0.83,0.37-0.83,0.83
			C104.49,175.67,104.86,176.04,105.32,176.04z"/>
		<path id="XMLID_18906_" d="M97.56,175.37c0.33,0,0.59-0.27,0.59-0.6c0-0.33-0.26-0.59-0.59-0.59c-0.33,0-0.6,0.27-0.6,0.59
			C96.97,175.1,97.24,175.37,97.56,175.37z"/>
		<path id="XMLID_18905_" d="M89.9,175.78c1.27,0,2.31-1.03,2.31-2.31c0-1.27-1.03-2.31-2.31-2.31c-1.27,0-2.31,1.03-2.31,2.31
			C87.59,174.75,88.63,175.78,89.9,175.78z"/>
		<path id="XMLID_18904_" d="M82.43,172.92c0.88,0,1.6-0.72,1.6-1.6c0-0.88-0.72-1.6-1.6-1.6c-0.89,0-1.6,0.72-1.6,1.6
			C80.83,172.21,81.55,172.92,82.43,172.92z"/>
		<path id="XMLID_18903_" d="M75.25,168.76c0.23,0,0.41-0.19,0.41-0.41c0-0.23-0.18-0.42-0.41-0.42c-0.23,0-0.42,0.19-0.42,0.42
			C74.84,168.57,75.02,168.76,75.25,168.76z"/>
		<path id="XMLID_18902_" d="M68.45,165.58c0.55,0,0.99-0.44,0.99-0.99c0-0.55-0.44-0.99-0.99-0.99c-0.55,0-0.99,0.44-0.99,0.99
			C67.46,165.13,67.9,165.58,68.45,165.58z"/>
		<path id="XMLID_18901_" d="M62.11,161.08c0.55,0,0.99-0.44,0.99-0.99c0-0.55-0.44-0.99-0.99-0.99c-0.55,0-0.99,0.44-0.99,0.99
			C61.12,160.64,61.57,161.08,62.11,161.08z"/>
		<path id="XMLID_18900_" d="M56.32,155.74c0.46,0,0.83-0.37,0.83-0.83c0-0.46-0.37-0.83-0.83-0.83c-0.46,0-0.83,0.37-0.83,0.83
			C55.49,155.37,55.86,155.74,56.32,155.74z"/>
		<path id="XMLID_18899_" d="M46.64,142.87c0.05,0,0.09-0.04,0.09-0.09c0-0.05-0.04-0.09-0.09-0.09c-0.05,0-0.09,0.04-0.09,0.09
			C46.55,142.83,46.59,142.87,46.64,142.87z"/>
		<path id="XMLID_18898_" d="M142.19,47.32c0.05,0,0.09-0.04,0.09-0.09c0-0.05-0.04-0.09-0.09-0.09c-0.05,0-0.09,0.04-0.09,0.09
			C142.1,47.28,142.14,47.32,142.19,47.32z"/>
		<circle id="XMLID_18897_" cx="154.33" cy="56.9" r="0.83"/>
		<path id="XMLID_18896_" d="M159.5,63.69c0.55,0,0.99-0.44,0.99-0.99c0-0.55-0.44-0.99-0.99-0.99c-0.55,0-0.99,0.44-0.99,0.99
			C158.51,63.24,158.96,63.69,159.5,63.69z"/>
		<path id="XMLID_18895_" d="M164,70.03c0.55,0,0.99-0.44,0.99-0.99c0-0.55-0.44-0.99-0.99-0.99c-0.55,0-0.99,0.44-0.99,0.99
			C163.01,69.58,163.45,70.03,164,70.03z"/>
		<path id="XMLID_18894_" d="M167.76,76.25c0.23,0,0.41-0.19,0.41-0.41c0-0.23-0.18-0.41-0.41-0.41c-0.23,0-0.42,0.18-0.42,0.41
			C167.35,76.07,167.53,76.25,167.76,76.25z"/>
		<path id="XMLID_18893_" d="M170.74,84.62c0.88,0,1.6-0.72,1.6-1.6c0-0.88-0.72-1.6-1.6-1.6c-0.89,0-1.6,0.72-1.6,1.6
			C169.13,83.9,169.85,84.62,170.74,84.62z"/>
		<path id="XMLID_18892_" d="M172.89,92.79c1.27,0,2.31-1.03,2.31-2.31c0-1.27-1.03-2.31-2.31-2.31c-1.27,0-2.31,1.03-2.31,2.31
			C170.58,91.76,171.62,92.79,172.89,92.79z"/>
		<path id="XMLID_18891_" d="M174.19,98.74c0.33,0,0.6-0.27,0.6-0.59c0-0.33-0.27-0.6-0.6-0.6c-0.33,0-0.59,0.27-0.59,0.6
			C173.6,98.48,173.86,98.74,174.19,98.74z"/>
		<path id="XMLID_18890_" d="M181.74,122.11c0.42,0,0.76-0.34,0.76-0.76c0-0.42-0.34-0.76-0.76-0.76c-0.42,0-0.76,0.34-0.76,0.76
			C180.98,121.77,181.32,122.11,181.74,122.11z"/>
		<path id="XMLID_18889_" d="M179.82,129.14c0.14,0,0.25-0.11,0.25-0.25c0-0.14-0.11-0.25-0.25-0.25c-0.14,0-0.25,0.11-0.25,0.25
			C179.57,129.03,179.68,129.14,179.82,129.14z"/>
		<path id="XMLID_18888_" d="M126.44,181.21c0.14,0,0.25-0.11,0.25-0.25c0-0.14-0.11-0.25-0.25-0.25c-0.14,0-0.25,0.11-0.25,0.25
			C126.19,181.1,126.3,181.21,126.44,181.21z"/>
		<path id="XMLID_18887_" d="M87.97,182.01c0.05,0,0.09-0.04,0.09-0.09c0-0.05-0.04-0.09-0.09-0.09c-0.05,0-0.09,0.04-0.09,0.09
			C87.88,181.97,87.92,182.01,87.97,182.01z"/>
		<path id="XMLID_18886_" d="M181.74,90.55c0.05,0,0.09-0.04,0.09-0.09c0-0.05-0.04-0.09-0.09-0.09c-0.05,0-0.09,0.04-0.09,0.09
			C181.65,90.51,181.69,90.55,181.74,90.55z"/>
	</g>
</g>
</svg>
