<?xml version="1.0" encoding="utf-8"?>
<!-- Generator: Adobe Illustrator 26.2.1, SVG Export Plug-In . SVG Version: 6.00 Build 0)  -->
<svg version="1.1" xmlns="http://www.w3.org/2000/svg" xmlns:xlink="http://www.w3.org/1999/xlink" x="0px" y="0px"
	 viewBox="0 0 225 225" style="enable-background:new 0 0 225 225;" xml:space="preserve">
<style type="text/css">
	.st0{display:none;}
	.st1{display:inline;fill:#FAB433;}
	.st2{fill:none;}
	.st3{fill:none;stroke:#000000;stroke-width:1.6;stroke-miterlimit:10;}
	.st4{fill:none;stroke:#000000;stroke-width:0.7265;stroke-miterlimit:10;}
	.st5{fill:none;stroke:#000000;stroke-linecap:round;stroke-linejoin:round;stroke-miterlimit:10;}
	.st6{fill:none;stroke:#000000;stroke-miterlimit:10;}
	.st7{fill:none;stroke:#000000;stroke-width:0.7105;stroke-miterlimit:10;}
	.st8{fill:none;stroke:#000000;stroke-width:5.4;stroke-linecap:round;stroke-linejoin:round;stroke-miterlimit:10;}
	.st9{fill:none;stroke:#000000;stroke-width:2.9309;stroke-linecap:round;stroke-linejoin:round;stroke-miterlimit:10;}
	.st10{fill:none;stroke:#000000;stroke-width:0.5;stroke-linecap:round;stroke-linejoin:round;}
	.st11{fill:none;stroke:#FFFFFF;stroke-width:0;stroke-linecap:round;stroke-linejoin:round;}
	.st12{fill:#FFFFFF;}
	.st13{fill:none;stroke:#000000;stroke-width:1.4;stroke-miterlimit:10;}
	.st14{fill:url(#);stroke:#000000;stroke-width:1.4387;stroke-miterlimit:10;}
	.st15{fill:url(#);stroke:#000000;stroke-width:1.3718;stroke-miterlimit:10;}
	.st16{fill:none;stroke:#000000;stroke-width:1.0041;stroke-miterlimit:10;}
	.st17{fill:none;stroke:#000000;stroke-width:1.3621;stroke-miterlimit:10;}
	.st18{fill:none;stroke:#000000;stroke-width:0.25;stroke-miterlimit:10;}
</style>
<g id="Layer_2" class="st0">
	
		<rect id="XMLID_00000049924193275795927410000016330201882968263580_" x="-345.99" y="-275.01" class="st1" width="1160" height="772"/>
</g>
<g id="Layer_1">
	<path d="M92.25,97.45c0.43-0.32,0.86-0.51,1.35-0.62V46.21c-0.46,0.11-0.92,0.24-1.35,0.38V97.45z M94.95,96.78
		c0.43,0.05,0.89,0.16,1.35,0.35V45.48c-0.46,0.11-0.92,0.22-1.35,0.35V96.78z M111.15,43.53v62.94c0.46,0,0.92-0.11,1.35-0.24
		V43.51h-0.03C112.04,43.51,111.58,43.51,111.15,43.53z M86.85,105.66l1.35-2.19V48.04c-0.46,0.13-0.92,0.32-1.35,0.51V105.66z
		 M84.15,110.03l1.35-2.19V49.12c-0.46,0.22-0.92,0.4-1.35,0.62V110.03z M108.45,106.15c0.46,0.16,0.89,0.27,1.35,0.32V43.56
		c-0.46,0.03-0.92,0.03-1.35,0.08V106.15z M103.05,102.02c0.4,0.41,0.78,0.81,1.16,1.22c0.05,0.05,0.11,0.13,0.19,0.19v-59.4
		c-0.46,0.03-0.92,0.08-1.35,0.16V102.02z M105.75,104.63c0.43,0.35,0.89,0.65,1.35,0.89V43.75c-0.46,0-0.92,0.05-1.35,0.11V104.63z
		 M97.65,97.72c0.46,0.24,0.89,0.51,1.35,0.84v-53.7c-0.46,0.08-0.92,0.19-1.35,0.32V97.72z M100.35,99.56
		c0.46,0.38,0.89,0.76,1.35,1.16V44.37c-0.46,0.08-0.92,0.14-1.35,0.24V99.56z M81.45,113.27c0.49-0.27,0.95-0.68,1.35-1.16V50.39
		c-0.46,0.22-0.89,0.43-1.35,0.7V113.27z M89.55,101.29l1.03-1.67c0.11-0.22,0.22-0.4,0.32-0.59V47.04
		c-0.46,0.14-0.89,0.3-1.35,0.49V101.29z M54.45,106.82c0.38-0.51,0.86-0.97,1.35-1.35V74.39c-0.49,0.7-0.92,1.43-1.35,2.19V106.82z
		 M59.85,103.69c0.43-0.05,0.89-0.11,1.35-0.11V67.16c-0.49,0.54-0.95,1.08-1.35,1.65V103.69z M57.15,104.58
		c0.43-0.22,0.89-0.4,1.35-0.54V70.51c-0.49,0.62-0.92,1.24-1.35,1.89V104.58z M49.05,115.7c0.43-0.78,0.89-1.59,1.35-2.43V84.49
		c-0.49,1.13-0.95,2.29-1.35,3.48V115.7z M46.35,120.67c0.38-0.7,0.84-1.57,1.35-2.54V92.11c-0.54,1.78-1,3.62-1.35,5.45V120.67z
		 M76.05,113.46c0.46,0.19,0.92,0.35,1.35,0.43V53.36c-0.46,0.27-0.92,0.54-1.35,0.84V113.46z M73.35,111.76
		c0.43,0.38,0.89,0.7,1.35,1v-57.7c-0.46,0.32-0.89,0.62-1.35,0.97V111.76z M78.75,114.06c0.46,0,0.92-0.05,1.35-0.19V51.8
		c-0.46,0.24-0.92,0.49-1.35,0.76V114.06z M70.65,108.93l0.14,0.16c0.38,0.49,0.78,0.95,1.21,1.38V57.01
		c-0.46,0.32-0.92,0.67-1.35,1.08V108.93z M67.95,106.04c0.49,0.38,0.95,0.78,1.35,1.24V59.17c-0.46,0.35-0.92,0.73-1.35,1.13
		V106.04z M65.25,104.45c0.46,0.16,0.92,0.41,1.35,0.68V61.52c-0.46,0.43-0.92,0.84-1.35,1.3V104.45z M51.75,110.98
		c0.46-0.76,0.89-1.49,1.35-2.21V78.96c-0.49,0.86-0.92,1.73-1.35,2.62V110.98z M162.45,97.78c0.46,0,0.89,0.05,1.35,0.16V67.19
		c-0.43-0.54-0.89-1.05-1.35-1.57V97.78z M154.35,101.07c0.16-0.14,0.3-0.27,0.46-0.43c0.3-0.3,0.59-0.54,0.89-0.81V59.17
		c-0.43-0.38-0.89-0.76-1.35-1.08V101.07z M159.75,62.84v35.1c0.46-0.11,0.89-0.16,1.35-0.19V64.22
		C160.7,63.76,160.24,63.3,159.75,62.84z M157.05,98.94c0.43-0.24,0.89-0.46,1.35-0.59v-36.8c-0.43-0.43-0.89-0.84-1.35-1.22V98.94z
		 M151.65,102.83c0.46-0.19,0.92-0.43,1.35-0.76V57.03c-0.43-0.35-0.89-0.68-1.35-0.97V102.83z M148.95,103.45
		c0.43,0,0.89-0.05,1.35-0.16v-48.2c-0.43-0.3-0.89-0.59-1.35-0.86V103.45z M173.25,105.58l1.35,1.81V84.55c-0.4-1-0.86-2-1.35-2.97
		V105.58z M175.95,109.2l1.35,1.81v-18.9c-0.4-1.4-0.84-2.78-1.35-4.13V109.2z M113.85,105.55c0.49-0.3,0.95-0.65,1.35-1.11V43.56
		c-0.46-0.03-0.89-0.03-1.35-0.03V105.55z M146.25,103.01c0.43,0.19,0.89,0.3,1.35,0.38V53.36c-0.43-0.3-0.89-0.54-1.35-0.78V103.01
		z M167.85,99.67c0.46,0.3,0.92,0.62,1.35,1.03v-26.3c-0.43-0.68-0.89-1.35-1.35-2V99.67z M170.55,102.07
		c0.22,0.22,0.4,0.46,0.59,0.7l0.76,1V78.96c-0.43-0.81-0.89-1.62-1.35-2.38V102.07z M165.15,98.32c0.46,0.14,0.92,0.32,1.35,0.57
		V70.51c-0.43-0.57-0.89-1.16-1.35-1.7V98.32z M143.55,101.21c0.43,0.43,0.86,0.81,1.35,1.13V51.8c-0.43-0.24-0.89-0.49-1.35-0.7
		V101.21z M127.35,73.96c0.43-0.4,0.89-0.68,1.35-0.81V45.48c-0.43-0.11-0.89-0.22-1.35-0.3V73.96z M124.65,78.69l0.38-1.13
		c0.3-0.73,0.62-1.38,0.97-1.94V44.86c-0.43-0.08-0.89-0.16-1.35-0.22V78.69z M116.55,102.56c0.22-0.35,0.4-0.76,0.57-1.19
		l0.78-2.35V43.75c-0.46-0.05-0.89-0.11-1.35-0.11V102.56z M119.25,94.94l1.35-4.05V44.02c-0.46-0.08-0.89-0.13-1.35-0.16V94.94z
		 M121.95,86.81l1.35-4.05V44.4c-0.43-0.11-0.89-0.16-1.35-0.22V86.81z M130.05,73.04c0.46,0.05,0.89,0.22,1.35,0.54V46.21
		c-0.43-0.13-0.89-0.27-1.35-0.38V73.04z M138.15,88.41l1.35,3.89V49.15c-0.46-0.22-0.89-0.41-1.35-0.59V88.41z M140.85,96.16
		l0.68,1.94c0.22,0.49,0.43,0.92,0.67,1.32v-49c-0.43-0.24-0.89-0.46-1.35-0.65V96.16z M132.75,74.83c0.49,0.59,0.95,1.32,1.35,2.19
		V47.07c-0.43-0.19-0.89-0.32-1.35-0.49V74.83z M135.45,80.69l1.35,3.86v-36.5c-0.43-0.19-0.89-0.35-1.35-0.51V80.69z M62.55,103.69
		c0.46,0.03,0.92,0.14,1.35,0.27V64.19c-0.46,0.46-0.92,0.92-1.35,1.4V103.69z M148.95,167.79c0.46-0.27,0.92-0.57,1.35-0.89v-27.54
		c-0.43-0.03-0.89-0.11-1.35-0.27V167.79z M135.45,174.46c0.46-0.16,0.92-0.32,1.35-0.51v-48.74c-0.4-0.57-0.86-1.13-1.35-1.65
		V174.46z M132.75,175.37c0.46-0.14,0.89-0.27,1.35-0.43v-52.79c-0.43-0.41-0.89-0.78-1.35-1.13V175.37z M140.85,172.24
		c0.46-0.22,0.92-0.43,1.35-0.65v-38.45c-0.49-0.62-0.95-1.24-1.35-1.84V172.24z M143.55,170.92c0.46-0.24,0.92-0.46,1.35-0.73
		v-33.94c-0.46-0.43-0.92-0.92-1.35-1.43V170.92z M146.25,169.43c0.46-0.24,0.89-0.51,1.35-0.81v-30.21
		c-0.46-0.24-0.89-0.57-1.35-0.95V169.43z M138.15,127.1v46.33c0.46-0.19,0.89-0.38,1.35-0.59v-43.52c-0.16-0.27-0.3-0.51-0.43-0.73
		C138.77,128.1,138.47,127.58,138.15,127.1z M116.55,178.34c0.46,0,0.89-0.05,1.35-0.08v-56.7c-0.46,0.3-0.92,0.59-1.35,0.86V178.34
		z M121.95,177.8c0.46-0.05,0.92-0.11,1.35-0.19v-58.64c-0.43,0.08-0.89,0.24-1.35,0.43V177.8z M127.35,176.81
		c0.46-0.08,0.92-0.19,1.35-0.3v-57.56c-0.43-0.13-0.89-0.22-1.35-0.3V176.81z M130.05,176.16c0.46-0.11,0.89-0.24,1.35-0.38v-55.65
		c-0.43-0.27-0.89-0.51-1.35-0.7V176.16z M124.65,177.37c0.46-0.08,0.89-0.16,1.35-0.24v-58.56c-0.43,0-0.89,0.03-1.35,0.11V177.37z
		 M119.25,178.13c0.46-0.03,0.89-0.08,1.35-0.14v-57.97c-0.46,0.22-0.92,0.46-1.35,0.73V178.13z M173.25,140.36
		c0.49-0.97,0.95-1.94,1.35-2.92v-8.61c-0.43-0.4-0.89-0.78-1.35-1.13V140.36z M170.55,125.86v19.55c0.49-0.78,0.95-1.59,1.35-2.4
		v-16.31c-0.19-0.14-0.4-0.3-0.62-0.43C171.04,126.1,170.82,125.96,170.55,125.86z M175.95,133.98c0.22-0.51,0.38-1.05,0.57-1.59
		c0.16-0.43,0.3-0.86,0.46-1.3c-0.32-0.35-0.68-0.7-1.03-1.03V133.98z M178.65,97.56v15.25l1.27,1.7c0.05-1.16,0.08-2.32,0.08-3.51
		C180,106.42,179.54,101.91,178.65,97.56z M151.65,139.11v26.84c0.46-0.32,0.92-0.65,1.35-0.97v-26.86
		C152.6,138.6,152.14,138.92,151.65,139.11z M167.85,149.59c0.49-0.65,0.92-1.32,1.35-2v-22.27c-0.43-0.14-0.89-0.24-1.35-0.3
		V149.59z M154.35,135.93v28.03c0.46-0.38,0.92-0.73,1.35-1.11v-30.13c-0.32,0.51-0.57,1.08-0.76,1.67
		C154.75,134.96,154.57,135.47,154.35,135.93z M157.05,161.69c0.46-0.4,0.92-0.81,1.35-1.21v-31.13c-0.46,0.46-0.92,0.95-1.35,1.43
		V161.69z M165.15,153.23c0.46-0.59,0.92-1.16,1.35-1.78v-26.51c-0.46,0-0.92,0.05-1.35,0.11V153.23z M162.45,156.37
		c0.46-0.51,0.92-1.03,1.35-1.54v-29.46c-0.46,0.14-0.92,0.32-1.35,0.54V156.37z M159.75,128.02v31.16
		c0.46-0.46,0.92-0.92,1.35-1.38v-31.02c-0.24,0.19-0.49,0.4-0.7,0.62C160.18,127.61,159.97,127.83,159.75,128.02z M111.15,178.45
		c0.43,0.03,0.89,0.03,1.32,0.03h0.03v-53.62c-0.43,0.19-0.89,0.4-1.35,0.57V178.45z M70.65,163.93c0.46,0.38,0.89,0.7,1.35,1.05
		v-33.83c-0.46-0.13-0.89-0.24-1.35-0.38V163.93z M73.35,165.95c0.43,0.32,0.89,0.65,1.35,0.95v-35.13
		c-0.46-0.11-0.92-0.19-1.35-0.3V165.95z M65.25,159.15c0.43,0.46,0.89,0.89,1.35,1.32v-30.56c-0.43-0.05-0.89-0.11-1.35-0.13
		V159.15z M67.95,161.69c0.43,0.38,0.89,0.78,1.35,1.13v-32.37c-0.46-0.11-0.89-0.22-1.35-0.3V161.69z M81.45,170.92
		c0.46,0.24,0.92,0.46,1.35,0.68v-39.82c-0.46,0.11-0.92,0.19-1.35,0.22V170.92z M76.05,167.79c0.43,0.3,0.89,0.57,1.35,0.84v-36.5
		c-0.46-0.03-0.92-0.08-1.35-0.14V167.79z M78.75,169.43c0.46,0.27,0.89,0.51,1.35,0.76v-38.04c-0.46,0.03-0.92,0.05-1.35,0.05
		V169.43z M62.55,156.37c0.43,0.49,0.89,0.97,1.35,1.43v-28.08c-0.46,0-0.89,0-1.35,0.05V156.37z M54.45,145.4
		c0.43,0.76,0.89,1.49,1.35,2.19v-16.36c-0.46,0.14-0.92,0.27-1.35,0.43V145.4z M51.75,140.44c0.43,0.89,0.89,1.75,1.35,2.62v-10.94
		c-0.46,0.19-0.89,0.35-1.35,0.51V140.44z M113.85,178.45c0.46,0,0.89,0,1.35-0.03v-55.13c-0.43,0.3-0.89,0.57-1.35,0.84V178.45z
		 M59.85,130.15v23.06c0.43,0.54,0.89,1.11,1.35,1.65v-24.95c-0.05,0-0.08,0.03-0.14,0.03C60.66,129.99,60.25,130.07,59.85,130.15z
		 M57.15,149.59c0.43,0.62,0.86,1.24,1.35,1.86v-20.98c-0.46,0.08-0.92,0.22-1.35,0.35V149.59z M84.15,172.24
		c0.46,0.22,0.89,0.43,1.35,0.59v-41.8c-0.46,0.16-0.92,0.3-1.35,0.41V172.24z M103.05,177.8c0.46,0.08,0.92,0.14,1.35,0.19v-51.76
		c-0.46,0.03-0.92,0.03-1.35,0.08V177.8z M100.35,177.37c0.46,0.11,0.92,0.19,1.35,0.24v-51.19c-0.46,0.05-0.89,0.14-1.35,0.19
		V177.37z M49.05,134.09c0.24,0.65,0.49,1.3,0.76,1.92c0.19,0.49,0.38,0.95,0.59,1.43v-4.29c-0.46,0.16-0.89,0.32-1.35,0.49V134.09z
		 M108.45,178.34c0.43,0.05,0.89,0.05,1.35,0.08v-52.6c-0.43,0.14-0.89,0.22-1.35,0.3V178.34z M105.99,126.26h-0.24v51.87
		c0.43,0.05,0.89,0.11,1.35,0.14v-52.03C106.75,126.26,106.37,126.29,105.99,126.26z M86.85,173.43c0.43,0.19,0.89,0.35,1.35,0.54
		v-43.85c-0.46,0.16-0.89,0.3-1.35,0.46V173.43z M89.55,174.48c0.43,0.16,0.89,0.32,1.35,0.46v-45.77c-0.46,0.16-0.92,0.3-1.35,0.46
		V174.48z M97.65,176.83c0.46,0.11,0.89,0.22,1.35,0.3v-50.27c-0.46,0.11-0.89,0.19-1.35,0.3V176.83z M92.25,175.4
		c0.46,0.14,0.92,0.27,1.35,0.38v-47.49c-0.46,0.14-0.92,0.27-1.35,0.43V175.4z M94.95,176.16c0.46,0.14,0.89,0.24,1.35,0.35v-49.03
		c-0.46,0.14-0.89,0.27-1.35,0.4V176.16z"/>
	<path id="XMLID_00000174592017804294392670000000127051987656658588_" d="M177.57,128.99c-0.08,0.32-0.16,0.62-0.27,0.94
		c-0.11,0.38-0.22,0.78-0.32,1.16c-0.16,0.43-0.3,0.86-0.46,1.3l-0.57-0.4c-0.4-0.3-0.86-0.65-1.35-1c-0.43-0.3-0.86-0.62-1.35-0.97
		c-0.43-0.3-0.89-0.62-1.35-0.97c-0.08-0.05-0.16-0.11-0.24-0.16c-0.35-0.27-0.73-0.49-1.11-0.67c-0.43-0.24-0.89-0.4-1.35-0.54
		c-0.46-0.16-0.89-0.24-1.35-0.3c-0.46-0.08-0.89-0.11-1.35-0.05c-0.46,0-0.92,0.05-1.35,0.14c-0.46,0.08-0.89,0.19-1.35,0.35
		c-0.46,0.13-0.92,0.32-1.35,0.59c-0.46,0.19-0.92,0.46-1.35,0.78c-0.49,0.32-0.92,0.68-1.35,1.11c-0.49,0.4-0.95,0.89-1.35,1.43
		c-0.49,0.57-0.92,1.22-1.3,1.89l-0.05,0.11l-1.35,2.38l-2.7,4.81l-0.49,0.86c-0.27,0.49-0.57,0.92-0.86,1.32
		c-0.43,0.59-0.89,1.11-1.35,1.51c-0.43,0.43-0.89,0.76-1.35,0.97c-0.46,0.27-0.89,0.43-1.35,0.51c-0.46,0.11-0.89,0.14-1.35,0.05
		c-0.46-0.03-0.92-0.14-1.35-0.38c-0.46-0.16-0.92-0.46-1.35-0.86c-0.49-0.38-0.92-0.89-1.35-1.51c-0.35-0.51-0.7-1.08-1-1.75
		l-0.35-0.76l-1.35-2.84l-4.05-8.59l-0.78-1.65c-0.19-0.38-0.38-0.76-0.57-1.08c-0.43-0.67-0.86-1.27-1.35-1.76
		c-0.43-0.43-0.86-0.78-1.35-1.05c-0.43-0.27-0.89-0.46-1.35-0.57c-0.46-0.11-0.89-0.16-1.35-0.14c-0.46,0-0.89,0.05-1.35,0.22
		c-0.46,0.14-0.92,0.32-1.35,0.62c-0.46,0.24-0.92,0.57-1.35,0.97c-0.46,0.41-0.92,0.89-1.35,1.46c-0.27,0.32-0.54,0.7-0.78,1.08
		l-0.57,0.86l-1.35,2.08l-0.97,1.51c-0.11,0.16-0.24,0.35-0.38,0.51c-0.4,0.59-0.86,1.13-1.35,1.62c-0.43,0.41-0.89,0.78-1.35,1.11
		c-0.43,0.32-0.89,0.62-1.35,0.84c-0.43,0.24-0.89,0.43-1.35,0.57c-0.43,0.16-0.89,0.3-1.35,0.35c-0.46,0.11-0.89,0.14-1.35,0.14
		c-0.46,0.03-0.92,0.03-1.35-0.05c-0.46-0.05-0.92-0.14-1.35-0.27c-0.46-0.14-0.92-0.3-1.35-0.51c-0.46-0.19-0.92-0.46-1.35-0.76
		c-0.49-0.32-0.92-0.68-1.35-1.11c-0.05-0.05-0.14-0.11-0.19-0.16c-0.38-0.38-0.76-0.7-1.16-1c-0.43-0.35-0.89-0.62-1.35-0.84
		c-0.43-0.24-0.89-0.46-1.35-0.59c-0.43-0.16-0.89-0.27-1.35-0.32c-0.43-0.11-0.89-0.16-1.35-0.16c-0.43,0-0.89,0-1.35,0.08
		c-0.46,0.05-0.89,0.14-1.35,0.24c-0.46,0.13-0.92,0.3-1.35,0.49c-0.46,0.22-0.92,0.43-1.35,0.73c-0.46,0.27-0.92,0.59-1.35,1
		c-0.49,0.38-0.95,0.84-1.35,1.35c-0.38,0.41-0.7,0.81-1,1.27l-0.35,0.54l-1.35,2.02l-0.73,1.08c-0.19,0.3-0.4,0.57-0.62,0.84
		c-0.43,0.54-0.86,1.03-1.35,1.4c-0.43,0.4-0.89,0.73-1.35,1.03c-0.43,0.27-0.89,0.49-1.35,0.65c-0.43,0.19-0.89,0.3-1.35,0.38
		c-0.46,0.11-0.89,0.16-1.35,0.16s-0.89-0.03-1.35-0.08c-0.46-0.08-0.89-0.19-1.35-0.35c-0.46-0.14-0.89-0.32-1.35-0.57
		c-0.46-0.24-0.89-0.51-1.35-0.86c-0.46-0.32-0.92-0.73-1.35-1.19c-0.38-0.38-0.76-0.81-1.11-1.27l-0.24-0.32l-0.62-0.84
		c-0.24-0.32-0.49-0.62-0.73-0.92c-0.43-0.49-0.89-0.95-1.35-1.38c-0.43-0.41-0.86-0.78-1.35-1.13c-0.43-0.35-0.89-0.65-1.35-0.95
		c-0.46-0.27-0.89-0.51-1.35-0.73c-0.46-0.24-0.89-0.43-1.35-0.59c-0.46-0.19-0.89-0.32-1.35-0.46c-0.46-0.11-0.89-0.22-1.35-0.3
		c-0.46-0.05-0.92-0.11-1.35-0.11c-0.49-0.03-0.92-0.03-1.35,0.03c-0.46,0.03-0.92,0.11-1.35,0.22c-0.46,0.11-0.92,0.27-1.35,0.49
		c-0.3,0.11-0.57,0.24-0.84,0.41c-0.16,0.11-0.35,0.19-0.51,0.3c-0.46,0.27-0.92,0.54-1.35,0.81c-0.46,0.27-0.92,0.57-1.35,0.84
		c-0.19,0.11-0.4,0.24-0.59,0.35c-0.27-0.62-0.51-1.27-0.76-1.92c-0.05-0.14-0.11-0.27-0.16-0.4c-0.43-1.24-0.84-2.48-1.19-3.75
		c-0.54-1.84-1-3.7-1.35-5.62c-0.05-0.22-0.11-0.46-0.14-0.67l0.14-0.19l1.35-1.76l1.35-1.78l1.35-1.75l1.35-1.78l1.35-1.78
		l0.89-1.16c0.13-0.19,0.3-0.38,0.46-0.54c0.4-0.51,0.86-0.97,1.35-1.38c0.43-0.4,0.89-0.76,1.35-1.03c0.46-0.3,0.92-0.54,1.35-0.73
		c0.46-0.19,0.89-0.32,1.35-0.4c0.46-0.14,0.89-0.19,1.35-0.19s0.92,0.03,1.35,0.14c0.46,0.05,0.92,0.19,1.35,0.4
		c0.46,0.16,0.92,0.4,1.35,0.7c0.49,0.32,0.92,0.7,1.35,1.16c0.49,0.51,0.95,1.11,1.35,1.78c0.11,0.13,0.16,0.24,0.24,0.38
		l1.11,1.94l1.35,2.35L72,120.4l0.76,1.32c0.19,0.35,0.38,0.65,0.59,0.94c0.43,0.67,0.89,1.24,1.35,1.7
		c0.43,0.46,0.89,0.84,1.35,1.11c0.46,0.3,0.92,0.46,1.35,0.54c0.46,0.14,0.89,0.14,1.35,0.03c0.46-0.08,0.92-0.27,1.35-0.59
		c0.49-0.35,0.95-0.86,1.35-1.49c0.46-0.68,0.84-1.51,1.19-2.51l0.16-0.49l4.05-12.07l1.35-4.05l1.03-3.05l0.32-0.97l1.35-4.02
		l1.16-3.46c0.05-0.19,0.11-0.35,0.19-0.51c0.38-1.08,0.84-1.94,1.35-2.59c0.4-0.57,0.86-0.97,1.35-1.21
		c0.43-0.22,0.89-0.32,1.35-0.27c0.46,0.03,0.89,0.22,1.35,0.54c0.49,0.32,0.95,0.81,1.35,1.43c0.49,0.68,0.95,1.49,1.35,2.48
		c0,0.03,0.03,0.03,0.03,0.05l1.32,3.19l2.7,6.48l0.35,0.84l1,2.4l1.35,3.24l0.95,2.27c0.13,0.3,0.27,0.59,0.4,0.86
		c0.4,0.78,0.84,1.43,1.35,1.97c0.43,0.46,0.86,0.84,1.35,1.11c0.43,0.3,0.86,0.51,1.35,0.68c0.43,0.14,0.89,0.24,1.35,0.24
		c0.43,0.08,0.89,0.08,1.35,0c0.43-0.05,0.89-0.16,1.35-0.35c0.43-0.13,0.89-0.32,1.35-0.59c0.46-0.24,0.92-0.54,1.35-0.92
		c0.46-0.32,0.92-0.73,1.35-1.21c0.16-0.16,0.32-0.32,0.49-0.51c0.3-0.32,0.57-0.62,0.86-0.92c0.43-0.43,0.89-0.81,1.35-1.11
		c0.46-0.32,0.89-0.59,1.35-0.81c0.46-0.24,0.89-0.4,1.35-0.54c0.46-0.14,0.89-0.22,1.35-0.24c0.46-0.05,0.89-0.03,1.35,0.05
		c0.46,0.03,0.92,0.16,1.35,0.35c0.49,0.16,0.92,0.41,1.35,0.73c0.49,0.32,0.97,0.76,1.35,1.24c0.54,0.57,0.97,1.24,1.35,2.02
		c0.08,0.16,0.16,0.32,0.24,0.49l1.11,2.51l1.35,3.08l1.35,3.05l1.35,3.08l1.35,3.05l0.7,1.59c0.19,0.46,0.4,0.86,0.65,1.24
		c0.4,0.7,0.86,1.3,1.35,1.76c0.43,0.43,0.89,0.78,1.35,1.03c0.43,0.24,0.89,0.41,1.35,0.49c0.43,0.11,0.89,0.14,1.35,0.08
		c0.46-0.03,0.89-0.14,1.35-0.3c0.46-0.14,0.92-0.35,1.35-0.65c0.46-0.27,0.92-0.62,1.35-1.05c0.49-0.4,0.95-0.92,1.35-1.48
		c0.22-0.24,0.4-0.51,0.59-0.78l0.76-1.13l1.35-2l0.35-0.51c0.32-0.46,0.65-0.92,1-1.32c0.43-0.51,0.86-0.97,1.35-1.35
		c0.43-0.4,0.89-0.78,1.35-1.08c0.43-0.3,0.89-0.57,1.35-0.78c0.46-0.22,0.89-0.41,1.35-0.54c0.43-0.16,0.89-0.3,1.35-0.35
		c0.43-0.11,0.89-0.16,1.35-0.19c0.43-0.03,0.89-0.03,1.35,0c0.43,0.05,0.89,0.11,1.35,0.22c0.46,0.14,0.92,0.27,1.35,0.49
		c0.46,0.16,0.92,0.4,1.35,0.7c0.38,0.24,0.76,0.51,1.11,0.81c0.08,0.08,0.16,0.14,0.24,0.22c0.46,0.4,0.92,0.78,1.35,1.16
		c0.46,0.43,0.92,0.81,1.35,1.19c0.49,0.43,0.95,0.81,1.35,1.16c0.49,0.43,0.95,0.84,1.35,1.16
		C177.38,128.83,177.49,128.91,177.57,128.99z"/>
</g>
</svg>
