<?xml version="1.0" encoding="utf-8"?>
<!-- Generator: Adobe Illustrator 26.2.1, SVG Export Plug-In . SVG Version: 6.00 Build 0)  -->
<svg version="1.1" xmlns="http://www.w3.org/2000/svg" xmlns:xlink="http://www.w3.org/1999/xlink" x="0px" y="0px"
	 viewBox="0 0 225 225" style="enable-background:new 0 0 225 225;" xml:space="preserve">
<style type="text/css">
	.st0{display:none;}
	.st1{display:inline;fill:#FAB433;}
	.st2{fill:none;}
	.st3{fill:none;stroke:#000000;stroke-width:1.6;stroke-miterlimit:10;}
	.st4{fill:none;stroke:#000000;stroke-width:0.7265;stroke-miterlimit:10;}
	.st5{fill:none;stroke:#000000;stroke-linecap:round;stroke-linejoin:round;stroke-miterlimit:10;}
	.st6{fill:none;stroke:#000000;stroke-miterlimit:10;}
	.st7{fill:none;stroke:#000000;stroke-width:0.7105;stroke-miterlimit:10;}
	.st8{fill:none;stroke:#000000;stroke-width:5.4;stroke-linecap:round;stroke-linejoin:round;stroke-miterlimit:10;}
	.st9{fill:none;stroke:#000000;stroke-width:2.9309;stroke-linecap:round;stroke-linejoin:round;stroke-miterlimit:10;}
	.st10{fill:none;stroke:#000000;stroke-width:0.5;stroke-linecap:round;stroke-linejoin:round;}
	.st11{fill:none;stroke:#FFFFFF;stroke-width:0;stroke-linecap:round;stroke-linejoin:round;}
	.st12{fill:#FFFFFF;}
	.st13{fill:none;stroke:#000000;stroke-width:1.4;stroke-miterlimit:10;}
	.st14{fill:url(#);stroke:#000000;stroke-width:1.4387;stroke-miterlimit:10;}
	.st15{fill:url(#);stroke:#000000;stroke-width:1.3718;stroke-miterlimit:10;}
	.st16{fill:none;stroke:#000000;stroke-width:1.0041;stroke-miterlimit:10;}
	.st17{fill:none;stroke:#000000;stroke-width:1.3621;stroke-miterlimit:10;}
	.st18{fill:none;stroke:#000000;stroke-width:0.25;stroke-miterlimit:10;}
</style>
<g id="Layer_2" class="st0">
	<rect id="XMLID_16010_" x="-100.99" y="-30.01" class="st1" width="1160" height="772"/>
</g>
<g id="Layer_1">
	<path d="M112.35,113.68c-6.29,0.01-11.33,5.05-11.23,11.21c0.1,6,5.14,10.85,11.23,10.86c6.09,0,11.13-4.86,11.23-10.86
		C123.68,118.73,118.64,113.69,112.35,113.68z M158.66,66.86c-2.4-1.56-3.42-0.65-2.11,2.2c1.42,3.09,4.72,6.84,7.23,8.2
		c2.26,1.22,2.78-0.22,1.3-3.07C163.7,71.52,160.88,68.31,158.66,66.86z M141.98,53.88c-3.13-1.26-4.96-1.03-3.97,0.58
		c1.13,1.84,5.03,4.47,8.55,5.78c3.31,1.23,4.65,0.63,3.16-1.22C148.36,57.34,144.96,55.09,141.98,53.88z M165.82,72.97
		c-1.34-1.56-1.42-0.85-0.03,1.8c1.48,2.82,3.81,6.33,5.07,7.65c1.13,1.18,0.85-0.05-0.53-2.59
		C169.03,77.41,167.06,74.41,165.82,72.97z M125.6,57.64c-1.41,0.73-2.18,1.98-1.98,3.54c0.21,1.66,1.44,3.33,3.27,4.71
		c1.86,1.4,4.29,2.44,6.8,2.78c2.46,0.33,4.46-0.09,5.72-1.04c1.18-0.89,1.67-2.26,1.17-3.88c-0.93-2.98-5.13-5.95-9.47-6.68
		C128.88,56.7,126.94,56.94,125.6,57.64z M128.17,49.9c-3.8-0.71-6.62-0.01-6.24,1.52c0.46,1.84,4.47,3.93,8.88,4.68
		c4.27,0.73,6.79-0.21,5.72-2.06C135.59,52.45,131.87,50.6,128.17,49.9z M150.82,59.6c1.52,1.85,4.85,4.77,7.23,6.34
		c2.21,1.45,2.53,1.01,0.9-0.82c-1.52-1.7-4.32-4.15-6.43-5.62C150.29,57.94,149.44,57.92,150.82,59.6z M155.36,156.3
		c1.4-3.12-0.3-4.89-3.92-3.82c-3.92,1.16-8.09,4.88-9.17,8.19c-0.97,2.97,1.24,4.25,4.8,2.95
		C150.41,162.4,154.07,159.17,155.36,156.3z M160.17,141.69c0.5-2.15,0.23-3.99-0.62-5.21c-0.9-1.29-2.44-1.92-4.4-1.59
		c-4.21,0.72-8.36,5.29-9.17,10.08c-0.38,2.28,0.12,4.09,1.25,5.17c1.07,1.02,2.7,1.38,4.64,0.82
		C155.53,149.92,159.2,145.81,160.17,141.69z M172.43,115.7c-0.6-1.45-1.57-2.35-2.72-2.34c-1.25,0.02-2.47,1.05-3.46,2.7
		c-1.02,1.71-1.75,4.03-1.94,6.53c-0.19,2.48,0.2,4.58,0.97,5.96c0.74,1.31,1.8,1.94,3.05,1.58c2.24-0.66,4.37-4.64,4.74-8.93
		C173.26,119.04,173,117.1,172.43,115.7z M173.07,103.61c-0.38-4.28-2.51-8.27-4.74-8.93c-1.25-0.37-2.31,0.27-3.05,1.58
		c-0.77,1.38-1.16,3.48-0.97,5.96c0.19,2.51,0.92,4.83,1.94,6.53c0.99,1.65,2.21,2.68,3.46,2.7c1.16,0.02,2.13-0.88,2.72-2.34
		C173,107.72,173.26,105.78,173.07,103.61z M164.3,146.18c2.25-1.18,4.84-5,5.86-8.63c1.05-3.79,0.11-6.36-2.13-5.65
		c-2.58,0.83-5.55,5.09-6.59,9.39C160.46,145.36,161.78,147.5,164.3,146.18z M150.21,130.83c1.31,1.56,3.15,2.36,5.21,2.04
		c1.97-0.31,3.8-1.6,5.16-3.44c1.33-1.8,2.24-4.17,2.43-6.68c0.19-2.54-0.4-4.83-1.49-6.48c-1.14-1.71-2.86-2.76-4.86-2.75
		c-2.11,0.02-4.11,1.19-5.65,3.07c-1.58,1.93-2.63,4.55-2.78,7.39C148.07,126.79,148.85,129.21,150.21,130.83z M59.42,96.26
		c-0.74-1.31-1.8-1.94-3.05-1.58c-2.24,0.66-4.37,4.64-4.74,8.93c-0.19,2.17,0.07,4.11,0.64,5.51c0.6,1.46,1.57,2.35,2.72,2.34
		c1.25-0.02,2.47-1.05,3.46-2.7c1.02-1.71,1.75-4.03,1.94-6.53C60.58,99.74,60.19,97.65,59.42,96.26z M60.91,77.26
		c2.5-1.36,5.81-5.1,7.23-8.2c1.31-2.85,0.3-3.76-2.11-2.2c-2.22,1.44-5.03,4.66-6.42,7.33C58.12,77.04,58.65,78.48,60.91,77.26z
		 M105.16,153.47c1.87,1.5,4.42,2.42,7.18,2.42c2.77,0,5.31-0.92,7.18-2.42c1.92-1.53,3.17-3.69,3.3-6.11
		c0.13-2.51-0.96-4.81-2.83-6.51c-1.92-1.74-4.63-2.82-7.66-2.82c-3.03,0-5.74,1.08-7.66,2.82c-1.87,1.7-2.96,4-2.83,6.51
		C101.99,149.77,103.24,151.93,105.16,153.47z M53.33,83.64c-1.12,1.14-2.73,4.51-3.66,7.64c-0.96,3.23-0.92,5.37,0.09,4.7
		c1.2-0.8,3.04-4.56,4.09-8.29C54.85,84.11,54.59,82.36,53.33,83.64z M48.17,111.61c1.2-0.05,2.39-3.57,2.77-7.85
		c0.37-4.21-0.27-7.02-1.47-6.28c-0.99,0.61-2.1,4.01-2.44,7.59C46.69,108.7,47.25,111.64,48.17,111.61z M58.45,116.07
		c-0.99-1.65-2.21-2.68-3.46-2.7c-1.16-0.02-2.13,0.88-2.72,2.34c-0.57,1.4-0.83,3.34-0.64,5.51c0.38,4.28,2.51,8.27,4.74,8.93
		c1.25,0.37,2.31-0.27,3.05-1.58c0.77-1.38,1.16-3.48,0.97-5.96C60.2,120.09,59.47,117.77,58.45,116.07z M112.35,89.07
		c-6.09,0-11.13,4.86-11.23,10.86c-0.1,6.16,4.94,11.21,11.23,11.21c6.29-0.01,11.33-5.05,11.23-11.21
		C123.48,93.93,118.44,89.07,112.35,89.07z M96.52,49.9c-3.7,0.7-7.42,2.54-8.35,4.14c-1.07,1.84,1.45,2.78,5.72,2.06
		c4.41-0.75,8.42-2.83,8.88-4.68C103.14,49.9,100.32,49.19,96.52,49.9z M84.12,63.75c-0.5,1.62-0.02,2.98,1.17,3.88
		c1.25,0.95,3.26,1.37,5.72,1.04c2.52-0.34,4.94-1.38,6.8-2.78c1.83-1.38,3.05-3.04,3.27-4.71c0.2-1.56-0.57-2.81-1.98-3.54
		c-1.34-0.7-3.28-0.94-5.51-0.57C89.25,57.8,85.05,60.77,84.12,63.75z M60.39,78.64c-2.25,1.18-4.84,5-5.86,8.63
		c-1.05,3.79-0.11,6.36,2.13,5.65c2.58-0.83,5.55-5.09,6.59-9.39C64.23,79.46,62.91,77.33,60.39,78.64z M47.72,127.61
		c0.64,2.77,1.45,5.48,2.43,8.11c-0.19-0.64-0.44-1.5-0.75-2.55C48.79,131.08,48.15,129,47.72,127.61z M112.35,54.57
		c4.71,0,8.23-1.45,7.86-3.3c-0.31-1.52-3.84-2.82-7.86-2.82c-4.02,0-7.55,1.3-7.86,2.82C104.11,53.12,107.64,54.57,112.35,54.57z
		 M119.21,159.46c-1.7-1.19-4.13-1.92-6.86-1.92c-2.73,0-5.16,0.74-6.86,1.92c-1.64,1.14-2.56,2.67-2.39,4.34
		c0.16,1.56,1.31,2.97,3,3.95c1.64,0.95,3.85,1.53,6.25,1.53c2.39,0,4.6-0.58,6.25-1.53c1.7-0.98,2.84-2.39,3-3.95
		C121.77,162.13,120.84,160.6,119.21,159.46z M112.35,170.25c-4.71,0-8.23,1.45-7.86,3.3c0.31,1.52,3.84,2.82,7.86,2.82
		c4.02,0,7.55-1.3,7.86-2.82C120.58,171.7,117.05,170.25,112.35,170.25z M112.35,176.79c-3.95,0-6.9,0.46-6.55,1.11
		c0.26,0.48,3.22,0.94,6.55,0.94c3.33,0,6.29-0.46,6.55-0.94C119.25,177.25,116.29,176.8,112.35,176.79z M119.53,71.36
		c-1.87-1.5-4.42-2.42-7.18-2.42c-2.77,0-5.31,0.92-7.18,2.42c-1.92,1.53-3.17,3.69-3.3,6.11c-0.13,2.51,0.96,4.81,2.83,6.51
		c1.92,1.74,4.63,2.82,7.66,2.82c3.03,0,5.74-1.08,7.66-2.82c1.87-1.7,2.96-4,2.83-6.51C122.7,75.05,121.45,72.89,119.53,71.36z
		 M105.48,65.36c1.7,1.19,4.13,1.92,6.86,1.92c2.73,0,5.16-0.74,6.86-1.92c1.64-1.14,2.56-2.67,2.39-4.34
		c-0.16-1.56-1.31-2.97-3-3.95c-1.64-0.95-3.85-1.53-6.25-1.53c-2.39,0-4.6,0.58-6.25,1.53c-1.7,0.98-2.84,2.39-3,3.95
		C102.92,62.69,103.85,64.22,105.48,65.36z M47.03,119.75c0.34,3.59,1.45,6.98,2.44,7.59c1.2,0.73,1.85-2.08,1.47-6.28
		c-0.38-4.27-1.58-7.8-2.77-7.85C47.25,113.18,46.69,116.12,47.03,119.75z M177.55,126.01c-0.02-0.01-0.06,0-0.06-0.02
		c0-0.02,0-0.03,0-0.03c0,0-0.02,0.04-0.05,0.12c-0.23,0.68-1.22,3.9-2.16,7.08c-0.46,1.55-0.8,2.71-0.97,3.32
		c-0.08,0.29-0.12,0.46-0.12,0.48c0,0,0,0,0.01-0.01c0,0,0-0.01,0.02-0.01c0.05,0.01,0.09,0.03,0.14,0.04c0,0,0.01,0,0.01,0
		c1.39-3.51,2.5-7.16,3.29-10.93c-0.01,0-0.02-0.01-0.04-0.01C177.6,126.03,177.57,126.02,177.55,126.01z M153.46,164.74
		c-0.03,0.02-0.05,0.04-0.08,0.06c-0.06,0.04-0.12,0.09-0.2,0.15c-0.3,0.22-0.72,0.52-1.25,0.89c-2.23,1.55-5.36,3.61-6.77,4.46
		c-0.08,0.05-0.16,0.1-0.23,0.13c-0.03,0.02-0.06,0.04-0.09,0.05c-0.01,0.01-0.04,0.01-0.04,0.03c0.01,0.04,0.02,0.09,0.03,0.13
		c3.1-1.72,6.03-3.69,8.8-5.87c0,0-0.01-0.01-0.01-0.01C153.53,164.72,153.48,164.72,153.46,164.74z M90.78,175.03
		c-1.03-0.71-4.49-2.36-7.57-3.62c-2.95-1.2-4.06-1.41-2.67-0.58c0.09,0.05,0.21,0.12,0.31,0.18c2.67,1.44,5.44,2.7,8.31,3.78
		c0.01,0,0.02-0.01,0.02,0c0.51,0.19,0.93,0.33,1.24,0.42C91.06,175.4,91.24,175.36,90.78,175.03z M133.92,49.79
		c1.03,0.71,4.49,2.36,7.57,3.62c2.95,1.2,4.06,1.41,2.67,0.58c-0.11-0.07-0.25-0.14-0.38-0.22c-3.09-1.65-6.32-3.05-9.67-4.2
		C133.62,49.45,133.5,49.5,133.92,49.79z M73.87,165.22c-1.52-1.85-4.85-4.77-7.23-6.34c-2.21-1.45-2.53-1.01-0.9,0.82
		c0.25,0.28,0.53,0.58,0.84,0.88c1.46,1.39,2.98,2.72,4.56,3.98c0.35,0.27,0.7,0.53,1.03,0.75
		C74.4,166.88,75.25,166.91,73.87,165.22z M147.06,61.2c-3.56-1.3-5.77-0.02-4.8,2.95c1.09,3.31,5.26,7.03,9.17,8.19
		c3.62,1.07,5.32-0.7,3.92-3.82C154.07,65.65,150.41,62.43,147.06,61.2z M146.24,100.72c-0.28-5.63-4.81-10.48-10.16-10.86
		c-5.63-0.39-10.17,4.13-10.05,10.11c0.13,6.14,5,11.19,10.8,11.21c2.79,0.01,5.24-1.18,6.94-3.11
		C145.43,106.2,146.38,103.6,146.24,100.72z M143.77,116.75c-1.7-1.93-4.15-3.12-6.94-3.11c-5.8,0.03-10.67,5.07-10.8,11.21
		c-0.11,5.98,4.42,10.5,10.05,10.11c5.35-0.38,9.88-5.23,10.16-10.86C146.38,121.23,145.43,118.63,143.77,116.75z M127.56,152.99
		c1.59,1.26,3.84,1.88,6.39,1.55c4.92-0.64,9.44-4.76,10.16-9.26c0.38-2.38-0.32-4.48-1.74-5.94c-1.49-1.53-3.76-2.37-6.45-2.17
		c-5.59,0.43-10.47,4.99-10.8,10.08C124.96,149.65,125.91,151.67,127.56,152.99z M135.92,87.66c2.7,0.2,4.97-0.64,6.45-2.17
		c1.42-1.47,2.12-3.56,1.74-5.94c-0.72-4.51-5.24-8.63-10.16-9.26c-2.54-0.33-4.8,0.29-6.39,1.55c-1.65,1.32-2.6,3.34-2.44,5.74
		C125.45,82.67,130.33,87.23,135.92,87.66z M147.24,74.69c-1.13,1.08-1.64,2.89-1.25,5.17c0.81,4.79,4.96,9.36,9.17,10.08
		c1.96,0.33,3.5-0.3,4.4-1.59c0.85-1.22,1.12-3.06,0.62-5.21c-0.97-4.12-4.64-8.23-8.29-9.27
		C149.94,73.31,148.31,73.67,147.24,74.69z M168.03,92.92c2.24,0.72,3.18-1.85,2.13-5.65c-1.01-3.63-3.6-7.45-5.86-8.63
		c-2.51-1.32-3.84,0.82-2.86,4.89C162.47,87.83,165.45,92.09,168.03,92.92z M177.66,105.07c-0.34-3.59-1.45-6.98-2.44-7.59
		c-1.2-0.73-1.85,2.08-1.47,6.28c0.38,4.27,1.58,7.8,2.77,7.85C177.44,111.64,178,108.7,177.66,105.07z M175.29,91.66
		c0.94,3.18,1.93,6.4,2.16,7.08c0.03,0.08,0.04,0.12,0.05,0.12c0,0,0-0.01,0-0.03c0-0.02,0.04-0.01,0.06-0.02s0.04-0.01,0.07-0.02
		c0,0,0,0,0,0c-0.79-3.77-1.91-7.42-3.31-10.93c-0.03,0.01-0.06,0.02-0.09,0.02c-0.02,0-0.02,0-0.02-0.01
		c-0.01-0.01-0.01-0.02-0.01-0.01c0,0.02,0.04,0.18,0.12,0.48C174.49,88.95,174.83,90.11,175.29,91.66z M176.52,113.21
		c-1.2,0.05-2.39,3.57-2.77,7.85c-0.37,4.21,0.27,7.02,1.47,6.28c0.99-0.61,2.1-4.01,2.44-7.59
		C178,116.12,177.44,113.18,176.52,113.21z M174.94,95.98c1.01,0.67,1.04-1.47,0.09-4.7c-0.93-3.13-2.54-6.5-3.66-7.64
		c-1.26-1.28-1.53,0.47-0.52,4.05C171.9,91.43,173.73,95.18,174.94,95.98z M155.42,91.95c-2.07-0.32-3.9,0.48-5.21,2.04
		c-1.36,1.63-2.14,4.04-1.99,6.85c0.15,2.84,1.2,5.47,2.78,7.39c1.54,1.88,3.54,3.05,5.65,3.07c2,0.02,3.72-1.04,4.86-2.75
		c1.1-1.65,1.68-3.94,1.49-6.48c-0.19-2.52-1.1-4.88-2.43-6.68C159.22,93.55,157.39,92.26,155.42,91.95z M173.35,139
		c-0.03,0.06-0.06,0.13-0.09,0.2c-0.06,0.13-0.12,0.27-0.19,0.42c-0.13,0.29-0.27,0.59-0.42,0.9c-0.6,1.27-1.32,2.7-1.99,3.94
		c-0.17,0.31-0.32,0.58-0.46,0.83c-0.02,0.04,0.01,0.09,0.02,0.13c0.01,0.04,0.02,0.07,0.03,0.11c1.23-2.15,2.36-4.37,3.35-6.67
		c-0.01,0-0.02,0.01-0.03,0.01C173.48,138.91,173.38,138.93,173.35,139z M158.8,64.79c0.19,0.21,0.48,0.53,0.87,0.96
		c1.63,1.83,4.2,4.77,5.54,6.35c0.32,0.38,0.53,0.63,0.64,0.77c0.03,0.03,0.05,0.06,0.06,0.08c0,0,0.04-0.02,0.06-0.03
		c-2.23-3.01-4.71-5.81-7.41-8.4c0,0.01-0.01,0.02-0.01,0.02c0.01,0.01,0.02,0.02,0.03,0.03C158.64,64.61,158.71,64.69,158.8,64.79z
		 M165.82,151.85c1.23-1.44,3.2-4.44,4.52-6.86c1.38-2.54,1.66-3.77,0.53-2.59c-1.27,1.32-3.59,4.83-5.07,7.65
		C164.41,152.7,164.48,153.42,165.82,151.85z M92.05,175.41c0.85,0.61,4.02,1.58,7.13,2.18c3.18,0.62,5.5,0.67,5.18,0.18
		c-0.43-0.65-3.82-1.7-7.56-2.41C93.16,174.67,91.07,174.71,92.05,175.41z M174.94,128.84c-1.2,0.8-3.04,4.56-4.09,8.29
		c-1.01,3.58-0.74,5.33,0.52,4.05c1.12-1.14,2.73-4.51,3.66-7.64C175.98,130.31,175.94,128.17,174.94,128.84z M177.89,105.21
		c0.34,3.56,0.68,6.48,0.93,6.54c0.03,0.01,0.06-0.15,0.06-0.43c0-0.07,0-0.15,0-0.23c0-0.04,0-0.09,0-0.13c0-0.02,0-0.05,0-0.07
		c0-0.04,0.07-0.05,0.11-0.08c0.01,0,0.01-0.01,0.02-0.01c-0.09-3.4-0.42-6.73-1-9.99c-0.04-0.02-0.08-0.03-0.11-0.05
		c-0.03-0.01-0.03-0.04-0.03-0.07c-0.01-0.05-0.02-0.09-0.02-0.13c-0.02-0.09-0.03-0.16-0.05-0.23c-0.03-0.14-0.06-0.25-0.09-0.32
		C177.47,99.37,177.55,101.69,177.89,105.21z M172.66,84.31c0.15,0.31,0.29,0.62,0.42,0.9c0.06,0.14,0.13,0.28,0.19,0.42
		c0.03,0.07,0.06,0.13,0.09,0.2c0.02,0.05,0.09,0.08,0.16,0.11c-0.98-2.24-2.08-4.41-3.29-6.52c-0.01,0.04-0.04,0.09-0.02,0.12
		c0.14,0.25,0.3,0.53,0.46,0.83C171.34,81.61,172.06,83.04,172.66,84.31z M158.66,157.96c2.22-1.44,5.03-4.66,6.42-7.33
		c1.48-2.85,0.95-4.29-1.3-3.07c-2.5,1.36-5.81,5.1-7.23,8.2C155.25,158.61,156.26,159.52,158.66,157.96z M128.17,174.92
		c3.7-0.7,7.42-2.54,8.35-4.14c1.07-1.84-1.45-2.78-5.72-2.06c-4.41,0.75-8.42,2.83-8.88,4.68
		C121.55,174.93,124.37,175.63,128.17,174.92z M158.06,158.89c-2.39,1.57-5.72,4.49-7.23,6.34c-1.38,1.68-0.54,1.66,1.71,0.1
		c2.11-1.47,4.92-3.92,6.43-5.62C160.59,157.87,160.27,157.43,158.06,158.89z M127.89,175.36c-3.73,0.71-7.13,1.76-7.55,2.41
		c-0.32,0.49,2,0.44,5.18-0.18c3.12-0.61,6.28-1.57,7.13-2.18C133.62,174.71,131.53,174.67,127.89,175.36z M141.98,170.94
		c2.98-1.21,6.38-3.46,7.74-5.14c1.49-1.85,0.15-2.45-3.16-1.22c-3.52,1.31-7.41,3.94-8.55,5.78
		C137.02,171.97,138.85,172.2,141.98,170.94z M140.57,161.08c0.5-1.62,0.02-2.98-1.17-3.88c-1.25-0.95-3.26-1.37-5.72-1.04
		c-2.51,0.34-4.94,1.38-6.8,2.78c-1.82,1.38-3.05,3.04-3.27,4.71c-0.2,1.56,0.57,2.81,1.98,3.54c1.34,0.7,3.28,0.94,5.51,0.57
		C135.44,167.02,139.64,164.06,140.57,161.08z M178.98,114.02c-0.04-0.03-0.11-0.04-0.11-0.08c0-0.02,0-0.05,0-0.07
		c0-0.05,0-0.09,0-0.13c0-0.09,0-0.16,0-0.23c0-0.28-0.03-0.44-0.06-0.43c-0.24,0.05-0.59,2.98-0.93,6.54
		c-0.33,3.52-0.42,5.84-0.19,5.21c0.03-0.07,0.05-0.18,0.09-0.32c0.02-0.07,0.03-0.15,0.05-0.23c0.01-0.04,0.02-0.09,0.02-0.13
		c0-0.02,0-0.06,0.03-0.07c0.04-0.02,0.09-0.03,0.13-0.05c0.01,0,0.01-0.01,0.02-0.01c0.57-3.25,0.9-6.58,0.97-9.97
		C178.99,114.03,178.99,114.03,178.98,114.02z M103.66,178.39c-1.17-0.16-2.69-0.41-4.24-0.71c-0.77-0.15-1.47-0.3-2.06-0.43
		c-0.07-0.02-0.15-0.03-0.22-0.05c-0.07-0.02-0.14-0.05-0.2-0.02c2.3,0.55,4.64,0.98,7.02,1.28c-0.03-0.03-0.06-0.04-0.1-0.04
		C103.81,178.41,103.74,178.4,103.66,178.39z M127.54,177.2c-0.07,0.02-0.14,0.03-0.22,0.05c-0.59,0.13-1.29,0.28-2.06,0.43
		c-1.55,0.3-3.07,0.55-4.24,0.71c-0.07,0.01-0.14,0.02-0.21,0.03c-0.03,0-0.07,0.01-0.1,0.04c-0.01,0.02-0.03,0.03-0.04,0.05
		c2.43-0.3,4.82-0.73,7.16-1.28c-0.03-0.02-0.06-0.04-0.09-0.05C127.69,177.14,127.61,177.18,127.54,177.2z M116.77,178.81
		c-0.11,0.01-0.22,0.01-0.34,0.02c-0.99,0.05-2.44,0.08-4.08,0.08s-3.09-0.03-4.08-0.08c-0.12-0.01-0.24-0.01-0.34-0.02
		c-0.05,0-0.1-0.01-0.15-0.01c-0.02,0-0.03,0.01-0.04,0.03c1.58,0.11,3.17,0.19,4.78,0.19c1.5,0,2.99-0.07,4.47-0.17
		c-0.02-0.03-0.04-0.06-0.06-0.06C116.87,178.8,116.82,178.81,116.77,178.81z M165.93,151.88c-0.02,0.02-0.04,0.05-0.06,0.08
		c-0.11,0.14-0.32,0.39-0.64,0.77c-1.35,1.58-3.92,4.52-5.54,6.35c-0.39,0.44-0.68,0.76-0.87,0.96c-0.09,0.1-0.16,0.17-0.21,0.22
		c-0.01,0.01-0.02,0.02-0.03,0.03c-0.01,0.01,0.03,0.06,0.08,0.12c2.7-2.6,5.19-5.43,7.43-8.45c0,0-0.01-0.01-0.01-0.01
		C165.98,151.89,165.93,151.87,165.93,151.88z M153.18,59.87c-0.17-0.12-0.39-0.28-0.63-0.46c0.25,0.19,0.51,0.36,0.75,0.55
		C153.26,59.93,153.22,59.91,153.18,59.87z M151.92,58.98c0.23,0.16,0.43,0.3,0.62,0.44c-2.3-1.74-4.7-3.35-7.22-4.79
		C146.81,55.53,149.78,57.49,151.92,58.98z M153.46,60.09C153.46,60.09,153.46,60.08,153.46,60.09c-0.05-0.04-0.11-0.08-0.16-0.12
		c0.03,0.02,0.06,0.04,0.08,0.06C153.41,60.04,153.43,60.07,153.46,60.09z M141.48,171.42c-3.08,1.25-6.54,2.91-7.57,3.62
		c-0.47,0.32-0.29,0.37,0.35,0.18c0.31-0.09,0.73-0.23,1.24-0.42c0.06-0.02,0.14,0.02,0.21,0.06c2.52-0.94,4.95-2.03,7.31-3.25
		c0.02-0.04,0.04-0.09,0.05-0.13c0.03-0.07,0.1-0.09,0.16-0.13c0.12-0.06,0.23-0.12,0.34-0.18c0.21-0.12,0.41-0.23,0.57-0.33
		C145.54,170.01,144.43,170.22,141.48,171.42z M112.35,48.03c3.95,0,6.9-0.46,6.55-1.11c-0.26-0.48-3.22-0.94-6.55-0.94
		c-0.36,0-0.72,0.01-1.07,0.02c-0.07,0-0.14,0-0.2,0.01c-2.78,0.1-5.04,0.5-5.27,0.92C105.44,47.57,108.4,48.03,112.35,48.03z
		 M127.89,49.46c3.64,0.69,5.73,0.65,4.76-0.05c-0.59-0.42-2.31-1.02-4.33-1.54c-1.43-0.35-2.87-0.65-4.34-0.9
		c-2.34-0.35-3.91-0.32-3.64,0.08C120.76,47.7,124.16,48.76,127.89,49.46z M72.61,165.73c1.98,1.48,4.04,2.85,6.18,4.11
		c-1.59-1-4.13-2.68-6.02-4C72.71,165.8,72.66,165.77,72.61,165.73z M83.21,53.4c3.08-1.25,6.54-2.9,7.57-3.62
		c0.2-0.14,0.26-0.21,0.24-0.25c-3.85,1.31-7.54,2.97-11.03,4.93C80.14,54.54,81.26,54.19,83.21,53.4z M96.8,49.46
		c3.73-0.71,7.13-1.76,7.56-2.41c0.22-0.33-0.8-0.41-2.46-0.24c-2.83,0.45-5.59,1.09-8.29,1.89c-0.72,0.26-1.28,0.5-1.56,0.71
		C91.07,50.11,93.16,50.15,96.8,49.46z M60.39,146.18c2.51,1.32,3.84-0.82,2.86-4.89c-1.04-4.3-4.01-8.56-6.59-9.39
		c-2.24-0.72-3.18,1.85-2.13,5.65C55.55,141.18,58.14,144.99,60.39,146.18z M64.52,83.13c-0.5,2.15-0.23,3.99,0.62,5.21
		c0.9,1.29,2.44,1.92,4.4,1.59c4.21-0.72,8.36-5.29,9.17-10.08c0.38-2.28-0.12-4.09-1.25-5.17c-1.07-1.02-2.7-1.38-4.64-0.82
		C69.16,74.91,65.49,79.01,64.52,83.13z M77.63,61.2c-3.35,1.23-7,4.45-8.29,7.32c-1.4,3.12,0.3,4.89,3.92,3.82
		c3.92-1.16,8.09-4.88,9.17-8.19C83.4,61.18,81.19,59.9,77.63,61.2z M87.86,111.19c5.8-0.03,10.67-5.07,10.8-11.21
		c0.11-5.98-4.42-10.5-10.05-10.11c-5.35,0.38-9.88,5.23-10.16,10.86c-0.14,2.87,0.81,5.47,2.47,7.35
		C82.62,110.01,85.07,111.2,87.86,111.19z M61.69,102.07c-0.19,2.54,0.4,4.83,1.49,6.48c1.14,1.71,2.86,2.76,4.86,2.75
		c2.11-0.02,4.11-1.19,5.65-3.07c1.58-1.93,2.63-4.55,2.78-7.39c0.15-2.81-0.63-5.22-1.99-6.85c-1.31-1.56-3.15-2.36-5.21-2.04
		c-1.97,0.31-3.8,1.6-5.16,3.44C62.79,97.19,61.87,99.56,61.69,102.07z M78.45,124.1c0.28,5.63,4.81,10.48,10.16,10.86
		c5.63,0.39,10.17-4.13,10.05-10.11c-0.13-6.14-5-11.19-10.8-11.21c-2.79-0.01-5.24,1.18-6.94,3.11
		C79.26,118.63,78.31,121.23,78.45,124.1z M73.69,116.59c-1.54-1.88-3.54-3.05-5.65-3.07c-2-0.02-3.72,1.04-4.86,2.75
		c-1.1,1.65-1.68,3.94-1.49,6.48c0.19,2.52,1.1,4.88,2.43,6.68c1.36,1.84,3.19,3.13,5.16,3.44c2.07,0.32,3.9-0.48,5.21-2.04
		c1.36-1.63,2.14-4.04,1.99-6.85C76.32,121.14,75.27,118.52,73.69,116.59z M47.12,100.28c-0.68,3.64-1.06,7.38-1.11,11.2
		c0.23-0.77,0.52-3.29,0.8-6.27C47.03,102.82,47.14,101.02,47.12,100.28z M46,113.32c0.05,3.87,0.43,7.67,1.11,11.36
		c0.04-0.64-0.07-2.53-0.31-5.07C46.52,116.61,46.23,114.08,46,113.32z M53.33,141.18c1.26,1.28,1.53-0.47,0.52-4.05
		c-1.05-3.73-2.89-7.49-4.09-8.29c-1.01-0.67-1.04,1.47-0.09,4.7C50.6,136.67,52.21,140.04,53.33,141.18z M90.74,154.54
		c2.54,0.33,4.8-0.29,6.39-1.55c1.65-1.32,2.6-3.34,2.44-5.74c-0.33-5.09-5.21-9.65-10.8-10.08c-2.7-0.2-4.97,0.64-6.45,2.17
		c-1.42,1.47-2.12,3.56-1.74,5.94C81.3,149.79,85.82,153.9,90.74,154.54z M49.93,89.87c-0.81,2.23-1.49,4.52-2.06,6.86
		c0.42-1.37,0.98-3.22,1.53-5.07C49.61,90.98,49.78,90.39,49.93,89.87z M66.63,65.94c2.39-1.57,5.72-4.49,7.23-6.34
		c1.15-1.4,0.74-1.6-0.71-0.74c-2.77,2.04-5.38,4.28-7.8,6.71C64.19,67,64.62,67.26,66.63,65.94z M66.03,157.96
		c2.4,1.56,3.42,0.65,2.11-2.2c-1.42-3.09-4.72-6.84-7.23-8.2c-2.26-1.22-2.78,0.22-1.3,3.07C60.99,153.3,63.81,156.52,66.03,157.96
		z M77.45,150.14c1.13-1.08,1.64-2.89,1.25-5.17c-0.81-4.79-4.96-9.36-9.17-10.08c-1.96-0.33-3.5,0.3-4.4,1.59
		c-0.85,1.22-1.12,3.06-0.62,5.21c0.97,4.12,4.64,8.23,8.29,9.27C74.75,151.51,76.38,151.16,77.45,150.14z M77.63,163.62
		c3.56,1.3,5.77,0.02,4.8-2.95c-1.09-3.31-5.26-7.03-9.17-8.19c-3.62-1.07-5.32,0.7-3.92,3.82
		C70.62,159.17,74.28,162.4,77.63,163.62z M99.09,167.19c1.41-0.73,2.18-1.98,1.98-3.54c-0.21-1.66-1.44-3.33-3.27-4.71
		c-1.86-1.4-4.29-2.44-6.8-2.78c-2.46-0.33-4.46,0.09-5.72,1.04c-1.18,0.89-1.67,2.26-1.17,3.88c0.93,2.98,5.13,5.95,9.47,6.68
		C95.81,168.12,97.75,167.88,99.09,167.19z M82.71,170.94c3.13,1.26,4.96,1.03,3.97-0.58c-1.13-1.84-5.03-4.47-8.55-5.78
		c-3.31-1.23-4.65-0.63-3.16,1.22C76.33,167.48,79.73,169.73,82.71,170.94z M53.82,142.4c-0.75-0.78-0.87-0.49-0.47,0.51
		c1.62,3.15,3.48,6.16,5.57,9c1.28,1.47,1.34,0.75-0.03-1.86C57.42,147.24,55.09,143.73,53.82,142.4z M64.97,159.02
		c-1.38-1.55-3.41-3.87-4.81-5.5C61.67,155.44,63.27,157.28,64.97,159.02z M78.14,60.24c3.52-1.31,7.41-3.94,8.55-5.78
		c0.99-1.61-0.84-1.84-3.97-0.58c-2.98,1.21-6.38,3.46-7.74,5.14C73.48,60.87,74.82,61.47,78.14,60.24z M96.52,174.92
		c3.8,0.71,6.62,0.01,6.24-1.52c-0.46-1.84-4.47-3.93-8.88-4.68c-4.27-0.73-6.79,0.21-5.72,2.06
		C89.1,172.38,92.82,174.22,96.52,174.92z M53.82,82.42c1.27-1.32,3.59-4.83,5.07-7.65c1.15-2.19,1.28-3.03,0.54-2.38
		c-2.37,3.13-4.46,6.48-6.25,10.01C53.03,82.98,53.22,83.05,53.82,82.42z M80.58,79.55c-0.38,2.38,0.32,4.48,1.74,5.94
		c1.49,1.53,3.76,2.37,6.45,2.17c5.59-0.43,10.47-4.99,10.8-10.08c0.15-2.41-0.79-4.43-2.44-5.74c-1.59-1.26-3.84-1.88-6.39-1.55
		C85.82,70.92,81.3,75.04,80.58,79.55z"/>
</g>
</svg>
