<?xml version="1.0" encoding="utf-8"?>
<!-- Generator: Adobe Illustrator 26.2.1, SVG Export Plug-In . SVG Version: 6.00 Build 0)  -->
<svg version="1.1" xmlns="http://www.w3.org/2000/svg" xmlns:xlink="http://www.w3.org/1999/xlink" x="0px" y="0px"
	 viewBox="0 0 225 225" style="enable-background:new 0 0 225 225;" xml:space="preserve">
<style type="text/css">
	.st0{display:none;}
	.st1{display:inline;fill:#FAB433;}
	.st2{fill:none;}
	.st3{fill:none;stroke:#000000;stroke-width:1.6;stroke-miterlimit:10;}
	.st4{fill:none;stroke:#000000;stroke-width:0.7265;stroke-miterlimit:10;}
	.st5{fill:none;stroke:#000000;stroke-linecap:round;stroke-linejoin:round;stroke-miterlimit:10;}
	.st6{fill:none;stroke:#000000;stroke-miterlimit:10;}
	.st7{fill:none;stroke:#000000;stroke-width:0.7105;stroke-miterlimit:10;}
	.st8{fill:none;stroke:#000000;stroke-width:5.4;stroke-linecap:round;stroke-linejoin:round;stroke-miterlimit:10;}
	.st9{fill:none;stroke:#000000;stroke-width:2.9309;stroke-linecap:round;stroke-linejoin:round;stroke-miterlimit:10;}
	.st10{fill:none;stroke:#000000;stroke-width:0.5;stroke-linecap:round;stroke-linejoin:round;}
	.st11{fill:none;stroke:#FFFFFF;stroke-width:0;stroke-linecap:round;stroke-linejoin:round;}
	.st12{fill:#FFFFFF;}
	.st13{fill:none;stroke:#000000;stroke-width:1.4;stroke-miterlimit:10;}
	.st14{fill:url(#);stroke:#000000;stroke-width:1.4387;stroke-miterlimit:10;}
	.st15{fill:url(#);stroke:#000000;stroke-width:1.3718;stroke-miterlimit:10;}
	.st16{fill:none;stroke:#000000;stroke-width:1.0041;stroke-miterlimit:10;}
	.st17{fill:none;stroke:#000000;stroke-width:1.3621;stroke-miterlimit:10;}
	.st18{fill:none;stroke:#000000;stroke-width:0.25;stroke-miterlimit:10;}
</style>
<g id="Layer_2" class="st0">
	<rect id="XMLID_3548_" x="-590.99" y="-275.01" class="st1" width="1160" height="772"/>
</g>
<g id="Layer_1">
	<g>
		<path d="M179.98,105.53c0,0.01,0,0.02,0,0.03c-2.25,0.06-4.49,0.18-6.72,0.36c0.05,1.03,0.08,2.06,0.08,3.1
			c0,0.99-0.03,1.97-0.07,2.95c0.33-0.16,0.66-0.33,0.99-0.52c2.42-1.41,4.33-3.44,5.75-5.91
			C179.99,105.54,179.99,105.54,179.98,105.53z"/>
		<path d="M84.31,163.21c-1.73-0.9-3.42-1.88-5.05-2.93c-0.01,0.18-0.02,0.37-0.02,0.55c0,2.8,0.82,5.47,2.24,7.93
			c0,0,0.01,0,0.01-0.01c0,0,0-0.01-0.01-0.01C82.48,166.92,83.42,165.07,84.31,163.21z"/>
		<path d="M148.81,51.85C148.81,51.85,148.81,51.84,148.81,51.85c-2.78,0.02-5.43,0.64-7.8,2.01c-0.4,0.23-0.77,0.48-1.14,0.74
			c1.78,0.9,3.5,1.89,5.18,2.96C146.35,55.69,147.6,53.79,148.81,51.85z"/>
		<path d="M51.38,106.07c-2.08-0.17-4.16-0.29-6.25-0.36c0,0.01,0,0.02,0,0.03c1.42,2.39,3.28,4.38,5.66,5.75
			c0.19,0.11,0.39,0.21,0.59,0.31c-0.04-0.92-0.07-1.84-0.07-2.77C51.3,108.03,51.33,107.05,51.38,106.07z"/>
		<path d="M143.51,168.62c0.02-0.01,0.05-0.02,0.07-0.03c1.37-2.42,2.15-5.03,2.15-7.77c0-0.26-0.02-0.51-0.03-0.77
			c-1.62,1.06-3.29,2.05-5.01,2.96C141.59,164.9,142.53,166.78,143.51,168.62z"/>
		<path d="M84.98,54.49c-0.31-0.21-0.63-0.41-0.95-0.6c-2.43-1.4-5.15-2.02-7.99-2.02c0,0.02,0,0.03,0,0.05
			c1.16,1.9,2.38,3.77,3.64,5.6C81.39,56.42,83.16,55.41,84.98,54.49z"/>
		<path d="M173.26,105.92c-0.47,0.04-0.95,0.09-1.42,0.13c0.05,0.98,0.08,1.97,0.08,2.97c0,22.83-12.91,42.69-31.81,52.7
			c0.2,0.43,0.39,0.86,0.59,1.29c1.72-0.91,3.39-1.9,5.01-2.96c15.85-10.41,26.59-27.98,27.55-48.08c0.05-0.98,0.07-1.96,0.07-2.95
			C173.34,107.98,173.31,106.95,173.26,105.92z"/>
		<path d="M84.92,161.92c-19.11-9.94-32.2-29.91-32.2-52.9c0-0.95,0.03-1.89,0.07-2.82c-0.47-0.04-0.95-0.09-1.42-0.13
			c-0.05,0.98-0.07,1.97-0.07,2.96c0,0.93,0.03,1.85,0.07,2.77c0.91,20.32,11.81,38.07,27.9,48.48c1.63,1.06,3.31,2.03,5.05,2.93
			C84.52,162.78,84.72,162.35,84.92,161.92z"/>
		<path d="M80.49,58.67c9.22-5.85,20.13-9.25,31.82-9.25c11.72,0,22.66,3.42,31.89,9.29c0.28-0.39,0.56-0.77,0.83-1.15
			c-1.67-1.07-3.4-2.05-5.18-2.96c-8.28-4.21-17.63-6.6-27.54-6.6c-9.82,0-19.11,2.35-27.33,6.49c-1.83,0.92-3.6,1.93-5.31,3.02
			C79.94,57.9,80.22,58.28,80.49,58.67z"/>
		<g>
			<path d="M140.11,161.72c-2.67-5.84-4.9-11.86-6.66-18.01c12.39-7.6,19.34-20.8,19.46-34.44c6.23-1.56,12.55-2.63,18.93-3.22
				c0.47-0.04,0.95-0.09,1.42-0.13c2.24-0.18,4.48-0.3,6.72-0.36c0-0.01,0-0.02,0-0.03c0-0.1,0-0.21-0.01-0.32
				c-0.05-0.91-0.12-1.81-0.21-2.71c-0.04-0.48-0.08-0.96-0.14-1.44c-0.09-0.87-0.22-1.74-0.34-2.61c-0.08-0.49-0.16-0.99-0.25-1.48
				c-0.15-0.85-0.31-1.7-0.5-2.55c-0.11-0.5-0.22-0.99-0.34-1.48c-0.2-0.84-0.41-1.67-0.64-2.51c-0.13-0.49-0.29-0.97-0.43-1.45
				c-0.25-0.83-0.51-1.65-0.79-2.46c-0.17-0.48-0.35-0.97-0.54-1.45c-0.3-0.8-0.6-1.6-0.93-2.39c-0.21-0.5-0.44-0.99-0.66-1.48
				c-0.34-0.76-0.67-1.51-1.04-2.25c-0.27-0.55-0.56-1.09-0.84-1.63c-0.35-0.66-0.7-1.33-1.07-1.99c-0.35-0.63-0.74-1.24-1.12-1.85
				c-0.34-0.56-0.67-1.12-1.03-1.66c-0.51-0.78-1.05-1.54-1.59-2.3c-0.24-0.34-0.48-0.69-0.73-1.02c-0.66-0.89-1.35-1.76-2.05-2.62
				c-0.15-0.19-0.31-0.38-0.46-0.56c-0.78-0.92-1.57-1.82-2.4-2.7c-0.11-0.12-0.22-0.24-0.33-0.37c-0.83-0.87-1.68-1.72-2.55-2.54
				c-0.15-0.14-0.29-0.29-0.43-0.42c-0.8-0.75-1.63-1.47-2.47-2.18c-0.26-0.22-0.52-0.44-0.78-0.66c-0.69-0.57-1.41-1.12-2.13-1.66
				c-0.46-0.34-0.9-0.68-1.36-1.01c-0.5-0.36-1.02-0.7-1.53-1.05c-0.48-0.32-0.97-0.65-1.46-0.96c-0.01,0.02-0.03,0.04-0.04,0.07
				c-1.21,1.94-2.46,3.84-3.77,5.71c-0.27,0.39-0.56,0.77-0.83,1.15c-3.71,5.17-7.79,10.05-12.21,14.6
				c-11.9-6.63-26.8-7.14-39.54-0.13c-4.35-4.53-8.34-9.38-11.96-14.5c-0.27-0.39-0.55-0.77-0.82-1.16c-1.26-1.83-2.47-3.7-3.64-5.6
				c-0.01-0.02-0.02-0.03-0.03-0.05c-0.17,0.11-0.36,0.22-0.53,0.33c-0.5,0.32-0.98,0.66-1.47,1c-0.7,0.49-1.4,0.98-2.09,1.5
				c-0.4,0.3-0.79,0.61-1.19,0.92c-0.75,0.59-1.48,1.2-2.2,1.81c-0.32,0.26-0.62,0.53-0.93,0.81c-0.8,0.7-1.57,1.43-2.33,2.17
				c-0.21,0.21-0.43,0.42-0.64,0.62c-0.85,0.86-1.68,1.73-2.47,2.62c-0.11,0.11-0.22,0.23-0.32,0.35
				C51.56,75.65,45.7,90.45,45,105.7c0.04,0,0.09,0,0.13,0.01c2.09,0.07,4.17,0.19,6.25,0.36c0.47,0.04,0.95,0.09,1.42,0.13
				c6.24,0.59,12.43,1.63,18.5,3.12c0.06,6.82,1.8,13.71,5.45,20.03c3.7,6.41,8.88,11.4,14.85,14.86
				c-1.77,6.07-4.01,11.98-6.68,17.71c-0.2,0.43-0.4,0.86-0.6,1.29c-0.9,1.87-1.83,3.71-2.82,5.53c0.01,0,0.01,0,0.01,0.01
				c0,0,0,0,0,0c9.29,4.81,19.84,7.53,31,7.54l0.01,0c1.38,0,2.75-0.05,4.1-0.12c0.3-0.02,0.6-0.05,0.9-0.07
				c1.02-0.08,2.05-0.17,3.05-0.29c0.63-0.08,1.25-0.17,1.88-0.27c0.69-0.1,1.37-0.21,2.05-0.33c0.84-0.15,1.67-0.33,2.51-0.51
				c0.48-0.11,0.95-0.2,1.43-0.32c0.93-0.23,1.86-0.48,2.78-0.75c0.4-0.11,0.79-0.22,1.18-0.34c0.91-0.28,1.82-0.59,2.72-0.91
				c0.42-0.15,0.85-0.29,1.27-0.46c0.8-0.3,1.58-0.63,2.36-0.95c0.55-0.23,1.09-0.46,1.62-0.7c0.6-0.28,1.19-0.56,1.78-0.85
				c0.48-0.23,0.95-0.47,1.42-0.71c-0.01-0.02-0.02-0.05-0.04-0.07c-0.99-1.85-1.92-3.72-2.81-5.61
				C140.5,162.58,140.3,162.15,140.11,161.72z M132.76,108.98c0,11.19-9.07,20.27-20.27,20.27c-11.19,0-20.27-9.07-20.27-20.27
				c0-11.19,9.07-20.27,20.27-20.27C123.69,88.71,132.76,97.79,132.76,108.98z"/>
		</g>
	</g>
</g>
</svg>
