<?xml version="1.0" encoding="utf-8"?>
<!-- Generator: Adobe Illustrator 26.2.1, SVG Export Plug-In . SVG Version: 6.00 Build 0)  -->
<svg version="1.1" xmlns="http://www.w3.org/2000/svg" xmlns:xlink="http://www.w3.org/1999/xlink" x="0px" y="0px"
	 viewBox="0 0 225 225" style="enable-background:new 0 0 225 225;" xml:space="preserve">
<style type="text/css">
	.st0{display:none;}
	.st1{display:inline;fill:#FAB433;}
	.st2{fill:none;}
	.st3{fill:none;stroke:#000000;stroke-width:1.6;stroke-miterlimit:10;}
	.st4{fill:none;stroke:#000000;stroke-width:0.7265;stroke-miterlimit:10;}
	.st5{fill:none;stroke:#000000;stroke-linecap:round;stroke-linejoin:round;stroke-miterlimit:10;}
	.st6{fill:none;stroke:#000000;stroke-miterlimit:10;}
	.st7{fill:none;stroke:#000000;stroke-width:0.7105;stroke-miterlimit:10;}
	.st8{fill:none;stroke:#000000;stroke-width:5.4;stroke-linecap:round;stroke-linejoin:round;stroke-miterlimit:10;}
	.st9{fill:none;stroke:#000000;stroke-width:2.9309;stroke-linecap:round;stroke-linejoin:round;stroke-miterlimit:10;}
	.st10{fill:none;stroke:#000000;stroke-width:0.5;stroke-linecap:round;stroke-linejoin:round;}
	.st11{fill:none;stroke:#FFFFFF;stroke-width:0;stroke-linecap:round;stroke-linejoin:round;}
	.st12{fill:#FFFFFF;}
	.st13{fill:none;stroke:#000000;stroke-width:1.4;stroke-miterlimit:10;}
	.st14{fill:url(#);stroke:#000000;stroke-width:1.4387;stroke-miterlimit:10;}
	.st15{fill:url(#);stroke:#000000;stroke-width:1.3718;stroke-miterlimit:10;}
	.st16{fill:none;stroke:#000000;stroke-width:1.0041;stroke-miterlimit:10;}
	.st17{fill:none;stroke:#000000;stroke-width:1.3621;stroke-miterlimit:10;}
	.st18{fill:none;stroke:#000000;stroke-width:0.25;stroke-miterlimit:10;}
</style>
<g id="Layer_2" class="st0">
	<rect id="XMLID_2028_" x="-345.99" y="-30.01" class="st1" width="1160" height="772"/>
</g>
<g id="Layer_1">
	<g id="XMLID_12417_">
		<path id="XMLID_12481_" d="M112.5,112.5H180c0,1.11-0.03,2.22-0.08,3.31L112.5,112.5z"/>
		<path id="XMLID_12480_" d="M179.92,109.19l-67.42,3.31l67.18-6.62C179.79,106.98,179.87,108.08,179.92,109.19z"/>
		<path id="XMLID_12479_" d="M112.5,112.5l67.18,6.62c-0.11,1.11-0.24,2.2-0.4,3.29L112.5,112.5z"/>
		<path id="XMLID_12478_" d="M179.28,102.59l-66.78,9.91l66.22-13.17C178.93,100.41,179.12,101.5,179.28,102.59z"/>
		<path id="XMLID_12477_" d="M112.5,112.5l66.22,13.17c-0.22,1.09-0.46,2.16-0.72,3.23L112.5,112.5z"/>
		<path id="XMLID_12476_" d="M177.99,96.1l-65.49,16.4l64.61-19.6C177.43,93.96,177.72,95.02,177.99,96.1z"/>
		<path id="XMLID_12475_" d="M112.5,112.5l64.61,19.6c-0.32,1.06-0.67,2.11-1.04,3.14L112.5,112.5z"/>
		<path id="XMLID_12474_" d="M176.07,89.76L112.5,112.5l62.38-25.84C175.3,87.68,175.7,88.71,176.07,89.76z"/>
		<path id="XMLID_12473_" d="M112.5,112.5l62.38,25.84c-0.42,1.02-0.87,2.03-1.34,3.03L112.5,112.5z"/>
		<path id="XMLID_12472_" d="M173.53,83.63L112.5,112.5l59.54-31.83C172.56,81.64,173.06,82.63,173.53,83.63z"/>
		<path id="XMLID_12471_" d="M112.5,112.5l59.54,31.83c-0.52,0.98-1.07,1.94-1.63,2.88L112.5,112.5z"/>
		<path id="XMLID_12470_" d="M170.41,77.79L112.5,112.5L168.63,75C169.24,75.91,169.84,76.84,170.41,77.79z"/>
		<path id="XMLID_12469_" d="M112.5,112.5l56.13,37.5c-0.61,0.92-1.25,1.82-1.91,2.71L112.5,112.5z"/>
		<path id="XMLID_12468_" d="M166.72,72.29L112.5,112.5l52.18-42.82C165.38,70.53,166.06,71.4,166.72,72.29z"/>
		<path id="XMLID_12467_" d="M112.5,112.5l52.18,42.82c-0.7,0.85-1.42,1.69-2.17,2.51L112.5,112.5z"/>
		<path id="XMLID_12466_" d="M162.51,67.17L112.5,112.5l47.73-47.73C161.01,65.55,161.77,66.35,162.51,67.17z"/>
		<path id="XMLID_12465_" d="M112.5,112.5l47.73,47.73c-0.78,0.78-1.58,1.54-2.4,2.28L112.5,112.5z"/>
		<path id="XMLID_12464_" d="M157.83,62.49L112.5,112.5l42.82-52.18C156.18,61.02,157.01,61.74,157.83,62.49z"/>
		<path id="XMLID_12463_" d="M112.5,112.5l42.82,52.18c-0.85,0.7-1.73,1.38-2.61,2.04L112.5,112.5z"/>
		<path id="XMLID_12462_" d="M152.71,58.28L112.5,112.5L150,56.37C150.92,56.98,151.82,57.62,152.71,58.28z"/>
		<path id="XMLID_12461_" d="M112.5,112.5l37.5,56.13c-0.92,0.62-1.85,1.21-2.79,1.78L112.5,112.5z"/>
		<path id="XMLID_12460_" d="M147.21,54.59L112.5,112.5l31.83-59.54C145.3,53.48,146.26,54.03,147.21,54.59z"/>
		<path id="XMLID_12459_" d="M112.5,112.5l31.83,59.54c-0.97,0.52-1.96,1.02-2.96,1.49L112.5,112.5z"/>
		<path id="XMLID_12458_" d="M141.37,51.47L112.5,112.5l25.84-62.38C139.36,50.54,140.37,50.99,141.37,51.47z"/>
		<path id="XMLID_12457_" d="M112.5,112.5l25.84,62.38c-1.02,0.42-2.05,0.82-3.09,1.19L112.5,112.5z"/>
		<path id="XMLID_12456_" d="M135.24,48.93L112.5,112.5l19.6-64.61C133.16,48.21,134.21,48.56,135.24,48.93z"/>
		<path id="XMLID_12455_" d="M112.5,112.5l19.6,64.61c-1.06,0.32-2.12,0.61-3.2,0.88L112.5,112.5z"/>
		<path id="XMLID_12454_" d="M128.9,47.01l-16.4,65.49l13.17-66.22C126.76,46.5,127.83,46.74,128.9,47.01z"/>
		<path id="XMLID_12453_" d="M112.5,112.5l13.17,66.22c-1.08,0.21-2.17,0.4-3.27,0.56L112.5,112.5z"/>
		<path id="XMLID_12452_" d="M122.41,45.72l-9.91,66.78l6.62-67.18C120.22,45.43,121.32,45.56,122.41,45.72z"/>
		<path id="XMLID_12451_" d="M112.5,112.5l6.62,67.18c-1.09,0.11-2.19,0.19-3.3,0.24L112.5,112.5z"/>
		<path id="XMLID_12450_" d="M115.81,45.08l-3.31,67.42V45C113.61,45,114.72,45.03,115.81,45.08z"/>
		<path id="XMLID_12449_" d="M112.5,112.5V180c-1.11,0-2.22-0.03-3.31-0.08L112.5,112.5z"/>
		<path id="XMLID_12448_" d="M109.19,45.08l3.31,67.42l-6.62-67.18C106.98,45.21,108.08,45.13,109.19,45.08z"/>
		<path id="XMLID_12447_" d="M102.59,45.72l9.91,66.78L99.33,46.28C100.41,46.07,101.5,45.88,102.59,45.72z"/>
		<path id="XMLID_12446_" d="M96.1,47.01l16.4,65.49L92.9,47.89C93.96,47.57,95.02,47.28,96.1,47.01z"/>
		<path id="XMLID_12445_" d="M89.76,48.93l22.74,63.57L86.66,50.12C87.68,49.7,88.71,49.3,89.76,48.93z"/>
		<path id="XMLID_12444_" d="M83.63,51.47l28.87,61.03L80.67,52.96C81.64,52.44,82.63,51.94,83.63,51.47z"/>
		<path id="XMLID_12443_" d="M77.79,54.59l34.71,57.91L75,56.37C75.91,55.76,76.84,55.16,77.79,54.59z"/>
		<path id="XMLID_12442_" d="M72.29,58.28l40.21,54.22L69.68,60.32C70.53,59.62,71.4,58.94,72.29,58.28z"/>
		<path id="XMLID_12441_" d="M67.17,62.49l45.33,50.01L64.77,64.77C65.55,63.99,66.35,63.23,67.17,62.49z"/>
		<path id="XMLID_12440_" d="M112.5,112.5l-6.62,67.18c-1.11-0.11-2.2-0.24-3.29-0.4L112.5,112.5z"/>
		<path id="XMLID_12439_" d="M112.5,112.5l-13.17,66.22c-1.09-0.22-2.16-0.46-3.23-0.72L112.5,112.5z"/>
		<path id="XMLID_12438_" d="M112.5,112.5l-19.6,64.61c-1.06-0.32-2.11-0.67-3.14-1.04L112.5,112.5z"/>
		<path id="XMLID_12437_" d="M112.5,112.5l-25.84,62.38c-1.02-0.42-2.03-0.87-3.03-1.34L112.5,112.5z"/>
		<path id="XMLID_12436_" d="M112.5,112.5l-31.83,59.54c-0.98-0.52-1.94-1.07-2.88-1.63L112.5,112.5z"/>
		<path id="XMLID_12435_" d="M112.5,112.5L75,168.63c-0.92-0.61-1.82-1.25-2.71-1.91L112.5,112.5z"/>
		<path id="XMLID_12434_" d="M112.5,112.5l-42.82,52.18c-0.85-0.7-1.69-1.42-2.51-2.17L112.5,112.5z"/>
		<path id="XMLID_12433_" d="M112.5,112.5l-47.73,47.73c-0.78-0.78-1.54-1.58-2.28-2.4L112.5,112.5z"/>
		<path id="XMLID_12432_" d="M112.5,112.5l-52.18,42.82c-0.7-0.85-1.38-1.73-2.04-2.61L112.5,112.5z"/>
		<path id="XMLID_12431_" d="M112.5,112.5L56.37,150c-0.62-0.92-1.21-1.85-1.78-2.79L112.5,112.5z"/>
		<path id="XMLID_12430_" d="M112.5,112.5l-59.54,31.83c-0.52-0.97-1.02-1.96-1.49-2.96L112.5,112.5z"/>
		<path id="XMLID_12429_" d="M112.5,112.5l-62.38,25.84c-0.42-1.02-0.82-2.05-1.19-3.09L112.5,112.5z"/>
		<path id="XMLID_12428_" d="M112.5,112.5l-64.61,19.6c-0.32-1.06-0.61-2.12-0.88-3.2L112.5,112.5z"/>
		<path id="XMLID_12427_" d="M112.5,112.5l-66.22,13.17c-0.21-1.08-0.4-2.17-0.56-3.27L112.5,112.5z"/>
		<path id="XMLID_12426_" d="M112.5,112.5l-67.18,6.62c-0.11-1.09-0.19-2.19-0.24-3.3L112.5,112.5z"/>
		<path id="XMLID_12425_" d="M112.5,112.5H45c0-1.11,0.03-2.22,0.08-3.31L112.5,112.5z"/>
		<path id="XMLID_12424_" d="M112.5,112.5l-67.18-6.62c0.11-1.11,0.24-2.2,0.4-3.29L112.5,112.5z"/>
		<path id="XMLID_12423_" d="M112.5,112.5L46.28,99.33c0.22-1.09,0.46-2.16,0.72-3.23L112.5,112.5z"/>
		<path id="XMLID_12422_" d="M112.5,112.5L47.89,92.9c0.32-1.06,0.67-2.11,1.04-3.14L112.5,112.5z"/>
		<path id="XMLID_12421_" d="M112.5,112.5L50.12,86.66c0.42-1.02,0.87-2.03,1.34-3.03L112.5,112.5z"/>
		<path id="XMLID_12420_" d="M112.5,112.5L52.96,80.67c0.52-0.98,1.07-1.94,1.63-2.88L112.5,112.5z"/>
		<path id="XMLID_12419_" d="M112.5,112.5L56.37,75c0.61-0.92,1.25-1.82,1.91-2.71L112.5,112.5z"/>
		<path id="XMLID_12418_" d="M112.5,112.5L60.32,69.68c0.7-0.85,1.42-1.69,2.17-2.51L112.5,112.5z"/>
	</g>
</g>
</svg>
