<?xml version="1.0" encoding="utf-8"?>
<!-- Generator: Adobe Illustrator 26.2.1, SVG Export Plug-In . SVG Version: 6.00 Build 0)  -->
<svg version="1.1" xmlns="http://www.w3.org/2000/svg" xmlns:xlink="http://www.w3.org/1999/xlink" x="0px" y="0px"
	 viewBox="0 0 225 225" style="enable-background:new 0 0 225 225;" xml:space="preserve">
<style type="text/css">
	.st0{display:none;}
	.st1{display:inline;fill:#FAB433;}
	.st2{fill:none;}
	.st3{fill:none;stroke:#000000;stroke-width:1.6;stroke-miterlimit:10;}
	.st4{fill:none;stroke:#000000;stroke-width:0.7265;stroke-miterlimit:10;}
	.st5{fill:none;stroke:#000000;stroke-linecap:round;stroke-linejoin:round;stroke-miterlimit:10;}
	.st6{fill:none;stroke:#000000;stroke-miterlimit:10;}
	.st7{fill:none;stroke:#000000;stroke-width:0.7105;stroke-miterlimit:10;}
	.st8{fill:none;stroke:#000000;stroke-width:5.4;stroke-linecap:round;stroke-linejoin:round;stroke-miterlimit:10;}
	.st9{fill:none;stroke:#000000;stroke-width:2.9309;stroke-linecap:round;stroke-linejoin:round;stroke-miterlimit:10;}
	.st10{fill:none;stroke:#000000;stroke-width:0.5;stroke-linecap:round;stroke-linejoin:round;}
	.st11{fill:none;stroke:#FFFFFF;stroke-width:0;stroke-linecap:round;stroke-linejoin:round;}
	.st12{fill:#FFFFFF;}
	.st13{fill:none;stroke:#000000;stroke-width:1.4;stroke-miterlimit:10;}
	.st14{fill:url(#);stroke:#000000;stroke-width:1.4387;stroke-miterlimit:10;}
	.st15{fill:url(#);stroke:#000000;stroke-width:1.3718;stroke-miterlimit:10;}
	.st16{fill:none;stroke:#000000;stroke-width:1.0041;stroke-miterlimit:10;}
	.st17{fill:none;stroke:#000000;stroke-width:1.3621;stroke-miterlimit:10;}
	.st18{fill:none;stroke:#000000;stroke-width:0.25;stroke-miterlimit:10;}
</style>
<g id="Layer_2" class="st0">
	<rect id="XMLID_573_" x="-835.99" y="-520.01" class="st1" width="1160" height="772"/>
</g>
<g id="Layer_1">
	<g>
		<path d="M159.25,130.33l-0.17-0.07c-0.55-0.21-1.05-0.41-1.58-0.62c-2.03-11.76-6.83-24.31-13.9-36.32
			c-6.67-11.32-14.76-21.1-23.41-28.3l0.06-0.43c0.07-0.54,0.14-1,0.21-1.44c8.93,7.58,17.28,17.74,24.19,29.48
			C152,105.1,157.02,118.11,159.25,130.33z"/>
		<path d="M159.82,132.01l-1.24-0.49c-0.66-0.26-1.27-0.51-1.92-0.76c-0.22-0.09-0.39-0.28-0.43-0.52
			c-1.96-11.71-6.73-24.24-13.8-36.24c-6.66-11.31-14.75-21.05-23.4-28.19c-0.18-0.14-0.27-0.38-0.23-0.61l0.11-0.8
			c0.15-1.05,0.26-1.81,0.39-2.65c0-0.01,0.01-0.03,0.02-0.04c-0.01,0.04-0.02,0.08-0.02,0.11c-0.02,0.22,0.08,0.42,0.24,0.56
			c0.31,0.25,0.61,0.51,0.92,0.77c-0.07,0.44-0.14,0.9-0.21,1.44l-0.06,0.43c8.65,7.2,16.74,16.98,23.41,28.3
			c7.07,12.01,11.87,24.56,13.9,36.32c0.53,0.21,1.03,0.41,1.58,0.62l0.17,0.07c0.07,0.4,0.15,0.8,0.21,1.19
			C159.5,131.73,159.63,131.91,159.82,132.01z"/>
		<path d="M159.82,132.01c0.04,0.02,0.1,0.04,0.15,0.05c-0.03,0-0.06-0.01-0.09-0.02L159.82,132.01z"/>
		<polygon points="160.13,132.08 160.13,132.09 160.13,132.09 		"/>
		<path d="M104.79,65.02c-9.17,7.63-17.63,18.07-24.5,30.2c-6.47,11.43-10.89,23.33-12.8,34.43l-0.64,0.25
			c-0.36,0.15-0.72,0.29-1.11,0.44c2.1-11.52,6.72-23.83,13.43-35.69c7.13-12.6,15.87-23.45,25.34-31.49
			C104.61,63.8,104.71,64.52,104.79,65.02z"/>
		<polygon points="64.86,132.09 64.86,132.08 64.86,132.09 		"/>
		<path d="M106.19,65.18c0.03,0.24-0.06,0.48-0.24,0.63c-9.16,7.56-17.62,17.95-24.48,30.07C75,107.31,70.61,119.2,68.76,130.25
			c-0.04,0.23-0.2,0.42-0.42,0.51l-0.99,0.4c-0.69,0.27-1.4,0.56-2.24,0.88c-0.03,0.01-0.05,0.02-0.08,0.02
			c0.05-0.01,0.09-0.03,0.14-0.05c0.19-0.1,0.32-0.28,0.36-0.49c0.07-0.39,0.14-0.78,0.21-1.18c0.39-0.15,0.75-0.29,1.11-0.44
			l0.64-0.25c1.91-11.1,6.33-23,12.8-34.43c6.87-12.13,15.33-22.57,24.5-30.2c-0.08-0.5-0.18-1.22-0.28-1.86
			c0.31-0.26,0.62-0.53,0.93-0.78c0.15-0.12,0.24-0.31,0.25-0.5C105.78,62.54,106.08,64.55,106.19,65.18z"/>
		<path d="M151.26,144.13c-11.01,3.94-23.96,6.1-37.6,6.22c-14.47,0.12-28.23-2.04-39.94-6.22c0.35-0.28,0.68-0.54,0.99-0.77
			c0.16-0.13,0.33-0.26,0.48-0.38c11.2,4.12,24.51,6.25,38.4,6.11c13.15-0.11,25.66-2.22,36.21-6.11c0.32,0.26,0.66,0.52,1.01,0.8
			L151.26,144.13z"/>
		<path d="M153.29,144.26c-0.01-0.07-0.03-0.14-0.06-0.2C153.27,144.11,153.28,144.18,153.29,144.26z"/>
		<path d="M71.98,143.8c-0.06,0.05-0.11,0.11-0.15,0.17c0.03-0.04,0.05-0.09,0.09-0.12C71.94,143.83,71.96,143.82,71.98,143.8z"/>
		<path d="M153.01,143.8c-0.18-0.11-0.4-0.14-0.6-0.06c-0.38,0.14-0.77,0.26-1.15,0.39l-0.45-0.35c-0.35-0.28-0.69-0.54-1.01-0.8
			c-10.55,3.89-23.06,6-36.21,6.11c-13.89,0.14-27.2-1.99-38.4-6.11c-0.15,0.12-0.32,0.25-0.48,0.38c-0.31,0.23-0.64,0.49-0.99,0.77
			c-0.37-0.14-0.76-0.26-1.13-0.39c-0.2-0.08-0.43-0.05-0.61,0.06c0.67-0.56,1.33-1.06,1.9-1.51c0.28-0.22,0.54-0.42,0.77-0.6
			c0.19-0.15,0.43-0.19,0.66-0.11c11.12,4.15,24.35,6.26,38.27,6.16c13.14-0.11,25.63-2.24,36.11-6.16
			c0.22-0.08,0.47-0.04,0.66,0.11c0.4,0.32,0.83,0.66,1.3,1.03L153.01,143.8z"/>
		<path d="M71.76,144.05c-0.03,0.06-0.05,0.13-0.06,0.2C71.71,144.19,71.73,144.12,71.76,144.05z"/>
		<polygon points="153.32,144.35 153.32,144.35 153.32,144.35 		"/>
		<path d="M179.19,114.19l-0.01,0.24c-0.02,0.42-0.04,0.84-0.07,1.28l-0.21,3.44c-0.04,0.34-0.09,0.68-0.14,1.01
			c-0.19,1.14-0.5,2.29-0.94,3.41c-2.36,6.15-8.25,11.84-17.02,16.45c-0.23,0.12-0.37,0.36-0.36,0.62
			c0.49,12.11-2.65,21.33-8.84,25.96l-0.5,0.36c-0.21,0.14-0.42,0.29-0.67,0.45l-2.7,1.81l-0.52,0.32c0.98-1.19,1.84-2.52,2.6-3.98
			c3.74-2.81,9.27-9.81,8.7-26.45c8.83-4.7,15.43-10.79,17.69-16.34c0.85-2.08,1.01-3.96,1.06-4.71
			C178.05,116.79,178.69,115.5,179.19,114.19z"/>
		<path d="M177.26,118.06c-0.05,0.75-0.21,2.63-1.06,4.71c-2.26,5.55-8.86,11.64-17.69,16.34c0.57,16.64-4.96,23.64-8.7,26.45
			c0.51-0.98,0.96-2.01,1.36-3.1c4.2-4.81,6.4-13.24,5.97-23.72c-0.01-0.26,0.13-0.5,0.36-0.62c8.75-4.59,15.27-10.52,17.45-15.86
			c0.24-0.6,0.42-1.17,0.55-1.71C176.15,119.73,176.74,118.9,177.26,118.06z"/>
		<path d="M144.81,54.04c-2.14-0.4-4.4-0.47-6.77-0.2c-7.45-2.75-17.11,0.86-25.55,6.19c-7.76-4.9-17.18-8.15-23.55-7.27
			c-1.44,0.2-2.65,0.61-3.49,0.96c-1.83-0.1-3.59,0.01-5.27,0.32c1.62-0.9,3.29-1.73,5-2.5c0.11,0.02,0.23,0.02,0.35-0.02l0.43-0.18
			c1.08-0.4,2.23-0.7,3.41-0.89c6.51-1.03,14.38,1.23,22.76,6.53c0.11,0.07,0.23,0.1,0.36,0.1c0.12,0,0.25-0.03,0.36-0.1
			c10.08-6.39,19.52-8.33,26.59-5.47c0.12,0.05,0.24,0.05,0.36,0.03C141.51,52.3,143.18,53.13,144.81,54.04z"/>
		<path d="M77.73,169.47c-0.07-0.04-0.14-0.08-0.21-0.12c-0.35-0.23-0.71-0.46-1.07-0.7l-2.88-1.91c-0.28-0.2-0.54-0.41-0.81-0.63
			c-0.89-0.73-1.72-1.57-2.48-2.5c-4.14-5.12-6.12-13.06-5.72-22.97c0.01-0.26-0.13-0.5-0.36-0.62
			c-10.75-5.63-17.17-12.96-18.08-20.64l-0.01-0.11l-0.05-0.49c-0.02-0.26-0.04-0.52-0.05-0.81l-0.22-3.25l-0.02-0.61
			c0.5,1.35,1.17,2.68,1.97,3.97c0.06,0.77,0.23,2.63,1.07,4.69c2.26,5.55,8.86,11.64,17.69,16.34c-0.58,16.6,4.92,23.6,8.67,26.43
			C75.91,166.98,76.76,168.3,77.73,169.47z"/>
		<path d="M75.17,165.54c-3.75-2.83-9.25-9.83-8.67-26.43c-8.83-4.7-15.43-10.79-17.69-16.34c-0.84-2.06-1.01-3.92-1.07-4.69
			c0.53,0.85,1.12,1.68,1.77,2.49c0.13,0.54,0.31,1.1,0.55,1.69c2.17,5.34,8.7,11.27,17.44,15.86c0.23,0.12,0.37,0.36,0.36,0.62
			c-0.42,10.47,1.76,18.89,5.95,23.69C74.21,163.53,74.67,164.56,75.17,165.54z"/>
		<path d="M179.04,107.82c-0.01,1.55-0.25,3.12-0.7,4.66c-2.01,6.75-8.12,12.93-17.7,17.91c-2.23-12.47-7.34-25.74-14.83-38.45
			c-7.04-11.96-15.57-22.32-24.7-30.01c9.1-5.82,17.51-8.02,24.37-6.38c1.41,0.34,2.76,0.85,4,1.51c0.15,0.08,0.3,0.17,0.45,0.25
			c0,0,0.04,0.02,0.06,0.04c0.6,0.4,1.18,0.82,1.76,1.24c0.24,0.17,0.48,0.34,0.71,0.53c0.3,0.21,0.6,0.44,0.9,0.68
			c0.28,0.2,0.55,0.42,0.82,0.64c0.65,0.51,1.28,1.04,1.9,1.58c0.51,0.43,1.01,0.87,1.5,1.32c0.59,0.54,1.17,1.09,1.74,1.65
			c0.52,0.51,1.03,1.02,1.53,1.54c0.07,0.08,0.15,0.16,0.22,0.24c0.47,0.5,0.93,0.99,1.38,1.5c0.12,0.13,0.24,0.27,0.35,0.41
			c0.46,0.52,0.91,1.05,1.35,1.58c0.43,0.53,0.86,1.06,1.28,1.6c0.14,0.18,0.28,0.36,0.42,0.55c0.37,0.5,0.74,1,1.1,1.51
			c0.05,0.06,0.09,0.13,0.14,0.19c0.44,0.62,0.86,1.25,1.28,1.88c0.03,0.05,0.06,0.1,0.1,0.14c0.38,0.6,0.76,1.19,1.12,1.79
			c0.04,0.06,0.07,0.12,0.11,0.19c0.06,0.1,0.11,0.2,0.17,0.29c0.02,0.04,0.04,0.07,0.07,0.11c0.2,0.35,0.42,0.71,0.62,1.07
			c0.04,0.07,0.09,0.15,0.13,0.22c0.43,0.76,0.85,1.53,1.25,2.31c0.09,0.18,0.18,0.35,0.26,0.53c0.19,0.36,0.37,0.73,0.55,1.1
			c0.06,0.12,0.12,0.24,0.17,0.36c0.07,0.13,0.13,0.27,0.19,0.41c0.24,0.51,0.47,1.03,0.69,1.55c0.06,0.11,0.1,0.22,0.15,0.33
			c0.04,0.09,0.08,0.19,0.12,0.29c0.23,0.54,0.45,1.07,0.66,1.62c0.06,0.16,0.12,0.32,0.19,0.49c0.06,0.16,0.12,0.32,0.18,0.48
			c0.01,0.03,0.02,0.07,0.04,0.1c0.05,0.17,0.11,0.33,0.17,0.5c0.29,0.8,0.57,1.6,0.83,2.42c0.06,0.17,0.12,0.34,0.17,0.51
			c0.06,0.17,0.11,0.34,0.16,0.51c0.11,0.34,0.2,0.68,0.29,1.02c0.11,0.36,0.21,0.72,0.3,1.08c0.03,0.07,0.04,0.14,0.06,0.22
			c0.26,0.99,0.5,1.98,0.71,2.99c0.1,0.48,0.2,0.96,0.29,1.45c0.02,0.07,0.03,0.13,0.04,0.2c0.12,0.59,0.22,1.18,0.31,1.78
			c0.09,0.59,0.18,1.19,0.26,1.79c0.01,0.08,0.02,0.17,0.04,0.25c-0.05,0.11-0.07,0.22-0.06,0.34
			C178.84,105.6,178.95,106.77,179.04,107.82z"/>
		<path d="M103.88,61.92C94.19,70.08,85.26,81.15,78,93.98c-6.84,12.09-11.55,24.66-13.64,36.41c-9.59-4.98-15.71-11.16-17.71-17.92
			c-0.41-1.39-0.65-2.81-0.7-4.21c-0.01-0.21,0-0.42,0-0.62v-0.07c0.05-0.83,0.12-1.66,0.2-2.48c0.01-0.08-0.01-0.15-0.03-0.22
			c0.04-0.36,0.09-0.71,0.14-1.07c0.08-0.65,0.17-1.3,0.27-1.95c0.09-0.53,0.19-1.05,0.29-1.58c0.1-0.55,0.2-1.09,0.31-1.64
			c0.14-0.63,0.29-1.27,0.44-1.9c0.1-0.41,0.2-0.83,0.31-1.24c0.19-0.74,0.41-1.48,0.63-2.21c0.08-0.29,0.17-0.59,0.26-0.88
			c0.26-0.82,0.53-1.63,0.82-2.43c0.08-0.2,0.15-0.41,0.22-0.61c0.32-0.85,0.65-1.69,1-2.52c0.07-0.17,0.13-0.33,0.2-0.5
			c0.35-0.82,0.73-1.64,1.11-2.44c0.09-0.19,0.17-0.37,0.26-0.56c0.37-0.75,0.75-1.49,1.14-2.22c0.14-0.26,0.28-0.52,0.42-0.78
			c0.35-0.62,0.71-1.24,1.07-1.85c0.24-0.4,0.47-0.79,0.72-1.18c0.27-0.45,0.56-0.89,0.85-1.33c0.39-0.59,0.79-1.18,1.2-1.76
			c0.15-0.22,0.3-0.43,0.46-0.65c0.48-0.67,0.98-1.33,1.49-1.98c0.25-0.32,0.5-0.64,0.76-0.95c0.26-0.32,0.52-0.63,0.78-0.94
			c0.01-0.01,0.02-0.02,0.03-0.03c0.21-0.25,0.42-0.5,0.64-0.75s0.44-0.49,0.66-0.74c0.11-0.13,0.22-0.26,0.34-0.39
			c0.06-0.06,0.11-0.11,0.16-0.17c0.06-0.06,0.11-0.12,0.17-0.18c0.41-0.46,0.84-0.91,1.28-1.35c0.05-0.06,0.11-0.11,0.16-0.17
			c0.56-0.57,1.13-1.13,1.71-1.68c0.03-0.02,0.06-0.05,0.09-0.08c0.56-0.53,1.12-1.04,1.69-1.54c0.1-0.1,0.21-0.19,0.32-0.27
			c0.5-0.45,1.01-0.89,1.54-1.31c0.09-0.09,0.19-0.16,0.29-0.24c0.62-0.51,1.26-1.01,1.91-1.5c0.03-0.01,0.07-0.03,0.1-0.05
			c0.95-0.7,1.9-1.38,2.77-1.98c1.34-0.77,2.82-1.35,4.38-1.72C86.36,53.91,94.77,56.11,103.88,61.92z"/>
		<path d="M150.74,134.62c-10.9,3.81-23.71,5.89-37.08,6c-14.18,0.11-27.82-1.94-39.4-5.99c2.15-11.36,6.75-23.49,13.33-35.12
			c7-12.37,15.6-23.12,24.9-31.13c8.75,7.54,16.95,17.59,23.74,29.11C143.44,109.73,148.45,122.56,150.74,134.62z"/>
		<path d="M145.36,169.6c-1.01,1.06-2.12,1.97-3.31,2.71c-0.19,0.12-0.37,0.22-0.59,0.35c-0.75,0.36-1.5,0.72-2.25,1.06
			c-0.01,0-0.01,0.01-0.02,0.02c-0.19,0.08-0.38,0.17-0.57,0.25c-0.27,0.12-0.54,0.22-0.81,0.33c-0.74,0.3-1.47,0.6-2.22,0.88
			c-0.32,0.12-0.65,0.22-0.97,0.33c-0.71,0.25-1.42,0.5-2.13,0.73c-0.38,0.12-0.77,0.22-1.15,0.33c-0.67,0.2-1.35,0.4-2.03,0.58
			c-0.44,0.11-0.88,0.21-1.32,0.31c-0.64,0.16-1.28,0.31-1.92,0.45c-0.5,0.1-1.01,0.18-1.52,0.28c-0.6,0.11-1.19,0.22-1.79,0.32
			c-0.58,0.09-1.17,0.15-1.76,0.23c-0.53,0.06-1.07,0.15-1.61,0.2c-0.7,0.07-1.42,0.12-2.13,0.17c-0.43,0.03-0.86,0.07-1.29,0.1
			c-1.14,0.05-2.28,0.08-3.43,0.09h-0.04c-0.01,0-0.01,0-0.01,0c-0.04,0-0.08-0.01-0.13-0.01c-1.1,0-2.2-0.03-3.29-0.08
			c-0.29-0.02-0.58-0.05-0.87-0.07c-0.84-0.05-1.68-0.1-2.51-0.19c-0.27-0.02-0.53-0.07-0.79-0.1c-0.85-0.09-1.71-0.19-2.55-0.32
			c-0.2-0.03-0.39-0.08-0.59-0.11c-0.91-0.14-1.81-0.3-2.7-0.48c-0.11-0.02-0.21-0.05-0.32-0.07c-0.98-0.21-1.96-0.43-2.92-0.68
			c-0.02,0-0.04-0.01-0.05-0.01c-3.14-0.82-6.2-1.86-9.14-3.1c-0.07-0.06-0.14-0.12-0.22-0.16c-1.08-0.47-2.14-0.96-3.1-1.41
			c-1.33-0.78-2.57-1.77-3.68-2.94c-4.84-5.1-7.13-13.48-6.65-24.27c11.91,4.3,25.96,6.51,40.69,6.38
			c13.9-0.12,27.14-2.33,38.35-6.38C152.5,156.1,150.2,164.48,145.36,169.6z"/>
		<path d="M177.73,126.91c-3.01,13.64-10.19,25.73-20.14,34.85c3.03-5.2,4.5-12.29,4.21-20.75
			C169.32,137,174.76,132.18,177.73,126.91z"/>
		<path d="M132.43,48.88c-5.99,0.01-12.83,2.29-19.94,6.73c-7.12-4.43-13.9-6.73-19.87-6.75c6.4-2,13.06-3,19.88-3
			C119.33,45.86,126.01,46.87,132.43,48.88z"/>
		<path d="M67.36,161.72c-9.95-9.13-17.11-21.22-20.11-34.87c2.96,5.28,8.41,10.15,15.94,14.17
			C62.91,149.46,64.34,156.53,67.36,161.72z"/>
		<path class="st12" d="M175.1,89.27c-0.32-0.87-0.67-1.74-1.03-2.59C174.43,87.53,174.77,88.4,175.1,89.27z"/>
		<path class="st12" d="M175.31,89.87c-0.07-0.2-0.14-0.4-0.22-0.6C175.17,89.47,175.24,89.67,175.31,89.87z"/>
		<path class="st12" d="M176.14,92.29c-0.26-0.81-0.54-1.62-0.83-2.42C175.6,90.67,175.88,91.48,176.14,92.29z"/>
		<path class="st12" d="M174.07,86.68c-0.04-0.1-0.08-0.19-0.12-0.29C173.99,86.49,174.03,86.58,174.07,86.68z"/>
		<path class="st12" d="M62.94,67.79c0.11-0.11,0.21-0.23,0.33-0.35c-0.23,0.24-0.45,0.49-0.67,0.74c-0.45,0.49-0.88,0.99-1.3,1.49
			C61.83,69.03,62.37,68.41,62.94,67.79z"/>
		<path class="st12" d="M169.87,78.4c0.23,0.39,0.46,0.78,0.69,1.18C170.34,79.19,170.11,78.79,169.87,78.4z"/>
		<path class="st12" d="M169.7,78.11c0.06,0.1,0.11,0.2,0.17,0.29c-0.31-0.51-0.62-1.02-0.94-1.53c-0.19-0.29-0.37-0.59-0.56-0.88
			c0.03,0.05,0.06,0.1,0.1,0.14c0.38,0.6,0.76,1.19,1.12,1.79C169.63,77.98,169.66,78.04,169.7,78.11z"/>
		<path class="st12" d="M170.69,79.8c0.43,0.76,0.85,1.53,1.25,2.31c-0.44-0.86-0.91-1.7-1.38-2.53
			C170.6,79.65,170.65,79.73,170.69,79.8z"/>
		<path class="st12" d="M172.75,83.74c0.06,0.12,0.12,0.24,0.17,0.36c-0.23-0.49-0.47-0.98-0.72-1.46
			c-0.08-0.18-0.17-0.35-0.26-0.53C172.22,82.65,172.49,83.19,172.75,83.74z"/>
		<path class="st12" d="M177.83,98.62c-0.23-1.08-0.49-2.15-0.77-3.21C177.34,96.48,177.6,97.54,177.83,98.62z"/>
		<path class="st12" d="M176.43,93.26c-0.1-0.32-0.19-0.65-0.29-0.97C176.24,92.61,176.33,92.94,176.43,93.26z"/>
		<path class="st12" d="M177.06,95.41c-0.19-0.72-0.41-1.44-0.63-2.16C176.65,93.97,176.87,94.69,177.06,95.41z"/>
	</g>
</g>
</svg>
