<?xml version="1.0" encoding="utf-8"?>
<!-- Generator: Adobe Illustrator 26.2.1, SVG Export Plug-In . SVG Version: 6.00 Build 0)  -->
<svg version="1.1" xmlns="http://www.w3.org/2000/svg" xmlns:xlink="http://www.w3.org/1999/xlink" x="0px" y="0px"
	 viewBox="0 0 225 225" style="enable-background:new 0 0 225 225;" xml:space="preserve">
<style type="text/css">
	.st0{display:none;}
	.st1{display:inline;fill:#FAB433;}
	.st2{fill:none;}
	.st3{fill:none;stroke:#000000;stroke-width:1.6;stroke-miterlimit:10;}
	.st4{fill:none;stroke:#000000;stroke-width:0.7265;stroke-miterlimit:10;}
	.st5{fill:none;stroke:#000000;stroke-linecap:round;stroke-linejoin:round;stroke-miterlimit:10;}
	.st6{fill:none;stroke:#000000;stroke-miterlimit:10;}
	.st7{fill:none;stroke:#000000;stroke-width:0.7105;stroke-miterlimit:10;}
	.st8{fill:none;stroke:#000000;stroke-width:5.4;stroke-linecap:round;stroke-linejoin:round;stroke-miterlimit:10;}
	.st9{fill:none;stroke:#000000;stroke-width:2.9309;stroke-linecap:round;stroke-linejoin:round;stroke-miterlimit:10;}
	.st10{fill:none;stroke:#000000;stroke-width:0.5;stroke-linecap:round;stroke-linejoin:round;}
	.st11{fill:none;stroke:#FFFFFF;stroke-width:0;stroke-linecap:round;stroke-linejoin:round;}
	.st12{fill:#FFFFFF;}
	.st13{fill:none;stroke:#000000;stroke-width:1.4;stroke-miterlimit:10;}
	.st14{fill:url(#);stroke:#000000;stroke-width:1.4387;stroke-miterlimit:10;}
	.st15{fill:url(#);stroke:#000000;stroke-width:1.3718;stroke-miterlimit:10;}
	.st16{fill:none;stroke:#000000;stroke-width:1.0041;stroke-miterlimit:10;}
	.st17{fill:none;stroke:#000000;stroke-width:1.3621;stroke-miterlimit:10;}
	.st18{fill:none;stroke:#000000;stroke-width:0.25;stroke-miterlimit:10;}
</style>
<g id="Layer_2" class="st0">
	<rect id="XMLID_1638_" x="-100.99" y="-30.01" class="st1" width="1160" height="772"/>
</g>
<g id="Layer_1">
	<g id="XMLID_6310_">
		<g id="XMLID_6391_">
			<polygon id="XMLID_6470_" points="112.57,45.6 114.69,45.63 114.69,45.65 			"/>
			<polygon id="XMLID_6469_" points="116.82,45.73 118.95,45.89 118.93,46.06 116.82,45.81 			"/>
			<path id="XMLID_6468_" d="M121.07,46.12c0.7,0.11,1.41,0.2,2.12,0.3l-0.09,0.45c-0.69-0.15-1.38-0.31-2.07-0.46L121.07,46.12z"/>
			<polygon id="XMLID_6467_" points="125.3,46.79 127.4,47.22 127.16,48.08 125.14,47.42 			"/>
			<path id="XMLID_6466_" d="M129.5,47.72c0.69,0.19,1.39,0.38,2.08,0.57l-0.52,1.39c-0.64-0.29-1.28-0.57-1.93-0.84L129.5,47.72z"
				/>
			<polygon id="XMLID_6465_" points="133.65,48.92 135.72,49.62 134.77,51.63 132.94,50.61 			"/>
			<path id="XMLID_6464_" d="M137.76,50.39l2.03,0.84l-1.54,2.7c-0.56-0.4-1.13-0.8-1.71-1.19L137.76,50.39z"/>
			<polygon id="XMLID_6463_" points="141.81,52.15 143.8,53.12 141.47,56.55 139.9,55.21 			"/>
			<path id="XMLID_6462_" d="M145.77,54.17l1.95,1.12l-3.34,4.16c-0.47-0.49-0.94-0.99-1.42-1.48L145.77,54.17z"/>
			<polygon id="XMLID_6461_" points="149.65,56.48 151.55,57.74 146.98,62.59 145.72,60.99 			"/>
			<polygon id="XMLID_6460_" points="153.42,59.07 155.26,60.47 149.23,65.93 148.15,64.23 			"/>
			<polygon id="XMLID_6459_" points="157.07,61.94 158.83,63.48 151.11,69.44 150.21,67.67 			"/>
			<polygon id="XMLID_6458_" points="160.56,65.1 162.24,66.79 152.62,73.07 151.92,71.24 			"/>
			<polygon id="XMLID_6457_" points="163.87,68.56 165.47,70.4 153.76,76.77 153.25,74.9 			"/>
			<path id="XMLID_6456_" d="M166.99,72.31l1.48,1.98l-13.95,6.2c-0.11-0.62-0.21-1.24-0.33-1.87L166.99,72.31z"/>
			<polygon id="XMLID_6455_" points="169.88,76.35 171.23,78.48 154.9,84.22 154.76,82.36 			"/>
			<polygon id="XMLID_6454_" points="172.51,80.67 173.7,82.94 154.93,87.89 154.96,86.07 			"/>
			<polygon id="XMLID_6453_" points="174.83,85.26 175.86,87.66 154.61,91.48 154.81,89.7 			"/>
			<polygon id="XMLID_6452_" points="176.82,90.1 177.68,92.61 153.97,94.96 154.33,93.24 			"/>
			<polygon id="XMLID_6451_" points="178.44,95.17 179.1,97.77 153.05,98.29 153.54,96.64 			"/>
			<polygon id="XMLID_6450_" points="179.66,100.42 180.12,103.11 151.87,101.46 152.49,99.9 			"/>
			<polygon id="XMLID_6449_" points="180.47,105.85 180.7,108.62 150.46,104.43 151.19,102.98 			"/>
			<polygon id="XMLID_6448_" points="180.82,111.42 180.81,114.25 148.84,107.18 149.67,105.84 			"/>
			<path id="XMLID_6447_" d="M180.68,117.09c-0.07,0.95-0.17,1.9-0.26,2.86l-33.36-10.23c0.29-0.41,0.59-0.82,0.91-1.24
				L180.68,117.09z"/>
			<path id="XMLID_6446_" d="M180.04,122.81c-0.16,0.95-0.33,1.9-0.52,2.86l-34.38-13.64c0.31-0.37,0.64-0.75,0.97-1.13
				L180.04,122.81z"/>
			<path id="XMLID_6445_" d="M178.88,128.52c-0.25,0.94-0.5,1.89-0.77,2.84l-34.99-17.23c0.33-0.34,0.68-0.67,1.03-1.02
				L178.88,128.52z"/>
			<polygon id="XMLID_6444_" points="177.19,134.16 176.15,136.95 141.01,116.01 142.08,115.09 			"/>
			<polygon id="XMLID_6443_" points="174.97,139.69 173.67,142.39 138.84,117.69 139.93,116.88 			"/>
			<polygon id="XMLID_6442_" points="172.25,145.05 170.69,147.64 136.63,119.19 137.74,118.46 			"/>
			<polygon id="XMLID_6441_" points="169.02,150.18 167.22,152.65 134.39,120.49 135.51,119.86 			"/>
			<path id="XMLID_6440_" d="M165.3,155.03c-0.66,0.78-1.35,1.54-2.03,2.31l-31.12-35.71c0.36-0.19,0.73-0.37,1.12-0.55
				L165.3,155.03z"/>
			<path id="XMLID_6439_" d="M161.13,159.57c-0.74,0.71-1.49,1.43-2.25,2.13l-28.96-39.09c0.36-0.16,0.74-0.31,1.12-0.47
				L161.13,159.57z"/>
			<path id="XMLID_6438_" d="M156.52,163.73c-0.81,0.65-1.63,1.29-2.46,1.93l-26.37-42.22c0.36-0.14,0.73-0.27,1.11-0.4
				L156.52,163.73z"/>
			<path id="XMLID_6437_" d="M151.52,167.48c-0.87,0.57-1.75,1.15-2.64,1.71l-23.38-45.06c0.36-0.12,0.73-0.22,1.1-0.33
				L151.52,167.48z"/>
			<path id="XMLID_6436_" d="M146.16,170.77l-2.8,1.46l-20.04-47.54c0.36-0.09,0.72-0.19,1.08-0.27L146.16,170.77z"/>
			<path id="XMLID_6435_" d="M140.48,173.57c-0.97,0.41-1.95,0.82-2.94,1.21l-16.39-49.64c0.35-0.08,0.71-0.14,1.08-0.21
				L140.48,173.57z"/>
			<path id="XMLID_6434_" d="M134.55,175.85c-1.01,0.32-2.03,0.63-3.05,0.93l-12.48-51.31c0.35-0.06,0.71-0.12,1.07-0.16
				L134.55,175.85z"/>
			<path id="XMLID_6433_" d="M128.42,177.58c-1.04,0.22-2.08,0.45-3.12,0.65l-8.41-52.52c0.35-0.05,0.71-0.07,1.07-0.1
				L128.42,177.58z"/>
			<path id="XMLID_6432_" d="M122.15,178.74c-1.05,0.14-2.11,0.25-3.16,0.36l-4.23-53.25c0.36-0.03,0.71-0.06,1.07-0.06
				L122.15,178.74z"/>
			<path id="XMLID_6431_" d="M115.81,179.32l-3.17,0.08l-0.05-53.51c0.36-0.01,0.72-0.01,1.08-0.01L115.81,179.32z"/>
			<path id="XMLID_6430_" d="M109.46,179.33c-1.06-0.06-2.12-0.12-3.18-0.2l4.14-53.3c0.36,0,0.72,0.02,1.08,0.04L109.46,179.33z"/>
			<path id="XMLID_6429_" d="M103.12,178.78c-1.05-0.15-2.1-0.33-3.15-0.5l8.32-52.6c0.36,0.02,0.71,0.04,1.07,0.08L103.12,178.78z"
				/>
			<path id="XMLID_6428_" d="M96.84,177.65l-3.09-0.78l12.42-51.44c0.36,0.04,0.71,0.09,1.06,0.14L96.84,177.65z"/>
			<path id="XMLID_6427_" d="M90.7,175.94c-1.01-0.34-2.01-0.7-3-1.06l16.34-49.8c0.36,0.05,0.72,0.11,1.07,0.19L90.7,175.94z"/>
			<path id="XMLID_6426_" d="M84.75,173.69l-2.88-1.33l20.02-47.73c0.36,0.08,0.72,0.16,1.08,0.24L84.75,173.69z"/>
			<path id="XMLID_6425_" d="M79.05,170.91c-0.92-0.51-1.83-1.05-2.73-1.58l23.4-45.26c0.37,0.09,0.73,0.19,1.09,0.3L79.05,170.91z"
				/>
			<path id="XMLID_6424_" d="M73.67,167.63l-2.56-1.81l26.42-42.45c0.37,0.12,0.74,0.24,1.1,0.37L73.67,167.63z"/>
			<path id="XMLID_6423_" d="M68.65,163.89c-0.8-0.66-1.58-1.35-2.37-2.03l29.04-39.32c0.38,0.14,0.75,0.28,1.11,0.43L68.65,163.89z
				"/>
			<path id="XMLID_6422_" d="M64.02,159.74c-0.73-0.74-1.45-1.47-2.16-2.22l31.24-35.96c0.38,0.16,0.75,0.34,1.11,0.51L64.02,159.74
				z"/>
			<polygon id="XMLID_6421_" points="59.82,155.22 57.89,152.83 90.87,120.43 91.99,121.01 			"/>
			<path id="XMLID_6420_" d="M56.08,150.36c-0.58-0.84-1.13-1.69-1.68-2.54l34.24-28.7c0.38,0.22,0.76,0.44,1.11,0.67L56.08,150.36z
				"/>
			<path id="XMLID_6419_" d="M52.84,145.23c-0.49-0.88-0.98-1.76-1.44-2.65l35.05-24.94c0.38,0.25,0.73,0.51,1.09,0.77L52.84,145.23
				z"/>
			<polygon id="XMLID_6418_" points="50.09,139.87 48.91,137.13 84.29,115.97 85.36,116.84 			"/>
			<polygon id="XMLID_6417_" points="47.86,134.34 46.94,131.53 82.18,114.1 83.22,115.06 			"/>
			<polygon id="XMLID_6416_" points="46.16,128.69 45.5,125.84 80.16,112.02 81.16,113.09 			"/>
			<polygon id="XMLID_6415_" points="44.98,122.98 44.59,120.11 78.24,109.73 79.18,110.9 			"/>
			<polygon id="XMLID_6414_" points="44.32,117.25 44.19,114.4 76.46,107.21 77.33,108.5 			"/>
			<polygon id="XMLID_6413_" points="44.18,111.57 44.29,108.76 74.84,104.48 75.63,105.87 			"/>
			<polygon id="XMLID_6412_" points="44.53,105.98 44.87,103.24 73.41,101.53 74.1,103.03 			"/>
			<path id="XMLID_6411_" d="M45.33,100.54c0.17-0.89,0.36-1.78,0.56-2.65l26.34,0.48c0.18,0.54,0.37,1.08,0.56,1.6L45.33,100.54z"
				/>
			<polygon id="XMLID_6410_" points="46.55,95.28 47.31,92.71 71.29,95.04 71.72,96.73 			"/>
			<polygon id="XMLID_6409_" points="48.17,90.2 49.13,87.75 70.63,91.58 70.92,93.33 			"/>
			<polygon id="XMLID_6408_" points="50.16,85.35 51.29,83.01 70.29,88 70.42,89.8 			"/>
			<polygon id="XMLID_6407_" points="52.49,80.74 53.77,78.54 70.3,84.33 70.25,86.17 			"/>
			<polygon id="XMLID_6406_" points="55.12,76.41 56.53,74.35 70.67,80.61 70.44,82.47 			"/>
			<polygon id="XMLID_6405_" points="58.02,72.36 59.55,70.44 71.41,76.87 70.99,78.74 			"/>
			<polygon id="XMLID_6404_" points="61.14,68.61 62.78,66.83 72.53,73.17 71.91,75.01 			"/>
			<path id="XMLID_6403_" d="M64.47,65.14c0.59-0.54,1.16-1.08,1.73-1.62l7.83,6.02c-0.27,0.6-0.54,1.2-0.8,1.8L64.47,65.14z"/>
			<polygon id="XMLID_6402_" points="67.96,61.97 69.78,60.5 75.89,66.02 74.92,67.76 			"/>
			<polygon id="XMLID_6401_" points="71.62,59.1 73.49,57.76 78.13,62.67 76.96,64.32 			"/>
			<path id="XMLID_6400_" d="M75.39,56.5l1.93-1.19l3.39,4.21c-0.45,0.51-0.9,1.03-1.33,1.55L75.39,56.5z"/>
			<polygon id="XMLID_6399_" points="79.27,54.2 81.25,53.15 83.61,56.62 82.12,58.04 			"/>
			<polygon id="XMLID_6398_" points="83.24,52.17 85.25,51.26 86.82,54 85.18,55.27 			"/>
			<polygon id="XMLID_6397_" points="87.28,50.42 89.33,49.65 90.29,51.68 88.52,52.8 			"/>
			<polygon id="XMLID_6396_" points="91.39,48.94 93.46,48.31 93.99,49.71 92.11,50.65 			"/>
			<polygon id="XMLID_6395_" points="95.54,47.74 97.64,47.24 97.89,48.11 95.92,48.86 			"/>
			<path id="XMLID_6394_" d="M99.74,46.8c0.71-0.11,1.41-0.25,2.11-0.37l0.09,0.46c-0.68,0.19-1.37,0.36-2.04,0.56L99.74,46.8z"/>
			<polygon id="XMLID_6393_" points="103.97,46.14 106.09,45.9 106.11,46.07 104.01,46.43 			"/>
			<path id="XMLID_6392_" d="M108.21,45.73c0.71-0.03,1.42-0.06,2.13-0.1l0,0.03c-0.71,0.04-1.42,0.1-2.12,0.16L108.21,45.73z"/>
		</g>
		<path id="XMLID_6311_" d="M121.39,123.21l0.29,0.87l-1.12,0.24l-0.19-0.67L121.39,123.21z M119.31,124.02l0.12,0.5
			c-0.38,0.05-0.75,0.12-1.13,0.17l-0.07-0.35C118.6,124.24,118.96,124.14,119.31,124.02z M125.21,120.97l0.96,1.83l-1.12,0.37
			l-0.74-1.57L125.21,120.97z M123.37,122.19l0.56,1.32l-1.12,0.3l-0.41-1.08L123.37,122.19z M107,124.37
			c0.36,0.09,0.73,0.18,1.09,0.26l-0.04,0.22c-0.37-0.05-0.75-0.09-1.13-0.14L107,124.37z M117.15,124.61l0.04,0.23l-1.13,0.11
			l-0.02-0.13L117.15,124.61z M109.2,124.83l1.12,0.14l0,0.06l-1.13-0.08L109.2,124.83z M126.89,119.57l1.5,2.39l-1.11,0.44
			l-1.21-2.11C126.34,120.05,126.62,119.81,126.89,119.57z M111.44,125.06l1.13,0.03l-1.13-0.01L111.44,125.06z M132.83,108.7
			l8.31,4.92l-0.99,0.93l-7.53-4.87C132.7,109.35,132.77,109.03,132.83,108.7z M128.4,118.01l2.2,2.96l-1.1,0.51l-1.83-2.67
			L128.4,118.01z M133.24,104.86l11.64,4.58l-0.89,1.12l-10.8-4.76C133.21,105.49,133.23,105.18,133.24,104.86z M133.09,106.75
			l9.98,4.88l-0.94,1.02l-9.15-4.94l0.03-0.28C133.03,107.2,133.06,106.97,133.09,106.75z M133.23,103.02l13.34,4.05l-0.83,1.21
			l-12.48-4.35C133.25,103.63,133.25,103.32,133.23,103.02z M104.86,123.68l1.06,0.37l-0.12,0.49l-1.13-0.2L104.86,123.68z
			 M130.82,114.51l4.13,4.02l-1.08,0.67l-3.58-3.78L130.82,114.51z M132.38,110.67l6.76,4.77c-0.35,0.28-0.69,0.56-1.03,0.84
			l-6.04-4.63C132.18,111.32,132.29,111,132.38,110.67z M129.71,116.31l3.08,3.51l-1.09,0.59l-2.62-3.24
			C129.29,116.89,129.5,116.6,129.71,116.31z M133.06,101.23l15.04,3.28l-0.74,1.3l-14.2-3.7
			C133.13,101.82,133.1,101.52,133.06,101.23z M131.71,112.62l5.37,4.46l-1.06,0.75l-4.72-4.25
			C131.44,113.25,131.57,112.93,131.71,112.62z M92.07,101.31l-14.91,3.31l-0.69-1.34l15.74-2.84
			C92.15,100.73,92.1,101.02,92.07,101.31z M91.9,103.1l-13.22,4.07l-0.79-1.25l14.07-3.72C91.93,102.5,91.91,102.8,91.9,103.1z
			 M92.37,99.58L75.8,101.9l-0.6-1.42l17.38-1.73C92.5,99.03,92.44,99.3,92.37,99.58z M91.89,104.95l-11.52,4.59l-0.86-1.16
			l12.36-4.36c0,0.03,0,0.06,0,0.1C91.87,104.39,91.88,104.67,91.89,104.95z M92.81,97.93l-18.16,1.08l-0.49-1.49l18.92-0.39
			C92.99,97.4,92.89,97.67,92.81,97.93z M94.04,94.89l-20.99-2.05l-0.24-1.63l21.6,2.98C94.28,94.42,94.16,94.65,94.04,94.89z
			 M94.79,93.52l-22.16-3.96l-0.09-1.67l22.65,4.99C95.06,93.09,94.92,93.3,94.79,93.52z M92.05,106.83l-9.87,4.87l-0.92-1.06
			l10.69-4.76c0.03,0.31,0.06,0.62,0.1,0.93C92.05,106.82,92.05,106.83,92.05,106.83z M93.38,96.36L73.73,96l-0.37-1.56l20.34,1.18
			C93.59,95.86,93.48,96.11,93.38,96.36z M92.75,110.77l-6.66,4.73l-1.01-0.88l7.42-4.84L92.75,110.77z M96.8,118.08l-2.17,2.93
			l-1.1-0.55l2.58-3.21C96.33,117.53,96.56,117.81,96.8,118.08z M98.31,119.64L96.84,122l-1.11-0.47l1.8-2.64L98.31,119.64z
			 M92.29,108.8l-8.19,4.89l-0.97-0.97l9.02-4.91L92.29,108.8z M100.91,121.66l0.94,0.58l-0.55,1.3l-1.12-0.33L100.91,121.66z
			 M99.14,120.35c0.28,0.23,0.57,0.45,0.87,0.67l-0.94,1.81c-0.37-0.14-0.74-0.27-1.11-0.4L99.14,120.35z M102.83,122.77
			c0.33,0.16,0.67,0.32,1,0.48l-0.28,0.86c-0.37-0.09-0.75-0.18-1.12-0.27L102.83,122.77z M93.44,112.71l-5.28,4.42l-1.04-0.79
			l5.95-4.59L93.44,112.71z M95.47,116.4l-3.03,3.48l-1.08-0.63l3.52-3.74L95.47,116.4z M94.35,114.6l-4.06,3.98l-1.07-0.71
			l4.65-4.21L94.35,114.6z M114.92,124.97l0.01,0.06c-0.38,0.01-0.75,0.03-1.13,0.05l0-0.02C114.18,125.03,114.55,125,114.92,124.97
			z M104.6,85.01L85.9,57.61c0.48-0.41,0.97-0.81,1.46-1.21l17.77,28.4C104.96,84.87,104.78,84.94,104.6,85.01z M114.15,83.49
			l4.13-35.37c0.64,0.09,1.28,0.2,1.92,0.31l-5.52,35.1C114.5,83.51,114.32,83.5,114.15,83.49z M108.83,83.76l-9.7-33.78
			c0.61-0.2,1.23-0.4,1.85-0.59l8.37,34.27C109.18,83.7,109,83.73,108.83,83.76z M105.66,84.6L88.88,55.26
			c0.52-0.36,1.05-0.72,1.58-1.07l15.73,30.24C106.02,84.48,105.84,84.54,105.66,84.6z M106.72,84.26L92.1,53.19l1.69-0.92
			l13.46,31.85C107.07,84.16,106.9,84.21,106.72,84.26z M112,83.44l-1.46-35.65l1.93-0.05l0.07,35.69
			C112.36,83.42,112.18,83.43,112,83.44z M109.88,83.6l-7.02-34.71c0.63-0.14,1.26-0.29,1.9-0.42l5.65,35.05
			C110.23,83.55,110.05,83.58,109.88,83.6z M113.61,83.45c-0.18-0.01-0.36-0.01-0.54-0.01l1.33-35.66c0.65,0.04,1.29,0.07,1.94,0.13
			L113.61,83.45z M110.93,83.49l-4.26-35.33c0.64-0.09,1.29-0.16,1.93-0.23l2.86,35.52C111.29,83.46,111.11,83.48,110.93,83.49z
			 M107.78,83.98L95.53,51.42c0.59-0.26,1.18-0.52,1.78-0.76l10.99,33.2C108.13,83.9,107.95,83.94,107.78,83.98z M97.41,90.03
			L73.23,79.32c0.12-0.57,0.24-1.15,0.38-1.72l24.28,11.94C97.72,89.7,97.57,89.86,97.41,90.03z M98.37,89.06l-24.3-13.18l0.54-1.7
			l24.25,14.43C98.7,88.76,98.54,88.91,98.37,89.06z M103.54,85.49L83.17,60.21c0.44-0.45,0.88-0.89,1.33-1.33l19.57,26.37
			C103.89,85.33,103.71,85.41,103.54,85.49z M72.53,86.2l0.06-1.71l23.46,7.17c-0.15,0.19-0.29,0.39-0.43,0.59L72.53,86.2z
			 M132.74,99.51l16.71,2.27l-0.66,1.39l-15.87-2.81C132.86,100.07,132.8,99.79,132.74,99.51z M101.43,86.68L78.58,66.04l1.03-1.53
			l22.33,21.84C101.77,86.46,101.6,86.57,101.43,86.68z M99.36,88.18L75.25,72.5l0.71-1.66l23.91,16.93
			C99.7,87.91,99.53,88.04,99.36,88.18z M102.48,86.05L80.73,63.03c0.39-0.48,0.78-0.96,1.19-1.44l21.09,24.17
			C102.83,85.85,102.65,85.95,102.48,86.05z M100.39,87.39L76.76,69.21l0.88-1.6l23.27,19.41
			C100.73,87.14,100.56,87.26,100.39,87.39z M96.48,91.09l-23.77-8.33c0.06-0.57,0.13-1.15,0.21-1.73l24.02,9.51
			C96.79,90.73,96.63,90.91,96.48,91.09z M129.48,92.2l23.2-6.19l-0.01,1.7l-22.77,5.1C129.76,92.61,129.62,92.4,129.48,92.2z
			 M127.68,89.98l24.28-10.86l0.31,1.73l-24.12,9.65C127.99,90.33,127.84,90.15,127.68,89.98z M128.61,91.04l23.88-8.47l0.13,1.72
			l-23.57,7.31C128.9,91.42,128.76,91.23,128.61,91.04z M126.71,89.02l24.38-13.33l0.48,1.71L127.2,89.49
			C127.04,89.33,126.88,89.17,126.71,89.02z M125.72,88.14l24.17-15.83l0.64,1.68l-24.32,14.59
			C126.05,88.43,125.89,88.28,125.72,88.14z M131.72,96.29l19.79-0.44c-0.14,0.52-0.28,1.03-0.43,1.53l-19.05-0.32
			C131.93,96.8,131.83,96.54,131.72,96.29z M132.29,97.86l18.3,1.02l-0.55,1.47l-17.51-1.68C132.46,98.4,132.38,98.13,132.29,97.86z
			 M131.05,94.82l21.13-2.14l-0.3,1.6l-20.48,1.26C131.29,95.3,131.17,95.06,131.05,94.82z M130.31,93.46l22.28-4.07
			c-0.05,0.56-0.11,1.11-0.17,1.66l-21.73,3.08C130.57,93.9,130.44,93.68,130.31,93.46z M122.61,86.02l21.75-23.18l1.12,1.48
			l-22.34,22C122.96,86.22,122.78,86.12,122.61,86.02z M118.36,84.25l14.54-31.2c0.56,0.32,1.1,0.65,1.65,0.99l-15.66,30.37
			C118.71,84.35,118.54,84.3,118.36,84.25z M117.3,83.97l12.15-32.67l1.75,0.83L117.83,84.1C117.66,84.05,117.48,84.01,117.3,83.97z
			 M119.42,84.59l16.72-29.48l1.54,1.13l-17.72,28.55C119.77,84.72,119.6,84.65,119.42,84.59z M116.25,83.76l9.59-33.86
			c0.61,0.21,1.22,0.44,1.82,0.67l-10.88,33.29C116.61,83.82,116.43,83.79,116.25,83.76z M120.48,84.99l18.66-27.55
			c0.48,0.41,0.94,0.84,1.41,1.27l-19.54,26.52C120.84,85.15,120.66,85.07,120.48,84.99z M115.2,83.59l6.9-34.77l1.88,0.49
			l-8.25,34.35C115.55,83.64,115.38,83.62,115.2,83.59z M124.7,87.35l23.67-18.34c0.27,0.54,0.55,1.08,0.81,1.63l-23.96,17.09
			C125.04,87.61,124.87,87.48,124.7,87.35z M123.66,86.65l22.86-20.8c0.33,0.52,0.65,1.04,0.96,1.57l-23.3,19.57
			C124.01,86.87,123.83,86.76,123.66,86.65z M121.55,85.47l20.34-25.44c0.43,0.46,0.86,0.91,1.27,1.38l-21.08,24.33
			C121.9,85.65,121.73,85.55,121.55,85.47z"/>
	</g>
</g>
</svg>
