<?xml version="1.0" encoding="utf-8"?>
<!-- Generator: Adobe Illustrator 26.2.1, SVG Export Plug-In . SVG Version: 6.00 Build 0)  -->
<svg version="1.1" xmlns="http://www.w3.org/2000/svg" xmlns:xlink="http://www.w3.org/1999/xlink" x="0px" y="0px"
	 viewBox="0 0 225 225" style="enable-background:new 0 0 225 225;" xml:space="preserve">
<style type="text/css">
	.st0{display:none;}
	.st1{display:inline;fill:#FAB433;}
	.st2{fill:none;}
	.st3{fill:none;stroke:#000000;stroke-width:1.6;stroke-miterlimit:10;}
	.st4{fill:none;stroke:#000000;stroke-width:0.7265;stroke-miterlimit:10;}
	.st5{fill:none;stroke:#000000;stroke-linecap:round;stroke-linejoin:round;stroke-miterlimit:10;}
	.st6{fill:none;stroke:#000000;stroke-miterlimit:10;}
	.st7{fill:none;stroke:#000000;stroke-width:0.7105;stroke-miterlimit:10;}
	.st8{fill:none;stroke:#000000;stroke-width:5.4;stroke-linecap:round;stroke-linejoin:round;stroke-miterlimit:10;}
	.st9{fill:none;stroke:#000000;stroke-width:2.9309;stroke-linecap:round;stroke-linejoin:round;stroke-miterlimit:10;}
	.st10{fill:none;stroke:#000000;stroke-width:0.5;stroke-linecap:round;stroke-linejoin:round;}
	.st11{fill:none;stroke:#FFFFFF;stroke-width:0;stroke-linecap:round;stroke-linejoin:round;}
	.st12{fill:#FFFFFF;}
	.st13{fill:none;stroke:#000000;stroke-width:1.4;stroke-miterlimit:10;}
	.st14{fill:url(#);stroke:#000000;stroke-width:1.4387;stroke-miterlimit:10;}
	.st15{fill:url(#);stroke:#000000;stroke-width:1.3718;stroke-miterlimit:10;}
	.st16{fill:none;stroke:#000000;stroke-width:1.0041;stroke-miterlimit:10;}
	.st17{fill:none;stroke:#000000;stroke-width:1.3621;stroke-miterlimit:10;}
	.st18{fill:none;stroke:#000000;stroke-width:0.25;stroke-miterlimit:10;}
</style>
<g id="Layer_2" class="st0">
	<rect id="XMLID_573_" x="-345.99" y="-30.01" class="st1" width="1160" height="772"/>
</g>
<g id="Layer_1">
	<g>
		<path class="st2" d="M154.27,114.15c0.02-0.15,0.03-0.3,0.04-0.45c0-0.06,0.01-0.11,0.02-0.17c0.01-0.1,0.01-0.2,0.02-0.31
			C154.31,113.53,154.29,113.84,154.27,114.15z"/>
		<path class="st2" d="M154.4,113.22C154.4,113.22,154.4,113.21,154.4,113.22c0.01-0.06,0.01-0.12,0.02-0.18
			C154.41,113.1,154.41,113.16,154.4,113.22z"/>
		<path class="st2" d="M149.71,84.75c0-0.01-0.01-0.01-0.01-0.02c0.18,0.43,0.36,0.87,0.53,1.3c-0.02-0.05-0.04-0.11-0.06-0.16
			C150.02,85.5,149.86,85.13,149.71,84.75z"/>
		<path class="st2" d="M153.52,119.35c0.01-0.05,0.02-0.09,0.03-0.14C153.53,119.25,153.52,119.3,153.52,119.35
			c-0.02,0.09-0.04,0.19-0.06,0.28l-0.02,0.08l0.03-0.08C153.48,119.53,153.5,119.44,153.52,119.35z"/>
		<path class="st2" d="M153.7,118.34c0.02-0.05,0.02-0.08,0.02-0.08c0.01-0.04,0.01-0.07,0.01-0.11c-0.01,0.04-0.01,0.08-0.02,0.11
			C153.72,118.27,153.71,118.29,153.7,118.34z"/>
		<path class="st2" d="M153.11,121.2c-0.03,0.09-0.05,0.18-0.07,0.27c-0.01,0.05-0.03,0.11-0.04,0.17c0.02-0.06,0.04-0.11,0.05-0.17
			C153.07,121.38,153.09,121.29,153.11,121.2z"/>
		<path class="st2" d="M154.63,105.23c-0.01-0.19-0.02-0.38-0.03-0.57c0-0.04-0.01-0.08-0.01-0.12c0.02,0.47,0.04,0.95,0.06,1.43
			c0-0.05,0-0.11,0-0.16C154.65,105.61,154.64,105.42,154.63,105.23z"/>
		<path class="st2" d="M154.52,103.24c0-0.02-0.01-0.05-0.01-0.07c-0.01-0.16-0.03-0.31-0.04-0.46c0.04,0.42,0.07,0.85,0.1,1.29
			c-0.01-0.09-0.01-0.17-0.02-0.26C154.55,103.58,154.54,103.41,154.52,103.24z"/>
		<path class="st2" d="M154.31,101.16c-0.01-0.1-0.02-0.19-0.04-0.29c0.05,0.37,0.09,0.75,0.13,1.13c-0.02-0.15-0.03-0.31-0.05-0.46
			C154.34,101.41,154.32,101.29,154.31,101.16z"/>
		<path class="st2" d="M153.44,96.37c-0.01-0.03-0.01-0.07-0.02-0.1c-0.03-0.13-0.07-0.27-0.1-0.4c0.06,0.26,0.12,0.52,0.18,0.77
			c-0.01-0.05-0.02-0.1-0.03-0.15C153.46,96.45,153.45,96.41,153.44,96.37z"/>
		<path class="st2" d="M152.64,93.18c0.08,0.29,0.15,0.57,0.23,0.86c-0.04-0.14-0.06-0.27-0.1-0.41
			C152.72,93.48,152.68,93.33,152.64,93.18z"/>
		<path class="st2" d="M151.73,90.19c-0.08-0.27-0.17-0.54-0.27-0.8c-0.02-0.06-0.04-0.11-0.06-0.17c-0.07-0.21-0.15-0.42-0.22-0.63
			c-0.04-0.12-0.09-0.24-0.14-0.37c-0.03-0.08-0.06-0.17-0.09-0.26c-0.14-0.37-0.28-0.74-0.42-1.12c0,0,0-0.01,0-0.01
			c0.47,1.23,0.9,2.45,1.3,3.67c-0.01-0.04-0.02-0.08-0.04-0.12C151.78,90.33,151.76,90.26,151.73,90.19z"/>
		<path class="st2" d="M152.13,91.43c-0.04-0.15-0.09-0.3-0.14-0.44c0.16,0.52,0.32,1.03,0.47,1.55c-0.01-0.04-0.02-0.08-0.03-0.12
			C152.33,92.08,152.23,91.75,152.13,91.43z"/>
		<path class="st2" d="M154.67,106.51c0-0.03,0-0.05,0-0.08c0.01,0.38,0.01,0.77,0.01,1.16c0-0.07,0-0.14,0-0.21
			C154.68,107.09,154.68,106.79,154.67,106.51z"/>
		<path class="st2" d="M152.1,124.78c0.05-0.14,0.09-0.29,0.14-0.43c0.03-0.09,0.06-0.18,0.08-0.27c-0.03,0.09-0.06,0.18-0.09,0.27
			C152.19,124.5,152.15,124.64,152.1,124.78z"/>
		<path class="st2" d="M145.82,138.99c-0.05-0.32-0.1-0.61-0.16-0.92c-0.03-0.18-0.07-0.36-0.1-0.53c-0.4,0.51-0.75,0.97-1.13,1.41
			c0.15-0.16,0.29-0.32,0.42-0.47c-0.22,0.29-0.45,0.55-0.67,0.81c-0.46,0.52-0.96,1.04-1.45,1.55c-0.09,0.1-0.19,0.2-0.3,0.3
			c-0.29,0.29-0.6,0.61-0.97,0.98c-0.02,0.02-0.04,0.04-0.06,0.06c-0.03,0.02-0.05,0.05-0.08,0.07l-0.02,0.02
			c-0.17,0.18-0.34,0.34-0.5,0.5c-0.06,0.05-0.11,0.1-0.17,0.16l-0.28,0.25l-0.32,0.29c-0.02,0.01-0.03,0.02-0.04,0.03
			c0,0.01-0.01,0.01-0.01,0.01c-0.02,0.02-0.04,0.04-0.06,0.06c-0.05,0.05-0.1,0.09-0.16,0.14c-0.06,0.06-0.13,0.11-0.19,0.17
			c-0.06,0.05-0.11,0.1-0.17,0.15c-0.47,0.41-0.96,0.82-1.42,1.19c-0.31,0.25-0.62,0.48-1,0.74c-0.33,0.25-0.66,0.49-0.99,0.73
			c-0.08,0.06-0.17,0.11-0.25,0.17c-0.54,0.37-1.08,0.72-1.58,1.01c-0.01,0-0.01,0.01-0.01,0.01c-0.12,0.08-0.25,0.16-0.39,0.24
			l-1.07,0.6c0.28,0.09,0.57,0.19,0.86,0.29c0.5,0.17,1.01,0.32,1.45,0.45c0.01,0,0.01,0,0.01,0l0.36,0.09c0.01,0,0.01,0,0.02,0
			c-0.13-0.04-0.25-0.08-0.38-0.12l0.08,0.01l0.24,0.06c0.3,0.07,0.64,0.14,0.99,0.2c0.43,0.08,0.87,0.16,1.24,0.21
			c0.18,0.02,0.36,0.06,0.54,0.1l0.03,0l0.12,0.01c0.22,0.01,0.47,0.03,0.73,0.04c0.25,0.01,0.51,0.01,0.73,0.02
			c0.08,0,0.16-0.01,0.24-0.01l0.28-0.01c-0.15,0-0.3-0.01-0.46,0h-0.09l0.23-0.03c0.18-0.01,0.35-0.01,0.53-0.03l0.09-0.01
			c0.25-0.03,0.44-0.05,0.6-0.07l0.25-0.04c0.21-0.04,0.43-0.07,0.65-0.09c0.01,0,0.01,0,0.02,0c0.06-0.02,0.12-0.03,0.18-0.05
			c0.16-0.04,0.32-0.1,0.49-0.16c0-0.01,0.01-0.01,0.01-0.01c0.07-0.03,0.14-0.06,0.21-0.09c0.07-0.03,0.15-0.06,0.23-0.1
			c-0.18,0.05-0.35,0.11-0.53,0.18l0.06-0.04l0.06-0.02l0.11-0.06c0.15-0.06,0.3-0.12,0.42-0.19l0.19-0.11
			c0.15-0.09,0.3-0.18,0.46-0.26c0,0,0,0,0.01,0c0.04-0.03,0.07-0.06,0.1-0.08c0.14-0.12,0.27-0.25,0.38-0.38
			c-0.06,0.04-0.11,0.08-0.16,0.13l-0.16,0.15c0.11-0.12,0.19-0.2,0.25-0.28l0.04-0.06c0.06-0.06,0.1-0.12,0.15-0.18l0.05-0.05
			l-0.01-0.01c0.09-0.11,0.18-0.21,0.26-0.31c0,0,0,0,0,0c0,0,0,0,0,0c0.02-0.04,0.05-0.07,0.07-0.11c0.02-0.04,0.04-0.07,0.06-0.11
			c0.04-0.07,0.08-0.14,0.11-0.2c0.07-0.14,0.14-0.29,0.21-0.45c0.02-0.04,0.03-0.07,0.04-0.11l0.01-0.01c0,0,0,0,0,0
			c0,0,0,0,0,0.01l-0.01,0.01c-0.07,0.13-0.14,0.26-0.2,0.39l0.13-0.32c0.04-0.1,0.08-0.2,0.11-0.3c0.05-0.15,0.11-0.33,0.2-0.62
			l0.03-0.06l-0.01-0.01c0.05-0.18,0.11-0.36,0.17-0.53c0,0,0-0.01,0-0.01l0.03-0.13c0.03-0.18,0.07-0.4,0.1-0.6
			c0.03-0.25,0.06-0.53,0.09-0.8c0,0,0-0.01,0-0.01c0,0.01,0,0.01,0,0.02c-0.02,0.09-0.03,0.18-0.04,0.28l-0.01-0.05l0.04-0.48
			l0.05-0.76c0.01-0.26,0.01-0.57,0-0.87v-0.14c0-0.14,0-0.27,0.01-0.4c0,0,0-0.01,0-0.01c-0.01-0.14-0.02-0.29-0.03-0.44
			c-0.03-0.38-0.06-0.77-0.09-1.11l-0.04-0.27c-0.03-0.19-0.05-0.37-0.08-0.57c-0.01-0.05-0.02-0.1-0.03-0.16
			c0.01,0.07,0.02,0.14,0.03,0.21L145.82,138.99z"/>
		<path class="st2" d="M84.6,81.97l0.62-0.56l0.04-0.03l0.1-0.09c0.59-0.5,1.02-0.87,1.46-1.22c0.18-0.14,0.35-0.27,0.52-0.39
			l0.42-0.3c0.4-0.31,0.73-0.56,1.04-0.78l0.24-0.17c0.48-0.33,0.95-0.62,1.59-1.02c0.29-0.17,0.61-0.35,0.94-0.53l0.22-0.12
			c0.11-0.05,0.23-0.1,0.34-0.16c0.01,0,0.01-0.01,0.02-0.01l0.16-0.09c-0.28-0.09-0.57-0.19-0.86-0.29
			c-0.51-0.16-1.01-0.32-1.46-0.45c0,0,0,0-0.01,0l-0.35-0.09c-0.3-0.06-0.64-0.14-0.99-0.2c-0.51-0.1-1.04-0.18-1.5-0.25l-0.4-0.04
			c-0.22-0.01-0.47-0.03-0.73-0.04c-0.25-0.01-0.51-0.02-0.73-0.02c-0.08,0.01-0.16,0.01-0.24,0.01l-0.35,0.02l-0.18,0.01
			c-0.1,0.01-0.19,0.02-0.29,0.03c-0.06,0.01-0.11,0.02-0.18,0.02c-0.09,0.01-0.17,0.03-0.25,0.04c-0.03,0.01-0.06,0.01-0.09,0.01
			c-0.08,0.02-0.17,0.03-0.25,0.04c-0.06,0.02-0.12,0.03-0.18,0.04c-0.18,0.04-0.37,0.09-0.53,0.12c-0.16,0.04-0.32,0.1-0.49,0.16
			c-0.01,0.01-0.01,0.01-0.01,0.01c-0.07,0.03-0.14,0.06-0.21,0.09c-0.13,0.05-0.26,0.11-0.4,0.18s-0.25,0.15-0.36,0.22
			c-0.04,0.03-0.08,0.05-0.11,0.08c-0.07,0.05-0.13,0.1-0.19,0.15c0,0,0,0,0,0c-0.1,0.1-0.18,0.18-0.24,0.25c0,0,0,0,0,0
			c-0.01,0.01-0.02,0.02-0.03,0.03c0,0,0,0,0,0c0,0,0,0,0,0c-0.08,0.09-0.16,0.19-0.28,0.36L80.42,77c0,0,0,0,0,0
			c-0.01,0.01-0.01,0.02-0.02,0.03c-0.29,0.43-0.54,0.87-0.78,1.33c-0.09,0.24-0.18,0.51-0.26,0.75c-0.01,0.02-0.01,0.04-0.02,0.05
			c-0.01,0.03-0.02,0.05-0.02,0.08l-0.17,0.68c-0.03,0.18-0.06,0.4-0.1,0.6c-0.08,0.57-0.14,1.24-0.17,1.77v0.87
			c0,0.09,0,0.18,0.01,0.27c0.01,0.03,0.01,0.06,0.01,0.08c0,0,0,0,0,0.01c-0.01,0.01-0.01,0.01,0,0.01c-0.01,0.01-0.01,0.01,0,0.02
			c-0.01,0.01-0.01,0.01,0,0.01c0,0-0.01,0.01,0,0.01c0,0.03,0,0.05,0,0.08c0.03-1.16,0.13-2.3,0.34-3.39v0
			c0.02-0.1,0.04-0.21,0.06-0.31c0.04-0.18,0.07-0.37,0.12-0.54c-0.04,0.15-0.07,0.31-0.1,0.45c0.01-0.06,0.03-0.11,0.04-0.17
			c-0.02,0.1-0.04,0.19-0.06,0.28c-0.01,0.05-0.02,0.1-0.02,0.14c0,0.01,0,0.03-0.01,0.04c0,0.01,0,0.02-0.01,0.04
			c-0.03,0.17-0.05,0.31-0.07,0.46c0,0.02-0.01,0.05-0.01,0.07c0,0.04-0.01,0.08-0.01,0.12c0,0.02-0.01,0.04-0.01,0.06
			c-0.02,0.19-0.03,0.41-0.05,0.7c-0.01,0.16-0.02,0.31-0.03,0.46c0,0.06,0,0.11-0.01,0.17c0,0.11-0.01,0.23-0.01,0.35
			c0,0.17,0,0.33,0,0.47c0,0.13,0.01,0.27,0.02,0.41c0,0.04,0,0.08,0.01,0.13c0,0.01,0,0.02,0,0.03c0,0.01,0,0.02,0,0.03
			c0,0.04,0,0.09,0.01,0.14c0.01,0.14,0.02,0.27,0.03,0.4c0.01,0.16,0.03,0.33,0.05,0.53c0,0.01,0,0.02,0,0.03c0,0.01,0,0.02,0,0.04
			c0,0.03,0.01,0.06,0.01,0.09c0.01,0.07,0.01,0.14,0.02,0.21c0-0.01,0-0.01,0-0.02c0.04,0.35,0.1,0.74,0.17,1.15l-0.02-0.15
			c0,0,0,0,0,0c0.01,0.05,0.01,0.1,0.02,0.15c0,0,0,0,0,0l0.01,0.04c0.01,0.04,0.02,0.08,0.02,0.12c0.05,0.28,0.1,0.56,0.16,0.83
			c0.01,0.06,0.03,0.12,0.04,0.18c0.17-0.22,0.34-0.44,0.51-0.63c0.43-0.55,0.92-1.12,1.45-1.69c0.01-0.01,0.02-0.02,0.02-0.03
			c0.79-0.9,1.53-1.64,2.87-2.92c0,0,0,0,0.01,0l0.04-0.04l0.1-0.09c0.19-0.17,0.4-0.36,0.58-0.52c-0.25,0.19-0.5,0.38-0.73,0.59
			L84.6,81.97z M79.44,79.41C79.44,79.42,79.44,79.42,79.44,79.41c0-0.02,0.01-0.05,0.02-0.07L79.44,79.41z M79.61,78.8
			c0,0.01-0.01,0.02-0.01,0.04c-0.02,0.06-0.04,0.12-0.06,0.19c0.02-0.06,0.03-0.11,0.05-0.17c0.02-0.05,0.03-0.1,0.05-0.15
			C79.62,78.74,79.62,78.77,79.61,78.8z"/>
		<path class="st2" d="M109.1,116.82c0.05,0,0.09,0.01,0.13,0.01c0.04,0,0.07,0.01,0.1,0.01c0.13,0.01,0.27,0.02,0.41,0.02
			c0.05,0,0.09,0.01,0.14,0.01c0.21,0.01,0.42,0.01,0.61,0.02c0.14,0,0.27,0,0.4-0.01l0.45-0.02l0.17-0.01l0.01-0.01
			c0.13-0.02,0.28-0.03,0.43-0.05c0.01,0,0.01,0,0.01,0c0.12-0.02,0.23-0.03,0.34-0.05c0.76-0.23,1.51-0.5,2.22-0.86l0.13-0.07
			c-0.01,0.01-0.02,0.01-0.04,0.02c0.02-0.01,0.05-0.02,0.07-0.04c-0.01,0.01-0.02,0.01-0.03,0.02c0.18-0.1,0.28-0.17,0.39-0.24
			c0,0,0,0,0,0c0.02-0.01,0.03-0.02,0.05-0.04c0,0,0,0-0.01,0c0.02-0.02,0.05-0.03,0.07-0.05c0,0,0,0,0,0
			c0.02-0.01,0.04-0.03,0.06-0.05c0,0,0,0,0,0c0.06-0.07,0.12-0.13,0.18-0.19s0.11-0.14,0.2-0.24c0.04-0.05,0.07-0.09,0.12-0.16
			c0.07-0.1,0.14-0.23,0.21-0.36c0.04-0.07,0.08-0.14,0.11-0.21c0.03-0.06,0.06-0.11,0.09-0.17c0.08-0.17,0.14-0.29,0.18-0.4
			c0.05-0.13,0.1-0.28,0.15-0.43c0.01-0.01,0.01-0.02,0.02-0.04c0-0.01,0.01-0.01,0.01-0.02c0.05-0.16,0.1-0.31,0.15-0.45
			c0.01-0.02,0.01-0.03,0.02-0.04l0.16-0.69c0.03-0.17,0.06-0.37,0.09-0.57c0.08-0.57,0.15-1.26,0.18-1.8
			c0-0.33-0.01-0.71-0.02-1.09c-0.33-0.05-0.64-0.1-0.93-0.14l-0.31-0.03c-0.05-0.01-0.09-0.01-0.13-0.01
			c-0.03-0.01-0.07-0.01-0.1-0.01c-0.12-0.01-0.27-0.02-0.41-0.02c-0.04,0-0.09-0.01-0.14-0.01c-0.21-0.01-0.42-0.01-0.61-0.02
			c-0.14,0-0.27,0-0.4,0.01l-0.45,0.03l-0.17,0.01c-0.01,0-0.01,0-0.01,0c-0.13,0.02-0.28,0.04-0.43,0.05c-0.01,0-0.01,0-0.01,0
			c-0.15,0.02-0.3,0.04-0.43,0.06c-0.01,0-0.02,0.01-0.03,0.01c-0.1,0.03-0.22,0.05-0.34,0.08c-0.07,0.02-0.14,0.03-0.2,0.05h-0.02
			c-0.11,0.03-0.22,0.06-0.33,0.09c-0.12,0.04-0.24,0.07-0.37,0.12c-0.07,0.03-0.14,0.05-0.2,0.08c-0.12,0.06-0.25,0.11-0.38,0.18
			c-0.02,0.01-0.04,0.02-0.07,0.04c-0.09,0.05-0.18,0.1-0.26,0.16c-0.15,0.1-0.29,0.2-0.44,0.32l-0.07,0.06
			c-0.11,0.11-0.2,0.2-0.29,0.3c-0.05,0.06-0.11,0.14-0.2,0.24c-0.04,0.05-0.07,0.09-0.11,0.16c-0.07,0.1-0.14,0.23-0.22,0.36
			l-0.11,0.2c-0.03,0.06-0.06,0.11-0.09,0.17c-0.08,0.17-0.14,0.3-0.18,0.4c-0.05,0.14-0.1,0.28-0.15,0.43
			c-0.01,0.01-0.01,0.03-0.01,0.04c-0.01,0.01-0.01,0.02-0.01,0.02c-0.05,0.16-0.1,0.31-0.15,0.45c-0.01,0.01-0.01,0.03-0.01,0.04
			l-0.16,0.69c-0.03,0.17-0.06,0.37-0.09,0.57c-0.07,0.57-0.15,1.26-0.17,1.8c-0.01,0.23,0,0.48,0.01,0.75v0.2
			c0.01,0.04,0.01,0.07,0.01,0.11v0.01c0.32,0.05,0.63,0.1,0.91,0.14L109.1,116.82z M112,116.54c0.03,0,0.06,0,0.09-0.01l-0.24,0.02
			C111.91,116.55,111.95,116.55,112,116.54z"/>
		<path class="st2" d="M154.06,116.03c-0.08,0.5-0.17,1.07-0.26,1.64C153.9,117.09,153.99,116.53,154.06,116.03z"/>
		<path d="M79.54,79.03c0.02-0.07,0.04-0.13,0.06-0.19c0-0.01,0.01-0.02,0.01-0.04c0.01-0.03,0.02-0.06,0.03-0.1
			c-0.02,0.05-0.03,0.1-0.05,0.15C79.57,78.91,79.55,78.97,79.54,79.03z"/>
		<path d="M129.78,144.98C129.78,144.98,129.78,144.98,129.78,144.98c0.2,0.05,0.4,0.1,0.6,0.14c9.71-8.95,12.49-23.44,8.91-38.7
			c-2.59-11.06-8.51-22.52-17.55-32.58c-0.01-0.01-0.01-0.01-0.02-0.02c-21.53-23.95-52.55-30.85-69.3-15.42
			C39.8,70.03,38.9,91.04,48.44,110.93c0,0,0,0,0,0.01c0.59,1.17,1.04,2.06,1.42,2.79c0.04,0.09,0.09,0.17,0.13,0.25
			c-0.07-0.14-0.15-0.27-0.22-0.41c0.03,0.06,0.07,0.12,0.1,0.19l0.3,0.56l0,0l0.15,0.27c0.47,0.85,0.79,1.43,1.11,1.99
			c0.22,0.37,0.47,0.77,0.75,1.22c0.13,0.2,0.26,0.41,0.42,0.65c0,0,0,0.01,0.01,0.01c0.57,0.87,1.35,2.04,2.58,3.88
			c-0.01-0.02-0.02-0.03-0.04-0.05c0.01,0.02,0.03,0.04,0.04,0.05c0,0,0,0,0,0c0.04,0.05,0.07,0.1,0.11,0.15
			c0.88,1.23,1.61,2.2,2.1,2.81c0.49,0.6,1.1,1.34,2.03,2.44c0.37,0.44,0.8,0.94,1.29,1.52c-0.75-0.85-1.48-1.71-2.19-2.58
			c-0.12-0.14-0.23-0.27-0.34-0.4c0.16,0.21,0.31,0.4,0.45,0.57c0.51,0.62,1.02,1.23,1.53,1.81c0.26,0.3,0.56,0.62,0.91,1.02
			c0,0,0,0,0,0l0,0c0,0,0,0,0,0c0.12,0.13,0.25,0.26,0.37,0.39c0.16,0.18,0.33,0.35,0.49,0.53c0.95,1.03,1.92,2.02,2.9,2.98
			c0.37,0.35,0.76,0.71,1.16,1.09c-1.11-1.08-2.33-2.3-3.44-3.44c-0.03-0.03-0.06-0.06-0.08-0.09c1.49,1.53,3.18,3.2,4.55,4.52
			c0.4,0.36,0.73,0.66,1.03,0.92c0.5,0.44,1.07,0.92,1.68,1.41c0.15,0.12,0.3,0.25,0.45,0.37c0.86,0.67,2.02,1.56,3.98,3.04
			l0.18,0.13c0.67,0.45,1.48,1.01,2.26,1.53c-0.12-0.28-0.25-0.56-0.39-0.85v-0.01c0,0,0-0.01-0.01-0.01
			c-5.25-3.41-10.3-7.68-14.88-12.79c-20.32-22.61-23.98-52.76-8.17-67.33c15.81-14.57,45.11-8.05,65.44,14.56
			c20.32,22.61,23.98,52.76,8.17,67.33c0.12,0.05,0.25,0.1,0.37,0.15l0,0c-0.12-0.05-0.25-0.09-0.37-0.15
			c-0.39,0.36-0.79,0.69-1.2,1.02l0.09,0.06c0.03,0.02,0.05,0.05,0.07,0.07c0.02,0.02,0.05,0.03,0.07,0.05
			c0.33,0.21,0.7,0.44,1.08,0.67c0.51,0.31,1.04,0.62,1.49,0.88c0.02,0.01,0.04,0.02,0.06,0.03c0.67-0.52,1.33-1.07,1.97-1.65
			C130.18,145.08,129.98,145.03,129.78,144.98z"/>
		<path d="M123.16,142.05c-0.06-0.04-0.13-0.08-0.2-0.13c0,0,0,0,0,0C123.02,141.96,123.09,142,123.16,142.05
			c14.72-13.56,11.32-41.61-7.6-62.65C96.64,58.35,69.38,52.29,54.66,65.85s-11.31,41.61,7.6,62.65c4,4.45,8.38,8.22,12.92,11.29
			l-0.1-0.25v-0.01l-0.01-0.01v-0.01c-0.03-0.06-0.05-0.12-0.07-0.19c0.01,0.02,0.01,0.05,0.02,0.07c-0.05-0.12-0.09-0.25-0.15-0.38
			c-0.02-0.05-0.04-0.1-0.06-0.16c-0.34-0.89-0.64-1.74-0.91-2.53c0-0.01-0.01-0.03-0.01-0.04c-0.05-0.15-0.1-0.29-0.14-0.43
			c0,0,0-0.01,0-0.01c-3.44-2.53-6.75-5.51-9.82-8.92c-17.34-19.29-20.46-45-6.97-57.43c13.49-12.43,38.48-6.87,55.82,12.42
			c17.34,19.29,20.46,45,6.97,57.43c0.09,0.08,0.16,0.15,0.23,0.22c0,0,0,0,0,0c-0.09-0.09-0.18-0.16-0.23-0.22
			c-0.16,0.15-0.34,0.29-0.5,0.43c0,0,0.01,0.01,0.01,0.01c0.55,0.56,1.11,1.09,1.6,1.54l1.49,1.29c0.02,0.02,0.04,0.04,0.06,0.05h0
			C122.66,142.47,122.91,142.27,123.16,142.05z"/>
		<path d="M85.78,74.93c-0.08,0-0.16,0-0.24,0c-0.02,0-0.04,0-0.05,0c0.13,0,0.26-0.01,0.39,0C85.84,74.93,85.81,74.93,85.78,74.93z
			"/>
		<path d="M112.07,121.46c-0.01,0.06-0.02,0.12-0.03,0.18c0.08-0.07,0.17-0.15,0.25-0.22c0,0,0.01-0.01,0.02-0.01
			c0.01-0.05,0.02-0.09,0.03-0.14c0.01-0.05,0.02-0.11,0.02-0.16c0.02-0.11,0.04-0.21,0.07-0.32c0-0.01,0-0.01,0-0.02
			c-0.04,0.17-0.07,0.34-0.1,0.51c-0.01,0.04-0.01,0.08-0.02,0.12c2.88-2.66,4.51-6.31,4.96-10.44c0.11-0.8,0.16-1.66,0.13-2.57
			c0,0.14-0.01,0.27-0.01,0.41c0,0.2,0,0.4-0.01,0.58c0,0.05-0.01,0.11-0.01,0.17c0,0.07,0,0.13,0,0.2c0,0.04-0.01,0.07-0.01,0.11
			c-0.04,0.45-0.06,0.75-0.09,0.97c-0.01,0.07-0.01,0.13-0.02,0.19c-0.02,0.11-0.04,0.28-0.07,0.47c-0.05,0.28-0.12,0.63-0.23,1.01
			c-0.01,0.04-0.02,0.08-0.03,0.11c0,0.02-0.01,0.04-0.01,0.05c-0.02,0.08-0.05,0.16-0.08,0.25c-0.02,0.05-0.04,0.11-0.06,0.16
			c0,0,0,0.01,0,0.01c-0.04,0.11-0.08,0.23-0.13,0.34c-0.02,0.04-0.03,0.08-0.05,0.11c0.01-0.03,0.02-0.04,0.03-0.07l-0.08,0.2
			c-0.02,0.04-0.04,0.07-0.05,0.11c0,0,0,0,0,0.01c-0.02,0.03-0.03,0.07-0.05,0.1c0,0.01-0.01,0.02-0.01,0.02
			c-0.77,1.65-1.83,3.12-3.17,4.37c-0.02,0.04-0.03,0.07-0.05,0.11c-0.07,0.16-0.14,0.32-0.21,0.48c0-0.01,0-0.01,0.01-0.02
			c0.05-0.12,0.09-0.23,0.14-0.35c0.02-0.04,0.04-0.08,0.06-0.12c0.02-0.03,0.03-0.07,0.04-0.1c-0.01,0.01-0.02,0.02-0.03,0.03
			c-0.07,0.07-0.15,0.13-0.22,0.2c0,0.01-0.01,0.02-0.01,0.02c0-0.01,0.01-0.01,0.01-0.02c-1.33,1.17-2.86,2.04-4.51,2.62
			c0,0,0,0,0,0c0.07,0.34,0.15,0.67,0.21,0.96c0.04,0.14,0.08,0.29,0.12,0.44c0.1,0.33,0.22,0.69,0.34,1.06
			c1.03-0.53,2-1.17,2.88-1.95C112.04,121.58,112.05,121.52,112.07,121.46z"/>
		<path d="M77.39,78.39c0.08-0.08,0.17-0.15,0.25-0.23c-0.01,0-0.02,0-0.02,0.01c0.01,0,0.02-0.01,0.03-0.01
			c0.03-0.03,0.07-0.06,0.1-0.09c1.5-1.29,3.24-2.21,5.13-2.78l0.07-0.02c0,0,0,0,0.01,0c0.04-0.01,0.07-0.02,0.11-0.03
			c-0.02,0.01-0.04,0.01-0.06,0.02c0.15-0.04,0.3-0.08,0.46-0.11c0.02,0,0.04-0.01,0.07-0.01c0.01,0,0.01,0,0.02,0
			c0.01,0,0.02,0,0.03-0.01c0.03-0.01,0.07-0.01,0.1-0.02c0.07-0.01,0.13-0.03,0.2-0.04c0.21-0.03,0.43-0.06,0.75-0.09
			c0.03,0,0.05,0,0.08,0c0.25-0.02,0.51-0.03,0.78-0.04c-4.19-0.06-8.04,1.13-11.02,3.71c-0.02,0.02-0.04,0.03-0.06,0.05
			c0.06,0,0.12,0,0.18-0.01c-0.06,0-0.12,0.01-0.19,0.01c-0.09,0.08-0.18,0.16-0.27,0.24c-4.19,3.86-5.74,9.84-4.85,16.32
			c0.39,2.82,1.26,5.73,2.55,8.61l0.37-1.54c0.08-0.27,0.17-0.53,0.27-0.77c0.05-0.19,0.11-0.37,0.17-0.55
			c0.2-0.66,0.43-1.33,0.67-1.98c0.14-0.35,0.28-0.72,0.44-1.12c-0.2-0.67-0.38-1.34-0.53-2.01C71.69,88.98,72.99,82.45,77.39,78.39
			z"/>
		<path d="M85.92,74.93c0.12,0,0.24,0.01,0.36,0.01C86.16,74.94,86.04,74.94,85.92,74.93C85.93,74.93,85.92,74.93,85.92,74.93
			c0,0-0.01,0-0.01,0c-0.01,0-0.02,0-0.03,0c0,0,0.01,0,0.01,0C85.9,74.93,85.91,74.93,85.92,74.93z"/>
		<path d="M116.2,136.16c0.05,0.06,0.09,0.13,0.14,0.19c0.13-0.12,0.26-0.23,0.39-0.35c-0.06-0.07-0.11-0.15-0.16-0.22c0,0,0,0,0,0
			c0.01,0.01,0.02,0.03,0.03,0.04c0.04,0.06,0.09,0.12,0.13,0.18c12.19-11.23,9.37-34.47-6.3-51.9
			c-15.5-17.24-37.76-22.35-50.04-11.58h0c0.06,0.05,0.11,0.11,0.17,0.16c-0.06-0.05-0.12-0.1-0.17-0.16
			c-0.13,0.12-0.27,0.24-0.4,0.36c-12.19,11.23-9.37,34.47,6.3,51.9c1.89,2.1,3.87,4.01,5.93,5.75c-0.27-1.12-0.7-2.98-1.05-5.25
			c-0.01-0.01-0.01-0.02-0.01-0.02c-0.05-0.15-0.07-0.29-0.09-0.42l-0.08-0.56c-0.65-0.66-1.3-1.33-1.93-2.03
			c-14.09-15.68-16.63-36.58-5.66-46.68c0.12-0.11,0.24-0.22,0.36-0.32c-0.01-0.01-0.02-0.02-0.04-0.03
			c0.01,0.01,0.03,0.02,0.04,0.02c0,0,0,0,0,0c11.05-9.68,31.07-5.09,45.01,10.42c14.09,15.68,16.63,36.58,5.66,46.68
			c0.01,0.02,0.02,0.04,0.03,0.07c0.05,0.1,0.11,0.21,0.17,0.31c0,0,0,0,0,0c-0.05-0.1-0.11-0.19-0.16-0.29
			c0-0.01-0.01-0.02-0.01-0.03c-0.01-0.02-0.02-0.04-0.03-0.06c-0.12,0.11-0.24,0.21-0.36,0.32c0.01,0.01,0.01,0.03,0.02,0.04
			c-0.01-0.01-0.01-0.03-0.02-0.04c-0.13,0.11-0.26,0.21-0.39,0.32l0.01,0.01l0.77,1.13c0.01,0.01,0.02,0.03,0.03,0.04
			c0.51,0.69,1.13,1.5,1.76,2.27c0.03-0.03,0.06-0.05,0.09-0.08C116.29,136.29,116.24,136.22,116.2,136.16z"/>
		<path d="M55.27,49.16C55.27,49.16,55.26,49.16,55.27,49.16c-0.21,0.19-0.41,0.38-0.61,0.58c-0.01,0.01-0.01,0.01-0.02,0.02
			c-0.27,0.26-0.54,0.53-0.79,0.8l0.17-0.17L55.27,49.16z"/>
		<path d="M138.23,144.93c-0.38,0.29-0.76,0.57-1.14,0.85c0.17-0.12,0.34-0.24,0.5-0.35C137.8,145.27,138.02,145.1,138.23,144.93z"
			/>
		<path d="M55.48,48.95l-0.21,0.21c18.21-16.77,51.94-9.27,75.33,16.76s27.61,60.74,9.4,77.51l-0.01,0.01
			c-0.33,0.31-0.68,0.6-1.03,0.89c-0.1,0.09-0.21,0.17-0.31,0.26c-0.08,0.06-0.16,0.13-0.24,0.2c0.06-0.04,0.11-0.09,0.17-0.13
			c0.03-0.02,0.06-0.05,0.08-0.07c0.05-0.04,0.1-0.09,0.16-0.14c0.33-0.26,0.64-0.51,0.94-0.76c0.06-0.05,0.11-0.09,0.16-0.14
			c0.02-0.02,0.04-0.04,0.06-0.06c0,0,0.01,0,0.01-0.01c0.02-0.01,0.03-0.02,0.04-0.03l0.32-0.29v-0.01
			c0.36-0.34,0.67-0.63,0.96-0.9l0.02-0.02c0.05-0.05,0.09-0.09,0.14-0.14c0.37-0.37,0.69-0.69,0.97-0.98c0.1-0.1,0.2-0.2,0.3-0.3
			c0.49-0.51,0.99-1.03,1.45-1.55c0.22-0.26,0.45-0.53,0.67-0.81c-0.14,0.15-0.28,0.31-0.42,0.47c0.37-0.45,0.73-0.9,1.13-1.41
			c-0.01-0.02-0.01-0.03-0.01-0.04l-0.01-0.01c0.01-0.01,0.01-0.01,0.01-0.01c0.01,0.01,0.01,0.01,0.01,0.01
			c0.01,0.02,0.01,0.03,0.01,0.05c0.17-0.22,0.34-0.45,0.53-0.7v-0.01c0.16-0.21,0.32-0.43,0.5-0.66c0.12-0.17,0.25-0.34,0.38-0.51
			c0.09-0.14,0.18-0.28,0.28-0.43c0.28-0.44,0.53-0.85,0.76-1.25l0.01-0.01c1.57-2.63,2.34-4.47,2.81-5.76
			c0.01-0.01,0.01-0.02,0.01-0.03l0.01-0.02c0.1-0.28,0.19-0.53,0.27-0.76C165.36,86.95,111.8,23.5,66.47,41.64
			c-0.02,0.01-0.04,0.02-0.06,0.03c-0.77,0.36-1.61,0.8-2.28,1.13c-0.22,0.11-0.46,0.23-0.69,0.36c-0.23,0.12-0.47,0.26-0.71,0.4
			c-0.02,0.01-0.04,0.02-0.06,0.03C62.43,43.74,62.2,43.87,62,44c-0.03,0.03-0.06,0.04-0.1,0.06c-0.16,0.1-0.32,0.2-0.47,0.29
			c-0.15,0.1-0.3,0.19-0.44,0.28c-0.15,0.1-0.3,0.19-0.44,0.29c-0.11,0.07-0.22,0.14-0.32,0.22c-0.02,0.01-0.04,0.02-0.05,0.03
			c-0.25,0.18-0.51,0.36-0.76,0.55c-0.13,0.1-0.27,0.2-0.4,0.3c-0.03,0.03-0.06,0.05-0.09,0.07c-0.67,0.51-1.4,1.1-2.34,1.87
			c-0.01,0.01-0.03,0.02-0.04,0.03c-0.1,0.09-0.21,0.18-0.3,0.27l-0.08,0.07l-0.07,0.07l-0.22,0.2l-0.19,0.18L55.48,48.95z"/>
		<path d="M64.12,42.8c0.68-0.33,1.51-0.77,2.28-1.13c-0.34,0.14-0.69,0.28-1.03,0.43c-0.43,0.22-0.84,0.44-1.21,0.62
			c-0.09,0.05-0.17,0.1-0.26,0.15c-0.43,0.25-0.83,0.48-1.19,0.7c0.24-0.14,0.48-0.28,0.71-0.4C63.67,43.04,63.9,42.91,64.12,42.8z"
			/>
		<path d="M141.46,142.12c-0.05,0.04-0.09,0.08-0.14,0.14c0.03-0.03,0.05-0.05,0.08-0.07C141.42,142.16,141.44,142.14,141.46,142.12
			z"/>
		<path d="M140.8,142.78c0.17-0.16,0.33-0.33,0.5-0.5c-0.29,0.27-0.6,0.57-0.96,0.9v0.01l0.28-0.25
			C140.69,142.88,140.74,142.83,140.8,142.78z"/>
		<path d="M137.28,145.68c0.08-0.06,0.15-0.12,0.23-0.18c0.07-0.05,0.14-0.11,0.21-0.17c0.17-0.13,0.34-0.27,0.52-0.41
			c-0.33,0.26-0.65,0.52-0.99,0.77C137.27,145.69,137.27,145.68,137.28,145.68z"/>
		<path d="M79.44,79.41l0.02-0.07C79.45,79.37,79.44,79.4,79.44,79.41C79.44,79.42,79.44,79.42,79.44,79.41z"/>
		<path d="M52.69,118.61c0.38,0.63,0.68,1.11,0.99,1.57c0.22,0.32,0.45,0.67,0.7,1.02c0.06,0.09,0.12,0.18,0.19,0.27
			c0.16,0.23,0.34,0.48,0.54,0.76c-0.63-0.89-1.32-1.91-2.04-3.02C52.94,119.01,52.81,118.81,52.69,118.61z"/>
		<path d="M70.89,138.96c-0.02-0.01-0.04-0.03-0.05-0.04c0.05,0.04,0.1,0.08,0.14,0.12c0.55,0.44,1.17,0.92,1.77,1.38
			c0.11,0.08,0.22,0.16,0.34,0.24c-0.6-0.45-1.28-0.97-1.96-1.51C71.05,139.09,70.97,139.02,70.89,138.96z"/>
		<path d="M41.86,78.05c-0.04,0.46-0.07,0.93-0.1,1.4c-0.01,0.09-0.02,0.19-0.02,0.28c0,0.01,0,0.01,0,0.02
			c0-0.05,0.01-0.1,0.01-0.15c0.12-1.37,0.21-2.36,0.28-3.12c-0.06,0.46-0.11,0.93-0.16,1.4C41.86,77.94,41.86,78,41.86,78.05z"/>
		<path d="M112.59,128.87c-0.01-0.02-0.01-0.04-0.01-0.05C112.58,128.84,112.59,128.85,112.59,128.87c0.11-0.09,0.21-0.19,0.32-0.29
			c0,0,0,0,0,0c-0.01-0.04-0.02-0.08-0.03-0.12c-0.02-0.06-0.03-0.12-0.05-0.18c0,0,0,0,0,0c0.03,0.1,0.05,0.2,0.08,0.3
			c0,0,0,0,0,0.01c9.87-9.09,7.59-27.9-5.1-42.01c-12.54-13.95-30.55-18.08-40.5-9.38c0,0-0.01,0.01-0.01,0.01
			c0.02,0.01,0.03,0.02,0.05,0.02c-0.02-0.01-0.03-0.01-0.05-0.02c-0.11,0.09-0.22,0.19-0.32,0.29c-9.42,8.68-7.76,26.2,3.43,40.05
			l0-0.04l0.01-0.06h0.01l-0.01-0.22c0-0.14,0.01-0.28,0.02-0.41c-0.01-0.01,0-0.01,0-0.02c-0.02-0.63-0.02-1.26-0.01-1.84
			c0.01-0.7,0.03-1.37,0.08-1.98c0.06-0.69,0.11-1.52,0.18-2.32c0-0.01,0-0.01,0-0.02c-2.42-3.88-4.09-7.93-4.95-11.88
			c-1.73-7.95-0.2-15.46,4.87-20.13c0.1-0.09,0.19-0.18,0.29-0.26c-0.06-0.01-0.12-0.03-0.18-0.04c0.06,0.01,0.12,0.03,0.19,0.04
			c0.01-0.01,0.02-0.01,0.03-0.02c5.79-4.56,13.13-5.28,21.19-2.21c0.02,0.01,0.04,0.02,0.06,0.03c0,0,0,0,0,0
			c0.06,0.02,0.12,0.04,0.18,0.06c0.16,0.06,0.33,0.12,0.5,0.18c0.15,0.06,0.31,0.12,0.46,0.18c2.44,0.98,4.8,2.28,7.01,3.84
			c0.01,0.01,0.03,0.02,0.04,0.03l0.21,0.15c0.01,0.01,0.02,0.01,0.03,0.02c0,0,0,0,0,0c0,0,0,0,0,0c0.1,0.07,0.19,0.13,0.27,0.2
			c0.02,0.01,0.03,0.02,0.05,0.04c0.53,0.38,0.85,0.62,1.39,1.07c0.71,0.56,1.33,1.1,1.9,1.61c0.06,0.05,0.11,0.1,0.16,0.15
			c0.71,0.68,1.58,1.52,2.35,2.31c0.29,0.31,0.56,0.6,0.81,0.87c0,0,0,0,0,0c0.35,0.39,0.72,0.83,1.1,1.3
			c0.31,0.36,0.54,0.65,0.74,0.88c-0.01-0.01-0.02-0.03-0.03-0.04c0.02,0.02,0.03,0.04,0.05,0.06c-0.01-0.01-0.01-0.02-0.02-0.02
			c0.33,0.42,0.63,0.83,0.93,1.23c0.15,0.2,0.29,0.39,0.43,0.57c0,0,0,0,0,0c0.25,0.36,0.44,0.62,0.61,0.87
			c0.16,0.24,0.31,0.46,0.47,0.72c0.03,0.05,0.07,0.11,0.1,0.17c0.07,0.1,0.13,0.2,0.19,0.3c0.04,0.07,0.08,0.13,0.12,0.2
			c-0.02-0.04-0.05-0.07-0.07-0.11c0.54,0.92,0.91,1.55,1.18,2.02l-0.03-0.05l-0.01-0.02c0.01,0.01,0.02,0.03,0.02,0.04
			c0.17,0.3,0.46,0.85,0.82,1.58c0.01,0.02,0.02,0.05,0.03,0.07c0.1,0.21,0.21,0.44,0.32,0.68c4.86,10.48,4.3,21.45-2.33,27.57
			c0.01,0.07,0.01,0.14,0.02,0.21c0.01,0.07,0.02,0.13,0.02,0.2c0,0,0,0,0,0c-0.01-0.05-0.01-0.11-0.02-0.16
			c-0.01-0.08-0.02-0.16-0.03-0.24c0,0,0,0-0.01,0.01c-0.09,0.09-0.19,0.17-0.28,0.25c0,0.06,0.01,0.13,0.02,0.19
			c-0.01-0.06-0.01-0.12-0.02-0.19c-0.54,0.48-1.12,0.91-1.71,1.3c0.17,0.38,0.36,0.8,0.55,1.22c0.27,0.58,0.54,1.15,0.77,1.64
			c0.03,0.06,0.06,0.11,0.08,0.16l0.08,0.15C111.99,129.38,112.29,129.13,112.59,128.87z M107.9,87.22l0.04,0.05
			c0.04,0.05,0.08,0.09,0.12,0.14c0.34,0.39,0.59,0.68,0.94,1.13c0.11,0.13,0.22,0.27,0.33,0.41
			C108.9,88.39,108.42,87.81,107.9,87.22z"/>
		<path d="M132.07,148.45c0.06,0.03,0.13,0.07,0.21,0.11c1.78-1.13,3.27-2.36,4.87-3.67c-0.24,0.08-0.49,0.14-0.74,0.2c0,0,0,0,0,0
			c0.25-0.06,0.49-0.13,0.74-0.2c12.73-12.68,12.26-29.25,9.78-40.6c-0.45-2.05-0.96-3.92-1.47-5.58
			c-3.32-10.73-9.21-20.58-16.58-28.92C104,41.63,62.27,30.81,45.9,62.32c-0.03,0.05-0.06,0.11-0.08,0.16
			c-0.22,0.49-0.43,0.99-0.61,1.41c-0.07,0.18-0.14,0.35-0.2,0.52c-0.03,0.08-0.06,0.16-0.09,0.24c-0.12,0.31-0.22,0.59-0.32,0.86
			c-0.05,0.13-0.09,0.25-0.14,0.37c-0.06,0.17-0.12,0.33-0.17,0.48c-0.17,0.49-0.32,0.95-0.46,1.41c-0.27,0.91-0.51,1.84-0.83,3.19
			c0.1-0.44,0.2-0.87,0.3-1.28c-0.04,0.15-0.08,0.3-0.12,0.45c0,0.01-0.01,0.03-0.01,0.04c-0.15,0.61-0.31,1.31-0.5,2.18
			c-0.03,0.16-0.05,0.31-0.08,0.46c-0.06,0.31-0.13,0.62-0.18,0.9c-0.01,0.05-0.02,0.12-0.03,0.18c-0.08,0.48-0.17,1.01-0.24,1.55
			c-0.01,0.13-0.03,0.27-0.05,0.41c0,0.01,0,0.02,0,0.03c-0.02,0.18-0.04,0.37-0.06,0.58c1.06-8.53,4.52-16.06,10.51-21.58
			c16.41-15.12,45.96-9.7,68.11,11.71c1.44,1.4,2.86,2.86,4.23,4.39c10.99,12.23,17.57,26.46,19.38,39.68
			c1.89,13.8-1.43,26.52-10.35,34.75c0.13,0,0.27-0.01,0.4-0.02c0,0,0,0,0,0c-0.13,0.01-0.26,0.02-0.4,0.02
			c-0.98,0.9-2.01,1.72-3.08,2.48c0.34,0.15,0.68,0.3,1.02,0.44L132.07,148.45z"/>
		<path d="M154.33,113.23c-0.01,0.1-0.01,0.2-0.02,0.31c0-0.01,0-0.03,0-0.04c0.01-0.08,0.01-0.16,0.02-0.23c0,0,0,0,0-0.01
			c0.02-0.01,0.04-0.03,0.06-0.04c0.01-0.06,0.01-0.12,0.02-0.18c0.08-0.85,0.15-1.72,0.19-2.6c0-0.07,0.01-0.14,0.01-0.21
			c0.04-0.88,0.06-1.76,0.06-2.63c0-0.39,0-0.78-0.01-1.16c0-0.16-0.01-0.31-0.01-0.46c-0.01-0.48-0.03-0.96-0.06-1.43
			c-0.01-0.15-0.01-0.3-0.02-0.44c0-0.03,0-0.07-0.01-0.1c-0.03-0.44-0.06-0.87-0.1-1.29c-0.01-0.13-0.02-0.27-0.04-0.4
			c-0.01-0.11-0.02-0.21-0.03-0.32c-0.04-0.39-0.08-0.77-0.13-1.13c0-0.03-0.01-0.05-0.01-0.08c-0.08-0.61-0.18-1.19-0.28-1.73
			c-0.14-0.8-0.3-1.61-0.48-2.42c-0.06-0.26-0.12-0.52-0.18-0.77c-0.14-0.61-0.29-1.22-0.45-1.84c-0.08-0.29-0.15-0.57-0.23-0.86
			c-0.06-0.21-0.12-0.43-0.18-0.64c-0.15-0.52-0.3-1.03-0.47-1.55c-0.05-0.16-0.1-0.32-0.15-0.47c-0.39-1.22-0.83-2.45-1.3-3.67
			c-0.1-0.27-0.2-0.54-0.31-0.8c-0.17-0.43-0.35-0.87-0.53-1.3c-0.4-0.98-0.84-1.96-1.3-2.94c-7.98-17.03-23.39-33.8-45.93-41.65
			c-0.05-0.02-0.11-0.04-0.16-0.06c-0.01,0-0.01,0-0.02,0l-0.1-0.03c-0.08-0.02-0.15-0.05-0.23-0.07c-0.19-0.06-0.39-0.12-0.58-0.17
			c0.2,0.06,0.41,0.12,0.61,0.18l-3.1-0.85l-0.37-0.1c-0.82-0.19-1.8-0.39-2.76-0.57c-0.01,0-0.01,0-0.02,0
			c-0.38-0.07-0.74-0.14-1.1-0.2c-0.22-0.04-0.42-0.08-0.62-0.11c-0.93-0.15-1.82-0.26-2.67-0.36c-0.39-0.04-0.81-0.08-1.3-0.13
			c-0.01,0-0.03,0-0.04,0c-0.01,0-0.02,0-0.02,0c-0.24-0.02-0.5-0.03-0.76-0.05c-0.58-0.03-1.21-0.06-1.84-0.07
			c-0.66-0.03-1.22-0.04-1.73-0.05c-0.97-0.01-1.79,0.01-2.91,0.08c-0.15,0.01-0.31,0.02-0.47,0.03c-0.16,0.01-0.33,0.03-0.5,0.04
			c-0.16,0.01-0.32,0.02-0.49,0.03l-0.81,0.08c-0.09,0.01-0.18,0.02-0.26,0.03c0.11-0.01,0.21-0.01,0.32-0.02
			c1.8-0.14,3.63-0.17,5.46-0.1C119.3,39,156.32,75.02,154.33,113.23z"/>
		<path d="M42.05,76.2c0,0.04-0.01,0.07-0.01,0.11c0.01-0.07,0.02-0.14,0.02-0.21C42.06,76.13,42.05,76.17,42.05,76.2z"/>
		<path d="M79.4,86.25C79.4,86.25,79.4,86.25,79.4,86.25c-0.01-0.05-0.01-0.1-0.02-0.15c0,0,0,0,0,0L79.4,86.25
			C79.4,86.25,79.4,86.25,79.4,86.25L79.4,86.25z"/>
		<path d="M114.83,115.83c0,0-0.01,0.01-0.01,0.01c0.07-0.06,0.13-0.12,0.2-0.18c0,0,0.01-0.01,0.02-0.01
			c0.04-0.04,0.07-0.07,0.11-0.11c0,0,0,0,0.01,0c0.08-0.09,0.17-0.17,0.26-0.25c0,0,0,0,0,0c0,0,0,0,0,0c0,0,0,0,0,0
			c0.01-0.01,0.02-0.02,0.03-0.03c0,0,0,0,0,0c0,0,0,0,0,0v0l0,0c-0.02,0.02-0.05,0.04-0.07,0.06c-0.07,0.06-0.12,0.09-0.17,0.13
			c-0.02,0.01-0.04,0.03-0.06,0.05c0,0,0,0,0,0c-0.02,0.02-0.05,0.04-0.07,0.05c0,0,0,0,0.01,0c-0.02,0.01-0.03,0.02-0.05,0.04
			c0,0,0,0,0,0c-0.11,0.07-0.21,0.14-0.39,0.24l-0.13,0.07c-0.71,0.35-1.45,0.62-2.22,0.86c-1.38,0.42-2.84,0.67-4.36,0.71
			c0,0,0,0,0,0.01c0.01,0.08,0.01,0.16,0.02,0.24c0.02,0.29,0.05,0.57,0.07,0.82c0.02,0.14,0.04,0.31,0.07,0.53c0,0,0,0,0,0.01
			c2.51-0.46,4.8-1.51,6.7-3.17C114.8,115.86,114.81,115.85,114.83,115.83z"/>
		<path d="M76.85,91.58c0.4-0.68,0.78-1.32,1.14-1.9c-0.57-4.17-0.06-8.1,1.62-11.31c0.24-0.46,0.5-0.9,0.78-1.33
			c0.01-0.01,0.01-0.02,0.02-0.03c0,0,0,0,0,0l0.01-0.02c0.12-0.17,0.2-0.27,0.28-0.36c0,0,0,0,0,0c0,0,0,0,0,0
			c0.01-0.01,0.02-0.02,0.03-0.03c0,0,0,0,0,0c0.07-0.08,0.14-0.15,0.24-0.25c0.01-0.01,0.02-0.02,0.04-0.04l0.07-0.06c0,0,0,0,0,0
			c-0.02,0.01-0.03,0.03-0.05,0.04c-0.11,0.1-0.22,0.18-0.34,0.27c-0.07,0.05-0.13,0.11-0.2,0.16c-0.01,0.01-0.03,0.02-0.04,0.04
			c-0.08,0.07-0.16,0.14-0.24,0.22c-4.07,3.75-5.39,9.69-4.22,16.04c0.17-0.31,0.34-0.6,0.5-0.85
			C76.62,91.95,76.73,91.77,76.85,91.58z"/>
		<path d="M115.44,115.25l0.17-0.17c-0.05,0.05-0.11,0.1-0.16,0.16C115.44,115.25,115.44,115.25,115.44,115.25z"/>
		<path d="M81.13,76.2c0.03-0.02,0.05-0.04,0.08-0.06c0.04-0.03,0.07-0.06,0.11-0.08c0.02-0.01,0.03-0.02,0.05-0.04
			c-0.01,0.01-0.03,0.03-0.05,0.04v0c0,0-0.01,0-0.01,0.01c0,0,0,0,0,0c-0.06,0.05-0.13,0.1-0.19,0.15c0,0,0,0,0,0c0,0,0,0,0,0
			C81.12,76.21,81.13,76.21,81.13,76.2z"/>
		<path d="M81.43,75.97C81.43,75.97,81.43,75.97,81.43,75.97c0,0-0.01,0.01-0.01,0.01C81.42,75.98,81.43,75.97,81.43,75.97z"/>
		<path d="M112,116.54c-0.05,0.01-0.09,0.01-0.15,0.02l0.24-0.02C112.06,116.54,112.03,116.54,112,116.54z"/>
		<path d="M114.6,115.84c0.01-0.01,0.02-0.01,0.04-0.02s0.02-0.01,0.03-0.02C114.65,115.81,114.62,115.82,114.6,115.84z"/>
		<path d="M79.43,86.41c-0.01-0.04-0.02-0.08-0.02-0.12l-0.01-0.04l0,0c0,0,0,0,0,0c-0.07-0.41-0.13-0.81-0.17-1.15
			c0,0.01,0,0.01,0,0.02c-0.01-0.07-0.02-0.14-0.02-0.21c0-0.03-0.01-0.06-0.01-0.09c0-0.01,0-0.02,0-0.04c0-0.01,0-0.02,0-0.03
			c-0.02-0.2-0.04-0.37-0.05-0.53c-0.01-0.14-0.02-0.27-0.03-0.4c0-0.04,0-0.09-0.01-0.14c0-0.01,0-0.02,0-0.03
			c0-0.01,0-0.02,0-0.03c0-0.04-0.01-0.09-0.01-0.13c-0.01-0.14-0.01-0.28-0.02-0.41c0-0.15,0-0.3,0-0.47c0-0.12,0-0.24,0.01-0.35
			c0-0.06,0-0.11,0.01-0.17c0.01-0.15,0.02-0.3,0.03-0.46c0.02-0.29,0.03-0.51,0.05-0.7c0-0.02,0.01-0.04,0.01-0.06
			c0-0.04,0.01-0.08,0.01-0.12c0-0.02,0.01-0.05,0.01-0.07c0.02-0.15,0.04-0.29,0.07-0.46c0-0.01,0-0.02,0.01-0.04
			c0-0.01,0-0.03,0.01-0.04c0.01-0.04,0.02-0.09,0.02-0.14c0.02-0.09,0.04-0.18,0.06-0.28c-0.01,0.06-0.03,0.11-0.04,0.17
			c0.03-0.15,0.06-0.3,0.1-0.45c-0.04,0.18-0.08,0.36-0.12,0.54c-0.02,0.1-0.04,0.21-0.06,0.31v0c-0.21,1.09-0.31,2.22-0.34,3.39
			c-0.03,1.4,0.06,2.83,0.28,4.29c0.01-0.01,0.02-0.02,0.03-0.03l0.11-0.13c0.03-0.04,0.06-0.07,0.09-0.1
			c0-0.01,0.01-0.02,0.02-0.02v-0.01h0.01c-0.01-0.01,0-0.01,0.01-0.01c0.06-0.08,0.12-0.16,0.18-0.23c0,0,0,0,0,0
			c-0.01-0.06-0.03-0.12-0.04-0.18C79.53,86.97,79.48,86.69,79.43,86.41z"/>
		<path d="M78.56,144.77c0.5-0.89,1.48-1.99,2.89-3.22c5.49-4.8,15.98-10.35,23.39-12.37c3.45-0.94,5.76-0.98,6.51-0.12
			c0.05,0.06,0.09,0.12,0.13,0.19c0.01,0.02,0.02,0.04,0.04,0.06c-0.23-0.49-0.5-1.06-0.77-1.64c-0.19-0.42-0.37-0.83-0.55-1.22
			c0,0,0,0,0,0c-0.08-0.17-0.15-0.33-0.21-0.48c-0.03-0.07-0.06-0.16-0.09-0.23c-0.02-0.06-0.04-0.12-0.06-0.18
			c-0.03-0.08-0.06-0.16-0.08-0.23c-0.08-0.22-0.16-0.46-0.24-0.7c-0.05-0.14-0.09-0.28-0.14-0.42c-0.01-0.02-0.02-0.04-0.02-0.07
			c-0.06-0.18-0.12-0.36-0.18-0.54c0-0.01,0-0.01-0.01-0.02c-0.12-0.37-0.24-0.74-0.34-1.06c-0.05-0.15-0.09-0.3-0.12-0.44
			c-0.06-0.3-0.14-0.62-0.21-0.96c0,0,0,0,0,0c-0.03-0.12-0.05-0.24-0.08-0.37c-0.09-0.44-0.18-0.89-0.25-1.29
			c-0.03-0.15-0.05-0.29-0.06-0.42c0,0,0,0,0-0.01c-0.03-0.21-0.05-0.39-0.07-0.53c-0.02-0.25-0.05-0.53-0.07-0.82
			c-0.01-0.08-0.01-0.16-0.02-0.24c0,0,0,0,0-0.01s0,0,0-0.01c-0.02-0.27-0.03-0.54-0.04-0.81v-0.01c0-0.04,0-0.07-0.01-0.11v-0.2
			c-0.01-0.27-0.02-0.51-0.01-0.75c0.02-0.54,0.09-1.23,0.17-1.8c0.03-0.2,0.06-0.4,0.09-0.57l0.16-0.69
			c0.01-0.02,0.01-0.03,0.01-0.04c0.05-0.14,0.09-0.3,0.15-0.45c0.01-0.01,0.01-0.02,0.01-0.02c0-0.01,0.01-0.03,0.01-0.04
			c0.05-0.15,0.1-0.3,0.15-0.43c0.05-0.1,0.1-0.23,0.18-0.4c0.03-0.05,0.06-0.11,0.09-0.17l0.11-0.2c0.08-0.13,0.15-0.26,0.22-0.36
			c0.04-0.06,0.08-0.11,0.11-0.16c0.08-0.11,0.15-0.18,0.2-0.24c0.09-0.1,0.18-0.19,0.29-0.3l0.07-0.06
			c0.15-0.12,0.29-0.22,0.44-0.32c0.08-0.05,0.17-0.11,0.26-0.16c0.03-0.02,0.05-0.03,0.07-0.04c0.13-0.07,0.26-0.12,0.38-0.18
			c0.07-0.03,0.14-0.06,0.2-0.08c0.12-0.05,0.24-0.09,0.37-0.12c0.11-0.03,0.22-0.06,0.33-0.09h0.02c0.06-0.02,0.13-0.03,0.2-0.05
			c0.12-0.03,0.24-0.05,0.34-0.08c0.01,0,0.02-0.01,0.03-0.01c0.13-0.02,0.28-0.04,0.43-0.06c0.01,0,0.01,0,0.01,0
			c0.15-0.02,0.3-0.04,0.43-0.05c0,0,0,0,0.01,0l0.17-0.01l0.45-0.03c0.12-0.01,0.26-0.01,0.4-0.01c0.19,0.01,0.4,0.01,0.61,0.02
			c0.05,0,0.09,0.01,0.14,0.01c0.14,0.01,0.28,0.01,0.41,0.02c0.04,0,0.07,0,0.1,0.01c0.04,0,0.08,0.01,0.13,0.01l0.31,0.03
			c0.29,0.04,0.6,0.09,0.93,0.14h0.01v-0.02c0-0.02,0-0.03-0.01-0.04v-0.05c-0.23,0-0.46-0.01-0.69-0.04l-0.67-0.07
			c-0.27-0.02-0.41-0.03-0.41-0.03c-0.32-0.02-0.61-0.02-0.88-0.02l-0.21-0.01h-0.13l0.12-0.01c1.17-0.1,2.02-0.29,2.83-0.67H117
			c0-0.03-0.01-0.06-0.01-0.08c-0.01-0.07-0.01-0.14-0.02-0.21c0-0.07-0.01-0.14-0.02-0.21l-0.02-0.2
			c-0.01-0.07-0.01-0.13-0.02-0.19c-0.01-0.05-0.02-0.11-0.03-0.18c-0.01-0.1-0.03-0.22-0.05-0.35v-0.02c-0.96,0.9-2.07,1.59-3.31,2
			c-0.35,0.12-0.71,0.21-1.07,0.28c-0.08,0.02-0.15,0.03-0.21,0.04c-0.12,0.03-0.58,0.14-0.58,0.14l-0.42,0.14
			c0.22-0.09,0.46-0.2,0.7-0.32c0.72-0.35,1.41-0.8,2.04-1.35l0.03-0.01c0.97-0.85,1.77-1.89,2.41-3.08v-0.01
			c-0.02-0.08-0.04-0.15-0.05-0.23c-0.05-0.22-0.1-0.44-0.14-0.64c-0.04-0.14-0.08-0.29-0.12-0.44c-0.04-0.12-0.08-0.25-0.12-0.38
			c-0.08-0.26-0.17-0.54-0.26-0.81v-0.01c-0.04-0.14-0.09-0.28-0.14-0.42c-0.01-0.02-0.02-0.04-0.03-0.06
			c-0.05-0.14-0.09-0.28-0.14-0.42c-0.01-0.03-0.02-0.05-0.03-0.08c-0.35,3.07-1.55,5.79-3.73,7.7c-0.03,0.02-0.08,0.05-0.08,0.05
			c-0.39,0.34-0.8,0.64-1.22,0.9l-0.19,0.12l-0.05,0.03c0,0-0.28,0.21-0.3,0.23l-0.08,0.06c0.06-0.06,0.12-0.12,0.18-0.18l0.08-0.08
			c0.1-0.11,0.21-0.21,0.31-0.32c0.14-0.16,0.28-0.32,0.41-0.48c0.2-0.24,0.39-0.51,0.57-0.8c0.33-0.51,0.61-1.06,0.85-1.63
			c0.15-0.36,0.28-0.69,0.37-1.01c0.27-0.86,0.43-1.79,0.5-2.75c0.07-0.97,0.04-2-0.09-3.05c-0.45-3.63-2.12-7.45-4.69-10.76
			c-0.32-0.41-0.64-0.81-0.98-1.19l-0.21-0.24c-3.01-3.17-6.22-5.4-9.54-6.64c-1.71-0.62-3.4-0.98-5.04-1.06
			c0.09,0,0.19,0.01,0.28,0.01c-2.88-0.18-5.5,0.51-7.55,2c-0.01,0.01-0.02,0.02-0.03,0.02c-0.18,0.16-0.4,0.35-0.58,0.52l-0.1,0.09
			l-0.04,0.04c-0.01,0-0.01,0-0.01,0c-1.34,1.28-2.08,2.02-2.87,2.92c-0.01,0.01-0.02,0.02-0.02,0.03
			c-0.53,0.57-1.02,1.14-1.45,1.69c-0.17,0.2-0.34,0.41-0.51,0.63c0,0,0,0,0,0c-0.06,0.08-0.12,0.16-0.18,0.23
			c0.06-0.07,0.12-0.15,0.18-0.21c0.25-0.28,0.49-0.51,0.74-0.74c5.49-4.8,16.13-3.09,23.71,3.82c0.73,0.67,1.42,1.37,2.05,2.09
			c3.13,3.58,4.89,7.64,4.96,11.44c0.01,0.24,0,0.48-0.01,0.72c-0.04,0.95-0.19,1.86-0.45,2.72c-0.11,0.36-0.25,0.72-0.4,1.07
			c-0.09,0.21-0.19,0.42-0.3,0.61c-0.07,0.14-0.15,0.28-0.23,0.41c-0.07,0.11-0.14,0.22-0.21,0.33l-0.09,0.14
			c-0.05,0.07-0.09,0.14-0.14,0.21l-0.07,0.1c-0.09,0.15-0.23,0.36-0.4,0.69l-0.04,0.07c1.82-3.83,0.59-8.94-3.22-13.3
			c0,0,0,0-0.01,0c-6.53-7.48-17.93-10.5-25.18-7.57c-0.07,0.02-0.14,0.05-0.2,0.08c-1.12,0.47-2.14,1.09-3.02,1.86
			c-0.75,0.66-1.38,1.41-1.86,2.24c-0.11,0.24-0.22,0.47-0.32,0.69c-0.1,0.21-0.2,0.43-0.3,0.66c0,0.01-0.01,0.01-0.01,0.02
			L74,97.26c-0.06,0.16-0.12,0.33-0.19,0.5c-0.02,0.05-0.04,0.09-0.05,0.14v0.01c0,0,0,0,0,0c-0.16,0.39-0.31,0.76-0.44,1.12
			c-0.24,0.65-0.47,1.32-0.67,1.98c-0.06,0.18-0.11,0.36-0.17,0.55c0.11-0.3,0.25-0.58,0.4-0.86c0.49-0.89,1.16-1.71,1.99-2.44
			c1.85-1.61,4.35-2.66,7.17-3.16c0.06-0.01,0.12-0.02,0.19-0.03c5.58-0.93,12.4,0.29,17.98,3.6v0.01c2.07,1.22,3.81,2.64,5.18,4.21
			c2.68,3.07,3.73,6.55,2.89,9.56c-0.09,0.34-0.17,0.67-0.22,0.99l-0.02,0.07h0.01l-0.02,0.18l-0.08,0.55
			c0.02-0.28,0.03-0.58,0.03-0.95c-0.01-0.25-0.03-0.51-0.06-0.77c-0.03-0.21-0.06-0.43-0.11-0.64c-0.05-0.23-0.1-0.43-0.16-0.62
			c-0.08-0.25-0.18-0.5-0.28-0.74l-0.05-0.12c-0.17-0.36-0.37-0.74-0.61-1.13l-0.05-0.09c-0.03-0.04-0.05-0.08-0.08-0.12
			c-0.29-0.44-0.62-0.88-0.98-1.3c-1.5-1.71-3.66-3.24-6.26-4.43v-0.01c-4.25-1.93-9.18-2.76-13.75-2.53
			c-0.06,0.01-0.12,0.01-0.18,0.01c-4.7,0.26-9.01,1.64-11.78,4.06c-1.41,1.23-2.31,2.64-2.69,4.17c-0.07,0.56-0.13,1.13-0.19,1.71
			c-0.01-0.09-0.01-0.17-0.01-0.25c0,0.06-0.01,0.11-0.01,0.16c0,0.01,0,0.01,0,0.02c-0.07,0.8-0.12,1.63-0.18,2.32
			c-0.05,0.6-0.08,1.28-0.08,1.98c-0.02,0.58-0.01,1.21,0.01,1.84c0.15-1.78,1.12-3.48,2.84-4.99c3.81-3.33,10.53-5.13,17.21-4.97
			c0.08,0,0.16,0.01,0.23,0.01c2.88,0.08,5.75,0.53,8.36,1.37l0.01,0.1l-0.01-0.09v-0.01c3.06,0.99,5.47,2.43,6.99,4.17
			c1.07,1.22,1.67,2.57,1.75,3.94c0.01,0.07,0.01,0.13,0.01,0.2v0.02c0,0.03,0.01,0.07,0.01,0.1c0.02,0.24,0.03,0.5,0.05,0.77
			c0.02,0.27,0.03,0.54,0.05,0.77c0,0.01,0.01,0.11,0.03,0.28l0.01,0.07h0.01l0.1,0.74c-0.07-0.43-0.21-0.86-0.43-1.29l-0.03-0.07
			c-0.02-0.03-0.03-0.06-0.05-0.1c-0.18-0.34-0.42-0.67-0.69-0.98c-0.14-0.16-0.29-0.31-0.45-0.46c-0.02-0.02-0.04-0.04-0.06-0.05
			c-0.16-0.15-0.33-0.3-0.51-0.44c-1.47-1.14-3.59-2-6.23-2.51c-0.03-0.01-0.06-0.02-0.09-0.02v-0.01
			c-0.26-0.05-0.52-0.09-0.78-0.13c-8.54-1.35-19.5,1.21-24.83,5.86c-1.09,0.95-1.88,1.93-2.36,2.93c-0.23,0.48-0.4,0.96-0.48,1.43
			c-0.04,0.24-0.06,0.47-0.06,0.71c-0.01,0.09,0.01,0.18,0.02,0.27l0.01,0.11c0.05,0.3,0.1,0.6,0.16,0.9
			c-0.02-0.06-0.04-0.11-0.05-0.16c0.36,2.27,0.78,4.12,1.05,5.25c0,0,0,0,0,0c0.04,0.16,0.07,0.3,0.1,0.42
			c0.06,0.23,0.14,0.55,0.23,0.94c0.01,0.02,0.01,0.03,0.01,0.05c-0.25-1.61,0.77-3.51,2.94-5.4c5.49-4.8,16.77-8.36,25.14-7.93
			l0.01,0.01c3.44,0.17,5.95,0.98,7.25,2.34l0.02,0.02l0.11,0.12c0.35,0.4,0.59,0.84,0.71,1.29l0.03,0.08
			c0.12,0.43,0.28,0.97,0.49,1.62c0.17,0.49,0.39,1.1,0.59,1.61c-0.07-0.14-0.17-0.32-0.31-0.48l-0.05-0.05
			c-0.12-0.15-0.28-0.28-0.45-0.4c-0.29-0.21-0.66-0.38-1.08-0.53c-0.29-0.09-0.6-0.18-0.94-0.24c-0.17-0.04-0.35-0.06-0.54-0.09
			c-0.37-0.05-0.77-0.08-1.2-0.1c-0.86-0.03-1.82,0-2.88,0.11v-0.01c-7.97,0.81-18.91,5.35-24.41,10.16
			c-2.35,2.06-3.42,3.93-3.01,5.28c0.02,0.06,0.05,0.12,0.07,0.19v0.01l0.01,0.01v0.01l0.1,0.25l0,0v0.01l0.04,0.08
			c0.01,0.01,0.01,0.02,0.01,0.03c0.01,0.03,0.02,0.05,0.03,0.08c0.01,0.02,0.02,0.04,0.03,0.06c0.01,0.01,0.01,0.02,0.02,0.03
			c0.31,0.79,0.6,1.47,0.89,2.13c0,0,0,0.01,0.01,0.01v0.01c0.14,0.29,0.27,0.57,0.39,0.85c0,0,0,0,0,0v0.01
			c0.07,0.14,0.13,0.27,0.19,0.4c0.04,0.08,0.07,0.16,0.11,0.23c0,0.01,0.01,0.01,0.01,0.01c0.4,0.85,0.83,1.73,1.3,2.64
			C78.07,145.95,78.19,145.41,78.56,144.77z"/>
		<path d="M79.46,148.73c0.5,0.9,1.38,2.42,2.57,4.24c-0.42-0.65-0.87-1.39-1.41-2.29C80.17,149.94,79.8,149.29,79.46,148.73z"/>
		<path d="M92.35,76.5c-0.01-0.01-0.02-0.01-0.03-0.01l-0.16,0.09C92.23,76.56,92.29,76.52,92.35,76.5z"/>
		<path d="M91.02,156.05c1.3-1.15,2.84-2.46,4.51-3.85c5.07-4.24,11.34-9.25,16.04-12.78c0,0,0,0,0.01,0.01
			c2.52-1.88,4.24-3.1,4.58-3.07l0.34,0.4c-0.08-0.1-0.17-0.21-0.25-0.32c0,0,0,0,0,0c-0.62-0.77-1.24-1.58-1.76-2.27
			c-0.01-0.01-0.02-0.03-0.03-0.04l-0.77-1.13l-0.01-0.01l-0.07-0.1c-0.01-0.02-0.02-0.03-0.03-0.05l-0.01-0.01
			c-0.49-0.53-2.5,0.04-5.68,1.56c0-0.01,0-0.01-0.01-0.01c-6.61,3.17-16.34,9.56-21.88,14.34l-0.01,0.01
			c-0.08,0.07-0.15,0.14-0.23,0.2c-2.58,2.26-3.83,3.83-3.51,4.4v0.01c0.01,0.02,0.03,0.04,0.04,0.06l0.04,0.07
			c0.47,0.72,0.99,1.48,1.54,2.26c1.13,1.6,2.23,3.02,3.17,4.18C87.25,159.48,88.62,158.15,91.02,156.05z"/>
		<path d="M114.08,97.25c-0.15-0.32-0.3-0.63-0.44-0.93C113.78,96.62,113.93,96.94,114.08,97.25
			C114.08,97.25,114.08,97.26,114.08,97.25z"/>
		<path d="M153.47,96.5c-0.02-0.08-0.03-0.15-0.05-0.23c0.01,0.03,0.02,0.07,0.02,0.1C153.45,96.41,153.46,96.45,153.47,96.5z"/>
		<path d="M161.35,92.35c-0.02,0.72-3.05,4.21-7.09,8.44c0,0.03,0.01,0.05,0.01,0.08c0.01,0.1,0.02,0.19,0.04,0.29
			c0.02,0.13,0.04,0.25,0.05,0.38c0.02,0.15,0.03,0.3,0.05,0.46c0.01,0.11,0.03,0.21,0.03,0.32c0.01,0.13,0.02,0.26,0.04,0.4
			c0.01,0.15,0.03,0.31,0.04,0.46c0,0.02,0.01,0.05,0.01,0.07c0.02,0.17,0.03,0.33,0.04,0.5c0,0.09,0.01,0.17,0.02,0.26
			c0,0.03,0,0.07,0.01,0.1c0.01,0.14,0.02,0.29,0.02,0.44c0,0.04,0.01,0.08,0.01,0.12c0.01,0.19,0.02,0.37,0.03,0.57
			c0.01,0.19,0.02,0.38,0.02,0.57c0,0.05,0,0.11,0,0.16c0.01,0.15,0.01,0.31,0.01,0.46c0,0.03,0,0.05,0,0.08
			c0.01,0.29,0.01,0.58,0.01,0.87c6.27-4.99,11.77-9.1,12.16-8.96l0.02,0.01c-0.89-1.1-1.79-2.17-2.66-3.1
			c-0.84-0.91-1.92-2.11-2.86-3.05h0l0,0h-0.01v-0.01l0,0v0l-0.04,0.01L161.35,92.35z"/>
		<path d="M156.03,87.39l1.83,1.59C157.36,88.52,156.72,87.97,156.03,87.39z"/>
		<path d="M169.56,101.96c-0.87-1.2-1.55-2.08-1.94-2.57c-0.09-0.11-0.18-0.23-0.27-0.34c0.32,0.42,0.69,0.89,1.12,1.48
			C168.9,101.08,169.26,101.55,169.56,101.96z"/>
		<polygon points="153.44,119.71 153.43,119.73 153.46,119.62 		"/>
		<path d="M183.52,140.21c-0.01-0.04-0.01-0.08-0.01-0.12c-0.01-0.28-0.02-0.55-0.04-0.84c-0.05-0.95-0.15-2.11-0.27-3.18
			c-0.03-0.23-0.05-0.46-0.07-0.67c-0.02-0.17-0.04-0.36-0.07-0.54c0-0.02-0.01-0.05-0.01-0.07c-0.01-0.02-0.01-0.03-0.01-0.04
			c-0.02-0.14-0.04-0.27-0.06-0.41c-0.02-0.17-0.05-0.35-0.08-0.53c-0.01-0.07-0.02-0.14-0.03-0.21l-0.01-0.06
			c0-0.01-0.01-0.02-0.01-0.03c-0.11-0.73-0.23-1.46-0.35-2.07c-0.04-0.18-0.07-0.37-0.11-0.56c0-0.02-0.01-0.03-0.01-0.05
			c-0.22-1.19-0.5-2.41-0.83-3.65c-0.03-0.1-0.05-0.21-0.07-0.3c-0.05-0.17-0.09-0.35-0.15-0.53l-0.05-0.2
			c-0.01-0.04-0.02-0.07-0.03-0.1c-0.08-0.28-0.16-0.57-0.25-0.86c-0.18-0.63-0.37-1.27-0.58-1.91c-0.04-0.14-0.09-0.28-0.12-0.41
			c-0.01-0.03-0.58-1.89-1.7-4.65c-0.94-2.31-1.67-3.81-1.68-3.83c-0.01-0.01-0.01-0.02-0.02-0.03c-0.35-0.73-0.76-1.57-1.18-2.38
			c-0.02-0.04-0.05-0.09-0.07-0.13l-0.17-0.32c-0.16-0.31-0.32-0.61-0.48-0.9c-0.77-1.47-1.28-2.33-2.37-4.05c0,0,0,0,0-0.01
			c-0.52-0.89-1.39-2.21-2.45-3.69l1.43,2.11l-0.04-0.04c-0.44-0.51-2.45,0.06-5.65,1.59l-0.01-0.01c-3.88,1.87-7.9,4.26-11.55,6.68
			c0,0,0,0-0.01,0c-0.02,0.01-0.04,0.03-0.06,0.04c0,0.01,0,0.01,0,0.01c-0.01,0.08-0.01,0.16-0.02,0.23c0,0.01,0,0.03,0,0.04
			c-0.01,0.05-0.01,0.11-0.02,0.17c-0.01,0.15-0.02,0.3-0.04,0.45c-0.01,0.06-0.01,0.12-0.02,0.18c-0.04,0.41-0.07,0.82-0.12,1.19
			c-0.02,0.18-0.04,0.35-0.07,0.51c-0.07,0.5-0.16,1.06-0.26,1.64c-0.02,0.11-0.03,0.22-0.05,0.33c0,0.01,0,0.02-0.01,0.03
			c0,0.04-0.01,0.08-0.02,0.11c0,0.04-0.01,0.08-0.01,0.11c0,0.01-0.01,0.03-0.02,0.08c0,0.01,0,0.03-0.01,0.04
			c-0.01,0.03-0.01,0.06-0.02,0.09c4.84-2.84,10.49-5.44,15.32-6.75c0.01,0.02,0.02,0.03,0.03,0.05c-0.01-0.02-0.02-0.03-0.02-0.05
			c2.16-0.59,3.83-0.82,4.96-0.72c0.79,0.07,1.32,0.29,1.59,0.66c0.05,0.1,0.11,0.21,0.16,0.32c-0.01-0.03-0.01-0.05-0.02-0.07
			c0.01,0.01,0.01,0.02,0.02,0.03c0.47,0.95,0.99,2.05,1.5,3.16c0.55,1.19,1.08,2.37,1.51,3.4l0.08,0.19c0,0,0,0,0,0.01l0.06,0.16
			c-0.07-0.19-0.18-0.36-0.31-0.53c-0.07-0.08-0.14-0.17-0.22-0.24c-0.5-0.46-1.27-0.8-2.29-0.99c-0.34-0.07-0.71-0.12-1.11-0.15
			c-1-0.08-2.17-0.06-3.51,0.07l-0.01,0.01c-6.09,0.61-13.35,3.26-18.88,6.37c-0.07,0.24-0.14,0.48-0.21,0.7
			c-0.03,0.09-0.06,0.18-0.08,0.27c-0.05,0.14-0.09,0.29-0.14,0.43c-0.05,0.15-0.09,0.29-0.14,0.43c-0.1,0.29-0.2,0.58-0.31,0.86
			c-0.03,0.09-0.06,0.18-0.09,0.27c-0.04,0.11-0.08,0.22-0.13,0.33c-0.01,0.03-0.02,0.06-0.04,0.1c-0.06,0.16-0.12,0.33-0.2,0.5
			c-0.04,0.11-0.09,0.22-0.13,0.33c-0.06,0.17-0.12,0.34-0.19,0.5l-0.01,0.02c6.31-3.91,16.06-6.11,22.31-5.8
			c3.52,0.18,6.14,1.07,7.39,2.49c0.33,0.37,0.56,0.79,0.69,1.23l0.08,0.26l0.14,0.54c0.21,0.9,0.46,2,0.72,3.28
			c0.27,1.27,0.48,2.39,0.64,3.32l0.01,0.08c-0.15-0.89-0.55-1.71-1.2-2.45c-1.43-1.63-3.97-2.84-7.36-3.48
			c-9.67-1.83-21.47,1.59-26.29,6.4l-0.01,0.01c-0.23,0.4-0.49,0.81-0.76,1.25c-0.09,0.15-0.19,0.29-0.28,0.43
			c-0.14,0.18-0.26,0.35-0.38,0.51c-0.18,0.23-0.34,0.45-0.5,0.66v0.01c-0.24,0.67-0.33,1.34-0.27,2.01
			c0.01,0.05,0.02,0.1,0.03,0.16c0.03,0.2,0.06,0.38,0.08,0.57l0.04,0.27c0.03,0.33,0.06,0.72,0.09,1.11
			c0.01,0.15,0.02,0.3,0.03,0.44c0.11-1.8,1.09-3.55,2.86-5.11c5.49-4.8,17.07-6.41,25.8-3.59c3.06,0.99,5.48,2.43,7,4.16
			c1.1,1.26,1.71,2.67,1.75,4.08l0.01,0.08h0.01v0.01l-0.01,2.98c-0.03,0.56-0.07,1.24-0.14,2.07c-0.05,0.71-0.11,1.63-0.19,2.41
			l-0.01,0.05v0.01l-0.01-0.01h0.01v-0.05h0.01c-0.01-0.1,0-0.2,0.01-0.3l0.01-0.1c0.04-0.85-0.07-1.69-0.33-2.52
			c-0.08-0.25-0.18-0.5-0.28-0.75c-0.03-0.06-0.06-0.13-0.09-0.19l-0.06-0.12c-0.2-0.43-0.41-0.81-0.64-1.15
			c-0.29-0.44-0.62-0.87-0.98-1.29c-1.5-1.72-3.67-3.25-6.27-4.43c-8.69-3.96-20.22-3.27-25.71,1.53c-1.55,1.36-2.51,2.96-2.79,4.66
			c0,0,0,0.01,0,0.01c-0.03,0.27-0.06,0.55-0.09,0.8c-0.03,0.21-0.07,0.42-0.1,0.6l-0.03,0.13c2.92-8.21,17.73-9.09,27.81-3.12
			c-0.02,0.06-0.04,0.11-0.05,0.16c0.02-0.04,0.04-0.09,0.06-0.15c2.07,1.23,3.81,2.64,5.18,4.21c2.68,3.06,3.73,6.53,2.9,9.54
			l-0.27,0.85l-0.08,0.28c-0.15,0.47-0.32,0.95-0.48,1.44c-0.35,1.02-0.66,1.88-0.91,2.56l-0.76,1.72c-0.06,0.15-0.12,0.3-0.2,0.45
			l0.19-0.46l0.01,0.01c1.56-3.84,0.29-8.64-3.41-12.87c-1.08-1.23-2.34-2.38-3.75-3.43c0-0.01,0-0.01,0-0.01
			c-8.11-6.01-19.17-6.99-24.66-2.19l0.02-0.04l-0.03,0.05c-0.83,0.73-1.49,1.55-1.98,2.45c0,0,0,0,0,0l-0.01,0.01
			c-0.02,0.04-0.03,0.08-0.04,0.11c-0.07,0.16-0.14,0.31-0.21,0.45c-0.03,0.06-0.07,0.13-0.11,0.2c-0.02,0.04-0.04,0.08-0.06,0.11
			c-0.02,0.04-0.05,0.08-0.07,0.11c0,0,0,0,0,0c0.02-0.02,0.04-0.05,0.06-0.07c0.12-0.14,0.25-0.29,0.38-0.43
			c0.23-0.25,0.47-0.49,0.68-0.7c-0.03,0.04-0.06,0.08-0.08,0.12c0.04-0.05,0.08-0.1,0.11-0.16c6.58-5.75,18.95-1.85,25.54,5.7
			c0.72,0.82,1.38,1.69,1.98,2.58c1.56,2.29,2.55,4.61,2.95,6.9c0.3,1.56,0.29,3.08-0.01,4.53c-0.28,1.45-0.84,2.82-1.59,3.84
			c-1.11,1.47-1.75,2.28-2.61,3.21c-0.7,0.81-1.37,1.49-2.64,2.7c-0.04,0.04-0.11,0.11-0.17,0.16l0.16-0.17l0.01,0.01
			c0.09-0.11,0.19-0.21,0.29-0.32c0.8-0.86,1.45-1.88,1.91-3.02c0.38-0.94,0.64-1.95,0.77-3c0.03-0.23,0.05-0.47,0.07-0.71
			c0.02-0.2,0.03-0.4,0.03-0.59c0.01-0.29,0.01-0.58,0.01-0.87c-0.12-4.52-2.23-9.46-5.79-13.52l-0.22-0.25
			c-6.81-7.6-16.75-9.98-22.27-5.36c-0.01,0-0.01,0-0.01,0.01c0,0,0,0,0,0c-0.11,0.13-0.23,0.26-0.38,0.38
			c-0.03,0.03-0.07,0.06-0.1,0.08c0,0,0,0-0.01,0c0,0,0,0,0,0c5.13-2.72,12.34-0.41,17.74,5.76c0.5,0.57,0.98,1.17,1.43,1.8
			l0.01,0.01c6.07,8.31,6.52,18.97,1.03,23.78c-0.41,0.36-0.85,0.68-1.3,0.96l-1.93,1.1c-0.72,0.36-1.6,0.77-2.62,1.23
			c-0.54,0.24-1.09,0.48-1.61,0.71l-0.08,0.03c-0.35,0.15-0.66,0.28-0.94,0.4c-0.2,0.08-0.41,0.14-0.61,0.2
			c-0.1,0.03-0.21,0.06-0.32,0.09c0.57-0.21,1.14-0.42,1.69-0.62c0.72-0.35,1.4-0.81,2.02-1.35c5.49-4.8,5.79-15.83,0.65-24.58
			v-0.01c-0.8-1.36-1.69-2.6-2.67-3.72c-4.01-4.58-9.03-6.57-13.27-5.3c0,0-0.01,0-0.01,0c-0.08,0.03-0.16,0.06-0.23,0.1
			c-0.07,0.03-0.15,0.06-0.21,0.09c-0.01,0-0.01,0-0.01,0.01c-0.17,0.06-0.33,0.12-0.49,0.16c-0.06,0.02-0.12,0.03-0.18,0.05
			c-0.01,0-0.01,0-0.02,0c0.01,0,0.01,0,0.02,0c3.2-0.33,6.56,1.27,9.34,4.45c1.31,1.5,2.45,3.3,3.38,5.34c-0.01,0-0.01,0-0.01,0
			c4.13,9.03,3.01,20.29-2.48,25.09c-1.24,1.08-2.61,1.77-4.09,2.04c-0.58,0.1-1.28,0.2-2.21,0.32c-0.91,0.12-1.61,0.21-2.18,0.27
			l-2.82,0.15c1.42-0.12,2.79-0.68,4.09-1.64c0.2-0.15,0.41-0.32,0.61-0.49c5.49-4.8,7.48-16.14,4.42-25.27l-0.09,0.01l0.05-0.02
			c-0.85-2.63-2.05-4.83-3.55-6.54c-0.49-0.57-1.02-1.07-1.56-1.51c-1.17-0.94-2.42-1.54-3.71-1.8c-0.26-0.05-0.52-0.09-0.77-0.11
			c-0.08-0.01-0.16-0.01-0.24-0.02c-0.01,0-0.02,0-0.03,0l-0.28,0.01c-0.08,0.01-0.16,0.01-0.24,0.01
			c-0.22-0.01-0.48-0.01-0.73-0.02c-0.25-0.01-0.51-0.03-0.73-0.04l-0.12-0.01l-0.03,0c0.01,0,0.02,0,0.03,0.01
			c0.87,0.19,1.71,0.59,2.5,1.17c0.46,0.35,0.9,0.77,1.32,1.24c1.52,1.74,2.68,4.28,3.33,7.35l-0.07-0.01l0.07,0.01
			c1.94,9.08-0.96,20.37-6.46,25.18c-1.85,1.62-3.84,2.35-5.75,2.13l-0.06-0.01c-0.95-0.14-2.05-0.33-3.24-0.55
			c-1.23-0.22-2.3-0.43-3.18-0.62l-0.86-0.21c1.86,0.44,3.93-0.28,6-2.09c5.49-4.8,9.33-15.91,8.55-24.76
			c0.06,0.01,0.11,0.03,0.17,0.04l-0.16-0.04c-0.15-1.69-0.46-3.2-0.91-4.5c-0.45-1.3-1.04-2.39-1.78-3.22
			c-0.65-0.74-1.39-1.27-2.2-1.56c0,0-0.01,0-0.01,0c-0.01,0-0.01,0-0.02,0l-0.36-0.09c0,0,0,0-0.01,0
			c-0.44-0.13-0.95-0.29-1.45-0.45c-0.3-0.09-0.59-0.19-0.86-0.29c-0.14-0.05-0.27-0.09-0.4-0.14c0.1,0.05,0.2,0.11,0.32,0.19
			c0.21,0.14,0.45,0.31,0.69,0.55c0.07,0.07,0.14,0.15,0.21,0.22l0.15,0.18l0.16,0.2c1.07,1.51,1.55,3.96,1.44,7.28h-0.01
			c-0.28,4.07-1.28,8.33-2.89,12.32l-0.05,0.1c-0.31,0.76-0.64,1.51-0.98,2.23c-0.17,0.35-0.33,0.69-0.51,1.03l-0.07,0.15
			c-0.15,0.28-0.29,0.55-0.44,0.82c-0.07,0.13-0.15,0.27-0.22,0.4c-0.1,0.17-0.19,0.34-0.29,0.5l-0.23,0.4
			c-0.5,0.83-1.01,1.6-1.51,2.29c-0.64,0.88-1.29,1.68-1.96,2.39c-1.29,1.41-2.58,2.43-3.83,3.04c-1.39,0.7-2.66,0.86-3.76,0.5
			l-0.17-0.06c-0.97-0.41-2.13-0.92-3.45-1.53c-1.17-0.53-2.26-1.04-3.16-1.49l-0.16-0.07l-0.05-0.03l0.05,0.01l0.07,0.04
			c1.37,0.64,3.42-0.14,5.78-2.2c5.49-4.8,11.22-15.17,12.77-23.12h0.01c0.38-1.99,0.48-3.69,0.29-5.01v-0.01
			c-0.14-1.01-0.45-1.79-0.91-2.32c-0.15-0.16-0.3-0.3-0.47-0.42c-0.05-0.02-0.09-0.04-0.14-0.06c-0.19-0.1-0.37-0.2-0.56-0.3
			c0,0,0,0,0,0c-0.02-0.01-0.04-0.02-0.06-0.03c-0.45-0.27-0.97-0.57-1.49-0.88c-0.37-0.23-0.74-0.46-1.08-0.67
			c-0.02-0.02-0.05-0.03-0.07-0.05c0.04,0.04,0.07,0.07,0.1,0.11c0.37,0.42,0.55,1.01,0.55,1.8v0.12c0,0.09-0.01,0.18-0.01,0.28
			l-0.01,0.06c-0.08,1.13-0.44,2.58-1.11,4.44c-0.01,0.03-0.02,0.06-0.03,0.08c-1.94,4.93-5.02,10.26-8.68,15.03
			c-0.14,0.18-0.28,0.36-0.42,0.54l-0.24,0.31c-1.53,1.93-3.03,3.6-4.47,4.96c-0.48,0.46-0.95,0.88-1.4,1.26
			c-2.33,1.93-4.09,2.66-5.09,2.11l-2.12-1.46l-0.07-0.05c-0.54-0.4-1.2-0.89-2.06-1.56c-0.92-0.7-1.56-1.21-2.09-1.64
			c2.08,0.99,11.33-8.27,18.12-17.59v-0.01c1.37-1.89,2.65-3.77,3.74-5.58h0.01c0.38-0.67,0.96-1.67,1.42-2.69
			c0.04-0.1,0.08-0.19,0.12-0.29c0.89-2.06,0.54-2.54,0.41-2.72c0.01,0.01,0.02,0.02,0.03,0.02c-0.02-0.02-0.04-0.04-0.06-0.05
			l-1.49-1.29c-0.48-0.46-1.04-0.99-1.6-1.54c0,0-0.01-0.01-0.01-0.01c-0.03-0.03-0.06-0.06-0.09-0.09
			c0.04,0.16,0.15,0.58-3.32,4.47h-0.01c-2.81,3.13-6.24,6.68-9.58,9.99c-6.58,6.51-12.87,12.11-13.67,11.91l-2.81-2.98
			c0.08,0.09,0.17,0.18,0.25,0.28c0.58,0.65,1.16,1.28,1.72,1.86c0.45,0.47,0.89,0.93,1.29,1.32c0.03,0.03,0.05,0.05,0.08,0.07
			c1.3,1.29,3.45,3.35,6.07,5.45c1.13,0.96,2.27,1.81,3.56,2.71c0.03,0.03,0.06,0.05,0.09,0.07l0.05,0.04
			c0.63,0.45,1.31,0.92,2.02,1.39l0.03,0.02c0.01,0.01,0.01,0.01,0.02,0.01c0.49,0.33,0.99,0.66,1.52,0.99
			c0.01,0.01,0.02,0.01,0.02,0.02c0.03,0.02,2.04,1.34,5.07,2.92l0.03,0.02c0.01,0,0.01,0,0.01,0c0.8,0.42,1.65,0.85,2.57,1.28
			c0.05,0.03,0.1,0.05,0.15,0.07c0.07,0.03,0.14,0.06,0.21,0.1c1.19,0.55,2.47,1.1,3.78,1.62c0.02,0.01,0.03,0.02,0.04,0.02
			l0.17,0.06c0,0,0,0,0.01,0c0,0.01,0,0.01,0.01,0.01c0.49,0.19,0.99,0.37,1.49,0.55c0.18,0.07,0.36,0.14,0.54,0.2
			c0.5,0.18,1,0.34,1.5,0.5c0.03,0.01,0.07,0.03,0.1,0.04c0.09,0.03,0.19,0.06,0.28,0.08c0.11,0.04,0.23,0.08,0.35,0.11
			c1.14,0.35,2.68,0.78,3.84,1.06c0.21,0.05,0.44,0.1,0.67,0.15c1.04,0.23,2.17,0.47,3.09,0.62c0.24,0.04,0.48,0.08,0.72,0.11
			c0.09,0.02,0.18,0.04,0.27,0.05c1.12,0.19,2.64,0.36,3.77,0.45c0.02,0,0.05,0.01,0.07,0.01c1.26,0.1,2.45,0.16,3.58,0.18
			c0.43,0.01,0.92,0.01,1.41,0h0.03c1.66,0.03,3.88-0.19,5.53-0.39c0.55-0.06,1.15-0.15,1.77-0.25c1.57-0.22,3.55-0.67,5.01-1.13
			c0.96-0.3,2.25-0.67,3.18-1.04c0.01,0,0.01,0,0.01,0c0.33-0.14,0.7-0.29,1.07-0.45c0.4-0.15,0.78-0.3,1.14-0.45
			c0.94-0.38,2.13-1.02,3.04-1.47c0.22-0.11,0.45-0.23,0.69-0.36c0.93-0.51,1.93-1.13,2.87-1.77c0.11-0.07,0.21-0.15,0.32-0.22
			c0.03-0.02,0.07-0.05,0.1-0.07c0.07-0.04,0.14-0.09,0.2-0.14c0.32-0.22,0.63-0.45,0.91-0.67c0.03-0.03,0.06-0.05,0.09-0.07
			c0.88-0.63,1.45-1.1,2.54-2.05l0.2-0.18c1.26-1.11,2.02-1.9,2.52-2.42c0.1-0.11,0.22-0.23,0.33-0.35
			c0.04-0.04,0.08-0.09,0.12-0.13c1.25-1.32,2.79-3.2,3.77-4.72c0.55-0.85,1.32-1.97,1.8-2.86c0.18-0.33,0.37-0.69,0.56-1.07
			c0.2-0.35,0.38-0.69,0.56-1.01c0.48-0.89,0.99-2.14,1.4-3.07c0.65-1.47,1.36-3.51,1.74-5.07c0-0.01,0-0.01,0-0.01
			c0,0,0-0.01,0.01-0.01l0.04-0.16c0.04-0.18,0.09-0.36,0.14-0.55c0.08-0.29,0.16-0.56,0.23-0.83c0.44-1.6,0.84-3.78,1-5.44
			c0-0.01,0-0.01,0-0.01c0.02-0.16,0.04-0.32,0.06-0.47v-0.02c0.04-0.31,0.07-0.61,0.09-0.88c0.11-1.12,0.2-2.33,0.24-3.66v-0.01
			c0.03-0.55,0.04-1.18,0.04-1.82C183.56,141.52,183.55,140.81,183.52,140.21z"/>
		<path d="M153,121.63c-0.01,0.06-0.03,0.11-0.04,0.17c0.03-0.11,0.06-0.23,0.09-0.34C153.04,121.52,153.02,121.58,153,121.63z"/>
		<path d="M149.73,83.57c0.04,0.34,0.03,0.74-0.02,1.18c0.16,0.37,0.31,0.74,0.46,1.12c0.02,0.05,0.04,0.11,0.06,0.16
			c0.11,0.27,0.21,0.54,0.31,0.8c0,0,0,0.01,0,0.01c0.15,0.37,0.29,0.75,0.42,1.12c0.04,0.09,0.07,0.18,0.09,0.26
			c0.05,0.12,0.09,0.25,0.14,0.37c0.07,0.21,0.15,0.42,0.22,0.63c0.02,0.06,0.04,0.11,0.06,0.17c0.09,0.27,0.18,0.54,0.27,0.8
			c0.03,0.07,0.05,0.14,0.07,0.2c0.01,0.04,0.02,0.08,0.04,0.12c0.05,0.16,0.1,0.32,0.15,0.47c0.05,0.15,0.1,0.3,0.14,0.44
			c0.1,0.33,0.2,0.66,0.29,0.98c0.01,0.04,0.02,0.08,0.03,0.12c0.06,0.21,0.12,0.43,0.18,0.64c0.04,0.15,0.09,0.3,0.13,0.45
			c1.49-2.37,2.5-4.38,2.75-5.66c0.1-0.53,0.07-0.89-0.11-1.1l-0.05-0.05c-0.04-0.03-0.08-0.06-0.12-0.1
			c-0.15-0.12-0.31-0.25-0.45-0.36c-0.97-0.78-2.24-1.79-3.32-2.55c-0.18-0.12-0.35-0.24-0.5-0.35c-0.11-0.07-0.22-0.15-0.33-0.22
			l-1.44-0.99c0.02,0.02,0.05,0.04,0.07,0.07C149.52,82.61,149.68,83.03,149.73,83.57z"/>
		<path d="M89.64,162.93l-2.55-3C88.34,161.48,89.29,162.56,89.64,162.93z"/>
		<path d="M113.06,132.01c0.15,0.24,0.3,0.49,0.48,0.75c-0.25-0.41-0.54-0.87-0.82-1.33L113.06,132.01z"/>
		<path d="M111.68,129.62L111.68,129.62l-0.08-0.15c0.08,0.15,0.15,0.28,0.2,0.38l0.07,0.12c0.03,0.06,0.07,0.11,0.1,0.18
			c-0.04-0.07-0.07-0.14-0.11-0.2L111.68,129.62z"/>
		<path d="M70.51,119.12c0.01,0.07,0.01,0.15,0.01,0.22c0.03,0.9,0.12,1.98,0.23,2.97c-0.05-0.6-0.1-1.3-0.16-2.12
			C70.56,119.84,70.53,119.47,70.51,119.12z"/>
		<path d="M72.85,132.94c0.17,0.6,0.41,1.38,0.7,2.29c0.02,0.07,0.05,0.15,0.07,0.22c0.03,0.1,0.06,0.2,0.1,0.3
			c0.01,0.04,0.02,0.07,0.04,0.11c0,0,0,0.01,0,0.01c0.04,0.14,0.09,0.28,0.14,0.43c0.01,0.01,0.01,0.03,0.01,0.04
			c0.27,0.79,0.57,1.64,0.91,2.53c-0.32-0.88-0.66-1.88-1.01-2.94C73.45,134.84,73.12,133.82,72.85,132.94z"/>
		<path d="M154.61,110.44c0-0.07,0.01-0.14,0.01-0.21C154.62,110.3,154.61,110.37,154.61,110.44z"/>
		<path d="M76.42,92.33c0.14-0.25,0.29-0.5,0.43-0.75c-0.12,0.19-0.23,0.37-0.34,0.55c-0.16,0.26-0.33,0.55-0.5,0.85
			C76.01,92.99,76.01,93,76,93.01c-0.24,0.44-0.49,0.91-0.71,1.37C75.64,93.73,76.02,93.03,76.42,92.33z"/>
		<path d="M79.45,87.67L79.45,87.67L79.45,87.67c-0.02,0.01-0.02,0.02-0.02,0.03C79.43,87.68,79.43,87.68,79.45,87.67z"/>
	</g>
</g>
</svg>
