<?xml version="1.0" encoding="utf-8"?>
<!-- Generator: Adobe Illustrator 26.2.1, SVG Export Plug-In . SVG Version: 6.00 Build 0)  -->
<svg version="1.1" xmlns="http://www.w3.org/2000/svg" xmlns:xlink="http://www.w3.org/1999/xlink" x="0px" y="0px"
	 viewBox="0 0 225 225" style="enable-background:new 0 0 225 225;" xml:space="preserve">
<style type="text/css">
	.st0{display:none;}
	.st1{display:inline;fill:#FAB433;}
	.st2{fill:none;}
	.st3{fill:none;stroke:#000000;stroke-width:1.6;stroke-miterlimit:10;}
	.st4{fill:none;stroke:#000000;stroke-width:0.7265;stroke-miterlimit:10;}
	.st5{fill:none;stroke:#000000;stroke-linecap:round;stroke-linejoin:round;stroke-miterlimit:10;}
	.st6{fill:none;stroke:#000000;stroke-miterlimit:10;}
	.st7{fill:none;stroke:#000000;stroke-width:0.7105;stroke-miterlimit:10;}
	.st8{fill:none;stroke:#000000;stroke-width:5.4;stroke-linecap:round;stroke-linejoin:round;stroke-miterlimit:10;}
	.st9{fill:none;stroke:#000000;stroke-width:2.9309;stroke-linecap:round;stroke-linejoin:round;stroke-miterlimit:10;}
	.st10{fill:none;stroke:#000000;stroke-width:0.5;stroke-linecap:round;stroke-linejoin:round;}
	.st11{fill:none;stroke:#FFFFFF;stroke-width:0;stroke-linecap:round;stroke-linejoin:round;}
	.st12{fill:#FFFFFF;}
	.st13{fill:none;stroke:#000000;stroke-width:1.4;stroke-miterlimit:10;}
	.st14{fill:url(#);stroke:#000000;stroke-width:1.4387;stroke-miterlimit:10;}
	.st15{fill:url(#);stroke:#000000;stroke-width:1.3718;stroke-miterlimit:10;}
	.st16{fill:none;stroke:#000000;stroke-width:1.0041;stroke-miterlimit:10;}
	.st17{fill:none;stroke:#000000;stroke-width:1.3621;stroke-miterlimit:10;}
	.st18{fill:none;stroke:#000000;stroke-width:0.25;stroke-miterlimit:10;}
</style>
<g id="Layer_2" class="st0">
	<rect id="XMLID_2028_" x="-590.99" y="-275.01" class="st1" width="1160" height="772"/>
</g>
<g id="Layer_1">
	<g id="XMLID_11328_">
		<path d="M67.78,128.02l5.76-19.96l-1.92-0.55l1.51-4.43c-0.1-0.04-0.21-0.08-0.31-0.12l2.03-5.41l4.68,1.98l3.97-9.32l0.82,0.35
			l4.37-10.06l1.94,0.89l8.74-18.84l-3.84-1.77l1.56-3.29l3.55,1.78l7.05-13.96c-2.09,0.15-4.16,0.4-6.19,0.73l-2.91,5.84
			l-3.76-1.78l-8.85,18.79l1.68,0.79l-3.89,9.09l-0.94-0.4L75.4,96.1l3.11-8.31c-1.66-0.62-3.32-1.24-4.98-1.84l-5.42,14.97
			l0.2,0.07l-5.13,15.51l2.29,0.77l-1.45,5.15l-3.99-0.95l-4.74,20.22l4.98,1.19l3.87-15.9L67.78,128.02z M67.88,111.07l1.49,0.5
			l0.47-1.39l0.03,0.01l-1.64,4.81l-1.34-0.45L67.88,111.07z M52.84,144.13c1.22,2.3,2.56,4.52,4.03,6.66l1.38-7.09l-5.13-0.98
			L52.84,144.13z M62.38,157.68c1.37,1.53,2.81,2.99,4.32,4.38l3.4-15.08l-5.16-1.14L62.38,157.68z M148.75,55.82L148.75,55.82
			c0.04,0.03,0.08,0.05,0.12,0.08L148.75,55.82z M138.73,62.01l-0.14-0.08l-2.62,4.4l-3.93-2.32l-4.82,8.46l-0.93-0.5l-9.78,18.33
			l1.68,0.9l-6.79,13.32l1.05,0.54l-7.12,13.87l4.58,2.36l6.9-13.32l-1.09-0.56l3.07-5.97l2.31,1.24l9.85-18.28l-4.22-2.26
			l1.26-2.33l0.69,0.4l7.63-13.24l3.84,2.42l8.56-13.55c-1.46-0.94-2.88-1.94-4.41-2.76L138.73,62.01z M151.47,57.53
			c-0.83-0.59-1.75-1.07-2.6-1.63l2.55,1.71L151.47,57.53z M149.95,79.29l-2.31,3.61l0.96,0.62l2.99-4.84l3.49,2.17l0.6-0.94
			l0.46,0.29l3.11-4.83l-0.46-0.29l4.42-6.87l-4.12-2.65l0.37-0.57l1.28,0.89l0.18-0.26c-1.6-1.65-3.28-3.24-5.05-4.72l-10.13,15.66
			L149.95,79.29z M139.43,144.96l7.37-12.78l-1.38-0.82l2.76-4.6l1.98,1.21l10.85-17.71l-4.48-2.73l-5.23,8.61l-0.12-0.07
			l7.46-12.38l6.01-9.3l3.87,2.7l6.62-9.51c-0.75-1.88-1.59-3.71-2.5-5.5l-4.6,6.64l-0.95-0.61l-3.36,5.04l-3.12-2.07l-4.22,6.59
			l-0.14-0.08l-2.8,4.67l-0.25,0.39l-0.53,0.88l0.01,0.01l-7.11,11.87l2.44,1.47l-6.36,10.78l1.32,0.76l-7.05,12.35l-0.08-0.04
			l6.21-11.26l-4.59-2.52l-6.35,11.62l0.73,0.38l-0.3,0.54l1.03,0.57l-7.48,14.43l1.28,0.67l-6.52,15.5l-0.24-0.09l-3.46,9.37
			c1.95-0.11,3.87-0.28,5.77-0.55l2.1-5.57l4.85-11.18l0.49,0.22l8.64-18.68L139.43,144.96z M135.94,142.98l-0.76,1.38l-0.38-0.21
			l0.75-1.43l0.63,0.36L135.94,142.98z M167.36,102.49l3.51-5.26l2.98,2l0.2-0.29l0.42,0.29l3.08-4.44
			c-0.63-2.32-1.38-4.6-2.25-6.81l-9.28,13.59L167.36,102.49z M49.83,96.25l0.55,0.17l3.17-10.02l3.99,1.44l3.61-9.83l3.18,1.2
			l4.32-11.38l1.04,0.42l4.71-11.36c-3.84,2.64-7.37,5.68-10.59,9.03l-0.69,1.85l-0.75-0.27c-1.92,2.14-3.74,4.36-5.38,6.73
			l-0.8,2.24l-0.54-0.17c-4.93,7.7-8.3,16.47-9.76,25.88l2.15,0.49L49.83,96.25z M78.54,132.83l6.3-19.79l-2.12-0.67l1.48-3.99
			l-0.33-0.13l1.32-3.26l4.54,2.06l6.18-13.54l-0.35-0.16l2.96-6.42l2.38,1.16l9.12-18.66l-3.46-1.68l1.72-3.47l1.34,0.7l7.24-13.76
			l4.13,2.43l4.31-7.31c-1.81-0.35-3.64-0.64-5.49-0.84l-2.9,4.99l-1.73-0.94l1.03-1.9l0.3,0.16l1.34-2.46
			c-1.77-0.14-3.55-0.27-5.36-0.27c-1.45,0-2.87,0.13-4.31,0.22l2.61,1.47l-0.39,0.71l2,1.05l-5.47,10.49l-1.51-0.75l-9.17,18.64
			l0.91,0.45l-5.66,12.38l0.31,0.14l-5.09,11.28l2.93-7.25l-4.9-1.96l-5.65,14.34c0.08,0.03,0.16,0.06,0.24,0.09l-5.27,14.65
			c0.82,0.3,1.64,0.6,2.47,0.9l-1.45,4.69l-3.49-0.94l-5.29,20.09l4.94,1.32l4.15-15.25L78.54,132.83z M79.06,116.5
			c0.34,0.13,0.69,0.25,1.03,0.38l-1.43,3.85c-0.27-0.1-0.54-0.2-0.81-0.3L79.06,116.5z M118.33,60.02l2.29-4.18l1.84,1.01
			l-4.49,8.22l-2.48-1.28l-9.46,18.49l1.99,1.02l-6.31,13.01l0.86,0.42l-7.09,14.75l4.61,2.24l6.55-13.4l-0.91-0.44l2.5-5.12
			l2.46,1.26l9.48-18.48l-4.67-2.39l-4.61,9.06l-0.07-0.03l6.54-12.65l2.26,1.24l7.15-13l3.91,2.38l-2.78,4.72l0.48,0.28l2.51-4.4
			l4.04,2.32l1.29-2.16l0.15,0.09l2.62-4.4l-0.15-0.09l3.74-6.28c-2.92-1.46-5.93-2.73-9.07-3.76l-5.67,9.37l1.8-3.27l-0.2-0.11
			l-2.39,4.2l-1.74-0.99l0.9-1.59l0.37,0.21l2.39-4.2l-0.38-0.21l2.37-4.17c-1.73-0.49-3.47-0.95-5.25-1.31l-7.63,13.49
			L118.33,60.02z M73.17,73.02l-1.82-0.71l-7.49,19.37l4.75,1.87L72.78,83l1.64,0.66l3.8-9.31l2.45,1.07L89,56.38l-3.61-1.57
			l2.01-4.42l3.11,1.48l1.78-3.7c-4.13,1.3-8.1,2.98-11.84,5L75.95,63.2l0.95,0.43L73.17,73.02z M178.09,106.97l1.45-2.01
			c-0.28-2.44-0.7-4.83-1.22-7.19l-4.43,6.18L178.09,106.97z M180,112.58c0-1.1-0.11-2.17-0.16-3.26l-3.76,5.43l-0.14-0.09
			l-11.21,17.48l3.34,2.16l-6.4,9.9l1.35,0.83l-0.58,0.94l-4.26-2.59l-6.54,10.76l0.57,0.34l-1.25,2.05l0.64,0.39l-7.4,12.69
			l1.41,0.83l0.52-1.07l1.54,0.75c3.5-2.14,6.78-4.58,9.82-7.31l0.41-0.79l0.27,0.17c0.29-0.26,0.58-0.52,0.87-0.79l6.74-10.92
			l-1.43-0.93l3.18-4.87l1.37,0.9l7.48-11.32c0.81-2.37,1.51-4.8,2.05-7.28l-2.45-1.61l-5.24,7.97l-0.49-0.32l8.42-12.95l0,0
			l1.02-1.47C179.87,116.63,180,114.62,180,112.58z M151.53,159.32l1.08-1.77l1.15,0.7l1.13-2.17l0.16,0.09l-1.91,3.22l0.71,0.37
			l-0.39,0.74L151.53,159.32z M154.07,162.24l-0.28-0.17l0.55-1.05l-0.42-0.26l0.52-0.87l0.78,0.48L154.07,162.24z M162.99,148.68
			l-0.25-0.16l1.69-2.61l0.2,0.12L162.99,148.68z M109.59,150.56l7.85-19.23l-2.31-0.94l0.41-0.88l-1.07-0.52l1.05-2.26l4.14,2.22
			l7.16-13.27l-1.16-0.63l2.62-4.84l2.71,1.52l10.2-18.09l-4.58-2.57l-5.06,9.06l-0.61-0.33l6.72-11.95l0.77,0.46l10.68-17.82
			l-0.72-0.43l-2.86,4.62l-0.44-0.27l8-12.92l-4.42-2.73l-10.89,17.69l0.74,0.46l2.74-4.62l0.54,0.32l-4.37,7.35l-1.02-0.57
			l-10.06,18.17l2.22,1.24l-7.04,13.07l1.1,0.59l-7.48,14.07l0.06,0.03l-0.23-0.09l6.07-12.34l-4.7-2.3l-6.14,12.6l1.57,0.72
			l-6.77,14.87l2.76,1.27l-0.32,0.79l-2.13-0.76l-6.5,18.53l-0.85-0.26l-5.35,17.5c2.63,0.81,5.36,1.41,8.12,1.9l0.65-2.21l-3-0.87
			l1.56-5l0.69,0.21l0.33-1.04l-0.69-0.2l2.34-7.47l0.66,0.23l4.6-12.78L109.59,150.56z M119.96,156.17l8.3-19.04l-1.85-0.8
			l-0.05,0.09l-1-0.52l0.55-1.1l3.57,1.98l7.3-13.09l-1.16-0.66l2.5-4.37l1.97,1.15l10.55-17.89l-4.46-2.61l1.46-2.5l0.04,0.03
			l7.57-12.15l4.2,2.83l8.68-12.86l0.4,0.29c-1.13-1.67-2.34-3.28-3.6-4.84l-8.06,12l1.8-2.89l-0.94-0.59l-3.11,4.83l-3.37-2.16
			l-5.28,8.56l-0.23-0.13l-10.37,17.99l2.27,1.31l-6.01,10.67l1.11,0.62l-7.24,13.07l6.16-11.82l-4.63-2.4l-6.26,12.08l1.52,0.75
			l-7.67,15.8l1.03,0.51l-6.43,16.79l-0.42-0.14l-4.89,14.54c1.75,0.22,3.51,0.35,5.3,0.44l1.2-3.47l0.46,0.16l0.52-1.5l-0.46-0.15
			l2.56-7.38l0.24,0.09l4.74-12.15L119.96,156.17z M124.33,135.57l-0.66,1.54l-0.11-0.06L124.33,135.57z M177.16,112.42l2.64-3.81
			c-0.06-0.99-0.06-2-0.16-2.98l-4.04,5.68L177.16,112.42z M166.09,153.51c0.68-0.89,1.37-1.76,2-2.68l-0.21-0.14L166.09,153.51z
			 M147.54,152.36l1.14,0.68l7.38-12.36l-1.13-0.7l2.81-4.49l1.9,1.21l11.16-17.52l-4.42-2.8l-5.14,8.11l-0.41-0.26l8.48-13.55
			l-0.13-0.09l8.64-12.87l-1.35-0.9l-3.63,5.24l-2.87-1.98l-6.66,9.97l0.17,0.1l-8.26,13.31l2.78,1.73l-6.38,10.34l1.05,0.62
			l-0.57,0.96l-4.27-2.47l-6.44,11.17l0.85,0.47l-0.87,1.5l0.8,0.47l-7.69,13.93l2.56,1.42l-6.13,13.47l-0.12-0.05l-0.21,0.51
			c2.33-0.65,4.61-1.4,6.83-2.28l3.76-8.13l-0.74-0.36L147.54,152.36z M154.32,137.13l0.1,0.06l-1.07,1.8l-0.13-0.08L154.32,137.13z
			 M144.72,150.69l0.38,0.23l-0.6,1.04l-0.37-0.21L144.72,150.69z M143.49,149.02l0.24,0.14l-1.47,2.62l-0.27-0.16L143.49,149.02z
			 M56.72,123.45l5.22-20.1l-1.61-0.41l1.7-5.5l-0.19-0.06l5.74-16.71l-4.97-1.69l-4.31,12.78l-0.04-0.01l-0.33,1.09l-0.58,1.72
			l0.06,0.02l-5.12,17.06l1.96,0.59l-1.69,6.67l-3.53-0.74l-2.1,10.2c0.82,3.43,1.86,6.77,3.18,9.97l3.38-15.7L56.72,123.45z
			 M56.55,105.61l1.99,0.51l-1.06,3.44l-1.79-0.54L56.55,105.61z M48.96,99.44l-1.65,5.92l-1.83-0.5c-0.29,2.54-0.48,5.11-0.48,7.73
			c0,2.49,0.16,4.93,0.42,7.35l0.87,0.2l4.67-20.24L48.96,99.44z M92.69,156.7l4.69-14.12l2.32,0.86l7.32-19.43l-1.76-0.66
			l0.51-1.17c-0.52-0.24-1.03-0.47-1.55-0.71l0.62-1.43l-0.21-0.08l6.08-13.09c-1.61-0.75-3.22-1.49-4.83-2.22l-5.94,13.18
			c0.56,0.24,1.12,0.48,1.68,0.72l-6.25,14.84l2.22,0.95l-0.69,1.88l-2.7-0.88l-6.21,19.27l-0.37-0.1l-5.1,18.49
			c2.33,1.16,4.73,2.18,7.2,3.06l0.95-3.6l-2.47-0.65l1.58-5.57l0.28,0.08l0.17-0.6l-0.28-0.07l2.55-9.01L92.69,156.7z M156.83,92.6
			l1.16,0.77l3.24-5.05l3.24,2.09l0.54-0.81l0.3,0.2l3.36-5.04l-0.3-0.2l3.15-4.71c-0.77-1.39-1.61-2.74-2.47-4.07l-0.75-0.5
			L156.83,92.6z M89.31,138.06l6.84-19.61l-1.9-0.65l0.93-2.32l-1.23-0.53l0.16-0.41l-0.19-0.07l6.14-14.16l-4.85-2.08l-5.82,13.74
			l1.35,0.54l-5.86,14.88l2.33,0.92l-1.04,3.05l-2.81-0.83l-5.56,19.02l-1.46-0.36l-4.26,17.39c2.04,1.53,4.15,2.94,6.36,4.24
			l0.59-2.53l-1.98-0.46l1.89-7.45l0.25,0.06l0.05-0.19L79,160.18l2.19-8.64l1.26,0.37l4.43-14.69L89.31,138.06z M90.07,123.96
			l0.17,0.07l-1.13,2.83l-0.02-0.01L90.07,123.96z"/>
	</g>
</g>
</svg>
