<?xml version="1.0" encoding="utf-8"?>
<!-- Generator: Adobe Illustrator 27.0.0, SVG Export Plug-In . SVG Version: 6.00 Build 0)  -->
<svg version="1.1" id="Layer_1" xmlns="http://www.w3.org/2000/svg" xmlns:xlink="http://www.w3.org/1999/xlink" x="0px" y="0px"
	 viewBox="0 0 225 225" style="enable-background:new 0 0 225 225;" xml:space="preserve">
<style type="text/css">
	.st0{display:none;}
	.st1{display:inline;fill:#FAB433;}
	.st2{fill:#FFFFFF;}
</style>
<g id="Layer_2_00000019646839091817740020000016963137911590906299_" class="st0">
	<rect id="XMLID_1014_" x="-836" y="-520" class="st1" width="1160" height="772"/>
</g>
<g id="Layer_1_00000101089123002202468960000003031207867596028852_">
	<g id="XMLID_1453_">
		<path class="st2" d="M84.4,87.3l3.5,3.5c0.5-0.5,0.9-1,1.4-1.5c0.6-0.6,1.2-1.1,1.8-1.6l-3.5-3.5l-0.3-0.3L67.9,64.4
			c-0.6,0.6-1.2,1.1-1.8,1.7c-0.5,0.5-1,1-1.4,1.5L84.1,87L84.4,87.3z M63.4,69L63.4,69c0.4-0.5,0.8-0.9,1.3-1.4
			C64.3,68.1,63.8,68.5,63.4,69z M79.6,91.5l0.3,0.3l4.2,4.2c0.8-1.3,1.6-2.6,2.6-3.8l-3.6-3.6l-0.3-0.3L63.5,69
			c-1,1.1-2,2.3-2.9,3.5L79.6,91.5z M56.8,77.8c-0.1,0.1-0.2,0.3-0.3,0.4C56.7,78.1,56.8,77.9,56.8,77.8L56.8,77.8z M75.4,96.3l6,6
			c0.5-1.5,1.1-3.1,1.8-4.5l-4.6-4.6l-0.3-0.3L59.4,74c-0.9,1.2-1.7,2.5-2.5,3.8L75.1,96L75.4,96.3z M70.6,100.5l0.3,0.3l9,9
			c0.2-1.8,0.4-3.7,0.9-5.4l-6.7-6.7l-0.3-0.3L55.9,79.5c-0.8,1.4-1.5,2.7-2.2,4.1L70.6,100.5z M55.8,79.5L55.8,79.5
			c0.1-0.2,0.2-0.4,0.3-0.6C56.1,79.1,56,79.3,55.8,79.5z M56.2,78.9c0.1-0.2,0.3-0.4,0.4-0.7C56.5,78.4,56.3,78.7,56.2,78.9z
			 M73.1,60.1c0.4-0.3,0.8-0.6,1.2-0.9l0,0C73.9,59.5,73.5,59.8,73.1,60.1z M88.6,82.5l0.3,0.3l3.7,3.7c1.2-0.9,2.5-1.8,3.8-2.5
			l-4.3-4.3l-0.3-0.3l-19-19c0.1-0.1,0.2-0.1,0.3-0.2c-1.3,1-2.6,2-3.8,3.1L88.6,82.5z M78.6,56.3c0.4-0.2,0.8-0.5,1.2-0.7l0,0
			C79.4,55.9,79,56.1,78.6,56.3z M93.1,78l0.3,0.3l4.7,4.7c1.5-0.7,3-1.3,4.6-1.8l-6.1-6.1l-0.3-0.3L78.1,56.7
			c0.2-0.1,0.3-0.2,0.5-0.3c-1.5,0.9-2.9,1.8-4.3,2.8L93.1,78z M100.8,70.3L83.9,53.5c-1.4,0.7-2.8,1.4-4.2,2.2l17.8,17.8l0.3,0.3
			l6.8,6.8c1.8-0.4,3.7-0.7,5.5-0.8l-9.2-9.2L100.8,70.3z M105.3,65.8l-15-15c-1.5,0.5-3.1,1.1-4.6,1.8L102.1,69l0.3,0.3l10.4,10.4
			c2.4,0,4.9,0.3,7.2,0.9l-14.5-14.5L105.3,65.8z M90.3,50.8L90.3,50.8c0.7-0.2,1.3-0.5,2-0.7C91.6,50.3,90.9,50.5,90.3,50.8z
			 M98.6,48.4C98.5,48.4,98.5,48.4,98.6,48.4C98.5,48.4,98.6,48.4,98.6,48.4z M97.3,48.7c0.4-0.1,0.8-0.2,1.3-0.3
			C98.1,48.5,97.7,48.6,97.3,48.7L97.3,48.7z M114.3,56.8l-9.4-9.4c-1.8,0.2-3.7,0.5-5.5,0.9L111.1,60l0.3,0.3l35.9,35.9l3.2-3.2
			l-35.9-35.9L114.3,56.8z M106.6,64.5l0.3,0.3l17,17c4.3,1.6,8.3,4.1,11.8,7.6c3.3,3.3,5.8,7.1,7.4,11.2l3-3l-35.9-35.9l-0.3-0.3
			L97.3,48.7c-1.7,0.4-3.3,0.8-5,1.4L106.6,64.5z M98.6,48.4c0.3-0.1,0.6-0.1,0.9-0.2l0,0C99.1,48.3,98.8,48.4,98.6,48.4z
			 M50.3,91.8c0.2-0.5,0.3-1,0.5-1.5C50.6,90.8,50.5,91.3,50.3,91.8z M50.9,89.9c0,0.1-0.1,0.2-0.1,0.3
			C50.9,90.2,50.9,90.1,50.9,89.9L50.9,89.9z M66.4,105.3l14.1,14.1c-0.5-2.3-0.8-4.7-0.8-7.1l-10.2-10.2l-0.3-0.3L52.8,85.4
			c-0.7,1.5-1.3,3-1.8,4.5l15.1,15.1L66.4,105.3z M81.5,123.1L65,106.7l-0.3-0.3L50.2,91.9c-0.5,1.6-1,3.3-1.4,4.9l12.7,12.7
			l0.3,0.3l35.9,35.9l2.7-2.7c-4-1.6-7.9-4.1-11.2-7.4C85.7,132,83.1,127.7,81.5,123.1z M50.2,91.9L50.2,91.9
			C50.3,91.9,50.3,91.8,50.2,91.9C50.3,91.8,50.3,91.9,50.2,91.9z M118.8,52.3l-5.3-5.3c-2.1,0-4.1,0-6.2,0.2l8.3,8.3l0.3,0.3
			l35.9,35.9l3.2-3.2l-35.9-35.9L118.8,52.3z M60.2,110.9L48.3,99c-0.4,1.8-0.7,3.6-0.9,5.5l9.6,9.6l0.3,0.3l35.9,35.9l3.2-3.2
			l-35.9-35.9L60.2,110.9z M123.4,47.8c-2.4-0.4-4.8-0.7-7.2-0.8l3.9,3.9l0.3,0.3l35.9,35.9l-1.3,1.3l4.5-4.5l-35.9-35.9L123.4,47.8
			z M158.9,66.1c-5.6-5.5-11.8-9.9-18.6-13l25.1,25.1l1.8-1.8C164.9,72.8,162.1,69.3,158.9,66.1z M135.8,51.2c-3-1.1-6-2-9.1-2.7
			l34.2,34.2l-1.3,1.3l5.8-5.8l-1.3,1.3L135.8,51.2z M66.1,158.9c3.2,3.2,6.6,6,10.2,8.4l2.1-2.1l-25.7-25.7
			C55.9,146.5,60.3,153.1,66.1,158.9z M50.9,135l28.8,28.9l3.2-3.2l-34.6-34.6C49,129.1,49.8,132.1,50.9,135z M51.2,119.9l-4.2-4.2
			c0.1,2.4,0.4,4.8,0.8,7.1l0.3,0.3l0.3,0.3l35.9,35.9l3.2-3.2l-35.9-35.9L51.2,119.9z M55.7,115.4l-8.5-8.5c-0.2,2-0.3,4.1-0.2,6.1
			l5.6,5.6l0.3,0.3l35.9,35.9l3.2-3.2L56,115.7L55.7,115.4z M52.7,139.4c-0.7-1.5-1.3-2.9-1.8-4.4C51.4,136.5,52,138,52.7,139.4z"/>
		<path id="XMLID_1454_" class="st2" d="M135.7,135.7c-9.5,9.5-23.4,11.9-35.2,7.4l-24.2,24.2c25.5,16.8,60.2,14.1,82.6-8.4
			s25.2-57.1,8.4-82.6l-24.2,24.2C147.6,112.3,145.2,126.2,135.7,135.7z"/>
	</g>
</g>
</svg>
