<?xml version="1.0" encoding="utf-8"?>
<!-- Generator: Adobe Illustrator 26.2.1, SVG Export Plug-In . SVG Version: 6.00 Build 0)  -->
<svg version="1.1" xmlns="http://www.w3.org/2000/svg" xmlns:xlink="http://www.w3.org/1999/xlink" x="0px" y="0px"
	 viewBox="0 0 225 225" style="enable-background:new 0 0 225 225;" xml:space="preserve">
<style type="text/css">
	.st0{display:none;}
	.st1{display:inline;fill:#FAB433;}
	.st2{fill:none;}
	.st3{fill:none;stroke:#000000;stroke-width:1.6;stroke-miterlimit:10;}
	.st4{fill:none;stroke:#000000;stroke-width:0.7265;stroke-miterlimit:10;}
	.st5{fill:none;stroke:#000000;stroke-linecap:round;stroke-linejoin:round;stroke-miterlimit:10;}
	.st6{fill:none;stroke:#000000;stroke-miterlimit:10;}
	.st7{fill:none;stroke:#000000;stroke-width:0.7105;stroke-miterlimit:10;}
	.st8{fill:none;stroke:#000000;stroke-width:5.4;stroke-linecap:round;stroke-linejoin:round;stroke-miterlimit:10;}
	.st9{fill:none;stroke:#000000;stroke-width:2.9309;stroke-linecap:round;stroke-linejoin:round;stroke-miterlimit:10;}
	.st10{fill:none;stroke:#000000;stroke-width:0.5;stroke-linecap:round;stroke-linejoin:round;}
	.st11{fill:none;stroke:#FFFFFF;stroke-width:0;stroke-linecap:round;stroke-linejoin:round;}
	.st12{fill:#FFFFFF;}
	.st13{fill:none;stroke:#000000;stroke-width:1.4;stroke-miterlimit:10;}
	.st14{fill:url(#);stroke:#000000;stroke-width:1.4387;stroke-miterlimit:10;}
	.st15{fill:url(#);stroke:#000000;stroke-width:1.3718;stroke-miterlimit:10;}
	.st16{fill:none;stroke:#000000;stroke-width:1.0041;stroke-miterlimit:10;}
	.st17{fill:none;stroke:#000000;stroke-width:1.3621;stroke-miterlimit:10;}
	.st18{fill:none;stroke:#000000;stroke-width:0.25;stroke-miterlimit:10;}
</style>
<g id="Layer_2" class="st0">
	<rect id="XMLID_1014_" x="-590.99" y="-30.01" class="st1" width="1160" height="772"/>
</g>
<g id="Layer_1">
	<g id="XMLID_1477_">
		<path id="XMLID_1478_" d="M164.69,118.23v-18.04h12.24c-0.1-0.55-0.21-1.1-0.33-1.64h-11.91V80.51h5.08
			c-0.31-0.55-0.62-1.1-0.94-1.64h-4.13v-6.1c-0.54-0.7-1.08-1.4-1.64-2.08v8.18h-18.04V60.84h7.88c-0.72-0.56-1.44-1.11-2.19-1.64
			h-5.7v-3.66c-0.54-0.31-1.09-0.62-1.64-0.92v4.58h-8.61h-0.82h-8.61v-8.61v-0.82v-1.61c-0.54-0.11-1.09-0.2-1.64-0.29v1.9v0.82
			v8.61h-18.04v-8.61v-0.82v-2.51c-0.55,0.06-1.09,0.14-1.64,0.21v2.3v0.82v8.61H85.98v-6.69c-0.55,0.24-1.1,0.48-1.64,0.74v5.95
			H74.31c-0.74,0.53-1.47,1.08-2.19,1.64h12.22v18.04H66.3V65.96c-0.56,0.56-1.1,1.13-1.64,1.7v11.21h-8.47
			c-0.32,0.54-0.64,1.09-0.94,1.64h9.41v18.04H48.41c-0.12,0.54-0.23,1.09-0.33,1.64h16.58v18.04H47.18
			c0.02,0.27,0.04,0.55,0.06,0.82c3.28,33.13,31.29,59.04,65.27,59.04s61.99-25.91,65.27-59.04c0.02-0.27,0.04-0.55,0.06-0.82
			H164.69z M145.02,80.51h18.04v18.04h-18.04V80.51z M145.02,100.19h18.04v18.04h-18.04V100.19z M125.34,60.84h8.61h0.82h8.61v18.04
			h-8.61h-0.82h-8.61V60.84z M105.66,60.84h18.04v18.04h-18.04V60.84z M85.98,60.84h18.04v18.04H85.98V60.84z M66.3,80.51h18.04
			v18.04H66.3V80.51z M66.3,100.19h18.04v18.04H66.3V100.19z M112.51,138.73c-12.2,0-22.5-8.33-25.39-19.68
			c-0.08-0.27-0.13-0.55-0.2-0.82h-0.95v-18.04h3.36c0.3-0.56,0.63-1.1,0.97-1.64h-4.33V80.51h18.04v7.17
			c0.54-0.18,1.09-0.35,1.64-0.5v-6.67h18.04v8.27c0.56,0.26,1.11,0.53,1.64,0.83v-9.1h8.61h0.82h8.61v18.04h-8.61h-0.05
			c0.34,0.54,0.67,1.08,0.97,1.64h7.69v18.04h-5.28c-0.07,0.27-0.12,0.55-0.2,0.82C135.01,130.4,124.71,138.73,112.51,138.73z"/>
	</g>
</g>
</svg>
