<?xml version="1.0" encoding="utf-8"?>
<!-- Generator: Adobe Illustrator 26.2.1, SVG Export Plug-In . SVG Version: 6.00 Build 0)  -->
<svg version="1.1" xmlns="http://www.w3.org/2000/svg" xmlns:xlink="http://www.w3.org/1999/xlink" x="0px" y="0px"
	 viewBox="0 0 225 225" style="enable-background:new 0 0 225 225;" xml:space="preserve">
<style type="text/css">
	.st0{display:none;}
	.st1{display:inline;fill:#FAB433;}
	.st2{fill:none;}
	.st3{fill:none;stroke:#000000;stroke-width:1.6;stroke-miterlimit:10;}
	.st4{fill:none;stroke:#000000;stroke-width:0.7265;stroke-miterlimit:10;}
	.st5{fill:none;stroke:#000000;stroke-linecap:round;stroke-linejoin:round;stroke-miterlimit:10;}
	.st6{fill:none;stroke:#000000;stroke-miterlimit:10;}
	.st7{fill:none;stroke:#000000;stroke-width:0.7105;stroke-miterlimit:10;}
	.st8{fill:none;stroke:#000000;stroke-width:5.4;stroke-linecap:round;stroke-linejoin:round;stroke-miterlimit:10;}
	.st9{fill:none;stroke:#000000;stroke-width:2.9309;stroke-linecap:round;stroke-linejoin:round;stroke-miterlimit:10;}
	.st10{fill:none;stroke:#000000;stroke-width:0.5;stroke-linecap:round;stroke-linejoin:round;}
	.st11{fill:none;stroke:#FFFFFF;stroke-width:0;stroke-linecap:round;stroke-linejoin:round;}
	.st12{fill:#FFFFFF;}
	.st13{fill:none;stroke:#000000;stroke-width:1.4;stroke-miterlimit:10;}
	.st14{fill:url(#);stroke:#000000;stroke-width:1.4387;stroke-miterlimit:10;}
	.st15{fill:url(#);stroke:#000000;stroke-width:1.3718;stroke-miterlimit:10;}
	.st16{fill:none;stroke:#000000;stroke-width:1.0041;stroke-miterlimit:10;}
	.st17{fill:none;stroke:#000000;stroke-width:1.3621;stroke-miterlimit:10;}
	.st18{fill:none;stroke:#000000;stroke-width:0.25;stroke-miterlimit:10;}
</style>
<g id="Layer_2" class="st0">
	<rect id="XMLID_4_" x="-100.99" y="-275.01" class="st1" width="1160" height="772"/>
</g>
<g id="Layer_1">
	<g id="XMLID_478_">
		<path id="XMLID_10_" d="M111.42,43.44c-16.02,0.33-31.55,6.38-43.6,16.96c-0.45,0.39-0.8,0.89-1.02,1.45
			c-8.45,21.24-3.11,42.52,9.07,57.35c2.52,3.07,7.51,0.7,6.6-3.17c-5.11-21.65,4.66-52.29,30.71-65.46
			C116.78,48.76,115.45,43.36,111.42,43.44z"/>
		<path id="XMLID_9_" d="M53.55,78.06c-7.77,14-10.36,30.47-7.28,46.19c0.12,0.59,0.37,1.15,0.74,1.62
			c14.06,17.98,35.25,24.19,54.36,21.09c3.93-0.64,4.35-6.17,0.53-7.31c-21.48-6.41-42.79-30.66-41.3-59.57
			C60.81,76.07,55.49,74.55,53.55,78.06z"/>
		<path id="XMLID_8_" d="M54.63,145.84c8.28,13.64,21.24,24.04,36.37,29.18c0.57,0.19,1.18,0.25,1.77,0.16
			c22.57-3.28,38.43-18.52,45.2-36.57c1.4-3.73-3.15-6.87-6.05-4.13c-16.1,15.17-47.36,22.47-72,6.27
			C56.56,138.53,52.54,142.39,54.63,145.84z"/>
		<path id="XMLID_7_" d="M113.57,178.54c15.98-0.29,31.49-6.28,43.55-16.79c0.45-0.39,0.8-0.89,1.03-1.44
			c8.56-21.26,3.26-42.71-9-57.67c-2.53-3.08-7.51-0.69-6.6,3.19c5.13,21.67-4.71,52.36-30.76,65.59
			C108.21,173.24,109.55,178.62,113.57,178.54z"/>
		<path id="XMLID_6_" d="M123.17,82.49c21.21,6.38,43.06,29.91,41.38,59.25c-0.23,4.02,5.12,5.57,7.06,2.04
			c7.7-14.02,10.22-30.48,7.08-46.18c-0.12-0.59-0.37-1.14-0.75-1.61c-14.11-17.83-35.2-23.94-54.2-20.79
			C119.8,75.84,119.35,81.35,123.17,82.49z"/>
		<path id="XMLID_5_" d="M132.5,46.82c-22.94,3.22-38.99,18.8-45.72,37.14c-1.34,3.64,3.1,6.56,6.05,4.04
			c0.36-0.31,0.73-0.61,1.11-0.9c20.55-18.16,50.13-19.21,71.55-5.32c3.33,2.16,7.25-1.71,5.23-5.13
			c-8.12-13.73-20.99-24.41-36.46-29.67C133.69,46.79,133.09,46.73,132.5,46.82z"/>
	</g>
</g>
</svg>
