<?xml version="1.0" encoding="utf-8"?>
<!-- Generator: Adobe Illustrator 26.2.1, SVG Export Plug-In . SVG Version: 6.00 Build 0)  -->
<svg version="1.1" xmlns="http://www.w3.org/2000/svg" xmlns:xlink="http://www.w3.org/1999/xlink" x="0px" y="0px"
	 viewBox="0 0 225 225" style="enable-background:new 0 0 225 225;" xml:space="preserve">
<style type="text/css">
	.st0{display:none;}
	.st1{display:inline;fill:#FAB433;}
	.st2{fill:none;}
	.st3{fill:none;stroke:#000000;stroke-width:1.6;stroke-miterlimit:10;}
	.st4{fill:none;stroke:#000000;stroke-width:0.7265;stroke-miterlimit:10;}
	.st5{fill:none;stroke:#000000;stroke-linecap:round;stroke-linejoin:round;stroke-miterlimit:10;}
	.st6{fill:none;stroke:#000000;stroke-miterlimit:10;}
	.st7{fill:none;stroke:#000000;stroke-width:0.7105;stroke-miterlimit:10;}
	.st8{fill:none;stroke:#000000;stroke-width:5.4;stroke-linecap:round;stroke-linejoin:round;stroke-miterlimit:10;}
	.st9{fill:none;stroke:#000000;stroke-width:2.9309;stroke-linecap:round;stroke-linejoin:round;stroke-miterlimit:10;}
	.st10{fill:none;stroke:#000000;stroke-width:0.5;stroke-linecap:round;stroke-linejoin:round;}
	.st11{fill:none;stroke:#FFFFFF;stroke-width:0;stroke-linecap:round;stroke-linejoin:round;}
	.st12{fill:#FFFFFF;}
	.st13{fill:none;stroke:#000000;stroke-width:1.4;stroke-miterlimit:10;}
	.st14{fill:url(#);stroke:#000000;stroke-width:1.4387;stroke-miterlimit:10;}
	.st15{fill:url(#);stroke:#000000;stroke-width:1.3718;stroke-miterlimit:10;}
	.st16{fill:none;stroke:#000000;stroke-width:1.0041;stroke-miterlimit:10;}
	.st17{fill:none;stroke:#000000;stroke-width:1.3621;stroke-miterlimit:10;}
	.st18{fill:none;stroke:#000000;stroke-width:0.25;stroke-miterlimit:10;}
</style>
<g id="Layer_2" class="st0">
	<rect id="XMLID_2028_" x="-590.99" y="-520.01" class="st1" width="1160" height="772"/>
</g>
<g id="Layer_1">
	<g id="XMLID_735_">
		
			<ellipse id="XMLID_899_" transform="matrix(0.7071 -0.7071 0.7071 0.7071 -46.5991 112.5)" class="st7" cx="112.5" cy="112.5" rx="67.5" ry="67.5"/>
		<g id="XMLID_736_">
			<line id="XMLID_898_" class="st7" x1="180" y1="112.5" x2="62.23" y2="157.54"/>
			<line id="XMLID_897_" class="st7" x1="179.89" y1="116.47" x2="135.26" y2="48.94"/>
			<line id="XMLID_896_" class="st7" x1="179.55" y1="120.37" x2="45.45" y2="104.63"/>
			<line id="XMLID_895_" class="st7" x1="178.99" y1="124.21" x2="173.14" y2="82.82"/>
			<line id="XMLID_894_" class="st7" x1="178.22" y1="127.98" x2="93.34" y2="47.76"/>
			<line id="XMLID_893_" class="st7" x1="177.24" y1="131.66" x2="176.06" y2="89.74"/>
			<line id="XMLID_892_" class="st7" x1="176.06" y1="135.27" x2="100.79" y2="178.99"/>
			<line id="XMLID_891_" class="st7" x1="174.7" y1="138.77" x2="176.06" y2="89.74"/>
			<line id="XMLID_890_" class="st7" x1="173.14" y1="142.18" x2="157.54" y2="162.77"/>
			<line id="XMLID_889_" class="st7" x1="171.4" y1="145.49" x2="86.23" y2="50.3"/>
			<line id="XMLID_888_" class="st7" x1="169.49" y1="148.69" x2="50.3" y2="138.77"/>
			<line id="XMLID_887_" class="st7" x1="167.41" y1="151.76" x2="151.76" y2="57.59"/>
			<line id="XMLID_886_" class="st7" x1="165.17" y1="154.72" x2="178.99" y2="100.79"/>
			<line id="XMLID_885_" class="st7" x1="162.77" y1="157.54" x2="46.01" y2="124.21"/>
			<line id="XMLID_884_" class="st7" x1="160.23" y1="160.23" x2="116.47" y2="45.11"/>
			<line id="XMLID_883_" class="st7" x1="157.54" y1="162.77" x2="124.21" y2="46.01"/>
			<line id="XMLID_882_" class="st7" x1="154.72" y1="165.17" x2="176.06" y2="135.27"/>
			<line id="XMLID_881_" class="st7" x1="151.76" y1="167.41" x2="50.3" y2="86.23"/>
			<line id="XMLID_880_" class="st7" x1="148.69" y1="169.49" x2="178.22" y2="97.02"/>
			<line id="XMLID_878_" class="st7" x1="145.49" y1="171.4" x2="50.3" y2="138.77"/>
			<line id="XMLID_877_" class="st7" x1="142.18" y1="173.14" x2="100.79" y2="178.99"/>
			<line id="XMLID_876_" class="st7" x1="138.77" y1="174.7" x2="148.69" y2="55.51"/>
			<line id="XMLID_875_" class="st7" x1="135.26" y1="176.06" x2="178.22" y2="97.02"/>
			<line id="XMLID_874_" class="st7" x1="131.66" y1="177.24" x2="59.83" y2="154.72"/>
			<line id="XMLID_873_" class="st7" x1="127.98" y1="178.22" x2="57.59" y2="73.24"/>
			<line id="XMLID_872_" class="st7" x1="124.21" y1="178.99" x2="145.49" y2="53.6"/>
			<line id="XMLID_871_" class="st7" x1="120.37" y1="179.55" x2="178.99" y2="100.79"/>
			<line id="XMLID_870_" class="st7" x1="116.47" y1="179.89" x2="179.89" y2="108.53"/>
			<line id="XMLID_869_" class="st7" x1="112.5" y1="180" x2="82.82" y2="51.86"/>
			<line id="XMLID_868_" class="st7" x1="108.53" y1="179.89" x2="112.5" y2="180"/>
			<line id="XMLID_867_" class="st7" x1="104.63" y1="179.55" x2="67.46" y2="162.77"/>
			<line id="XMLID_866_" class="st7" x1="100.79" y1="178.99" x2="112.5" y2="45"/>
			<line id="XMLID_865_" class="st7" x1="97.02" y1="178.22" x2="76.31" y2="169.49"/>
			<line id="XMLID_864_" class="st7" x1="93.34" y1="177.24" x2="112.5" y2="180"/>
			<line id="XMLID_863_" class="st7" x1="89.73" y1="176.06" x2="76.31" y2="169.49"/>
			<line id="XMLID_862_" class="st7" x1="86.23" y1="174.7" x2="176.06" y2="135.27"/>
			<line id="XMLID_861_" class="st7" x1="82.82" y1="173.14" x2="62.23" y2="157.54"/>
			<line id="XMLID_860_" class="st7" x1="79.51" y1="171.4" x2="46.01" y2="100.79"/>
			<line id="XMLID_859_" class="st7" x1="76.31" y1="169.49" x2="157.54" y2="62.23"/>
			<line id="XMLID_858_" class="st7" x1="73.24" y1="167.41" x2="64.77" y2="160.23"/>
			<line id="XMLID_857_" class="st7" x1="70.28" y1="165.17" x2="120.37" y2="179.55"/>
			<line id="XMLID_856_" class="st7" x1="67.46" y1="162.77" x2="46.78" y2="97.02"/>
			<line id="XMLID_855_" class="st7" x1="64.77" y1="160.23" x2="167.41" y2="73.24"/>
			<line id="XMLID_854_" class="st7" x1="62.23" y1="157.54" x2="138.77" y2="50.3"/>
			<line id="XMLID_853_" class="st7" x1="59.83" y1="154.72" x2="53.6" y2="79.51"/>
			<line id="XMLID_852_" class="st7" x1="57.59" y1="151.76" x2="142.18" y2="173.14"/>
			<line id="XMLID_851_" class="st7" x1="55.51" y1="148.69" x2="116.47" y2="179.89"/>
			<line id="XMLID_850_" class="st7" x1="53.6" y1="145.49" x2="86.23" y2="50.3"/>
			<line id="XMLID_849_" class="st7" x1="51.86" y1="142.18" x2="148.69" y2="55.51"/>
			<line id="XMLID_848_" class="st7" x1="50.3" y1="138.77" x2="151.76" y2="167.41"/>
			<line id="XMLID_847_" class="st7" x1="48.94" y1="135.27" x2="89.73" y2="48.94"/>
			<line id="XMLID_846_" class="st7" x1="47.76" y1="131.66" x2="177.24" y2="93.34"/>
			<line id="XMLID_845_" class="st7" x1="46.78" y1="127.98" x2="108.53" y2="45.11"/>
			<line id="XMLID_844_" class="st7" x1="46.01" y1="124.21" x2="165.17" y2="154.72"/>
			<line id="XMLID_843_" class="st7" x1="45.45" y1="120.37" x2="93.34" y2="47.76"/>
			<line id="XMLID_842_" class="st7" x1="45.11" y1="116.47" x2="48.94" y2="135.27"/>
			<line id="XMLID_841_" class="st7" x1="45" y1="112.5" x2="51.86" y2="82.82"/>
			<line id="XMLID_840_" class="st7" x1="45.11" y1="108.53" x2="64.77" y2="160.23"/>
			<line id="XMLID_839_" class="st7" x1="45.45" y1="104.63" x2="178.99" y2="100.79"/>
			<line id="XMLID_838_" class="st7" x1="46.01" y1="100.79" x2="127.98" y2="46.78"/>
			<line id="XMLID_837_" class="st7" x1="46.78" y1="97.02" x2="47.76" y2="131.66"/>
			<line id="XMLID_836_" class="st7" x1="47.76" y1="93.34" x2="112.5" y2="45"/>
			<line id="XMLID_835_" class="st7" x1="48.94" y1="89.74" x2="157.54" y2="62.23"/>
			<line id="XMLID_834_" class="st7" x1="50.3" y1="86.23" x2="112.5" y2="180"/>
			<line id="XMLID_833_" class="st7" x1="51.86" y1="82.82" x2="46.01" y2="100.79"/>
			<line id="XMLID_832_" class="st7" x1="53.6" y1="79.51" x2="73.24" y2="167.41"/>
			<line id="XMLID_831_" class="st7" x1="55.51" y1="76.31" x2="135.26" y2="48.94"/>
			<line id="XMLID_830_" class="st7" x1="57.59" y1="73.24" x2="145.49" y2="171.4"/>
			<line id="XMLID_829_" class="st7" x1="59.83" y1="70.28" x2="142.18" y2="51.86"/>
			<line id="XMLID_828_" class="st7" x1="62.23" y1="67.46" x2="178.99" y2="100.79"/>
			<line id="XMLID_827_" class="st7" x1="64.77" y1="64.77" x2="79.51" y2="171.4"/>
			<line id="XMLID_826_" class="st7" x1="67.46" y1="62.23" x2="142.18" y2="51.86"/>
			<line id="XMLID_825_" class="st7" x1="70.28" y1="59.83" x2="145.49" y2="53.6"/>
			<line id="XMLID_824_" class="st7" x1="73.24" y1="57.59" x2="157.54" y2="62.23"/>
			<line id="XMLID_823_" class="st7" x1="76.31" y1="55.51" x2="45" y2="112.5"/>
			<line id="XMLID_822_" class="st7" x1="79.51" y1="53.6" x2="154.72" y2="59.83"/>
			<line id="XMLID_821_" class="st7" x1="82.82" y1="51.86" x2="142.18" y2="51.86"/>
			<line id="XMLID_820_" class="st7" x1="86.23" y1="50.3" x2="178.99" y2="100.79"/>
			<line id="XMLID_819_" class="st7" x1="89.73" y1="48.94" x2="167.41" y2="73.24"/>
			<line id="XMLID_818_" class="st7" x1="93.34" y1="47.76" x2="48.94" y2="89.74"/>
			<line id="XMLID_817_" class="st7" x1="97.02" y1="46.78" x2="104.63" y2="179.55"/>
			<line id="XMLID_816_" class="st7" x1="100.79" y1="46.01" x2="169.49" y2="76.31"/>
			<line id="XMLID_815_" class="st7" x1="104.63" y1="45.45" x2="179.55" y2="104.63"/>
			<line id="XMLID_814_" class="st7" x1="108.53" y1="45.11" x2="178.22" y2="127.98"/>
			<line id="XMLID_813_" class="st7" x1="112.5" y1="45" x2="50.3" y2="138.77"/>
			<line id="XMLID_812_" class="st7" x1="116.47" y1="45.11" x2="171.4" y2="145.49"/>
			<line id="XMLID_811_" class="st7" x1="120.37" y1="45.45" x2="157.54" y2="162.77"/>
			<line id="XMLID_764_" class="st7" x1="124.21" y1="46.01" x2="64.77" y2="64.77"/>
			<line id="XMLID_763_" class="st7" x1="127.98" y1="46.78" x2="89.73" y2="48.94"/>
			<line id="XMLID_762_" class="st7" x1="131.66" y1="47.76" x2="89.73" y2="176.06"/>
			<line id="XMLID_761_" class="st7" x1="135.26" y1="48.94" x2="157.54" y2="62.23"/>
			<line id="XMLID_760_" class="st7" x1="138.77" y1="50.3" x2="112.5" y2="180"/>
			<line id="XMLID_759_" class="st7" x1="142.18" y1="51.86" x2="160.23" y2="160.23"/>
			<line id="XMLID_758_" class="st7" x1="145.49" y1="53.6" x2="157.54" y2="162.77"/>
			<line id="XMLID_757_" class="st7" x1="148.69" y1="55.51" x2="46.78" y2="97.02"/>
			<line id="XMLID_756_" class="st7" x1="151.76" y1="57.59" x2="46.78" y2="97.02"/>
			<line id="XMLID_755_" class="st7" x1="154.72" y1="59.83" x2="53.6" y2="79.51"/>
			<line id="XMLID_754_" class="st7" x1="157.54" y1="62.23" x2="180" y2="112.5"/>
			<line id="XMLID_753_" class="st7" x1="160.23" y1="64.77" x2="177.24" y2="93.34"/>
			<line id="XMLID_752_" class="st7" x1="162.77" y1="67.46" x2="179.89" y2="108.53"/>
			<line id="XMLID_751_" class="st7" x1="165.17" y1="70.28" x2="148.69" y2="169.49"/>
			<line id="XMLID_750_" class="st7" x1="167.41" y1="73.24" x2="148.69" y2="55.51"/>
			<line id="XMLID_749_" class="st7" x1="169.49" y1="76.31" x2="178.22" y2="97.02"/>
			<line id="XMLID_747_" class="st7" x1="171.4" y1="79.51" x2="177.24" y2="93.34"/>
			<line id="XMLID_746_" class="st7" x1="173.14" y1="82.82" x2="47.76" y2="93.34"/>
			<line id="XMLID_745_" class="st7" x1="174.7" y1="86.23" x2="116.47" y2="45.11"/>
			<line id="XMLID_743_" class="st7" x1="176.06" y1="89.74" x2="100.79" y2="178.99"/>
			<line id="XMLID_742_" class="st7" x1="177.24" y1="93.34" x2="97.02" y2="46.78"/>
			<line id="XMLID_741_" class="st7" x1="178.22" y1="97.02" x2="167.41" y2="73.24"/>
			<line id="XMLID_740_" class="st7" x1="178.99" y1="100.79" x2="67.46" y2="162.77"/>
			<line id="XMLID_739_" class="st7" x1="179.55" y1="104.63" x2="70.28" y2="59.83"/>
			<line id="XMLID_738_" class="st7" x1="179.89" y1="108.53" x2="93.34" y2="177.24"/>
		</g>
	</g>
</g>
</svg>
