<?xml version="1.0" encoding="utf-8"?>
<!-- Generator: Adobe Illustrator 27.0.0, SVG Export Plug-In . SVG Version: 6.00 Build 0)  -->
<svg version="1.1" id="Layer_1" xmlns="http://www.w3.org/2000/svg" xmlns:xlink="http://www.w3.org/1999/xlink" x="0px" y="0px"
	 viewBox="0 0 225 225" style="enable-background:new 0 0 225 225;" xml:space="preserve">
<style type="text/css">
	.st0{display:none;}
	.st1{display:inline;fill:#FAB433;}
	.st2{fill:#FFFFFF;stroke:#FFFFFF;stroke-width:0.7265;stroke-miterlimit:10;}
</style>
<g id="Layer_2_00000005255387670449259830000009698036133481063855_" class="st0">
	<rect id="XMLID_1638_" x="-836" y="-30" class="st1" width="1160" height="772"/>
</g>
<g id="Layer_1_00000059275566662039679730000007747173251205158321_">
	<g id="XMLID_6243_">
		<g id="XMLID_6277_">
			<g id="XMLID_6294_">
				<path id="XMLID_6309_" class="st2" d="M85.6,175.4c1.8,0.4,3.5,0.8,5.2,1.4c7.2,2.3,14.4,3.4,21.7,3.4"/>
				<path id="XMLID_6308_" class="st2" d="M64.5,63.8c0.1,0,0.2,0,0.3,0c2.4,0,4.5,0.5,6.4,1.6c1.3,0.7,2.6,1.8,3.8,3.1
					c0,0,0.1,0.1,0.1,0.1c1.3,1.5,2.8,3,4.2,4.3c1.8,1.6,3.7,3.1,5.6,4.4c2.8,1.8,5.6,3.4,8.6,4.6c6.1,2.5,12.6,3.8,19,3.7"/>
				<path id="XMLID_6307_" class="st2" d="M58.7,70.3c0,0,0.1,0,0.1,0c1.3,0,2.5,0.2,3.6,0.6c1.4,0.5,2.6,1.4,3.7,2.8c0,0,0,0,0,0
					c1.1,1.4,2.1,2.8,3.3,4.1c1.3,1.6,2.7,3,4.1,4.4c1.8,1.7,3.6,3.3,5.6,4.8c2.4,1.8,4.9,3.4,7.6,4.7c4.4,2.2,9.1,3.9,14.1,4.8
					c3.7,0.7,7.7,1.1,11.8,1.1"/>
				<path id="XMLID_6306_" class="st2" d="M71.4,57.8c1.1,0,2.1,0,3.1,0c0.5,0,1,0,1.4,0.1c2.2,0.2,4.2,1,6.1,2.2
					c0.7,0.5,1.4,1,2.1,1.6c0.9,0.8,1.8,1.5,2.7,2.2c2.2,1.7,4.6,3.1,7.1,4.2c5.8,2.7,12.1,4,18.4,4"/>
				<path id="XMLID_6305_" class="st2" d="M53.7,77.6c2,0,3.7,0.5,5.1,1.6c0.8,0.6,1.4,1.4,2,2.3c0.3,0.5,0.6,1,1,1.5
					c0.5,0.8,1.1,1.5,1.7,2.3c0.6,0.7,1.1,1.4,1.7,2.1c1.4,1.7,2.9,3.3,4.5,4.8c1.8,1.7,3.7,3.3,5.6,4.8c2.5,1.9,5,3.5,7.7,4.9
					c4.3,2.3,8.9,4.1,13.5,5.4c5.2,1.4,10.6,2.1,15.9,2"/>
				<path id="XMLID_6304_" class="st2" d="M49.9,85c2.5,0.2,4.5,1.1,6,3c0.4,0.5,0.8,1.2,1.2,1.9c0.5,1,1,1.9,1.7,2.7
					c0.2,0.3,0.5,0.7,0.8,1c1.1,1.3,2.2,2.6,3.3,3.8c1.5,1.7,3.1,3.3,4.8,4.8c1.9,1.8,3.9,3.4,6,4.9c2.8,2,5.6,3.8,8.6,5.3
					c4.5,2.3,9.3,4,14.4,5.2c3.8,0.9,7.9,1.4,12.1,1.6c1.3,0.1,2.6,0.1,3.8,0.1"/>
				<path id="XMLID_6303_" class="st2" d="M46.9,93.3c0.8,0.2,1.5,0.3,2.1,0.6c1.8,0.7,3.2,1.9,4.6,3.7c0.2,0.3,0.4,0.5,0.6,0.8
					c1,1.5,2,2.9,3.1,4.2c1.3,1.7,2.7,3.3,4.2,4.9c1.7,1.8,3.4,3.4,5.2,5c2.2,1.9,4.5,3.7,6.9,5.3c3.1,2,6.2,3.8,9.5,5.3
					c5.7,2.6,11.6,4.4,17.6,5.3c3.9,0.6,7.8,0.9,11.8,0.9"/>
				<path id="XMLID_6302_" class="st2" d="M79.8,52.4c1.6,0,3.1,0,4.5,0c1.7,0,3.4,0.1,5,0.3c2.8,0.4,5.6,1.2,8.2,2.8
					c0.1,0.1,0.2,0.1,0.3,0.2c4.8,2.9,9.7,4.3,14.6,4.2"/>
				<path id="XMLID_6301_" class="st2" d="M66.2,162.8c1.9,0.4,3.8,1.1,5.6,2.1c1.4,0.8,2.8,1.5,4.2,2.2c4.3,2.1,8.8,3.8,13.4,5.1
					c0.8,0.2,1.6,0.4,2.4,0.6c7,1.8,13.9,2.6,20.7,2.6"/>
				<path id="XMLID_6300_" class="st2" d="M45,101.3c1.5,0.2,2.7,0.8,3.8,1.6c0.9,0.7,1.8,1.6,2.5,2.7c0.5,0.7,0.9,1.3,1.4,2
					c1.2,1.7,2.5,3.3,3.9,4.9c1.5,1.8,3.1,3.4,4.8,5c2,1.9,4,3.6,6.1,5.2c2.5,1.9,5.1,3.7,7.9,5.3c3.6,2.1,7.3,3.8,11.2,5.2
					c8.2,3.1,17,4.6,25.9,4.6"/>
				<path id="XMLID_6299_" class="st2" d="M44.2,110.3c1.8,0.2,3.4,0.9,4.7,2.2c0.4,0.4,0.8,0.9,1.2,1.4c0.9,1.2,1.8,2.4,2.7,3.5
					c1.4,1.7,2.9,3.4,4.4,5c1.8,1.8,3.6,3.5,5.5,5.1c2.3,1.9,4.6,3.6,7,5.2c3,1.9,6.1,3.7,9.2,5.2c4.6,2.2,9.5,3.9,14.4,5.2
					c6.2,1.6,12.6,2.4,19,2.4"/>
				<path id="XMLID_6298_" class="st2" d="M44.5,119.9c1.6,0.3,3.1,1.1,4.3,2.2c0.3,0.3,0.7,0.7,1,1.1c1.2,1.4,2.4,2.9,3.7,4.3
					c0,0,0.1,0.1,0.1,0.1c1.6,1.7,3.3,3.3,5,4.8c2.1,1.9,4.3,3.6,6.6,5.2c2.6,1.9,5.3,3.6,8.2,5.1c3.6,2,7.4,3.7,11.4,5
					c4.4,1.5,9,2.7,13.8,3.4c4.7,0.7,9.4,1.1,13.9,1.1"/>
				<path id="XMLID_6297_" class="st2" d="M56.6,151.8c2,0.5,3.9,1.2,5.8,2.2c0.8,0.4,1.6,1,2.4,1.5c2.1,1.5,4.2,2.8,6.3,4
					c3.6,2.1,7.2,3.8,10.9,5.2c5.1,2,10.4,3.4,15.8,4.3c4.8,0.8,9.6,1.2,14.6,1.1"/>
				<path id="XMLID_6296_" class="st2" d="M50.1,140.5c2.3,0.4,4.5,1.5,6.3,3.2c0.8,0.7,1.6,1.4,2.5,2.1c2.3,2,4.7,3.8,7.2,5.4
					c2.9,1.9,5.9,3.6,8.9,5.2c3.8,1.9,7.8,3.5,11.9,4.7c5.2,1.6,10.7,2.7,16.3,3.3c3.1,0.3,6.2,0.5,9.3,0.5"/>
				<path id="XMLID_6295_" class="st2" d="M46.4,130.1c0.9,0.2,1.8,0.6,2.6,1c1.4,0.7,2.7,1.7,3.9,3c1,1,2,2,3,2.9
					c1.9,1.8,3.9,3.5,6,5c2.4,1.8,4.9,3.5,7.5,5.1c3.2,1.9,6.5,3.6,9.9,5.1c4.8,2.1,9.7,3.7,14.8,4.8c6.1,1.4,12.2,2.1,18.4,2.1"/>
			</g>
			<g id="XMLID_6278_">
				<path id="XMLID_6293_" class="st2" d="M85.6,49.6c1.8-0.4,3.5-0.8,5.2-1.4c7.2-2.3,14.4-3.4,21.7-3.4"/>
				<path id="XMLID_6292_" class="st2" d="M112.5,139.4c-6.5-0.1-12.9,1.2-19,3.7c-3,1.2-5.9,2.8-8.6,4.6c-1.9,1.3-3.8,2.8-5.6,4.4
					c-1.5,1.3-2.9,2.7-4.2,4.3c0,0-0.1,0.1-0.1,0.1c-1.2,1.3-2.4,2.4-3.8,3.1c-1.9,1.1-4,1.6-6.4,1.6c-0.1,0-0.2,0-0.3,0"/>
				<path id="XMLID_6291_" class="st2" d="M112.5,127.3c-4.1,0-8,0.4-11.8,1.1c-5,1-9.8,2.6-14.1,4.8c-2.6,1.4-5.2,2.9-7.6,4.7
					c-1.9,1.4-3.8,3-5.6,4.8c-1.4,1.4-2.8,2.8-4.1,4.4c-1.1,1.3-2.2,2.7-3.3,4.1c0,0,0,0,0,0c-1,1.4-2.3,2.3-3.7,2.8
					c-1.1,0.4-2.3,0.6-3.5,0.6c0,0-0.1,0-0.1,0"/>
				<path id="XMLID_6290_" class="st2" d="M112.5,153c-6.3,0-12.7,1.3-18.4,4c-2.5,1.1-4.9,2.6-7.1,4.2c-0.9,0.7-1.8,1.4-2.7,2.1
					c-0.7,0.6-1.4,1.1-2.1,1.6c-1.9,1.2-3.9,2-6.1,2.2c-0.5,0.1-1,0.1-1.4,0.1c-1,0-2,0-3.1,0"/>
				<path id="XMLID_6289_" class="st2" d="M112.5,115.7c-5.3,0-10.7,0.7-15.9,2c-4.7,1.2-9.2,3-13.5,5.4c-2.6,1.4-5.2,3.1-7.7,4.9
					c-1.9,1.5-3.8,3-5.6,4.8c-1.6,1.5-3.1,3.1-4.5,4.8c-0.6,0.7-1.2,1.4-1.7,2.1c-0.6,0.8-1.2,1.5-1.7,2.3c-0.3,0.5-0.7,1-1,1.5
					c-0.6,1-1.2,1.8-2,2.3c-1.4,1.1-3.2,1.6-5.2,1.6"/>
				<path id="XMLID_6288_" class="st2" d="M112.5,105.6c-1.2,0-2.5,0-3.8,0.1c-4.2,0.2-8.2,0.7-12.1,1.6c-5.1,1.2-9.9,2.9-14.4,5.2
					c-3,1.5-5.9,3.3-8.6,5.3c-2.1,1.5-4.1,3.2-6,4.9c-1.7,1.5-3.2,3.1-4.8,4.8c-1.1,1.2-2.2,2.5-3.3,3.9c-0.3,0.3-0.5,0.6-0.8,1
					c-0.6,0.9-1.2,1.8-1.7,2.7c-0.3,0.7-0.8,1.3-1.2,1.9c-1.5,1.9-3.5,2.8-6,3"/>
				<path id="XMLID_6287_" class="st2" d="M112.5,95.7c-3.9,0-7.9,0.3-11.8,0.9c-6.1,1-12,2.8-17.7,5.3c-3.3,1.5-6.4,3.2-9.5,5.3
					c-2.4,1.6-4.7,3.3-6.9,5.3c-1.8,1.6-3.5,3.2-5.2,5c-1.5,1.6-2.9,3.2-4.2,4.9c-1.1,1.4-2.1,2.8-3.1,4.2c-0.2,0.3-0.4,0.6-0.6,0.8
					c-1.3,1.8-2.8,3-4.6,3.7c-0.7,0.3-1.4,0.5-2.1,0.6"/>
				<path id="XMLID_6286_" class="st2" d="M112.5,165c-4.9-0.1-9.8,1.3-14.6,4.2c-0.1,0.1-0.2,0.1-0.3,0.2c-2.6,1.6-5.3,2.4-8.2,2.8
					c-1.7,0.2-3.3,0.3-5,0.3c-1.4,0-2.9,0-4.5,0"/>
				<path id="XMLID_6285_" class="st2" d="M112.5,49.5c-6.8,0-13.7,0.8-20.7,2.6c-0.8,0.2-1.6,0.4-2.4,0.6c-4.6,1.3-9.1,3-13.4,5.1
					c-1.4,0.7-2.8,1.5-4.2,2.2c-1.8,1-3.6,1.7-5.6,2.1"/>
				<path id="XMLID_6284_" class="st2" d="M112.5,87.2c-8.9-0.1-17.7,1.5-25.9,4.6C82.8,93.2,79,95,75.4,97
					c-2.7,1.6-5.3,3.3-7.9,5.3c-2.1,1.6-4.2,3.4-6.1,5.2c-1.7,1.6-3.2,3.2-4.7,5c-1.4,1.6-2.7,3.2-3.9,4.9c-0.5,0.7-1,1.3-1.4,2
					c-0.8,1.1-1.6,2-2.5,2.7c-1.1,0.8-2.4,1.3-3.8,1.6"/>
				<path id="XMLID_6283_" class="st2" d="M112.5,79.5c-6.4,0-12.8,0.8-19,2.3c-5,1.2-9.8,3-14.4,5.2c-3.2,1.5-6.3,3.2-9.2,5.2
					c-2.4,1.6-4.8,3.3-7,5.2c-1.9,1.6-3.8,3.3-5.5,5.1c-1.5,1.6-3,3.2-4.4,5c-0.9,1.1-1.8,2.3-2.7,3.5c-0.4,0.5-0.8,1-1.2,1.4
					c-1.3,1.3-2.9,2-4.7,2.2"/>
				<path id="XMLID_6282_" class="st2" d="M112.5,72.7c-4.5,0-9.1,0.4-13.9,1.1c-4.8,0.7-9.4,1.9-13.8,3.4c-4,1.4-7.8,3.1-11.4,5
					c-2.8,1.5-5.5,3.2-8.2,5.1c-2.3,1.6-4.4,3.4-6.6,5.2c-1.7,1.5-3.4,3.1-5,4.8c0,0-0.1,0.1-0.1,0.1c-1.3,1.3-2.5,2.8-3.7,4.2
					c-0.3,0.4-0.7,0.8-1,1.1c-1.3,1.2-2.7,1.9-4.3,2.2"/>
				<path id="XMLID_6281_" class="st2" d="M112.5,54.7c-5,0-9.8,0.3-14.6,1.1c-5.4,0.9-10.7,2.3-15.8,4.3c-3.7,1.4-7.4,3.2-10.9,5.2
					c-2.1,1.2-4.3,2.6-6.3,4c-0.8,0.6-1.6,1.1-2.4,1.5c-1.9,1-3.8,1.8-5.8,2.2"/>
				<path id="XMLID_6280_" class="st2" d="M112.5,60c-3.1,0-6.2,0.2-9.3,0.5c-5.6,0.6-11.1,1.7-16.3,3.3c-4.1,1.3-8.1,2.8-11.9,4.7
					c-3.1,1.5-6.1,3.2-8.9,5.2c-2.5,1.6-4.8,3.4-7.2,5.4c-0.8,0.7-1.6,1.4-2.5,2.1c-1.9,1.7-4,2.8-6.3,3.2"/>
				<path id="XMLID_6279_" class="st2" d="M112.5,66c-6.2,0-12.4,0.7-18.4,2.1c-5.1,1.1-10,2.7-14.8,4.8c-3.4,1.4-6.7,3.1-9.9,5.1
					c-2.6,1.6-5.1,3.2-7.5,5.1c-2.1,1.6-4.1,3.2-6,5c-1,0.9-2,1.9-3,2.9c-1.2,1.2-2.5,2.2-3.9,3c-0.8,0.4-1.7,0.8-2.6,1"/>
			</g>
		</g>
		<g id="XMLID_6244_">
			<g id="XMLID_6261_">
				<path id="XMLID_6276_" class="st2" d="M112.5,180.1c7.2,0,14.4-1.1,21.7-3.4c1.7-0.5,3.5-1,5.2-1.4"/>
				<path id="XMLID_6275_" class="st2" d="M160.5,63.8c-0.1,0-0.2,0-0.3,0c-2.4,0-4.5,0.5-6.4,1.5c-1.3,0.8-2.6,1.8-3.8,3.1
					c0,0-0.1,0.1-0.1,0.1c-1.3,1.5-2.8,3-4.2,4.3c-1.8,1.6-3.7,3.1-5.6,4.4c-2.8,1.8-5.6,3.4-8.6,4.6c-6.1,2.5-12.6,3.8-19,3.7"/>
				<path id="XMLID_6274_" class="st2" d="M166.3,70.3c0,0-0.1,0-0.1,0c-1.3,0-2.5,0.2-3.6,0.6c-1.4,0.5-2.6,1.4-3.7,2.8
					c0,0,0,0,0,0c-1.1,1.4-2.1,2.8-3.3,4.1c-1.3,1.6-2.7,3-4.1,4.4c-1.8,1.7-3.6,3.3-5.6,4.8c-2.4,1.8-4.9,3.4-7.6,4.7
					c-4.4,2.2-9.1,3.9-14.1,4.8h0c-3.7,0.7-7.7,1.1-11.8,1.1"/>
				<path id="XMLID_6273_" class="st2" d="M153.5,57.8c-1.1,0-2.1,0-3.1,0c-0.5,0-1,0-1.5,0.1c-2.2,0.2-4.2,1-6.1,2.2
					c-0.7,0.5-1.4,1-2.1,1.6c-0.9,0.8-1.8,1.5-2.7,2.2c-2.2,1.7-4.6,3.1-7.1,4.2c-5.8,2.7-12.1,4-18.4,4"/>
				<path id="XMLID_6272_" class="st2" d="M171.3,77.6c-2,0-3.7,0.5-5.1,1.6c-0.8,0.6-1.4,1.4-2,2.3c-0.3,0.5-0.6,1-1,1.5
					c-0.5,0.8-1.1,1.5-1.7,2.3c-0.6,0.7-1.1,1.4-1.7,2.1c-1.4,1.7-2.9,3.3-4.5,4.8c-1.8,1.7-3.7,3.3-5.6,4.8c-2.5,1.9-5,3.5-7.7,4.9
					c-4.3,2.3-8.9,4.1-13.5,5.4c-5.2,1.4-10.5,2.1-15.9,2"/>
				<path id="XMLID_6271_" class="st2" d="M175.1,85c-2.5,0.2-4.5,1.1-6,3c-0.4,0.5-0.8,1.2-1.2,1.9c-0.5,1-1,1.9-1.7,2.7
					c-0.2,0.3-0.5,0.7-0.8,1c-1.1,1.3-2.2,2.6-3.3,3.8c-1.5,1.7-3.1,3.3-4.8,4.8c-1.9,1.8-3.9,3.4-6,4.9c-2.7,2-5.6,3.8-8.6,5.3
					c-4.5,2.3-9.3,4-14.4,5.2h0c-3.8,0.9-7.9,1.4-12,1.6c-1.3,0.1-2.6,0.1-3.8,0.1"/>
				<path id="XMLID_6270_" class="st2" d="M178.1,93.3c-0.8,0.2-1.5,0.3-2.1,0.6c-1.8,0.7-3.2,1.9-4.6,3.7c-0.2,0.3-0.4,0.5-0.6,0.8
					c-1,1.5-2,2.9-3.1,4.2c-1.3,1.7-2.7,3.3-4.2,4.9c-1.7,1.8-3.4,3.4-5.2,5c-2.2,1.9-4.5,3.7-6.9,5.3c-3.1,2-6.2,3.8-9.5,5.3
					c-5.7,2.6-11.6,4.4-17.7,5.4c-3.9,0.6-7.8,0.9-11.8,0.9"/>
				<path id="XMLID_6269_" class="st2" d="M145.1,52.4c-1.6,0-3.1,0-4.5,0c-1.7,0-3.4,0.1-5,0.3c-2.8,0.4-5.6,1.2-8.2,2.8
					c-0.1,0.1-0.2,0.1-0.3,0.2c-4.8,2.9-9.7,4.3-14.6,4.2"/>
				<path id="XMLID_6268_" class="st2" d="M158.8,162.8c-1.9,0.4-3.8,1.1-5.6,2.1c-1.4,0.8-2.8,1.5-4.2,2.2
					c-4.3,2.1-8.8,3.8-13.4,5.1c-0.8,0.2-1.6,0.4-2.4,0.6c-7,1.8-13.9,2.6-20.7,2.6"/>
				<path id="XMLID_6267_" class="st2" d="M179.9,101.3c-1.4,0.2-2.7,0.7-3.8,1.6c-0.9,0.7-1.8,1.6-2.5,2.7c-0.5,0.7-0.9,1.3-1.4,2
					c-1.2,1.7-2.5,3.3-3.9,4.9c-1.5,1.7-3.1,3.4-4.7,5c-1.9,1.9-4,3.6-6.1,5.2c-2.5,1.9-5.1,3.7-7.9,5.2c-3.6,2.1-7.3,3.8-11.2,5.3
					c-8.2,3.1-17,4.6-25.9,4.6"/>
				<path id="XMLID_6266_" class="st2" d="M180.8,110.3c-1.8,0.2-3.4,0.9-4.7,2.2c-0.4,0.4-0.8,0.9-1.2,1.4
					c-0.9,1.2-1.8,2.4-2.7,3.5c-1.4,1.7-2.9,3.4-4.4,5c-1.8,1.8-3.6,3.5-5.5,5.1c-2.2,1.9-4.6,3.6-7,5.2h0c-3,1.9-6,3.7-9.2,5.2
					c-4.6,2.2-9.5,3.9-14.4,5.2c-6.2,1.6-12.6,2.4-19,2.4"/>
				<path id="XMLID_6265_" class="st2" d="M180.5,119.9c-1.6,0.3-3.1,1.1-4.3,2.2c-0.4,0.3-0.7,0.7-1,1.1c-1.2,1.4-2.4,2.9-3.7,4.3
					c0,0-0.1,0.1-0.1,0.1c-1.6,1.7-3.3,3.3-5,4.8c-2.1,1.9-4.3,3.6-6.6,5.2c-2.6,1.9-5.4,3.6-8.2,5.1c-3.6,2-7.4,3.7-11.4,5
					c-4.4,1.5-9,2.7-13.8,3.4c-4.7,0.7-9.4,1.1-13.9,1.1"/>
				<path id="XMLID_6264_" class="st2" d="M168.4,151.8c-2,0.5-3.9,1.2-5.8,2.2c-0.8,0.4-1.6,1-2.4,1.5c-2.1,1.5-4.2,2.8-6.3,4
					c-3.6,2.1-7.2,3.8-10.9,5.2c-5.1,2-10.4,3.4-15.8,4.3c-4.8,0.8-9.6,1.2-14.6,1.1"/>
				<path id="XMLID_6263_" class="st2" d="M174.9,140.5c-2.4,0.4-4.5,1.5-6.3,3.2c-0.8,0.7-1.6,1.4-2.4,2.1c-2.3,2-4.7,3.8-7.2,5.4
					c-2.9,1.9-5.9,3.6-8.9,5.2c-3.8,1.9-7.8,3.4-11.9,4.7c-5.2,1.6-10.7,2.7-16.3,3.3c-3.1,0.3-6.2,0.5-9.3,0.5"/>
				<path id="XMLID_6262_" class="st2" d="M178.6,130.1c-0.9,0.2-1.8,0.6-2.6,1c-1.4,0.7-2.7,1.7-3.9,3c-1,1-2,2-3,2.9
					c-1.9,1.8-3.9,3.5-6,5c-2.4,1.8-4.9,3.5-7.5,5.1c-3.2,1.9-6.5,3.6-9.9,5.1c-4.8,2.1-9.8,3.7-14.8,4.8
					c-6.1,1.4-12.2,2.1-18.4,2.1"/>
			</g>
			<g id="XMLID_6245_">
				<path id="XMLID_6260_" class="st2" d="M112.5,44.9c7.2,0,14.4,1.1,21.7,3.4c1.7,0.5,3.5,1,5.2,1.4"/>
				<path id="XMLID_6259_" class="st2" d="M112.5,139.4c6.5-0.1,12.9,1.2,19,3.7c3,1.2,5.9,2.8,8.6,4.6c1.9,1.3,3.8,2.8,5.6,4.4
					c1.5,1.3,2.9,2.8,4.2,4.3c0,0,0.1,0.1,0.1,0.1c1.2,1.3,2.4,2.4,3.8,3.1c1.9,1.1,4,1.6,6.4,1.6c0.1,0,0.2,0,0.3,0"/>
				<path id="XMLID_6258_" class="st2" d="M112.5,127.3c4.1,0,8,0.4,11.8,1.1c5,1,9.8,2.6,14.1,4.8c2.6,1.4,5.2,2.9,7.6,4.7
					c1.9,1.4,3.8,3,5.6,4.8c1.4,1.4,2.8,2.8,4.1,4.4c1.1,1.3,2.2,2.7,3.3,4.1c0,0,0,0,0,0.1c1,1.4,2.2,2.3,3.7,2.8
					c1.1,0.4,2.3,0.6,3.6,0.6c0,0,0.1,0,0.1,0"/>
				<path id="XMLID_6257_" class="st2" d="M112.5,153c6.3,0,12.7,1.3,18.4,4c2.5,1.1,4.9,2.6,7.1,4.2c0.9,0.7,1.8,1.4,2.7,2.1
					c0.7,0.6,1.4,1.1,2.1,1.6c1.9,1.2,3.9,2,6.1,2.2c0.5,0.1,1,0.1,1.4,0.1c1,0,2,0,3.1,0"/>
				<path id="XMLID_6256_" class="st2" d="M112.5,115.7c5.3,0,10.7,0.7,15.9,2c4.7,1.2,9.2,3,13.6,5.4c2.6,1.4,5.2,3.1,7.7,4.9
					c1.9,1.5,3.8,3.1,5.6,4.8c1.6,1.5,3.1,3.1,4.5,4.8c0.6,0.7,1.2,1.4,1.7,2.1c0.6,0.8,1.1,1.5,1.7,2.3c0.4,0.5,0.7,1,1,1.5
					c0.6,1,1.2,1.8,2,2.3c1.4,1.1,3.1,1.6,5.1,1.6"/>
				<path id="XMLID_6255_" class="st2" d="M112.5,105.6c1.3,0,2.5,0,3.8,0.1c4.2,0.2,8.2,0.7,12.1,1.6c5.1,1.2,9.9,2.9,14.4,5.2
					c3,1.5,5.9,3.3,8.6,5.3c2.1,1.5,4.1,3.2,6,4.9c1.6,1.5,3.2,3.1,4.8,4.8c1.1,1.2,2.2,2.5,3.3,3.8c0.3,0.3,0.5,0.6,0.8,1
					c0.6,0.9,1.2,1.8,1.7,2.7c0.4,0.7,0.7,1.3,1.2,1.9c1.5,1.9,3.5,2.8,6,3"/>
				<path id="XMLID_6254_" class="st2" d="M112.5,95.7c3.9,0,7.9,0.3,11.8,0.9c6,1,12,2.8,17.7,5.3c3.3,1.5,6.4,3.2,9.5,5.3
					c2.4,1.6,4.7,3.3,6.9,5.3c1.8,1.6,3.5,3.2,5.2,5c1.5,1.6,2.9,3.2,4.2,4.9c1.1,1.3,2.1,2.8,3.1,4.2c0.2,0.3,0.4,0.6,0.6,0.8
					c1.3,1.8,2.8,2.9,4.6,3.7c0.7,0.3,1.4,0.5,2.1,0.6"/>
				<path id="XMLID_6253_" class="st2" d="M112.5,165c4.9-0.1,9.8,1.3,14.6,4.2c0.1,0.1,0.2,0.1,0.3,0.2c2.6,1.6,5.3,2.4,8.2,2.8
					c1.7,0.2,3.3,0.3,5,0.3c1.4,0,2.9,0,4.5,0"/>
				<path id="XMLID_6252_" class="st2" d="M112.5,49.5c6.8,0,13.7,0.8,20.7,2.6c0.8,0.2,1.6,0.4,2.4,0.6c4.6,1.3,9.1,3,13.4,5.1
					c1.4,0.7,2.8,1.5,4.2,2.2c1.8,1,3.6,1.7,5.6,2.1"/>
				<path id="XMLID_6251_" class="st2" d="M112.5,87.2c8.9-0.1,17.6,1.5,25.9,4.6c3.9,1.4,7.6,3.2,11.2,5.3c2.7,1.6,5.4,3.3,7.9,5.2
					c2.1,1.6,4.2,3.4,6.1,5.2c1.6,1.6,3.2,3.2,4.7,5c1.4,1.6,2.7,3.2,3.9,4.9c0.5,0.7,0.9,1.3,1.4,2c0.8,1.1,1.6,2,2.5,2.7
					c1.1,0.8,2.4,1.3,3.8,1.6"/>
				<path id="XMLID_6250_" class="st2" d="M112.5,79.5c6.4,0,12.8,0.8,19,2.3c5,1.2,9.8,3,14.4,5.2c3.2,1.5,6.3,3.2,9.2,5.2
					c2.4,1.6,4.8,3.3,7,5.2c1.9,1.6,3.8,3.3,5.5,5.1c1.6,1.6,3,3.2,4.4,5c0.9,1.1,1.8,2.3,2.7,3.5c0.4,0.5,0.8,1,1.2,1.4
					c1.3,1.3,2.9,2,4.7,2.2"/>
				<path id="XMLID_6249_" class="st2" d="M112.5,72.7c4.5,0,9.1,0.4,13.9,1.1c4.8,0.7,9.4,1.9,13.8,3.4c4,1.4,7.8,3.1,11.4,5
					c2.8,1.5,5.6,3.2,8.2,5.1c2.2,1.6,4.4,3.4,6.6,5.2c1.7,1.5,3.4,3.1,5,4.8c0,0,0.1,0.1,0.1,0.1c1.3,1.3,2.5,2.8,3.7,4.2
					c0.3,0.4,0.7,0.8,1,1.1c1.3,1.2,2.7,1.9,4.3,2.2"/>
				<path id="XMLID_6248_" class="st2" d="M112.5,54.7c5,0,9.8,0.3,14.6,1.1c5.4,0.9,10.7,2.3,15.8,4.3c3.7,1.5,7.4,3.2,10.9,5.2
					c2.1,1.2,4.3,2.6,6.3,4.1c0.8,0.6,1.6,1.1,2.4,1.5c1.9,1,3.8,1.8,5.8,2.2"/>
				<path id="XMLID_6247_" class="st2" d="M112.5,60c3.1,0,6.2,0.2,9.3,0.5c5.6,0.6,11.1,1.7,16.3,3.3c4.1,1.2,8.1,2.8,11.9,4.7
					c3.1,1.5,6.1,3.2,8.9,5.2c2.5,1.6,4.9,3.4,7.2,5.4c0.8,0.7,1.6,1.4,2.4,2.1c1.9,1.7,4,2.8,6.3,3.2"/>
				<path id="XMLID_6246_" class="st2" d="M112.5,66c6.2,0,12.4,0.7,18.4,2.1c5.1,1.1,10,2.7,14.8,4.8c3.4,1.4,6.7,3.1,9.9,5.1
					c2.6,1.6,5.1,3.2,7.5,5.1c2.1,1.6,4.1,3.2,6,5c1,0.9,2,1.9,3,2.9c1.2,1.2,2.5,2.2,3.9,3c0.8,0.4,1.7,0.8,2.6,1"/>
			</g>
		</g>
	</g>
</g>
</svg>
