<?xml version="1.0" encoding="utf-8"?>
<!-- Generator: Adobe Illustrator 26.2.1, SVG Export Plug-In . SVG Version: 6.00 Build 0)  -->
<svg version="1.1" xmlns="http://www.w3.org/2000/svg" xmlns:xlink="http://www.w3.org/1999/xlink" x="0px" y="0px"
	 viewBox="0 0 225 225" style="enable-background:new 0 0 225 225;" xml:space="preserve">
<style type="text/css">
	.st0{display:none;}
	.st1{display:inline;fill:#FAB433;}
	.st2{fill:none;}
	.st3{fill:none;stroke:#000000;stroke-width:1.6;stroke-miterlimit:10;}
	.st4{fill:none;stroke:#000000;stroke-width:0.7265;stroke-miterlimit:10;}
	.st5{fill:none;stroke:#000000;stroke-linecap:round;stroke-linejoin:round;stroke-miterlimit:10;}
	.st6{fill:none;stroke:#000000;stroke-miterlimit:10;}
	.st7{fill:none;stroke:#000000;stroke-width:0.7105;stroke-miterlimit:10;}
	.st8{fill:none;stroke:#000000;stroke-width:5.4;stroke-linecap:round;stroke-linejoin:round;stroke-miterlimit:10;}
	.st9{fill:none;stroke:#000000;stroke-width:2.9309;stroke-linecap:round;stroke-linejoin:round;stroke-miterlimit:10;}
	.st10{fill:none;stroke:#000000;stroke-width:0.5;stroke-linecap:round;stroke-linejoin:round;}
	.st11{fill:none;stroke:#FFFFFF;stroke-width:0;stroke-linecap:round;stroke-linejoin:round;}
	.st12{fill:#FFFFFF;}
	.st13{fill:none;stroke:#000000;stroke-width:1.4;stroke-miterlimit:10;}
	.st14{fill:url(#);stroke:#000000;stroke-width:1.4387;stroke-miterlimit:10;}
	.st15{fill:url(#);stroke:#000000;stroke-width:1.3718;stroke-miterlimit:10;}
	.st16{fill:none;stroke:#000000;stroke-width:1.0041;stroke-miterlimit:10;}
	.st17{fill:none;stroke:#000000;stroke-width:1.3621;stroke-miterlimit:10;}
	.st18{fill:none;stroke:#000000;stroke-width:0.25;stroke-miterlimit:10;}
</style>
<g id="Layer_2" class="st0">
	<rect id="XMLID_573_" x="-345.99" y="-520.01" class="st1" width="1160" height="772"/>
</g>
<g id="Layer_1">
	<path id="XMLID_13932_" d="M99.24,46.29L99.24,46.29c-0.34,0.07-0.67,0.13-0.97,0.2c-0.02,0-0.04,0.01-0.06,0.01
		c0.01,0,0.02,0,0.04-0.01C98.57,46.43,98.91,46.36,99.24,46.29z M65.17,64.35c-0.03,0.03-0.07,0.07-0.11,0.1
		c0.05-0.05,0.11-0.1,0.16-0.16C65.21,64.31,65.19,64.33,65.17,64.35z M57.23,73.69c-0.01,0.01-0.02,0.03-0.03,0.04
		c0.02-0.02,0.03-0.04,0.04-0.06C57.25,73.67,57.24,73.68,57.23,73.69z M90.17,48.78c-0.29,0.09-0.6,0.2-0.91,0.32
		C89.58,48.98,89.88,48.88,90.17,48.78L90.17,48.78z M117.79,45.2c0.1,0.01,0.21,0.02,0.32,0.02c-0.07,0-0.13-0.01-0.2-0.02
		c-0.16-0.01-0.32-0.02-0.49-0.04c-0.05,0-0.11-0.01-0.16-0.01c0.06,0,0.13,0.01,0.19,0.01C117.56,45.18,117.67,45.19,117.79,45.2z
		 M132.98,48.15c0.75,0.24,1.51,0.5,2.27,0.77C134.54,48.66,133.74,48.39,132.98,48.15z M123.42,45.87c0.43,0.07,0.9,0.16,1.35,0.24
		c-0.22-0.04-0.43-0.08-0.63-0.12C123.91,45.95,123.67,45.91,123.42,45.87z M101.53,45.89c0.02,0,0.04-0.01,0.05-0.01
		c0.2-0.03,0.4-0.07,0.61-0.1c0.06-0.01,0.11-0.02,0.17-0.03c-0.14,0.02-0.28,0.05-0.42,0.07c-0.13,0.02-0.26,0.04-0.39,0.06
		c-0.04,0.01-0.07,0.01-0.1,0.02c-0.1,0.02-0.2,0.03-0.31,0.05c0.06-0.01,0.12-0.02,0.18-0.03
		C101.39,45.91,101.46,45.9,101.53,45.89z M114.14,45.03c0.68,0.02,1.38,0.05,2.09,0.08c0.34,0.02,0.67,0.02,1.01,0.04
		c0.01,0,0.01,0,0.02,0c-0.03,0-0.07,0-0.11-0.01c-0.17-0.01-0.36-0.02-0.54-0.04c-1.07-0.07-2.3-0.13-3.28-0.12
		c-0.3,0-0.61,0.01-0.93,0.02c0.54,0,1.08,0,1.63,0.01C114.07,45.03,114.1,45.03,114.14,45.03z M47.83,131.92
		c0.01,0.02,0.01,0.04,0.02,0.06c0,0.01,0.01,0.03,0.01,0.04c0-0.01-0.01-0.03-0.01-0.04C47.84,131.96,47.83,131.94,47.83,131.92z
		 M47.83,131.92c-0.2-0.66-0.38-1.32-0.56-1.99C47.45,130.62,47.64,131.28,47.83,131.92z M45.21,117.85c0,0.07,0.01,0.14,0.01,0.2
		c0,0.05,0.01,0.1,0.01,0.15c0.01,0.13,0.02,0.25,0.03,0.38c-0.04-0.44-0.07-0.86-0.1-1.27C45.18,117.49,45.2,117.67,45.21,117.85z
		 M118.22,45.23c1.35,0.12,2.87,0.29,4.26,0.49C120.78,45.47,119.33,45.32,118.22,45.23z M45.06,110.04l0,0.12
		c0.01,0.58,0.04,1.15,0.08,1.71c0.08,1.21,0.2,2.4,0.37,3.57c0.27,1.86,0.65,3.67,1.15,5.42c0.3,1.06,0.64,2.1,1.02,3.12
		c0.21,0.56,0.42,1.11,0.65,1.65c0.04,0.1,0.09,0.2,0.14,0.31c0.25,0.57,0.5,1.14,0.77,1.69c0.48,0.98,1.01,1.93,1.56,2.86
		c0.43,0.73,0.89,1.45,1.36,2.15c0.66,0.98,1.36,1.93,2.1,2.85c0.27,0.33,0.54,0.67,0.82,1c0.27,0.31,0.54,0.62,0.81,0.92
		c0.91,1.02,1.87,2.01,2.88,2.95c0.85,0.8,1.74,1.58,2.65,2.33c0.58,0.48,1.17,0.94,1.78,1.4c0.16,0.12,0.33,0.25,0.49,0.37
		c0.45,0.33,0.92,0.66,1.38,0.98c0.22,0.15,0.45,0.3,0.67,0.46c12.61,8.46,29.53,12.8,46.54,12.8c16.88,0,33.85-4.27,46.84-13.03
		c0.24-0.16,0.49-0.32,0.73-0.49c0.47-0.33,0.93-0.66,1.38-1c0.23-0.17,0.46-0.33,0.68-0.5c0.52-0.4,1.03-0.81,1.54-1.22
		c0.97-0.79,1.91-1.62,2.82-2.47c0.9-0.84,1.78-1.71,2.62-2.61l0.14-0.15c0.2-0.22,0.4-0.44,0.59-0.66
		c0.34-0.38,0.67-0.76,0.98-1.14c0.77-0.92,1.47-1.84,2.12-2.75c0.51-0.72,0.98-1.43,1.42-2.13c0.62-0.99,1.17-1.97,1.67-2.93
		c0.22-0.43,0.43-0.85,0.63-1.27c0.15-0.31,0.29-0.62,0.43-0.93c0.17-0.38,0.32-0.75,0.47-1.11c0.43-1.06,0.79-2.09,1.09-3.07
		c0.49-1.57,0.82-3.02,1.05-4.3c0.34-1.91,0.44-3.43,0.46-4.44l0-0.23l0-0.22v-0.03c0.01-0.26,0-0.51,0-0.77c0-0.16,0-0.32,0-0.48
		c0.02,0.57,0.04,1.13,0.04,1.71c-0.01-0.7-0.02-1.47-0.05-2.26c-0.01-0.2-0.01-0.4-0.02-0.6c-0.08-2.2-0.25-4.56-0.57-6.54
		c-0.08-0.55-0.16-1.09-0.25-1.58c-0.03-0.14-0.06-0.3-0.08-0.44c-0.03-0.14-0.05-0.29-0.08-0.43c-0.2-1.18-0.41-2.41-0.68-3.42
		c-0.02-0.08-0.05-0.18-0.07-0.26c-0.05-0.17-0.09-0.35-0.14-0.53c-0.05-0.17-0.09-0.35-0.14-0.53c-0.2-0.74-0.41-1.52-0.64-2.3
		c-0.05-0.18-0.1-0.37-0.15-0.55c-0.07-0.26-0.14-0.51-0.21-0.75c-0.02-0.07-0.04-0.15-0.06-0.22c-0.27-0.96-0.67-2.08-1.08-3.15
		l-0.04-0.1c-0.01-0.02-0.02-0.04-0.02-0.06c-0.03-0.07-0.05-0.15-0.08-0.22c-0.02-0.06-0.04-0.1-0.07-0.16
		c-0.13-0.33-0.25-0.65-0.37-0.95l0-0.01c-0.04-0.1-0.08-0.2-0.12-0.29c-0.24-0.62-0.53-1.29-0.85-1.98
		c-0.18-0.41-0.36-0.8-0.53-1.18c-0.06-0.13-0.13-0.27-0.19-0.4c-0.22-0.48-0.45-0.93-0.67-1.37c0.2,0.4,0.39,0.8,0.59,1.21
		l-0.62-1.23l0.06,0.14c0.03,0.07,0.06,0.14,0.09,0.21c0.02,0.05,0.05,0.1,0.07,0.15c0.18,0.39,0.35,0.78,0.51,1.18
		c0.17,0.42,0.32,0.84,0.48,1.26c0.06,0.16,0.12,0.31,0.17,0.47c0.22,0.63,0.42,1.27,0.6,1.9c0.09,0.33,0.19,0.65,0.27,0.98
		c0.17,0.68,0.32,1.37,0.45,2.06c0.27,1.49,0.44,3.01,0.5,4.55c0.02,0.63,0.03,1.27,0.02,1.91l0,0.14l0,0.02
		c-0.12,1.48-0.32,2.93-0.58,4.34c-0.29,1.56-0.67,3.08-1.12,4.55c-0.33,1.07-0.72,2.12-1.13,3.14c-0.17,0.42-0.34,0.83-0.53,1.24
		c-0.01,0.02-0.02,0.04-0.03,0.06c-0.12,0.27-0.25,0.55-0.38,0.82c-0.23,0.48-0.47,0.95-0.72,1.42c-0.52,0.99-1.08,1.97-1.68,2.91
		c-0.48,0.75-0.99,1.49-1.52,2.21c-0.7,0.95-1.43,1.88-2.21,2.78c-0.37,0.42-0.74,0.83-1.12,1.24c-0.19,0.2-0.38,0.39-0.57,0.59
		c-0.97,0.99-1.98,1.95-3.04,2.86c-0.97,0.84-1.98,1.65-3.03,2.42c-0.58,0.43-1.17,0.84-1.76,1.25c-0.23,0.16-0.48,0.31-0.72,0.47
		c-0.56,0.37-1.12,0.72-1.7,1.07c-0.23,0.14-0.45,0.27-0.68,0.41c-11.09,6.53-25.08,9.94-39.23,10.15
		c-0.48,0.01-0.97,0.01-1.46,0.01c-14.45,0-28.97-3.32-40.64-10.03c-0.17-0.1-0.34-0.19-0.5-0.29c-0.21-0.12-0.42-0.25-0.62-0.37
		c-0.6-0.36-1.19-0.73-1.77-1.1c-0.22-0.14-0.43-0.29-0.64-0.43c-0.63-0.42-1.25-0.85-1.86-1.3c-1.02-0.74-2-1.51-2.96-2.31
		c-1.11-0.93-2.17-1.9-3.19-2.92c-0.28-0.28-0.55-0.57-0.83-0.86c-0.31-0.33-0.62-0.65-0.92-0.99c-0.34-0.38-0.68-0.75-1.01-1.14
		c-0.44-0.52-0.89-1.09-1.35-1.69c-0.49-0.64-0.98-1.32-1.47-2.05c-0.61-0.91-1.21-1.89-1.79-2.92c-0.18-0.33-0.36-0.67-0.54-1.01
		c-0.05-0.1-0.1-0.19-0.15-0.29c-0.1-0.2-0.2-0.4-0.3-0.61c-0.23-0.47-0.45-0.96-0.66-1.45c-0.47-1.09-0.9-2.24-1.27-3.43
		c-0.42-1.37-0.77-2.8-1.02-4.3c-0.23-1.37-0.37-2.78-0.41-4.25c-0.02-0.74,0-1.49,0.03-2.25c0.07-1.51,0.25-3.06,0.56-4.65
		c0.14-0.7,0.29-1.41,0.48-2.12c0.08-0.33,0.19-0.66,0.28-0.99c0.18-0.62,0.38-1.25,0.6-1.88l0.04-0.12
		c0.21-0.59,0.43-1.18,0.68-1.78c0.27-0.66,0.57-1.33,0.9-2c0.15-0.32,0.31-0.64,0.47-0.96l0.1-0.2c0.38-0.68,0.78-1.38,1.2-2.08
		c0.43-0.72,0.87-1.44,1.31-2.13l-0.13,0.24c-0.1,0.17-0.19,0.34-0.28,0.51c-0.69,1.25-1.3,2.49-1.83,3.73
		c-0.26,0.61-0.51,1.22-0.74,1.82l-0.04,0.09c-0.25,0.67-0.48,1.33-0.69,1.99c-0.11,0.34-0.2,0.68-0.3,1.02
		c-0.21,0.73-0.39,1.46-0.55,2.19c-0.35,1.63-0.57,3.23-0.68,4.81c-0.05,0.71-0.07,1.42-0.07,2.13c0,1.54,0.12,3.06,0.35,4.55
		c0.09,0.58,0.19,1.16,0.31,1.74c0.18,0.87,0.4,1.73,0.66,2.59c0.36,1.19,0.8,2.37,1.3,3.52c0.21,0.49,0.43,0.98,0.67,1.46
		c0.1,0.21,0.2,0.41,0.31,0.61c0.22,0.43,0.45,0.86,0.69,1.28c0.56,0.99,1.18,1.97,1.84,2.92c0.48,0.69,0.98,1.38,1.51,2.05
		c0.76,0.96,1.57,1.9,2.43,2.81c0.32,0.34,0.64,0.67,0.97,1c0.27,0.27,0.55,0.54,0.83,0.81c1.05,1,2.15,1.97,3.31,2.9
		c0.99,0.79,2.02,1.56,3.08,2.3c0.63,0.44,1.27,0.86,1.92,1.28c0.23,0.15,0.46,0.29,0.7,0.43c0.2,0.13,0.41,0.26,0.61,0.38
		c0.41,0.25,0.83,0.49,1.25,0.73c0.22,0.13,0.44,0.25,0.66,0.38c10.97,6.15,24.79,9.74,39.18,9.74c1.03,0,2.05-0.02,3.08-0.05
		c6.28-0.23,12.63-1.14,18.88-2.83c6.5-1.77,12.02-4.1,16.69-6.75c0.22-0.13,0.43-0.26,0.64-0.38c0.63-0.37,1.25-0.74,1.85-1.12
		c0.24-0.15,0.46-0.31,0.69-0.46c0.65-0.42,1.27-0.85,1.88-1.28c1.09-0.78,2.13-1.57,3.11-2.37c1.14-0.94,2.2-1.91,3.19-2.88
		c0.19-0.19,0.38-0.38,0.57-0.57c0.41-0.41,0.81-0.82,1.19-1.24c0.82-0.9,1.58-1.79,2.29-2.69c0.58-0.73,1.12-1.45,1.62-2.18
		c0.65-0.92,1.24-1.84,1.78-2.75c0.28-0.47,0.53-0.93,0.78-1.38c0.14-0.26,0.27-0.52,0.41-0.78c0.21-0.41,0.41-0.82,0.6-1.23
		c0.48-1.02,0.89-2,1.23-2.94c0.25-0.67,0.46-1.32,0.65-1.95c0.26-0.86,0.46-1.68,0.61-2.45c0.43-2.19,0.45-3.92,0.19-4.97l0-0.02
		l0-0.12c0.01-0.65,0-1.3-0.03-1.94c-0.06-1.55-0.25-3.07-0.53-4.58c-0.13-0.69-0.28-1.37-0.46-2.05c-0.08-0.32-0.16-0.63-0.25-0.94
		c-0.18-0.64-0.4-1.26-0.62-1.89c-0.07-0.2-0.13-0.41-0.21-0.61c-0.14-0.38-0.31-0.76-0.46-1.14c-0.47-1.12-0.99-2.23-1.59-3.32
		l-0.1-0.19l-0.04-0.07c-0.43-0.77-0.88-1.52-1.36-2.27l-0.07-0.12l-0.1-0.15l-0.2-0.28l-0.79-1.14l-0.78-1.13l-0.22-0.31
		c-0.12-0.15-0.22-0.28-0.33-0.42c-0.15-0.19-0.29-0.37-0.42-0.54c-0.88-1.12-1.55-1.96-2.11-2.65c-0.17-0.21-0.33-0.41-0.49-0.59
		c-0.17-0.2-0.33-0.4-0.49-0.58l-0.03-0.04c-0.13-0.15-0.27-0.31-0.4-0.44c-0.44-0.47-0.95-1.02-1.47-1.56
		c-0.01-0.01-0.02-0.03-0.04-0.04c-0.03-0.03-0.06-0.07-0.1-0.1c0.02,0.02,0.04,0.04,0.06,0.07c-0.36-0.39-0.74-0.77-1.12-1.15
		c0.11,0.11,0.22,0.22,0.33,0.33c0.14,0.15,0.29,0.3,0.43,0.45c0.1,0.1,0.2,0.21,0.3,0.31l-0.01-0.01
		c-0.12-0.13-0.25-0.27-0.36-0.39c-0.01-0.01-0.29-0.3-0.78-0.78l-0.04-0.03c-0.09-0.09-0.19-0.18-0.3-0.29
		c-0.07-0.07-0.15-0.15-0.22-0.21c-1.23-1.17-2.88-2.7-4.24-3.77c-0.03-0.03-0.07-0.06-0.1-0.09c-0.02-0.02-0.05-0.04-0.07-0.05
		l-0.1-0.08c-0.03-0.03-0.06-0.05-0.1-0.07c0,0,0.01,0,0.01,0c-0.06-0.04-0.11-0.09-0.17-0.13c-0.03-0.02-0.06-0.05-0.09-0.07
		c0.09,0.07,0.17,0.13,0.26,0.2c-0.82-0.66-1.68-1.34-2.59-1.99c-0.46-0.34-0.91-0.67-1.32-0.94c-0.68-0.44-1.49-0.98-2.28-1.49
		l-0.08-0.06c0,0-0.01,0-0.01-0.01c-0.44-0.29-0.88-0.56-1.27-0.8c-0.27-0.16-0.57-0.34-0.88-0.52l-0.06-0.04l-0.76-0.42l-0.79-0.43
		l1.55,0.85c-0.69-0.4-1.43-0.81-2.13-1.19c-0.01-0.01-0.02-0.01-0.03-0.02c-0.12-0.07-0.26-0.14-0.38-0.2
		c-1.22-0.66-2.76-1.37-3.95-1.91c-0.5-0.23-1.01-0.44-1.51-0.65c-0.03-0.01-0.06-0.03-0.09-0.04c-0.4-0.17-0.8-0.33-1.2-0.48
		c-0.5-0.19-0.99-0.38-1.47-0.55c0.05,0.02,0.1,0.04,0.14,0.05c0.1,0.04,0.2,0.08,0.3,0.12c0.2,0.08,0.41,0.17,0.63,0.26
		c0.13,0.05,0.27,0.11,0.4,0.17c-0.25-0.1-0.5-0.2-0.75-0.3c-0.81-0.32-1.64-0.62-2.48-0.9c-0.46-0.16-0.94-0.31-1.41-0.46
		c-0.33-0.1-0.66-0.2-0.99-0.3l-0.1-0.03c-0.43-0.12-0.83-0.24-1.19-0.34l-0.17-0.05c-0.65-0.18-1.17-0.31-1.51-0.39
		c-0.12-0.03-0.25-0.06-0.37-0.09h0c0.02,0.01,0.04,0.01,0.07,0.02c0.31,0.08,0.64,0.16,0.99,0.25c-0.11-0.03-0.22-0.05-0.32-0.08
		l0.6,0.15c0.13,0.04,0.27,0.07,0.4,0.11l0.08,0.02c0.99,0.27,1.96,0.56,2.91,0.87c0.04,0.01,0.07,0.02,0.11,0.03
		c1.93,0.63,3.79,1.35,5.57,2.15c1.94,0.87,3.79,1.84,5.53,2.88c0.32,0.19,0.65,0.39,0.96,0.59c0.86,0.55,1.7,1.11,2.5,1.7
		c2.32,1.7,4.39,3.56,6.18,5.56c0.65,0.73,1.27,1.47,1.84,2.24c0.89,1.19,1.69,2.42,2.38,3.68l0.13,0.22
		c0.27,0.51,0.53,1.02,0.77,1.54c0.24,0.52,0.46,1.06,0.67,1.59c0.03,0.08,0.06,0.17,0.09,0.25c0.12,0.32,0.24,0.64,0.34,0.96
		c0.23,0.68,0.42,1.37,0.59,2.07c0.36,1.48,0.58,3,0.66,4.53c0.03,0.63,0.05,1.25,0.03,1.89l0,0.02l0,0.03
		c-0.12,1.44-0.34,2.84-0.63,4.19c-0.37,1.71-0.88,3.35-1.5,4.91c-0.41,1.02-0.87,2-1.38,2.95c-0.29,0.54-0.59,1.07-0.91,1.6
		c-0.11,0.18-0.21,0.35-0.33,0.53c-0.34,0.53-0.7,1.05-1.07,1.56c-0.62,0.85-1.28,1.67-1.98,2.45c-0.09,0.1-0.18,0.2-0.27,0.3
		c-0.75,0.83-1.54,1.62-2.38,2.38c-1,0.91-2.06,1.78-3.18,2.6c-0.6,0.43-1.21,0.85-1.83,1.26c-0.29,0.19-0.58,0.38-0.88,0.57
		c-1.69,1.05-3.47,1.99-5.34,2.85c-2.02,0.93-4.13,1.73-6.3,2.43c-1.58,0.5-3.2,0.95-4.85,1.32c-0.62,0.14-1.24,0.27-1.86,0.4
		c-2.12,0.42-4.28,0.75-6.47,0.97c-2.06,0.21-4.15,0.33-6.23,0.36l-0.18,0c-0.29,0-0.59,0.01-0.88,0.01c-2.56,0-5.12-0.14-7.65-0.41
		c-2.08-0.22-4.14-0.54-6.17-0.95c-0.78-0.16-1.56-0.33-2.33-0.51c-1.48-0.35-2.94-0.75-4.37-1.21c-2.19-0.69-4.32-1.51-6.37-2.44
		c-1.04-0.47-2.06-0.98-3.05-1.51c-0.76-0.41-1.51-0.84-2.24-1.29c-0.39-0.23-0.77-0.47-1.14-0.72c-0.54-0.35-1.07-0.72-1.59-1.09
		c-1.2-0.86-2.36-1.78-3.45-2.75c-0.77-0.69-1.51-1.41-2.23-2.16c-0.5-0.53-0.99-1.07-1.46-1.62c-0.34-0.4-0.64-0.8-0.95-1.21
		c-0.36-0.46-0.7-0.93-1.02-1.4c-0.11-0.16-0.22-0.32-0.33-0.48c-0.35-0.52-0.68-1.05-0.99-1.58c-0.68-1.17-1.27-2.34-1.76-3.53
		c-0.57-1.39-1.01-2.78-1.33-4.18c-0.36-1.61-0.58-3.23-0.61-4.83c-0.01-0.54,0.01-1.08,0.03-1.62c0.07-1.52,0.3-3.04,0.66-4.53
		c0.17-0.69,0.37-1.38,0.6-2.06c0.1-0.31,0.21-0.62,0.32-0.93c0.01-0.04,0.03-0.08,0.04-0.12c0.23-0.59,0.47-1.18,0.74-1.76
		c0.15-0.32,0.31-0.63,0.47-0.94c0.14-0.27,0.27-0.55,0.42-0.82c0.7-1.26,1.49-2.5,2.4-3.7c0.58-0.77,1.22-1.52,1.88-2.25
		c1.82-2.03,3.94-3.93,6.36-5.67c0.35-0.25,0.71-0.5,1.08-0.74c-0.38,0.25-0.75,0.51-1.12,0.76c-2.6,1.84-4.84,3.82-6.72,5.91
		c-0.67,0.74-1.29,1.49-1.86,2.26c-0.92,1.22-1.72,2.46-2.41,3.73c-0.15,0.28-0.3,0.56-0.44,0.85c-0.15,0.3-0.3,0.6-0.43,0.9
		c-0.29,0.62-0.55,1.26-0.79,1.89c-0.02,0.06-0.04,0.12-0.06,0.17c-0.09,0.26-0.19,0.52-0.27,0.78c-0.23,0.68-0.42,1.37-0.59,2.05
		c-0.36,1.51-0.58,3.03-0.67,4.55c-0.03,0.54-0.04,1.08-0.04,1.62c0.02,1.64,0.19,3.27,0.52,4.89c0.29,1.42,0.7,2.83,1.24,4.22
		c0.46,1.21,1.02,2.4,1.67,3.57c0.3,0.54,0.6,1.07,0.93,1.6c0.1,0.17,0.22,0.33,0.33,0.5c0.31,0.47,0.63,0.94,0.97,1.4
		c0.72,0.97,1.5,1.93,2.35,2.86c0.68,0.74,1.4,1.46,2.16,2.17c1.03,0.96,2.14,1.88,3.32,2.76c0.5,0.37,1.01,0.74,1.53,1.1
		c0.36,0.24,0.72,0.48,1.09,0.72c0.76,0.49,1.54,0.96,2.35,1.41c0.1,0.06,0.2,0.12,0.31,0.18c0.79,0.44,1.59,0.85,2.4,1.24
		c1.9,0.93,3.84,1.76,5.82,2.47c1.26,0.45,2.53,0.86,3.81,1.23c0.64,0.18,1.29,0.36,1.94,0.52c1.52,0.38,3.04,0.7,4.58,0.97
		c1.24,0.22,2.49,0.4,3.74,0.54c2.55,0.29,5.11,0.43,7.66,0.43c0.88,0,1.77-0.02,2.65-0.05l0.21-0.01c1.85-0.08,3.68-0.23,5.5-0.45
		c1.18-0.14,2.35-0.32,3.52-0.52c1.66-0.29,3.31-0.64,4.92-1.05c0.51-0.13,1.02-0.27,1.53-0.41c1.47-0.41,2.91-0.87,4.31-1.37
		c2.02-0.72,3.98-1.54,5.86-2.45c1.8-0.87,3.53-1.83,5.16-2.87c0.29-0.18,0.57-0.37,0.86-0.56c0.62-0.41,1.22-0.83,1.81-1.26
		c1.11-0.82,2.17-1.68,3.17-2.57c0.65-0.58,1.28-1.18,1.88-1.8c0.17-0.18,0.34-0.36,0.51-0.54c0.81-0.87,1.58-1.77,2.28-2.69
		c0.38-0.51,0.74-1.02,1.09-1.54c0.11-0.17,0.23-0.34,0.34-0.5c0.33-0.52,0.64-1.04,0.94-1.57c0.53-0.95,1-1.92,1.41-2.91
		c0.65-1.57,1.16-3.2,1.5-4.89c0.29-1.39,0.46-2.81,0.52-4.27l0-0.03l0-0.01c0.02-0.64,0-1.27-0.03-1.91
		c-0.08-1.54-0.3-3.05-0.65-4.53c-0.17-0.69-0.36-1.38-0.58-2.06c-0.07-0.21-0.14-0.42-0.21-0.63c-0.03-0.1-0.07-0.2-0.11-0.3
		c-0.23-0.63-0.5-1.26-0.78-1.88c-0.24-0.52-0.49-1.03-0.76-1.55l-0.11-0.21c-0.69-1.27-1.47-2.5-2.35-3.7
		c-0.56-0.75-1.15-1.49-1.78-2.21c-1.78-2.03-3.83-3.92-6.14-5.65c-0.72-0.54-1.46-1.06-2.23-1.57c-0.3-0.2-0.6-0.39-0.91-0.58
		c-1.72-1.08-3.54-2.07-5.46-2.97c-0.6-0.28-1.21-0.56-1.82-0.82c0.38,0.16,0.76,0.32,1.15,0.49c0.04,0.02,0.07,0.03,0.11,0.05
		c0.34,0.15,0.68,0.3,1.02,0.46c0.54,0.24,1.08,0.49,1.6,0.73l-0.06-0.03c-0.15-0.07-0.29-0.15-0.44-0.22
		c0.16,0.08,0.32,0.15,0.48,0.22c0.15,0.07,0.29,0.14,0.44,0.2c0.14,0.07,0.27,0.13,0.4,0.2c0.07,0.04,0.15,0.07,0.22,0.11
		l0.07,0.03c-0.36-0.17-0.73-0.34-1.11-0.52c0.1,0.05,0.2,0.1,0.29,0.15c1.75,0.9,3.42,1.87,4.99,2.91
		c0.26,0.17,0.51,0.34,0.76,0.52c0.79,0.55,1.56,1.11,2.3,1.7c2.18,1.72,4.14,3.59,5.83,5.59c0.61,0.72,1.18,1.46,1.72,2.21
		c0.85,1.19,1.61,2.42,2.27,3.68c0.05,0.09,0.09,0.18,0.14,0.27c0.25,0.5,0.5,1,0.72,1.51c0.27,0.61,0.51,1.23,0.73,1.85
		c0.11,0.32,0.22,0.63,0.32,0.95c0.04,0.12,0.08,0.24,0.11,0.36c0.17,0.57,0.33,1.14,0.46,1.72c0.34,1.48,0.55,2.99,0.62,4.53
		c0.03,0.63,0.05,1.27,0.03,1.91v0.02l0,0.01c-0.04,1.45-0.21,2.87-0.48,4.28c-0.33,1.68-0.81,3.31-1.45,4.9
		c-0.4,0.99-0.85,1.96-1.36,2.91c-0.29,0.53-0.59,1.06-0.91,1.58c-0.1,0.17-0.21,0.33-0.32,0.5c-0.34,0.52-0.69,1.04-1.06,1.55
		c-0.67,0.92-1.39,1.83-2.17,2.7c-0.72,0.8-1.49,1.58-2.29,2.34l-0.21,0.2c-0.88,0.82-1.82,1.62-2.79,2.38
		c-0.55,0.43-1.12,0.86-1.71,1.27c-0.26,0.19-0.52,0.37-0.78,0.56c-1.52,1.04-3.14,2-4.83,2.89c-1.67,0.88-3.42,1.7-5.23,2.43
		c-1.22,0.49-2.47,0.95-3.75,1.37c-0.41,0.14-0.82,0.26-1.24,0.39c-1.29,0.39-2.6,0.75-3.93,1.07c-0.68,0.17-1.38,0.32-2.07,0.46
		c-3.06,0.63-6.25,1.05-9.52,1.26c-0.44,0.03-0.89,0.05-1.34,0.07c-1.13,0.05-2.26,0.08-3.4,0.08c-0.24,0-0.48,0-0.73,0
		c-4.52-0.06-8.89-0.53-13.04-1.37c-0.8-0.16-1.59-0.33-2.37-0.52c-1.24-0.3-2.45-0.63-3.64-0.99c-0.55-0.17-1.09-0.34-1.62-0.52
		c-1.15-0.38-2.28-0.78-3.38-1.22c-1.83-0.73-3.59-1.55-5.27-2.44c-0.73-0.38-1.45-0.78-2.15-1.2c-0.9-0.53-1.78-1.08-2.62-1.65
		c-0.35-0.23-0.69-0.48-1.03-0.72c-0.5-0.36-0.99-0.72-1.47-1.09c-1.13-0.88-2.2-1.79-3.2-2.75c-0.73-0.7-1.44-1.41-2.1-2.15
		c-0.83-0.92-1.6-1.87-2.31-2.84c-0.33-0.45-0.65-0.92-0.96-1.38c-0.11-0.17-0.21-0.34-0.32-0.51c-0.32-0.52-0.63-1.04-0.92-1.57
		c-0.64-1.16-1.19-2.35-1.65-3.57c-0.52-1.36-0.94-2.76-1.23-4.18c-0.33-1.6-0.5-3.22-0.52-4.88c0-0.31-0.02-0.63-0.01-0.94
		c0.01-0.22,0.02-0.45,0.03-0.67c0.08-1.54,0.29-3.05,0.63-4.53c0.13-0.56,0.27-1.11,0.44-1.65c0.04-0.13,0.08-0.27,0.12-0.41
		c0.1-0.32,0.21-0.63,0.32-0.94c0.23-0.63,0.48-1.26,0.75-1.88c0.12-0.28,0.25-0.56,0.38-0.84c0.15-0.31,0.3-0.61,0.46-0.91
		c0.67-1.27,1.43-2.5,2.28-3.7c0.54-0.76,1.12-1.5,1.73-2.22c1.69-2,3.65-3.87,5.84-5.6c0.7-0.55,1.43-1.09,2.18-1.61
		c0.26-0.18,0.51-0.35,0.77-0.53c1.6-1.06,3.29-2.05,5.08-2.97c0.31-0.16,0.62-0.31,0.93-0.46l0.16-0.08
		c-0.2,0.09-0.39,0.18-0.58,0.27c-0.13,0.06-0.27,0.12-0.4,0.18c0.1-0.05,0.19-0.1,0.29-0.15c0.11-0.06,0.22-0.11,0.34-0.17
		c0.27-0.13,0.54-0.26,0.82-0.38c0.6-0.28,1.22-0.55,1.88-0.83c0.13-0.05,0.27-0.11,0.41-0.16c-0.52,0.22-1.04,0.44-1.55,0.68
		c-0.07,0.03-0.14,0.06-0.21,0.09c-0.34,0.15-0.67,0.31-1,0.47c0.49-0.22,0.99-0.44,1.5-0.67c0.75-0.33,1.49-0.64,2.2-0.94
		c0.12-0.05,0.23-0.1,0.35-0.15c0.21-0.09,0.41-0.17,0.61-0.25l0.03-0.01l-0.1,0.04c-0.1,0.04-0.19,0.08-0.29,0.11
		c-0.1,0.04-0.2,0.08-0.29,0.12c-0.19,0.08-0.37,0.15-0.56,0.23c-0.33,0.13-0.65,0.26-0.95,0.38c-0.01,0-0.38,0.15-1.01,0.42
		c-0.27,0.12-0.6,0.27-0.96,0.43c-0.37,0.17-0.74,0.34-1.11,0.52c-0.31,0.15-0.63,0.31-0.97,0.48c-0.15,0.07-0.3,0.15-0.45,0.23
		c-0.99,0.5-2.08,1.09-3.26,1.77c0.36-0.21,0.74-0.41,1.11-0.61l-0.06,0.04c-0.35,0.19-0.71,0.38-1.05,0.58l0,0
		c-0.01,0-0.01,0.01-0.01,0.01s0,0,0,0c-0.11,0.07-0.23,0.14-0.34,0.2c-0.01,0-0.01,0.01-0.01,0.01c-0.07,0.04-0.15,0.09-0.22,0.12
		c0.07-0.04,0.15-0.09,0.23-0.13l0.01-0.01c0.02-0.01,0.04-0.03,0.07-0.04c-0.66,0.39-1.31,0.79-1.95,1.2
		c-0.84,0.54-1.65,1.1-2.44,1.68c-0.25,0.18-0.49,0.37-0.74,0.56c-0.74,0.57-1.46,1.14-2.15,1.74c-2.01,1.73-3.81,3.59-5.36,5.57
		c-0.57,0.72-1.09,1.46-1.59,2.2c-0.8,1.2-1.52,2.43-2.14,3.69c-0.17,0.35-0.34,0.7-0.5,1.06c-0.11,0.24-0.21,0.49-0.32,0.73
		c-0.25,0.61-0.49,1.23-0.7,1.85c-0.1,0.31-0.19,0.63-0.29,0.94c-0.21,0.68-0.39,1.37-0.54,2.07c-0.05,0.24-0.1,0.48-0.15,0.72
		c-0.24,1.25-0.39,2.52-0.46,3.81c-0.01,0.22-0.04,0.43-0.04,0.65c-0.01,0.33,0.01,0.66,0.01,0.99c0.02,1.65,0.18,3.28,0.48,4.87
		c0.27,1.41,0.67,2.8,1.16,4.16c0.44,1.22,0.97,2.42,1.57,3.59c0.27,0.52,0.55,1.03,0.84,1.54c0.1,0.18,0.21,0.35,0.32,0.52
		c0.28,0.46,0.58,0.92,0.88,1.37c0.67,0.98,1.38,1.94,2.16,2.86c0.61,0.73,1.26,1.44,1.93,2.13c0.92,0.95,1.9,1.87,2.94,2.76
		c0.43,0.37,0.87,0.73,1.32,1.09c0.31,0.24,0.62,0.48,0.94,0.72c1.12,0.84,2.3,1.64,3.53,2.41c0.24,0.15,0.48,0.31,0.73,0.46
		c1.41,0.85,2.9,1.65,4.43,2.39c0.89,0.43,1.8,0.84,2.72,1.23c0.4,0.17,0.8,0.35,1.21,0.51c0.91,0.36,1.84,0.7,2.78,1.03
		c0.47,0.16,0.94,0.32,1.42,0.47c6.47,2.08,13.63,3.28,21.19,3.38c0.29,0,0.59,0.01,0.88,0.01c1.69,0,3.36-0.06,5.02-0.17
		c2.26-0.15,4.49-0.4,6.66-0.74c3.72-0.58,7.3-1.43,10.68-2.53c0.39-0.13,0.76-0.26,1.14-0.39c1.03-0.36,2.05-0.73,3.04-1.13
		c0.3-0.12,0.61-0.25,0.9-0.37c1.03-0.44,2.04-0.9,3.03-1.38c1.52-0.74,2.98-1.54,4.38-2.39c0.89-0.54,1.76-1.1,2.6-1.68
		c0.58-0.4,1.16-0.82,1.71-1.24c0.23-0.18,0.46-0.36,0.68-0.54c0.53-0.42,1.05-0.85,1.56-1.28c0.97-0.83,1.89-1.7,2.76-2.59
		c0.74-0.76,1.43-1.54,2.09-2.33c0.72-0.88,1.4-1.77,2.02-2.69c0.35-0.51,0.68-1.03,1-1.55c0.1-0.17,0.2-0.34,0.3-0.51
		c0.3-0.52,0.58-1.04,0.85-1.57c0.49-0.96,0.92-1.94,1.3-2.93c0.6-1.58,1.06-3.21,1.36-4.86c0.26-1.4,0.42-2.83,0.46-4.27l0-0.02
		v-0.01c0.01-0.65,0-1.3-0.03-1.95c-0.06-1.29-0.21-2.57-0.45-3.82c-0.05-0.24-0.09-0.48-0.15-0.71c-0.15-0.69-0.33-1.37-0.53-2.05
		c-0.1-0.32-0.21-0.64-0.32-0.96c-0.21-0.63-0.45-1.25-0.7-1.87c-0.19-0.46-0.39-0.92-0.6-1.37c-0.06-0.12-0.12-0.25-0.18-0.37
		c-0.62-1.26-1.33-2.49-2.13-3.68c-0.51-0.76-1.06-1.51-1.64-2.24c-1.58-2.01-3.42-3.9-5.48-5.67c-0.65-0.56-1.32-1.1-2.02-1.63
		c-0.25-0.19-0.49-0.38-0.74-0.57c0.49,0.35,0.99,0.7,1.48,1.07c1.47,1.09,2.93,2.26,4.39,3.52c0.51,0.44,1.02,0.9,1.52,1.36
		c1.56,1.54,2.96,3.16,4.2,4.85c0.54,0.73,1.05,1.48,1.52,2.24c0.76,1.21,1.44,2.45,2.03,3.72c0.08,0.18,0.16,0.35,0.23,0.53
		c0.18,0.41,0.35,0.81,0.52,1.23c0.24,0.62,0.47,1.25,0.67,1.88c0.1,0.3,0.18,0.61,0.26,0.92c0.19,0.68,0.36,1.37,0.51,2.06
		c0.25,1.21,0.43,2.43,0.53,3.67c0.02,0.29,0.04,0.59,0.05,0.88c0.03,0.65,0.04,1.3,0.02,1.95v0.02l0,0.02
		c-0.12,1.42-0.31,2.8-0.57,4.15c-0.33,1.66-0.77,3.27-1.3,4.81c-0.35,1.02-0.75,2.02-1.19,3c-0.24,0.53-0.49,1.05-0.75,1.56
		c-0.1,0.19-0.2,0.37-0.29,0.56c-0.29,0.53-0.58,1.05-0.89,1.56c-0.57,0.95-1.19,1.87-1.85,2.77c-0.59,0.8-1.21,1.59-1.86,2.35
		c-0.79,0.92-1.63,1.8-2.51,2.65c-0.46,0.44-0.92,0.87-1.4,1.29c-0.21,0.18-0.42,0.36-0.63,0.53c-1.22,1.04-2.5,2.02-3.85,2.94
		c-1.21,0.83-2.47,1.61-3.77,2.34c-0.83,0.47-1.68,0.92-2.55,1.35c-0.25,0.12-0.5,0.25-0.75,0.38c-0.84,0.4-1.7,0.78-2.57,1.15
		c-0.27,0.11-0.53,0.23-0.8,0.34c-7.09,2.89-15.01,4.61-23.12,5.14c-1.83,0.12-3.67,0.18-5.52,0.18c-9.97,0-19.98-1.78-28.82-5.37
		c-0.34-0.14-0.68-0.28-1.02-0.42c-0.8-0.34-1.58-0.7-2.36-1.07c-0.33-0.16-0.66-0.31-0.99-0.47c-0.79-0.4-1.57-0.81-2.34-1.24
		c-0.94-0.52-1.85-1.07-2.75-1.64c-0.37-0.23-0.72-0.47-1.08-0.72c-1.35-0.91-2.64-1.86-3.87-2.88c-0.3-0.24-0.58-0.5-0.87-0.75
		c-0.4-0.35-0.8-0.7-1.19-1.07c-0.95-0.89-1.86-1.81-2.72-2.78c-0.27-0.3-0.55-0.61-0.81-0.92c-0.26-0.3-0.58-0.71-0.95-1.2
		c-0.58-0.77-1.27-1.75-1.99-2.93c-0.26-0.43-0.53-0.88-0.8-1.36c-0.1-0.19-0.21-0.38-0.31-0.57c-0.26-0.48-0.51-0.99-0.76-1.51
		c-0.53-1.12-1.03-2.33-1.47-3.62c-0.44-1.3-0.82-2.67-1.1-4.13c-0.29-1.51-0.48-3.11-0.51-4.77c-0.01-0.55-0.01-1.12,0.02-1.68
		c0.01-0.29,0.03-0.58,0.05-0.88c0.09-1.2,0.26-2.42,0.52-3.67c0.15-0.68,0.32-1.37,0.52-2.07c0.09-0.32,0.2-0.65,0.3-0.97
		c0.21-0.63,0.44-1.26,0.71-1.9c0.07-0.18,0.15-0.36,0.22-0.54c0.19-0.43,0.39-0.86,0.6-1.29c0.63-1.29,1.37-2.6,2.24-3.92
		c0.52-0.79,1.09-1.59,1.71-2.39c1.48-1.92,3.24-3.86,5.32-5.8c0.42-0.39,0.85-0.79,1.3-1.18c0.06-0.05,0.12-0.11,0.18-0.16
		c0.03-0.03,0.06-0.05,0.09-0.08l0.14-0.13l-0.02,0.02l-0.21,0.17l-0.24,0.2l-0.24,0.2l-0.51,0.42l-0.05,0.05
		c0.1-0.09,0.21-0.17,0.32-0.26c0.01-0.01,0.02-0.02,0.03-0.02c-0.12,0.1-0.24,0.19-0.35,0.28c-0.88,0.75-1.76,1.55-2.64,2.38
		c0.24-0.22,0.49-0.45,0.74-0.68c-0.1,0.1-0.21,0.2-0.31,0.3c-1.78,1.72-3.38,3.53-4.76,5.44c-0.53,0.73-1.03,1.47-1.5,2.23
		c-0.75,1.2-1.41,2.44-1.99,3.7c-0.2,0.42-0.38,0.85-0.56,1.28c-0.06,0.15-0.12,0.31-0.18,0.47c-0.24,0.61-0.45,1.23-0.65,1.85
		c-0.1,0.31-0.2,0.63-0.29,0.95c-0.19,0.69-0.36,1.38-0.5,2.08c-0.28,1.39-0.46,2.8-0.54,4.23c0,0.09-0.01,0.18-0.01,0.28
		c-0.01,0.2-0.03,0.4-0.03,0.61c-0.01,0.37,0.01,0.74,0.01,1.11c0.02,1.62,0.17,3.22,0.46,4.79c0.26,1.41,0.61,2.8,1.07,4.16
		c0.41,1.22,0.91,2.42,1.47,3.6c0.24,0.5,0.5,1,0.77,1.49c0.11,0.19,0.2,0.39,0.31,0.58c0.25,0.44,0.53,0.88,0.8,1.32
		c0.62,0.99,1.3,1.95,2.02,2.89c0.55,0.72,1.13,1.42,1.75,2.11c0.84,0.96,1.74,1.88,2.7,2.78c0.38,0.36,0.76,0.72,1.15,1.06
		c0.29,0.25,0.58,0.49,0.88,0.74c1.2,1.01,2.47,1.97,3.8,2.9c0.47,0.32,0.94,0.64,1.42,0.95c0.75,0.49,1.53,0.96,2.32,1.41
		c0.74,0.43,1.5,0.85,2.28,1.25c0.31,0.16,0.62,0.33,0.94,0.49c0.75,0.37,1.51,0.73,2.28,1.08c0.32,0.14,0.64,0.28,0.96,0.42
		c8.35,3.6,18.13,5.73,28.61,5.86c0.31,0,0.62,0.01,0.93,0.01c2,0,3.97-0.08,5.92-0.22c8.7-0.63,16.83-2.64,23.93-5.73
		c0.26-0.11,0.52-0.22,0.78-0.34c0.83-0.38,1.65-0.76,2.46-1.17c0.25-0.13,0.5-0.26,0.75-0.39c0.84-0.44,1.66-0.89,2.46-1.36
		c1.28-0.75,2.51-1.53,3.7-2.35c1.34-0.93,2.62-1.91,3.83-2.93c0.2-0.17,0.4-0.35,0.6-0.52c0.48-0.42,0.95-0.85,1.41-1.28
		c0.89-0.84,1.74-1.71,2.53-2.6c0.67-0.75,1.29-1.52,1.88-2.3c0.67-0.89,1.32-1.79,1.9-2.71c0.32-0.5,0.61-1.01,0.89-1.52
		c0.11-0.19,0.22-0.38,0.32-0.57c0.27-0.5,0.52-1,0.76-1.5c0.46-0.98,0.86-1.98,1.22-2.99c0.55-1.57,0.99-3.17,1.28-4.8
		c0.25-1.41,0.4-2.83,0.43-4.28l0-0.03v-0.04c0.01-0.65,0-1.3-0.02-1.94c0-0.1-0.01-0.21-0.02-0.31c-0.08-1.44-0.27-2.86-0.56-4.25
		c-0.14-0.68-0.3-1.36-0.49-2.03c-0.09-0.32-0.18-0.64-0.28-0.96c-0.2-0.62-0.42-1.24-0.65-1.85c-0.15-0.4-0.31-0.8-0.48-1.19
		c-0.09-0.2-0.19-0.4-0.28-0.59c-0.58-1.26-1.24-2.48-1.98-3.68c-0.46-0.74-0.94-1.48-1.46-2.19c-1.12-1.55-2.38-3.03-3.76-4.46
		c0.55,0.53,1.1,1.07,1.65,1.62c-0.25-0.27-0.52-0.55-0.81-0.86c-0.09-0.09-0.18-0.19-0.27-0.28c0.39,0.42,0.74,0.79,1.07,1.14
		c0.19,0.19,0.38,0.39,0.57,0.59c-0.13-0.15-0.26-0.3-0.39-0.44c0.04,0.04,0.07,0.08,0.1,0.12c0.1,0.11,0.19,0.22,0.29,0.33
		c0.09,0.1,0.18,0.2,0.27,0.3c0.03,0.04,0.07,0.08,0.1,0.11c0.98,1.12,1.9,2.26,2.73,3.45c0.51,0.73,0.99,1.47,1.44,2.22
		c0.73,1.21,1.38,2.45,1.95,3.71c0.1,0.21,0.18,0.43,0.27,0.65c0.15,0.37,0.31,0.74,0.45,1.11c0.23,0.61,0.44,1.22,0.63,1.84
		c0.1,0.32,0.2,0.64,0.29,0.97c0.18,0.67,0.34,1.35,0.48,2.04c0.3,1.49,0.48,3.01,0.55,4.55c0.02,0.44,0.03,0.88,0.03,1.32
		c0,0.21,0,0.42-0.01,0.63v0.05l0,0.02c-0.12,1.42-0.31,2.8-0.56,4.15c-0.32,1.65-0.74,3.23-1.26,4.77
		c-0.35,1.04-0.73,2.06-1.16,3.05c-0.22,0.5-0.45,1-0.69,1.5c-0.1,0.21-0.22,0.41-0.32,0.62c-0.27,0.52-0.54,1.02-0.83,1.53
		c-0.56,0.96-1.15,1.9-1.79,2.8c-0.56,0.8-1.16,1.56-1.78,2.32c-0.76,0.92-1.56,1.81-2.4,2.67c-0.43,0.44-0.88,0.88-1.33,1.3
		c-0.19,0.18-0.39,0.36-0.59,0.53c-1.15,1.03-2.35,2.01-3.61,2.94c-1.12,0.82-2.29,1.6-3.49,2.34c-0.75,0.46-1.52,0.9-2.3,1.33
		c-0.24,0.13-0.47,0.26-0.72,0.39c-0.75,0.4-1.52,0.79-2.29,1.16c-0.23,0.11-0.47,0.22-0.71,0.33c-8.04,3.71-17.29,5.89-26.77,6.49
		c-1.83,0.12-3.67,0.17-5.51,0.17c-11.34,0-22.73-2.22-32.49-6.71c-0.28-0.13-0.56-0.27-0.84-0.4c-0.73-0.35-1.45-0.71-2.16-1.09
		c-0.29-0.15-0.59-0.31-0.88-0.47c-0.73-0.4-1.45-0.82-2.15-1.25c-0.36-0.22-0.73-0.44-1.09-0.67c-0.84-0.53-1.65-1.09-2.45-1.67
		c-1.27-0.92-2.49-1.88-3.65-2.9c-0.29-0.25-0.57-0.5-0.85-0.76c-0.37-0.35-0.75-0.69-1.11-1.05c-0.91-0.9-1.78-1.83-2.6-2.8
		l-0.19-0.22c-0.43-0.51-0.94-1.14-1.48-1.89c-0.61-0.84-1.28-1.82-1.95-2.93c-0.25-0.42-0.51-0.87-0.76-1.33
		c-0.1-0.19-0.21-0.39-0.31-0.58c-0.25-0.48-0.5-0.98-0.74-1.49c-0.52-1.12-1-2.31-1.43-3.58c-0.44-1.3-0.8-2.68-1.08-4.13
		c-0.28-1.49-0.46-3.05-0.49-4.68c0-0.12,0-0.25,0-0.38c0-0.46,0-0.93,0.02-1.4c0.06-1.47,0.23-2.98,0.55-4.53
		c0.14-0.69,0.32-1.39,0.52-2.1c0.09-0.32,0.17-0.63,0.27-0.95c0.2-0.63,0.42-1.26,0.67-1.9c0.05-0.13,0.12-0.27,0.17-0.4
		c0.19-0.47,0.39-0.94,0.61-1.41c0.6-1.29,1.31-2.59,2.13-3.92c0.51-0.81,1.07-1.63,1.67-2.45c1.09-1.49,2.34-3.01,3.76-4.53
		c0.11-0.12,0.22-0.24,0.33-0.36c0.05-0.06,0.1-0.11,0.16-0.17l0.06-0.07L65,64.51l-0.09,0.1c-0.06,0.06-0.12,0.13-0.18,0.19
		c-0.17,0.18-0.34,0.36-0.51,0.55c-0.75,0.82-1.56,1.7-2.35,2.61c-0.52,0.59-1.03,1.18-1.52,1.75c-0.36,0.42-0.71,0.83-1.04,1.23
		c-0.13,0.16-0.26,0.31-0.38,0.47l-0.08,0.1l0,0l-0.02,0.02l-0.02,0.02c-0.43,0.61-0.94,1.31-1.45,2.01
		c-0.15,0.21-0.29,0.41-0.44,0.62l-0.08,0.11l-0.06,0.09c0.15-0.22,0.29-0.45,0.44-0.66c-0.4,0.57-0.79,1.14-1.17,1.73l-0.05,0.08
		c-0.93,1.42-1.81,2.88-2.63,4.37c-0.14,0.25-0.27,0.51-0.41,0.77l-0.01,0.01l-0.62,1.2l-0.08,0.15c-0.05,0.11-0.11,0.21-0.17,0.32
		l-0.04,0.08c-0.34,0.75-0.74,1.61-1.14,2.48c-0.08,0.17-0.15,0.33-0.22,0.5c0.06-0.13,0.11-0.27,0.17-0.4
		c0.1-0.22,0.2-0.45,0.3-0.67c0.07-0.14,0.13-0.29,0.2-0.43c0.21-0.46,0.42-0.92,0.64-1.37c0.01-0.02,0.02-0.04,0.03-0.07
		c0.02-0.04,0.04-0.08,0.05-0.12c-0.23,0.47-0.47,0.97-0.71,1.49c-0.12,0.26-0.24,0.51-0.35,0.78c-0.03,0.06-0.06,0.13-0.08,0.19
		c-0.07,0.15-0.13,0.3-0.2,0.45c-0.21,0.47-0.41,0.94-0.6,1.41c-0.02,0.05-0.05,0.11-0.07,0.16c-0.09,0.22-0.19,0.42-0.28,0.64
		c0.07-0.15,0.14-0.33,0.22-0.49c-0.09,0.21-0.18,0.43-0.26,0.64c-0.1,0.24-0.19,0.47-0.28,0.71c-0.08,0.2-0.15,0.39-0.22,0.59
		l-0.06,0.16c-0.08,0.22-0.17,0.44-0.24,0.65c-0.08,0.23-0.17,0.46-0.24,0.69c-0.01,0.04-0.03,0.08-0.04,0.11
		c-0.03,0.09-0.06,0.19-0.1,0.29l-0.08,0.24c-0.07,0.22-0.14,0.43-0.22,0.66c-0.17,0.54-0.35,1.11-0.52,1.69
		c-0.63,2.14-1.23,4.44-1.54,6.38c0,0.03-0.01,0.06-0.02,0.09c0,0,0,0.01,0,0.01c-0.04,0.22-0.08,0.44-0.12,0.66
		c-0.03,0.17-0.06,0.35-0.09,0.52c-0.49,2.88-0.76,5.63-0.88,8.19c0.11-1.96,0.35-4.14,0.63-6.18c0.02-0.13,0.03-0.25,0.05-0.38
		c-0.01,0.1-0.02,0.19-0.03,0.28c0.03-0.25,0.06-0.5,0.09-0.75c0.05-0.34,0.1-0.69,0.15-1.02c0.1-0.59,0.2-1.17,0.32-1.76
		c0.04-0.18,0.07-0.35,0.11-0.53c0.03-0.14,0.06-0.28,0.09-0.42c0.1-0.44,0.19-0.89,0.29-1.33l-0.02,0.14
		c-0.03,0.17-0.05,0.33-0.08,0.5c-0.06,0.4-0.13,0.81-0.18,1.21c0.06-0.45,0.14-0.9,0.22-1.35c0.07-0.41,0.15-0.82,0.24-1.24
		c0.02-0.09,0.04-0.18,0.06-0.27c0.04-0.19,0.09-0.37,0.13-0.56c0.1-0.37,0.19-0.73,0.3-1.09c0-0.01,0-0.01,0.01-0.02
		c0.18-0.66,0.38-1.32,0.58-1.98c0.1-0.32,0.2-0.64,0.3-0.96c-0.04,0.15-0.07,0.3-0.11,0.45c-0.07,0.27-0.14,0.55-0.2,0.82
		c-0.16,0.69-0.3,1.38-0.43,2.07c-0.3,1.65-0.51,3.27-0.6,4.86c-0.06,0.94-0.08,1.86-0.06,2.78c0.01,1.42,0.11,2.82,0.28,4.19
		c0.21,1.65,0.52,3.27,0.95,4.84c0.32,1.16,0.68,2.3,1.11,3.41c0.19,0.51,0.4,1.01,0.62,1.51c0.08,0.19,0.17,0.37,0.25,0.56
		c0.21,0.47,0.43,0.94,0.67,1.4c0.51,1,1.07,1.98,1.67,2.95c0.44,0.7,0.89,1.4,1.38,2.08c0.7,0.98,1.45,1.94,2.24,2.87
		c0.27,0.32,0.56,0.63,0.84,0.95c0.28,0.31,0.56,0.62,0.85,0.93c0.95,0.99,1.94,1.95,2.99,2.88c0.89,0.79,1.81,1.56,2.77,2.3
		c0.59,0.45,1.19,0.89,1.8,1.33c0.18,0.13,0.37,0.26,0.56,0.39c0.52,0.36,1.05,0.72,1.59,1.07c0.19,0.12,0.38,0.25,0.57,0.37
		c2.8,1.77,5.81,3.36,8.98,4.75c8.72,3.84,18.68,6.21,28.99,6.9c2.09,0.14,4.19,0.21,6.3,0.21c13.55,0,27.36-2.93,39.46-9.31
		c1.75-0.92,3.37-1.88,4.9-2.86c0.25-0.16,0.49-0.32,0.73-0.47c0.51-0.33,1-0.67,1.48-1.01c0.25-0.17,0.5-0.35,0.74-0.52
		c0.54-0.39,1.06-0.79,1.57-1.19c1.05-0.82,2.03-1.64,2.96-2.48c1.01-0.91,1.95-1.82,2.83-2.74c0.2-0.21,0.4-0.41,0.59-0.62
		c0.36-0.39,0.7-0.77,1.03-1.16c0.79-0.91,1.52-1.83,2.19-2.74c0.52-0.71,1.01-1.41,1.46-2.1c0.63-0.97,1.2-1.92,1.72-2.86
		c0.24-0.43,0.46-0.86,0.67-1.28c0.17-0.33,0.33-0.67,0.49-1c0.16-0.34,0.31-0.67,0.46-1c0.46-1.05,0.84-2.06,1.17-3.03
		c0.52-1.54,0.88-2.96,1.13-4.23c0.45-2.29,0.52-4.09,0.4-5.13l-0.01-0.09v-0.16c0.01-0.66,0-1.31-0.02-1.97
		c-0.06-1.51-0.22-3-0.48-4.48c-0.12-0.66-0.25-1.32-0.4-1.98c-0.04-0.15-0.07-0.29-0.11-0.43l0.06,0.21
		c0.33,1.16,0.64,2.36,0.92,3.59l0.03,0.18l0.04,0.24c0.26,1.5,0.43,3.01,0.49,4.55c0.02,0.64,0.04,1.29,0.02,1.93l0,0.18
		l-0.01,0.05c-0.13,1.53-0.33,3.02-0.6,4.47c-0.28,1.51-0.64,2.99-1.07,4.42c-0.33,1.1-0.71,2.16-1.12,3.21
		c-0.14,0.35-0.27,0.69-0.41,1.03c-0.15,0.37-0.32,0.72-0.49,1.08c-0.2,0.44-0.41,0.89-0.63,1.32c-0.52,1.03-1.08,2.03-1.68,3.01
		c-0.45,0.74-0.92,1.47-1.41,2.17c-0.68,0.97-1.4,1.91-2.16,2.82c-0.33,0.4-0.65,0.79-1,1.17c-0.2,0.22-0.4,0.44-0.6,0.66
		c-0.87,0.95-1.79,1.87-2.75,2.76c-0.94,0.87-1.92,1.72-2.93,2.53c-0.5,0.4-1.01,0.8-1.53,1.18c-0.24,0.18-0.5,0.35-0.75,0.53
		c-0.47,0.33-0.93,0.66-1.41,0.98c-0.25,0.17-0.5,0.33-0.76,0.49c-12.29,7.96-28.45,11.99-44.7,11.99c-3.74,0-7.49-0.21-11.2-0.64
		c-7.53-0.87-14.89-2.63-21.68-5.28c-4.46-1.74-8.68-3.87-12.55-6.38c-0.19-0.13-0.38-0.26-0.57-0.38c-0.52-0.35-1.03-0.7-1.53-1.05
		c-0.18-0.13-0.36-0.27-0.54-0.4c-0.6-0.44-1.19-0.89-1.78-1.35c-0.94-0.75-1.86-1.51-2.75-2.31c-1.02-0.93-2-1.9-2.94-2.9
		c-0.29-0.31-0.57-0.62-0.86-0.94c-0.28-0.31-0.56-0.62-0.83-0.94l-0.1-0.12c-0.75-0.9-1.45-1.81-2.12-2.74
		c-0.48-0.67-0.94-1.35-1.38-2.04c-0.6-0.94-1.16-1.89-1.67-2.86c-0.24-0.46-0.46-0.93-0.68-1.4c-0.08-0.17-0.17-0.34-0.25-0.5
		c-0.22-0.49-0.43-0.99-0.63-1.49c-0.43-1.05-0.8-2.12-1.13-3.19c-0.46-1.54-0.81-3.1-1.05-4.67c-0.19-1.23-0.32-2.46-0.37-3.69
		c-0.04-0.95-0.04-1.91,0-2.86c0.01-0.28,0.01-0.55,0.03-0.83c-0.02,0.29-0.03,0.57-0.04,0.86c-0.05,1.04-0.07,2.06-0.05,3.07
		c0.03,1.34,0.14,2.65,0.3,3.95c0.22,1.72,0.55,3.39,0.99,5.01c0.31,1.13,0.66,2.24,1.07,3.32c0.2,0.52,0.41,1.03,0.62,1.54
		c0.07,0.17,0.14,0.35,0.21,0.52c0.22,0.49,0.45,0.97,0.69,1.45c0.5,1,1.04,1.98,1.63,2.93c0.43,0.71,0.89,1.41,1.36,2.09
		c0.69,0.98,1.42,1.94,2.19,2.87c0.27,0.32,0.53,0.65,0.82,0.97c0.28,0.32,0.57,0.63,0.86,0.94c0.92,1,1.9,1.96,2.92,2.88
		c0.88,0.8,1.79,1.57,2.74,2.32c0.58,0.46,1.16,0.9,1.77,1.34c0.18,0.13,0.36,0.26,0.54,0.39c0.49,0.35,1,0.7,1.51,1.03
		c0.19,0.13,0.38,0.26,0.58,0.39c5.47,3.55,11.74,6.38,18.49,8.44c3.47,1.06,7.06,1.91,10.73,2.55c5.35,0.93,10.86,1.41,16.4,1.41
		c15.97,0,32.17-3.98,45.21-12.56c0.25-0.17,0.51-0.34,0.76-0.51c0.25-0.17,0.5-0.33,0.74-0.5c0.23-0.16,0.44-0.32,0.67-0.49
		c0.25-0.18,0.5-0.36,0.74-0.54c0.52-0.39,1.03-0.78,1.52-1.17c1.04-0.82,2.01-1.65,2.93-2.48c0.99-0.9,1.91-1.8,2.76-2.7
		c0.2-0.22,0.4-0.43,0.6-0.65c0.35-0.38,0.68-0.76,1.01-1.14c0.79-0.92,1.5-1.83,2.17-2.73c0.51-0.7,1-1.4,1.44-2.08
		c0.63-0.97,1.19-1.93,1.7-2.87c0.23-0.42,0.44-0.84,0.65-1.26c0.18-0.36,0.34-0.71,0.5-1.07c0.15-0.32,0.28-0.63,0.41-0.95
		c0.45-1.08,0.83-2.11,1.15-3.09c0.51-1.57,0.85-3,1.08-4.26c0.52-2.84,0.48-4.73,0.46-5.14l0-0.08l0-0.18
		c0.01-0.64,0.01-1.27-0.02-1.9c-0.05-1.38-0.19-2.74-0.41-4.08c0.22,1.11,0.41,2.24,0.58,3.4c0.02,0.15,0.04,0.3,0.06,0.45
		c0.03,0.22,0.05,0.44,0.08,0.66c-0.01-0.15-0.03-0.3-0.04-0.44c0.11,0.81,0.21,1.63,0.3,2.46c0.02,0.15,0.03,0.3,0.04,0.45
		c0.04,0.42,0.08,0.85,0.11,1.27c0,0.04,0.01,0.08,0.01,0.12c0,0.07,0.01,0.14,0.02,0.2c0.01,0.16,0.02,0.31,0.03,0.47l0.01,0.19
		c0.01,0.1,0.01,0.2,0.02,0.3c-0.01-0.1-0.02-0.2-0.03-0.3c-0.04-0.5-0.09-1.02-0.14-1.55c-0.05-0.53-0.1-1.07-0.16-1.62
		c-0.05-0.52-0.11-1.05-0.17-1.56c0.01,0.12,0.03,0.24,0.04,0.36c0.03,0.4,0.04,0.8,0.06,1.2c0.03,0.66,0.04,1.33,0.02,2v0.16
		l-0.01,0.07c-0.13,1.52-0.33,2.99-0.59,4.43c-0.28,1.5-0.63,2.97-1.06,4.39c-0.32,1.09-0.69,2.16-1.1,3.2
		c-0.13,0.34-0.27,0.69-0.41,1.03c-0.15,0.37-0.32,0.73-0.48,1.09c-0.21,0.45-0.41,0.9-0.63,1.35c-0.51,1.03-1.07,2.02-1.66,3
		c-0.45,0.75-0.92,1.48-1.41,2.2c-0.67,0.97-1.38,1.91-2.13,2.83c-0.32,0.4-0.65,0.8-0.99,1.18c-0.19,0.22-0.4,0.44-0.6,0.66
		c-0.87,0.95-1.77,1.88-2.72,2.77c-0.93,0.88-1.9,1.72-2.9,2.53c-0.49,0.4-0.99,0.78-1.5,1.17c-0.25,0.18-0.49,0.37-0.74,0.55
		c-0.45,0.33-0.91,0.65-1.37,0.97c-0.25,0.17-0.51,0.34-0.76,0.51c-12.46,8.24-28.99,12.4-45.6,12.4c-16.74,0-33.56-4.23-46.4-12.77
		c-0.2-0.13-0.39-0.26-0.59-0.4c-0.5-0.34-0.98-0.68-1.47-1.03c-0.17-0.13-0.35-0.25-0.52-0.38c-0.6-0.45-1.19-0.9-1.76-1.37
		c-0.93-0.75-1.83-1.52-2.7-2.32c-1.01-0.93-1.98-1.88-2.9-2.88c-0.29-0.31-0.57-0.63-0.85-0.95c-0.24-0.27-0.48-0.53-0.72-0.81
		l-0.1-0.13c-0.78-0.93-1.5-1.87-2.18-2.82c-0.48-0.67-0.94-1.35-1.37-2.03c-0.59-0.93-1.13-1.87-1.62-2.82
		c-0.25-0.47-0.49-0.95-0.72-1.43c-0.07-0.15-0.13-0.3-0.2-0.45c-0.22-0.49-0.44-0.99-0.64-1.48c-0.41-1-0.77-2.02-1.08-3.04
		c-0.48-1.61-0.84-3.24-1.09-4.89c-0.18-1.19-0.29-2.38-0.35-3.6c-0.05-1.06-0.05-2.13,0-3.2c0.03-0.58,0.07-1.17,0.13-1.75
		c0.01-0.1,0.01-0.2,0.02-0.3c-0.04,0.29-0.07,0.58-0.1,0.88c-0.06,0.51-0.12,1.03-0.18,1.55c-0.06,0.57-0.12,1.13-0.17,1.68
		c-0.05,0.48-0.09,0.94-0.13,1.39c-0.01,0.09-0.02,0.18-0.02,0.27c-0.02,0.28-0.05,0.55-0.06,0.83v0.01l0,0.03
		c0-0.07,0-0.15,0.01-0.22c-0.01,0.12-0.01,0.23-0.02,0.35l-0.01,0.2c-0.01,0.29-0.03,0.58-0.03,0.85c0,0.24-0.01,0.52-0.01,0.84
		c0-0.14,0.01-0.28,0.01-0.42C45.03,110.83,45.04,110.44,45.06,110.04z M174.78,86.44l-0.35-0.8l-0.52-1.2l-0.12-0.28
		c0.08,0.18,0.16,0.36,0.24,0.54c0.24,0.52,0.46,1.06,0.69,1.6l0.07,0.16L174.78,86.44z M80.67,52.98c0.04-0.02,0.09-0.04,0.12-0.07
		c0.33-0.18,0.66-0.35,1.02-0.54c-0.3,0.16-0.61,0.32-0.93,0.49c-0.12,0.06-0.24,0.13-0.37,0.19
		C80.58,53.03,80.62,53.01,80.67,52.98z M176.45,90.8l0.04,0.13c-0.05-0.15-0.11-0.3-0.17-0.46
		C176.36,90.58,176.41,90.69,176.45,90.8z M177.43,94.95c0.26,1.48,0.42,2.99,0.48,4.51c0.02,0.63,0.03,1.27,0.02,1.91v0.16l0,0.01
		c-0.13,1.53-0.33,3.02-0.6,4.48c-0.28,1.52-0.65,3-1.08,4.43c-0.33,1.1-0.72,2.16-1.13,3.21c-0.15,0.37-0.29,0.74-0.44,1.1
		c-0.15,0.34-0.31,0.67-0.47,1.01c-0.21,0.46-0.43,0.92-0.66,1.36c-0.52,1.01-1.07,2-1.67,2.96c-0.46,0.75-0.94,1.48-1.44,2.19
		c-0.69,0.97-1.42,1.9-2.18,2.81c-0.34,0.4-0.69,0.8-1.04,1.19c-0.2,0.22-0.39,0.43-0.59,0.64c-0.9,0.97-1.85,1.89-2.84,2.78
		c-0.95,0.86-1.94,1.69-2.96,2.48c-0.52,0.41-1.05,0.81-1.6,1.2c-0.25,0.18-0.49,0.35-0.74,0.52c-0.49,0.34-0.99,0.68-1.5,1.01
		c-0.24,0.16-0.48,0.32-0.73,0.47c-12.03,7.57-27.69,11.39-43.43,11.39c-1.38,0-2.76-0.03-4.14-0.09
		c-11.85-0.5-23.56-3.19-33.62-8.08c-2.18-1.06-4.28-2.22-6.29-3.49c-0.19-0.12-0.39-0.24-0.58-0.36c-0.55-0.36-1.09-0.72-1.63-1.1
		c-0.19-0.13-0.38-0.27-0.57-0.4c-0.61-0.43-1.21-0.88-1.79-1.33c-0.96-0.74-1.9-1.52-2.8-2.32c-1.05-0.93-2.06-1.9-3.02-2.91
		c-0.29-0.3-0.57-0.6-0.85-0.9c-0.29-0.32-0.57-0.64-0.85-0.97c-0.13-0.15-0.27-0.3-0.4-0.45c-0.68-0.8-1.29-1.6-1.88-2.39
		c-0.5-0.68-0.98-1.35-1.42-2.02c-0.63-0.97-1.2-1.93-1.72-2.87c-0.24-0.44-0.47-0.89-0.68-1.33c-0.09-0.19-0.18-0.38-0.26-0.57
		c-0.23-0.49-0.45-0.97-0.65-1.46c-0.46-1.11-0.86-2.2-1.18-3.28c-0.47-1.56-0.8-3.07-1.02-4.53c-0.21-1.4-0.32-2.74-0.35-4.03
		c-0.02-0.91-0.01-1.78,0.04-2.63c0.1-1.8,0.33-3.46,0.63-4.94c0.15-0.8,0.33-1.54,0.5-2.22c0.09-0.35,0.18-0.69,0.27-1.01
		c0.14-0.51,0.28-0.98,0.41-1.41c0.02-0.07,0.05-0.15,0.07-0.22c0.07-0.21,0.16-0.41,0.23-0.62c0.07-0.19,0.15-0.38,0.22-0.57
		c0.04-0.09,0.07-0.19,0.11-0.28l-0.02,0.06l-0.03,0.1l-0.07,0.23c-0.18,0.58-0.36,1.15-0.51,1.72c-0.09,0.31-0.17,0.63-0.25,0.94
		c-0.18,0.74-0.35,1.48-0.49,2.21c-0.33,1.66-0.55,3.29-0.66,4.89c-0.06,0.91-0.08,1.82-0.08,2.71c0.01,1.45,0.1,2.89,0.28,4.29
		c0.2,1.61,0.52,3.19,0.93,4.72c0.32,1.17,0.7,2.32,1.13,3.45c0.2,0.51,0.4,1.01,0.62,1.51c0.09,0.2,0.18,0.38,0.27,0.58
		c0.21,0.46,0.43,0.91,0.66,1.36c0.52,1.01,1.08,2,1.69,2.96c0.44,0.7,0.92,1.38,1.41,2.06c0.71,0.98,1.46,1.93,2.27,2.85
		c0.28,0.33,0.57,0.65,0.86,0.97c0.28,0.3,0.57,0.6,0.85,0.9c0.96,0.99,1.97,1.95,3.04,2.88c0.91,0.79,1.85,1.55,2.82,2.29
		c0.59,0.45,1.19,0.89,1.81,1.31c0.19,0.13,0.38,0.27,0.57,0.4c0.54,0.37,1.09,0.72,1.64,1.08c0.19,0.12,0.39,0.24,0.58,0.36
		c1.84,1.13,3.76,2.19,5.77,3.17c10.13,4.94,22.2,7.84,34.68,8.22c0.94,0.03,1.89,0.04,2.83,0.04c12.6,0,25.47-2.57,37.04-8.17
		c2.37-1.15,4.54-2.36,6.54-3.62c0.24-0.15,0.48-0.3,0.71-0.46c0.52-0.34,1.05-0.68,1.55-1.03c0.25-0.17,0.48-0.35,0.72-0.52
		c0.56-0.4,1.1-0.8,1.63-1.2c1.05-0.81,2.04-1.62,2.97-2.45c1.04-0.92,2-1.85,2.89-2.78c0.2-0.21,0.38-0.41,0.57-0.62
		c0.37-0.39,0.72-0.79,1.07-1.18c0.79-0.91,1.53-1.83,2.2-2.73c0.53-0.71,1.02-1.42,1.48-2.13c0.63-0.96,1.2-1.91,1.72-2.85
		c0.24-0.44,0.48-0.88,0.7-1.31c0.16-0.32,0.32-0.64,0.47-0.96c0.17-0.35,0.33-0.7,0.48-1.05c0.47-1.06,0.85-2.08,1.18-3.05
		c0.53-1.56,0.9-2.98,1.15-4.25c0.47-2.38,0.52-4.16,0.39-5.02l-0.01-0.05v-0.16c0.01-0.65,0-1.29-0.02-1.93
		c-0.06-1.53-0.22-3.04-0.49-4.53c-0.12-0.68-0.26-1.35-0.42-2.02c-0.08-0.33-0.17-0.66-0.26-0.98c-0.15-0.54-0.31-1.08-0.48-1.61
		c0.17,0.48,0.34,0.96,0.5,1.45c-0.06-0.22-0.12-0.43-0.19-0.65c0.05,0.16,0.1,0.31,0.14,0.47c0.01,0.06,0.03,0.12,0.05,0.18
		c0.1,0.33,0.2,0.65,0.29,0.98c0.07,0.25,0.12,0.51,0.19,0.76C177.14,93.51,177.3,94.22,177.43,94.95z M134.72,176.24
		c-0.29,0.1-0.59,0.21-0.89,0.31c0.31-0.11,0.61-0.21,0.91-0.32c0.03-0.01,0.06-0.02,0.09-0.03c0.04-0.01,0.08-0.03,0.13-0.04
		c0.07-0.03,0.14-0.05,0.2-0.07c-0.12,0.04-0.25,0.09-0.37,0.13C134.77,176.22,134.74,176.23,134.72,176.24z M169.83,76.81
		c-0.03-0.05-0.07-0.1-0.1-0.15c0.05,0.08,0.1,0.16,0.15,0.25C169.87,76.87,169.85,76.84,169.83,76.81z M171.27,79.22
		c-0.38-0.71-0.87-1.52-1.38-2.32c0.45,0.75,0.96,1.59,1.5,2.55C171.35,79.37,171.3,79.29,171.27,79.22z M45.1,116.29
		c-0.03-0.6-0.06-1.2-0.08-1.8C45.04,115.04,45.07,115.65,45.1,116.29z M58.24,72.27c1.11-1.48,2.24-2.87,3.38-4.16
		C60.51,69.32,59.28,70.84,58.24,72.27z M63.12,66.45c-0.32,0.34-0.64,0.7-0.95,1.05c0.44-0.48,0.92-0.99,1.41-1.52
		C63.42,66.14,63.27,66.29,63.12,66.45z M168.39,150.41c0,0,0-0.01,0.01-0.01c-0.04,0.05-0.07,0.11-0.11,0.16
		C168.33,150.51,168.36,150.45,168.39,150.41z M168.4,150.4c0.08-0.12,0.16-0.24,0.25-0.36c-0.08,0.12-0.16,0.23-0.24,0.35
		C168.41,150.39,168.4,150.39,168.4,150.4z M89.43,175.94c0.02,0.01,0.04,0.01,0.05,0.02c-0.06-0.02-0.12-0.04-0.19-0.07
		C89.34,175.9,89.39,175.93,89.43,175.94z M149.37,169.04c-0.12,0.08-0.26,0.16-0.38,0.24c-0.24,0.15-0.49,0.3-0.74,0.46
		c-0.24,0.15-0.47,0.3-0.71,0.44l-0.21,0.13l-0.03,0.01c-1.34,0.75-2.7,1.44-4.08,2.1c-0.1,0.05-0.21,0.09-0.31,0.14
		c-0.36,0.17-0.72,0.33-1.08,0.49c-0.25,0.11-0.49,0.22-0.74,0.33c-1.03,0.44-2.06,0.86-3.11,1.25c-8.2,3.1-16.87,4.66-25.54,4.66
		c-8.38,0-16.75-1.45-24.68-4.35c-0.49-0.18-0.97-0.37-1.46-0.55c-0.55-0.21-1.09-0.44-1.63-0.67c-0.54-0.23-1.07-0.46-1.61-0.7
		c-0.6-0.27-1.2-0.55-1.8-0.84c-1.09-0.53-2.16-1.08-3.22-1.67c-0.17-0.09-0.34-0.18-0.5-0.27c0,0-0.01,0-0.01,0
		s0.01,0.01,0.02,0.01c0.57,0.32,1.22,0.7,1.88,1.08c0.51,0.29,1,0.57,1.47,0.82c-0.96-0.51-2.04-1.12-3.24-1.82
		c-0.05-0.03-0.1-0.06-0.15-0.09c0,0,0,0,0,0c0,0,0.01,0,0.01,0.01c0,0-0.01,0-0.01-0.01l0,0h0c-0.11-0.07-0.23-0.14-0.35-0.21
		c0.41,0.27,1.87,1.17,4.22,2.39l0.04,0.02c0.08,0.04,0.16,0.08,0.24,0.12c-0.06-0.03-0.12-0.06-0.19-0.1l-0.03-0.01
		c0.04,0.02,0.08,0.04,0.13,0.06c0.14,0.07,0.3,0.14,0.44,0.21c0.71,0.34,1.47,0.7,2.25,1.06c0.78,0.36,1.54,0.71,2.26,1.02
		c-0.32-0.14-0.63-0.25-0.96-0.4c0.26,0.11,0.53,0.22,0.82,0.34c0.1,0.04,0.21,0.09,0.32,0.13c0.01,0,0.02,0.01,0.04,0.01
		c0.02,0.01,0.04,0.02,0.07,0.03c0.09,0.04,0.19,0.08,0.28,0.12c-0.07-0.03-0.14-0.07-0.21-0.1c0.14,0.06,0.27,0.11,0.41,0.17
		c0.23,0.1,0.46,0.19,0.69,0.28c-0.17-0.06-0.34-0.14-0.51-0.21c0.08,0.03,0.16,0.06,0.24,0.09c0.06,0.02,0.11,0.04,0.17,0.06
		c0.22,0.09,0.44,0.17,0.67,0.26c0.42,0.16,0.84,0.32,1.26,0.47c0.06,0.02,0.12,0.04,0.18,0.06c0.09,0.03,0.17,0.06,0.27,0.09
		c-0.15-0.05-0.3-0.1-0.45-0.15c-0.04-0.01-0.08-0.03-0.12-0.04c-0.06-0.02-0.13-0.04-0.19-0.06c0.7,0.26,1.38,0.49,1.99,0.69
		c0.27,0.09,0.54,0.17,0.79,0.25c0.27,0.08,0.52,0.16,0.76,0.23c0.12,0.03,0.24,0.07,0.36,0.1c0.21,0.06,0.42,0.12,0.62,0.17
		c0.31,0.09,0.63,0.18,0.94,0.26c0.21,0.06,0.41,0.12,0.62,0.17c0.03,0.01,0.06,0.02,0.09,0.02c0.21,0.05,0.42,0.1,0.63,0.15
		l0.07,0.01l0.14,0.04c0.17,0.04,0.34,0.09,0.5,0.13c2.32,0.58,6.21,1.21,7.71,1.35c0.22,0.02,0.46,0.04,0.7,0.06l0.16,0.02
		c0.09,0.01,0.18,0.02,0.27,0.03c0.18,0.02,0.36,0.04,0.55,0.05c0.03,0,0.06,0,0.09,0.01c0.71,0.06,1.42,0.12,2.13,0.16
		c0.01,0,0.02,0,0.04,0c0.05,0,0.09,0,0.14,0.01c0.12,0,0.24,0.01,0.36,0.01c0.57,0.03,1.15,0.05,1.72,0.06
		c0.18,0,0.36,0.02,0.55,0.02h0.01c0.09,0,0.18,0.01,0.26,0.01c1.18,0.04,2.75,0,3.93-0.06c1.17-0.06,2.73-0.14,3.89-0.29
		c0.01,0,0.02,0,0.03,0l0.22-0.03c0.13-0.02,0.26-0.03,0.39-0.05c0.1-0.01,0.2-0.03,0.3-0.04l0.07-0.01
		c0.06-0.01,0.12-0.02,0.17-0.02c0.59-0.07,1.17-0.15,1.74-0.24c0.16-0.02,0.32-0.04,0.48-0.07c0.04-0.01,0.09-0.02,0.13-0.02
		c1.31-0.2,2.61-0.43,3.91-0.71l0.1-0.02l0.2-0.04l0.24-0.06l2.75-0.69l0.11-0.03l0.21-0.05l0.02-0.01l-0.19,0.05l-0.06,0.01
		c-0.3,0.07-0.6,0.15-0.93,0.23c-0.63,0.16-1.3,0.3-1.95,0.45c-3.62,0.8-8.71,1.66-14.96,1.66c-2.68,0-5.58-0.16-8.66-0.55
		c1.93,0.25,4.15,0.46,6.6,0.54c-0.15,0-0.3,0-0.45-0.01c-1.32-0.07-2.74-0.16-4.03-0.27c-0.67-0.06-1.33-0.14-2-0.22
		c-0.77-0.1-1.55-0.2-2.3-0.33c-0.52-0.08-1.05-0.19-1.57-0.29c0.84,0.15,1.79,0.3,2.83,0.44c-1.41-0.2-2.87-0.46-4.36-0.76
		c-0.77-0.16-1.54-0.33-2.33-0.52c-0.29-0.07-0.58-0.14-0.88-0.21c-0.16-0.05-0.33-0.09-0.5-0.14c-0.04-0.01-0.07-0.02-0.11-0.03
		c-0.48-0.14-0.97-0.28-1.46-0.43c0.17,0.05,0.34,0.09,0.52,0.14c0.88,0.24,1.77,0.47,2.68,0.69c2.86,0.67,5.83,1.17,8.89,1.47
		c2.05,0.2,4.13,0.33,6.25,0.35c0.3,0,0.61,0.01,0.91,0.01c5.6,0,10.98-0.64,16.03-1.82c0.9-0.21,1.78-0.45,2.66-0.69
		c0.9-0.25,1.79-0.52,2.67-0.81c0.11-0.04,0.23-0.07,0.34-0.11c0.17-0.06,0.35-0.11,0.53-0.17c0.18-0.07,0.37-0.13,0.55-0.2
		c0.22-0.08,0.43-0.16,0.65-0.24l0.13-0.05c-0.27,0.1-0.53,0.21-0.81,0.32c-0.04,0.01-0.07,0.03-0.11,0.04
		c0.07-0.03,0.15-0.06,0.22-0.08c0.92-0.33,1.77-0.66,2.56-0.98c0.18-0.08,0.36-0.17,0.54-0.25c-0.17,0.08-0.32,0.16-0.49,0.23
		c-0.02,0.01-0.03,0.02-0.05,0.02l0.1-0.04c2.08-0.85,3.69-1.62,4.61-2.09c0.2-0.1,0.4-0.21,0.61-0.32
		c0.28-0.15,0.58-0.31,0.88-0.47l-0.11,0.05l-0.12,0.06c0.39-0.21,0.78-0.42,1.18-0.64c0.19-0.1,0.37-0.2,0.55-0.3
		c-0.38,0.21-0.74,0.42-1.12,0.63c-0.13,0.07-0.25,0.13-0.38,0.2c-0.52,0.28-1.03,0.56-1.49,0.8c0.68-0.32,1.44-0.73,2.2-1.16
		c0.54-0.29,1.07-0.59,1.53-0.85c0.13-0.08,0.29-0.17,0.43-0.25c0.05-0.03,0.1-0.06,0.14-0.08c0.46-0.26,0.95-0.56,1.46-0.88
		c0.71-0.44,1.41-0.89,2.01-1.32c0.06-0.04,0.12-0.08,0.17-0.12c0.05-0.04,0.12-0.08,0.17-0.13c-0.37,0.25-0.74,0.51-1.14,0.77
		C149.54,168.93,149.46,168.98,149.37,169.04z M115.73,179.9l0.18-0.01c0.03,0,0.05,0,0.08,0c-0.1,0-0.19,0.01-0.29,0.01
		L115.73,179.9z M115.23,179.92c0.13,0,0.26-0.01,0.39-0.02c-0.24,0.01-0.48,0.02-0.71,0.03
		C115.01,179.93,115.12,179.93,115.23,179.92z M98.41,178.5c0.04,0.01,0.09,0.02,0.13,0.03c-0.17-0.03-0.33-0.06-0.49-0.09
		C98.17,178.46,98.29,178.48,98.41,178.5z M154.2,165.58c0.19-0.15,0.4-0.32,0.6-0.49c-0.63,0.49-1.34,1.04-2.03,1.57
		C153.28,166.29,153.78,165.92,154.2,165.58z M105.79,45.33c0.73-0.05,1.52-0.1,2.34-0.14c1.17-0.06,2.39-0.11,3.53-0.15
		c0.2-0.01,0.4-0.01,0.6-0.02c-0.84,0-1.66,0.02-2.42,0.03c-0.14,0-0.29,0.01-0.43,0.01c-0.6,0.01-1.29,0.06-1.98,0.12
		c-0.66,0.06-1.31,0.12-1.88,0.16c-0.05,0-0.1,0.01-0.14,0.01c-0.01,0-0.03,0-0.04,0c-0.04,0-0.08,0.01-0.12,0.01
		c-0.04,0-0.08,0.01-0.12,0.01c-0.07,0.01-0.15,0.02-0.23,0.02c-0.06,0.01-0.13,0.02-0.19,0.02c-0.06,0.01-0.12,0.01-0.19,0.02
		c-0.08,0.01-0.17,0.02-0.25,0.03c-0.06,0.01-0.12,0.02-0.19,0.02c-0.08,0.01-0.16,0.02-0.24,0.03c-0.09,0.01-0.19,0.02-0.28,0.04
		l-0.01,0c-0.05,0.01-0.09,0.01-0.14,0.02c0.05-0.01,0.1-0.01,0.15-0.02C104.28,45.48,105.03,45.4,105.79,45.33z M127.84,46.75
		c-0.08-0.02-0.16-0.04-0.24-0.06c-0.09-0.02-0.18-0.04-0.26-0.06l-0.05-0.01c-0.09-0.02-0.19-0.04-0.28-0.06
		c-0.05-0.01-0.1-0.02-0.16-0.03c-0.18-0.04-0.37-0.08-0.55-0.12c-0.21-0.04-0.43-0.1-0.64-0.14l-0.07-0.02l-0.01,0
		c-0.27-0.05-0.52-0.1-0.79-0.15c0.19,0.04,0.38,0.07,0.57,0.11c0.19,0.04,0.37,0.07,0.56,0.11l0.07,0.01
		c0.05,0.01,0.1,0.02,0.15,0.03l1.61,0.35l-0.11-0.03C127.7,46.72,127.77,46.73,127.84,46.75z M158.27,162.12
		c0.09-0.08,0.19-0.17,0.27-0.25c0.23-0.22,0.49-0.46,0.75-0.71c-0.21,0.2-0.42,0.4-0.63,0.6C158.53,161.88,158.4,162,158.27,162.12
		z M46.25,125.49c0,0.01,0,0.01,0,0.01c0,0,0,0.01,0,0.01c0.08,0.4,0.16,0.8,0.24,1.19c-0.08-0.39-0.16-0.79-0.24-1.19
		C46.26,125.5,46.25,125.49,46.25,125.49z M47.15,95.62c-0.07,0.28-0.13,0.55-0.19,0.83c0.16-0.65,0.32-1.3,0.5-1.94
		C47.34,94.88,47.25,95.25,47.15,95.62z M60.66,155.75c-0.03-0.03-0.06-0.07-0.08-0.1c0.04,0.05,0.09,0.11,0.13,0.16
		c0.09,0.11,0.18,0.22,0.27,0.32c0.36,0.43,0.78,0.91,1.22,1.39c0.01,0.02,0.03,0.03,0.04,0.04c-0.01-0.01-0.02-0.03-0.04-0.04
		C61.67,156.94,61.16,156.35,60.66,155.75z M62.23,157.57c0.01,0.01,0.02,0.02,0.02,0.03l0,0l0,0
		C62.25,157.58,62.24,157.57,62.23,157.57z M62.25,157.59C62.25,157.59,62.26,157.6,62.25,157.59c0.66,0.74,1.34,1.47,1.94,2.07
		c0.04,0.04,0.08,0.08,0.12,0.12c-0.14-0.14-0.27-0.28-0.41-0.42C63.35,158.78,62.8,158.2,62.25,157.59z M171.81,80.21l-0.01-0.01
		L171.81,80.21L171.81,80.21z M173.67,141.1l-0.13,0.23c-0.05,0.08-0.09,0.17-0.14,0.25c-0.1,0.19-0.21,0.37-0.32,0.56
		c-0.55,0.97-1.11,1.92-1.71,2.84c-0.48,0.74-0.99,1.46-1.5,2.17c-0.74,1.01-1.51,1.99-2.32,2.93c-0.36,0.42-0.73,0.83-1.1,1.24
		c-0.23,0.25-0.45,0.5-0.68,0.74c-1,1.06-2.04,2.07-3.11,3.03c-0.94,0.84-1.91,1.64-2.9,2.42c-0.62,0.48-1.25,0.96-1.89,1.41
		c-0.24,0.17-0.48,0.35-0.72,0.52c-0.55,0.38-1.11,0.75-1.67,1.11c-0.28,0.18-0.56,0.35-0.84,0.53
		c-11.87,7.37-26.61,10.83-41.31,10.83c-15.52,0-30.99-3.85-43-11.01c-0.37-0.22-0.74-0.44-1.1-0.67c-0.56-0.35-1.12-0.71-1.66-1.08
		c-0.09-0.06-0.19-0.12-0.28-0.18c-0.71-0.48-1.4-0.98-2.08-1.48c-0.84-0.63-1.66-1.28-2.46-1.95c-1.17-0.98-2.28-2-3.33-3.06
		l-0.23-0.22c-0.46-0.47-0.91-0.95-1.35-1.44c-0.4-0.44-0.78-0.89-1.16-1.35c0.4,0.5,0.8,0.99,1.22,1.47
		c0.48,0.56,0.98,1.12,1.48,1.66l0.22,0.24c1.15,1.22,2.36,2.38,3.62,3.48c0.84,0.73,1.7,1.43,2.58,2.12
		c0.71,0.55,1.43,1.08,2.17,1.6c0.09,0.06,0.17,0.13,0.26,0.19c0.59,0.41,1.19,0.81,1.8,1.2c0.4,0.25,0.79,0.5,1.19,0.75
		c11.73,7.15,26.1,10.51,40.42,10.51c15.34,0,30.62-3.84,42.56-10.99c0.29-0.18,0.59-0.35,0.88-0.53c0.55-0.34,1.08-0.69,1.62-1.04
		c0.25-0.16,0.49-0.33,0.73-0.5c0.63-0.43,1.24-0.87,1.84-1.32c0.99-0.74,1.95-1.5,2.87-2.29c1.05-0.9,2.05-1.83,3.01-2.8
		c0.21-0.22,0.42-0.43,0.63-0.65c0.37-0.39,0.73-0.78,1.09-1.18c0.79-0.88,1.54-1.79,2.24-2.73c0.53-0.7,1.04-1.42,1.52-2.15
		c0.58-0.87,1.12-1.77,1.63-2.68c0.09-0.16,0.18-0.32,0.27-0.48c0.12-0.22,0.24-0.43,0.35-0.65c-0.03,0.06-0.06,0.12-0.09,0.18
		c0.05-0.09,0.1-0.18,0.14-0.27c0.01-0.02,0.02-0.05,0.04-0.07l-0.01,0.01l0.01-0.02c0.1-0.19,0.2-0.39,0.29-0.59
		c0.11-0.22,0.22-0.44,0.32-0.67c0.07-0.15,0.14-0.31,0.21-0.47c-0.03,0.07-0.07,0.15-0.1,0.22L173.67,141.1z M128.01,46.79
		l-0.08-0.02l-0.18-0.04c0.37,0.09,0.73,0.18,1.09,0.27l-0.76-0.19L128.01,46.79z M51.8,142.04c-0.16-0.32-0.33-0.64-0.48-0.96
		l-0.02-0.05l0.01,0.03c0-0.01-0.01-0.01-0.01-0.01c0.02,0.04,0.04,0.08,0.06,0.13l0.03,0.05l0,0.01c0.02,0.05,0.05,0.1,0.07,0.15
		c0.09,0.2,0.19,0.39,0.29,0.59l0.3,0.63c-0.01-0.01-0.01-0.03-0.02-0.04c0.16,0.32,0.31,0.65,0.47,0.96
		c0.26,0.5,0.53,1.01,0.82,1.52c0.14,0.25,0.28,0.5,0.42,0.73c0.04,0.06,0.07,0.13,0.11,0.18c0.07,0.11,0.13,0.22,0.2,0.33
		c-0.04-0.06-0.07-0.12-0.11-0.18c-0.13-0.23-0.27-0.46-0.4-0.69c-0.02-0.03-0.03-0.07-0.05-0.1l0-0.01
		c0.26,0.43,0.54,0.89,0.83,1.37c0.29,0.48,0.59,0.97,0.9,1.47c0.22,0.36,0.45,0.72,0.67,1.08c0.29,0.45,0.57,0.9,0.85,1.31
		l0.02,0.04c0,0,0.01,0.01,0.01,0.01l0.03,0.04c0.13,0.19,0.26,0.37,0.39,0.56l0.15,0.19c0.03,0.04,0.05,0.07,0.08,0.11
		c0.45,0.58,0.92,1.14,1.39,1.7c0.53,0.63,1.07,1.24,1.63,1.83c0.57,0.62,1.15,1.22,1.75,1.8l0.15,0.15
		c1.28,1.26,2.61,2.44,3.99,3.56c0.84,0.68,1.7,1.35,2.57,1.98c0.8,0.58,1.62,1.14,2.45,1.69l0.03,0.02
		c0.72,0.47,1.44,0.92,2.18,1.36c0.46,0.27,0.93,0.54,1.4,0.8c11.23,6.31,24.4,9.25,37.41,9.25c13.44,0,26.72-3.14,37.55-8.96
		c0.5-0.27,1-0.55,1.5-0.83c0.46-0.27,0.92-0.53,1.37-0.81c0.26-0.16,0.51-0.32,0.77-0.47c0.66-0.41,1.31-0.84,1.94-1.27
		c1.1-0.75,2.15-1.54,3.17-2.35c1.13-0.9,2.21-1.84,3.24-2.82c0.23-0.22,0.46-0.44,0.68-0.66c0.37-0.37,0.73-0.73,1.09-1.11
		c0.53-0.56,1.04-1.13,1.53-1.71c0.3-0.35,0.6-0.7,0.89-1.06l0.12-0.16c-0.06,0.07-0.11,0.14-0.17,0.22
		c-0.5,0.65-1.02,1.3-1.58,1.98c-0.17,0.18-0.35,0.35-0.52,0.54c-0.21,0.23-0.43,0.45-0.64,0.67c-0.41,0.42-0.81,0.86-1.24,1.27
		c-0.2,0.19-0.41,0.37-0.61,0.56c-1.09,1.03-2.22,2.01-3.39,2.95c-1.14,0.92-2.31,1.8-3.52,2.64c-0.67,0.47-1.35,0.91-2.04,1.35
		c-0.28,0.18-0.57,0.36-0.86,0.54c-0.46,0.28-0.93,0.57-1.4,0.84c-0.59,0.34-1.18,0.67-1.78,0.99c-10.87,5.86-23.56,8.79-36.22,8.79
		c-12.2,0-24.37-2.72-34.85-8.17c-0.54-0.28-1.08-0.59-1.61-0.89c-0.7-0.39-1.4-0.78-2.08-1.19c-0.1-0.06-0.2-0.13-0.3-0.19
		c-0.77-0.47-1.53-0.95-2.28-1.46c-0.89-0.6-1.75-1.23-2.6-1.88c-1.5-1.14-2.92-2.35-4.3-3.63l-0.2-0.19
		c-0.61-0.57-1.22-1.16-1.8-1.76c-0.53-0.55-1.06-1.1-1.58-1.67c-0.07-0.08-0.15-0.16-0.22-0.25l-0.13-0.16
		c-0.09-0.11-0.17-0.22-0.26-0.33c0.09,0.12,0.19,0.23,0.28,0.35l0.16,0.19l-0.01-0.02c0.08,0.09,0.16,0.18,0.25,0.28
		c0.65,0.73,1.37,1.54,2.11,2.34c0.29,0.32,0.58,0.63,0.86,0.94c0.36,0.39,0.72,0.77,1.06,1.12l0.14,0.14
		c0.09,0.09,0.17,0.17,0.26,0.26c-0.21-0.21-0.43-0.42-0.64-0.63c0.23,0.23,0.46,0.45,0.68,0.68l0.25,0.25
		c0.09,0.08,0.17,0.17,0.26,0.25c-0.08-0.08-0.16-0.16-0.24-0.24l0.18,0.16c0.26,0.23,0.53,0.45,0.8,0.68l0.07,0.06
		c1.55,1.33,3.12,2.58,4.75,3.73c0.86,0.6,1.72,1.17,2.6,1.73c0.77,0.49,1.55,0.94,2.33,1.39c0.21,0.12,0.42,0.26,0.64,0.37
		c0.66,0.37,1.32,0.71,1.99,1.06c0.61,0.32,1.23,0.64,1.85,0.93c9.96,4.73,20.74,6.76,31.19,6.76c12.03,0,23.62-2.69,33.04-7.02
		c0.69-0.32,1.38-0.64,2.05-0.98c0.37-0.18,0.72-0.38,1.07-0.57c0.27-0.14,0.54-0.28,0.8-0.43c0.51-0.28,1.01-0.57,1.5-0.85
		c1.07-0.62,2.09-1.27,3.07-1.93c-1.2,0.83-2.41,1.63-3.67,2.38c-0.47,0.28-0.96,0.54-1.44,0.81c-0.36,0.21-0.72,0.42-1.09,0.62
		c-0.32,0.17-0.65,0.33-0.97,0.49c-0.82,0.42-1.64,0.83-2.48,1.22c-9.71,4.51-20.55,6.77-31.37,6.77c-10.45,0-20.87-2.1-30.23-6.31
		c-0.55-0.25-1.1-0.49-1.64-0.75c-0.67-0.32-1.32-0.66-1.97-1c-0.24-0.13-0.49-0.24-0.72-0.37c-0.79-0.43-1.56-0.87-2.32-1.33
		c-0.89-0.53-1.77-1.09-2.64-1.66c-1.52-1.02-2.99-2.1-4.42-3.26l-0.22-0.17l-0.11-0.09c0.18,0.15,0.35,0.3,0.53,0.45l0.05,0.05
		l0.46,0.39c-0.14-0.12-0.28-0.24-0.42-0.36c0.09,0.07,0.18,0.16,0.26,0.23c1.03,0.89,2.46,2,3.56,2.8
		c0.02,0.01,0.04,0.03,0.07,0.05c-0.93-0.68-1.91-1.44-2.93-2.28c1.18,0.9,2.39,1.73,3.61,2.53c0.94,0.62,1.9,1.21,2.87,1.78
		c0.73,0.43,1.47,0.85,2.22,1.25c0.3,0.16,0.61,0.32,0.91,0.48c0.65,0.33,1.29,0.65,1.94,0.96c0.62,0.29,1.23,0.59,1.85,0.86
		c9.42,4.13,19.48,5.98,29.28,5.98c10.61,0,20.9-2.17,29.73-5.97c0.86-0.37,1.7-0.75,2.53-1.15c0.32-0.16,0.64-0.32,0.95-0.48
		c0.32-0.16,0.63-0.32,0.94-0.48c0.37-0.2,0.74-0.39,1.11-0.59c1.69-0.93,3.31-1.93,4.84-2.99c0.99-0.68,1.95-1.38,2.86-2.11
		l0.18-0.14l0.01-0.01l0.02-0.01l0.78-0.66l0.27-0.23l0.49-0.41c0.02-0.01,0.03-0.02,0.04-0.04l0.01-0.01l-0.02,0.02l-0.07,0.05
		l-0.06,0.04c-0.2,0.16-0.41,0.31-0.61,0.47c0.34-0.27,0.67-0.55,1-0.83c0.1-0.08,0.2-0.16,0.3-0.25l0.16-0.13l0.02-0.02l0.05-0.04
		l0.01-0.01l0.1-0.1l0.1-0.1c0.24-0.22,0.47-0.44,0.7-0.66c0.19-0.18,0.4-0.37,0.59-0.55c-0.01,0.01-0.01,0.01-0.02,0.02
		c0.01-0.01,0.02-0.02,0.03-0.02c0.1-0.09,0.19-0.18,0.28-0.27h0l0.07-0.08c0.7-0.73,1.48-1.56,2.27-2.4l0.06-0.07l0.11-0.12
		l0.02-0.02l0.02-0.02c0.59-0.63,1.17-1.27,1.71-1.88c-0.31,0.37-0.62,0.73-0.95,1.1c-0.05,0.05-0.09,0.1-0.14,0.16
		c-0.18,0.21-0.38,0.42-0.57,0.62c-0.43,0.46-0.87,0.93-1.31,1.39c-0.21,0.21-0.42,0.43-0.63,0.64c-0.05,0.05-0.09,0.09-0.14,0.14
		c0.03-0.03,0.06-0.06,0.09-0.09c0.07-0.07,0.14-0.14,0.21-0.21c0.07-0.07,0.13-0.13,0.19-0.19c0.43-0.44,0.86-0.87,1.21-1.26
		c0.22-0.24,0.46-0.51,0.69-0.77c0.18-0.2,0.37-0.4,0.54-0.58c0.85-0.91,1.78-2.06,2.66-3.21c0.14-0.18,0.29-0.36,0.41-0.53
		c0.48-0.64,1.04-1.4,1.58-2.16v0c-0.04,0.06-0.09,0.12-0.14,0.19c0.09-0.13,0.18-0.25,0.27-0.37c0.13-0.2,0.26-0.4,0.39-0.61
		c0.19-0.3,0.4-0.62,0.6-0.94c0.19-0.3,0.38-0.6,0.58-0.91c0.1-0.16,0.21-0.33,0.31-0.49c0.18-0.29,0.37-0.58,0.54-0.87
		c0.12-0.19,0.23-0.37,0.34-0.56c0.29-0.47,0.56-0.92,0.81-1.35l0.06-0.11c-0.08,0.12-0.15,0.24-0.23,0.36
		c-0.04,0.06-0.08,0.12-0.11,0.17c-0.27,0.43-0.55,0.85-0.83,1.27c-0.46,0.67-0.94,1.33-1.43,1.97c-0.75,0.99-1.53,1.95-2.35,2.88
		c-0.35,0.4-0.71,0.78-1.07,1.17c-0.22,0.24-0.45,0.48-0.68,0.71c-1.02,1.05-2.08,2.05-3.18,3.01c-0.97,0.85-1.96,1.67-2.99,2.45
		c-0.63,0.49-1.28,0.95-1.94,1.42c-0.25,0.18-0.51,0.36-0.77,0.53c-0.53,0.36-1.07,0.71-1.61,1.06c-0.35,0.22-0.7,0.44-1.05,0.65
		c-11.86,7.2-26.52,10.81-41.13,10.81c-14.19,0-28.33-3.4-39.85-10.19c-0.41-0.24-0.82-0.49-1.23-0.74
		c-0.65-0.4-1.28-0.81-1.91-1.23l-0.16-0.11c-0.76-0.52-1.5-1.06-2.24-1.61c-0.87-0.65-1.72-1.32-2.54-2.02
		c-1.29-1.09-2.53-2.25-3.71-3.45l-0.1-0.11c-0.56-0.57-1.1-1.16-1.63-1.75c-0.57-0.64-1.13-1.3-1.66-1.97
		c-0.56-0.7-1.1-1.42-1.62-2.15c-0.52-0.73-1.02-1.47-1.5-2.23c-0.19-0.3-0.37-0.6-0.55-0.9l-0.05-0.1
		c-0.21-0.37-0.41-0.75-0.61-1.12c-0.15-0.27-0.29-0.55-0.43-0.82c-0.09-0.18-0.18-0.37-0.27-0.55c0.09,0.17,0.19,0.33,0.29,0.5
		c0.05,0.08,0.1,0.17,0.15,0.25c-0.1-0.18-0.2-0.36-0.3-0.54C52.09,142.61,51.94,142.33,51.8,142.04z M164.32,155.76
		c0.01-0.01,0.01-0.02,0.02-0.02c0.11-0.12,0.22-0.25,0.32-0.36C164.55,155.5,164.43,155.63,164.32,155.76z M56.73,150.56
		L56.73,150.56c0-0.01-0.01-0.01-0.01-0.01C56.73,150.55,56.73,150.55,56.73,150.56z M56.53,150.26c-0.14-0.21-0.29-0.42-0.43-0.63
		c-0.05-0.08-0.1-0.16-0.15-0.24c-0.2-0.31-0.39-0.62-0.59-0.92c-0.05-0.08-0.1-0.15-0.15-0.23c-0.15-0.23-0.3-0.46-0.44-0.7
		c0.16,0.26,0.33,0.52,0.49,0.78c0.08,0.14,0.17,0.27,0.25,0.4c0.2,0.32,0.4,0.63,0.6,0.92c0.04,0.07,0.09,0.14,0.13,0.2
		c0.04,0.07,0.09,0.14,0.13,0.2c0.08,0.12,0.17,0.24,0.25,0.36c0.01,0.01,0.02,0.02,0.02,0.03c0.03,0.04,0.05,0.07,0.07,0.11
		c-0.01-0.02-0.02-0.04-0.04-0.05C56.64,150.41,56.58,150.34,56.53,150.26z M81.52,52.95c2.15-1.22,4.49-2.36,7.03-3.4
		c1.05-0.43,2.13-0.84,3.25-1.23c-1.41,0.47-2.77,0.98-4.08,1.53c-2.32,0.97-4.5,2.05-6.52,3.24c-0.31,0.18-0.61,0.37-0.91,0.56
		c-0.55,0.34-1.08,0.68-1.6,1.04c0.55-0.37,1.12-0.73,1.7-1.08C80.76,53.39,81.14,53.17,81.52,52.95z M45.01,113.85
		c0-0.2,0-0.4,0-0.6c0-0.28-0.01-0.56,0-0.84c0-0.16-0.01-0.32,0-0.48c-0.01,0.58-0.01,1.28,0.01,2.08
		C45.01,113.96,45.02,113.91,45.01,113.85l0.01,0.16c0.02,0.4,0.05,0.86,0.09,1.39c-0.03-0.49-0.06-0.96-0.09-1.4L45.01,113.85z
		 M179.98,114.01l0,0.02c-0.1,1.2-0.26,2.36-0.44,3.51c-0.26,1.61-0.61,3.18-1.03,4.71c-0.32,1.14-0.67,2.26-1.07,3.35
		c-0.17,0.45-0.35,0.88-0.52,1.32c-0.12,0.3-0.24,0.59-0.37,0.88c-0.2,0.46-0.41,0.91-0.63,1.36c-0.51,1.06-1.07,2.1-1.66,3.11
		c-0.45,0.76-0.92,1.51-1.41,2.25c-0.45,0.66-0.91,1.32-1.4,1.96l-0.07,0.09l0,0c-0.22,0.28-0.43,0.57-0.65,0.84
		c-0.32,0.4-0.65,0.8-0.99,1.2c-0.2,0.23-0.4,0.45-0.6,0.68c-0.9,1.01-1.83,1.99-2.82,2.92c-0.89,0.85-1.82,1.66-2.78,2.45
		c-0.51,0.42-1.03,0.83-1.56,1.24c-0.22,0.16-0.43,0.33-0.65,0.5c-0.48,0.35-0.96,0.7-1.45,1.03c-0.22,0.15-0.43,0.3-0.65,0.45
		c-12.6,8.5-29.45,12.8-46.39,12.8c-17.01,0-34.11-4.33-47.09-13.09c-0.23-0.16-0.47-0.31-0.7-0.47c-0.47-0.32-0.92-0.66-1.37-0.99
		c-0.16-0.12-0.32-0.23-0.48-0.35c-0.61-0.46-1.21-0.93-1.8-1.42c-0.91-0.74-1.79-1.52-2.64-2.31c-1-0.93-1.97-1.9-2.89-2.91
		c-0.27-0.29-0.52-0.59-0.78-0.88c-0.19-0.22-0.39-0.44-0.58-0.66c-0.09-0.11-0.17-0.21-0.25-0.32c-0.75-0.91-1.44-1.81-2.07-2.71
		c-0.49-0.69-0.95-1.37-1.37-2.05c-0.57-0.91-1.09-1.81-1.55-2.69c-0.29-0.56-0.57-1.11-0.82-1.66l-0.09-0.21
		c-0.24-0.53-0.47-1.05-0.67-1.55c-0.39-0.98-0.72-1.92-1-2.83c-0.62-1.98-1-3.78-1.23-5.33c-0.16-1.07-0.26-2.02-0.33-2.83
		c0.06,0.96,0.14,1.96,0.22,2.98c0.09,1.03,0.19,2.04,0.29,3.01c0.03,0.3,0.06,0.59,0.09,0.85c0.02,0.16,0.04,0.32,0.06,0.48
		c0.01,0.03,0.01,0.05,0.01,0.07l0.01,0.05c0.03,0.2,0.06,0.39,0.1,0.59c0.06,0.39,0.13,0.78,0.2,1.16
		c-0.05-0.28-0.09-0.57-0.14-0.86c-0.04-0.23-0.08-0.47-0.12-0.7c0.33,1.53,0.73,3.01,1.2,4.46c0.31,0.96,0.66,1.9,1.03,2.83
		c0.23,0.58,0.46,1.15,0.71,1.71l0.03,0.07c0.29,0.64,0.59,1.28,0.91,1.9c0.49,0.96,1.02,1.89,1.57,2.8
		c0.45,0.75,0.92,1.48,1.41,2.19c0.64,0.93,1.31,1.85,2.01,2.73c0.3,0.38,0.62,0.74,0.93,1.1c0.23,0.27,0.45,0.53,0.68,0.79
		c0.95,1.07,1.95,2.09,2.99,3.08c0.83,0.78,1.7,1.54,2.6,2.27c0.62,0.51,1.24,1,1.88,1.48c0.15,0.11,0.3,0.23,0.45,0.34
		c0.46,0.34,0.92,0.67,1.39,0.99c0.28,0.19,0.55,0.39,0.83,0.58c12.5,8.34,28.97,12.44,45.48,12.44c16.96,0,33.97-4.32,46.79-12.79
		c0.15-0.1,0.3-0.21,0.46-0.31c0.55-0.37,1.1-0.75,1.63-1.14c0.22-0.16,0.43-0.32,0.65-0.48c0.53-0.4,1.06-0.8,1.58-1.22
		c0.96-0.77,1.9-1.57,2.8-2.39c0.98-0.9,1.93-1.84,2.83-2.81c0.21-0.22,0.4-0.45,0.6-0.68c0.33-0.37,0.67-0.75,0.99-1.13
		c0.76-0.9,1.47-1.84,2.15-2.79c0.17-0.23,0.34-0.46,0.5-0.7c0.32-0.47,0.63-0.93,0.91-1.4c0.64-1.02,1.2-2.01,1.69-2.97
		c0.22-0.43,0.43-0.86,0.63-1.28c0.12-0.25,0.24-0.5,0.35-0.75c0.2-0.46,0.39-0.91,0.57-1.35c0.45-1.13,0.81-2.18,1.09-3.13
		c0.31-1.03,0.53-1.95,0.69-2.72c0.05-0.24,0.1-0.48,0.14-0.69c0-0.03,0.01-0.05,0.01-0.07c-0.06,0.38-0.12,0.75-0.18,1.11
		c-0.19,1.08-0.47,2.3-0.78,3.53c-0.22,0.88-0.46,1.76-0.71,2.63c-0.12,0.41-0.24,0.81-0.36,1.21c-0.03,0.08-0.06,0.16-0.09,0.24
		c-0.19,0.5-0.39,1-0.59,1.49c-0.18,0.43-0.37,0.85-0.56,1.27c-0.12,0.27-0.24,0.54-0.37,0.81c-0.2,0.43-0.42,0.85-0.63,1.28
		c-0.57,1.13-1.18,2.23-1.83,3.29c-0.47,0.76-0.96,1.5-1.47,2.23c-0.72,1.03-1.47,2.03-2.26,2.99c-0.34,0.41-0.68,0.81-1.03,1.22
		c-0.21,0.24-0.41,0.48-0.62,0.71c-0.95,1.05-1.95,2.05-2.98,3.02c-0.91,0.85-1.86,1.67-2.83,2.46c-0.56,0.45-1.13,0.9-1.72,1.34
		c-0.23,0.17-0.46,0.34-0.69,0.5c-0.56,0.41-1.13,0.8-1.71,1.19c-0.18,0.12-0.37,0.25-0.56,0.37c-12.24,8-27.95,11.81-43.67,11.81
		c-16.44,0-32.9-4.16-45.42-12.04c-0.32-0.2-0.64-0.41-0.96-0.62c-0.5-0.33-0.99-0.66-1.47-1c-0.13-0.09-0.26-0.18-0.39-0.28
		c-0.66-0.47-1.3-0.95-1.94-1.44c-0.87-0.68-1.72-1.38-2.54-2.1c-1.09-0.96-2.13-1.95-3.11-2.99c-0.17-0.18-0.34-0.36-0.5-0.54
		c-0.37-0.4-0.73-0.8-1.08-1.21c-0.63-0.73-1.23-1.48-1.81-2.24c-0.49-0.65-0.97-1.32-1.42-2c-0.58-0.86-1.11-1.74-1.62-2.65
		c-0.23-0.42-0.47-0.83-0.69-1.26c-0.1-0.19-0.19-0.39-0.29-0.59l-0.01-0.03c-0.27-0.57-0.54-1.19-0.81-1.83
		c-0.32-0.78-0.63-1.58-0.91-2.34c-0.08-0.21-0.15-0.42-0.23-0.63c-0.08-0.22-0.16-0.43-0.23-0.64l-0.02-0.06
		c-0.02-0.07-0.04-0.14-0.06-0.21c0.01,0.04,0.02,0.08,0.03,0.11c0.01,0.04,0.02,0.07,0.03,0.11l0,0l0,0.01
		c0.71,2.35,1.43,4.26,1.98,5.6c0.07,0.16,0.14,0.33,0.21,0.5l0.02,0.04c0,0.01,0.01,0.02,0.01,0.03l0.04,0.1l0.01,0.02
		c0.08,0.17,0.17,0.34,0.25,0.51c0.12,0.22,0.23,0.45,0.35,0.67l0.13,0.25c0.31,0.61,0.64,1.2,0.97,1.79
		c0.57,1.01,1.17,1.99,1.8,2.95c0.5,0.75,1.01,1.48,1.54,2.2c0.59,0.79,1.2,1.56,1.82,2.31c0.43,0.52,0.88,1.04,1.33,1.54
		c0.11,0.13,0.23,0.25,0.35,0.38c1.11,1.2,2.26,2.35,3.47,3.44c0.85,0.77,1.73,1.53,2.63,2.25c0.69,0.55,1.4,1.08,2.11,1.6
		c0.1,0.07,0.21,0.14,0.31,0.22c0.56,0.4,1.13,0.79,1.7,1.17c0.37,0.24,0.74,0.48,1.11,0.71c11.89,7.5,26.64,11,41.37,11
		c15.89,0,31.75-4.08,43.98-11.62c0.25-0.15,0.49-0.31,0.74-0.47c0.56-0.36,1.11-0.72,1.66-1.09c0.23-0.16,0.46-0.31,0.68-0.47
		c0.6-0.42,1.2-0.86,1.78-1.3c0.98-0.75,1.93-1.53,2.85-2.33c1.04-0.91,2.03-1.84,2.97-2.82c0.2-0.21,0.41-0.42,0.6-0.63
		c0.36-0.38,0.71-0.78,1.05-1.17c0.79-0.9,1.54-1.83,2.25-2.78c0.52-0.7,1.02-1.41,1.49-2.14c0.63-0.97,1.22-1.96,1.76-2.98
		c0.21-0.4,0.42-0.8,0.63-1.2l0,0c0.18-0.37,0.35-0.74,0.52-1.12l0.06-0.13c0.11-0.26,0.24-0.51,0.35-0.77
		c0.16-0.43,0.33-0.89,0.51-1.37c0.22-0.58,0.44-1.18,0.66-1.78l0.01-0.03c0.11-0.29,0.21-0.58,0.31-0.86
		c0.03-0.08,0.06-0.17,0.09-0.25c0.13-0.36,0.25-0.71,0.37-1.06c-0.02,0.05-0.03,0.11-0.05,0.16c0.05-0.13,0.09-0.27,0.14-0.4
		c0.06-0.16,0.11-0.33,0.17-0.5c0.84-2.53,1.57-5.83,1.99-8.37c0.12-0.72,0.23-1.5,0.33-2.32c0.05-0.41,0.1-0.82,0.14-1.24
		c0.04-0.36,0.07-0.72,0.11-1.08c0.08-0.88,0.16-1.77,0.22-2.63c0-0.04,0.01-0.08,0.01-0.12c0-0.04,0.01-0.07,0.01-0.11
		c0-0.03,0.01-0.06,0.01-0.09c0.02-0.18,0.02-0.36,0.03-0.54c0.02-0.29,0.03-0.59,0.05-0.88c0.02-0.29,0.04-0.57,0.05-0.86l0-0.01
		v-0.02l0-0.18L179.98,114.01L179.98,114.01z M49.83,137.64c-0.07-0.17-0.14-0.33-0.2-0.5c-0.08-0.19-0.15-0.38-0.23-0.58
		c-0.23-0.6-0.45-1.21-0.66-1.81c-0.05-0.16-0.11-0.31-0.16-0.47c-0.2-0.6-0.4-1.21-0.59-1.83l-0.05-0.14l-0.01-0.02
		c0.09,0.27,0.19,0.55,0.29,0.84c0.12,0.33,0.23,0.67,0.35,1.02c0.14,0.4,0.28,0.81,0.43,1.22c0.05,0.14,0.1,0.27,0.15,0.41
		c0.06,0.17,0.12,0.33,0.18,0.5c0.11,0.3,0.22,0.6,0.33,0.89c0.11,0.29,0.22,0.57,0.32,0.84C49.93,137.89,49.88,137.77,49.83,137.64
		z M179.81,116.8c-0.01,0.08-0.02,0.16-0.03,0.24C179.78,116.96,179.8,116.88,179.81,116.8L179.81,116.8z M96.16,47.03
		c0.09-0.02,0.17-0.05,0.26-0.07l0.06-0.01c0.34-0.09,0.7-0.16,1.05-0.24c0.22-0.05,0.45-0.11,0.67-0.16
		c0.13-0.03,0.26-0.06,0.4-0.09c0.11-0.03,0.22-0.05,0.33-0.08c0.13-0.03,0.26-0.06,0.39-0.09l-1.43,0.3l-0.59,0.15l-0.35,0.09
		l-0.47,0.12c-1.01,0.26-2.1,0.57-3.16,0.88l-0.13,0.04c-0.46,0.15-0.91,0.31-1.37,0.47c1.16-0.39,2.35-0.75,3.57-1.08
		C95.64,47.17,95.89,47.1,96.16,47.03z M54.63,146.72c-0.64-0.92-1.25-1.88-1.84-2.85c-0.09-0.14-0.17-0.29-0.26-0.43
		c0.1,0.18,0.2,0.35,0.3,0.53c0.58,0.99,1.2,1.95,1.86,2.89c0.48,0.68,0.97,1.34,1.49,1.99c0.17,0.22,0.34,0.43,0.52,0.64
		c-0.18-0.22-0.36-0.45-0.53-0.68C55.64,148.13,55.13,147.44,54.63,146.72z M91.61,48.33c-0.23,0.07-0.45,0.14-0.67,0.21
		c0,0-0.01,0-0.01,0c-0.21,0.06-0.41,0.13-0.61,0.19c-0.05,0.02-0.1,0.04-0.15,0.05c0.22-0.07,0.46-0.14,0.69-0.22
		C91.11,48.49,91.36,48.41,91.61,48.33z M90.5,53.36c-0.71,0.45-1.4,0.92-2.07,1.41c-1.39,1.04-2.68,2.18-3.83,3.45l-0.19,0.23
		c-0.15,0.17-0.29,0.35-0.44,0.52c-0.35,0.41-0.68,0.82-0.98,1.24c-0.45,0.62-0.86,1.24-1.22,1.87c-0.19,0.32-0.37,0.63-0.53,0.95
		c-0.35,0.68-0.63,1.37-0.88,2.06c-0.06,0.16-0.11,0.32-0.17,0.48c-0.45,1.35-0.71,2.7-0.8,4.05c-0.04,0.6-0.05,1.19-0.02,1.79
		c0.07,1.61,0.38,3.2,0.9,4.75c0.51,1.48,1.21,2.93,2.1,4.31c0.77,1.19,1.66,2.34,2.69,3.43c0.5,0.53,1.03,1.05,1.59,1.55
		c0.2,0.18,0.42,0.36,0.62,0.53c0.54,0.46,1.1,0.9,1.69,1.33c1.48,1.08,3.11,2.06,4.87,2.93c1.59,0.79,3.29,1.48,5.09,2.06
		c2.42,0.78,5.01,1.36,7.74,1.7c1.9,0.24,3.85,0.37,5.87,0.37c0.7,0,1.41-0.02,2.12-0.05c4.21-0.19,8.07-0.9,11.53-2.02
		c1.85-0.59,3.58-1.31,5.2-2.11c1.8-0.89,3.45-1.9,4.94-3c0.57-0.42,1.1-0.85,1.62-1.3c0.29-0.24,0.57-0.49,0.84-0.75
		c0.47-0.44,0.93-0.89,1.36-1.34c0.94-1.01,1.76-2.06,2.47-3.13c0.3-0.45,0.58-0.91,0.84-1.37c0.6-1.08,1.09-2.18,1.45-3.28
		c0.48-1.47,0.75-2.95,0.78-4.41c0-0.1,0.01-0.19,0.01-0.29l0-0.01c-0.02-0.59-0.07-1.17-0.13-1.73c-0.16-1.48-0.47-2.88-0.91-4.21
		c-0.04-0.11-0.08-0.23-0.12-0.34c-0.25-0.7-0.53-1.39-0.85-2.05c-0.15-0.32-0.31-0.63-0.48-0.93c-0.35-0.63-0.72-1.25-1.13-1.84
		c-0.38-0.54-0.78-1.07-1.2-1.58l-0.12-0.15c-1.13-1.34-2.43-2.55-3.87-3.65c-0.61-0.47-1.24-0.91-1.9-1.33
		c-0.47-0.31-0.96-0.6-1.46-0.88c-5.93-3.36-13.4-5.08-20.9-5.08c-7.34,0-14.71,1.64-20.73,4.99C91.41,52.81,90.95,53.08,90.5,53.36
		z M93.48,52.16c5.24-2.76,11.73-4.45,18.95-4.45c1.08,0,2.17,0.04,3.29,0.12c5.42,0.38,10.98,1.86,15.76,4.32
		c0.25,0.13,0.5,0.26,0.74,0.39c1.04,0.57,2.04,1.18,2.99,1.84c1.59,1.11,3.05,2.34,4.32,3.7l0.14,0.16
		c0.48,0.52,0.93,1.06,1.35,1.62c0.46,0.6,0.88,1.23,1.26,1.87c0.18,0.31,0.36,0.62,0.52,0.94c0.29,0.56,0.55,1.14,0.78,1.73
		c0.05,0.11,0.09,0.22,0.13,0.33c0.53,1.43,0.88,2.95,1.03,4.53c0.05,0.56,0.09,1.13,0.09,1.71v0c-0.01,0.11-0.02,0.21-0.04,0.32
		c-0.15,1.53-0.45,2.99-0.89,4.37c-0.35,1.1-0.79,2.15-1.31,3.14c-0.28,0.53-0.57,1.05-0.89,1.55c-0.72,1.13-1.55,2.19-2.47,3.18
		c-0.43,0.46-0.89,0.91-1.36,1.34c-0.29,0.26-0.58,0.52-0.88,0.77c-0.54,0.45-1.1,0.87-1.69,1.28c-1.63,1.15-3.42,2.14-5.33,2.98
		c-1.9,0.84-3.92,1.52-6.01,2.05c-3.62,0.92-7.46,1.39-11.32,1.39c-1.95,0-3.91-0.12-5.84-0.36c-1.89-0.23-3.75-0.58-5.57-1.04
		c-2.05-0.53-4.04-1.2-5.93-2.02c-1.89-0.82-3.67-1.79-5.32-2.91c-0.62-0.42-1.21-0.86-1.79-1.32c-0.22-0.18-0.43-0.35-0.65-0.54
		c-0.57-0.49-1.12-1-1.65-1.54c-0.42-0.43-0.83-0.87-1.22-1.34c-0.58-0.69-1.09-1.39-1.55-2.1c-0.94-1.42-1.65-2.86-2.14-4.31
		c-0.54-1.59-0.81-3.19-0.85-4.78c-0.01-0.61,0.01-1.21,0.07-1.81c0.15-1.56,0.52-3.09,1.1-4.57c0.05-0.13,0.1-0.26,0.16-0.38
		c0.24-0.57,0.5-1.14,0.8-1.7c0.17-0.32,0.37-0.64,0.56-0.95c0.39-0.64,0.81-1.26,1.27-1.87c0.32-0.42,0.67-0.84,1.03-1.25
		c0.15-0.17,0.31-0.35,0.47-0.52c1.24-1.33,2.67-2.56,4.26-3.69c0.89-0.63,1.83-1.23,2.82-1.78C92.96,52.44,93.22,52.3,93.48,52.16z
		 M91.62,48.33C91.62,48.33,91.61,48.33,91.62,48.33C91.61,48.33,91.62,48.33,91.62,48.33L91.62,48.33z M104.39,47.02
		c-2.58,0.39-5.11,0.97-7.54,1.74c-4.17,1.32-8.05,3.21-11.39,5.66c-0.94,0.69-1.85,1.43-2.7,2.21c-0.17,0.16-0.34,0.32-0.51,0.48
		c-0.44,0.43-0.87,0.87-1.29,1.32c-0.57,0.63-1.09,1.26-1.57,1.89c-0.14,0.19-0.26,0.38-0.4,0.56c-0.29,0.4-0.57,0.8-0.83,1.2
		c-0.39,0.62-0.74,1.24-1.05,1.87c-0.16,0.31-0.3,0.62-0.43,0.94c-0.31,0.69-0.58,1.38-0.8,2.08c-0.48,1.51-0.75,3.02-0.84,4.53
		c-0.03,0.58-0.04,1.15-0.02,1.72c0.01,0.18,0.02,0.35,0.03,0.52c0.09,1.44,0.34,2.87,0.75,4.26c0.44,1.46,1.06,2.89,1.84,4.28
		c0.66,1.19,1.43,2.34,2.32,3.45c0.43,0.54,0.88,1.07,1.37,1.58c0.15,0.17,0.3,0.33,0.46,0.49c0.45,0.47,0.93,0.93,1.42,1.37
		c1.13,1.02,2.38,1.98,3.71,2.88c1.11,0.75,2.28,1.45,3.51,2.1c2.12,1.12,4.43,2.08,6.89,2.86c1.25,0.4,2.53,0.75,3.85,1.05
		c1.42,0.32,2.89,0.57,4.39,0.77c0.32,0.04,0.64,0.1,0.97,0.13c1.92,0.22,3.89,0.33,5.92,0.33c0.82,0,1.64-0.02,2.47-0.05
		c1.6-0.07,3.14-0.22,4.65-0.42c1.43-0.19,2.81-0.43,4.15-0.73c1.44-0.32,2.83-0.68,4.17-1.11c2.4-0.77,4.62-1.71,6.66-2.77
		c1.31-0.69,2.56-1.43,3.72-2.22c1.35-0.92,2.58-1.9,3.71-2.92c0.49-0.45,0.96-0.9,1.4-1.36c0.22-0.23,0.44-0.46,0.65-0.7
		c0.42-0.46,0.81-0.93,1.19-1.4c0.77-0.98,1.46-1.98,2.05-3l0.02-0.04c0.89-1.55,1.58-3.13,2.03-4.72c0.38-1.34,0.6-2.68,0.65-4.01
		c0-0.12,0.01-0.25,0.01-0.37l0.01-0.22v-0.01c-0.02-0.61-0.07-1.21-0.13-1.8c-0.17-1.59-0.47-3.11-0.92-4.56
		c-0.22-0.7-0.47-1.38-0.76-2.05c-0.13-0.31-0.27-0.62-0.42-0.93c-0.3-0.63-0.62-1.24-0.97-1.84c-0.32-0.54-0.67-1.08-1.03-1.59
		l-0.09-0.13c-0.79-1.1-1.66-2.13-2.63-3.1c-0.17-0.17-0.34-0.34-0.52-0.51c-0.81-0.77-1.67-1.5-2.58-2.19
		c-3.19-2.42-6.97-4.31-11.08-5.66c-2.37-0.78-4.86-1.37-7.4-1.79c-2-0.33-4.04-0.55-6.09-0.65c-0.63-0.02-1.25-0.05-1.88-0.06
		l-0.11,0c-0.32,0-0.64-0.01-0.97-0.01c-0.56,0-1.12,0.01-1.67,0.03C108.61,46.51,106.49,46.71,104.39,47.02z M112.5,46.97
		c0.2,0,0.41,0,0.61,0c2.58,0.03,5.08,0.27,7.49,0.67c5.71,0.96,10.87,2.91,15.1,5.58c0.74,0.47,1.45,0.96,2.14,1.47
		c0.33,0.25,0.66,0.5,0.98,0.76c1.41,1.14,2.67,2.38,3.76,3.7l0.12,0.14c0.43,0.53,0.83,1.07,1.2,1.62c0.42,0.61,0.8,1.23,1.15,1.87
		c0.17,0.31,0.34,0.63,0.49,0.95c0.32,0.68,0.61,1.36,0.85,2.06c0.26,0.76,0.47,1.53,0.62,2.31c0.15,0.73,0.25,1.47,0.3,2.22
		c0.04,0.57,0.07,1.15,0.05,1.73v0c0,0.09-0.01,0.18-0.02,0.27c-0.06,1.5-0.31,2.97-0.73,4.38c-0.38,1.29-0.9,2.55-1.56,3.76
		c-0.17,0.32-0.36,0.64-0.55,0.95c-0.66,1.08-1.43,2.11-2.29,3.1c-0.41,0.46-0.83,0.92-1.27,1.36c-0.25,0.24-0.5,0.49-0.76,0.72
		c-0.49,0.45-1,0.89-1.54,1.31c-1.34,1.08-2.81,2.07-4.4,2.97c-1.4,0.79-2.9,1.51-4.46,2.14c-3.36,1.36-7.06,2.33-10.99,2.84
		c-2.04,0.26-4.13,0.4-6.27,0.4c-0.2,0-0.41,0-0.61,0c-1.85-0.02-3.66-0.15-5.43-0.37l-0.06-0.01c-4.01-0.5-7.78-1.48-11.18-2.86
		c-1.52-0.61-2.95-1.3-4.31-2.07c-1.56-0.88-3.02-1.84-4.35-2.89c-0.55-0.43-1.08-0.88-1.59-1.35c-0.19-0.17-0.37-0.34-0.55-0.51
		c-0.53-0.51-1.02-1.03-1.5-1.57c-0.96-1.09-1.81-2.24-2.52-3.44c-0.83-1.38-1.48-2.82-1.94-4.31c-0.48-1.55-0.75-3.15-0.79-4.79
		c-0.01-0.3-0.02-0.61-0.01-0.91c0.01-0.29,0.03-0.57,0.05-0.86c0.05-0.75,0.16-1.5,0.31-2.23c0.16-0.78,0.37-1.55,0.63-2.31
		c0.24-0.7,0.52-1.39,0.84-2.07c0.15-0.32,0.31-0.63,0.48-0.94c0.35-0.64,0.74-1.26,1.16-1.87c0.28-0.41,0.57-0.81,0.88-1.21
		c0.14-0.19,0.3-0.37,0.45-0.55c1.09-1.31,2.34-2.54,3.74-3.68c0.3-0.25,0.61-0.49,0.93-0.73c0.69-0.52,1.42-1.02,2.17-1.5
		c4.17-2.63,9.24-4.57,14.83-5.54C106.8,47.22,109.61,46.97,112.5,46.97z M95.59,47.5c-3.06,0.85-6,1.94-8.77,3.28
		c-0.4,0.19-0.79,0.38-1.18,0.59c-1.01,0.52-2,1.08-2.96,1.67c-2.63,1.62-5.04,3.49-7.16,5.63c-0.35,0.35-0.69,0.71-1.02,1.07
		c-0.35,0.38-0.68,0.77-1.01,1.16c-1.01,1.22-1.89,2.45-2.64,3.7c-0.15,0.24-0.29,0.48-0.42,0.72c-0.06,0.11-0.12,0.21-0.18,0.32
		c-0.13,0.24-0.25,0.48-0.38,0.72c-0.32,0.63-0.61,1.26-0.87,1.89c-0.13,0.31-0.25,0.63-0.36,0.94c-0.25,0.68-0.45,1.37-0.63,2.05
		c-0.39,1.51-0.62,3.02-0.68,4.52c-0.03,0.54-0.02,1.08-0.01,1.62c0.04,1.63,0.26,3.24,0.65,4.82c0.35,1.43,0.84,2.84,1.46,4.21
		c0.54,1.19,1.17,2.36,1.89,3.5c0.34,0.54,0.7,1.07,1.09,1.6c0.11,0.16,0.23,0.31,0.34,0.47c0.36,0.48,0.74,0.95,1.13,1.41
		c0.83,0.98,1.73,1.92,2.7,2.83c0.79,0.74,1.61,1.46,2.49,2.16c1.24,0.98,2.57,1.91,3.97,2.79c0.6,0.38,1.22,0.74,1.85,1.09
		c0.45,0.25,0.92,0.5,1.38,0.74c0.84,0.44,1.71,0.85,2.6,1.24c1.28,0.57,2.61,1.09,3.98,1.57c3.24,1.12,6.71,1.98,10.38,2.52
		c1.87,0.28,3.79,0.47,5.76,0.57c0.3,0.01,0.59,0.03,0.89,0.04c0.86,0.03,1.73,0.05,2.6,0.05c0.97,0,1.94-0.02,2.92-0.07
		c2.24-0.1,4.4-0.32,6.5-0.63c3.73-0.55,7.2-1.41,10.42-2.53c2.35-0.82,4.55-1.77,6.61-2.83c0.38-0.2,0.76-0.4,1.13-0.6
		c0.72-0.4,1.42-0.81,2.1-1.24c1.32-0.83,2.57-1.71,3.73-2.63c0.96-0.76,1.86-1.54,2.71-2.34c0.94-0.89,1.82-1.82,2.62-2.76
		c0.42-0.49,0.81-0.99,1.19-1.5l0.03-0.04c0.13-0.17,0.26-0.35,0.38-0.52c0.36-0.5,0.7-1.01,1.03-1.51c0.6-0.96,1.14-1.93,1.6-2.92
		c0.76-1.6,1.32-3.22,1.69-4.85c0.33-1.45,0.51-2.89,0.51-4.32l0-0.1v-0.01c-0.02-0.65-0.07-1.28-0.13-1.91
		c-0.15-1.59-0.43-3.12-0.82-4.59c-0.19-0.71-0.4-1.4-0.64-2.08c-0.11-0.31-0.22-0.62-0.34-0.93c-0.25-0.62-0.51-1.23-0.8-1.83
		c-0.14-0.28-0.27-0.56-0.42-0.84c-0.13-0.24-0.26-0.48-0.39-0.72l-0.08-0.15c-0.71-1.25-1.52-2.44-2.41-3.57
		c-0.58-0.74-1.2-1.45-1.85-2.13c-1.92-2.03-4.14-3.83-6.58-5.42c-0.88-0.57-1.79-1.11-2.73-1.62c-0.35-0.19-0.71-0.38-1.07-0.57
		c-2.55-1.31-5.29-2.4-8.16-3.28c-5.86-1.81-12.24-2.72-18.64-2.72C106.85,45.23,101.04,45.98,95.59,47.5z M127.31,47.81
		c0.55,0.16,1.11,0.33,1.65,0.51c1.48,0.48,2.93,1.03,4.35,1.64c3.48,1.51,6.71,3.41,9.49,5.67c0.87,0.71,1.7,1.46,2.48,2.24
		c0.54,0.54,1.06,1.1,1.55,1.68c0.56,0.66,1.08,1.33,1.57,2.03l0.1,0.14c0.36,0.53,0.7,1.07,1.03,1.63
		c0.35,0.61,0.67,1.23,0.97,1.87c0.15,0.31,0.28,0.63,0.41,0.95c0.28,0.68,0.52,1.37,0.73,2.07c0.43,1.45,0.72,2.97,0.85,4.55
		c0.05,0.6,0.08,1.2,0.08,1.81v0.01l-0.02,0.16c-0.13,1.49-0.38,2.93-0.74,4.3c-0.44,1.7-1.04,3.31-1.79,4.82
		c-0.23,0.47-0.48,0.92-0.73,1.37c-0.05,0.09-0.11,0.18-0.16,0.27c-0.29,0.48-0.59,0.95-0.9,1.41c-0.34,0.49-0.68,0.98-1.05,1.45
		c-0.18,0.23-0.36,0.44-0.55,0.66c-0.41,0.49-0.84,0.97-1.28,1.43c-0.99,1.02-2.06,1.98-3.2,2.87c-1.04,0.81-2.13,1.57-3.28,2.27
		c-1.65,1.01-3.4,1.9-5.24,2.68c-0.97,0.41-1.97,0.8-2.99,1.15c-0.69,0.24-1.38,0.46-2.08,0.67c-5.01,1.48-10.43,2.22-15.86,2.22
		c-1.89,0-3.79-0.09-5.67-0.27c-3.5-0.34-6.95-0.99-10.24-1.95c-0.8-0.23-1.59-0.48-2.37-0.75c-0.92-0.32-1.83-0.67-2.72-1.05
		c-1.92-0.81-3.76-1.74-5.49-2.8c-1.08-0.65-2.11-1.35-3.1-2.1c-1.17-0.88-2.26-1.83-3.29-2.85c-0.45-0.45-0.88-0.92-1.3-1.39
		c-0.14-0.16-0.28-0.32-0.42-0.48l-0.07-0.07c-0.43-0.5-0.82-1.01-1.19-1.53c-0.29-0.4-0.57-0.8-0.84-1.21
		c-0.49-0.75-0.92-1.5-1.31-2.25c-0.72-1.42-1.27-2.85-1.65-4.28c-0.43-1.62-0.64-3.23-0.66-4.83c-0.01-0.57,0.01-1.13,0.06-1.7
		c0.12-1.55,0.42-3.09,0.9-4.59c0.22-0.7,0.48-1.4,0.78-2.09c0.14-0.32,0.28-0.63,0.43-0.95c0.31-0.64,0.65-1.26,1.02-1.88
		c0.23-0.39,0.48-0.78,0.74-1.16c0.14-0.21,0.28-0.41,0.43-0.61c0.51-0.72,1.06-1.42,1.65-2.1c0.48-0.55,0.98-1.09,1.5-1.62
		c0.77-0.77,1.59-1.51,2.46-2.23c2.58-2.12,5.6-3.98,8.98-5.5c1.28-0.58,2.62-1.1,4-1.58c0.56-0.19,1.13-0.37,1.71-0.55
		c4.68-1.4,9.85-2.2,15.36-2.2c1.34,0,2.7,0.05,4.08,0.14C120.11,46.13,123.77,46.79,127.31,47.81z M91.64,48.32
		C91.63,48.32,91.63,48.32,91.64,48.32l0.11-0.03L91.64,48.32z M86.02,58.21l-0.08,0.1c-0.38,0.42-0.73,0.84-1.06,1.26
		c-0.48,0.62-0.9,1.24-1.29,1.87c-0.19,0.32-0.38,0.63-0.55,0.95c-0.2,0.37-0.38,0.74-0.55,1.11c-0.14,0.32-0.28,0.64-0.4,0.96
		c-0.58,1.5-0.91,3.02-1.02,4.52c-0.04,0.6-0.05,1.21-0.02,1.81c0.07,1.61,0.39,3.2,0.95,4.74c0.54,1.49,1.28,2.94,2.23,4.32
		c0.82,1.2,1.79,2.35,2.89,3.43c0.53,0.53,1.1,1.04,1.7,1.53c0.23,0.19,0.46,0.37,0.7,0.56c0.59,0.45,1.21,0.89,1.85,1.31
		c1.71,1.12,3.6,2.12,5.65,2.96c2.09,0.85,4.35,1.54,6.74,2.03c1.06,0.22,2.14,0.39,3.25,0.53c1.78,0.22,3.63,0.34,5.53,0.34
		c0.66,0,1.34-0.02,2.01-0.05c2.38-0.11,4.65-0.4,6.78-0.83c2.47-0.5,4.77-1.2,6.87-2.07c2.09-0.86,4-1.88,5.71-3.02
		c0.61-0.41,1.2-0.83,1.76-1.27c0.32-0.25,0.64-0.51,0.94-0.77c0.51-0.43,0.99-0.87,1.45-1.33c1.02-1.01,1.92-2.07,2.68-3.16
		c0.39-0.55,0.74-1.1,1.05-1.67c0.55-0.97,1.01-1.96,1.35-2.96c0.51-1.47,0.79-2.95,0.83-4.42c0-0.11,0.01-0.22,0.01-0.34v-0.01
		c-0.02-0.58-0.07-1.15-0.13-1.71c-0.18-1.61-0.55-3.13-1.07-4.56c-0.13-0.34-0.26-0.68-0.41-1.02c-0.15-0.35-0.31-0.69-0.49-1.03
		c-0.16-0.32-0.33-0.63-0.51-0.93c-0.37-0.63-0.77-1.25-1.21-1.84c-0.4-0.54-0.83-1.06-1.28-1.57l-0.15-0.16
		c-1.24-1.36-2.67-2.58-4.25-3.65c-1.09-0.74-2.24-1.42-3.45-2.03c-0.14-0.07-0.27-0.13-0.4-0.2c-5.3-2.57-11.65-3.87-18.04-3.87
		c-6.23,0-12.49,1.25-17.84,3.79c-0.1,0.05-0.2,0.1-0.3,0.15c-1.27,0.62-2.49,1.32-3.65,2.09c-1.61,1.08-3.1,2.31-4.41,3.68
		C86.28,57.94,86.15,58.07,86.02,58.21z M91.33,65.89c0.22-1.58,0.79-3.11,1.67-4.55c0.44-0.72,0.94-1.41,1.53-2.07
		c0.28-0.32,0.58-0.64,0.9-0.95c0.68-0.66,1.45-1.28,2.28-1.86c0.32-0.22,0.65-0.44,0.99-0.65c0.39-0.24,0.79-0.47,1.2-0.69
		c0.26-0.14,0.52-0.27,0.79-0.4c3.32-1.61,7.34-2.57,11.77-2.57c0.71,0,1.43,0.02,2.16,0.08c3.3,0.23,6.66,1.08,9.64,2.48
		c0.18,0.08,0.35,0.17,0.53,0.25c0.53,0.27,1.05,0.56,1.55,0.86c0.34,0.21,0.67,0.42,1,0.65c0.84,0.57,1.62,1.2,2.32,1.88
		c0.32,0.3,0.61,0.62,0.9,0.94c0.57,0.65,1.08,1.33,1.51,2.06c0.82,1.38,1.37,2.9,1.59,4.54c0.07,0.51,0.11,1.03,0.11,1.56l0,0.01
		c-0.01,0.17-0.05,0.34-0.07,0.51c-0.19,1.63-0.65,3.13-1.34,4.48c-0.44,0.88-0.98,1.7-1.6,2.47c-0.6,0.74-1.28,1.42-2.02,2.05
		c-1.63,1.38-3.56,2.48-5.68,3.31c-1.38,0.54-2.83,0.96-4.34,1.27c-1.98,0.4-4.05,0.6-6.11,0.6c-0.15,0-0.3,0-0.44,0
		c-1.76-0.02-3.51-0.2-5.22-0.52c-1.65-0.31-3.25-0.75-4.77-1.34c-2.19-0.84-4.21-1.97-5.92-3.39c-0.74-0.62-1.42-1.29-2.03-2.01
		c-0.64-0.77-1.17-1.54-1.6-2.33c-0.85-1.55-1.3-3.13-1.38-4.69C91.22,67.2,91.25,66.54,91.33,65.89z M94.7,72.13
		c0.99,1.62,2.4,3.1,4.15,4.35c2.16,1.54,4.84,2.74,7.89,3.42c1.79,0.39,3.71,0.61,5.72,0.61c0.4,0,0.8-0.01,1.21-0.03l0.08,0
		c1.61-0.07,3.11-0.29,4.54-0.6c3.08-0.68,5.71-1.86,7.82-3.35c0.79-0.56,1.51-1.15,2.14-1.78c0.86-0.85,1.56-1.75,2.13-2.69
		c0.88-1.46,1.4-2.99,1.5-4.48c0.01-0.19,0.04-0.37,0.04-0.56l0-0.01c-0.02-0.53-0.07-1.04-0.15-1.54
		c-0.26-1.67-0.84-3.18-1.68-4.52c-0.46-0.74-1-1.43-1.61-2.06c-0.31-0.32-0.63-0.63-0.97-0.93c-0.81-0.7-1.73-1.32-2.7-1.87
		c-0.67-0.38-1.37-0.73-2.1-1.04c-0.37-0.16-0.75-0.31-1.14-0.45c-0.27-0.1-0.55-0.18-0.83-0.27c-2.57-0.81-5.37-1.22-8.19-1.22
		c-2.77,0-5.54,0.4-8.1,1.21c-0.37,0.12-0.74,0.25-1.1,0.38c-0.27,0.1-0.53,0.2-0.79,0.31c-0.77,0.32-1.5,0.67-2.21,1.07
		c-0.96,0.54-1.86,1.17-2.69,1.86c-0.36,0.3-0.7,0.61-1.02,0.94c-0.15,0.15-0.31,0.3-0.45,0.46c-0.48,0.52-0.89,1.06-1.25,1.6
		c-1,1.48-1.56,3.02-1.76,4.55c-0.08,0.66-0.1,1.32-0.04,1.98C93.26,69.08,93.8,70.66,94.7,72.13z M94.27,65.25
		c0.25-1.6,0.93-3.13,1.95-4.55c0.53-0.73,1.15-1.42,1.86-2.07c0.35-0.33,0.73-0.64,1.12-0.94c0.91-0.69,1.92-1.32,3.03-1.86
		c1.01-0.49,2.1-0.92,3.25-1.26c0.13-0.04,0.26-0.08,0.39-0.11c0.49-0.14,0.98-0.26,1.49-0.36c1.61-0.33,3.32-0.52,5.11-0.52
		c0.61,0,1.22,0.02,1.84,0.07c1.07,0.07,2.15,0.23,3.22,0.45c0.4,0.08,0.8,0.17,1.19,0.28c0.22,0.06,0.44,0.12,0.66,0.19
		c1.15,0.34,2.27,0.77,3.33,1.28c1.12,0.53,2.16,1.16,3.11,1.87c0.4,0.3,0.79,0.62,1.15,0.95c0.7,0.63,1.31,1.32,1.84,2.05
		c0.97,1.35,1.64,2.86,1.89,4.55c0.07,0.5,0.12,1,0.12,1.52l0,0.01c-0.02,0.19-0.05,0.37-0.08,0.56c-0.22,1.67-0.75,3.17-1.55,4.5
		c-0.66,1.09-1.49,2.06-2.46,2.92c-0.64,0.57-1.34,1.08-2.08,1.54c-2.77,1.72-6.21,2.74-9.79,3.04c-0.75,0.06-1.52,0.1-2.28,0.1
		c-4.37,0-8.76-1.05-12.21-3.18c-1.39-0.86-2.63-1.88-3.64-3.08c-0.35-0.41-0.65-0.83-0.92-1.26c-1-1.53-1.52-3.11-1.63-4.67
		C94.14,66.58,94.17,65.91,94.27,65.25z M105.64,70.72c1.77,1.13,4.1,1.83,6.68,1.86c0.06,0,0.12,0,0.18,0
		c2.65,0,5.08-0.72,6.91-1.89c1.79-1.15,3.01-2.74,3.3-4.54c0.04-0.23,0.06-0.47,0.07-0.71c0.01-0.48-0.05-0.96-0.16-1.41
		c-0.47-1.85-1.92-3.45-3.97-4.53c-1.67-0.88-3.72-1.42-5.96-1.44c-0.06,0-0.12,0-0.18,0c-2.29,0-4.41,0.54-6.13,1.44
		c-2.05,1.08-3.5,2.68-3.98,4.53c-0.1,0.38-0.16,0.77-0.17,1.16c-0.01,0.31,0.02,0.61,0.07,0.9
		C102.57,67.92,103.8,69.55,105.64,70.72z M105.13,63.78c0.82-2.35,3.82-4.08,7.37-4.08c0.05,0,0.09,0,0.13,0
		c3.52,0.04,6.42,1.77,7.23,4.08c0.16,0.44,0.24,0.91,0.23,1.39l0,0.01c0,0.25-0.04,0.49-0.1,0.73c-0.57,2.58-3.72,4.53-7.49,4.53
		c-0.04,0-0.09,0-0.13,0c-3.77-0.05-6.84-2.03-7.37-4.58c-0.06-0.29-0.1-0.58-0.09-0.89C104.92,64.56,105,64.16,105.13,63.78z
		 M112.49,68.77c0.12,0,0.24,0,0.36-0.01c2.68-0.12,4.48-1.54,4.95-3.01c0.08-0.25,0.14-0.5,0.14-0.75l0-0.02
		c-0.02-0.5-0.14-0.95-0.33-1.36c-0.8-1.67-2.94-2.54-5.1-2.54c-1.75,0-3.52,0.57-4.59,1.75c-0.24,0.26-0.4,0.52-0.54,0.79
		c-0.36,0.7-0.4,1.42-0.18,2.1C107.73,67.39,109.79,68.77,112.49,68.77z M108.47,63.58c0.69-1.06,2.18-1.86,4.02-1.86
		c0.15,0,0.3,0,0.46,0.02c1.4,0.1,2.89,0.71,3.59,1.84c0.24,0.39,0.39,0.84,0.41,1.35l0,0.01c-0.03,0.27-0.09,0.52-0.18,0.76
		c-0.58,1.52-2.41,2.3-4.25,2.3c-1.48,0-2.97-0.5-3.83-1.52c-0.22-0.26-0.38-0.53-0.48-0.81C107.93,64.95,108.05,64.22,108.47,63.58
		z M97.99,71.57c1.3,1.74,3.19,3.25,5.53,4.35c2.53,1.19,5.58,1.91,8.96,1.91c0.36,0,0.72-0.01,1.09-0.02
		c1.58-0.07,3.05-0.3,4.42-0.64c1.25-0.31,2.42-0.72,3.48-1.21c0.41-0.19,0.81-0.39,1.18-0.6c1.89-1.06,3.38-2.39,4.45-3.84
		c1.06-1.44,1.68-2.99,1.82-4.5c0.02-0.2,0.04-0.41,0.04-0.61V66.4c-0.02-0.52-0.08-1.02-0.17-1.5c-0.3-1.72-1-3.23-2.01-4.52
		c-0.59-0.76-1.3-1.44-2.08-2.05c-0.43-0.33-0.87-0.65-1.34-0.94c-1.31-0.8-2.79-1.43-4.36-1.88c-2.03-0.59-4.23-0.89-6.43-0.89
		c-2.18,0-4.37,0.29-6.41,0.88c-1.55,0.45-3.02,1.07-4.34,1.86c-0.49,0.3-0.97,0.61-1.42,0.96c-0.63,0.48-1.21,1.01-1.73,1.58
		c-0.14,0.15-0.27,0.31-0.39,0.47c-1.21,1.47-1.9,3.01-2.13,4.54c-0.1,0.67-0.13,1.35-0.06,2.01
		C96.25,68.55,96.92,70.14,97.99,71.57z M100.66,64.22c0.4-1.71,1.53-3.29,3.19-4.54c1.17-0.88,2.61-1.59,4.24-2.05
		c1.34-0.38,2.82-0.59,4.38-0.59c0.4,0,0.8,0.01,1.21,0.04c1.04,0.07,2.09,0.26,3.11,0.54c1.6,0.45,3.11,1.15,4.37,2.07
		c1.58,1.17,2.74,2.69,3.15,4.53c0.1,0.46,0.17,0.94,0.17,1.44l0,0.01c-0.02,0.23-0.05,0.45-0.09,0.67
		c-0.31,1.85-1.24,3.36-2.57,4.54c-2.3,2.04-5.78,3.08-9.28,3.08c-3.45,0-6.92-1-9.3-3.04c-0.38-0.33-0.74-0.68-1.06-1.06
		c-0.98-1.16-1.5-2.38-1.64-3.58C100.47,65.58,100.51,64.89,100.66,64.22z"/>
</g>
</svg>
