<?xml version="1.0" encoding="utf-8"?>
<!-- Generator: Adobe Illustrator 26.2.1, SVG Export Plug-In . SVG Version: 6.00 Build 0)  -->
<svg version="1.1" xmlns="http://www.w3.org/2000/svg" xmlns:xlink="http://www.w3.org/1999/xlink" x="0px" y="0px"
	 viewBox="0 0 225 225" style="enable-background:new 0 0 225 225;" xml:space="preserve">
<style type="text/css">
	.st0{display:none;}
	.st1{display:inline;fill:#FAB433;}
	.st2{fill:none;}
	.st3{fill:none;stroke:#000000;stroke-width:1.6;stroke-miterlimit:10;}
	.st4{fill:none;stroke:#000000;stroke-width:0.7265;stroke-miterlimit:10;}
	.st5{fill:none;stroke:#000000;stroke-linecap:round;stroke-linejoin:round;stroke-miterlimit:10;}
	.st6{fill:none;stroke:#000000;stroke-miterlimit:10;}
	.st7{fill:none;stroke:#000000;stroke-width:0.7105;stroke-miterlimit:10;}
	.st8{fill:none;stroke:#000000;stroke-width:5.4;stroke-linecap:round;stroke-linejoin:round;stroke-miterlimit:10;}
	.st9{fill:none;stroke:#000000;stroke-width:2.9309;stroke-linecap:round;stroke-linejoin:round;stroke-miterlimit:10;}
	.st10{fill:none;stroke:#000000;stroke-width:0.5;stroke-linecap:round;stroke-linejoin:round;}
	.st11{fill:none;stroke:#FFFFFF;stroke-width:0;stroke-linecap:round;stroke-linejoin:round;}
	.st12{fill:#FFFFFF;}
	.st13{fill:none;stroke:#000000;stroke-width:1.4;stroke-miterlimit:10;}
	.st14{fill:url(#);stroke:#000000;stroke-width:1.4387;stroke-miterlimit:10;}
	.st15{fill:url(#);stroke:#000000;stroke-width:1.3718;stroke-miterlimit:10;}
	.st16{fill:none;stroke:#000000;stroke-width:1.0041;stroke-miterlimit:10;}
	.st17{fill:none;stroke:#000000;stroke-width:1.3621;stroke-miterlimit:10;}
	.st18{fill:none;stroke:#000000;stroke-width:0.25;stroke-miterlimit:10;}
</style>
<g id="Layer_2" class="st0">
	<rect id="XMLID_3548_" x="-835.99" y="-30.01" class="st1" width="1160" height="772"/>
</g>
<g id="Layer_1">
	<g id="XMLID_21000_">
		<g id="XMLID_21021_">
			<path id="XMLID_21030_" class="st6" d="M102.37,183.47c5.6-5.58,14.66-5.58,20.26,0C115.91,184.43,109.1,184.43,102.37,183.47z"
				/>
			<path id="XMLID_21029_" class="st6" d="M97.29,168.27c8.4-8.4,22.02-8.4,30.42,0c3.55,3.55,5.61,8.04,6.13,12.68
				c-3.68,1.15-7.42,1.99-11.21,2.51c-6.72,0.96-13.54,0.96-20.26,0c-3.79-0.53-7.53-1.37-11.21-2.51
				C91.69,176.31,93.74,171.82,97.29,168.27z"/>
			<path id="XMLID_21028_" class="st6" d="M92.22,153.06c11.2-11.2,29.35-11.2,40.56,0c6.91,6.91,9.55,16.45,7.93,25.37
				c-2.24,0.96-4.54,1.81-6.86,2.52c-3.68,1.15-7.42,1.99-11.21,2.51c-6.72,0.96-13.54,0.96-20.26,0
				c-3.79-0.53-7.53-1.37-11.21-2.51c-2.32-0.72-4.62-1.56-6.86-2.52C82.67,169.5,85.32,159.96,92.22,153.06z"/>
			<path id="XMLID_21027_" class="st6" d="M87.15,137.85c14-14,36.7-14,50.7,0c10.29,10.29,13.02,25.27,8.17,38.04
				c-1.74,0.93-3.52,1.77-5.31,2.53c-2.24,0.96-4.54,1.81-6.86,2.52c-3.68,1.15-7.42,1.99-11.21,2.51c-6.72,0.96-13.54,0.96-20.26,0
				c-3.79-0.53-7.53-1.37-11.21-2.51c-2.32-0.72-4.62-1.56-6.86-2.52c-1.79-0.76-3.57-1.6-5.31-2.53
				C74.13,163.12,76.86,148.14,87.15,137.85z"/>
			<path id="XMLID_21026_" class="st6" d="M82.08,122.64c16.8-16.8,44.04-16.8,60.84,0c13.74,13.74,16.23,34.44,7.5,50.72
				c-1.44,0.91-2.91,1.75-4.4,2.54c-1.74,0.93-3.52,1.77-5.31,2.53c-2.24,0.96-4.54,1.81-6.86,2.52c-3.68,1.15-7.42,1.99-11.21,2.51
				c-6.72,0.96-13.54,0.96-20.26,0c-3.79-0.53-7.53-1.37-11.21-2.51c-2.32-0.72-4.62-1.56-6.86-2.52c-1.79-0.76-3.57-1.6-5.31-2.53
				c-1.49-0.78-2.96-1.62-4.4-2.53C65.85,157.08,68.34,136.38,82.08,122.64z"/>
			<path id="XMLID_21025_" class="st6" d="M77.01,107.43c19.6-19.6,51.38-19.6,70.98,0c17.23,17.23,19.31,43.86,6.25,63.37
				c-1.25,0.9-2.51,1.74-3.81,2.56c-1.44,0.91-2.91,1.75-4.4,2.54c-1.74,0.93-3.52,1.77-5.31,2.53c-2.24,0.96-4.54,1.81-6.86,2.52
				c-3.68,1.15-7.42,1.99-11.21,2.51c-6.72,0.96-13.54,0.96-20.26,0c-3.79-0.53-7.53-1.37-11.21-2.51
				c-2.32-0.72-4.62-1.56-6.86-2.52c-1.79-0.76-3.57-1.6-5.31-2.53c-1.49-0.78-2.96-1.62-4.4-2.53c-1.3-0.81-2.57-1.65-3.81-2.56
				C57.71,151.29,59.79,124.66,77.01,107.43z"/>
			<path id="XMLID_21024_" class="st6" d="M71.94,92.22c22.4-22.4,58.72-22.4,81.12,0c20.78,20.78,22.29,53.54,4.5,76.05
				c-1.08,0.88-2.2,1.73-3.33,2.54c-1.25,0.9-2.51,1.74-3.81,2.56c-1.44,0.91-2.91,1.75-4.4,2.54c-1.74,0.93-3.52,1.77-5.31,2.53
				c-2.24,0.96-4.54,1.81-6.86,2.52c-3.68,1.15-7.42,1.99-11.21,2.51c-6.72,0.96-13.54,0.96-20.26,0
				c-3.79-0.53-7.53-1.37-11.21-2.51c-2.32-0.72-4.62-1.56-6.86-2.52c-1.79-0.76-3.57-1.6-5.31-2.53c-1.49-0.78-2.96-1.62-4.4-2.53
				c-1.3-0.81-2.57-1.65-3.81-2.56c-1.13-0.8-2.24-1.65-3.33-2.53C49.66,145.76,51.17,113,71.94,92.22z"/>
			<path id="XMLID_21023_" class="st6" d="M66.87,77.01c25.2-25.2,66.06-25.2,91.26,0c24.36,24.36,25.17,63.35,2.42,88.69
				c0,0.02-0.01,0.03-0.03,0.03c-0.96,0.88-1.95,1.72-2.96,2.53c-1.08,0.88-2.2,1.73-3.33,2.54c-1.25,0.9-2.51,1.74-3.81,2.56
				c-1.44,0.91-2.91,1.75-4.4,2.54c-1.74,0.93-3.52,1.77-5.31,2.53c-2.24,0.96-4.54,1.81-6.86,2.52c-3.68,1.15-7.42,1.99-11.21,2.51
				c-6.72,0.96-13.54,0.96-20.26,0c-3.79-0.53-7.53-1.37-11.21-2.51c-2.32-0.72-4.62-1.56-6.86-2.52c-1.79-0.76-3.57-1.6-5.31-2.53
				c-1.49-0.78-2.96-1.62-4.4-2.53c-1.3-0.81-2.57-1.65-3.81-2.56c-1.13-0.8-2.24-1.65-3.33-2.53c-1.01-0.81-2-1.65-2.96-2.53
				c-0.02,0-0.03-0.01-0.03-0.03C41.71,140.36,42.52,101.37,66.87,77.01z"/>
			<path id="XMLID_21022_" class="st6" d="M61.8,61.8c28-28,73.4-28,101.4,0s28,73.4,0,101.4c-0.86,0.86-1.74,1.7-2.65,2.5
				c0,0.02-0.01,0.03-0.03,0.03c-0.96,0.88-1.95,1.72-2.96,2.53c-1.08,0.88-2.2,1.73-3.33,2.54c-1.25,0.9-2.51,1.74-3.81,2.56
				c-1.44,0.91-2.91,1.75-4.4,2.54c-1.74,0.93-3.52,1.77-5.31,2.53c-2.24,0.96-4.54,1.81-6.86,2.52c-3.68,1.15-7.42,1.99-11.21,2.51
				c-6.72,0.96-13.54,0.96-20.26,0c-3.79-0.53-7.53-1.37-11.21-2.51c-2.32-0.72-4.62-1.56-6.86-2.52c-1.79-0.76-3.57-1.6-5.31-2.53
				c-1.49-0.78-2.96-1.62-4.4-2.53c-1.3-0.81-2.57-1.65-3.81-2.56c-1.13-0.8-2.24-1.65-3.33-2.53c-1.01-0.81-2-1.65-2.96-2.53
				c-0.02,0-0.03-0.01-0.03-0.03c-0.9-0.8-1.78-1.64-2.65-2.5C33.81,135.2,33.81,89.8,61.8,61.8z"/>
		</g>
		<g id="XMLID_21011_">
			<path id="XMLID_21020_" class="st6" d="M179.03,85.79c-7.63-2.06-12.16-9.91-10.13-17.54C173.09,73.58,176.5,79.48,179.03,85.79z
				"/>
			<path id="XMLID_21019_" class="st6" d="M168.4,97.79c-11.47-3.07-18.28-14.87-15.21-26.34c1.3-4.85,4.16-8.88,7.92-11.66
				c2.83,2.61,5.43,5.43,7.78,8.45c4.2,5.34,7.6,11.24,10.13,17.54c1.44,3.55,2.58,7.21,3.43,10.97
				C178.17,98.62,173.25,99.09,168.4,97.79z"/>
			<path id="XMLID_21018_" class="st6" d="M157.77,109.78c-15.31-4.1-24.38-19.82-20.28-35.12c2.53-9.43,9.47-16.5,18.01-19.55
				c1.95,1.46,3.83,3.03,5.62,4.68c2.83,2.61,5.43,5.43,7.78,8.45c4.2,5.34,7.6,11.24,10.13,17.54c1.44,3.55,2.58,7.21,3.43,10.97
				c0.54,2.37,0.96,4.79,1.25,7.21C176.79,109.83,167.2,112.31,157.77,109.78z"/>
			<path id="XMLID_21017_" class="st6" d="M147.13,121.78C128,116.65,116.66,97,121.78,77.87c3.77-14.06,15.37-23.91,28.86-26.1
				c1.68,1.04,3.3,2.16,4.85,3.33c1.95,1.46,3.83,3.03,5.62,4.68c2.83,2.61,5.43,5.43,7.78,8.45c4.2,5.34,7.6,11.24,10.13,17.54
				c1.44,3.55,2.58,7.21,3.43,10.97c0.54,2.37,0.96,4.79,1.25,7.21c0.24,1.93,0.4,3.89,0.46,5.87
				C175.52,120.42,161.19,125.54,147.13,121.78z"/>
			<path id="XMLID_21016_" class="st6" d="M136.49,133.77c-22.95-6.15-36.57-29.74-30.42-52.69c5.03-18.77,21.71-31.28,40.17-31.86
				c1.51,0.79,2.97,1.64,4.4,2.54c1.68,1.04,3.3,2.16,4.85,3.33c1.95,1.46,3.83,3.03,5.62,4.68c2.83,2.61,5.43,5.43,7.78,8.45
				c4.2,5.34,7.6,11.24,10.13,17.54c1.44,3.55,2.58,7.21,3.43,10.97c0.54,2.37,0.96,4.79,1.25,7.21c0.24,1.93,0.4,3.89,0.46,5.87
				c0.07,1.68,0.08,3.38,0.01,5.08C174.44,130.61,155.26,138.8,136.49,133.77z"/>
			<path id="XMLID_21015_" class="st6" d="M125.86,145.77c-26.77-7.17-42.66-34.69-35.49-61.47c6.31-23.53,28.33-38.65,51.76-37.1
				c1.41,0.63,2.77,1.31,4.12,2.02c1.51,0.79,2.97,1.64,4.4,2.54c1.68,1.04,3.3,2.16,4.85,3.33c1.95,1.46,3.83,3.03,5.62,4.68
				c2.83,2.61,5.43,5.43,7.78,8.45c4.2,5.34,7.6,11.24,10.13,17.54c1.44,3.55,2.58,7.21,3.43,10.97c0.54,2.37,0.96,4.79,1.25,7.21
				c0.24,1.93,0.4,3.89,0.46,5.87c0.07,1.68,0.08,3.38,0.01,5.08c-0.05,1.53-0.15,3.05-0.31,4.58
				C173.5,140.56,149.39,152.07,125.86,145.77z"/>
			<path id="XMLID_21014_" class="st6" d="M115.22,157.76c-30.6-8.2-48.76-39.65-40.56-70.25c7.6-28.38,35.22-46.07,63.61-41.92
				c1.31,0.5,2.6,1.04,3.86,1.61c1.41,0.63,2.77,1.31,4.12,2.02c1.51,0.79,2.97,1.64,4.4,2.54c1.68,1.04,3.3,2.16,4.85,3.33
				c1.95,1.46,3.83,3.03,5.62,4.68c2.83,2.61,5.43,5.43,7.78,8.45c4.2,5.34,7.6,11.24,10.13,17.54c1.44,3.55,2.58,7.21,3.43,10.97
				c0.54,2.37,0.96,4.79,1.25,7.21c0.24,1.93,0.4,3.89,0.46,5.87c0.07,1.68,0.08,3.38,0.01,5.08c-0.05,1.53-0.15,3.05-0.31,4.58
				c-0.13,1.38-0.31,2.77-0.53,4.15C172.73,150.3,143.6,165.37,115.22,157.76z"/>
			<path id="XMLID_21013_" class="st6" d="M104.58,169.76c-34.42-9.22-54.85-44.61-45.63-79.03c8.91-33.27,42.28-53.47,75.6-46.44
				c0.02-0.01,0.03-0.01,0.04,0.01c1.25,0.39,2.47,0.82,3.68,1.3c1.31,0.5,2.6,1.04,3.86,1.61c1.41,0.63,2.77,1.31,4.12,2.02
				c1.51,0.79,2.97,1.64,4.4,2.54c1.68,1.04,3.3,2.16,4.85,3.33c1.95,1.46,3.83,3.03,5.62,4.68c2.83,2.61,5.43,5.43,7.78,8.45
				c4.2,5.34,7.6,11.24,10.13,17.54c1.44,3.55,2.58,7.21,3.43,10.97c0.54,2.37,0.96,4.79,1.25,7.21c0.24,1.93,0.4,3.89,0.46,5.87
				c0.07,1.68,0.08,3.38,0.01,5.08c-0.05,1.53-0.15,3.05-0.31,4.58c-0.13,1.38-0.31,2.77-0.53,4.15c-0.2,1.28-0.43,2.56-0.71,3.83
				c0.01,0.02,0.01,0.03-0.01,0.04C172.03,159.88,137.85,178.67,104.58,169.76z"/>
			<path id="XMLID_21012_" class="st6" d="M93.95,181.75C55.7,171.51,33,132.19,43.25,93.94S92.82,33,131.06,43.24
				c1.18,0.32,2.35,0.66,3.49,1.04c0.02-0.01,0.03-0.01,0.04,0.01c1.25,0.39,2.47,0.82,3.68,1.3c1.31,0.5,2.6,1.04,3.86,1.61
				c1.41,0.63,2.77,1.31,4.12,2.02c1.51,0.79,2.97,1.64,4.4,2.54c1.68,1.04,3.3,2.16,4.85,3.33c1.95,1.46,3.83,3.03,5.62,4.68
				c2.83,2.61,5.43,5.43,7.78,8.45c4.2,5.34,7.6,11.24,10.13,17.54c1.44,3.55,2.58,7.21,3.43,10.97c0.54,2.37,0.96,4.79,1.25,7.21
				c0.24,1.93,0.4,3.89,0.46,5.87c0.07,1.68,0.08,3.38,0.01,5.08c-0.05,1.53-0.15,3.05-0.31,4.58c-0.13,1.38-0.31,2.77-0.53,4.15
				c-0.2,1.28-0.43,2.56-0.71,3.83c0.01,0.02,0.01,0.03-0.01,0.04c-0.24,1.18-0.53,2.37-0.85,3.54
				C171.51,169.3,132.19,192,93.95,181.75z"/>
		</g>
		<g id="XMLID_21001_">
			<path id="XMLID_21010_" class="st6" d="M56.1,68.24c2.03,7.64-2.5,15.49-10.13,17.54C48.5,79.49,51.91,73.58,56.1,68.24z"/>
			<path id="XMLID_21009_" class="st6" d="M71.81,71.44c3.07,11.47-3.74,23.27-15.21,26.34c-4.85,1.3-9.77,0.84-14.05-1.03
				c0.85-3.76,1.99-7.42,3.43-10.97c2.53-6.3,5.93-12.2,10.13-17.54c2.35-3.02,4.95-5.84,7.78-8.45
				C67.65,62.57,70.51,66.6,71.81,71.44z"/>
			<path id="XMLID_21008_" class="st6" d="M87.51,74.66c4.1,15.31-4.97,31.02-20.28,35.12c-9.43,2.53-19.02,0.05-25.94-5.82
				c0.29-2.42,0.71-4.84,1.25-7.21c0.85-3.76,1.99-7.42,3.43-10.97c2.53-6.3,5.93-12.2,10.13-17.54c2.35-3.02,4.95-5.84,7.78-8.45
				c1.78-1.65,3.66-3.22,5.62-4.68C78.05,58.16,84.99,65.23,87.51,74.66z"/>
			<path id="XMLID_21007_" class="st6" d="M103.22,77.87C108.34,97,97,116.65,77.87,121.78c-14.06,3.77-28.39-1.36-37.03-11.94
				c0.06-1.98,0.22-3.93,0.46-5.87c0.29-2.42,0.71-4.84,1.25-7.21c0.85-3.76,1.99-7.42,3.43-10.97c2.53-6.3,5.93-12.2,10.13-17.54
				c2.35-3.02,4.95-5.84,7.78-8.45c1.78-1.65,3.66-3.22,5.62-4.68c1.56-1.17,3.17-2.29,4.85-3.33
				C87.85,53.96,99.45,63.81,103.22,77.87z"/>
			<path id="XMLID_21006_" class="st6" d="M118.93,81.09c6.15,22.95-7.47,46.54-30.42,52.69c-18.77,5.03-37.95-3.16-47.68-18.86
				c-0.07-1.7-0.06-3.4,0-5.08c0.06-1.98,0.22-3.93,0.46-5.87c0.29-2.42,0.71-4.84,1.25-7.21c0.85-3.76,1.99-7.42,3.43-10.97
				c2.53-6.3,5.93-12.2,10.13-17.54c2.35-3.02,4.95-5.84,7.78-8.45c1.78-1.65,3.66-3.22,5.62-4.68c1.56-1.17,3.17-2.29,4.85-3.33
				c1.42-0.9,2.89-1.75,4.4-2.54C97.21,49.81,113.9,62.32,118.93,81.09z"/>
			<path id="XMLID_21005_" class="st6" d="M134.63,84.3c7.17,26.77-8.71,54.29-35.49,61.47c-23.53,6.31-47.64-5.21-58.01-26.28
				c-0.16-1.53-0.25-3.05-0.31-4.58c-0.07-1.7-0.06-3.4,0-5.08c0.06-1.98,0.22-3.93,0.46-5.87c0.29-2.42,0.71-4.84,1.25-7.21
				c0.85-3.76,1.99-7.42,3.43-10.97c2.53-6.3,5.93-12.2,10.13-17.54c2.35-3.02,4.95-5.84,7.78-8.45c1.78-1.65,3.66-3.22,5.62-4.68
				c1.56-1.17,3.17-2.29,4.85-3.33c1.42-0.9,2.89-1.75,4.4-2.54c1.35-0.72,2.71-1.4,4.12-2.02C106.3,45.65,128.33,60.77,134.63,84.3
				z"/>
			<path id="XMLID_21004_" class="st6" d="M150.34,87.52c8.2,30.6-9.96,62.05-40.56,70.25c-28.38,7.6-57.51-7.47-68.11-34.12
				c-0.22-1.38-0.4-2.77-0.53-4.15c-0.16-1.53-0.25-3.05-0.31-4.58c-0.07-1.7-0.06-3.4,0-5.08c0.06-1.98,0.22-3.93,0.46-5.87
				c0.29-2.42,0.71-4.84,1.25-7.21c0.85-3.76,1.99-7.42,3.43-10.97c2.53-6.3,5.93-12.2,10.13-17.54c2.35-3.02,4.95-5.84,7.78-8.45
				c1.78-1.65,3.66-3.22,5.62-4.68c1.56-1.17,3.17-2.29,4.85-3.33c1.42-0.9,2.89-1.75,4.4-2.54c1.35-0.72,2.71-1.4,4.12-2.02
				c1.26-0.57,2.55-1.11,3.86-1.61C115.12,41.45,142.73,59.13,150.34,87.52z"/>
			<path id="XMLID_21003_" class="st6" d="M166.05,90.73c9.22,34.42-11.21,69.81-45.63,79.03c-33.27,8.91-67.45-9.88-78.02-42.25
				c-0.02-0.01-0.02-0.02-0.01-0.04c-0.28-1.28-0.52-2.55-0.71-3.83c-0.22-1.38-0.4-2.77-0.53-4.15c-0.16-1.53-0.25-3.05-0.31-4.58
				c-0.07-1.7-0.06-3.4,0-5.08c0.06-1.98,0.22-3.93,0.46-5.87c0.29-2.42,0.71-4.84,1.25-7.21c0.85-3.76,1.99-7.42,3.43-10.97
				c2.53-6.3,5.93-12.2,10.13-17.54c2.35-3.02,4.95-5.84,7.78-8.45c1.78-1.65,3.66-3.22,5.62-4.68c1.56-1.17,3.17-2.29,4.85-3.33
				c1.42-0.9,2.89-1.75,4.4-2.54c1.35-0.72,2.71-1.4,4.12-2.02c1.26-0.57,2.55-1.11,3.86-1.61c1.21-0.47,2.43-0.9,3.68-1.3
				c0.01-0.02,0.02-0.02,0.04-0.01C123.76,37.26,157.13,57.46,166.05,90.73z"/>
			<path id="XMLID_21002_" class="st6" d="M181.75,93.94c10.25,38.24-12.46,77.56-50.7,87.81C92.81,192,53.49,169.3,43.24,131.06
				c-0.32-1.18-0.6-2.36-0.85-3.54c-0.02-0.01-0.02-0.02-0.01-0.04c-0.28-1.28-0.52-2.55-0.71-3.83c-0.22-1.38-0.4-2.77-0.53-4.15
				c-0.16-1.53-0.25-3.05-0.31-4.58c-0.07-1.7-0.06-3.4,0-5.08c0.06-1.98,0.22-3.93,0.46-5.87c0.29-2.42,0.71-4.84,1.25-7.21
				c0.85-3.76,1.99-7.42,3.43-10.97c2.53-6.3,5.93-12.2,10.13-17.54c2.35-3.02,4.95-5.84,7.78-8.45c1.78-1.65,3.66-3.22,5.62-4.68
				c1.56-1.17,3.17-2.29,4.85-3.33c1.42-0.9,2.89-1.75,4.4-2.54c1.35-0.72,2.71-1.4,4.12-2.02c1.26-0.57,2.55-1.11,3.86-1.61
				c1.21-0.47,2.43-0.9,3.68-1.3c0.01-0.02,0.02-0.02,0.04-0.01c1.15-0.38,2.31-0.72,3.49-1.04C132.18,33,171.51,55.7,181.75,93.94z
				"/>
		</g>
	</g>
</g>
</svg>
