<?xml version="1.0" encoding="utf-8"?>
<!-- Generator: Adobe Illustrator 26.2.1, SVG Export Plug-In . SVG Version: 6.00 Build 0)  -->
<svg version="1.1" xmlns="http://www.w3.org/2000/svg" xmlns:xlink="http://www.w3.org/1999/xlink" x="0px" y="0px"
	 viewBox="0 0 225 225" style="enable-background:new 0 0 225 225;" xml:space="preserve">
<style type="text/css">
	.st0{display:none;}
	.st1{display:inline;fill:#FAB433;}
	.st2{fill:none;}
	.st3{fill:none;stroke:#000000;stroke-width:1.6;stroke-miterlimit:10;}
	.st4{fill:none;stroke:#000000;stroke-width:0.7265;stroke-miterlimit:10;}
	.st5{fill:none;stroke:#000000;stroke-linecap:round;stroke-linejoin:round;stroke-miterlimit:10;}
	.st6{fill:none;stroke:#000000;stroke-miterlimit:10;}
	.st7{fill:none;stroke:#000000;stroke-width:0.7105;stroke-miterlimit:10;}
	.st8{fill:none;stroke:#000000;stroke-width:5.4;stroke-linecap:round;stroke-linejoin:round;stroke-miterlimit:10;}
	.st9{fill:none;stroke:#000000;stroke-width:2.9309;stroke-linecap:round;stroke-linejoin:round;stroke-miterlimit:10;}
	.st10{fill:none;stroke:#000000;stroke-width:0.5;stroke-linecap:round;stroke-linejoin:round;}
	.st11{fill:none;stroke:#FFFFFF;stroke-width:0;stroke-linecap:round;stroke-linejoin:round;}
	.st12{fill:#FFFFFF;}
	.st13{fill:none;stroke:#000000;stroke-width:1.4;stroke-miterlimit:10;}
	.st14{fill:url(#);stroke:#000000;stroke-width:1.4387;stroke-miterlimit:10;}
	.st15{fill:url(#);stroke:#000000;stroke-width:1.3718;stroke-miterlimit:10;}
	.st16{fill:none;stroke:#000000;stroke-width:1.0041;stroke-miterlimit:10;}
	.st17{fill:none;stroke:#000000;stroke-width:1.3621;stroke-miterlimit:10;}
	.st18{fill:none;stroke:#000000;stroke-width:0.25;stroke-miterlimit:10;}
</style>
<g id="Layer_2" class="st0">
	<rect id="XMLID_1638_" x="-100.99" y="-520.01" class="st1" width="1160" height="772"/>
</g>
<g id="Layer_1">
	<g id="XMLID_5664_">
		<g id="XMLID_5670_">
			<path d="M112.5,133.81c30.81,0,51.5,8.53,51.5,16.5s-20.69,16.5-51.5,16.5S61,158.29,61,150.32
				C61,142.35,81.7,133.81,112.5,133.81 M112.5,132.68c-29.07,0-52.64,7.9-52.64,17.64c0,9.74,23.57,17.64,52.64,17.64
				s52.64-7.9,52.64-17.64C165.14,140.57,141.57,132.68,112.5,132.68L112.5,132.68z"/>
		</g>
		<g id="XMLID_5668_">
			<path d="M102.27,47.6L102.27,47.6c1.07,0,2.02,0.24,2.83,0.7c3.57,2.06,4.5,8.76,2.55,18.38c-2.06,10.16-7.04,22.4-14.01,34.47
				c-12.19,21.12-28.19,37.05-37.21,37.05c-1.07,0-2.02-0.24-2.83-0.7c-3.57-2.06-4.5-8.76-2.55-18.38
				c2.06-10.16,7.04-22.4,14.01-34.47C77.25,63.53,93.25,47.6,102.27,47.6 M102.27,46.46c-9.39,0-25.38,15.42-38.2,37.62
				c-14.54,25.18-19.48,49.53-11.04,54.41c1,0.58,2.14,0.85,3.4,0.85c9.39,0,25.38-15.42,38.2-37.62
				c14.54-25.18,19.48-49.53,11.04-54.41C104.67,46.74,103.53,46.46,102.27,46.46L102.27,46.46z"/>
		</g>
		<g id="XMLID_5666_">
			<path d="M122.73,46.46l0,1.14h0c9.02,0,25.02,15.93,37.21,37.05c15.4,26.68,18.36,48.87,11.46,52.85
				c-0.81,0.47-1.76,0.7-2.83,0.7c-9.02,0-25.02-15.93-37.21-37.05C115.95,74.48,113,52.29,119.9,48.3c0.81-0.47,1.76-0.7,2.83-0.7
				L122.73,46.46 M122.73,46.46c-1.26,0-2.4,0.28-3.4,0.85c-8.44,4.87-3.49,29.23,11.04,54.41c12.82,22.2,28.81,37.62,38.2,37.62
				c1.26,0,2.4-0.28,3.4-0.85c8.44-4.87,3.49-29.23-11.04-54.41C148.11,61.88,132.12,46.46,122.73,46.46L122.73,46.46z"/>
		</g>
		<path id="XMLID_5665_" d="M76.5,167.95c9.54,6.16,20.76,9.94,32.82,10.51c0.01,0,0.02,0,0.02,0c0.59,0.03,1.19,0.05,1.78,0.06
			c0.41,0.01,0.82,0.01,1.22,0.02c0.05,0,0.11,0,0.16,0c0.08,0,0.16,0,0.24,0c0.46,0,0.92-0.01,1.38-0.02c0.09,0,0.17,0,0.26-0.01
			c1.13-0.03,2.27-0.09,3.4-0.18c0.03,0,0.05,0,0.08-0.01c0.5-0.04,1-0.09,1.5-0.14c0.14-0.01,0.29-0.03,0.43-0.05
			c0.37-0.04,0.75-0.09,1.12-0.13c0.19-0.02,0.39-0.05,0.58-0.07c0.3-0.04,0.6-0.09,0.9-0.13c11.73-1.75,22.46-6.56,31.34-13.59
			c0.1-0.08,0.19-0.15,0.29-0.23c0.43-0.34,0.86-0.69,1.28-1.05c0.2-0.17,0.4-0.34,0.6-0.51c0.36-0.31,0.71-0.62,1.06-0.93
			c0.41-0.37,0.81-0.74,1.21-1.12c0.15-0.14,0.3-0.28,0.45-0.42c0.34-0.32,0.67-0.65,1-0.98c0.05-0.05,0.09-0.09,0.14-0.14
			c0.36-0.37,0.73-0.73,1.08-1.11c-0.01,0-0.01,0.01-0.02,0.01c0.66-0.7,1.31-1.41,1.94-2.14c-0.99,1.06-2.28,2.08-3.82,3.04
			c-0.01,0.01-0.02,0.01-0.04,0.02c0,0-0.01,0-0.01,0c-8.14,3.54-17.79,3.32-26.07-1.46c-9.08-5.24-14.24-14.66-14.47-24.42
			c-0.02-0.96,0-1.93,0.08-2.89c0.32-4.18,1.56-8.36,3.8-12.23c2.75-4.77,6.66-8.47,11.17-10.92c8.57-4.68,19.31-4.92,28.39,0.32
			c8.28,4.78,13.3,13.03,14.3,21.85c-0.03,0.9-0.1,1.75-0.22,2.55c0,0.02-0.01,0.04-0.01,0.06c-0.06,0.38-0.13,0.75-0.2,1.11
			c-0.01,0.03-0.01,0.06-0.02,0.08c-0.08,0.35-0.17,0.69-0.26,1.02c-0.05,0.16-0.1,0.33-0.16,0.49c0.06-0.15,0.11-0.29,0.16-0.44
			c0.31-0.91,0.61-1.82,0.88-2.73c0.78-2.61,1.39-5.28,1.84-8.01c0.01-0.07,0.02-0.14,0.03-0.21c0.08-0.5,0.16-1,0.23-1.5
			c0.08-0.57,0.15-1.15,0.22-1.73c0.02-0.22,0.05-0.44,0.07-0.66c0.06-0.61,0.12-1.22,0.17-1.84c0.01-0.08,0.01-0.15,0.02-0.23
			c0.56-7.61-0.18-15.37-2.32-22.92c-0.04-0.15-0.08-0.3-0.13-0.45c-0.08-0.27-0.16-0.55-0.24-0.82c-0.08-0.27-0.17-0.55-0.25-0.82
			c-0.06-0.19-0.12-0.38-0.18-0.57c-0.14-0.44-0.29-0.88-0.45-1.32c-0.01-0.04-0.03-0.07-0.04-0.11c-1.75-4.96-4.08-9.64-6.89-13.98
			c-0.1-0.16-0.21-0.32-0.32-0.48c-0.15-0.23-0.31-0.46-0.46-0.69c-0.2-0.3-0.4-0.59-0.61-0.88c-0.02-0.03-0.04-0.06-0.06-0.09
			c-6.39-9.09-14.73-16.15-24.11-20.93c-0.21-0.11-0.43-0.22-0.64-0.33c-0.16-0.08-0.32-0.16-0.48-0.23
			c-0.36-0.18-0.73-0.35-1.09-0.52c-0.07-0.03-0.13-0.06-0.2-0.09c-3.95-1.82-8.11-3.27-12.43-4.3c-0.76-0.18-1.53-0.35-2.31-0.5
			c-0.17-0.03-0.33-0.07-0.5-0.1c0.02,0.01,0.05,0.01,0.08,0.02c-0.19-0.04-0.38-0.08-0.57-0.11c1.56,0.29,3.26,0.94,5.08,1.91
			c7.11,5.25,11.74,13.68,11.78,23.19c0,0.04,0,0.08,0,0.11c0,10.48-5.57,19.67-13.91,24.75c-4.39,2.67-9.54,4.21-15.05,4.21
			c-5.51,0-10.66-1.54-15.05-4.21c-8.34-5.08-13.92-14.27-13.92-24.75c0-0.89,0.04-1.78,0.12-2.65c0.77-8.46,5.18-15.87,11.65-20.65
			c1.81-0.97,3.52-1.62,5.08-1.91c-0.14,0.03-0.29,0.06-0.43,0.08c0.13-0.03,0.26-0.06,0.39-0.09c-0.16,0.03-0.31,0.05-0.46,0.08
			c-0.94,0.18-1.88,0.39-2.81,0.61c-0.33,0.08-0.65,0.17-0.98,0.25c-0.21,0.05-0.42,0.11-0.63,0.16c-0.36,0.09-0.71,0.19-1.07,0.29
			c-0.52,0.15-1.04,0.3-1.55,0.46c-0.25,0.08-0.49,0.15-0.74,0.23c-0.6,0.19-1.2,0.39-1.79,0.6c-0.08,0.03-0.17,0.06-0.25,0.09
			c-0.67,0.24-1.33,0.49-1.98,0.75c-0.04,0.01-0.08,0.03-0.11,0.04c-0.73,0.29-1.46,0.6-2.18,0.91c0,0-0.01,0-0.01,0.01
			c-3.31,1.46-6.49,3.17-9.49,5.13c-9.35,6.06-16.71,14.13-21.84,23.31c-0.02,0.04-0.04,0.07-0.06,0.11
			c-0.18,0.32-0.35,0.63-0.52,0.95c-0.12,0.22-0.24,0.45-0.35,0.67c-0.07,0.13-0.14,0.27-0.21,0.4c-3.45,6.72-5.8,14.1-6.78,21.91
			c-0.02,0.17-0.04,0.34-0.06,0.51c-0.03,0.25-0.06,0.5-0.09,0.75c-0.78,7.12-0.41,14.4,1.18,21.56c0.01,0.03,0.01,0.06,0.02,0.09
			c0.16,0.71,0.33,1.42,0.51,2.12c0.03,0.13,0.07,0.26,0.1,0.39c0.15,0.58,0.31,1.16,0.49,1.74c0.03,0.1,0.05,0.19,0.08,0.29
			c0,0,0,0,0-0.01c0,0,0,0,0,0c0.32,1.07,0.67,2.15,1.05,3.21c-0.53-1.5-0.82-3.3-0.89-5.35c0.17-1.55,0.47-3.07,0.89-4.57
			c1.97-7.04,6.58-13.34,13.41-17.28c9.08-5.24,19.81-5.01,28.39-0.32c4.51,2.46,8.42,6.15,11.17,10.92c2.75,4.77,4,10,3.87,15.14
			c-0.04,1.52-0.19,3.04-0.46,4.53c-1.48,8.07-6.35,15.46-14.01,19.88c-8.28,4.78-17.94,5.01-26.07,1.46
			c-1.75-1.08-3.16-2.24-4.2-3.44c0.11,0.13,0.23,0.26,0.34,0.39c0,0,0,0,0,0c0.01,0.01,0.02,0.02,0.03,0.03
			c0.62,0.72,1.25,1.42,1.89,2.1c3.41,3.62,7.19,6.79,11.23,9.5c0.09,0.06,0.18,0.12,0.27,0.18
			C75.95,167.59,76.22,167.77,76.5,167.95z"/>
	</g>
</g>
</svg>
