<?xml version="1.0" encoding="utf-8"?>
<!-- Generator: Adobe Illustrator 26.2.1, SVG Export Plug-In . SVG Version: 6.00 Build 0)  -->
<svg version="1.1" xmlns="http://www.w3.org/2000/svg" xmlns:xlink="http://www.w3.org/1999/xlink" x="0px" y="0px"
	 viewBox="0 0 225 225" style="enable-background:new 0 0 225 225;" xml:space="preserve">
<style type="text/css">
	.st0{display:none;}
	.st1{display:inline;fill:#FAB433;}
	.st2{fill:none;}
	.st3{fill:none;stroke:#000000;stroke-width:1.6;stroke-miterlimit:10;}
	.st4{fill:none;stroke:#000000;stroke-width:0.7265;stroke-miterlimit:10;}
	.st5{fill:none;stroke:#000000;stroke-linecap:round;stroke-linejoin:round;stroke-miterlimit:10;}
	.st6{fill:none;stroke:#000000;stroke-miterlimit:10;}
	.st7{fill:none;stroke:#000000;stroke-width:0.7105;stroke-miterlimit:10;}
	.st8{fill:none;stroke:#000000;stroke-width:5.4;stroke-linecap:round;stroke-linejoin:round;stroke-miterlimit:10;}
	.st9{fill:none;stroke:#000000;stroke-width:2.9309;stroke-linecap:round;stroke-linejoin:round;stroke-miterlimit:10;}
	.st10{fill:none;stroke:#000000;stroke-width:0.5;stroke-linecap:round;stroke-linejoin:round;}
	.st11{fill:none;stroke:#FFFFFF;stroke-width:0;stroke-linecap:round;stroke-linejoin:round;}
	.st12{fill:#FFFFFF;}
	.st13{fill:none;stroke:#000000;stroke-width:1.4;stroke-miterlimit:10;}
	.st14{fill:url(#);stroke:#000000;stroke-width:1.4387;stroke-miterlimit:10;}
	.st15{fill:url(#);stroke:#000000;stroke-width:1.3718;stroke-miterlimit:10;}
	.st16{fill:none;stroke:#000000;stroke-width:1.0041;stroke-miterlimit:10;}
	.st17{fill:none;stroke:#000000;stroke-width:1.3621;stroke-miterlimit:10;}
	.st18{fill:none;stroke:#000000;stroke-width:0.25;stroke-miterlimit:10;}
</style>
<g id="Layer_2" class="st0">
	<rect id="XMLID_3548_" x="-345.99" y="-30.01" class="st1" width="1160" height="772"/>
</g>
<g id="Layer_1">
	<path id="XMLID_21031_" class="st6" d="M159.11,153.97c1.13,1.01,2.43,3.78,2.99,5.26l-2.87,2.87c-1.49-0.56-4.25-1.86-5.26-2.99
		l-3.55,2.93c0.92,1.2,1.67,4.17,1.94,5.73l-3.36,2.27c-1.35-0.83-3.82-2.63-4.6-3.93l-4.04,2.21c0.67,1.36,0.85,4.41,0.82,6
		l-3.73,1.6c-1.17-1.07-3.26-3.31-3.77-4.73l-4.39,1.4c0.4,1.46,0,4.49-0.33,6.04l-3.97,0.86c-0.95-1.27-2.57-3.87-2.81-5.36
		l-4.57,0.55c0.12,1.51-0.85,4.41-1.47,5.87l-4.06,0.1c-0.69-1.43-1.79-4.28-1.75-5.79l-4.59-0.33c-0.17,1.5-1.67,4.17-2.55,5.49
		l-4-0.67c-0.41-1.53-0.95-4.54-0.62-6.02l-4.45-1.19c-0.45,1.44-2.42,3.78-3.55,4.9l-3.8-1.42c-0.11-1.58-0.07-4.64,0.53-6.03
		l-4.14-2.01c-0.72,1.33-3.1,3.25-4.41,4.14l-3.47-2.11c0.19-1.58,0.81-4.57,1.66-5.82l-3.69-2.76c-0.95,1.17-3.66,2.61-5.11,3.24
		l-3-2.73c0.49-1.51,1.66-4.34,2.73-5.4l-3.1-3.41c-1.16,0.97-4.08,1.87-5.63,2.21l-2.43-3.25c0.76-1.39,2.45-3.94,3.71-4.78
		l-2.4-3.93c-1.32,0.73-4.36,1.06-5.95,1.1l-1.77-3.65c1.01-1.22,3.15-3.41,4.54-4l-1.61-4.32c-1.44,0.47-4.49,0.22-6.05-0.04
		l-1.05-3.92c1.23-1.01,3.74-2.75,5.22-3.06l-0.76-4.54c-1.5,0.19-4.45-0.63-5.93-1.19l-0.29-4.05c1.39-0.76,4.19-2,5.7-2.02
		l0.11-4.6c-1.51-0.1-4.25-1.46-5.6-2.29l0.48-4.03c1.51-0.48,4.49-1.17,5.98-0.9l0.98-4.5c-1.46-0.38-3.89-2.24-5.07-3.31
		l1.24-3.87c1.58-0.19,4.63-0.29,6.05,0.24l1.81-4.23c-1.37-0.65-3.4-2.94-4.35-4.21l1.94-3.56c1.58,0.12,4.6,0.59,5.89,1.38
		l2.58-3.81c-1.22-0.9-2.78-3.53-3.47-4.95l2.58-3.13c1.53,0.41,4.41,1.45,5.52,2.47l3.26-3.26c-1.03-1.11-2.06-3.99-2.47-5.52
		l3.13-2.58c1.43,0.7,4.06,2.26,4.95,3.47l3.81-2.58c-0.8-1.29-1.27-4.31-1.38-5.89l3.56-1.94c1.27,0.95,3.56,2.98,4.21,4.35
		l4.23-1.81c-0.54-1.41-0.43-4.47-0.24-6.05l3.87-1.24c1.07,1.18,2.93,3.6,3.31,5.07l4.5-0.98c-0.26-1.49,0.42-4.47,0.9-5.98
		l4.03-0.48c0.82,1.36,2.19,4.09,2.29,5.6l4.6-0.11c0.03-1.51,1.26-4.31,2.02-5.7l4.05,0.29c0.55,1.49,1.38,4.43,1.19,5.93
		l4.54,0.76c0.31-1.48,2.05-3.99,3.06-5.22l3.92,1.05c0.26,1.57,0.51,4.61,0.04,6.05l4.32,1.61c0.59-1.39,2.77-3.53,4-4.54
		l3.65,1.77c-0.04,1.59-0.37,4.63-1.1,5.95l3.93,2.4c0.84-1.26,3.39-2.94,4.78-3.71l3.25,2.43c-0.34,1.55-1.24,4.47-2.21,5.63
		l3.41,3.1c1.06-1.08,3.89-2.25,5.4-2.73l2.73,3c-0.63,1.46-2.06,4.16-3.24,5.11l2.76,3.69c1.25-0.86,4.24-1.47,5.82-1.66l2.11,3.47
		c-0.89,1.31-2.81,3.69-4.14,4.41l2.01,4.14c1.39-0.61,4.44-0.64,6.03-0.53l1.42,3.8c-1.12,1.12-3.46,3.1-4.9,3.55l1.19,4.45
		c1.48-0.33,4.49,0.21,6.02,0.62l0.67,4c-1.32,0.89-3.98,2.38-5.49,2.55l0.33,4.59c1.51-0.05,4.37,1.05,5.79,1.75l-0.1,4.06
		c-1.46,0.62-4.36,1.59-5.87,1.47l-0.55,4.57c1.49,0.24,4.09,1.86,5.36,2.81l-0.86,3.97c-1.55,0.34-4.58,0.73-6.04,0.33l-1.4,4.39
		c1.42,0.52,3.66,2.6,4.73,3.77l-1.6,3.73c-1.59,0.04-4.64-0.15-6-0.82l-2.21,4.04c1.3,0.78,3.1,3.25,3.93,4.6l-2.27,3.36
		c-1.57-0.27-4.53-1.02-5.73-1.94L159.11,153.97z M136.57,88.38c-13.31-13.31-34.88-13.31-48.19,0s-13.31,34.88,0,48.19
		s34.88,13.31,48.19,0S149.87,101.68,136.57,88.38z"/>
</g>
</svg>
