<?xml version="1.0" encoding="utf-8"?>
<!-- Generator: Adobe Illustrator 26.2.1, SVG Export Plug-In . SVG Version: 6.00 Build 0)  -->
<svg version="1.1" xmlns="http://www.w3.org/2000/svg" xmlns:xlink="http://www.w3.org/1999/xlink" x="0px" y="0px"
	 viewBox="0 0 225 225" style="enable-background:new 0 0 225 225;" xml:space="preserve">
<style type="text/css">
	.st0{display:none;}
	.st1{display:inline;fill:#FAB433;}
	.st2{fill:none;}
	.st3{fill:none;stroke:#000000;stroke-width:1.6;stroke-miterlimit:10;}
	.st4{fill:none;stroke:#000000;stroke-width:0.7265;stroke-miterlimit:10;}
	.st5{fill:none;stroke:#000000;stroke-linecap:round;stroke-linejoin:round;stroke-miterlimit:10;}
	.st6{fill:none;stroke:#000000;stroke-miterlimit:10;}
	.st7{fill:none;stroke:#000000;stroke-width:0.7105;stroke-miterlimit:10;}
	.st8{fill:none;stroke:#000000;stroke-width:5.4;stroke-linecap:round;stroke-linejoin:round;stroke-miterlimit:10;}
	.st9{fill:none;stroke:#000000;stroke-width:2.9309;stroke-linecap:round;stroke-linejoin:round;stroke-miterlimit:10;}
	.st10{fill:none;stroke:#000000;stroke-width:0.5;stroke-linecap:round;stroke-linejoin:round;}
	.st11{fill:none;stroke:#FFFFFF;stroke-width:0;stroke-linecap:round;stroke-linejoin:round;}
	.st12{fill:#FFFFFF;}
	.st13{fill:none;stroke:#000000;stroke-width:1.4;stroke-miterlimit:10;}
	.st14{fill:url(#);stroke:#000000;stroke-width:1.4387;stroke-miterlimit:10;}
	.st15{fill:url(#);stroke:#000000;stroke-width:1.3718;stroke-miterlimit:10;}
	.st16{fill:none;stroke:#000000;stroke-width:1.0041;stroke-miterlimit:10;}
	.st17{fill:none;stroke:#000000;stroke-width:1.3621;stroke-miterlimit:10;}
	.st18{fill:none;stroke:#000000;stroke-width:0.25;stroke-miterlimit:10;}
</style>
<g id="Layer_2" class="st0">
	<rect id="XMLID_1638_" x="-590.99" y="-30.01" class="st1" width="1160" height="772"/>
</g>
<g id="Layer_1">
	<g id="XMLID_5775_">
		<g id="XMLID_6114_">
			<rect id="XMLID_6197_" x="153.45" y="112.5" width="0.37" height="12.51"/>
			<rect id="XMLID_6196_" x="160.82" y="112.5" width="0.37" height="12.51"/>
			<rect id="XMLID_6195_" x="168.2" y="112.5" width="0.37" height="12.51"/>
			<rect id="XMLID_6194_" x="175.58" y="112.5" width="0.37" height="12.51"/>
			<rect id="XMLID_6193_" x="157.13" y="112.5" width="0.37" height="12.51"/>
			<rect id="XMLID_6192_" x="164.51" y="112.5" width="0.37" height="12.51"/>
			<rect id="XMLID_6191_" x="171.89" y="112.5" width="0.37" height="12.51"/>
			<rect id="XMLID_6190_" x="179.27" y="112.5" width="0.37" height="12.51"/>
			<rect id="XMLID_6189_" x="153.45" y="125.01" width="0.37" height="0.13"/>
			<rect id="XMLID_6188_" x="160.82" y="125.01" width="0.37" height="0.13"/>
			<rect id="XMLID_6187_" x="168.2" y="125.01" width="0.37" height="0.13"/>
			<rect id="XMLID_6186_" x="175.58" y="125.01" width="0.37" height="0.13"/>
			<rect id="XMLID_6185_" x="157.13" y="125.01" width="0.37" height="0.13"/>
			<rect id="XMLID_6184_" x="164.51" y="125.01" width="0.37" height="0.13"/>
			<rect id="XMLID_6183_" x="171.89" y="125.01" width="0.37" height="0.13"/>
			<rect id="XMLID_6182_" x="179.27" y="125.01" width="0.37" height="0.13"/>
			<rect id="XMLID_6181_" x="116.55" y="112.5" width="0.37" height="12.51"/>
			<rect id="XMLID_6180_" x="123.93" y="112.5" width="0.37" height="12.51"/>
			<rect id="XMLID_6179_" x="131.31" y="112.5" width="0.37" height="12.51"/>
			<rect id="XMLID_6178_" x="138.69" y="112.5" width="0.37" height="12.51"/>
			<rect id="XMLID_6177_" x="146.07" y="112.5" width="0.37" height="12.51"/>
			<rect id="XMLID_6176_" x="120.24" y="112.5" width="0.37" height="12.51"/>
			<rect id="XMLID_6175_" x="127.62" y="112.5" width="0.37" height="12.51"/>
			<rect id="XMLID_6174_" x="135" y="112.5" width="0.37" height="12.51"/>
			<rect id="XMLID_6173_" x="142.38" y="112.5" width="0.37" height="12.51"/>
			<rect id="XMLID_6172_" x="149.76" y="112.5" width="0.37" height="12.51"/>
			<rect id="XMLID_6171_" x="116.55" y="125.01" width="0.37" height="0.13"/>
			<rect id="XMLID_6170_" x="123.93" y="125.01" width="0.37" height="0.13"/>
			<rect id="XMLID_6169_" x="131.31" y="125.01" width="0.37" height="0.13"/>
			<rect id="XMLID_6168_" x="138.69" y="125.01" width="0.37" height="0.13"/>
			<rect id="XMLID_6167_" x="146.07" y="125.01" width="0.37" height="0.13"/>
			<rect id="XMLID_6166_" x="120.24" y="125.01" width="0.37" height="0.13"/>
			<rect id="XMLID_6165_" x="127.62" y="125.01" width="0.37" height="0.13"/>
			<rect id="XMLID_6164_" x="135" y="125.01" width="0.37" height="0.13"/>
			<rect id="XMLID_6163_" x="142.38" y="125.01" width="0.37" height="0.13"/>
			<rect id="XMLID_6162_" x="149.76" y="125.01" width="0.37" height="0.13"/>
			<rect id="XMLID_6161_" x="112.86" y="112.5" width="0.37" height="12.51"/>
			<rect id="XMLID_6160_" x="112.86" y="125.01" width="0.37" height="0.13"/>
			<polygon id="XMLID_6159_" points="153.81,125.27 153.81,125.14 153.45,125.14 153.45,125.27 153.45,161.91 153.81,161.91 			"/>
			<path id="XMLID_6158_" d="M160.82,125.27v35.53c0.12-0.12,0.24-0.25,0.37-0.38v-35.15v-0.13h-0.37V125.27z"/>
			<path id="XMLID_6157_" d="M168.2,125.27v26.8c0.12-0.18,0.25-0.35,0.37-0.53v-26.27v-0.13h-0.37V125.27z"/>
			<path id="XMLID_6156_" d="M175.58,125.27v13.51c0.12-0.3,0.25-0.6,0.37-0.9v-12.61v-0.13h-0.37V125.27z"/>
			<polygon id="XMLID_6155_" points="157.5,125.27 157.5,125.14 157.13,125.14 157.13,125.27 157.13,161.91 157.5,161.91 			"/>
			<path id="XMLID_6154_" d="M164.51,125.27v31.53c0.12-0.14,0.25-0.29,0.37-0.44v-31.09v-0.13h-0.37V125.27z"/>
			<path id="XMLID_6153_" d="M171.89,125.27v21.02c0.12-0.22,0.25-0.44,0.37-0.66v-20.36v-0.13h-0.37V125.27z"/>
			<path id="XMLID_6152_" d="M179.27,125.27v1.75c0.13-0.6,0.25-1.21,0.37-1.82v-0.06h-0.37V125.27z"/>
			<rect id="XMLID_6151_" x="153.45" y="161.91" width="0.37" height="0.13"/>
			<rect id="XMLID_6150_" x="157.13" y="161.91" width="0.37" height="0.13"/>
			<polygon id="XMLID_6149_" points="116.92,125.27 116.92,125.14 116.55,125.14 116.55,125.27 116.55,161.91 116.92,161.91 			"/>
			<polygon id="XMLID_6148_" points="124.3,125.27 124.3,125.14 123.93,125.14 123.93,125.27 123.93,161.91 124.3,161.91 			"/>
			<polygon id="XMLID_6147_" points="131.68,125.27 131.68,125.14 131.31,125.14 131.31,125.27 131.31,161.91 131.68,161.91 			"/>
			<polygon id="XMLID_6146_" points="139.06,125.27 139.06,125.14 138.69,125.14 138.69,125.27 138.69,161.91 139.06,161.91 			"/>
			<polygon id="XMLID_6145_" points="146.07,125.27 146.07,161.91 146.44,161.91 146.44,125.27 146.44,125.14 146.07,125.14 			"/>
			<polygon id="XMLID_6144_" points="120.61,125.27 120.61,125.14 120.24,125.14 120.24,125.27 120.24,161.91 120.61,161.91 			"/>
			<polygon id="XMLID_6143_" points="127.99,125.27 127.99,125.14 127.62,125.14 127.62,125.27 127.62,161.91 127.99,161.91 			"/>
			<polygon id="XMLID_6142_" points="135.37,125.27 135.37,125.14 135,125.14 135,125.27 135,161.91 135.37,161.91 			"/>
			<polygon id="XMLID_6141_" points="142.75,125.27 142.75,125.14 142.38,125.14 142.38,125.27 142.38,161.91 142.75,161.91 			"/>
			<polygon id="XMLID_6140_" points="150.12,125.27 150.12,125.14 149.76,125.14 149.76,125.27 149.76,161.91 150.12,161.91 			"/>
			<rect id="XMLID_6139_" x="116.55" y="161.91" width="0.37" height="0.13"/>
			<rect id="XMLID_6138_" x="123.93" y="161.91" width="0.37" height="0.13"/>
			<rect id="XMLID_6137_" x="131.31" y="161.91" width="0.37" height="0.13"/>
			<rect id="XMLID_6136_" x="138.69" y="161.91" width="0.37" height="0.13"/>
			<rect id="XMLID_6135_" x="146.07" y="161.91" width="0.37" height="0.13"/>
			<rect id="XMLID_6134_" x="120.24" y="161.91" width="0.37" height="0.13"/>
			<rect id="XMLID_6133_" x="127.62" y="161.91" width="0.37" height="0.13"/>
			<rect id="XMLID_6132_" x="135" y="161.91" width="0.37" height="0.13"/>
			<rect id="XMLID_6131_" x="142.38" y="161.91" width="0.37" height="0.13"/>
			<rect id="XMLID_6130_" x="149.76" y="161.91" width="0.37" height="0.13"/>
			<polygon id="XMLID_6129_" points="113.23,125.27 113.23,125.14 112.86,125.14 112.86,125.27 112.86,161.91 113.23,161.91 			"/>
			<rect id="XMLID_6128_" x="112.86" y="161.91" width="0.37" height="0.13"/>
			<path id="XMLID_6127_" d="M153.81,162.16v-0.13h-0.37v0.13v5.04c0.12-0.09,0.25-0.19,0.37-0.28V162.16z"/>
			<path id="XMLID_6126_" d="M157.5,162.04h-0.37v0.13v2.07c0.12-0.11,0.25-0.22,0.37-0.32v-1.74V162.04z"/>
			<path id="XMLID_6125_" d="M116.92,162.16v-0.13h-0.37v0.13v18.54c0.12-0.01,0.25-0.02,0.37-0.02V162.16z"/>
			<path id="XMLID_6124_" d="M124.3,162.04h-0.37v0.13v17.7c0.12-0.02,0.25-0.04,0.37-0.06v-17.64V162.04z"/>
			<path id="XMLID_6123_" d="M131.68,162.04h-0.37v0.13v16.04c0.12-0.04,0.25-0.07,0.37-0.11v-15.93V162.04z"/>
			<path id="XMLID_6122_" d="M139.06,162.04h-0.37v0.13v13.46c0.12-0.05,0.25-0.1,0.37-0.15v-13.31V162.04z"/>
			<path id="XMLID_6121_" d="M146.07,162.16v9.86c0.12-0.07,0.25-0.14,0.37-0.21v-9.65v-0.13h-0.37V162.16z"/>
			<path id="XMLID_6120_" d="M120.61,162.04h-0.37v0.13v18.22c0.12-0.01,0.25-0.03,0.37-0.04v-18.18V162.04z"/>
			<path id="XMLID_6119_" d="M127.99,162.04h-0.37v0.13v16.98c0.12-0.03,0.25-0.05,0.37-0.08v-16.9V162.04z"/>
			<path id="XMLID_6118_" d="M135.37,162.04H135v0.13v14.86c0.12-0.04,0.25-0.09,0.37-0.13v-14.73V162.04z"/>
			<path id="XMLID_6117_" d="M142.75,162.04h-0.37v0.13v11.8c0.12-0.06,0.25-0.12,0.37-0.18v-11.61V162.04z"/>
			<path id="XMLID_6116_" d="M150.12,162.04h-0.37v0.13v7.61c0.12-0.08,0.25-0.16,0.37-0.24v-7.37V162.04z"/>
			<path id="XMLID_6115_" d="M113.23,162.04h-0.37v0.13v18.66c0.12,0,0.25,0,0.37,0v-18.65V162.04z"/>
		</g>
		<g id="XMLID_6098_">
			<path id="XMLID_6113_" d="M157.18,95.85c-0.8,0.7-1.62,1.38-2.46,2.03v14.61h2.46V95.85z"/>
			<path id="XMLID_6112_" d="M164.56,88.41v24.09h2.46V85.35C166.23,86.4,165.41,87.41,164.56,88.41z"/>
			<path id="XMLID_6111_" d="M174.4,83.57v28.94h2.46V89.55C176.13,87.51,175.31,85.51,174.4,83.57z"/>
			<path id="XMLID_6110_" d="M159.64,93.63v18.88h2.46V91.15C161.3,92,160.48,92.82,159.64,93.63z"/>
			<path id="XMLID_6109_" d="M171.68,78.34c-0.7,1.2-1.43,2.38-2.2,3.54v30.62h2.46V78.81C171.85,78.65,171.77,78.5,171.68,78.34z"
				/>
			<path id="XMLID_6108_" d="M179.32,98.22v14.28h1.5C180.82,107.6,180.3,102.83,179.32,98.22z"/>
			<path id="XMLID_6107_" d="M115.37,112.44v0.07h2.46v-0.21C117.01,112.35,116.19,112.4,115.37,112.44z"/>
			<path id="XMLID_6106_" d="M125.21,111.31v1.19h2.46v-1.7C126.85,110.99,126.03,111.16,125.21,111.31z"/>
			<path id="XMLID_6105_" d="M135.05,108.69v3.81h2.46v-4.73C136.69,108.1,135.87,108.4,135.05,108.69z"/>
			<path id="XMLID_6104_" d="M144.88,104.35v8.15h2.46v-9.55C146.54,103.44,145.71,103.9,144.88,104.35z"/>
			<path id="XMLID_6103_" d="M112.5,112.5h0.41v-0.01C112.77,112.5,112.64,112.5,112.5,112.5z"/>
			<path id="XMLID_6102_" d="M120.29,112.05v0.45h2.46v-0.77C121.93,111.85,121.11,111.96,120.29,112.05z"/>
			<path id="XMLID_6101_" d="M130.13,110.2v2.3h2.46v-3.01C131.77,109.75,130.95,109.98,130.13,110.2z"/>
			<path id="XMLID_6100_" d="M139.97,106.75v5.75h2.46v-6.9C141.61,106,140.79,106.38,139.97,106.75z"/>
			<path id="XMLID_6099_" d="M149.8,101.42v11.08h2.46V99.74C151.46,100.32,150.64,100.87,149.8,101.42z"/>
		</g>
		<g id="XMLID_5979_">
			<path id="XMLID_6097_" d="M151.53,64.5h9.58c-0.25-0.25-0.5-0.49-0.75-0.74h-8.83V64.5z"/>
			<path id="XMLID_6096_" d="M151.53,58.84v0.74h4.17c-0.3-0.25-0.61-0.49-0.92-0.74H151.53z"/>
			<path id="XMLID_6095_" d="M151.53,61.3v0.74h7.02c-0.27-0.25-0.54-0.5-0.81-0.74H151.53z"/>
			<path id="XMLID_6094_" d="M151.53,57.12h0.98c-0.32-0.23-0.65-0.46-0.98-0.69V57.12z"/>
			<rect id="XMLID_6093_" x="151.44" y="63.76" width="0.09" height="0.74"/>
			<rect id="XMLID_6092_" x="151.44" y="58.84" width="0.09" height="0.74"/>
			<rect id="XMLID_6091_" x="151.44" y="61.3" width="0.09" height="0.74"/>
			<path id="XMLID_6090_" d="M151.46,56.38h-0.02v0.74h0.09v-0.69C151.51,56.41,151.49,56.4,151.46,56.38z"/>
			<path id="XMLID_6089_" d="M164.61,88.36h-13.08v0.74h12.45C164.19,88.85,164.4,88.6,164.61,88.36z"/>
			<path id="XMLID_6088_" d="M151.53,83.44v0.74h16.36c0.18-0.24,0.35-0.49,0.52-0.74H151.53z"/>
			<path id="XMLID_6087_" d="M151.53,78.52v0.74h19.6c0.15-0.25,0.3-0.49,0.44-0.74H151.53z"/>
			<path id="XMLID_6086_" d="M151.53,73.6v0.74h17.64c-0.17-0.25-0.34-0.49-0.51-0.74H151.53z"/>
			<path id="XMLID_6085_" d="M151.53,68.68v0.74h13.99c-0.2-0.25-0.41-0.49-0.62-0.74H151.53z"/>
			<path id="XMLID_6084_" d="M151.53,85.9v0.74h14.49c0.2-0.25,0.39-0.49,0.58-0.74H151.53z"/>
			<path id="XMLID_6083_" d="M151.53,80.98v0.74h18.06c0.16-0.24,0.32-0.49,0.48-0.74H151.53z"/>
			<path id="XMLID_6082_" d="M151.53,76.06v0.74h19.22c-0.15-0.25-0.31-0.49-0.46-0.74H151.53z"/>
			<path id="XMLID_6081_" d="M151.53,71.14v0.74h15.9c-0.18-0.25-0.36-0.49-0.55-0.74H151.53z"/>
			<path id="XMLID_6080_" d="M151.53,66.22v0.74h11.89c-0.22-0.25-0.44-0.49-0.66-0.74H151.53z"/>
			<rect id="XMLID_6079_" x="151.44" y="88.36" width="0.09" height="0.74"/>
			<rect id="XMLID_6078_" x="151.44" y="83.44" width="0.09" height="0.74"/>
			<rect id="XMLID_6077_" x="151.44" y="78.52" width="0.09" height="0.74"/>
			<rect id="XMLID_6076_" x="151.44" y="73.6" width="0.09" height="0.74"/>
			<rect id="XMLID_6075_" x="151.44" y="68.68" width="0.09" height="0.74"/>
			<rect id="XMLID_6074_" x="151.44" y="85.9" width="0.09" height="0.74"/>
			<rect id="XMLID_6073_" x="151.44" y="80.98" width="0.09" height="0.74"/>
			<rect id="XMLID_6072_" x="151.44" y="76.06" width="0.09" height="0.74"/>
			<rect id="XMLID_6071_" x="151.44" y="71.14" width="0.09" height="0.74"/>
			<rect id="XMLID_6070_" x="151.44" y="66.22" width="0.09" height="0.74"/>
			<path id="XMLID_6069_" d="M151.53,98.2v0.74h1.83c0.33-0.24,0.66-0.49,0.98-0.74H151.53z"/>
			<path id="XMLID_6068_" d="M151.53,93.28v0.74h7.7c0.26-0.24,0.51-0.49,0.77-0.74H151.53z"/>
			<path id="XMLID_6067_" d="M151.53,95.74v0.74h4.93c0.29-0.24,0.57-0.49,0.86-0.74H151.53z"/>
			<path id="XMLID_6066_" d="M151.53,90.82v0.74h10.19c0.24-0.25,0.48-0.49,0.71-0.74H151.53z"/>
			<rect id="XMLID_6065_" x="151.44" y="98.2" width="0.09" height="0.74"/>
			<rect id="XMLID_6064_" x="151.44" y="93.28" width="0.09" height="0.74"/>
			<rect id="XMLID_6063_" x="151.44" y="95.74" width="0.09" height="0.74"/>
			<rect id="XMLID_6062_" x="151.44" y="90.82" width="0.09" height="0.74"/>
			<polygon id="XMLID_6061_" points="151.36,63.76 126.93,63.76 126.93,64.5 151.36,64.5 151.44,64.5 151.44,63.76 			"/>
			<polygon id="XMLID_6060_" points="151.36,58.84 126.93,58.84 126.93,59.58 151.36,59.58 151.44,59.58 151.44,58.84 			"/>
			<path id="XMLID_6059_" d="M148.87,54.66c-0.4-0.25-0.8-0.49-1.21-0.74h-20.73v0.74H148.87z"/>
			<path id="XMLID_6058_" d="M139.53,49.74c-0.59-0.26-1.19-0.5-1.79-0.74h-10.81v0.74H139.53z"/>
			<polygon id="XMLID_6057_" points="151.36,61.3 126.93,61.3 126.93,62.04 151.36,62.04 151.44,62.04 151.44,61.3 			"/>
			<polygon id="XMLID_6056_" points="151.36,56.38 126.93,56.38 126.93,57.12 151.36,57.12 151.44,57.12 151.44,56.38 			"/>
			<path id="XMLID_6055_" d="M144.63,52.2c-0.47-0.25-0.93-0.5-1.41-0.74h-16.29v0.74H144.63z"/>
			<path id="XMLID_6054_" d="M132.91,47.28c-0.84-0.26-1.7-0.51-2.55-0.74h-3.43v0.74H132.91z"/>
			<rect id="XMLID_6053_" x="126.85" y="63.76" width="0.09" height="0.74"/>
			<rect id="XMLID_6052_" x="126.85" y="58.84" width="0.09" height="0.74"/>
			<rect id="XMLID_6051_" x="126.85" y="53.92" width="0.09" height="0.74"/>
			<rect id="XMLID_6050_" x="126.85" y="49" width="0.09" height="0.74"/>
			<rect id="XMLID_6049_" x="126.85" y="61.3" width="0.09" height="0.74"/>
			<rect id="XMLID_6048_" x="126.85" y="56.38" width="0.09" height="0.74"/>
			<rect id="XMLID_6047_" x="126.85" y="51.46" width="0.09" height="0.74"/>
			<rect id="XMLID_6046_" x="126.85" y="46.54" width="0.09" height="0.74"/>
			<polygon id="XMLID_6045_" points="151.36,88.36 126.93,88.36 126.93,89.1 151.36,89.1 151.44,89.1 151.44,88.36 			"/>
			<polygon id="XMLID_6044_" points="151.36,83.44 126.93,83.44 126.93,84.18 151.36,84.18 151.44,84.18 151.44,83.44 			"/>
			<polygon id="XMLID_6043_" points="151.36,78.52 126.93,78.52 126.93,79.26 151.36,79.26 151.44,79.26 151.44,78.52 			"/>
			<polygon id="XMLID_6042_" points="151.36,73.6 126.93,73.6 126.93,74.34 151.36,74.34 151.44,74.34 151.44,73.6 			"/>
			<polygon id="XMLID_6041_" points="151.36,68.68 126.93,68.68 126.93,69.42 151.36,69.42 151.44,69.42 151.44,68.68 			"/>
			<polygon id="XMLID_6040_" points="151.36,85.9 126.93,85.9 126.93,86.64 151.36,86.64 151.44,86.64 151.44,85.9 			"/>
			<polygon id="XMLID_6039_" points="151.36,80.98 126.93,80.98 126.93,81.72 151.36,81.72 151.44,81.72 151.44,80.98 			"/>
			<polygon id="XMLID_6038_" points="151.36,76.06 126.93,76.06 126.93,76.8 151.36,76.8 151.44,76.8 151.44,76.06 			"/>
			<polygon id="XMLID_6037_" points="151.36,71.14 126.93,71.14 126.93,71.88 151.36,71.88 151.44,71.88 151.44,71.14 			"/>
			<polygon id="XMLID_6036_" points="151.36,66.22 126.93,66.22 126.93,66.96 151.36,66.96 151.44,66.96 151.44,66.22 			"/>
			<rect id="XMLID_6035_" x="126.85" y="88.36" width="0.09" height="0.74"/>
			<rect id="XMLID_6034_" x="126.85" y="83.44" width="0.09" height="0.74"/>
			<rect id="XMLID_6033_" x="126.85" y="78.52" width="0.09" height="0.74"/>
			<rect id="XMLID_6032_" x="126.85" y="73.6" width="0.09" height="0.74"/>
			<rect id="XMLID_6031_" x="126.85" y="68.68" width="0.09" height="0.74"/>
			<rect id="XMLID_6030_" x="126.85" y="85.9" width="0.09" height="0.74"/>
			<rect id="XMLID_6029_" x="126.85" y="80.98" width="0.09" height="0.74"/>
			<rect id="XMLID_6028_" x="126.85" y="76.06" width="0.09" height="0.74"/>
			<rect id="XMLID_6027_" x="126.85" y="71.14" width="0.09" height="0.74"/>
			<rect id="XMLID_6026_" x="126.85" y="66.22" width="0.09" height="0.74"/>
			<path id="XMLID_6025_" d="M134.81,108.77c0.68-0.24,1.36-0.48,2.03-0.74h-9.91v0.74H134.81z"/>
			<path id="XMLID_6024_" d="M145.78,103.85c0.43-0.24,0.87-0.49,1.3-0.74h-20.15v0.74H145.78z"/>
			<polygon id="XMLID_6023_" points="151.36,98.2 126.93,98.2 126.93,98.93 151.36,98.93 151.44,98.93 151.44,98.2 			"/>
			<polygon id="XMLID_6022_" points="151.36,93.28 126.93,93.28 126.93,94.01 151.36,94.01 151.44,94.01 151.44,93.28 			"/>
			<path id="XMLID_6021_" d="M128.99,110.49h-2.05v0.47C127.62,110.82,128.31,110.66,128.99,110.49z"/>
			<path id="XMLID_6020_" d="M140.94,106.31c0.52-0.24,1.04-0.49,1.55-0.74h-15.56v0.74H140.94z"/>
			<path id="XMLID_6019_" d="M126.93,101.39h22.91c0.37-0.24,0.75-0.49,1.12-0.74h-24.03V101.39z"/>
			<polygon id="XMLID_6018_" points="151.36,95.74 126.93,95.74 126.93,96.47 151.36,96.47 151.44,96.47 151.44,95.74 			"/>
			<polygon id="XMLID_6017_" points="151.36,90.82 126.93,90.82 126.93,91.55 151.36,91.55 151.44,91.55 151.44,90.82 			"/>
			<rect id="XMLID_6016_" x="126.85" y="108.03" width="0.09" height="0.74"/>
			<rect id="XMLID_6015_" x="126.85" y="103.11" width="0.09" height="0.74"/>
			<rect id="XMLID_6014_" x="126.85" y="98.2" width="0.09" height="0.74"/>
			<rect id="XMLID_6013_" x="126.85" y="93.28" width="0.09" height="0.74"/>
			<path id="XMLID_6012_" d="M126.93,110.97v-0.47h-0.09v0.49C126.88,110.98,126.9,110.97,126.93,110.97z"/>
			<rect id="XMLID_6011_" x="126.85" y="105.57" width="0.09" height="0.74"/>
			<rect id="XMLID_6010_" x="126.85" y="100.66" width="0.09" height="0.74"/>
			<rect id="XMLID_6009_" x="126.85" y="95.74" width="0.09" height="0.74"/>
			<rect id="XMLID_6008_" x="126.85" y="90.82" width="0.09" height="0.74"/>
			<polygon id="XMLID_6007_" points="126.76,63.76 112.5,63.76 112.5,64.5 126.76,64.5 126.85,64.5 126.85,63.76 			"/>
			<polygon id="XMLID_6006_" points="126.76,58.84 112.5,58.84 112.5,59.58 126.76,59.58 126.85,59.58 126.85,58.84 			"/>
			<polygon id="XMLID_6005_" points="126.76,54.66 126.85,54.66 126.85,53.92 126.76,53.92 112.5,53.92 112.5,54.66 			"/>
			<polygon id="XMLID_6004_" points="126.76,49.74 126.85,49.74 126.85,49 126.76,49 112.5,49 112.5,49.74 			"/>
			<path id="XMLID_6003_" d="M121.9,44.82c-3.07-0.42-6.21-0.64-9.4-0.64v0.64H121.9z"/>
			<polygon id="XMLID_6002_" points="126.76,61.3 112.5,61.3 112.5,62.04 126.76,62.04 126.85,62.04 126.85,61.3 			"/>
			<polygon id="XMLID_6001_" points="126.76,56.38 112.5,56.38 112.5,57.12 126.76,57.12 126.85,57.12 126.85,56.38 			"/>
			<polygon id="XMLID_6000_" points="126.76,52.2 126.85,52.2 126.85,51.46 126.76,51.46 112.5,51.46 112.5,52.2 			"/>
			<polygon id="XMLID_5999_" points="112.5,47.28 126.76,47.28 126.85,47.28 126.85,46.54 126.76,46.54 112.5,46.54 			"/>
			<polygon id="XMLID_5998_" points="126.76,88.36 112.5,88.36 112.5,89.1 126.76,89.1 126.85,89.1 126.85,88.36 			"/>
			<polygon id="XMLID_5997_" points="126.76,83.44 112.5,83.44 112.5,84.18 126.76,84.18 126.85,84.18 126.85,83.44 			"/>
			<polygon id="XMLID_5996_" points="126.76,78.52 112.5,78.52 112.5,79.26 126.76,79.26 126.85,79.26 126.85,78.52 			"/>
			<polygon id="XMLID_5995_" points="126.76,73.6 112.5,73.6 112.5,74.34 126.76,74.34 126.85,74.34 126.85,73.6 			"/>
			<polygon id="XMLID_5994_" points="126.76,68.68 112.5,68.68 112.5,69.42 126.76,69.42 126.85,69.42 126.85,68.68 			"/>
			<polygon id="XMLID_5993_" points="126.76,85.9 112.5,85.9 112.5,86.64 126.76,86.64 126.85,86.64 126.85,85.9 			"/>
			<polygon id="XMLID_5992_" points="126.76,80.98 112.5,80.98 112.5,81.72 126.76,81.72 126.85,81.72 126.85,80.98 			"/>
			<polygon id="XMLID_5991_" points="126.76,76.06 112.5,76.06 112.5,76.8 126.76,76.8 126.85,76.8 126.85,76.06 			"/>
			<polygon id="XMLID_5990_" points="126.76,71.14 112.5,71.14 112.5,71.88 126.76,71.88 126.85,71.88 126.85,71.14 			"/>
			<polygon id="XMLID_5989_" points="126.76,66.22 112.5,66.22 112.5,66.96 126.76,66.96 126.85,66.96 126.85,66.22 			"/>
			<polygon id="XMLID_5988_" points="126.76,108.77 126.85,108.77 126.85,108.03 126.76,108.03 112.5,108.03 112.5,108.77 			"/>
			<polygon id="XMLID_5987_" points="126.76,103.85 126.85,103.85 126.85,103.11 126.76,103.11 112.5,103.11 112.5,103.85 			"/>
			<polygon id="XMLID_5986_" points="126.76,98.2 112.5,98.2 112.5,98.93 126.76,98.93 126.85,98.93 126.85,98.2 			"/>
			<polygon id="XMLID_5985_" points="126.76,93.28 112.5,93.28 112.5,94.01 126.76,94.01 126.85,94.01 126.85,93.28 			"/>
			<path id="XMLID_5984_" d="M126.85,110.99v-0.49h-0.09H112.5v0.74h13.14C126.04,111.15,126.45,111.07,126.85,110.99z"/>
			<polygon id="XMLID_5983_" points="126.76,106.31 126.85,106.31 126.85,105.57 126.76,105.57 112.5,105.57 112.5,106.31 			"/>
			<polygon id="XMLID_5982_" points="126.76,100.66 112.5,100.66 112.5,101.39 126.76,101.39 126.85,101.39 126.85,100.66 			"/>
			<polygon id="XMLID_5981_" points="126.76,95.74 112.5,95.74 112.5,96.47 126.76,96.47 126.85,96.47 126.85,95.74 			"/>
			<polygon id="XMLID_5980_" points="126.76,90.82 112.5,90.82 112.5,91.55 126.76,91.55 126.85,91.55 126.85,90.82 			"/>
		</g>
		<g id="XMLID_5897_">
			<rect id="XMLID_5978_" x="98.92" y="112.5" width="1.48" height="12.51"/>
			<rect id="XMLID_5977_" x="106.3" y="112.5" width="1.48" height="12.51"/>
			<rect id="XMLID_5976_" x="102.61" y="112.5" width="1.48" height="12.51"/>
			<rect id="XMLID_5975_" x="109.99" y="112.5" width="1.48" height="12.51"/>
			<rect id="XMLID_5974_" x="98.92" y="125.01" width="1.48" height="0.13"/>
			<rect id="XMLID_5973_" x="106.3" y="125.01" width="1.48" height="0.13"/>
			<rect id="XMLID_5972_" x="102.61" y="125.01" width="1.48" height="0.13"/>
			<rect id="XMLID_5971_" x="109.99" y="125.01" width="1.48" height="0.13"/>
			<rect id="XMLID_5970_" x="62.02" y="112.5" width="1.48" height="12.51"/>
			<rect id="XMLID_5969_" x="69.4" y="112.5" width="1.48" height="12.51"/>
			<rect id="XMLID_5968_" x="76.78" y="112.5" width="1.48" height="12.51"/>
			<rect id="XMLID_5967_" x="84.16" y="112.5" width="1.48" height="12.51"/>
			<rect id="XMLID_5966_" x="91.54" y="112.5" width="1.48" height="12.51"/>
			<rect id="XMLID_5965_" x="65.71" y="112.5" width="1.48" height="12.51"/>
			<rect id="XMLID_5964_" x="73.09" y="112.5" width="1.48" height="12.51"/>
			<rect id="XMLID_5963_" x="80.47" y="112.5" width="1.48" height="12.51"/>
			<rect id="XMLID_5962_" x="87.85" y="112.5" width="1.48" height="12.51"/>
			<rect id="XMLID_5961_" x="95.23" y="112.5" width="1.48" height="12.51"/>
			<rect id="XMLID_5960_" x="62.02" y="125.01" width="1.48" height="0.13"/>
			<rect id="XMLID_5959_" x="69.4" y="125.01" width="1.48" height="0.13"/>
			<rect id="XMLID_5958_" x="76.78" y="125.01" width="1.48" height="0.13"/>
			<rect id="XMLID_5957_" x="84.16" y="125.01" width="1.48" height="0.13"/>
			<rect id="XMLID_5956_" x="91.54" y="125.01" width="1.48" height="0.13"/>
			<rect id="XMLID_5955_" x="65.71" y="125.01" width="1.48" height="0.13"/>
			<rect id="XMLID_5954_" x="73.09" y="125.01" width="1.48" height="0.13"/>
			<rect id="XMLID_5953_" x="80.47" y="125.01" width="1.48" height="0.13"/>
			<rect id="XMLID_5952_" x="87.85" y="125.01" width="1.48" height="0.13"/>
			<rect id="XMLID_5951_" x="95.23" y="125.01" width="1.48" height="0.13"/>
			<rect id="XMLID_5950_" x="47.27" y="112.5" width="1.48" height="12.51"/>
			<rect id="XMLID_5949_" x="54.64" y="112.5" width="1.48" height="12.51"/>
			<path id="XMLID_5948_" d="M45.05,123.43V112.5h-0.87C44.18,116.22,44.48,119.87,45.05,123.43z"/>
			<rect id="XMLID_5947_" x="50.96" y="112.5" width="1.48" height="12.51"/>
			<rect id="XMLID_5946_" x="58.33" y="112.5" width="1.48" height="12.51"/>
			<rect id="XMLID_5945_" x="47.27" y="125.01" width="1.48" height="0.13"/>
			<rect id="XMLID_5944_" x="54.64" y="125.01" width="1.48" height="0.13"/>
			<rect id="XMLID_5943_" x="50.96" y="125.01" width="1.48" height="0.13"/>
			<rect id="XMLID_5942_" x="58.33" y="125.01" width="1.48" height="0.13"/>
			<polygon id="XMLID_5941_" points="100.39,125.27 100.39,125.14 98.92,125.14 98.92,125.27 98.92,161.91 100.39,161.91 			"/>
			<polygon id="XMLID_5940_" points="107.77,125.27 107.77,125.14 106.3,125.14 106.3,125.27 106.3,161.91 107.77,161.91 			"/>
			<polygon id="XMLID_5939_" points="104.08,125.27 104.08,125.14 102.61,125.14 102.61,125.27 102.61,161.91 104.08,161.91 			"/>
			<polygon id="XMLID_5938_" points="111.46,125.27 111.46,125.14 109.99,125.14 109.99,125.27 109.99,161.91 111.46,161.91 			"/>
			<rect id="XMLID_5937_" x="98.92" y="161.91" width="1.48" height="0.13"/>
			<rect id="XMLID_5936_" x="106.3" y="161.91" width="1.48" height="0.13"/>
			<rect id="XMLID_5935_" x="102.61" y="161.91" width="1.48" height="0.13"/>
			<rect id="XMLID_5934_" x="109.99" y="161.91" width="1.48" height="0.13"/>
			<path id="XMLID_5933_" d="M62.02,125.27v33.28c0.48,0.53,0.98,1.05,1.48,1.56v-34.84v-0.13h-1.48V125.27z"/>
			<polygon id="XMLID_5932_" points="70.88,125.27 70.88,125.14 69.4,125.14 69.4,125.27 69.4,161.91 70.88,161.91 			"/>
			<polygon id="XMLID_5931_" points="78.26,125.27 78.26,125.14 76.78,125.14 76.78,125.27 76.78,161.91 78.26,161.91 			"/>
			<polygon id="XMLID_5930_" points="85.64,125.27 85.64,125.14 84.16,125.14 84.16,125.27 84.16,161.91 85.64,161.91 			"/>
			<polygon id="XMLID_5929_" points="91.54,125.27 91.54,161.91 93.01,161.91 93.01,125.27 93.01,125.14 91.54,125.14 			"/>
			<polygon id="XMLID_5928_" points="67.19,125.27 67.19,125.14 65.71,125.14 65.71,125.27 65.71,161.91 67.19,161.91 			"/>
			<polygon id="XMLID_5927_" points="74.57,125.27 74.57,125.14 73.09,125.14 73.09,125.27 73.09,161.91 74.57,161.91 			"/>
			<polygon id="XMLID_5926_" points="81.95,125.27 81.95,125.14 80.47,125.14 80.47,125.27 80.47,161.91 81.95,161.91 			"/>
			<polygon id="XMLID_5925_" points="89.33,125.27 89.33,125.14 87.85,125.14 87.85,125.27 87.85,161.91 89.33,161.91 			"/>
			<polygon id="XMLID_5924_" points="96.7,125.27 96.7,125.14 95.23,125.14 95.23,125.27 95.23,161.91 96.7,161.91 			"/>
			<rect id="XMLID_5923_" x="69.4" y="161.91" width="1.48" height="0.13"/>
			<rect id="XMLID_5922_" x="76.78" y="161.91" width="1.48" height="0.13"/>
			<rect id="XMLID_5921_" x="84.16" y="161.91" width="1.48" height="0.13"/>
			<rect id="XMLID_5920_" x="91.54" y="161.91" width="1.48" height="0.13"/>
			<rect id="XMLID_5919_" x="65.71" y="161.91" width="1.48" height="0.13"/>
			<rect id="XMLID_5918_" x="73.09" y="161.91" width="1.48" height="0.13"/>
			<rect id="XMLID_5917_" x="80.47" y="161.91" width="1.48" height="0.13"/>
			<rect id="XMLID_5916_" x="87.85" y="161.91" width="1.48" height="0.13"/>
			<rect id="XMLID_5915_" x="95.23" y="161.91" width="1.48" height="0.13"/>
			<path id="XMLID_5914_" d="M47.27,125.27v7.6c0.45,1.43,0.94,2.84,1.48,4.22v-11.82v-0.13h-1.48V125.27z"/>
			<path id="XMLID_5913_" d="M54.64,125.27v23.58c0.48,0.76,0.97,1.51,1.48,2.25v-25.83v-0.13h-1.48V125.27z"/>
			<path id="XMLID_5912_" d="M50.96,125.27v16.93c0.47,0.97,0.96,1.93,1.48,2.88v-19.81v-0.13h-1.48V125.27z"/>
			<path id="XMLID_5911_" d="M58.33,125.27v28.87c0.48,0.63,0.97,1.25,1.48,1.86v-30.73v-0.13h-1.48V125.27z"/>
			<path id="XMLID_5910_" d="M100.39,162.16v-0.13h-1.48v0.13v17.31c0.49,0.1,0.98,0.19,1.48,0.28V162.16z"/>
			<path id="XMLID_5909_" d="M107.77,162.04h-1.48v0.13v18.38c0.49,0.04,0.98,0.08,1.48,0.12v-18.49V162.04z"/>
			<path id="XMLID_5908_" d="M104.08,162.04h-1.48v0.13v17.94c0.49,0.07,0.98,0.14,1.48,0.2v-18.14V162.04z"/>
			<path id="XMLID_5907_" d="M111.46,162.04h-1.48v0.13v18.61c0.49,0.02,0.98,0.03,1.48,0.04v-18.65V162.04z"/>
			<path id="XMLID_5906_" d="M70.88,162.04H69.4v0.13v3.35c0.49,0.4,0.98,0.78,1.48,1.17v-4.52V162.04z"/>
			<path id="XMLID_5905_" d="M78.26,162.04h-1.48v0.13v8.59c0.49,0.3,0.98,0.59,1.48,0.88v-9.47V162.04z"/>
			<path id="XMLID_5904_" d="M85.64,162.04h-1.48v0.13v12.52c0.49,0.22,0.98,0.44,1.48,0.65v-13.17V162.04z"/>
			<path id="XMLID_5903_" d="M91.54,162.16v15.38c0.49,0.16,0.98,0.31,1.48,0.46v-15.84v-0.13h-1.48V162.16z"/>
			<path id="XMLID_5902_" d="M67.19,162.04h-1.48v0.13v0.12c0.49,0.46,0.98,0.9,1.48,1.35v-1.47V162.04z"/>
			<path id="XMLID_5901_" d="M74.57,162.04h-1.48v0.13v6.15c0.49,0.34,0.98,0.68,1.48,1.01v-7.17V162.04z"/>
			<path id="XMLID_5900_" d="M81.95,162.04h-1.48v0.13v10.7c0.49,0.26,0.98,0.51,1.48,0.76v-11.46V162.04z"/>
			<path id="XMLID_5899_" d="M89.33,162.04h-1.48v0.13v14.07c0.49,0.19,0.98,0.37,1.48,0.55v-14.63V162.04z"/>
			<path id="XMLID_5898_" d="M96.7,162.04h-1.48v0.13v16.46c0.49,0.13,0.98,0.25,1.48,0.37v-16.82V162.04z"/>
		</g>
		<g id="XMLID_5846_">
			<path id="XMLID_5896_" d="M68.32,96.29c-0.25-0.21-0.49-0.42-0.74-0.63v2.41h0.74V96.29z"/>
			<path id="XMLID_5895_" d="M70.04,97.7v0.37h0.46C70.35,97.95,70.2,97.82,70.04,97.7z"/>
			<rect id="XMLID_5894_" x="67.59" y="98.07" width="0.74" height="0.09"/>
			<path id="XMLID_5893_" d="M70.5,98.07h-0.46v0.09h0.56C70.57,98.13,70.54,98.1,70.5,98.07z"/>
			<path id="XMLID_5892_" d="M48.65,88.15c-0.26,0.67-0.5,1.35-0.74,2.03v7.88h0.74V88.15z"/>
			<path id="XMLID_5891_" d="M53.57,78.75c-0.08-0.14-0.17-0.27-0.25-0.41c-0.17,0.29-0.33,0.59-0.49,0.88v18.84h0.74V78.75z"/>
			<path id="XMLID_5890_" d="M58.48,86.01c-0.25-0.32-0.49-0.65-0.74-0.97v13.03h0.74V86.01z"/>
			<path id="XMLID_5889_" d="M63.4,91.68c-0.25-0.26-0.5-0.51-0.74-0.77v7.16h0.74V91.68z"/>
			<path id="XMLID_5888_" d="M46.19,96.03c-0.17,0.68-0.32,1.36-0.47,2.04h0.47V96.03z"/>
			<path id="XMLID_5887_" d="M51.11,82.5c-0.25,0.51-0.5,1.03-0.74,1.55v14.02h0.74V82.5z"/>
			<path id="XMLID_5886_" d="M56.03,82.63c-0.25-0.37-0.5-0.73-0.74-1.11v16.55h0.74V82.63z"/>
			<path id="XMLID_5885_" d="M60.94,89.01c-0.25-0.29-0.49-0.58-0.74-0.87v9.93h0.74V89.01z"/>
			<path id="XMLID_5884_" d="M65.86,94.1c-0.25-0.23-0.49-0.47-0.74-0.7v4.67h0.74V94.1z"/>
			<rect id="XMLID_5883_" x="47.91" y="98.07" width="0.74" height="0.09"/>
			<rect id="XMLID_5882_" x="52.83" y="98.07" width="0.74" height="0.09"/>
			<rect id="XMLID_5881_" x="57.75" y="98.07" width="0.74" height="0.09"/>
			<rect id="XMLID_5880_" x="62.67" y="98.07" width="0.74" height="0.09"/>
			<path id="XMLID_5879_" d="M46.19,98.07h-0.47c-0.01,0.03-0.01,0.06-0.02,0.09h0.49V98.07z"/>
			<rect id="XMLID_5878_" x="50.37" y="98.07" width="0.74" height="0.09"/>
			<rect id="XMLID_5877_" x="55.29" y="98.07" width="0.74" height="0.09"/>
			<rect id="XMLID_5876_" x="60.21" y="98.07" width="0.74" height="0.09"/>
			<rect id="XMLID_5875_" x="65.13" y="98.07" width="0.74" height="0.09"/>
			<path id="XMLID_5874_" d="M92.92,109.65c-0.25-0.07-0.49-0.14-0.74-0.22v3.07h0.74V109.65z"/>
			<path id="XMLID_5873_" d="M97.1,110.75v1.75h0.74v-1.59C97.59,110.86,97.35,110.81,97.1,110.75z"/>
			<path id="XMLID_5872_" d="M102.02,111.69v0.81h0.74v-0.7C102.51,111.77,102.27,111.73,102.02,111.69z"/>
			<path id="XMLID_5871_" d="M106.94,112.27v0.23h0.74v-0.17C107.43,112.32,107.18,112.29,106.94,112.27z"/>
			<path id="XMLID_5870_" d="M111.86,112.49v0.01h0.64C112.29,112.5,112.07,112.49,111.86,112.49z"/>
			<path id="XMLID_5869_" d="M94.64,110.14v2.36h0.74v-2.17C95.13,110.27,94.89,110.2,94.64,110.14z"/>
			<path id="XMLID_5868_" d="M99.56,111.27v1.23h0.74v-1.09C100.05,111.36,99.81,111.32,99.56,111.27z"/>
			<path id="XMLID_5867_" d="M104.48,112.03v0.48h0.74v-0.39C104.97,112.09,104.73,112.06,104.48,112.03z"/>
			<path id="XMLID_5866_" d="M109.4,112.42v0.08h0.74v-0.04C109.89,112.45,109.64,112.44,109.4,112.42z"/>
			<polygon id="XMLID_5865_" points="68.32,98.24 68.32,98.15 67.59,98.15 67.59,98.24 67.59,112.5 68.32,112.5 			"/>
			<path id="XMLID_5864_" d="M72.5,99.57v12.93h0.74v-12.41C73,99.92,72.75,99.75,72.5,99.57z"/>
			<path id="XMLID_5863_" d="M77.42,102.82v9.69h0.74v-9.25C77.91,103.11,77.67,102.96,77.42,102.82z"/>
			<path id="XMLID_5862_" d="M82.34,105.49v7.01h0.74v-6.65C82.83,105.73,82.59,105.62,82.34,105.49z"/>
			<path id="XMLID_5861_" d="M87.26,107.68v4.82H88v-4.53C87.75,107.88,87.51,107.78,87.26,107.68z"/>
			<path id="XMLID_5860_" d="M70.61,98.15h-0.56v0.09v14.26h0.74V98.29C70.72,98.24,70.67,98.2,70.61,98.15z"/>
			<path id="XMLID_5859_" d="M74.96,101.27v11.24h0.74v-10.75C75.45,101.59,75.21,101.43,74.96,101.27z"/>
			<path id="XMLID_5858_" d="M79.88,104.23v8.28h0.74v-7.89C80.38,104.48,80.13,104.36,79.88,104.23z"/>
			<path id="XMLID_5857_" d="M84.8,106.64v5.86h0.74v-5.53C85.29,106.87,85.05,106.75,84.8,106.64z"/>
			<path id="XMLID_5856_" d="M89.72,108.61v3.89h0.74v-3.64C90.21,108.78,89.97,108.7,89.72,108.61z"/>
			<polygon id="XMLID_5855_" points="48.65,98.15 47.91,98.15 47.91,98.24 47.91,112.5 48.65,112.5 48.65,98.24 			"/>
			<polygon id="XMLID_5854_" points="53.57,98.15 52.83,98.15 52.83,98.24 52.83,112.5 53.57,112.5 53.57,98.24 			"/>
			<polygon id="XMLID_5853_" points="58.48,98.15 57.75,98.15 57.75,98.24 57.75,112.5 58.48,112.5 58.48,98.24 			"/>
			<polygon id="XMLID_5852_" points="62.67,98.15 62.67,98.24 62.67,112.5 63.4,112.5 63.4,98.24 63.4,98.15 			"/>
			<path id="XMLID_5851_" d="M46.19,98.15H45.7c-0.09,0.4-0.17,0.8-0.25,1.2v13.15h0.74V98.24V98.15z"/>
			<polygon id="XMLID_5850_" points="51.11,98.15 50.37,98.15 50.37,98.24 50.37,112.5 51.11,112.5 51.11,98.24 			"/>
			<polygon id="XMLID_5849_" points="56.03,98.15 55.29,98.15 55.29,98.24 55.29,112.5 56.03,112.5 56.03,98.24 			"/>
			<polygon id="XMLID_5848_" points="60.94,98.15 60.21,98.15 60.21,98.24 60.21,112.5 60.94,112.5 60.94,98.24 			"/>
			<polygon id="XMLID_5847_" points="65.86,98.15 65.13,98.15 65.13,98.24 65.13,112.5 65.86,112.5 65.86,98.24 			"/>
		</g>
		<g id="XMLID_5776_">
			<rect id="XMLID_5845_" x="99.99" y="56.29" width="12.51" height="1.48"/>
			<rect id="XMLID_5844_" x="99.99" y="48.91" width="12.51" height="1.48"/>
			<rect id="XMLID_5843_" x="99.99" y="52.6" width="12.51" height="1.48"/>
			<path id="XMLID_5842_" d="M100.59,45.22c-0.2,0.04-0.4,0.08-0.6,0.11v1.36h12.51v-1.48H100.59z"/>
			<rect id="XMLID_5841_" x="99.86" y="56.29" width="0.13" height="1.48"/>
			<rect id="XMLID_5840_" x="99.86" y="48.91" width="0.13" height="1.48"/>
			<rect id="XMLID_5839_" x="99.86" y="52.6" width="0.13" height="1.48"/>
			<path id="XMLID_5838_" d="M99.86,45.36v1.34h0.13v-1.36C99.95,45.34,99.9,45.35,99.86,45.36z"/>
			<rect id="XMLID_5837_" x="99.99" y="93.18" width="12.51" height="1.48"/>
			<rect id="XMLID_5836_" x="99.99" y="85.8" width="12.51" height="1.48"/>
			<rect id="XMLID_5835_" x="99.99" y="78.42" width="12.51" height="1.48"/>
			<rect id="XMLID_5834_" x="99.99" y="71.04" width="12.51" height="1.48"/>
			<rect id="XMLID_5833_" x="99.99" y="63.67" width="12.51" height="1.48"/>
			<rect id="XMLID_5832_" x="99.99" y="89.49" width="12.51" height="1.48"/>
			<rect id="XMLID_5831_" x="99.99" y="82.11" width="12.51" height="1.48"/>
			<rect id="XMLID_5830_" x="99.99" y="74.73" width="12.51" height="1.48"/>
			<rect id="XMLID_5829_" x="99.99" y="67.36" width="12.51" height="1.48"/>
			<rect id="XMLID_5828_" x="99.99" y="59.98" width="12.51" height="1.48"/>
			<rect id="XMLID_5827_" x="99.86" y="93.18" width="0.13" height="1.48"/>
			<rect id="XMLID_5826_" x="99.86" y="85.8" width="0.13" height="1.48"/>
			<rect id="XMLID_5825_" x="99.86" y="78.42" width="0.13" height="1.48"/>
			<rect id="XMLID_5824_" x="99.86" y="71.04" width="0.13" height="1.48"/>
			<rect id="XMLID_5823_" x="99.86" y="63.67" width="0.13" height="1.48"/>
			<rect id="XMLID_5822_" x="99.86" y="89.49" width="0.13" height="1.48"/>
			<rect id="XMLID_5821_" x="99.86" y="82.11" width="0.13" height="1.48"/>
			<rect id="XMLID_5820_" x="99.86" y="74.73" width="0.13" height="1.48"/>
			<rect id="XMLID_5819_" x="99.86" y="67.36" width="0.13" height="1.48"/>
			<rect id="XMLID_5818_" x="99.86" y="59.98" width="0.13" height="1.48"/>
			<rect id="XMLID_5817_" x="99.99" y="107.94" width="12.51" height="1.48"/>
			<rect id="XMLID_5816_" x="99.99" y="100.56" width="12.51" height="1.48"/>
			<path id="XMLID_5815_" d="M101.59,111.63c3.55,0.57,7.19,0.87,10.91,0.87v-0.87H101.59z"/>
			<rect id="XMLID_5814_" x="99.99" y="104.25" width="12.51" height="1.48"/>
			<rect id="XMLID_5813_" x="99.99" y="96.87" width="12.51" height="1.48"/>
			<rect id="XMLID_5812_" x="99.86" y="107.94" width="0.13" height="1.48"/>
			<rect id="XMLID_5811_" x="99.86" y="100.56" width="0.13" height="1.48"/>
			<rect id="XMLID_5810_" x="99.86" y="104.25" width="0.13" height="1.48"/>
			<rect id="XMLID_5809_" x="99.86" y="96.87" width="0.13" height="1.48"/>
			<path id="XMLID_5808_" d="M99.73,56.29H73.67c-0.69,0.48-1.37,0.97-2.05,1.48h28.11h0.13v-1.48H99.73z"/>
			<path id="XMLID_5807_" d="M99.73,48.91H87.49c-1.17,0.46-2.33,0.95-3.47,1.48h15.71h0.13v-1.48H99.73z"/>
			<path id="XMLID_5806_" d="M99.73,52.6H79.63c-0.86,0.47-1.7,0.97-2.54,1.48h22.65h0.13V52.6H99.73z"/>
			<path id="XMLID_5805_" d="M94.08,46.7h5.65h0.13v-1.34C97.9,45.72,95.97,46.17,94.08,46.7z"/>
			<path id="XMLID_5804_" d="M99.73,93.18H64.9c0.51,0.5,1.04,0.99,1.57,1.48h33.26h0.13v-1.48H99.73z"/>
			<polygon id="XMLID_5803_" points="99.73,85.8 63.09,85.8 63.09,87.28 99.73,87.28 99.86,87.28 99.86,85.8 			"/>
			<polygon id="XMLID_5802_" points="99.73,78.42 63.09,78.42 63.09,79.9 99.73,79.9 99.86,79.9 99.86,78.42 			"/>
			<polygon id="XMLID_5801_" points="99.73,71.04 63.09,71.04 63.09,72.52 99.73,72.52 99.86,72.52 99.86,71.04 			"/>
			<path id="XMLID_5800_" d="M99.73,63.67h-35c-0.5,0.48-0.98,0.98-1.46,1.48h36.46h0.13v-1.48H99.73z"/>
			<polygon id="XMLID_5799_" points="99.73,89.49 63.09,89.49 63.09,90.97 99.73,90.97 99.86,90.97 99.86,89.49 			"/>
			<polygon id="XMLID_5798_" points="99.73,82.11 63.09,82.11 63.09,83.59 99.73,83.59 99.86,83.59 99.86,82.11 			"/>
			<polygon id="XMLID_5797_" points="99.73,74.73 63.09,74.73 63.09,76.21 99.73,76.21 99.86,76.21 99.86,74.73 			"/>
			<polygon id="XMLID_5796_" points="99.73,67.36 63.09,67.36 63.09,68.83 99.73,68.83 99.86,68.83 99.86,67.36 			"/>
			<path id="XMLID_5795_" d="M99.73,59.98H68.81c-0.58,0.48-1.15,0.97-1.71,1.48h32.64h0.13v-1.48H99.73z"/>
			<rect id="XMLID_5794_" x="62.97" y="85.8" width="0.13" height="1.48"/>
			<rect id="XMLID_5793_" x="62.97" y="78.42" width="0.13" height="1.48"/>
			<rect id="XMLID_5792_" x="62.97" y="71.04" width="0.13" height="1.48"/>
			<rect id="XMLID_5791_" x="62.97" y="89.49" width="0.13" height="1.48"/>
			<rect id="XMLID_5790_" x="62.97" y="82.11" width="0.13" height="1.48"/>
			<rect id="XMLID_5789_" x="62.97" y="74.73" width="0.13" height="1.48"/>
			<rect id="XMLID_5788_" x="62.97" y="67.36" width="0.13" height="1.48"/>
			<path id="XMLID_5787_" d="M99.73,107.94H87.9c1.39,0.54,2.8,1.03,4.23,1.48h7.6h0.13v-1.48H99.73z"/>
			<path id="XMLID_5786_" d="M99.73,100.56H73.91c0.74,0.51,1.49,1,2.24,1.48h23.58h0.13v-1.48H99.73z"/>
			<path id="XMLID_5785_" d="M99.73,104.25H79.93c0.95,0.52,1.92,1,2.89,1.48h16.91h0.13v-1.48H99.73z"/>
			<path id="XMLID_5784_" d="M99.73,96.87H69.01c0.61,0.5,1.23,0.99,1.85,1.48h28.87h0.13v-1.48H99.73z"/>
			<path id="XMLID_5783_" d="M62.84,85.8h-4.52c0.38,0.5,0.77,0.99,1.17,1.48h3.35h0.13V85.8H62.84z"/>
			<path id="XMLID_5782_" d="M62.84,78.42h-9.47c0.29,0.5,0.59,0.99,0.89,1.48h8.58h0.13v-1.48H62.84z"/>
			<path id="XMLID_5781_" d="M62.84,71.04h-4.65c-0.37,0.49-0.73,0.98-1.09,1.48h5.74h0.13v-1.48H62.84z"/>
			<path id="XMLID_5780_" d="M62.84,89.49h-1.46c0.44,0.5,0.89,0.99,1.35,1.48h0.12h0.13v-1.48H62.84z"/>
			<path id="XMLID_5779_" d="M62.84,82.11h-7.17c0.33,0.5,0.68,0.99,1.02,1.48h6.15h0.13v-1.48H62.84z"/>
			<path id="XMLID_5778_" d="M62.84,74.73h-7.28c-0.32,0.49-0.64,0.98-0.95,1.48h8.23h0.13v-1.48H62.84z"/>
			<path id="XMLID_5777_" d="M62.84,67.36h-1.61c-0.43,0.49-0.85,0.98-1.26,1.48h2.87h0.13v-1.48H62.84z"/>
		</g>
	</g>
</g>
</svg>
