<?xml version="1.0" encoding="utf-8"?>
<!-- Generator: Adobe Illustrator 26.2.1, SVG Export Plug-In . SVG Version: 6.00 Build 0)  -->
<svg version="1.1" xmlns="http://www.w3.org/2000/svg" xmlns:xlink="http://www.w3.org/1999/xlink" x="0px" y="0px"
	 viewBox="0 0 225 225" style="enable-background:new 0 0 225 225;" xml:space="preserve">
<style type="text/css">
	.st0{display:none;}
	.st1{display:inline;fill:#FAB433;}
	.st2{fill:none;}
	.st3{fill:none;stroke:#000000;stroke-width:1.6;stroke-miterlimit:10;}
	.st4{fill:none;stroke:#000000;stroke-width:0.7265;stroke-miterlimit:10;}
	.st5{fill:none;stroke:#000000;stroke-linecap:round;stroke-linejoin:round;stroke-miterlimit:10;}
	.st6{fill:none;stroke:#000000;stroke-miterlimit:10;}
	.st7{fill:none;stroke:#000000;stroke-width:0.7105;stroke-miterlimit:10;}
	.st8{fill:none;stroke:#000000;stroke-width:5.4;stroke-linecap:round;stroke-linejoin:round;stroke-miterlimit:10;}
	.st9{fill:none;stroke:#000000;stroke-width:2.9309;stroke-linecap:round;stroke-linejoin:round;stroke-miterlimit:10;}
	.st10{fill:none;stroke:#000000;stroke-width:0.5;stroke-linecap:round;stroke-linejoin:round;}
	.st11{fill:none;stroke:#FFFFFF;stroke-width:0;stroke-linecap:round;stroke-linejoin:round;}
	.st12{fill:#FFFFFF;}
	.st13{fill:none;stroke:#000000;stroke-width:1.4;stroke-miterlimit:10;}
	.st14{fill:url(#);stroke:#000000;stroke-width:1.4387;stroke-miterlimit:10;}
	.st15{fill:url(#);stroke:#000000;stroke-width:1.3718;stroke-miterlimit:10;}
	.st16{fill:none;stroke:#000000;stroke-width:1.0041;stroke-miterlimit:10;}
	.st17{fill:none;stroke:#000000;stroke-width:1.3621;stroke-miterlimit:10;}
	.st18{fill:none;stroke:#000000;stroke-width:0.25;stroke-miterlimit:10;}
</style>
<g id="Layer_2" class="st0">
	<rect id="XMLID_1_" x="-835.99" y="-30.01" class="st1" width="1160" height="772"/>
</g>
<g id="Layer_1">
	<path id="XMLID_13293_" d="M80.56,52.89c-0.46,0.25-0.9,0.51-1.35,0.77c0.74-0.42,1.48-0.82,2.24-1.22
		C81.15,52.6,80.86,52.73,80.56,52.89z M96.23,46.86c0.75-0.18,1.49-0.36,2.25-0.52C97.73,46.5,96.98,46.68,96.23,46.86z
		 M96.23,46.86c-0.75,0.18-1.49,0.38-2.23,0.59C94.74,47.24,95.49,47.04,96.23,46.86z M102.85,45.56c-0.17,0.02-0.33,0.05-0.49,0.07
		c0.64-0.1,1.28-0.18,1.92-0.26C103.77,45.44,103.29,45.5,102.85,45.56z M123.09,45.74c-0.14-0.03-0.28-0.07-0.41-0.1
		c-0.52-0.08-1.04-0.14-1.56-0.2c0.38,0.05,0.77,0.1,1.16,0.17C122.52,45.64,122.81,45.69,123.09,45.74z M112.35,180.14
		c-0.01,0-0.03,0-0.04,0c-0.06,0-0.13,0-0.19,0C112.2,180.14,112.27,180.14,112.35,180.14z M112.31,180.14c0.02,0,0.04,0,0.05,0
		c0.01,0,0.02,0,0.02,0C112.36,180.14,112.33,180.14,112.31,180.14c-0.3,0-0.59-0.01-0.89-0.02
		C111.72,180.12,112.01,180.14,112.31,180.14z M119.68,179.74c0.29-0.03,0.57-0.07,0.85-0.1c-0.39,0.05-0.79,0.09-1.18,0.13
		C119.46,179.76,119.57,179.76,119.68,179.74z M83.63,51.36c-0.6,0.29-1.2,0.59-1.8,0.89c0.7-0.36,1.4-0.7,2.11-1.03
		c-0.07,0.03-0.14,0.06-0.2,0.08L83.63,51.36z M87.86,49.54c1.03-0.4,2.06-0.79,3.11-1.15C89.93,48.75,88.9,49.14,87.86,49.54z
		 M87.21,49.78l-0.04,0.02c0.18-0.07,0.4-0.15,0.6-0.22c0.03-0.01,0.06-0.02,0.09-0.04C87.65,49.63,87.42,49.7,87.21,49.78z
		 M115.26,180.06c0.07,0,0.14-0.01,0.21-0.01c-0.03,0-0.06,0-0.1,0C115.33,180.06,115.29,180.06,115.26,180.06z M180.03,108.69
		c-0.01,1-0.12,1.8-0.42,1.96c-1.5-0.7-3.72-15.65-2.42-16.32c0.13,0.06,0.43,0.2,0.91,1.67c-0.55-2.18-1.21-4.34-1.99-6.49
		c0.26,0.96,0.19,1.23,0.16,1.38c-0.95,0.58-7.33-12.5-6.97-14.29c0.03-0.02,0.06-0.04,0.09-0.06c0.29,0.11,0.7,0.6,1.14,1.23
		c-1.2-2.01-2.49-3.93-3.86-5.77c0.55,0.8,0.76,1.28,0.72,1.54c-0.52-0.3-1.6-0.93-8.49-9.04c0,0-0.01-0.01-0.01-0.01
		c-5.78-6.55-12.88-10.1-14.6-10.35h0c-2.29-0.54-13.45-6.31-13.51-6.35c0.02,0,0.04-0.01,0.06-0.02c0.65,0.11,0.65,0.11,4.24,1.25
		c3.52,1.29,5.42,2,6.79,2.56c-1.3-0.62-2.61-1.21-3.94-1.75c0.02,0.01,0.06,0.03,0.08,0.04c-0.2-0.03-0.26-0.05-1.79-0.59
		c-1.73-0.61-4.36-1.53-7.44-2.35c-0.76-0.2-1.52-0.35-2.29-0.5c0.63,0.16,1.15,0.31,1.31,0.43c0,0,0,0-0.05,0.03
		c1.19,0.72,2.53,1.07,3.79,1.62c0.64,0.42,1.43,0.6,1.97,1.18c-0.01,0.05-0.03,0.13-0.04,0.18c-0.54,0.07-12.61-4.22-12.71-4.27
		c0,0,0,0,0.05-0.02c-0.36-0.12-1.42-0.35-4.51-0.61c-0.17-0.01-0.44-0.03-0.79-0.05c-0.83-0.04-1.67-0.07-2.51-0.08
		c-0.09,0-0.18,0-0.28,0c-0.01,0-0.02,0-0.03,0c0,0,0.01,0,0.01,0c0.31,0,0.57,0.01,0.81,0.02c3.44,0.1,6.15,0.68,6.69,0.81
		c2.25,0.52,2.72,0.92,2.87,1.05c-0.05,0.02-0.12,0.05-0.18,0.07c0,0,0,0,0,0c-0.1,0.01-0.23,0.04-0.31,0.09
		c0,0.22,0.05,0.32,1.32,1.53h0c1.32,1.42-0.2,1.41-0.38,1.4c-0.52-0.02-1.68-0.22-3.58-1.41c0,0-0.01,0-0.01,0
		c-2.06-1.26-3.16-1.56-4.18-1.62h0c-1.5-0.2-2.02-0.77-2.69-1.69c-0.13-0.18-0.2-0.24-0.44-0.25c-0.08,0-0.17,0-0.25,0
		c-0.59,0.02-0.76,0.13-2.35,1.1c0,0,0,0,0,0c-1.79,1.12-2.24,2.04-2.36,3.08c-0.06,0.51-0.16,1.38-0.86,2.39
		c-0.84,1.21-2.06,1.91-2.58,2.21c-0.7,0.4-1.54,0.27-2.26,0.57c-2.35,0.16-4.18,1-6.77,3.09c0,0,0,0,0,0.01
		c-0.67,0.55-1.44,1.17-2.61,1.71c-0.81,0.38-1.73,0.33-2.55,0.68c-2.56,0.19-4.64,1.2-7.67,3.72c0,0,0,0,0,0.01
		c-4.6,3.87-7.05,2.9-6.8,1.1c0.2-1.4,1.58-5.03,10.12-8.48c2.09-0.18,2.72-0.54,7.65-3.34c0.12-0.07,0.12-0.07,3.91-1.41
		c2.54-0.18,5.04-1.72,5.74-2.18c0.11-0.07,0.11-0.07,0.12-0.08c1.54-0.99,2.99-2.11,4.55-3.07c0,0,0,0,0,0
		c1.62-0.84,3.47-1.04,4.45-1.09c-0.41,0.01-0.82,0.02-1.22,0.04c-0.33,0.02-0.64,0.05-0.94,0.07c-2.42,0.26-2.72,0.51-2.83,0.61
		c0.07,0.01,0.16,0.02,0.23,0.03c-0.03,0.1-0.03,0.1-2.8,1.86c-3.84,2.44-5.39,2.48-5.89,2.38c-0.65-0.13-0.5-0.59,0.45-1.36
		c0.15-0.49,0.66-0.49,0.99-0.73c0.11-0.08,0.26-0.2,0.38-0.28c0.09-0.07,0.2-0.16,0.29-0.23c0.1-0.08,0.2-0.2,0.27-0.3
		c-0.01-0.02-0.03-0.05-0.04-0.08c-0.06-0.01-0.13-0.02-0.19-0.03h0c-0.03-0.03-0.08-0.06-0.11-0.09c0.34-0.22,0.79-0.39,2.03-0.74
		c2.6-0.64,5.35-1,8.18-1.12c0.19-0.01,0.41-0.02,0.63-0.03c-0.36,0.01-0.73,0.01-1.1,0.02c-0.55,0.02-1.1,0.05-1.68,0.08
		c-0.47,0.03-0.88,0.06-1.26,0.09c0.19-0.01,0.39-0.04,0.58-0.05c-1.3,0.09-2.46,0.2-3.49,0.32c0.6-0.07,1.2-0.11,1.79-0.16
		c-1.78,0.19-2.78,0.47-5.29,1.17c-2.7,0.83-2.95,1.12-3.02,1.43c0.07,0.01,0.16,0.02,0.23,0.03h0c0.06,0.03,0.15,0.07,0.21,0.1
		c-0.6,0.9-4.8,3.68-4.85,3.71c-3.63,2.33-5.28,2.57-5.82,2.56c-0.6-0.01-1.34-0.26,0.37-1.84c0.74-0.78,1.83-1.2,2.3-2.26
		c-0.02-0.03-0.04-0.08-0.05-0.12c-0.1-0.02-0.23-0.04-0.33-0.06c0.03-0.13,0.09-0.44,2.39-1.4c1.42-0.62,3-0.86,4.34-1.69
		c-3.01,0.57-6.75,1.9-9.07,2.76c-1.29,0.51-2.56,1.05-3.83,1.64c2.09-0.86,7.63-3.15,9.58-3.42c-0.88,0.56-1.9,0.82-2.84,1.26
		c-1.6,0.73-2.95,1.38-3.42,2.05c0.08,0.05,0.19,0.12,0.28,0.17h0c0.05,0.01,0.12,0.03,0.18,0.04c-0.1,0.78-3.06,3.09-4.82,4.39
		c-5.84,4.33-7.45,4.28-7.48,3.56c-0.05-1.03,1.07-1.24,1.41-2c2.3-2.18,2.67-2.57,2.81-2.99c-0.05-0.02-0.12-0.05-0.17-0.06
		c0,0-0.01,0-0.01,0.01c-1.43,0.26-4.65,2.39-5.71,3.09c0,0,0,0-0.01,0.01c-4.71,3.3-4.71,3.3-16.53,16.34
		c0.02-0.03,0.04-0.07,0.06-0.1c0.24-0.34,0.48-0.67,0.72-1.01c2.05-2.8,4.31-5.43,6.76-7.88c2.45-2.45,5.08-4.71,7.88-6.76
		c2.1-1.54,4.29-2.96,6.56-4.25c-31.89,18.03-43.7,58.32-26.31,90.78c6.68,12.47,16.73,21.98,28.41,28.03
		c-3.03-1.58-5.92-3.38-8.66-5.39c-2.8-2.05-5.43-4.31-7.88-6.76c-2.45-2.45-4.71-5.08-6.76-7.88c-0.3-0.4-0.59-0.81-0.87-1.22
		c0.04,0.05,0.04,0.05,0.04,0.05c2.73,2.99,5.26,6.16,8,9.13l0.01,0.01c2.75,2.87,5,4.77,8.59,7.29l0,0
		c2.68,1.81,4.24,2.79,6.7,4.21c0.01,0,0.01,0.01,0.02,0.01c1.53,0.85,5.13,2.84,10.44,4.61c6.98,2.26,13.94,3.1,15.26,3.25
		c1.31,0.14,2.51,0.23,3.52,0.28c0.52,0.02,1.03,0.04,1.55,0.05c-4.77-0.15-9.08-1.04-10.54-1.87c0.03-0.02,0.08-0.05,0.11-0.07
		c0,0,0,0,0,0c0.05-0.01,0.12-0.02,0.17-0.03c0.01-0.02,0.03-0.05,0.05-0.07c-0.13-0.23-0.2-0.28-1.92-1.54c0,0,0,0-0.01,0
		c-0.09-0.07-0.22-0.17-0.31-0.25c-0.61-0.54-0.84-1.13,0.11-1.15h0.01c1.27-0.12,1.53-0.65,1.16-2.39c0,0,0,0,0,0
		c-0.14-0.89,0.04-1.55,1.39-1.88c0.6-0.04,0.6-0.04,0.87-0.02l0.05,0.01c-0.01,0-0.02,0-0.02,0c-0.01,0-0.01,0-0.02,0h0
		c-0.01,0-0.02,0-0.04,0c-0.11-0.01-0.22-0.03-0.33-0.04h0c0.11,0.02,0.22,0.03,0.33,0.04c0.01,0,0.03,0,0.04,0l0.03,0l0.01,0h0
		c0,0,0,0,0,0l0,0l0.02,0v0c4.37,0.9,5.12,4.29,5.15,4.43c0.25,1.19-0.11,1.85-1.08,1.96c0,0,0,0,0,0c-1.03,0.08-1.6,0.55,0.15,1.62
		c0.69,0.42,0.69,0.42,0.72,0.53c-0.03,0-0.06,0.01-0.09,0.01c0,0,0,0,0,0c-0.04,0.02-0.09,0.04-0.13,0.06
		c0.38,0.21,2.14,0.63,5.17,0.67c0.03,0,0.07,0,0.1,0c0.02,0,0.04,0,0.06,0c-2.7-0.05-5.62-1.03-5.43-1.85
		c0.13-0.07,0.33-0.12,0.47-0.14c0,0,0,0,0,0c0.85-0.07,1.24-0.31,1.44-1.64c0,0,0,0,0,0c0.15-0.69,0.48-1.14,1.7-1.36
		c2.34-0.14,3.52,1.36,3.01,2.78c-0.01,0.01-0.51,1.39-1.68,1.48c-0.17,0.11-0.39,0.01-0.56,0.13c-0.31,0.21,0.1,0.58,1.07,0.61
		c0.24,0,0.48-0.01,0.72-0.01c0.17-0.01,0.34-0.01,0.51-0.01c2-0.1,3.61-0.47,6.05-1.17c1.85-0.53,2.6-0.73,3.23-0.77
		c0.06,0,0.13,0.02,0.18,0.04c-0.19,0.44-2.61,1.14-5.27,1.54c-0.86,0.13-2.1,0.27-3.55,0.35c0.25-0.01,0.5-0.01,0.74-0.02
		c0.09,0,0.17-0.01,0.26-0.01c4.01-0.21,7.25-0.83,10.65-1.57c1.36-0.29,1.46-0.3,1.66-0.32c-0.39,0.26-3.39,1-7.14,1.48
		c0.94-0.11,1.88-0.24,2.82-0.39c2.54-0.49,2.57-0.49,3.01-0.6c3.35-0.8,3.35-0.8,13.56-5.98c0,0,0.01-0.01,0.02-0.01
		c3.95-2.07,6.18-3.65,8.51-6.03c0,0,0,0,0.01-0.01c2-2.1,6.96-7.08,9.9-7.89c0.11,0.07,0.26,0.17,0.38,0.25
		c-0.23,1.24-1.66,3.58-7.17,7.64c-0.01,0.01-0.02,0.01-0.02,0.02c-4.35,3-9,5.52-13.43,8.39c-0.01,0.04-0.01,0.04-0.01,0.04
		c-0.04,0.03-0.1,0.06-0.17,0.09c1.21-0.49,2.41-1.02,3.61-1.59c-0.14,0.05-0.25,0.1-0.32,0.12c0.05-0.08,11.49-7.38,11.61-7.46
		c0.92-0.58,1.43-0.88,1.65-0.92c-0.04,0.14-0.27,0.38-0.59,0.67c1.62-1.25,3.18-2.56,4.66-3.93c-0.93,0.8-1.32,0.99-1.45,1.03
		c-0.02-0.01-0.03-0.03-0.05-0.04c0.28-0.97,9.11-11.26,10.45-11.71c0.02,0.02,0.05,0.04,0.07,0.05c0.01,0.22-0.26,0.7-0.65,1.3
		c1.34-1.81,2.58-3.68,3.72-5.61c-0.54,0.8-1.06,1.4-1.34,1.32c-0.34-1.61,5.63-14.08,6.86-14.35c0.03,0.02,0.07,0.04,0.1,0.06
		c0.03,0.14,0.1,0.41-0.15,1.34c0.74-2.05,1.38-4.14,1.92-6.26c-0.23,0.68-0.46,1.13-0.7,1.41c-0.08,0-0.19,0-0.27,0
		c-0.24-0.6-0.38-0.96-0.21-3.77h0c0.15-3.87-0.43-5.5-2.07-5.82c0,0,0-0.01-0.01-0.01c-2.36-0.42-3.55-6.41-2.52-12.57
		c0,0,0-0.01,0-0.01c0.66-4.34,0.25-7.52-1.53-11.72c0-0.01,0-0.01,0-0.02c-2.91-7.08-2.3-11.27-0.76-11.46
		c2.43,0.82,4.07,4.51,5.01,7.45c1.65,5.11,1.4,10.51,2.45,15.72c0,0,0,0.01,0,0.01c0.91,4.09,1.5,5.73,2.17,6.06c0,0,0,0.01,0,0.01
		c0.27,0.36,0.4,1.01,0.39,2.2C180.17,114.03,180.18,111.36,180.03,108.69z M103.42,45.85c0,0,0.01,0,0.01,0
		c0.01,0,0.02-0.01,0.04-0.01c-0.01,0-0.02,0-0.02,0.01c0,0-0.01,0-0.01,0C103.43,45.85,103.43,45.85,103.42,45.85L103.42,45.85z
		 M98.46,47.81c-0.05,0-0.09,0-0.14,0c0.04,0,0.08,0,0.12,0C98.44,47.81,98.46,47.81,98.46,47.81L98.46,47.81z M98.63,47.81
		c0.04,0,0.09,0,0.13,0h-0.01C98.71,47.81,98.67,47.81,98.63,47.81L98.63,47.81z M98.52,47.81c0.02,0,0.05,0,0.07,0h-0.01
		c-0.03,0-0.05,0-0.08,0H98.52z M147.12,56.04c1.42,0.16,5.28,2.67,8.1,5.26c3.03,2.78,4.11,4.88,3.06,4.9
		c-2.57,0.04-11.83-9.32-11.38-10.07C146.93,56.07,147.05,56.05,147.12,56.04z M136.66,51.42L136.66,51.42l-0.61,0L136.66,51.42z
		 M108.96,48.18c0.01-0.11,0.04-0.22,0.04-0.34c0,0.12-0.03,0.23-0.04,0.35C108.96,48.19,108.96,48.19,108.96,48.18z M108.96,48.2
		c0.14-1.21,1.73-2.45,2.93-2.61c0.37,0.01,0.78,0.08,1.35,0.71c1.68,1.89,4.39,1.41,6.31,2.74c1.85,0.68,3.42,2.08,5.49,2.23h0
		c0.24,0.01,0.48,0.1,0.72,0.09c0.02,0,1.95-0.18,0.13-2.2v0c-0.83-0.84-0.82-0.9-0.79-1.21c0.3-0.07,1-0.24,4.44,1.2
		c0,0,0,0,0.01,0c3.4,1.47,5.05,2.11,6.48,2.25c2.55,0.88,6.4,2.21,9.74,5.34c0.34,0.32,0.78,0.78,1.08,1.14
		c1.51,1.83,0.39,3.25-5.04-0.43c-4.25-2.88-6.19-3.03-7.11-3.11c-0.02-0.01-2.25-0.59-1.57,3.1c-0.02,0.16,0.07,0.37,0.07,0.53
		c0.03,1.87-2.34,1.95-3.56,1.58c-0.43-0.13-1-0.32-1.41-0.51c-2.18-1.04-3.65-3.07-5.81-4.13c-1.71-0.84-3.71-0.53-5.42-1.38
		c-0.46-0.23-0.99-0.7-1.16-0.86c0,0,0,0-0.11-0.11c-0.09-0.1-0.2-0.23-0.29-0.33c-2.64-2.28-2.64-2.28-4.4-2.4h-0.02
		C109.22,49.73,108.99,48.85,108.96,48.2c0,0.06-0.01,0.14-0.02,0.2C108.95,48.35,108.96,48.26,108.96,48.2z M151.21,71.97
		C151.21,71.98,151.21,71.98,151.21,71.97c1.2,1.21,2.33,2.35,4.1,3.44c1.1,0.67,2.45,0.61,3.55,1.25c5.3,1.18,7.49,8.59,7.51,8.66
		c1.16,4.38-0.69,6.81-3.89,5.12c-1.52-0.81-2.59-2.26-3.23-3.13c0,0,0-0.01,0-0.01c-1.1-1.48-1.98-2.64-3.88-3.88
		c-1.26-0.82-2.85-0.63-4.15-1.35c-4.29-0.35-8.27-5.15-8.34-10.07c0,0,0-0.01,0-0.01c-0.09-3.14-1.22-5.43-4.2-8.46
		c0,0-0.01-0.01-0.01-0.01c-4.48-4.8-3.79-7.36-2.16-7.38c1.6,0.26,6.74,2.16,9.35,7.38h0C147.07,66.64,148.52,68.93,151.21,71.97z
		 M108,52.4c1.19-0.89,2.24-0.95,2.81-0.99c1.51,0.09,1.61,0.18,3.29,1.74c1.53,1.92,3.21,2.77,5.82,2.94h0.01
		c5.73,0.77,6.54,5.97,6.55,6.02c0.04,0.4-0.06,0.94-0.09,1.35c0,0.01,0,0.01,0.01,0.02c-0.19,1.05-0.77,4.26,1.91,8
		c0.96,1.34,2.97,4.13,1.4,7.41c-0.39,0.82-1.23,1.78-2.01,2.24c-0.99,0.59-2.2,0.36-3.21,0.88c-4.13,0.28-6.55,1.69-8.93,5.22
		c-2.75,4.08-6.79,3.82-7.57,3.73c-5.94-0.7-8.54-6.92-4.78-11.47c2.09-2.53,4.69-2.78,5.93-2.89c0.01,0,0.01-0.01,0.02-0.01
		c6.28-0.38,8.07-3.84,8.36-4.53c0.06-0.13,0.06-0.14,0.06-0.14c2.74-6.3-1.91-11.81-7.59-12.17c0,0,0,0-0.01,0
		C104.25,58.95,105.63,54.18,108,52.4z M156.64,144.86c-0.18-3.4-1.46-4.84-4.56-5.13h-0.01c-6.06-0.57-5.12-10.03-1-13.7
		c1.67-1.49,3.18-1.62,3.99-1.69c2.37,0.2,3.55,1.26,4.34,3.93c0,0,0.01,0.01,0.01,0.01c1.02,3.78,2.34,5.29,4.86,5.59
		c2.34,0.28,2.48,2.44,2.31,4.52c-0.23,1.09-0.52,2.44-1.39,4.12c-2.43,4.71-6.87,7.69-8.24,4.4
		C156.69,146.26,157.23,145.48,156.64,144.86z M161.1,114.76c-0.62,2.49-1.61,3.5-2.76,4.67c-0.8,0.82-2.02,0.54-2.91,1.11
		c-3.54,0.32-5.81,1.9-8.37,5.83c-0.56,0.87-1.88,2.89-4.49,3.69c-2.08,0.64-3.64,0-4.07-0.21c-1.57-0.77-2.04-2.64-3.51-3.5
		c-2.16-3.93-4.66-5.51-9.23-5.83h-0.01c-10.4-1.57-8.93-12.06-4.69-15.13c1.83-1.32,3.68-1.44,4.67-1.5
		c3.29,0.2,3.42,0.35,6.85,4.02c0.94,1.5,3.8,6.07,9.23,6.06c4.2,0,5.26-1.53,8.41-6.07c3.31-6.85,9.25-3.72,10.65,0.65
		C161.12,109.34,161.87,111.68,161.1,114.76z M136.75,108.24c-0.5-0.54-0.57-1.4-1.29-1.78c-2.54-3.97-5.17-5.57-9.73-5.89h-0.01
		c-8.55-0.61-10.03-10.16-5.41-13.84c1.72-1.36,3.53-1.48,4.51-1.54c2.95,0.18,4.74,1.16,6.62,3.64c0,0,0.01,0.01,0.02,0.01
		c2.72,3.66,5.35,5.2,9.38,5.51c3.78,0.29,5.51,2.57,6.7,4.76c0.43,1.2,0.97,2.7,0.83,4.61
		C147.89,110.35,141.15,112.97,136.75,108.24z M122,158.75c3.46-0.09,4.21,2.06,4.46,2.77c0,0,0.01,0,0.01,0.01
		c0.53,1.65,1,2.33,2.2,3.16c1.13,0.78,2.62,0.14,3.74,0.96c0.2,0.14,0.4,0.41,0.52,0.62c0.29,0.5,0.37,1.96-1.43,3.91
		c-0.15,0.16-0.36,0.37-0.52,0.52c-1.89,1.78-7.36,4.93-7.35,1.16c0,0,0,0-0.01,0c-0.07-1.89-1.17-2.77-3.66-2.94h0
		c-1.67-0.13-2.58-0.69-3.5-2.15C114.73,162.69,118.07,159.06,122,158.75z M116.21,166.16L116.21,166.16
		C116.21,166.16,116.21,166.16,116.21,166.16c-0.01,0,0-0.01-0.01-0.01c0-0.01-0.01-0.02-0.01-0.03c0,0,0,0,0,0v0
		c0.01,0.01,0.01,0.01,0.01,0.02C116.21,166.14,116.21,166.15,116.21,166.16z M132.67,162.97c-1.99,0.26-3.3-0.6-3.89-2.58
		c0,0-0.01-0.01-0.01-0.01c-0.86-2.76-2.55-3.92-6.03-4.16c0,0-0.01,0.01-0.01,0.01c-3.59,0.23-5.81,1.4-7.9,4.15v0.01
		c-4.14,5.44-11.13,1.64-11.43-3.29c-0.14-2.28,1.18-3.71,1.45-3.97c1.22-1.21,2.97-1.11,4.4-1.81c3.98-0.25,6.36-1.55,8.79-4.78
		c1.71-2.28,3.57-3.3,6.44-3.49c1.43,0.02,4.03,0.51,5.45,3.5c0,0,0.01,0.01,0.01,0.01c1.5,3.23,3.29,4.53,6.61,4.78
		c4.51,0.34,4.24,4.74,2.07,7.74C137.48,160.67,135.23,162.63,132.67,162.97z M53.55,136.26c0.11,0.98,0.41,3.58-0.63,3.59
		c-1.14,0.01-3.08-3.39-4.31-7.58c-0.46-1.55-1.82-6.69-0.21-7.74c0,0,0-0.01,0-0.01c1.21-0.32,1.9-1.92,2.55-5.89
		c0,0,0-0.01,0-0.01c0.43-2.37,1.05-3.48,2.31-4.08c0,0,0,0,0.14-0.04c0.12-0.02,0.29-0.04,0.41-0.05h0
		c2.28-0.33,3.78-1.98,5.5-6.07c0,0,0-0.01,0-0.01c0.92-2.08,1.87-3.42,4-4.07c0.85-0.08,0.85-0.08,1.22-0.03l0.06,0.01
		c-0.01,0-0.01,0-0.02,0c-0.17-0.03-0.33-0.05-0.5-0.09c0.17,0.03,0.35,0.06,0.52,0.09c0,0,0,0,0,0c0,0,0.01,0,0.01,0c0,0,0,0,0,0
		c0,0-0.01,0-0.01,0c0,0,0,0,0,0c0,0,0,0,0,0c0,0-0.01,0-0.01,0c0.01,0,0.01,0,0.02,0l0.02,0h0c5.06,1.72,4.86,8.79,4.53,10.59
		c-0.38,2.05-1.54,5.56-5.13,6.12c-1.13,0.59-2.49,0.65-3.48,1.54c-0.22,0.2-1.15,1.4-1.6,2.98c-1.41,5.01-1.41,5.01-3.01,5.24
		c0,0,0,0.01-0.01,0.01C55.05,130.89,52.96,131.19,53.55,136.26z M64.63,104.27C64.62,104.27,64.62,104.27,64.63,104.27
		C64.62,104.27,64.62,104.27,64.63,104.27L64.63,104.27c0.3,0.05,0.6,0.08,0.89,0.16C65.52,104.43,64.94,104.33,64.63,104.27
		C64.63,104.28,64.63,104.28,64.63,104.27C64.63,104.27,64.63,104.27,64.63,104.27z M86.78,136.31c-7.49-9.92-15.38-4.27-15.42,0
		c0,0,0,0.01,0,0.01c-1.51,6.06-6.96,3.35-9.1-0.59c-1.82-3.35-1.67-6.06-1.41-7.37c0.17-0.88,0.62-2.06,1.23-2.7
		c0.64-0.68,1.66-0.52,2.35-1.08c6.29-0.64,5.64-9.52,11.99-10.08c1.63,0.05,4,0.82,6.03,4.2c0,0.01,0.01,0.01,0.02,0.01
		c2.45,3.97,4.99,5.57,9.36,5.89h0.01c9.18,1.41,7.93,9.89,7.91,9.97C99.72,134.68,96.45,145.46,86.78,136.31z M96.21,143.18h-0.01
		c-0.28,0-0.57,0-0.85,0h-0.14c-0.41,0-0.82,0-1.24,0c0.46,0,0.92,0,1.37,0C95.63,143.18,95.92,143.17,96.21,143.18z M56.57,134.08
		c2.13-0.13,4.17,2.77,4.85,3.72c1.59,1.11,2.35,3.02,3.99,4.08c1.28,0.83,2.54,1.19,4.19,1.21c0.73,0.01,3.2-0.34,4.41-5.15
		c4.1-7.83,9.6-1.37,10.66,0c5.04,4.73,5.04,4.73,7.95,5.13c8.66,1.19,9.37,5.96,9.03,8.7c-0.55,4.35-6.05,6.67-10.94,1.47
		c-5.32-4.42-5.32-4.42-8.64-4.68l0,0.01c-3.17,0.26-4.44,1.57-4.53,4.67h-0.01c-0.04,4.36-3.97,3.46-7.62-0.13
		c-1.82-1.03-3-2.84-4.79-3.92c-1.06-0.64-2.35-0.53-3.45-1.06C57.34,146.05,52.58,135.13,56.57,134.08z M102.04,137.64
		c0-0.01,0-0.01,0-0.02c2.92-6.73-0.53-11.06-0.57-11.1c-2.68-3.87-5.45-5.51-9.86-5.83c-3.94-0.29-5.77-2.63-6.61-4.54
		c-2.32-5.27,0.06-11.7,6.59-12.09c3.12,0.2,4.93,1.29,6.65,4.02c0,0.01,0.01,0.01,0.02,0.01c2.55,4.09,5.29,5.73,10.11,6.07h0.01
		c6.32,0.49,8.92,5.36,8.15,9.69c-0.21,1.16-0.63,2-0.98,2.67v0.02c-2.08,4.08-2.12,7.09-0.15,11.1h0.01
		c3.04,7.71-3.8,11.67-8.44,10.35C106.89,147.96,99.41,145.59,102.04,137.64z M93.32,85c2.81,0.18,4.4,1.16,5.85,3.63
		c0,0.01,0.01,0.01,0.02,0.01c2.16,3.65,4.79,5.2,9.38,5.5c4.42,0.29,6.2,2.46,7.47,4.76c0.58,1.74,0.9,2.69,0.58,4.6
		c-1.2,7.16-10.39,9.47-14.68,3.69c-0.2-0.27-0.31-0.79-0.62-0.95c-2.5-3.97-5.07-5.56-9.48-5.88c-4.1-0.3-5.47-2.81-5.87-3.87
		C83.88,90.97,87.46,85.39,93.32,85z M96.59,57.89c2.05-1.7,3.77-1.81,4.41-1.85c1.65,0.11,2.45,0.69,3.05,2.23
		c0,0,0.01,0,0.01,0.01c0.95,2.33,2.63,3.37,5.8,3.57c2.44,0.16,3.97,1.1,5.28,3.26c0.47,1.2,0.75,1.93,0.57,3.29
		c-0.76,5.67-8.82,6.73-11.53,2.72c-0.14-0.2-0.19-0.59-0.41-0.71c-1.6-2.93-3.3-4.05-6.5-4.28h-0.01
		C92.23,65.77,93.18,60.72,96.59,57.89z M95.79,68.88c4.87-0.3,6.4,3.82,5.63,6.9c-0.15,0.58-1.59,5.7-7.59,6.16
		c-0.01,0-0.01,0.01-0.02,0.01c-1.4,0.1-2.99,0.21-4.99,1.34c-2.18,1.23-3.09,2.4-4.24,3.88c0,0,0,0.01,0,0.01
		c-2.63,3.41-5.19,3.91-6.87,3.73c-1.25-0.17-1.94-0.73-2.16-0.91c-4.08-3.34-0.69-12.64,6.42-13.45c0.01,0,0.01-0.01,0.02-0.01
		c1.08-0.08,4.36-0.33,7.69-3.64C93.12,69.48,93.25,69.35,95.79,68.88z M77.64,90.9c-0.01,0.01-0.02,0-0.03-0.01h0.02
		C77.63,90.9,77.64,90.89,77.64,90.9z M78.06,67.88c3.79-1.57,5.92-6.02,10.56-6.11c2.58-0.05,3.48,2.64,1.97,5.87
		c-0.73,1.56-2.31,3.3-3.17,3.95c-1.31,0.99-2.96,1.12-4.4,1.8c-4.7,0.32-6.95,3.25-8.45,5.19c0,0.01,0,0.01-0.01,0.02
		c-2.74,3.71-3.6,6.51-3.17,10.34h0.01c0.97,3.66,2.76,5.2,6.4,5.51c5.29,0.45,6.73,6.6,5.39,10.65c-2.02,6.1-8.89,7.53-11.67,2.43
		c-0.15-0.28-0.19-0.77-0.45-0.95c-1.73-3.98-3.52-5.57-6.62-5.89h-0.01c-4.18-0.5-5.08-6.2-1.84-11.73c0-0.01,0-0.01,0.01-0.02
		c3.8-6.36,3.85-10.32,3.85-10.35c0.59-4.26-0.62-5.01-1.87-5.19c0,0,0-0.01,0-0.01c-0.2-0.08-0.47-0.18-0.68-0.25
		c-1.24-3.49,6.53-11.02,9.76-11.36c0.77,0.1,0.77,0.1,0.15,2.61C71.9,69.01,75.4,68.98,78.06,67.88z M59.25,71.86
		c0.01-0.01,0.01-0.02,0.02-0.02c2.42-2.86,4.98-5.6,7.43-8.43c6-5.95,9.93-7.35,9.97-7.36c0.02,0.06,0.06,0.13,0.08,0.19
		c-1.08,1.48-5.38,5.33-7.51,7.17c-0.01,0.01-0.01,0.01-0.02,0.02c-3.39,2.96-5.29,5.25-7.01,8.43h0c-1.34,3.05-1.17,4.41,0.58,4.67
		c2.71,0.41,1.08,6.27-0.55,9.3c-2.72,5.05-6.24,6.27-6.98,3.53c-0.2-0.73,0.27-1.49-0.06-2.21c0.41-3.57,0.21-4.94-0.79-5.22h0
		C53.1,81.47,55.55,76.39,59.25,71.86z M52.5,81.42c0.85-1.64,1.77-3.25,2.75-4.81c-0.02,0.04-0.02,0.04-0.02,0.04
		c-1.27,3.04-2.8,5.95-4.19,8.93c-1.52,3.26-2.48,5.29-2.56,5.32C49.58,87.62,50.93,84.45,52.5,81.42z M45.84,101.53
		c0.39-2.41,0.91-4.77,1.55-7.09l0.04-0.13c1.29-2.29,2.1-4.8,3.45-7.05c1.17-1.95,1.71-2.08,2.07-2.16
		c1.76,0.27,0.09,2.53,0.57,3.73c-0.34,3.65,0.33,5.2,2.4,5.51c3.25,0.48,3.12,6.99,2.33,10.2c-1.46,5.95-4.95,7.51-6.58,4.39
		c-0.41-0.78-0.21-1.73-0.73-2.47c-0.65-3.98-1.35-5.57-2.55-5.89c0,0,0,0.01,0,0.01c-1.24,0.32-1.97,1.91-2.69,5.88
		c0,0,0,0.01,0,0.01c-0.29,1.82-0.52,3.27-0.68,3.99c-0.01,0-0.02,0-0.03,0C45.07,107.42,45.36,104.44,45.84,101.53z M62.9,156.02
		c-0.5,0-1.13,0-3.66-2.91c-1.52-1.39-2.57-3.18-3.96-4.68l-0.08-0.11c-0.96-1.54-1.86-3.11-2.7-4.73c-1.61-3.1-2.98-6.35-4.1-9.71
		c-1.12-3.36-1.98-6.84-2.56-10.41c-0.49-2.99-0.78-6.05-0.86-9.11l0-0.01c0.13-0.44,0.45-2.39,1.01-6.08c0,0,0-0.01,0-0.01
		c0.19-1.09,0.56-3.11,1.36-3.86c1.79-1.68,2.85,5.1,2.54,10.08c-0.11,1.72-0.52,5.79-2.02,6.39c0,0,0,0.01,0,0.01
		c-1.52,0.41-1.24,3.81-0.94,5.8c0,0.01,0,0.01,0,0.02c0.68,4.1,1.59,7.11,3.37,11.09h0c1.73,3.47,2.88,4.93,4.1,5.22
		C56.45,143.5,63.8,153.9,62.9,156.02z M93.49,177.21C93.49,177.21,93.49,177.21,93.49,177.21
		C93.48,177.21,93.48,177.21,93.49,177.21C93.48,177.21,93.48,177.21,93.49,177.21L93.49,177.21
		C93.49,177.21,93.49,177.21,93.49,177.21C93.49,177.21,93.49,177.21,93.49,177.21z M93.51,177.22c-3.11-0.56-12.44-4.46-14.08-6.34
		c0.02-0.02,0.05-0.05,0.08-0.07c0,0,0,0-0.01,0c0.04-0.02,0.09-0.03,0.13-0.05c-0.03-0.39-0.65-1-2.8-3.04c0,0,0,0-0.01-0.01
		c-0.93-0.93-1.78-1.88-1.17-2.29c1.86-0.27,6.66,3.36,8.63,4.93c3.24,2.58,3.4,3.02,3.48,3.24c-0.02,0.03-0.04,0.07-0.05,0.1
		c-0.05,0.01-0.12,0.03-0.17,0.04c0,0,0,0,0,0c-0.07,0.01-0.16,0.03-0.22,0.04c-0.02,0.04-0.04,0.08-0.05,0.12
		c0.54,0.88,3.16,1.97,5.26,2.85c0.96,0.4,0.96,0.4,1.07,0.5C93.57,177.22,93.53,177.22,93.51,177.22z M98.5,177.13
		c-0.06,0.02-0.15,0.05-0.21,0.08c0,0,0,0,0,0c-0.07,0.01-0.15,0.02-0.22,0.03c0.01,0.06,0.02,0.15,0.02,0.22
		c0.59,0.41,1.23,0.67,2.99,1.21c0,0,0.01,0,0.01,0c0.88,0.24,1.76,0.46,2.64,0.69c-2.59-0.07-12.5-2.61-13.63-4.21
		c0.04-0.02,0.1-0.04,0.15-0.06c0.08-0.04,0.18-0.09,0.26-0.14c-0.27-0.45-0.43-0.72-2.32-2.27c-4.48-3.75-5.79-4.71-7.6-6.03h0
		c-5.17-3.58-6.67-3.63-7.01-3.56v0.01c-2.03,0.32,0.76,3.06,1.81,4.1c1.11,1.09,1.29,1.44,1.38,1.61c-0.04,0.05-0.1,0.11-0.14,0.15
		c-0.13-0.02-0.13-0.02-0.13-0.02h0c-3.48-1.35-11.37-7.87-11.63-10.03c0.06-0.03,0.13-0.07,0.19-0.1c0,0,0-0.01,0-0.01
		c1.16-0.33-0.78-3.9-0.8-3.94c-0.42-0.75-1.65-3.23,0.25-3.44c2.02,0.22,4.16,2.35,4.77,2.99c1.41,1.5,4.27,4.06,7.6,4.37h0
		c2.96,0.12,3.04-2.66,3.09-4.16c0.09-2.94,2.27-3.23,3.55-3.14c0.15,0.02,0.16,0.02,0.16,0.02c6.43,1.49,7.55,7.63,7.56,7.69
		c0.27,1.77-0.23,2.56-0.64,3.18c-0.46,0.72-1.41,0.3-1.95,0.83c-4.25,0.36-3.04,4.23,0.87,7.45c0.87,0.72,2.06,1.51,2.51,1.78
		C94.74,174.05,98.23,176.51,98.5,177.13z M102.4,170.85L102.4,170.85C102.4,170.85,102.4,170.85,102.4,170.85
		C102.4,170.85,102.4,170.84,102.4,170.85L102.4,170.85c0.23,0.03,0.45,0.06,0.68,0.08C102.86,170.89,102.63,170.87,102.4,170.85z
		 M111.32,173.68c-2.09,0.26-3.57-1.23-4.05-1.72c0,0-0.01,0-0.01,0c-1.89-1.91-3.68-2.76-6.17-2.93h-0.01
		c-0.86,0.06-3.49,0.25-2.86,2.93c0.16,0.66,0.52,2.21-1.91,1.62c-3.92-0.94-9.01-5.45-7.69-7.54c0.35-0.55,1.07-0.26,1.49-0.65
		c2.26-0.19,3.22-1.16,3.67-3.71c0,0,0,0,0-0.01c0.37-1.82,1.41-2.63,3.58-2.78c1.13,0.02,3.35,0.41,5.49,2.8c0,0,0.01,0,0.01,0.01
		c2.28,2.54,4.17,3.52,7.22,3.71c4.19,0.27,5.34,3.51,4.53,5.66C114.46,171.45,113.61,173.4,111.32,173.68z M116.2,179.06
		c-0.16,0.14-0.55,0.42-1.32,0.68c-0.65,0.22-1.42,0.35-2.09,0.38c0.16-0.04,0.23-0.14,0.37-0.38c0.83-1.35,2.12-1.55,2.64-1.58
		C116.9,178.23,116.46,178.83,116.2,179.06z M134.53,172.75c-1.62,1.66-1.69,1.88-1.71,2.23c0.17,0.16,0.42,0.17,0.62,0.28
		c-1.3,1.43-6.52,2.86-7.11,3.02c-2.43,0.65-4.94,1.07-5.61,1.12c0.72-0.37,1.53-0.45,2.28-0.71c1.26-0.43,2.4-0.86,2.54-1.32
		c-0.1-0.07-0.27-0.11-0.39-0.12h0c-0.99,0.07-1.97,0.33-4.4,1.16c-3.01,1.03-3.81,1.05-3.95,0.9c0.32-0.49,1.12-0.64,1.01-1.43
		c-0.08-0.58-0.91-0.64-1.31-0.67h0c-2.62-0.4-2.15-3.7-0.33-5.22c1.26-1.06,2.57-1.14,3.2-1.18c1.7,0.1,1.77,0.27,2.42,1.89
		c0.12,3.19,2.82,3.21,8.03,0.05l0,0c3.93-2.41,5.62-2.17,5.52-1.26C135.3,171.66,135.3,171.66,134.53,172.75z M135.17,168.2
		c-0.26-0.62-0.17-3.03,3.39-6.63l0-0.01c2.98-3.02,4.11-5.31,4.19-8.43c0-0.01,0.01-0.02,0.01-0.02c-0.01-0.9-0.19-2.25-1.71-3.59
		c-1.05-0.92-2.53-0.45-3.65-1.15c-2.78-0.23-3.02-0.64-5.24-4.58c-0.79-1.39-2.19-2.45-2.52-2.63c-1.54-0.82-3.37-0.57-4.92-1.37
		c-9.04-1.31-8.43-10.47-3.96-13.74c1.91-1.4,3.92-1.53,4.88-1.59c3.18,0.2,4.91,1.25,6.42,3.87c0,0,0,0.01,0,0.01
		c0.88,1.58,1.57,2.83,3.52,4.15c1.43,0.97,3.29,0.53,4.74,1.45c2.63,0.21,4.08,1.31,4.99,3.78c0,0,0,0.01,0,0.01
		c0.49,1.42,0.91,2.66,2.28,3.88c1.02,0.91,2.55,0.45,3.57,1.35c0,0,0,0,0,0c0,0,0,0,0,0c0,0,0,0,0,0c0,0,0,0,0,0c0,0,0,0,0,0
		c0,0,0,0,0,0c0,0,0,0,0,0c0,0,0,0,0,0c6.02,1.21,1.27,8.46,1.22,8.54c-1.2,1.76-2.8,3.18-3.97,4.96c-1.7,2.57-2.22,3.91-2.68,5.1
		c0,0.01-0.01,0.01-0.02,0.02C143.3,166.91,136.05,170.29,135.17,168.2z M145.61,168.38c-0.69,0.64-1.65,1.38-2.62,2.03
		c-3.33,2.22-7.6,3.95-7.5,3.04c0.12-1.09,7.52-7.77,11.18-8.13C148.12,165.41,147.13,166.97,145.61,168.38z M148.59,162.88
		C148.59,162.88,148.59,162.88,148.59,162.88L148.59,162.88C148.58,162.87,148.58,162.87,148.59,162.88
		C148.58,162.87,148.59,162.87,148.59,162.88l0.02-0.01c0,0,0.01,0,0.01,0C148.6,162.88,148.6,162.88,148.59,162.88z M166.62,150.37
		c-1.24,1.8-4.09,5.3-6.07,5.64c0,0-0.01,0.01-0.02,0.02c-1.53,0.23-3.27,1.32-6.64,4.17c0,0,0,0-0.01,0.01
		c-2.36,1.95-4.13,2.85-5.25,2.68c-0.15-0.03-0.35-0.12-0.46-0.23c-1.43-1.37,3.63-10.72,9.15-11.55c0,0,0.01-0.01,0.01-0.01
		c0.79-0.09,1.76-0.19,3.26-1.22c1.68-1.16,2.58-2.23,3.71-3.58h0c1.47-1.79,2.52-2.86,3.88-3.38
		C170.62,142.56,168.91,147.02,166.62,150.37z M174.28,124.46c1.98,0.28,1.77,4.74,0.44,8.7c-1.68,4.99-4.56,8.11-5.72,6.17
		C167.3,136.48,170.77,124.93,174.28,124.46z M170.67,123.24c-1.08,6.24-5.65,9.58-8.03,5.85c-2.76-4.33-0.38-14.46,4.46-14.74
		C170.74,114.79,171.22,120.04,170.67,123.24z M170.85,104.26c-0.02,5.63-3.67,8.18-6.73,4.7c-1.59-1.81-2.03-4.34-3.82-6.01
		c-1.46-1.36-3.55-1.36-5.18-2.36c-2.39-0.23-4.08-1.39-5.84-4.02c0,0,0-0.01,0-0.01c-1.07-1.58-1.92-2.83-4.04-4.15
		c-1.51-0.94-3.38-0.62-4.92-1.45h0h0h0h0c0,0,0,0,0,0h0c0,0,0,0,0,0h0c-5.64-0.87-8.76-5.41-7.6-11.04l0-0.01
		c0.94-3.49,0.36-6.05-2.13-9.44c0-0.01,0-0.02-0.01-0.02c-3.21-4.58-1.85-8.43,1.43-8.55c4.5,0.27,8.29,4.93,8.24,8.55
		c-0.05,3.44,0.84,6,3.28,9.44c0,0.01,0,0.01,0,0.02c1.06,1.5,2.52,2.82,4.36,3.94c1.29,0.78,2.89,0.54,4.2,1.26
		c2.23,0.21,3.88,1.29,5.67,3.72c0,0,0,0.01,0,0.01c1.06,1.48,1.98,2.77,3.7,4.05c1.09,0.82,2.57,0.68,3.67,1.46
		C170.72,95.71,170.85,104.17,170.85,104.26z M168.16,81.97c-0.75-0.2-0.75-0.2-3.88-3.38c-1.13-1.35-2.03-2.41-3.71-3.57
		c-1.5-1.03-2.48-1.14-3.26-1.22c0,0-0.01-0.01-0.01-0.01h0h0h0c0,0,0,0,0,0c0,0,0,0,0,0h0c0,0,0,0,0,0c0,0,0,0,0,0
		c-5.69-0.86-10.61-10.11-9.17-11.52c0.1-0.1,0.29-0.19,0.43-0.23c0.13-0.02,0.16-0.03,0.31-0.03c0.66,0.07,1.29,0.19,2.81,1.1
		c2.23,1.32,4,3.25,6.16,4.67c0.82,0.54,1.83,0.6,2.66,1.12c2.14,0.37,5.54,4.52,7.17,7.37C169.68,79.81,169.92,82.42,168.16,81.97z
		 M118.03,179.89c-0.29,0.02-0.57,0.05-0.86,0.07C117.45,179.94,117.74,179.92,118.03,179.89z M82.32,172.99
		c-0.34-0.17-0.68-0.34-1.02-0.51c0.07,0.04,0.14,0.07,0.2,0.11C81.78,172.73,82.05,172.86,82.32,172.99z M114.36,180.1
		c0.3-0.01,0.6-0.02,0.9-0.04c-0.05,0-0.1,0-0.15,0C114.86,180.08,114.61,180.09,114.36,180.1z M119.35,179.77
		c-0.44,0.05-0.88,0.08-1.32,0.12C118.47,179.86,118.91,179.82,119.35,179.77z M83.49,173.57c0.76,0.36,1.53,0.71,2.3,1.04
		C85.01,174.28,84.25,173.93,83.49,173.57z M117.17,179.96c-0.57,0.04-1.13,0.07-1.71,0.09C116.03,180.03,116.6,180,117.17,179.96z
		 M82.32,172.99c0.39,0.19,0.77,0.39,1.16,0.58C83.1,173.38,82.71,173.19,82.32,172.99z"/>
</g>
</svg>
