<?xml version="1.0" encoding="utf-8"?>
<!-- Generator: Adobe Illustrator 26.2.1, SVG Export Plug-In . SVG Version: 6.00 Build 0)  -->
<svg version="1.1" xmlns="http://www.w3.org/2000/svg" xmlns:xlink="http://www.w3.org/1999/xlink" x="0px" y="0px"
	 viewBox="0 0 225 225" style="enable-background:new 0 0 225 225;" xml:space="preserve">
<style type="text/css">
	.st0{display:none;}
	.st1{display:inline;fill:#FAB433;}
	.st2{fill:none;}
	.st3{fill:none;stroke:#000000;stroke-width:1.6;stroke-miterlimit:10;}
	.st4{fill:none;stroke:#000000;stroke-width:0.7265;stroke-miterlimit:10;}
	.st5{fill:none;stroke:#000000;stroke-linecap:round;stroke-linejoin:round;stroke-miterlimit:10;}
	.st6{fill:none;stroke:#000000;stroke-miterlimit:10;}
	.st7{fill:none;stroke:#000000;stroke-width:0.7105;stroke-miterlimit:10;}
	.st8{fill:none;stroke:#000000;stroke-width:5.4;stroke-linecap:round;stroke-linejoin:round;stroke-miterlimit:10;}
	.st9{fill:none;stroke:#000000;stroke-width:2.9309;stroke-linecap:round;stroke-linejoin:round;stroke-miterlimit:10;}
	.st10{fill:none;stroke:#000000;stroke-width:0.5;stroke-linecap:round;stroke-linejoin:round;}
	.st11{fill:none;stroke:#FFFFFF;stroke-width:0;stroke-linecap:round;stroke-linejoin:round;}
	.st12{fill:#FFFFFF;}
	.st13{fill:none;stroke:#000000;stroke-width:1.4;stroke-miterlimit:10;}
	.st14{fill:url(#);stroke:#000000;stroke-width:1.4387;stroke-miterlimit:10;}
	.st15{fill:url(#);stroke:#000000;stroke-width:1.3718;stroke-miterlimit:10;}
	.st16{fill:none;stroke:#000000;stroke-width:1.0041;stroke-miterlimit:10;}
	.st17{fill:none;stroke:#000000;stroke-width:1.3621;stroke-miterlimit:10;}
	.st18{fill:none;stroke:#000000;stroke-width:0.25;stroke-miterlimit:10;}
</style>
<g id="Layer_2" class="st0">
	<rect id="XMLID_1014_" x="-835.99" y="-275.01" class="st1" width="1160" height="772"/>
</g>
<g id="Layer_1">
	<g>
		<path d="M112.51,46.9c-2.23,0-4.39,0.13-6.56,0.33v0.02c0.06-0.01,0.12-0.01,0.17-0.02v4h-0.17v2.36h0.17v9.45h-0.17v2.36h0.17
			v9.45h-0.17v2.36h0.17v9.45h-0.17v2.36h0.17v9.45h-0.17v2.36h0.17v0.23c1.87-1.05,4.09-1.68,6.39-1.68
			c7.22,0,13.12,5.9,13.12,13.12c0,7.22-5.9,13.12-13.12,13.12c-2.36,0-4.66-0.66-6.56-1.77v0.59h0.17v9.45h-0.17v2.36h0.17v9.45
			h-0.17v2.36h0.17v9.45h-0.17v2.36h0.17v9.45h-0.17v2.36h0.17v6.1c-0.06-0.01-0.12-0.02-0.17-0.02v0.02
			c2.16,0.2,4.33,0.33,6.56,0.33c36.21,0,65.6-29.39,65.6-65.6C178.11,76.28,148.72,46.9,112.51,46.9z"/>
		<path d="M105.95,63.03H69.46c-0.88,0.76-1.73,1.55-2.57,2.36h39.06V63.03z"/>
		<path d="M105.95,51.22H89.08c-1.85,0.71-3.65,1.5-5.42,2.36h22.29V51.22z"/>
		<path d="M54.89,136.24h51.06v-2.36H54.89h-0.82h-3.58c0.27,0.79,0.57,1.58,0.87,2.36h2.71H54.89z"/>
		<path d="M105.95,145.68h-50c0.47,0.8,0.95,1.59,1.46,2.36h48.54V145.68z"/>
		<path d="M54.89,112.62h44.5c0-0.04,0-0.09,0-0.13c0-0.76,0.07-1.51,0.2-2.23h-44.7h-0.82h-7.1c-0.02,0.74-0.05,1.48-0.05,2.23
			c0,0.04,0,0.09,0,0.13h7.15H54.89z"/>
		<path d="M54.89,124.43h51.06v-0.59c-0.86-0.5-1.65-1.1-2.38-1.77H54.89h-0.82h-6.46c0.12,0.79,0.25,1.58,0.4,2.36h6.06H54.89z"/>
		<path d="M54.89,100.82h51.06v-2.36H54.89h-0.82h-5.63c-0.17,0.78-0.33,1.57-0.47,2.36h6.11H54.89z"/>
		<path d="M105.95,157.49H64.82c0.76,0.81,1.54,1.59,2.34,2.36h38.79V157.49z"/>
		<path d="M105.95,169.3H79.72c1.46,0.85,2.96,1.63,4.49,2.36h21.74V169.3z"/>
		<path d="M105.95,74.84H58.82c-0.54,0.78-1.07,1.56-1.58,2.36h48.72V74.84z"/>
		<path d="M54.89,89.01h51.06v-2.36H54.89h-0.82h-1.84c-0.34,0.78-0.66,1.57-0.97,2.36h2.81H54.89z"/>
		<path d="M105.95,101.14c-3.32,1.94-5.7,5.22-6.36,9.12c-0.12,0.73-0.2,1.47-0.2,2.23c0,0.04,0,0.09,0,0.13
			c0.04,3.74,1.63,7.08,4.18,9.45c0.72,0.67,1.52,1.27,2.38,1.77v-22.58V101.14z"/>
	</g>
</g>
</svg>
