<?xml version="1.0" encoding="utf-8"?>
<!-- Generator: Adobe Illustrator 26.2.1, SVG Export Plug-In . SVG Version: 6.00 Build 0)  -->
<svg version="1.1" xmlns="http://www.w3.org/2000/svg" xmlns:xlink="http://www.w3.org/1999/xlink" x="0px" y="0px"
	 viewBox="0 0 225 225" style="enable-background:new 0 0 225 225;" xml:space="preserve">
<style type="text/css">
	.st0{display:none;}
	.st1{display:inline;fill:#FAB433;}
	.st2{fill:none;}
	.st3{fill:none;stroke:#000000;stroke-width:1.6;stroke-miterlimit:10;}
	.st4{fill:none;stroke:#000000;stroke-width:0.7265;stroke-miterlimit:10;}
	.st5{fill:none;stroke:#000000;stroke-linecap:round;stroke-linejoin:round;stroke-miterlimit:10;}
	.st6{fill:none;stroke:#000000;stroke-miterlimit:10;}
	.st7{fill:none;stroke:#000000;stroke-width:0.7105;stroke-miterlimit:10;}
	.st8{fill:none;stroke:#000000;stroke-width:5.4;stroke-linecap:round;stroke-linejoin:round;stroke-miterlimit:10;}
	.st9{fill:none;stroke:#000000;stroke-width:2.9309;stroke-linecap:round;stroke-linejoin:round;stroke-miterlimit:10;}
	.st10{fill:none;stroke:#000000;stroke-width:0.5;stroke-linecap:round;stroke-linejoin:round;}
	.st11{fill:none;stroke:#FFFFFF;stroke-width:0;stroke-linecap:round;stroke-linejoin:round;}
	.st12{fill:#FFFFFF;}
	.st13{fill:none;stroke:#000000;stroke-width:1.4;stroke-miterlimit:10;}
	.st14{fill:url(#);stroke:#000000;stroke-width:1.4387;stroke-miterlimit:10;}
	.st15{fill:url(#);stroke:#000000;stroke-width:1.3718;stroke-miterlimit:10;}
	.st16{fill:none;stroke:#000000;stroke-width:1.0041;stroke-miterlimit:10;}
	.st17{fill:none;stroke:#000000;stroke-width:1.3621;stroke-miterlimit:10;}
	.st18{fill:none;stroke:#000000;stroke-width:0.25;stroke-miterlimit:10;}
</style>
<g id="Layer_2" class="st0">
	<rect id="XMLID_573_" x="-100.99" y="-275.01" class="st1" width="1160" height="772"/>
</g>
<g id="Layer_1">
	<g id="XMLID_12057_">
		<path id="XMLID_12101_" d="M43.41,86.05c0.03-0.2,0.07-0.4,0.11-0.61c-0.02,0.11-0.04,0.22-0.06,0.33
			c-0.01,0.07-0.03,0.15-0.04,0.22l-0.06,0.4c0,0,0,0,0,0l-0.28,1.77c-0.03,0.22-0.06,0.43-0.08,0.62c-0.04,0.31-0.07,0.61-0.1,0.89
			c0,0.02,0,0.04-0.01,0.05c-0.02,0.22-0.05,0.43-0.07,0.63c-0.01,0.17-0.02,0.34-0.03,0.52c-0.01,0.22-0.03,0.43-0.04,0.66
			c-0.02,0.28-0.05,0.54-0.07,0.79c-0.07,0.81-0.11,1.48-0.14,2.13c-0.02,0.9-0.02,1.85-0.03,2.66c0,0.02,0,0.03,0,0.05
			c0.01,0.56,0.02,1.18,0.04,1.91c0.03,0.65,0.06,1.21,0.08,1.72c0.01,0.11,0.01,0.22,0.02,0.32c0.02,0.3,0.05,0.6,0.08,0.9
			c0.07,0.72,0.14,1.44,0.21,2.11c0.01,0.07,0.01,0.14,0.02,0.21c0,0,0,0,0,0c0.01,0.15,0.03,0.3,0.04,0.44
			c-0.01-0.12-0.02-0.25-0.04-0.38c0.16,1.22,0.39,2.73,0.77,5.14c0,0,0-0.01,0-0.01c0,0.01,0,0.01,0,0.02l0,0.01l0.72,3.39
			c6.39,26.15,29.7,57.14,67.35,67.54c0.07,0.02,0.13,0.04,0.2,0.06c0.01,0,0.01,0,0.02,0l0.13,0.03c0.1,0.02,0.19,0.04,0.29,0.07
			c0.24,0.05,0.48,0.11,0.72,0.16c-0.25-0.06-0.5-0.12-0.76-0.18l3.84,0.78l0.46,0.09c1.01,0.16,2.22,0.33,3.4,0.47
			c0.01,0,0.01,0,0.02,0c0.46,0.06,0.92,0.11,1.36,0.16c0.27,0.03,0.52,0.06,0.76,0.09c1.14,0.1,2.23,0.18,3.27,0.22
			c0.47,0.02,0.99,0.03,1.6,0.05c0.02,0,0.03,0,0.05,0c0.01,0,0.02,0,0.03,0c0.29,0,0.61,0,0.92-0.01c0.71-0.01,1.48-0.03,2.24-0.06
			c0.81-0.02,1.49-0.04,2.11-0.08c1.18-0.06,2.17-0.16,3.53-0.33c0.18-0.02,0.37-0.05,0.57-0.07c0.2-0.03,0.4-0.06,0.6-0.09
			c0.2-0.02,0.39-0.05,0.6-0.07l0.97-0.16c0.11-0.02,0.21-0.04,0.32-0.06c-0.13,0.02-0.26,0.03-0.39,0.05
			C94.11,188.11,36.53,139.16,43.41,86.05z"/>
		<path id="XMLID_12100_" d="M76.79,45.87l-0.54,0.2c0.49-0.18,0.99-0.35,1.49-0.51C77.41,45.66,77.09,45.76,76.79,45.87z"/>
		<path id="XMLID_12099_" d="M88.19,98.68c-0.01-0.17-0.01-0.33-0.02-0.5c-0.02-0.25-0.04-0.49-0.04-0.7c0-0.06,0-0.14,0-0.21
			c0-0.08-0.01-0.16-0.01-0.24c0-0.05,0-0.08,0-0.13c0.01-0.55,0.02-0.92,0.03-1.18c0-0.08,0.01-0.16,0.01-0.23
			c0.01-0.14,0.03-0.34,0.05-0.58c0.04-0.35,0.1-0.78,0.2-1.25c0.01-0.05,0.02-0.09,0.03-0.14c0-0.02,0.01-0.04,0.01-0.07
			c0.02-0.1,0.05-0.2,0.07-0.31c0.02-0.06,0.03-0.13,0.05-0.2c0-0.01,0-0.01,0-0.02c0.04-0.14,0.08-0.28,0.13-0.42
			c0.02-0.05,0.03-0.1,0.05-0.14c-0.01,0.03-0.02,0.06-0.03,0.09l0.09-0.25c0.02-0.05,0.04-0.09,0.06-0.14c0,0,0-0.01,0-0.01
			c0.02-0.04,0.03-0.09,0.05-0.12c0-0.01,0.01-0.02,0.01-0.03c0.81-2.06,1.97-3.94,3.51-5.56c0.02-0.04,0.04-0.09,0.05-0.13
			c0.08-0.2,0.15-0.4,0.21-0.61c0,0.01,0,0.01-0.01,0.02c-0.05,0.15-0.09,0.29-0.14,0.43c-0.02,0.05-0.04,0.1-0.06,0.15
			c-0.02,0.04-0.03,0.08-0.04,0.13c0.01-0.01,0.02-0.02,0.03-0.03c0.08-0.09,0.17-0.17,0.25-0.26c0-0.01,0.01-0.02,0.01-0.03
			c0,0.01-0.01,0.02-0.01,0.03c8.89-8.89,26.26-6.09,39.04,6.37c0.25,0.25,0.5,0.5,0.75,0.75c5.12,5.23,8.64,11.26,10.37,17.19
			c2.42,8.28,1.37,16.34-3.66,21.62c-0.09,0.1-0.19,0.2-0.29,0.29c0.01,0,0.02-0.01,0.03-0.01c-0.01,0-0.02,0.01-0.03,0.01
			c-0.04,0.04-0.08,0.07-0.12,0.11c-1.73,1.69-3.76,2.95-6.01,3.79l-0.08,0.03c0,0,0,0-0.01,0c-0.05,0.02-0.08,0.03-0.13,0.04
			c0.02-0.01,0.05-0.02,0.07-0.02c-0.18,0.06-0.36,0.12-0.55,0.18c-0.03,0.01-0.05,0.02-0.08,0.02c-0.01,0-0.02,0-0.02,0.01
			c-0.01,0-0.02,0.01-0.03,0.01c-0.04,0.01-0.08,0.02-0.13,0.03c-0.08,0.02-0.16,0.04-0.24,0.06c-0.25,0.06-0.52,0.11-0.9,0.17
			c-0.04,0-0.06,0.01-0.1,0.01c-0.31,0.05-0.62,0.08-0.95,0.11c5.1-0.26,9.69-2.02,13.11-5.4c0.02-0.02,0.04-0.04,0.07-0.06
			c-0.07,0.01-0.15,0.01-0.22,0.02c0.08-0.01,0.15-0.02,0.22-0.03c0.1-0.1,0.21-0.21,0.31-0.31c4.79-5.03,6.19-12.42,4.59-20.24
			c-1.53-7.47-5.81-15.32-12.53-21.88c-0.84-0.82-1.7-1.6-2.58-2.34c-13.28-11.25-30.1-13.32-38.98-4.44
			c-0.01,0.08-0.02,0.15-0.03,0.22c-0.02,0.18-0.04,0.37-0.07,0.55h0c0.03-0.18,0.05-0.37,0.07-0.55c0.01-0.07,0.02-0.14,0.02-0.22
			c-0.1,0.1-0.19,0.19-0.28,0.29c-0.01,0.01-0.01,0.01-0.02,0.02c-0.01,0.06-0.01,0.11-0.02,0.17c-0.01,0.07-0.01,0.13-0.02,0.2
			c-0.01,0.13-0.04,0.26-0.06,0.39c0,0.01,0,0.02,0,0.02c0.03-0.21,0.06-0.42,0.08-0.63c0-0.05,0.01-0.1,0.01-0.15
			c-3.29,3.46-4.98,8.04-5.2,13.09C88.07,96.54,88.09,97.59,88.19,98.68z"/>
		<path id="XMLID_12097_" d="M92.09,42.71c0.89-0.08,1.78-0.14,2.69-0.17c-0.55,0.02-1.12,0.03-1.67,0.06
			c-0.64,0.04-1.31,0.1-2.12,0.19c-0.67,0.05-1.31,0.11-1.91,0.17c-0.54,0.07-1.14,0.15-1.84,0.25c-0.12,0.02-0.23,0.05-0.35,0.07
			c-0.07,0.01-0.14,0.02-0.2,0.03c-3.55,0.63-4.76,0.94-7.93,1.93c-0.96,0.32-1.96,0.66-2.91,1.01c-0.42,0.15-0.82,0.3-1.2,0.45
			c-0.01,0-0.01,0.01-0.02,0.01c-6.49,2.71-9.7,5.72-13.38,9.16c1.22-0.48,2.54-0.79,3.92-0.93C72.14,47.62,81.55,43.61,92.09,42.71
			z"/>
		<path id="XMLID_12094_" d="M101.59,124.45c16.37,15.97,38.61,19.55,50,8.18c0,0,0.01-0.01,0.01-0.01
			c-0.02-0.01-0.04-0.02-0.06-0.02c0.02,0.01,0.04,0.01,0.06,0.02c0.12-0.12,0.25-0.25,0.37-0.38c11.28-11.85,7-34.54-9.55-50.69
			C126.04,65.58,103.79,62,92.4,73.39c0.01,0.02,0.01,0.04,0.02,0.06c-0.01-0.02-0.02-0.04-0.02-0.06
			c-0.12,0.12-0.24,0.25-0.36,0.37c0,0,0,0,0,0c0.02,0.05,0.03,0.1,0.05,0.15c0.11,0.29,0.21,0.58,0.3,0.88c0,0.01,0,0.01,0.01,0.02
			c0,0,0,0,0,0l0,0v0c0,0,0,0,0,0c-0.11-0.34-0.23-0.69-0.36-1.03c0,0,0,0,0-0.01C80.76,85.61,85.04,108.3,101.59,124.45z
			 M93.2,78.21c-0.01-0.08-0.03-0.17-0.04-0.25c-0.04-0.23-0.08-0.46-0.12-0.68c0,0.01,0,0.02,0.01,0.02
			c0.04,0.2,0.08,0.41,0.11,0.61C93.16,78,93.18,78.1,93.2,78.21c0.01-0.01,0.01-0.01,0.01-0.01c0.11-0.11,0.21-0.22,0.32-0.33
			c-0.01-0.08-0.02-0.15-0.03-0.23c0.01,0.07,0.03,0.15,0.04,0.23c10.27-10.27,30.27-7.09,45.08,7.2c0.07,0.06,0.14,0.13,0.2,0.19
			c6.48,6.32,10.88,13.75,12.96,21.02c2.73,9.53,1.48,18.78-4.31,24.87c-0.11,0.12-0.22,0.23-0.33,0.34
			c0.08,0.01,0.15,0.03,0.23,0.04c-0.08-0.01-0.15-0.02-0.23-0.03c-0.01,0.01-0.02,0.02-0.03,0.03c-6.68,6.01-15.54,7.47-25.59,4.38
			c-0.03-0.01-0.05-0.02-0.08-0.03c0,0,0,0,0,0c-0.07-0.02-0.15-0.04-0.22-0.06c-0.2-0.06-0.41-0.12-0.62-0.18
			c-0.19-0.06-0.38-0.12-0.58-0.18c-3.05-1-6.02-2.38-8.84-4.11c-0.02-0.01-0.03-0.02-0.05-0.03l-0.27-0.16
			c-0.01-0.01-0.03-0.02-0.04-0.02c0,0,0,0,0,0c0,0,0,0,0,0c-0.13-0.08-0.24-0.15-0.35-0.22c-0.02-0.01-0.04-0.03-0.06-0.04
			c-0.68-0.42-1.08-0.68-1.77-1.19c-0.9-0.63-1.71-1.23-2.44-1.8c-0.07-0.06-0.13-0.11-0.2-0.17c-0.92-0.77-2.05-1.72-3.05-2.63
			c-0.38-0.35-0.73-0.68-1.05-0.99c0,0,0,0,0,0c-0.45-0.45-0.94-0.96-1.44-1.49c-0.4-0.42-0.71-0.74-0.97-1.02
			c0.01,0.02,0.03,0.03,0.04,0.04c-0.02-0.02-0.04-0.05-0.06-0.07c0.01,0.01,0.02,0.02,0.03,0.03c-0.43-0.49-0.84-0.96-1.22-1.42
			c-0.2-0.23-0.39-0.45-0.57-0.66c0,0,0,0,0,0c-0.34-0.41-0.59-0.72-0.81-1.01c-0.21-0.27-0.41-0.53-0.63-0.84
			c-0.04-0.06-0.09-0.13-0.14-0.19c-0.09-0.12-0.17-0.24-0.26-0.35c-0.06-0.08-0.11-0.15-0.16-0.23c0.03,0.04,0.06,0.09,0.1,0.13
			c-0.74-1.08-1.24-1.81-1.6-2.36l0.04,0.06l0.02,0.03c-0.01-0.01-0.02-0.03-0.03-0.05c-0.23-0.35-0.63-0.99-1.12-1.86
			c-0.02-0.03-0.03-0.06-0.05-0.08c-0.14-0.25-0.29-0.51-0.44-0.8C85.81,99.57,85.61,86.18,93.2,78.21z"/>
		<path id="XMLID_12093_" d="M97.46,42.5c-0.58,0-1.09,0-1.56,0c-0.02,0-0.03,0-0.05,0c-0.13,0-0.26,0.01-0.4,0.01
			c0.05,0,0.11,0,0.16,0C96.23,42.51,96.84,42.49,97.46,42.5z"/>
		<path id="XMLID_12090_" d="M149.04,74.68c-20.23-19.74-47.72-24.16-61.79-10.09c0.06,0.08,0.38,0.46,0,0
			c-0.15,0.15-0.3,0.31-0.45,0.46c0.03,0.03,1.13,1.32,0,0c-13.93,14.64-8.64,42.67,11.81,62.62
			c20.23,19.73,47.71,24.16,61.79,10.09h0c-0.07-0.06-0.15-0.12-0.22-0.18c0.07,0.06,0.15,0.12,0.22,0.18
			c0.15-0.15,0.3-0.31,0.45-0.47C174.78,122.67,169.49,94.63,149.04,74.68z M156.49,134.3c-0.13,0.14-0.27,0.28-0.41,0.42
			c0.02,0.01,0.03,0.02,0.05,0.03c-0.02-0.01-0.03-0.02-0.05-0.03l0,0c-12.66,12.66-37.38,8.67-55.58-9.08
			c-18.39-17.94-23.14-43.16-10.62-56.32c-0.02-0.03-0.03-0.05-0.05-0.08c-0.11-0.18-0.23-0.36-0.34-0.54c0,0,0,0,0,0
			c0.11,0.17,0.22,0.34,0.32,0.51c0.01,0.01,0.01,0.02,0.02,0.03c0.01,0.02,0.03,0.05,0.05,0.07c0.13-0.14,0.27-0.28,0.41-0.42
			c-0.01-0.02-0.02-0.03-0.03-0.05c0.01,0.02,0.02,0.03,0.03,0.05c12.66-12.66,37.39-8.68,55.58,9.07
			C164.27,95.92,169.02,121.14,156.49,134.3z"/>
		<path id="XMLID_12087_" d="M92.74,133.8c24.68,24.08,58.33,29.28,75.14,11.62c16.82-17.67,10.44-51.51-14.25-75.59
			C128.95,45.74,95.31,40.54,78.5,58.21c0.05,0.03,0.09,0.05,0.14,0.08c-0.05-0.03-0.1-0.06-0.14-0.08
			C61.68,75.87,68.06,109.72,92.74,133.8z M151.73,71.86c22.63,22.08,28.48,53.1,13.06,69.3c-15.42,16.2-46.26,11.43-68.88-10.65
			c-22.63-22.08-28.48-53.1-13.06-69.3c-0.35-0.29-0.7-0.56-1.05-0.83c0,0,0,0,0,0c0.35,0.27,0.7,0.54,1.05,0.83
			C98.27,45.01,129.11,49.78,151.73,71.86z"/>
		<path id="XMLID_12086_" d="M79.28,45.07c0.12-0.04,0.24-0.08,0.35-0.11c-0.25,0.07-0.49,0.15-0.73,0.22
			c0.08-0.02,0.16-0.05,0.24-0.07C79.19,45.1,79.24,45.08,79.28,45.07z"/>
		<path id="XMLID_12085_" d="M59.93,55.91c0.43-0.39,0.87-0.76,1.31-1.12c-0.2,0.16-0.39,0.31-0.58,0.47
			C60.43,55.46,60.18,55.68,59.93,55.91z"/>
		<path id="XMLID_12084_" d="M87.58,149.75c-1.87-1.58-3.7-3.25-5.5-5c-14.35-14-23.49-30.77-26.74-46.72
			c-3.4-16.64-0.38-32.37,9.82-43.09c-1.38,0.14-2.7,0.44-3.92,0.93c-14.47,16.44-12.58,36.55-8.66,50.15
			c0.71,2.45,1.48,4.7,2.23,6.67c4.89,12.78,12.85,24.3,22.47,33.85c32.52,32.26,84.14,42.09,101.54,2.45
			c0.03-0.07,0.06-0.13,0.09-0.2c0.22-0.62,0.44-1.23,0.63-1.76c0.07-0.23,0.14-0.44,0.2-0.65c0.03-0.1,0.06-0.21,0.09-0.31
			c0.12-0.38,0.22-0.74,0.32-1.08c0.05-0.16,0.09-0.31,0.13-0.46c0.06-0.21,0.12-0.41,0.17-0.6c0.17-0.61,0.31-1.18,0.44-1.75
			c0.26-1.13,0.47-2.28,0.76-3.95c-0.09,0.54-0.18,1.07-0.26,1.57c0.04-0.19,0.08-0.37,0.11-0.56c0-0.02,0.01-0.03,0.01-0.05
			c0.13-0.76,0.27-1.62,0.44-2.69c0.02-0.2,0.04-0.38,0.05-0.57c0.05-0.39,0.1-0.76,0.15-1.11c0.01-0.07,0.01-0.15,0.02-0.22
			c0.06-0.59,0.12-1.24,0.17-1.91c0.01-0.16,0.02-0.33,0.02-0.5c0-0.01,0-0.03,0-0.04c0.01-0.22,0.02-0.46,0.03-0.71
			c-0.61,10.45-4.22,19.9-11.05,27.08C152.6,178.25,116.23,174.01,87.58,149.75z"/>
		<path id="XMLID_12083_" d="M182.4,131.82c0-0.04,0-0.09,0-0.13c0,0.09-0.01,0.17-0.01,0.26C182.4,131.9,182.4,131.86,182.4,131.82
			z"/>
		<path id="XMLID_12082_" d="M52.28,64.45c0.04-0.05,0.07-0.1,0.11-0.15c-0.01,0.01-0.02,0.03-0.03,0.04
			C52.34,64.38,52.31,64.42,52.28,64.45z"/>
		<path id="XMLID_12081_" d="M182.5,127.47c0,0.06,0,0.12,0,0.18c-0.04,1.68-0.06,2.88-0.09,3.81c0.03-0.57,0.06-1.14,0.08-1.71
			c0-0.07,0-0.14,0-0.21c0.01-0.57,0.01-1.14,0.01-1.71c0-0.11,0-0.23,0-0.34C182.5,127.49,182.5,127.48,182.5,127.47z"/>
		<path id="XMLID_12080_" d="M168.48,165.76C168.48,165.76,168.49,165.76,168.48,165.76c0.24-0.25,0.46-0.5,0.69-0.75
			c0.01-0.01,0.01-0.01,0.02-0.02c0.31-0.34,0.61-0.68,0.9-1.03l-0.2,0.22L168.48,165.76z"/>
		<path id="XMLID_12079_" d="M61.03,54.92c-0.09,0.07-0.18,0.15-0.27,0.23c-0.08,0.07-0.16,0.15-0.25,0.22
			c-0.2,0.18-0.4,0.36-0.6,0.54c0.38-0.34,0.75-0.69,1.14-1.01C61.04,54.91,61.04,54.91,61.03,54.92z"/>
		<path id="XMLID_12078_" d="M75.53,151.38C44.99,121.59,37.1,79.72,57.9,57.86c0,0-0.01,0-0.01,0.01l0.01-0.01
			c0.38-0.4,0.78-0.79,1.18-1.17c0.17-0.16,0.34-0.33,0.52-0.48c-0.05,0.05-0.11,0.1-0.16,0.14c0.16-0.15,0.31-0.29,0.47-0.44
			c-0.13,0.12-0.26,0.23-0.39,0.35c-0.03,0.03-0.06,0.06-0.09,0.09c-0.06,0.06-0.12,0.12-0.18,0.18c-0.45,0.41-0.88,0.81-1.26,1.18
			c-0.02,0.02-0.05,0.05-0.07,0.07c-0.02,0.02-0.04,0.04-0.06,0.05l-0.88,0.9c0.07-0.07,0.13-0.14,0.2-0.2
			c-0.07,0.07-0.13,0.14-0.2,0.2c0,0,0,0,0,0c-0.18,0.21-0.38,0.42-0.57,0.65c-0.01,0.01-0.01,0.01-0.02,0.02
			c-0.03,0.03-0.06,0.07-0.08,0.1c-0.59,0.68-1.08,1.24-1.51,1.73c-0.56,0.66-1.12,1.34-1.64,2.01c-0.26,0.34-0.51,0.69-0.76,1.06
			c0.16-0.2,0.32-0.41,0.48-0.63c-0.86,1.17-1.64,2.39-2.82,4.21c-0.1,0.17-0.2,0.36-0.3,0.54c-2.74,5.03-3.58,8.02-4.08,9.81
			C31.45,129,102.9,202.65,156.76,175.16c0.5-0.3,0.99-0.59,1.42-0.85h0l0,0c0.1-0.07,0.2-0.13,0.3-0.2
			c4.19-2.82,5.13-3.67,8.54-6.82c0.12-0.12,0.24-0.23,0.35-0.35l0.09-0.09l0.09-0.09l0.47-0.48l0.22-0.25l0,0l0.24-0.27
			C147.68,187.61,106.06,181.18,75.53,151.38z"/>
		<path id="XMLID_12077_" d="M134.77,135.02c-0.04,0.04-0.08,0.08-0.12,0.11c-0.02,0.02-0.03,0.03-0.05,0.05
			c0.02-0.02,0.04-0.03,0.06-0.05l0,0c0,0,0.01-0.01,0.01-0.01c0,0,0,0,0,0c0.07-0.07,0.15-0.13,0.22-0.2c0,0,0,0,0.01-0.01
			c-0.01,0.01-0.02,0.02-0.03,0.03C134.83,134.96,134.8,134.99,134.77,135.02z"/>
		<path id="XMLID_12075_" d="M126.07,98.14c11.35,11.08,15.16,26.18,9.61,35.72c-0.01,0.01-0.02,0.03-0.02,0.04c0,0,0,0,0,0
			l-0.02,0.03c-0.14,0.22-0.23,0.35-0.31,0.47c0,0,0,0,0,0c0,0,0,0,0,0c-0.01,0.01-0.02,0.03-0.03,0.04l0,0
			c-0.09,0.11-0.18,0.22-0.32,0.38l-0.08,0.08c0,0,0,0,0,0c0.02-0.02,0.04-0.03,0.06-0.05c0.13-0.12,0.26-0.24,0.39-0.36
			c0.08-0.07,0.15-0.14,0.23-0.21c0.02-0.01,0.03-0.03,0.05-0.05c0.09-0.09,0.19-0.19,0.28-0.29c8.54-8.97,5.3-26.17-7.24-38.4
			c-12.4-12.1-29.26-14.82-37.89-6.19c-0.01,0.02-0.03,0.03-0.05,0.05c0-0.01,0.01-0.01,0.01-0.02c-0.08,0.08-0.15,0.15-0.23,0.23
			c-0.01,0.01-0.01,0.01-0.02,0.02c-0.04,0.05-0.09,0.09-0.13,0.14c0,0-0.01,0-0.01,0.01c-0.1,0.11-0.19,0.22-0.29,0.33c0,0,0,0,0,0
			l0,0c0,0,0,0,0,0c-0.01,0.01-0.02,0.02-0.03,0.04c0,0,0,0,0,0l0,0h0c0.03-0.03,0.05-0.05,0.08-0.08c0.11-0.1,0.19-0.17,0.26-0.24
			c0,0,0,0,0,0c0.03-0.02,0.05-0.05,0.08-0.07c0,0,0,0-0.01,0.01c0.02-0.02,0.04-0.03,0.06-0.05l0,0c0.12-0.1,0.25-0.18,0.45-0.32
			l0.16-0.1C100.37,83.92,114.98,87.32,126.07,98.14z"/>
		<path id="XMLID_12074_" d="M90.01,90.19c0-0.01,0.01-0.01,0.01-0.01l-0.19,0.22C89.89,90.33,89.95,90.26,90.01,90.19z"/>
		<polygon id="XMLID_12073_" points="90.03,90.18 90.03,90.18 90.03,90.18 		"/>
		<path id="XMLID_12072_" d="M92.39,74.78c0,0.01,0,0.01,0.01,0.02c0,0,0,0,0,0C92.39,74.8,92.39,74.79,92.39,74.78z"/>
		<path id="XMLID_12071_" d="M91,89.4c-0.01,0.01-0.03,0.01-0.04,0.02c-0.01,0.01-0.02,0.02-0.04,0.03
			C90.94,89.44,90.97,89.42,91,89.4z"/>
		<path id="XMLID_12068_" d="M171.85,90.08C171.85,90.08,171.85,90.08,171.85,90.08c-0.81-1.38-1.43-2.42-1.95-3.28
			c-0.06-0.1-0.12-0.2-0.18-0.3c0.1,0.16,0.21,0.32,0.31,0.48c-0.05-0.07-0.09-0.15-0.13-0.22l-0.41-0.66l0,0l-0.2-0.32
			c-0.64-1-1.07-1.68-1.51-2.33c-0.3-0.44-0.63-0.9-1.01-1.43c-0.17-0.23-0.35-0.48-0.56-0.75c0,0-0.01-0.01-0.01-0.01
			c-0.76-1.02-1.81-2.38-3.44-4.51c0.02,0.02,0.03,0.04,0.05,0.06c-0.02-0.02-0.03-0.04-0.05-0.06c0,0,0,0,0,0
			c-0.05-0.06-0.09-0.12-0.14-0.17c-1.17-1.43-2.14-2.55-2.77-3.26c-0.64-0.69-1.44-1.54-2.66-2.8c-0.49-0.51-1.05-1.08-1.69-1.74
			c0.98,0.97,1.94,1.96,2.87,2.96c0.15,0.16,0.3,0.31,0.44,0.46c-0.21-0.24-0.41-0.46-0.59-0.66c-0.67-0.72-1.34-1.42-2-2.08
			c-0.34-0.34-0.73-0.72-1.19-1.17c0,0,0,0-0.01-0.01l0,0c0,0,0,0,0,0c-0.15-0.14-0.32-0.3-0.48-0.44c-0.21-0.2-0.42-0.4-0.64-0.6
			c-1.24-1.17-2.49-2.3-3.76-3.39c-0.48-0.4-0.98-0.81-1.5-1.23c1.44,1.23,3.02,2.61,4.46,3.91c0.04,0.03,0.07,0.07,0.11,0.1
			c-1.94-1.74-4.13-3.64-5.9-5.13c-0.51-0.4-0.94-0.74-1.32-1.04c-0.64-0.49-1.38-1.03-2.15-1.59c-0.19-0.14-0.38-0.28-0.58-0.41
			c-1.09-0.75-2.58-1.73-5.09-3.38l-0.23-0.14c-0.97-0.56-2.15-1.27-3.26-1.9c-1.55-0.86-3.1-1.67-4.66-2.43
			c-22.79-11-46.68-10.09-60.54,4.46c0.38,0.05,0.76,0.11,1.15,0.19c0,0,0,0,0,0c-0.38-0.07-0.76-0.14-1.14-0.19
			c-11.1,11.66-13.32,29.5-7.75,47.78c4.03,13.24,12.15,26.71,23.94,38.23c0.01,0.01,0.01,0.01,0.02,0.02
			c28.09,27.41,66.38,33.33,85.52,13.22C185.62,139.14,185.04,113.52,171.85,90.08z M170.03,149.86
			c-18.07,18.99-54.22,13.4-80.75-12.48C62.76,111.5,55.9,75.13,73.97,56.14c-0.42-0.15-0.84-0.28-1.26-0.4c0,0,0,0,0,0
			c0.42,0.12,0.84,0.25,1.26,0.4c18.07-18.98,54.22-13.39,80.75,12.48C181.25,94.5,188.1,130.87,170.03,149.86z"/>
		<path id="XMLID_12067_" d="M166.07,81.09c-0.52-0.74-0.92-1.3-1.32-1.83c-0.29-0.38-0.6-0.78-0.93-1.19
			c-0.08-0.1-0.16-0.2-0.25-0.31c-0.21-0.27-0.45-0.56-0.71-0.88c0.83,1.03,1.76,2.22,2.72,3.52
			C165.74,80.62,165.91,80.85,166.07,81.09z"/>
		<path id="XMLID_12066_" d="M142.31,57.79c0.02,0.02,0.05,0.03,0.07,0.05c-0.06-0.05-0.12-0.09-0.18-0.13
			c-0.71-0.49-1.49-1.03-2.26-1.54c-0.14-0.09-0.28-0.18-0.43-0.27c0.77,0.5,1.63,1.08,2.51,1.68
			C142.11,57.65,142.21,57.72,142.31,57.79z"/>
		<path id="XMLID_12065_" d="M94.1,88.34c0.06-0.01,0.11-0.02,0.18-0.03l-0.29,0.05C94.03,88.35,94.06,88.34,94.1,88.34z"/>
		<path id="XMLID_12064_" d="M136.16,122.57L136.16,122.57c0.01,0.06,0.02,0.12,0.04,0.17c0,0,0,0,0,0L136.16,122.57z"/>
		<path id="XMLID_12063_" d="M136.12,122.38c0.01,0.05,0.02,0.09,0.04,0.14l0.01,0.05c0.12,0.5,0.22,0.97,0.3,1.39
			c0-0.01,0-0.01,0-0.02c0.02,0.09,0.03,0.17,0.05,0.25c0.01,0.04,0.01,0.08,0.02,0.11c0,0.02,0,0.03,0.01,0.04
			c0,0.01,0,0.02,0.01,0.03c0.04,0.24,0.07,0.44,0.1,0.64c0.02,0.16,0.05,0.32,0.06,0.49c0.01,0.05,0.01,0.11,0.02,0.16
			c0,0.01,0,0.03,0.01,0.04c0,0.01,0,0.02,0,0.03c0.01,0.05,0.01,0.1,0.02,0.15c0.02,0.18,0.04,0.34,0.05,0.5
			c0.02,0.18,0.03,0.36,0.04,0.58c0.01,0.15,0.02,0.29,0.02,0.43c0,0.07,0,0.14,0.01,0.2c0,0.18,0,0.36,0,0.56
			c0,0.35,0,0.62-0.01,0.86c0,0.03,0,0.05,0,0.08c0,0.05,0,0.09,0,0.15c0,0.03,0,0.06,0,0.09c-0.01,0.18-0.03,0.36-0.05,0.56
			c0,0.02,0,0.03,0,0.05c0,0.02,0,0.04,0,0.06c0,0.05-0.01,0.11-0.02,0.17c-0.01,0.11-0.03,0.23-0.05,0.35
			c0.01-0.07,0.02-0.14,0.03-0.21c-0.02,0.18-0.05,0.37-0.08,0.56c0.04-0.22,0.07-0.44,0.1-0.67c0.02-0.13,0.03-0.26,0.05-0.38l0,0
			c1.17-9.39-3.3-20.94-12.53-29.94c-8.95-8.73-20.08-12.83-29.16-11.69c-0.3,0.03-0.6,0.06-0.85,0.11c0,0,0,0,0,0
			c0.31-0.05,0.68-0.09,1.1-0.12c0.2-0.02,0.38-0.03,0.57-0.04c0.13,0,0.27-0.01,0.42-0.01c0.04,0,0.08,0,0.12,0
			c0.01,0,0.02,0,0.03,0c0.07,0,0.14,0,0.21,0c0.07,0,0.16,0,0.27,0c0.04,0,0.06,0,0.1,0c0.02,0,0.03,0,0.05,0
			c0.12,0,0.26,0.01,0.42,0.01c-0.02,0-0.04,0-0.06,0c0.36,0.01,0.65,0.03,0.95,0.05c-0.04,0-0.09,0-0.13-0.01
			c0.12,0.01,0.25,0.02,0.37,0.03c0.43,0.05,0.96,0.12,1.86,0.24c0.03,0,0.05,0.01,0.09,0.01l0.07,0.01
			c0.15,0.03,0.3,0.05,0.44,0.08c-0.05-0.01-0.11-0.02-0.16-0.03c0.24,0.04,0.55,0.1,0.89,0.18c0.13,0.03,0.27,0.06,0.41,0.09
			c0.03,0.01,0.07,0.01,0.1,0.02c0.03,0.01,0.06,0.01,0.08,0.02l0.01,0l0.01,0c0.02,0.01,0.05,0.01,0.07,0.02
			c0.34,0.08,0.7,0.17,1.07,0.28c1.22,0.33,2.46,0.74,3.69,1.21c5.54,2.12,11.07,5.62,15.99,10.42c6.35,6.19,10.6,13.49,12.53,20.6
			C135.95,121.71,136.04,122.05,136.12,122.38z"/>
		<path id="XMLID_12062_" d="M129.31,136.85c0.1-0.01,0.2-0.01,0.3-0.02c0.02,0,0.04-0.01,0.07-0.01c-0.16,0.01-0.31,0.03-0.47,0.03
			C129.24,136.85,129.28,136.85,129.31,136.85z"/>
		<path id="XMLID_12061_" d="M134.54,135.23c-0.01,0-0.01,0.01-0.02,0.01c0,0,0,0,0,0C134.52,135.24,134.53,135.23,134.54,135.23z"
			/>
		<path id="XMLID_12060_" d="M136.52,131.61c0,0.01-0.01,0.03-0.01,0.04c-0.01,0.04-0.02,0.08-0.03,0.12
			c0.02-0.06,0.03-0.13,0.05-0.19c0.02-0.07,0.03-0.14,0.05-0.21C136.56,131.46,136.54,131.54,136.52,131.61z"/>
		<path id="XMLID_12059_" d="M129.15,136.86c-0.15,0-0.29,0.01-0.44,0.01c0.15,0,0.3-0.01,0.43-0.01
			C129.14,136.86,129.14,136.86,129.15,136.86c0,0,0.01,0,0.01,0c0.02,0,0.03,0,0.05,0c-0.01,0-0.01,0-0.02,0
			C129.17,136.86,129.16,136.86,129.15,136.86z"/>
		<path id="XMLID_12058_" d="M136.66,130.98c0.01-0.03,0.01-0.07,0.02-0.1c0,0,0,0.01,0,0.01L136.66,130.98z"/>
	</g>
</g>
</svg>
