<?xml version="1.0" encoding="utf-8"?>
<!-- Generator: Adobe Illustrator 26.2.1, SVG Export Plug-In . SVG Version: 6.00 Build 0)  -->
<svg version="1.1" xmlns="http://www.w3.org/2000/svg" xmlns:xlink="http://www.w3.org/1999/xlink" x="0px" y="0px"
	 viewBox="0 0 225 225" style="enable-background:new 0 0 225 225;" xml:space="preserve">
<style type="text/css">
	.st0{display:none;}
	.st1{display:inline;fill:#FAB433;}
	.st2{fill:none;}
	.st3{fill:none;stroke:#000000;stroke-width:1.6;stroke-miterlimit:10;}
	.st4{fill:none;stroke:#000000;stroke-width:0.7265;stroke-miterlimit:10;}
	.st5{fill:none;stroke:#000000;stroke-linecap:round;stroke-linejoin:round;stroke-miterlimit:10;}
	.st6{fill:none;stroke:#000000;stroke-miterlimit:10;}
	.st7{fill:none;stroke:#000000;stroke-width:0.7105;stroke-miterlimit:10;}
	.st8{fill:none;stroke:#000000;stroke-width:5.4;stroke-linecap:round;stroke-linejoin:round;stroke-miterlimit:10;}
	.st9{fill:none;stroke:#000000;stroke-width:2.9309;stroke-linecap:round;stroke-linejoin:round;stroke-miterlimit:10;}
	.st10{fill:none;stroke:#000000;stroke-width:0.5;stroke-linecap:round;stroke-linejoin:round;}
	.st11{fill:none;stroke:#FFFFFF;stroke-width:0;stroke-linecap:round;stroke-linejoin:round;}
	.st12{fill:#FFFFFF;}
	.st13{fill:none;stroke:#000000;stroke-width:1.4;stroke-miterlimit:10;}
	.st14{fill:url(#);stroke:#000000;stroke-width:1.4387;stroke-miterlimit:10;}
	.st15{fill:url(#);stroke:#000000;stroke-width:1.3718;stroke-miterlimit:10;}
	.st16{fill:none;stroke:#000000;stroke-width:1.0041;stroke-miterlimit:10;}
	.st17{fill:none;stroke:#000000;stroke-width:1.3621;stroke-miterlimit:10;}
	.st18{fill:none;stroke:#000000;stroke-width:0.25;stroke-miterlimit:10;}
</style>
<g id="Layer_2" class="st0">
	<rect id="XMLID_2028_" x="-835.99" y="-30.01" class="st1" width="1160" height="772"/>
</g>
<g id="Layer_1">
	<g id="XMLID_11436_">
		<path id="XMLID_11535_" class="st5" d="M170.96,145.41c-0.38-0.22-0.8-0.47-1.33-0.77c2.38-2.97,4.35-5.94,5.93-8.86
			C174.27,139.13,172.74,142.35,170.96,145.41z"/>
		<path id="XMLID_11534_" class="st5" d="M177.67,129.28c-0.02-0.1-0.05-0.2-0.09-0.3c-0.03-0.1-0.07-0.2-0.1-0.3
			c-0.05-0.16-0.12-0.33-0.19-0.5c-0.12-0.29-0.26-0.59-0.42-0.9c-0.03-0.07-0.07-0.15-0.11-0.22c-0.07-0.13-0.14-0.27-0.21-0.4
			c-0.11-0.21-0.24-0.43-0.37-0.65c-0.42-0.71-0.93-1.45-1.5-2.22c2.6-3.8,4.39-7.4,5.32-10.65
			C179.86,118.71,179.07,124.12,177.67,129.28z"/>
		<path id="XMLID_11533_" class="st5" d="M169.63,144.64c2.42-6.22,4.14-13.28,5.04-20.85c0.57,0.77,1.07,1.51,1.5,2.22
			c0.13,0.22,0.25,0.43,0.37,0.65c0.07,0.13,0.14,0.27,0.21,0.4c0.04,0.07,0.08,0.15,0.11,0.22c0.16,0.31,0.3,0.61,0.42,0.9
			c0.07,0.17,0.13,0.33,0.19,0.5c0.04,0.1,0.07,0.2,0.1,0.3c0.03,0.1,0.06,0.2,0.09,0.3c-0.59,2.22-1.3,4.39-2.12,6.5
			C173.98,138.7,172,141.68,169.63,144.64z"/>
		<path id="XMLID_11532_" class="st5" d="M170.96,145.41c-1.74,3.01-3.71,5.88-5.88,8.57c0.01-0.01,0.01-0.02,0.02-0.03
			c0.2-0.34,0.4-0.68,0.6-1.02c0.19-0.32,0.37-0.65,0.55-0.98c0.42-0.77,0.83-1.56,1.22-2.38c0.19-0.39,0.38-0.78,0.56-1.19
			c0.17-0.36,0.33-0.71,0.49-1.08c0.2-0.45,0.4-0.91,0.59-1.38c0.17-0.42,0.34-0.84,0.51-1.28
			C170.16,144.94,170.58,145.19,170.96,145.41z"/>
		<path id="XMLID_11531_" class="st5" d="M175.98,88.64c-1.62-3.13-3.71-6.34-6.26-9.54c0.59-0.35,1.04-0.63,1.45-0.87
			C173.05,81.54,174.66,85.02,175.98,88.64z"/>
		<path id="XMLID_11530_" class="st5" d="M177.76,94.35c1.38,5.21,2.15,10.67,2.22,16.29c-0.27-0.95-0.61-1.94-1.03-2.94
			c-0.1-0.24-0.2-0.48-0.31-0.72c-0.33-0.74-0.69-1.48-1.09-2.25c-0.13-0.25-0.27-0.51-0.41-0.77c-0.14-0.25-0.29-0.51-0.44-0.77
			c-0.2-0.35-0.41-0.7-0.63-1.05c-0.14-0.23-0.29-0.46-0.44-0.7c-0.3-0.47-0.61-0.94-0.93-1.41c0.3-0.4,0.57-0.8,0.83-1.18
			c0.09-0.13,0.17-0.26,0.25-0.39c0.17-0.25,0.32-0.5,0.46-0.75c0.07-0.12,0.14-0.24,0.21-0.36c0.07-0.12,0.14-0.24,0.2-0.36
			c0.13-0.24,0.25-0.47,0.36-0.7c0.02-0.04,0.04-0.08,0.05-0.11c0.06-0.13,0.11-0.25,0.17-0.38c0.07-0.14,0.12-0.28,0.17-0.42
			c0.05-0.14,0.11-0.28,0.15-0.42c0.04-0.11,0.07-0.22,0.11-0.32C177.7,94.55,177.73,94.45,177.76,94.35z"/>
		<path id="XMLID_11529_" class="st5" d="M169.72,79.11c-0.22-0.58-0.45-1.16-0.69-1.72c-0.16-0.39-0.33-0.78-0.49-1.16
			c-0.18-0.41-0.36-0.82-0.55-1.22c-0.16-0.35-0.33-0.69-0.49-1.02c-0.12-0.25-0.25-0.51-0.38-0.76c-0.84-1.66-1.72-3.21-2.65-4.67
			c2.5,3.01,4.75,6.25,6.7,9.68C170.76,78.47,170.31,78.76,169.72,79.11z"/>
		<path id="XMLID_11528_" class="st5" d="M174.7,100.03c-0.88-7.59-2.59-14.67-4.99-20.92c2.55,3.2,4.64,6.41,6.26,9.54
			c0,0.01,0.01,0.01,0.01,0.02c0.68,1.86,1.27,3.75,1.78,5.68v0.01c-0.03,0.1-0.06,0.2-0.09,0.31c-0.04,0.1-0.07,0.21-0.11,0.32
			c-0.04,0.14-0.1,0.27-0.15,0.42c-0.05,0.14-0.11,0.28-0.17,0.42c-0.05,0.13-0.11,0.25-0.17,0.38c-0.02,0.04-0.04,0.07-0.05,0.11
			c-0.11,0.23-0.23,0.46-0.36,0.7c-0.07,0.12-0.13,0.24-0.2,0.36c-0.07,0.12-0.14,0.24-0.21,0.36c-0.14,0.25-0.3,0.49-0.46,0.75
			c-0.08,0.13-0.17,0.25-0.25,0.39C175.27,99.24,175,99.63,174.7,100.03z"/>
		<path id="XMLID_11527_" class="st5" d="M174.66,123.79c0.93-7.85,0.95-15.9,0.04-23.76c0.33,0.47,0.64,0.94,0.93,1.41
			c0.15,0.24,0.3,0.46,0.44,0.7c0.22,0.35,0.43,0.7,0.63,1.05c0.15,0.26,0.3,0.52,0.44,0.77c0.14,0.26,0.28,0.51,0.41,0.77
			c0.4,0.77,0.77,1.51,1.09,2.25c0.11,0.24,0.21,0.48,0.31,0.72c0.42,1.01,0.76,1.99,1.03,2.94v0.01c0.01,0.33,0.01,0.66,0.01,0.99
			c0,0.5-0.01,0.99-0.02,1.5v0.01C179.05,116.39,177.27,119.99,174.66,123.79z"/>
		<path id="XMLID_11526_" class="st5" d="M154.21,64.27c-0.14-0.3-0.28-0.59-0.42-0.88c-0.14-0.29-0.29-0.57-0.43-0.86
			c-0.8-1.55-1.64-2.98-2.5-4.27c-0.14-0.21-0.28-0.42-0.43-0.63c-1.04-1.5-2.13-2.8-3.24-3.91c4.97,2.98,9.52,6.58,13.55,10.69
			c-0.22-0.07-0.46-0.12-0.72-0.16c-0.11-0.02-0.24-0.04-0.36-0.06c-0.01-0.01-0.03-0.01-0.04-0.01c-0.04-0.01-0.08-0.01-0.13-0.02
			c-0.22-0.03-0.44-0.05-0.67-0.07c-0.17-0.01-0.35-0.02-0.53-0.04c-0.08-0.01-0.17-0.01-0.27-0.01
			C156.89,64.02,155.62,64.1,154.21,64.27z"/>
		<path id="XMLID_11525_" class="st5" d="M154.21,64.27c6.1,4.59,11.34,9.63,15.5,14.84c-2.09,1.24-5.11,3.02-9.2,5.41
			C158.98,76.69,156.84,69.86,154.21,64.27z"/>
		<path id="XMLID_11524_" class="st5" d="M160.52,84.52c5.95,5.23,10.73,10.48,14.18,15.51c-2.61,3.53-6.52,7.5-11.66,11.92
			C163.05,102.37,162.19,93.08,160.52,84.52z"/>
		<path id="XMLID_11523_" class="st5" d="M174.7,100.03c-3.45-5.03-8.23-10.28-14.18-15.51c4.09-2.39,7.11-4.16,9.2-5.41
			C172.12,85.36,173.82,92.44,174.7,100.03z"/>
		<path id="XMLID_11522_" class="st5" d="M169.72,79.11c-4.16-5.2-9.4-10.24-15.51-14.84c1.4-0.17,2.68-0.25,3.81-0.21
			c0.09,0,0.18,0,0.27,0.01c0.18,0.01,0.36,0.02,0.53,0.04c0.23,0.02,0.45,0.04,0.67,0.07c0.04,0.01,0.08,0.01,0.13,0.02
			c0.01,0,0.03,0,0.04,0.01c0.13,0.02,0.25,0.04,0.36,0.06c0.25,0.05,0.49,0.1,0.72,0.16c1.3,1.31,2.53,2.69,3.71,4.11
			c0.01,0.01,0.01,0.01,0.01,0.02c0.01,0.01,0.01,0.01,0.01,0.01c0.93,1.45,1.81,3.01,2.65,4.67c0.13,0.25,0.25,0.5,0.38,0.76
			c0.16,0.34,0.33,0.68,0.49,1.02c0.19,0.4,0.37,0.81,0.55,1.22c0.17,0.38,0.34,0.77,0.49,1.16
			C169.26,77.95,169.49,78.52,169.72,79.11z"/>
		<path id="XMLID_11521_" class="st5" d="M160.45,139.32c4.07,2.36,7.09,4.11,9.17,5.32c-4.16,5.2-9.41,10.23-15.51,14.8
			C156.76,153.9,158.91,147.11,160.45,139.32z"/>
		<path id="XMLID_11520_" class="st5" d="M147.72,169.23c0.18-0.19,0.36-0.39,0.53-0.58c0.18-0.2,0.36-0.4,0.53-0.61
			c0.35-0.42,0.7-0.86,1.04-1.33c0.14-0.19,0.28-0.37,0.41-0.57c0.69-0.96,1.35-2,2-3.11c0.1-0.16,0.19-0.33,0.28-0.49
			c0.07-0.11,0.13-0.24,0.19-0.35c0.11-0.21,0.23-0.41,0.34-0.62c0.11-0.21,0.22-0.42,0.33-0.63c0.13-0.24,0.25-0.49,0.37-0.74
			c0.13-0.25,0.25-0.5,0.37-0.75c0.57,0.07,1.11,0.11,1.63,0.15c0.76,0.05,1.48,0.07,2.13,0.04c0.12-0.01,0.24-0.01,0.36-0.02
			c0.16-0.01,0.32-0.02,0.48-0.04c0.16-0.01,0.31-0.03,0.45-0.05c0.02,0,0.04-0.01,0.06-0.01c0.08-0.01,0.17-0.02,0.26-0.04
			c0.09-0.01,0.17-0.02,0.25-0.04c0.09-0.01,0.18-0.03,0.27-0.05c0.08-0.02,0.17-0.04,0.25-0.05
			C156.5,163.11,152.29,166.44,147.72,169.23z"/>
		<path id="XMLID_11519_" class="st5" d="M163.04,111.95c5.13,4.39,9.03,8.34,11.63,11.84c-3.46,5.05-8.25,10.3-14.21,15.53
			C162.15,130.78,163.03,121.51,163.04,111.95z"/>
		<path id="XMLID_11518_" class="st5" d="M155.75,159.59c-0.52-0.04-1.06-0.08-1.63-0.15c6.1-4.58,11.34-9.6,15.5-14.8
			c-0.17,0.43-0.34,0.86-0.51,1.28c-0.19,0.47-0.39,0.93-0.59,1.38c-0.16,0.37-0.32,0.72-0.49,1.08c-0.18,0.4-0.37,0.8-0.56,1.19
			c-0.4,0.81-0.8,1.61-1.22,2.38c-0.19,0.33-0.37,0.66-0.55,0.98c-0.2,0.35-0.4,0.69-0.6,1.02c-0.01,0.01-0.01,0.02-0.02,0.03
			c0,0.01-0.01,0.01-0.01,0.02c-1.51,1.87-3.1,3.65-4.8,5.35c-0.08,0.02-0.17,0.04-0.25,0.05c-0.09,0.02-0.17,0.04-0.27,0.05
			c-0.08,0.01-0.16,0.03-0.25,0.04c-0.08,0.01-0.17,0.02-0.26,0.04c-0.02,0-0.04,0.01-0.06,0.01c-0.14,0.02-0.3,0.04-0.45,0.05
			s-0.31,0.02-0.48,0.04c-0.11,0.01-0.24,0.01-0.36,0.02C157.22,159.66,156.51,159.64,155.75,159.59z"/>
		<path id="XMLID_11517_" class="st5" d="M169.63,144.64c-2.08-1.21-5.1-2.96-9.17-5.32c5.96-5.23,10.75-10.49,14.21-15.53
			C173.76,131.36,172.04,138.42,169.63,144.64z"/>
		<path id="XMLID_11516_" class="st5" d="M174.67,123.79c-2.6-3.5-6.5-7.45-11.63-11.84c5.14-4.41,9.05-8.39,11.66-11.92
			C175.61,107.89,175.6,115.94,174.67,123.79z"/>
		<path id="XMLID_11515_" class="st5" d="M138.59,171.54c-0.68,0.02-1.37,0.02-2.08,0c-0.95-0.02-1.94-0.06-2.95-0.14
			c7.26-3.16,14.23-7.21,20.56-11.95c-0.12,0.25-0.24,0.51-0.37,0.75c-0.12,0.25-0.25,0.49-0.37,0.74
			c-0.11,0.21-0.22,0.42-0.33,0.63c-0.11,0.21-0.22,0.42-0.34,0.62c-0.07,0.12-0.13,0.24-0.19,0.35c-0.09,0.16-0.19,0.33-0.28,0.49
			c-0.65,1.12-1.31,2.15-2,3.11c-0.13,0.19-0.27,0.38-0.41,0.57c-0.34,0.46-0.69,0.9-1.04,1.33c-0.17,0.21-0.35,0.42-0.53,0.61
			c-0.17,0.21-0.36,0.4-0.53,0.58c-0.84,0.52-1.69,1.02-2.56,1.5c-0.01,0-0.01,0.01-0.01,0.01h-0.01c-0.01,0.01-0.01,0.01-0.02,0.01
			c-0.25,0.06-0.51,0.11-0.77,0.17c-0.1,0.02-0.19,0.04-0.29,0.06c-0.22,0.04-0.44,0.08-0.67,0.12c-0.28,0.05-0.57,0.1-0.86,0.14
			c-0.05,0-0.09,0.01-0.14,0.02c-0.26,0.03-0.52,0.07-0.8,0.1c-0.4,0.04-0.8,0.08-1.21,0.11c-0.28,0.02-0.56,0.04-0.85,0.05
			C139.24,171.52,138.92,171.53,138.59,171.54z"/>
		<path id="XMLID_11514_" class="st5" d="M154.12,159.44c-4.33-0.51-9.69-1.92-16.06-4.18c8.28-4.81,15.86-10.21,22.39-15.95
			C158.91,147.11,156.76,153.91,154.12,159.44z"/>
		<path id="XMLID_11513_" class="st5" d="M160.45,139.32c-5.24-3.03-11.69-6.77-19.32-11.18c8.44-5.52,15.83-10.98,21.91-16.2
			C163.03,121.51,162.15,130.78,160.45,139.32z"/>
		<path id="XMLID_11512_" class="st5" d="M141.13,128.15c7.63,4.41,14.08,8.14,19.32,11.18c-6.54,5.74-14.12,11.14-22.39,15.95
			C139.54,147.37,140.58,138.23,141.13,128.15z"/>
		<path id="XMLID_11511_" class="st5" d="M138.06,155.27c6.36,2.25,11.73,3.66,16.06,4.18c-6.32,4.74-13.3,8.79-20.56,11.95
			C135.32,167.35,136.81,161.95,138.06,155.27z"/>
		<path id="XMLID_11510_" class="st5" d="M130.31,176.76c0.1-0.1,0.19-0.2,0.28-0.32c0.1-0.11,0.19-0.22,0.29-0.34
			c0.08-0.1,0.16-0.2,0.24-0.31c0.01-0.02,0.02-0.03,0.04-0.05c0.14-0.19,0.28-0.39,0.42-0.6c0.07-0.1,0.14-0.21,0.21-0.31
			c0.2-0.33,0.42-0.68,0.62-1.05c0.06-0.11,0.13-0.24,0.19-0.35c0.12-0.22,0.24-0.46,0.36-0.7c0.2-0.43,0.41-0.87,0.61-1.34
			c1.01,0.08,2,0.13,2.95,0.14c0.71,0.02,1.4,0.02,2.08,0c0.33-0.01,0.64-0.02,0.96-0.04c0.29-0.01,0.57-0.03,0.85-0.05
			c0.41-0.03,0.81-0.07,1.21-0.11c0.27-0.03,0.54-0.07,0.8-0.1c0.05-0.01,0.09-0.02,0.14-0.02c0.3-0.04,0.58-0.09,0.86-0.14
			c0.23-0.04,0.45-0.08,0.67-0.12c0.1-0.02,0.19-0.04,0.29-0.06c0.26-0.05,0.52-0.11,0.77-0.17
			C140.5,173.31,135.53,175.35,130.31,176.76z"/>
		<path id="XMLID_11509_" class="st5" d="M160.52,84.52c-6.53-5.74-14.12-11.16-22.4-15.98c6.38-2.28,11.76-3.72,16.1-4.26
			C156.84,69.86,158.98,76.69,160.52,84.52z"/>
		<path id="XMLID_11508_" class="st5" d="M154.21,64.27c-6.33-4.76-13.31-8.83-20.59-12.01c0.86-0.07,1.69-0.12,2.51-0.14
			c0.19-0.01,0.38-0.01,0.57-0.02c0.28-0.01,0.56-0.01,0.83-0.01c0.31,0,0.62,0.01,0.93,0.01c0.24,0,0.48,0.01,0.72,0.02
			c0.04,0,0.08,0,0.11,0.01c0.31,0.01,0.62,0.03,0.92,0.05c0.3,0.02,0.6,0.04,0.9,0.07c0.33,0.03,0.66,0.06,0.98,0.1
			c0.05,0.01,0.11,0.01,0.16,0.02c0.3,0.04,0.6,0.08,0.89,0.13c0.05,0.01,0.1,0.01,0.14,0.02c0.28,0.04,0.56,0.09,0.83,0.14
			c0.07,0.01,0.15,0.02,0.22,0.04c0.22,0.04,0.45,0.08,0.66,0.14c0.04,0.01,0.08,0.01,0.12,0.02c0.05,0.01,0.1,0.02,0.14,0.03
			c0.3,0.07,0.58,0.14,0.86,0.22c0.01,0,0.01,0.01,0.01,0.01h0.01c0.19,0.05,0.88,0.46,1.04,0.61h0.01c1.11,1.1,2.19,2.41,3.24,3.91
			c0.14,0.2,0.29,0.42,0.43,0.63c0.86,1.3,1.7,2.72,2.5,4.27c0.14,0.28,0.29,0.57,0.43,0.86C153.93,63.68,154.07,63.98,154.21,64.27
			z"/>
		<path id="XMLID_11507_" class="st5" d="M163.04,111.95c-6.07-5.2-13.45-10.64-21.89-16.17c7.64-4.43,14.11-8.2,19.36-11.26
			C162.19,93.08,163.05,102.37,163.04,111.95z"/>
		<path id="XMLID_11506_" class="st5" d="M146.13,53.11c-0.28-0.08-0.57-0.16-0.86-0.22c-0.04-0.01-0.09-0.02-0.14-0.03
			c-0.04-0.01-0.08-0.02-0.12-0.02c-0.21-0.05-0.43-0.1-0.66-0.14c-0.07-0.02-0.15-0.04-0.22-0.04c-0.27-0.05-0.55-0.1-0.83-0.14
			c-0.05-0.01-0.1-0.02-0.14-0.02c-0.29-0.05-0.58-0.08-0.89-0.13c-0.05-0.01-0.11-0.01-0.16-0.02c-0.32-0.04-0.64-0.07-0.98-0.1
			c-0.3-0.02-0.6-0.05-0.9-0.07c-0.3-0.02-0.61-0.04-0.92-0.05c-0.04-0.01-0.07-0.01-0.11-0.01c-0.24-0.01-0.48-0.02-0.72-0.02
			c-0.31-0.01-0.61-0.01-0.93-0.01c-0.27,0-0.55,0.01-0.83,0.01c-0.19,0.01-0.38,0.01-0.57,0.02c-0.82,0.02-1.66,0.08-2.51,0.14
			c-0.08-0.2-0.17-0.39-0.26-0.58c-0.17-0.38-0.34-0.74-0.52-1.09c-0.08-0.17-0.17-0.34-0.27-0.51c-0.27-0.52-0.55-1-0.83-1.44
			c-0.1-0.15-0.19-0.3-0.29-0.43c-0.04-0.07-0.09-0.14-0.14-0.21c-0.05-0.07-0.1-0.13-0.14-0.2c-0.1-0.13-0.19-0.26-0.29-0.38
			c-0.1-0.13-0.2-0.24-0.3-0.36c-0.1-0.11-0.2-0.22-0.3-0.33c-0.04-0.05-0.1-0.1-0.15-0.15c-0.05-0.05-0.1-0.1-0.14-0.14l-0.01-0.01
			C135.7,47.96,141.12,50.22,146.13,53.11z"/>
		<path id="XMLID_11505_" class="st5" d="M133.62,52.26c7.28,3.18,14.26,7.25,20.59,12.01c-4.34,0.54-9.72,1.98-16.1,4.26
			C136.87,61.8,135.38,56.36,133.62,52.26z"/>
		<path id="XMLID_11504_" class="st5" d="M138.12,68.53c8.28,4.82,15.87,10.24,22.4,15.98c-5.25,3.07-11.72,6.83-19.36,11.26
			C140.61,85.66,139.59,76.48,138.12,68.53z"/>
		<path id="XMLID_11503_" class="st5" d="M141.16,95.78c8.44,5.52,15.81,10.97,21.89,16.17c-6.08,5.22-13.46,10.67-21.91,16.2
			C141.72,117.45,141.73,106.5,141.16,95.78z"/>
		<path id="XMLID_11502_" class="st5" d="M112.92,46.01c-0.01-0.67-0.03-1.33-0.04-1.86c4.27,0.02,8.45,0.44,12.5,1.22
			c-0.04,0-0.08-0.01-0.13-0.01c-0.22-0.02-0.44-0.03-0.66-0.04c-0.19-0.01-0.39-0.02-0.58-0.02c-0.23-0.01-0.46-0.02-0.69-0.02
			c-1.45-0.03-2.96,0-4.5,0.09c-0.76,0.05-1.53,0.11-2.31,0.19C115.33,45.67,114.13,45.83,112.92,46.01z"/>
		<path id="XMLID_11501_" class="st5" d="M112.92,46.01c6.64,1.08,13.66,3.18,20.7,6.25c-6.1,0.5-13.06,2.05-20.6,4.62
			C112.99,52.07,112.96,48.5,112.92,46.01z"/>
		<path id="XMLID_11500_" class="st5" d="M113.03,56.88c8.29,2.88,16.79,6.82,25.09,11.65c-7.56,2.7-15.98,6.4-25,10.98
			C113.09,70.61,113.06,63.04,113.03,56.88z"/>
		<path id="XMLID_11499_" class="st5" d="M113.12,79.52c9.59,4.9,19.07,10.4,28.04,16.26c-8.67,5.03-18.12,10.5-28,16.2
			C113.15,100.56,113.14,89.6,113.12,79.52z"/>
		<path id="XMLID_11498_" class="st5" d="M141.16,95.78c-8.97-5.87-18.45-11.37-28.04-16.26c9.02-4.58,17.44-8.28,25-10.98
			C139.59,76.48,140.61,85.66,141.16,95.78z"/>
		<path id="XMLID_11497_" class="st5" d="M138.12,68.53c-8.3-4.83-16.8-8.77-25.09-11.65c7.54-2.57,14.49-4.12,20.6-4.62
			C135.38,56.36,136.87,61.8,138.12,68.53z"/>
		<path id="XMLID_11496_" class="st5" d="M133.62,52.26c-7.04-3.07-14.05-5.17-20.7-6.25c1.21-0.19,2.41-0.34,3.58-0.45
			c0.78-0.08,1.56-0.14,2.31-0.19c1.54-0.09,3.05-0.12,4.5-0.09c0.23,0.01,0.46,0.01,0.69,0.02c0.19,0.01,0.39,0.02,0.58,0.02
			c0.22,0.01,0.45,0.02,0.66,0.04c0.04,0,0.08,0.01,0.13,0.01c0.01,0,0.01,0,0.01,0c0.01,0,0.01,0,0.02,0.01
			c1.54,0.3,3.07,0.65,4.58,1.05l0.01,0.01c0.05,0.05,0.1,0.1,0.14,0.14c0.05,0.05,0.11,0.1,0.15,0.15c0.1,0.1,0.2,0.21,0.3,0.33
			c0.1,0.11,0.2,0.23,0.3,0.36c0.1,0.12,0.19,0.25,0.29,0.38c0.05,0.07,0.1,0.13,0.14,0.2c0.05,0.07,0.1,0.14,0.14,0.21
			c0.1,0.14,0.19,0.28,0.29,0.43c0.28,0.44,0.56,0.92,0.83,1.44c0.09,0.16,0.17,0.34,0.27,0.51c0.17,0.35,0.34,0.71,0.52,1.09
			C133.45,51.87,133.53,52.06,133.62,52.26z"/>
		<path id="XMLID_11495_" class="st5" d="M113.12,144.37c9.01,4.56,17.41,8.23,24.95,10.9c-8.29,4.81-16.77,8.73-25.04,11.58
			C113.06,160.74,113.09,153.23,113.12,144.37z"/>
		<path id="XMLID_11494_" class="st5" d="M113.02,166.85c7.52,2.55,14.45,4.07,20.54,4.55c-7.02,3.05-14.02,5.13-20.64,6.19
			C112.96,175.13,112.99,171.61,113.02,166.85z"/>
		<path id="XMLID_11493_" class="st5" d="M123.25,178.28c-3.37,0.55-6.84,0.84-10.36,0.86c0-0.13,0.01-0.26,0.01-0.39
			c0.01-0.19,0.01-0.38,0.01-0.58c0.01-0.2,0.01-0.39,0.01-0.58c3.41,0.52,6.66,0.75,9.71,0.71
			C122.84,178.29,123.05,178.29,123.25,178.28z"/>
		<path id="XMLID_11491_" class="st5" d="M113.15,111.98c9.87,5.7,19.32,11.16,27.98,16.16c-8.96,5.86-18.44,11.35-28.02,16.23
			C113.14,134.33,113.15,123.39,113.15,111.98z"/>
		<path id="XMLID_11490_" class="st5" d="M122.63,178.29c-3.04,0.04-6.29-0.19-9.71-0.71c6.62-1.05,13.62-3.14,20.64-6.19
			c-0.21,0.46-0.41,0.91-0.61,1.34c-0.12,0.24-0.24,0.48-0.36,0.7c-0.06,0.11-0.13,0.24-0.19,0.35c-0.2,0.37-0.42,0.72-0.62,1.05
			c-0.07,0.11-0.14,0.21-0.21,0.31c-0.14,0.21-0.28,0.41-0.42,0.6c-0.01,0.02-0.02,0.03-0.04,0.05c-0.08,0.11-0.16,0.21-0.24,0.31
			c-0.1,0.12-0.19,0.24-0.29,0.34c-0.09,0.11-0.19,0.22-0.28,0.32c-2.3,0.63-4.62,1.14-7.01,1.52h-0.01c0,0-0.01,0.01-0.01,0
			c-0.01,0-0.01,0-0.01,0s-0.01,0-0.01,0C123.05,178.29,122.84,178.29,122.63,178.29z"/>
		<path id="XMLID_11489_" class="st5" d="M133.56,171.39c-6.09-0.48-13.02-2-20.54-4.55c8.27-2.85,16.75-6.77,25.04-11.58
			C136.81,161.95,135.32,167.35,133.56,171.39z"/>
		<path id="XMLID_11488_" class="st5" d="M138.06,155.27c-7.54-2.67-15.94-6.34-24.95-10.9c9.57-4.87,19.05-10.36,28.02-16.23
			C140.58,138.23,139.54,147.37,138.06,155.27z"/>
		<path id="XMLID_11487_" class="st5" d="M141.13,128.15c-8.66-5.01-18.1-10.46-27.98-16.16c9.88-5.7,19.33-11.17,28-16.2
			C141.73,106.5,141.72,117.45,141.13,128.15z"/>
		<path id="XMLID_11486_" class="st5" d="M112.89,179.14c-0.13,0.01-0.26,0.01-0.39,0.01c-3.47,0-6.87-0.26-10.19-0.77
			c3.31,0.06,6.87-0.2,10.61-0.8c0,0.19-0.01,0.39-0.01,0.58c0,0.19-0.01,0.39-0.01,0.58C112.9,178.88,112.89,179.01,112.89,179.14z
			"/>
		<path id="XMLID_11485_" class="st5" d="M112.92,177.58c-6.6-1-13.59-3.02-20.63-6.02c6.17-0.53,13.17-2.11,20.73-4.71
			C112.99,171.61,112.96,175.13,112.92,177.58z"/>
		<path id="XMLID_11484_" class="st5" d="M113.02,166.85c-8.25-2.79-16.74-6.66-25.07-11.43c7.64-2.72,16.11-6.44,25.16-11.05
			C113.09,153.23,113.06,160.74,113.02,166.85z"/>
		<path id="XMLID_11483_" class="st5" d="M113.12,144.37c-9.57-4.84-19.08-10.31-28.12-16.16c8.76-5.04,18.27-10.51,28.16-16.23
			C113.15,123.39,113.14,134.33,113.12,144.37z"/>
		<path id="XMLID_11481_" class="st5" d="M84.99,128.21c9.04,5.85,18.56,11.32,28.12,16.16c-9.05,4.6-17.52,8.33-25.16,11.05
			C86.53,147.5,85.53,138.33,84.99,128.21z"/>
		<path id="XMLID_11480_" class="st5" d="M87.95,155.42c8.33,4.77,16.82,8.64,25.07,11.43c-7.56,2.61-14.56,4.19-20.73,4.71
			C90.6,167.51,89.16,162.11,87.95,155.42z"/>
		<path id="XMLID_11479_" class="st5" d="M102.31,178.38c-0.01-0.01-0.02-0.01-0.02-0.01c-2.31-0.34-4.58-0.81-6.8-1.39
			c-0.01,0-0.01,0-0.01,0c-0.05-0.06-0.11-0.12-0.17-0.19c-0.05-0.07-0.11-0.13-0.17-0.2c-1-1.19-1.95-2.9-2.85-5.03
			c7.04,3,14.03,5.02,20.63,6.02C109.18,178.18,105.62,178.44,102.31,178.38z"/>
		<path id="XMLID_11478_" class="st5" d="M113.12,79.52c-9.06-4.63-17.56-8.38-25.21-11.13c8.34-4.79,16.85-8.68,25.12-11.5
			C113.06,63.04,113.09,70.61,113.12,79.52z"/>
		<path id="XMLID_11477_" class="st5" d="M113.03,56.88c-7.58-2.63-14.6-4.24-20.79-4.79c7.06-3.02,14.07-5.06,20.69-6.08
			C112.96,48.5,112.99,52.07,113.03,56.88z"/>
		<path id="XMLID_11476_" class="st5" d="M100.18,45.28c0.01,0,0.02,0,0.02-0.01c3.98-0.74,8.1-1.13,12.3-1.13
			c0.13,0,0.25,0,0.38,0.01c0.01,0.54,0.03,1.19,0.04,1.86c-3.44-0.55-6.72-0.83-9.8-0.83c-0.5,0-0.99,0.01-1.48,0.02
			C101.15,45.22,100.66,45.25,100.18,45.28z"/>
		<path id="XMLID_11475_" class="st5" d="M113.15,111.98c-9.9-5.72-19.41-11.21-28.18-16.26c9.04-5.86,18.57-11.34,28.15-16.2
			C113.14,89.6,113.15,100.56,113.15,111.98z"/>
		<path id="XMLID_11474_" class="st5" d="M92.24,52.09c0.21-0.5,0.42-0.98,0.63-1.42c0.1-0.2,0.19-0.41,0.3-0.61
			c0.2-0.39,0.4-0.77,0.6-1.12c0.1-0.17,0.2-0.35,0.31-0.51c0.08-0.14,0.17-0.28,0.27-0.42c0.03-0.05,0.06-0.09,0.09-0.14
			c0.09-0.13,0.17-0.25,0.27-0.37c0.1-0.14,0.2-0.28,0.31-0.41c0.11-0.13,0.21-0.26,0.32-0.38c0.15-0.17,0.31-0.34,0.46-0.49
			c1.43-0.37,2.89-0.69,4.36-0.95h0.01c0.01,0,0.01,0,0.01,0h0.02c0.01,0,0.02,0,0.02-0.01c0.21-0.01,0.42-0.02,0.62-0.03
			c0.27-0.01,0.55-0.02,0.83-0.03c0.48-0.02,0.98-0.02,1.48-0.02c3.08,0,6.36,0.27,9.8,0.83C106.3,47.03,99.29,49.07,92.24,52.09z"
			/>
		<path id="XMLID_11473_" class="st5" d="M92.24,52.1c6.19,0.55,13.21,2.16,20.79,4.79c-8.27,2.82-16.78,6.71-25.12,11.5
			C89.11,61.64,90.54,56.19,92.24,52.1z"/>
		<path id="XMLID_11472_" class="st5" d="M87.9,68.39c7.65,2.75,16.15,6.5,25.21,11.13c-9.58,4.86-19.1,10.34-28.15,16.2
			C85.49,85.56,86.48,76.36,87.9,68.39z"/>
		<path id="XMLID_11471_" class="st5" d="M84.97,95.72c8.77,5.06,18.29,10.55,28.18,16.26c-9.89,5.71-19.4,11.19-28.16,16.23
			C84.42,117.47,84.41,106.48,84.97,95.72z"/>
		<path id="XMLID_11470_" class="st5" d="M71.47,64.01c0.11-0.25,0.23-0.49,0.35-0.74c0.11-0.24,0.24-0.48,0.36-0.72
			c0.09-0.17,0.17-0.36,0.27-0.52c0.01-0.01,0.01-0.02,0.02-0.04c0.24-0.47,0.49-0.92,0.73-1.36c0.16-0.28,0.31-0.56,0.48-0.83
			c0.19-0.31,0.37-0.62,0.56-0.93c0.37-0.6,0.75-1.18,1.14-1.73c0.19-0.27,0.39-0.54,0.58-0.8c0.87-1.18,1.78-2.21,2.7-3.1
			c0.08-0.08,0.43-0.28,0.52-0.31c0.01,0,0.01-0.01,0.01-0.01h0.01c0.04-0.01,0.07-0.02,0.1-0.02c0.24-0.07,0.49-0.13,0.74-0.19
			c0.11-0.03,0.24-0.06,0.36-0.08c0.21-0.05,0.42-0.1,0.64-0.14c0.31-0.06,0.61-0.12,0.93-0.17c0.27-0.04,0.53-0.08,0.8-0.11
			c2.78-0.38,5.96-0.42,9.46-0.11C84.92,55.23,77.88,59.27,71.47,64.01z"/>
		<path id="XMLID_11469_" class="st5" d="M71.47,64.01c4.45,0.57,9.94,2.05,16.43,4.38c-8.35,4.8-16.03,10.2-22.68,15.95
			C66.74,76.47,68.86,69.61,71.47,64.01z"/>
		<path id="XMLID_11468_" class="st5" d="M65.22,84.34c5.39,3.1,11.98,6.9,19.75,11.38c-8.54,5.53-16.04,11-22.25,16.23
			C62.71,102.31,63.56,92.96,65.22,84.34z"/>
		<path id="XMLID_11467_" class="st5" d="M84.97,95.72c-7.76-4.48-14.36-8.28-19.75-11.38c6.65-5.75,14.33-11.15,22.68-15.95
			C86.48,76.36,85.49,85.56,84.97,95.72z"/>
		<path id="XMLID_11466_" class="st5" d="M87.9,68.39c-6.49-2.33-11.98-3.81-16.43-4.38c6.41-4.74,13.45-8.78,20.77-11.91
			C90.54,56.19,89.11,61.64,87.9,68.39z"/>
		<path id="XMLID_11465_" class="st5" d="M79.19,52.92c5.15-2.93,10.71-5.2,16.59-6.69c-0.16,0.15-0.31,0.31-0.46,0.49
			c-0.11,0.12-0.22,0.25-0.32,0.38c-0.11,0.13-0.21,0.27-0.31,0.41c-0.09,0.12-0.17,0.25-0.27,0.37c-0.03,0.05-0.06,0.09-0.09,0.14
			c-0.09,0.13-0.18,0.27-0.27,0.42c-0.1,0.16-0.21,0.34-0.31,0.51c-0.2,0.35-0.4,0.72-0.6,1.12c-0.1,0.2-0.2,0.4-0.3,0.61
			c-0.21,0.45-0.42,0.92-0.63,1.42c-3.51-0.31-6.69-0.27-9.46,0.11c-0.27,0.03-0.54,0.07-0.8,0.11c-0.32,0.05-0.63,0.11-0.93,0.17
			c-0.22,0.04-0.43,0.08-0.64,0.14c-0.12,0.02-0.25,0.05-0.36,0.08c-0.25,0.06-0.5,0.12-0.74,0.19
			C79.26,52.9,79.23,52.91,79.19,52.92z"/>
		<path id="XMLID_11464_" class="st5" d="M65.29,139.5c6.65,5.74,14.32,11.14,22.67,15.92c-6.47,2.3-11.95,3.75-16.39,4.3
			C68.95,154.15,66.82,147.33,65.29,139.5z"/>
		<path id="XMLID_11463_" class="st5" d="M87.25,171.75c-0.16-0.01-0.31-0.01-0.46-0.01c-0.34-0.01-0.67-0.02-0.99-0.04
			c-0.04,0-0.07,0-0.11-0.01c-0.17-0.01-0.34-0.02-0.51-0.03c-0.11-0.01-0.23-0.02-0.34-0.02c-0.09-0.01-0.19-0.01-0.28-0.02
			c-0.18-0.01-0.36-0.03-0.54-0.05c-0.16-0.02-0.31-0.04-0.46-0.05c-0.48-0.05-0.95-0.12-1.41-0.19c-0.19-0.04-0.38-0.07-0.57-0.1
			c-0.03,0-0.07-0.01-0.1-0.02c-0.45-0.07-0.88-0.17-1.3-0.28c-0.71-0.39-1.37-0.78-2.06-1.16c0-0.01-0.01-0.01-0.01-0.01
			c0-0.01-0.01-0.01-0.01-0.01c0-0.01-0.01-0.01-0.01-0.01c0-0.01-0.01-0.01-0.01-0.01c0-0.01-0.01-0.01-0.01-0.01
			c0-0.01-0.01-0.01-0.01-0.01c0-0.01-0.01-0.01-0.01-0.01c-1.54-1.62-3.03-3.64-4.44-6.03c-0.12-0.2-0.24-0.4-0.35-0.61
			c-0.6-1.05-1.18-2.18-1.74-3.36c6.4,4.72,13.44,8.74,20.73,11.85C90.52,171.72,88.84,171.78,87.25,171.75z"/>
		<path id="XMLID_11462_" class="st5" d="M62.72,111.95c6.22,5.25,13.72,10.72,22.27,16.26c-7.75,4.45-14.33,8.23-19.71,11.29
			C63.61,130.91,62.73,121.58,62.72,111.95z"/>
		<path id="XMLID_11461_" class="st5" d="M95.48,176.98c-5.39-1.4-10.51-3.45-15.29-6.06c0.42,0.1,0.86,0.2,1.3,0.28
			c0.03,0.01,0.07,0.02,0.1,0.02c0.19,0.04,0.37,0.07,0.57,0.1c0.46,0.07,0.93,0.14,1.41,0.19c0.15,0.02,0.3,0.04,0.46,0.05
			c0.17,0.02,0.36,0.04,0.54,0.05c0.09,0.01,0.19,0.02,0.28,0.02c0.11,0.01,0.22,0.02,0.34,0.02c0.16,0.01,0.34,0.02,0.51,0.03
			c0.04,0.01,0.07,0.01,0.11,0.01c0.33,0.02,0.66,0.04,0.99,0.04c0.15,0.01,0.31,0.01,0.46,0.01c1.59,0.02,3.27-0.04,5.05-0.19
			c0.89,2.13,1.84,3.83,2.85,5.03c0.06,0.07,0.11,0.13,0.17,0.2C95.36,176.86,95.42,176.92,95.48,176.98z"/>
		<path id="XMLID_11460_" class="st5" d="M92.29,171.56c-7.3-3.11-14.33-7.13-20.73-11.85c4.44-0.54,9.92-1.99,16.39-4.3
			C89.16,162.11,90.6,167.51,92.29,171.56z"/>
		<path id="XMLID_11459_" class="st5" d="M87.95,155.42c-8.34-4.78-16.02-10.17-22.67-15.92c5.37-3.07,11.96-6.84,19.71-11.29
			C85.53,138.33,86.53,147.5,87.95,155.42z"/>
		<path id="XMLID_11458_" class="st5" d="M84.99,128.21c-8.55-5.54-16.05-11.01-22.27-16.26c6.21-5.23,13.71-10.69,22.25-16.23
			C84.41,106.48,84.42,117.47,84.99,128.21z"/>
		<path id="XMLID_11457_" class="st5" d="M67.53,159.92c1.19,0.04,2.54-0.03,4.03-0.21c0.56,1.19,1.14,2.31,1.74,3.36
			c0.11,0.21,0.23,0.41,0.35,0.61c1.4,2.4,2.9,4.42,4.44,6.03c-4.77-2.83-9.17-6.23-13.09-10.12c0.25,0.06,0.51,0.11,0.78,0.16
			c0.16,0.02,0.33,0.05,0.49,0.07c0.18,0.02,0.37,0.04,0.56,0.05c0.02,0.01,0.05,0.01,0.07,0.01
			C67.11,159.91,67.32,159.92,67.53,159.92z"/>
		<path id="XMLID_11456_" class="st5" d="M71.56,159.71c-6.19-4.57-11.53-9.6-15.79-14.82c2.19-1.23,5.31-3,9.51-5.4
			C66.82,147.33,68.95,154.15,71.56,159.71z"/>
		<path id="XMLID_11455_" class="st5" d="M65.29,139.5c-6.08-5.25-10.99-10.53-14.56-15.61c2.72-3.53,6.74-7.52,12-11.94
			C62.73,121.58,63.61,130.91,65.29,139.5z"/>
		<path id="XMLID_11454_" class="st5" d="M50.72,123.89c3.58,5.08,8.48,10.36,14.56,15.61c-4.2,2.4-7.32,4.17-9.51,5.4
			C53.35,138.64,51.63,131.53,50.72,123.89z"/>
		<path id="XMLID_11453_" class="st5" d="M67.53,159.92c-0.22-0.01-0.42-0.02-0.63-0.04c-0.02,0-0.05,0-0.07-0.01
			c-0.19-0.01-0.38-0.03-0.56-0.05c-0.17-0.02-0.33-0.04-0.49-0.07c-0.28-0.04-0.54-0.1-0.78-0.16l-0.01-0.01
			c-1.46-1.45-2.86-2.97-4.18-4.54l-0.01-0.01c-0.02-0.03-0.04-0.06-0.05-0.09c-0.1-0.16-0.21-0.33-0.3-0.49
			c-0.1-0.16-0.21-0.33-0.3-0.49c-0.02-0.03-0.04-0.06-0.05-0.1c-0.22-0.37-0.44-0.75-0.66-1.13c0,0,0,0,0-0.01
			c-0.22-0.4-0.44-0.8-0.66-1.21c-0.16-0.3-0.32-0.6-0.48-0.92c-0.02-0.05-0.05-0.1-0.08-0.15c-0.19-0.39-0.39-0.78-0.57-1.18
			c-0.13-0.28-0.26-0.55-0.39-0.84c-0.33-0.73-0.66-1.48-0.97-2.24c-0.17-0.43-0.35-0.87-0.52-1.32c4.26,5.22,9.6,10.25,15.79,14.82
			C70.07,159.89,68.72,159.97,67.53,159.92z"/>
		<path id="XMLID_11452_" class="st5" d="M65.22,84.34c-4.21-2.42-7.35-4.23-9.54-5.48c4.26-5.23,9.59-10.27,15.78-14.85
			C68.86,69.61,66.74,76.47,65.22,84.34z"/>
		<path id="XMLID_11451_" class="st5" d="M64.53,64.16c4.19-4.23,8.94-7.92,14.12-10.92c-0.92,0.89-1.83,1.93-2.7,3.1
			c-0.2,0.26-0.39,0.53-0.58,0.8c-0.39,0.55-0.77,1.13-1.14,1.73c-0.19,0.3-0.38,0.61-0.56,0.93c-0.16,0.27-0.32,0.55-0.48,0.83
			c-0.25,0.44-0.49,0.89-0.73,1.36c-0.01,0.01-0.01,0.02-0.02,0.04c-0.09,0.17-0.18,0.35-0.27,0.52c-0.12,0.24-0.24,0.48-0.36,0.72
			c-0.12,0.24-0.24,0.49-0.35,0.74C68.6,63.64,66.24,63.67,64.53,64.16z"/>
		<path id="XMLID_11450_" class="st5" d="M62.72,111.95c-5.27-4.45-9.3-8.46-12.03-12.02c3.56-5.07,8.46-10.34,14.53-15.59
			C63.56,92.96,62.71,102.31,62.72,111.95z"/>
		<path id="XMLID_11449_" class="st5" d="M55.68,78.85c1.64-4.29,3.57-8.09,5.72-11.32c0-0.01,0.01-0.01,0.01-0.01
			c0.01-0.01,0.01-0.01,0.01-0.01c0.99-1.15,2.03-2.27,3.1-3.35c1.71-0.49,4.08-0.52,6.94-0.15C65.27,68.59,59.94,73.63,55.68,78.85
			z"/>
		<path id="XMLID_11448_" class="st5" d="M55.68,78.86c2.19,1.26,5.33,3.06,9.54,5.48c-6.07,5.25-10.97,10.52-14.53,15.59
			C51.57,92.28,53.28,85.14,55.68,78.86z"/>
		<path id="XMLID_11447_" class="st5" d="M50.69,99.93c2.73,3.56,6.76,7.57,12.03,12.02c-5.26,4.43-9.28,8.41-12,11.94
			C49.79,115.98,49.78,107.85,50.69,99.93z"/>
		<path id="XMLID_11446_" class="st5" d="M49.44,88.07c-0.24,0.43-0.46,0.86-0.68,1.29c1.4-4,3.16-7.83,5.25-11.45
			c0.13,0.07,0.27,0.15,0.43,0.25c0.08,0.04,0.18,0.1,0.28,0.15c0.08,0.05,0.16,0.09,0.24,0.14c0.14,0.08,0.3,0.17,0.46,0.27
			c0.08,0.04,0.17,0.1,0.26,0.14c-2.15,2.65-4,5.3-5.5,7.91c-0.13,0.22-0.25,0.43-0.37,0.65C49.68,87.63,49.56,87.85,49.44,88.07z"
			/>
		<path id="XMLID_11445_" class="st5" d="M45.01,111.18c0.04-5.97,0.85-11.75,2.35-17.25c0.02,0.11,0.05,0.22,0.1,0.33
			c0.03,0.11,0.07,0.22,0.11,0.33c0.11,0.33,0.26,0.68,0.42,1.04c0.27,0.59,0.61,1.21,1.01,1.86c0.15,0.25,0.31,0.5,0.49,0.76
			c0.09,0.14,0.19,0.29,0.3,0.43c0.09,0.13,0.19,0.27,0.29,0.41c0.2,0.28,0.4,0.55,0.62,0.84c-0.36,0.51-0.69,1.01-1.02,1.5
			c-0.33,0.49-0.63,0.98-0.92,1.46c-0.4,0.67-0.78,1.33-1.13,1.98c-0.14,0.27-0.28,0.54-0.42,0.8c-0.16,0.31-0.3,0.6-0.45,0.9
			c-0.02,0.02-0.02,0.05-0.04,0.07c-0.09,0.18-0.17,0.36-0.25,0.54c-0.37,0.82-0.69,1.63-0.97,2.42c-0.08,0.24-0.17,0.49-0.24,0.72
			c-0.01,0.02-0.01,0.04-0.02,0.05C45.16,110.65,45.08,110.92,45.01,111.18z"/>
		<path id="XMLID_11444_" class="st5" d="M50.69,99.93c-0.22-0.28-0.42-0.56-0.62-0.84c-0.1-0.14-0.2-0.28-0.29-0.41
			c-0.1-0.14-0.2-0.29-0.3-0.43c-0.17-0.26-0.34-0.51-0.49-0.76c-0.4-0.65-0.74-1.27-1.01-1.86c-0.16-0.36-0.31-0.71-0.42-1.04
			c-0.04-0.11-0.08-0.22-0.11-0.33c-0.04-0.11-0.07-0.22-0.1-0.33v-0.01c0.41-1.55,0.89-3.07,1.41-4.56v-0.01
			c0.22-0.43,0.44-0.86,0.68-1.29c0.12-0.22,0.24-0.43,0.36-0.65c0.12-0.22,0.25-0.43,0.37-0.65c1.51-2.61,3.35-5.26,5.5-7.91
			C53.28,85.14,51.57,92.28,50.69,99.93z"/>
		<path id="XMLID_11443_" class="st5" d="M55.68,78.85c-0.09-0.05-0.17-0.1-0.26-0.14c-0.16-0.1-0.31-0.18-0.46-0.27
			c-0.08-0.05-0.16-0.09-0.24-0.14c-0.1-0.05-0.19-0.11-0.28-0.15c-0.16-0.1-0.3-0.17-0.43-0.25c2.13-3.7,4.61-7.17,7.38-10.37
			C59.26,70.76,57.32,74.57,55.68,78.85z"/>
		<path id="XMLID_11442_" class="st5" d="M54.24,145.74c-2-3.41-3.71-7-5.09-10.75c1.71,3.26,3.92,6.59,6.63,9.91
			C55.14,145.25,54.65,145.52,54.24,145.74z"/>
		<path id="XMLID_11441_" class="st5" d="M58.32,151.92c-0.49-0.67-0.98-1.34-1.44-2.03C57.38,150.54,57.85,151.22,58.32,151.92z"/>
		<path id="XMLID_11440_" class="st5" d="M47.79,128.72c-0.14,0.34-0.25,0.67-0.34,0.98c-1.51-5.45-2.36-11.18-2.44-17.09
			c0.96,3.42,2.87,7.24,5.71,11.28c-0.39,0.51-0.75,1.01-1.08,1.49c-0.11,0.16-0.22,0.32-0.32,0.48c-0.58,0.9-1.05,1.75-1.4,2.54
			C47.87,128.51,47.83,128.62,47.79,128.72z"/>
		<path id="XMLID_11439_" class="st5" d="M60.75,154.96c0.02,0.03,0.04,0.06,0.05,0.09c-0.86-1.02-1.68-2.06-2.48-3.13l-0.01-0.01
			c-0.47-0.7-0.95-1.38-1.44-2.03c-0.01,0-0.01-0.01-0.01-0.01c-0.93-1.35-1.81-2.73-2.64-4.15c0.41-0.22,0.9-0.49,1.54-0.84
			c0.17,0.45,0.35,0.89,0.52,1.32c0.31,0.76,0.64,1.51,0.97,2.24c0.13,0.28,0.26,0.56,0.39,0.84c0.19,0.4,0.38,0.79,0.57,1.18
			c0.02,0.05,0.05,0.1,0.08,0.15c0.16,0.31,0.31,0.61,0.48,0.92c0.22,0.41,0.43,0.81,0.66,1.21c0,0.01,0,0.01,0,0.01
			c0.22,0.39,0.43,0.77,0.66,1.13c0.02,0.04,0.04,0.07,0.05,0.1c0.1,0.16,0.2,0.33,0.3,0.49C60.55,154.64,60.65,154.81,60.75,154.96
			z"/>
		<path id="XMLID_11438_" class="st5" d="M55.77,144.9c-2.71-3.32-4.93-6.66-6.63-9.91c0-0.01-0.01-0.01-0.01-0.02
			c-0.63-1.72-1.19-3.48-1.69-5.26c0.09-0.31,0.2-0.65,0.34-0.98c0.04-0.11,0.09-0.21,0.14-0.32c0.34-0.79,0.81-1.64,1.4-2.54
			c0.1-0.16,0.21-0.32,0.32-0.48c0.33-0.48,0.69-0.98,1.08-1.49C51.63,131.52,53.36,138.64,55.77,144.9z"/>
		<path id="XMLID_11437_" class="st5" d="M50.72,123.89c-2.84-4.04-4.75-7.86-5.71-11.28v-0.01C45,112.29,45,111.97,45,111.64
			c0-0.15,0-0.3,0.01-0.45v-0.01c0.07-0.27,0.15-0.52,0.24-0.8c0.01-0.02,0.01-0.04,0.02-0.05c0.07-0.24,0.16-0.48,0.24-0.72
			c0.28-0.79,0.6-1.6,0.97-2.42c0.08-0.18,0.16-0.36,0.25-0.54c0.01-0.02,0.02-0.05,0.04-0.07c0.14-0.3,0.29-0.6,0.45-0.9
			c0.13-0.27,0.27-0.53,0.42-0.8c0.35-0.65,0.73-1.31,1.13-1.98c0.3-0.48,0.6-0.96,0.92-1.46c0.33-0.49,0.66-0.99,1.02-1.5
			C49.78,107.85,49.79,115.98,50.72,123.89z"/>
	</g>
</g>
</svg>
