<?xml version="1.0" encoding="utf-8"?>
<!-- Generator: Adobe Illustrator 26.2.1, SVG Export Plug-In . SVG Version: 6.00 Build 0)  -->
<svg version="1.1" xmlns="http://www.w3.org/2000/svg" xmlns:xlink="http://www.w3.org/1999/xlink" x="0px" y="0px"
	 viewBox="0 0 225 225" style="enable-background:new 0 0 225 225;" xml:space="preserve">
<style type="text/css">
	.st0{display:none;}
	.st1{display:inline;fill:#FAB433;}
	.st2{fill:none;}
	.st3{fill:none;stroke:#000000;stroke-width:1.6;stroke-miterlimit:10;}
	.st4{fill:none;stroke:#000000;stroke-width:0.7265;stroke-miterlimit:10;}
	.st5{fill:none;stroke:#000000;stroke-linecap:round;stroke-linejoin:round;stroke-miterlimit:10;}
	.st6{fill:none;stroke:#000000;stroke-miterlimit:10;}
	.st7{fill:none;stroke:#000000;stroke-width:0.7105;stroke-miterlimit:10;}
	.st8{fill:none;stroke:#000000;stroke-width:5.4;stroke-linecap:round;stroke-linejoin:round;stroke-miterlimit:10;}
	.st9{fill:none;stroke:#000000;stroke-width:2.9309;stroke-linecap:round;stroke-linejoin:round;stroke-miterlimit:10;}
	.st10{fill:none;stroke:#000000;stroke-width:0.5;stroke-linecap:round;stroke-linejoin:round;}
	.st11{fill:none;stroke:#FFFFFF;stroke-width:0;stroke-linecap:round;stroke-linejoin:round;}
	.st12{fill:#FFFFFF;}
	.st13{fill:none;stroke:#000000;stroke-width:1.4;stroke-miterlimit:10;}
	.st14{fill:url(#);stroke:#000000;stroke-width:1.4387;stroke-miterlimit:10;}
	.st15{fill:url(#);stroke:#000000;stroke-width:1.3718;stroke-miterlimit:10;}
	.st16{fill:none;stroke:#000000;stroke-width:1.0041;stroke-miterlimit:10;}
	.st17{fill:none;stroke:#000000;stroke-width:1.3621;stroke-miterlimit:10;}
	.st18{fill:none;stroke:#000000;stroke-width:0.25;stroke-miterlimit:10;}
</style>
<g id="Layer_2" class="st0">
	<rect id="XMLID_4_" x="-100.99" y="-520.01" class="st1" width="1160" height="772"/>
</g>
<g id="Layer_1">
	<path id="XMLID_23422_" d="M57.78,133.61c0,1.16,0.94,2.11,2.11,2.11c1.17,0,2.11-0.94,2.11-2.11c0-1.17-0.94-2.11-2.11-2.11
		C58.72,131.5,57.78,132.44,57.78,133.61z M62.72,141.13c1.03,0,1.86-0.83,1.86-1.86c0-1.02-0.83-1.86-1.86-1.86
		c-1.03,0-1.86,0.83-1.86,1.86C60.87,140.3,61.7,141.13,62.72,141.13z M68.39,140.77c0.82,0,1.49-0.67,1.49-1.49
		c0-0.82-0.67-1.49-1.49-1.49s-1.49,0.67-1.49,1.49C66.9,140.1,67.57,140.77,68.39,140.77z M59.89,124.15
		c1.04,0,1.89-0.84,1.89-1.88c0-1.04-0.84-1.89-1.89-1.89c-1.04,0-1.88,0.84-1.88,1.89C58,123.31,58.85,124.15,59.89,124.15z
		 M67.26,133.61c0-0.94-0.76-1.7-1.7-1.7c-0.94,0-1.7,0.76-1.7,1.7c0,0.94,0.76,1.7,1.7,1.7C66.5,135.3,67.26,134.54,67.26,133.61z
		 M65.56,123.73c0.81,0,1.46-0.65,1.46-1.46s-0.65-1.46-1.46-1.46c-0.81,0-1.46,0.65-1.46,1.46S64.75,123.73,65.56,123.73z
		 M64.14,116.59c0-0.78-0.63-1.42-1.41-1.42c-0.78,0-1.42,0.63-1.42,1.42c0,0.78,0.63,1.41,1.42,1.41
		C63.51,118.01,64.14,117.37,64.14,116.59z M65.56,112.34c0.78,0,1.41-0.64,1.41-1.42c0-0.78-0.63-1.41-1.41-1.41
		c-0.78,0-1.42,0.63-1.42,1.41C64.14,111.7,64.78,112.34,65.56,112.34z M62.72,103.79c-0.81,0-1.46,0.65-1.46,1.46
		c0,0.81,0.66,1.46,1.46,1.46c0.81,0,1.46-0.65,1.46-1.46C64.19,104.45,63.53,103.79,62.72,103.79z M59.89,109.08
		c-1.01,0-1.84,0.82-1.84,1.84c0,1.02,0.82,1.84,1.84,1.84c1.02,0,1.84-0.83,1.84-1.84C61.73,109.91,60.91,109.08,59.89,109.08z
		 M71.23,146.66c0.95,0,1.71-0.77,1.71-1.71c0-0.95-0.77-1.72-1.71-1.72c-0.95,0-1.71,0.77-1.71,1.72
		C69.52,145.89,70.28,146.66,71.23,146.66z M74.06,140.47c0.66,0,1.2-0.54,1.2-1.2c0-0.66-0.54-1.2-1.2-1.2
		c-0.66,0-1.19,0.54-1.19,1.2C72.87,139.94,73.4,140.47,74.06,140.47z M74.06,92.87c-0.57,0-1.04,0.46-1.04,1.04
		c0,0.57,0.46,1.04,1.04,1.04c0.57,0,1.04-0.46,1.04-1.04C75.1,93.34,74.64,92.87,74.06,92.87z M79.74,81.41
		c-0.64,0-1.17,0.52-1.17,1.16c0,0.64,0.52,1.16,1.17,1.16c0.64,0,1.16-0.52,1.16-1.16C80.9,81.93,80.38,81.41,79.74,81.41z
		 M61.18,127.93c0,0.85,0.69,1.54,1.54,1.54c0.85,0,1.54-0.69,1.54-1.54s-0.69-1.54-1.54-1.54
		C61.87,126.39,61.18,127.08,61.18,127.93z M74.06,128.85c0.51,0,0.91-0.41,0.91-0.91c0-0.5-0.41-0.91-0.91-0.91
		c-0.5,0-0.91,0.41-0.91,0.91C73.15,128.44,73.56,128.85,74.06,128.85z M71.23,123.38c0.62,0,1.12-0.5,1.12-1.12
		c0-0.62-0.5-1.12-1.12-1.12c-0.62,0-1.12,0.5-1.12,1.12C70.11,122.88,70.61,123.38,71.23,123.38z M76.9,146.35
		c0.77,0,1.4-0.63,1.4-1.4c0-0.78-0.62-1.4-1.4-1.4c-0.78,0-1.4,0.62-1.4,1.4C75.5,145.72,76.13,146.35,76.9,146.35z M71.23,98.37
		c-0.67,0-1.21,0.54-1.21,1.21c0,0.67,0.54,1.21,1.21,1.21c0.67,0,1.21-0.54,1.21-1.21C72.44,98.91,71.9,98.37,71.23,98.37z
		 M71.23,111.99c0.59,0,1.07-0.48,1.07-1.07c0-0.59-0.48-1.07-1.07-1.07c-0.59,0-1.07,0.48-1.07,1.07
		C70.16,111.51,70.64,111.99,71.23,111.99z M74.06,115.81c-0.43,0-0.78,0.35-0.78,0.79s0.35,0.79,0.78,0.79
		c0.44,0,0.79-0.35,0.79-0.79S74.5,115.81,74.06,115.81z M71.23,134.93c0.73,0,1.32-0.59,1.32-1.32c0-0.73-0.59-1.32-1.32-1.32
		c-0.73,0-1.32,0.59-1.32,1.32C69.91,134.34,70.5,134.93,71.23,134.93z M74.06,104.4c-0.47,0-0.85,0.38-0.85,0.85
		c0,0.47,0.38,0.85,0.85,0.85c0.47,0,0.85-0.38,0.85-0.85C74.91,104.78,74.53,104.4,74.06,104.4z M74.06,152.28
		c0.92,0,1.67-0.74,1.67-1.67s-0.75-1.67-1.67-1.67c-0.92,0-1.67,0.75-1.67,1.67S73.14,152.28,74.06,152.28z M82.57,146.08
		c0.62,0,1.13-0.51,1.13-1.13s-0.51-1.13-1.13-1.13c-0.62,0-1.13,0.51-1.13,1.13S81.95,146.08,82.57,146.08z M82.57,87.28
		c-0.53,0-0.96,0.43-0.96,0.96c0,0.53,0.43,0.96,0.96,0.96c0.53,0,0.96-0.43,0.96-0.96C83.53,87.71,83.1,87.28,82.57,87.28z
		 M85.41,151.81c0.66,0,1.2-0.54,1.2-1.2s-0.54-1.2-1.2-1.2c-0.66,0-1.2,0.54-1.2,1.2S84.75,151.81,85.41,151.81z M85.41,104.81
		c-0.24,0-0.44,0.2-0.44,0.44c0,0.24,0.2,0.44,0.44,0.44c0.24,0,0.44-0.2,0.44-0.44C85.85,105.01,85.65,104.81,85.41,104.81z
		 M65.56,98.03c-0.86,0-1.56,0.7-1.56,1.55s0.7,1.56,1.56,1.56c0.86,0,1.55-0.7,1.55-1.56S66.42,98.03,65.56,98.03z M79.74,152.02
		c0.77,0,1.4-0.63,1.4-1.4c0-0.77-0.63-1.4-1.4-1.4c-0.78,0-1.4,0.63-1.4,1.4C78.34,151.39,78.96,152.02,79.74,152.02z M82.57,158
		c0.95,0,1.71-0.77,1.71-1.71c0-0.94-0.77-1.71-1.71-1.71c-0.95,0-1.71,0.77-1.71,1.71C80.86,157.23,81.62,158,82.57,158z
		 M82.57,98.89c-0.38,0-0.69,0.31-0.69,0.69c0,0.38,0.31,0.69,0.69,0.69c0.38,0,0.69-0.31,0.69-0.69
		C83.26,99.2,82.95,98.89,82.57,98.89z M85.41,116.19c-0.23,0-0.41,0.18-0.41,0.41c0,0.22,0.18,0.41,0.41,0.41
		c0.22,0,0.41-0.19,0.41-0.41C85.82,116.37,85.63,116.19,85.41,116.19z M82.57,122.88c0.34,0,0.61-0.27,0.61-0.61
		c0-0.34-0.27-0.61-0.61-0.61c-0.34,0-0.61,0.28-0.61,0.61C81.96,122.6,82.23,122.88,82.57,122.88z M82.57,111.51
		c0.32,0,0.58-0.26,0.58-0.58c0-0.32-0.26-0.58-0.58-0.58c-0.32,0-0.58,0.26-0.58,0.58C81.99,111.25,82.25,111.51,82.57,111.51z
		 M82.57,134.39c0.44,0,0.79-0.35,0.79-0.79c0-0.44-0.35-0.79-0.79-0.79c-0.43,0-0.79,0.35-0.79,0.79
		C81.79,134.04,82.14,134.39,82.57,134.39z M68.39,104.14c-0.62,0-1.12,0.5-1.12,1.12c0,0.62,0.5,1.12,1.12,1.12s1.12-0.5,1.12-1.12
		C69.51,104.64,69.01,104.14,68.39,104.14z M68.39,115.53c-0.59,0-1.07,0.48-1.07,1.07c0,0.59,0.48,1.07,1.07,1.07
		s1.07-0.48,1.07-1.07C69.46,116.01,68.99,115.53,68.39,115.53z M75.2,76.9c0,0.93,0.76,1.7,1.7,1.7c0.94,0,1.7-0.76,1.7-1.7
		c0-0.94-0.76-1.7-1.7-1.7C75.96,75.2,75.2,75.96,75.2,76.9z M68.39,92.57c-0.74,0-1.34,0.6-1.34,1.34c0,0.74,0.6,1.34,1.34,1.34
		c0.74,0,1.34-0.6,1.34-1.34C69.73,93.17,69.13,92.57,68.39,92.57z M68.39,129.13c0.66,0,1.2-0.54,1.2-1.2
		c0-0.66-0.54-1.19-1.2-1.19c-0.66,0-1.2,0.53-1.2,1.19C67.2,128.6,67.73,129.13,68.39,129.13z M79.74,69.48
		c-0.96,0-1.75,0.78-1.75,1.75c0,0.96,0.78,1.74,1.75,1.74c0.96,0,1.74-0.78,1.74-1.74C81.48,70.27,80.7,69.48,79.74,69.48z
		 M85.41,140.03c0.42,0,0.75-0.34,0.75-0.75c0-0.42-0.34-0.75-0.75-0.75c-0.42,0-0.75,0.34-0.75,0.75
		C84.65,139.69,84.99,140.03,85.41,140.03z M85.41,93.3c-0.34,0-0.61,0.27-0.61,0.61c0,0.34,0.27,0.61,0.61,0.61
		c0.34,0,0.61-0.27,0.61-0.61C86.02,93.57,85.74,93.3,85.41,93.3z M85.41,128.44c0.28,0,0.5-0.22,0.5-0.5c0-0.28-0.22-0.5-0.5-0.5
		c-0.28,0-0.5,0.22-0.5,0.5C84.9,128.21,85.13,128.44,85.41,128.44z M82.57,75.48c-0.78,0-1.42,0.63-1.42,1.42
		c0,0.78,0.63,1.41,1.42,1.41c0.78,0,1.42-0.63,1.42-1.41C83.99,76.12,83.35,75.48,82.57,75.48z M85.41,81.61
		c-0.53,0-0.96,0.43-0.96,0.96c0,0.53,0.43,0.96,0.96,0.96c0.53,0,0.96-0.43,0.96-0.96C86.37,82.04,85.94,81.61,85.41,81.61z
		 M76.9,123.1c0.46,0,0.83-0.38,0.83-0.83c0-0.46-0.37-0.83-0.83-0.83c-0.46,0-0.83,0.37-0.83,0.83
		C76.07,122.72,76.44,123.1,76.9,123.1z M112.71,167.63c0-0.99-0.8-1.79-1.79-1.79c-0.99,0-1.79,0.8-1.79,1.79
		c0,0.99,0.8,1.79,1.79,1.79C111.91,169.42,112.71,168.62,112.71,167.63z M107.09,167.63c0-1.02-0.82-1.84-1.84-1.84
		c-1.02,0-1.84,0.83-1.84,1.84c0,1.01,0.82,1.84,1.84,1.84C106.27,169.47,107.09,168.64,107.09,167.63z M110.66,133.61
		c0,0.15,0.12,0.27,0.27,0.27c0.15,0,0.27-0.12,0.27-0.27c0-0.15-0.12-0.27-0.27-0.27C110.78,133.34,110.66,133.46,110.66,133.61z
		 M88.24,169.92c1.27,0,2.3-1.03,2.3-2.29c0-1.27-1.03-2.29-2.3-2.29c-1.27,0-2.29,1.03-2.29,2.29
		C85.95,168.9,86.97,169.92,88.24,169.92z M110.97,110.92c0-0.03-0.02-0.04-0.05-0.04c-0.03,0-0.05,0.02-0.05,0.04
		c0,0.03,0.02,0.05,0.05,0.05C110.95,110.97,110.97,110.95,110.97,110.92z M113.76,151.4c0.43,0,0.79-0.35,0.79-0.79
		c0-0.43-0.35-0.79-0.79-0.79c-0.43,0-0.79,0.35-0.79,0.79C112.97,151.05,113.32,151.4,113.76,151.4z M108.09,175.56
		c1.25,0,2.26-1.01,2.26-2.26s-1.01-2.26-2.26-2.26s-2.26,1.01-2.26,2.26S106.84,175.56,108.09,175.56z M102.42,175.63
		c1.29,0,2.33-1.04,2.33-2.33s-1.04-2.33-2.33-2.33c-1.28,0-2.33,1.04-2.33,2.33S101.13,175.63,102.42,175.63z M96,167.63
		c0-1.16-0.94-2.09-2.09-2.09c-1.16,0-2.09,0.93-2.09,2.09c0,1.15,0.94,2.09,2.09,2.09C95.07,169.72,96,168.78,96,167.63z
		 M91.08,175.88c1.42,0,2.58-1.15,2.58-2.58s-1.16-2.58-2.58-2.58c-1.43,0-2.58,1.15-2.58,2.58S89.65,175.88,91.08,175.88z
		 M101.52,167.63c0-1.07-0.87-1.94-1.93-1.94c-1.07,0-1.93,0.87-1.93,1.94c0,1.07,0.87,1.93,1.93,1.93
		C100.65,169.56,101.52,168.7,101.52,167.63z M96.75,175.74c1.35,0,2.44-1.09,2.44-2.44c0-1.35-1.09-2.44-2.44-2.44
		c-1.35,0-2.44,1.09-2.44,2.44C94.31,174.65,95.4,175.74,96.75,175.74z M110.92,122.36c0.05,0,0.09-0.04,0.09-0.09
		c0-0.05-0.04-0.1-0.09-0.1c-0.05,0-0.1,0.04-0.1,0.1C110.83,122.32,110.87,122.36,110.92,122.36z M111.33,88.24
		c0-0.22-0.18-0.41-0.41-0.41s-0.41,0.19-0.41,0.41c0,0.23,0.18,0.41,0.41,0.41S111.33,88.47,111.33,88.24z M113.59,127.93
		c0,0.1,0.08,0.17,0.17,0.17c0.1,0,0.17-0.08,0.17-0.17c0-0.09-0.08-0.17-0.17-0.17C113.66,127.76,113.59,127.84,113.59,127.93z
		 M113.76,139.67c0.22,0,0.39-0.18,0.39-0.39c0-0.22-0.18-0.39-0.39-0.39c-0.21,0-0.39,0.18-0.39,0.39
		C113.37,139.49,113.54,139.67,113.76,139.67z M114.34,82.57c0-0.32-0.26-0.58-0.58-0.58c-0.32,0-0.58,0.26-0.58,0.58
		c0,0.32,0.26,0.58,0.58,0.58C114.08,83.15,114.34,82.89,114.34,82.57z M113.73,116.59c0,0.02,0.01,0.03,0.03,0.03
		s0.03-0.01,0.03-0.03c0-0.02-0.02-0.03-0.03-0.03S113.73,116.58,113.73,116.59z M76.9,111.73c0.44,0,0.8-0.36,0.8-0.8
		c0-0.44-0.36-0.8-0.8-0.8c-0.45,0-0.8,0.36-0.8,0.8C76.1,111.37,76.46,111.73,76.9,111.73z M110.92,145.51
		c0.31,0,0.57-0.25,0.57-0.56c0-0.31-0.25-0.57-0.57-0.57c-0.31,0-0.57,0.26-0.57,0.57C110.36,145.26,110.61,145.51,110.92,145.51z
		 M113.76,105.16c-0.05,0-0.09,0.04-0.09,0.1c0,0.05,0.04,0.09,0.09,0.09c0.05,0,0.09-0.04,0.09-0.09
		C113.85,105.2,113.81,105.16,113.76,105.16z M111.72,76.9c0-0.45-0.36-0.8-0.8-0.8c-0.44,0-0.8,0.36-0.8,0.8
		c0,0.44,0.36,0.8,0.8,0.8C111.37,77.7,111.72,77.34,111.72,76.9z M110.92,64.14c-0.78,0-1.42,0.63-1.42,1.41
		c0,0.78,0.63,1.42,1.42,1.42c0.78,0,1.42-0.63,1.42-1.42C112.34,64.78,111.7,64.14,110.92,64.14z M110.92,157.34
		c0.58,0,1.05-0.47,1.05-1.05c0-0.58-0.47-1.05-1.05-1.05s-1.05,0.47-1.05,1.05C109.87,156.87,110.34,157.34,110.92,157.34z
		 M114.04,93.91c0-0.16-0.12-0.28-0.28-0.28c-0.15,0-0.28,0.13-0.28,0.28c0,0.15,0.13,0.28,0.28,0.28
		C113.92,94.2,114.04,94.07,114.04,93.91z M63.67,88.24c0,1.04,0.84,1.89,1.89,1.89c1.04,0,1.88-0.84,1.88-1.89
		c0-1.04-0.85-1.89-1.88-1.89C64.52,86.35,63.67,87.2,63.67,88.24z M61.03,93.91c0,0.94,0.76,1.7,1.7,1.7c0.94,0,1.7-0.76,1.7-1.7
		c0-0.94-0.76-1.7-1.7-1.7C61.79,92.21,61.03,92.97,61.03,93.91z M55.17,105.25c0,1.04,0.84,1.88,1.88,1.88
		c1.04,0,1.89-0.84,1.89-1.88c0-1.04-0.85-1.89-1.89-1.89C56.01,103.37,55.17,104.21,55.17,105.25z M57.91,99.58
		c0,1.09,0.89,1.98,1.98,1.98c1.1,0,1.98-0.89,1.98-1.98c0-1.09-0.89-1.98-1.98-1.98C58.79,97.6,57.91,98.49,57.91,99.58z
		 M68.39,80.83c-0.96,0-1.75,0.78-1.75,1.74c0,0.97,0.78,1.74,1.75,1.74c0.96,0,1.75-0.78,1.75-1.74
		C70.14,81.61,69.36,80.83,68.39,80.83z M74.06,81.16c-0.78,0-1.41,0.63-1.41,1.41c0,0.78,0.63,1.42,1.41,1.42
		c0.78,0,1.42-0.63,1.42-1.42C75.48,81.79,74.85,81.16,74.06,81.16z M76.9,98.67c-0.51,0-0.91,0.41-0.91,0.91
		c0,0.5,0.41,0.91,0.91,0.91c0.5,0,0.91-0.41,0.91-0.91C77.81,99.08,77.4,98.67,76.9,98.67z M71.23,86.72
		c-0.84,0-1.52,0.68-1.52,1.52c0,0.84,0.68,1.53,1.52,1.53c0.84,0,1.53-0.68,1.53-1.53C72.76,87.4,72.07,86.72,71.23,86.72z
		 M76.9,134.63c0.56,0,1.02-0.46,1.02-1.02c0-0.56-0.46-1.02-1.02-1.02c-0.57,0-1.03,0.46-1.03,1.02
		C75.88,134.17,76.34,134.63,76.9,134.63z M76.9,87.03c-0.67,0-1.21,0.54-1.21,1.21c0,0.67,0.54,1.21,1.21,1.21
		c0.67,0,1.21-0.54,1.21-1.21C78.11,87.57,77.57,87.03,76.9,87.03z M55.21,116.59c0,1.02,0.83,1.84,1.84,1.84
		c1.02,0,1.84-0.82,1.84-1.84c0-1.02-0.82-1.84-1.84-1.84C56.04,114.75,55.21,115.58,55.21,116.59z M59.89,147.49
		c1.41,0,2.55-1.14,2.55-2.55c0-1.41-1.14-2.55-2.55-2.55c-1.4,0-2.55,1.14-2.55,2.55C57.34,146.35,58.48,147.49,59.89,147.49z
		 M78.91,156.29c0-1.11-0.9-2.01-2.01-2.01c-1.11,0-2.02,0.9-2.02,2.01c0,1.11,0.9,2.02,2.02,2.02
		C78.01,158.3,78.91,157.4,78.91,156.29z M74.06,164.33c1.31,0,2.38-1.06,2.38-2.37c0-1.31-1.06-2.38-2.38-2.38
		c-1.31,0-2.37,1.06-2.37,2.38C71.69,163.27,72.75,164.33,74.06,164.33z M79.74,164.05c1.15,0,2.09-0.94,2.09-2.09
		c0-1.16-0.94-2.09-2.09-2.09c-1.16,0-2.09,0.94-2.09,2.09C77.64,163.11,78.58,164.05,79.74,164.05z M82.57,170.14
		c1.39,0,2.52-1.13,2.52-2.52c0-1.39-1.13-2.51-2.52-2.51c-1.39,0-2.52,1.12-2.52,2.51C80.05,169.02,81.18,170.14,82.57,170.14z
		 M71.23,158.65c1.3,0,2.36-1.06,2.36-2.36c0-1.3-1.05-2.36-2.36-2.36c-1.3,0-2.36,1.06-2.36,2.36
		C68.87,157.59,69.93,158.65,71.23,158.65z M62.72,153.02c1.33,0,2.41-1.08,2.41-2.41c0-1.33-1.08-2.41-2.41-2.41
		c-1.33,0-2.41,1.08-2.41,2.41C60.32,151.95,61.4,153.02,62.72,153.02z M54.76,139.28c0,1.27,1.03,2.3,2.29,2.3s2.3-1.03,2.3-2.3
		c0-1.27-1.03-2.3-2.3-2.3S54.76,138.01,54.76,139.28z M87.26,161.96c0-1.03-0.83-1.86-1.85-1.86c-1.03,0-1.86,0.83-1.86,1.86
		c0,1.02,0.83,1.86,1.86,1.86C86.43,163.81,87.26,162.98,87.26,161.96z M68.39,152.63c1.11,0,2.01-0.9,2.01-2.01
		c0-1.11-0.9-2.02-2.01-2.02c-1.11,0-2.01,0.9-2.01,2.02C66.38,151.73,67.28,152.63,68.39,152.63z M67.67,144.95
		c0-1.16-0.94-2.11-2.11-2.11c-1.17,0-2.11,0.94-2.11,2.11c0,1.16,0.94,2.11,2.11,2.11C66.72,147.05,67.67,146.11,67.67,144.95z
		 M57.05,129.92c1.09,0,1.98-0.89,1.98-1.98s-0.89-1.98-1.98-1.98c-1.09,0-1.98,0.89-1.98,1.98S55.96,129.92,57.05,129.92z
		 M111.1,99.58c0-0.1-0.08-0.17-0.17-0.17c-0.1,0-0.17,0.08-0.17,0.17c0,0.1,0.08,0.17,0.17,0.17
		C111.02,99.76,111.1,99.68,111.1,99.58z M102.42,81.96c-0.34,0-0.61,0.28-0.61,0.61c0,0.34,0.27,0.61,0.61,0.61
		c0.34,0,0.61-0.28,0.61-0.61C103.03,82.23,102.76,81.96,102.42,81.96z M102.42,139.71c0.24,0,0.44-0.2,0.44-0.44
		s-0.2-0.44-0.44-0.44c-0.24,0-0.44,0.19-0.44,0.44S102.17,139.71,102.42,139.71z M102.73,93.91c0-0.18-0.14-0.31-0.32-0.31
		c-0.17,0-0.31,0.14-0.31,0.31c0,0.17,0.14,0.31,0.31,0.31C102.59,94.23,102.73,94.09,102.73,93.91z M102.42,70.11
		c-0.62,0-1.12,0.5-1.12,1.12c0,0.62,0.5,1.12,1.12,1.12c0.62,0,1.12-0.5,1.12-1.12C103.54,70.61,103.03,70.11,102.42,70.11z
		 M102.42,151.43c0.45,0,0.82-0.37,0.82-0.82c0-0.45-0.37-0.82-0.82-0.82c-0.45,0-0.82,0.37-0.82,0.82
		C101.6,151.07,101.97,151.43,102.42,151.43z M102.56,105.25c0-0.08-0.06-0.14-0.14-0.14c-0.08,0-0.14,0.06-0.14,0.14
		c0,0.08,0.06,0.14,0.14,0.14C102.5,105.4,102.56,105.33,102.56,105.25z M102.21,127.93c0,0.12,0.09,0.2,0.2,0.2
		c0.11,0,0.21-0.09,0.21-0.2c0-0.11-0.09-0.2-0.21-0.2C102.3,127.73,102.21,127.82,102.21,127.93z M88.24,75.69
		c-0.67,0-1.21,0.54-1.21,1.21c0,0.67,0.54,1.21,1.21,1.21c0.67,0,1.21-0.54,1.21-1.21C89.45,76.23,88.91,75.69,88.24,75.69z
		 M88.24,157.77c0.82,0,1.48-0.66,1.48-1.48c0-0.81-0.66-1.48-1.48-1.48c-0.81,0-1.48,0.67-1.48,1.48
		C86.76,157.1,87.43,157.77,88.24,157.77z M102.32,116.59c0,0.05,0.04,0.1,0.09,0.1c0.05,0,0.1-0.04,0.1-0.1
		c0-0.05-0.04-0.1-0.1-0.1C102.37,116.5,102.32,116.54,102.32,116.59z M102.42,163.39c0.79,0,1.43-0.64,1.43-1.43
		c0-0.79-0.64-1.43-1.43-1.43c-0.79,0-1.43,0.64-1.43,1.43C100.99,162.75,101.63,163.39,102.42,163.39z M108.04,116.59
		c0,0.03,0.02,0.05,0.05,0.05c0.03,0,0.05-0.02,0.05-0.05c0-0.03-0.02-0.05-0.05-0.05C108.06,116.55,108.04,116.57,108.04,116.59z
		 M108.09,70.16c-0.59,0-1.07,0.48-1.07,1.07c0,0.59,0.48,1.07,1.07,1.07c0.59,0,1.07-0.48,1.07-1.07
		C109.16,70.64,108.68,70.16,108.09,70.16z M105.36,110.92c0-0.06-0.05-0.11-0.11-0.11c-0.06,0-0.11,0.05-0.11,0.11
		c0,0.06,0.05,0.11,0.11,0.11C105.31,111.03,105.36,110.99,105.36,110.92z M108.09,105.14c-0.06,0-0.11,0.05-0.11,0.11
		c0,0.06,0.05,0.11,0.11,0.11c0.06,0,0.11-0.05,0.11-0.11C108.2,105.19,108.15,105.14,108.09,105.14z M105.25,64.1
		c-0.81,0-1.46,0.66-1.46,1.46c0,0.81,0.65,1.46,1.46,1.46c0.81,0,1.46-0.66,1.46-1.46C106.71,64.75,106.06,64.1,105.25,64.1z
		 M105.25,122.4c0.08,0,0.14-0.06,0.14-0.14c0-0.08-0.06-0.14-0.14-0.14c-0.08,0-0.14,0.06-0.14,0.14
		C105.11,122.34,105.18,122.4,105.25,122.4z M108.09,151.4c0.43,0,0.79-0.35,0.79-0.79c0-0.43-0.35-0.79-0.79-0.79
		c-0.43,0-0.79,0.35-0.79,0.79C107.3,151.05,107.65,151.4,108.09,151.4z M107.91,127.93c0,0.1,0.08,0.17,0.17,0.17
		c0.1,0,0.17-0.08,0.17-0.17c0-0.09-0.08-0.17-0.17-0.17C107.99,127.76,107.91,127.84,107.91,127.93z M108.67,82.57
		c0-0.32-0.26-0.58-0.58-0.58c-0.32,0-0.58,0.26-0.58,0.58c0,0.32,0.26,0.58,0.58,0.58C108.41,83.15,108.67,82.89,108.67,82.57z
		 M88.24,145.89c0.52,0,0.95-0.42,0.95-0.94c0-0.52-0.42-0.94-0.95-0.94c-0.52,0-0.94,0.42-0.94,0.94
		C87.3,145.47,87.72,145.89,88.24,145.89z M108.37,93.91c0-0.16-0.13-0.28-0.28-0.28c-0.16,0-0.28,0.13-0.28,0.28
		c0,0.15,0.12,0.28,0.28,0.28C108.24,94.2,108.37,94.07,108.37,93.91z M107.68,139.28c0,0.23,0.18,0.41,0.41,0.41
		c0.23,0,0.41-0.18,0.41-0.41c0-0.23-0.18-0.41-0.41-0.41C107.86,138.87,107.68,139.05,107.68,139.28z M108.09,163.36
		c0.77,0,1.4-0.62,1.4-1.4c0-0.78-0.63-1.4-1.4-1.4c-0.77,0-1.4,0.62-1.4,1.4C106.69,162.73,107.31,163.36,108.09,163.36z
		 M147.78,170.04c-1.34,0-2.49,0.81-2.99,1.96c-0.48-1-1.5-1.7-2.69-1.7c-1.53,0-2.78,1.16-2.95,2.64
		c-0.17-1.36-1.31-2.41-2.72-2.41c-1.52,0-2.75,1.23-2.75,2.75c0,1.52,1.23,2.75,2.75,2.75c1.4,0,2.55-1.05,2.72-2.41
		c0.15,1.28,1.09,2.3,2.33,2.57c1.12-0.51,2.21-1.04,3.3-1.61c0-0.01,0.01-0.01,0.01-0.02c0,0,0,0,0.01,0.01
		c1.91-1,3.77-2.08,5.57-3.24C149.78,170.56,148.85,170.04,147.78,170.04z M136.33,177.55c-0.52-0.98-1.54-1.66-2.72-1.66
		c-1.35,0-2.48,0.87-2.9,2.08c-0.41-1.13-1.49-1.95-2.77-1.95c-1.41,0-2.59,1-2.88,2.32c-0.29-1.28-1.42-2.23-2.79-2.23
		c-1.57,0-2.84,1.27-2.86,2.83c-0.02-1.54-1.27-2.79-2.81-2.79c-1.55,0-2.81,1.26-2.81,2.81c0,1.56,1.26,2.81,2.81,2.81
		c1.55,0,2.8-1.25,2.81-2.78c0.02,1.53,1.23,2.77,2.76,2.82c0.29-0.04,0.59-0.07,0.88-0.11c0.11-0.03,0.22-0.05,0.32-0.1
		c-0.03,0.02-0.05,0.04-0.09,0.06c0.85-0.13,1.68-0.29,2.52-0.45c-0.22-0.05-0.45-0.09-0.7-0.09c-0.48,0-0.94,0.1-1.35,0.27
		c0.65-0.4,1.13-1.04,1.3-1.81c0.14,0.63,0.49,1.18,0.96,1.58c1.56-0.3,3.1-0.66,4.62-1.07c0.02-0.05,0.05-0.09,0.07-0.14
		c0.01,0.04,0.04,0.07,0.05,0.11c3.61-0.97,7.1-2.23,10.45-3.74c-0.55-0.4-1.2-0.66-1.93-0.66
		C137.97,175.68,136.86,176.45,136.33,177.55z M113.74,178.97c0-1.55-1.26-2.81-2.81-2.81c-1.54,0-2.79,1.24-2.81,2.79
		c-0.02-1.57-1.29-2.83-2.86-2.83c-1.36,0-2.5,0.96-2.79,2.23c-0.29-1.33-1.47-2.32-2.88-2.32c-1.26,0-2.33,0.79-2.75,1.9
		c-0.43-1.2-1.57-2.06-2.92-2.06c-1.19,0-2.21,0.68-2.74,1.66c-0.54-1.08-1.64-1.83-2.93-1.83c-1.11,0-2.09,0.56-2.69,1.4
		c-0.63-0.99-1.73-1.65-2.98-1.65c-0.21,0-0.4,0.04-0.59,0.08c4.59,2.23,9.46,3.95,14.54,5.14c0.12-0.19,0.23-0.4,0.31-0.62
		c0.12,0.3,0.29,0.56,0.49,0.8c2.38,0.53,4.81,0.94,7.28,1.21c-0.59-0.5-1.35-0.81-2.19-0.81c-0.46,0-0.91,0.09-1.31,0.27
		c0.68-0.42,1.19-1.09,1.37-1.89c0.29,1.28,1.42,2.23,2.79,2.23c1.57,0,2.84-1.27,2.86-2.83c0.02,1.54,1.27,2.78,2.81,2.78
		C112.48,181.78,113.74,180.53,113.74,178.97z M85.41,176.08c1.54,0,2.78-1.24,2.78-2.78c0-1.54-1.24-2.78-2.78-2.78
		c-1.33,0-2.44,0.93-2.71,2.18c-0.28-1.38-1.5-2.41-2.96-2.41c-1.18,0-2.19,0.68-2.68,1.66c-0.52-1.14-1.66-1.93-2.99-1.93
		c-0.33,0-0.64,0.06-0.94,0.15c0.52-0.39,0.91-0.93,1.12-1.56c0.4,1.09,1.44,1.87,2.67,1.87c1.57,0,2.84-1.27,2.84-2.85
		c0-1.57-1.28-2.85-2.84-2.85c-1.23,0-2.27,0.78-2.67,1.87c-0.41-1.27-1.59-2.2-3.01-2.2c-1.09,0-2.06,0.55-2.63,1.4
		c-0.62-1.04-1.74-1.76-3.04-1.76c-0.11,0-0.22,0.02-0.33,0.03c4.93,4.52,10.52,8.34,16.6,11.31c0.42-0.41,0.74-0.93,0.86-1.53
		C82.97,175.15,84.08,176.08,85.41,176.08z M68.39,164.68c1.5,0,2.72-1.22,2.72-2.72c0-1.5-1.22-2.72-2.72-2.72
		c-1.27,0-2.33,0.88-2.63,2.06c-0.3-1.4-1.55-2.46-3.04-2.46c-0.77,0-1.46,0.29-2.01,0.75c1.38,1.52,2.84,2.97,4.35,4.37
		c0.33-0.38,0.59-0.83,0.7-1.35C66.06,163.8,67.12,164.68,68.39,164.68z M181.7,101.85c-0.43,0.01-0.83,0.1-1.21,0.25
		c0.41-0.25,0.76-0.59,1-1c0.03,0.05,0.07,0.09,0.09,0.14c-1.94-11.98-6.91-22.93-14.11-32.05c-0.04,0.06-0.08,0.12-0.12,0.18
		c-0.09-0.12-0.17-0.23-0.27-0.33c0.1,0.01,0.19,0.02,0.29,0.03c-3.28-4.14-7.02-7.9-11.15-11.21c-0.05,0.08-0.1,0.16-0.15,0.25
		c-0.07-0.11-0.16-0.21-0.25-0.3c0.13,0.01,0.25,0.03,0.38,0.04c-11.98-9.6-27.17-15.34-43.71-15.34c-8.45,0-16.55,1.5-24.04,4.24
		c0.02,0,0.04-0.01,0.06-0.01c-0.06,0.08-0.11,0.18-0.16,0.26c-0.03-0.06-0.06-0.12-0.1-0.18c-13.8,5.1-25.55,14.41-33.69,26.39
		c0.13,0.16,0.27,0.31,0.43,0.45c-0.22-0.05-0.44-0.08-0.67-0.09c-3.48,5.19-6.26,10.86-8.27,16.9c0.14,0.15,0.29,0.29,0.45,0.41
		c-0.18-0.04-0.37-0.07-0.56-0.08c-1.29,3.97-2.24,8.09-2.8,12.33c0.28-0.03,0.56-0.08,0.82-0.16c-0.31,0.24-0.56,0.53-0.75,0.87
		c-0.03-0.08-0.09-0.14-0.13-0.21c-0.16,1.27-0.29,2.54-0.38,3.83c0.2-0.24,0.38-0.49,0.51-0.78c0.5,0.88,1.43,1.47,2.5,1.47
		c1.6,0,2.89-1.3,2.89-2.89c0-1.6-1.3-2.89-2.89-2.89c-0.26,0-0.51,0.04-0.75,0.11c0.45-0.32,0.81-0.75,1.07-1.24
		c0.54,0.82,1.47,1.37,2.53,1.37c1.67,0,3.02-1.35,3.02-3.02c0-1.67-1.35-3.02-3.02-3.02c-1.06,0-1.98,0.54-2.53,1.37
		c-0.18-0.34-0.4-0.65-0.67-0.91c0.12,0.01,0.23,0.04,0.36,0.04c1.59,0,2.9-1.19,3.11-2.72c0.2,1.24,1.27,2.19,2.57,2.19
		c1.44,0,2.61-1.17,2.61-2.61s-1.17-2.61-2.61-2.61c-1.3,0-2.37,0.95-2.57,2.19c-0.11-0.82-0.54-1.54-1.16-2.04
		c0.29,0.08,0.58,0.14,0.9,0.14c1.43,0,2.64-0.9,3.12-2.17c0.45,0.96,1.42,1.63,2.55,1.63c1.55,0,2.81-1.26,2.81-2.82
		c0-1.55-1.26-2.81-2.81-2.81c-1.13,0-2.1,0.67-2.55,1.63c-0.25-0.67-0.71-1.24-1.3-1.63c0.32,0.11,0.66,0.19,1.02,0.19
		c1.68,0,3.05-1.37,3.05-3.05c0-1.06-0.54-1.98-1.35-2.53c0.36,0.13,0.73,0.21,1.13,0.21c1.41,0,2.61-0.87,3.1-2.11
		c0.47,0.96,1.43,1.62,2.56,1.62c1.58,0,2.87-1.28,2.87-2.86c0-1.58-1.28-2.87-2.87-2.87c-1.13,0-2.1,0.67-2.56,1.62
		c-0.21-0.52-0.55-0.97-0.97-1.32c0.23,0.05,0.46,0.08,0.7,0.08c1.45,0,2.66-0.97,3.05-2.29c0.37,1.09,1.4,1.89,2.62,1.89
		c1.54,0,2.78-1.25,2.78-2.78c0-1.54-1.24-2.79-2.78-2.79c-1.22,0-2.25,0.79-2.62,1.89c-0.14-0.47-0.38-0.9-0.71-1.25
		c0.16,0.02,0.32,0.05,0.49,0.05c1.32,0,2.46-0.73,3.08-1.79c0.56,0.83,1.51,1.37,2.59,1.37c1.45,0,2.66-0.99,3.02-2.32
		c0.35,1.14,1.4,1.97,2.65,1.97c1.54,0,2.78-1.25,2.78-2.79c0-1.54-1.25-2.78-2.78-2.78c-1.25,0-2.29,0.83-2.65,1.96
		c-0.36-1.34-1.57-2.33-3.02-2.33c-0.12,0-0.24,0.03-0.36,0.04c0.23-0.21,0.41-0.47,0.58-0.74c0.57,0.83,1.53,1.37,2.62,1.37
		c1.4,0,2.58-0.91,3.01-2.16c0.41,1.07,1.45,1.83,2.66,1.83c1.58,0,2.86-1.28,2.86-2.87c0-1.58-1.28-2.86-2.86-2.86
		c-0.2,0-0.39,0.02-0.58,0.06c0.3-0.24,0.57-0.5,0.78-0.82c0.61,0.79,1.56,1.3,2.63,1.3c1.32,0,2.46-0.78,3-1.89
		c0.52,0.95,1.51,1.6,2.67,1.6c1.44,0,2.64-1,2.96-2.34c0.32,1.21,1.41,2.1,2.71,2.1c1.55,0,2.81-1.26,2.81-2.81
		s-1.26-2.81-2.81-2.81c-1.3,0-2.39,0.89-2.71,2.1c-0.18-0.75-0.63-1.4-1.26-1.82c0.36,0.13,0.73,0.21,1.13,0.21
		c1.29,0,2.39-0.74,2.95-1.8c0.54,0.95,1.55,1.59,2.72,1.59c1.31,0,2.43-0.8,2.9-1.94c0.46,1.07,1.53,1.81,2.77,1.81
		c1.39,0,2.55-0.95,2.9-2.23c0.35,1.21,1.45,2.1,2.77,2.1c1.46,0,2.65-1.08,2.85-2.47c0.2,1.38,1.38,2.44,2.82,2.44
		c1.49,0,2.7-1.14,2.84-2.6c0.13,1.45,1.34,2.6,2.83,2.6c1.44,0,2.62-1.06,2.82-2.44c0.21,1.39,1.4,2.47,2.85,2.47
		c1.34,0,2.46-0.92,2.79-2.15c0.33,1.29,1.49,2.25,2.88,2.25c1.24,0,2.3-0.75,2.75-1.83c0.46,1.16,1.59,1.98,2.92,1.98
		c1.18,0,2.2-0.66,2.74-1.62c0.55,1.06,1.65,1.8,2.93,1.8c1.12,0,2.1-0.55,2.7-1.4c0.63,0.97,1.72,1.62,2.97,1.62
		c0.26,0,0.51-0.03,0.75-0.08c-0.43,0.4-0.73,0.92-0.88,1.5c-0.31-1.21-1.4-2.1-2.71-2.1c-1.55,0-2.81,1.26-2.81,2.81
		s1.26,2.81,2.81,2.81c1.31,0,2.4-0.89,2.71-2.1c0.32,1.34,1.52,2.34,2.96,2.34c1.17,0,2.17-0.67,2.68-1.63
		c0.53,1.12,1.66,1.9,2.99,1.9c0.31,0,0.6-0.05,0.88-0.13c-0.49,0.38-0.86,0.91-1.05,1.51c-0.4-1.09-1.44-1.87-2.66-1.87
		c-1.57,0-2.85,1.28-2.85,2.85c0,1.57,1.28,2.85,2.85,2.85c1.22,0,2.26-0.78,2.66-1.87c0.41,1.27,1.6,2.2,3.01,2.2
		c1.09,0,2.06-0.55,2.63-1.39c0.62,1.04,1.74,1.75,3.04,1.75c0.21,0,0.43-0.03,0.63-0.06c-0.4,0.4-0.69,0.91-0.82,1.48
		c-0.31-1.17-1.38-2.04-2.65-2.04c-1.52,0-2.75,1.23-2.75,2.75c0,1.52,1.23,2.75,2.75,2.75c1.27,0,2.33-0.87,2.65-2.04
		c0.32,1.38,1.55,2.4,3.03,2.4c1.08,0,2.04-0.56,2.59-1.4c0.17,0.3,0.37,0.58,0.61,0.81c-0.12-0.01-0.24-0.04-0.37-0.04
		c-1.49,0-2.73,1.03-3.07,2.41c-0.33-1.13-1.36-1.96-2.6-1.96c-1.5,0-2.72,1.22-2.72,2.72c0,1.5,1.22,2.72,2.72,2.72
		c1.23,0,2.26-0.83,2.6-1.96c0.34,1.38,1.58,2.41,3.07,2.41c1.06,0,1.99-0.52,2.57-1.31c0.25,0.41,0.58,0.78,0.96,1.06
		c-0.22-0.06-0.46-0.1-0.7-0.1c-1.57,0-2.85,1.28-2.85,2.85c0,1.57,1.27,2.85,2.85,2.85c1.16,0,2.16-0.7,2.6-1.7
		c0.47,1.25,1.66,2.14,3.07,2.14c0.09,0,0.17-0.02,0.26-0.03c-0.22,0.24-0.4,0.51-0.55,0.79c-0.54-0.84-1.47-1.4-2.54-1.4
		c-1.67,0-3.02,1.35-3.02,3.02c0,1.67,1.35,3.02,3.02,3.02c1.07,0,2.01-0.56,2.54-1.4c0.59,1.14,1.76,1.92,3.13,1.92
		c0.13,0,0.26-0.02,0.38-0.04c-0.29,0.32-0.5,0.7-0.65,1.12c-0.42-1.01-1.41-1.73-2.57-1.73c-1.54,0-2.78,1.25-2.78,2.78
		c0,1.54,1.25,2.79,2.78,2.79c1.16,0,2.16-0.71,2.57-1.73c0.24,0.7,0.7,1.3,1.3,1.69c-0.33-0.12-0.68-0.19-1.04-0.19
		c-1.68,0-3.04,1.34-3.1,3.01c-0.06-1.37-1.18-2.47-2.57-2.47c-1.42,0-2.58,1.16-2.58,2.58s1.15,2.58,2.58,2.58
		c1.39,0,2.51-1.1,2.57-2.47c0.06,1.67,1.42,3.01,3.1,3.01c1.03,0,1.95-0.51,2.51-1.29c0.21,0.36,0.47,0.67,0.77,0.94
		c-0.15-0.03-0.29-0.05-0.45-0.05c-1.63,0-2.96,1.32-2.96,2.96c0,1.63,1.32,2.96,2.96,2.96c0.4,0,0.79-0.08,1.14-0.23
		c-0.64,0.37-1.16,0.93-1.45,1.62c-0.48-0.92-1.42-1.54-2.53-1.54c-1.58,0-2.86,1.29-2.86,2.87c0,1.58,1.28,2.86,2.86,2.86
		c1.1,0,2.05-0.63,2.53-1.54c0.51,1.23,1.73,2.09,3.14,2.09c0.12,0,0.24-0.03,0.37-0.04c-0.29,0.31-0.52,0.68-0.67,1.08
		c-0.46-0.94-1.41-1.6-2.53-1.6c-1.55,0-2.81,1.26-2.81,2.81c0,1.56,1.26,2.81,2.81,2.81c1.12,0,2.07-0.65,2.53-1.6
		c0.16,0.42,0.4,0.79,0.71,1.11c-0.13-0.02-0.26-0.04-0.4-0.04c-1.43,0-2.65,0.9-3.14,2.16c-0.46-0.94-1.41-1.6-2.53-1.6
		c-1.55,0-2.81,1.26-2.81,2.81c0,1.55,1.26,2.82,2.81,2.82c1.12,0,2.07-0.65,2.53-1.6c0.49,1.27,1.71,2.16,3.14,2.16
		c0.1,0,0.2-0.01,0.3-0.03c0.26-2.45,0.4-4.93,0.4-7.44C182.5,108.88,182.22,105.32,181.7,101.85z M48.55,84.89
		c-0.05,0-0.11,0.01-0.16,0.02c0.18-0.2,0.33-0.42,0.45-0.65c0.22,0.33,0.51,0.62,0.84,0.85C49.33,84.97,48.95,84.89,48.55,84.89z
		 M51.38,79.52c-0.01,0-0.02,0-0.03,0c0.13-0.13,0.25-0.28,0.35-0.43c0.21,0.23,0.44,0.44,0.7,0.61
		C52.08,79.6,51.74,79.52,51.38,79.52z M62.97,63.78c-0.07-0.11-0.13-0.22-0.21-0.32c0.18,0,0.35-0.03,0.52-0.05
		C63.17,63.52,63.06,63.64,62.97,63.78z M71.4,58.86c-0.13-0.38-0.32-0.72-0.58-1.02c0.14,0.02,0.27,0.04,0.4,0.04
		c0.34,0,0.66-0.06,0.97-0.15C71.85,58.04,71.57,58.42,71.4,58.86z M79.9,52.76c-0.12-0.24-0.27-0.47-0.44-0.67
		c0.09,0.01,0.18,0.03,0.27,0.03c0.24,0,0.47-0.03,0.7-0.07C80.22,52.26,80.05,52.5,79.9,52.76z M82.57,51.17
		c-0.17,0-0.33,0.02-0.49,0.05c0.23-0.21,0.45-0.44,0.62-0.7c0.24,0.33,0.54,0.62,0.88,0.84C83.27,51.24,82.93,51.17,82.57,51.17z
		 M93.98,47.35c-0.12-0.3-0.3-0.57-0.51-0.82c0.15,0.02,0.29,0.05,0.45,0.05c0.21,0,0.42-0.03,0.62-0.06
		C94.31,46.76,94.12,47.03,93.98,47.35z M96.75,45.53c-0.1,0-0.21,0.02-0.31,0.03c0.14-0.13,0.27-0.28,0.39-0.44
		c0.14,0.17,0.29,0.32,0.45,0.46C97.11,45.55,96.93,45.53,96.75,45.53z M99.65,47.76c-0.15-0.54-0.44-1.02-0.83-1.4
		c0.25,0.05,0.5,0.08,0.77,0.08c0.38,0,0.74-0.07,1.08-0.18C100.18,46.63,99.82,47.15,99.65,47.76z M102.42,45.65
		c-0.26,0-0.51,0.05-0.75,0.11c0.31-0.23,0.59-0.5,0.82-0.82c0.28,0.38,0.64,0.69,1.05,0.93C103.19,45.73,102.81,45.65,102.42,45.65
		z M119.43,45.65c-1.46,0-2.65,1.08-2.85,2.47c-0.2-1.38-1.38-2.44-2.82-2.44c-1.49,0-2.7,1.14-2.83,2.6
		c-0.13-1.46-1.35-2.6-2.84-2.6c-1.44,0-2.62,1.06-2.82,2.44c-0.13-0.87-0.64-1.61-1.36-2.04c0.41,0.17,0.87,0.27,1.34,0.27
		c1.19,0,2.25-0.6,2.88-1.52c0.62,0.88,1.64,1.46,2.79,1.46c1.18,0,2.22-0.6,2.83-1.51c0.61,0.91,1.65,1.51,2.83,1.51
		c1.16,0,2.18-0.58,2.8-1.46c0.3,0.44,0.7,0.79,1.16,1.05C120.2,45.73,119.82,45.65,119.43,45.65z M122.22,47.81
		c-0.2-0.73-0.66-1.35-1.29-1.73c0.41,0.17,0.87,0.27,1.34,0.27c0.36,0,0.71-0.07,1.04-0.18C122.77,46.58,122.38,47.15,122.22,47.81
		z M125.1,45.56c-0.28,0-0.54,0.05-0.8,0.12c0.28-0.21,0.53-0.46,0.74-0.73c0.18,0.25,0.4,0.47,0.63,0.67
		C125.49,45.58,125.3,45.56,125.1,45.56z M127.85,47.39c-0.17-0.41-0.44-0.76-0.77-1.05c0.27,0.07,0.55,0.11,0.85,0.11
		c0.19,0,0.37-0.03,0.56-0.05C128.22,46.68,128,47.01,127.85,47.39z M130.77,45.4c-0.12,0-0.24,0.02-0.36,0.03
		c0.1-0.1,0.19-0.21,0.28-0.32c0.08,0.11,0.16,0.2,0.25,0.3C130.88,45.42,130.83,45.4,130.77,45.4z M133.51,47.03
		c-0.1-0.18-0.22-0.35-0.35-0.5c0.15,0.02,0.29,0.05,0.44,0.05c0.07,0,0.13-0.02,0.2-0.02C133.69,46.7,133.6,46.86,133.51,47.03z
		 M144.95,51.17c-0.19,0-0.37,0.02-0.55,0.05c0.13-0.11,0.25-0.23,0.36-0.36c0.08,0.11,0.16,0.22,0.26,0.31
		C144.99,51.17,144.97,51.17,144.95,51.17z M147.63,52.8c-0.09-0.17-0.2-0.33-0.31-0.48c0.15,0.02,0.3,0.04,0.46,0.04
		c0.03,0,0.05-0.01,0.09-0.01C147.78,52.5,147.7,52.65,147.63,52.8z M153.45,56.71c-0.28,0-0.55,0.05-0.81,0.12
		c0.23-0.18,0.44-0.39,0.62-0.62c0.12,0.19,0.27,0.37,0.42,0.53C153.6,56.73,153.53,56.71,153.45,56.71z M170.23,75.76
		c-0.19-0.43-0.48-0.79-0.84-1.08c0.34,0.11,0.7,0.18,1.07,0.18c0.1,0,0.2-0.02,0.3-0.03C170.54,75.11,170.36,75.42,170.23,75.76z
		 M178.64,92.09c-0.22-0.3-0.48-0.56-0.79-0.76c0.35,0.13,0.72,0.21,1.11,0.21c0.03,0,0.05-0.01,0.08-0.01
		C178.9,91.7,178.76,91.88,178.64,92.09z M178.97,119.4c-1.58,0-2.86,1.28-2.86,2.86c0,1.58,1.28,2.86,2.86,2.86
		c0.39,0,0.76-0.08,1.1-0.22c-0.61,0.35-1.1,0.88-1.41,1.51c-0.52-0.86-1.45-1.44-2.52-1.44c-1.63,0-2.96,1.32-2.96,2.96
		c0,1.63,1.32,2.96,2.96,2.96c1.07,0,2.01-0.58,2.52-1.44c0.21,0.43,0.51,0.81,0.87,1.13c-0.18-0.03-0.37-0.05-0.56-0.05
		c-1.7,0-3.08,1.38-3.08,3.08c0,1.13,0.61,2.1,1.51,2.64c-0.39-0.16-0.81-0.25-1.26-0.25c-1.46,0-2.69,0.96-3.12,2.28
		c-0.4-1.02-1.39-1.75-2.56-1.75c-1.52,0-2.75,1.23-2.75,2.75c0,1.52,1.23,2.75,2.75,2.75c1.16,0,2.16-0.73,2.56-1.75
		c0.39,1.2,1.44,2.1,2.72,2.25c0.89-1.87,1.7-3.79,2.43-5.75c-0.13-0.11-0.24-0.24-0.39-0.33c0.15,0.06,0.31,0.11,0.46,0.14
		c1.43-3.89,2.5-7.95,3.22-12.13c-0.35,0.04-0.69,0.11-1.01,0.24c0.44-0.27,0.8-0.66,1.04-1.12c0.03,0.06,0.06,0.12,0.09,0.18
		c0.2-1.24,0.37-2.48,0.51-3.74c-0.24,0.28-0.46,0.58-0.6,0.93C181.02,120.03,180.07,119.4,178.97,119.4z M62.94,157.1
		c0.35,1.12,1.38,1.94,2.62,1.94c1.52,0,2.75-1.23,2.75-2.75c0-1.52-1.23-2.75-2.75-2.75c-1.23,0-2.27,0.82-2.62,1.93
		c-0.36-1.36-1.59-2.36-3.06-2.36c-1.06,0-1.99,0.52-2.56,1.32c-0.25-0.41-0.57-0.77-0.96-1.06c0.22,0.05,0.45,0.09,0.69,0.09
		c1.57,0,2.85-1.27,2.85-2.85s-1.27-2.85-2.85-2.85c-1.15,0-2.13,0.68-2.58,1.66c-0.27-0.71-0.78-1.29-1.43-1.67
		c0.36,0.15,0.76,0.23,1.18,0.23c1.68,0,3.05-1.37,3.05-3.05c0-1.69-1.37-3.05-3.05-3.05c-1.08,0-2.02,0.56-2.56,1.4
		c-0.56-1.05-1.63-1.78-2.89-1.86c0.84,1.84,1.75,3.64,2.73,5.38c0.05-0.08,0.12-0.14,0.16-0.23c0.26,0.39,0.6,0.72,1,0.96
		c-0.27-0.12-0.56-0.18-0.87-0.21c2.49,4.33,5.41,8.37,8.74,12.05C61.71,159.15,62.64,158.25,62.94,157.1z M167.4,149.56
		c-0.42-1.03-1.42-1.76-2.6-1.76c-1.55,0-2.81,1.26-2.81,2.81c0,1.55,1.26,2.81,2.81,2.81c1.18,0,2.19-0.73,2.6-1.76
		c0.24,0.69,0.69,1.28,1.29,1.67c-0.33-0.12-0.68-0.2-1.05-0.2c-1.51,0-2.77,1.06-3.07,2.48c-0.3-1.16-1.34-2.03-2.6-2.03
		c-1.49,0-2.69,1.21-2.69,2.69c0,1.49,1.2,2.69,2.69,2.69c1.25,0,2.3-0.87,2.6-2.03c0.12,0.56,0.4,1.05,0.77,1.46
		c2.74-3.15,5.2-6.54,7.35-10.13c-0.58-0.55-1.34-0.91-2.21-0.91C169.04,147.36,167.84,148.29,167.4,149.56z M153.28,166.76
		c-0.37-1.12-1.41-1.94-2.66-1.94c-1.55,0-2.81,1.26-2.81,2.81c0,1.55,1.26,2.81,2.81,2.81c0.3,0,0.58-0.06,0.85-0.14
		c-0.39,0.26-0.71,0.59-0.97,0.98c0.74-0.48,1.47-0.97,2.19-1.48c-0.15,0.04-0.31,0.08-0.45,0.13c0.49-0.35,0.85-0.84,1.04-1.43
		c0.07,0.24,0.16,0.47,0.29,0.68c1.67-1.22,3.29-2.51,4.85-3.86c-0.56-0.51-1.3-0.83-2.12-0.83
		C154.85,164.48,153.66,165.45,153.28,166.76z M161.72,160.3c-0.55-0.86-1.5-1.43-2.59-1.43c-1.53,0-2.79,1.12-3.03,2.59
		c-0.23-1.25-1.32-2.19-2.64-2.19c-1.48,0-2.69,1.2-2.69,2.69c0,1.48,1.2,2.69,2.69,2.69c1.32,0,2.41-0.95,2.64-2.19
		c0.22,1.35,1.31,2.39,2.68,2.55c2.3-2.03,4.46-4.2,6.47-6.51c-0.15-0.02-0.29-0.04-0.45-0.04
		C163.46,158.45,162.31,159.21,161.72,160.3z M175.74,99.58c0-1.35-1.09-2.44-2.44-2.44c-1.35,0-2.44,1.09-2.44,2.44
		c0,1.35,1.09,2.44,2.44,2.44C174.64,102.02,175.74,100.93,175.74,99.58z M51.38,142.09c1.55,0,2.81-1.26,2.81-2.82
		c0-1.55-1.26-2.82-2.81-2.82c-1.15,0-2.13,0.69-2.57,1.67c-0.23-0.61-0.62-1.14-1.14-1.52c0.28,0.08,0.57,0.14,0.88,0.14
		c1.59,0,2.89-1.19,3.1-2.72c0.2,1.24,1.27,2.19,2.57,2.19c1.44,0,2.61-1.17,2.61-2.61c0-1.44-1.17-2.61-2.61-2.61
		c-1.3,0-2.37,0.95-2.57,2.19c-0.21-1.54-1.51-2.73-3.1-2.73c-1.03,0-1.93,0.5-2.51,1.27c-0.19-0.31-0.41-0.6-0.68-0.84
		c0.12,0.02,0.23,0.04,0.35,0.04c1.65,0,2.99-1.34,2.99-2.99c0-1.65-1.34-2.99-2.99-2.99c-0.28,0-0.54,0.05-0.8,0.12
		c0.49-0.35,0.88-0.83,1.13-1.38c0.5,0.88,1.43,1.47,2.51,1.47c1.6,0,2.89-1.29,2.89-2.89c0-1.6-1.29-2.9-2.89-2.9
		c-1.08,0-2.01,0.6-2.51,1.47c-0.54-1.21-1.75-2.05-3.17-2.05c-0.03,0-0.05,0.01-0.08,0.01c0.21,2.3,0.53,4.58,0.95,6.81
		c0.06-0.01,0.12-0.02,0.17-0.04c-0.06,0.04-0.09,0.11-0.15,0.16c0.67,3.53,1.61,6.96,2.79,10.27c0.04,0.04,0.07,0.08,0.12,0.12
		c-0.03-0.01-0.06-0.01-0.09-0.02c0.59,1.66,1.26,3.28,1.97,4.87c0.1-0.17,0.19-0.36,0.26-0.55
		C49.25,141.4,50.23,142.09,51.38,142.09z M88.24,122.71c0.24,0,0.44-0.2,0.44-0.44c0-0.24-0.2-0.44-0.44-0.44
		c-0.24,0-0.44,0.2-0.44,0.44C87.8,122.51,88,122.71,88.24,122.71z M48.91,127.93c0,1.36,1.11,2.47,2.47,2.47
		c1.36,0,2.47-1.11,2.47-2.47c0-1.36-1.11-2.47-2.47-2.47C50.02,125.47,48.91,126.57,48.91,127.93z M88.24,134.21
		c0.33,0,0.6-0.27,0.6-0.6c0-0.33-0.27-0.6-0.6-0.6c-0.33,0-0.6,0.27-0.6,0.6C87.64,133.93,87.91,134.21,88.24,134.21z M88.24,99.06
		c-0.29,0-0.52,0.23-0.52,0.52c0,0.29,0.23,0.52,0.52,0.52c0.29,0,0.52-0.23,0.52-0.52C88.76,99.3,88.53,99.06,88.24,99.06z
		 M88.24,111.33c0.23,0,0.41-0.18,0.41-0.41c0-0.22-0.18-0.41-0.41-0.41c-0.22,0-0.41,0.18-0.41,0.41
		C87.83,111.15,88.02,111.33,88.24,111.33z M168.13,105.25c0,1.28,1.04,2.33,2.33,2.33c1.29,0,2.33-1.04,2.33-2.33
		c0-1.29-1.04-2.33-2.33-2.33C169.18,102.93,168.13,103.97,168.13,105.25z M88.24,87.47c-0.42,0-0.77,0.34-0.77,0.77
		c0,0.43,0.35,0.77,0.77,0.77c0.43,0,0.77-0.35,0.77-0.77C89.01,87.81,88.67,87.47,88.24,87.47z M56.58,122.27
		c0-1.3-1.05-2.36-2.36-2.36c-1.3,0-2.36,1.05-2.36,2.36c0,1.3,1.05,2.36,2.36,2.36C55.52,124.62,56.58,123.57,56.58,122.27z
		 M170.75,133.61c0,1.4,1.14,2.55,2.55,2.55s2.55-1.14,2.55-2.55c0-1.41-1.14-2.54-2.55-2.54S170.75,132.2,170.75,133.61z
		 M170.46,125.53c-1.33,0-2.4,1.08-2.4,2.4c0,1.33,1.08,2.41,2.4,2.41c1.33,0,2.41-1.08,2.41-2.41
		C172.87,126.61,171.79,125.53,170.46,125.53z M91.08,81.77c-0.44,0-0.8,0.36-0.8,0.8c0,0.45,0.36,0.8,0.8,0.8
		c0.44,0,0.8-0.36,0.8-0.8C91.88,82.13,91.52,81.77,91.08,81.77z M93.91,75.86c-0.57,0-1.04,0.46-1.04,1.04
		c0,0.57,0.46,1.04,1.04,1.04c0.57,0,1.04-0.46,1.04-1.04C94.95,76.33,94.48,75.86,93.91,75.86z M93.91,157.59
		c0.72,0,1.3-0.58,1.3-1.31c0-0.72-0.58-1.3-1.3-1.3c-0.72,0-1.31,0.58-1.31,1.3C92.61,157.01,93.19,157.59,93.91,157.59z
		 M91.08,116.31c-0.16,0-0.29,0.13-0.29,0.29c0,0.16,0.13,0.28,0.29,0.28c0.15,0,0.28-0.13,0.28-0.28
		C91.36,116.44,91.23,116.31,91.08,116.31z M91.08,104.94c-0.18,0-0.32,0.14-0.32,0.32c0,0.17,0.14,0.31,0.32,0.31
		c0.17,0,0.31-0.14,0.31-0.31C91.39,105.08,91.25,104.94,91.08,104.94z M105.47,99.58c0-0.12-0.1-0.22-0.22-0.22
		c-0.12,0-0.22,0.1-0.22,0.22c0,0.12,0.1,0.22,0.22,0.22C105.38,99.8,105.47,99.7,105.47,99.58z M91.08,69.89
		c-0.74,0-1.34,0.6-1.34,1.34c0,0.74,0.6,1.34,1.34,1.34c0.74,0,1.33-0.6,1.33-1.34C92.41,70.49,91.81,69.89,91.08,69.89z
		 M93.91,111.21c0.15,0,0.28-0.13,0.28-0.29c0-0.15-0.13-0.28-0.28-0.28c-0.16,0-0.28,0.13-0.28,0.28
		C93.63,111.08,93.76,111.21,93.91,111.21z M93.91,122.58c0.17,0,0.31-0.14,0.31-0.31c0-0.17-0.14-0.32-0.31-0.32
		c-0.17,0-0.32,0.14-0.32,0.32C93.6,122.44,93.74,122.58,93.91,122.58z M93.91,134.08c0.26,0,0.47-0.21,0.47-0.47
		c0-0.26-0.21-0.47-0.47-0.47c-0.26,0-0.47,0.21-0.47,0.47C93.44,133.87,93.65,134.08,93.91,134.08z M93.91,63.86
		c-0.94,0-1.7,0.76-1.7,1.7c0,0.94,0.76,1.7,1.7,1.7c0.94,0,1.7-0.76,1.7-1.7C95.61,64.62,94.85,63.86,93.91,63.86z M93.91,87.63
		c-0.34,0-0.61,0.28-0.61,0.61c0,0.34,0.28,0.61,0.61,0.61c0.34,0,0.61-0.27,0.61-0.61C94.53,87.9,94.25,87.63,93.91,87.63z
		 M93.91,99.21c-0.21,0-0.38,0.17-0.38,0.38c0,0.21,0.17,0.38,0.38,0.38c0.21,0,0.38-0.17,0.38-0.38
		C94.29,99.38,94.12,99.21,93.91,99.21z M79.74,104.64c-0.34,0-0.61,0.27-0.61,0.61c0,0.34,0.27,0.61,0.61,0.61
		c0.34,0,0.61-0.28,0.61-0.61C80.35,104.91,80.07,104.64,79.74,104.64z M79.74,116.01c-0.32,0-0.58,0.26-0.58,0.58
		c0,0.32,0.26,0.58,0.58,0.58c0.32,0,0.58-0.26,0.58-0.58C80.32,116.27,80.06,116.01,79.74,116.01z M79.74,93.11
		c-0.44,0-0.8,0.36-0.8,0.8c0,0.44,0.36,0.8,0.8,0.8c0.44,0,0.8-0.36,0.8-0.8C80.54,93.47,80.18,93.11,79.74,93.11z M91.08,128.31
		c0.21,0,0.38-0.17,0.38-0.38c0-0.21-0.17-0.38-0.38-0.38c-0.21,0-0.38,0.17-0.38,0.38C90.7,128.14,90.87,128.31,91.08,128.31z
		 M79.74,128.61c0.37,0,0.67-0.3,0.67-0.68c0-0.37-0.3-0.67-0.67-0.67c-0.37,0-0.68,0.3-0.68,0.67
		C79.06,128.31,79.36,128.61,79.74,128.61z M85.41,69.71c-0.84,0-1.53,0.68-1.53,1.53c0,0.84,0.68,1.53,1.53,1.53
		c0.84,0,1.53-0.68,1.53-1.53C86.93,70.39,86.25,69.71,85.41,69.71z M91.08,139.87c0.33,0,0.6-0.27,0.6-0.6s-0.27-0.6-0.6-0.6
		c-0.33,0-0.6,0.27-0.6,0.6S90.75,139.87,91.08,139.87z M91.08,93.44c-0.26,0-0.47,0.21-0.47,0.47c0,0.26,0.21,0.47,0.47,0.47
		c0.26,0,0.47-0.21,0.47-0.47C91.55,93.65,91.34,93.44,91.08,93.44z M79.74,140.22c0.52,0,0.94-0.43,0.94-0.95
		c0-0.52-0.42-0.94-0.94-0.94c-0.52,0-0.94,0.42-0.94,0.94C78.79,139.79,79.21,140.22,79.74,140.22z M91.08,163.62
		c0.92,0,1.66-0.75,1.66-1.67c0-0.92-0.75-1.67-1.66-1.67c-0.92,0-1.67,0.75-1.67,1.67C89.41,162.88,90.16,163.62,91.08,163.62z
		 M91.08,151.64c0.56,0,1.02-0.45,1.02-1.02c0-0.57-0.46-1.02-1.02-1.02c-0.57,0-1.02,0.46-1.02,1.02
		C90.05,151.18,90.51,151.64,91.08,151.64z M93.91,145.73c0.43,0,0.78-0.35,0.78-0.79c0-0.43-0.35-0.79-0.78-0.79
		s-0.79,0.36-0.79,0.79C93.12,145.38,93.48,145.73,93.91,145.73z M99.58,64c-0.86,0-1.56,0.7-1.56,1.56c0,0.86,0.7,1.56,1.56,1.56
		s1.56-0.7,1.56-1.56C101.14,64.7,100.44,64,99.58,64z M99.58,111.1c0.1,0,0.17-0.08,0.17-0.18c0-0.1-0.08-0.17-0.17-0.17
		c-0.09,0-0.17,0.07-0.17,0.17C99.41,111.02,99.49,111.1,99.58,111.1z M99.58,122.47c0.11,0,0.21-0.09,0.21-0.21
		c0-0.12-0.09-0.21-0.21-0.21c-0.11,0-0.2,0.09-0.2,0.21C99.38,122.38,99.47,122.47,99.58,122.47z M99.58,99.3
		c-0.16,0-0.28,0.13-0.28,0.28c0,0.16,0.13,0.28,0.28,0.28c0.16,0,0.28-0.13,0.28-0.28C99.87,99.43,99.74,99.3,99.58,99.3z
		 M99.58,133.98c0.21,0,0.38-0.17,0.38-0.38c0-0.21-0.17-0.38-0.38-0.38c-0.21,0-0.38,0.17-0.38,0.38
		C99.21,133.81,99.38,133.98,99.58,133.98z M105.25,157.37c0.6,0,1.08-0.49,1.08-1.09c0-0.6-0.49-1.08-1.08-1.08
		c-0.6,0-1.09,0.48-1.09,1.08C104.17,156.88,104.65,157.37,105.25,157.37z M105.69,88.24c0-0.24-0.2-0.44-0.44-0.44
		c-0.24,0-0.44,0.19-0.44,0.44c0,0.24,0.2,0.44,0.44,0.44C105.5,88.68,105.69,88.48,105.69,88.24z M99.58,87.72
		c-0.29,0-0.52,0.23-0.52,0.52c0,0.29,0.23,0.52,0.52,0.52c0.29,0,0.52-0.23,0.52-0.52C100.1,87.95,99.87,87.72,99.58,87.72z
		 M105.25,133.9c0.16,0,0.3-0.13,0.3-0.3c0-0.17-0.13-0.3-0.3-0.3c-0.17,0-0.3,0.13-0.3,0.3
		C104.95,133.77,105.09,133.9,105.25,133.9z M96.75,70.02c-0.67,0-1.21,0.54-1.21,1.21c0,0.67,0.54,1.21,1.21,1.21
		c0.67,0,1.21-0.54,1.21-1.21C97.96,70.56,97.42,70.02,96.75,70.02z M105.25,145.54c0.33,0,0.6-0.27,0.6-0.6
		c0-0.33-0.27-0.6-0.6-0.6c-0.33,0-0.6,0.27-0.6,0.6C104.66,145.28,104.92,145.54,105.25,145.54z M106.1,76.9
		c0-0.47-0.38-0.85-0.85-0.85c-0.47,0-0.85,0.38-0.85,0.85c0,0.47,0.38,0.85,0.85,0.85C105.72,77.75,106.1,77.37,106.1,76.9z
		 M96.75,139.78c0.28,0,0.5-0.22,0.5-0.5c0-0.28-0.22-0.5-0.5-0.5c-0.28,0-0.5,0.23-0.5,0.5C96.24,139.55,96.47,139.78,96.75,139.78
		z M99.58,145.62c0.37,0,0.68-0.3,0.68-0.67c0-0.37-0.3-0.68-0.68-0.68c-0.38,0-0.68,0.3-0.68,0.68
		C98.91,145.32,99.21,145.62,99.58,145.62z M96.75,81.88c-0.38,0-0.69,0.31-0.69,0.69c0,0.38,0.31,0.69,0.69,0.69
		c0.38,0,0.69-0.31,0.69-0.69C97.44,82.19,97.13,81.88,96.75,81.88z M96.75,128.22c0.16,0,0.28-0.12,0.28-0.28
		c0-0.15-0.12-0.28-0.28-0.28c-0.16,0-0.28,0.13-0.28,0.28C96.46,128.09,96.59,128.22,96.75,128.22z M96.75,151.51
		c0.5,0,0.9-0.4,0.9-0.9c0-0.5-0.4-0.9-0.9-0.9c-0.49,0-0.89,0.4-0.89,0.9C95.85,151.11,96.25,151.51,96.75,151.51z M96.75,93.54
		c-0.21,0-0.38,0.17-0.38,0.38c0,0.21,0.17,0.38,0.38,0.38c0.21,0,0.38-0.17,0.38-0.38C97.12,93.7,96.96,93.54,96.75,93.54z
		 M99.58,157.45c0.64,0,1.16-0.52,1.16-1.17c0-0.64-0.52-1.16-1.16-1.16c-0.64,0-1.16,0.52-1.16,1.16
		C98.42,156.93,98.94,157.45,99.58,157.45z M96.75,116.42c-0.1,0-0.17,0.08-0.17,0.17c0,0.1,0.07,0.17,0.17,0.17
		c0.1,0,0.17-0.08,0.17-0.17C96.92,116.5,96.84,116.42,96.75,116.42z M99.58,75.99c-0.5,0-0.91,0.41-0.91,0.91
		c0,0.5,0.41,0.91,0.91,0.91c0.5,0,0.91-0.41,0.91-0.91C100.49,76.4,100.09,75.99,99.58,75.99z M96.75,160.43
		c-0.84,0-1.52,0.68-1.52,1.53c0,0.84,0.68,1.52,1.52,1.52c0.84,0,1.53-0.68,1.53-1.52C98.27,161.12,97.59,160.43,96.75,160.43z
		 M96.75,105.03c-0.12,0-0.22,0.1-0.22,0.22c0,0.12,0.1,0.22,0.22,0.22c0.12,0,0.22-0.1,0.22-0.22
		C96.97,105.13,96.87,105.03,96.75,105.03z M122.27,76.07c-0.46,0-0.83,0.37-0.83,0.83c0,0.46,0.37,0.83,0.83,0.83
		c0.46,0,0.83-0.37,0.83-0.83C123.1,76.44,122.72,76.07,122.27,76.07z M138.28,161.96c0-1.02-0.83-1.84-1.84-1.84
		c-1.02,0-1.84,0.82-1.84,1.84c0,1.01,0.82,1.84,1.84,1.84C137.46,163.8,138.28,162.97,138.28,161.96z M125.1,175.7
		c1.33,0,2.41-1.07,2.41-2.4c0-1.33-1.08-2.41-2.41-2.41c-1.33,0-2.41,1.08-2.41,2.41C122.69,174.63,123.77,175.7,125.1,175.7z
		 M124.1,167.63c0-1.02-0.82-1.84-1.84-1.84c-1.02,0-1.84,0.83-1.84,1.84c0,1.01,0.82,1.84,1.84,1.84
		C123.28,169.47,124.1,168.64,124.1,167.63z M119.43,175.63c1.28,0,2.33-1.04,2.33-2.33s-1.04-2.33-2.33-2.33
		c-1.29,0-2.33,1.04-2.33,2.33S118.14,175.63,119.43,175.63z M135.7,167.63c0-1.16-0.94-2.09-2.09-2.09c-1.15,0-2.09,0.93-2.09,2.09
		c0,1.15,0.94,2.09,2.09,2.09C134.76,169.72,135.7,168.78,135.7,167.63z M130.77,175.85c1.41,0,2.55-1.14,2.55-2.55
		s-1.14-2.55-2.55-2.55c-1.41,0-2.55,1.14-2.55,2.55S129.36,175.85,130.77,175.85z M129.87,167.63c0-1.07-0.86-1.94-1.93-1.94
		c-1.07,0-1.93,0.87-1.93,1.94c0,1.07,0.87,1.93,1.93,1.93C129,169.56,129.87,168.7,129.87,167.63z M117,88.24
		c0-0.22-0.18-0.41-0.41-0.41c-0.22,0-0.41,0.19-0.41,0.41c0,0.23,0.18,0.41,0.41,0.41C116.82,88.65,117,88.47,117,88.24z
		 M116.33,133.61c0,0.15,0.12,0.27,0.27,0.27c0.15,0,0.27-0.12,0.27-0.27c0-0.15-0.12-0.27-0.27-0.27
		C116.45,133.34,116.33,133.46,116.33,133.61z M116.77,99.58c0-0.1-0.08-0.17-0.18-0.17c-0.09,0-0.17,0.08-0.17,0.17
		c0,0.1,0.08,0.17,0.17,0.17C116.69,99.76,116.77,99.68,116.77,99.58z M116.59,145.51c0.31,0,0.57-0.25,0.57-0.56
		c0-0.31-0.25-0.57-0.57-0.57c-0.31,0-0.56,0.26-0.56,0.57C116.03,145.26,116.28,145.51,116.59,145.51z M116.59,157.34
		c0.58,0,1.05-0.47,1.05-1.05c0-0.58-0.47-1.05-1.05-1.05c-0.58,0-1.05,0.47-1.05,1.05C115.54,156.87,116.01,157.34,116.59,157.34z
		 M116.59,76.11c-0.43,0-0.79,0.36-0.79,0.79c0,0.43,0.35,0.78,0.79,0.78c0.44,0,0.79-0.35,0.79-0.78
		C117.38,76.47,117.03,76.11,116.59,76.11z M167.06,139.28c0-1.25-1.02-2.26-2.27-2.26s-2.26,1.01-2.26,2.26s1.01,2.27,2.26,2.27
		S167.06,140.53,167.06,139.28z M139.28,169.89c1.25,0,2.27-1.01,2.27-2.26c0-1.25-1.02-2.27-2.27-2.27s-2.26,1.01-2.26,2.27
		C137.01,168.88,138.03,169.89,139.28,169.89z M156.29,158.61c1.29,0,2.33-1.04,2.33-2.33c0-1.28-1.04-2.33-2.33-2.33
		c-1.29,0-2.33,1.04-2.33,2.33C153.96,157.57,155,158.61,156.29,158.61z M161.48,150.62c0-1.3-1.06-2.36-2.36-2.36
		c-1.3,0-2.36,1.05-2.36,2.36s1.06,2.36,2.36,2.36C160.42,152.97,161.48,151.92,161.48,150.62z M116.64,110.92
		c0-0.03-0.02-0.04-0.05-0.04c-0.03,0-0.04,0.02-0.04,0.04c0,0.03,0.02,0.05,0.04,0.05C116.62,110.97,116.64,110.95,116.64,110.92z
		 M169.72,133.61c0-1.15-0.94-2.09-2.09-2.09c-1.16,0-2.09,0.94-2.09,2.09c0,1.15,0.94,2.09,2.09,2.09
		C168.78,135.7,169.72,134.76,169.72,133.61z M167.63,147.46c1.39,0,2.52-1.13,2.52-2.52c0-1.39-1.13-2.52-2.52-2.52
		c-1.39,0-2.52,1.12-2.52,2.52C165.11,146.34,166.24,147.46,167.63,147.46z M164.05,144.95c0-1.16-0.94-2.09-2.09-2.09
		c-1.16,0-2.09,0.94-2.09,2.09c0,1.15,0.94,2.09,2.09,2.09C163.11,147.04,164.05,146.1,164.05,144.95z M144.95,170.14
		c1.39,0,2.52-1.13,2.52-2.52c0-1.39-1.13-2.51-2.52-2.51c-1.39,0-2.52,1.12-2.52,2.51C142.43,169.02,143.56,170.14,144.95,170.14z
		 M144.2,161.96c0-1.16-0.94-2.09-2.09-2.09c-1.15,0-2.09,0.94-2.09,2.09c0,1.15,0.94,2.09,2.09,2.09
		C143.27,164.05,144.2,163.11,144.2,161.96z M155.43,150.62c0-1.09-0.89-1.98-1.98-1.98s-1.98,0.89-1.98,1.98s0.89,1.98,1.98,1.98
		S155.43,151.71,155.43,150.62z M150.14,161.96c0-1.3-1.06-2.36-2.36-2.36c-1.3,0-2.36,1.06-2.36,2.36c0,1.3,1.06,2.36,2.36,2.36
		C149.08,164.32,150.14,163.26,150.14,161.96z M152.6,156.29c0-1.09-0.89-1.98-1.98-1.98s-1.98,0.89-1.98,1.98s0.89,1.98,1.98,1.98
		S152.6,157.38,152.6,156.29z M127.93,87.74c-0.28,0-0.5,0.23-0.5,0.5c0,0.28,0.23,0.5,0.5,0.5c0.28,0,0.5-0.22,0.5-0.5
		C128.44,87.96,128.21,87.74,127.93,87.74z M127.93,122.47c0.12,0,0.2-0.09,0.2-0.21c0-0.12-0.09-0.21-0.2-0.21
		c-0.11,0-0.2,0.09-0.2,0.21C127.73,122.38,127.82,122.47,127.93,122.47z M127.93,111.1c0.1,0,0.18-0.08,0.18-0.18
		c0-0.1-0.08-0.17-0.18-0.17c-0.09,0-0.17,0.07-0.17,0.17C127.76,111.02,127.84,111.1,127.93,111.1z M127.93,64.02
		c-0.85,0-1.54,0.69-1.54,1.54c0,0.85,0.69,1.54,1.54,1.54c0.85,0,1.54-0.69,1.54-1.54C129.48,64.71,128.79,64.02,127.93,64.02z
		 M127.93,133.97c0.2,0,0.36-0.16,0.36-0.36c0-0.2-0.16-0.36-0.36-0.36c-0.2,0-0.36,0.16-0.36,0.36
		C127.57,133.8,127.73,133.97,127.93,133.97z M127.93,99.3c-0.15,0-0.28,0.13-0.28,0.28c0,0.16,0.13,0.28,0.28,0.28
		c0.16,0,0.29-0.13,0.29-0.28C128.22,99.43,128.09,99.3,127.93,99.3z M130.77,69.91c-0.73,0-1.32,0.59-1.32,1.32
		c0,0.73,0.59,1.32,1.32,1.32c0.73,0,1.32-0.59,1.32-1.32C132.09,70.5,131.5,69.91,130.77,69.91z M175.63,122.27
		c0-1.29-1.04-2.33-2.33-2.33s-2.33,1.04-2.33,2.33c0,1.28,1.04,2.33,2.33,2.33S175.63,123.55,175.63,122.27z M133.61,134.06
		c0.25,0,0.46-0.21,0.46-0.46c0-0.25-0.21-0.45-0.46-0.45c-0.25,0-0.46,0.2-0.46,0.45C133.15,133.86,133.35,134.06,133.61,134.06z
		 M116.59,122.36c0.05,0,0.1-0.04,0.1-0.09c0-0.05-0.04-0.1-0.1-0.1c-0.05,0-0.09,0.04-0.09,0.1
		C116.5,122.32,116.54,122.36,116.59,122.36z M133.61,111.19c0.15,0,0.27-0.12,0.27-0.27c0-0.15-0.12-0.27-0.27-0.27
		c-0.15,0-0.27,0.12-0.27,0.27C133.34,111.07,133.46,111.19,133.61,111.19z M133.61,99.21c-0.21,0-0.38,0.17-0.38,0.38
		c0,0.21,0.17,0.38,0.38,0.38c0.21,0,0.38-0.17,0.38-0.38C133.98,99.38,133.81,99.21,133.61,99.21z M113.76,70.16
		c-0.59,0-1.07,0.48-1.07,1.07c0,0.59,0.48,1.07,1.07,1.07c0.59,0,1.07-0.48,1.07-1.07C114.83,70.64,114.35,70.16,113.76,70.16z
		 M133.61,145.73c0.43,0,0.79-0.35,0.79-0.79c0-0.43-0.35-0.79-0.79-0.79c-0.44,0-0.78,0.36-0.78,0.79
		C132.82,145.38,133.17,145.73,133.61,145.73z M133.61,75.88c-0.56,0-1.02,0.46-1.02,1.02c0,0.56,0.46,1.02,1.02,1.02
		c0.56,0,1.02-0.46,1.02-1.02C134.63,76.34,134.17,75.88,133.61,75.88z M122.27,145.54c0.33,0,0.6-0.27,0.6-0.6
		c0-0.33-0.27-0.6-0.6-0.6c-0.33,0-0.6,0.27-0.6,0.6C121.67,145.28,121.93,145.54,122.27,145.54z M133.61,122.56
		c0.16,0,0.3-0.13,0.3-0.3c0-0.16-0.13-0.3-0.3-0.3c-0.17,0-0.3,0.13-0.3,0.3C133.3,122.43,133.44,122.56,133.61,122.56z
		 M121.97,133.61c0,0.16,0.13,0.3,0.3,0.3s0.3-0.13,0.3-0.3c0-0.17-0.13-0.3-0.3-0.3S121.97,133.44,121.97,133.61z M122.47,99.58
		c0-0.11-0.09-0.2-0.21-0.2c-0.12,0-0.21,0.09-0.21,0.2c0,0.12,0.09,0.21,0.21,0.21C122.38,99.79,122.47,99.7,122.47,99.58z
		 M116.59,64.14c-0.78,0-1.41,0.63-1.41,1.41c0,0.78,0.63,1.42,1.41,1.42c0.78,0,1.42-0.63,1.42-1.42
		C118.01,64.78,117.38,64.14,116.59,64.14z M122.27,157.37c0.6,0,1.08-0.49,1.08-1.09c0-0.6-0.49-1.08-1.08-1.08
		c-0.6,0-1.09,0.48-1.09,1.08C121.18,156.88,121.66,157.37,122.27,157.37z M122.36,110.92c0-0.05-0.04-0.09-0.09-0.09
		c-0.05,0-0.1,0.04-0.1,0.09c0,0.05,0.04,0.1,0.1,0.1C122.32,111.02,122.36,110.97,122.36,110.92z M127.93,75.99
		c-0.5,0-0.91,0.41-0.91,0.91c0,0.5,0.41,0.91,0.91,0.91c0.5,0,0.91-0.41,0.91-0.91C128.85,76.4,128.44,75.99,127.93,75.99z
		 M127.93,157.45c0.64,0,1.17-0.52,1.17-1.17c0-0.64-0.52-1.16-1.17-1.16c-0.64,0-1.16,0.52-1.16,1.16
		C126.77,156.93,127.29,157.45,127.93,157.45z M122.12,122.27c0,0.08,0.06,0.14,0.14,0.14c0.08,0,0.14-0.06,0.14-0.14
		c0-0.08-0.06-0.14-0.14-0.14C122.19,122.12,122.12,122.19,122.12,122.27z M122.27,64.1c-0.81,0-1.46,0.66-1.46,1.46
		c0,0.81,0.65,1.46,1.46,1.46c0.81,0,1.46-0.66,1.46-1.46C123.73,64.75,123.07,64.1,122.27,64.1z M127.93,145.62
		c0.37,0,0.68-0.3,0.68-0.67c0-0.37-0.3-0.68-0.68-0.68c-0.37,0-0.67,0.3-0.67,0.68C127.26,145.32,127.56,145.62,127.93,145.62z
		 M122.71,88.24c0-0.24-0.2-0.44-0.44-0.44c-0.24,0-0.44,0.19-0.44,0.44c0,0.24,0.2,0.44,0.44,0.44
		C122.51,88.68,122.71,88.48,122.71,88.24z M72.04,71.23c0,1.12,0.91,2.03,2.03,2.03c1.12,0,2.03-0.91,2.03-2.03
		c0-1.12-0.91-2.03-2.03-2.03C72.94,69.2,72.04,70.11,72.04,71.23z M74.46,65.56c0,1.35,1.09,2.44,2.44,2.44
		c1.35,0,2.44-1.09,2.44-2.44c0-1.34-1.09-2.44-2.44-2.44C75.55,63.12,74.46,64.21,74.46,65.56z M69.2,76.9
		c0,1.12,0.91,2.03,2.03,2.03c1.12,0,2.03-0.91,2.03-2.03c0-1.12-0.91-2.03-2.03-2.03C70.11,74.87,69.2,75.78,69.2,76.9z
		 M60.59,82.57c0,1.18,0.96,2.14,2.14,2.14c1.18,0,2.14-0.96,2.14-2.14c0-1.18-0.96-2.14-2.14-2.14
		C61.54,80.43,60.59,81.39,60.59,82.57z M99.58,51.75c-1.36,0-2.47,1.11-2.47,2.47c0,1.36,1.11,2.47,2.47,2.47
		c1.36,0,2.47-1.11,2.47-2.47C102.05,52.86,100.94,51.75,99.58,51.75z M79.74,57.31c-1.43,0-2.58,1.15-2.58,2.58
		c0,1.43,1.15,2.58,2.58,2.58c1.42,0,2.58-1.15,2.58-2.58C82.31,58.46,81.16,57.31,79.74,57.31z M63.12,76.9
		c0,1.34,1.09,2.44,2.44,2.44c1.35,0,2.44-1.09,2.44-2.44c0-1.35-1.09-2.44-2.44-2.44C64.21,74.46,63.12,75.55,63.12,76.9z
		 M88.94,59.89c0,1.18,0.96,2.14,2.14,2.14c1.18,0,2.14-0.96,2.14-2.14c0-1.18-0.96-2.13-2.14-2.13
		C89.9,57.75,88.94,58.71,88.94,59.89z M80.43,65.56c0,1.18,0.96,2.14,2.14,2.14c1.18,0,2.14-0.96,2.14-2.14
		c0-1.18-0.96-2.14-2.14-2.14C81.39,63.42,80.43,64.38,80.43,65.56z M94.77,59.89c0,1.1,0.89,1.98,1.98,1.98
		c1.09,0,1.98-0.89,1.98-1.98c0-1.09-0.89-1.98-1.98-1.98C95.65,57.91,94.77,58.79,94.77,59.89z M93.91,51.61
		c-1.44,0-2.61,1.17-2.61,2.61c0,1.44,1.17,2.61,2.61,2.61s2.61-1.17,2.61-2.61C96.52,52.78,95.35,51.61,93.91,51.61z M85.41,57.56
		c-1.29,0-2.33,1.04-2.33,2.33c0,1.29,1.04,2.33,2.33,2.33c1.29,0,2.33-1.04,2.33-2.33C87.73,58.6,86.69,57.56,85.41,57.56z
		 M86.36,65.56c0,1.04,0.84,1.88,1.88,1.88c1.04,0,1.89-0.84,1.89-1.88s-0.85-1.89-1.89-1.89C87.2,63.67,86.36,64.52,86.36,65.56z
		 M68.39,68.86c-1.31,0-2.37,1.06-2.37,2.38c0,1.31,1.06,2.38,2.37,2.38c1.31,0,2.37-1.06,2.37-2.38
		C70.77,69.92,69.71,68.86,68.39,68.86z M111.21,182.47c0.43,0.01,0.86,0.03,1.29,0.03c1.26,0,2.51-0.04,3.75-0.1
		c-0.62-0.69-1.5-1.13-2.5-1.13C112.73,181.26,111.83,181.74,111.21,182.47z M116.94,182.34c1.51-0.09,3.01-0.24,4.5-0.43
		c-0.56-0.42-1.25-0.68-2.01-0.68C118.44,181.23,117.56,181.67,116.94,182.34z M49.06,116.59c0,1.29,1.04,2.33,2.33,2.33
		c1.29,0,2.33-1.04,2.33-2.33c0-1.28-1.04-2.33-2.33-2.33C50.1,114.27,49.06,115.31,49.06,116.59z M105.79,182.17
		c1.6,0.15,3.21,0.24,4.84,0.28c-0.62-0.72-1.51-1.19-2.54-1.19C107.2,181.26,106.39,181.61,105.79,182.17z M170.31,144.95
		c0,1.51,1.12,2.74,2.58,2.94c0.94-1.59,1.82-3.22,2.64-4.9c-0.55-0.63-1.33-1.04-2.22-1.04
		C171.65,141.96,170.31,143.29,170.31,144.95z M57.56,88.24c0,1.29,1.04,2.33,2.32,2.33c1.29,0,2.33-1.04,2.33-2.33
		c0-1.29-1.04-2.32-2.33-2.32C58.6,85.92,57.56,86.96,57.56,88.24z M45.71,119.46c1.58,0,2.86-1.28,2.86-2.86
		c0-1.58-1.28-2.86-2.86-2.86c-1.1,0-2.04,0.63-2.52,1.54c-0.15-0.36-0.37-0.69-0.63-0.97c0.11,0.01,0.21,0.03,0.32,0.03
		c1.42,0,2.63-0.86,3.15-2.09c0.48,0.91,1.42,1.54,2.53,1.54c1.58,0,2.86-1.28,2.86-2.86c0-1.58-1.28-2.86-2.86-2.86
		c-1.1,0-2.05,0.63-2.53,1.54c-0.52-1.23-1.73-2.09-3.15-2.09c-0.06,0-0.12,0.01-0.18,0.02c-0.12,1.64-0.2,3.3-0.2,4.97
		c0,2.06,0.11,4.08,0.28,6.09c0.16-0.21,0.3-0.43,0.41-0.68C43.67,118.83,44.61,119.46,45.71,119.46z M51.89,110.92
		c0,1.29,1.04,2.33,2.33,2.33c1.29,0,2.33-1.04,2.33-2.33c0-1.28-1.04-2.33-2.33-2.33C52.93,108.6,51.89,109.64,51.89,110.92z
		 M54.92,93.91c0,1.18,0.95,2.14,2.14,2.14c1.18,0,2.14-0.95,2.14-2.14c0-1.18-0.96-2.14-2.14-2.14
		C55.87,91.77,54.92,92.73,54.92,93.91z M57.05,79.99c-1.42,0-2.58,1.15-2.58,2.58c0,1.43,1.15,2.58,2.58,2.58
		c1.43,0,2.58-1.15,2.58-2.58C59.63,81.14,58.48,79.99,57.05,79.99z M51.75,99.58c0,1.36,1.11,2.47,2.47,2.47
		c1.36,0,2.47-1.11,2.47-2.47c0-1.36-1.11-2.47-2.47-2.47C52.86,97.11,51.75,98.22,51.75,99.58z M49.01,105.25
		c0,1.31,1.06,2.37,2.38,2.37c1.31,0,2.37-1.06,2.37-2.37c0-1.31-1.06-2.38-2.37-2.38C50.07,102.88,49.01,103.94,49.01,105.25z
		 M145.77,71.23c0,1.11,0.9,2.01,2.02,2.01c1.11,0,2.01-0.9,2.01-2.01c0-1.11-0.9-2.01-2.01-2.01
		C146.67,69.22,145.77,70.12,145.77,71.23z M175.56,110.92c0-1.25-1.01-2.26-2.26-2.26s-2.27,1.01-2.27,2.26
		c0,1.25,1.02,2.27,2.27,2.27S175.56,112.17,175.56,110.92z M150.62,63.15c-1.33,0-2.41,1.08-2.41,2.41c0,1.33,1.08,2.4,2.41,2.4
		c1.33,0,2.41-1.08,2.41-2.4C153.02,64.23,151.95,63.15,150.62,63.15z M156.29,74.89c-1.11,0-2.01,0.9-2.01,2.02
		c0,1.11,0.9,2.01,2.01,2.01c1.11,0,2.01-0.9,2.01-2.01C158.3,75.79,157.4,74.89,156.29,74.89z M153.45,68.87
		c-1.3,0-2.36,1.05-2.36,2.36c0,1.3,1.06,2.36,2.36,2.36c1.3,0,2.36-1.05,2.36-2.36C155.81,69.93,154.76,68.87,153.45,68.87z
		 M144.95,63.45c-1.16,0-2.11,0.95-2.11,2.11c0,1.16,0.94,2.11,2.11,2.11c1.16,0,2.11-0.94,2.11-2.11
		C147.05,64.4,146.11,63.45,144.95,63.45z M142.11,57.34c-1.4,0-2.54,1.14-2.54,2.54c0,1.41,1.14,2.55,2.54,2.55
		c1.41,0,2.55-1.14,2.55-2.55C144.66,58.48,143.52,57.34,142.11,57.34z M164.79,80.05c-1.39,0-2.52,1.13-2.52,2.52
		c0,1.39,1.13,2.52,2.52,2.52s2.52-1.13,2.52-2.52C167.31,81.18,166.18,80.05,164.79,80.05z M169.92,88.24
		c0-1.27-1.03-2.29-2.29-2.29c-1.27,0-2.29,1.03-2.29,2.29c0,1.27,1.03,2.3,2.29,2.3C168.9,90.54,169.92,89.51,169.92,88.24z
		 M157.03,82.57c0,1.16,0.94,2.09,2.09,2.09c1.15,0,2.09-0.93,2.09-2.09c0-1.15-0.94-2.09-2.09-2.09
		C157.97,80.48,157.03,81.42,157.03,82.57z M167.63,97.65c-1.07,0-1.94,0.87-1.94,1.94c0,1.07,0.87,1.93,1.94,1.93
		c1.07,0,1.93-0.86,1.93-1.93C169.56,98.52,168.7,97.65,167.63,97.65z M161.96,74.53c-1.31,0-2.38,1.06-2.38,2.38
		c0,1.31,1.06,2.37,2.38,2.37c1.31,0,2.37-1.06,2.37-2.37C164.33,75.59,163.27,74.53,161.96,74.53z M137.42,65.56
		c0,1.03,0.83,1.86,1.86,1.86c1.03,0,1.86-0.83,1.86-1.86s-0.83-1.85-1.86-1.85C138.25,63.71,137.42,64.53,137.42,65.56z
		 M123.12,59.89c0,1.1,0.89,1.98,1.98,1.98c1.09,0,1.98-0.89,1.98-1.98c0-1.09-0.89-1.98-1.98-1.98
		C124.01,57.91,123.12,58.79,123.12,59.89z M111.92,59.89c0,1.02,0.82,1.84,1.84,1.84c1.02,0,1.84-0.82,1.84-1.84
		c0-1.01-0.82-1.84-1.84-1.84C112.74,58.05,111.92,58.87,111.92,59.89z M110.92,51.89c-1.29,0-2.33,1.04-2.33,2.33
		c0,1.28,1.04,2.33,2.33,2.33c1.29,0,2.33-1.04,2.33-2.33C113.25,52.93,112.21,51.89,110.92,51.89z M116.59,51.89
		c-1.28,0-2.32,1.04-2.32,2.33c0,1.28,1.04,2.33,2.32,2.33c1.29,0,2.33-1.04,2.33-2.33C118.92,52.93,117.88,51.89,116.59,51.89z
		 M117.54,59.89c0,1.04,0.85,1.89,1.89,1.89c1.04,0,1.88-0.84,1.88-1.89c0-1.04-0.84-1.88-1.88-1.88
		C118.39,58,117.54,58.85,117.54,59.89z M105.25,51.85c-1.31,0-2.38,1.06-2.38,2.37s1.06,2.37,2.38,2.37c1.31,0,2.37-1.06,2.37-2.37
		S106.56,51.85,105.25,51.85z M106.25,59.89c0,1.02,0.82,1.84,1.84,1.84c1.02,0,1.84-0.82,1.84-1.84c0-1.01-0.82-1.84-1.84-1.84
		C107.07,58.05,106.25,58.87,106.25,59.89z M122.27,51.86c-1.3,0-2.36,1.05-2.36,2.36c0,1.3,1.05,2.36,2.36,2.36
		c1.3,0,2.36-1.05,2.36-2.36C124.62,52.91,123.57,51.86,122.27,51.86z M133.61,51.61c-1.44,0-2.61,1.17-2.61,2.61
		c0,1.44,1.17,2.61,2.61,2.61c1.44,0,2.61-1.17,2.61-2.61C136.21,52.78,135.05,51.61,133.61,51.61z M128.66,59.89
		c0,1.17,0.94,2.11,2.11,2.11c1.16,0,2.11-0.94,2.11-2.11c0-1.16-0.94-2.11-2.11-2.11C129.61,57.78,128.66,58.72,128.66,59.89z
		 M100.53,59.89c0,1.04,0.84,1.89,1.88,1.89c1.04,0,1.89-0.84,1.89-1.89c0-1.04-0.85-1.88-1.89-1.88
		C101.38,58,100.53,58.85,100.53,59.89z M127.93,51.75c-1.36,0-2.47,1.11-2.47,2.47c0,1.36,1.11,2.47,2.47,2.47
		c1.37,0,2.47-1.11,2.47-2.47C130.4,52.86,129.3,51.75,127.93,51.75z M136.44,57.59c-1.27,0-2.3,1.03-2.3,2.29
		c0,1.27,1.03,2.3,2.3,2.3c1.27,0,2.29-1.03,2.29-2.3C138.74,58.62,137.71,57.59,136.44,57.59z M133.61,87.64
		c-0.33,0-0.6,0.27-0.6,0.6c0,0.33,0.27,0.6,0.6,0.6c0.33,0,0.6-0.27,0.6-0.6C134.2,87.91,133.93,87.64,133.61,87.64z
		 M156.29,134.91c0.72,0,1.31-0.58,1.31-1.3c0-0.72-0.59-1.3-1.31-1.3c-0.72,0-1.3,0.58-1.3,1.3
		C154.98,134.33,155.57,134.91,156.29,134.91z M156.29,98.42c-0.64,0-1.16,0.52-1.16,1.16c0,0.64,0.52,1.17,1.16,1.17
		c0.64,0,1.16-0.52,1.16-1.17C157.45,98.94,156.93,98.42,156.29,98.42z M156.29,111.98c0.58,0,1.05-0.47,1.05-1.05
		c0-0.58-0.47-1.05-1.05-1.05c-0.58,0-1.05,0.47-1.05,1.05C155.23,111.51,155.71,111.98,156.29,111.98z M164.79,118.38
		c0.99,0,1.79-0.8,1.79-1.79c0-0.99-0.8-1.79-1.79-1.79s-1.79,0.8-1.79,1.79C163,117.58,163.8,118.38,164.79,118.38z M160.96,139.28
		c0-1.01-0.82-1.84-1.84-1.84c-1.02,0-1.84,0.83-1.84,1.84c0,1.01,0.82,1.84,1.84,1.84C160.14,141.12,160.96,140.29,160.96,139.28z
		 M156.29,123.35c0.6,0,1.08-0.49,1.08-1.08c0-0.6-0.48-1.09-1.08-1.09s-1.08,0.49-1.08,1.09
		C155.2,122.86,155.69,123.35,156.29,123.35z M161.96,86.38c-1.03,0-1.86,0.83-1.86,1.86c0,1.03,0.83,1.86,1.86,1.86
		c1.02,0,1.86-0.83,1.86-1.86C163.81,87.21,162.98,86.38,161.96,86.38z M161.96,120.83c-0.79,0-1.43,0.64-1.43,1.43
		c0,0.79,0.64,1.43,1.43,1.43c0.79,0,1.43-0.64,1.43-1.43C163.39,121.47,162.75,120.83,161.96,120.83z M153.45,140.75
		c0.82,0,1.48-0.66,1.48-1.48c0-0.82-0.66-1.48-1.48-1.48c-0.81,0-1.48,0.66-1.48,1.48C151.97,140.09,152.64,140.75,153.45,140.75z
		 M153.45,115.54c-0.58,0-1.05,0.47-1.05,1.05c0,0.58,0.47,1.05,1.05,1.05s1.05-0.47,1.05-1.05
		C154.51,116.01,154.03,115.54,153.45,115.54z M153.45,92.61c-0.72,0-1.3,0.58-1.3,1.31c0,0.72,0.58,1.3,1.3,1.3
		c0.72,0,1.3-0.58,1.3-1.3C154.76,93.19,154.17,92.61,153.45,92.61z M156.29,146.64c0.94,0,1.7-0.76,1.7-1.7
		c0-0.94-0.76-1.7-1.7-1.7c-0.94,0-1.7,0.76-1.7,1.7C154.59,145.88,155.35,146.64,156.29,146.64z M153.45,129.1
		c0.64,0,1.16-0.52,1.16-1.17c0-0.64-0.52-1.16-1.16-1.16c-0.64,0-1.16,0.52-1.16,1.16C152.29,128.58,152.81,129.1,153.45,129.1z
		 M159.12,115.2c-0.77,0-1.4,0.62-1.4,1.4c0,0.77,0.63,1.4,1.4,1.4c0.77,0,1.4-0.62,1.4-1.4C160.52,115.82,159.9,115.2,159.12,115.2
		z M172.73,116.59c0-1.25-1.01-2.27-2.27-2.27c-1.25,0-2.26,1.02-2.26,2.27s1.01,2.26,2.26,2.26
		C171.71,118.86,172.73,117.84,172.73,116.59z M167.63,109.13c-0.99,0-1.79,0.8-1.79,1.79c0,0.99,0.8,1.79,1.79,1.79
		c0.99,0,1.79-0.8,1.79-1.79C169.42,109.93,168.62,109.13,167.63,109.13z M169.47,122.27c0-1.02-0.82-1.84-1.84-1.84
		c-1.02,0-1.84,0.82-1.84,1.84c0,1.01,0.82,1.84,1.84,1.84C168.64,124.1,169.47,123.28,169.47,122.27z M164.79,103.42
		c-1.02,0-1.84,0.82-1.84,1.84c0,1.02,0.82,1.84,1.84,1.84s1.84-0.82,1.84-1.84C166.63,104.24,165.81,103.42,164.79,103.42z
		 M166.73,127.93c0-1.07-0.87-1.93-1.93-1.93s-1.93,0.87-1.93,1.93c0,1.07,0.87,1.94,1.93,1.94S166.73,129,166.73,127.93z
		 M166.88,93.91c0-1.16-0.94-2.09-2.09-2.09c-1.15,0-2.09,0.93-2.09,2.09c0,1.15,0.94,2.09,2.09,2.09
		C165.95,96,166.88,95.07,166.88,93.91z M150.62,146.32c0.76,0,1.37-0.62,1.37-1.37c0-0.76-0.61-1.37-1.37-1.37
		s-1.37,0.61-1.37,1.37C149.25,145.7,149.86,146.32,150.62,146.32z M159.12,103.82c-0.79,0-1.43,0.64-1.43,1.43
		c0,0.79,0.64,1.43,1.43,1.43c0.79,0,1.43-0.64,1.43-1.43C160.55,104.46,159.91,103.82,159.12,103.82z M163.48,99.58
		c0-0.84-0.68-1.53-1.52-1.53c-0.84,0-1.53,0.68-1.53,1.53c0,0.84,0.68,1.53,1.53,1.53C162.8,101.11,163.48,100.42,163.48,99.58z
		 M163.61,133.61c0-0.91-0.74-1.65-1.65-1.65c-0.91,0-1.65,0.74-1.65,1.65c0,0.91,0.74,1.65,1.65,1.65
		C162.87,135.26,163.61,134.52,163.61,133.61z M161.96,109.53c-0.78,0-1.4,0.63-1.4,1.4c0,0.77,0.62,1.4,1.4,1.4
		c0.77,0,1.4-0.63,1.4-1.4C163.36,110.15,162.73,109.53,161.96,109.53z M159.12,129.46c0.84,0,1.53-0.68,1.53-1.53
		c0-0.84-0.68-1.52-1.53-1.52s-1.53,0.68-1.53,1.52C157.6,128.78,158.28,129.46,159.12,129.46z M153.45,104.17
		c-0.6,0-1.08,0.49-1.08,1.09c0,0.6,0.48,1.09,1.08,1.09c0.6,0,1.09-0.49,1.09-1.09C154.54,104.65,154.05,104.17,153.45,104.17z
		 M119.74,93.91c0-0.18-0.14-0.31-0.31-0.31c-0.17,0-0.32,0.14-0.32,0.31c0,0.17,0.14,0.31,0.32,0.31
		C119.6,94.23,119.74,94.09,119.74,93.91z M120.04,82.57c0-0.34-0.28-0.61-0.61-0.61c-0.34,0-0.61,0.28-0.61,0.61
		c0,0.34,0.27,0.61,0.61,0.61C119.77,83.18,120.04,82.91,120.04,82.57z M119.43,139.7c0.23,0,0.42-0.19,0.42-0.43
		c0-0.23-0.19-0.42-0.42-0.42c-0.23,0-0.43,0.19-0.43,0.42C119,139.51,119.2,139.7,119.43,139.7z M119.43,151.43
		c0.45,0,0.82-0.37,0.82-0.82c0-0.45-0.37-0.82-0.82-0.82c-0.45,0-0.82,0.37-0.82,0.82C118.61,151.07,118.98,151.43,119.43,151.43z
		 M119.43,163.39c0.79,0,1.43-0.64,1.43-1.43c0-0.79-0.64-1.43-1.43-1.43c-0.79,0-1.43,0.64-1.43,1.43
		C118,162.75,118.64,163.39,119.43,163.39z M119.43,70.11c-0.62,0-1.12,0.5-1.12,1.12c0,0.62,0.5,1.12,1.12,1.12
		c0.62,0,1.12-0.5,1.12-1.12C120.54,70.61,120.04,70.11,119.43,70.11z M118.39,167.63c0-0.99-0.8-1.79-1.8-1.79
		c-0.99,0-1.79,0.8-1.79,1.79c0,0.99,0.8,1.79,1.79,1.79C117.58,169.42,118.39,168.62,118.39,167.63z M125.1,105.05
		c-0.11,0-0.21,0.09-0.21,0.21c0,0.11,0.09,0.2,0.21,0.2c0.11,0,0.21-0.09,0.21-0.2C125.3,105.14,125.21,105.05,125.1,105.05z
		 M119.22,127.93c0,0.12,0.09,0.2,0.21,0.2c0.11,0,0.2-0.09,0.2-0.2c0-0.11-0.09-0.2-0.2-0.2
		C119.32,127.73,119.22,127.82,119.22,127.93z M113.76,163.36c0.78,0,1.4-0.62,1.4-1.4c0-0.78-0.62-1.4-1.4-1.4
		c-0.77,0-1.4,0.62-1.4,1.4C112.36,162.73,112.99,163.36,113.76,163.36z M113.76,175.56c1.25,0,2.27-1.01,2.27-2.26
		s-1.01-2.26-2.27-2.26c-1.25,0-2.26,1.01-2.26,2.26S112.51,175.56,113.76,175.56z M119.33,116.59c0,0.05,0.04,0.1,0.1,0.1
		c0.05,0,0.09-0.04,0.09-0.1c0-0.05-0.04-0.1-0.09-0.1C119.38,116.5,119.33,116.54,119.33,116.59z M119.57,105.25
		c0-0.08-0.07-0.14-0.14-0.14c-0.08,0-0.14,0.06-0.14,0.14c0,0.08,0.06,0.14,0.14,0.14C119.51,105.4,119.57,105.33,119.57,105.25z
		 M150.62,87.05c-0.66,0-1.2,0.53-1.2,1.19c0,0.66,0.54,1.2,1.2,1.2s1.2-0.54,1.2-1.2C151.81,87.58,151.28,87.05,150.62,87.05z
		 M150.62,111.71c0.43,0,0.79-0.35,0.79-0.79c0-0.43-0.35-0.78-0.79-0.78c-0.43,0-0.79,0.35-0.79,0.78
		C149.83,111.36,150.18,111.71,150.62,111.71z M150.62,123.08c0.45,0,0.82-0.37,0.82-0.82c0-0.45-0.37-0.82-0.82-0.82
		c-0.45,0-0.82,0.37-0.82,0.82C149.8,122.72,150.16,123.08,150.62,123.08z M125.1,70.03c-0.66,0-1.2,0.54-1.2,1.2
		c0,0.66,0.53,1.19,1.2,1.19s1.2-0.54,1.2-1.19C126.29,70.57,125.76,70.03,125.1,70.03z M125.1,163.48c0.84,0,1.53-0.68,1.53-1.52
		c0-0.84-0.68-1.53-1.53-1.53c-0.84,0-1.53,0.68-1.53,1.53C123.57,162.8,124.26,163.48,125.1,163.48z M150.62,98.69
		c-0.5,0-0.9,0.4-0.9,0.9c0,0.5,0.4,0.9,0.9,0.9c0.5,0,0.89-0.4,0.89-0.9C151.51,99.09,151.11,98.69,150.62,98.69z M150.62,134.61
		c0.56,0,1.01-0.45,1.01-1.01c0-0.56-0.45-1.01-1.01-1.01c-0.56,0-1.01,0.45-1.01,1.01C149.61,134.16,150.06,134.61,150.62,134.61z
		 M125.1,93.54c-0.21,0-0.38,0.17-0.38,0.38c0,0.21,0.17,0.38,0.38,0.38s0.38-0.17,0.38-0.38C125.48,93.7,125.31,93.54,125.1,93.54z
		 M125.1,151.5c0.49,0,0.88-0.39,0.88-0.88s-0.39-0.88-0.88-0.88c-0.49,0-0.88,0.39-0.88,0.88S124.61,151.5,125.1,151.5z
		 M125.1,116.42c-0.1,0-0.17,0.08-0.17,0.17c0,0.1,0.08,0.17,0.17,0.17c0.1,0,0.17-0.08,0.17-0.17
		C125.27,116.5,125.2,116.42,125.1,116.42z M125.1,128.2c0.15,0,0.27-0.12,0.27-0.27c0-0.15-0.12-0.27-0.27-0.27
		c-0.15,0-0.27,0.12-0.27,0.27C124.83,128.08,124.95,128.2,125.1,128.2z M125.1,139.76c0.27,0,0.49-0.22,0.49-0.49
		c0-0.27-0.22-0.49-0.49-0.49s-0.49,0.22-0.49,0.49C124.61,139.54,124.83,139.76,125.1,139.76z M125.1,81.89
		c-0.37,0-0.68,0.3-0.68,0.68c0,0.38,0.3,0.68,0.68,0.68s0.68-0.3,0.68-0.68C125.78,82.2,125.47,81.89,125.1,81.89z M130.77,93.44
		c-0.26,0-0.47,0.21-0.47,0.47c0,0.26,0.21,0.47,0.47,0.47c0.26,0,0.47-0.21,0.47-0.47C131.24,93.65,131.03,93.44,130.77,93.44z
		 M136.44,104.81c-0.24,0-0.44,0.2-0.44,0.44c0,0.24,0.2,0.44,0.44,0.44c0.24,0,0.44-0.2,0.44-0.44
		C136.88,105.01,136.68,104.81,136.44,104.81z M136.44,69.74c-0.83,0-1.49,0.67-1.49,1.49c0,0.82,0.67,1.49,1.49,1.49
		c0.82,0,1.49-0.67,1.49-1.49C137.93,70.4,137.27,69.74,136.44,69.74z M142.11,69.52c-0.94,0-1.71,0.77-1.71,1.71
		c0,0.94,0.77,1.71,1.71,1.71c0.95,0,1.71-0.77,1.71-1.71C143.82,70.28,143.06,69.52,142.11,69.52z M136.44,128.42
		c0.27,0,0.49-0.22,0.49-0.49c0-0.27-0.22-0.49-0.49-0.49c-0.27,0-0.49,0.22-0.49,0.49C135.95,128.2,136.17,128.42,136.44,128.42z
		 M136.44,116.2c-0.22,0-0.39,0.18-0.39,0.39c0,0.22,0.18,0.39,0.39,0.39c0.22,0,0.39-0.18,0.39-0.39
		C136.83,116.38,136.66,116.2,136.44,116.2z M136.44,93.31c-0.33,0-0.6,0.27-0.6,0.6c0,0.33,0.27,0.6,0.6,0.6
		c0.33,0,0.6-0.27,0.6-0.6C137.04,93.58,136.77,93.31,136.44,93.31z M139.28,145.87c0.51,0,0.93-0.42,0.93-0.93
		c0-0.52-0.42-0.93-0.93-0.93c-0.51,0-0.93,0.41-0.93,0.93C138.35,145.46,138.76,145.87,139.28,145.87z M139.28,122.69
		c0.23,0,0.43-0.19,0.43-0.42c0-0.24-0.19-0.43-0.43-0.43c-0.23,0-0.42,0.19-0.42,0.43C138.85,122.5,139.04,122.69,139.28,122.69z
		 M139.28,111.33c0.23,0,0.41-0.18,0.41-0.41c0-0.22-0.18-0.41-0.41-0.41c-0.23,0-0.41,0.18-0.41,0.41
		C138.87,111.15,139.05,111.33,139.28,111.33z M139.28,75.71c-0.66,0-1.2,0.54-1.2,1.2c0,0.66,0.54,1.19,1.2,1.19
		c0.66,0,1.2-0.54,1.2-1.19C140.47,76.24,139.94,75.71,139.28,75.71z M139.28,99.08c-0.28,0-0.5,0.22-0.5,0.5
		c0,0.28,0.22,0.5,0.5,0.5c0.28,0,0.5-0.22,0.5-0.5C139.78,99.3,139.55,99.08,139.28,99.08z M139.28,134.21c0.33,0,0.6-0.27,0.6-0.6
		c0-0.33-0.27-0.6-0.6-0.6c-0.33,0-0.6,0.27-0.6,0.6C138.68,133.93,138.95,134.21,139.28,134.21z M139.28,87.49
		c-0.42,0-0.75,0.34-0.75,0.75c0,0.42,0.34,0.76,0.75,0.76c0.42,0,0.76-0.34,0.76-0.76C140.03,87.82,139.69,87.49,139.28,87.49z
		 M139.28,157.77c0.82,0,1.48-0.66,1.48-1.48c0-0.81-0.66-1.48-1.48-1.48c-0.82,0-1.48,0.67-1.48,1.48
		C137.8,157.1,138.46,157.77,139.28,157.77z M130.77,81.79c-0.43,0-0.79,0.35-0.79,0.78c0,0.43,0.35,0.79,0.79,0.79
		c0.44,0,0.78-0.35,0.78-0.79C131.55,82.14,131.21,81.79,130.77,81.79z M130.77,139.87c0.33,0,0.6-0.27,0.6-0.6s-0.27-0.6-0.6-0.6
		c-0.33,0-0.6,0.27-0.6,0.6S130.44,139.87,130.77,139.87z M133.61,157.59c0.72,0,1.3-0.58,1.3-1.31c0-0.72-0.58-1.3-1.3-1.3
		c-0.72,0-1.3,0.58-1.3,1.3C132.3,157.01,132.88,157.59,133.61,157.59z M130.77,151.62c0.56,0,1.01-0.45,1.01-1.01
		s-0.45-1.01-1.01-1.01c-0.55,0-1.01,0.45-1.01,1.01S130.21,151.62,130.77,151.62z M136.44,140.01c0.41,0,0.74-0.33,0.74-0.74
		c0-0.41-0.33-0.74-0.74-0.74c-0.41,0-0.74,0.33-0.74,0.74C135.7,139.68,136.03,140.01,136.44,140.01z M129.12,161.96
		c0,0.91,0.74,1.65,1.65,1.65c0.91,0,1.65-0.74,1.65-1.65c0-0.91-0.74-1.65-1.65-1.65C129.86,160.3,129.12,161.04,129.12,161.96z
		 M130.77,128.3c0.2,0,0.36-0.16,0.36-0.36c0-0.2-0.16-0.36-0.36-0.36c-0.2,0-0.36,0.16-0.36,0.36
		C130.41,128.13,130.57,128.3,130.77,128.3z M136.44,81.63c-0.52,0-0.94,0.42-0.94,0.94c0,0.52,0.42,0.94,0.94,0.94
		c0.52,0,0.94-0.42,0.94-0.94C137.38,82.05,136.96,81.63,136.44,81.63z M136.44,151.78c0.64,0,1.16-0.52,1.16-1.16
		c0-0.64-0.52-1.16-1.16-1.16c-0.64,0-1.17,0.52-1.17,1.16C135.28,151.26,135.8,151.78,136.44,151.78z M133.61,63.86
		c-0.94,0-1.7,0.76-1.7,1.7c0,0.94,0.76,1.7,1.7,1.7c0.94,0,1.7-0.76,1.7-1.7C135.3,64.62,134.54,63.86,133.61,63.86z
		 M130.77,116.33c-0.15,0-0.27,0.12-0.27,0.27c0,0.15,0.12,0.27,0.27,0.27c0.15,0,0.27-0.12,0.27-0.27
		C131.04,116.44,130.92,116.33,130.77,116.33z M130.77,104.95c-0.16,0-0.3,0.13-0.3,0.3c0,0.16,0.13,0.3,0.3,0.3
		c0.17,0,0.3-0.13,0.3-0.3C131.07,105.09,130.94,104.95,130.77,104.95z M142.11,151.98c0.76,0,1.37-0.61,1.37-1.37
		s-0.61-1.37-1.37-1.37c-0.75,0-1.37,0.61-1.37,1.37S141.36,151.98,142.11,151.98z M147.78,140.44c0.64,0,1.16-0.52,1.16-1.16
		c0-0.64-0.52-1.16-1.16-1.16c-0.64,0-1.17,0.52-1.17,1.16C146.62,139.92,147.14,140.44,147.78,140.44z M147.78,92.89
		c-0.57,0-1.03,0.46-1.03,1.02c0,0.56,0.46,1.02,1.03,1.02c0.56,0,1.02-0.46,1.02-1.02C148.8,93.35,148.35,92.89,147.78,92.89z
		 M147.78,128.82c0.49,0,0.88-0.4,0.88-0.88c0-0.48-0.39-0.88-0.88-0.88s-0.88,0.4-0.88,0.88
		C146.9,128.42,147.3,128.82,147.78,128.82z M142.11,104.66c-0.33,0-0.59,0.27-0.59,0.6c0,0.33,0.27,0.6,0.59,0.6
		c0.33,0,0.6-0.27,0.6-0.6C142.71,104.92,142.44,104.66,142.11,104.66z M147.78,152.27c0.91,0,1.65-0.74,1.65-1.65
		s-0.74-1.65-1.65-1.65c-0.91,0-1.65,0.74-1.65,1.65S146.87,152.27,147.78,152.27z M147.78,115.81c-0.44,0-0.79,0.35-0.79,0.79
		s0.35,0.79,0.79,0.79c0.43,0,0.79-0.35,0.79-0.79S148.21,115.81,147.78,115.81z M147.78,104.44c-0.45,0-0.82,0.37-0.82,0.82
		c0,0.45,0.37,0.81,0.82,0.81c0.45,0,0.82-0.37,0.82-0.81C148.6,104.8,148.23,104.44,147.78,104.44z M153.45,80.86
		c-0.94,0-1.71,0.77-1.71,1.71c0,0.95,0.77,1.71,1.71,1.71c0.95,0,1.71-0.77,1.71-1.71C155.17,81.62,154.4,80.86,153.45,80.86z
		 M156.29,86.76c-0.81,0-1.48,0.66-1.48,1.48c0,0.82,0.66,1.48,1.48,1.48c0.82,0,1.48-0.66,1.48-1.48
		C157.77,87.43,157.1,86.76,156.29,86.76z M147.78,81.17c-0.78,0-1.4,0.63-1.4,1.4c0,0.77,0.62,1.4,1.4,1.4c0.77,0,1.4-0.63,1.4-1.4
		C149.18,81.8,148.55,81.17,147.78,81.17z M142.11,116.03c-0.31,0-0.56,0.25-0.56,0.57s0.25,0.56,0.56,0.56
		c0.31,0,0.57-0.25,0.57-0.56S142.42,116.03,142.11,116.03z M150.62,75.23c-0.92,0-1.67,0.74-1.67,1.67c0,0.92,0.75,1.66,1.67,1.66
		s1.67-0.74,1.67-1.66C152.28,75.98,151.54,75.23,150.62,75.23z M144.95,87.3c-0.52,0-0.94,0.42-0.94,0.94
		c0,0.52,0.42,0.94,0.94,0.94c0.52,0,0.94-0.42,0.94-0.94C145.89,87.72,145.47,87.3,144.95,87.3z M144.95,134.39
		c0.43,0,0.79-0.35,0.79-0.79c0-0.44-0.35-0.79-0.79-0.79c-0.44,0-0.79,0.35-0.79,0.79C144.16,134.04,144.51,134.39,144.95,134.39z
		 M144.95,98.91c-0.37,0-0.68,0.3-0.68,0.68c0,0.37,0.3,0.68,0.68,0.68c0.37,0,0.68-0.3,0.68-0.68
		C145.62,99.21,145.32,98.91,144.95,98.91z M144.95,122.86c0.33,0,0.6-0.27,0.6-0.6c0-0.33-0.27-0.6-0.6-0.6
		c-0.33,0-0.6,0.27-0.6,0.6C144.35,122.6,144.62,122.86,144.95,122.86z M142.11,128.61c0.38,0,0.68-0.3,0.68-0.68
		c0-0.37-0.3-0.67-0.68-0.67c-0.37,0-0.67,0.3-0.67,0.67C141.44,128.31,141.74,128.61,142.11,128.61z M144.95,75.5
		c-0.77,0-1.4,0.63-1.4,1.4c0,0.77,0.63,1.4,1.4,1.4c0.77,0,1.4-0.63,1.4-1.4C146.35,76.13,145.72,75.5,144.95,75.5z M144.95,146.06
		c0.62,0,1.12-0.5,1.12-1.12c0-0.62-0.5-1.12-1.12-1.12c-0.62,0-1.12,0.5-1.12,1.12C143.83,145.56,144.33,146.06,144.95,146.06z
		 M144.95,111.49c0.31,0,0.56-0.25,0.56-0.57c0-0.31-0.25-0.56-0.56-0.56c-0.31,0-0.57,0.25-0.57,0.56
		C144.38,111.24,144.63,111.49,144.95,111.49z M144.95,157.98c0.94,0,1.7-0.76,1.7-1.7c0-0.93-0.76-1.7-1.7-1.7
		c-0.94,0-1.7,0.76-1.7,1.7C143.25,157.23,144.01,157.98,144.95,157.98z M142.11,93.12c-0.43,0-0.79,0.35-0.79,0.79
		c0,0.43,0.35,0.78,0.79,0.78c0.44,0,0.79-0.35,0.79-0.78C142.9,93.48,142.54,93.12,142.11,93.12z M142.11,140.21
		c0.51,0,0.93-0.42,0.93-0.93c0-0.51-0.42-0.93-0.93-0.93c-0.51,0-0.93,0.42-0.93,0.93C141.18,139.79,141.6,140.21,142.11,140.21z
		 M157.46,93.91c0,0.92,0.74,1.67,1.67,1.67c0.92,0,1.67-0.75,1.67-1.67c0-0.92-0.75-1.67-1.67-1.67
		C158.2,92.24,157.46,92.99,157.46,93.91z M142.11,81.44c-0.62,0-1.13,0.51-1.13,1.13c0,0.62,0.51,1.13,1.13,1.13
		c0.63,0,1.13-0.51,1.13-1.13C143.24,81.95,142.74,81.44,142.11,81.44z"/>
</g>
</svg>
