<?xml version="1.0" encoding="utf-8"?>
<!-- Generator: Adobe Illustrator 26.2.1, SVG Export Plug-In . SVG Version: 6.00 Build 0)  -->
<svg version="1.1" xmlns="http://www.w3.org/2000/svg" xmlns:xlink="http://www.w3.org/1999/xlink" x="0px" y="0px"
	 viewBox="0 0 225 225" style="enable-background:new 0 0 225 225;" xml:space="preserve">
<style type="text/css">
	.st0{display:none;}
	.st1{display:inline;fill:#FAB433;}
	.st2{fill:none;}
	.st3{fill:none;stroke:#000000;stroke-width:1.6;stroke-miterlimit:10;}
	.st4{fill:none;stroke:#000000;stroke-width:0.7265;stroke-miterlimit:10;}
	.st5{fill:none;stroke:#000000;stroke-linecap:round;stroke-linejoin:round;stroke-miterlimit:10;}
	.st6{fill:none;stroke:#000000;stroke-miterlimit:10;}
	.st7{fill:none;stroke:#000000;stroke-width:0.7105;stroke-miterlimit:10;}
	.st8{fill:none;stroke:#000000;stroke-width:5.4;stroke-linecap:round;stroke-linejoin:round;stroke-miterlimit:10;}
	.st9{fill:none;stroke:#000000;stroke-width:2.9309;stroke-linecap:round;stroke-linejoin:round;stroke-miterlimit:10;}
	.st10{fill:none;stroke:#000000;stroke-width:0.5;stroke-linecap:round;stroke-linejoin:round;}
	.st11{fill:none;stroke:#FFFFFF;stroke-width:0;stroke-linecap:round;stroke-linejoin:round;}
	.st12{fill:#FFFFFF;}
	.st13{fill:none;stroke:#000000;stroke-width:1.4;stroke-miterlimit:10;}
	.st14{fill:url(#);stroke:#000000;stroke-width:1.4387;stroke-miterlimit:10;}
	.st15{fill:url(#);stroke:#000000;stroke-width:1.3718;stroke-miterlimit:10;}
	.st16{fill:none;stroke:#000000;stroke-width:1.0041;stroke-miterlimit:10;}
	.st17{fill:none;stroke:#000000;stroke-width:1.3621;stroke-miterlimit:10;}
	.st18{fill:none;stroke:#000000;stroke-width:0.25;stroke-miterlimit:10;}
</style>
<g id="Layer_2" class="st0">
	<rect id="XMLID_573_" x="-835.99" y="-275.01" class="st1" width="1160" height="772"/>
</g>
<g id="Layer_1">
	<g>
		<path d="M113.17,84.75c0.91,0.02,1.81,0.09,2.7,0.2l3.43-23.28c0.03-0.19,0.13-0.36,0.29-0.46c0.13-0.08,0.28-0.11,0.43-0.1
			c4.3-2.77,8.49-4.79,12.47-5.99c1.78-0.55,3.56-0.93,5.27-1.14c2.35-0.29,4.59-0.26,6.69,0.09l-0.54-0.29l-2.91-1.43
			c-0.02-0.01-0.04-0.02-0.07-0.04c-0.16-0.08-0.32-0.16-0.48-0.24l-0.74-0.34c-4.06-1.74-8.86-1.89-14.24-0.45
			c-1.67,0.45-3.42,1.06-5.19,1.82c-2.36,1.02-4.75,2.29-7.11,3.77l0,20.68L113.17,84.75z"/>
		<path d="M105.39,61.2c0.16,0.11,0.26,0.27,0.29,0.46l3.43,23.28c0.89-0.11,1.79-0.18,2.7-0.2l0-27.87
			c-2.4-1.49-4.79-2.76-7.12-3.77c-1.74-0.75-3.48-1.36-5.18-1.82c-3.64-0.97-7.05-1.22-10.12-0.75c-1.19,0.19-2.33,0.49-3.4,0.89
			c-0.33,0.12-0.63,0.24-0.94,0.38c-0.51,0.25-1.01,0.51-1.55,0.76l-0.89,0.44c-0.22,0.11-0.43,0.22-0.65,0.33l-1.15,0.59
			c-0.06,0.04-0.13,0.07-0.2,0.11c2.06-0.34,4.27-0.37,6.58-0.08c1.71,0.21,3.5,0.59,5.29,1.14c4.01,1.21,8.2,3.23,12.47,5.99
			C105.12,61.1,105.27,61.12,105.39,61.2z"/>
		<path d="M71.72,144.53c-0.03-0.09-0.05-0.18-0.04-0.28c0.01-0.19,0.1-0.37,0.25-0.49l19.28-15.27c-0.53-0.67-1.02-1.36-1.48-2.08
			l-25.11,14.48c-0.35,9.78,1.62,17.62,5.72,22.68c0.77,0.94,1.6,1.79,2.48,2.51c0.26,0.21,0.53,0.43,0.8,0.63l1.63,1.08
			c0.21,0.14,0.42,0.29,0.62,0.43l0.3,0.19c0.1,0.07,0.2,0.13,0.31,0.2c0.38,0.25,0.73,0.48,1.08,0.7l0.09,0.06
			c0.04,0.02,0.08,0.05,0.12,0.07C73.22,163.88,71.13,155.31,71.72,144.53z"/>
		<path d="M133.79,128.49l19.29,15.27c0.15,0.12,0.24,0.3,0.25,0.49c0.01,0.1-0.01,0.19-0.04,0.28c0.6,10.82-1.51,19.41-6.11,24.96
			l0.46-0.28l0.04-0.03l2.7-1.8c0.02-0.01,0.03-0.02,0.05-0.03v0c0.22-0.15,0.45-0.29,0.67-0.45c0.02-0.01,0.03-0.03,0.05-0.04
			l0.25-0.17c0.06-0.05,0.1-0.08,0.14-0.11c6.17-4.61,9.3-13.72,8.87-25.69l-25.12-14.48C134.81,127.13,134.31,127.82,133.79,128.49
			z"/>
		<path d="M147.12,169.56l0.04-0.02l-0.01-0.01C147.13,169.54,147.12,169.55,147.12,169.56z"/>
		<path d="M89.03,125.26c-0.39-0.67-0.74-1.36-1.07-2.06l-0.33-0.14l-22.31,8.81c-0.03,0.02-0.05,0.05-0.08,0.06
			c-0.19,0.09-0.42,0.18-0.61,0.08c-9.78-4.91-16.23-11.06-18.76-17.87l0.02,0.6l0.22,3.24c0.01,0.32,0.03,0.58,0.05,0.87l0.05,0.56
			c0.9,7.55,7.16,14.77,17.63,20.37L89.03,125.26z"/>
		<path d="M137.04,123.19c-0.33,0.71-0.69,1.39-1.07,2.06l25.19,14.53c8.53-4.56,14.27-10.15,16.59-16.2
			c0.44-1.15,0.75-2.26,0.93-3.4c0.06-0.34,0.11-0.68,0.14-1.01c0.03-0.51,0.07-1.09,0.11-1.7l0.18-3.03c0-0.07,0-0.14,0-0.22
			c-2.54,6.78-8.98,12.91-18.73,17.8c-0.19,0.1-0.42,0.1-0.61,0c-0.09-0.04-0.16-0.11-0.21-0.18l-22.19-8.77L137.04,123.19z"/>
		<path d="M92.08,129.53c4.96,5.71,12.27,9.32,20.42,9.32c8.16,0,15.46-3.61,20.43-9.32c0.3-0.34,0.58-0.69,0.86-1.04
			c0.53-0.67,1.02-1.36,1.48-2.08l0,0c0.24-0.38,0.48-0.76,0.7-1.15c0.39-0.67,0.74-1.36,1.07-2.06c0.03-0.07,0.07-0.15,0.1-0.22
			c0.19-0.41,0.36-0.82,0.53-1.24c1.22-3.08,1.89-6.43,1.89-9.93c0-13.34-9.65-24.42-22.36-26.64c-0.44-0.08-0.89-0.14-1.34-0.2
			c-0.89-0.11-1.78-0.18-2.7-0.2c-0.22-0.01-0.45-0.02-0.67-0.02c-0.23,0-0.45,0.01-0.68,0.02c-0.91,0.02-1.82,0.09-2.7,0.2
			c-0.45,0.06-0.89,0.12-1.34,0.2c-12.69,2.23-22.34,13.3-22.34,26.64c0,3.51,0.67,6.85,1.89,9.93c0.17,0.42,0.34,0.83,0.53,1.24
			c0.03,0.08,0.07,0.15,0.1,0.23c0.33,0.7,0.69,1.39,1.07,2.06c0.22,0.39,0.46,0.78,0.7,1.15v0c0.46,0.72,0.96,1.41,1.48,2.08
			C91.49,128.85,91.78,129.19,92.08,129.53z"/>
		<path d="M86.45,173.89c0.06,0.03,0.11,0.06,0.16,0.1c16.87,7.09,36.04,6.96,52.72-0.39c0.69-0.32,1.39-0.65,2.1-0.99l0.59-0.35
			c1.17-0.73,2.29-1.65,3.3-2.71c4.84-5.11,7.13-13.48,6.65-24.25c-5.54,2-11.62,3.56-18.11,4.64c-6.52,1.08-13.31,1.67-20.19,1.73
			c-7.68,0.05-15.27-0.51-22.51-1.72c-6.5-1.09-12.6-2.65-18.14-4.65c-0.48,10.78,1.81,19.14,6.65,24.24
			c1.09,1.16,2.33,2.14,3.68,2.94C84.31,172.93,85.37,173.42,86.45,173.89z"/>
		<path d="M92.04,48.97c0.16,0,0.33,0,0.49,0c2.32,0,4.78,0.34,7.34,1.03c1.76,0.48,3.57,1.11,5.36,1.88
			c2.38,1.03,4.82,2.31,7.26,3.83c2.4-1.5,4.84-2.8,7.26-3.84c1.84-0.79,3.64-1.42,5.37-1.88c2.73-0.73,5.31-1.08,7.75-1.02
			c-0.36-0.11-0.72-0.23-1.08-0.33C118.63,44.65,104.87,44.81,92.04,48.97z"/>
		<path d="M75.18,57.36c-0.86,0.61-1.82,1.28-2.77,1.98c-0.13,0.09-0.28,0.13-0.42,0.13c-11.1,8.44-19.25,20.12-23.36,33.73
			c-1.16,3.84-1.97,7.73-2.43,11.63c0.04,0.1,0.05,0.2,0.04,0.31c-0.08,0.81-0.15,1.64-0.2,2.47l0,0.21c0,0.16,0,0.31,0,0.48
			c0.05,1.42,0.29,2.84,0.7,4.21c2,6.75,8.11,12.92,17.69,17.89c2.09-11.74,6.8-24.3,13.62-36.37c0.64-1.13,1.35-2.34,2.25-3.82
			C87.14,79,95.28,69.27,103.9,62.01c-4.04-2.58-8.01-4.46-11.79-5.61c-1.72-0.53-3.43-0.89-5.07-1.09
			c-2.67-0.33-5.19-0.22-7.48,0.33C77.99,56.03,76.51,56.61,75.18,57.36z"/>
		<path d="M177.58,127.06c-2.98,5.21-8.38,9.97-15.83,13.94c0.29,8.46-1.18,15.55-4.22,20.74
			C167.78,152.37,174.64,140.17,177.58,127.06z"/>
		<path d="M47.3,126.79c1.31,5.93,3.45,11.72,6.39,17.22c3.59,6.69,8.24,12.67,13.76,17.72c-3.03-5.18-4.47-12.26-4.19-20.73
			C55.7,136.98,50.25,132.09,47.3,126.79z"/>
		<path d="M178.97,107.85c-0.09-1.05-0.2-2.21-0.33-3.38c-0.03-0.14-0.02-0.29,0.04-0.42c-0.99-7.88-3.41-15.69-7.36-23.07
			c-4.69-8.75-11.12-16.19-18.84-21.96c0,0,0,0,0,0c-0.14,0-0.27-0.04-0.39-0.12c-0.67-0.48-1.36-0.95-2.05-1.41
			c-0.19-0.11-0.38-0.23-0.58-0.33c-1.22-0.66-2.57-1.17-4.01-1.52c-2.3-0.55-4.83-0.66-7.5-0.33c-1.64,0.2-3.34,0.57-5.04,1.09
			c-3.76,1.13-7.72,3.02-11.79,5.61c8.63,7.27,16.77,17,23.6,28.19l0.33,0.54c0.25,0.42,0.51,0.83,0.76,1.25
			c7.47,12.69,12.58,25.95,14.8,38.41c9.44-4.91,15.7-11.24,17.67-17.89C178.72,110.97,178.96,109.41,178.97,107.85z"/>
	</g>
</g>
</svg>
