<?xml version="1.0" encoding="utf-8"?>
<!-- Generator: Adobe Illustrator 26.2.1, SVG Export Plug-In . SVG Version: 6.00 Build 0)  -->
<svg version="1.1" xmlns="http://www.w3.org/2000/svg" xmlns:xlink="http://www.w3.org/1999/xlink" x="0px" y="0px"
	 viewBox="0 0 225 225" style="enable-background:new 0 0 225 225;" xml:space="preserve">
<style type="text/css">
	.st0{display:none;}
	.st1{display:inline;fill:#FAB433;}
	.st2{fill:none;}
	.st3{fill:none;stroke:#000000;stroke-width:1.6;stroke-miterlimit:10;}
	.st4{fill:none;stroke:#000000;stroke-width:0.7265;stroke-miterlimit:10;}
	.st5{fill:none;stroke:#000000;stroke-linecap:round;stroke-linejoin:round;stroke-miterlimit:10;}
	.st6{fill:none;stroke:#000000;stroke-miterlimit:10;}
	.st7{fill:none;stroke:#000000;stroke-width:0.7105;stroke-miterlimit:10;}
	.st8{fill:none;stroke:#000000;stroke-width:5.4;stroke-linecap:round;stroke-linejoin:round;stroke-miterlimit:10;}
	.st9{fill:none;stroke:#000000;stroke-width:2.9309;stroke-linecap:round;stroke-linejoin:round;stroke-miterlimit:10;}
	.st10{fill:none;stroke:#000000;stroke-width:0.5;stroke-linecap:round;stroke-linejoin:round;}
	.st11{fill:none;stroke:#FFFFFF;stroke-width:0;stroke-linecap:round;stroke-linejoin:round;}
	.st12{fill:#FFFFFF;}
	.st13{fill:none;stroke:#000000;stroke-width:1.4;stroke-miterlimit:10;}
	.st14{fill:url(#);stroke:#000000;stroke-width:1.4387;stroke-miterlimit:10;}
	.st15{fill:url(#);stroke:#000000;stroke-width:1.3718;stroke-miterlimit:10;}
	.st16{fill:none;stroke:#000000;stroke-width:1.0041;stroke-miterlimit:10;}
	.st17{fill:none;stroke:#000000;stroke-width:1.3621;stroke-miterlimit:10;}
	.st18{fill:none;stroke:#000000;stroke-width:0.25;stroke-miterlimit:10;}
</style>
<g id="Layer_2" class="st0">
	<rect id="XMLID_1014_" x="-345.99" y="-520.01" class="st1" width="1160" height="772"/>
</g>
<g id="Layer_1">
	<g id="XMLID_1122_">
		<path d="M112.51,46.9c-36.21,0-65.6,29.39-65.6,65.6c0,36.21,29.39,65.6,65.6,65.6c4.53,0,8.92-0.46,13.12-1.31v-8.1
			c-3.67,0.74-7.52,1.16-11.47,1.16c-31.64,0-57.33-25.69-57.33-57.33c0-31.66,25.69-57.35,57.33-57.35c3.95,0,7.8,0.41,11.47,1.16
			v-8.1C121.43,47.35,117.04,46.9,112.51,46.9z M81.62,146.49c8.15,7.41,18.99,11.93,30.89,11.93c4.59,0,8.98-0.66,13.11-1.9v-0.01
			c-4.13,1.25-8.53,1.9-13.12,1.9C100.61,158.41,89.78,153.9,81.62,146.49z"/>
		<path d="M105.95,86.42h-6.93v6.93h6.93V86.42z M98.4,86.42h-6.93v6.93h6.93V86.42z M98.4,71.3h-6.17
			c-0.25,0.13-0.5,0.26-0.76,0.39v6.54h6.93V71.3z M98.4,93.97h-6.93v6.93h6.93V93.97z M98.4,101.53h-6.93v6.93h6.93V101.53z
			 M98.4,139.32h-6.93v6.93h6.93V139.32z M98.4,124.21h-6.93v6.93h6.93V124.21z M98.4,112.71v-0.31v-3.31h-6.93v3.31v0.31v3.31h6.93
			V112.71z M98.4,116.65h-6.93v6.93h6.93V116.65z M98.4,68.8c-1.65,0.53-3.26,1.16-4.83,1.87h4.83V68.8z M98.4,131.76h-6.93v6.93
			h6.93V131.76z M105.95,101.53h-6.93v6.93h6.93V101.53z M105.95,116.65h-6.93v6.93h6.93V116.65z M105.95,112.71v-0.31v-3.31h-6.93
			v3.31v0.31v3.31h6.93V112.71z M105.95,93.97h-6.93v6.93h6.93V93.97z M105.95,131.76h-6.93v6.93h6.93V131.76z M105.95,146.88h-6.93
			v6.93h6.93V146.88z M105.95,139.32h-6.93v6.93h6.93V139.32z M105.95,124.21h-6.93v6.93h6.93V124.21z M98.4,78.86h-6.93v6.93h6.93
			V78.86z M113.51,116.65h-6.93v6.93h6.93V116.65z M87.53,78.23h3.31v-6.22c-2.45,1.31-4.77,2.85-6.93,4.57v1.65h3.31H87.53z
			 M113.51,112.71v-0.31v-3.31h-6.93v3.31v0.31v3.31h6.93V112.71z M113.51,93.97h-6.93v6.93h6.93V93.97z M113.51,86.42h-6.93v6.93
			h6.93V86.42z M113.51,124.21h-6.93v6.93h6.93V124.21z M113.51,146.88h-6.93v6.93h6.93V146.88z M113.51,139.32h-6.93v6.93h6.93
			V139.32z M113.51,78.86h-6.93v6.93h6.93V78.86z M113.51,131.76h-6.93v6.93h6.93V131.76z M113.51,101.53h-6.93v6.93h6.93V101.53z
			 M87.53,100.9h3.31v-6.93h-3.31h-0.32h-3.31v6.93h3.31H87.53z M87.53,108.46h3.31v-6.93h-3.31h-0.32h-3.31v6.93h3.31H87.53z
			 M113.51,71.3h-6.93v6.93h6.93V71.3z M87.53,93.35h3.31v-6.93h-3.31h-0.32h-3.31v6.93h3.31H87.53z M87.53,85.79h3.31v-6.93h-3.31
			h-0.32h-3.31v6.93h3.31H87.53z M87.53,116.02h3.31v-3.31v-0.31v-3.31h-3.31h-0.32h-3.31v3.31v0.31v3.31h3.31H87.53z M87.53,123.58
			h3.31v-6.93h-3.31h-0.32h-3.31v6.93h3.31H87.53z M87.53,138.69h3.31v-6.93h-3.31h-0.32h-3.31v6.93h3.31H87.53z M87.53,146.25h3.31
			v-6.93h-3.31h-0.32h-3.31v6.93h3.31H87.53z M87.53,131.14h3.31v-6.93h-3.31h-0.32h-3.31v6.93h3.31H87.53z M68.79,98.45v2.45h6.93
			v-6.93H70.5C69.85,95.43,69.28,96.92,68.79,98.45z M83.28,139.32h-6.93v1.47c1.53,1.95,3.2,3.78,5.02,5.45h1.91V139.32z
			 M66.6,112.5c0,1.18,0.06,2.35,0.15,3.52h1.41v-3.31v-0.31v-3.31h-1.42C66.66,110.22,66.6,111.35,66.6,112.5z M83.28,86.42h-6.93
			v6.93h6.93V86.42z M114.14,85.79h6.93v-6.93h-6.93V85.79z M90.84,152.99c0.1,0.05,0.2,0.1,0.31,0.16
			C91.04,153.09,90.94,153.04,90.84,152.99L90.84,152.99z M82.07,146.88h0.01c-0.24-0.21-0.48-0.41-0.71-0.63
			C81.61,146.47,81.84,146.67,82.07,146.88z M92.44,153.81c0.13,0.06,0.26,0.12,0.38,0.18c-0.12-0.06-0.24-0.12-0.36-0.18H92.44z
			 M99.03,156.4L99.03,156.4c-0.11-0.04-0.23-0.07-0.34-0.11C98.8,156.33,98.91,156.36,99.03,156.4z M82.09,146.88
			c0.39,0.35,0.79,0.69,1.19,1.03v-1.03H82.09z M98.4,154.44h-4.58c-0.33-0.15-0.66-0.3-0.99-0.45c1.89,0.9,3.84,1.67,5.86,2.3
			c-0.1-0.03-0.19-0.06-0.29-0.09V154.44z M112.52,66.58c-2.01,0-3.99,0.14-5.94,0.39v0.07v0.31v3.31h6.93v-3.31v-0.31v-0.44
			c0.21,0,0.42,0.02,0.63,0.02v0.42v0.31v3.31h6.93V67.4c0.21,0.04,0.42,0.07,0.63,0.12v3.16h3.93v0.63h-3.93v6.93h3.93v0.63h-3.93
			v6.93h3.93v0.63h-3.93v6.93h3.93v0.63h-3.93v6.93h3.93v0.63h-3.93v6.93h3.93v0.63h-3.93v3.31v0.31v3.31h3.93v0.63h-3.93v6.93h3.93
			v0.63h-3.93v6.93h3.93v0.63h-3.93v6.93h3.93v0.63h-3.93v6.93h3.93v0.63h-3.93v6.93h3.93v0.63h-3.93v3.03
			c-0.21,0.04-0.42,0.08-0.63,0.12v-3.15h-6.93v3.31v0.31v0.29c-0.21,0.01-0.42,0.02-0.63,0.02v-0.31v-0.31v-3.31h-6.93v3.31v0.27
			c-0.21-0.03-0.42-0.05-0.63-0.08v-0.19v-3.31h-6.93v1.96c4.27,1.31,8.79,2.02,13.49,2.02c4.59,0,8.99-0.66,13.12-1.9V68.49
			C121.51,67.24,117.11,66.58,112.52,66.58z M98.4,146.88h-6.93v6.43c-0.11-0.06-0.22-0.11-0.33-0.17c0.43,0.23,0.87,0.45,1.32,0.66
			h5.94V146.88z M87.53,146.88h-0.32h-3.31v1.53c2.16,1.72,4.48,3.25,6.93,4.57v-6.1H87.53z M83.28,147.92
			c0.21,0.17,0.42,0.33,0.63,0.5v-0.01c-0.21-0.17-0.42-0.34-0.63-0.51V147.92z M121.07,71.3h-6.93v6.93h6.93V71.3z M83.28,112.71
			v-0.31v-3.31h-6.93v3.31v0.31v3.31h6.93V112.71z M83.28,93.97h-6.93v6.93h6.93V93.97z M83.28,116.65h-6.93v6.93h6.93V116.65z
			 M83.28,101.53h-6.93v6.93h6.93V101.53z M83.28,124.21h-6.93v6.93h6.93V124.21z M114.14,131.14h6.93v-6.93h-6.93V131.14z
			 M114.14,146.25h6.93v-6.93h-6.93V146.25z M114.14,93.35h6.93v-6.93h-6.93V93.35z M114.14,153.81h6.93v-6.93h-6.93V153.81z
			 M114.14,138.69h6.93v-6.93h-6.93V138.69z M114.14,108.46h6.93v-6.93h-6.93V108.46z M105.95,78.86h-6.93v6.93h6.93V78.86z
			 M114.14,112.4v0.31v3.31h6.93v-3.31v-0.31v-3.31h-6.93V112.4z M114.14,123.58h6.93v-6.93h-6.93V123.58z M114.14,100.9h6.93v-6.93
			h-6.93V100.9z M67.95,123.58h0.21v-6.93H66.8C67.01,119.01,67.4,121.33,67.95,123.58z M83.28,131.76h-6.93v6.93h6.93V131.76z
			 M70.78,93.35h4.94v-6.93h-1C73.22,88.6,71.9,90.91,70.78,93.35z M68.16,124.4v-0.19h-0.05C68.12,124.27,68.15,124.34,68.16,124.4
			z M105.95,71.3h-6.93v6.93h6.93V71.3z M105.95,67.36v-0.31c-2.37,0.34-4.69,0.85-6.93,1.54v2.07h6.93V67.36z M68.79,123.58h6.93
			v-6.93h-6.93V123.58z M83.28,77.08c-0.45,0.37-0.89,0.76-1.33,1.15h1.33V77.08z M83.28,78.86h-2.02
			c-1.77,1.65-3.41,3.44-4.91,5.35v1.58h6.93V78.86z M68.79,112.4v0.31v3.31h6.93v-3.31v-0.31v-3.31h-6.93V112.4z M74.8,138.69h0.92
			v-6.93h-4.89C71.95,134.2,73.28,136.51,74.8,138.69z M75.72,139.99v-0.67h-0.48C75.4,139.55,75.56,139.77,75.72,139.99z
			 M75.72,85.79v-0.78c-0.19,0.25-0.37,0.52-0.55,0.78H75.72z M68.16,100.9v-0.3c-0.03,0.1-0.06,0.2-0.08,0.3H68.16z M68.79,108.46
			h6.93v-6.93h-6.93V108.46z M66.79,108.46h1.37v-6.93h-0.24C67.38,103.78,66.99,106.09,66.79,108.46z M68.79,126.55
			c0.5,1.57,1.09,3.1,1.75,4.58h5.18v-6.93h-6.93V126.55z"/>
		<path d="M166.1,150.27c-0.5,0.71-1.02,1.42-1.55,2.11C165.08,151.69,165.6,150.98,166.1,150.27z M138.99,150.01h27.29
			c0.81-1.15,1.58-2.33,2.31-3.54H143.4C142,147.74,140.53,148.92,138.99,150.01z M168.59,146.47c0.01-0.02,0.03-0.05,0.04-0.07
			C168.61,146.43,168.6,146.45,168.59,146.47L168.59,146.47z M168.63,146.4c0.46-0.75,0.9-1.52,1.33-2.29
			C169.53,144.89,169.09,145.65,168.63,146.4z M166.29,150.01h-0.01c-0.06,0.08-0.11,0.17-0.17,0.26
			C166.16,150.18,166.23,150.1,166.29,150.01z M145.81,144.11h24.14c0.64-1.16,1.25-2.34,1.83-3.54h-22.93
			C147.9,141.8,146.89,142.98,145.81,144.11z M127.46,155.92h34.15c1.02-1.15,2-2.32,2.94-3.54h-29.28
			C132.8,153.79,130.19,154.98,127.46,155.92z M161.63,155.92h-0.02c-0.71,0.8-1.42,1.59-2.16,2.35
			C160.2,157.51,160.92,156.72,161.63,155.92z M144.11,79.17h24.88c-0.72-1.21-1.48-2.38-2.27-3.54h-26.82
			C141.37,76.73,142.77,77.91,144.11,79.17z M166.73,75.63c-0.19-0.28-0.4-0.56-0.6-0.84c0.19,0.28,0.38,0.56,0.57,0.84H166.73z
			 M129.25,69.72c2.49,0.98,4.87,2.17,7.13,3.54h28.64c-0.91-1.21-1.84-2.4-2.83-3.54H129.25z M165.53,73.95
			c0.2,0.28,0.4,0.56,0.6,0.85C165.94,74.51,165.74,74.23,165.53,73.95z M165.05,73.27h-0.03c0.17,0.23,0.35,0.45,0.51,0.68
			C165.37,73.72,165.22,73.49,165.05,73.27z M153.95,132.3h21.08c0.37-1.17,0.71-2.35,1.02-3.54h-20.58
			C155.01,129.97,154.5,131.15,153.95,132.3z M156.28,126.4h20.32c0.25-1.17,0.48-2.35,0.67-3.54h-20.02
			C156.97,124.06,156.65,125.24,156.28,126.4z M150.56,138.21h22.29c-0.34,0.8-0.69,1.58-1.06,2.36c0.91-1.92,1.72-3.89,2.44-5.9
			h-21.5C152.06,135.88,151.34,137.06,150.56,138.21z M176.05,128.76c0.01-0.05,0.02-0.1,0.03-0.14
			C176.07,128.67,176.06,128.71,176.05,128.76L176.05,128.76z M176.35,127.51c-0.09,0.37-0.17,0.74-0.26,1.1
			C176.18,128.25,176.26,127.88,176.35,127.51z M175.05,132.3h-0.02c-0.08,0.26-0.16,0.52-0.24,0.78
			C174.87,132.82,174.97,132.56,175.05,132.3z M176.61,126.4h-0.01c-0.08,0.37-0.17,0.74-0.25,1.12
			C176.44,127.14,176.53,126.77,176.61,126.4z M174.24,134.67c0.1-0.28,0.19-0.57,0.29-0.86c-0.1,0.29-0.2,0.57-0.31,0.86H174.24z
			 M177.27,122.86c0.12-0.78,0.24-1.57,0.34-2.36C177.51,121.29,177.39,122.08,177.27,122.86L177.27,122.86z M174.78,133.08
			c-0.08,0.24-0.16,0.48-0.25,0.73C174.62,133.56,174.7,133.32,174.78,133.08z M157.73,120.5h19.88c0.14-1.17,0.25-2.35,0.33-3.54
			h-19.73C158.09,118.15,157.93,119.33,157.73,120.5z M157.4,102.78h19.97c-0.18-1.19-0.39-2.37-0.63-3.54h-20.25
			C156.84,100.4,157.14,101.59,157.4,102.78z M176.71,99.09c-0.15-0.74-0.32-1.48-0.5-2.21C176.39,97.62,176.56,98.35,176.71,99.09z
			 M176.75,99.24c-0.01-0.05-0.02-0.1-0.03-0.15C176.72,99.14,176.73,99.19,176.75,99.24L176.75,99.24z M177.4,102.96
			c0.11,0.72,0.2,1.45,0.28,2.18C177.6,104.41,177.5,103.68,177.4,102.96z M177.37,102.78L177.37,102.78c0,0.06,0.01,0.11,0.02,0.17
			C177.39,102.9,177.38,102.84,177.37,102.78z M178.07,111.05H158.4c0.01,0.48,0.03,0.96,0.03,1.44c0,0.7-0.02,1.4-0.05,2.1h19.68
			c0.02-0.7,0.05-1.4,0.05-2.1C178.11,112.01,178.08,111.53,178.07,111.05z M177.98,108.69h-0.01c0.04,0.78,0.09,1.57,0.1,2.36
			C178.06,110.26,178.03,109.47,177.98,108.69z M157.84,105.15c0.19,1.17,0.33,2.35,0.43,3.54h19.7c-0.07-1.19-0.16-2.37-0.29-3.54
			H157.84z M155.7,96.88h20.51c-0.29-1.19-0.61-2.37-0.97-3.54h-20.99C154.78,94.49,155.27,95.68,155.7,96.88z M151,87.44
			c0.75,1.15,1.45,2.33,2.09,3.54h21.37c-0.41-1.2-0.85-2.38-1.33-3.54H151z M174.47,90.98L174.47,90.98
			c0.26,0.78,0.53,1.57,0.77,2.36C175,92.54,174.74,91.76,174.47,90.98z M170.32,81.53c-0.02-0.03-0.03-0.06-0.05-0.09
			C170.28,81.47,170.3,81.5,170.32,81.53L170.32,81.53z M170.27,81.44c-0.41-0.77-0.84-1.52-1.28-2.27
			C169.43,79.92,169.85,80.68,170.27,81.44z M172.11,85.12c0.35,0.76,0.69,1.53,1.02,2.31C172.81,86.66,172.47,85.89,172.11,85.12z
			 M149.35,85.07h22.74c-0.56-1.2-1.15-2.38-1.78-3.54h-23.89C147.46,82.66,148.43,83.84,149.35,85.07z M172.09,85.07L172.09,85.07
			c0.01,0.02,0.01,0.03,0.02,0.05C172.11,85.11,172.1,85.09,172.09,85.07z M137.88,52.01h-12.25v3.54h19.41
			C142.73,54.23,140.35,53.05,137.88,52.01z M148.87,57.92h-23.24v3.54h28.04C152.12,60.21,150.53,59.02,148.87,57.92z
			 M156.43,63.82h-30.8v3.54h34.43C158.89,66.14,157.68,64.95,156.43,63.82z M125.63,175.99v0.79c2.31-0.47,4.56-1.08,6.77-1.78
			c-1.13,0.36-2.27,0.7-3.43,1H125.63z M136.29,173.63h-0.03c-1.1,0.43-2.22,0.83-3.34,1.2
			C134.06,174.46,135.18,174.06,136.29,173.63z M143.89,170.09c0.56-0.3,1.1-0.62,1.65-0.94c-0.56,0.33-1.14,0.63-1.72,0.94H143.89z
			 M125.63,173.63h10.63c2.61-1.02,5.12-2.21,7.56-3.54h-18.19V173.63z M125.63,167.73h22.22c-0.63,0.41-1.27,0.8-1.91,1.19
			c2.41-1.43,4.71-3.01,6.91-4.73h-27.21V167.73z M152.84,164.18c0,0,0.01-0.01,0.01-0.01
			C152.85,164.18,152.85,164.18,152.84,164.18L152.84,164.18z M125.63,158.28v3.54h30.06c1.29-1.13,2.55-2.31,3.75-3.54H125.63z
			 M155.57,161.93c-0.89,0.77-1.79,1.52-2.72,2.25C153.78,163.45,154.69,162.7,155.57,161.93z M155.7,161.82L155.7,161.82
			c-0.05,0.03-0.09,0.07-0.13,0.1C155.61,161.89,155.66,161.86,155.7,161.82z M131.83,49.81c0.92,0.28,1.83,0.58,2.72,0.9
			C133.66,50.39,132.75,50.1,131.83,49.81z M131.34,49.65h-0.05c0.18,0.05,0.36,0.11,0.53,0.16
			C131.67,49.76,131.51,49.7,131.34,49.65z M125.63,48.21v1.44h5.67C129.44,49.09,127.55,48.6,125.63,48.21z"/>
	</g>
</g>
</svg>
