<?xml version="1.0" encoding="utf-8"?>
<!-- Generator: Adobe Illustrator 26.2.1, SVG Export Plug-In . SVG Version: 6.00 Build 0)  -->
<svg version="1.1" xmlns="http://www.w3.org/2000/svg" xmlns:xlink="http://www.w3.org/1999/xlink" x="0px" y="0px"
	 viewBox="0 0 225 225" style="enable-background:new 0 0 225 225;" xml:space="preserve">
<style type="text/css">
	.st0{display:none;}
	.st1{display:inline;fill:#FAB433;}
	.st2{fill:none;}
	.st3{fill:none;stroke:#000000;stroke-width:1.6;stroke-miterlimit:10;}
	.st4{fill:none;stroke:#000000;stroke-width:0.7265;stroke-miterlimit:10;}
	.st5{fill:none;stroke:#000000;stroke-linecap:round;stroke-linejoin:round;stroke-miterlimit:10;}
	.st6{fill:none;stroke:#000000;stroke-miterlimit:10;}
	.st7{fill:none;stroke:#000000;stroke-width:0.7105;stroke-miterlimit:10;}
	.st8{fill:none;stroke:#000000;stroke-width:5.4;stroke-linecap:round;stroke-linejoin:round;stroke-miterlimit:10;}
	.st9{fill:none;stroke:#000000;stroke-width:2.9309;stroke-linecap:round;stroke-linejoin:round;stroke-miterlimit:10;}
	.st10{fill:none;stroke:#000000;stroke-width:0.5;stroke-linecap:round;stroke-linejoin:round;}
	.st11{fill:none;stroke:#FFFFFF;stroke-width:0;stroke-linecap:round;stroke-linejoin:round;}
	.st12{fill:#FFFFFF;}
	.st13{fill:none;stroke:#000000;stroke-width:1.4;stroke-miterlimit:10;}
	.st14{fill:url(#);stroke:#000000;stroke-width:1.4387;stroke-miterlimit:10;}
	.st15{fill:url(#);stroke:#000000;stroke-width:1.3718;stroke-miterlimit:10;}
	.st16{fill:none;stroke:#000000;stroke-width:1.0041;stroke-miterlimit:10;}
	.st17{fill:none;stroke:#000000;stroke-width:1.3621;stroke-miterlimit:10;}
	.st18{fill:none;stroke:#000000;stroke-width:0.25;stroke-miterlimit:10;}
</style>
<g id="Layer_2" class="st0">
	<rect id="XMLID_1638_" x="-590.99" y="-275.01" class="st1" width="1160" height="772"/>
</g>
<g id="Layer_1">
	<g id="XMLID_6198_">
		<g id="XMLID_6221_">
			<path id="XMLID_6242_" d="M178.53,92.73l-2.33,12.73c-0.23,1.23,0.64,2.4,1.93,2.62c1.29,0.22,2.52-0.61,2.74-1.84
				c0.05-0.26,0.04-0.53,0-0.78L178.53,92.73z"/>
			<path id="XMLID_6241_" d="M46.47,92.73l-2.33,12.73c-0.23,1.23,0.64,2.4,1.93,2.62c1.29,0.22,2.52-0.61,2.74-1.84
				c0.05-0.26,0.04-0.53,0-0.78L46.47,92.73z"/>
			<path id="XMLID_6240_" d="M171.93,77.29l-2.33,28.17c-0.1,1.23,0.86,2.31,2.15,2.4c1.29,0.1,2.42-0.82,2.52-2.05
				c0.01-0.12,0.01-0.24,0-0.35L171.93,77.29z"/>
			<path id="XMLID_6239_" d="M165.32,67.06l-2.33,38.4c-0.07,1.23,0.91,2.29,2.2,2.36c1.29,0.07,2.39-0.87,2.47-2.1
				c0.01-0.09,0-0.17,0-0.26L165.32,67.06z"/>
			<path id="XMLID_6238_" d="M158.72,59.88l-2.33,45.58c-0.06,1.23,0.93,2.28,2.22,2.34c1.29,0.06,2.39-0.89,2.45-2.12
				c0-0.07,0-0.15,0-0.22L158.72,59.88z"/>
			<path id="XMLID_6237_" d="M152.12,54.45l-2.33,51.02c-0.06,1.23,0.94,2.27,2.23,2.33s2.38-0.9,2.44-2.13c0-0.06,0-0.13,0-0.19
				L152.12,54.45z"/>
			<path id="XMLID_6236_" d="M145.52,50.27l-2.33,55.19c-0.05,1.23,0.95,2.27,2.24,2.32c1.29,0.05,2.38-0.91,2.43-2.14
				c0-0.06,0-0.12,0-0.18L145.52,50.27z"/>
			<path id="XMLID_6235_" d="M138.91,47.07l-2.33,58.39c-0.05,1.23,0.96,2.27,2.25,2.31c1.29,0.05,2.37-0.91,2.42-2.14
				c0-0.06,0-0.12,0-0.17L138.91,47.07z"/>
			<path id="XMLID_6234_" d="M132.31,44.7l-2.33,60.76c-0.05,1.23,0.96,2.26,2.25,2.31c1.29,0.05,2.37-0.92,2.42-2.15
				c0-0.05,0-0.11,0-0.16L132.31,44.7z"/>
			<path id="XMLID_6233_" d="M125.71,43.07l-2.33,62.4c-0.05,1.23,0.96,2.26,2.25,2.31c1.29,0.04,2.37-0.92,2.42-2.15
				c0-0.05,0-0.11,0-0.16L125.71,43.07z"/>
			<path id="XMLID_6232_" d="M119.1,42.12l-2.33,63.35c-0.05,1.23,0.96,2.26,2.25,2.31c1.29,0.04,2.37-0.92,2.42-2.15
				c0-0.05,0-0.11,0-0.16L119.1,42.12z"/>
			<path id="XMLID_6231_" d="M112.5,41.8l-2.33,63.67c-0.05,1.23,0.96,2.26,2.25,2.31c1.29,0.04,2.37-0.92,2.42-2.15
				c0-0.05,0-0.11,0-0.16L112.5,41.8z"/>
			<path id="XMLID_6230_" d="M105.9,42.12l-2.33,63.35c-0.05,1.23,0.96,2.26,2.25,2.31c1.29,0.04,2.37-0.92,2.42-2.15
				c0-0.05,0-0.11,0-0.16L105.9,42.12z"/>
			<path id="XMLID_6229_" d="M99.29,43.07l-2.33,62.4c-0.05,1.23,0.96,2.26,2.25,2.31c1.29,0.04,2.37-0.92,2.42-2.15
				c0-0.05,0-0.11,0-0.16L99.29,43.07z"/>
			<path id="XMLID_6228_" d="M92.69,44.7l-2.33,60.76c-0.05,1.23,0.96,2.26,2.25,2.31c1.29,0.05,2.37-0.92,2.42-2.15
				c0-0.05,0-0.11,0-0.16L92.69,44.7z"/>
			<path id="XMLID_6227_" d="M86.09,47.07l-2.33,58.39c-0.05,1.23,0.96,2.27,2.25,2.31c1.29,0.05,2.37-0.91,2.42-2.14
				c0-0.06,0-0.12,0-0.17L86.09,47.07z"/>
			<path id="XMLID_6226_" d="M79.48,50.27l-2.33,55.19c-0.05,1.23,0.95,2.27,2.24,2.32c1.29,0.05,2.38-0.91,2.43-2.14
				c0-0.06,0-0.12,0-0.18L79.48,50.27z"/>
			<path id="XMLID_6225_" d="M72.88,54.45l-2.33,51.02c-0.06,1.23,0.94,2.27,2.23,2.33c1.29,0.05,2.38-0.9,2.44-2.13
				c0-0.06,0-0.13,0-0.19L72.88,54.45z"/>
			<path id="XMLID_6224_" d="M66.28,59.88l-2.33,45.58c-0.06,1.23,0.93,2.28,2.22,2.34c1.29,0.06,2.39-0.89,2.45-2.12
				c0-0.07,0-0.15,0-0.22L66.28,59.88z"/>
			<path id="XMLID_6223_" d="M59.68,67.06l-2.33,38.4c-0.07,1.23,0.91,2.29,2.2,2.36c1.29,0.07,2.39-0.87,2.47-2.1
				c0.01-0.09,0-0.17,0-0.26L59.68,67.06z"/>
			<path id="XMLID_6222_" d="M53.07,77.29l-2.33,28.17c-0.1,1.23,0.86,2.31,2.15,2.4c1.29,0.1,2.42-0.82,2.52-2.05
				c0.01-0.12,0.01-0.24,0-0.35L53.07,77.29z"/>
		</g>
		<g id="XMLID_6199_">
			<path id="XMLID_6220_" d="M176.2,129.96l2.33-12.73l2.33,12.73c0.23,1.23-0.64,2.4-1.93,2.62c-1.29,0.22-2.52-0.61-2.74-1.84
				C176.15,130.48,176.15,130.21,176.2,129.96z"/>
			<path id="XMLID_6219_" d="M44.14,129.96l2.33-12.73l2.33,12.73c0.23,1.23-0.64,2.4-1.93,2.62c-1.29,0.22-2.52-0.61-2.74-1.84
				C44.09,130.48,44.09,130.21,44.14,129.96z"/>
			<path id="XMLID_6218_" d="M169.59,145.4l2.33-28.17l2.33,28.17c0.1,1.23-0.86,2.31-2.15,2.4c-1.29,0.1-2.42-0.82-2.52-2.05
				C169.58,145.64,169.58,145.51,169.59,145.4z"/>
			<path id="XMLID_6217_" d="M162.99,155.63l2.33-38.4l2.33,38.4c0.07,1.23-0.91,2.29-2.2,2.36c-1.29,0.07-2.39-0.87-2.47-2.1
				C162.98,155.8,162.98,155.71,162.99,155.63z"/>
			<path id="XMLID_6216_" d="M156.39,162.81l2.33-45.58l2.33,45.58c0.06,1.23-0.93,2.28-2.22,2.34c-1.29,0.06-2.39-0.89-2.45-2.12
				C156.38,162.96,156.38,162.88,156.39,162.81z"/>
			<path id="XMLID_6215_" d="M149.78,168.24l2.33-51.02l2.33,51.02c0.06,1.23-0.94,2.27-2.23,2.33c-1.29,0.05-2.38-0.9-2.44-2.13
				C149.78,168.37,149.78,168.3,149.78,168.24z"/>
			<path id="XMLID_6214_" d="M143.18,172.42l2.33-55.19l2.33,55.19c0.05,1.23-0.95,2.27-2.24,2.32c-1.29,0.05-2.38-0.91-2.43-2.14
				C143.18,172.54,143.18,172.48,143.18,172.42z"/>
			<path id="XMLID_6213_" d="M136.58,175.62l2.33-58.39l2.33,58.39c0.05,1.23-0.96,2.27-2.25,2.31c-1.29,0.05-2.37-0.91-2.42-2.14
				C136.58,175.74,136.58,175.67,136.58,175.62z"/>
			<path id="XMLID_6212_" d="M129.97,177.99l2.33-60.76l2.33,60.76c0.05,1.23-0.96,2.26-2.25,2.31s-2.37-0.92-2.42-2.15
				C129.97,178.1,129.97,178.04,129.97,177.99z"/>
			<path id="XMLID_6211_" d="M123.37,179.62l2.33-62.4l2.33,62.4c0.05,1.23-0.96,2.26-2.25,2.31c-1.29,0.04-2.37-0.92-2.42-2.15
				C123.37,179.73,123.37,179.68,123.37,179.62z"/>
			<path id="XMLID_6210_" d="M116.77,180.57l2.33-63.35l2.33,63.35c0.05,1.23-0.96,2.26-2.25,2.31c-1.29,0.04-2.37-0.92-2.42-2.15
				C116.77,180.68,116.77,180.62,116.77,180.57z"/>
			<path id="XMLID_6209_" d="M110.17,180.89l2.33-63.67l2.33,63.67c0.05,1.23-0.96,2.26-2.25,2.31c-1.29,0.04-2.37-0.92-2.42-2.15
				C110.16,181,110.16,180.94,110.17,180.89z"/>
			<path id="XMLID_6208_" d="M103.56,180.57l2.33-63.35l2.33,63.35c0.05,1.23-0.96,2.26-2.25,2.31c-1.29,0.04-2.37-0.92-2.42-2.15
				C103.56,180.68,103.56,180.62,103.56,180.57z"/>
			<path id="XMLID_6207_" d="M96.96,179.62l2.33-62.4l2.33,62.4c0.05,1.23-0.96,2.26-2.25,2.31c-1.29,0.04-2.37-0.92-2.42-2.15
				C96.96,179.73,96.96,179.68,96.96,179.62z"/>
			<path id="XMLID_6206_" d="M90.36,177.99l2.33-60.76l2.33,60.76c0.05,1.23-0.96,2.26-2.25,2.31c-1.29,0.05-2.37-0.92-2.42-2.15
				C90.35,178.1,90.35,178.04,90.36,177.99z"/>
			<path id="XMLID_6205_" d="M83.75,175.62l2.33-58.39l2.33,58.39c0.05,1.23-0.96,2.27-2.25,2.31c-1.29,0.05-2.37-0.91-2.42-2.14
				C83.75,175.74,83.75,175.67,83.75,175.62z"/>
			<path id="XMLID_6204_" d="M77.15,172.42l2.33-55.19l2.33,55.19c0.05,1.23-0.95,2.27-2.24,2.32c-1.29,0.05-2.38-0.91-2.43-2.14
				C77.15,172.54,77.15,172.48,77.15,172.42z"/>
			<path id="XMLID_6203_" d="M70.55,168.24l2.33-51.02l2.33,51.02c0.06,1.23-0.94,2.27-2.23,2.33c-1.29,0.05-2.38-0.9-2.44-2.13
				C70.54,168.37,70.54,168.3,70.55,168.24z"/>
			<path id="XMLID_6202_" d="M63.94,162.81l2.33-45.58l2.33,45.58c0.06,1.23-0.93,2.28-2.22,2.34c-1.29,0.06-2.39-0.89-2.45-2.12
				C63.94,162.96,63.94,162.88,63.94,162.81z"/>
			<path id="XMLID_6201_" d="M57.34,155.63l2.33-38.4l2.33,38.4c0.07,1.23-0.91,2.29-2.2,2.36c-1.29,0.07-2.39-0.87-2.47-2.1
				C57.34,155.8,57.34,155.71,57.34,155.63z"/>
			<path id="XMLID_6200_" d="M50.74,145.4l2.33-28.17l2.33,28.17c0.1,1.23-0.86,2.31-2.15,2.4c-1.29,0.1-2.42-0.82-2.52-2.05
				C50.73,145.64,50.73,145.51,50.74,145.4z"/>
		</g>
	</g>
</g>
</svg>
