<?xml version="1.0" encoding="utf-8"?>
<!-- Generator: Adobe Illustrator 26.2.1, SVG Export Plug-In . SVG Version: 6.00 Build 0)  -->
<svg version="1.1" xmlns="http://www.w3.org/2000/svg" xmlns:xlink="http://www.w3.org/1999/xlink" x="0px" y="0px"
	 viewBox="0 0 225 225" style="enable-background:new 0 0 225 225;" xml:space="preserve">
<style type="text/css">
	.st0{display:none;}
	.st1{display:inline;fill:#FAB433;}
	.st2{fill:none;}
	.st3{fill:none;stroke:#000000;stroke-width:1.6;stroke-miterlimit:10;}
	.st4{fill:none;stroke:#000000;stroke-width:0.7265;stroke-miterlimit:10;}
	.st5{fill:none;stroke:#000000;stroke-linecap:round;stroke-linejoin:round;stroke-miterlimit:10;}
	.st6{fill:none;stroke:#000000;stroke-miterlimit:10;}
	.st7{fill:none;stroke:#000000;stroke-width:0.7105;stroke-miterlimit:10;}
	.st8{fill:none;stroke:#000000;stroke-width:5.4;stroke-linecap:round;stroke-linejoin:round;stroke-miterlimit:10;}
	.st9{fill:none;stroke:#000000;stroke-width:2.9309;stroke-linecap:round;stroke-linejoin:round;stroke-miterlimit:10;}
	.st10{fill:none;stroke:#000000;stroke-width:0.5;stroke-linecap:round;stroke-linejoin:round;}
	.st11{fill:none;stroke:#FFFFFF;stroke-width:0;stroke-linecap:round;stroke-linejoin:round;}
	.st12{fill:#FFFFFF;}
	.st13{fill:none;stroke:#000000;stroke-width:1.4;stroke-miterlimit:10;}
	.st14{fill:url(#);stroke:#000000;stroke-width:1.4387;stroke-miterlimit:10;}
	.st15{fill:url(#);stroke:#000000;stroke-width:1.3718;stroke-miterlimit:10;}
	.st16{fill:none;stroke:#000000;stroke-width:1.0041;stroke-miterlimit:10;}
	.st17{fill:none;stroke:#000000;stroke-width:1.3621;stroke-miterlimit:10;}
	.st18{fill:none;stroke:#000000;stroke-width:0.25;stroke-miterlimit:10;}
</style>
<g id="Layer_2" class="st0">
	<rect id="XMLID_2028_" x="-100.99" y="-275.01" class="st1" width="1160" height="772"/>
</g>
<g id="Layer_1">
	<g id="XMLID_11420_">
		<path id="XMLID_11435_" class="st6" d="M180,112.5c0,9.15-1.81,17.85-5.1,25.81h-0.03c-3.4,8.26-8.42,15.69-14.63,21.9
			c-6.21,6.21-13.64,11.23-21.87,14.63c-7.96,3.32-16.71,5.16-25.87,5.16c-9.15,0-17.9-1.84-25.87-5.16
			c-8.26-3.4-15.66-8.42-21.87-14.63c-6.21-6.21-11.23-13.64-14.66-21.9c-3.29-7.97-5.1-16.66-5.1-25.81
			c0-9.18,1.84-17.9,5.13-25.87c3.43-8.24,8.42-15.66,14.63-21.87C71,58.53,78.45,53.5,86.77,50.1c7.94-3.29,16.63-5.1,25.73-5.1
			c9.1,0,17.79,1.81,25.73,5.1c8.29,3.4,15.77,8.42,22.01,14.66c6.21,6.21,11.2,13.63,14.63,21.87C178.16,94.6,180,103.32,180,112.5
			z"/>
		<path id="XMLID_11434_" class="st6" d="M180,112.5c0,9.15-1.81,17.85-5.1,25.81h-0.03c-3.4,8.26-8.42,15.69-14.63,21.9
			c-6.21,6.21-13.64,11.23-21.87,14.63c-7.96,3.32-16.71,5.16-25.87,5.16c0-9.21,1.84-17.96,5.16-25.92
			c3.43-8.21,8.42-15.61,14.61-21.82c6.21-6.21,13.66-11.23,21.92-14.63C162.13,114.31,170.85,112.5,180,112.5z"/>
		<path id="XMLID_11433_" class="st6" d="M112.5,180c-9.15,0-17.9-1.84-25.87-5.16c-8.26-3.4-15.66-8.42-21.87-14.63
			c-6.21-6.21-11.23-13.64-14.66-21.9c-3.29-7.97-5.1-16.66-5.1-25.81c9.15,0,17.85,1.81,25.81,5.13c8.26,3.4,15.69,8.4,21.9,14.61
			v0.03c6.18,6.18,11.2,13.58,14.63,21.82C110.66,162.04,112.5,170.79,112.5,180z"/>
		<path id="XMLID_11432_" class="st6" d="M180,112.5c0,9.15-1.81,17.85-5.1,25.81h-0.03c-3.4,8.26-8.42,15.69-14.63,21.9
			c-6.21,6.21-13.64,11.23-21.87,14.63c-7.96,3.32-16.71,5.16-25.87,5.16c-6.48-6.51-11.39-13.99-14.69-21.98
			c-3.4-8.23-5.1-17.01-5.1-25.76v-0.03c0-8.78,1.73-17.58,5.13-25.81c3.29-7.97,8.18-15.42,14.66-21.9
			c6.48-6.48,13.93-11.34,21.9-14.63c8.26-3.43,17.04-5.13,25.84-5.13c6.21,6.21,11.2,13.63,14.63,21.87
			C178.16,94.6,180,103.32,180,112.5z"/>
		<path id="XMLID_11431_" class="st6" d="M112.5,180c-9.15,0-17.9-1.84-25.87-5.16c-8.26-3.4-15.66-8.42-21.87-14.63
			c8.75,0,17.52,1.7,25.73,5.08C98.51,168.58,105.99,173.49,112.5,180z"/>
		<path id="XMLID_11430_" class="st6" d="M160.24,160.21c-6.21,6.21-13.64,11.23-21.87,14.63c-7.96,3.32-16.71,5.16-25.87,5.16
			c6.48-6.48,13.93-11.39,21.9-14.66h0.03C142.66,161.91,151.46,160.21,160.24,160.21z"/>
		<path id="XMLID_11429_" class="st6" d="M132.26,132.26c0,8.77-1.7,17.58-5.13,25.81c-3.29,7.97-8.15,15.44-14.63,21.92
			c-9.15,0-17.9-1.84-25.87-5.16c-8.26-3.4-15.66-8.42-21.87-14.63c-6.21-6.21-11.23-13.64-14.66-21.9
			c-3.29-7.97-5.1-16.66-5.1-25.81c0-9.18,1.84-17.9,5.13-25.87c3.43-8.24,8.42-15.66,14.63-21.87c8.8,0,17.58,1.7,25.84,5.13
			c7.96,3.29,15.42,8.15,21.9,14.63c6.45,6.45,11.34,13.91,14.63,21.87C130.56,114.66,132.26,123.46,132.26,132.26z"/>
		<path id="XMLID_11428_" class="st6" d="M154.19,117.63c0,8.94-1.81,17.71-5.16,25.84H149c-3.35,8.1-8.29,15.58-14.58,21.87h-0.03
			c-6.08,6.13-13.45,11.15-21.9,14.66c-9.15,0-17.9-1.84-25.87-5.16c-8.26-3.4-15.66-8.42-21.87-14.63
			c-6.21-6.21-11.23-13.64-14.66-21.9c-3.29-7.97-5.1-16.66-5.1-25.81c0-9.18,1.84-17.9,5.13-25.87
			c3.43-8.24,8.42-15.66,14.63-21.87C71,58.53,78.45,53.5,86.77,50.1c8.88,0.03,17.63,1.81,25.7,5.16h0.03
			c8.13,3.38,15.58,8.32,21.9,14.63c6.1,6.07,11.12,13.45,14.63,21.9C152.54,100.24,154.19,109.02,154.19,117.63z"/>
		<path id="XMLID_11427_" class="st6" d="M138.37,174.84c-7.96,3.32-16.71,5.16-25.87,5.16
			C120.98,176.49,129.73,174.82,138.37,174.84z"/>
		<path id="XMLID_11426_" class="st6" d="M180,112.5c0,9.15-1.81,17.85-5.1,25.81h-0.03c-3.4,8.26-8.42,15.69-14.63,21.9
			c-6.21,6.21-13.64,11.23-21.87,14.63c-7.96,3.32-16.71,5.16-25.87,5.16c-3.51-8.48-5.18-17.28-5.16-25.92
			c0.03-8.91,1.81-17.66,5.16-25.73c3.38-8.15,8.32-15.63,14.63-21.95c6.07-6.07,13.45-11.1,21.9-14.61
			c8.45-3.51,17.23-5.16,25.84-5.16C178.16,94.6,180,103.32,180,112.5z"/>
		<path id="XMLID_11425_" class="st6" d="M112.5,180c-9.15,0-17.9-1.84-25.87-5.16c-8.26-3.4-15.66-8.42-21.87-14.63
			c-6.21-6.21-11.23-13.64-14.66-21.9c8.96,0,17.77,1.78,25.89,5.18c8.1,3.35,15.53,8.26,21.82,14.53
			C103.94,164.12,108.99,171.52,112.5,180z"/>
		<path id="XMLID_11424_" class="st6" d="M180,112.5c0,9.15-1.81,17.85-5.1,25.81h-0.03c-3.4,8.26-8.42,15.69-14.63,21.9
			c-6.21,6.21-13.64,11.23-21.87,14.63c-7.96,3.32-16.71,5.16-25.87,5.16c-8.51-3.51-15.9-8.59-22.01-14.72
			c-6.26-6.29-11.15-13.72-14.5-21.79c-3.38-8.13-5.18-16.93-5.18-25.87c0-8.61,1.65-17.39,5.16-25.84
			c3.51-8.45,8.53-15.82,14.63-21.9c6.32-6.32,13.74-11.26,21.87-14.63h0.03c8.1-3.35,16.82-5.13,25.73-5.16
			c8.29,3.4,15.77,8.42,22.01,14.66c6.21,6.21,11.2,13.63,14.63,21.87C178.16,94.6,180,103.32,180,112.5z"/>
		<path id="XMLID_11423_" class="st6" d="M112.5,180c-9.15,0-17.9-1.84-25.87-5.16C95.25,174.82,104.02,176.49,112.5,180z"/>
		<path id="XMLID_11422_" class="st6" d="M174.87,138.31c-3.4,8.26-8.42,15.69-14.63,21.9c-6.21,6.21-13.64,11.23-21.87,14.63
			c-7.96,3.32-16.71,5.16-25.87,5.16c3.51-8.48,8.53-15.85,14.63-21.92c6.29-6.32,13.74-11.23,21.87-14.61h0.03
			C157.16,140.09,165.93,138.31,174.87,138.31z"/>
		<path id="XMLID_11421_" class="st6" d="M117.66,154.08c0,8.64-1.65,17.44-5.16,25.92c-9.15,0-17.9-1.84-25.87-5.16
			c-8.26-3.4-15.66-8.42-21.87-14.63c-6.21-6.21-11.23-13.64-14.66-21.9c-3.29-7.97-5.1-16.66-5.1-25.81
			c0-9.18,1.84-17.9,5.13-25.87c8.61,0,17.39,1.65,25.84,5.16c8.45,3.51,15.82,8.53,21.87,14.63c6.35,6.32,11.29,13.8,14.66,21.92
			C115.85,136.45,117.63,145.17,117.66,154.08z"/>
	</g>
</g>
</svg>
