<?xml version="1.0" encoding="utf-8"?>
<!-- Generator: Adobe Illustrator 26.2.1, SVG Export Plug-In . SVG Version: 6.00 Build 0)  -->
<svg version="1.1" xmlns="http://www.w3.org/2000/svg" xmlns:xlink="http://www.w3.org/1999/xlink" x="0px" y="0px"
	 viewBox="0 0 225 225" style="enable-background:new 0 0 225 225;" xml:space="preserve">
<style type="text/css">
	.st0{fill:none;}
	.st1{fill:#FFFFFF;stroke:#000000;stroke-width:1.4211;stroke-miterlimit:10;}
	.st2{fill:#E2E2E4;}
	.st3{fill:none;stroke:#000000;stroke-width:1.4387;stroke-miterlimit:10;}
	.st4{fill:none;stroke:#000000;stroke-width:1.3718;stroke-miterlimit:10;}
	.st5{display:none;}
	.st6{display:inline;fill:#FAB433;}
	.st7{fill:none;stroke:#000000;stroke-width:1.6;stroke-miterlimit:10;}
	.st8{fill:none;stroke:#000000;stroke-width:0.7265;stroke-miterlimit:10;}
	.st9{fill:none;stroke:#000000;stroke-linecap:round;stroke-linejoin:round;stroke-miterlimit:10;}
	.st10{fill:none;stroke:#000000;stroke-miterlimit:10;}
	.st11{fill:none;stroke:#000000;stroke-width:0.7105;stroke-miterlimit:10;}
	.st12{fill:none;stroke:#000000;stroke-width:5.4;stroke-linecap:round;stroke-linejoin:round;stroke-miterlimit:10;}
	.st13{fill:none;stroke:#000000;stroke-width:2.9309;stroke-linecap:round;stroke-linejoin:round;stroke-miterlimit:10;}
	.st14{fill:none;stroke:#000000;stroke-width:0.5;stroke-linecap:round;stroke-linejoin:round;}
	.st15{fill:none;stroke:#FFFFFF;stroke-width:0;stroke-linecap:round;stroke-linejoin:round;}
	.st16{fill:#FFFFFF;}
	.st17{fill:none;stroke:#000000;stroke-width:1.4;stroke-miterlimit:10;}
	
		.st18{fill:url(#XMLID_00000016776504084988874100000014005699729078317970_);stroke:#000000;stroke-width:1.4387;stroke-miterlimit:10;}
	
		.st19{fill:url(#XMLID_00000150793245919507601550000002927763640637618833_);stroke:#000000;stroke-width:1.4387;stroke-miterlimit:10;}
	
		.st20{fill:url(#XMLID_00000166675463375147454070000000107558271277435303_);stroke:#000000;stroke-width:1.4387;stroke-miterlimit:10;}
	
		.st21{fill:url(#XMLID_00000055688347623639534070000017707185207280168836_);stroke:#000000;stroke-width:1.4387;stroke-miterlimit:10;}
	
		.st22{fill:url(#XMLID_00000006677267002491326150000017443198092237325970_);stroke:#000000;stroke-width:1.4387;stroke-miterlimit:10;}
	
		.st23{fill:url(#XMLID_00000173840827532068015150000011458794729670445712_);stroke:#000000;stroke-width:1.4387;stroke-miterlimit:10;}
	
		.st24{fill:url(#XMLID_00000015322428881793161290000008508886481496843664_);stroke:#000000;stroke-width:1.4387;stroke-miterlimit:10;}
	
		.st25{fill:url(#XMLID_00000114793034664175800430000012296138918208334498_);stroke:#000000;stroke-width:1.4387;stroke-miterlimit:10;}
	
		.st26{fill:url(#XMLID_00000032637057057261679650000009362405027295797422_);stroke:#000000;stroke-width:1.3718;stroke-miterlimit:10;}
	
		.st27{fill:url(#XMLID_00000047018534344309274620000012081686882683720577_);stroke:#000000;stroke-width:1.4387;stroke-miterlimit:10;}
	
		.st28{fill:url(#XMLID_00000075857245184222645870000013536402791738841999_);stroke:#000000;stroke-width:1.4387;stroke-miterlimit:10;}
	
		.st29{fill:url(#XMLID_00000032634430150589397240000009369942490730629808_);stroke:#000000;stroke-width:1.4387;stroke-miterlimit:10;}
	
		.st30{fill:url(#XMLID_00000101085213424367191970000001007243781065086379_);stroke:#000000;stroke-width:1.4387;stroke-miterlimit:10;}
	
		.st31{fill:url(#XMLID_00000003797351045858571630000018183678360071438224_);stroke:#000000;stroke-width:1.4387;stroke-miterlimit:10;}
	
		.st32{fill:url(#XMLID_00000064350966547435073750000009834147586732123785_);stroke:#000000;stroke-width:1.4387;stroke-miterlimit:10;}
	
		.st33{fill:url(#XMLID_00000050634971414233112830000002554898421352088242_);stroke:#000000;stroke-width:1.4387;stroke-miterlimit:10;}
	
		.st34{fill:url(#XMLID_00000041282443833098753390000012200460119499387784_);stroke:#000000;stroke-width:1.4387;stroke-miterlimit:10;}
	
		.st35{fill:url(#XMLID_00000170260353161348778820000015428077916891986869_);stroke:#000000;stroke-width:1.3718;stroke-miterlimit:10;}
	.st36{fill:none;stroke:#000000;stroke-width:1.0041;stroke-miterlimit:10;}
	.st37{fill:none;stroke:#000000;stroke-width:1.3621;stroke-miterlimit:10;}
	.st38{fill:none;stroke:#000000;stroke-width:0.25;stroke-miterlimit:10;}
</style>
<pattern  x="-2170.05" y="-1378.63" width="1644.59" height="1525.78" patternUnits="userSpaceOnUse" id="Unnamed_Pattern_5" viewBox="0 -1525.78 1644.59 1525.78" style="overflow:visible;">
	<g>
		<rect y="-1525.78" class="st0" width="1644.59" height="1525.78"/>
		<g id="XMLID_00000043435059647257989150000018054508378336071598_">
			<path id="XMLID_00000152968588344666564800000005903106122320077987_" d="M135-1459.97c-1.42,2.46-3.33,4.5-5.75,5.91
				c-10.61,6.12-26.65-1.8-35.83-17.7c-9.18-15.9-8.02-33.76,2.58-39.89c2.37-1.37,5.03-1.99,7.81-2.02
				c-0.12,0.28-0.24,0.55-0.32,0.84c-0.41,1.51-0.34,3.72,0.66,5.03c1,1.3,1.98,2.42,3.13,3.57c1.18,1.19,2.75,1.78,4.34,1.85
				c0.22,0.18,0.41,0.37,0.65,0.56c2.49,1.96,2.65,6.2,4.45,9.28c2.34,4.02,5.82,7.31,8.15,11.44c2.74,4.86,4.63,10.27,6.76,15.45
				c0.02,1.68,0.66,3.34,1.94,4.61c0.25,0.24,0.51,0.45,0.78,0.63C134.57-1460.27,134.78-1460.1,135-1459.97z M100.74-1404.69
				c0,2.74-0.79,5.35-2.15,7.77c-0.45,0.23-0.93,0.38-1.14,0.16c-1.1-1.1-2.48-3.01-4.11-2.79c-1.63,0.22-3.08,0.5-4.66,0.92
				c-1.61,0.44-2.91,1.5-3.77,2.83c-0.27,0.1-0.53,0.18-0.81,0.29c-2.94,1.17-6.69-0.8-10.26-0.78c-4.65,0.01-9.24,1.38-13.98,1.33
				c-5.58-0.05-11.21-1.12-16.76-1.87c-1.46-0.82-3.23-1.1-4.96-0.62c-0.33,0.09-0.64,0.22-0.94,0.36c-0.25,0.1-0.49,0.2-0.72,0.33
				c-1.42-2.46-2.24-5.13-2.24-7.93c0-12.25,14.89-22.19,33.25-22.18C85.86-1426.87,100.74-1416.94,100.74-1404.69z M41.62-1471.74
				c-9.18,15.9-25.23,23.83-35.83,17.7c-2.37-1.37-4.24-3.36-5.66-5.75c0.03-0.51,0.14-0.99,0.44-1.07c1.5-0.4,3.84-0.65,4.47-2.16
				c0.63-1.52,1.11-2.93,1.53-4.5c0.43-1.62,0.16-3.27-0.57-4.68c0.05-0.29,0.11-0.55,0.16-0.84c0.45-3.14,4.04-5.4,5.81-8.49
				c2.32-4.04,3.42-8.7,5.83-12.78c2.83-4.8,6.58-9.14,10-13.58c1.45-0.86,2.57-2.24,3.02-3.98c0.09-0.33,0.13-0.67,0.16-1
				c0.04-0.26,0.07-0.52,0.07-0.79c2.84,0,5.56,0.63,7.99,2.02C49.64-1505.5,50.8-1487.65,41.62-1471.74z"/>
			<path id="XMLID_00000047758309534623977070000009851057217584449951_" class="st1" d="M127.63-1456.49
				c0,33.31-27,60.31-60.31,60.31c-33.31,0-60.31-27-60.31-60.31c0-33.31,27-60.31,60.31-60.31
				C100.63-1516.8,127.63-1489.8,127.63-1456.49z"/>
			<path id="XMLID_00000065774165778749822900000017694949050566227101_" class="st2" d="M91.75-1456.49
				c0,13.49-10.94,24.43-24.43,24.43c-13.49,0-24.43-10.94-24.43-24.43c0-13.49,10.94-24.43,24.43-24.43
				C80.81-1480.92,91.75-1469.99,91.75-1456.49z"/>
			<g id="XMLID_00000176764372387511788290000010621113864564651649_">
				<g>
					<path d="M88.45-1421.81c2.47,8.64,5.84,17.02,10.1,24.99c-0.47,0.24-0.95,0.48-1.42,0.71c-0.59,0.29-1.18,0.58-1.78,0.85
						c-0.53,0.24-1.08,0.47-1.62,0.7c-0.78,0.32-1.56,0.65-2.36,0.95c-0.42,0.16-0.84,0.31-1.27,0.46c-0.9,0.32-1.81,0.63-2.72,0.91
						c-0.39,0.12-0.79,0.23-1.18,0.34c-0.92,0.26-1.85,0.52-2.78,0.75c-0.47,0.12-0.95,0.21-1.43,0.32
						c-0.84,0.18-1.67,0.36-2.51,0.51c-0.68,0.12-1.36,0.23-2.05,0.33c-0.62,0.1-1.25,0.19-1.88,0.27
						c-1.01,0.12-2.03,0.21-3.05,0.29c-0.3,0.02-0.6,0.05-0.9,0.07c-1.35,0.08-2.72,0.12-4.1,0.12l-0.01,0
						c-11.16,0-21.71-2.73-31-7.54c-0.01-0.01-0.01-0.01-0.01-0.01c4.24-7.8,7.62-16.01,10.11-24.53
						c-5.97-3.46-11.15-8.45-14.85-14.86c-3.65-6.32-5.39-13.22-5.45-20.03c-8.59-2.12-17.41-3.34-26.29-3.63
						c0.7-15.25,6.56-30.05,16.83-41.7c0.1-0.12,0.21-0.23,0.32-0.35c0.79-0.9,1.62-1.77,2.47-2.62c0.21-0.21,0.43-0.42,0.64-0.62
						c0.76-0.74,1.53-1.47,2.33-2.17c0.31-0.28,0.61-0.54,0.93-0.81c0.72-0.61,1.45-1.22,2.2-1.81c0.4-0.31,0.79-0.62,1.19-0.92
						c0.68-0.51,1.38-1.01,2.09-1.5c0.49-0.34,0.97-0.67,1.47-1c0.17-0.11,0.36-0.22,0.53-0.33c4.7,7.68,10.21,14.81,16.45,21.31
						c12.75-7.01,27.64-6.49,39.54,0.13c6.35-6.54,12.02-13.74,16.86-21.53c0.49,0.31,0.98,0.64,1.46,0.96
						c0.51,0.35,1.03,0.69,1.53,1.05c0.46,0.33,0.9,0.68,1.36,1.01c0.72,0.54,1.43,1.09,2.13,1.66c0.26,0.21,0.52,0.44,0.78,0.66
						c0.84,0.7,1.67,1.43,2.47,2.18c0.14,0.13,0.29,0.28,0.43,0.42c0.87,0.82,1.72,1.67,2.55,2.54c0.11,0.12,0.22,0.24,0.33,0.37
						c0.83,0.88,1.62,1.78,2.4,2.7c0.15,0.18,0.31,0.37,0.46,0.56c0.7,0.86,1.39,1.73,2.05,2.62c0.25,0.33,0.49,0.68,0.73,1.02
						c0.54,0.76,1.07,1.52,1.59,2.3c0.35,0.55,0.69,1.1,1.03,1.66c0.38,0.62,0.77,1.23,1.12,1.85c0.37,0.66,0.72,1.33,1.07,1.99
						c0.28,0.54,0.57,1.08,0.84,1.63c0.37,0.74,0.7,1.49,1.04,2.25c0.22,0.49,0.45,0.98,0.66,1.48c0.33,0.79,0.63,1.59,0.93,2.39
						c0.18,0.48,0.37,0.96,0.54,1.45c0.29,0.82,0.54,1.64,0.79,2.46c0.14,0.48,0.3,0.96,0.43,1.45c0.23,0.83,0.45,1.67,0.64,2.51
						c0.11,0.49,0.23,0.98,0.34,1.48c0.18,0.85,0.34,1.7,0.5,2.55c0.09,0.49,0.17,0.98,0.25,1.48c0.13,0.87,0.25,1.74,0.34,2.61
						c0.06,0.47,0.1,0.95,0.14,1.44c0.09,0.9,0.16,1.8,0.21,2.71c0,0.12,0.01,0.24,0.01,0.35c-9.13,0.23-18.2,1.49-27.07,3.71
						C107.79-1442.61,100.84-1429.41,88.45-1421.81z M87.76-1456.54c0-11.19-9.07-20.27-20.27-20.27
						c-11.19,0-20.27,9.07-20.27,20.27c0,11.19,9.07,20.27,20.27,20.27C78.69-1436.27,87.76-1445.34,87.76-1456.54z"/>
				</g>
			</g>
		</g>
		<g id="XMLID_00000090987668434294673050000003091041406288708533_">
			<path id="XMLID_00000181082823280932476090000013175398808867864760_" d="M793.73-1447.37c-0.28-2.24-0.36-4.52-0.29-6.7
				c0.08-2.26,0.34-4.44,0.76-6.59c0.84-4.3,2.35-8.37,4.38-12.05c4.05-7.38,10.17-13.09,16.87-16.62
				c6.72-3.57,13.98-4.95,20.6-4.65c-6.62,0.28-13.59,2.19-19.83,6.01c-6.23,3.79-11.71,9.49-15.22,16.54
				c-3.54,7.04-5.01,15.31-3.82,23.6c1.15,8.23,5.05,16.3,11.23,22.45c6.15,6.18,14.21,10.09,22.45,11.23
				c8.25,1.19,16.6-0.29,23.61-3.82c7.04-3.52,12.74-8.99,16.53-15.22c3.82-6.24,5.73-13.2,6.01-19.83
				c0.31,6.62-1.08,13.88-4.65,20.6c-3.53,6.7-9.24,12.82-16.62,16.87c-7.34,4.08-16.34,5.97-25.34,4.84
				c-8.99-1.07-17.9-5.27-24.63-12.04C799.01-1429.47,794.8-1438.38,793.73-1447.37z M898.67-1444.65
				c-1.63,13.3-7.86,26.45-17.86,36.4c-9.95,10-23.1,16.23-36.4,17.86c-3.32,0.42-6.67,0.56-9.92,0.46
				c-3.34-0.11-6.56-0.47-9.76-1.08c-6.36-1.22-12.42-3.42-17.89-6.39c-10.98-5.95-19.54-14.96-24.91-24.9
				c-5.42-9.95-7.63-20.78-7.32-30.71c0.27,9.93,3,20.46,8.68,29.93c5.63,9.47,14.18,17.84,24.82,23.25
				c10.63,5.44,23.23,7.76,35.84,6c12.54-1.7,24.84-7.64,34.22-17.05c9.42-9.37,15.35-21.68,17.05-34.22
				c1.77-12.56-0.55-25.24-5.99-35.84c-5.4-10.65-13.78-19.2-23.25-24.82c-9.48-5.67-20-8.41-29.93-8.68
				c9.93-0.31,20.75,1.9,30.71,7.31c9.94,5.36,18.95,13.92,24.9,24.91C897.65-1471.3,900.38-1457.96,898.67-1444.65z
				 M837.26-1452.38c0.18-0.51,0.06-1.13-0.33-1.51c-0.19-0.19-0.46-0.33-0.7-0.38c-0.29-0.06-0.55-0.04-0.82,0.05
				c-0.52,0.18-0.93,0.65-1.07,1.21c-0.16-0.54,0.05-1.36,0.76-1.81c0.33-0.23,0.8-0.35,1.22-0.31c0.48,0.04,0.92,0.25,1.27,0.58
				c0.71,0.7,0.75,1.81,0.28,2.49c-0.45,0.7-1.27,0.91-1.81,0.76C836.61-1451.45,837.08-1451.86,837.26-1452.38z M844.94-1469.93
				c-3.45-1.63-7.39-2.27-11.37-1.66c-3.93,0.59-7.75,2.47-10.68,5.41c-2.94,2.93-4.82,6.75-5.41,10.68
				c-0.61,3.94,0.02,7.95,1.66,11.37c1.62,3.44,4.2,6.28,7.2,8.25c3,1.98,6.41,3.06,9.72,3.34c-3.31,0.3-7.02-0.26-10.49-1.98
				c-3.47-1.7-6.69-4.56-8.85-8.33c-2.18-3.75-3.22-8.42-2.68-13.1c0.52-4.69,2.69-9.35,6.22-12.86c3.51-3.53,8.18-5.71,12.86-6.22
				c1.16-0.13,2.36-0.17,3.47-0.12c1.19,0.06,2.31,0.2,3.43,0.43c2.22,0.46,4.32,1.28,6.2,2.36c3.77,2.16,6.63,5.38,8.33,8.85
				c1.72,3.48,2.28,7.19,1.99,10.5c-0.28-3.31-1.37-6.72-3.35-9.72C851.22-1465.73,848.37-1468.31,844.94-1469.93z"/>
			<path id="XMLID_00000087396202542512550600000014800959401381176960_" d="M787.45-1466.43c-2.22,8.88-2.08,18.82,1.02,28.22
				c3.07,9.42,9.11,18.15,17.54,24.49c8.36,6.34,19.04,10.06,30.04,10.03c11,0.03,21.68-3.69,30.04-10.03
				c8.41-6.31,14.5-15.09,17.55-24.49c3.1-9.41,3.24-19.34,1.02-28.22c-2.2-8.91-6.74-16.74-12.4-22.79
				c6.07,5.63,11.19,13.3,13.91,22.37c2.74,9.03,3.04,19.42,0.08,29.45c-2.9,10.02-9.16,19.55-18.05,26.43
				c-8.83,6.93-20.32,11.04-32.15,11c-11.83,0.03-23.31-4.08-32.15-11c-2.21-1.71-4.28-3.63-6.15-5.61
				c-1.91-2.05-3.6-4.17-5.13-6.43c-3.04-4.5-5.31-9.39-6.78-14.39c-2.95-10.03-2.65-20.42,0.09-29.45
				c2.72-9.07,7.84-16.74,13.91-22.37C794.19-1483.17,789.65-1475.34,787.45-1466.43z M909.59-1453.02
				c0.04,16.39-5.64,32.31-15.21,44.58c-2.38,3.07-5.01,5.95-7.77,8.55c-2.82,2.64-5.78,5.01-8.89,7.14
				c-6.23,4.24-13.01,7.42-19.95,9.49c-13.91,4.16-28.37,3.83-40.99,0.1c-12.67-3.7-23.44-10.76-31.4-19.17
				c8.38,8.01,19.31,14.48,31.82,17.66c12.46,3.21,26.47,3.1,39.76-1.21c13.3-4.26,25.69-12.77,34.67-24.66
				c8.99-11.79,14.28-26.91,14.24-42.47c0.04-15.57-5.25-30.68-14.24-42.47c-8.95-11.86-21.39-20.43-34.67-24.66
				c-13.3-4.31-27.3-4.42-39.76-1.21c-12.51,3.18-23.43,9.66-31.82,17.66c7.97-8.42,18.73-15.48,31.4-19.18
				c12.61-3.73,27.07-4.07,40.99,0.1c13.9,4.09,27.1,12.83,36.62,25.17C903.96-1485.33,909.63-1469.41,909.59-1453.02z
				 M843.29-1445.78c2.17-2.5,3.2-6.47,1.89-10.08c-0.63-1.79-1.83-3.43-3.44-4.61c-1.59-1.18-3.61-1.86-5.69-1.86
				c-2.08,0-4.09,0.68-5.69,1.86c-1.61,1.18-2.8,2.82-3.43,4.6c-1.31,3.61-0.29,7.58,1.88,10.08c-1.27-1.07-2.39-2.57-3.01-4.41
				c-0.63-1.83-0.75-3.97-0.18-6.07c0.56-2.1,1.84-4.11,3.68-5.58c1.84-1.48,4.26-2.35,6.74-2.35c2.49,0,4.91,0.87,6.75,2.35
				c1.85,1.46,3.13,3.48,3.69,5.58c0.57,2.1,0.44,4.24-0.18,6.07C845.68-1448.35,844.56-1446.84,843.29-1445.78z M857.77-1474.74
				c-3.71-3.31-8.44-5.92-13.76-7.14c-5.3-1.23-11.17-1.06-16.69,0.83c-5.54,1.88-10.6,5.45-14.31,10.43
				c-3.68,4.92-5.84,11.16-5.83,17.6c-0.01,6.43,2.14,12.68,5.83,17.6c3.68,4.95,8.79,8.57,14.31,10.43
				c5.52,1.89,11.39,2.06,16.69,0.83c5.31-1.22,10.04-3.83,13.75-7.14c-3.3,3.72-7.86,6.92-13.34,8.65
				c-5.45,1.74-11.78,2.02-17.92,0.27c-6.13-1.71-12.01-5.51-16.25-10.93c-4.27-5.39-6.82-12.45-6.8-19.71
				c-0.02-7.26,2.53-14.32,6.8-19.71c1.06-1.35,2.24-2.62,3.45-3.74c1.27-1.17,2.57-2.19,3.96-3.12c2.76-1.84,5.77-3.2,8.83-4.07
				c6.14-1.74,12.47-1.47,17.92,0.27C849.91-1481.65,854.48-1478.46,857.77-1474.74z"/>
		</g>
		<g id="XMLID_00000022543358423926173290000003855478702373467046_">
			<path id="XMLID_00000072238816986410687200000006981394859851269777_" d="M1602.32-1490.2c0.75-0.76,1.75-1.19,2.81-1.2h0.04
				c2.18,0,3.98,1.78,4,3.96c0.01,1.07-0.4,2.08-1.15,2.84c-0.75,0.76-1.74,1.18-2.81,1.19h-0.04c-2.18,0-3.97-1.77-4-3.96
				C1601.17-1488.43,1601.57-1489.43,1602.32-1490.2z M1609.28-1481.11c0.08,0,0.17,0,0.25,0.01c1.55,0.14,2.71,1.52,2.57,3.08
				c-0.13,1.45-1.36,2.59-2.82,2.59c-0.08,0-0.17,0-0.25-0.01c-1.56-0.13-2.72-1.52-2.58-3.07
				C1606.59-1480,1607.8-1481.11,1609.28-1481.11z M1592.74-1496.36c-0.33-2.75,1.64-5.26,4.39-5.59c0.2-0.03,0.41-0.04,0.61-0.04
				c2.53,0,4.68,1.9,4.98,4.42c0.16,1.33-0.2,2.65-1.03,3.71c-0.83,1.05-2.02,1.73-3.35,1.89c-0.21,0.02-0.41,0.04-0.61,0.04
				C1595.19-1491.94,1593.05-1493.84,1592.74-1496.36z M1611.77-1454.86c0.04-0.13,0.16-0.22,0.3-0.22c0.04,0,0.07,0.01,0.1,0.02
				c0.17,0.05,0.26,0.23,0.2,0.4c-0.04,0.14-0.17,0.22-0.31,0.22c-0.03,0-0.06-0.01-0.1-0.02
				C1611.81-1454.51,1611.72-1454.69,1611.77-1454.86z M1579.04-1504.45c-0.83-3.48,1.33-6.99,4.8-7.82
				c0.5-0.12,1.01-0.18,1.52-0.18c3.02,0,5.61,2.05,6.3,4.98c0.41,1.69,0.13,3.44-0.78,4.91c-0.91,1.48-2.33,2.51-4.02,2.91
				c-0.5,0.12-1.01,0.18-1.51,0.18C1582.34-1499.47,1579.74-1501.52,1579.04-1504.45z M1565.32-1508.56
				c-1.52-2.34-0.84-5.48,1.49-6.99c0.5-0.32,1.04-0.55,1.6-0.68c2.07-0.48,4.24,0.4,5.4,2.18c0.73,1.13,0.98,2.48,0.69,3.8
				c-0.28,1.33-1.06,2.45-2.2,3.19c-0.49,0.32-1.03,0.55-1.6,0.69C1568.63-1505.9,1566.47-1506.78,1565.32-1508.56z
				 M1554.28-1509.13c-0.67-0.81-0.98-1.83-0.88-2.87c0.1-1.05,0.6-1.99,1.42-2.65c0.47-0.39,1.02-0.66,1.61-0.8
				c1.46-0.34,2.96,0.18,3.91,1.33c0.67,0.81,0.98,1.83,0.88,2.88c-0.1,1.04-0.6,1.98-1.42,2.65c-0.48,0.39-1.02,0.66-1.61,0.8
				C1556.73-1507.45,1555.23-1507.96,1554.28-1509.13z M1611.97-1472.65c0.51,0.08,0.96,0.37,1.26,0.79
				c0.31,0.42,0.42,0.94,0.34,1.45c-0.16,0.94-0.96,1.63-1.91,1.63c-0.11,0-0.22-0.01-0.32-0.03c-0.51-0.08-0.96-0.36-1.27-0.78
				c-0.3-0.42-0.42-0.94-0.34-1.45c0.16-0.95,0.96-1.63,1.92-1.63C1611.76-1472.67,1611.87-1472.66,1611.97-1472.65z
				 M1611.82-1459.26c0.09-0.33,0.39-0.56,0.74-0.56c0.07,0,0.14,0.01,0.2,0.03c0.2,0.06,0.36,0.18,0.46,0.36
				c0.1,0.18,0.12,0.38,0.07,0.58c-0.09,0.33-0.4,0.56-0.73,0.56c-0.07,0-0.14-0.01-0.21-0.03
				C1611.94-1458.43,1611.7-1458.86,1611.82-1459.26z M1613.6-1465.09c0.17,0.27,0.23,0.59,0.16,0.91
				c-0.12,0.55-0.61,0.94-1.17,0.94c-0.09,0-0.18-0.01-0.26-0.03c-0.31-0.07-0.58-0.26-0.76-0.53c-0.17-0.27-0.23-0.6-0.15-0.9
				c0.12-0.55,0.61-0.95,1.17-0.95c0.09,0,0.18,0.02,0.27,0.03C1613.16-1465.55,1613.42-1465.37,1613.6-1465.09z M1545.49-1507.51
				c-0.58-0.56-0.9-1.3-0.91-2.1c-0.01-0.8,0.29-1.56,0.84-2.14c0.41-0.42,0.92-0.71,1.47-0.84c1-0.23,2.03,0.06,2.76,0.77
				c0.58,0.56,0.9,1.31,0.91,2.11c0.01,0.8-0.29,1.55-0.84,2.12c-0.41,0.42-0.92,0.71-1.48,0.84
				C1547.26-1506.51,1546.22-1506.8,1545.49-1507.51z M1538.35-1504.51c-0.47-0.36-0.78-0.88-0.85-1.46
				c-0.08-0.58,0.08-1.16,0.44-1.63c0.32-0.42,0.76-0.7,1.26-0.81c0.65-0.15,1.33,0,1.86,0.4c0.96,0.74,1.14,2.14,0.4,3.11
				c-0.31,0.41-0.75,0.68-1.25,0.8C1539.55-1503.96,1538.88-1504.11,1538.35-1504.51z M1525.25-1496.38c0.07-0.2,0.23-0.35,0.44-0.4
				c0.1-0.02,0.22-0.02,0.32,0.02c0.15,0.05,0.28,0.15,0.35,0.29c0.07,0.14,0.08,0.29,0.03,0.44c-0.07,0.22-0.23,0.37-0.43,0.42
				c-0.11,0.03-0.21,0.02-0.31-0.02C1525.32-1495.74,1525.14-1496.06,1525.25-1496.38z M1528.4-1498.78
				c-0.1-0.26-0.09-0.55,0.03-0.8c0.14-0.3,0.39-0.51,0.71-0.59c0.22-0.05,0.45-0.03,0.67,0.07c0.53,0.25,0.76,0.85,0.52,1.39
				c-0.14,0.29-0.4,0.5-0.72,0.57c-0.22,0.05-0.45,0.03-0.67-0.07C1528.69-1498.32,1528.5-1498.52,1528.4-1498.78z M1532.26-1502.6
				c-0.1-0.4-0.03-0.82,0.18-1.17c0.23-0.38,0.59-0.64,1.01-0.73c0.4-0.09,0.81-0.03,1.16,0.18c0.75,0.45,0.99,1.43,0.54,2.18
				c-0.22,0.36-0.57,0.62-0.99,0.71c-0.4,0.09-0.82,0.03-1.17-0.19C1532.62-1501.84,1532.36-1502.18,1532.26-1502.6z
				 M1599.89-1396.91c0.67,0.81,0.98,1.83,0.88,2.87c-0.1,1.04-0.6,1.99-1.42,2.65c-0.47,0.39-1.02,0.66-1.61,0.8
				c-1.46,0.34-2.95-0.18-3.91-1.34c-0.67-0.81-0.99-1.84-0.88-2.88c0.1-1.04,0.6-1.98,1.42-2.65c0.48-0.39,1.02-0.66,1.61-0.79
				C1597.45-1398.59,1598.94-1398.07,1599.89-1396.91z M1544.89-1424.92c-0.09,0-0.17,0-0.26,0c-1.55-0.14-2.71-1.52-2.57-3.08
				c0.13-1.46,1.36-2.59,2.82-2.59c0.08,0,0.17,0,0.25,0.01c1.56,0.14,2.72,1.52,2.58,3.07
				C1547.59-1426.04,1546.37-1424.92,1544.89-1424.92z M1615.83-1401.52c0.47,0.36,0.78,0.88,0.85,1.47
				c0.08,0.58-0.08,1.16-0.44,1.63c-0.32,0.42-0.76,0.7-1.26,0.81c-0.65,0.15-1.33,0-1.86-0.4c-0.96-0.74-1.14-2.14-0.4-3.11
				c0.31-0.41,0.75-0.69,1.25-0.8C1614.62-1402.08,1615.3-1401.93,1615.83-1401.52z M1551.86-1415.84c-0.75,0.77-1.75,1.19-2.82,1.2
				H1549c-2.18,0-3.98-1.78-4-3.96c-0.01-1.07,0.4-2.08,1.15-2.84c0.75-0.76,1.74-1.18,2.81-1.2h0.04c2.18,0,3.97,1.77,3.99,3.96
				C1553.01-1417.61,1552.61-1416.6,1551.86-1415.84z M1588.86-1397.48c1.52,2.34,0.85,5.48-1.49,6.99c-0.5,0.32-1.04,0.55-1.6,0.68
				c-2.07,0.48-4.24-0.4-5.4-2.18c-0.73-1.13-0.98-2.48-0.69-3.8c0.28-1.32,1.06-2.45,2.2-3.19c0.49-0.32,1.03-0.55,1.6-0.69
				C1585.55-1400.14,1587.71-1399.26,1588.86-1397.48z M1542.2-1433.39c-0.51-0.08-0.96-0.36-1.26-0.79
				c-0.31-0.42-0.42-0.93-0.34-1.45c0.16-0.94,0.96-1.63,1.92-1.63c0.11,0,0.21,0.01,0.32,0.02c0.51,0.09,0.96,0.37,1.26,0.78
				c0.3,0.42,0.42,0.94,0.34,1.45c-0.15,0.95-0.96,1.63-1.91,1.63C1542.42-1433.37,1542.31-1433.37,1542.2-1433.39z
				 M1562.52-1398.56c-0.41-1.7-0.13-3.44,0.78-4.92c0.9-1.48,2.33-2.51,4.02-2.91c0.5-0.12,1.01-0.18,1.51-0.18
				c3.01,0,5.61,2.05,6.31,4.99c0.83,3.48-1.33,6.99-4.8,7.82c-0.5,0.12-1.01,0.18-1.52,0.18
				C1565.81-1393.59,1563.22-1395.63,1562.52-1398.56z M1625.77-1407.26c0.1,0.26,0.09,0.55-0.03,0.8c-0.14,0.3-0.39,0.52-0.71,0.59
				c-0.22,0.05-0.45,0.03-0.67-0.07c-0.53-0.25-0.76-0.86-0.52-1.39c0.14-0.29,0.4-0.49,0.72-0.57c0.22-0.05,0.46-0.03,0.67,0.07
				C1625.49-1407.72,1625.68-1407.52,1625.77-1407.26z M1540.58-1440.95c-0.17-0.27-0.23-0.59-0.16-0.9
				c0.12-0.55,0.61-0.94,1.17-0.94c0.09,0,0.18,0,0.27,0.03c0.31,0.07,0.58,0.26,0.75,0.53c0.17,0.27,0.23,0.6,0.16,0.9
				c-0.12,0.55-0.62,0.95-1.17,0.95c-0.09,0-0.18-0.02-0.27-0.03C1541.02-1440.49,1540.76-1440.68,1540.58-1440.95z
				 M1561.44-1409.68c0.33,2.75-1.64,5.26-4.39,5.59c-0.2,0.03-0.4,0.04-0.61,0.04c-2.53,0-4.68-1.9-4.98-4.42
				c-0.16-1.33,0.2-2.65,1.03-3.71c0.83-1.06,2.02-1.72,3.35-1.89c0.21-0.02,0.41-0.04,0.61-0.04
				C1558.99-1414.1,1561.13-1412.2,1561.44-1409.68z M1608.68-1398.52c0.58,0.56,0.9,1.3,0.91,2.1c0.01,0.8-0.29,1.56-0.85,2.13
				c-0.4,0.42-0.91,0.71-1.47,0.84c-1,0.23-2.03-0.06-2.76-0.77c-0.58-0.56-0.91-1.31-0.92-2.11c-0.01-0.8,0.29-1.55,0.84-2.12
				c0.41-0.42,0.92-0.71,1.48-0.84C1606.92-1399.53,1607.95-1399.24,1608.68-1398.52z M1628.93-1409.66
				c-0.07,0.2-0.23,0.35-0.44,0.4c-0.1,0.02-0.21,0.01-0.32-0.02c-0.15-0.05-0.28-0.15-0.35-0.29c-0.07-0.14-0.08-0.29-0.03-0.44
				c0.07-0.22,0.23-0.37,0.43-0.42c0.11-0.02,0.21-0.02,0.31,0.02C1628.86-1410.31,1629.03-1409.98,1628.93-1409.66z M1542-1450.97
				c-0.17-0.05-0.26-0.24-0.21-0.4c0.04-0.14,0.17-0.22,0.31-0.22c0.03,0,0.06,0,0.1,0.01c0.16,0.05,0.26,0.23,0.2,0.41
				c-0.04,0.13-0.16,0.22-0.3,0.22C1542.07-1450.96,1542.03-1450.96,1542-1450.97z M1541.63-1447.75c0.07,0,0.14,0.01,0.21,0.03
				c0.4,0.11,0.64,0.54,0.52,0.94c-0.09,0.33-0.39,0.56-0.74,0.56c-0.07,0-0.14-0.01-0.21-0.04c-0.19-0.05-0.36-0.18-0.46-0.35
				c-0.1-0.18-0.12-0.38-0.07-0.58C1540.98-1447.52,1541.28-1447.75,1541.63-1447.75z M1621.91-1403.44c0.1,0.4,0.03,0.82-0.18,1.17
				c-0.23,0.38-0.59,0.64-1.01,0.73c-0.4,0.09-0.81,0.03-1.16-0.18c-0.74-0.45-0.99-1.43-0.54-2.18c0.22-0.36,0.57-0.62,0.99-0.71
				c0.4-0.09,0.82-0.03,1.17,0.19C1621.55-1404.2,1621.81-1403.85,1621.91-1403.44z M1525.59-1414.28
				c-0.36,0.47-0.88,0.78-1.47,0.85c-0.58,0.08-1.16-0.08-1.63-0.44c-0.42-0.32-0.7-0.76-0.81-1.26c-0.15-0.65,0-1.33,0.4-1.86
				c0.75-0.96,2.14-1.14,3.11-0.4c0.41,0.31,0.68,0.75,0.8,1.25C1526.15-1415.48,1526-1414.81,1525.59-1414.28z M1528.68-1410.09
				c0.09,0.4,0.03,0.82-0.19,1.17c-0.22,0.37-0.57,0.63-0.98,0.73c-0.4,0.1-0.82,0.03-1.17-0.18c-0.38-0.23-0.64-0.59-0.73-1.01
				c-0.09-0.4-0.03-0.81,0.18-1.16c0.45-0.74,1.43-0.99,2.17-0.54C1528.33-1410.86,1528.58-1410.51,1528.68-1410.09z
				 M1534.5-1401.89c0.02,0.11,0.02,0.21-0.02,0.31c-0.11,0.33-0.43,0.51-0.76,0.4c-0.2-0.07-0.35-0.23-0.4-0.44
				c-0.02-0.1-0.01-0.21,0.03-0.32c0.05-0.15,0.15-0.27,0.29-0.34c0.14-0.07,0.29-0.08,0.44-0.03
				C1534.3-1402.25,1534.45-1402.09,1534.5-1401.89z M1518.11-1429.33c-1.04-0.1-1.99-0.6-2.65-1.42c-0.4-0.47-0.66-1.02-0.8-1.61
				c-0.34-1.46,0.18-2.96,1.33-3.91c0.81-0.67,1.83-0.99,2.88-0.89c1.04,0.1,1.98,0.6,2.64,1.42c0.39,0.48,0.67,1.02,0.8,1.61
				c0.34,1.47-0.17,2.96-1.34,3.91C1520.17-1429.54,1519.15-1429.23,1518.11-1429.33z M1522.59-1421.42c-0.56,0.58-1.3,0.9-2.1,0.91
				c-0.8,0.01-1.56-0.29-2.13-0.84c-0.42-0.4-0.71-0.92-0.84-1.47c-0.23-1,0.06-2.03,0.77-2.76c0.56-0.58,1.31-0.91,2.11-0.91
				c0.8-0.01,1.55,0.29,2.12,0.84c0.42,0.41,0.71,0.92,0.84,1.48C1523.6-1423.19,1523.31-1422.15,1522.59-1421.42z M1531.97-1405.54
				c0.05,0.22,0.03,0.45-0.07,0.67c-0.11,0.25-0.32,0.45-0.58,0.54c-0.26,0.1-0.55,0.09-0.8-0.03c-0.3-0.14-0.51-0.39-0.59-0.71
				c-0.05-0.22-0.03-0.45,0.07-0.67c0.25-0.53,0.85-0.76,1.39-0.52C1531.69-1406.13,1531.9-1405.87,1531.97-1405.54z
				 M1517.84-1459.77c-0.12-0.5-0.18-1.01-0.18-1.52c0-3.02,2.05-5.61,4.98-6.3c1.7-0.41,3.44-0.13,4.92,0.78
				c1.48,0.9,2.51,2.33,2.91,4.02c0.12,0.5,0.18,1.01,0.18,1.51c0,3.01-2.05,5.61-4.99,6.31
				C1522.17-1454.14,1518.67-1456.29,1517.84-1459.77z M1564.45-1488.51c0-0.09,0.01-0.18,0.03-0.27c0.07-0.31,0.26-0.57,0.53-0.75
				c0.27-0.17,0.59-0.23,0.91-0.16c0.55,0.12,0.94,0.62,0.94,1.17c0,0.09-0.01,0.18-0.03,0.26c-0.07,0.31-0.26,0.58-0.53,0.76
				c-0.27,0.17-0.6,0.23-0.9,0.16C1564.85-1487.46,1564.45-1487.95,1564.45-1488.51z M1571.26-1489.22c0.33,0.09,0.56,0.4,0.56,0.74
				c0,0.07-0.01,0.14-0.03,0.21c-0.11,0.4-0.54,0.64-0.94,0.52c-0.33-0.09-0.56-0.39-0.56-0.74c0-0.07,0.01-0.14,0.03-0.2
				c0.06-0.2,0.18-0.36,0.36-0.46C1570.86-1489.25,1571.06-1489.28,1571.26-1489.22z M1575.03-1488c0-0.04,0.01-0.07,0.02-0.1
				c0.05-0.17,0.23-0.26,0.4-0.21c0.14,0.04,0.22,0.17,0.22,0.31c0,0.03-0.01,0.06-0.02,0.1c-0.05,0.16-0.24,0.26-0.41,0.2
				C1575.11-1487.75,1575.03-1487.87,1575.03-1488z M1561.32-1487.6c0,0.11-0.01,0.22-0.03,0.32c-0.08,0.51-0.36,0.96-0.78,1.27
				c-0.42,0.3-0.94,0.42-1.45,0.34c-0.95-0.16-1.64-0.96-1.64-1.92c0-0.11,0.01-0.21,0.03-0.32c0.08-0.51,0.37-0.96,0.79-1.26
				c0.42-0.31,0.94-0.42,1.45-0.34C1560.63-1489.35,1561.32-1488.55,1561.32-1487.6z M1552.08-1488.04
				c1.46,0.13,2.59,1.36,2.59,2.82c0,0.08,0,0.17-0.01,0.25c-0.14,1.56-1.52,2.72-3.07,2.58c-1.48-0.13-2.59-1.35-2.59-2.83
				c0-0.08,0-0.17,0.01-0.25C1549.14-1487.02,1550.52-1488.17,1552.08-1488.04z M1516.06-1449.74c1.13-0.73,2.48-0.98,3.8-0.69
				c1.33,0.28,2.45,1.06,3.19,2.2c0.33,0.49,0.55,1.03,0.69,1.6c0.48,2.07-0.4,4.23-2.18,5.38c-2.34,1.52-5.48,0.84-6.99-1.49
				c-0.32-0.5-0.55-1.04-0.68-1.61C1513.39-1446.41,1514.27-1448.58,1516.06-1449.74z M1528.16-1473.05
				c-0.03-0.2-0.04-0.4-0.04-0.61c0-2.53,1.9-4.68,4.42-4.98c1.33-0.17,2.65,0.2,3.71,1.03c1.06,0.83,1.73,2.02,1.89,3.35
				c0.03,0.21,0.04,0.41,0.04,0.61c0,2.53-1.9,4.67-4.42,4.99C1531-1468.33,1528.49-1470.3,1528.16-1473.05z M1542.67-1485.1
				c1.07-0.01,2.08,0.4,2.84,1.15c0.76,0.75,1.18,1.74,1.19,2.81v0.04c0,2.18-1.77,3.97-3.95,3.99c-1.07,0.01-2.08-0.4-2.85-1.14
				c-0.76-0.75-1.19-1.75-1.2-2.81v-0.04C1538.71-1483.29,1540.48-1485.08,1542.67-1485.1z M1611.43-1428.93
				c1.07-0.01,2.08,0.39,2.85,1.14c0.76,0.75,1.19,1.75,1.2,2.82v0.04c0,2.18-1.78,3.98-3.96,4c-1.07,0.01-2.08-0.4-2.84-1.15
				c-0.76-0.75-1.18-1.74-1.2-2.81v-0.04C1607.47-1427.12,1609.24-1428.91,1611.43-1428.93z M1578.51-1418.03
				c0-0.03,0-0.06,0.01-0.1c0.06-0.17,0.24-0.26,0.41-0.2c0.13,0.04,0.22,0.16,0.22,0.3c0,0.04-0.01,0.07-0.02,0.1
				c-0.05,0.17-0.23,0.26-0.4,0.21C1578.59-1417.77,1578.51-1417.89,1578.51-1418.03z M1616.04-1431.77
				c-0.02-0.21-0.04-0.41-0.04-0.61c0-2.53,1.9-4.68,4.42-4.99c2.75-0.33,5.26,1.64,5.59,4.39c0.03,0.2,0.04,0.4,0.04,0.61
				c0,2.53-1.9,4.68-4.42,4.98c-1.33,0.16-2.65-0.2-3.71-1.03C1616.87-1429.25,1616.21-1430.44,1616.04-1431.77z M1619.67-1504.15
				c-0.02-0.11-0.02-0.21,0.02-0.31c0.11-0.33,0.43-0.5,0.76-0.4c0.2,0.07,0.35,0.23,0.4,0.44c0.02,0.1,0.01,0.21-0.02,0.32
				c-0.05,0.15-0.15,0.27-0.29,0.35c-0.14,0.07-0.29,0.08-0.44,0.03C1619.87-1503.79,1619.72-1503.94,1619.67-1504.15z
				 M1628.58-1491.76c0.36-0.47,0.88-0.78,1.47-0.85c0.58-0.08,1.16,0.08,1.63,0.44c0.42,0.32,0.7,0.76,0.81,1.26
				c0.15,0.65,0,1.33-0.4,1.86c-0.75,0.96-2.14,1.14-3.11,0.4c-0.41-0.31-0.69-0.75-0.8-1.25
				C1628.03-1490.55,1628.17-1491.23,1628.58-1491.76z M1631.58-1484.61c0.56-0.58,1.3-0.9,2.1-0.91c0.8-0.01,1.56,0.29,2.13,0.84
				c0.42,0.4,0.71,0.91,0.84,1.47c0.23,1-0.06,2.03-0.77,2.76c-0.56,0.58-1.31,0.91-2.11,0.91c-0.8,0.01-1.55-0.28-2.12-0.84
				c-0.42-0.41-0.71-0.92-0.84-1.48C1630.58-1482.85,1630.87-1483.88,1631.58-1484.61z M1639.62-1463.29
				c0.32,0.5,0.55,1.04,0.68,1.6c0.48,2.07-0.4,4.24-2.18,5.4c-1.13,0.73-2.48,0.98-3.8,0.69c-1.33-0.28-2.45-1.06-3.19-2.2
				c-0.32-0.49-0.55-1.03-0.69-1.6c-0.47-2.07,0.4-4.23,2.19-5.38C1634.97-1466.3,1638.11-1465.63,1639.62-1463.29z M1602.1-1418
				c-1.46-0.13-2.59-1.36-2.59-2.82c0-0.08,0-0.17,0.01-0.25c0.14-1.56,1.51-2.72,3.07-2.58c1.48,0.13,2.59,1.35,2.59,2.83
				c0,0.08,0,0.17,0,0.25C1605.04-1419.01,1603.65-1417.86,1602.1-1418z M1636.06-1476.7c1.05,0.1,1.99,0.6,2.65,1.42
				c0.4,0.47,0.66,1.02,0.8,1.61c0.34,1.46-0.18,2.95-1.33,3.91c-0.81,0.67-1.83,0.99-2.88,0.88c-1.04-0.1-1.98-0.6-2.65-1.42
				c-0.39-0.48-0.66-1.02-0.8-1.61c-0.34-1.47,0.17-2.96,1.34-3.91C1634.01-1476.49,1635.03-1476.8,1636.06-1476.7z
				 M1589.72-1417.53c0,0.09-0.01,0.18-0.03,0.27c-0.07,0.31-0.26,0.57-0.53,0.75c-0.27,0.17-0.59,0.23-0.91,0.16
				c-0.55-0.12-0.94-0.62-0.94-1.17c0-0.09,0-0.18,0.03-0.27c0.07-0.31,0.26-0.58,0.53-0.75c0.27-0.17,0.6-0.23,0.9-0.15
				C1589.32-1418.57,1589.72-1418.08,1589.72-1417.53z M1582.92-1416.81c-0.33-0.09-0.56-0.4-0.56-0.74c0-0.07,0.01-0.13,0.03-0.2
				c0.11-0.41,0.54-0.64,0.94-0.53c0.33,0.09,0.56,0.39,0.56,0.74c0,0.07-0.01,0.14-0.03,0.2c-0.05,0.19-0.18,0.36-0.36,0.46
				C1583.32-1416.78,1583.12-1416.76,1582.92-1416.81z M1622.2-1500.49c-0.05-0.23-0.03-0.46,0.07-0.67
				c0.11-0.25,0.31-0.45,0.58-0.54c0.26-0.1,0.55-0.09,0.8,0.03c0.3,0.14,0.51,0.39,0.59,0.71c0.05,0.22,0.03,0.45-0.07,0.67
				c-0.24,0.53-0.85,0.76-1.39,0.52C1622.48-1499.91,1622.28-1500.17,1622.2-1500.49z M1636.34-1446.27
				c0.12,0.5,0.18,1.01,0.18,1.52c0,3.01-2.05,5.61-4.98,6.3c-1.7,0.41-3.44,0.13-4.92-0.78c-1.48-0.91-2.51-2.33-2.91-4.02
				c-0.12-0.5-0.18-1.01-0.18-1.51c0-3.01,2.05-5.61,4.99-6.31C1632-1451.9,1635.51-1449.74,1636.34-1446.27z M1592.86-1418.44
				c0-0.11,0.01-0.21,0.03-0.32c0.08-0.51,0.36-0.96,0.78-1.26c0.42-0.3,0.94-0.42,1.44-0.34c0.95,0.15,1.64,0.96,1.64,1.91
				c0,0.1-0.01,0.21-0.03,0.32c-0.08,0.51-0.36,0.96-0.78,1.26c-0.42,0.31-0.94,0.42-1.45,0.34
				C1593.54-1416.69,1592.86-1417.49,1592.86-1418.44z M1625.5-1495.95c-0.09-0.4-0.03-0.82,0.19-1.17
				c0.22-0.37,0.57-0.63,0.98-0.73c0.4-0.09,0.82-0.03,1.17,0.18c0.38,0.23,0.64,0.59,0.73,1.01c0.09,0.4,0.03,0.81-0.18,1.16
				c-0.45,0.74-1.43,0.99-2.17,0.54C1625.85-1495.17,1625.59-1495.53,1625.5-1495.95z"/>
			<path id="XMLID_00000055699080347913485650000003962588107392899261_" d="M1579.82-1491.82c-0.95-1.14-0.88-2.79,0.17-3.84
				c0.06-0.06,0.12-0.11,0.18-0.17c1.2-1,2.99-0.84,4,0.35c0.94,1.12,0.87,2.8-0.16,3.83c-0.06,0.06-0.12,0.11-0.19,0.17
				C1582.62-1490.46,1580.82-1490.61,1579.82-1491.82z M1510.83-1447.58c0.11,0.2,0.11,0.42-0.01,0.6
				c-0.06,0.09-0.14,0.16-0.23,0.21c-0.31,0.16-0.66,0.05-0.82-0.25c-0.09-0.18-0.09-0.41,0.03-0.59c0.05-0.09,0.14-0.16,0.24-0.21
				c0.15-0.08,0.3-0.09,0.46-0.04C1510.64-1447.82,1510.76-1447.72,1510.83-1447.58z M1569.84-1494.33
				c-0.76-0.75-1.19-1.75-1.2-2.82c-0.01-1.07,0.4-2.08,1.15-2.84l0.02-0.03c1.55-1.54,4.07-1.55,5.63-0.02
				c0.76,0.75,1.19,1.75,1.2,2.82c0.01,1.06-0.4,2.07-1.14,2.83l-0.03,0.03C1573.92-1492.82,1571.4-1492.8,1569.84-1494.33z
				 M1600.31-1478.84c-0.06-0.13-0.04-0.27,0.06-0.37c0.02-0.03,0.05-0.04,0.08-0.06c0.16-0.08,0.35-0.01,0.43,0.14
				c0.06,0.13,0.04,0.27-0.06,0.37c-0.02,0.03-0.05,0.04-0.08,0.06C1600.58-1478.63,1600.39-1478.69,1600.31-1478.84z
				 M1589.32-1491.9c0.51,0.08,0.97,0.36,1.27,0.78c0.55,0.78,0.47,1.83-0.2,2.5c-0.08,0.07-0.16,0.14-0.24,0.21
				c-0.42,0.3-0.94,0.42-1.45,0.34c-0.51-0.08-0.96-0.36-1.27-0.78c-0.56-0.78-0.47-1.83,0.2-2.51c0.07-0.08,0.15-0.14,0.24-0.21
				C1588.3-1491.87,1588.81-1491.99,1589.32-1491.9z M1593.09-1485.55c-0.3-0.48-0.23-1.11,0.16-1.5c0.06-0.06,0.13-0.12,0.21-0.16
				c0.27-0.17,0.59-0.23,0.91-0.16c0.31,0.07,0.58,0.26,0.75,0.53c0.3,0.47,0.23,1.1-0.17,1.49c-0.06,0.06-0.13,0.12-0.21,0.16
				c-0.27,0.17-0.6,0.23-0.91,0.16C1593.53-1485.09,1593.26-1485.28,1593.09-1485.55z M1556.66-1501.78
				c0.12-0.16,0.26-0.31,0.4-0.46c1.8-1.79,4.66-1.97,6.65-0.4c1.06,0.83,1.73,2.02,1.89,3.35c0.16,1.33-0.2,2.65-1.04,3.71
				c-0.13,0.16-0.27,0.32-0.41,0.46c-1.8,1.79-4.65,1.96-6.65,0.39C1555.33-1496.44,1554.95-1499.6,1556.66-1501.78z
				 M1511.73-1452.26c0.11,0.3,0.07,0.63-0.11,0.91c-0.12,0.19-0.3,0.34-0.52,0.42c-0.26,0.1-0.54,0.09-0.79-0.03
				c-0.25-0.11-0.45-0.33-0.55-0.59c-0.11-0.31-0.08-0.64,0.09-0.92c0.12-0.19,0.3-0.34,0.53-0.42
				C1510.92-1453.08,1511.52-1452.81,1511.73-1452.26z M1539.97-1499.69c0.27-0.43,0.58-0.84,0.94-1.19
				c2.13-2.13,5.42-2.52,7.98-0.94c1.49,0.91,2.52,2.34,2.92,4.02c0.4,1.69,0.12,3.43-0.79,4.9c-0.27,0.43-0.59,0.84-0.94,1.19
				c-2.13,2.13-5.42,2.52-7.99,0.94C1539.05-1492.64,1538.1-1496.64,1539.97-1499.69z M1514.08-1470.05
				c-0.57-0.56-0.9-1.31-0.91-2.11c-0.01-0.58,0.14-1.14,0.44-1.63c0.55-0.86,1.48-1.4,2.5-1.41c0.8-0.01,1.57,0.29,2.14,0.84
				c0.57,0.55,0.89,1.3,0.9,2.09c0.01,0.59-0.15,1.15-0.45,1.64c-0.54,0.87-1.47,1.4-2.5,1.41
				C1515.41-1469.19,1514.66-1469.49,1514.08-1470.05z M1511.64-1462.47c-0.47-0.36-0.77-0.88-0.84-1.46
				c-0.07-0.52,0.04-1.03,0.32-1.47c0.35-0.57,0.93-0.94,1.59-1.03c1.21-0.16,2.32,0.71,2.48,1.92c0.07,0.51-0.05,1.01-0.32,1.45
				c-0.35,0.56-0.93,0.94-1.59,1.02C1512.7-1461.95,1512.11-1462.12,1511.64-1462.47z M1509.83-1458.56
				c0.22-0.35,0.55-0.6,0.94-0.69c0.85-0.21,1.71,0.31,1.92,1.16c0.1,0.41,0.03,0.84-0.2,1.21c-0.22,0.35-0.56,0.59-0.96,0.69
				c-0.42,0.1-0.85,0.04-1.21-0.18c-0.35-0.22-0.6-0.55-0.7-0.96C1509.53-1457.76,1509.6-1458.2,1509.83-1458.56z M1518.63-1477.97
				c-0.66-0.81-0.98-1.83-0.87-2.87c0.06-0.62,0.26-1.19,0.58-1.7c0.79-1.27,2.22-1.96,3.71-1.82c1.04,0.1,1.99,0.6,2.66,1.41
				c0.66,0.81,0.98,1.83,0.87,2.87c-0.06,0.61-0.25,1.19-0.58,1.71c-0.8,1.27-2.22,1.97-3.72,1.82
				C1520.24-1476.66,1519.3-1477.16,1518.63-1477.97z M1525.6-1489.97c0.13-0.58,0.34-1.12,0.65-1.62c1.13-1.8,3.28-2.72,5.36-2.27
				c1.32,0.28,2.44,1.06,3.18,2.2c0.73,1.14,0.98,2.49,0.7,3.81c-0.12,0.58-0.35,1.12-0.65,1.62c-1.13,1.8-3.28,2.71-5.35,2.26
				C1526.76-1484.55,1525.02-1487.25,1525.6-1489.97z M1598.57-1482.74c0.17,0.3,0.11,0.68-0.13,0.92c-0.05,0.05-0.1,0.09-0.17,0.12
				c-0.36,0.21-0.83,0.07-1.04-0.29c-0.16-0.3-0.11-0.68,0.13-0.92c0.05-0.05,0.1-0.09,0.17-0.12c0.17-0.11,0.38-0.13,0.58-0.07
				C1598.3-1483.05,1598.47-1482.92,1598.57-1482.74z M1638.98-1441.52c-0.07-0.51,0.04-1.01,0.32-1.45
				c0.35-0.57,0.93-0.94,1.6-1.02c0.59-0.08,1.17,0.08,1.64,0.43c0.47,0.36,0.77,0.88,0.84,1.46c0.07,0.52-0.04,1.03-0.32,1.47
				c-0.35,0.57-0.93,0.94-1.59,1.03C1640.25-1439.45,1639.14-1440.32,1638.98-1441.52z M1629.47-1423.07
				c-0.66-0.81-0.97-1.82-0.87-2.87c0.06-0.61,0.25-1.19,0.58-1.71c0.8-1.27,2.22-1.97,3.72-1.82c1.04,0.1,1.98,0.6,2.65,1.4
				c0.66,0.81,0.98,1.84,0.87,2.88c-0.06,0.62-0.26,1.19-0.58,1.7c-0.79,1.27-2.22,1.96-3.71,1.82
				C1631.08-1421.76,1630.14-1422.26,1629.47-1423.07z M1578.74-1405.99c-0.76-0.75-1.19-1.75-1.2-2.82
				c-0.01-1.07,0.4-2.07,1.14-2.83l0.03-0.03c1.54-1.54,4.06-1.56,5.62-0.03c0.76,0.75,1.19,1.75,1.2,2.82
				c0.01,1.07-0.4,2.08-1.15,2.84l-0.02,0.03C1582.82-1404.47,1580.3-1404.46,1578.74-1405.99z M1614.21-1406.35
				c-0.27,0.44-0.58,0.84-0.94,1.2c-2.13,2.13-5.41,2.52-7.98,0.93c-1.49-0.91-2.52-2.34-2.92-4.02c-0.4-1.69-0.13-3.43,0.78-4.9
				c0.27-0.44,0.59-0.84,0.94-1.19c2.13-2.13,5.41-2.51,7.99-0.94C1615.13-1413.4,1616.08-1409.39,1614.21-1406.35z
				 M1561.09-1420.49c0.3,0.48,0.23,1.1-0.17,1.5c-0.06,0.06-0.13,0.12-0.21,0.17c-0.27,0.17-0.59,0.23-0.91,0.16
				c-0.31-0.07-0.58-0.26-0.75-0.53c-0.3-0.47-0.23-1.1,0.16-1.49c0.06-0.06,0.13-0.12,0.21-0.17c0.27-0.17,0.6-0.22,0.91-0.16
				C1560.65-1420.94,1560.92-1420.75,1561.09-1420.49z M1635.92-1431.68c-0.57-0.55-0.89-1.29-0.91-2.09
				c-0.01-0.59,0.15-1.15,0.45-1.65c0.55-0.86,1.48-1.39,2.5-1.41c0.8-0.01,1.55,0.28,2.13,0.84c0.57,0.55,0.9,1.31,0.91,2.11
				c0.02,0.58-0.14,1.14-0.44,1.63c-0.54,0.86-1.48,1.39-2.5,1.41C1637.25-1430.82,1636.49-1431.12,1635.92-1431.68z
				 M1641.47-1447.94c-0.1-0.41-0.03-0.84,0.2-1.21c0.21-0.35,0.56-0.6,0.96-0.69c0.42-0.11,0.85-0.04,1.21,0.18
				c0.35,0.22,0.6,0.55,0.7,0.96c0.11,0.43,0.03,0.86-0.2,1.23c-0.22,0.35-0.55,0.6-0.95,0.69
				C1642.55-1446.57,1641.69-1447.09,1641.47-1447.94z M1553.29-1426.9c-0.07-0.12-0.04-0.27,0.06-0.37
				c0.02-0.03,0.05-0.04,0.08-0.06c0.16-0.08,0.35-0.02,0.43,0.14c0.06,0.13,0.04,0.27-0.06,0.37c-0.02,0.03-0.05,0.04-0.08,0.06
				C1553.56-1426.68,1553.37-1426.75,1553.29-1426.9z M1574.36-1414.22c0.95,1.14,0.88,2.79-0.17,3.84
				c-0.06,0.06-0.12,0.11-0.18,0.17c-1.2,1-3,0.84-4-0.35c-0.94-1.12-0.87-2.8,0.16-3.83c0.06-0.06,0.12-0.12,0.19-0.17
				C1571.56-1415.57,1573.35-1415.42,1574.36-1414.22z M1642.45-1453.77c-0.11-0.3-0.07-0.63,0.11-0.91c0.12-0.2,0.3-0.34,0.52-0.43
				c0.25-0.1,0.54-0.09,0.79,0.03c0.25,0.11,0.45,0.32,0.55,0.58c0.11,0.31,0.08,0.64-0.09,0.92c-0.12,0.19-0.3,0.34-0.53,0.42
				C1643.25-1452.95,1642.66-1453.22,1642.45-1453.77z M1628.57-1416.07c-0.13,0.58-0.34,1.13-0.65,1.62
				c-1.12,1.8-3.27,2.72-5.36,2.27c-1.32-0.28-2.44-1.06-3.18-2.2c-0.73-1.14-0.98-2.49-0.7-3.81c0.13-0.58,0.35-1.12,0.65-1.62
				c1.13-1.8,3.28-2.71,5.35-2.26C1627.41-1421.48,1629.16-1418.79,1628.57-1416.07z M1597.52-1404.25
				c-0.12,0.16-0.26,0.31-0.4,0.45c-1.79,1.8-4.66,1.97-6.66,0.4c-1.06-0.83-1.73-2.02-1.89-3.35c-0.16-1.34,0.2-2.65,1.03-3.71
				c0.13-0.16,0.27-0.32,0.41-0.46c1.79-1.79,4.65-1.96,6.65-0.39C1598.85-1409.59,1599.23-1406.43,1597.52-1404.25z
				 M1555.61-1423.3c-0.17-0.3-0.11-0.68,0.13-0.92c0.05-0.05,0.1-0.09,0.17-0.12c0.36-0.21,0.83-0.07,1.04,0.29
				c0.16,0.3,0.11,0.67-0.13,0.92c-0.05,0.05-0.11,0.09-0.17,0.12c-0.18,0.1-0.39,0.13-0.58,0.07
				C1555.87-1422.99,1555.71-1423.12,1555.61-1423.3z M1643.35-1458.46c-0.11-0.2-0.11-0.42,0.01-0.6c0.06-0.09,0.14-0.16,0.23-0.21
				c0.31-0.16,0.66-0.05,0.81,0.25c0.09,0.19,0.08,0.41-0.03,0.59c-0.05,0.09-0.14,0.16-0.24,0.21c-0.15,0.08-0.3,0.09-0.46,0.04
				C1643.53-1458.22,1643.41-1458.32,1643.35-1458.46z M1565.48-1417.97c0.51,0.08,0.96,0.36,1.27,0.78
				c0.56,0.78,0.47,1.84-0.21,2.51c-0.07,0.08-0.15,0.14-0.24,0.21c-0.42,0.3-0.94,0.42-1.45,0.34c-0.51-0.08-0.97-0.36-1.26-0.78
				c-0.56-0.77-0.47-1.83,0.2-2.5c0.08-0.07,0.16-0.14,0.24-0.21C1564.45-1417.93,1564.97-1418.05,1565.48-1417.97z M1573.9-1387.47
				c0.11,0.42,0.04,0.84-0.18,1.21c-0.22,0.35-0.55,0.6-0.96,0.69c-0.43,0.11-0.86,0.03-1.23-0.2c-0.35-0.22-0.6-0.55-0.69-0.95
				c-0.21-0.84,0.31-1.71,1.16-1.92c0.41-0.1,0.84-0.03,1.21,0.2C1573.56-1388.21,1573.81-1387.87,1573.9-1387.47z M1583.34-1386.52
				c0.16,0.31,0.05,0.66-0.25,0.82c-0.19,0.09-0.41,0.08-0.59-0.03c-0.09-0.06-0.16-0.14-0.21-0.24c-0.08-0.14-0.09-0.3-0.04-0.45
				c0.05-0.15,0.15-0.27,0.29-0.33c0.2-0.1,0.42-0.1,0.6,0.01C1583.22-1386.69,1583.29-1386.61,1583.34-1386.52z M1530.42-1415.9
				c-0.44-0.27-0.84-0.58-1.2-0.94c-2.13-2.13-2.52-5.42-0.94-7.98c0.91-1.49,2.34-2.52,4.02-2.92c1.69-0.4,3.43-0.12,4.9,0.79
				c0.43,0.27,0.84,0.59,1.19,0.95c2.13,2.12,2.52,5.41,0.94,7.98C1537.47-1414.98,1533.46-1414.02,1530.42-1415.9z
				 M1554.91-1392.05c-0.01-0.81,0.29-1.56,0.85-2.14c0.55-0.57,1.3-0.89,2.09-0.9c0.59-0.01,1.15,0.15,1.64,0.45
				c0.87,0.55,1.4,1.47,1.41,2.5c0.01,0.8-0.28,1.56-0.84,2.13c-0.56,0.57-1.31,0.9-2.11,0.91c-0.58,0.01-1.14-0.15-1.63-0.45
				C1555.45-1390.09,1554.92-1391.03,1554.91-1392.05z M1547.2-1473.29c-0.05-0.05-0.09-0.11-0.12-0.17
				c-0.1-0.17-0.13-0.38-0.07-0.58c0.06-0.2,0.18-0.36,0.36-0.46c0.3-0.17,0.68-0.11,0.92,0.13c0.05,0.05,0.09,0.1,0.12,0.16
				c0.21,0.36,0.07,0.83-0.29,1.04C1547.82-1473,1547.44-1473.05,1547.2-1473.29z M1543.06-1469.19c-0.06-0.06-0.12-0.13-0.17-0.21
				c-0.17-0.27-0.23-0.59-0.16-0.91c0.07-0.31,0.26-0.58,0.53-0.75c0.47-0.3,1.1-0.23,1.49,0.17c0.06,0.06,0.12,0.13,0.16,0.21
				c0.17,0.27,0.23,0.59,0.16,0.91c-0.07,0.31-0.26,0.58-0.53,0.75C1544.08-1468.72,1543.46-1468.79,1543.06-1469.19z
				 M1550.89-1476.3c-0.03-0.02-0.04-0.05-0.06-0.08c-0.08-0.16-0.01-0.35,0.14-0.43c0.13-0.06,0.27-0.04,0.37,0.06
				c0.02,0.02,0.04,0.05,0.06,0.08c0.07,0.16,0.02,0.35-0.14,0.43C1551.14-1476.18,1550.99-1476.2,1550.89-1476.3z M1538.54-1463.81
				c-0.3-0.42-0.42-0.94-0.33-1.45c0.08-0.51,0.36-0.96,0.78-1.26c0.77-0.56,1.83-0.47,2.51,0.2c0.07,0.08,0.14,0.16,0.21,0.24
				c0.3,0.42,0.42,0.94,0.34,1.44c-0.08,0.51-0.36,0.97-0.78,1.26c-0.78,0.57-1.83,0.48-2.51-0.2
				C1538.68-1463.64,1538.61-1463.72,1538.54-1463.81z M1534.64-1460.09c1.12-0.94,2.8-0.87,3.83,0.16
				c0.06,0.06,0.12,0.13,0.17,0.19c1.01,1.2,0.86,3-0.35,4c-1.14,0.95-2.79,0.88-3.84-0.17c-0.06-0.06-0.11-0.12-0.17-0.18
				C1533.28-1457.3,1533.44-1459.09,1534.64-1460.09z M1551.72-1400.93c1.27,0.8,1.97,2.22,1.82,3.72c-0.1,1.04-0.6,1.98-1.4,2.65
				c-0.81,0.67-1.84,0.98-2.88,0.87c-0.62-0.06-1.19-0.25-1.7-0.57c-1.27-0.79-1.96-2.22-1.82-3.71c0.09-1.05,0.6-1.99,1.41-2.66
				c0.81-0.66,1.83-0.97,2.87-0.87C1550.63-1401.45,1551.21-1401.25,1551.72-1400.93z M1530.11-1445.71l-0.03-0.02
				c-1.54-1.55-1.55-4.07-0.02-5.64c0.75-0.76,1.74-1.18,2.82-1.19c1.07-0.01,2.07,0.4,2.83,1.14l0.03,0.03
				c1.54,1.54,1.56,4.06,0.03,5.62c-0.75,0.76-1.75,1.19-2.82,1.2C1531.88-1444.56,1530.88-1444.96,1530.11-1445.71z
				 M1546.14-1405.42c-0.58,2.73-3.28,4.48-6,3.89c-0.58-0.12-1.13-0.34-1.62-0.65c-1.8-1.13-2.72-3.28-2.27-5.36
				c0.28-1.32,1.06-2.45,2.2-3.18c1.13-0.73,2.49-0.98,3.81-0.7c0.58,0.12,1.12,0.34,1.62,0.65
				C1545.68-1409.64,1546.58-1407.49,1546.14-1405.42z M1577.23-1386.3c-0.2-0.55,0.06-1.15,0.61-1.35c0.3-0.11,0.64-0.07,0.92,0.1
				c0.2,0.12,0.34,0.3,0.43,0.52c0.09,0.26,0.09,0.54-0.03,0.79c-0.11,0.25-0.32,0.45-0.58,0.55c-0.31,0.11-0.64,0.08-0.92-0.09
				C1577.46-1385.9,1577.31-1386.08,1577.23-1386.3z M1567.04-1390.81c0.57,0.35,0.94,0.93,1.02,1.6c0.08,0.59-0.08,1.17-0.43,1.64
				c-0.36,0.47-0.88,0.77-1.46,0.84c-0.52,0.07-1.03-0.04-1.47-0.31c-0.57-0.35-0.94-0.93-1.03-1.6c-0.16-1.2,0.71-2.32,1.92-2.48
				C1566.11-1391.19,1566.61-1391.08,1567.04-1390.81z M1530.82-1441.53c1.33-0.17,2.65,0.2,3.71,1.03
				c0.16,0.13,0.32,0.27,0.46,0.41c1.79,1.79,1.96,4.65,0.39,6.65c-1.71,2.18-4.88,2.56-7.06,0.85c-0.16-0.12-0.31-0.25-0.45-0.4
				c-1.8-1.8-1.97-4.66-0.4-6.65C1528.3-1440.7,1529.48-1441.37,1530.82-1441.53z M1605.89-1431.67c-0.05-0.05-0.09-0.1-0.12-0.17
				c-0.21-0.36-0.07-0.83,0.3-1.04c0.3-0.16,0.68-0.11,0.92,0.13c0.05,0.05,0.09,0.11,0.12,0.17c0.11,0.18,0.13,0.39,0.07,0.58
				c-0.06,0.2-0.18,0.36-0.36,0.46C1606.51-1431.38,1606.13-1431.43,1605.89-1431.67z M1593.28-1513.89
				c-0.02-0.8,0.28-1.55,0.84-2.13c0.56-0.57,1.3-0.9,2.11-0.91c0.58-0.02,1.14,0.14,1.63,0.44c0.86,0.55,1.39,1.48,1.41,2.5
				c0.01,0.8-0.29,1.57-0.84,2.14c-0.56,0.57-1.3,0.89-2.09,0.9c-0.59,0.01-1.15-0.15-1.65-0.45
				C1593.82-1511.94,1593.29-1512.87,1593.28-1513.89z M1586.11-1516.83c-0.08-0.58,0.08-1.17,0.43-1.63
				c0.36-0.47,0.88-0.77,1.46-0.84c0.52-0.07,1.03,0.04,1.47,0.32c0.57,0.35,0.94,0.93,1.03,1.59c0.16,1.2-0.71,2.32-1.92,2.48
				c-0.51,0.07-1.01-0.04-1.45-0.32C1586.57-1515.58,1586.19-1516.16,1586.11-1516.83z M1600.63-1508.82
				c0.1-1.04,0.6-1.99,1.41-2.65c0.81-0.66,1.83-0.98,2.87-0.87c0.62,0.06,1.19,0.25,1.7,0.58c1.27,0.79,1.96,2.21,1.82,3.71
				c-0.1,1.04-0.6,1.99-1.41,2.66c-0.81,0.66-1.83,0.97-2.87,0.87c-0.61-0.06-1.19-0.25-1.71-0.58
				C1601.18-1505.9,1600.48-1507.33,1600.63-1508.82z M1575-1519.01c-0.1-0.26-0.09-0.54,0.03-0.79c0.11-0.25,0.32-0.45,0.58-0.55
				c0.31-0.11,0.65-0.08,0.92,0.09c0.19,0.12,0.34,0.3,0.42,0.53c0.2,0.55-0.07,1.14-0.62,1.35c-0.3,0.11-0.64,0.07-0.91-0.1
				C1575.23-1518.6,1575.08-1518.79,1575-1519.01z M1570.84-1519.51c-0.16-0.31-0.05-0.66,0.25-0.82c0.19-0.09,0.41-0.08,0.59,0.03
				c0.09,0.05,0.16,0.14,0.21,0.24c0.08,0.15,0.09,0.3,0.04,0.45c-0.05,0.15-0.15,0.27-0.29,0.33c-0.2,0.11-0.42,0.11-0.6-0.01
				C1570.96-1519.34,1570.89-1519.42,1570.84-1519.51z M1580.27-1518.56c-0.1-0.42-0.04-0.85,0.18-1.21c0.22-0.36,0.55-0.6,0.96-0.7
				c0.42-0.11,0.86-0.04,1.22,0.2c0.35,0.22,0.6,0.55,0.69,0.95c0.21,0.84-0.31,1.71-1.16,1.92c-0.41,0.1-0.84,0.03-1.21-0.2
				C1580.61-1517.82,1580.37-1518.16,1580.27-1518.56z M1602.84-1429.28c-0.03-0.02-0.04-0.05-0.06-0.09
				c-0.07-0.15-0.01-0.34,0.14-0.43c0.13-0.06,0.27-0.04,0.37,0.06c0.03,0.02,0.04,0.05,0.06,0.08c0.08,0.16,0.01,0.35-0.14,0.43
				C1603.08-1429.16,1602.93-1429.19,1602.84-1429.28z M1608.04-1500.61c0.58-2.73,3.28-4.48,6-3.89c0.58,0.12,1.12,0.34,1.61,0.65
				c1.8,1.12,2.72,3.28,2.27,5.36c-0.28,1.32-1.06,2.44-2.2,3.18c-1.14,0.73-2.49,0.98-3.81,0.7c-0.58-0.12-1.12-0.34-1.62-0.65
				C1608.5-1496.39,1607.59-1498.54,1608.04-1500.61z M1623.76-1490.14c0.44,0.27,0.84,0.58,1.19,0.94
				c2.13,2.13,2.52,5.42,0.94,7.98c-0.91,1.49-2.34,2.52-4.02,2.92c-1.69,0.41-3.43,0.13-4.9-0.78c-0.43-0.27-0.84-0.59-1.19-0.95
				c-2.13-2.13-2.52-5.41-0.94-7.99C1616.71-1491.06,1620.71-1492.01,1623.76-1490.14z M1609.41-1435.15
				c-0.06-0.06-0.12-0.13-0.16-0.21c-0.17-0.27-0.23-0.59-0.16-0.91c0.07-0.31,0.26-0.58,0.53-0.75c0.48-0.3,1.11-0.23,1.5,0.16
				c0.06,0.07,0.12,0.14,0.17,0.21c0.17,0.27,0.23,0.59,0.16,0.9c-0.07,0.31-0.26,0.58-0.53,0.75
				C1610.44-1434.69,1609.81-1434.75,1609.41-1435.15z M1619.54-1445.94c-1.12,0.94-2.8,0.87-3.83-0.16
				c-0.06-0.06-0.11-0.12-0.17-0.19c-1.01-1.2-0.85-3,0.35-4c1.14-0.95,2.79-0.87,3.84,0.17c0.06,0.06,0.11,0.12,0.17,0.18
				C1620.89-1448.74,1620.73-1446.94,1619.54-1445.94z M1615.64-1442.23c0.3,0.42,0.42,0.93,0.34,1.45
				c-0.09,0.51-0.36,0.96-0.78,1.26c-0.77,0.55-1.83,0.47-2.5-0.2c-0.07-0.08-0.15-0.16-0.21-0.24c-0.3-0.42-0.42-0.94-0.34-1.45
				c0.08-0.51,0.36-0.96,0.78-1.27c0.78-0.56,1.83-0.47,2.51,0.2C1615.5-1442.4,1615.57-1442.32,1615.64-1442.23z M1618.43-1454.65
				c-1.54-1.54-1.56-4.06-0.03-5.62c0.75-0.76,1.75-1.19,2.82-1.2c1.07-0.01,2.08,0.4,2.84,1.15l0.03,0.02
				c1.54,1.55,1.56,4.07,0.02,5.63c-0.75,0.76-1.75,1.19-2.82,1.2c-1.07,0.01-2.07-0.4-2.83-1.14L1618.43-1454.65z M1626.31-1473.05
				c1.8,1.8,1.97,4.66,0.4,6.65c-0.83,1.06-2.02,1.73-3.35,1.89c-1.33,0.16-2.65-0.2-3.71-1.03c-0.16-0.13-0.31-0.27-0.46-0.41
				c-1.79-1.79-1.96-4.65-0.39-6.65c1.71-2.18,4.88-2.56,7.06-0.85C1626.02-1473.33,1626.17-1473.2,1626.31-1473.05z"/>
		</g>
		<g id="XMLID_00000172419855163072892620000009548483766903182727_">
			<g id="XMLID_00000091720486361496882970000012754623038985267845_">
				<path id="XMLID_00000182515187571858054170000003745765919678113947_" class="st3" d="M1017.8-80.58
					c5.44,5.46,5.44,14.32,0,19.78C1016.86-67.36,1016.86-74.01,1017.8-80.58z"/>
				<path id="XMLID_00000026875956548555975230000003013637380598175897_" class="st3" d="M1032.64-85.54c8.2,8.2,8.2,21.5,0,29.7
					c-3.46,3.46-7.85,5.47-12.38,5.99c-1.12-3.59-1.94-7.25-2.46-10.95c-0.94-6.56-0.94-13.22,0-19.78
					c0.51-3.7,1.34-7.36,2.46-10.95C1024.79-91.01,1029.17-89,1032.64-85.54z"/>
				<path id="XMLID_00000005961489514055840250000007195006382402688689_" class="st3" d="M1047.49-90.49
					c10.94,10.94,10.94,28.66,0,39.6c-6.74,6.74-16.06,9.33-24.77,7.74c-0.94-2.19-1.76-4.44-2.47-6.7
					c-1.12-3.59-1.94-7.25-2.46-10.95c-0.94-6.56-0.94-13.22,0-19.78c0.51-3.7,1.34-7.36,2.46-10.95c0.7-2.27,1.52-4.51,2.47-6.7
					C1031.43-99.81,1040.75-97.23,1047.49-90.49z"/>
				<path id="XMLID_00000089562082346565066730000005790163656060519830_" class="st3" d="M1062.34-95.44
					c13.67,13.67,13.67,35.83,0,49.5c-10.05,10.05-24.67,12.71-37.14,7.98c-0.91-1.7-1.73-3.44-2.47-5.19
					c-0.94-2.19-1.76-4.44-2.47-6.7c-1.12-3.59-1.94-7.25-2.46-10.95c-0.94-6.56-0.94-13.22,0-19.78c0.51-3.7,1.34-7.36,2.46-10.95
					c0.7-2.27,1.52-4.51,2.47-6.7c0.74-1.75,1.56-3.48,2.48-5.19C1037.67-108.15,1052.29-105.48,1062.34-95.44z"/>
				<path id="XMLID_00000171721899700564704860000006983621918314222727_" class="st3" d="M1077.19-100.39c16.4,16.4,16.4,43,0,59.4
					c-13.41,13.41-33.63,15.85-49.52,7.33c-0.89-1.41-1.71-2.84-2.48-4.3c-0.91-1.7-1.73-3.44-2.47-5.19
					c-0.94-2.19-1.76-4.44-2.47-6.7c-1.12-3.59-1.94-7.25-2.46-10.95c-0.94-6.56-0.94-13.22,0-19.78c0.51-3.7,1.34-7.36,2.46-10.95
					c0.7-2.27,1.52-4.51,2.47-6.7c0.74-1.75,1.56-3.48,2.48-5.19c0.76-1.46,1.58-2.89,2.47-4.3
					C1043.56-116.24,1063.77-113.8,1077.19-100.39z"/>
				<path id="XMLID_00000044891364097023218950000012373252455581705651_" class="st3" d="M1092.04-105.34
					c19.14,19.14,19.14,50.16,0,69.3c-16.82,16.82-42.83,18.85-61.87,6.1c-0.88-1.22-1.7-2.46-2.49-3.72
					c-0.89-1.41-1.71-2.84-2.48-4.3c-0.91-1.7-1.73-3.44-2.47-5.19c-0.94-2.19-1.76-4.44-2.47-6.7c-1.12-3.59-1.94-7.25-2.46-10.95
					c-0.94-6.56-0.94-13.22,0-19.78c0.51-3.7,1.34-7.36,2.46-10.95c0.7-2.27,1.52-4.51,2.47-6.7c0.74-1.75,1.56-3.48,2.48-5.19
					c0.76-1.46,1.58-2.89,2.47-4.3c0.79-1.27,1.61-2.5,2.49-3.72C1049.21-124.19,1075.22-122.16,1092.04-105.34z"/>
				<path id="XMLID_00000072965592731727589440000006365165287511836329_" class="st3" d="M1106.89-110.29
					c21.87,21.87,21.87,57.33,0,79.2c-20.29,20.28-52.27,21.76-74.25,4.4c-0.86-1.06-1.69-2.15-2.48-3.25
					c-0.88-1.22-1.7-2.46-2.49-3.72c-0.89-1.41-1.71-2.84-2.48-4.3c-0.91-1.7-1.73-3.44-2.47-5.19c-0.94-2.19-1.76-4.44-2.47-6.7
					c-1.12-3.59-1.94-7.25-2.46-10.95c-0.94-6.56-0.94-13.22,0-19.78c0.51-3.7,1.34-7.36,2.46-10.95c0.7-2.27,1.52-4.51,2.47-6.7
					c0.74-1.75,1.56-3.48,2.48-5.19c0.76-1.46,1.58-2.89,2.47-4.3c0.79-1.27,1.61-2.5,2.49-3.72c0.78-1.1,1.61-2.19,2.47-3.25
					C1054.62-132.05,1086.6-130.57,1106.89-110.29z"/>
				<path id="XMLID_00000168107634353619194190000002589724646960054182_" class="st3" d="M1121.74-115.24
					c24.6,24.6,24.6,64.5,0,89.1c-23.78,23.78-61.85,24.57-86.59,2.37c-0.02,0-0.03-0.01-0.03-0.03c-0.86-0.94-1.68-1.9-2.48-2.89
					c-0.86-1.06-1.69-2.15-2.48-3.25c-0.88-1.22-1.7-2.46-2.49-3.72c-0.89-1.41-1.71-2.84-2.48-4.3c-0.91-1.7-1.73-3.44-2.47-5.19
					c-0.94-2.19-1.76-4.44-2.47-6.7c-1.12-3.59-1.94-7.25-2.46-10.95c-0.94-6.56-0.94-13.22,0-19.78c0.51-3.7,1.34-7.36,2.46-10.95
					c0.7-2.27,1.52-4.51,2.47-6.7c0.74-1.75,1.56-3.48,2.48-5.19c0.76-1.46,1.58-2.89,2.47-4.3c0.79-1.27,1.61-2.5,2.49-3.72
					c0.78-1.1,1.61-2.19,2.47-3.25c0.79-0.99,1.61-1.95,2.47-2.89c0-0.02,0.01-0.03,0.03-0.03
					C1059.88-139.81,1097.96-139.02,1121.74-115.24z"/>
				<path id="XMLID_00000069396722245094415350000009436834053900456620_" class="st4" d="M1136.59-120.19
					c27.33,27.33,27.33,71.67,0,99c-27.33,27.33-71.67,27.33-99,0c-0.84-0.84-1.66-1.7-2.45-2.58c-0.02,0-0.03-0.01-0.03-0.03
					c-0.86-0.94-1.68-1.9-2.48-2.89c-0.86-1.06-1.69-2.15-2.48-3.25c-0.88-1.22-1.7-2.46-2.49-3.72c-0.89-1.41-1.71-2.84-2.48-4.3
					c-0.91-1.7-1.73-3.44-2.47-5.19c-0.94-2.19-1.76-4.44-2.47-6.7c-1.12-3.59-1.94-7.25-2.46-10.95c-0.94-6.56-0.94-13.22,0-19.78
					c0.51-3.7,1.34-7.36,2.46-10.95c0.7-2.27,1.52-4.51,2.47-6.7c0.74-1.75,1.56-3.48,2.48-5.19c0.76-1.46,1.58-2.89,2.47-4.3
					c0.79-1.27,1.61-2.5,2.49-3.72c0.78-1.1,1.61-2.19,2.47-3.25c0.79-0.99,1.61-1.95,2.47-2.89c0-0.02,0.01-0.03,0.03-0.03
					c0.78-0.88,1.6-1.74,2.45-2.58C1064.92-147.52,1109.25-147.52,1136.59-120.19z"/>
			</g>
			<g id="XMLID_00000060000905400282524410000018022048363496999842_">
				<path id="XMLID_00000085943135301727807770000014659184509801926548_" class="st3" d="M1156.38-60.8
					c-5.44-5.46-5.44-14.32,0-19.78C1157.32-74.01,1157.32-67.36,1156.38-60.8z"/>
				<path id="XMLID_00000163778517715597759440000003500700959669299359_" class="st3" d="M1141.54-55.84c-8.2-8.2-8.2-21.5,0-29.7
					c3.46-3.46,7.85-5.47,12.38-5.99c1.12,3.59,1.94,7.25,2.46,10.95c0.94,6.56,0.94,13.22,0,19.78c-0.51,3.7-1.34,7.36-2.46,10.95
					C1149.39-50.36,1145-52.37,1141.54-55.84z"/>
				<path id="XMLID_00000144306761064823134730000009806182047166660018_" class="st3" d="M1126.69-50.89
					c-10.94-10.94-10.94-28.66,0-39.6c6.74-6.74,16.06-9.33,24.77-7.74c0.94,2.19,1.76,4.44,2.47,6.7
					c1.12,3.59,1.94,7.25,2.46,10.95c0.94,6.56,0.94,13.22,0,19.78c-0.51,3.7-1.34,7.36-2.46,10.95c-0.7,2.27-1.52,4.51-2.47,6.7
					C1142.75-41.56,1133.43-44.14,1126.69-50.89z"/>
				<path id="XMLID_00000061461661853242454810000016546284379879716254_" class="st3" d="M1111.84-45.94
					c-13.67-13.67-13.67-35.83,0-49.5c10.05-10.05,24.67-12.71,37.14-7.98c0.91,1.7,1.73,3.44,2.47,5.19
					c0.94,2.19,1.76,4.44,2.47,6.7c1.12,3.59,1.94,7.25,2.46,10.95c0.94,6.56,0.94,13.22,0,19.78c-0.51,3.7-1.34,7.36-2.46,10.95
					c-0.7,2.27-1.52,4.51-2.47,6.7c-0.74,1.75-1.56,3.48-2.47,5.19C1136.51-33.22,1121.89-35.89,1111.84-45.94z"/>
				<path id="XMLID_00000062873900056847881060000001882706580102436992_" class="st3" d="M1096.99-40.99c-16.4-16.4-16.4-43,0-59.4
					c13.41-13.41,33.63-15.85,49.52-7.33c0.89,1.41,1.71,2.84,2.48,4.3c0.91,1.7,1.73,3.44,2.47,5.19c0.94,2.19,1.76,4.44,2.47,6.7
					c1.12,3.59,1.94,7.25,2.46,10.95c0.94,6.56,0.94,13.22,0,19.78c-0.51,3.7-1.34,7.36-2.46,10.95c-0.7,2.27-1.52,4.51-2.47,6.7
					c-0.74,1.75-1.56,3.48-2.47,5.19c-0.76,1.46-1.58,2.89-2.47,4.3C1130.62-25.14,1110.4-27.57,1096.99-40.99z"/>
				<path id="XMLID_00000006676351717824458440000001925491478035777672_" class="st3" d="M1082.14-36.04
					c-19.14-19.14-19.14-50.16,0-69.3c16.82-16.82,42.83-18.85,61.87-6.1c0.88,1.22,1.7,2.46,2.49,3.72
					c0.89,1.41,1.71,2.84,2.48,4.3c0.91,1.7,1.73,3.44,2.47,5.19c0.94,2.19,1.76,4.44,2.47,6.7c1.12,3.59,1.94,7.25,2.46,10.95
					c0.94,6.56,0.94,13.22,0,19.78c-0.51,3.7-1.34,7.36-2.46,10.95c-0.7,2.27-1.52,4.51-2.47,6.7c-0.74,1.75-1.56,3.48-2.47,5.19
					c-0.76,1.46-1.58,2.89-2.47,4.3c-0.79,1.27-1.61,2.5-2.49,3.72C1124.97-17.19,1098.96-19.22,1082.14-36.04z"/>
				<path id="XMLID_00000114064574805452916000000018139334447766118586_" class="st3" d="M1067.29-31.09
					c-21.87-21.87-21.87-57.33,0-79.2c20.29-20.28,52.27-21.76,74.25-4.4c0.86,1.06,1.69,2.15,2.48,3.25
					c0.88,1.22,1.7,2.46,2.49,3.72c0.89,1.41,1.71,2.84,2.48,4.3c0.91,1.7,1.73,3.44,2.47,5.19c0.94,2.19,1.76,4.44,2.47,6.7
					c1.12,3.59,1.94,7.25,2.46,10.95c0.94,6.56,0.94,13.22,0,19.78c-0.51,3.7-1.34,7.36-2.46,10.95c-0.7,2.27-1.52,4.51-2.47,6.7
					c-0.74,1.75-1.56,3.48-2.47,5.19c-0.76,1.46-1.58,2.89-2.47,4.3c-0.79,1.27-1.61,2.5-2.49,3.72c-0.78,1.1-1.61,2.19-2.47,3.25
					C1119.56-9.33,1087.57-10.8,1067.29-31.09z"/>
				<path id="XMLID_00000037664211729967629540000009117513295508535734_" class="st3" d="M1052.44-26.14
					c-24.6-24.6-24.6-64.5,0-89.1c23.78-23.78,61.85-24.57,86.59-2.37c0.02,0,0.03,0.01,0.03,0.03c0.86,0.94,1.68,1.9,2.48,2.89
					c0.86,1.06,1.69,2.15,2.48,3.25c0.88,1.22,1.7,2.46,2.49,3.72c0.89,1.41,1.71,2.84,2.48,4.3c0.91,1.7,1.73,3.44,2.47,5.19
					c0.94,2.19,1.76,4.44,2.47,6.7c1.12,3.59,1.94,7.25,2.46,10.95c0.94,6.56,0.94,13.22,0,19.78c-0.51,3.7-1.34,7.36-2.46,10.95
					c-0.7,2.27-1.52,4.51-2.47,6.7c-0.74,1.75-1.56,3.48-2.47,5.19c-0.76,1.46-1.58,2.89-2.47,4.3c-0.79,1.27-1.61,2.5-2.49,3.72
					c-0.78,1.1-1.61,2.19-2.47,3.25c-0.79,0.99-1.61,1.95-2.47,2.89c0,0.02-0.01,0.03-0.03,0.03
					C1114.29-1.56,1076.22-2.36,1052.44-26.14z"/>
				<path id="XMLID_00000117639727288595279340000010702838902651505081_" class="st4" d="M1037.59-21.19
					c-27.33-27.33-27.33-71.67,0-99c27.33-27.33,71.67-27.33,99,0c0.84,0.84,1.66,1.7,2.45,2.58c0.02,0,0.03,0.01,0.03,0.03
					c0.86,0.94,1.68,1.9,2.48,2.89c0.86,1.06,1.69,2.15,2.48,3.25c0.88,1.22,1.7,2.46,2.49,3.72c0.89,1.41,1.71,2.84,2.48,4.3
					c0.91,1.7,1.73,3.44,2.47,5.19c0.94,2.19,1.76,4.44,2.47,6.7c1.12,3.59,1.94,7.25,2.46,10.95c0.94,6.56,0.94,13.22,0,19.78
					c-0.51,3.7-1.34,7.36-2.46,10.95c-0.7,2.27-1.52,4.51-2.47,6.7c-0.74,1.75-1.56,3.48-2.47,5.19c-0.76,1.46-1.58,2.89-2.47,4.3
					c-0.79,1.27-1.61,2.5-2.49,3.72c-0.78,1.1-1.61,2.19-2.47,3.25c-0.79,0.99-1.61,1.95-2.47,2.89c0,0.02-0.01,0.03-0.03,0.03
					c-0.78,0.88-1.6,1.74-2.45,2.58C1109.25,6.15,1064.92,6.15,1037.59-21.19z"/>
			</g>
		</g>
	</g>
</pattern>
<g id="Layer_2" class="st5">
	<rect id="XMLID_3548_" x="-835.99" y="-520.01" class="st6" width="1160" height="772"/>
</g>
<g id="Layer_1">
	<g id="XMLID_21131_">
		<g id="XMLID_21142_">
			
				<pattern  id="XMLID_00000005248432238327666810000000989824317892670389_" xlink:href="#Unnamed_Pattern_5" patternTransform="matrix(1 0 0 1 476.2375 -453.8942)">
			</pattern>
			
				<path id="XMLID_21151_" style="fill:url(#XMLID_00000005248432238327666810000000989824317892670389_);stroke:#000000;stroke-width:1.4387;stroke-miterlimit:10;" d="
				M43.21,102.61c5.44,5.46,5.44,14.32,0,19.78C42.27,115.83,42.27,109.17,43.21,102.61z"/>
			
				<pattern  id="XMLID_00000107582638311909441480000011705241852867637170_" xlink:href="#Unnamed_Pattern_5" patternTransform="matrix(1 0 0 1 476.2375 -453.8942)">
			</pattern>
			
				<path id="XMLID_21150_" style="fill:url(#XMLID_00000107582638311909441480000011705241852867637170_);stroke:#000000;stroke-width:1.4387;stroke-miterlimit:10;" d="
				M58.05,97.65c8.2,8.2,8.2,21.5,0,29.7c-3.46,3.46-7.85,5.47-12.38,5.99c-1.12-3.59-1.94-7.25-2.46-10.95
				c-0.94-6.56-0.94-13.22,0-19.78c0.51-3.7,1.34-7.36,2.46-10.95C50.2,92.18,54.59,94.19,58.05,97.65z"/>
			
				<pattern  id="XMLID_00000143597180096198933790000005717000563162542527_" xlink:href="#Unnamed_Pattern_5" patternTransform="matrix(1 0 0 1 476.2375 -453.8942)">
			</pattern>
			
				<path id="XMLID_21149_" style="fill:url(#XMLID_00000143597180096198933790000005717000563162542527_);stroke:#000000;stroke-width:1.4387;stroke-miterlimit:10;" d="
				M72.9,92.7c10.94,10.94,10.94,28.66,0,39.6c-6.74,6.74-16.06,9.33-24.77,7.74c-0.94-2.19-1.76-4.44-2.47-6.7
				c-1.12-3.59-1.94-7.25-2.46-10.95c-0.94-6.56-0.94-13.22,0-19.78c0.51-3.7,1.34-7.36,2.46-10.95c0.7-2.27,1.52-4.51,2.47-6.7
				C56.84,83.37,66.16,85.96,72.9,92.7z"/>
			
				<pattern  id="XMLID_00000009560797539268010000000000290350469767202702_" xlink:href="#Unnamed_Pattern_5" patternTransform="matrix(1 0 0 1 476.2375 -453.8942)">
			</pattern>
			
				<path id="XMLID_21148_" style="fill:url(#XMLID_00000009560797539268010000000000290350469767202702_);stroke:#000000;stroke-width:1.4387;stroke-miterlimit:10;" d="
				M87.75,87.75c13.67,13.67,13.67,35.83,0,49.5c-10.05,10.05-24.67,12.71-37.14,7.98c-0.91-1.7-1.73-3.44-2.47-5.19
				c-0.94-2.19-1.76-4.44-2.47-6.7c-1.12-3.59-1.94-7.25-2.46-10.95c-0.94-6.56-0.94-13.22,0-19.78c0.51-3.7,1.34-7.36,2.46-10.95
				c0.7-2.27,1.52-4.51,2.47-6.7c0.74-1.75,1.56-3.48,2.47-5.19C63.08,75.04,77.7,77.7,87.75,87.75z"/>
			
				<pattern  id="XMLID_00000021101837339794496210000012537068074539883919_" xlink:href="#Unnamed_Pattern_5" patternTransform="matrix(1 0 0 1 476.2375 -453.8942)">
			</pattern>
			
				<path id="XMLID_21147_" style="fill:url(#XMLID_00000021101837339794496210000012537068074539883919_);stroke:#000000;stroke-width:1.4387;stroke-miterlimit:10;" d="
				M102.6,82.8c16.4,16.4,16.4,43,0,59.4c-13.41,13.41-33.63,15.85-49.52,7.33c-0.89-1.41-1.71-2.84-2.48-4.3
				c-0.91-1.7-1.73-3.44-2.47-5.19c-0.94-2.19-1.76-4.44-2.47-6.7c-1.12-3.59-1.94-7.25-2.46-10.95c-0.94-6.56-0.94-13.22,0-19.78
				c0.51-3.7,1.34-7.36,2.46-10.95c0.7-2.27,1.52-4.51,2.47-6.7c0.74-1.75,1.56-3.48,2.47-5.19c0.76-1.46,1.58-2.89,2.47-4.3
				C68.97,66.95,89.19,69.39,102.6,82.8z"/>
			
				<pattern  id="XMLID_00000144302744482507223950000002857486539549283263_" xlink:href="#Unnamed_Pattern_5" patternTransform="matrix(1 0 0 1 476.2375 -453.8942)">
			</pattern>
			
				<path id="XMLID_21146_" style="fill:url(#XMLID_00000144302744482507223950000002857486539549283263_);stroke:#000000;stroke-width:1.4387;stroke-miterlimit:10;" d="
				M117.45,77.85c19.14,19.14,19.14,50.16,0,69.3c-16.82,16.82-42.83,18.85-61.87,6.1c-0.88-1.22-1.7-2.46-2.49-3.72
				c-0.89-1.41-1.71-2.84-2.48-4.3c-0.91-1.7-1.73-3.44-2.47-5.19c-0.94-2.19-1.76-4.44-2.47-6.7c-1.12-3.59-1.94-7.25-2.46-10.95
				c-0.94-6.56-0.94-13.22,0-19.78c0.51-3.7,1.34-7.36,2.46-10.95c0.7-2.27,1.52-4.51,2.47-6.7c0.74-1.75,1.56-3.48,2.47-5.19
				c0.76-1.46,1.58-2.89,2.47-4.3c0.79-1.27,1.61-2.5,2.49-3.72C74.62,59,100.63,61.03,117.45,77.85z"/>
			
				<pattern  id="XMLID_00000083797180029307889920000008246346995303436967_" xlink:href="#Unnamed_Pattern_5" patternTransform="matrix(1 0 0 1 476.2375 -453.8942)">
			</pattern>
			
				<path id="XMLID_21145_" style="fill:url(#XMLID_00000083797180029307889920000008246346995303436967_);stroke:#000000;stroke-width:1.4387;stroke-miterlimit:10;" d="
				M132.3,72.9c21.87,21.87,21.87,57.33,0,79.2c-20.28,20.28-52.27,21.76-74.25,4.4c-0.86-1.06-1.69-2.15-2.48-3.25
				c-0.88-1.22-1.7-2.46-2.49-3.72c-0.89-1.41-1.71-2.84-2.48-4.3c-0.91-1.7-1.73-3.44-2.47-5.19c-0.94-2.19-1.76-4.44-2.47-6.7
				c-1.12-3.59-1.94-7.25-2.46-10.95c-0.94-6.56-0.94-13.22,0-19.78c0.51-3.7,1.34-7.36,2.46-10.95c0.7-2.27,1.52-4.51,2.47-6.7
				c0.74-1.75,1.56-3.48,2.47-5.19c0.76-1.46,1.58-2.89,2.47-4.3c0.79-1.27,1.61-2.5,2.49-3.72c0.78-1.1,1.61-2.19,2.47-3.25
				C80.03,51.14,112.01,52.62,132.3,72.9z"/>
			
				<pattern  id="XMLID_00000070818416263101484620000007306725706911991961_" xlink:href="#Unnamed_Pattern_5" patternTransform="matrix(1 0 0 1 476.2375 -453.8942)">
			</pattern>
			
				<path id="XMLID_21144_" style="fill:url(#XMLID_00000070818416263101484620000007306725706911991961_);stroke:#000000;stroke-width:1.4387;stroke-miterlimit:10;" d="
				M147.15,67.95c24.6,24.6,24.6,64.5,0,89.1c-23.78,23.78-61.85,24.57-86.59,2.37c-0.02,0-0.03-0.01-0.03-0.03
				c-0.86-0.94-1.68-1.9-2.48-2.89c-0.86-1.06-1.69-2.15-2.48-3.25c-0.88-1.22-1.7-2.46-2.49-3.72c-0.89-1.41-1.71-2.84-2.48-4.3
				c-0.91-1.7-1.73-3.44-2.47-5.19c-0.94-2.19-1.76-4.44-2.47-6.7c-1.12-3.59-1.94-7.25-2.46-10.95c-0.94-6.56-0.94-13.22,0-19.78
				c0.51-3.7,1.34-7.36,2.46-10.95c0.7-2.27,1.52-4.51,2.47-6.7c0.74-1.75,1.56-3.48,2.47-5.19c0.76-1.46,1.58-2.89,2.47-4.3
				c0.79-1.27,1.61-2.5,2.49-3.72c0.78-1.1,1.61-2.19,2.47-3.25c0.79-0.99,1.61-1.95,2.47-2.89c0-0.02,0.01-0.03,0.03-0.03
				C85.29,43.38,123.37,44.17,147.15,67.95z"/>
			
				<pattern  id="XMLID_00000176752207179966295060000010817962876386911905_" xlink:href="#Unnamed_Pattern_5" patternTransform="matrix(1 0 0 1 476.2375 -453.8942)">
			</pattern>
			
				<path id="XMLID_21143_" style="fill:url(#XMLID_00000176752207179966295060000010817962876386911905_);stroke:#000000;stroke-width:1.3718;stroke-miterlimit:10;" d="
				M162,63c27.33,27.33,27.33,71.67,0,99s-71.67,27.33-99,0c-0.84-0.84-1.66-1.7-2.45-2.58c-0.02,0-0.03-0.01-0.03-0.03
				c-0.86-0.94-1.68-1.9-2.48-2.89c-0.86-1.06-1.69-2.15-2.48-3.25c-0.88-1.22-1.7-2.46-2.49-3.72c-0.89-1.41-1.71-2.84-2.48-4.3
				c-0.91-1.7-1.73-3.44-2.47-5.19c-0.94-2.19-1.76-4.44-2.47-6.7c-1.12-3.59-1.94-7.25-2.46-10.95c-0.94-6.56-0.94-13.22,0-19.78
				c0.51-3.7,1.34-7.36,2.46-10.95c0.7-2.27,1.52-4.51,2.47-6.7c0.74-1.75,1.56-3.48,2.47-5.19c0.76-1.46,1.58-2.89,2.47-4.3
				c0.79-1.27,1.61-2.5,2.49-3.72c0.78-1.1,1.61-2.19,2.47-3.25c0.79-0.99,1.61-1.95,2.47-2.89c0-0.02,0.01-0.03,0.03-0.03
				c0.78-0.88,1.6-1.74,2.45-2.58C90.33,35.67,134.67,35.67,162,63z"/>
		</g>
		<g id="XMLID_21132_">
			
				<pattern  id="XMLID_00000101084594471771141180000016161309455087147431_" xlink:href="#Unnamed_Pattern_5" patternTransform="matrix(1 0 0 1 476.2375 -453.8942)">
			</pattern>
			
				<path id="XMLID_21141_" style="fill:url(#XMLID_00000101084594471771141180000016161309455087147431_);stroke:#000000;stroke-width:1.4387;stroke-miterlimit:10;" d="
				M181.79,122.39c-5.44-5.46-5.44-14.32,0-19.78C182.73,109.17,182.73,115.83,181.79,122.39z"/>
			
				<pattern  id="XMLID_00000141413072376967602230000000838597850056673709_" xlink:href="#Unnamed_Pattern_5" patternTransform="matrix(1 0 0 1 476.2375 -453.8942)">
			</pattern>
			
				<path id="XMLID_21140_" style="fill:url(#XMLID_00000141413072376967602230000000838597850056673709_);stroke:#000000;stroke-width:1.4387;stroke-miterlimit:10;" d="
				M166.95,127.35c-8.2-8.2-8.2-21.5,0-29.7c3.46-3.46,7.85-5.47,12.38-5.99c1.12,3.59,1.94,7.25,2.46,10.95
				c0.94,6.56,0.94,13.22,0,19.78c-0.51,3.7-1.34,7.36-2.46,10.95C174.8,132.82,170.41,130.81,166.95,127.35z"/>
			
				<pattern  id="XMLID_00000164472189322437966580000013304530473011323326_" xlink:href="#Unnamed_Pattern_5" patternTransform="matrix(1 0 0 1 476.2375 -453.8942)">
			</pattern>
			
				<path id="XMLID_21139_" style="fill:url(#XMLID_00000164472189322437966580000013304530473011323326_);stroke:#000000;stroke-width:1.4387;stroke-miterlimit:10;" d="
				M152.1,132.3c-10.94-10.94-10.94-28.66,0-39.6c6.74-6.74,16.06-9.33,24.77-7.74c0.94,2.19,1.76,4.44,2.47,6.7
				c1.12,3.59,1.94,7.25,2.46,10.95c0.94,6.56,0.94,13.22,0,19.78c-0.51,3.7-1.34,7.36-2.46,10.95c-0.7,2.27-1.52,4.51-2.47,6.7
				C168.16,141.63,158.84,139.04,152.1,132.3z"/>
			
				<pattern  id="XMLID_00000078747955480567675960000013228381137910581632_" xlink:href="#Unnamed_Pattern_5" patternTransform="matrix(1 0 0 1 476.2375 -453.8942)">
			</pattern>
			
				<path id="XMLID_21138_" style="fill:url(#XMLID_00000078747955480567675960000013228381137910581632_);stroke:#000000;stroke-width:1.4387;stroke-miterlimit:10;" d="
				M137.25,137.25c-13.67-13.67-13.67-35.83,0-49.5c10.05-10.05,24.67-12.71,37.14-7.98c0.91,1.7,1.73,3.44,2.47,5.19
				c0.94,2.19,1.76,4.44,2.47,6.7c1.12,3.59,1.94,7.25,2.46,10.95c0.94,6.56,0.94,13.22,0,19.78c-0.51,3.7-1.34,7.36-2.46,10.95
				c-0.7,2.27-1.52,4.51-2.47,6.7c-0.74,1.75-1.56,3.48-2.47,5.19C161.92,149.96,147.3,147.3,137.25,137.25z"/>
			
				<pattern  id="XMLID_00000098922982697754577270000017525541125196918666_" xlink:href="#Unnamed_Pattern_5" patternTransform="matrix(1 0 0 1 476.2375 -453.8942)">
			</pattern>
			
				<path id="XMLID_21137_" style="fill:url(#XMLID_00000098922982697754577270000017525541125196918666_);stroke:#000000;stroke-width:1.4387;stroke-miterlimit:10;" d="
				M122.4,142.2c-16.4-16.4-16.4-43,0-59.4c13.41-13.41,33.63-15.85,49.52-7.33c0.89,1.41,1.71,2.84,2.48,4.3
				c0.91,1.7,1.73,3.44,2.47,5.19c0.94,2.19,1.76,4.44,2.47,6.7c1.12,3.59,1.94,7.25,2.46,10.95c0.94,6.56,0.94,13.22,0,19.78
				c-0.51,3.7-1.34,7.36-2.46,10.95c-0.7,2.27-1.52,4.51-2.47,6.7c-0.74,1.75-1.56,3.48-2.47,5.19c-0.76,1.46-1.58,2.89-2.47,4.3
				C156.03,158.05,135.81,155.61,122.4,142.2z"/>
			
				<pattern  id="XMLID_00000026145939800113071760000003814279219382573220_" xlink:href="#Unnamed_Pattern_5" patternTransform="matrix(1 0 0 1 476.2375 -453.8942)">
			</pattern>
			
				<path id="XMLID_21136_" style="fill:url(#XMLID_00000026145939800113071760000003814279219382573220_);stroke:#000000;stroke-width:1.4387;stroke-miterlimit:10;" d="
				M107.55,147.15c-19.14-19.14-19.14-50.16,0-69.3c16.82-16.82,42.83-18.85,61.87-6.1c0.88,1.22,1.7,2.46,2.49,3.72
				c0.89,1.41,1.71,2.84,2.48,4.3c0.91,1.7,1.73,3.44,2.47,5.19c0.94,2.19,1.76,4.44,2.47,6.7c1.12,3.59,1.94,7.25,2.46,10.95
				c0.94,6.56,0.94,13.22,0,19.78c-0.51,3.7-1.34,7.36-2.46,10.95c-0.7,2.27-1.52,4.51-2.47,6.7c-0.74,1.75-1.56,3.48-2.47,5.19
				c-0.76,1.46-1.58,2.89-2.47,4.3c-0.79,1.27-1.61,2.5-2.49,3.72C150.38,166,124.37,163.97,107.55,147.15z"/>
			
				<pattern  id="XMLID_00000173882770810360739630000002519989798167767703_" xlink:href="#Unnamed_Pattern_5" patternTransform="matrix(1 0 0 1 476.2375 -453.8942)">
			</pattern>
			
				<path id="XMLID_21135_" style="fill:url(#XMLID_00000173882770810360739630000002519989798167767703_);stroke:#000000;stroke-width:1.4387;stroke-miterlimit:10;" d="
				M92.7,152.1c-21.87-21.87-21.87-57.33,0-79.2c20.28-20.28,52.27-21.76,74.25-4.4c0.86,1.06,1.69,2.15,2.48,3.25
				c0.88,1.22,1.7,2.46,2.49,3.72c0.89,1.41,1.71,2.84,2.48,4.3c0.91,1.7,1.73,3.44,2.47,5.19c0.94,2.19,1.76,4.44,2.47,6.7
				c1.12,3.59,1.94,7.25,2.46,10.95c0.94,6.56,0.94,13.22,0,19.78c-0.51,3.7-1.34,7.36-2.46,10.95c-0.7,2.27-1.52,4.51-2.47,6.7
				c-0.74,1.75-1.56,3.48-2.47,5.19c-0.76,1.46-1.58,2.89-2.47,4.3c-0.79,1.27-1.61,2.5-2.49,3.72c-0.78,1.1-1.61,2.19-2.47,3.25
				C144.97,173.86,112.99,172.38,92.7,152.1z"/>
			
				<pattern  id="XMLID_00000125591931823744828170000006137604040251240104_" xlink:href="#Unnamed_Pattern_5" patternTransform="matrix(1 0 0 1 476.2375 -453.8942)">
			</pattern>
			
				<path id="XMLID_21134_" style="fill:url(#XMLID_00000125591931823744828170000006137604040251240104_);stroke:#000000;stroke-width:1.4387;stroke-miterlimit:10;" d="
				M77.85,157.05c-24.6-24.6-24.6-64.5,0-89.1c23.78-23.78,61.85-24.57,86.59-2.37c0.02,0,0.03,0.01,0.03,0.03
				c0.86,0.94,1.68,1.9,2.48,2.89c0.86,1.06,1.69,2.15,2.48,3.25c0.88,1.22,1.7,2.46,2.49,3.72c0.89,1.41,1.71,2.84,2.48,4.3
				c0.91,1.7,1.73,3.44,2.47,5.19c0.94,2.19,1.76,4.44,2.47,6.7c1.12,3.59,1.94,7.25,2.46,10.95c0.94,6.56,0.94,13.22,0,19.78
				c-0.51,3.7-1.34,7.36-2.46,10.95c-0.7,2.27-1.52,4.51-2.47,6.7c-0.74,1.75-1.56,3.48-2.47,5.19c-0.76,1.46-1.58,2.89-2.47,4.3
				c-0.79,1.27-1.61,2.5-2.49,3.72c-0.78,1.1-1.61,2.19-2.47,3.25c-0.79,0.99-1.61,1.95-2.47,2.89c0,0.02-0.01,0.03-0.03,0.03
				C139.71,181.62,101.63,180.83,77.85,157.05z"/>
			
				<pattern  id="XMLID_00000062904446283492518590000000737948783333848473_" xlink:href="#Unnamed_Pattern_5" patternTransform="matrix(1 0 0 1 476.2375 -453.8942)">
			</pattern>
			
				<path id="XMLID_21133_" style="fill:url(#XMLID_00000062904446283492518590000000737948783333848473_);stroke:#000000;stroke-width:1.3718;stroke-miterlimit:10;" d="
				M63,162c-27.33-27.33-27.33-71.67,0-99s71.67-27.33,99,0c0.84,0.84,1.66,1.7,2.45,2.58c0.02,0,0.03,0.01,0.03,0.03
				c0.86,0.94,1.68,1.9,2.48,2.89c0.86,1.06,1.69,2.15,2.48,3.25c0.88,1.22,1.7,2.46,2.49,3.72c0.89,1.41,1.71,2.84,2.48,4.3
				c0.91,1.7,1.73,3.44,2.47,5.19c0.94,2.19,1.76,4.44,2.47,6.7c1.12,3.59,1.94,7.25,2.46,10.95c0.94,6.56,0.94,13.22,0,19.78
				c-0.51,3.7-1.34,7.36-2.46,10.95c-0.7,2.27-1.52,4.51-2.47,6.7c-0.74,1.75-1.56,3.48-2.47,5.19c-0.76,1.46-1.58,2.89-2.47,4.3
				c-0.79,1.27-1.61,2.5-2.49,3.72c-0.78,1.1-1.61,2.19-2.47,3.25c-0.79,0.99-1.61,1.95-2.47,2.89c0,0.02-0.01,0.03-0.03,0.03
				c-0.78,0.88-1.6,1.74-2.45,2.58C134.67,189.33,90.33,189.33,63,162z"/>
		</g>
	</g>
</g>
</svg>
