<?xml version="1.0" encoding="utf-8"?>
<!-- Generator: Adobe Illustrator 26.2.1, SVG Export Plug-In . SVG Version: 6.00 Build 0)  -->
<svg version="1.1" xmlns="http://www.w3.org/2000/svg" xmlns:xlink="http://www.w3.org/1999/xlink" x="0px" y="0px"
	 viewBox="0 0 225 225" style="enable-background:new 0 0 225 225;" xml:space="preserve">
<style type="text/css">
	.st0{display:none;}
	.st1{display:inline;fill:#FAB433;}
	.st2{fill:none;}
	.st3{fill:none;stroke:#000000;stroke-width:1.6;stroke-miterlimit:10;}
	.st4{fill:none;stroke:#000000;stroke-width:0.7265;stroke-miterlimit:10;}
	.st5{fill:none;stroke:#000000;stroke-linecap:round;stroke-linejoin:round;stroke-miterlimit:10;}
	.st6{fill:none;stroke:#000000;stroke-miterlimit:10;}
	.st7{fill:none;stroke:#000000;stroke-width:0.7105;stroke-miterlimit:10;}
	.st8{fill:none;stroke:#000000;stroke-width:5.4;stroke-linecap:round;stroke-linejoin:round;stroke-miterlimit:10;}
	.st9{fill:none;stroke:#000000;stroke-width:2.9309;stroke-linecap:round;stroke-linejoin:round;stroke-miterlimit:10;}
	.st10{fill:none;stroke:#000000;stroke-width:0.5;stroke-linecap:round;stroke-linejoin:round;}
	.st11{fill:none;stroke:#FFFFFF;stroke-width:0;stroke-linecap:round;stroke-linejoin:round;}
	.st12{fill:#FFFFFF;}
	.st13{fill:none;stroke:#000000;stroke-width:1.4;stroke-miterlimit:10;}
	.st14{fill:url(#);stroke:#000000;stroke-width:1.4387;stroke-miterlimit:10;}
	.st15{fill:url(#);stroke:#000000;stroke-width:1.3718;stroke-miterlimit:10;}
	.st16{fill:none;stroke:#000000;stroke-width:1.0041;stroke-miterlimit:10;}
	.st17{fill:none;stroke:#000000;stroke-width:1.3621;stroke-miterlimit:10;}
	.st18{fill:none;stroke:#000000;stroke-width:0.25;stroke-miterlimit:10;}
</style>
<g id="Layer_2" class="st0">
	<rect id="XMLID_1_" x="-345.99" y="-520.01" class="st1" width="1160" height="772"/>
</g>
<g id="Layer_1">
	<g id="XMLID_13361_">
		<path id="XMLID_13362_" d="M45.39,120.89l0.02,0.14l0.04,0.24l0.01,0.06c-0.01-0.03-0.01-0.06-0.02-0.09
			C45.42,121.11,45.4,121,45.39,120.89z M44.97,112.8c0.01-0.05,0.01-0.09,0.01-0.14c-0.01-0.1-0.01-0.21-0.01-0.31
			c-0.03-0.74-0.03-1.47-0.02-2.2l0-0.09l0-0.05c0,0.14-0.01,0.27-0.01,0.4l0,0.13c-0.02,0.86-0.04,1.7-0.05,2.49l-0.01,0.32l0,0.06
			c0,0.12,0,0.24,0,0.37c0.01,0.36,0.02,0.71,0.03,1.06l0.01-0.27C44.91,113.97,44.92,113.39,44.97,112.8z M45.05,107.48l-0.01,0.11
			l0,0.05c0,0.03,0,0.06,0,0.1c0-0.07,0.01-0.14,0.01-0.21L45.05,107.48z M46.87,128.84l0.01,0.05L46.87,128.84L46.87,128.84z
			 M50.05,138.46l0.01,0.02L50.05,138.46L50.05,138.46z M51.96,142.58c-0.43-0.85-0.84-1.7-1.22-2.55l0.38,0.88l0.01,0.02l0.09,0.19
			l0.13,0.27l1.07,2.18l0.03,0.06c0.08,0.15,0.16,0.3,0.26,0.45c-0.2-0.39-0.4-0.79-0.59-1.19
			C52.06,142.78,52.01,142.68,51.96,142.58z M49.73,137.67c0.04,0.11,0.08,0.22,0.12,0.33l0.12,0.27l0.08,0.18
			c-0.05-0.13-0.11-0.26-0.16-0.38C49.84,137.93,49.78,137.8,49.73,137.67z M53.77,146.02c0.03,0.05,0.06,0.1,0.08,0.15l-0.02-0.04
			L53.77,146.02z M49.24,88.49L49.24,88.49l0.07-0.17L49.24,88.49z M57.69,72.86l-0.12,0.16l0,0c-0.1,0.14-0.21,0.29-0.31,0.43
			l-0.06,0.09c0.05-0.07,0.11-0.15,0.16-0.22C57.47,73.17,57.58,73.02,57.69,72.86z M57.17,73.59l-0.06,0.1l-0.86,1.29
			c0.27-0.43,0.56-0.85,0.85-1.28L57.17,73.59z M57.2,73.55l-0.03,0.05L57.2,73.55L57.2,73.55z M51.49,83.25l-0.09,0.19l-0.08,0.18
			C51.38,83.49,51.43,83.37,51.49,83.25z M45.22,105.46l-0.01,0.11l0-0.02L45.22,105.46z M45.11,106.63l-0.01,0.07
			c-0.01,0.12-0.03,0.24-0.04,0.36l-0.01,0.07l-0.01,0.32l0,0.03C45.07,107.2,45.09,106.92,45.11,106.63z M54.6,147.43l0.01,0.01
			c-0.01-0.02-0.03-0.04-0.04-0.07L54.6,147.43z M49.38,88.12l-0.07,0.19L49.38,88.12L49.38,88.12z M89.76,176.16
			c-0.56-0.21-1.13-0.42-1.72-0.65c-0.73-0.28-1.45-0.58-2.16-0.87c-0.49-0.21-0.99-0.42-1.48-0.65l0.14,0.07l0.17,0.09
			c0.11,0.05,0.22,0.1,0.33,0.14l1.85,0.8c0.13,0.05,0.24,0.09,0.36,0.14c1.02,0.41,2.04,0.78,3.05,1.13
			c0.53,0.18,1.05,0.34,1.58,0.5c-0.67-0.22-1.33-0.42-2.01-0.66L89.76,176.16z M103.84,179.58l0.17,0.02
			c0.2,0.03,0.39,0.03,0.58,0.06c-0.42-0.05-0.85-0.11-1.29-0.17L103.84,179.58z M114.93,180.05l-0.06,0
			c-0.73,0.01-1.46,0.01-2.2-0.02c-0.05,0-0.1-0.01-0.15-0.01c-0.02,0-0.05,0.01-0.07,0.01c-0.42,0.03-0.84,0.03-1.25,0.04
			c-0.29,0-0.57,0.03-0.86,0.03c0.34,0.01,0.67,0.02,0.99,0.03l0.29,0.01h0.24c0.14,0,0.28,0,0.43,0c0.56-0.01,1.15-0.02,1.75-0.04
			c0.35-0.01,0.69-0.03,1.04-0.04l-0.05,0L114.93,180.05z M115.36,180.05c0.01,0,0.02,0,0.03,0c-0.1,0-0.21,0.01-0.31,0.01
			L115.36,180.05z M101.55,179.22l0.02,0c0.53,0.1,1.05,0.17,1.58,0.24l0.16,0.02l-2-0.31L101.55,179.22z M99.15,178.74
			c-0.4-0.05-0.8-0.13-1.2-0.21l-0.09-0.02l-0.09-0.02c-0.14-0.03-0.29-0.06-0.43-0.09c0.11,0.03,0.22,0.05,0.33,0.08l0.44,0.09
			l1.74,0.36l0.15,0.03l0.14,0.02l1.17,0.19c-0.3-0.05-0.59-0.12-0.89-0.18C100,178.91,99.58,178.83,99.15,178.74z M128.12,178.29
			l0.13-0.03c0.67-0.14,1.33-0.3,1.99-0.47l0.02-0.01c-0.54,0.13-1.13,0.27-1.74,0.41C128.39,178.23,128.25,178.26,128.12,178.29z
			 M115.38,180.04c0.16-0.01,0.33-0.01,0.49-0.02c0.4-0.01,0.79-0.03,1.19-0.05l-0.15,0.01l0.21-0.01l0.16-0.01
			c0.21-0.02,0.42-0.02,0.62-0.03c-0.19,0.01-0.38,0.02-0.57,0.03c0.61-0.04,1.22-0.09,1.82-0.15c0.33-0.04,0.66-0.08,0.98-0.12
			c-0.96,0.11-1.98,0.2-3.02,0.28C116.57,179.99,115.98,180.02,115.38,180.04z M139.01,174.68c-0.26,0.1-0.52,0.2-0.77,0.29
			c-0.71,0.26-1.42,0.5-2.15,0.71c-0.97,0.29-1.97,0.53-2.97,0.75c-0.99,0.21-2,0.39-3.02,0.53c-1.03,0.14-2.07,0.25-3.12,0.33
			c-1.07,0.08-2.15,0.11-3.23,0.12c-1.08,0.01-2.16-0.02-3.25-0.08c-1.12-0.07-2.25-0.17-3.38-0.31c-1.13-0.14-2.26-0.3-3.4-0.5
			c-1.17-0.21-2.34-0.46-3.52-0.74c-1.17-0.28-2.33-0.59-3.51-0.93c-12.09-3.59-24.41-10.87-35.02-21.47
			c-0.28-0.28-0.55-0.55-0.82-0.83c-10.22-10.47-17.19-22.47-20.68-34.22c-0.34-1.16-0.66-2.32-0.94-3.47
			c-0.28-1.18-0.51-2.35-0.72-3.51c-0.21-1.14-0.37-2.28-0.51-3.42c-0.07-0.63-0.16-1.26-0.21-1.88c-0.38,0.72-0.72,1.44-1.02,2.16
			c0.08,0.9,0.18,1.81,0.31,2.72c0.15,1.13,0.35,2.27,0.57,3.41c0.23,1.18,0.51,2.37,0.81,3.56c0.31,1.2,0.66,2.41,1.04,3.61
			c3.54,11.18,10.27,22.51,19.97,32.45c0.27,0.28,0.54,0.55,0.81,0.82c12.19,12.19,26.69,19.91,40.44,22.59
			c1.14,0.22,2.29,0.42,3.42,0.58c3.42,0.46,6.78,0.6,10.03,0.41c1.06-0.07,2.12-0.17,3.16-0.3c1-0.13,1.99-0.29,2.97-0.48
			c0.69-0.14,1.38-0.3,2.06-0.48c0.32-0.08,0.64-0.17,0.96-0.26c0.95-0.27,1.89-0.57,2.81-0.9l0.05-0.02l0.13-0.05l0.1-0.04
			c0.98-0.38,2.09-0.86,3.17-1.33l-0.15,0.06C139.28,174.58,139.14,174.63,139.01,174.68z M126.15,178.65
			c-0.6,0.1-1.2,0.18-1.81,0.25c-0.52,0.06-1.04,0.12-1.56,0.16c-0.62,0.17-1.24,0.32-1.87,0.45c-0.16,0.03-0.32,0.06-0.48,0.09
			c0.32-0.02,0.63-0.06,0.94-0.1c0.16-0.02,0.32-0.03,0.47-0.05c0.84-0.09,1.68-0.2,2.5-0.35c0.69-0.13,1.46-0.29,2.25-0.47
			l0.23-0.05l0.04-0.01c0.26-0.06,0.53-0.12,0.79-0.18c0.15-0.04,0.3-0.07,0.46-0.11c-0.23,0.05-0.47,0.09-0.71,0.14
			C126.99,178.51,126.58,178.59,126.15,178.65z M141.55,173.6c-0.61,0.26-1.29,0.56-1.99,0.87
			C140.24,174.2,140.9,173.91,141.55,173.6z M79.95,171.73l-0.08-0.05c-0.77-0.43-1.53-0.88-2.29-1.35
			c-0.12-0.04-0.22-0.1-0.33-0.16c-0.09-0.04-0.19-0.08-0.27-0.13l-0.1-0.05c0.18,0.11,0.39,0.23,0.59,0.35
			c0.1,0.06,0.2,0.12,0.3,0.18c0.49,0.29,1,0.58,1.53,0.87c0.38,0.21,0.77,0.43,1.15,0.63c0.36,0.2,0.7,0.39,1.03,0.57
			c0.09,0.05,0.2,0.11,0.29,0.16l0.22,0.1c0.1,0.05,0.2,0.09,0.3,0.13c-0.55-0.28-1.1-0.58-1.65-0.89
			C80.4,171.97,80.18,171.85,79.95,171.73z M180.09,115.16c0-0.15,0.01-0.29,0.01-0.44c0.01-0.19,0-0.37,0-0.55
			c-0.01,0.51-0.02,1.03-0.03,1.55C180.08,115.54,180.08,115.35,180.09,115.16z M180.02,116.74c0-0.02,0-0.05,0.01-0.07l0,0.02
			C180.02,116.7,180.02,116.72,180.02,116.74z M180.03,116.67l0.01-0.06l0.01-0.08l-0.01,0.05
			C180.03,116.61,180.03,116.64,180.03,116.67z M179.76,119.48c0.05-0.38,0.09-0.77,0.12-1.16c-0.03,0.3-0.06,0.61-0.1,0.93
			L179.76,119.48z M179.88,118.32c0.06-0.55,0.1-1.08,0.14-1.58c-0.02,0.26-0.05,0.52-0.07,0.79
			C179.93,117.79,179.9,118.05,179.88,118.32z M135.56,168.58c0.74-0.02,1.48-0.04,2.21-0.09c0.66-0.76,1.29-1.56,1.91-2.39
			c-0.81,0.05-1.62,0.09-2.45,0.1c-1.06,0.02-2.13,0-3.2-0.05c-1.47-0.06-2.94-0.17-4.44-0.35c-0.65,0.82-1.3,1.62-1.97,2.39
			c1.59,0.19,3.17,0.31,4.73,0.37C133.44,168.6,134.51,168.61,135.56,168.58z M171.53,142.44c-0.63,0.77-1.29,1.51-1.99,2.22
			c-0.25,0.26-0.51,0.53-0.77,0.78c-0.06,0.21-0.13,0.41-0.19,0.61c-0.05,0.15-0.1,0.31-0.15,0.47c-0.19,0.59-0.39,1.17-0.61,1.73
			c0.27-0.26,0.53-0.53,0.79-0.79c0.7-0.71,1.37-1.45,1.99-2.22c0.61-0.75,1.2-1.54,1.74-2.34c0.07-0.1,0.14-0.19,0.2-0.29
			c0.32-0.88,0.6-1.79,0.85-2.7l-0.13,0.19C172.73,140.91,172.15,141.69,171.53,142.44z M127.26,165.46
			c-2.29-0.37-4.6-0.88-6.93-1.52c-0.66,0.82-1.34,1.61-2.02,2.38c2.34,0.65,4.66,1.16,6.97,1.53
			C125.95,167.08,126.61,166.29,127.26,165.46z M176.12,134.91c-0.15,0.34-0.3,0.68-0.46,1.01c-0.23,0.89-0.5,1.76-0.81,2.62
			c0.15-0.3,0.28-0.62,0.41-0.93c0.07-0.15,0.14-0.31,0.21-0.46c0.24-0.56,0.46-1.12,0.67-1.69c0.03-0.09,0.07-0.18,0.11-0.27
			c0.04-0.11,0.08-0.23,0.12-0.34l-0.03,0.11l0.04-0.12l0.04-0.13l0.01-0.02l0.82-2.53l0.02-0.05l-0.01,0.04
			c0.04-0.13,0.08-0.26,0.12-0.38l0.03-0.08l0.01-0.04c0.09-0.32,0.19-0.63,0.26-0.95c-0.17,0.58-0.36,1.15-0.56,1.71
			C176.8,133.27,176.48,134.1,176.12,134.91z M157,66.85c-1.6-1.55-3.29-2.91-5.03-4.11c-0.45-0.31-0.91-0.61-1.37-0.91
			c-1.98-1.25-4.01-2.28-6.04-3.07l0.05,0.18c0.2,0.61,0.39,1.24,0.56,1.91c1.54,0.6,3.07,1.35,4.58,2.25
			c2.2,1.31,4.33,2.92,6.32,4.83c0.25-0.29,0.48-0.55,0.71-0.81l0,0C156.85,67.03,156.93,66.94,157,66.85z M161.44,65.83l-0.05-0.05
			l0.03,0.03L161.44,65.83z M163.49,68.05c-0.24-0.28-0.5-0.55-0.75-0.82c-0.34-0.38-0.69-0.75-1.04-1.12
			c0.39,0.42,0.78,0.84,1.18,1.28C163.09,67.61,163.29,67.82,163.49,68.05z M179.81,106.27c0.02,0.19,0.03,0.38,0.05,0.58
			c0.01,0.21,0.02,0.42,0.03,0.63c0.03,0.78,0.04,1.55,0.04,2.32c-0.01,1.17-0.06,2.32-0.17,3.45c-0.1,1.11-0.26,2.19-0.46,3.25
			c-0.19,1.06-0.42,2.11-0.71,3.13c-1.09,3.9-2.86,7.47-5.32,10.58c-0.62,0.78-1.28,1.53-1.98,2.25c-0.23,0.24-0.45,0.48-0.7,0.72
			l-0.01,0.24c-0.02,0.98-0.06,1.96-0.14,2.92c0.24-0.23,0.47-0.48,0.71-0.72c0.16-0.16,0.31-0.32,0.46-0.48
			c4.7-5.01,7.41-11.42,8.25-18.56c0.13-1.07,0.21-2.16,0.25-3.26l0-0.04c0.04-1,0.04-2.01,0.01-3.04l0-0.12l-0.01-0.2
			c-0.01-0.13-0.01-0.26-0.02-0.39l-0.02-0.26l-0.01-0.16c-0.01-0.15-0.02-0.3-0.03-0.45c-0.02-0.24-0.04-0.47-0.06-0.72
			c-0.04-0.42-0.08-0.86-0.12-1.3c-0.02-0.21-0.04-0.42-0.06-0.64c0.01,0.12,0.02,0.25,0.03,0.37L179.81,106.27z M159.8,64.18
			c-0.46-0.46-0.91-0.89-1.34-1.3l-0.15-0.14c-0.2-0.18-0.39-0.37-0.59-0.55c0.11,0.1,0.22,0.21,0.34,0.32
			C158.5,62.93,159.06,63.46,159.8,64.18z M161.5,65.9l0.04,0.05l-0.05-0.06l-0.05-0.05l0.02,0.02L161.5,65.9z M176.41,90.43
			c0.44,1.33,0.81,2.66,1.13,3.99l0.01,0.03c0.66,2.73,1.08,5.43,1.23,8.06c0.07,1.21,0.09,2.4,0.06,3.57
			c-0.04,1.18-0.13,2.33-0.27,3.47c-0.1,0.78-0.21,1.54-0.36,2.3c0.24,0.85,0.45,1.7,0.62,2.56c0.09-0.46,0.15-0.92,0.23-1.39
			c0.17-1.08,0.3-2.17,0.37-3.28c0.08-1.18,0.09-2.39,0.05-3.61c-0.03-1.18-0.1-2.38-0.23-3.59c-0.1-0.94-0.22-1.88-0.38-2.83
			c0.3,1.61,0.55,3.26,0.75,4.97c0.08,0.53,0.14,1.07,0.2,1.6c-0.05-0.51-0.1-1-0.15-1.49c0.04,0.4,0.09,0.81,0.13,1.22
			c-0.02-0.24-0.04-0.49-0.06-0.73c-0.08-0.87-0.18-1.75-0.31-2.64l-0.01-0.06l0-0.01l0,0l-0.01-0.08l-0.01-0.06
			c-0.16-1.07-0.37-2.15-0.61-3.23c-0.04-0.19-0.09-0.37-0.13-0.56c-0.04-0.22-0.09-0.45-0.13-0.67c-0.25-1.22-0.53-2.45-0.87-3.68
			l-0.37-1.22l-0.29-0.99c-0.07-0.21-0.14-0.43-0.21-0.65c-0.08-0.23-0.16-0.46-0.25-0.69c-0.05-0.15-0.11-0.3-0.17-0.45l-0.03-0.08
			l0,0c-0.04-0.11-0.08-0.21-0.12-0.32l0.06,0.17C176.32,90.17,176.36,90.3,176.41,90.43z M173.32,142.07
			c-0.06,0.12-0.12,0.25-0.18,0.37l0.02-0.02l-0.03,0.05l0.02-0.04c-0.14,0.28-0.29,0.56-0.44,0.83c-1.43,2.52-3.18,4.85-5.24,6.96
			c-0.27,0.27-0.52,0.54-0.8,0.8l-0.1,0.2l0.1-0.19l-0.01,0.01c-0.45,0.42-0.9,0.83-1.37,1.23c-2.27,1.93-4.76,3.53-7.42,4.8
			c-0.88,0.42-1.79,0.8-2.7,1.15c-0.93,0.36-1.88,0.67-2.85,0.96c-0.96,0.28-1.94,0.54-2.94,0.75c-1.01,0.21-2.02,0.39-3.06,0.53
			c-1.02,0.14-2.06,0.24-3.11,0.32c-1.08,0.07-2.17,0.11-3.26,0.11c-1.08,0-2.17-0.03-3.27-0.09c-1.12-0.07-2.25-0.18-3.39-0.32
			c-1.12-0.14-2.26-0.31-3.4-0.52c-7.05-1.28-14.31-3.88-21.37-7.72c-0.71,0.89-1.42,1.76-2.13,2.61
			c7.41,4.03,15.04,6.71,22.42,7.96c1.12,0.19,2.24,0.34,3.35,0.46c1.13,0.13,2.25,0.22,3.36,0.28c1.09,0.05,2.17,0.08,3.23,0.07
			c1.09-0.01,2.16-0.06,3.22-0.15c1.04-0.08,2.07-0.2,3.09-0.35c1.03-0.15,2.04-0.32,3.04-0.55c0.99-0.22,1.95-0.48,2.91-0.76
			c0.97-0.29,1.92-0.62,2.86-0.98c0.92-0.36,1.81-0.73,2.69-1.16c2.66-1.28,5.14-2.88,7.39-4.81c0.45-0.38,0.9-0.78,1.33-1.2
			l0.03-0.03c0.29-0.28,0.56-0.57,0.84-0.86c1.39-1.42,2.65-2.95,3.76-4.57l0.12-0.17c0.25-0.38,0.49-0.78,0.74-1.17
			c0.34-0.59,0.68-1.2,1.03-1.82c0.2-0.37,0.4-0.74,0.6-1.11c-0.12,0.23-0.24,0.45-0.35,0.67c0.05-0.09,0.1-0.17,0.15-0.25
			c0.09-0.17,0.17-0.33,0.25-0.5c0.06-0.11,0.12-0.22,0.18-0.34c0.07-0.14,0.14-0.28,0.21-0.42c0.17-0.33,0.34-0.66,0.51-0.99
			c0.07-0.14,0.14-0.28,0.21-0.41l0.02-0.04c0.16-0.33,0.32-0.65,0.46-0.96l0.1-0.21l0.02-0.04c0.23-0.51,0.44-1.02,0.65-1.54
			c-0.07,0.17-0.15,0.34-0.22,0.51C174.18,140.27,173.77,141.16,173.32,142.07z M161.56,65.95l-0.01-0.01l0.16,0.17L161.56,65.95z
			 M175.51,88.02c-0.4-1.06-0.81-2.09-1.18-2.99l-0.08-0.18c0.05,0.11,0.07,0.23,0.11,0.34C174.74,86.09,175.13,87.05,175.51,88.02z
			 M175.43,95.41c-0.47-0.63-0.97-1.25-1.5-1.86c0.02,0.3,0.04,0.61,0.06,0.91c0.06,0.97,0.07,1.93,0.04,2.87
			c-0.01,0.3-0.02,0.59-0.04,0.88c-0.02,0.39-0.06,0.78-0.1,1.17c0.31,0.44,0.59,0.88,0.87,1.32c0.13,0.21,0.26,0.42,0.39,0.63
			c0.08,0.13,0.17,0.25,0.24,0.38c0.12-1.09,0.17-2.2,0.17-3.34C175.56,97.39,175.52,96.41,175.43,95.41z M123.07,49.63
			c-0.46,0.05-0.91,0.12-1.36,0.19c-2.8,0.46-5.43,1.33-7.81,2.63c-0.87,0.47-1.7,1-2.5,1.59c-0.74,0.54-1.45,1.13-2.12,1.76
			l-0.16,0.16c-0.71,0.7-1.37,1.43-1.97,2.2c-0.62,0.8-1.18,1.63-1.68,2.5c-0.5,0.87-0.95,1.77-1.33,2.7
			c-0.4,0.96-0.73,1.96-1.01,2.99c-0.28,1.04-0.5,2.11-0.66,3.21c-0.15,1.03-0.25,2.07-0.29,3.14c0.8-0.05,1.6-0.1,2.41-0.13
			c0.48-0.02,0.97-0.04,1.46-0.06c0.02-0.54,0.06-1.08,0.11-1.61c0.11-1.14,0.28-2.25,0.53-3.33c0.24-1.06,0.55-2.09,0.93-3.09
			c0.25-0.66,0.53-1.3,0.84-1.93c0.14-0.27,0.28-0.55,0.43-0.81c0.49-0.89,1.03-1.73,1.65-2.54c0.59-0.78,1.25-1.52,1.97-2.21
			l0.13-0.13c0.69-0.65,1.43-1.23,2.18-1.77c0.81-0.58,1.65-1.1,2.53-1.56c2.85-1.46,6.06-2.28,9.48-2.5
			c0.26-0.02,0.52-0.04,0.78-0.06c0.04,0,0.08,0,0.11-0.01c-0.71-0.54-1.43-1.04-2.15-1.51C124.72,49.48,123.89,49.54,123.07,49.63z
			 M172.01,90.25c-0.11-0.85-0.25-1.7-0.44-2.56c-0.35-0.28-0.73-0.56-1.11-0.83c-0.16-0.11-0.32-0.22-0.48-0.33
			c-0.09-0.06-0.17-0.13-0.27-0.2c0.23,1.07,0.4,2.13,0.51,3.17c0.67,0.55,1.31,1.11,1.91,1.68c-0.01-0.07-0.01-0.14-0.02-0.21
			C172.09,90.74,172.05,90.49,172.01,90.25z M157.72,62.18c-0.11-0.1-0.22-0.2-0.32-0.29c-0.26-0.23-0.54-0.47-0.82-0.7l-0.17-0.14
			c0.32,0.28,0.65,0.56,0.96,0.84C157.49,61.99,157.6,62.08,157.72,62.18z M81.12,143.92c7.46,7.46,15.75,13.32,24.23,17.46
			c0.7-0.76,1.4-1.54,2.1-2.35c-8.42-4.11-16.66-9.93-24.08-17.35c-0.29-0.29-0.57-0.57-0.85-0.86c-2.84-2.91-5.43-5.93-7.78-9.04
			c-0.78,0.74-1.55,1.47-2.29,2.19c2.36,3.12,4.97,6.17,7.83,9.09C80.55,143.35,80.83,143.63,81.12,143.92z M161.04,69.37
			c0.88,1.04,1.69,2.11,2.45,3.19c1.04,1.48,1.98,2.99,2.79,4.52c0.3,0.06,0.59,0.13,0.87,0.21c0.22,0.06,0.43,0.12,0.64,0.19
			c-1.55-2.92-3.48-5.79-5.79-8.51C161.71,69.08,161.39,69.21,161.04,69.37z M54.17,91.43c0.03-1.08,0.09-2.14,0.19-3.19
			c0.09-1.03,0.22-2.05,0.38-3.06c0.16-1.03,0.36-2.04,0.59-3.03c0.23-0.98,0.49-1.94,0.78-2.89c0.3-0.96,0.63-1.9,0.99-2.82
			c0.14-0.35,0.26-0.71,0.41-1.05L57.3,75.6c-0.63,0.63-1.22,1.27-1.79,1.92c-0.15,0.34-0.27,0.7-0.41,1.05
			c-1.1,2.77-1.89,5.7-2.37,8.76c-0.16,1.01-0.29,2.03-0.38,3.06c-0.1,1.06-0.16,2.12-0.19,3.2c-0.02,1.06-0.02,2.13,0.02,3.21
			c0.12,3.25,0.56,6.58,1.27,9.96c0.23,1.11,0.5,2.23,0.79,3.35c1.26,4.77,3.07,9.6,5.45,14.36c0.57-0.61,1.16-1.23,1.79-1.86
			c0.07-0.07,0.14-0.14,0.22-0.21c-2.4-4.81-4.22-9.68-5.48-14.49c-0.29-1.12-0.56-2.23-0.79-3.34c-0.24-1.13-0.44-2.26-0.61-3.38
			c-0.17-1.1-0.3-2.19-0.41-3.28c-0.11-1.1-0.18-2.2-0.22-3.28C54.14,93.55,54.14,92.49,54.17,91.43z M84.9,138.46
			c0.28,0.28,0.55,0.56,0.83,0.84c5.23,5.23,10.88,9.66,16.7,13.25c0.73-0.84,1.45-1.7,2.18-2.58c-5.75-3.54-11.32-7.91-16.49-13.08
			c-0.27-0.27-0.55-0.55-0.82-0.83c-0.67-0.69-1.33-1.39-1.98-2.09c-8.41-9.17-14.42-19.38-17.85-29.5l-0.05-0.13
			c-0.91,0.65-1.81,1.3-2.68,1.97c0.56,1.67,1.2,3.34,1.9,5.01c2.85,6.8,6.83,13.56,11.89,19.94
			C80.51,133.72,82.62,136.13,84.9,138.46z M72.54,143.5c0.58-0.59,1.18-1.2,1.81-1.83l0.22-0.22c-1.75-1.99-3.39-4.03-4.92-6.1
			l-0.22,0.22c-0.63,0.63-1.23,1.24-1.8,1.84C69.16,139.48,70.79,141.51,72.54,143.5z M72.43,150.93c0.28,0.28,0.55,0.56,0.83,0.84
			c3.71,3.71,7.63,7.02,11.68,9.92c0.59-0.51,1.2-1.06,1.82-1.63c-4.08-2.92-8.03-6.25-11.78-10c-0.28-0.28-0.56-0.57-0.84-0.85
			c-0.22-0.23-0.44-0.46-0.66-0.68c-0.6,0.6-1.16,1.18-1.71,1.73C71.99,150.48,72.21,150.7,72.43,150.93z M103.42,164.4
			c0.09-0.09,0.17-0.16,0.26-0.25l0.22-0.22c-8.74-4.16-17.29-10.15-24.97-17.83c-0.23-0.23-0.46-0.46-0.68-0.69l-2.04,2.04
			c0.23,0.23,0.46,0.46,0.69,0.69c7.67,7.67,16.21,13.65,24.93,17.8C102.35,165.46,102.88,164.93,103.42,164.4z M160.57,65.47
			l-0.22-0.22c-0.05-0.05-0.1-0.1-0.15-0.14l-0.17-0.17c-1.08-1.08-2.19-2.11-3.32-3.08c-0.57-0.5-1.15-0.98-1.74-1.45l0,0.09
			c0.01,0.19,0.01,0.39-0.01,0.62c1.61,1.28,3.18,2.68,4.69,4.18c0.17,0.17,0.33,0.33,0.5,0.5c4.47,4.58,7.91,9.65,10.24,14.8
			c0.44,0.26,0.85,0.54,1.22,0.83c-1.54-3.4-3.54-6.77-5.96-10C164.14,69.38,162.44,67.39,160.57,65.47z M109.9,173.85
			c2.24,0.62,4.47,1.12,6.68,1.49c1.12,0.18,2.23,0.34,3.33,0.46c1.13,0.12,2.25,0.21,3.37,0.26c1.08,0.05,2.15,0.08,3.2,0.06
			c1.09-0.02,2.16-0.07,3.22-0.15c1.04-0.08,2.06-0.2,3.07-0.34l0.31-0.04c0.76-0.46,1.51-0.97,2.25-1.51l-0.07,0.01
			c-1,0.15-2.01,0.26-3.04,0.35c-1.06,0.09-2.13,0.16-3.21,0.18c-1.05,0.02-2.12,0-3.19-0.05c-1.1-0.05-2.21-0.11-3.33-0.23
			c-1.09-0.11-2.19-0.26-3.3-0.44c-1.14-0.18-2.28-0.38-3.42-0.63c-0.54-0.11-1.08-0.25-1.62-0.38c-4.87-1.18-9.8-2.94-14.68-5.29
			c-0.66,0.56-1.3,1.08-1.94,1.57c4.04,1.94,8.12,3.48,12.17,4.62L109.9,173.85z M104.78,167.28c3.37,1.44,6.74,2.59,10.1,3.48
			c1.12,0.3,2.24,0.56,3.35,0.79c1.14,0.24,2.27,0.44,3.4,0.61c1.1,0.17,2.2,0.31,3.29,0.41c1.11,0.11,2.21,0.18,3.3,0.22
			c0.33,0.01,0.66,0.04,0.99,0.05c0.47-0.42,0.94-0.87,1.41-1.32l0.01-0.01c0.16-0.15,0.32-0.29,0.48-0.45l0.22-0.22
			c-0.31-0.01-0.63-0.03-0.95-0.04c-7.57-0.27-15.58-2.14-23.52-5.53c-0.07,0.07-0.14,0.15-0.22,0.22c-0.1,0.1-0.19,0.18-0.29,0.28
			C105.82,166.29,105.3,166.8,104.78,167.28z M169.01,80.03c-0.08-0.19-0.15-0.38-0.24-0.56l-0.16-0.06
			c-0.46-0.19-0.93-0.36-1.43-0.52c0.22,0.48,0.41,0.96,0.61,1.44c0.51,1.23,0.98,2.47,1.34,3.7c0.01,0.05,0.03,0.1,0.04,0.14
			c0.01,0.01,0.03,0.02,0.04,0.02c0.62,0.35,1.2,0.73,1.76,1.11c-0.06-0.19-0.13-0.38-0.19-0.57
			C170.3,83.16,169.71,81.59,169.01,80.03z M174.46,89.58c-0.02-0.02-0.04-0.04-0.06-0.06c-0.02-0.02-0.05-0.05-0.07-0.07
			l-0.11-0.11c-0.21-0.22-0.41-0.44-0.63-0.66c-0.18-0.18-0.36-0.36-0.56-0.53c0.17,0.69,0.32,1.39,0.45,2.08
			c0.12,0.66,0.22,1.31,0.31,1.96c0.43,0.46,0.82,0.94,1.21,1.41c0.09,0.11,0.2,0.22,0.28,0.33c-0.16-1.26-0.4-2.53-0.69-3.8
			C174.54,89.95,174.51,89.77,174.46,89.58z M171.76,83.96c0.3,0.84,0.58,1.68,0.82,2.51c0.42,0.36,0.82,0.72,1.19,1.1
			c0.07,0.07,0.14,0.14,0.2,0.2c-0.26-0.9-0.56-1.81-0.88-2.71C172.69,84.67,172.24,84.31,171.76,83.96z M144.92,55.95
			c-1.84-0.82-3.69-1.49-5.53-2.01c-0.43-0.12-0.86-0.23-1.29-0.34c0.33,0.44,0.65,0.89,0.97,1.37c0.1,0.15,0.21,0.31,0.31,0.48
			c0.51,0.12,1.02,0.26,1.53,0.41c1.22,0.36,2.44,0.79,3.66,1.3c2.7,1.12,5.39,2.62,7.98,4.45c2.04,1.45,4.03,3.1,5.9,4.97
			c0.13,0.13,0.26,0.26,0.39,0.39c0.32,0.33,0.64,0.66,0.94,0.99c0.3-0.21,0.58-0.39,0.83-0.55c-0.34-0.37-0.68-0.73-1.03-1.1
			c-0.14-0.15-0.29-0.29-0.43-0.43c-1.19-1.19-2.41-2.29-3.67-3.33c-0.81-0.67-1.63-1.3-2.46-1.9
			C150.39,58.75,147.67,57.18,144.92,55.95z M117.45,163.07c-1.43-0.46-2.86-0.98-4.29-1.54c-0.68,0.81-1.37,1.6-2.06,2.36
			c1.44,0.57,2.88,1.08,4.32,1.55C116.09,164.68,116.77,163.89,117.45,163.07z M179.69,120.07c-0.44,3.09-1.23,6.05-2.38,8.81
			c-0.38,0.92-0.81,1.82-1.27,2.69c-1.54,2.92-3.52,5.58-5.96,7.91l-0.02,0.01c-0.19,0.18-0.38,0.36-0.58,0.54
			c-2.5,2.26-5.32,4.05-8.4,5.39c-0.91,0.4-1.84,0.76-2.78,1.08c-0.97,0.32-1.96,0.61-2.97,0.86c-1,0.24-2.02,0.45-3.06,0.61
			c-1.02,0.16-2.06,0.29-3.11,0.37c-0.05,0.14-0.1,0.28-0.15,0.42c-0.32,0.96-0.65,1.91-1,2.84c0.23-0.02,0.47-0.04,0.7-0.07
			c1.08-0.1,2.14-0.25,3.18-0.43c1.02-0.18,2.01-0.39,3-0.65c1-0.26,1.98-0.56,2.94-0.9c0.91-0.32,1.8-0.67,2.67-1.06
			c2.32-1.03,4.5-2.32,6.51-3.87c0.37-0.29,0.73-0.58,1.09-0.88c0.48-0.4,0.94-0.81,1.39-1.24l0.02-0.02
			c0.26-0.24,0.5-0.49,0.75-0.75c0.7-0.71,1.36-1.45,1.98-2.22c0.61-0.76,1.19-1.54,1.73-2.35c0.56-0.83,1.06-1.69,1.54-2.57
			c0.47-0.87,0.9-1.77,1.29-2.69c1.12-2.62,1.93-5.42,2.43-8.35c0.03-0.16,0.06-0.32,0.08-0.48l0.03-0.16
			c0.08-0.56,0.16-1.19,0.23-1.83l0.03-0.27c0.05-0.44,0.1-0.89,0.14-1.34l-0.02,0.2C179.72,119.81,179.71,119.94,179.69,120.07z
			 M56.78,74.88c0.57-0.66,1.16-1.3,1.79-1.93l0.22-0.22c0.29-0.54,0.6-1.06,0.92-1.58c0.5-0.84,1.03-1.66,1.6-2.45
			c0.57-0.79,1.16-1.56,1.79-2.3c0.25-0.29,0.5-0.57,0.76-0.84l-1.17,1.25l-1.41,1.53l-0.17,0.18l-0.02,0.02l-0.03,0.03l-0.04,0.05
			l-0.01,0.01c-0.24,0.28-0.47,0.56-0.69,0.85c-0.34,0.43-0.67,0.87-0.99,1.31c-0.61,0.85-1.19,1.72-1.72,2.62
			C57.32,73.89,57.04,74.39,56.78,74.88z M64.88,158.73c-0.21-0.21-0.41-0.42-0.61-0.63c-0.16,0.19-0.29,0.36-0.4,0.5
			c0.19,0.2,0.39,0.4,0.58,0.6c0.22,0.23,0.45,0.45,0.67,0.67c0.71,0.71,1.43,1.4,2.15,2.07c0.15-0.09,0.34-0.21,0.54-0.36
			c-0.75-0.69-1.49-1.4-2.21-2.13C65.37,159.22,65.13,158.97,64.88,158.73z M49.25,128.73c2.68,7.08,6.67,14.17,11.93,20.82
			c0.28-0.4,0.59-0.82,0.92-1.27c-5.75-7.26-10.03-15.02-12.76-22.76c-0.07,0.19-0.12,0.37-0.19,0.55
			c-0.15,0.42-0.31,0.84-0.43,1.25C48.88,127.8,49.07,128.27,49.25,128.73z M60.63,155.61c-0.43-0.51-0.83-1.02-1.23-1.53
			c-0.51-0.64-1-1.27-1.48-1.91c-0.5-0.67-0.99-1.34-1.45-2.01c-1.19-1.73-2.29-3.49-3.28-5.26l0.02,0.05
			c0.47,0.88,0.95,1.74,1.41,2.52l0.09,0.14c0.08,0.15,0.18,0.31,0.26,0.45l0.41,0.64l0.49,0.76l0.44,0.68
			c0.11,0.17,0.24,0.33,0.36,0.5c0.15,0.22,0.31,0.43,0.46,0.65c0.14,0.2,0.28,0.4,0.43,0.6c0.16,0.22,0.31,0.45,0.48,0.67
			c0.17,0.23,0.34,0.46,0.51,0.69c0.55,0.72,1.12,1.43,1.7,2.13l0.04,0.05c0.13,0.16,0.27,0.32,0.41,0.48l-0.04-0.23L60.63,155.61z
			 M52.97,142.9c-0.99-1.75-1.89-3.52-2.7-5.3c-0.71-1.56-1.35-3.13-1.92-4.7c-0.5-1.37-0.94-2.73-1.32-4.1
			c-0.08-0.29-0.16-0.58-0.24-0.87c-0.29-1.07-0.54-2.14-0.75-3.19c-0.15-0.73-0.28-1.46-0.4-2.18l0.1,0.69l0.09,0.58l0,0.03
			c0.14,0.8,0.34,1.72,0.54,2.64c0.1,0.46,0.2,0.91,0.29,1.35c0.08,0.35,0.15,0.69,0.22,1.01l0.06,0.24
			c0.2,0.78,0.42,1.57,0.66,2.35c0.16,0.53,0.33,1.06,0.51,1.59c0.52,1.56,1.12,3.13,1.79,4.69c0.09,0.22,0.19,0.43,0.29,0.65
			c0.67,1.52,1.42,3.03,2.23,4.53c1.11,2.05,2.34,4.08,3.7,6.08c1.97,2.9,4.2,5.72,6.68,8.44c0.09-0.16,0.21-0.34,0.35-0.55
			C59.08,152.45,55.69,147.73,52.97,142.9z M46.32,124.66c0.03,0.1,0.05,0.21,0.07,0.32c0.65,2.63,1.5,5.3,2.55,7.95
			c0.46,1.17,0.94,2.33,1.48,3.49c3.46,7.53,8.51,14.95,15.06,21.66c0.24,0.25,0.48,0.49,0.73,0.74c0.33,0.33,0.67,0.66,1,0.99
			c0.24-0.22,0.51-0.46,0.8-0.74c-0.34-0.33-0.69-0.67-1.03-1.02c-0.25-0.25-0.5-0.5-0.75-0.76c-7.32-7.51-12.83-15.88-16.41-24.33
			c-0.6-1.4-1.13-2.81-1.62-4.21c-0.46-1.33-0.87-2.66-1.24-3.98c-0.34-1.24-0.65-2.47-0.9-3.7l-0.01-0.02
			c-0.07,0.65-0.11,1.29-0.11,1.93C46.05,123.54,46.19,124.1,46.32,124.66z M46.59,104.09c0.01,0.47,0,0.94,0.02,1.41
			c0.3-0.74,0.64-1.47,1.02-2.21c-0.03-0.69-0.02-1.37-0.02-2.05c0.01-1.09,0.03-2.18,0.11-3.25l0.02-0.22
			c0.29-3.87,1.06-7.57,2.3-11.02c0.08-0.23,0.17-0.47,0.26-0.7c0.16-0.43,0.35-0.86,0.52-1.28c0.09-0.2,0.17-0.39,0.26-0.59
			c0.09-0.19,0.16-0.39,0.25-0.57l-0.08,0.17c-0.21,0.46-0.42,0.94-0.64,1.46c-0.13,0.29-0.25,0.58-0.37,0.88
			c-0.08,0.2-0.16,0.4-0.25,0.59c-0.27,0.65-0.53,1.28-0.76,1.86c-0.05,0.13-0.1,0.25-0.15,0.38c-0.47,1.27-0.86,2.57-1.2,3.91
			c-0.39,1.56-0.69,3.16-0.9,4.79c-0.13,1.03-0.24,2.08-0.3,3.14C46.6,101.88,46.58,102.98,46.59,104.09z M46.92,121.35
			c0.16-0.64,0.35-1.29,0.58-1.95c-0.15-0.6-0.28-1.2-0.41-1.81c-0.26-1.19-0.48-2.37-0.66-3.54c-0.18-1.18-0.32-2.35-0.42-3.52
			c-0.03-0.33-0.07-0.66-0.09-0.99c-0.22,0.73-0.4,1.45-0.55,2.18c0.05,0.68,0.12,1.37,0.19,2.05c0.13,1.18,0.31,2.37,0.52,3.57
			c0.22,1.23,0.47,2.47,0.77,3.71L46.92,121.35z M49.38,92.19c-0.15,1.02-0.28,2.05-0.36,3.09c-0.08,1.06-0.12,2.14-0.14,3.22
			c-0.01,1.07,0,2.15,0.05,3.25c0.07,1.55,0.22,3.13,0.43,4.71c0.08,0.65,0.18,1.31,0.29,1.96c0.19,1.15,0.42,2.3,0.68,3.46
			c0.25,1.13,0.54,2.27,0.86,3.4c2.9,10.35,8.5,20.93,16.61,30.55c0.53-0.57,1.09-1.16,1.67-1.77c-8.35-9.9-14.05-20.8-16.93-31.45
			c-0.31-1.13-0.58-2.26-0.83-3.38c-0.73-3.4-1.17-6.76-1.31-10.04c-0.04-1.08-0.05-2.15-0.03-3.21c0.02-1.07,0.07-2.14,0.16-3.19
			c0.08-1.04,0.22-2.07,0.37-3.08c0.47-3.05,1.24-5.98,2.33-8.75c0.36-0.92,0.76-1.83,1.19-2.72c0.43-0.88,0.9-1.73,1.39-2.56
			c0.1-0.16,0.19-0.33,0.28-0.49c0.04-0.07,0.09-0.14,0.13-0.21l-0.42,0.63l-0.66,0.99l-0.01,0.01l-0.05,0.08
			c-0.12,0.18-0.23,0.37-0.34,0.55l-0.38,0.63l-0.09,0.16l-0.03,0.05l-0.07,0.12l-0.03,0.05c-0.34,0.58-0.67,1.18-0.97,1.78
			c-0.1,0.19-0.19,0.38-0.28,0.57c-0.01,0.02-0.03,0.05-0.04,0.07c-0.43,0.9-0.85,1.81-1.21,2.75
			C50.58,86.2,49.83,89.14,49.38,92.19z M45.8,107.34l0-0.13c-0.03-1.22-0.02-2.43,0.05-3.62c0.05-0.99,0.13-1.97,0.24-2.93
			c0.02-0.13,0.02-0.26,0.04-0.39c-0.06,0.22-0.12,0.45-0.18,0.67c-0.13,0.54-0.25,1.08-0.35,1.63l-0.02,0.1l-0.02,0.19
			c-0.05,0.41-0.09,0.82-0.13,1.23c-0.04,0.43-0.07,0.87-0.1,1.3c-0.03,0.51-0.05,1.03-0.07,1.55c-0.02,0.87-0.03,1.74-0.01,2.63
			c0.1-0.54,0.25-1.07,0.39-1.6C45.71,107.75,45.74,107.54,45.8,107.34z M67.92,157.11c1.35,1.35,2.72,2.64,4.12,3.87
			c0.37-0.3,0.77-0.63,1.18-0.99c-1.43-1.25-2.83-2.57-4.2-3.94c-0.27-0.27-0.54-0.54-0.81-0.82c-1.28-1.31-2.5-2.65-3.68-4
			c-0.36,0.42-0.68,0.82-0.98,1.2c1.15,1.32,2.35,2.63,3.59,3.91C67.4,156.59,67.66,156.85,67.92,157.11z M145.71,168.91
			c-0.73,0.22-1.45,0.43-2.2,0.62l-0.22,0.22c-0.18,0.18-0.37,0.34-0.56,0.52l-0.01,0.01c-0.45,0.43-0.89,0.86-1.35,1.25
			c0.73-0.18,1.46-0.39,2.17-0.61c0.96-0.3,1.91-0.62,2.83-0.99c0.57-0.22,1.14-0.46,1.69-0.71c0.44-0.38,0.87-0.8,1.3-1.21
			l0.01-0.01c0.2-0.19,0.42-0.37,0.62-0.57l0.22-0.22c-0.56,0.25-1.13,0.49-1.7,0.72C147.6,168.29,146.66,168.62,145.71,168.91z
			 M107.46,177.92c-0.55-0.12-1.1-0.23-1.66-0.36c-0.66,0.23-1.31,0.42-1.95,0.58l0.14,0.03c1.24,0.3,2.47,0.54,3.7,0.76
			c0.62,0.11,1.23,0.22,1.85,0.31c0.69-0.14,1.39-0.33,2.09-0.55c-0.21-0.03-0.42-0.07-0.63-0.11
			C109.82,178.39,108.64,178.17,107.46,177.92z M161.86,158.54l0.1-0.09c0.31-0.3,0.6-0.61,0.9-0.91c0.14-0.15,0.28-0.28,0.42-0.43
			l0.1-0.1c0.49-0.53,0.97-1.07,1.42-1.62c0.56-0.68,1.18-1.51,1.8-2.33c0.21-0.28,0.43-0.56,0.63-0.84l0.04-0.05l0.01-0.01
			l0.14-0.18l0.08-0.11c0.08-0.11,0.16-0.21,0.24-0.32c0.07-0.11,0.15-0.22,0.23-0.33c0.07-0.11,0.14-0.2,0.21-0.31
			c0.34-0.52,0.69-1.06,1.04-1.62c-0.76,1.18-1.59,2.36-2.47,3.55l-0.14,0.18c-0.64,0.78-1.32,1.54-2.04,2.27
			c-0.28,0.28-0.55,0.56-0.83,0.84l-0.07,0.06c-0.42,0.4-0.85,0.78-1.28,1.15c-2.26,1.93-4.74,3.55-7.41,4.84
			c-0.87,0.42-1.77,0.82-2.68,1.17c-0.93,0.37-1.88,0.69-2.84,0.99c-0.95,0.29-1.91,0.54-2.9,0.76c-0.99,0.22-2,0.41-3.02,0.57
			c-0.64,0.1-1.29,0.19-1.94,0.26c-0.61,0.83-1.24,1.62-1.9,2.39c0.71-0.08,1.41-0.18,2.11-0.29c3.06-0.47,5.99-1.25,8.76-2.35
			c0.91-0.36,1.81-0.75,2.68-1.18c2.65-1.3,5.12-2.91,7.38-4.84C161.03,159.3,161.45,158.93,161.86,158.54z M160.55,160.1
			l-0.07,0.06c-0.18,0.17-0.35,0.35-0.53,0.53l-0.01,0.01l-0.05,0.05l-0.13,0.12c-0.32,0.3-0.66,0.59-0.99,0.88
			c-2.13,1.84-4.44,3.42-6.93,4.7l-0.22,0.22c-0.2,0.2-0.42,0.38-0.63,0.58c-0.43,0.41-0.85,0.83-1.3,1.21
			c1.56-0.8,3.04-1.72,4.46-2.74c0.93-0.75,1.86-1.52,2.75-2.28c0.42-0.36,0.84-0.72,1.23-1.06l-0.09,0.09
			c0.33-0.29,0.65-0.57,0.96-0.84c0.04-0.04,0.09-0.08,0.13-0.12c0.17-0.16,0.33-0.32,0.5-0.48l0.15-0.15l0.57-0.56
			C160.41,160.24,160.48,160.16,160.55,160.1z M101.67,178.43c-0.63,0.08-1.25,0.12-1.86,0.13c0.2,0.05,0.39,0.08,0.58,0.13
			c1.31,0.31,2.62,0.57,3.91,0.78c0.31,0.05,0.62,0.11,0.92,0.16c0.1,0.01,0.19,0.03,0.29,0.04c0.04,0,0.08,0,0.12,0
			c0.5,0,1.01-0.03,1.52-0.07c0.14-0.01,0.27-0.01,0.41-0.02c-1.15-0.16-2.31-0.37-3.47-0.61
			C103.28,178.8,102.48,178.63,101.67,178.43z M80.61,171.36l0.28-0.01c-3.34-1.97-6.62-4.27-9.78-6.88
			c-0.25,0.11-0.47,0.19-0.68,0.25c1.63,1.35,3.29,2.6,4.98,3.77c1.45,1.01,2.92,1.96,4.41,2.83
			C80.07,171.35,80.34,171.36,80.61,171.36z M92,176.03c1.31,0.51,2.61,1,3.92,1.41c0.57-0.02,1.15-0.07,1.74-0.16
			c-0.48-0.16-0.97-0.33-1.45-0.5c-1.39-0.48-2.77-1.01-4.16-1.6c-1.37-0.58-2.75-1.21-4.11-1.89c-0.49,0.13-0.97,0.23-1.43,0.29
			c1.03,0.51,2.07,0.99,3.12,1.45C90.41,175.38,91.2,175.71,92,176.03z M69.7,162.12c4.33,3.85,8.91,7.12,13.6,9.77
			c0.43-0.08,0.87-0.2,1.33-0.34c-4.85-2.73-9.58-6.1-14.05-10.08C70.26,161.71,69.97,161.93,69.7,162.12z M96.32,178.01
			c-1.4-0.39-2.81-0.85-4.22-1.36c-0.95-0.34-1.91-0.71-2.87-1.11c-0.44-0.03-0.86-0.1-1.28-0.18c0,0,0,0,0,0l-0.12-0.02
			c0.96,0.4,1.93,0.76,2.89,1.1c0.72,0.26,1.44,0.49,2.15,0.72c0.5,0.16,1,0.32,1.5,0.46c0.19,0.05,0.37,0.12,0.55,0.17
			c0.1,0.03,0.18,0.05,0.28,0.07l0.12,0.02c0.23,0.05,0.47,0.08,0.7,0.13c0.28,0.05,0.55,0.11,0.82,0.15
			c-0.09-0.03-0.19-0.05-0.28-0.08C96.48,178.06,96.4,178.03,96.32,178.01z M138.93,50.25c0.32,0.13,0.61,0.25,0.9,0.37l0.14,0.06
			l-0.1-0.04l-0.13-0.06c-0.23-0.1-0.46-0.19-0.68-0.29c-0.28-0.12-0.54-0.23-0.79-0.33c-0.54-0.22-1.08-0.43-1.61-0.63
			c-0.39-0.15-0.79-0.29-1.18-0.43l-0.19-0.06c0.56,0.21,1.15,0.43,1.74,0.66C137.68,49.75,138.33,50,138.93,50.25z M122.43,45.58
			C122.43,45.58,122.43,45.58,122.43,45.58l0.13,0.02L122.43,45.58z M118.81,45.2c0.94,0.07,1.89,0.16,2.84,0.29
			C120.76,45.39,119.78,45.29,118.81,45.2z M108.39,44.96L108.39,44.96l-0.16,0.01l-0.04,0.01l0.05-0.01L108.39,44.96z
			 M134.87,48.98c-1.44-0.43-2.87-0.79-4.29-1.08c-6.35-1.3-12.49-1.16-17.89,0.52c-0.75,0.23-1.47,0.49-2.18,0.78
			c-0.23,0.1-0.47,0.19-0.7,0.3c-0.93,0.41-1.84,0.87-2.72,1.39c-0.85,0.5-1.67,1.04-2.45,1.65c-0.71,0.54-1.4,1.11-2.05,1.74
			c-0.07,0.07-0.13,0.14-0.2,0.21c-0.71,0.69-1.38,1.42-1.99,2.18c-0.63,0.78-1.21,1.6-1.74,2.45c-0.52,0.84-0.99,1.71-1.41,2.61
			c-0.43,0.92-0.81,1.88-1.14,2.85l-0.05,0.14c0.26,0,0.52,0.01,0.78,0.01c0.96,0,1.93,0.01,2.91,0.04c0.26-0.8,0.58-1.58,0.92-2.35
			c0.4-0.91,0.86-1.8,1.37-2.65c0.51-0.86,1.09-1.68,1.71-2.47c0.61-0.76,1.27-1.5,1.98-2.19c0.06-0.06,0.12-0.12,0.18-0.18
			c0.67-0.63,1.37-1.21,2.09-1.75c0.79-0.59,1.62-1.13,2.47-1.62c0.9-0.51,1.82-0.96,2.78-1.35c0.89-0.37,1.8-0.69,2.74-0.96
			c0.05-0.02,0.11-0.03,0.15-0.05c1.04-0.29,2.11-0.52,3.21-0.7c1.11-0.18,2.25-0.3,3.41-0.35c2.42-0.12,4.92,0.03,7.48,0.42
			l0.28,0.04c1.46,0.24,2.94,0.55,4.43,0.95c1.59,0.43,3.2,0.96,4.8,1.57c1.85,0.71,3.7,1.54,5.54,2.5c2.84,1.48,5.65,3.25,8.36,5.3
			c2.29,1.73,4.52,3.66,6.64,5.79c0.18,0.18,0.37,0.37,0.55,0.56c1.95,2,3.72,4.08,5.33,6.22c0.99,1.31,1.91,2.64,2.76,3.98
			c3.94,6.22,6.46,12.75,7.47,19.01c0.22,1.35,0.36,2.69,0.44,4.01c0.07,1.26,0.07,2.51,0.01,3.73c-0.05,0.98-0.14,1.95-0.28,2.9
			c-0.19,1.31-0.46,2.59-0.81,3.82c-0.56,1.96-1.33,3.83-2.31,5.56c-0.48,0.85-1.02,1.67-1.61,2.46c-0.6,0.81-1.26,1.57-1.97,2.3
			c-0.2,0.2-0.38,0.41-0.59,0.6l0,0c-0.51,0.49-1.05,0.94-1.6,1.37c-0.79,0.62-1.61,1.19-2.47,1.71c-0.85,0.51-1.73,0.97-2.64,1.38
			c-0.89,0.39-1.8,0.74-2.74,1.03c0,0.26,0,0.52,0.01,0.78c0.02,0.97,0.04,1.95,0.02,2.91c0.19-0.06,0.38-0.13,0.57-0.19
			c2.88-0.97,5.55-2.4,7.9-4.29c0.53-0.43,1.06-0.87,1.56-1.35l0.01-0.01c0.21-0.2,0.41-0.42,0.62-0.63
			c0.71-0.72,1.36-1.48,1.97-2.28c0.6-0.78,1.14-1.6,1.64-2.44c0.51-0.87,0.97-1.77,1.38-2.69c0.11-0.25,0.22-0.5,0.32-0.75
			c0.28-0.69,0.53-1.39,0.76-2.11c0.31-1.01,0.58-2.05,0.78-3.11c0.22-1.09,0.37-2.21,0.47-3.35c0.11-1.17,0.15-2.36,0.14-3.57
			c-0.01-1.24-0.09-2.51-0.22-3.78c-0.14-1.32-0.34-2.65-0.62-4c-0.29-1.44-0.66-2.9-1.09-4.36c-1.57-5.24-4.1-10.54-7.52-15.62
			l-0.12-0.18c-0.06-0.08-0.11-0.16-0.17-0.24c-0.75-1.1-1.55-2.19-2.39-3.26l-0.11-0.14l0.05,0.06l-0.22-0.28l-0.05-0.06
			l-0.01-0.01c-0.15-0.19-0.31-0.37-0.48-0.57l-0.15-0.17c-0.5-0.59-1.05-1.22-1.6-1.84c-0.63-0.72-1.27-1.43-1.86-2.07l-0.06-0.06
			c-0.11-0.12-0.22-0.24-0.33-0.36l-0.1-0.11l0,0c-0.21-0.2-0.42-0.41-0.64-0.62l-0.12-0.11c-1.5-1.43-3.31-3.07-4.8-4.36
			c0.09,0.07,0.17,0.14,0.25,0.21c-0.15-0.12-0.3-0.25-0.43-0.36l-0.02-0.02l-0.74-0.6c-0.16-0.13-0.33-0.25-0.49-0.38
			c-0.35-0.27-0.7-0.54-1.06-0.8l-0.05-0.04l-0.16-0.12l-0.1-0.07l0,0c-0.24-0.18-0.48-0.34-0.72-0.51
			c-1.28-0.91-2.58-1.77-3.89-2.57l-0.21-0.13c-0.89-0.52-1.86-1.07-2.84-1.61c-0.1-0.05-0.2-0.11-0.31-0.16
			c-1.66-0.87-3.34-1.65-5.02-2.34C138,50.01,136.43,49.46,134.87,48.98z M106.28,45.14c0.63-0.07,1.27-0.13,1.91-0.16
			C107.6,45.02,106.95,45.07,106.28,45.14z M102.2,46.41c-0.98,0.29-1.93,0.63-2.87,1.01c-0.26,0.1-0.52,0.2-0.78,0.31
			c0.92,0,1.86,0.03,2.79,0.1c0.39-0.17,0.81-0.31,1.21-0.46c0.96-0.37,1.94-0.69,2.94-0.97c0.99-0.28,2-0.52,3.04-0.7
			c3.26-0.59,6.7-0.75,10.24-0.49l0.03,0l0.01,0l0,0l-0.04,0l-0.02,0c-0.94-0.09-1.89-0.17-2.76-0.23c-0.55-0.03-1.1-0.05-1.63-0.08
			l-0.07,0l-0.06,0c-0.16-0.01-0.33-0.01-0.5-0.01c-0.37,0-0.74-0.01-1.11,0c-0.31,0-0.61,0.02-0.92,0.03
			c-1.13,0.04-2.25,0.12-3.34,0.25c-1.07,0.13-2.12,0.3-3.16,0.52C104.18,45.87,103.18,46.12,102.2,46.41z M111.94,45.95
			c-1.05,0.16-2.07,0.38-3.08,0.63c-3.24,0.82-6.26,2.11-8.98,3.88c-1.36,0.9-2.65,1.91-3.85,3.05c-0.09,0.08-0.16,0.17-0.24,0.25
			c-0.71,0.69-1.36,1.42-1.99,2.18c-0.24,0.29-0.49,0.58-0.72,0.88c1.11,0.01,2.24,0.05,3.37,0.12c0.19-0.25,0.4-0.49,0.6-0.74
			c0.62-0.76,1.27-1.49,1.98-2.18c0.07-0.07,0.14-0.16,0.22-0.23c0.64-0.61,1.31-1.19,2.01-1.72c0.78-0.6,1.59-1.16,2.43-1.67
			c0.45-0.27,0.9-0.53,1.37-0.78c0.42-0.23,0.85-0.44,1.29-0.64c0.91-0.42,1.85-0.79,2.81-1.12c1-0.34,2.02-0.63,3.06-0.87
			c1.03-0.23,2.09-0.42,3.17-0.55c3.49-0.45,7.18-0.37,10.97,0.2c1.34,0.2,2.69,0.46,4.04,0.79c1.38,0.33,2.76,0.72,4.15,1.18
			c0.24,0.08,0.48,0.16,0.72,0.24c-0.3-0.11-0.59-0.22-0.87-0.32l0.16,0.05l-0.18-0.07c-0.15-0.06-0.31-0.11-0.46-0.16l-0.18-0.06
			l-0.46-0.14l-1.67-0.51l-0.19-0.06l-0.56-0.17c0.11,0.03,0.22,0.07,0.33,0.11c-0.26-0.07-0.51-0.15-0.75-0.21l-0.17-0.05
			l-0.11-0.03l-0.02-0.01c-1.24-0.33-2.47-0.62-3.7-0.85c-0.31-0.06-0.63-0.12-0.94-0.18C120.8,45.36,116.22,45.28,111.94,45.95z
			 M122.67,45.62L122.67,45.62l0.1,0.02L122.67,45.62z M116.21,44.97c-0.15-0.01-0.29-0.02-0.44-0.03c0.14,0.01,0.27,0.02,0.4,0.03
			H116.21z M115.36,44.91l-0.01,0c0.01,0,0.02,0,0.03,0C115.37,44.91,115.36,44.91,115.36,44.91z M65.08,64.27l-0.03,0.03
			c-0.12,0.11-0.24,0.23-0.37,0.36l-0.02,0.02l-0.05,0.06l-0.06,0.07l-0.39,0.42c0.26-0.28,0.52-0.56,0.8-0.83L65.08,64.27z
			 M108.98,44.94l-0.23,0.01c0.45-0.02,0.93-0.04,1.43-0.05C109.78,44.9,109.38,44.92,108.98,44.94z M87.89,50.98
			c-0.82,0.55-1.62,1.12-2.39,1.75c-0.65,0.52-1.29,1.08-1.9,1.66c-0.11,0.1-0.21,0.21-0.32,0.32c-0.2,0.2-0.4,0.39-0.59,0.59
			c0.98-0.22,1.99-0.4,3-0.55c0.19-0.2,0.39-0.39,0.58-0.58c0.1-0.1,0.2-0.2,0.3-0.3c0.63-0.59,1.27-1.15,1.94-1.68
			c0.76-0.61,1.56-1.19,2.37-1.72c2.49-1.64,5.21-2.91,8.11-3.81c0.93-0.3,1.89-0.55,2.86-0.77c0.91-0.21,1.82-0.38,2.75-0.52
			c0.13-0.02,0.26-0.04,0.39-0.06c0.39-0.05,0.78-0.1,1.17-0.15l0.13-0.02l-0.31,0.03c-0.85,0.08-1.7,0.18-2.44,0.25l-0.05,0.01
			l-0.05,0.01l-1.19,0.17l-0.26,0.04l-0.15,0.03c-0.98,0.15-1.94,0.36-2.89,0.58l-0.09,0.02c-0.96,0.23-1.91,0.5-2.84,0.81
			C93.13,48.03,90.4,49.32,87.89,50.98z M143.3,52.3l-0.11-0.06c-0.34-0.18-0.67-0.36-1-0.52l-0.1-0.05
			c0.34,0.18,0.71,0.37,1.08,0.56L143.3,52.3z M130.8,47.37l-0.03-0.01l0.01,0L130.8,47.37z M75.53,58.54
			c-0.66,0.77-1.28,1.56-1.86,2.38c-0.53,0.76-1.04,1.53-1.51,2.33c0.95-0.39,1.93-0.74,2.91-1.07c0.44-0.75,0.92-1.48,1.41-2.19
			c0.57-0.82,1.19-1.6,1.83-2.36c0.63-0.74,1.3-1.47,2-2.16c0.11-0.11,0.21-0.23,0.33-0.33c0.61-0.58,1.25-1.13,1.9-1.66
			c0.77-0.62,1.57-1.2,2.39-1.75c2.49-1.67,5.21-2.99,8.1-3.96c0.09-0.03,0.19-0.07,0.28-0.1l-1.64,0.48l-0.29,0.08l-0.25,0.07
			l-0.12,0.03c-0.49,0.17-1.02,0.36-1.55,0.56l-0.11,0.04c-0.17,0.07-0.35,0.13-0.52,0.2c-0.14,0.06-0.29,0.11-0.44,0.17l-0.07,0.03
			c-2.2,0.9-4.3,2.02-6.25,3.34c-0.8,0.54-1.56,1.12-2.31,1.73c-0.65,0.53-1.29,1.08-1.91,1.67c-0.11,0.11-0.21,0.22-0.32,0.33
			C76.83,57.07,76.16,57.8,75.53,58.54z M96.06,46.85l-0.19,0.05l-0.85,0.25c1.03-0.26,2.08-0.51,3.09-0.74
			C97.41,46.54,96.73,46.69,96.06,46.85z M95.01,47.15c-0.13,0.04-0.25,0.06-0.38,0.1c-0.3,0.08-0.6,0.16-0.9,0.25
			c-0.14,0.04-0.27,0.1-0.41,0.14l1.44-0.42L95.01,47.15z M73.57,57.6c-0.35,0.31-0.69,0.62-1.03,0.94
			c-0.13,0.12-0.24,0.25-0.37,0.37c-0.71,0.7-1.39,1.42-2.03,2.17c-1.92,2.25-3.52,4.73-4.8,7.39c-0.43,0.88-0.82,1.78-1.17,2.7
			c-0.36,0.93-0.69,1.88-0.98,2.85c-0.29,0.95-0.53,1.92-0.75,2.9c-0.63,2.86-0.98,5.84-1.05,8.92c0.88-0.59,1.79-1.15,2.72-1.7
			c0.06-2.93,0.39-5.77,0.96-8.5c0.21-0.99,0.45-1.96,0.73-2.92c0.29-0.98,0.62-1.93,0.98-2.87c0.35-0.92,0.74-1.82,1.16-2.71
			c0.42-0.89,0.88-1.76,1.38-2.61c0.49-0.84,1.03-1.66,1.6-2.46c0.57-0.8,1.17-1.58,1.81-2.34c0.64-0.75,1.32-1.47,2.03-2.17
			c0.12-0.12,0.23-0.24,0.35-0.35c0.33-0.32,0.67-0.63,1.02-0.93C75.26,56.68,74.41,57.12,73.57,57.6z M63.5,66.73
			c-0.57,0.79-1.1,1.6-1.59,2.44c-0.51,0.85-0.99,1.73-1.43,2.62c-0.43,0.87-0.82,1.76-1.18,2.67c-0.37,0.93-0.69,1.87-0.99,2.83
			c-0.29,0.95-0.55,1.91-0.78,2.89c-0.23,0.99-0.42,2-0.58,3.03c-0.15,1.01-0.27,2.03-0.36,3.06c-0.02,0.27-0.05,0.53-0.07,0.8
			c0.77-0.65,1.56-1.29,2.39-1.91c0.02-0.21,0.04-0.41,0.06-0.61c0.09-1.03,0.2-2.06,0.35-3.06c0.15-1.03,0.35-2.05,0.58-3.05
			c0.22-0.98,0.48-1.95,0.77-2.9c0.29-0.96,0.62-1.9,0.98-2.82c0.36-0.91,0.75-1.81,1.18-2.68c0.43-0.9,0.91-1.77,1.42-2.63
			c0.5-0.83,1.02-1.65,1.59-2.44c0.57-0.8,1.17-1.58,1.82-2.33c0.65-0.76,1.34-1.48,2.06-2.19c0.12-0.11,0.22-0.23,0.34-0.34
			c0.51-0.49,1.04-0.95,1.57-1.4c0.08-0.07,0.16-0.13,0.24-0.2l0.16-0.14c0.46-0.35,0.92-0.69,1.36-1.02
			c0.89-0.63,1.81-1.24,2.73-1.84c-0.58,0.35-1.16,0.71-1.72,1.09l-0.08,0.05l-0.12,0.08c-1.25,0.94-2.87,2.1-4.16,3.12l-0.09,0.07
			c0.56-0.45,1.12-0.87,1.71-1.28c-1.04,0.79-2.08,1.63-3.09,2.46c-0.22,0.2-0.44,0.38-0.65,0.58l-0.18,0.16
			c-0.13,0.13-0.26,0.26-0.39,0.39c-0.72,0.7-1.4,1.43-2.05,2.18C64.65,65.18,64.06,65.94,63.5,66.73z M168.7,106.74
			c0.44-0.63,0.83-1.28,1.19-1.96c1.62-3.09,2.41-6.67,2.42-10.48l0-0.16l-0.16-0.16c-0.37-0.39-0.74-0.79-1.13-1.17
			c-0.21-0.21-0.42-0.42-0.64-0.62c0.01,3.06-0.53,5.95-1.65,8.52c0,0.01,0,0.01,0,0.02c-0.4,0.92-0.88,1.8-1.43,2.63
			c-0.68,1.03-1.47,1.98-2.38,2.85l-0.01,0.01c-2.02,1.92-4.45,3.24-7.14,4.03c-3.56,1.04-7.58,1.12-11.73,0.28
			c-1.64-0.33-3.3-0.81-4.96-1.42c-1.82-0.67-3.64-1.49-5.44-2.49c-0.12,0.24-0.23,0.49-0.35,0.73c-0.43,0.91-0.87,1.82-1.31,2.72
			c1.57,0.87,3.15,1.62,4.74,2.27c5.12,2.08,10.27,2.98,14.97,2.61c0.78-0.06,1.54-0.16,2.29-0.29c0.81-0.14,1.6-0.34,2.36-0.56
			c0.28-0.08,0.55-0.16,0.82-0.25c0.98-0.33,1.92-0.73,2.83-1.19c1.55-0.8,2.99-1.79,4.27-3.01l0.01-0.01
			c0.65-0.62,1.25-1.28,1.79-1.98C168.28,107.33,168.49,107.04,168.7,106.74z M165.73,86.01c0.11,0.87,0.16,1.72,0.15,2.56
			c0,1.17-0.11,2.3-0.32,3.39c0.25,0.24,0.49,0.48,0.74,0.73c0.5,0.5,0.99,1,1.46,1.51c0.03,0.03,0.06,0.06,0.09,0.1
			c0.42-2.14,0.48-4.43,0.2-6.8C167.3,86.99,166.53,86.49,165.73,86.01z M166.98,82.59l-0.05-0.18c-0.69-0.3-1.41-0.58-2.17-0.85
			c0.36,1.15,0.64,2.29,0.83,3.42c0.8,0.43,1.56,0.88,2.29,1.34c-0.02-0.11-0.05-0.22-0.07-0.33
			C167.6,84.87,167.33,83.73,166.98,82.59z M139.24,120.83c1.56,0.5,3.12,0.92,4.66,1.23c0.69,0.14,1.37,0.28,2.05,0.38
			c0.14-0.73,0.27-1.46,0.39-2.18c0.1-0.55,0.18-1.1,0.27-1.65c-2.98-0.44-6.03-1.3-9.07-2.52c-0.3-0.12-0.6-0.23-0.9-0.36
			l-0.09,0.22c-0.18,0.45-0.35,0.9-0.53,1.35c-0.27,0.68-0.55,1.36-0.83,2.04C136.54,119.91,137.89,120.39,139.24,120.83z
			 M158.14,70.11c0.33-0.22,0.65-0.41,0.95-0.59c0,0,0.01-0.01,0.01-0.01c0.09-0.06,0.19-0.12,0.28-0.17
			c-0.47-0.53-0.94-1.05-1.44-1.56c-0.11-0.11-0.21-0.22-0.32-0.32l-0.25,0.25c-0.24,0.24-0.49,0.48-0.76,0.75
			c0.09,0.09,0.19,0.19,0.28,0.28C157.32,69.19,157.74,69.65,158.14,70.11z M163.2,74.44c-0.29-0.46-0.59-0.92-0.91-1.37
			c-0.47-0.68-0.95-1.35-1.47-2l-0.21,0.08c-0.02,0.01-0.03,0.01-0.05,0.02c-0.37,0.14-0.75,0.29-1.15,0.46
			c1.14,1.46,2.14,2.96,2.99,4.49c0.64,0.01,1.25,0.03,1.84,0.08C163.91,75.61,163.56,75.02,163.2,74.44z M120.23,126.5
			c-0.42,0.62-0.84,1.25-1.26,1.87c1.13,0.72,2.26,1.39,3.4,2.04c0.91,0.51,1.81,1,2.73,1.46c0.43-0.75,0.85-1.51,1.27-2.27
			c0.2-0.37,0.41-0.73,0.61-1.09c-0.53-0.27-1.05-0.57-1.58-0.85c-1.43-0.77-2.86-1.58-4.27-2.49
			C120.83,125.61,120.53,126.05,120.23,126.5z M154.31,68.59c-0.36,0.47-0.73,0.97-1.14,1.51c0.3,0.28,0.61,0.56,0.9,0.86
			c0.07,0.07,0.13,0.14,0.2,0.21c0.46,0.47,0.89,0.95,1.3,1.44c0.58-0.35,1.13-0.67,1.65-0.97c-0.5-0.6-1.02-1.18-1.58-1.75
			c-0.09-0.09-0.18-0.18-0.26-0.27C155.03,69.26,154.68,68.92,154.31,68.59z M91.12,129.72c-1.58-1.68-3.07-3.4-4.47-5.15
			c-0.9,0.8-1.79,1.59-2.67,2.38c1.44,1.79,2.96,3.54,4.57,5.26C89.4,131.39,90.25,130.56,91.12,129.72z M91.93,119.29
			c-4.35-5.5-7.8-11.3-10.33-17.16c-0.61-1.41-1.18-2.81-1.67-4.22l-0.04-0.09l-0.13,0.07c-1.03,0.57-2.04,1.14-3.04,1.72
			c0.22,0.62,0.47,1.25,0.7,1.87c2.66,6.89,6.57,13.76,11.69,20.23C90.04,120.9,90.98,120.09,91.93,119.29z M82.25,124.73
			c0.89-0.77,1.79-1.56,2.7-2.34c-2.27-3.02-4.29-6.12-6.05-9.26c-0.96,0.71-1.91,1.43-2.83,2.14
			C77.87,118.48,79.93,121.64,82.25,124.73z M99.63,142.26c7.24,5.54,14.95,9.68,22.64,12.3c0.64-0.96,1.27-1.95,1.89-2.95
			c-7.53-2.58-15.09-6.62-22.17-12.05C101.19,140.47,100.41,141.37,99.63,142.26z M134.98,147.3c-0.61-0.13-1.22-0.25-1.83-0.4
			c-0.53,1.09-1.07,2.17-1.62,3.22c1.17,0.29,2.33,0.52,3.48,0.73c0.73,0.13,1.46,0.26,2.18,0.37c0.5-1.07,0.99-2.15,1.46-3.26
			C137.43,147.79,136.21,147.55,134.98,147.3z M149.15,144.95c1.11-0.06,2.21-0.17,3.28-0.31c1.06-0.14,2.1-0.33,3.12-0.56
			c1.02-0.23,2.03-0.49,3-0.8c0.97-0.31,1.91-0.66,2.83-1.06c0.17-0.07,0.34-0.13,0.5-0.21c0.19-1.11,0.34-2.23,0.47-3.36
			c-0.3,0.13-0.61,0.25-0.91,0.37c-0.93,0.38-1.88,0.71-2.85,1.01c-1,0.3-2.03,0.56-3.07,0.77c-1.03,0.21-2.09,0.38-3.16,0.5
			c-1.11,0.12-2.23,0.2-3.37,0.23c-1.14,0.03-2.29,0.02-3.46-0.04c-1.23-0.06-2.46-0.18-3.71-0.34c-0.38-0.05-0.77-0.1-1.15-0.16
			c-2.24-0.35-4.5-0.85-6.77-1.51c-1.44-0.42-2.88-0.89-4.32-1.43c-1.6-0.6-3.2-1.28-4.79-2.02c-1.81-0.85-3.61-1.79-5.39-2.82
			c-3.91-2.28-7.74-5-11.39-8.16c-1.42-1.23-2.82-2.53-4.19-3.9c-0.22-0.22-0.44-0.44-0.66-0.67c-3.5-3.58-6.55-7.38-9.13-11.29
			c-1.03,0.74-2.06,1.49-3.07,2.24c2.69,4.06,5.85,7.99,9.48,11.72c0.23,0.23,0.46,0.46,0.69,0.69c1.41,1.41,2.85,2.75,4.32,4.02
			c5.12,4.43,10.58,8.06,16.14,10.81c0.39,0.19,0.77,0.37,1.16,0.55c2.61,1.23,5.24,2.27,7.86,3.12c1.35,0.43,2.69,0.82,4.03,1.15
			c1.31,0.32,2.61,0.59,3.9,0.82c1.23,0.21,2.45,0.38,3.67,0.5c1.21,0.12,2.41,0.2,3.59,0.22
			C146.92,145.04,148.04,145.01,149.15,144.95z M94.01,52.34c-0.4,0-0.8,0-1.19,0.01c-0.63,0.01-1.25,0.04-1.88,0.07
			c-0.38,0.32-0.75,0.66-1.12,1c-0.05,0.04-0.09,0.09-0.14,0.13c-0.1,0.1-0.19,0.2-0.29,0.29c-0.71,0.69-1.38,1.42-2.01,2.17
			c-0.64,0.76-1.23,1.56-1.79,2.38c-0.55,0.81-1.06,1.65-1.52,2.51c-0.48,0.88-0.91,1.79-1.3,2.71c-0.39,0.92-0.73,1.86-1.04,2.82
			c-0.31,0.98-0.58,1.99-0.81,3.01c-0.23,1.02-0.41,2.06-0.56,3.11c-0.15,1.08-0.25,2.18-0.31,3.3c-0.06,1.11-0.08,2.24-0.05,3.37
			c0.03,1.18,0.1,2.38,0.22,3.58c0.12,1.21,0.28,2.44,0.49,3.67c0.12,0.72,0.26,1.44,0.42,2.16c0.12,0.58,0.25,1.15,0.39,1.73
			c0.33,1.34,0.72,2.68,1.15,4.03c1.11,3.45,2.56,6.92,4.34,10.34c1.06-0.67,2.13-1.34,3.21-2c-1.26-2.43-2.35-4.88-3.27-7.33
			c-0.54-1.44-1.01-2.87-1.43-4.3c-0.36-1.23-0.67-2.46-0.94-3.68c-0.03-0.14-0.06-0.29-0.09-0.43c-0.27-1.28-0.48-2.56-0.65-3.82
			c-0.16-1.25-0.28-2.49-0.34-3.71c-0.06-1.17-0.07-2.32-0.04-3.46c0.09-3.35,0.59-6.58,1.49-9.6c0.29-0.98,0.63-1.92,1-2.86
			c0.38-0.93,0.8-1.85,1.27-2.73c0.46-0.87,0.96-1.71,1.5-2.53c0.55-0.83,1.15-1.63,1.79-2.4c0.63-0.76,1.29-1.48,2-2.17
			c0.09-0.09,0.17-0.18,0.27-0.27C93.19,53.06,93.6,52.69,94.01,52.34z M95.68,129.08c1.09,1.09,2.2,2.13,3.32,3.14
			c0.3,0.28,0.6,0.56,0.91,0.83c0.83-0.9,1.67-1.82,2.51-2.74l-0.03-0.03c-1.34-1.19-2.67-2.42-3.96-3.71
			c-0.25-0.25-0.49-0.5-0.74-0.75c-1.21-1.24-2.36-2.5-3.47-3.78c-0.93,0.84-1.84,1.67-2.75,2.5c1.14,1.31,2.33,2.61,3.57,3.88
			C95.25,128.65,95.47,128.87,95.68,129.08z M90.63,134.36c2.4,2.4,4.87,4.62,7.42,6.66c0.79-0.87,1.58-1.76,2.38-2.66
			c-1.83-1.47-3.63-3.05-5.39-4.71c-0.66-0.62-1.32-1.26-1.97-1.9c-0.11-0.11-0.21-0.21-0.31-0.32c-0.85,0.85-1.7,1.69-2.54,2.52
			l0.03,0.03C90.38,134.11,90.51,134.23,90.63,134.36z M127.92,133.18c1.58,0.7,3.17,1.34,4.76,1.89c1.96,0.67,3.92,1.23,5.86,1.67
			c0.43-1.19,0.85-2.39,1.25-3.6c-2.94-0.66-5.91-1.63-8.87-2.86c-0.71-0.3-1.42-0.59-2.13-0.92c-0.45,0.87-0.9,1.73-1.36,2.58
			c-0.15,0.28-0.29,0.55-0.43,0.83C127.3,132.93,127.62,133.05,127.92,133.18z M102.31,76.87c0.41,4.69,1.79,9.61,4.05,14.45
			c0.18,0.39,0.35,0.77,0.54,1.16c0.26-0.13,0.52-0.24,0.78-0.37c0.41-0.19,0.82-0.39,1.22-0.58c0.51-0.24,1.01-0.47,1.51-0.7
			c-2.02-4.06-3.36-8.19-3.98-12.19c-0.21-1.37-0.34-2.72-0.39-4.04l-0.01-0.09l-0.17,0.02c-0.46,0.03-0.92,0.07-1.38,0.11
			c-0.77,0.07-1.54,0.14-2.31,0.22C102.21,75.52,102.25,76.19,102.31,76.87z M100.58,97.33c0.65,1.23,1.36,2.46,2.12,3.68
			c1.1-0.69,2.2-1.38,3.3-2.06c-1.03-1.66-1.97-3.35-2.8-5.04c-0.27-0.54-0.52-1.08-0.76-1.62c-0.4,0.18-0.79,0.37-1.19,0.56
			c-0.78,0.36-1.56,0.72-2.33,1.09c0.43,0.95,0.89,1.89,1.38,2.84C100.39,96.96,100.48,97.14,100.58,97.33z M104.49,103.7
			c0.12,0.17,0.24,0.34,0.37,0.51c1.97,2.77,4.19,5.47,6.7,8.04c0.08,0.09,0.17,0.17,0.25,0.26c0.22,0.22,0.43,0.43,0.65,0.64
			l0.21,0.21c0.64,0.63,1.29,1.24,1.94,1.84c0.38-0.42,0.77-0.85,1.15-1.28c0.48-0.53,0.97-1.07,1.45-1.61
			c-0.78-0.7-1.55-1.44-2.3-2.19c-0.19-0.19-0.39-0.39-0.58-0.59c-0.41-0.42-0.8-0.85-1.19-1.27c-0.22-0.24-0.45-0.47-0.67-0.71
			c-1.76-1.97-3.36-4.01-4.81-6.09c-0.12-0.17-0.25-0.34-0.37-0.52l-0.18,0.12c-0.49,0.33-0.98,0.67-1.48,1
			c-0.52,0.35-1.05,0.71-1.57,1.06C104.21,103.33,104.36,103.51,104.49,103.7z M130.68,52.7c-1.01,0-2,0.05-2.97,0.17
			c0.35,0.28,0.69,0.58,1.03,0.87c0.41,0.34,0.82,0.67,1.22,1.04c0.26-0.03,0.53-0.05,0.79-0.07c1.28-0.11,2.6-0.11,3.94,0
			l0.11,0.01c-0.57-0.67-1.16-1.31-1.75-1.92C132.25,52.72,131.46,52.69,130.68,52.7z M172.55,111.05c1.29-2.38,2.17-5.01,2.63-7.82
			c0.02-0.12,0.04-0.24,0.05-0.36c-0.05-0.09-0.1-0.17-0.15-0.26c-0.42-0.72-0.86-1.44-1.34-2.15c-0.38,2.56-1.14,4.98-2.27,7.17
			c-0.45,0.88-0.97,1.73-1.54,2.54c-0.58,0.81-1.22,1.57-1.92,2.29c-0.19,0.19-0.36,0.39-0.55,0.58l-0.02,0.01
			c-0.52,0.5-1.08,0.95-1.64,1.39c-0.81,0.62-1.65,1.17-2.54,1.66c-0.17,0.1-0.34,0.2-0.52,0.29c0.24,1.22,0.44,2.45,0.62,3.67
			c0.33-0.17,0.64-0.35,0.96-0.54c1.48-0.85,2.86-1.87,4.12-3.06l0.01-0.01c0.93-0.89,1.77-1.85,2.52-2.87
			C171.56,112.78,172.08,111.93,172.55,111.05z M133.34,118.49l0.1-0.23c0.27-0.59,0.54-1.19,0.8-1.78
			c0.23-0.51,0.45-1.02,0.67-1.53c-2.73-1.3-5.44-2.92-8.04-4.82c-2.24-1.64-4.41-3.48-6.47-5.54c-0.13-0.13-0.26-0.26-0.38-0.39
			c-0.37,0.37-0.75,0.73-1.12,1.1c-0.1,0.1-0.2,0.2-0.31,0.3c-0.44,0.44-0.89,0.87-1.33,1.3c0.14,0.14,0.28,0.29,0.42,0.43
			c3.38,3.38,7.03,6.22,10.8,8.53C130.09,116.83,131.71,117.72,133.34,118.49z M155.35,126.39c-0.73,0.1-1.46,0.18-2.2,0.24
			c-1.18,0.09-2.37,0.11-3.59,0.07c-1.3-0.04-2.61-0.16-3.94-0.34c-1.4-0.19-2.81-0.46-4.23-0.8c-1.6-0.39-3.2-0.87-4.81-1.44
			c-1.71-0.61-3.43-1.32-5.13-2.14c-0.04,0.09-0.09,0.18-0.13,0.27c-0.52,1.08-1.05,2.15-1.6,3.22c1.36,0.66,2.73,1.24,4.1,1.77
			c1.23,0.47,2.45,0.9,3.67,1.27c1.84,0.56,3.67,1.01,5.48,1.33c1.33,0.24,2.64,0.41,3.95,0.51c1.88,0.16,3.73,0.19,5.53,0.08
			c1.01-0.06,2.01-0.17,3-0.32c0.1-1.24,0.17-2.5,0.22-3.75C155.57,126.36,155.46,126.37,155.35,126.39z M72.44,67.83
			c0.26-0.71,0.53-1.41,0.83-2.09c-0.14,0.05-0.27,0.09-0.4,0.14c-0.87,0.32-1.72,0.65-2.55,1c-0.26,0.6-0.5,1.22-0.73,1.84
			c-0.35,0.94-0.67,1.9-0.94,2.88c-0.27,0.97-0.51,1.95-0.72,2.95c-1.03,5.1-1.13,10.61-0.34,16.3c0.05,0.32,0.09,0.65,0.14,0.98
			c0.1,0.63,0.2,1.26,0.32,1.9c0.98-0.58,1.97-1.14,2.99-1.7c-0.11-0.59-0.21-1.18-0.3-1.76c-0.19-1.18-0.33-2.36-0.44-3.53
			c-0.11-1.13-0.17-2.26-0.2-3.37c-0.09-3.34,0.16-6.58,0.75-9.67c0.19-1.01,0.42-1.99,0.68-2.97
			C71.79,69.75,72.09,68.78,72.44,67.83z M123.8,53.68c-0.46,0.14-0.91,0.27-1.35,0.44c0.92,0.57,1.83,1.16,2.75,1.79
			c0.7-0.27,1.43-0.48,2.18-0.65c0.38-0.1,0.76-0.19,1.16-0.26c-0.79-0.66-1.59-1.29-2.4-1.89
			C125.33,53.25,124.56,53.45,123.8,53.68z M77.69,90.01c-0.26-1.26-0.47-2.5-0.65-3.74c-0.16-1.18-0.3-2.35-0.38-3.52
			c-1.1,0.43-2.19,0.89-3.26,1.36c0.05,0.75,0.12,1.5,0.21,2.26c0.14,1.2,0.33,2.41,0.55,3.62c0.16,0.87,0.34,1.75,0.54,2.63
			c0.08,0.35,0.15,0.69,0.24,1.04l0.01,0.02l0.03-0.02c1.05-0.55,2.1-1.08,3.18-1.61c-0.14-0.56-0.26-1.13-0.38-1.69
			C77.74,90.24,77.71,90.12,77.69,90.01z M131.05,57.1c-0.16,0.03-0.32,0.06-0.48,0.09c-0.95,0.2-1.87,0.46-2.75,0.8
			c-0.96,0.37-1.87,0.82-2.73,1.36c-0.82,0.52-1.6,1.11-2.32,1.8l-0.04,0.04c-0.72,0.69-1.36,1.45-1.92,2.25
			c-0.58,0.84-1.08,1.74-1.48,2.69c-0.41,0.97-0.74,1.99-0.97,3.05c-0.25,1.14-0.4,2.34-0.44,3.56c-0.05,1.32,0.03,2.69,0.22,4.08
			c0.23,1.64,0.61,3.32,1.17,5c0.74,2.27,1.79,4.54,3.1,6.77c0.87,1.47,1.86,2.92,2.98,4.33c0.86,1.09,1.79,2.15,2.8,3.18
			c0.12,0.12,0.23,0.24,0.35,0.35c0.82,0.82,1.66,1.6,2.52,2.32c0.33-0.42,0.66-0.83,0.99-1.25c0.43-0.55,0.87-1.1,1.3-1.64
			c-0.75-0.63-1.48-1.3-2.19-2.01c-0.11-0.11-0.22-0.22-0.33-0.33c-0.62-0.64-1.21-1.29-1.77-1.96c-1.42-1.69-2.64-3.45-3.65-5.26
			c-1.71-3.04-2.82-6.17-3.3-9.18c-0.11-0.69-0.19-1.37-0.23-2.04c-0.08-1.34-0.04-2.63,0.13-3.88c0.16-1.12,0.43-2.2,0.8-3.22
			c0.7-1.92,1.79-3.65,3.29-5.08c2.32-2.2,5.32-3.43,8.65-3.74c0.56-0.05,1.12-0.08,1.7-0.08c0.75,0,1.51,0.04,2.29,0.12
			c0.63,0.07,1.26,0.16,1.9,0.28c-0.35-0.69-0.73-1.36-1.1-2c-0.05-0.09-0.1-0.18-0.15-0.27c-0.13-0.03-0.27-0.04-0.4-0.07
			c-1.47-0.26-2.91-0.4-4.32-0.4C133.41,56.78,132.21,56.89,131.05,57.1z M76.67,75.93c0.05-0.65,0.11-1.3,0.19-1.94
			c-1.1,0.35-2.19,0.71-3.25,1.1c-0.28,2.22-0.38,4.52-0.32,6.86c1.07-0.45,2.16-0.88,3.26-1.3c-0.01-0.47-0.02-0.94-0.01-1.41
			C76.54,78.13,76.58,77.03,76.67,75.93z M95.27,67.6c-0.81,3.66-0.96,7.6-0.5,11.69c0.1,0.92,0.24,1.84,0.4,2.76
			c0.26,1.44,0.59,2.89,1,4.35c0.11,0.4,0.23,0.8,0.35,1.2c0.36,1.18,0.77,2.37,1.23,3.56c0.07,0.2,0.15,0.4,0.23,0.59
			c0.19-0.08,0.38-0.16,0.56-0.24c1-0.43,2-0.87,3.01-1.28c-0.04-0.1-0.07-0.2-0.11-0.3c-0.2-0.51-0.39-1.02-0.57-1.53
			c-0.98-2.75-1.68-5.49-2.11-8.18c-0.05-0.28-0.09-0.56-0.13-0.84c-0.52-3.8-0.47-7.49,0.17-10.93c0.13-0.69,0.27-1.36,0.44-2.03
			c-1.25-0.01-2.49,0.01-3.72,0.05C95.43,66.85,95.35,67.23,95.27,67.6z M92.65,64.02c0.35-0.96,0.75-1.9,1.19-2.8
			c0.37-0.75,0.76-1.48,1.2-2.19c-1.15-0.04-2.3-0.04-3.43-0.02c-0.38,0.62-0.72,1.26-1.05,1.9c-0.46,0.9-0.88,1.82-1.25,2.77
			c-0.36,0.95-0.68,1.92-0.95,2.9c-0.86,3.09-1.27,6.4-1.26,9.83c0,1.18,0.06,2.38,0.16,3.6c0.11,1.28,0.28,2.56,0.5,3.86
			c0.16,0.95,0.35,1.9,0.57,2.86c0.09,0.39,0.19,0.78,0.29,1.17c0.37,1.46,0.81,2.94,1.32,4.41c0.55,1.58,1.16,3.17,1.86,4.75
			c3.18,7.18,7.93,14.27,14.16,20.66c0.18,0.18,0.35,0.36,0.53,0.54c1.2,1.2,2.43,2.33,3.68,3.43c1.52,1.33,3.06,2.6,4.64,3.78
			c0.08,0.06,0.17,0.12,0.25,0.18c0.68,0.51,1.36,1.01,2.06,1.49c0.63-0.86,1.25-1.74,1.87-2.61c0.12-0.18,0.25-0.36,0.38-0.53
			c-0.49-0.34-0.97-0.7-1.45-1.05c-0.32-0.23-0.65-0.46-0.97-0.7c-0.39-0.29-0.77-0.6-1.16-0.9c-1.01-0.79-2.01-1.62-2.99-2.48
			c-0.35-0.31-0.7-0.61-1.04-0.92c-0.53-0.48-1.05-0.98-1.57-1.48c-0.35-0.34-0.7-0.68-1.05-1.02l-0.16-0.16
			c-0.04-0.04-0.07-0.07-0.11-0.11c-0.04-0.03-0.07-0.07-0.11-0.11l-0.03-0.03c-1.06-1.08-2.07-2.19-3.04-3.31
			c-0.44-0.51-0.87-1.03-1.29-1.55c-0.65-0.79-1.27-1.59-1.86-2.39c-1.99-2.67-3.73-5.42-5.23-8.2c-0.98-1.82-1.85-3.65-2.61-5.49
			c-0.67-1.62-1.26-3.23-1.76-4.84c-0.26-0.84-0.5-1.69-0.72-2.53c-0.15-0.6-0.3-1.2-0.43-1.8c-0.48-2.18-0.8-4.33-0.96-6.45
			c-0.03-0.46-0.05-0.91-0.07-1.37c-0.14-3.53,0.18-6.93,0.98-10.12C92,65.97,92.3,64.98,92.65,64.02z M155.54,118.66
			c0.01,0.41,0.02,0.81,0.03,1.22c0.02,0.88,0.02,1.75,0.02,2.63c0.54-0.08,1.06-0.19,1.59-0.3c0.5-0.11,0.99-0.22,1.48-0.36
			c0.45-0.12,0.9-0.23,1.34-0.38c-0.08-1.04-0.18-2.08-0.3-3.12c-0.02-0.21-0.05-0.43-0.07-0.65c-0.5,0.16-1.01,0.3-1.52,0.43
			c-0.22,0.06-0.43,0.12-0.65,0.17C156.82,118.44,156.18,118.57,155.54,118.66z M114.8,83.21c0.26-0.07,0.52-0.14,0.77-0.21
			c-0.23-0.7-0.45-1.39-0.63-2.08c-0.98,0.19-1.96,0.4-2.94,0.61c-0.29,0.06-0.58,0.12-0.87,0.18c0.21,0.76,0.44,1.53,0.69,2.3
			C112.82,83.73,113.81,83.47,114.8,83.21z M110.3,69.51c-0.34,2.23-0.38,4.57-0.13,6.99c0.1,0.96,0.23,1.92,0.42,2.9
			c1.28-0.21,2.57-0.4,3.86-0.58l0-0.03c-0.29-1.47-0.46-2.92-0.51-4.34c-0.05-1.27-0.01-2.51,0.13-3.72
			c0.13-1.15,0.36-2.27,0.66-3.35c0.06-0.21,0.11-0.43,0.18-0.64c-0.89-0.17-1.79-0.32-2.69-0.47c-0.38-0.06-0.75-0.14-1.12-0.2
			c-0.31,0.96-0.55,1.95-0.73,2.96C110.35,69.18,110.33,69.35,110.3,69.51z M135.48,82.09c0.55,1.01,1.23,2,2.02,2.94
			c0.42-0.31,0.83-0.61,1.25-0.92c0.48-0.35,0.96-0.71,1.44-1.06c-0.56-0.67-1.05-1.38-1.44-2.1c-0.81,0.27-1.63,0.56-2.45,0.85
			C136.02,81.91,135.75,82,135.48,82.09z M140.87,64.44c-0.35-0.67-0.71-1.3-1.07-1.94c-0.14-0.26-0.28-0.53-0.43-0.78
			c-0.25-0.02-0.5-0.02-0.75-0.02c-0.58-0.02-1.14-0.01-1.7,0.04c0.66,0.87,1.3,1.77,1.93,2.71
			C139.51,64.4,140.18,64.39,140.87,64.44z M142.8,64.68c0.5,0.1,1,0.21,1.49,0.35c-0.2-0.75-0.41-1.48-0.64-2.19
			c-0.02-0.07-0.05-0.14-0.07-0.21l-0.05-0.19c-0.1-0.03-0.2-0.05-0.3-0.07c-0.21-0.05-0.41-0.11-0.61-0.15
			c-0.83-0.2-1.66-0.34-2.48-0.43c0.26,0.48,0.5,1,0.75,1.5c0.2,0.41,0.41,0.79,0.61,1.21C141.93,64.54,142.36,64.6,142.8,64.68z
			 M124.28,56.28l0.02-0.01l0.03-0.02c-0.94-0.62-1.89-1.2-2.84-1.76c-0.22,0.1-0.44,0.21-0.65,0.32c-0.91,0.43-1.77,0.93-2.6,1.5
			c-0.29,0.2-0.57,0.41-0.85,0.63c-0.47,0.36-0.93,0.75-1.36,1.16l-0.1,0.1c-0.3,0.3-0.6,0.59-0.88,0.9
			c1.15,0.41,2.29,0.85,3.44,1.32c0.26-0.29,0.53-0.56,0.81-0.83l0.07-0.07c0.71-0.67,1.46-1.27,2.26-1.8
			C122.48,57.17,123.36,56.68,124.28,56.28z M132.94,66.83c-1.05-0.76-2.12-1.49-3.18-2.2c-0.11,0.1-0.22,0.2-0.33,0.3l-0.01,0.01
			c-0.73,0.69-1.33,1.47-1.83,2.31c-0.54,0.9-0.97,1.86-1.26,2.9c-0.31,1.11-0.49,2.28-0.52,3.5l-0.01,0.19
			c0.13,0.02,0.26,0.04,0.38,0.06c1.17,0.16,2.34,0.33,3.5,0.52c0.01-0.65,0.08-1.29,0.19-1.9c0.19-1.11,0.54-2.15,1.05-3.1
			c0.46-0.86,1.04-1.64,1.76-2.32l0.05-0.05C132.79,66.97,132.87,66.9,132.94,66.83z M133.6,75.3c-0.01,1.63,0.35,3.36,1.06,5.09
			c0.14,0.35,0.3,0.7,0.47,1.05c0.19-0.05,0.37-0.1,0.55-0.15c0.94-0.27,1.88-0.54,2.81-0.79c-0.28-0.55-0.5-1.11-0.67-1.67
			c-0.48-1.54-0.55-3.06-0.21-4.37c0.25-0.96,0.72-1.82,1.44-2.5l0.13-0.11c0.37-0.33,0.77-0.6,1.21-0.81
			c-0.85-0.99-1.72-1.94-2.59-2.87c-0.66,0.31-1.26,0.72-1.8,1.22l-0.09,0.07c-0.71,0.68-1.26,1.48-1.64,2.37
			C133.83,72.88,133.61,74.06,133.6,75.3z M160.25,81.84c0.11,0.55,0.2,1.09,0.26,1.63c0.94,0.43,1.84,0.89,2.71,1.35
			c-0.07-0.65-0.18-1.31-0.32-1.98C162.04,82.49,161.16,82.16,160.25,81.84z M125.44,98.75c-1.23-1.26-2.36-2.57-3.4-3.91
			c-0.97-1.24-1.83-2.51-2.64-3.8c-0.16-0.27-0.34-0.53-0.5-0.79c-0.1,0.05-0.21,0.11-0.31,0.16c-1.03,0.52-2.06,1.06-3.09,1.6
			c0.29,0.5,0.62,1,0.94,1.49c0.82,1.28,1.71,2.54,2.68,3.78c1.1,1.4,2.29,2.78,3.58,4.11c0.15,0.15,0.3,0.3,0.44,0.45
			c2.62,2.62,5.44,4.86,8.35,6.72c0.16,0.1,0.31,0.21,0.47,0.31c0.63-1.11,1.25-2.23,1.85-3.34c-2.79-1.74-5.49-3.87-8-6.38
			C125.71,99.02,125.58,98.88,125.44,98.75z M162.93,90.1c0.11-0.49,0.21-0.99,0.27-1.51c-0.84-0.66-1.71-1.31-2.6-1.94l-0.1-0.08
			c-0.13,1.12-0.42,2.17-0.86,3.14c-0.49,1.09-1.16,2.08-2.05,2.92c0,0,0,0,0,0.01l-0.01,0.01c-0.23,0.22-0.47,0.43-0.73,0.62
			c0.67,1.14,1.31,2.29,1.92,3.44c0.3-0.24,0.6-0.48,0.88-0.75l0.01-0.01c0.89-0.84,1.6-1.82,2.16-2.88
			C162.32,92.14,162.68,91.15,162.93,90.1z M159.32,95.38c-0.31-0.5-0.63-1-0.94-1.5C158.7,94.38,159.02,94.88,159.32,95.38
			c0.05,0.08,0.1,0.16,0.15,0.25C159.42,95.54,159.37,95.46,159.32,95.38z M133.33,100.58c1,0.73,2.02,1.38,3.05,1.99
			c1.35,0.8,2.73,1.52,4.11,2.11c0.21-0.64,0.4-1.28,0.6-1.93c0.17-0.56,0.35-1.13,0.52-1.69c-0.99-0.42-1.97-0.92-2.94-1.46
			c-1.12-0.63-2.24-1.34-3.32-2.13c-0.46,0.72-0.93,1.45-1.4,2.17C133.74,99.96,133.54,100.27,133.33,100.58z M133.27,90.81
			c0.06,0.07,0.12,0.13,0.18,0.2c0.09,0.09,0.18,0.18,0.27,0.27c1.71,1.71,3.55,3.15,5.45,4.32c0.11-0.22,0.2-0.43,0.31-0.65
			c0.41-0.87,0.83-1.74,1.22-2.6c-0.77-0.48-1.54-1.01-2.28-1.6c-0.76-0.6-1.51-1.26-2.22-1.97c-0.07-0.07-0.14-0.14-0.21-0.22
			c-1.93-1.97-3.43-4.14-4.48-6.36c-0.36-0.76-0.68-1.52-0.93-2.28c-0.51,0.08-1.04,0.17-1.55,0.25c-0.71,0.11-1.42,0.22-2.14,0.34
			c0.42,1.24,0.96,2.48,1.6,3.7C129.7,86.51,131.29,88.75,133.27,90.81z M138.37,67.93c0.83,0.95,1.64,1.93,2.44,2.94
			c0.42-0.16,0.87-0.26,1.33-0.32c1.53-0.21,3.26,0.09,4.95,0.87c0.21,0.1,0.43,0.19,0.64,0.31c0.14-0.89,0.26-1.76,0.36-2.6
			C144.73,67.34,141.16,66.87,138.37,67.93z M147.01,66.04c1.41,0.64,2.82,1.44,4.17,2.43c0.4,0.29,0.79,0.6,1.18,0.93
			c0.34-0.58,0.66-1.13,0.96-1.66c-2.44-2.03-5.07-3.57-7.71-4.6c0.07,0.36,0.12,0.74,0.18,1.12c0.01,0.03,0.01,0.06,0.02,0.1
			c0.07,0.42,0.14,0.82,0.2,1.25C146.35,65.73,146.68,65.89,147.01,66.04z M152.32,73.06c-0.41,0.38-0.83,0.77-1.26,1.18
			c1.12,1.15,1.97,2.42,2.56,3.71l0.04,0.09l0.04,0c0.93-0.04,1.84-0.05,2.71-0.05c-0.19-0.43-0.41-0.85-0.64-1.28
			c-0.77-1.41-1.78-2.79-3.01-4.06C152.61,72.79,152.46,72.92,152.32,73.06z M151.59,72.34c0.12-0.15,0.25-0.31,0.37-0.46
			c-0.27-0.24-0.54-0.48-0.81-0.71c-0.09,0.15-0.19,0.3-0.28,0.45c-0.31,0.5-0.63,1.02-0.96,1.55c0.2,0.16,0.39,0.33,0.58,0.5
			C150.87,73.22,151.23,72.77,151.59,72.34z M144.87,98.24c0.19-1.24,0.37-2.48,0.52-3.71c-0.94-0.3-1.89-0.68-2.82-1.14
			c-0.36,1.15-0.74,2.3-1.13,3.47C142.57,97.41,143.73,97.87,144.87,98.24z M157.26,86.05c-0.22-0.17-0.46-0.34-0.68-0.52
			c-0.76-0.59-1.52-1.18-2.31-1.75c-0.1,0.33-0.22,0.65-0.38,0.96c0.98,0.87,1.93,1.76,2.84,2.66c0.18-0.35,0.32-0.71,0.44-1.09
			L157.26,86.05z M147.49,87.48c-0.34-0.05-0.68-0.13-1.02-0.23l-0.01,0.24c-0.03,1.14-0.07,2.28-0.14,3.43
			c0.48,0.13,0.96,0.24,1.43,0.32c-0.04-0.82-0.11-1.63-0.17-2.45C147.55,88.36,147.53,87.92,147.49,87.48z M155.3,89.32
			L155.3,89.32c0.5-0.48,0.92-1.02,1.26-1.61c-0.29-0.3-0.58-0.59-0.88-0.89c-0.63-0.63-1.26-1.24-1.92-1.86
			c-0.24,0.42-0.54,0.8-0.89,1.14l0.12,0.16c0.46,0.58,0.9,1.16,1.34,1.74c-0.44-0.59-0.89-1.18-1.36-1.76l-0.11-0.15l-0.01,0
			c-0.88,0.83-2,1.31-3.25,1.44c0.4,1.26,0.77,2.52,1.12,3.8C152.48,91.15,154.06,90.49,155.3,89.32z M149.69,91.39
			c0.21,0,0.43,0,0.64-0.01c-0.31-1.28-0.64-2.54-1-3.8c-0.48,0.03-0.98,0.01-1.48-0.04c0.07,0.59,0.13,1.2,0.19,1.8
			c0.07,0.66,0.15,1.32,0.21,1.98C148.73,91.37,149.21,91.39,149.69,91.39z M114.69,100.51c-0.31,0.23-0.61,0.47-0.92,0.7
			c-0.3,0.23-0.59,0.45-0.89,0.68c0.55,0.7,1.13,1.39,1.73,2.08c0.12,0.15,0.23,0.3,0.36,0.44c0.42-0.36,0.83-0.72,1.25-1.07
			c0.16-0.14,0.33-0.28,0.49-0.42c0.4-0.34,0.8-0.68,1.19-1.02c-0.45-0.51-0.87-1.04-1.29-1.56c-0.21-0.26-0.44-0.51-0.64-0.78
			C115.54,99.87,115.11,100.19,114.69,100.51z M161.61,99.36c-1.34,1.27-2.91,2.22-4.64,2.85c-0.71,0.26-1.45,0.46-2.21,0.61
			c-0.33,0.07-0.67,0.12-1.01,0.17c-2.05,0.29-4.23,0.22-6.46-0.19c-0.09,1.29-0.19,2.58-0.31,3.87c3.09,0.57,6.09,0.57,8.83-0.04
			c0.24-0.05,0.48-0.11,0.71-0.17c0.8-0.21,1.58-0.47,2.33-0.79c1.66-0.71,3.17-1.68,4.49-2.94l0,0c0.9-0.86,1.67-1.82,2.32-2.85
			c0.54-0.85,0.99-1.75,1.36-2.71l0.04-0.08c-0.07-0.09-0.15-0.17-0.22-0.26c-0.63-0.81-1.28-1.61-1.97-2.41
			c-0.27,0.73-0.62,1.41-1.01,2.07c-0.61,1.05-1.34,2.01-2.24,2.87C161.62,99.36,161.62,99.35,161.61,99.36L161.61,99.36z
			 M151.35,99.19c0.33-0.01,0.65-0.03,0.97-0.06c0.34-0.03,0.67-0.08,1.01-0.13c0.35-0.06,0.71-0.12,1.05-0.21
			c-0.05-0.19-0.12-0.39-0.17-0.58c-0.1-0.33-0.2-0.66-0.3-0.99c-0.22-0.75-0.44-1.5-0.68-2.24c-0.25,0.06-0.51,0.09-0.77,0.14
			c-1.23,0.22-2.53,0.26-3.87,0.1l-0.07-0.01c-0.47-0.06-0.94-0.13-1.41-0.23c-0.03,1.26-0.09,2.54-0.16,3.81
			C148.46,99.1,149.93,99.24,151.35,99.19z M156.21,93.73c-0.69,0.44-1.43,0.78-2.22,1.04c0.46,1.25,0.9,2.5,1.31,3.76
			c0.96-0.31,1.86-0.73,2.7-1.26C157.43,96.08,156.83,94.9,156.21,93.73z M153.83,78.47c0.48,1.21,0.71,2.43,0.69,3.56
			c1.07,0.5,2.1,1.03,3.1,1.56c0.01-0.31-0.02-0.63-0.04-0.96c-0.09-1.31-0.4-2.68-0.93-4.04c-0.83-0.06-1.68-0.09-2.55-0.12
			L153.83,78.47z M145.73,90.75c0.13-1.22,0.23-2.42,0.32-3.62c-0.21-0.07-0.42-0.14-0.63-0.23c-0.17,1.17-0.37,2.34-0.58,3.53
			C145.14,90.55,145.43,90.66,145.73,90.75z"/>
	</g>
</g>
</svg>
