<?xml version="1.0" encoding="utf-8"?>
<!-- Generator: Adobe Illustrator 26.2.1, SVG Export Plug-In . SVG Version: 6.00 Build 0)  -->
<svg version="1.1" xmlns="http://www.w3.org/2000/svg" xmlns:xlink="http://www.w3.org/1999/xlink" x="0px" y="0px"
	 viewBox="0 0 225 225" style="enable-background:new 0 0 225 225;" xml:space="preserve">
<style type="text/css">
	.st0{display:none;}
	.st1{display:inline;fill:#FAB433;}
	.st2{fill:none;}
	.st3{fill:none;stroke:#000000;stroke-width:1.6;stroke-miterlimit:10;}
	.st4{fill:none;stroke:#000000;stroke-width:0.7265;stroke-miterlimit:10;}
	.st5{fill:none;stroke:#000000;stroke-linecap:round;stroke-linejoin:round;stroke-miterlimit:10;}
	.st6{fill:none;stroke:#000000;stroke-miterlimit:10;}
	.st7{fill:none;stroke:#000000;stroke-width:0.7105;stroke-miterlimit:10;}
	.st8{fill:none;stroke:#000000;stroke-width:5.4;stroke-linecap:round;stroke-linejoin:round;stroke-miterlimit:10;}
	.st9{fill:none;stroke:#000000;stroke-width:2.9309;stroke-linecap:round;stroke-linejoin:round;stroke-miterlimit:10;}
	.st10{fill:none;stroke:#000000;stroke-width:0.5;stroke-linecap:round;stroke-linejoin:round;}
	.st11{fill:none;stroke:#FFFFFF;stroke-width:0;stroke-linecap:round;stroke-linejoin:round;}
	.st12{fill:#FFFFFF;}
	.st13{fill:none;stroke:#000000;stroke-width:1.4;stroke-miterlimit:10;}
	.st14{fill:url(#);stroke:#000000;stroke-width:1.4387;stroke-miterlimit:10;}
	.st15{fill:url(#);stroke:#000000;stroke-width:1.3718;stroke-miterlimit:10;}
	.st16{fill:none;stroke:#000000;stroke-width:1.0041;stroke-miterlimit:10;}
	.st17{fill:none;stroke:#000000;stroke-width:1.3621;stroke-miterlimit:10;}
	.st18{fill:none;stroke:#000000;stroke-width:0.25;stroke-miterlimit:10;}
</style>
<g id="Layer_2" class="st0">
	<rect id="XMLID_1_" x="-835.99" y="-275.01" class="st1" width="1160" height="772"/>
</g>
<g id="Layer_1">
	<g id="XMLID_13535_">
		<path id="XMLID_13536_" d="M52.98,91.26L52.98,91.26c0.03,0.7,0.09,1.4,0.17,2.09c0.03,0.26,0.08,0.52,0.12,0.78
			c0.06,0.44,0.12,0.87,0.2,1.3c0.06,0.3,0.13,0.59,0.2,0.88c0.09,0.39,0.16,0.78,0.27,1.17c0.08,0.31,0.18,0.61,0.27,0.91
			c0.11,0.37,0.21,0.74,0.33,1.11c0.1,0.31,0.22,0.61,0.33,0.92c0.13,0.35,0.26,0.71,0.4,1.06c0.12,0.31,0.27,0.61,0.4,0.91
			c0.15,0.34,0.3,0.69,0.46,1.03c0.15,0.3,0.31,0.6,0.46,0.9c0.17,0.33,0.34,0.67,0.53,1c0.17,0.3,0.35,0.59,0.52,0.89
			c0.19,0.33,0.39,0.65,0.59,0.97c0.19,0.29,0.38,0.58,0.58,0.86c0.22,0.32,0.43,0.63,0.66,0.95c0.21,0.28,0.42,0.56,0.64,0.84
			c0.24,0.31,0.47,0.62,0.72,0.92c0.22,0.28,0.46,0.55,0.69,0.82c0.26,0.3,0.51,0.6,0.78,0.89c0.24,0.27,0.49,0.53,0.74,0.79
			c0.28,0.29,0.55,0.58,0.84,0.86c0.26,0.26,0.52,0.51,0.79,0.77c0.29,0.28,0.59,0.56,0.9,0.84c0.27,0.25,0.55,0.49,0.83,0.74
			c0.31,0.27,0.63,0.54,0.95,0.8c0.29,0.24,0.58,0.47,0.88,0.7c0.33,0.26,0.67,0.52,1.01,0.78c0.3,0.23,0.61,0.45,0.92,0.67
			c0.35,0.25,0.71,0.5,1.07,0.74c0.32,0.22,0.63,0.43,0.96,0.64c0.37,0.24,0.74,0.48,1.12,0.71c0.33,0.2,0.66,0.4,0.99,0.6
			c0.39,0.23,0.78,0.45,1.18,0.68c0.34,0.19,0.68,0.38,1.03,0.57c0.4,0.22,0.82,0.43,1.23,0.64c0.35,0.18,0.7,0.36,1.06,0.53
			c0.42,0.21,0.85,0.41,1.28,0.6c0.36,0.17,0.72,0.33,1.08,0.49c0.44,0.19,0.89,0.38,1.33,0.56c0.37,0.15,0.74,0.31,1.11,0.45
			c0.46,0.18,0.92,0.35,1.38,0.52c0.38,0.14,0.75,0.28,1.13,0.41c0.47,0.17,0.95,0.32,1.44,0.48c0.38,0.13,0.76,0.25,1.15,0.37
			c0.49,0.15,0.99,0.29,1.49,0.44c0.39,0.11,0.77,0.22,1.16,0.33c0.51,0.14,1.03,0.26,1.54,0.39c0.39,0.1,0.78,0.2,1.17,0.29
			c0.53,0.12,1.06,0.23,1.6,0.34c0.39,0.08,0.78,0.17,1.17,0.24c0.55,0.11,1.11,0.2,1.67,0.29c0.39,0.07,0.77,0.14,1.16,0.2
			c0.58,0.09,1.16,0.17,1.75,0.24c0.38,0.05,0.75,0.11,1.13,0.15c0.62,0.07,1.24,0.13,1.87,0.19c0.36,0.03,0.71,0.08,1.06,0.11
			c0.69,0.06,1.39,0.1,2.09,0.14c0.3,0.02,0.59,0.04,0.89,0.06c1,0.05,2.01,0.08,3.02,0.09c1.02,0.01,2.04,0.01,3.05-0.02
			c0.33-0.01,0.65-0.03,0.98-0.04c0.68-0.02,1.36-0.04,2.03-0.08c0.4-0.02,0.8-0.06,1.2-0.09c0.59-0.04,1.18-0.08,1.77-0.14
			c0.44-0.04,0.88-0.1,1.31-0.15c0.54-0.06,1.08-0.11,1.61-0.18c0.46-0.06,0.92-0.14,1.38-0.21c0.5-0.07,1-0.14,1.49-0.22
			c0.49-0.08,0.96-0.18,1.45-0.27c0.46-0.09,0.92-0.16,1.38-0.26c0.51-0.11,1.01-0.22,1.52-0.34c0.41-0.09,0.83-0.18,1.24-0.28
			c0.54-0.13,1.06-0.28,1.59-0.42c0.37-0.1,0.74-0.19,1.11-0.29c0.55-0.16,1.1-0.33,1.64-0.5c0.33-0.1,0.67-0.2,0.99-0.3
			c0.57-0.18,1.13-0.38,1.68-0.58c0.29-0.1,0.59-0.2,0.89-0.31c0.58-0.21,1.15-0.44,1.73-0.67c0.26-0.1,0.52-0.2,0.77-0.3
			c0.6-0.25,1.19-0.5,1.77-0.76c0.22-0.1,0.44-0.19,0.65-0.28c0.61-0.28,1.2-0.57,1.79-0.86c0.18-0.09,0.37-0.18,0.55-0.27
			c0.61-0.31,1.21-0.63,1.81-0.96c0.15-0.08,0.3-0.16,0.45-0.24c0.62-0.34,1.22-0.7,1.82-1.06c0.12-0.07,0.24-0.14,0.35-0.21
			c0.62-0.38,1.22-0.77,1.81-1.16c0.09-0.06,0.18-0.12,0.27-0.18c0.61-0.41,1.21-0.84,1.79-1.27c0.07-0.05,0.13-0.09,0.2-0.14
			c0.61-0.45,1.19-0.91,1.77-1.37c0.04-0.03,0.08-0.07,0.13-0.1c0.59-0.48,1.17-0.97,1.73-1.47c0.02-0.02,0.05-0.04,0.07-0.06
			c0.57-0.51,1.13-1.04,1.67-1.57c0.01-0.01,0.02-0.02,0.03-0.03c6.6-6.52,10.63-14.44,11.05-23.02c0,0,0-0.01,0-0.01l0,0
			c0.01-0.23,0.04-0.47,0.04-0.7l0-0.01c0.21-8.6-3.24-16.65-9.34-23.39c-0.13-0.14-0.27-0.29-0.41-0.44l-2.72-2.8l-1.02-0.93
			c6.66,6.38,10.73,14.18,11.13,22.62c0,0,0,0,0,0c0.03,0.7,0.05,1.39,0.03,2.1c0,0.01,0,0.02,0,0.02
			c-0.57,22.33-26.62,40.11-58.2,39.72c-31.59-0.39-56.76-18.81-56.2-41.15c0.2-7.99,3.66-15.39,9.47-21.59
			c0.57-0.61,1.16-1.21,1.78-1.79c-0.28,0.26-0.55,0.51-0.82,0.76c-0.94,0.92-1.95,1.98-2.84,2.89c-0.28,0.3-0.54,0.58-0.79,0.86
			c-0.63,0.71-1.24,1.43-1.81,2.17c-4.5,5.8-7.14,12.43-7.31,19.5C52.94,89.81,52.95,90.54,52.98,91.26z M50.9,102.42
			C50.9,102.42,50.9,102.42,50.9,102.42c0,0.01,0,0.01,0,0.01c0.09,0.36,0.21,0.72,0.32,1.09c0.09,0.31,0.18,0.62,0.28,0.93
			c0.12,0.36,0.25,0.72,0.38,1.07c0.11,0.3,0.22,0.61,0.34,0.91c0.14,0.35,0.29,0.7,0.45,1.06c0.13,0.3,0.26,0.6,0.4,0.89
			c0.16,0.35,0.33,0.69,0.51,1.04c0.15,0.29,0.3,0.58,0.46,0.87c0.19,0.34,0.37,0.68,0.57,1.02c0.17,0.29,0.34,0.57,0.52,0.85
			c0.21,0.33,0.41,0.67,0.63,1c0.18,0.28,0.38,0.55,0.57,0.83c0.23,0.33,0.45,0.65,0.69,0.97c0.2,0.26,0.41,0.52,0.61,0.78
			c0.46,0.6,0.95,1.18,1.45,1.76c0.24,0.27,0.47,0.55,0.71,0.81c0.27,0.29,0.54,0.58,0.82,0.87c0.25,0.27,0.51,0.53,0.77,0.8
			c0.28,0.28,0.57,0.56,0.86,0.83c0.27,0.26,0.55,0.52,0.83,0.78c0.3,0.27,0.6,0.53,0.9,0.8c0.29,0.26,0.59,0.51,0.9,0.76
			c0.31,0.25,0.61,0.51,0.93,0.76c0.32,0.25,0.65,0.5,0.98,0.75c0.31,0.24,0.62,0.47,0.94,0.71c0.36,0.26,0.73,0.52,1.1,0.77
			c0.3,0.21,0.6,0.42,0.91,0.63c0.66,0.44,1.33,0.87,2.02,1.28c0.26,0.16,0.53,0.31,0.8,0.47c0.46,0.27,0.92,0.54,1.4,0.8
			c0.32,0.18,0.66,0.35,0.99,0.53c0.43,0.23,0.86,0.45,1.29,0.67c0.35,0.18,0.7,0.35,1.06,0.52c0.43,0.21,0.87,0.42,1.31,0.62
			c0.36,0.16,0.72,0.33,1.09,0.48c0.45,0.2,0.91,0.39,1.37,0.58c0.36,0.15,0.73,0.3,1.1,0.44c0.48,0.19,0.97,0.37,1.46,0.55
			c0.36,0.13,0.71,0.26,1.07,0.39c0.55,0.19,1.11,0.38,1.67,0.56c0.31,0.1,0.61,0.21,0.93,0.3c0.87,0.27,1.74,0.53,2.63,0.77
			c0.15,0.04,0.31,0.08,0.47,0.12c0.75,0.2,1.5,0.39,2.26,0.57c0.33,0.08,0.67,0.15,1,0.22c0.59,0.13,1.19,0.26,1.79,0.38
			c0.38,0.08,0.76,0.14,1.13,0.21c0.57,0.11,1.14,0.21,1.72,0.3c0.39,0.06,0.79,0.13,1.19,0.19c0.58,0.09,1.15,0.17,1.74,0.24
			c0.4,0.05,0.8,0.1,1.2,0.15c0.6,0.07,1.2,0.13,1.81,0.19c0.38,0.04,0.77,0.07,1.16,0.11c0.67,0.05,1.34,0.09,2.01,0.13
			c0.33,0.02,0.66,0.04,0.99,0.06c1.01,0.05,2.02,0.08,3.04,0.09c1.03,0.01,2.05,0.01,3.07-0.02c0.34-0.01,0.67-0.03,1.01-0.04
			c0.68-0.02,1.35-0.05,2.02-0.08c0.4-0.02,0.8-0.05,1.2-0.08c0.6-0.04,1.2-0.09,1.8-0.14c0.42-0.04,0.84-0.08,1.26-0.13
			c0.57-0.06,1.14-0.12,1.7-0.19c0.43-0.05,0.85-0.11,1.28-0.17c0.55-0.08,1.1-0.16,1.64-0.25c0.42-0.07,0.85-0.14,1.27-0.21
			c0.54-0.09,1.07-0.2,1.6-0.3c0.42-0.08,0.83-0.16,1.25-0.25c0.53-0.11,1.06-0.23,1.59-0.36c0.4-0.09,0.81-0.18,1.21-0.28
			c0.54-0.13,1.07-0.28,1.6-0.42c0.38-0.1,0.75-0.2,1.13-0.3c0.64-0.18,1.26-0.38,1.89-0.58c0.53-0.17,1.05-0.34,1.57-0.51
			c0.57-0.19,1.14-0.39,1.7-0.59c0.41-0.15,0.82-0.31,1.23-0.47c0.43-0.17,0.86-0.33,1.28-0.5c0.43-0.18,0.85-0.36,1.28-0.54
			c0.39-0.17,0.77-0.33,1.16-0.5c0.43-0.2,0.86-0.4,1.29-0.6c0.36-0.17,0.72-0.34,1.07-0.52c0.43-0.22,0.86-0.44,1.28-0.66
			c0.33-0.17,0.66-0.35,0.98-0.53c0.43-0.24,0.86-0.48,1.28-0.72c0.3-0.17,0.59-0.35,0.89-0.52c0.43-0.26,0.87-0.52,1.29-0.79
			c0.26-0.16,0.51-0.33,0.77-0.5c0.45-0.29,0.89-0.58,1.32-0.88c0.19-0.13,0.37-0.27,0.56-0.4c2.31-1.64,4.44-3.4,6.36-5.28
			c0.08-0.08,0.17-0.16,0.25-0.23c0.42-0.42,0.83-0.85,1.23-1.27c0.12-0.13,0.24-0.25,0.35-0.37c0.38-0.42,0.75-0.84,1.12-1.27
			c0.12-0.14,0.24-0.28,0.36-0.42c0.36-0.43,0.7-0.86,1.04-1.3c0.11-0.14,0.22-0.29,0.32-0.43c0.33-0.45,0.66-0.9,0.97-1.36
			c0.09-0.13,0.18-0.26,0.26-0.39c0.32-0.48,0.63-0.96,0.92-1.44c0.06-0.1,0.11-0.2,0.17-0.29c0.31-0.53,0.62-1.06,0.9-1.6l0,0
			c1.29-2.43,2.29-4.97,2.96-7.58c0,0,0-0.01,0-0.01v0c0.6-2.33,0.95-4.72,1.01-7.16c0-0.01,0-0.02,0-0.03
			c0.17-6.75-1.81-13.18-5.49-18.95c-0.01-0.02-0.03-0.04-0.04-0.06l-2.44-3.57l-0.97-1.24c4.53,6.13,7.03,13.13,6.84,20.53
			c0,0.01,0,0.01,0,0.02c-0.02,0.66-0.06,1.32-0.12,1.97c0,0,0,0,0,0c-0.06,0.69-0.15,1.37-0.26,2.06c0,0.02-0.01,0.04-0.01,0.07
			c-0.1,0.63-0.23,1.26-0.37,1.88c-0.02,0.07-0.03,0.15-0.05,0.22c-0.14,0.59-0.29,1.17-0.46,1.74c-0.03,0.11-0.06,0.22-0.09,0.33
			c-0.17,0.55-0.36,1.09-0.55,1.63c-0.05,0.13-0.09,0.27-0.14,0.4c-0.2,0.52-0.41,1.03-0.63,1.54c-0.07,0.15-0.13,0.31-0.2,0.46
			c-0.22,0.49-0.46,0.97-0.71,1.46c-0.08,0.17-0.17,0.33-0.25,0.5c-0.25,0.46-0.51,0.92-0.78,1.38c-0.1,0.18-0.2,0.36-0.31,0.53
			c-0.27,0.44-0.55,0.87-0.84,1.31c-0.12,0.19-0.25,0.37-0.37,0.56c-0.29,0.42-0.59,0.83-0.9,1.24c-0.14,0.19-0.29,0.38-0.43,0.58
			c-0.31,0.4-0.63,0.79-0.96,1.18c-0.17,0.2-0.33,0.39-0.5,0.59c-0.33,0.38-0.66,0.74-1,1.11c-0.19,0.2-0.37,0.4-0.56,0.6
			c-0.34,0.35-0.69,0.7-1.05,1.05c-0.21,0.2-0.42,0.4-0.63,0.6c-0.36,0.33-0.72,0.66-1.09,0.99c-0.23,0.2-0.46,0.41-0.7,0.61
			c-0.37,0.31-0.74,0.62-1.13,0.93c-0.25,0.2-0.51,0.4-0.76,0.6c-0.38,0.29-0.77,0.58-1.16,0.87c-0.28,0.2-0.55,0.4-0.83,0.6
			c-0.39,0.27-0.78,0.55-1.19,0.81c-0.3,0.2-0.6,0.39-0.9,0.59c-0.4,0.26-0.8,0.51-1.21,0.76c-0.32,0.19-0.64,0.38-0.97,0.57
			c-0.41,0.24-0.82,0.47-1.24,0.7c-0.34,0.19-0.69,0.37-1.03,0.55c-0.42,0.22-0.83,0.44-1.26,0.65c-0.36,0.18-0.73,0.36-1.1,0.53
			c-0.42,0.2-0.84,0.4-1.27,0.59c-0.39,0.17-0.78,0.34-1.17,0.51c-0.43,0.18-0.85,0.37-1.28,0.54c-0.41,0.16-0.82,0.32-1.23,0.48
			c-0.43,0.16-0.86,0.33-1.29,0.49c-0.43,0.15-0.86,0.3-1.3,0.45c-0.43,0.15-0.86,0.3-1.3,0.44c-0.45,0.14-0.91,0.28-1.36,0.41
			c-0.43,0.13-0.87,0.26-1.3,0.38c-0.47,0.13-0.95,0.25-1.42,0.38c-0.44,0.11-0.87,0.23-1.31,0.34c-0.49,0.12-0.99,0.22-1.48,0.33
			c-0.44,0.1-0.87,0.2-1.31,0.29c-0.51,0.1-1.03,0.2-1.55,0.29c-0.43,0.08-0.86,0.16-1.3,0.24c-0.54,0.09-1.08,0.16-1.62,0.24
			c-0.43,0.06-0.85,0.13-1.28,0.19c-0.57,0.07-1.14,0.13-1.71,0.19c-0.41,0.05-0.82,0.1-1.24,0.14c-0.6,0.06-1.21,0.1-1.82,0.14
			c-0.39,0.03-0.78,0.06-1.17,0.09c-0.68,0.04-1.36,0.06-2.05,0.08c-0.33,0.01-0.66,0.03-0.99,0.04c-1.02,0.02-2.04,0.03-3.07,0.02
			c-1.02-0.01-2.03-0.04-3.04-0.09c-0.35-0.02-0.69-0.05-1.04-0.07c-0.65-0.04-1.31-0.08-1.96-0.13c-0.41-0.03-0.82-0.08-1.23-0.12
			c-0.57-0.06-1.15-0.11-1.71-0.18c-0.44-0.05-0.88-0.12-1.32-0.17c-0.53-0.07-1.06-0.14-1.58-0.22c-0.45-0.07-0.9-0.15-1.35-0.23
			c-0.5-0.09-1-0.17-1.49-0.26c-0.46-0.09-0.92-0.19-1.38-0.28c-0.47-0.1-0.94-0.2-1.41-0.3c-0.47-0.11-0.93-0.22-1.39-0.33
			c-0.45-0.11-0.89-0.22-1.33-0.34c-0.47-0.13-0.94-0.26-1.4-0.39c-0.42-0.12-0.83-0.24-1.25-0.37c-0.48-0.15-0.95-0.3-1.42-0.45
			c-0.39-0.13-0.78-0.26-1.16-0.39c-0.48-0.17-0.96-0.34-1.43-0.51c-0.36-0.13-0.72-0.27-1.08-0.41c-0.48-0.19-0.97-0.38-1.44-0.58
			c-0.33-0.14-0.66-0.28-0.98-0.42c-0.49-0.21-0.98-0.43-1.46-0.65c-0.3-0.14-0.59-0.27-0.88-0.41c-0.5-0.24-1-0.48-1.48-0.73
			c-0.26-0.13-0.51-0.26-0.76-0.4c-0.51-0.27-1.02-0.54-1.52-0.82c-0.21-0.12-0.41-0.24-0.62-0.36c-0.53-0.31-1.06-0.62-1.58-0.93
			c-0.15-0.09-0.29-0.19-0.44-0.28c-0.56-0.35-1.12-0.71-1.66-1.08c-0.07-0.05-0.14-0.1-0.2-0.14
			c-10.52-7.2-17.35-17.06-18.34-28.01c0,0,0,0,0,0c-0.1-1.16-0.16-2.33-0.13-3.51c0.17-7,2.73-13.56,7.09-19.34
			c0.35-0.46,0.68-0.92,1.05-1.37l-1.4,1.77c-0.32,0.42-0.65,0.89-1,1.38c-0.74,1.05-1.5,2.17-2.15,3.13
			c-0.02,0.03-0.04,0.06-0.06,0.09l-0.14,0.22c0,0.01-0.01,0.01-0.01,0.02c-3.37,5.3-5.31,11.16-5.46,17.34
			C49.81,96.64,50.17,99.57,50.9,102.42z M145.63,53.53c0.46,0.28,0.95,0.58,1.46,0.89c0.52,0.32,1.05,0.65,1.59,0.98
			c-0.11-0.07-0.21-0.14-0.32-0.21C147.47,54.62,146.57,54.06,145.63,53.53z M78.86,53.84c-0.05,0.03-0.09,0.05-0.13,0.08
			c0.06-0.03,0.12-0.07,0.18-0.11C78.89,53.82,78.87,53.83,78.86,53.84z M111.37,145.22c35.88,0.44,65.47-19.75,66.13-45.11
			c0-0.01,0-0.03,0-0.05c0.12-4.8-0.82-9.45-2.64-13.83c-0.13-0.31-0.26-0.61-0.39-0.91l-0.56-1.25c-0.11-0.24-0.22-0.47-0.32-0.7
			c-0.41-0.86-0.91-1.81-1.42-2.75c2.45,4.9,3.73,10.19,3.6,15.7c0,0.01,0,0.02,0,0.02c-0.1,3.81-0.87,7.49-2.22,11c0,0,0,0,0,0
			c-0.13,0.34-0.28,0.68-0.42,1.01c-0.13,0.31-0.26,0.63-0.4,0.94c-0.15,0.34-0.32,0.68-0.49,1.01c-0.15,0.3-0.3,0.61-0.46,0.91
			c-0.18,0.33-0.36,0.66-0.55,0.99c-0.17,0.3-0.34,0.59-0.52,0.89c-0.19,0.32-0.39,0.64-0.6,0.96c-0.19,0.3-0.39,0.59-0.59,0.89
			c-0.21,0.31-0.41,0.62-0.63,0.92c-0.24,0.33-0.49,0.65-0.74,0.97c-0.36,0.46-0.72,0.92-1.1,1.38c-0.28,0.34-0.56,0.68-0.86,1.01
			c-0.24,0.27-0.49,0.54-0.74,0.81c-0.27,0.29-0.54,0.58-0.81,0.86c-0.26,0.27-0.53,0.53-0.8,0.8c-0.28,0.28-0.57,0.55-0.86,0.83
			c-0.28,0.26-0.56,0.51-0.84,0.77c-0.31,0.28-0.62,0.55-0.94,0.82c-0.28,0.24-0.56,0.48-0.85,0.71c-0.36,0.29-0.73,0.58-1.1,0.87
			c-0.26,0.2-0.52,0.41-0.78,0.61c-0.62,0.46-1.25,0.91-1.89,1.35c-0.26,0.18-0.52,0.34-0.78,0.52c-0.43,0.28-0.85,0.57-1.29,0.84
			c-0.3,0.19-0.62,0.38-0.93,0.56c-0.41,0.25-0.82,0.49-1.24,0.73c-0.32,0.19-0.65,0.37-0.98,0.55c-0.43,0.23-0.86,0.46-1.29,0.69
			c-0.33,0.17-0.65,0.34-0.98,0.51c-0.47,0.24-0.95,0.46-1.43,0.69c-0.3,0.14-0.61,0.29-0.91,0.43c-0.67,0.31-1.36,0.6-2.05,0.89
			c-0.19,0.08-0.38,0.16-0.58,0.24c-0.73,0.3-1.47,0.59-2.22,0.87c-0.31,0.11-0.62,0.22-0.93,0.33c-0.54,0.19-1.09,0.38-1.64,0.57
			c-0.35,0.12-0.7,0.23-1.05,0.34c-0.53,0.17-1.06,0.33-1.6,0.49c-0.36,0.1-0.72,0.21-1.08,0.31c-0.56,0.15-1.12,0.3-1.68,0.44
			c-0.34,0.09-0.69,0.18-1.03,0.26c-0.66,0.16-1.32,0.3-1.99,0.45c-0.26,0.06-0.51,0.12-0.77,0.17c-0.92,0.19-1.85,0.36-2.78,0.52
			c-0.25,0.04-0.5,0.08-0.75,0.12c-0.7,0.11-1.4,0.22-2.11,0.32c-0.35,0.05-0.71,0.09-1.07,0.13c-0.62,0.08-1.23,0.15-1.86,0.21
			c-0.38,0.04-0.76,0.07-1.15,0.11c-0.62,0.05-1.24,0.1-1.86,0.14c-0.38,0.03-0.75,0.05-1.13,0.07c-0.67,0.04-1.35,0.06-2.03,0.08
			c-0.33,0.01-0.65,0.03-0.98,0.03c-1,0.02-2.01,0.03-3.03,0.02c-1.01-0.01-2.01-0.05-3-0.09c-0.32-0.01-0.64-0.04-0.97-0.05
			c-0.67-0.04-1.35-0.08-2.01-0.13c-0.37-0.03-0.73-0.06-1.1-0.09c-0.63-0.06-1.25-0.12-1.88-0.19c-0.36-0.04-0.72-0.08-1.08-0.13
			c-0.66-0.08-1.32-0.18-1.98-0.28c-0.3-0.04-0.6-0.08-0.89-0.13c-0.93-0.15-1.85-0.31-2.76-0.49c-0.25-0.05-0.49-0.1-0.74-0.16
			c-0.67-0.14-1.34-0.28-2-0.43c-0.37-0.09-0.74-0.18-1.11-0.27c-0.53-0.13-1.06-0.26-1.59-0.4c-0.39-0.1-0.78-0.21-1.17-0.32
			c-0.5-0.14-0.99-0.28-1.48-0.43c-0.39-0.12-0.78-0.24-1.17-0.36c-0.5-0.16-0.99-0.33-1.48-0.5c-0.36-0.12-0.73-0.24-1.08-0.37
			c-0.77-0.28-1.54-0.57-2.29-0.86c-0.42-0.17-0.84-0.34-1.25-0.52c-0.38-0.16-0.76-0.31-1.13-0.48c-0.44-0.19-0.87-0.39-1.31-0.59
			c-0.33-0.15-0.66-0.31-0.99-0.47c-0.45-0.22-0.89-0.43-1.33-0.66c-0.29-0.15-0.57-0.29-0.85-0.44c-0.46-0.24-0.93-0.49-1.38-0.74
			c-0.15-0.09-0.3-0.18-0.46-0.26c-1.71-0.97-3.35-2-4.9-3.09c-0.14-0.1-0.29-0.2-0.43-0.3c-0.48-0.34-0.94-0.69-1.4-1.04
			c-0.14-0.1-0.27-0.21-0.4-0.31c-0.48-0.37-0.95-0.74-1.4-1.12c-0.06-0.05-0.12-0.11-0.19-0.16c-2.1-1.75-4-3.62-5.7-5.59
			c-0.02-0.02-0.04-0.04-0.05-0.06c-0.42-0.49-0.83-0.99-1.23-1.49c-0.01-0.02-0.03-0.04-0.04-0.06c-2.44-3.1-4.37-6.43-5.71-9.93
			c0,0,0,0.01,0,0.01c-1.54-3.99-2.32-8.2-2.22-12.54c0.12-4.97,1.4-9.74,3.63-14.19l-0.93,1.72l-1.23,2.66l-0.14,0.3
			c-0.26,0.61-0.52,1.22-0.78,1.84c-0.13,0.34-0.25,0.68-0.37,1.02c-1.17,3.31-1.83,6.77-1.92,10.33
			C46.88,123.84,75.47,144.78,111.37,145.22z M172.16,80.64c-0.3-0.59-0.62-1.17-0.95-1.75C171.5,79.43,171.83,80.02,172.16,80.64z
			 M171.11,78.7c0.03,0.06,0.06,0.12,0.1,0.18c-0.03-0.06-0.07-0.13-0.11-0.2C171.11,78.69,171.11,78.7,171.11,78.7z M56.83,82.61
			C56.83,82.61,56.83,82.61,56.83,82.61c0,0.02,0,0.03,0,0.05c-0.03,0.3-0.06,0.59-0.08,0.89c-0.03,0.42-0.06,0.83-0.07,1.25
			c-0.54,21.8,24.01,39.78,54.84,40.16c30.82,0.38,56.24-16.98,56.79-38.77c0,0,0-0.01,0-0.01c0.02-0.61,0.01-1.23-0.02-1.83
			c-0.02-0.58-0.07-1.15-0.13-1.72c0-0.02,0-0.04,0-0.06c0,0,0,0,0,0c-0.94-9.05-6.2-17.26-14.35-23.61
			c-0.34-0.26-0.67-0.52-1.02-0.78l-0.64-0.47l-0.54-0.39c-0.2-0.14-0.44-0.29-0.65-0.44c-0.72-0.49-1.49-0.99-2.29-1.49
			c9.34,6.11,15.58,14.54,16.89,23.96c0.03,0.25,0.06,0.49,0.09,0.74c0.04,0.39,0.08,0.78,0.11,1.17c0.01,0.22,0.03,0.43,0.04,0.65
			c0.03,0.61,0.04,1.22,0.03,1.83c0,0.01,0,0.01,0,0.02c-0.26,10.07-6.09,19.15-15.36,25.8c-7.28,5.22-16.68,8.93-27.19,10.46
			c-3.78,0.55-7.69,0.82-11.7,0.77c-29.45-0.36-52.91-17.54-52.4-38.37c0.01-0.51,0.05-1.01,0.09-1.51
			c0.02-0.22,0.04-0.44,0.06-0.67c0.02-0.21,0.05-0.42,0.08-0.62c0.08-0.59,0.17-1.18,0.29-1.76c1.57-8,6.67-15.17,14.14-20.74
			c0.8-0.59,1.62-1.17,2.47-1.72c-0.69,0.43-1.37,0.86-1.96,1.24l-2.35,1.68c-1.55,1.16-3,2.39-4.35,3.67
			C61.53,67.84,57.62,74.91,56.83,82.61z M97.75,46.48c-0.03,0.01-0.05,0.01-0.07,0.02c-0.08,0.02-0.16,0.04-0.24,0.06
			c0.13-0.03,0.25-0.06,0.37-0.09C97.79,46.48,97.77,46.48,97.75,46.48z M68.32,67.34C68.32,67.34,68.32,67.34,68.32,67.34
			c-0.01,0.01-0.01,0.02-0.02,0.04c-0.69,1.46-1.24,2.96-1.64,4.5c-0.04,0.15-0.08,0.3-0.12,0.45c-0.06,0.26-0.12,0.53-0.17,0.8
			c-0.04,0.21-0.08,0.43-0.12,0.64c-0.04,0.23-0.08,0.46-0.11,0.7c-0.04,0.28-0.07,0.55-0.1,0.83c-0.02,0.18-0.04,0.37-0.06,0.55
			c-0.04,0.47-0.07,0.95-0.08,1.42c-0.45,18.07,19.76,32.99,45.24,33.51c0.18,0,0.36,0.01,0.55,0.02
			c17.7,0.22,33.26-6.57,41.4-16.74c3.7-4.62,5.87-9.94,6.01-15.62c0-0.01,0-0.01,0-0.02c0.01-0.53,0-1.06-0.02-1.58
			c-0.01-0.19-0.03-0.37-0.04-0.56c-0.02-0.33-0.05-0.67-0.08-1c-0.02-0.23-0.06-0.45-0.09-0.67c-0.04-0.29-0.08-0.57-0.13-0.86
			c-0.04-0.24-0.09-0.49-0.14-0.73c-0.05-0.26-0.11-0.51-0.17-0.77c-0.06-0.26-0.13-0.51-0.2-0.77c-0.06-0.23-0.13-0.45-0.2-0.68
			c-0.08-0.28-0.17-0.55-0.26-0.82c-0.06-0.16-0.12-0.32-0.18-0.49c-0.27-0.72-0.56-1.43-0.89-2.12c-0.02-0.04-0.03-0.08-0.05-0.12
			c0,0,0,0,0,0c-6.14-12.79-23.1-22.1-43.3-22.36c-0.01,0-0.02,0-0.03,0l-0.08,0c-0.39,0-0.77,0.01-1.15,0.01
			c-1.62,0.05-3.43,0.12-5.07,0.22C88.95,46.62,73.98,55.44,68.32,67.34z M113.27,45.06c17.94,0.22,33.18,8,39.79,18.96
			c0.29,0.48,0.56,0.97,0.82,1.46c0,0,0,0.01,0.01,0.01c0.25,0.49,0.49,0.99,0.71,1.49c0.01,0.01,0.01,0.03,0.02,0.04
			c0.21,0.49,0.41,0.98,0.59,1.47c0.01,0.03,0.02,0.07,0.04,0.1c0.17,0.47,0.32,0.95,0.46,1.43c0.02,0.06,0.04,0.12,0.05,0.17
			c0.13,0.45,0.23,0.9,0.33,1.36c0.02,0.09,0.04,0.17,0.06,0.26c0.09,0.43,0.15,0.86,0.21,1.3c0.02,0.11,0.04,0.22,0.05,0.34
			c0.05,0.43,0.09,0.86,0.12,1.29c0.01,0.12,0.02,0.24,0.03,0.36c0.03,0.55,0.04,1.1,0.02,1.66c0,0.01,0,0.01,0,0.02
			c-0.12,4.78-1.77,9.3-4.6,13.31c-7.34,10.42-22.68,17.5-40.24,17.29c-0.93-0.01-1.85-0.05-2.76-0.1
			c-23.02-1.29-40.95-15.05-40.54-31.61c0.01-0.53,0.05-1.05,0.09-1.56c0.02-0.25,0.06-0.49,0.09-0.74c0.03-0.26,0.06-0.53,0.1-0.79
			c0.06-0.34,0.13-0.67,0.2-1c0.03-0.17,0.06-0.33,0.1-0.5c0.09-0.39,0.2-0.77,0.31-1.16c0.03-0.1,0.05-0.2,0.08-0.31
			c0.13-0.43,0.28-0.85,0.43-1.27c0.02-0.05,0.04-0.11,0.06-0.16c0.17-0.45,0.35-0.89,0.55-1.33c0.01-0.02,0.02-0.05,0.03-0.07
			c0.21-0.46,0.42-0.91,0.66-1.35c0-0.01,0.01-0.02,0.01-0.02c0.24-0.45,0.48-0.89,0.75-1.33C78.71,52.72,94.75,44.83,113.27,45.06z
			 M49.41,88.07c-0.02,0.05-0.04,0.1-0.06,0.14c-0.23,0.61-0.44,1.21-0.63,1.83c-0.07,0.21-0.14,0.42-0.2,0.63
			c0.16-0.48,0.31-0.95,0.47-1.41C49.13,88.86,49.27,88.46,49.41,88.07z M129.81,47.12c-0.51-0.14-1.03-0.27-1.55-0.39
			c1.44,0.38,2.48,0.66,3.27,0.88c-0.17-0.05-0.34-0.11-0.52-0.16C130.57,47.33,130.18,47.22,129.81,47.12z M61.72,75.5
			c-0.07,0.31-0.14,0.62-0.21,0.93c-0.05,0.27-0.1,0.55-0.15,0.83c-0.06,0.36-0.11,0.73-0.16,1.1c-0.03,0.23-0.06,0.45-0.08,0.68
			c-0.06,0.61-0.1,1.21-0.12,1.83c-0.5,20.11,22.15,36.69,50.59,37.04c2.34,0.03,4.64-0.06,6.9-0.25
			c13.73-1.13,25.84-6.08,34.11-13.33c6.93-6.08,11.17-13.76,11.38-22.17c0-0.01,0-0.01,0-0.02c0.02-0.69,0-1.37-0.04-2.04
			c-0.02-0.42-0.07-0.83-0.11-1.24c-0.02-0.23-0.04-0.46-0.07-0.69c-0.07-0.54-0.16-1.08-0.27-1.62c-0.01-0.07-0.03-0.15-0.04-0.22
			c-0.12-0.6-0.26-1.19-0.42-1.77c0,0,0,0,0-0.01l0,0c-2.43-8.87-9.41-16.62-19.2-21.94c-0.51-0.28-1.03-0.56-1.56-0.82
			c-0.6-0.28-1.24-0.57-1.89-0.86c-0.55-0.24-1.1-0.48-1.64-0.72c-1.04-0.44-2.05-0.86-2.95-1.23c-1.81-0.66-2.42-0.88-4.25-1.39
			c1.55,0.46,3.05,0.97,4.51,1.54c11.59,4.5,20.29,12.22,23.76,21.43c0,0,0,0,0,0c0.71,1.9,1.21,3.86,1.46,5.86
			c0.01,0.08,0.02,0.17,0.02,0.25c0.04,0.32,0.07,0.64,0.1,0.96c0.02,0.33,0.04,0.66,0.05,0.99c0,0.08,0.01,0.15,0.01,0.23
			c0.01,0.41,0.01,0.82,0,1.24c0,0,0,0.01,0,0.02c-0.17,6.77-3.09,13.05-7.99,18.33c-8.51,9.17-22.99,15.29-39.46,15.64
			c-0.77,0.01-1.55,0.02-2.34,0.01C84.62,113.77,63.09,98,63.56,78.89c0.02-0.71,0.07-1.42,0.15-2.12c0-0.01,0-0.01,0-0.02
			c0.24-2.11,0.76-4.17,1.5-6.15c-0.02,0.02-0.03,0.04-0.04,0.05c3.44-9.24,12.14-16.94,23.66-21.45c0.38-0.15,0.77-0.3,1.16-0.44
			c0.06-0.02,0.12-0.04,0.18-0.07c0.42-0.15,0.85-0.3,1.29-0.45c-0.46,0.14-0.91,0.29-1.33,0.42c-1.29,0.46-2.99,1.16-4.26,1.66
			c-2.25,0.96-4.37,2.06-6.38,3.24C70.27,59.03,63.78,66.72,61.72,75.5z M76.3,55.41c0.79-0.52,1.6-1.01,2.43-1.5
			C77.95,54.38,77.12,54.89,76.3,55.41z M126.96,46.42c0.44,0.09,0.87,0.2,1.31,0.31c-0.08-0.02-0.15-0.04-0.23-0.06L126.96,46.42z
			 M62.76,158.33c-0.05-0.05-0.1-0.1-0.15-0.16l0.19,0.2l2.47,2.54l0.05,0.05c0.06,0.06,0.13,0.13,0.19,0.19l0.04,0.03l2.53,2.31
			c0.15,0.13,0.3,0.26,0.45,0.38c10.28,8.73,25.66,14.37,42.98,14.58c18.18,0.22,34.54-5.58,45.24-14.8l1.62-1.45
			c0.31-0.29,0.6-0.56,0.88-0.83c0.92-0.9,1.92-1.94,2.8-2.85c0.03-0.04,0.07-0.07,0.1-0.1c-10.86,11.58-29.58,19.12-50.69,18.86
			C91.04,177.04,73.21,169.54,62.76,158.33z M46.53,127.49c0,0.01,0,0.01,0,0.01c5.01,22.19,31.93,39.32,64.8,39.73
			c32.43,0.4,59.86-15.61,66.46-37.21c0.23-0.74,0.43-1.49,0.61-2.24c0.03-0.13,0.06-0.26,0.09-0.39c0.39-1.87,0.74-4.16,1.03-6.3
			c-0.04,0.24-0.09,0.48-0.14,0.72c-4.5,23.68-33.46,41.74-68.06,41.32c-34.16-0.42-61.93-18.71-65.85-42.05
			C45.79,123.25,46.18,125.58,46.53,127.49C46.53,127.48,46.53,127.49,46.53,127.49z M179.52,121.08
			C179.52,121.09,179.52,121.09,179.52,121.08c0,0,0-0.01,0-0.01C179.52,121.08,179.52,121.08,179.52,121.08z M177.43,131.33
			c0.01-0.03,0.02-0.06,0.03-0.09c0.11-0.35,0.21-0.7,0.32-1.06c-0.09,0.31-0.19,0.62-0.28,0.94
			C177.47,131.18,177.45,131.25,177.43,131.33z M47.61,131.44c-0.28-0.91-0.54-1.79-0.76-2.59
			C47.06,129.72,47.33,130.58,47.61,131.44z M111.34,167.78c-31.16-0.39-56.93-15.83-63.73-36.35c0.5,1.63,1.06,3.35,1.58,4.86
			c0.27,0.71,0.54,1.42,0.82,2.11c8.09,18.6,32.34,32.27,61.35,32.63c30.41,0.37,56.34-14,64.13-33.8c0.63-1.73,1.33-3.92,1.94-5.9
			C170.49,152.54,143.36,168.18,111.34,167.78z M178.47,97.52C178.48,97.53,178.48,97.53,178.47,97.52
			C178.47,97.52,178.47,97.52,178.47,97.52C178.47,97.52,178.48,97.52,178.47,97.52z M179.99,108.61c0-0.02,0-0.04,0-0.07
			c-0.01-0.37-0.02-0.74-0.04-1.1l0.03,0.77c-0.02-0.52-0.05-1.04-0.09-1.56c-0.05-0.52-0.12-1.07-0.19-1.64
			c-0.01-0.12-0.03-0.23-0.05-0.35c-0.01-0.12-0.03-0.23-0.05-0.34c-0.19-1.33-0.41-2.73-0.64-4.07c0.26,1.83,0.38,3.69,0.34,5.58
			c0,0.01,0,0.01,0,0.02c-0.66,26.08-31.08,46.84-67.96,46.39c-36.89-0.45-66.28-21.97-65.63-48.05c0.03-1.19,0.12-2.36,0.28-3.53
			c-0.23,1.42-0.44,2.88-0.63,4.26c-0.12,1-0.22,2-0.3,2.98c-0.02,0.29-0.04,0.59-0.05,0.88c-0.65,26.36,29.04,48.1,66.32,48.56
			c37.24,0.46,67.96-20.5,68.67-46.82c0-0.03,0-0.05,0-0.08c0.01-0.57,0.01-1.13,0-1.7l0.04,0.98c0-0.06,0-0.11,0-0.17
			C180.02,109.23,180.01,108.92,179.99,108.61z M180.03,109.71c0,0.37,0.01,0.74,0,1.11c0,0,0,0.01,0,0.01
			c-0.66,26.37-31.42,47.37-68.71,46.91c-37.3-0.46-67-22.21-66.35-48.59c0.01-0.2,0.02-0.4,0.03-0.59c0,0,0,0.01,0,0.01l-0.08,1.61
			l-0.03,0.63l-0.01,0.61l-0.01,0.72l-0.01,0.38l0.01,0.22l0.17,4.67c0.01,0.08,0.01,0.16,0.02,0.24c0.05,0.58,0.11,1.16,0.19,1.74
			c-0.03-0.26-0.08-0.51-0.1-0.77c0,0,0-0.01,0-0.02c0.04,0.36,0.09,0.74,0.14,1.12c0.01,0.05,0.01,0.11,0.02,0.16
			c0.05,0.39,0.11,0.78,0.16,1.18c-0.06-0.34-0.09-0.68-0.14-1.02c3.53,23.64,31.51,42.26,65.98,42.68
			c34.86,0.43,64-17.9,68.19-41.84c0.03-0.15,0.06-0.31,0.08-0.46c0.11-1.01,0.2-2.02,0.28-3.01c0.1-1.14,0.17-2.25,0.24-3.25
			c0.01-0.28,0.01-0.57,0.01-0.85l0.01-0.85L180.03,109.71z M178.74,98.92c-0.07-0.41-0.15-0.82-0.24-1.22
			c-0.01-0.06-0.02-0.12-0.03-0.17c0.01,0.04,0.02,0.09,0.02,0.13c0.15,0.81,0.3,1.68,0.46,2.59c-0.03-0.2-0.05-0.41-0.08-0.62
			C178.83,99.39,178.79,99.16,178.74,98.92z M177.84,129.94c0.03-0.1,0.05-0.2,0.08-0.3c-0.05,0.18-0.1,0.35-0.15,0.53
			C177.8,130.09,177.82,130.02,177.84,129.94z M46.54,97.49c-0.14,0.62-0.26,1.25-0.37,1.88c-0.07,0.43-0.14,0.86-0.19,1.29
			c0.1-0.63,0.21-1.25,0.31-1.84C46.37,98.36,46.45,97.91,46.54,97.49z M175.6,88.09c-0.02-0.04-0.03-0.08-0.05-0.12
			c0.13,0.38,0.26,0.78,0.4,1.18C175.84,88.8,175.74,88.44,175.6,88.09z M62.58,158.15c0.01,0.01,0.02,0.02,0.03,0.03l-0.01-0.02
			C62.59,158.16,62.59,158.15,62.58,158.15z M86.25,174.83l2.5,0.99C87.9,175.51,87.07,175.17,86.25,174.83L86.25,174.83z
			 M73.94,168.05c1.64,1.09,3.65,2.34,5.26,3.32c0.33,0.19,0.62,0.35,0.93,0.51c8.73,4.73,19.6,7.59,31.44,7.74
			c11.18,0.14,21.61-2.17,30.28-6.21c0.89-0.43,1.74-0.86,2.57-1.31c0.23-0.12,0.47-0.23,0.7-0.36c0.33-0.18,0.65-0.36,0.96-0.54
			c0.16-0.09,0.31-0.18,0.48-0.28c1.34-0.81,2.83-1.76,4.03-2.52c0.09-0.06,0.16-0.11,0.25-0.17l1.8-1.29
			c0.01-0.01,0.03-0.02,0.04-0.03c-10.38,7.61-25.02,12.27-41.15,12.07C96.92,178.79,83.73,174.66,73.94,168.05z M111.6,179.91
			c-6.98-0.09-13.6-1.16-19.63-3.01c1.08,0.34,2.19,0.67,3.24,0.96c0.39,0.1,0.83,0.22,1.31,0.35c0.15,0.04,0.28,0.07,0.44,0.12
			l1.08,0.25c1.7,0.37,3.45,0.66,5.22,0.9c0.15,0.02,0.29,0.04,0.43,0.06c0.66,0.09,1.32,0.16,1.98,0.22
			c0.31,0.03,0.62,0.06,0.94,0.08c0.93,0.07,1.9,0.13,2.84,0.18c0.6,0.03,1.2,0.06,1.81,0.07c0.13,0,0.25,0.01,0.38,0.02
			c0.14,0,0.28-0.01,0.43-0.01c2.99,0.02,5.91-0.17,8.75-0.51c1.77-0.25,3.76-0.57,5.48-0.89c0.29-0.06,0.59-0.1,0.87-0.17
			c0.37-0.08,0.68-0.15,0.97-0.22c0.68-0.16,1.53-0.38,2.47-0.65c0.91-0.27,2.13-0.66,4.22-1.32c0.01,0,0.03-0.01,0.04-0.01
			c0.03-0.01,0.06-0.02,0.09-0.03c0.11-0.04,0.22-0.08,0.33-0.12c0.02-0.01,0.05-0.02,0.07-0.03c0.55-0.21,1.14-0.44,1.75-0.68
			c-0.41,0.16-0.81,0.33-1.23,0.47C128.61,178.58,120.34,180.02,111.6,179.91z M72.07,166.73l1.3,0.95c0.14,0.1,0.31,0.2,0.45,0.3
			c-0.63-0.43-1.24-0.86-1.84-1.31C72.02,166.69,72.05,166.7,72.07,166.73z M89.21,176c0.07,0.02,0.13,0.05,0.19,0.07
			c0.63,0.21,1.33,0.44,2.05,0.67c-0.92-0.29-1.82-0.59-2.71-0.92L89.21,176z M55.39,148.79c0.05,0.08,0.11,0.16,0.16,0.25
			c0.35,0.53,0.71,1.06,1.08,1.58l-1.12-1.64L55.39,148.79z M45.86,103.51c-0.64,26.03,28.67,47.49,65.48,47.95
			c36.77,0.45,67.11-20.24,67.8-46.24c0-0.02,0-0.04,0-0.06c0.07-2.9-0.24-5.74-0.89-8.51c-0.23-0.89-0.49-1.86-0.78-2.85
			c-0.3-0.99-0.63-2.01-0.97-3.01c0.96,3.29,1.43,6.7,1.35,10.2c0,0.01,0,0.02,0,0.03c-0.65,25.51-30.41,45.83-66.5,45.38
			c-36.1-0.45-64.85-21.5-64.22-47.02c0.07-2.98,0.55-5.89,1.38-8.7c-0.42,1.28-0.83,2.6-1.19,3.81c-0.12,0.39-0.23,0.77-0.34,1.12
			l-0.14,0.55c-0.18,0.72-0.33,1.45-0.46,2.18C46.09,100.04,45.9,101.76,45.86,103.51z M111.37,171.7
			c-28.68-0.35-52.68-13.79-60.86-32.12c0.04,0.09,0.07,0.18,0.11,0.27l0.61,1.36l0.04,0.09c0.03,0.06,0.07,0.14,0.1,0.2
			c0.73,1.5,1.74,3.33,2.52,4.8c0.04,0.07,0.08,0.15,0.12,0.22c0.05,0.08,0.1,0.16,0.15,0.24c9.42,15.85,31.38,27.1,57.25,27.42
			c26.7,0.33,49.81-11.08,59.51-27.51c0.06-0.09,0.11-0.19,0.17-0.28l1.9-3.52c0.07-0.13,0.13-0.27,0.2-0.4l0.72-1.55
			C164.88,159.13,140.15,172.05,111.37,171.7z M111.41,174.86c-24-0.3-44.6-10.1-54.77-24.25l1.06,1.55l0.12,0.17
			c0.02,0.03,0.04,0.06,0.07,0.1l0.26,0.34l1.66,2.14l0.26,0.34c0.05,0.06,0.1,0.12,0.15,0.18c0.01,0.01,0.02,0.02,0.03,0.03
			c10.32,12.45,29.3,20.91,51.2,21.18c22.45,0.28,42.24-8.13,53.01-20.84c0.14-0.17,0.3-0.33,0.44-0.5l1.12-1.42
			c0.4-0.53,0.79-1.05,1.16-1.55c0.04-0.06,0.09-0.13,0.13-0.19c0.37-0.52,0.74-1.06,1.1-1.59
			C157.91,165.23,136.22,175.17,111.41,174.86z M169.6,148.82c-0.37,0.53-0.77,1.13-1.19,1.74
			C168.82,149.98,169.22,149.4,169.6,148.82z M106.44,96.33c1.77,0.22,3.59,0.34,5.44,0.36c15.24,0.19,28.4-6.48,33.59-15.99
			c1.45-2.66,2.28-5.54,2.35-8.55v-0.01c0.01-0.42,0.01-0.84-0.01-1.26c-0.01-0.12-0.02-0.23-0.03-0.35
			c-0.01-0.07-0.01-0.15-0.02-0.22c-0.02-0.23-0.03-0.45-0.06-0.67c-0.02-0.19-0.05-0.38-0.08-0.56c-0.03-0.22-0.06-0.44-0.1-0.66
			c-0.04-0.21-0.09-0.41-0.13-0.61c-0.04-0.2-0.08-0.39-0.13-0.59c-0.06-0.22-0.12-0.43-0.18-0.64c-0.05-0.18-0.1-0.36-0.16-0.53
			c-0.07-0.22-0.16-0.45-0.24-0.67c-0.06-0.16-0.12-0.32-0.18-0.49c-0.09-0.23-0.19-0.46-0.3-0.69c-0.07-0.15-0.13-0.29-0.2-0.44
			c-0.11-0.24-0.23-0.48-0.36-0.71c-0.07-0.13-0.14-0.26-0.21-0.39c-0.13-0.24-0.28-0.49-0.42-0.73c-0.07-0.12-0.14-0.23-0.21-0.35
			c-0.16-0.25-0.32-0.5-0.49-0.74c-0.07-0.1-0.14-0.21-0.21-0.31c-0.18-0.25-0.36-0.5-0.55-0.75c-0.07-0.09-0.14-0.18-0.21-0.27
			c-0.2-0.26-0.41-0.51-0.63-0.76c-0.06-0.08-0.13-0.15-0.2-0.22c-0.23-0.26-0.46-0.51-0.7-0.77c-0.06-0.06-0.12-0.13-0.18-0.19
			c-0.25-0.26-0.51-0.52-0.77-0.77c-0.05-0.05-0.11-0.1-0.16-0.15c-0.28-0.26-0.56-0.52-0.85-0.77c-0.04-0.04-0.09-0.08-0.13-0.11
			c-0.31-0.26-0.62-0.52-0.94-0.77c-0.01-0.01-0.02-0.01-0.02-0.02c0,0,0,0,0,0c-6.33-4.97-15.44-8.14-25.63-8.27
			c-10.66-0.13-20.29,3.09-26.9,8.29h0l0,0c-2.4,1.89-4.4,4.03-5.9,6.38c0,0,0,0,0,0c-0.17,0.27-0.33,0.54-0.49,0.82
			c-0.05,0.09-0.11,0.18-0.16,0.27c-0.13,0.24-0.26,0.48-0.38,0.72c-0.07,0.13-0.13,0.26-0.2,0.39c-0.11,0.22-0.21,0.44-0.31,0.66
			c-0.07,0.16-0.14,0.31-0.2,0.47c-0.09,0.21-0.17,0.42-0.24,0.63c-0.07,0.18-0.13,0.36-0.19,0.54c-0.07,0.2-0.13,0.39-0.19,0.59
			c-0.06,0.2-0.11,0.4-0.17,0.6c-0.05,0.19-0.1,0.37-0.14,0.56c-0.05,0.22-0.09,0.45-0.14,0.67c-0.03,0.16-0.07,0.31-0.09,0.47
			c0,0,0,0,0,0c0,0.01,0,0.03-0.01,0.04c-0.04,0.26-0.07,0.52-0.1,0.78c-0.02,0.13-0.04,0.26-0.05,0.4c0,0.01,0,0.02,0,0.04
			c-0.03,0.31-0.04,0.62-0.06,0.93c0,0.09-0.01,0.19-0.02,0.28c-0.1,3.9,1.08,7.61,3.25,10.93C85.21,89.5,94.84,94.91,106.44,96.33z
			 M79.53,69.08c0.01-0.06,0.02-0.12,0.02-0.18c0.04-0.38,0.09-0.75,0.16-1.12c0-0.02,0.01-0.04,0.01-0.06
			c0.16-0.83,0.37-1.65,0.64-2.45c0,0,0,0,0,0c0.03-0.09,0.07-0.19,0.1-0.28c0.08-0.21,0.15-0.43,0.24-0.64
			c0.07-0.17,0.15-0.35,0.22-0.52c0.09-0.21,0.18-0.41,0.28-0.62c0.08-0.17,0.17-0.34,0.26-0.51c0.11-0.2,0.21-0.41,0.33-0.61
			c0.09-0.16,0.19-0.33,0.29-0.49c0.12-0.2,0.24-0.4,0.37-0.59c0.1-0.16,0.21-0.32,0.32-0.48c0.13-0.2,0.27-0.39,0.42-0.58
			c0.11-0.15,0.23-0.31,0.34-0.46c0.15-0.19,0.31-0.38,0.46-0.57c0.12-0.14,0.24-0.29,0.37-0.43c0.17-0.19,0.34-0.38,0.51-0.56
			c0.13-0.14,0.25-0.27,0.39-0.41c0.18-0.19,0.37-0.37,0.57-0.56c0.13-0.13,0.26-0.26,0.4-0.38c0.2-0.19,0.42-0.37,0.63-0.56
			c0.13-0.12,0.26-0.23,0.4-0.35c0.23-0.19,0.47-0.38,0.71-0.57c0.13-0.1,0.25-0.2,0.38-0.3c0.27-0.21,0.55-0.41,0.84-0.61
			c0.1-0.07,0.2-0.15,0.31-0.22c0.39-0.27,0.78-0.52,1.19-0.78c5.97-3.71,13.84-5.93,22.41-5.82c8.11,0.1,15.48,2.26,21.15,5.76
			c0.41,0.25,0.81,0.51,1.2,0.78c0.06,0.04,0.12,0.08,0.17,0.12c0.35,0.24,0.69,0.49,1.02,0.74c0.07,0.06,0.15,0.11,0.22,0.17
			c0.31,0.24,0.62,0.49,0.92,0.74c0.08,0.06,0.15,0.13,0.23,0.19c0.29,0.25,0.58,0.51,0.86,0.77c0.07,0.06,0.14,0.13,0.21,0.19
			c0.28,0.27,0.56,0.55,0.83,0.83c0.05,0.05,0.11,0.11,0.16,0.16c0.29,0.31,0.58,0.63,0.85,0.96c0.02,0.02,0.04,0.05,0.06,0.07
			c0.6,0.71,1.14,1.45,1.63,2.21c0.02,0.02,0.03,0.05,0.04,0.07c0.22,0.34,0.42,0.69,0.62,1.04c0.05,0.1,0.1,0.2,0.16,0.3
			c0.15,0.28,0.29,0.56,0.43,0.84c0.06,0.13,0.12,0.26,0.18,0.39c0.11,0.26,0.23,0.51,0.33,0.78c0.06,0.15,0.11,0.29,0.16,0.44
			c0.08,0.22,0.15,0.44,0.22,0.66c0.08,0.26,0.16,0.52,0.23,0.79c0.05,0.18,0.1,0.36,0.14,0.54c0.01,0.02,0.01,0.04,0.01,0.07
			c0.06,0.27,0.11,0.54,0.16,0.81c0.02,0.13,0.05,0.25,0.07,0.38c0.01,0.08,0.03,0.16,0.04,0.24c0.04,0.29,0.07,0.58,0.1,0.87
			c0.01,0.07,0.02,0.15,0.02,0.22c0.01,0.1,0.02,0.2,0.02,0.3c0.02,0.43,0.04,0.86,0.03,1.3c0,0.03,0,0.05,0,0.08c0,0,0,0.01,0,0.01
			c-0.06,2.11-0.5,4.15-1.3,6.09c-0.26,0.65-0.57,1.28-0.9,1.9c-4.85,8.89-17.16,15.14-31.43,14.96c-1.79-0.02-3.54-0.15-5.25-0.36
			C90.96,91.8,79.16,82,79.45,70.36C79.46,69.93,79.49,69.5,79.53,69.08z M107.77,89.55c1.38,0.16,2.79,0.25,4.22,0.27
			c11.53,0.14,21.6-4.49,26.45-11.31c0.32-0.45,0.62-0.92,0.9-1.39c1.34-2.3,2.12-4.82,2.19-7.45l0-0.01c0.01-0.38,0-0.75-0.02-1.12
			c0-0.09-0.02-0.18-0.02-0.27c0-0.02,0-0.04-0.01-0.07c-0.01-0.11-0.02-0.22-0.03-0.32c-0.01-0.15-0.03-0.3-0.05-0.44
			c-0.01-0.11-0.03-0.22-0.05-0.33c-0.03-0.21-0.06-0.43-0.1-0.64c-0.01-0.04-0.02-0.08-0.03-0.13c-0.02-0.11-0.05-0.21-0.07-0.32
			c-0.06-0.26-0.12-0.51-0.19-0.77c-0.02-0.08-0.05-0.17-0.07-0.25c-0.02-0.08-0.05-0.16-0.07-0.24c-0.06-0.2-0.13-0.4-0.21-0.6
			c-0.03-0.08-0.06-0.16-0.09-0.23c-0.07-0.18-0.13-0.35-0.21-0.52c-0.03-0.06-0.06-0.12-0.08-0.19c-0.02-0.05-0.04-0.09-0.06-0.14
			c-0.03-0.06-0.05-0.11-0.08-0.17c-0.14-0.31-0.3-0.61-0.46-0.92c0,0,0-0.01-0.01-0.01c-0.03-0.06-0.06-0.11-0.09-0.17
			c-0.24-0.44-0.51-0.87-0.79-1.29c-0.04-0.06-0.09-0.13-0.13-0.19c-0.28-0.41-0.58-0.81-0.9-1.21c-0.02-0.02-0.03-0.04-0.04-0.06
			c-0.34-0.41-0.7-0.81-1.07-1.21c-0.05-0.06-0.11-0.11-0.16-0.17c-0.76-0.79-1.6-1.53-2.51-2.23c-0.06-0.05-0.12-0.09-0.18-0.14
			c-0.93-0.7-1.92-1.36-2.98-1.96c-0.06-0.03-0.11-0.07-0.17-0.1c-0.53-0.3-1.08-0.59-1.65-0.87c-0.03-0.01-0.05-0.02-0.08-0.04
			c-0.55-0.27-1.11-0.52-1.69-0.76c-0.05-0.02-0.1-0.04-0.15-0.06c-0.59-0.24-1.19-0.47-1.8-0.68c-0.07-0.02-0.13-0.04-0.2-0.07
			c-0.59-0.2-1.2-0.39-1.82-0.56c-0.02-0.01-0.04-0.01-0.07-0.02c0,0-0.01,0-0.01,0c-3.15-0.88-6.56-1.38-10.14-1.42
			c-4.02-0.05-7.86,0.48-11.36,1.48c0,0,0,0,0,0c-0.01,0-0.02,0.01-0.03,0.01c-0.57,0.16-1.14,0.35-1.69,0.53
			c-0.14,0.05-0.27,0.09-0.41,0.14c-0.56,0.2-1.11,0.4-1.65,0.63c-0.01,0-0.02,0.01-0.03,0.01c-0.53,0.22-1.04,0.45-1.55,0.7
			c-0.13,0.06-0.25,0.12-0.37,0.18c-0.51,0.25-1.01,0.51-1.5,0.78c-0.01,0-0.01,0.01-0.02,0.01c-0.48,0.27-0.94,0.55-1.39,0.84
			c-0.11,0.07-0.23,0.15-0.34,0.22c-0.45,0.3-0.9,0.61-1.32,0.92c-0.01,0-0.01,0.01-0.02,0.01c-0.42,0.32-0.82,0.64-1.21,0.98
			c-0.1,0.08-0.19,0.17-0.29,0.25c-0.39,0.34-0.77,0.69-1.12,1.05c0,0-0.01,0.01-0.01,0.01c-0.35,0.36-0.69,0.73-1.01,1.1
			c-0.08,0.09-0.16,0.18-0.24,0.28c-0.32,0.38-0.62,0.77-0.91,1.17l0,0c-0.19,0.27-0.38,0.55-0.56,0.83c0,0,0,0,0,0
			c0,0,0,0.01-0.01,0.01c-0.08,0.12-0.15,0.24-0.22,0.37c-0.06,0.1-0.12,0.2-0.18,0.3c-0.02,0.04-0.05,0.08-0.07,0.11
			c-0.03,0.05-0.06,0.1-0.09,0.15c-0.14,0.26-0.28,0.52-0.4,0.79c-0.03,0.06-0.06,0.11-0.08,0.17c-0.01,0.01-0.01,0.03-0.02,0.04
			c0,0,0,0,0,0c-0.11,0.23-0.2,0.46-0.3,0.7c-0.03,0.08-0.07,0.16-0.1,0.24c-0.05,0.12-0.09,0.24-0.13,0.36
			c-0.04,0.11-0.08,0.22-0.11,0.32c-0.04,0.1-0.08,0.21-0.11,0.31c-0.06,0.19-0.11,0.38-0.16,0.57c-0.04,0.15-0.09,0.3-0.13,0.45
			c-0.03,0.14-0.06,0.28-0.09,0.42c-0.04,0.2-0.09,0.41-0.13,0.61c-0.01,0.07-0.02,0.15-0.03,0.22c-0.01,0.04-0.01,0.09-0.02,0.13
			c-0.02,0.11-0.03,0.22-0.04,0.33c-0.06,0.47-0.1,0.94-0.11,1.41c-0.03,1.32,0.11,2.61,0.42,3.87
			C85.98,81.36,95.57,88.13,107.77,89.55z M85.52,68.3c0-0.04,0.01-0.07,0.01-0.11c0.01-0.34,0.03-0.67,0.07-1
			c0.01-0.13,0.03-0.25,0.05-0.38c0.03-0.25,0.07-0.49,0.12-0.73c0.03-0.13,0.05-0.27,0.08-0.4c0.05-0.25,0.12-0.49,0.18-0.74
			c0.03-0.12,0.06-0.23,0.1-0.35c0.11-0.35,0.23-0.7,0.36-1.05c0-0.01,0.01-0.02,0.02-0.04c0.13-0.34,0.28-0.67,0.44-0.99
			c0.05-0.11,0.11-0.21,0.16-0.32c0.12-0.23,0.24-0.47,0.37-0.7c0.07-0.12,0.13-0.23,0.2-0.34c0.14-0.23,0.28-0.45,0.43-0.68
			c0.07-0.1,0.13-0.2,0.2-0.3c0.22-0.31,0.45-0.62,0.69-0.93c4.71-5.89,13.72-9.82,23.97-9.69c9.9,0.12,18.45,4,23.01,9.68
			c0.28,0.34,0.53,0.69,0.78,1.05c0.02,0.03,0.04,0.06,0.06,0.09c0.49,0.72,0.92,1.46,1.28,2.22c0.02,0.05,0.05,0.1,0.07,0.15
			c0.15,0.32,0.28,0.64,0.4,0.97c0.03,0.08,0.06,0.16,0.09,0.24c0.27,0.75,0.47,1.51,0.61,2.29c0.02,0.11,0.03,0.22,0.05,0.32
			c0.04,0.29,0.08,0.58,0.1,0.87c0.01,0.12,0.02,0.24,0.03,0.36c0.02,0.38,0.04,0.76,0.03,1.14c0,0.01,0,0.02,0,0.03
			c0,0,0,0.01,0,0.01c-0.01,0.4-0.04,0.79-0.09,1.18c-0.04,0.35-0.09,0.69-0.16,1.03c-0.34,1.8-1.03,3.51-2.02,5.11
			c-4.24,6.83-13.97,11.55-25.18,11.41c-1.15-0.02-2.29-0.09-3.4-0.2c-9.49-0.96-17.35-5.41-20.97-11.42
			C86.22,73.7,85.46,71.06,85.52,68.3z M71.66,70.73c-0.07,0.39-0.13,0.78-0.18,1.17c-0.02,0.16-0.05,0.33-0.07,0.49
			c-0.06,0.55-0.1,1.11-0.11,1.67c-0.37,15.05,15.46,27.63,36.13,29.42c1.43,0.12,2.88,0.2,4.35,0.22
			c17.05,0.21,31.86-6.93,38.38-17.3c2.18-3.46,3.43-7.28,3.53-11.31c0-0.01,0-0.01,0-0.02c0.01-0.59,0-1.18-0.04-1.77
			c-0.01-0.16-0.03-0.33-0.04-0.49c-0.04-0.44-0.09-0.88-0.15-1.32c-0.02-0.16-0.05-0.31-0.07-0.47c-0.09-0.53-0.2-1.06-0.33-1.58
			c-0.01-0.04-0.02-0.07-0.03-0.11c-0.15-0.6-0.34-1.2-0.54-1.79c-0.01-0.03-0.02-0.05-0.03-0.08c-0.2-0.55-0.42-1.1-0.66-1.64
			c-0.03-0.06-0.06-0.12-0.08-0.19c-5.24-11.55-20.4-20-38.51-20.22c-16.8-0.21-31.41,6.73-38.08,16.84c0,0,0,0,0,0.01
			c-1,1.52-1.83,3.11-2.45,4.77c-0.02,0.06-0.04,0.13-0.07,0.19c-0.17,0.45-0.32,0.91-0.45,1.37c-0.04,0.14-0.08,0.29-0.12,0.43
			c-0.11,0.39-0.2,0.78-0.28,1.17C71.73,70.39,71.69,70.56,71.66,70.73z M73.87,71.03c0.02-0.16,0.04-0.31,0.06-0.47
			c0.07-0.51,0.16-1.02,0.27-1.52c0.02-0.08,0.03-0.17,0.05-0.25c0.14-0.59,0.31-1.17,0.5-1.75c0.03-0.1,0.07-0.19,0.1-0.29
			c0.18-0.52,0.38-1.03,0.6-1.54c0.03-0.07,0.06-0.14,0.09-0.21c0.53-1.18,1.17-2.33,1.91-3.43c0.02-0.03,0.04-0.06,0.06-0.09
			c0.77-1.13,1.64-2.21,2.6-3.25c0,0,0,0,0,0c7.06-7.57,19.28-12.5,33.05-12.33c13.26,0.16,24.84,5.02,31.65,12.28
			c0.2,0.21,0.39,0.43,0.58,0.65c0.1,0.11,0.19,0.22,0.29,0.33c0.18,0.21,0.36,0.42,0.53,0.63c0.09,0.12,0.19,0.24,0.28,0.36
			c0.33,0.43,0.65,0.87,0.96,1.31c0.05,0.08,0.11,0.15,0.16,0.23c0.13,0.2,0.26,0.4,0.38,0.61c0.1,0.16,0.2,0.32,0.29,0.48
			c0.12,0.2,0.23,0.39,0.34,0.59c0.1,0.18,0.2,0.37,0.29,0.55c0.09,0.18,0.19,0.37,0.28,0.55c0.17,0.34,0.32,0.69,0.47,1.04
			c0.06,0.15,0.12,0.31,0.18,0.46c0.09,0.24,0.19,0.48,0.27,0.72c0.06,0.17,0.11,0.33,0.17,0.5c0.08,0.25,0.16,0.5,0.23,0.75
			c0.04,0.15,0.09,0.3,0.12,0.45c0.1,0.39,0.19,0.78,0.27,1.17c0.02,0.08,0.03,0.17,0.04,0.26c0.06,0.33,0.11,0.66,0.15,0.99
			c0.02,0.14,0.03,0.28,0.05,0.42c0.03,0.3,0.06,0.6,0.07,0.89c0.01,0.13,0.02,0.26,0.02,0.39c0.02,0.42,0.02,0.85,0.01,1.27
			c0,0,0,0.01,0,0.02c-0.04,1.38-0.22,2.74-0.54,4.06c0,0,0,0,0,0c-0.11,0.48-0.25,0.96-0.4,1.44c-0.03,0.09-0.06,0.17-0.09,0.26
			c-0.13,0.38-0.27,0.76-0.41,1.14c-0.05,0.12-0.09,0.24-0.14,0.36c-0.15,0.35-0.3,0.7-0.47,1.05c-0.06,0.12-0.11,0.23-0.17,0.35
			c-0.22,0.45-0.46,0.89-0.72,1.33c-5.91,10.11-20.1,17.14-36.51,16.94c-1.74-0.02-3.44-0.13-5.11-0.31
			c-0.08-0.01-0.16-0.02-0.23-0.03c-0.47-0.05-0.94-0.11-1.4-0.17c-0.23-0.03-0.46-0.07-0.69-0.1c-0.31-0.05-0.62-0.09-0.93-0.15
			c-0.26-0.04-0.51-0.09-0.76-0.14c-0.28-0.05-0.56-0.1-0.83-0.16c-0.26-0.05-0.52-0.11-0.79-0.17c-0.26-0.06-0.52-0.12-0.78-0.18
			c-0.27-0.06-0.53-0.13-0.79-0.19C99.24,99.06,99,99,98.75,98.93c-0.27-0.07-0.54-0.14-0.8-0.22c-0.23-0.07-0.46-0.14-0.69-0.21
			c-0.27-0.08-0.54-0.16-0.81-0.25c-0.2-0.06-0.39-0.13-0.59-0.2c-0.58-0.2-1.16-0.4-1.73-0.62c-0.15-0.06-0.31-0.11-0.46-0.17
			c-0.28-0.11-0.56-0.23-0.83-0.34c-0.18-0.08-0.37-0.15-0.55-0.23c-0.27-0.12-0.53-0.24-0.8-0.36c-0.18-0.08-0.37-0.17-0.55-0.25
			c-0.26-0.12-0.52-0.25-0.78-0.38c-0.18-0.09-0.35-0.18-0.53-0.27c-0.26-0.13-0.51-0.27-0.76-0.4c-0.17-0.09-0.33-0.18-0.5-0.28
			c-0.25-0.14-0.51-0.29-0.75-0.43c-0.15-0.09-0.29-0.18-0.44-0.27c-0.26-0.16-0.51-0.31-0.76-0.47c-0.09-0.06-0.18-0.12-0.27-0.18
			c-0.6-0.39-1.19-0.8-1.75-1.22c-0.05-0.03-0.09-0.07-0.14-0.1c-0.23-0.18-0.46-0.36-0.69-0.54c-0.13-0.1-0.26-0.2-0.38-0.3
			c-0.21-0.17-0.42-0.35-0.62-0.53c-0.13-0.11-0.27-0.23-0.4-0.34c-0.2-0.17-0.39-0.35-0.58-0.53c-0.13-0.12-0.26-0.24-0.39-0.37
			c-0.19-0.18-0.37-0.36-0.55-0.54c-0.12-0.13-0.25-0.26-0.37-0.38c-0.17-0.18-0.35-0.37-0.52-0.55c-0.12-0.13-0.23-0.26-0.34-0.39
			c-0.17-0.19-0.33-0.38-0.49-0.58c-0.1-0.12-0.19-0.24-0.28-0.36c-0.32-0.4-0.62-0.81-0.92-1.23c-0.08-0.12-0.17-0.23-0.25-0.35
			c-0.13-0.19-0.25-0.39-0.37-0.58c-0.1-0.16-0.2-0.31-0.29-0.47c-0.11-0.19-0.22-0.38-0.33-0.57c-0.09-0.17-0.19-0.33-0.28-0.5
			c-0.1-0.19-0.2-0.38-0.29-0.57c-0.09-0.17-0.17-0.35-0.25-0.52c-0.09-0.19-0.17-0.38-0.26-0.57c-0.08-0.18-0.15-0.37-0.23-0.55
			c-0.07-0.19-0.15-0.38-0.22-0.56c-0.07-0.2-0.14-0.4-0.2-0.59c-0.06-0.18-0.12-0.36-0.18-0.54c-0.07-0.24-0.13-0.47-0.19-0.71
			c-0.04-0.15-0.08-0.29-0.12-0.44c0,0,0,0,0,0c-0.39-1.64-0.58-3.34-0.53-5.07C73.75,72.22,73.81,71.63,73.87,71.03z M112.36,70.68
			c4.43,0.06,8.08-2.43,8.17-5.57c0,0,0-0.01,0-0.01c0.08-3.14-3.46-5.72-7.89-5.78c-3.6-0.04-6.7,1.6-7.77,3.9
			c-0.25,0.53-0.39,1.1-0.4,1.68C104.39,68.04,107.92,70.63,112.36,70.68z M107.2,61.74c0.92-0.77,2.18-1.33,3.6-1.58
			c0.58-0.1,1.19-0.16,1.82-0.15c2.88,0.04,5.32,1.3,6.33,3.08c0.08,0.15,0.16,0.3,0.22,0.45c0.13,0.31,0.21,0.63,0.25,0.96
			c0.02,0.17,0.03,0.33,0.02,0.5c-0.07,2.71-3.23,4.87-7.07,4.83c-3.84-0.05-6.89-2.29-6.83-5C105.58,63.65,106.2,62.58,107.2,61.74
			z M112.49,65.01c0.25,0,0.46-0.13,0.48-0.31c0-0.01,0.01-0.01,0.01-0.02c0,0,0-0.01,0-0.01c0-0.19-0.21-0.34-0.47-0.34
			c-0.26-0.01-0.48,0.14-0.48,0.33C112.02,64.85,112.23,65.01,112.49,65.01z M111.36,83.11c0.25,0.01,0.5,0.03,0.75,0.04
			c8.55,0.1,16.06-3.2,19.94-8.14c1.72-2.19,2.73-4.69,2.8-7.37c0,0,0,0,0,0c0,0,0-0.01,0-0.01c0.03-1.05-0.1-2.08-0.35-3.08
			c-0.01-0.04-0.02-0.08-0.03-0.11c-0.04-0.16-0.09-0.32-0.14-0.48c-0.03-0.1-0.06-0.2-0.09-0.3c-0.04-0.11-0.08-0.22-0.12-0.33
			c-0.05-0.15-0.11-0.29-0.17-0.44c-0.03-0.07-0.06-0.13-0.09-0.2c-0.08-0.18-0.16-0.37-0.25-0.55c-0.02-0.03-0.04-0.06-0.05-0.1
			c-3.03-6.02-11.09-10.39-20.67-10.5c-10.48-0.13-19.4,4.87-21.98,11.72c-0.01,0.02-0.01,0.03-0.02,0.05
			c-0.08,0.22-0.16,0.45-0.23,0.67c-0.02,0.06-0.03,0.12-0.05,0.19c-0.05,0.18-0.11,0.37-0.15,0.55c-0.03,0.12-0.05,0.25-0.08,0.37
			c-0.03,0.13-0.06,0.26-0.08,0.39c-0.04,0.22-0.06,0.44-0.09,0.66c0,0.04-0.01,0.08-0.02,0.12c-0.03,0.27-0.04,0.54-0.05,0.81
			c-0.06,2.4,0.65,4.69,1.95,6.75C95.45,79.07,102.75,82.8,111.36,83.11z M91.93,66.65c0.01-0.26,0.02-0.52,0.05-0.78
			c0.01-0.09,0.02-0.18,0.03-0.26c0.02-0.18,0.05-0.36,0.08-0.53c0.02-0.1,0.04-0.2,0.06-0.29c0.03-0.17,0.07-0.33,0.11-0.49
			c0.03-0.1,0.05-0.19,0.08-0.29c0.05-0.17,0.1-0.33,0.16-0.5c0.03-0.09,0.06-0.18,0.09-0.26c0.07-0.18,0.14-0.36,0.21-0.53
			c0.03-0.07,0.06-0.14,0.09-0.21c0.1-0.21,0.2-0.43,0.31-0.64c0.01-0.03,0.03-0.06,0.04-0.09c1.35-2.53,3.67-4.71,6.63-6.34
			c-0.01,0-0.01,0-0.01,0c3.58-1.97,8.1-3.13,12.99-3.07c4.64,0.06,8.89,1.2,12.29,3.07c-0.02,0-0.04-0.01-0.06-0.02
			c3.7,2.03,6.4,4.92,7.48,8.24c0.02,0.05,0.03,0.1,0.05,0.15c0.06,0.2,0.12,0.41,0.17,0.62c0.02,0.09,0.04,0.17,0.06,0.26
			c0.04,0.18,0.07,0.36,0.1,0.54c0.02,0.1,0.03,0.2,0.05,0.29c0.02,0.18,0.04,0.36,0.06,0.54c0.01,0.09,0.02,0.19,0.02,0.28
			c0.01,0.25,0.02,0.51,0.01,0.76c0,0.02,0,0.04,0,0.06c0,0,0,0,0,0.01c-0.01,0.48-0.07,0.95-0.15,1.42
			c-0.23,1.4-0.74,2.73-1.5,3.97c-0.27,0.45-0.56,0.89-0.9,1.32c-0.01,0.01-0.02,0.02-0.03,0.03c-0.21,0.27-0.44,0.54-0.68,0.81
			c-0.11,0.12-0.23,0.23-0.34,0.35c-0.12,0.13-0.24,0.26-0.37,0.38c-3.71,3.6-9.67,5.93-16.4,5.98c-0.19,0-0.38,0.01-0.58,0.01
			c-11.36-0.14-20.41-6.77-20.22-14.8C91.92,66.67,91.93,66.66,91.93,66.65z M112.23,76.75c0.57,0.01,1.14-0.01,1.7-0.05
			c6.65-0.43,12.09-3.88,13.53-8.41c0.22-0.7,0.35-1.43,0.37-2.18c0,0,0-0.01,0-0.01c0,0,0,0,0,0l0,0c0,0,0,0,0,0
			c0.05-2.19-0.82-4.23-2.35-5.95c-0.04-0.05-0.08-0.1-0.12-0.15c-0.01-0.01-0.01-0.01-0.02-0.02c-2.69-2.91-7.3-4.86-12.58-4.92
			c-6.88-0.08-12.78,3.05-14.83,7.44c-0.47,1.01-0.74,2.09-0.77,3.22C97.02,71.71,103.76,76.65,112.23,76.75z M98.61,65.51
			c0.02-0.79,0.19-1.56,0.46-2.3c1.03-2.81,3.77-5.13,7.39-6.36c1.9-0.65,4.03-1.01,6.28-0.98c2.71,0.03,5.22,0.62,7.34,1.6
			c3.86,1.79,6.39,4.88,6.31,8.39l0,0l0,0c-0.14,5.42-6.46,9.74-14.13,9.64c-5.75-0.07-10.63-2.6-12.65-6.15
			C98.94,68.16,98.58,66.87,98.61,65.51z"/>
	</g>
</g>
</svg>
