<?xml version="1.0" encoding="utf-8"?>
<!-- Generator: Adobe Illustrator 26.2.1, SVG Export Plug-In . SVG Version: 6.00 Build 0)  -->
<svg version="1.1" xmlns="http://www.w3.org/2000/svg" xmlns:xlink="http://www.w3.org/1999/xlink" x="0px" y="0px"
	 viewBox="0 0 225 225" style="enable-background:new 0 0 225 225;" xml:space="preserve">
<style type="text/css">
	.st0{display:none;}
	.st1{display:inline;fill:#FAB433;}
	.st2{fill:none;}
	.st3{fill:none;stroke:#000000;stroke-width:1.6;stroke-miterlimit:10;}
	.st4{fill:none;stroke:#000000;stroke-width:0.7265;stroke-miterlimit:10;}
	.st5{fill:none;stroke:#000000;stroke-linecap:round;stroke-linejoin:round;stroke-miterlimit:10;}
	.st6{fill:none;stroke:#000000;stroke-miterlimit:10;}
	.st7{fill:none;stroke:#000000;stroke-width:0.7105;stroke-miterlimit:10;}
	.st8{fill:none;stroke:#000000;stroke-width:5.4;stroke-linecap:round;stroke-linejoin:round;stroke-miterlimit:10;}
	.st9{fill:none;stroke:#000000;stroke-width:2.9309;stroke-linecap:round;stroke-linejoin:round;stroke-miterlimit:10;}
	.st10{fill:none;stroke:#000000;stroke-width:0.5;stroke-linecap:round;stroke-linejoin:round;}
	.st11{fill:none;stroke:#FFFFFF;stroke-width:0;stroke-linecap:round;stroke-linejoin:round;}
	.st12{fill:#FFFFFF;}
	.st13{fill:none;stroke:#000000;stroke-width:1.4;stroke-miterlimit:10;}
	.st14{fill:url(#);stroke:#000000;stroke-width:1.4387;stroke-miterlimit:10;}
	.st15{fill:url(#);stroke:#000000;stroke-width:1.3718;stroke-miterlimit:10;}
	.st16{fill:none;stroke:#000000;stroke-width:1.0041;stroke-miterlimit:10;}
	.st17{fill:none;stroke:#000000;stroke-width:1.3621;stroke-miterlimit:10;}
	.st18{fill:none;stroke:#000000;stroke-width:0.25;stroke-miterlimit:10;}
</style>
<g id="Layer_2" class="st0">
	<rect id="XMLID_3548_" x="-835.99" y="-275.01" class="st1" width="1160" height="772"/>
</g>
<g id="Layer_1">
	<g id="XMLID_21275_">
		<path id="XMLID_21281_" d="M74.88,151.18c6.73,6.77,15.64,10.97,24.63,12.04c8.99,1.13,18-0.77,25.34-4.84
			c7.38-4.05,13.09-10.17,16.62-16.87c3.57-6.72,4.96-13.98,4.65-20.6c-0.28,6.62-2.19,13.59-6.01,19.83
			c-3.79,6.23-9.49,11.71-16.53,15.22c-7.01,3.54-15.36,5.02-23.61,3.82c-8.24-1.15-16.3-5.05-22.45-11.23
			c-6.18-6.15-10.09-14.22-11.23-22.45c-1.19-8.3,0.29-16.57,3.82-23.6c3.52-7.04,8.99-12.74,15.22-16.54
			c6.24-3.82,13.21-5.73,19.83-6.01c-6.62-0.3-13.88,1.08-20.6,4.65c-6.7,3.54-12.82,9.25-16.87,16.62
			c-2.03,3.68-3.54,7.75-4.38,12.05c-0.42,2.16-0.68,4.33-0.76,6.59c-0.07,2.18,0.01,4.46,0.29,6.7
			C63.91,135.54,68.11,144.45,74.88,151.18z M160.76,91.69c-5.95-10.99-14.96-19.55-24.9-24.91c-9.95-5.41-20.78-7.62-30.71-7.31
			c9.93,0.27,20.46,3,29.93,8.68c9.47,5.63,17.84,14.18,23.25,24.82c5.44,10.6,7.76,23.28,5.99,35.84
			c-1.7,12.54-7.64,24.85-17.05,34.22c-9.37,9.42-21.68,15.35-34.22,17.05c-12.61,1.77-25.22-0.55-35.84-6
			c-10.65-5.41-19.2-13.78-24.82-23.25c-5.67-9.48-8.4-20-8.68-29.93c-0.31,9.93,1.9,20.75,7.32,30.71
			c5.36,9.94,13.92,18.95,24.91,24.9c5.47,2.97,11.53,5.18,17.89,6.39c3.19,0.61,6.42,0.97,9.76,1.08c3.25,0.1,6.61-0.04,9.92-0.46
			c13.3-1.62,26.45-7.85,36.4-17.86c10-9.95,16.23-23.1,17.86-36.4C169.48,115.96,166.75,102.62,160.76,91.69z M105.16,122.61
			c0.54,0.16,1.36-0.05,1.81-0.76c0.47-0.68,0.43-1.79-0.28-2.49c-0.35-0.34-0.79-0.55-1.27-0.58c-0.42-0.04-0.88,0.08-1.22,0.31
			c-0.7,0.45-0.91,1.27-0.76,1.81c0.14-0.55,0.55-1.03,1.07-1.21c0.26-0.09,0.52-0.11,0.82-0.05c0.24,0.05,0.5,0.19,0.7,0.38
			c0.39,0.38,0.51,1,0.33,1.51C106.19,122.06,105.71,122.47,105.16,122.61z M122.29,111.18c1.98,3,3.06,6.41,3.35,9.72
			c0.3-3.31-0.26-7.02-1.99-10.5c-1.7-3.47-4.56-6.68-8.33-8.85c-1.88-1.08-3.98-1.9-6.2-2.36c-1.12-0.23-2.23-0.38-3.43-0.43
			c-1.11-0.05-2.31-0.02-3.47,0.12c-4.68,0.52-9.35,2.69-12.86,6.22c-3.53,3.51-5.71,8.17-6.22,12.86c-0.54,4.68,0.5,9.35,2.68,13.1
			c2.16,3.77,5.38,6.63,8.85,8.33c3.48,1.72,7.19,2.28,10.49,1.98c-3.31-0.28-6.72-1.37-9.72-3.34c-3-1.97-5.58-4.81-7.2-8.25
			c-1.63-3.42-2.27-7.43-1.66-11.37c0.59-3.93,2.47-7.75,5.41-10.68c2.93-2.94,6.75-4.82,10.68-5.41c3.98-0.61,7.92,0.02,11.37,1.66
			C117.48,105.61,120.32,108.18,122.29,111.18z"/>
		<path id="XMLID_21276_" d="M68.96,84.7c-6.07,5.63-11.19,13.3-13.91,22.37c-2.74,9.03-3.04,19.42-0.09,29.45
			c1.47,5,3.74,9.9,6.78,14.39c1.53,2.26,3.22,4.38,5.13,6.43c1.86,1.99,3.94,3.9,6.15,5.61c8.83,6.93,20.32,11.04,32.15,11
			c11.83,0.03,23.31-4.08,32.15-11c8.88-6.88,15.15-16.41,18.05-26.43c2.96-10.03,2.65-20.42-0.08-29.45
			c-2.72-9.07-7.84-16.74-13.91-22.37c5.66,6.05,10.2,13.87,12.4,22.79c2.22,8.88,2.08,18.82-1.02,28.22
			c-3.05,9.4-9.14,18.18-17.55,24.49c-8.35,6.34-19.04,10.06-30.04,10.03c-11,0.03-21.68-3.69-30.04-10.03
			c-8.43-6.34-14.47-15.07-17.54-24.49c-3.1-9.41-3.24-19.34-1.02-28.22C58.76,98.57,63.29,90.75,68.96,84.7z M163.48,76.32
			c-9.52-12.34-22.72-21.08-36.62-25.17c-13.91-4.17-28.37-3.83-40.99-0.1c-12.67,3.7-23.43,10.76-31.4,19.18
			c8.38-8.01,19.31-14.48,31.82-17.66c12.46-3.21,26.47-3.11,39.76,1.21c13.28,4.24,25.72,12.8,34.67,24.66
			c8.99,11.79,14.28,26.91,14.24,42.47c0.04,15.57-5.25,30.68-14.24,42.47c-8.98,11.9-21.37,20.41-34.67,24.66
			c-13.3,4.31-27.3,4.42-39.76,1.21c-12.51-3.18-23.43-9.66-31.82-17.66c7.97,8.41,18.73,15.47,31.4,19.17
			c12.61,3.73,27.07,4.06,40.99-0.1c6.95-2.07,13.73-5.24,19.95-9.49c3.12-2.13,6.07-4.49,8.89-7.14c2.76-2.6,5.39-5.47,7.77-8.55
			c9.58-12.27,15.25-28.19,15.21-44.58C178.74,104.51,173.06,88.59,163.48,76.32z M115.4,123.73c0.63-1.83,0.76-3.97,0.18-6.07
			c-0.56-2.1-1.84-4.11-3.69-5.58c-1.84-1.48-4.26-2.35-6.75-2.35c-2.49,0-4.91,0.87-6.75,2.35c-1.85,1.46-3.13,3.48-3.68,5.58
			c-0.57,2.1-0.44,4.24,0.18,6.07c0.62,1.84,1.73,3.35,3.01,4.41c-2.17-2.5-3.2-6.47-1.88-10.08c0.63-1.78,1.82-3.43,3.43-4.6
			c1.6-1.19,3.61-1.86,5.69-1.87c2.08,0,4.09,0.68,5.69,1.87c1.61,1.18,2.8,2.82,3.44,4.61c1.31,3.61,0.29,7.57-1.89,10.08
			C113.67,127.08,114.79,125.57,115.4,123.73z M113.54,90.53c-5.45-1.74-11.78-2.02-17.92-0.27c-3.06,0.87-6.07,2.23-8.83,4.07
			c-1.39,0.93-2.69,1.95-3.96,3.12c-1.21,1.12-2.4,2.39-3.45,3.74c-4.27,5.39-6.82,12.45-6.8,19.71c-0.02,7.26,2.53,14.32,6.8,19.71
			c4.24,5.42,10.12,9.22,16.25,10.93c6.14,1.74,12.47,1.47,17.92-0.27c5.47-1.73,10.04-4.93,13.34-8.65
			c-3.71,3.31-8.44,5.92-13.75,7.14c-5.3,1.23-11.17,1.06-16.69-0.83c-5.52-1.86-10.63-5.48-14.31-10.43
			c-3.68-4.91-5.84-11.16-5.83-17.6c-0.01-6.44,2.14-12.68,5.83-17.6c3.71-4.98,8.77-8.55,14.31-10.43
			c5.52-1.89,11.39-2.06,16.69-0.83c5.32,1.21,10.04,3.82,13.76,7.14C123.58,95.46,119.01,92.27,113.54,90.53z"/>
	</g>
</g>
</svg>
