<?xml version="1.0" encoding="utf-8"?>
<!-- Generator: Adobe Illustrator 26.2.1, SVG Export Plug-In . SVG Version: 6.00 Build 0)  -->
<svg version="1.1" xmlns="http://www.w3.org/2000/svg" xmlns:xlink="http://www.w3.org/1999/xlink" x="0px" y="0px"
	 viewBox="0 0 225 225" style="enable-background:new 0 0 225 225;" xml:space="preserve">
<style type="text/css">
	.st0{display:none;}
	.st1{display:inline;fill:#FAB433;}
	.st2{fill:none;}
	.st3{fill:none;stroke:#000000;stroke-width:1.6;stroke-miterlimit:10;}
	.st4{fill:none;stroke:#000000;stroke-width:0.7265;stroke-miterlimit:10;}
	.st5{fill:none;stroke:#000000;stroke-linecap:round;stroke-linejoin:round;stroke-miterlimit:10;}
	.st6{fill:none;stroke:#000000;stroke-miterlimit:10;}
	.st7{fill:none;stroke:#000000;stroke-width:0.7105;stroke-miterlimit:10;}
	.st8{fill:none;stroke:#000000;stroke-width:5.4;stroke-linecap:round;stroke-linejoin:round;stroke-miterlimit:10;}
	.st9{fill:none;stroke:#000000;stroke-width:2.9309;stroke-linecap:round;stroke-linejoin:round;stroke-miterlimit:10;}
	.st10{fill:none;stroke:#000000;stroke-width:0.5;stroke-linecap:round;stroke-linejoin:round;}
	.st11{fill:none;stroke:#FFFFFF;stroke-width:0;stroke-linecap:round;stroke-linejoin:round;}
	.st12{fill:#FFFFFF;}
	.st13{fill:none;stroke:#000000;stroke-width:1.4;stroke-miterlimit:10;}
	.st14{fill:url(#);stroke:#000000;stroke-width:1.4387;stroke-miterlimit:10;}
	.st15{fill:url(#);stroke:#000000;stroke-width:1.3718;stroke-miterlimit:10;}
	.st16{fill:none;stroke:#000000;stroke-width:1.0041;stroke-miterlimit:10;}
	.st17{fill:none;stroke:#000000;stroke-width:1.3621;stroke-miterlimit:10;}
	.st18{fill:none;stroke:#000000;stroke-width:0.25;stroke-miterlimit:10;}
</style>
<g id="Layer_2" class="st0">
	<rect id="XMLID_4_" x="-835.99" y="-275.01" class="st1" width="1160" height="772"/>
</g>
<g id="Layer_1">
	<path id="XMLID_24466_" d="M54.75,77.92c0.33,0,0.59-0.26,0.59-0.59c0-0.33-0.27-0.59-0.59-0.59c-0.33,0-0.59,0.26-0.59,0.59
		C54.16,77.66,54.43,77.92,54.75,77.92z M63,77.92c0.33,0,0.59-0.26,0.59-0.59c0-0.33-0.27-0.59-0.59-0.59
		c-0.33,0-0.59,0.26-0.59,0.59C62.41,77.66,62.68,77.92,63,77.92z M71.25,77.92c0.33,0,0.59-0.26,0.59-0.59
		c0-0.33-0.26-0.59-0.59-0.59c-0.33,0-0.59,0.26-0.59,0.59C70.66,77.66,70.93,77.92,71.25,77.92z M79.5,77.92
		c0.33,0,0.59-0.26,0.59-0.59c0-0.33-0.27-0.59-0.59-0.59c-0.33,0-0.59,0.26-0.59,0.59C78.91,77.66,79.18,77.92,79.5,77.92z
		 M87.75,77.92c0.33,0,0.59-0.26,0.59-0.59c0-0.33-0.27-0.59-0.59-0.59c-0.33,0-0.59,0.26-0.59,0.59
		C87.16,77.66,87.42,77.92,87.75,77.92z M96,77.92c0.33,0,0.59-0.26,0.59-0.59c0-0.33-0.26-0.59-0.59-0.59
		c-0.33,0-0.59,0.26-0.59,0.59C95.41,77.66,95.67,77.92,96,77.92z M104.25,77.92c0.33,0,0.59-0.26,0.59-0.59
		c0-0.33-0.27-0.59-0.59-0.59c-0.33,0-0.59,0.26-0.59,0.59C103.66,77.66,103.92,77.92,104.25,77.92z M112.5,77.92
		c0.33,0,0.59-0.26,0.59-0.59c0-0.33-0.27-0.59-0.59-0.59c-0.32,0-0.59,0.26-0.59,0.59C111.91,77.66,112.18,77.92,112.5,77.92z
		 M120.75,77.92c0.33,0,0.59-0.26,0.59-0.59c0-0.33-0.26-0.59-0.59-0.59c-0.33,0-0.59,0.26-0.59,0.59
		C120.16,77.66,120.42,77.92,120.75,77.92z M129,77.92c0.33,0,0.59-0.26,0.59-0.59c0-0.33-0.27-0.59-0.59-0.59
		c-0.33,0-0.59,0.26-0.59,0.59C128.41,77.66,128.67,77.92,129,77.92z M137.25,77.92c0.33,0,0.59-0.26,0.59-0.59
		c0-0.33-0.27-0.59-0.59-0.59c-0.33,0-0.59,0.26-0.59,0.59C136.66,77.66,136.92,77.92,137.25,77.92z M145.5,77.92
		c0.33,0,0.59-0.26,0.59-0.59c0-0.33-0.26-0.59-0.59-0.59c-0.33,0-0.59,0.26-0.59,0.59C144.91,77.66,145.17,77.92,145.5,77.92z
		 M153.75,77.92c0.33,0,0.59-0.26,0.59-0.59c0-0.33-0.26-0.59-0.59-0.59c-0.33,0-0.59,0.26-0.59,0.59
		C153.16,77.66,153.42,77.92,153.75,77.92z M162,77.92c0.33,0,0.59-0.26,0.59-0.59c0-0.33-0.27-0.59-0.59-0.59s-0.59,0.26-0.59,0.59
		C161.41,77.66,161.67,77.92,162,77.92z M170.25,77.92c0.32,0,0.59-0.26,0.59-0.59c0-0.33-0.27-0.59-0.59-0.59
		c-0.33,0-0.59,0.26-0.59,0.59C169.66,77.66,169.92,77.92,170.25,77.92z M50.63,86.3c0.4,0,0.72-0.32,0.72-0.72
		c0-0.4-0.32-0.72-0.72-0.72s-0.72,0.32-0.72,0.72C49.91,85.98,50.23,86.3,50.63,86.3z M58.88,86.3c0.4,0,0.72-0.32,0.72-0.72
		c0-0.4-0.32-0.72-0.72-0.72c-0.4,0-0.72,0.32-0.72,0.72C58.16,85.98,58.48,86.3,58.88,86.3z M67.13,86.3c0.4,0,0.72-0.32,0.72-0.72
		c0-0.4-0.32-0.72-0.72-0.72c-0.4,0-0.72,0.32-0.72,0.72C66.41,85.98,66.73,86.3,67.13,86.3z M75.38,86.3c0.4,0,0.72-0.32,0.72-0.72
		c0-0.4-0.32-0.72-0.72-0.72c-0.4,0-0.72,0.32-0.72,0.72C74.66,85.98,74.98,86.3,75.38,86.3z M83.63,86.3c0.4,0,0.72-0.32,0.72-0.72
		c0-0.4-0.32-0.72-0.72-0.72c-0.4,0-0.72,0.32-0.72,0.72C82.91,85.98,83.23,86.3,83.63,86.3z M91.88,86.3c0.4,0,0.72-0.32,0.72-0.72
		c0-0.4-0.32-0.72-0.72-0.72c-0.4,0-0.72,0.32-0.72,0.72C91.16,85.98,91.48,86.3,91.88,86.3z M100.13,86.3
		c0.4,0,0.72-0.32,0.72-0.72c0-0.4-0.32-0.72-0.72-0.72c-0.4,0-0.72,0.32-0.72,0.72C99.41,85.98,99.73,86.3,100.13,86.3z
		 M108.38,86.3c0.4,0,0.72-0.32,0.72-0.72c0-0.4-0.32-0.72-0.72-0.72c-0.4,0-0.72,0.32-0.72,0.72
		C107.66,85.98,107.98,86.3,108.38,86.3z M116.63,86.3c0.4,0,0.72-0.32,0.72-0.72c0-0.4-0.32-0.72-0.72-0.72
		c-0.4,0-0.72,0.32-0.72,0.72C115.91,85.98,116.23,86.3,116.63,86.3z M124.87,86.3c0.4,0,0.72-0.32,0.72-0.72
		c0-0.4-0.32-0.72-0.72-0.72c-0.4,0-0.72,0.32-0.72,0.72C124.15,85.98,124.48,86.3,124.87,86.3z M133.13,86.3
		c0.4,0,0.72-0.32,0.72-0.72c0-0.4-0.32-0.72-0.72-0.72c-0.4,0-0.72,0.32-0.72,0.72C132.4,85.98,132.73,86.3,133.13,86.3z
		 M141.37,86.3c0.4,0,0.72-0.32,0.72-0.72c0-0.4-0.32-0.72-0.72-0.72c-0.4,0-0.72,0.32-0.72,0.72
		C140.65,85.98,140.98,86.3,141.37,86.3z M149.62,86.3c0.4,0,0.72-0.32,0.72-0.72c0-0.4-0.32-0.72-0.72-0.72
		c-0.4,0-0.72,0.32-0.72,0.72C148.9,85.98,149.23,86.3,149.62,86.3z M157.87,86.3c0.4,0,0.72-0.32,0.72-0.72
		c0-0.4-0.32-0.72-0.72-0.72c-0.4,0-0.72,0.32-0.72,0.72C157.15,85.98,157.48,86.3,157.87,86.3z M166.12,86.3
		c0.4,0,0.72-0.32,0.72-0.72c0-0.4-0.32-0.72-0.72-0.72c-0.4,0-0.72,0.32-0.72,0.72C165.4,85.98,165.72,86.3,166.12,86.3z
		 M174.37,86.3c0.4,0,0.72-0.32,0.72-0.72c0-0.4-0.32-0.72-0.72-0.72c-0.4,0-0.72,0.32-0.72,0.72
		C173.65,85.98,173.97,86.3,174.37,86.3z M46.51,94.68c0.47,0,0.86-0.38,0.86-0.86c0-0.47-0.38-0.86-0.86-0.86
		c-0.47,0-0.86,0.38-0.86,0.86C45.65,94.3,46.03,94.68,46.51,94.68z M54.75,94.68c0.47,0,0.86-0.38,0.86-0.86
		c0-0.47-0.38-0.86-0.86-0.86c-0.47,0-0.86,0.38-0.86,0.86C53.9,94.3,54.28,94.68,54.75,94.68z M63,94.68
		c0.47,0,0.86-0.38,0.86-0.86c0-0.47-0.38-0.86-0.86-0.86s-0.86,0.38-0.86,0.86C62.15,94.3,62.53,94.68,63,94.68z M71.25,94.68
		c0.47,0,0.86-0.38,0.86-0.86c0-0.47-0.38-0.86-0.86-0.86c-0.47,0-0.86,0.38-0.86,0.86C70.4,94.3,70.78,94.68,71.25,94.68z
		 M79.5,94.68c0.47,0,0.86-0.38,0.86-0.86c0-0.47-0.38-0.86-0.86-0.86c-0.47,0-0.86,0.38-0.86,0.86
		C78.64,94.3,79.03,94.68,79.5,94.68z M87.75,94.68c0.48,0,0.86-0.38,0.86-0.86c0-0.47-0.38-0.86-0.86-0.86
		c-0.47,0-0.86,0.38-0.86,0.86C86.9,94.3,87.28,94.68,87.75,94.68z M96,94.68c0.47,0,0.86-0.38,0.86-0.86
		c0-0.47-0.38-0.86-0.86-0.86s-0.86,0.38-0.86,0.86C95.14,94.3,95.53,94.68,96,94.68z M104.25,94.68c0.47,0,0.86-0.38,0.86-0.86
		c0-0.47-0.38-0.86-0.86-0.86c-0.48,0-0.86,0.38-0.86,0.86C103.39,94.3,103.78,94.68,104.25,94.68z M112.5,94.68
		c0.48,0,0.86-0.38,0.86-0.86c0-0.47-0.38-0.86-0.86-0.86c-0.47,0-0.86,0.38-0.86,0.86C111.64,94.3,112.03,94.68,112.5,94.68z
		 M120.75,94.68c0.47,0,0.86-0.38,0.86-0.86c0-0.47-0.39-0.86-0.86-0.86c-0.47,0-0.86,0.38-0.86,0.86
		C119.89,94.3,120.28,94.68,120.75,94.68z M129,94.68c0.47,0,0.86-0.38,0.86-0.86c0-0.47-0.38-0.86-0.86-0.86
		c-0.48,0-0.86,0.38-0.86,0.86C128.14,94.3,128.52,94.68,129,94.68z M137.25,94.68c0.48,0,0.86-0.38,0.86-0.86
		c0-0.47-0.38-0.86-0.86-0.86c-0.47,0-0.86,0.38-0.86,0.86C136.39,94.3,136.77,94.68,137.25,94.68z M145.5,94.68
		c0.47,0,0.86-0.38,0.86-0.86c0-0.47-0.38-0.86-0.86-0.86c-0.47,0-0.86,0.38-0.86,0.86C144.64,94.3,145.03,94.68,145.5,94.68z
		 M153.75,94.68c0.47,0,0.86-0.38,0.86-0.86c0-0.47-0.38-0.86-0.86-0.86c-0.48,0-0.86,0.38-0.86,0.86
		C152.89,94.3,153.27,94.68,153.75,94.68z M162,94.68c0.47,0,0.86-0.38,0.86-0.86c0-0.47-0.38-0.86-0.86-0.86
		c-0.47,0-0.86,0.38-0.86,0.86C161.14,94.3,161.52,94.68,162,94.68z M170.25,94.68c0.47,0,0.86-0.38,0.86-0.86
		c0-0.47-0.38-0.86-0.86-0.86c-0.47,0-0.86,0.38-0.86,0.86C169.39,94.3,169.77,94.68,170.25,94.68z M178.5,94.68
		c0.47,0,0.86-0.38,0.86-0.86c0-0.47-0.38-0.86-0.86-0.86c-0.47,0-0.86,0.38-0.86,0.86C177.64,94.3,178.03,94.68,178.5,94.68z
		 M50.63,98.87c0.51,0,0.92-0.41,0.92-0.92c0-0.51-0.41-0.92-0.92-0.92s-0.92,0.41-0.92,0.92C49.71,98.46,50.12,98.87,50.63,98.87z
		 M58.88,98.87c0.51,0,0.92-0.41,0.92-0.92c0-0.51-0.41-0.92-0.92-0.92c-0.51,0-0.92,0.41-0.92,0.92
		C57.96,98.46,58.37,98.87,58.88,98.87z M67.13,98.87c0.51,0,0.92-0.41,0.92-0.92c0-0.51-0.41-0.92-0.92-0.92s-0.92,0.41-0.92,0.92
		C66.21,98.46,66.62,98.87,67.13,98.87z M75.38,98.87c0.51,0,0.92-0.41,0.92-0.92c0-0.51-0.41-0.92-0.92-0.92s-0.92,0.41-0.92,0.92
		C74.46,98.46,74.87,98.87,75.38,98.87z M83.63,98.87c0.51,0,0.92-0.41,0.92-0.92c0-0.51-0.41-0.92-0.92-0.92
		c-0.51,0-0.92,0.41-0.92,0.92C82.71,98.46,83.12,98.87,83.63,98.87z M91.88,98.87c0.51,0,0.92-0.41,0.92-0.92
		c0-0.51-0.41-0.92-0.92-0.92s-0.92,0.41-0.92,0.92C90.96,98.46,91.37,98.87,91.88,98.87z M100.13,98.87c0.51,0,0.92-0.41,0.92-0.92
		c0-0.51-0.41-0.92-0.92-0.92s-0.92,0.41-0.92,0.92C99.21,98.46,99.62,98.87,100.13,98.87z M108.38,98.87
		c0.51,0,0.92-0.41,0.92-0.92c0-0.51-0.41-0.92-0.92-0.92c-0.51,0-0.92,0.41-0.92,0.92C107.46,98.46,107.87,98.87,108.38,98.87z
		 M116.63,98.87c0.51,0,0.92-0.41,0.92-0.92c0-0.51-0.41-0.92-0.92-0.92c-0.51,0-0.92,0.41-0.92,0.92
		C115.71,98.46,116.12,98.87,116.63,98.87z M124.87,98.87c0.51,0,0.92-0.41,0.92-0.92c0-0.51-0.41-0.92-0.92-0.92
		c-0.51,0-0.92,0.41-0.92,0.92C123.96,98.46,124.37,98.87,124.87,98.87z M133.13,98.87c0.51,0,0.92-0.41,0.92-0.92
		c0-0.51-0.41-0.92-0.92-0.92c-0.51,0-0.92,0.41-0.92,0.92C132.21,98.46,132.62,98.87,133.13,98.87z M141.37,98.87
		c0.51,0,0.92-0.41,0.92-0.92c0-0.51-0.41-0.92-0.92-0.92c-0.51,0-0.92,0.41-0.92,0.92C140.46,98.46,140.87,98.87,141.37,98.87z
		 M149.62,98.87c0.51,0,0.92-0.41,0.92-0.92c0-0.51-0.41-0.92-0.92-0.92c-0.51,0-0.92,0.41-0.92,0.92
		C148.71,98.46,149.12,98.87,149.62,98.87z M157.87,98.87c0.51,0,0.92-0.41,0.92-0.92c0-0.51-0.41-0.92-0.92-0.92
		c-0.51,0-0.92,0.41-0.92,0.92C156.96,98.46,157.37,98.87,157.87,98.87z M166.12,98.87c0.51,0,0.92-0.41,0.92-0.92
		c0-0.51-0.41-0.92-0.92-0.92c-0.51,0-0.92,0.41-0.92,0.92C165.21,98.46,165.62,98.87,166.12,98.87z M174.37,98.87
		c0.51,0,0.92-0.41,0.92-0.92c0-0.51-0.41-0.92-0.92-0.92c-0.51,0-0.92,0.41-0.92,0.92C173.45,98.46,173.86,98.87,174.37,98.87z
		 M50.63,103.07c0.55,0,0.99-0.44,0.99-0.99c0-0.55-0.44-0.99-0.99-0.99c-0.54,0-0.99,0.44-0.99,0.99
		C49.64,102.62,50.08,103.07,50.63,103.07z M58.88,103.07c0.54,0,0.99-0.44,0.99-0.99c0-0.55-0.44-0.99-0.99-0.99
		c-0.55,0-0.99,0.44-0.99,0.99C57.89,102.62,58.33,103.07,58.88,103.07z M67.13,103.07c0.55,0,0.99-0.44,0.99-0.99
		c0-0.55-0.44-0.99-0.99-0.99c-0.54,0-0.99,0.44-0.99,0.99C66.14,102.62,66.58,103.07,67.13,103.07z M75.38,103.07
		c0.54,0,0.99-0.44,0.99-0.99c0-0.55-0.44-0.99-0.99-0.99c-0.55,0-0.99,0.44-0.99,0.99C74.39,102.62,74.83,103.07,75.38,103.07z
		 M83.63,103.07c0.55,0,0.99-0.44,0.99-0.99c0-0.55-0.44-0.99-0.99-0.99c-0.54,0-0.99,0.44-0.99,0.99
		C82.64,102.62,83.08,103.07,83.63,103.07z M91.88,103.07c0.54,0,0.99-0.44,0.99-0.99c0-0.55-0.44-0.99-0.99-0.99
		c-0.55,0-0.99,0.44-0.99,0.99C90.89,102.62,91.33,103.07,91.88,103.07z M100.13,103.07c0.55,0,0.99-0.44,0.99-0.99
		c0-0.55-0.44-0.99-0.99-0.99c-0.54,0-0.98,0.44-0.98,0.99C99.14,102.62,99.58,103.07,100.13,103.07z M108.38,103.07
		c0.54,0,0.99-0.44,0.99-0.99c0-0.55-0.44-0.99-0.99-0.99c-0.54,0-0.99,0.44-0.99,0.99C107.39,102.62,107.83,103.07,108.38,103.07z
		 M116.63,103.07c0.55,0,0.99-0.44,0.99-0.99c0-0.55-0.44-0.99-0.99-0.99c-0.55,0-0.99,0.44-0.99,0.99
		C115.64,102.62,116.08,103.07,116.63,103.07z M124.87,103.07c0.55,0,0.99-0.44,0.99-0.99c0-0.55-0.44-0.99-0.99-0.99
		c-0.54,0-0.99,0.44-0.99,0.99C123.89,102.62,124.33,103.07,124.87,103.07z M133.13,103.07c0.54,0,0.99-0.44,0.99-0.99
		c0-0.55-0.44-0.99-0.99-0.99c-0.54,0-0.99,0.44-0.99,0.99C132.14,102.62,132.58,103.07,133.13,103.07z M141.37,103.07
		c0.54,0,0.98-0.44,0.98-0.99c0-0.55-0.44-0.99-0.98-0.99c-0.55,0-0.99,0.44-0.99,0.99C140.39,102.62,140.83,103.07,141.37,103.07z
		 M149.62,103.07c0.55,0,0.99-0.44,0.99-0.99c0-0.55-0.44-0.99-0.99-0.99c-0.54,0-0.99,0.44-0.99,0.99
		C148.64,102.62,149.08,103.07,149.62,103.07z M157.87,103.07c0.54,0,0.99-0.44,0.99-0.99c0-0.55-0.44-0.99-0.99-0.99
		c-0.55,0-0.99,0.44-0.99,0.99C156.89,102.62,157.33,103.07,157.87,103.07z M166.12,103.07c0.55,0,0.99-0.44,0.99-0.99
		c0-0.55-0.44-0.99-0.99-0.99c-0.54,0-0.99,0.44-0.99,0.99C165.14,102.62,165.58,103.07,166.12,103.07z M174.37,103.07
		c0.54,0,0.99-0.44,0.99-0.99c0-0.55-0.44-0.99-0.99-0.99c-0.55,0-0.99,0.44-0.99,0.99C173.39,102.62,173.83,103.07,174.37,103.07z
		 M46.51,107.26c0.58,0,1.06-0.47,1.06-1.05s-0.47-1.06-1.06-1.06c-0.58,0-1.05,0.47-1.05,1.06S45.92,107.26,46.51,107.26z
		 M54.75,107.26c0.58,0,1.05-0.47,1.05-1.05s-0.47-1.06-1.05-1.06c-0.58,0-1.05,0.47-1.05,1.06S54.17,107.26,54.75,107.26z
		 M63,107.26c0.58,0,1.06-0.47,1.06-1.05s-0.47-1.06-1.06-1.06c-0.58,0-1.05,0.47-1.05,1.06S62.42,107.26,63,107.26z M71.25,107.26
		c0.58,0,1.05-0.47,1.05-1.05s-0.47-1.06-1.05-1.06c-0.58,0-1.05,0.47-1.05,1.06S70.67,107.26,71.25,107.26z M79.5,107.26
		c0.58,0,1.05-0.47,1.05-1.05s-0.47-1.06-1.05-1.06c-0.58,0-1.06,0.47-1.06,1.06S78.92,107.26,79.5,107.26z M87.75,107.26
		c0.58,0,1.06-0.47,1.06-1.05s-0.47-1.06-1.06-1.06c-0.58,0-1.05,0.47-1.05,1.06S87.17,107.26,87.75,107.26z M96,107.26
		c0.58,0,1.05-0.47,1.05-1.05s-0.47-1.06-1.05-1.06s-1.05,0.47-1.05,1.06S95.42,107.26,96,107.26z M104.25,107.26
		c0.58,0,1.05-0.47,1.05-1.05s-0.47-1.06-1.05-1.06c-0.58,0-1.06,0.47-1.06,1.06S103.67,107.26,104.25,107.26z M112.5,107.26
		c0.58,0,1.06-0.47,1.06-1.05s-0.47-1.06-1.06-1.06s-1.05,0.47-1.05,1.06S111.92,107.26,112.5,107.26z M120.75,107.26
		c0.58,0,1.05-0.47,1.05-1.05s-0.47-1.06-1.05-1.06c-0.58,0-1.05,0.47-1.05,1.06S120.17,107.26,120.75,107.26z M129,107.26
		c0.58,0,1.05-0.47,1.05-1.05s-0.47-1.06-1.05-1.06c-0.58,0-1.06,0.47-1.06,1.06S128.42,107.26,129,107.26z M137.25,107.26
		c0.58,0,1.06-0.47,1.06-1.05s-0.47-1.06-1.06-1.06s-1.05,0.47-1.05,1.06S136.67,107.26,137.25,107.26z M145.5,107.26
		c0.58,0,1.05-0.47,1.05-1.05s-0.47-1.06-1.05-1.06c-0.58,0-1.05,0.47-1.05,1.06S144.92,107.26,145.5,107.26z M153.75,107.26
		c0.58,0,1.05-0.47,1.05-1.05s-0.47-1.06-1.05-1.06s-1.06,0.47-1.06,1.06S153.17,107.26,153.75,107.26z M162,107.26
		c0.58,0,1.05-0.47,1.05-1.05s-0.47-1.06-1.05-1.06s-1.05,0.47-1.05,1.06S161.42,107.26,162,107.26z M170.25,107.26
		c0.58,0,1.05-0.47,1.05-1.05s-0.47-1.06-1.05-1.06c-0.58,0-1.05,0.47-1.05,1.06S169.66,107.26,170.25,107.26z M178.5,107.26
		c0.58,0,1.05-0.47,1.05-1.05s-0.47-1.06-1.05-1.06c-0.58,0-1.05,0.47-1.05,1.06S177.91,107.26,178.5,107.26z M50.63,111.44
		c0.62,0,1.11-0.5,1.11-1.12c0-0.62-0.5-1.12-1.11-1.12c-0.62,0-1.11,0.5-1.11,1.12C49.52,110.94,50.01,111.44,50.63,111.44z
		 M58.88,111.44c0.61,0,1.11-0.5,1.11-1.12c0-0.62-0.5-1.12-1.11-1.12c-0.62,0-1.12,0.5-1.12,1.12
		C57.76,110.94,58.26,111.44,58.88,111.44z M67.13,111.44c0.62,0,1.12-0.5,1.12-1.12c0-0.62-0.5-1.12-1.12-1.12
		c-0.61,0-1.11,0.5-1.11,1.12C66.01,110.94,66.51,111.44,67.13,111.44z M75.38,111.44c0.62,0,1.11-0.5,1.11-1.12
		c0-0.62-0.5-1.12-1.11-1.12c-0.62,0-1.12,0.5-1.12,1.12C74.26,110.94,74.76,111.44,75.38,111.44z M83.63,111.44
		c0.62,0,1.12-0.5,1.12-1.12c0-0.62-0.5-1.12-1.12-1.12c-0.61,0-1.11,0.5-1.11,1.12C82.51,110.94,83.01,111.44,83.63,111.44z
		 M91.88,111.44c0.62,0,1.12-0.5,1.12-1.12c0-0.62-0.5-1.12-1.12-1.12c-0.61,0-1.11,0.5-1.11,1.12
		C90.76,110.94,91.26,111.44,91.88,111.44z M100.13,111.44c0.62,0,1.12-0.5,1.12-1.12c0-0.62-0.5-1.12-1.12-1.12
		c-0.62,0-1.12,0.5-1.12,1.12C99.01,110.94,99.51,111.44,100.13,111.44z M108.38,111.44c0.62,0,1.12-0.5,1.12-1.12
		c0-0.62-0.5-1.12-1.12-1.12c-0.61,0-1.11,0.5-1.11,1.12C107.26,110.94,107.76,111.44,108.38,111.44z M116.63,111.44
		c0.61,0,1.11-0.5,1.11-1.12c0-0.62-0.5-1.12-1.11-1.12c-0.62,0-1.12,0.5-1.12,1.12C115.51,110.94,116.01,111.44,116.63,111.44z
		 M124.87,111.44c0.62,0,1.12-0.5,1.12-1.12c0-0.62-0.5-1.12-1.12-1.12c-0.61,0-1.11,0.5-1.11,1.12
		C123.76,110.94,124.26,111.44,124.87,111.44z M133.13,111.44c0.61,0,1.11-0.5,1.11-1.12c0-0.62-0.5-1.12-1.11-1.12
		c-0.62,0-1.12,0.5-1.12,1.12C132.01,110.94,132.51,111.44,133.13,111.44z M141.37,111.44c0.62,0,1.12-0.5,1.12-1.12
		c0-0.62-0.5-1.12-1.12-1.12c-0.62,0-1.12,0.5-1.12,1.12C140.26,110.94,140.76,111.44,141.37,111.44z M149.62,111.44
		c0.62,0,1.12-0.5,1.12-1.12c0-0.62-0.5-1.12-1.12-1.12c-0.61,0-1.11,0.5-1.11,1.12C148.51,110.94,149.01,111.44,149.62,111.44z
		 M157.87,111.44c0.62,0,1.12-0.5,1.12-1.12c0-0.62-0.5-1.12-1.12-1.12c-0.62,0-1.12,0.5-1.12,1.12
		C156.76,110.94,157.26,111.44,157.87,111.44z M166.12,111.44c0.62,0,1.12-0.5,1.12-1.12c0-0.62-0.5-1.12-1.12-1.12
		c-0.62,0-1.11,0.5-1.11,1.12C165.01,110.94,165.51,111.44,166.12,111.44z M174.37,111.44c0.61,0,1.11-0.5,1.11-1.12
		c0-0.62-0.5-1.12-1.11-1.12c-0.62,0-1.12,0.5-1.12,1.12C173.26,110.94,173.76,111.44,174.37,111.44z M182.62,111.44
		c0.62,0,1.12-0.5,1.12-1.12c0-0.62-0.5-1.12-1.12-1.12c-0.62,0-1.12,0.5-1.12,1.12C181.51,110.94,182.01,111.44,182.62,111.44z
		 M46.51,115.64c0.65,0,1.18-0.53,1.18-1.18c0-0.65-0.53-1.19-1.18-1.19c-0.65,0-1.18,0.53-1.18,1.19
		C45.32,115.11,45.85,115.64,46.51,115.64z M54.75,115.64c0.65,0,1.18-0.53,1.18-1.18c0-0.65-0.53-1.19-1.18-1.19
		c-0.65,0-1.18,0.53-1.18,1.19C53.57,115.11,54.1,115.64,54.75,115.64z M63,115.64c0.65,0,1.18-0.53,1.18-1.18
		c0-0.65-0.53-1.19-1.18-1.19s-1.18,0.53-1.18,1.19C61.82,115.11,62.35,115.64,63,115.64z M71.25,115.64c0.65,0,1.19-0.53,1.19-1.18
		c0-0.65-0.53-1.19-1.19-1.19c-0.65,0-1.18,0.53-1.18,1.19C70.07,115.11,70.6,115.64,71.25,115.64z M79.5,115.64
		c0.65,0,1.18-0.53,1.18-1.18c0-0.65-0.53-1.19-1.18-1.19c-0.65,0-1.18,0.53-1.18,1.19C78.32,115.11,78.85,115.64,79.5,115.64z
		 M87.75,115.64c0.65,0,1.18-0.53,1.18-1.18c0-0.65-0.53-1.19-1.18-1.19c-0.65,0-1.18,0.53-1.18,1.19
		C86.57,115.11,87.1,115.64,87.75,115.64z M96,115.64c0.65,0,1.19-0.53,1.19-1.18c0-0.65-0.53-1.19-1.19-1.19
		c-0.65,0-1.18,0.53-1.18,1.19C94.82,115.11,95.35,115.64,96,115.64z M104.25,115.64c0.65,0,1.18-0.53,1.18-1.18
		c0-0.65-0.53-1.19-1.18-1.19c-0.65,0-1.19,0.53-1.19,1.19C103.07,115.11,103.6,115.64,104.25,115.64z M112.5,115.64
		c0.65,0,1.19-0.53,1.19-1.18c0-0.65-0.53-1.19-1.19-1.19c-0.65,0-1.18,0.53-1.18,1.19C111.32,115.11,111.85,115.64,112.5,115.64z
		 M120.75,115.64c0.65,0,1.18-0.53,1.18-1.18c0-0.65-0.53-1.19-1.18-1.19c-0.65,0-1.19,0.53-1.19,1.19
		C119.57,115.11,120.1,115.64,120.75,115.64z M129,115.64c0.65,0,1.18-0.53,1.18-1.18c0-0.65-0.53-1.19-1.18-1.19
		c-0.65,0-1.19,0.53-1.19,1.19C127.82,115.11,128.35,115.64,129,115.64z M137.25,115.64c0.65,0,1.19-0.53,1.19-1.18
		c0-0.65-0.53-1.19-1.19-1.19c-0.65,0-1.18,0.53-1.18,1.19C136.07,115.11,136.6,115.64,137.25,115.64z M145.5,115.64
		c0.65,0,1.18-0.53,1.18-1.18c0-0.65-0.53-1.19-1.18-1.19c-0.65,0-1.19,0.53-1.19,1.19C144.31,115.11,144.85,115.64,145.5,115.64z
		 M153.75,115.64c0.65,0,1.18-0.53,1.18-1.18c0-0.65-0.53-1.19-1.18-1.19c-0.66,0-1.19,0.53-1.19,1.19
		C152.56,115.11,153.09,115.64,153.75,115.64z M162,115.64c0.65,0,1.18-0.53,1.18-1.18c0-0.65-0.53-1.19-1.18-1.19
		c-0.65,0-1.18,0.53-1.18,1.19C160.81,115.11,161.34,115.64,162,115.64z M170.25,115.64c0.65,0,1.18-0.53,1.18-1.18
		c0-0.65-0.53-1.19-1.18-1.19c-0.65,0-1.19,0.53-1.19,1.19C169.06,115.11,169.59,115.64,170.25,115.64z M178.5,115.64
		c0.65,0,1.18-0.53,1.18-1.18c0-0.65-0.53-1.19-1.18-1.19c-0.65,0-1.18,0.53-1.18,1.19C177.31,115.11,177.84,115.64,178.5,115.64z
		 M46.51,119.83c0.69,0,1.25-0.56,1.25-1.25c0-0.69-0.56-1.25-1.25-1.25s-1.25,0.56-1.25,1.25
		C45.25,119.27,45.81,119.83,46.51,119.83z M54.75,119.83c0.69,0,1.25-0.56,1.25-1.25c0-0.69-0.56-1.25-1.25-1.25
		c-0.69,0-1.25,0.56-1.25,1.25C53.5,119.27,54.06,119.83,54.75,119.83z M63,119.83c0.69,0,1.25-0.56,1.25-1.25
		c0-0.69-0.56-1.25-1.25-1.25s-1.25,0.56-1.25,1.25C61.75,119.27,62.31,119.83,63,119.83z M71.25,119.83c0.69,0,1.25-0.56,1.25-1.25
		c0-0.69-0.56-1.25-1.25-1.25c-0.69,0-1.25,0.56-1.25,1.25C70,119.27,70.56,119.83,71.25,119.83z M79.5,119.83
		c0.69,0,1.25-0.56,1.25-1.25c0-0.69-0.56-1.25-1.25-1.25c-0.69,0-1.25,0.56-1.25,1.25C78.25,119.27,78.81,119.83,79.5,119.83z
		 M87.75,119.83c0.69,0,1.25-0.56,1.25-1.25c0-0.69-0.56-1.25-1.25-1.25c-0.69,0-1.25,0.56-1.25,1.25
		C86.5,119.27,87.06,119.83,87.75,119.83z M96,119.83c0.69,0,1.25-0.56,1.25-1.25c0-0.69-0.56-1.25-1.25-1.25
		c-0.69,0-1.25,0.56-1.25,1.25C94.75,119.27,95.31,119.83,96,119.83z M104.25,119.83c0.69,0,1.25-0.56,1.25-1.25
		c0-0.69-0.56-1.25-1.25-1.25c-0.69,0-1.25,0.56-1.25,1.25C103,119.27,103.56,119.83,104.25,119.83z M112.5,119.83
		c0.69,0,1.25-0.56,1.25-1.25c0-0.69-0.56-1.25-1.25-1.25c-0.69,0-1.25,0.56-1.25,1.25C111.25,119.27,111.81,119.83,112.5,119.83z
		 M120.75,119.83c0.69,0,1.25-0.56,1.25-1.25c0-0.69-0.56-1.25-1.25-1.25c-0.69,0-1.25,0.56-1.25,1.25
		C119.5,119.27,120.06,119.83,120.75,119.83z M129,119.83c0.69,0,1.25-0.56,1.25-1.25c0-0.69-0.56-1.25-1.25-1.25
		s-1.25,0.56-1.25,1.25C127.75,119.27,128.31,119.83,129,119.83z M137.25,119.83c0.69,0,1.25-0.56,1.25-1.25
		c0-0.69-0.56-1.25-1.25-1.25s-1.25,0.56-1.25,1.25C136,119.27,136.56,119.83,137.25,119.83z M145.5,119.83
		c0.69,0,1.25-0.56,1.25-1.25c0-0.69-0.56-1.25-1.25-1.25c-0.69,0-1.25,0.56-1.25,1.25C144.25,119.27,144.81,119.83,145.5,119.83z
		 M153.75,119.83c0.69,0,1.25-0.56,1.25-1.25c0-0.69-0.56-1.25-1.25-1.25c-0.69,0-1.25,0.56-1.25,1.25
		C152.5,119.27,153.06,119.83,153.75,119.83z M162,119.83c0.69,0,1.25-0.56,1.25-1.25c0-0.69-0.56-1.25-1.25-1.25
		c-0.69,0-1.25,0.56-1.25,1.25C160.75,119.27,161.3,119.83,162,119.83z M170.25,119.83c0.69,0,1.25-0.56,1.25-1.25
		c0-0.69-0.56-1.25-1.25-1.25c-0.69,0-1.25,0.56-1.25,1.25C168.99,119.27,169.56,119.83,170.25,119.83z M178.5,119.83
		c0.69,0,1.25-0.56,1.25-1.25c0-0.69-0.56-1.25-1.25-1.25c-0.69,0-1.25,0.56-1.25,1.25C177.24,119.27,177.81,119.83,178.5,119.83z
		 M182.62,117.32c-0.69,0-1.25,0.56-1.25,1.25c0,0.69,0.56,1.25,1.25,1.25c0.69,0,1.25-0.56,1.25-1.25
		C183.87,117.88,183.31,117.32,182.62,117.32z M42.38,117.32c-0.69,0-1.25,0.56-1.25,1.25c0,0.69,0.56,1.25,1.25,1.25
		c0.69,0,1.25-0.56,1.25-1.25C43.63,117.88,43.07,117.32,42.38,117.32z M42.38,109.07c-0.69,0-1.25,0.56-1.25,1.25
		c0,0.69,0.56,1.25,1.25,1.25c0.69,0,1.25-0.56,1.25-1.25C43.63,109.64,43.07,109.07,42.38,109.07z M46.51,124.02
		c0.73,0,1.32-0.59,1.32-1.32c0-0.73-0.59-1.32-1.32-1.32c-0.73,0-1.32,0.59-1.32,1.32C45.19,123.43,45.77,124.02,46.51,124.02z
		 M54.75,124.02c0.73,0,1.32-0.59,1.32-1.32c0-0.73-0.59-1.32-1.32-1.32c-0.73,0-1.32,0.59-1.32,1.32
		C53.43,123.43,54.03,124.02,54.75,124.02z M63,124.02c0.73,0,1.32-0.59,1.32-1.32c0-0.73-0.59-1.32-1.32-1.32s-1.32,0.59-1.32,1.32
		C61.68,123.43,62.27,124.02,63,124.02z M71.25,124.02c0.73,0,1.32-0.59,1.32-1.32c0-0.73-0.59-1.32-1.32-1.32
		c-0.73,0-1.32,0.59-1.32,1.32C69.93,123.43,70.52,124.02,71.25,124.02z M79.5,124.02c0.73,0,1.32-0.59,1.32-1.32
		c0-0.73-0.59-1.32-1.32-1.32c-0.73,0-1.32,0.59-1.32,1.32C78.18,123.43,78.77,124.02,79.5,124.02z M87.75,124.02
		c0.73,0,1.32-0.59,1.32-1.32c0-0.73-0.59-1.32-1.32-1.32c-0.73,0-1.32,0.59-1.32,1.32C86.43,123.43,87.02,124.02,87.75,124.02z
		 M96,124.02c0.73,0,1.32-0.59,1.32-1.32c0-0.73-0.59-1.32-1.32-1.32c-0.73,0-1.32,0.59-1.32,1.32
		C94.68,123.43,95.27,124.02,96,124.02z M104.25,124.02c0.73,0,1.32-0.59,1.32-1.32c0-0.73-0.59-1.32-1.32-1.32
		c-0.73,0-1.32,0.59-1.32,1.32C102.93,123.43,103.52,124.02,104.25,124.02z M112.5,124.02c0.73,0,1.32-0.59,1.32-1.32
		c0-0.73-0.59-1.32-1.32-1.32c-0.73,0-1.32,0.59-1.32,1.32C111.18,123.43,111.77,124.02,112.5,124.02z M120.75,124.02
		c0.73,0,1.32-0.59,1.32-1.32c0-0.73-0.59-1.32-1.32-1.32c-0.73,0-1.32,0.59-1.32,1.32C119.43,123.43,120.02,124.02,120.75,124.02z
		 M129,124.02c0.73,0,1.32-0.59,1.32-1.32c0-0.73-0.59-1.32-1.32-1.32c-0.73,0-1.32,0.59-1.32,1.32
		C127.68,123.43,128.27,124.02,129,124.02z M137.25,124.02c0.73,0,1.32-0.59,1.32-1.32c0-0.73-0.59-1.32-1.32-1.32
		c-0.73,0-1.32,0.59-1.32,1.32C135.93,123.43,136.52,124.02,137.25,124.02z M145.5,124.02c0.73,0,1.32-0.59,1.32-1.32
		c0-0.73-0.59-1.32-1.32-1.32c-0.73,0-1.32,0.59-1.32,1.32C144.18,123.43,144.77,124.02,145.5,124.02z M153.75,124.02
		c0.73,0,1.32-0.59,1.32-1.32c0-0.73-0.59-1.32-1.32-1.32c-0.73,0-1.32,0.59-1.32,1.32C152.43,123.43,153.02,124.02,153.75,124.02z
		 M162,124.02c0.73,0,1.32-0.59,1.32-1.32c0-0.73-0.59-1.32-1.32-1.32c-0.73,0-1.32,0.59-1.32,1.32
		C160.68,123.43,161.27,124.02,162,124.02z M170.25,124.02c0.73,0,1.32-0.59,1.32-1.32c0-0.73-0.59-1.32-1.32-1.32
		c-0.73,0-1.32,0.59-1.32,1.32C168.93,123.43,169.52,124.02,170.25,124.02z M178.5,124.02c0.73,0,1.32-0.59,1.32-1.32
		c0-0.73-0.59-1.32-1.32-1.32c-0.73,0-1.32,0.59-1.32,1.32C177.18,123.43,177.77,124.02,178.5,124.02z M46.51,125.44
		c-0.76,0-1.38,0.62-1.38,1.38c0,0.76,0.62,1.38,1.38,1.38c0.76,0,1.38-0.62,1.38-1.38C47.88,126.06,47.27,125.44,46.51,125.44z
		 M178.5,128.21c0.76,0,1.38-0.62,1.38-1.38c0-0.76-0.62-1.38-1.38-1.38c-0.76,0-1.38,0.62-1.38,1.38
		C177.12,127.59,177.73,128.21,178.5,128.21z M50.63,128.21c0.76,0,1.38-0.62,1.38-1.38c0-0.76-0.62-1.38-1.38-1.38
		c-0.76,0-1.38,0.62-1.38,1.38C49.25,127.59,49.87,128.21,50.63,128.21z M58.88,128.21c0.76,0,1.38-0.62,1.38-1.38
		c0-0.76-0.62-1.38-1.38-1.38c-0.76,0-1.38,0.62-1.38,1.38C57.5,127.59,58.12,128.21,58.88,128.21z M67.13,128.21
		c0.76,0,1.38-0.62,1.38-1.38c0-0.76-0.62-1.38-1.38-1.38c-0.76,0-1.38,0.62-1.38,1.38C65.75,127.59,66.37,128.21,67.13,128.21z
		 M75.38,128.21c0.76,0,1.38-0.62,1.38-1.38c0-0.76-0.62-1.38-1.38-1.38c-0.76,0-1.38,0.62-1.38,1.38
		C74,127.59,74.62,128.21,75.38,128.21z M83.63,128.21c0.76,0,1.38-0.62,1.38-1.38c0-0.76-0.62-1.38-1.38-1.38
		c-0.76,0-1.38,0.62-1.38,1.38C82.25,127.59,82.86,128.21,83.63,128.21z M91.88,128.21c0.76,0,1.38-0.62,1.38-1.38
		c0-0.76-0.62-1.38-1.38-1.38c-0.76,0-1.38,0.62-1.38,1.38C90.5,127.59,91.12,128.21,91.88,128.21z M100.13,128.21
		c0.76,0,1.38-0.62,1.38-1.38c0-0.76-0.62-1.38-1.38-1.38c-0.76,0-1.38,0.62-1.38,1.38C98.75,127.59,99.36,128.21,100.13,128.21z
		 M108.38,128.21c0.76,0,1.38-0.62,1.38-1.38c0-0.76-0.62-1.38-1.38-1.38c-0.76,0-1.38,0.62-1.38,1.38
		C107,127.59,107.61,128.21,108.38,128.21z M116.63,128.21c0.76,0,1.38-0.62,1.38-1.38c0-0.76-0.62-1.38-1.38-1.38
		c-0.76,0-1.38,0.62-1.38,1.38C115.24,127.59,115.86,128.21,116.63,128.21z M124.87,128.21c0.76,0,1.38-0.62,1.38-1.38
		c0-0.76-0.62-1.38-1.38-1.38s-1.38,0.62-1.38,1.38C123.49,127.59,124.11,128.21,124.87,128.21z M133.13,128.21
		c0.76,0,1.38-0.62,1.38-1.38c0-0.76-0.62-1.38-1.38-1.38c-0.76,0-1.38,0.62-1.38,1.38C131.74,127.59,132.36,128.21,133.13,128.21z
		 M141.37,128.21c0.76,0,1.38-0.62,1.38-1.38c0-0.76-0.62-1.38-1.38-1.38c-0.76,0-1.38,0.62-1.38,1.38
		C139.99,127.59,140.61,128.21,141.37,128.21z M149.62,128.21c0.76,0,1.38-0.62,1.38-1.38c0-0.76-0.62-1.38-1.38-1.38
		c-0.76,0-1.38,0.62-1.38,1.38C148.24,127.59,148.86,128.21,149.62,128.21z M157.87,128.21c0.76,0,1.38-0.62,1.38-1.38
		c0-0.76-0.62-1.38-1.38-1.38c-0.76,0-1.38,0.62-1.38,1.38C156.49,127.59,157.11,128.21,157.87,128.21z M166.12,128.21
		c0.76,0,1.38-0.62,1.38-1.38c0-0.76-0.62-1.38-1.38-1.38c-0.76,0-1.38,0.62-1.38,1.38C164.74,127.59,165.36,128.21,166.12,128.21z
		 M174.37,128.21c0.76,0,1.38-0.62,1.38-1.38c0-0.76-0.62-1.38-1.38-1.38c-0.76,0-1.38,0.62-1.38,1.38
		C172.99,127.59,173.61,128.21,174.37,128.21z M50.63,132.4c0.8,0,1.45-0.65,1.45-1.45s-0.65-1.45-1.45-1.45
		c-0.8,0-1.45,0.65-1.45,1.45S49.83,132.4,50.63,132.4z M54.75,132.4c0.8,0,1.45-0.65,1.45-1.45s-0.65-1.45-1.45-1.45
		c-0.8,0-1.45,0.65-1.45,1.45S53.95,132.4,54.75,132.4z M58.88,132.4c0.8,0,1.45-0.65,1.45-1.45s-0.65-1.45-1.45-1.45
		c-0.8,0-1.45,0.65-1.45,1.45S58.08,132.4,58.88,132.4z M63,132.4c0.8,0,1.45-0.65,1.45-1.45S63.8,129.5,63,129.5
		c-0.8,0-1.45,0.65-1.45,1.45S62.2,132.4,63,132.4z M67.13,132.4c0.8,0,1.45-0.65,1.45-1.45s-0.65-1.45-1.45-1.45
		c-0.8,0-1.45,0.65-1.45,1.45S66.33,132.4,67.13,132.4z M71.25,132.4c0.8,0,1.45-0.65,1.45-1.45s-0.65-1.45-1.45-1.45
		c-0.8,0-1.45,0.65-1.45,1.45S70.45,132.4,71.25,132.4z M75.38,132.4c0.8,0,1.45-0.65,1.45-1.45s-0.65-1.45-1.45-1.45
		c-0.8,0-1.45,0.65-1.45,1.45S74.58,132.4,75.38,132.4z M79.5,132.4c0.8,0,1.45-0.65,1.45-1.45s-0.65-1.45-1.45-1.45
		c-0.8,0-1.45,0.65-1.45,1.45S78.7,132.4,79.5,132.4z M83.63,132.4c0.8,0,1.45-0.65,1.45-1.45s-0.65-1.45-1.45-1.45
		c-0.8,0-1.45,0.65-1.45,1.45S82.83,132.4,83.63,132.4z M87.75,132.4c0.8,0,1.45-0.65,1.45-1.45s-0.65-1.45-1.45-1.45
		c-0.8,0-1.45,0.65-1.45,1.45S86.95,132.4,87.75,132.4z M91.88,132.4c0.8,0,1.45-0.65,1.45-1.45s-0.65-1.45-1.45-1.45
		c-0.8,0-1.45,0.65-1.45,1.45S91.08,132.4,91.88,132.4z M96,132.4c0.8,0,1.45-0.65,1.45-1.45S96.8,129.5,96,129.5
		c-0.8,0-1.45,0.65-1.45,1.45S95.2,132.4,96,132.4z M100.13,132.4c0.8,0,1.45-0.65,1.45-1.45s-0.65-1.45-1.45-1.45
		c-0.8,0-1.45,0.65-1.45,1.45S99.33,132.4,100.13,132.4z M104.25,132.4c0.8,0,1.45-0.65,1.45-1.45s-0.65-1.45-1.45-1.45
		c-0.8,0-1.45,0.65-1.45,1.45S103.45,132.4,104.25,132.4z M108.38,132.4c0.8,0,1.45-0.65,1.45-1.45s-0.65-1.45-1.45-1.45
		c-0.8,0-1.45,0.65-1.45,1.45S107.57,132.4,108.38,132.4z M112.5,132.4c0.8,0,1.45-0.65,1.45-1.45s-0.65-1.45-1.45-1.45
		c-0.8,0-1.45,0.65-1.45,1.45S111.7,132.4,112.5,132.4z M116.63,132.4c0.8,0,1.45-0.65,1.45-1.45s-0.65-1.45-1.45-1.45
		c-0.8,0-1.45,0.65-1.45,1.45S115.82,132.4,116.63,132.4z M120.75,132.4c0.8,0,1.45-0.65,1.45-1.45s-0.65-1.45-1.45-1.45
		c-0.8,0-1.45,0.65-1.45,1.45S119.95,132.4,120.75,132.4z M124.87,132.4c0.8,0,1.45-0.65,1.45-1.45s-0.65-1.45-1.45-1.45
		c-0.8,0-1.45,0.65-1.45,1.45S124.08,132.4,124.87,132.4z M129,132.4c0.8,0,1.45-0.65,1.45-1.45s-0.65-1.45-1.45-1.45
		c-0.8,0-1.45,0.65-1.45,1.45S128.2,132.4,129,132.4z M133.13,132.4c0.8,0,1.45-0.65,1.45-1.45s-0.65-1.45-1.45-1.45
		c-0.8,0-1.45,0.65-1.45,1.45S132.32,132.4,133.13,132.4z M137.25,132.4c0.8,0,1.45-0.65,1.45-1.45s-0.65-1.45-1.45-1.45
		c-0.8,0-1.45,0.65-1.45,1.45S136.45,132.4,137.25,132.4z M141.37,132.4c0.8,0,1.45-0.65,1.45-1.45s-0.65-1.45-1.45-1.45
		c-0.8,0-1.45,0.65-1.45,1.45S140.57,132.4,141.37,132.4z M145.5,132.4c0.8,0,1.45-0.65,1.45-1.45s-0.65-1.45-1.45-1.45
		c-0.8,0-1.45,0.65-1.45,1.45S144.7,132.4,145.5,132.4z M149.62,132.4c0.8,0,1.45-0.65,1.45-1.45s-0.65-1.45-1.45-1.45
		c-0.8,0-1.45,0.65-1.45,1.45S148.82,132.4,149.62,132.4z M153.75,132.4c0.8,0,1.45-0.65,1.45-1.45s-0.65-1.45-1.45-1.45
		c-0.8,0-1.45,0.65-1.45,1.45S152.95,132.4,153.75,132.4z M157.87,132.4c0.8,0,1.45-0.65,1.45-1.45s-0.65-1.45-1.45-1.45
		s-1.45,0.65-1.45,1.45S157.07,132.4,157.87,132.4z M162,132.4c0.8,0,1.45-0.65,1.45-1.45s-0.65-1.45-1.45-1.45
		c-0.8,0-1.45,0.65-1.45,1.45S161.2,132.4,162,132.4z M166.12,132.4c0.8,0,1.45-0.65,1.45-1.45s-0.65-1.45-1.45-1.45
		c-0.8,0-1.45,0.65-1.45,1.45S165.32,132.4,166.12,132.4z M170.25,132.4c0.8,0,1.45-0.65,1.45-1.45s-0.65-1.45-1.45-1.45
		c-0.8,0-1.45,0.65-1.45,1.45S169.45,132.4,170.25,132.4z M174.37,132.4c0.8,0,1.45-0.65,1.45-1.45s-0.65-1.45-1.45-1.45
		c-0.8,0-1.45,0.65-1.45,1.45S173.57,132.4,174.37,132.4z M178.5,129.5c-0.8,0-1.45,0.65-1.45,1.45s0.65,1.45,1.45,1.45
		c0.8,0,1.45-0.65,1.45-1.45S179.3,129.5,178.5,129.5z M50.63,136.59c0.84,0,1.52-0.68,1.52-1.52c0-0.84-0.68-1.52-1.52-1.52
		c-0.84,0-1.52,0.68-1.52,1.52C49.11,135.91,49.79,136.59,50.63,136.59z M58.88,136.59c0.84,0,1.52-0.68,1.52-1.52
		c0-0.84-0.68-1.52-1.52-1.52c-0.84,0-1.52,0.68-1.52,1.52C57.36,135.91,58.04,136.59,58.88,136.59z M67.13,136.59
		c0.84,0,1.52-0.68,1.52-1.52c0-0.84-0.68-1.52-1.52-1.52c-0.84,0-1.52,0.68-1.52,1.52C65.61,135.91,66.29,136.59,67.13,136.59z
		 M75.38,136.59c0.84,0,1.52-0.68,1.52-1.52c0-0.84-0.68-1.52-1.52-1.52c-0.84,0-1.52,0.68-1.52,1.52
		C73.86,135.91,74.54,136.59,75.38,136.59z M83.63,136.59c0.84,0,1.52-0.68,1.52-1.52c0-0.84-0.68-1.52-1.52-1.52
		c-0.84,0-1.52,0.68-1.52,1.52C82.11,135.91,82.79,136.59,83.63,136.59z M91.88,136.59c0.84,0,1.52-0.68,1.52-1.52
		c0-0.84-0.68-1.52-1.52-1.52c-0.84,0-1.52,0.68-1.52,1.52C90.36,135.91,91.04,136.59,91.88,136.59z M100.13,136.59
		c0.84,0,1.52-0.68,1.52-1.52c0-0.84-0.68-1.52-1.52-1.52c-0.84,0-1.52,0.68-1.52,1.52C98.61,135.91,99.29,136.59,100.13,136.59z
		 M108.38,136.59c0.84,0,1.52-0.68,1.52-1.52c0-0.84-0.68-1.52-1.52-1.52c-0.84,0-1.52,0.68-1.52,1.52
		C106.86,135.91,107.54,136.59,108.38,136.59z M116.63,136.59c0.84,0,1.52-0.68,1.52-1.52c0-0.84-0.68-1.52-1.52-1.52
		c-0.84,0-1.52,0.68-1.52,1.52C115.11,135.91,115.79,136.59,116.63,136.59z M124.87,136.59c0.84,0,1.52-0.68,1.52-1.52
		c0-0.84-0.68-1.52-1.52-1.52c-0.84,0-1.52,0.68-1.52,1.52C123.36,135.91,124.04,136.59,124.87,136.59z M133.13,136.59
		c0.84,0,1.52-0.68,1.52-1.52c0-0.84-0.68-1.52-1.52-1.52c-0.84,0-1.52,0.68-1.52,1.52C131.61,135.91,132.29,136.59,133.13,136.59z
		 M141.37,136.59c0.84,0,1.52-0.68,1.52-1.52c0-0.84-0.68-1.52-1.52-1.52c-0.84,0-1.52,0.68-1.52,1.52
		C139.85,135.91,140.54,136.59,141.37,136.59z M149.62,136.59c0.84,0,1.52-0.68,1.52-1.52c0-0.84-0.68-1.52-1.52-1.52
		c-0.84,0-1.52,0.68-1.52,1.52C148.11,135.91,148.79,136.59,149.62,136.59z M157.87,136.59c0.84,0,1.52-0.68,1.52-1.52
		c0-0.84-0.68-1.52-1.52-1.52c-0.84,0-1.52,0.68-1.52,1.52C156.35,135.91,157.03,136.59,157.87,136.59z M166.12,136.59
		c0.84,0,1.52-0.68,1.52-1.52c0-0.84-0.68-1.52-1.52-1.52c-0.84,0-1.52,0.68-1.52,1.52C164.6,135.91,165.28,136.59,166.12,136.59z
		 M174.37,136.59c0.84,0,1.52-0.68,1.52-1.52c0-0.84-0.68-1.52-1.52-1.52s-1.52,0.68-1.52,1.52
		C172.85,135.91,173.53,136.59,174.37,136.59z M50.63,137.62c-0.87,0-1.58,0.71-1.58,1.58s0.71,1.58,1.58,1.58s1.58-0.71,1.58-1.58
		S51.5,137.62,50.63,137.62z M54.75,140.78c0.87,0,1.58-0.71,1.58-1.58s-0.71-1.58-1.58-1.58c-0.87,0-1.58,0.71-1.58,1.58
		S53.88,140.78,54.75,140.78z M58.88,140.78c0.87,0,1.58-0.71,1.58-1.58s-0.71-1.58-1.58-1.58c-0.87,0-1.58,0.71-1.58,1.58
		S58.01,140.78,58.88,140.78z M63,140.78c0.87,0,1.58-0.71,1.58-1.58s-0.71-1.58-1.58-1.58s-1.58,0.71-1.58,1.58
		S62.13,140.78,63,140.78z M67.13,140.78c0.87,0,1.58-0.71,1.58-1.58s-0.71-1.58-1.58-1.58c-0.87,0-1.58,0.71-1.58,1.58
		S66.26,140.78,67.13,140.78z M71.25,140.78c0.87,0,1.58-0.71,1.58-1.58s-0.71-1.58-1.58-1.58c-0.87,0-1.58,0.71-1.58,1.58
		S70.38,140.78,71.25,140.78z M75.38,140.78c0.87,0,1.58-0.71,1.58-1.58s-0.71-1.58-1.58-1.58c-0.87,0-1.58,0.71-1.58,1.58
		S74.51,140.78,75.38,140.78z M79.5,140.78c0.87,0,1.58-0.71,1.58-1.58s-0.71-1.58-1.58-1.58c-0.87,0-1.58,0.71-1.58,1.58
		S78.63,140.78,79.5,140.78z M83.63,140.78c0.87,0,1.58-0.71,1.58-1.58s-0.71-1.58-1.58-1.58c-0.87,0-1.58,0.71-1.58,1.58
		S82.76,140.78,83.63,140.78z M87.75,140.78c0.87,0,1.58-0.71,1.58-1.58s-0.71-1.58-1.58-1.58c-0.87,0-1.58,0.71-1.58,1.58
		S86.88,140.78,87.75,140.78z M91.88,140.78c0.87,0,1.58-0.71,1.58-1.58s-0.71-1.58-1.58-1.58c-0.87,0-1.58,0.71-1.58,1.58
		S91,140.78,91.88,140.78z M96,140.78c0.87,0,1.58-0.71,1.58-1.58s-0.71-1.58-1.58-1.58c-0.87,0-1.58,0.71-1.58,1.58
		S95.13,140.78,96,140.78z M100.13,140.78c0.87,0,1.58-0.71,1.58-1.58s-0.71-1.58-1.58-1.58c-0.87,0-1.58,0.71-1.58,1.58
		S99.26,140.78,100.13,140.78z M104.25,140.78c0.87,0,1.58-0.71,1.58-1.58s-0.71-1.58-1.58-1.58c-0.87,0-1.58,0.71-1.58,1.58
		S103.38,140.78,104.25,140.78z M108.38,140.78c0.87,0,1.58-0.71,1.58-1.58s-0.71-1.58-1.58-1.58c-0.87,0-1.58,0.71-1.58,1.58
		S107.5,140.78,108.38,140.78z M112.5,140.78c0.87,0,1.58-0.71,1.58-1.58s-0.71-1.58-1.58-1.58c-0.87,0-1.58,0.71-1.58,1.58
		S111.63,140.78,112.5,140.78z M116.63,140.78c0.87,0,1.58-0.71,1.58-1.58s-0.71-1.58-1.58-1.58c-0.87,0-1.58,0.71-1.58,1.58
		S115.75,140.78,116.63,140.78z M120.75,140.78c0.87,0,1.58-0.71,1.58-1.58s-0.71-1.58-1.58-1.58c-0.87,0-1.58,0.71-1.58,1.58
		S119.88,140.78,120.75,140.78z M124.87,140.78c0.87,0,1.58-0.71,1.58-1.58s-0.71-1.58-1.58-1.58c-0.87,0-1.58,0.71-1.58,1.58
		S124,140.78,124.87,140.78z M129,140.78c0.87,0,1.58-0.71,1.58-1.58s-0.71-1.58-1.58-1.58c-0.87,0-1.58,0.71-1.58,1.58
		S128.13,140.78,129,140.78z M133.13,140.78c0.87,0,1.58-0.71,1.58-1.58s-0.71-1.58-1.58-1.58c-0.87,0-1.58,0.71-1.58,1.58
		S132.25,140.78,133.13,140.78z M137.25,140.78c0.87,0,1.58-0.71,1.58-1.58s-0.71-1.58-1.58-1.58c-0.87,0-1.58,0.71-1.58,1.58
		S136.38,140.78,137.25,140.78z M141.37,140.78c0.87,0,1.58-0.71,1.58-1.58s-0.71-1.58-1.58-1.58c-0.87,0-1.58,0.71-1.58,1.58
		S140.5,140.78,141.37,140.78z M145.5,140.78c0.87,0,1.58-0.71,1.58-1.58s-0.71-1.58-1.58-1.58c-0.87,0-1.58,0.71-1.58,1.58
		S144.63,140.78,145.5,140.78z M149.62,140.78c0.87,0,1.58-0.71,1.58-1.58s-0.71-1.58-1.58-1.58c-0.87,0-1.58,0.71-1.58,1.58
		S148.75,140.78,149.62,140.78z M153.75,140.78c0.87,0,1.58-0.71,1.58-1.58s-0.71-1.58-1.58-1.58c-0.87,0-1.58,0.71-1.58,1.58
		S152.88,140.78,153.75,140.78z M157.87,140.78c0.87,0,1.58-0.71,1.58-1.58s-0.71-1.58-1.58-1.58c-0.87,0-1.58,0.71-1.58,1.58
		S157,140.78,157.87,140.78z M162,140.78c0.87,0,1.58-0.71,1.58-1.58s-0.71-1.58-1.58-1.58s-1.58,0.71-1.58,1.58
		S161.13,140.78,162,140.78z M166.12,140.78c0.87,0,1.58-0.71,1.58-1.58s-0.71-1.58-1.58-1.58c-0.87,0-1.58,0.71-1.58,1.58
		S165.25,140.78,166.12,140.78z M170.25,140.78c0.87,0,1.58-0.71,1.58-1.58s-0.71-1.58-1.58-1.58s-1.58,0.71-1.58,1.58
		S169.38,140.78,170.25,140.78z M174.37,137.62c-0.87,0-1.58,0.71-1.58,1.58s0.71,1.58,1.58,1.58s1.58-0.71,1.58-1.58
		S175.24,137.62,174.37,137.62z M54.75,144.97c0.91,0,1.65-0.74,1.65-1.65c0-0.91-0.74-1.65-1.65-1.65c-0.91,0-1.65,0.74-1.65,1.65
		C53.11,144.23,53.84,144.97,54.75,144.97z M63,144.97c0.91,0,1.65-0.74,1.65-1.65c0-0.91-0.74-1.65-1.65-1.65s-1.65,0.74-1.65,1.65
		C61.36,144.23,62.09,144.97,63,144.97z M71.25,144.97c0.91,0,1.65-0.74,1.65-1.65c0-0.91-0.74-1.65-1.65-1.65
		c-0.91,0-1.65,0.74-1.65,1.65C69.61,144.23,70.34,144.97,71.25,144.97z M79.5,144.97c0.91,0,1.65-0.74,1.65-1.65
		c0-0.91-0.74-1.65-1.65-1.65s-1.65,0.74-1.65,1.65C77.86,144.23,78.59,144.97,79.5,144.97z M87.75,144.97
		c0.91,0,1.65-0.74,1.65-1.65c0-0.91-0.74-1.65-1.65-1.65c-0.91,0-1.65,0.74-1.65,1.65C86.1,144.23,86.84,144.97,87.75,144.97z
		 M96,144.97c0.91,0,1.65-0.74,1.65-1.65c0-0.91-0.74-1.65-1.65-1.65c-0.91,0-1.65,0.74-1.65,1.65
		C94.36,144.23,95.09,144.97,96,144.97z M104.25,144.97c0.91,0,1.65-0.74,1.65-1.65c0-0.91-0.74-1.65-1.65-1.65
		c-0.91,0-1.65,0.74-1.65,1.65C102.6,144.23,103.34,144.97,104.25,144.97z M112.5,144.97c0.91,0,1.65-0.74,1.65-1.65
		c0-0.91-0.74-1.65-1.65-1.65c-0.91,0-1.65,0.74-1.65,1.65C110.85,144.23,111.59,144.97,112.5,144.97z M120.75,144.97
		c0.91,0,1.65-0.74,1.65-1.65c0-0.91-0.74-1.65-1.65-1.65c-0.91,0-1.65,0.74-1.65,1.65C119.1,144.23,119.84,144.97,120.75,144.97z
		 M129,144.97c0.91,0,1.65-0.74,1.65-1.65c0-0.91-0.74-1.65-1.65-1.65c-0.91,0-1.65,0.74-1.65,1.65
		C127.35,144.23,128.09,144.97,129,144.97z M137.25,144.97c0.91,0,1.65-0.74,1.65-1.65c0-0.91-0.74-1.65-1.65-1.65
		c-0.91,0-1.65,0.74-1.65,1.65C135.6,144.23,136.34,144.97,137.25,144.97z M145.5,144.97c0.91,0,1.65-0.74,1.65-1.65
		c0-0.91-0.74-1.65-1.65-1.65c-0.91,0-1.65,0.74-1.65,1.65C143.85,144.23,144.59,144.97,145.5,144.97z M153.75,144.97
		c0.91,0,1.65-0.74,1.65-1.65c0-0.91-0.74-1.65-1.65-1.65c-0.91,0-1.65,0.74-1.65,1.65C152.1,144.23,152.84,144.97,153.75,144.97z
		 M162,144.97c0.91,0,1.65-0.74,1.65-1.65c0-0.91-0.74-1.65-1.65-1.65c-0.91,0-1.65,0.74-1.65,1.65
		C160.35,144.23,161.09,144.97,162,144.97z M170.25,144.97c0.91,0,1.65-0.74,1.65-1.65c0-0.91-0.74-1.65-1.65-1.65
		c-0.91,0-1.65,0.74-1.65,1.65C168.6,144.23,169.34,144.97,170.25,144.97z M54.75,145.73c-0.95,0-1.71,0.77-1.71,1.72
		s0.77,1.72,1.71,1.72c0.95,0,1.71-0.77,1.71-1.72S55.7,145.73,54.75,145.73z M58.88,149.17c0.95,0,1.71-0.77,1.71-1.72
		s-0.77-1.72-1.71-1.72s-1.72,0.77-1.72,1.72S57.93,149.17,58.88,149.17z M63,149.17c0.95,0,1.72-0.77,1.72-1.72
		s-0.77-1.72-1.72-1.72s-1.72,0.77-1.72,1.72S62.06,149.17,63,149.17z M67.13,149.17c0.95,0,1.72-0.77,1.72-1.72
		s-0.77-1.72-1.72-1.72s-1.71,0.77-1.71,1.72S66.18,149.17,67.13,149.17z M71.25,149.17c0.95,0,1.71-0.77,1.71-1.72
		s-0.77-1.72-1.71-1.72c-0.95,0-1.71,0.77-1.71,1.72S70.31,149.17,71.25,149.17z M75.38,149.17c0.95,0,1.72-0.77,1.72-1.72
		s-0.77-1.72-1.72-1.72c-0.95,0-1.72,0.77-1.72,1.72S74.43,149.17,75.38,149.17z M79.5,149.17c0.95,0,1.72-0.77,1.72-1.72
		s-0.77-1.72-1.72-1.72s-1.71,0.77-1.71,1.72S78.56,149.17,79.5,149.17z M83.63,149.17c0.95,0,1.72-0.77,1.72-1.72
		s-0.77-1.72-1.72-1.72c-0.95,0-1.71,0.77-1.71,1.72S82.68,149.17,83.63,149.17z M87.75,149.17c0.95,0,1.72-0.77,1.72-1.72
		s-0.77-1.72-1.72-1.72c-0.95,0-1.71,0.77-1.71,1.72S86.8,149.17,87.75,149.17z M91.88,149.17c0.95,0,1.72-0.77,1.72-1.72
		s-0.77-1.72-1.72-1.72s-1.71,0.77-1.71,1.72S90.93,149.17,91.88,149.17z M96,149.17c0.95,0,1.72-0.77,1.72-1.72
		s-0.77-1.72-1.72-1.72c-0.95,0-1.71,0.77-1.71,1.72S95.06,149.17,96,149.17z M100.13,149.17c0.95,0,1.71-0.77,1.71-1.72
		s-0.77-1.72-1.71-1.72c-0.95,0-1.71,0.77-1.71,1.72S99.18,149.17,100.13,149.17z M104.25,149.17c0.95,0,1.71-0.77,1.71-1.72
		s-0.77-1.72-1.71-1.72c-0.95,0-1.72,0.77-1.72,1.72S103.3,149.17,104.25,149.17z M108.38,149.17c0.95,0,1.72-0.77,1.72-1.72
		s-0.77-1.72-1.72-1.72c-0.95,0-1.71,0.77-1.71,1.72S107.43,149.17,108.38,149.17z M112.5,149.17c0.95,0,1.71-0.77,1.71-1.72
		s-0.76-1.72-1.71-1.72c-0.95,0-1.71,0.77-1.71,1.72S111.55,149.17,112.5,149.17z M116.63,149.17c0.95,0,1.71-0.77,1.71-1.72
		s-0.77-1.72-1.71-1.72c-0.95,0-1.72,0.77-1.72,1.72S115.68,149.17,116.63,149.17z M120.75,149.17c0.95,0,1.71-0.77,1.71-1.72
		s-0.77-1.72-1.71-1.72c-0.95,0-1.72,0.77-1.72,1.72S119.8,149.17,120.75,149.17z M124.87,149.17c0.95,0,1.72-0.77,1.72-1.72
		s-0.77-1.72-1.72-1.72c-0.95,0-1.71,0.77-1.71,1.72S123.93,149.17,124.87,149.17z M129,149.17c0.95,0,1.71-0.77,1.71-1.72
		s-0.77-1.72-1.71-1.72c-0.95,0-1.72,0.77-1.72,1.72S128.05,149.17,129,149.17z M133.13,149.17c0.95,0,1.71-0.77,1.71-1.72
		s-0.77-1.72-1.71-1.72c-0.95,0-1.72,0.77-1.72,1.72S132.18,149.17,133.13,149.17z M137.25,149.17c0.95,0,1.72-0.77,1.72-1.72
		s-0.77-1.72-1.72-1.72c-0.95,0-1.71,0.77-1.71,1.72S136.3,149.17,137.25,149.17z M141.37,149.17c0.95,0,1.71-0.77,1.71-1.72
		s-0.77-1.72-1.71-1.72c-0.95,0-1.71,0.77-1.71,1.72S140.43,149.17,141.37,149.17z M145.5,149.17c0.95,0,1.71-0.77,1.71-1.72
		s-0.77-1.72-1.71-1.72c-0.95,0-1.72,0.77-1.72,1.72S144.55,149.17,145.5,149.17z M149.62,149.17c0.95,0,1.72-0.77,1.72-1.72
		s-0.77-1.72-1.72-1.72c-0.95,0-1.71,0.77-1.71,1.72S148.68,149.17,149.62,149.17z M153.75,149.17c0.95,0,1.72-0.77,1.72-1.72
		s-0.77-1.72-1.72-1.72s-1.72,0.77-1.72,1.72S152.8,149.17,153.75,149.17z M157.87,149.17c0.95,0,1.71-0.77,1.71-1.72
		s-0.77-1.72-1.71-1.72c-0.95,0-1.71,0.77-1.71,1.72S156.92,149.17,157.87,149.17z M162,149.17c0.95,0,1.71-0.77,1.71-1.72
		s-0.77-1.72-1.71-1.72s-1.72,0.77-1.72,1.72S161.05,149.17,162,149.17z M166.12,149.17c0.95,0,1.72-0.77,1.72-1.72
		s-0.77-1.72-1.72-1.72s-1.72,0.77-1.72,1.72S165.18,149.17,166.12,149.17z M170.25,145.73c-0.95,0-1.71,0.77-1.71,1.72
		s0.77,1.72,1.71,1.72c0.95,0,1.71-0.77,1.71-1.72S171.2,145.73,170.25,145.73z M58.88,149.8c-0.98,0-1.78,0.79-1.78,1.78
		s0.79,1.78,1.78,1.78c0.98,0,1.78-0.79,1.78-1.78S59.86,149.8,58.88,149.8z M63,153.35c0.98,0,1.78-0.79,1.78-1.78
		s-0.79-1.78-1.78-1.78s-1.77,0.79-1.77,1.78S62.02,153.35,63,153.35z M67.13,153.35c0.98,0,1.77-0.79,1.77-1.78
		s-0.79-1.78-1.77-1.78s-1.78,0.79-1.78,1.78S66.15,153.35,67.13,153.35z M71.25,153.35c0.98,0,1.78-0.79,1.78-1.78
		s-0.79-1.78-1.78-1.78c-0.98,0-1.78,0.79-1.78,1.78S70.27,153.35,71.25,153.35z M75.38,153.35c0.98,0,1.78-0.79,1.78-1.78
		s-0.79-1.78-1.78-1.78c-0.98,0-1.77,0.79-1.77,1.78S74.4,153.35,75.38,153.35z M79.5,153.35c0.98,0,1.78-0.79,1.78-1.78
		s-0.79-1.78-1.78-1.78c-0.98,0-1.78,0.79-1.78,1.78S78.52,153.35,79.5,153.35z M83.63,153.35c0.98,0,1.78-0.79,1.78-1.78
		s-0.79-1.78-1.78-1.78c-0.98,0-1.78,0.79-1.78,1.78S82.65,153.35,83.63,153.35z M87.75,153.35c0.98,0,1.78-0.79,1.78-1.78
		s-0.79-1.78-1.78-1.78c-0.98,0-1.77,0.79-1.77,1.78S86.77,153.35,87.75,153.35z M91.88,153.35c0.98,0,1.78-0.79,1.78-1.78
		s-0.79-1.78-1.78-1.78c-0.98,0-1.78,0.79-1.78,1.78S90.9,153.35,91.88,153.35z M96,153.35c0.98,0,1.78-0.79,1.78-1.78
		s-0.79-1.78-1.78-1.78s-1.78,0.79-1.78,1.78S95.02,153.35,96,153.35z M100.13,153.35c0.98,0,1.78-0.79,1.78-1.78
		s-0.79-1.78-1.78-1.78c-0.98,0-1.77,0.79-1.77,1.78S99.15,153.35,100.13,153.35z M104.25,153.35c0.98,0,1.77-0.79,1.77-1.78
		s-0.79-1.78-1.77-1.78c-0.98,0-1.78,0.79-1.78,1.78S103.27,153.35,104.25,153.35z M108.38,153.35c0.98,0,1.78-0.79,1.78-1.78
		s-0.79-1.78-1.78-1.78c-0.98,0-1.78,0.79-1.78,1.78S107.39,153.35,108.38,153.35z M112.5,153.35c0.98,0,1.78-0.79,1.78-1.78
		s-0.79-1.78-1.78-1.78c-0.98,0-1.77,0.79-1.77,1.78S111.52,153.35,112.5,153.35z M116.63,153.35c0.98,0,1.77-0.79,1.77-1.78
		s-0.79-1.78-1.77-1.78c-0.98,0-1.78,0.79-1.78,1.78S115.65,153.35,116.63,153.35z M120.75,153.35c0.98,0,1.78-0.79,1.78-1.78
		s-0.79-1.78-1.78-1.78c-0.98,0-1.78,0.79-1.78,1.78S119.77,153.35,120.75,153.35z M124.87,153.35c0.98,0,1.78-0.79,1.78-1.78
		s-0.79-1.78-1.78-1.78c-0.98,0-1.77,0.79-1.77,1.78S123.89,153.35,124.87,153.35z M129,153.35c0.98,0,1.77-0.79,1.77-1.78
		s-0.79-1.78-1.77-1.78c-0.98,0-1.78,0.79-1.78,1.78S128.02,153.35,129,153.35z M133.13,153.35c0.98,0,1.78-0.79,1.78-1.78
		s-0.79-1.78-1.78-1.78c-0.98,0-1.78,0.79-1.78,1.78S132.14,153.35,133.13,153.35z M137.25,153.35c0.98,0,1.78-0.79,1.78-1.78
		s-0.79-1.78-1.78-1.78c-0.98,0-1.78,0.79-1.78,1.78S136.27,153.35,137.25,153.35z M141.37,153.35c0.98,0,1.77-0.79,1.77-1.78
		s-0.79-1.78-1.77-1.78c-0.98,0-1.78,0.79-1.78,1.78S140.39,153.35,141.37,153.35z M145.5,153.35c0.98,0,1.78-0.79,1.78-1.78
		s-0.79-1.78-1.78-1.78c-0.98,0-1.78,0.79-1.78,1.78S144.52,153.35,145.5,153.35z M149.62,153.35c0.98,0,1.78-0.79,1.78-1.78
		s-0.79-1.78-1.78-1.78c-0.98,0-1.77,0.79-1.77,1.78S148.64,153.35,149.62,153.35z M153.75,153.35c0.98,0,1.77-0.79,1.77-1.78
		s-0.79-1.78-1.77-1.78c-0.98,0-1.78,0.79-1.78,1.78S152.77,153.35,153.75,153.35z M157.87,153.35c0.98,0,1.78-0.79,1.78-1.78
		s-0.79-1.78-1.78-1.78s-1.78,0.79-1.78,1.78S156.89,153.35,157.87,153.35z M162,153.35c0.98,0,1.78-0.79,1.78-1.78
		s-0.79-1.78-1.78-1.78s-1.78,0.79-1.78,1.78S161.02,153.35,162,153.35z M166.12,149.8c-0.98,0-1.78,0.79-1.78,1.78
		s0.79,1.78,1.78,1.78s1.77-0.79,1.77-1.78S167.1,149.8,166.12,149.8z M63,153.86c-1.02,0-1.85,0.82-1.85,1.84
		c0,1.02,0.83,1.85,1.85,1.85c1.02,0,1.85-0.83,1.85-1.85C64.85,154.68,64.02,153.86,63,153.86z M67.13,157.54
		c1.02,0,1.84-0.83,1.84-1.85c0-1.02-0.82-1.84-1.84-1.84c-1.02,0-1.85,0.82-1.85,1.84C65.28,156.72,66.11,157.54,67.13,157.54z
		 M71.25,157.54c1.02,0,1.84-0.83,1.84-1.85c0-1.02-0.82-1.84-1.84-1.84c-1.02,0-1.84,0.82-1.84,1.84
		C69.41,156.72,70.23,157.54,71.25,157.54z M75.38,157.54c1.02,0,1.85-0.83,1.85-1.85c0-1.02-0.83-1.84-1.85-1.84
		c-1.02,0-1.84,0.82-1.84,1.84C73.53,156.72,74.36,157.54,75.38,157.54z M79.5,157.54c1.02,0,1.85-0.83,1.85-1.85
		c0-1.02-0.83-1.84-1.85-1.84c-1.02,0-1.85,0.82-1.85,1.84C77.66,156.72,78.48,157.54,79.5,157.54z M83.63,157.54
		c1.02,0,1.84-0.83,1.84-1.85c0-1.02-0.82-1.84-1.84-1.84c-1.02,0-1.84,0.82-1.84,1.84C81.78,156.72,82.61,157.54,83.63,157.54z
		 M87.75,157.54c1.02,0,1.85-0.83,1.85-1.85c0-1.02-0.83-1.84-1.85-1.84c-1.02,0-1.84,0.82-1.84,1.84
		C85.91,156.72,86.73,157.54,87.75,157.54z M91.88,157.54c1.02,0,1.85-0.83,1.85-1.85c0-1.02-0.83-1.84-1.85-1.84
		c-1.02,0-1.84,0.82-1.84,1.84C90.03,156.72,90.86,157.54,91.88,157.54z M96,157.54c1.02,0,1.84-0.83,1.84-1.85
		c0-1.02-0.82-1.84-1.84-1.84c-1.02,0-1.84,0.82-1.84,1.84C94.16,156.72,94.98,157.54,96,157.54z M100.13,157.54
		c1.02,0,1.85-0.83,1.85-1.85c0-1.02-0.83-1.84-1.85-1.84c-1.02,0-1.84,0.82-1.84,1.84C98.28,156.72,99.11,157.54,100.13,157.54z
		 M104.25,157.54c1.02,0,1.84-0.83,1.84-1.85c0-1.02-0.83-1.84-1.84-1.84c-1.02,0-1.85,0.82-1.85,1.84
		C102.41,156.72,103.23,157.54,104.25,157.54z M108.38,157.54c1.02,0,1.84-0.83,1.84-1.85c0-1.02-0.82-1.84-1.84-1.84
		c-1.02,0-1.84,0.82-1.84,1.84C106.53,156.72,107.36,157.54,108.38,157.54z M112.5,157.54c1.02,0,1.85-0.83,1.85-1.85
		c0-1.02-0.82-1.84-1.85-1.84c-1.02,0-1.84,0.82-1.84,1.84C110.66,156.72,111.48,157.54,112.5,157.54z M116.63,157.54
		c1.02,0,1.84-0.83,1.84-1.85c0-1.02-0.83-1.84-1.84-1.84c-1.02,0-1.85,0.82-1.85,1.84C114.78,156.72,115.61,157.54,116.63,157.54z
		 M120.75,157.54c1.02,0,1.84-0.83,1.84-1.85c0-1.02-0.83-1.84-1.84-1.84c-1.02,0-1.85,0.82-1.85,1.84
		C118.91,156.72,119.73,157.54,120.75,157.54z M124.87,157.54c1.02,0,1.85-0.83,1.85-1.85c0-1.02-0.82-1.84-1.85-1.84
		c-1.02,0-1.84,0.82-1.84,1.84C123.03,156.72,123.86,157.54,124.87,157.54z M129,157.54c1.02,0,1.84-0.83,1.84-1.85
		c0-1.02-0.82-1.84-1.84-1.84c-1.02,0-1.85,0.82-1.85,1.84C127.16,156.72,127.98,157.54,129,157.54z M133.13,157.54
		c1.02,0,1.84-0.83,1.84-1.85c0-1.02-0.83-1.84-1.84-1.84c-1.02,0-1.85,0.82-1.85,1.84C131.28,156.72,132.1,157.54,133.13,157.54z
		 M137.25,157.54c1.02,0,1.85-0.83,1.85-1.85c0-1.02-0.82-1.84-1.85-1.84c-1.02,0-1.84,0.82-1.84,1.84
		C135.4,156.72,136.23,157.54,137.25,157.54z M141.37,157.54c1.02,0,1.84-0.83,1.84-1.85c0-1.02-0.82-1.84-1.84-1.84
		c-1.02,0-1.85,0.82-1.85,1.84C139.53,156.72,140.35,157.54,141.37,157.54z M145.5,157.54c1.02,0,1.84-0.83,1.84-1.85
		c0-1.02-0.83-1.84-1.84-1.84c-1.02,0-1.84,0.82-1.84,1.84C143.66,156.72,144.48,157.54,145.5,157.54z M149.62,157.54
		c1.02,0,1.85-0.83,1.85-1.85c0-1.02-0.83-1.84-1.85-1.84c-1.02,0-1.84,0.82-1.84,1.84C147.78,156.72,148.61,157.54,149.62,157.54z
		 M153.75,157.54c1.02,0,1.84-0.83,1.84-1.85c0-1.02-0.82-1.84-1.84-1.84c-1.02,0-1.85,0.82-1.85,1.84
		C151.9,156.72,152.73,157.54,153.75,157.54z M157.87,157.54c1.02,0,1.84-0.83,1.84-1.85c0-1.02-0.83-1.84-1.84-1.84
		c-1.02,0-1.84,0.82-1.84,1.84C156.03,156.72,156.85,157.54,157.87,157.54z M162,153.86c-1.02,0-1.84,0.82-1.84,1.84
		c0,1.02,0.82,1.85,1.84,1.85c1.02,0,1.85-0.83,1.85-1.85C163.84,154.68,163.02,153.86,162,153.86z M67.13,157.91
		c-1.06,0-1.91,0.86-1.91,1.91c0,1.06,0.85,1.91,1.91,1.91c1.06,0,1.91-0.86,1.91-1.91C69.04,158.77,68.18,157.91,67.13,157.91z
		 M71.25,161.74c1.06,0,1.91-0.86,1.91-1.91c0-1.06-0.86-1.91-1.91-1.91c-1.06,0-1.91,0.86-1.91,1.91
		C69.34,160.88,70.2,161.74,71.25,161.74z M75.38,161.74c1.06,0,1.91-0.86,1.91-1.91c0-1.06-0.85-1.91-1.91-1.91
		c-1.06,0-1.91,0.86-1.91,1.91C73.47,160.88,74.32,161.74,75.38,161.74z M79.5,161.74c1.06,0,1.91-0.86,1.91-1.91
		c0-1.06-0.86-1.91-1.91-1.91c-1.06,0-1.91,0.86-1.91,1.91C77.59,160.88,78.45,161.74,79.5,161.74z M83.63,161.74
		c1.06,0,1.91-0.86,1.91-1.91c0-1.06-0.86-1.91-1.91-1.91s-1.91,0.86-1.91,1.91C81.71,160.88,82.57,161.74,83.63,161.74z
		 M87.75,161.74c1.06,0,1.91-0.86,1.91-1.91c0-1.06-0.85-1.91-1.91-1.91c-1.06,0-1.91,0.86-1.91,1.91
		C85.84,160.88,86.7,161.74,87.75,161.74z M91.88,161.74c1.06,0,1.91-0.86,1.91-1.91c0-1.06-0.86-1.91-1.91-1.91
		c-1.06,0-1.91,0.86-1.91,1.91C89.96,160.88,90.82,161.74,91.88,161.74z M96,161.74c1.06,0,1.91-0.86,1.91-1.91
		c0-1.06-0.86-1.91-1.91-1.91s-1.91,0.86-1.91,1.91C94.09,160.88,94.94,161.74,96,161.74z M100.13,161.74
		c1.06,0,1.91-0.86,1.91-1.91c0-1.06-0.85-1.91-1.91-1.91c-1.06,0-1.91,0.86-1.91,1.91C98.21,160.88,99.07,161.74,100.13,161.74z
		 M104.25,161.74c1.05,0,1.91-0.86,1.91-1.91c0-1.06-0.86-1.91-1.91-1.91c-1.06,0-1.91,0.86-1.91,1.91
		C102.34,160.88,103.19,161.74,104.25,161.74z M108.38,161.74c1.06,0,1.91-0.86,1.91-1.91c0-1.06-0.86-1.91-1.91-1.91
		c-1.05,0-1.91,0.86-1.91,1.91C106.46,160.88,107.32,161.74,108.38,161.74z M112.5,161.74c1.06,0,1.91-0.86,1.91-1.91
		c0-1.06-0.85-1.91-1.91-1.91c-1.06,0-1.91,0.86-1.91,1.91C110.59,160.88,111.44,161.74,112.5,161.74z M116.63,161.74
		c1.06,0,1.91-0.86,1.91-1.91c0-1.06-0.86-1.91-1.91-1.91c-1.06,0-1.91,0.86-1.91,1.91C114.71,160.88,115.57,161.74,116.63,161.74z
		 M120.75,161.74c1.05,0,1.91-0.86,1.91-1.91c0-1.06-0.86-1.91-1.91-1.91c-1.06,0-1.91,0.86-1.91,1.91
		C118.84,160.88,119.69,161.74,120.75,161.74z M124.87,161.74c1.06,0,1.91-0.86,1.91-1.91c0-1.06-0.85-1.91-1.91-1.91
		c-1.06,0-1.91,0.86-1.91,1.91C122.96,160.88,123.82,161.74,124.87,161.74z M129,161.74c1.06,0,1.91-0.86,1.91-1.91
		c0-1.06-0.85-1.91-1.91-1.91c-1.06,0-1.91,0.86-1.91,1.91C127.09,160.88,127.94,161.74,129,161.74z M133.13,161.74
		c1.06,0,1.91-0.86,1.91-1.91c0-1.06-0.86-1.91-1.91-1.91s-1.91,0.86-1.91,1.91C131.21,160.88,132.07,161.74,133.13,161.74z
		 M137.25,161.74c1.06,0,1.91-0.86,1.91-1.91c0-1.06-0.85-1.91-1.91-1.91c-1.06,0-1.91,0.86-1.91,1.91
		C135.34,160.88,136.19,161.74,137.25,161.74z M141.37,161.74c1.06,0,1.91-0.86,1.91-1.91c0-1.06-0.86-1.91-1.91-1.91
		c-1.06,0-1.91,0.86-1.91,1.91C139.46,160.88,140.32,161.74,141.37,161.74z M145.5,161.74c1.06,0,1.91-0.86,1.91-1.91
		c0-1.06-0.86-1.91-1.91-1.91c-1.06,0-1.91,0.86-1.91,1.91C143.59,160.88,144.44,161.74,145.5,161.74z M149.62,161.74
		c1.06,0,1.91-0.86,1.91-1.91c0-1.06-0.86-1.91-1.91-1.91c-1.05,0-1.91,0.86-1.91,1.91C147.71,160.88,148.57,161.74,149.62,161.74z
		 M153.75,161.74c1.06,0,1.91-0.86,1.91-1.91c0-1.06-0.85-1.91-1.91-1.91c-1.06,0-1.91,0.86-1.91,1.91
		C151.84,160.88,152.69,161.74,153.75,161.74z M157.87,157.91c-1.06,0-1.91,0.86-1.91,1.91c0,1.06,0.86,1.91,1.91,1.91
		s1.91-0.86,1.91-1.91C159.79,158.77,158.93,157.91,157.87,157.91z M71.25,161.98c-1.09,0-1.97,0.88-1.97,1.97s0.88,1.97,1.97,1.97
		c1.09,0,1.97-0.88,1.97-1.97S72.34,161.98,71.25,161.98z M75.38,161.98c-1.09,0-1.97,0.88-1.97,1.97s0.88,1.97,1.97,1.97
		c1.09,0,1.97-0.88,1.97-1.97S76.47,161.98,75.38,161.98z M79.5,165.92c1.09,0,1.97-0.88,1.97-1.97s-0.88-1.97-1.97-1.97
		c-1.09,0-1.97,0.88-1.97,1.97S78.41,165.92,79.5,165.92z M83.63,165.92c1.09,0,1.97-0.88,1.97-1.97s-0.88-1.97-1.97-1.97
		c-1.09,0-1.97,0.88-1.97,1.97S82.54,165.92,83.63,165.92z M87.75,165.92c1.09,0,1.97-0.88,1.97-1.97s-0.88-1.97-1.97-1.97
		c-1.09,0-1.97,0.88-1.97,1.97S86.66,165.92,87.75,165.92z M91.88,165.92c1.09,0,1.97-0.88,1.97-1.97s-0.88-1.97-1.97-1.97
		c-1.09,0-1.97,0.88-1.97,1.97S90.79,165.92,91.88,165.92z M96,165.92c1.09,0,1.97-0.88,1.97-1.97s-0.88-1.97-1.97-1.97
		c-1.09,0-1.97,0.88-1.97,1.97S94.91,165.92,96,165.92z M100.13,165.92c1.09,0,1.97-0.88,1.97-1.97s-0.88-1.97-1.97-1.97
		s-1.97,0.88-1.97,1.97S99.04,165.92,100.13,165.92z M104.25,165.92c1.09,0,1.97-0.88,1.97-1.97s-0.88-1.97-1.97-1.97
		c-1.09,0-1.97,0.88-1.97,1.97S103.16,165.92,104.25,165.92z M108.38,165.92c1.09,0,1.97-0.88,1.97-1.97s-0.88-1.97-1.97-1.97
		c-1.09,0-1.97,0.88-1.97,1.97S107.29,165.92,108.38,165.92z M112.5,165.92c1.09,0,1.97-0.88,1.97-1.97s-0.88-1.97-1.97-1.97
		c-1.09,0-1.97,0.88-1.97,1.97S111.41,165.92,112.5,165.92z M116.63,165.92c1.09,0,1.97-0.88,1.97-1.97s-0.88-1.97-1.97-1.97
		c-1.09,0-1.97,0.88-1.97,1.97S115.53,165.92,116.63,165.92z M120.75,165.92c1.09,0,1.97-0.88,1.97-1.97s-0.88-1.97-1.97-1.97
		c-1.09,0-1.97,0.88-1.97,1.97S119.66,165.92,120.75,165.92z M124.87,165.92c1.09,0,1.97-0.88,1.97-1.97s-0.88-1.97-1.97-1.97
		c-1.09,0-1.97,0.88-1.97,1.97S123.79,165.92,124.87,165.92z M129,165.92c1.09,0,1.97-0.88,1.97-1.97s-0.88-1.97-1.97-1.97
		c-1.09,0-1.97,0.88-1.97,1.97S127.91,165.92,129,165.92z M133.13,165.92c1.09,0,1.97-0.88,1.97-1.97s-0.88-1.97-1.97-1.97
		c-1.09,0-1.97,0.88-1.97,1.97S132.04,165.92,133.13,165.92z M137.25,165.92c1.09,0,1.97-0.88,1.97-1.97s-0.88-1.97-1.97-1.97
		c-1.09,0-1.97,0.88-1.97,1.97S136.16,165.92,137.25,165.92z M141.37,165.92c1.09,0,1.97-0.88,1.97-1.97s-0.88-1.97-1.97-1.97
		c-1.09,0-1.97,0.88-1.97,1.97S140.28,165.92,141.37,165.92z M145.5,165.92c1.09,0,1.97-0.88,1.97-1.97s-0.88-1.97-1.97-1.97
		c-1.09,0-1.97,0.88-1.97,1.97S144.41,165.92,145.5,165.92z M149.62,161.98c-1.09,0-1.97,0.88-1.97,1.97s0.88,1.97,1.97,1.97
		c1.09,0,1.97-0.88,1.97-1.97S150.71,161.98,149.62,161.98z M153.75,161.98c-1.09,0-1.97,0.88-1.97,1.97s0.88,1.97,1.97,1.97
		s1.97-0.88,1.97-1.97S154.84,161.98,153.75,161.98z M79.5,166.03c-1.13,0-2.04,0.91-2.04,2.04c0,1.13,0.91,2.04,2.04,2.04
		s2.04-0.91,2.04-2.04C81.54,166.95,80.63,166.03,79.5,166.03z M83.63,166.03c-1.13,0-2.04,0.91-2.04,2.04
		c0,1.13,0.91,2.04,2.04,2.04c1.13,0,2.04-0.91,2.04-2.04C85.67,166.95,84.76,166.03,83.63,166.03z M141.37,166.03
		c-1.13,0-2.04,0.91-2.04,2.04c0,1.13,0.91,2.04,2.04,2.04c1.13,0,2.04-0.91,2.04-2.04C143.42,166.95,142.5,166.03,141.37,166.03z
		 M145.5,166.03c-1.13,0-2.04,0.91-2.04,2.04c0,1.13,0.91,2.04,2.04,2.04c1.13,0,2.04-0.91,2.04-2.04
		C147.54,166.95,146.63,166.03,145.5,166.03z M137.31,170.1c1.1-0.04,1.98-0.93,1.98-2.03c0-1.13-0.91-2.04-2.04-2.04
		c-1.13,0-2.04,0.91-2.04,2.04c0,1.1,0.88,1.99,1.98,2.03c-1.05,0.03-1.88,0.83-2,1.86c-0.12-1.03-0.95-1.83-2-1.86
		c1.1-0.04,1.98-0.93,1.98-2.03c0-1.13-0.91-2.04-2.04-2.04c-1.13,0-2.04,0.91-2.04,2.04c0,1.1,0.88,1.99,1.98,2.03
		c-1.05,0.03-1.88,0.83-2,1.86c-0.12-1.03-0.95-1.83-2-1.86c1.1-0.04,1.98-0.93,1.98-2.03c0-1.13-0.91-2.04-2.04-2.04
		c-1.13,0-2.04,0.91-2.04,2.04c0,1.1,0.88,1.99,1.98,2.03c-1.05,0.03-1.88,0.83-2,1.86c-0.12-1.03-0.95-1.83-2-1.86
		c1.1-0.04,1.98-0.93,1.98-2.03c0-1.13-0.91-2.04-2.04-2.04c-1.13,0-2.04,0.91-2.04,2.04c0,1.1,0.88,1.99,1.98,2.03
		c-1.05,0.03-1.88,0.83-2,1.86c-0.12-1.03-0.95-1.83-2-1.86c1.1-0.04,1.98-0.93,1.98-2.03c0-1.13-0.91-2.04-2.04-2.04
		c-1.13,0-2.04,0.91-2.04,2.04c0,1.1,0.88,1.99,1.98,2.03c-1.05,0.03-1.88,0.83-2,1.86c-0.12-1.03-0.95-1.83-2-1.86
		c1.1-0.04,1.98-0.93,1.98-2.03c0-1.13-0.91-2.04-2.04-2.04c-1.13,0-2.04,0.91-2.04,2.04c0,1.1,0.88,1.99,1.98,2.03
		c-1.05,0.03-1.88,0.83-2,1.86c-0.12-1.03-0.95-1.83-2-1.86c1.1-0.04,1.98-0.93,1.98-2.03c0-1.13-0.91-2.04-2.04-2.04
		c-1.13,0-2.04,0.91-2.04,2.04c0,1.1,0.88,1.99,1.98,2.03c-1.05,0.03-1.88,0.83-2,1.86c-0.12-1.03-0.95-1.83-2-1.86
		c1.1-0.04,1.98-0.93,1.98-2.03c0-1.13-0.91-2.04-2.04-2.04c-1.13,0-2.04,0.91-2.04,2.04c0,1.1,0.88,1.99,1.98,2.03
		c-1.05,0.03-1.88,0.83-2,1.86c-0.12-1.03-0.95-1.83-2-1.86c1.1-0.04,1.98-0.93,1.98-2.03c0-1.13-0.92-2.04-2.04-2.04
		c-1.13,0-2.04,0.91-2.04,2.04c0,1.1,0.88,1.99,1.98,2.03c-1.05,0.03-1.88,0.83-2,1.86c-0.12-1.03-0.95-1.83-2-1.86
		c1.1-0.04,1.98-0.93,1.98-2.03c0-1.13-0.91-2.04-2.04-2.04c-1.13,0-2.04,0.91-2.04,2.04c0,1.1,0.88,1.99,1.98,2.03
		c-1.05,0.03-1.88,0.83-2,1.86c-0.12-1.03-0.95-1.83-2-1.86c1.1-0.04,1.98-0.93,1.98-2.03c0-1.13-0.91-2.04-2.04-2.04
		c-1.13,0-2.04,0.91-2.04,2.04c0,1.1,0.88,1.99,1.98,2.03c-1.05,0.03-1.88,0.83-2,1.86c-0.12-1.03-0.95-1.83-2-1.86
		c1.1-0.04,1.98-0.93,1.98-2.03c0-1.13-0.91-2.04-2.04-2.04s-2.04,0.91-2.04,2.04c0,1.1,0.88,1.99,1.98,2.03
		c-1.05,0.03-1.88,0.83-2,1.86c-0.12-1.03-0.95-1.83-2-1.86c1.1-0.04,1.98-0.93,1.98-2.03c0-1.13-0.91-2.04-2.04-2.04
		c-1.13,0-2.04,0.91-2.04,2.04c0,1.1,0.88,1.99,1.98,2.03c-1.13,0.03-2.04,0.95-2.04,2.1c0,1.17,0.94,2.11,2.11,2.11
		c1.08,0,1.94-0.82,2.06-1.87c0.12,1.05,0.98,1.87,2.06,1.87c1.08,0,1.94-0.82,2.06-1.87c0.12,1.05,0.98,1.87,2.06,1.87
		c1.08,0,1.94-0.82,2.06-1.87c0.11,0.92,0.78,1.62,1.68,1.79c-1.01,0.19-1.79,1.03-1.79,2.09c0,1.2,0.97,2.17,2.17,2.17
		c1.01,0,1.82-0.7,2.06-1.63c0.24,0.93,1.05,1.63,2.06,1.63c1.01,0,1.82-0.7,2.06-1.64c0.24,0.93,1.05,1.64,2.06,1.64
		c1.01,0,1.82-0.7,2.06-1.64c0.24,0.93,1.05,1.64,2.06,1.64s1.82-0.7,2.06-1.63c0.24,0.93,1.05,1.63,2.06,1.63
		c1.01,0,1.82-0.7,2.06-1.64c0.24,0.93,1.05,1.64,2.06,1.64c1.01,0,1.82-0.7,2.06-1.64c0.24,0.93,1.05,1.64,2.06,1.64
		c1.2,0,2.17-0.97,2.17-2.17c0-1.06-0.78-1.9-1.79-2.09c0.9-0.17,1.57-0.88,1.68-1.79c0.12,1.05,0.98,1.87,2.06,1.87
		c1.08,0,1.94-0.82,2.06-1.87c0.12,1.05,0.98,1.87,2.06,1.87s1.94-0.82,2.06-1.87c0.12,1.05,0.98,1.87,2.06,1.87
		c1.17,0,2.11-0.94,2.11-2.11C139.36,171.05,138.45,170.14,137.31,170.1z M102.19,175.79c-0.21-0.81-0.85-1.41-1.68-1.56
		c0.9-0.17,1.57-0.88,1.68-1.79c0.11,0.92,0.79,1.62,1.68,1.79C103.04,174.38,102.4,174.98,102.19,175.79z M106.31,175.79
		c-0.21-0.81-0.85-1.41-1.68-1.56c0.89-0.17,1.57-0.88,1.68-1.79c0.1,0.92,0.78,1.62,1.68,1.79
		C107.16,174.38,106.52,174.98,106.31,175.79z M110.44,175.79c-0.21-0.81-0.85-1.41-1.68-1.56c0.89-0.17,1.57-0.88,1.68-1.79
		c0.11,0.92,0.78,1.62,1.68,1.79C111.29,174.38,110.65,174.98,110.44,175.79z M114.56,175.79c-0.21-0.81-0.85-1.41-1.68-1.56
		c0.9-0.17,1.57-0.88,1.68-1.79c0.11,0.92,0.78,1.62,1.68,1.79C115.41,174.38,114.77,174.98,114.56,175.79z M118.69,175.79
		c-0.21-0.81-0.85-1.41-1.68-1.56c0.9-0.17,1.57-0.88,1.68-1.79c0.11,0.92,0.79,1.62,1.68,1.79
		C119.54,174.38,118.9,174.98,118.69,175.79z M122.81,175.79c-0.21-0.81-0.85-1.41-1.68-1.56c0.89-0.17,1.57-0.88,1.68-1.79
		c0.1,0.92,0.78,1.62,1.68,1.79C123.66,174.38,123.02,174.98,122.81,175.79z"/>
</g>
</svg>
