<?xml version="1.0" encoding="utf-8"?>
<!-- Generator: Adobe Illustrator 26.2.1, SVG Export Plug-In . SVG Version: 6.00 Build 0)  -->
<svg version="1.1" xmlns="http://www.w3.org/2000/svg" xmlns:xlink="http://www.w3.org/1999/xlink" x="0px" y="0px"
	 viewBox="0 0 225 225" style="enable-background:new 0 0 225 225;" xml:space="preserve">
<style type="text/css">
	.st0{display:none;}
	.st1{display:inline;fill:#FAB433;}
	.st2{fill:none;}
	.st3{fill:none;stroke:#000000;stroke-width:1.6;stroke-miterlimit:10;}
	.st4{fill:none;stroke:#000000;stroke-width:0.7265;stroke-miterlimit:10;}
	.st5{fill:none;stroke:#000000;stroke-linecap:round;stroke-linejoin:round;stroke-miterlimit:10;}
	.st6{fill:none;stroke:#000000;stroke-miterlimit:10;}
	.st7{fill:none;stroke:#000000;stroke-width:0.7105;stroke-miterlimit:10;}
	.st8{fill:none;stroke:#000000;stroke-width:5.4;stroke-linecap:round;stroke-linejoin:round;stroke-miterlimit:10;}
	.st9{fill:none;stroke:#000000;stroke-width:2.9309;stroke-linecap:round;stroke-linejoin:round;stroke-miterlimit:10;}
	.st10{fill:none;stroke:#000000;stroke-width:0.5;stroke-linecap:round;stroke-linejoin:round;}
	.st11{fill:none;stroke:#FFFFFF;stroke-width:0;stroke-linecap:round;stroke-linejoin:round;}
	.st12{fill:#FFFFFF;}
	.st13{fill:none;stroke:#000000;stroke-width:1.4;stroke-miterlimit:10;}
	.st14{fill:url(#);stroke:#000000;stroke-width:1.4387;stroke-miterlimit:10;}
	.st15{fill:url(#);stroke:#000000;stroke-width:1.3718;stroke-miterlimit:10;}
	.st16{fill:none;stroke:#000000;stroke-width:1.0041;stroke-miterlimit:10;}
	.st17{fill:none;stroke:#000000;stroke-width:1.3621;stroke-miterlimit:10;}
	.st18{fill:none;stroke:#000000;stroke-width:0.25;stroke-miterlimit:10;}
</style>
<g id="Layer_2" class="st0">
	<rect id="XMLID_1638_" x="-345.99" y="-275.01" class="st1" width="1160" height="772"/>
</g>
<g id="Layer_1">
	<g id="XMLID_6496_">
		<path id="XMLID_6500_" class="st3" d="M82.4,112.5c0-37.77,13.47-68.4,30.1-68.4c16.62,0,30.1,30.63,30.1,68.4
			s-13.47,68.4-30.1,68.4C95.87,180.9,82.4,150.27,82.4,112.5z"/>
		<path id="XMLID_6499_" class="st3" d="M112.5,82.4c37.77,0,68.4,13.47,68.4,30.1c0,16.62-30.63,30.1-68.4,30.1
			c-37.77,0-68.4-13.47-68.4-30.1C44.1,95.87,74.73,82.4,112.5,82.4z"/>
		<path id="XMLID_6498_" class="st3" d="M91.22,91.22c26.71-26.71,57.89-38.84,69.65-27.08c11.75,11.75-0.37,42.94-27.08,69.65
			s-57.89,38.84-69.65,27.08C52.38,149.11,64.51,117.93,91.22,91.22z"/>
		<path id="XMLID_6497_" class="st3" d="M133.78,91.21c26.71,26.71,38.84,57.89,27.08,69.65c-11.75,11.75-42.94-0.37-69.65-27.09
			c-26.71-26.71-38.84-57.89-27.09-69.65C75.89,52.37,107.07,64.5,133.78,91.21z"/>
	</g>
</g>
</svg>
