<?xml version="1.0" encoding="utf-8"?>
<!-- Generator: Adobe Illustrator 26.2.1, SVG Export Plug-In . SVG Version: 6.00 Build 0)  -->
<svg version="1.1" xmlns="http://www.w3.org/2000/svg" xmlns:xlink="http://www.w3.org/1999/xlink" x="0px" y="0px"
	 viewBox="0 0 225 225" style="enable-background:new 0 0 225 225;" xml:space="preserve">
<style type="text/css">
	.st0{display:none;}
	.st1{display:inline;fill:#FAB433;}
	.st2{fill:none;}
	.st3{fill:none;stroke:#000000;stroke-width:1.6;stroke-miterlimit:10;}
	.st4{fill:none;stroke:#000000;stroke-width:0.7265;stroke-miterlimit:10;}
	.st5{fill:none;stroke:#000000;stroke-linecap:round;stroke-linejoin:round;stroke-miterlimit:10;}
	.st6{fill:none;stroke:#000000;stroke-miterlimit:10;}
	.st7{fill:none;stroke:#000000;stroke-width:0.7105;stroke-miterlimit:10;}
	.st8{fill:none;stroke:#000000;stroke-width:5.4;stroke-linecap:round;stroke-linejoin:round;stroke-miterlimit:10;}
	.st9{fill:none;stroke:#000000;stroke-width:2.9309;stroke-linecap:round;stroke-linejoin:round;stroke-miterlimit:10;}
	.st10{fill:none;stroke:#000000;stroke-width:0.5;stroke-linecap:round;stroke-linejoin:round;}
	.st11{fill:none;stroke:#FFFFFF;stroke-width:0;stroke-linecap:round;stroke-linejoin:round;}
	.st12{fill:#FFFFFF;}
	.st13{fill:none;stroke:#000000;stroke-width:1.4;stroke-miterlimit:10;}
	.st14{fill:url(#);stroke:#000000;stroke-width:1.4387;stroke-miterlimit:10;}
	.st15{fill:url(#);stroke:#000000;stroke-width:1.3718;stroke-miterlimit:10;}
	.st16{fill:none;stroke:#000000;stroke-width:1.0041;stroke-miterlimit:10;}
	.st17{fill:none;stroke:#000000;stroke-width:1.3621;stroke-miterlimit:10;}
	.st18{fill:none;stroke:#000000;stroke-width:0.25;stroke-miterlimit:10;}
</style>
<g id="Layer_2" class="st0">
	
		<rect id="XMLID_00000049924193275795927410000016330201882968263580_" x="-100.99" y="-275.01" class="st1" width="1160" height="772"/>
</g>
<g id="Layer_1">
	<g id="XMLID_00000052089775282695649330000015951344863046944907_">
		<path id="XMLID_00000023257128686076108300000004318966943347764887_" d="M112.5,156.75V179c2.33,0,4.66-0.12,6.98-0.36
			l-2.31-22.13C115.62,156.67,114.06,156.75,112.5,156.75z M117.81,156.44l2.63,22.09c2.16-0.26,4.31-0.62,6.43-1.09l-4.79-21.72
			C120.68,156.02,119.25,156.26,117.81,156.44z M123.03,155.49l5.27,21.61c1.96-0.48,3.89-1.04,5.8-1.7l-7.23-21.04
			C125.61,154.8,124.33,155.18,123.03,155.49z M128.09,153.93l7.84,20.82c1.74-0.65,3.45-1.38,5.12-2.17l-9.56-20.09
			C130.38,153.02,129.24,153.5,128.09,153.93z M132.93,151.76l10.29,19.72c1.51-0.78,2.97-1.62,4.41-2.52l-11.77-18.88
			C134.9,150.69,133.93,151.25,132.93,151.76z M137.48,149.03l12.58,18.35c1.27-0.86,2.49-1.78,3.69-2.72l-13.81-17.44
			C139.14,147.85,138.33,148.46,137.48,149.03z M141.67,145.77l14.67,16.72c1.03-0.9,2.02-1.84,3-2.8l-15.67-15.79
			C143.02,144.55,142.36,145.17,141.67,145.77z M145.45,142.03l16.56,14.85c0.8-0.9,1.59-1.81,2.34-2.76l-17.34-13.94
			C146.52,140.83,145.99,141.43,145.45,142.03z M148.76,137.87l18.21,12.77c0.6-0.85,1.18-1.72,1.74-2.61l-18.79-11.9
			C149.54,136.72,149.16,137.3,148.76,137.87z M151.54,133.35l19.61,10.5c0.42-0.78,0.82-1.57,1.2-2.36l-20.01-9.71
			C152.08,132.31,151.82,132.83,151.54,133.35z M153.76,128.54l20.73,8.07c0.26-0.68,0.52-1.35,0.75-2.04l-20.98-7.38L153.76,128.54
			z M155.38,123.49l21.55,5.51l0.4-1.64l-21.69-4.95L155.38,123.49z M156.38,118.29l22.06,2.87l0.14-1.19l-22.11-2.48L156.38,118.29
			z M156.75,112.5l-0.01,0.48l22.24,0.24l0.01-0.71H156.75z"/>
		<path id="XMLID_00000054237202589560982770000011481911612733424003_" d="M68.25,112.5H46c0,2.33,0.12,4.66,0.36,6.98l22.13-2.31
			C68.33,115.62,68.25,114.06,68.25,112.5z M68.56,117.81l-22.09,2.63c0.26,2.16,0.62,4.31,1.09,6.43l21.72-4.79
			C68.98,120.68,68.74,119.25,68.56,117.81z M69.51,123.03L47.9,128.3c0.47,1.96,1.04,3.89,1.7,5.8l21.04-7.22
			C70.2,125.61,69.83,124.33,69.51,123.03z M71.07,128.09l-20.82,7.84c0.65,1.73,1.38,3.44,2.17,5.12l20.09-9.56
			C71.98,130.38,71.5,129.24,71.07,128.09z M73.24,132.93l-19.73,10.29c0.78,1.5,1.62,2.97,2.52,4.4l18.88-11.76
			C74.32,134.9,73.75,133.93,73.24,132.93z M75.97,137.48l-18.35,12.58c0.86,1.26,1.78,2.49,2.72,3.69l17.44-13.81
			C77.16,139.14,76.54,138.32,75.97,137.48z M79.23,141.68l-16.72,14.68c0.9,1.03,1.83,2.02,2.79,3l15.79-15.67
			C80.45,143.03,79.83,142.36,79.23,141.68z M82.97,145.45l-14.86,16.56c0.9,0.8,1.81,1.59,2.76,2.34l13.94-17.34
			C84.17,146.52,83.57,145.99,82.97,145.45z M87.13,148.76l-12.77,18.21c0.85,0.6,1.72,1.18,2.61,1.74l11.9-18.79
			C88.28,149.55,87.7,149.16,87.13,148.76z M91.65,151.54l-10.5,19.61c0.78,0.42,1.57,0.82,2.36,1.21l9.71-20.02
			C92.69,152.09,92.16,151.82,91.65,151.54z M96.46,153.76l-8.07,20.73c0.68,0.26,1.35,0.52,2.04,0.75l7.38-20.99L96.46,153.76z
			 M96,176.93l1.64,0.4l4.95-21.69l-1.09-0.26L96,176.93z M103.84,178.44l1.19,0.14l2.48-22.11l-0.8-0.09L103.84,178.44z
			 M112.02,156.75l-0.24,22.24l0.72,0.01v-22.25L112.02,156.75z"/>
		<path id="XMLID_00000099640061445895730900000007557015547271271061_" d="M105.52,46.36l2.32,22.13c1.55-0.16,3.1-0.24,4.67-0.24
			V46C110.17,46,107.84,46.12,105.52,46.36z M98.12,47.57l4.79,21.72c1.41-0.31,2.84-0.55,4.28-0.73l-2.64-22.09
			C102.39,46.73,100.24,47.1,98.12,47.57z M90.9,49.59l7.22,21.04c1.26-0.43,2.55-0.81,3.85-1.12L96.7,47.89
			C94.74,48.37,92.8,48.94,90.9,49.59z M83.95,52.43l9.56,20.09c1.11-0.53,2.24-1.01,3.4-1.44l-7.84-20.82
			C87.33,50.91,85.62,51.63,83.95,52.43z M77.38,56.03l11.76,18.88c0.96-0.59,1.93-1.16,2.93-1.67L81.78,53.51
			C80.28,54.29,78.81,55.13,77.38,56.03z M71.25,60.34l13.81,17.44c0.8-0.63,1.61-1.24,2.46-1.81L74.94,57.62
			C73.68,58.48,72.45,59.4,71.25,60.34z M65.65,65.31l15.67,15.79c0.65-0.64,1.31-1.27,2-1.87L68.65,62.51
			C67.62,63.41,66.62,64.35,65.65,65.31z M60.64,70.87l17.34,13.93c0.5-0.63,1.02-1.24,1.56-1.84L62.98,68.11
			C62.18,69.01,61.39,69.93,60.64,70.87z M56.29,76.96l18.79,11.9c0.37-0.59,0.76-1.17,1.16-1.74L58.03,74.35
			C57.43,75.21,56.85,76.08,56.29,76.96z M52.64,83.51l20.01,9.71c0.26-0.53,0.52-1.05,0.8-1.57l-19.61-10.5
			C53.43,81.93,53.03,82.72,52.64,83.51z M49.76,90.43l20.98,7.38l0.5-1.35L50.51,88.4C50.25,89.07,49.99,89.75,49.76,90.43z
			 M47.67,97.64l21.69,4.95l0.26-1.09L48.07,96L47.67,97.64z M46.42,105.03l22.11,2.48l0.09-0.79l-22.06-2.87L46.42,105.03z
			 M46,112.5h22.25l0.01-0.48l-22.24-0.24L46,112.5z"/>
		<path id="XMLID_00000052811111776239167990000013801914075872715937_" d="M178.64,105.52l-22.13,2.31
			c0.16,1.55,0.24,3.1,0.24,4.67H179C179,110.17,178.88,107.84,178.64,105.52z M177.43,98.12l-21.72,4.79
			c0.31,1.41,0.55,2.84,0.73,4.27l22.09-2.63C178.27,102.39,177.9,100.25,177.43,98.12z M175.41,90.9l-21.04,7.23
			c0.43,1.26,0.81,2.55,1.12,3.85l21.61-5.27C176.63,94.74,176.06,92.8,175.41,90.9z M172.57,83.95l-20.09,9.56
			c0.53,1.11,1.01,2.24,1.44,3.4l20.82-7.84C174.09,87.33,173.37,85.62,172.57,83.95z M168.97,77.38l-18.88,11.77
			c0.6,0.95,1.16,1.93,1.67,2.93l19.73-10.29C170.71,80.28,169.87,78.81,168.97,77.38z M164.66,71.25l-17.44,13.81
			c0.63,0.8,1.24,1.61,1.81,2.46l18.35-12.58C166.52,73.68,165.6,72.45,164.66,71.25z M159.69,65.65l-15.79,15.67
			c0.64,0.65,1.26,1.31,1.86,2l16.72-14.67C161.59,67.62,160.65,66.62,159.69,65.65z M154.13,60.64l-13.93,17.34
			c0.63,0.5,1.24,1.03,1.84,1.56l14.85-16.56C155.99,62.18,155.07,61.4,154.13,60.64z M148.04,56.29l-11.9,18.79
			c0.59,0.37,1.17,0.76,1.74,1.16l12.77-18.21C149.79,57.43,148.92,56.85,148.04,56.29z M141.49,52.64l-9.71,20.02
			c0.53,0.26,1.05,0.52,1.57,0.8l10.5-19.61C143.07,53.43,142.28,53.03,141.49,52.64z M134.57,49.76l-7.38,20.99l1.35,0.5
			l8.07-20.73C135.93,50.25,135.25,49.99,134.57,49.76z M127.36,47.67l-4.96,21.69l1.09,0.26L129,48.07L127.36,47.67z M117.49,68.53
			l0.79,0.1l2.87-22.06l-1.19-0.14L117.49,68.53z M112.5,68.25l0.48,0.01l0.23-22.24L112.5,46V68.25z"/>
	</g>
</g>
</svg>
