<?xml version="1.0" encoding="utf-8"?>
<!-- Generator: Adobe Illustrator 26.2.1, SVG Export Plug-In . SVG Version: 6.00 Build 0)  -->
<svg version="1.1" xmlns="http://www.w3.org/2000/svg" xmlns:xlink="http://www.w3.org/1999/xlink" x="0px" y="0px"
	 viewBox="0 0 225 225" style="enable-background:new 0 0 225 225;" xml:space="preserve">
<style type="text/css">
	.st0{display:none;}
	.st1{display:inline;fill:#FAB433;}
	.st2{fill:none;}
	.st3{fill:none;stroke:#000000;stroke-width:1.6;stroke-miterlimit:10;}
	.st4{fill:none;stroke:#000000;stroke-width:0.7265;stroke-miterlimit:10;}
	.st5{fill:none;stroke:#000000;stroke-linecap:round;stroke-linejoin:round;stroke-miterlimit:10;}
	.st6{fill:none;stroke:#000000;stroke-miterlimit:10;}
	.st7{fill:none;stroke:#000000;stroke-width:0.7105;stroke-miterlimit:10;}
	.st8{fill:none;stroke:#000000;stroke-width:5.4;stroke-linecap:round;stroke-linejoin:round;stroke-miterlimit:10;}
	.st9{fill:none;stroke:#000000;stroke-width:2.9309;stroke-linecap:round;stroke-linejoin:round;stroke-miterlimit:10;}
	.st10{fill:none;stroke:#000000;stroke-width:0.5;stroke-linecap:round;stroke-linejoin:round;}
	.st11{fill:none;stroke:#FFFFFF;stroke-width:0;stroke-linecap:round;stroke-linejoin:round;}
	.st12{fill:#FFFFFF;}
	.st13{fill:none;stroke:#000000;stroke-width:1.4;stroke-miterlimit:10;}
	.st14{fill:url(#);stroke:#000000;stroke-width:1.4387;stroke-miterlimit:10;}
	.st15{fill:url(#);stroke:#000000;stroke-width:1.3718;stroke-miterlimit:10;}
	.st16{fill:none;stroke:#000000;stroke-width:1.0041;stroke-miterlimit:10;}
	.st17{fill:none;stroke:#000000;stroke-width:1.3621;stroke-miterlimit:10;}
	.st18{fill:none;stroke:#000000;stroke-width:0.25;stroke-miterlimit:10;}
</style>
<g id="Layer_2" class="st0">
	<rect id="XMLID_1014_" x="-100.99" y="-30.01" class="st1" width="1160" height="772"/>
</g>
<g id="Layer_1">
	<g>
		<path d="M178.01,112.49h-5.29c0,33.25-26.96,60.21-60.21,60.21c-33.25,0-60.21-26.96-60.21-60.21h-3.38h-0.93h-0.98h-0.1
			c0,36.23,29.37,65.6,65.6,65.6c36.23,0,65.6-29.37,65.6-65.6H178.01z"/>
		<path d="M112.51,161.77c-27.21,0-49.27-22.06-49.27-49.27h-2.19c0,28.42,23.04,51.46,51.46,51.46c28.42,0,51.46-23.04,51.46-51.46
			h-2.19C161.78,139.7,139.72,161.77,112.51,161.77z"/>
		<path d="M112.51,133.34c11.51,0,20.85-9.33,20.85-20.85h-5.48c0,3.55-1.21,6.81-3.23,9.41v0c0,0,0,0,0,0
			c-0.26,0.34-0.54,0.66-0.82,0.97c-0.01,0.01-0.02,0.02-0.03,0.04c-1.41,1.52-3.12,2.76-5.04,3.62v0c0,0,0,0,0,0
			c-0.21,0.09-0.42,0.17-0.63,0.26c-0.22,0.09-0.44,0.17-0.66,0.24c-0.16,0.05-0.32,0.11-0.48,0.16c0,0,0,0,0,0v0
			c-1.31,0.4-2.7,0.61-4.13,0.64v0c-0.11,0-0.21,0.02-0.32,0.02c-0.26,0-0.52-0.02-0.78-0.04c-1.97-0.1-3.84-0.56-5.55-1.33
			c-0.28-0.12-0.55-0.26-0.82-0.4c-0.07-0.03-0.13-0.06-0.2-0.1c0,0,0,0,0,0l0,0c-2.01-1.1-3.74-2.64-5.08-4.48c0,0,0,0,0,0
			c-1.84-2.53-2.94-5.64-2.94-9.02h-3.43h-0.93h-1.12C91.66,124.01,101,133.34,112.51,133.34z"/>
		<path d="M122.87,112.49v11.33c0.32-0.29,0.62-0.59,0.91-0.91c0.01-0.01,0.02-0.02,0.03-0.04c0.29-0.31,0.56-0.64,0.82-0.97
			c0,0,0,0,0,0v0v-9.41H122.87z"/>
		<path d="M111.06,112.49v15.29c0.22,0.02,0.45,0.02,0.67,0.03c0.26,0.01,0.51,0.04,0.78,0.04c0.11,0,0.22-0.01,0.32-0.02v0v-15.35
			H111.06z"/>
		<path d="M101.03,112.49h-1.77v7.75c0.26,0.44,0.53,0.86,0.83,1.26c0,0,0,0,0,0c0.3,0.41,0.61,0.8,0.94,1.17V112.49z"/>
		<path d="M116.97,112.49v14.71v0c0,0,0,0,0,0c0.16-0.05,0.32-0.11,0.48-0.16c0.22-0.08,0.45-0.16,0.66-0.24
			c0.21-0.08,0.42-0.17,0.63-0.26c0,0,0,0,0,0v0v-14.04H116.97z"/>
		<path d="M106.93,112.49h-1.77v13.5l0,0c0,0,0,0,0,0c0.06,0.04,0.13,0.06,0.2,0.1c0.27,0.14,0.54,0.27,0.82,0.4
			c0.25,0.11,0.5,0.21,0.75,0.31V112.49z"/>
		<rect x="116.11" y="61.78" width="10.26" height="10.26"/>
		<rect x="116.11" y="72.98" width="10.26" height="10.27"/>
		<rect x="116.11" y="84.17" width="10.26" height="10.27"/>
		<rect x="71.32" y="61.78" width="10.26" height="10.26"/>
		<polygon points="127.31,72.04 132.2,72.04 132.67,72.04 137.57,72.04 137.57,61.78 132.67,61.78 132.2,61.78 127.31,61.78 		"/>
		<polygon points="116.11,55.48 116.11,55.95 116.11,60.85 126.37,60.85 126.37,55.95 126.37,55.48 126.37,50.58 116.11,50.58 		"/>
		<rect x="104.91" y="61.78" width="10.26" height="10.26"/>
		<polygon points="104.91,55.48 104.91,55.95 104.91,60.85 115.17,60.85 115.17,55.95 115.17,55.48 115.17,50.58 104.91,50.58 		"/>
		<rect x="82.52" y="84.17" width="10.26" height="10.27"/>
		<path d="M149.7,72.04h10.26v-4.67c-1.89-1.98-3.89-3.86-6.01-5.59h-4.26V72.04z"/>
		<rect x="138.5" y="95.37" width="10.26" height="10.27"/>
		<rect x="104.91" y="72.98" width="10.26" height="10.27"/>
		<rect x="71.32" y="72.98" width="10.26" height="10.27"/>
		<rect x="104.91" y="84.17" width="10.26" height="10.27"/>
		<polygon points="132.2,72.98 127.31,72.98 127.31,83.24 132.2,83.24 132.67,83.24 137.57,83.24 137.57,72.98 132.67,72.98 		"/>
		<rect x="71.32" y="84.17" width="10.26" height="10.27"/>
		<rect x="82.52" y="72.98" width="10.26" height="10.27"/>
		<rect x="93.71" y="61.78" width="10.26" height="10.26"/>
		<rect x="138.5" y="72.98" width="10.26" height="10.27"/>
		<rect x="93.71" y="84.17" width="10.26" height="10.27"/>
		<rect x="138.5" y="84.17" width="10.26" height="10.27"/>
		<rect x="93.71" y="72.98" width="10.26" height="10.27"/>
		<polygon points="93.71,55.48 93.71,55.95 93.71,60.85 103.98,60.85 103.98,55.95 103.98,55.48 103.98,50.58 93.71,50.58 		"/>
		<polygon points="132.2,84.17 127.31,84.17 127.31,94.44 132.2,94.44 132.67,94.44 137.57,94.44 137.57,84.17 132.67,84.17 		"/>
		<rect x="71.32" y="95.37" width="10.26" height="10.27"/>
		<polygon points="132.2,95.37 127.31,95.37 127.31,105.64 132.2,105.64 132.67,105.64 137.57,105.64 137.57,95.37 132.67,95.37 		
			"/>
		<rect x="82.52" y="61.78" width="10.26" height="10.26"/>
		<rect x="138.5" y="61.78" width="10.26" height="10.26"/>
		<rect x="82.52" y="95.37" width="10.26" height="10.27"/>
		<path d="M103.98,47.56c-3.4,0.44-6.72,1.14-9.93,2.09h9.93V47.56z"/>
		<path d="M115.17,49.65v-2.59c-0.89-0.04-1.77-0.07-2.67-0.07c-2.57,0-5.1,0.16-7.6,0.45v2.21H115.17z"/>
		<path d="M130.98,49.65c-1.21-0.35-2.43-0.67-3.67-0.96v0.96H130.98z"/>
		<path d="M59.19,105.64V95.37h-9.9c-0.12,0.46-0.25,0.92-0.36,1.39v8.88H59.19z"/>
		<path d="M126.37,49.65v-1.17c-3.33-0.72-6.76-1.19-10.26-1.38v2.56H126.37z"/>
		<path d="M65.49,72.04h4.9v-9.69c-3.45,2.9-6.59,6.15-9.37,9.69h4.01H65.49z"/>
		<path d="M59.19,84.17h-5.76c-1.57,3.28-2.87,6.71-3.88,10.27h9.64V84.17z"/>
		<path d="M59.19,74.48c-1.98,2.77-3.75,5.7-5.28,8.77h5.28V74.48z"/>
		<path d="M81.58,55.95v-0.47v-0.73c-3.29,1.77-6.41,3.82-9.33,6.1h9.33V55.95z"/>
		<path d="M126.25,105.64C126.25,105.64,126.25,105.64,126.25,105.64l0.12,0V95.37h-10.26v2.2c0,0,0,0,0,0
			C120.56,98.64,124.25,101.63,126.25,105.64z"/>
		<path d="M65.02,83.24h0.47h4.9V72.98h-4.9h-0.47h-4.74c-0.05,0.07-0.11,0.13-0.16,0.2v10.07H65.02z"/>
		<path d="M82.52,55.95v4.9h10.26v-4.9v-0.47v-4.9h-1.65c-2.97,1.03-5.85,2.26-8.61,3.69v1.21V55.95z"/>
		<path d="M175.47,94.44c-0.9-3.15-2.03-6.2-3.37-9.14v9.14H175.47z"/>
		<path d="M112.51,97.13c0.91,0,1.8,0.09,2.67,0.25c0,0,0,0,0,0v-2h-10.26v3.77c-0.32,0.18-0.63,0.37-0.93,0.57v-4.34H93.71v10.27
			h5.05c0,0,0,0,0,0.01C101.28,100.6,106.48,97.13,112.51,97.13z"/>
		<path d="M160.9,83.24h10.21c-1.81-3.63-3.95-7.06-6.37-10.27h-3.84V83.24z"/>
		<path d="M164.01,72.04c-1-1.27-2.02-2.5-3.11-3.69v3.69H164.01z"/>
		<path d="M172.09,112.49h0.62h5.29c0-2-0.1-3.97-0.28-5.92h-5.64V112.49z"/>
		<path d="M172.09,105.64h5.56c-0.37-3.51-1.02-6.94-1.92-10.27h-3.64V105.64z"/>
		<path d="M47.99,106.57h-0.7c-0.18,1.95-0.28,3.93-0.28,5.92h0.98V106.57z"/>
		<path d="M132.2,50.58h-4.9v4.9v0.47v4.9h4.9h0.47h4.9v-4.9v-0.47v-3.51c-1.21-0.5-2.44-0.96-3.68-1.39h-1.22H132.2z"/>
		<path d="M138.5,55.95v4.9h10.26v-2.9c-3.23-2.15-6.66-4.02-10.26-5.58v3.12V55.95z"/>
		<polygon points="63.24,112.49 70.39,112.49 70.39,106.57 65.49,106.57 65.02,106.57 60.12,106.57 60.12,112.49 61.05,112.49 		"/>
		<path d="M152.77,60.85c-1-0.78-2.02-1.54-3.07-2.26v2.26H152.77z"/>
		<rect x="149.7" y="72.98" width="10.26" height="10.27"/>
		<rect x="71.32" y="106.57" width="10.26" height="5.92"/>
		<path d="M126.84,106.98C126.84,106.98,126.84,106.98,126.84,106.98C126.84,106.98,126.84,106.98,126.84,106.98z"/>
		<rect x="138.5" y="106.57" width="10.26" height="5.92"/>
		<polygon points="59.19,106.57 48.92,106.57 48.92,112.49 52.3,112.49 59.19,112.49 		"/>
		<rect x="149.7" y="95.37" width="10.26" height="10.27"/>
		<polygon points="60.12,94.44 65.02,94.44 65.49,94.44 70.39,94.44 70.39,84.17 65.49,84.17 65.02,84.17 60.12,84.17 		"/>
		<rect x="149.7" y="106.57" width="10.26" height="5.92"/>
		<rect x="149.7" y="84.17" width="10.26" height="10.27"/>
		<polygon points="65.02,95.37 60.12,95.37 60.12,105.64 65.02,105.64 65.49,105.64 70.39,105.64 70.39,95.37 65.49,95.37 		"/>
		<rect x="160.9" y="95.37" width="10.26" height="10.27"/>
		<polygon points="163.97,112.49 171.16,112.49 171.16,106.57 160.9,106.57 160.9,112.49 161.78,112.49 		"/>
		<path d="M47.99,101.25c-0.25,1.45-0.47,2.91-0.62,4.39h0.62V101.25z"/>
		<rect x="160.9" y="84.17" width="10.26" height="10.27"/>
		<path d="M127.88,112.49h5.48h4.21v-5.92h-4.9h-0.47h-4.9v1.82l0,0C127.67,109.7,127.88,111.07,127.88,112.49z"/>
		<path d="M98.33,106.57C98.33,106.57,98.33,106.57,98.33,106.57l-4.61,0v5.92h3.43C97.14,110.39,97.57,108.39,98.33,106.57z"/>
		<polygon points="92.78,112.49 92.78,106.57 82.52,106.57 82.52,112.49 91.66,112.49 		"/>
	</g>
</g>
</svg>
