<?xml version="1.0" encoding="utf-8"?>
<!-- Generator: Adobe Illustrator 26.2.1, SVG Export Plug-In . SVG Version: 6.00 Build 0)  -->
<svg version="1.1" xmlns="http://www.w3.org/2000/svg" xmlns:xlink="http://www.w3.org/1999/xlink" x="0px" y="0px"
	 viewBox="0 0 225 225" style="enable-background:new 0 0 225 225;" xml:space="preserve">
<style type="text/css">
	.st0{display:none;}
	.st1{display:inline;fill:#FAB433;}
	.st2{fill:none;}
	.st3{fill:none;stroke:#000000;stroke-width:1.6;stroke-miterlimit:10;}
	.st4{fill:none;stroke:#000000;stroke-width:0.7265;stroke-miterlimit:10;}
	.st5{fill:none;stroke:#000000;stroke-linecap:round;stroke-linejoin:round;stroke-miterlimit:10;}
	.st6{fill:none;stroke:#000000;stroke-miterlimit:10;}
	.st7{fill:none;stroke:#000000;stroke-width:0.7105;stroke-miterlimit:10;}
	.st8{fill:none;stroke:#000000;stroke-width:5.4;stroke-linecap:round;stroke-linejoin:round;stroke-miterlimit:10;}
	.st9{fill:none;stroke:#000000;stroke-width:2.9309;stroke-linecap:round;stroke-linejoin:round;stroke-miterlimit:10;}
	.st10{fill:none;stroke:#000000;stroke-width:0.5;stroke-linecap:round;stroke-linejoin:round;}
	.st11{fill:none;stroke:#FFFFFF;stroke-width:0;stroke-linecap:round;stroke-linejoin:round;}
	.st12{fill:#FFFFFF;}
	.st13{fill:none;stroke:#000000;stroke-width:1.4;stroke-miterlimit:10;}
	.st14{fill:url(#);stroke:#000000;stroke-width:1.4387;stroke-miterlimit:10;}
	.st15{fill:url(#);stroke:#000000;stroke-width:1.3718;stroke-miterlimit:10;}
	.st16{fill:none;stroke:#000000;stroke-width:1.0041;stroke-miterlimit:10;}
	.st17{fill:none;stroke:#000000;stroke-width:1.3621;stroke-miterlimit:10;}
	.st18{fill:none;stroke:#000000;stroke-width:0.25;stroke-miterlimit:10;}
</style>
<g id="Layer_2" class="st0">
	<rect id="XMLID_1014_" x="-835.99" y="-30.01" class="st1" width="1160" height="772"/>
</g>
<g id="Layer_1">
	<g>
		<path d="M68.24,124.73H63.9c-0.36-1.16-0.66-2.34-0.91-3.54h4.42c-0.33-1.73-0.57-3.5-0.7-5.31h-4.52
			c-0.09-1.11-0.13-2.24-0.13-3.38c0-0.05,0-0.11,0-0.16h4.53c0.01-1.8,0.12-3.57,0.33-5.31h-4.5c0.16-1.19,0.35-2.38,0.61-3.54
			h4.44c0.36-1.81,0.83-3.58,1.4-5.31h-4.3c0.43-1.2,0.91-2.39,1.44-3.54h4.17c0.78-1.84,1.68-3.61,2.68-5.31h-3.91
			c0.78-1.22,1.63-2.4,2.53-3.54h3.68c1.35-1.88,2.83-3.66,4.45-5.31h-3.24c1.34-1.25,2.75-2.44,4.24-3.54h2.86
			c2.51-2.05,5.24-3.83,8.15-5.31h-2.06c3.22-1.5,6.63-2.7,10.2-3.54h1.14c3.7-0.96,7.59-1.48,11.6-1.48s7.9,0.51,11.6,1.48h1.14
			c3.57,0.84,6.99,2.05,10.2,3.54h-2.06c2.91,1.49,5.64,3.27,8.15,5.31h2.86c1.49,1.11,2.9,2.29,4.24,3.54h-3.24
			c1.61,1.65,3.1,3.43,4.45,5.31h3.68c0.9,1.14,1.74,2.32,2.53,3.54h-3.91c1,1.71,1.9,3.48,2.68,5.31H159
			c0.54,1.16,1.01,2.34,1.44,3.54h-4.3c0.57,1.73,1.04,3.5,1.4,5.31h4.44c0.25,1.16,0.45,2.35,0.61,3.54h-4.5
			c0.21,1.74,0.32,3.51,0.33,5.31h4.53c0,0.05,0,0.11,0,0.16c0,1.14-0.05,2.27-0.13,3.38h-4.52c-0.13,1.81-0.37,3.58-0.7,5.31h4.42
			c-0.25,1.2-0.55,2.38-0.91,3.54h-4.35c-0.08,0.3-0.16,0.59-0.25,0.89h20.27c0.86-4.2,1.31-8.59,1.31-13.12
			c0-36.21-29.39-65.6-65.6-65.6s-65.6,29.39-65.6,65.6c0,4.53,0.46,8.92,1.31,13.12h20.27C68.41,125.32,68.33,125.02,68.24,124.73z
			"/>
		<path d="M135.46,71.59c-3.22-1.5-6.63-2.7-10.2-3.54h-1.14h-23.2h-1.14c-3.57,0.84-6.99,2.05-10.2,3.54h2.06h41.77H135.46z"/>
		<path d="M138.66,98.16h17.48h4.3c-0.43-1.2-0.91-2.39-1.44-3.54h-4.17h-16.16h-0.68H70.19h-4.17c-0.54,1.16-1.01,2.34-1.44,3.54
			h4.3h69.11H138.66z"/>
		<path d="M138.66,80.45h6.74h3.24c-1.34-1.25-2.75-2.44-4.24-3.54h-2.86h-2.88h-0.68H83.48h-2.86c-1.49,1.11-2.9,2.29-4.24,3.54
			h3.24h58.37H138.66z"/>
		<path d="M138.66,89.3h13.49h3.91c-0.78-1.22-1.63-2.4-2.53-3.54h-3.68h-11.19h-0.68H75.17h-3.68c-0.9,1.14-1.74,2.32-2.53,3.54
			h3.91h65.12H138.66z"/>
		<path d="M138.66,115.87h19.64h4.52c0.09-1.11,0.13-2.24,0.13-3.38c0-0.05,0-0.11,0-0.16h-4.53h-19.76h-0.68H66.6h-4.53
			c0,0.05,0,0.11,0,0.16c0,1.14,0.05,2.27,0.13,3.38h4.52h71.27H138.66z"/>
		<path d="M138.66,124.73h18.11h4.35c0.36-1.16,0.66-2.34,0.91-3.54h-4.42h-18.94h-0.68H67.41h-4.42c0.25,1.2,0.55,2.38,0.91,3.54
			h4.35h69.74H138.66z"/>
		<path d="M138.66,107.02h19.43h4.5c-0.16-1.19-0.35-2.38-0.61-3.54h-4.44h-18.88h-0.68H67.48h-4.44c-0.25,1.16-0.45,2.35-0.61,3.54
			h4.5h71.06H138.66z"/>
		<path d="M58.44,125.79v10.27h10.26v-9.77c-0.05-0.16-0.11-0.33-0.16-0.49H58.44z"/>
		<path d="M69.64,136.99v10.27h4.9h0.47h4.9v-2.42c-2.35-2.37-4.45-5-6.24-7.84H69.64z"/>
		<path d="M69.64,136.06h3.45c-1.34-2.24-2.5-4.61-3.45-7.08V136.06z"/>
		<path d="M142.52,147.25h4.57v-4.55C145.67,144.33,144.14,145.85,142.52,147.25z"/>
		<path d="M103.23,157.47v0.98h10.26v-0.06c-0.33,0.01-0.66,0.02-0.99,0.02C109.33,158.41,106.23,158.08,103.23,157.47z"/>
		<path d="M92.04,158.45h10.26v-1.18c-3.6-0.82-7.04-2.05-10.26-3.66V158.45z"/>
		<path d="M125.63,158.45h10.26v-6.42c-3.19,1.89-6.63,3.41-10.26,4.49V158.45z"/>
		<path d="M170.41,143.28c-0.3,0.56-0.61,1.12-0.93,1.68C169.8,144.4,170.11,143.84,170.41,143.28z"/>
		<path d="M80.84,147.25h1.66c-0.57-0.49-1.12-0.99-1.66-1.5V147.25z"/>
		<path d="M136.83,158.45h4.9h0.47h4.9v-10.26h-4.9h-0.47h-0.31c-1.46,1.18-2.99,2.27-4.58,3.27V158.45z"/>
		<path d="M114.43,158.45h10.26v-1.68c-3.29,0.9-6.72,1.45-10.26,1.6V158.45z"/>
		<path d="M80.84,148.18v10.26H91.1v-5.32c-2.67-1.41-5.17-3.07-7.49-4.95H80.84z"/>
		<path d="M158.29,136.06v-10.27h-1.82c-1.1,3.63-2.63,7.07-4.54,10.27H158.29z"/>
		<path d="M148.02,147.25h10.26v-10.27h-6.93c-1.02,1.61-2.13,3.16-3.33,4.63V147.25z"/>
		<path d="M170.42,136.99v6.28c1.24-2.33,2.35-4.73,3.31-7.21c-0.12,0.31-0.25,0.62-0.37,0.93H170.42z"/>
		<rect x="92.04" y="159.38" width="10.26" height="10.27"/>
		<rect x="80.84" y="159.38" width="10.26" height="10.27"/>
		<polygon points="79.91,148.18 75.01,148.18 74.54,148.18 69.64,148.18 69.64,158.45 74.54,158.45 75.01,158.45 79.91,158.45 		"/>
		<rect x="58.44" y="136.99" width="10.26" height="10.27"/>
		<rect x="103.23" y="159.38" width="10.26" height="10.27"/>
		<path d="M176.75,125.79h-6.34v10.27h3.31c1.3-3.36,2.33-6.85,3.07-10.44C176.78,125.67,176.76,125.73,176.75,125.79z"/>
		<rect x="114.43" y="159.38" width="10.26" height="10.27"/>
		<rect x="148.02" y="148.18" width="10.26" height="10.26"/>
		<rect x="125.63" y="159.38" width="10.26" height="10.27"/>
		<path d="M75.01,159.38h-0.47h-4.9v2.71c-0.31-0.27-0.63-0.53-0.93-0.81v-1.91h-2.04c-0.31-0.3-0.61-0.62-0.91-0.93h2.95v-10.26
			H58.44v1.4c5.57,8.1,12.91,14.9,21.46,19.81v-10.02H75.01z"/>
		<path d="M92.04,170.58v4.23c3.31,1.09,6.74,1.92,10.26,2.47v-6.7H92.04z"/>
		<path d="M57.51,125.79h-9.24c-0.01-0.06-0.03-0.12-0.04-0.18c0.73,3.6,1.77,7.08,3.07,10.44h6.22V125.79z"/>
		<path d="M91.1,170.58h-9.05c2.95,1.55,6.04,2.88,9.23,3.97c-0.06-0.02-0.12-0.04-0.18-0.06V170.58z"/>
		<path d="M57.51,136.99h-5.85c-0.12-0.31-0.25-0.62-0.37-0.93c1.52,3.93,3.41,7.67,5.62,11.2h0.6V136.99z"/>
		<path d="M159.22,136.99v10.27h8.89c0.47-0.76,0.93-1.52,1.38-2.3v-7.97H159.22z"/>
		<path d="M57.51,148.18L57.51,148.18c0.3,0.47,0.61,0.94,0.93,1.4c-0.32-0.46-0.63-0.92-0.93-1.39V148.18z"/>
		<path d="M159.22,158.45h0.04c-0.32,0.33-0.64,0.66-0.97,0.99v-0.05h-10.26v8.23c-0.31,0.2-0.62,0.4-0.93,0.59
			c8.19-5.1,15.17-11.95,20.43-20.02h-8.29V158.45z"/>
		<path d="M125.63,170.58v6.18c-0.31,0.06-0.62,0.13-0.93,0.19v-6.37h-10.26v7.47c-0.31,0.01-0.62,0.02-0.93,0.02v-7.49h-10.26v6.85
			c3.03,0.43,6.13,0.66,9.27,0.66c8.24,0,16.12-1.54,23.38-4.32v-3.19H125.63z"/>
		<path d="M142.19,159.38h-0.47h-4.9v10.27h4.9h0.47h2.47c0.82-0.46,1.63-0.94,2.42-1.44v-8.83H142.19z"/>
		<path d="M141.72,170.58h-4.9v2.83c-0.29,0.12-0.58,0.23-0.87,0.34c2.41-0.92,4.75-1.98,7.01-3.17h-0.77H141.72z"/>
		<rect x="159.22" y="125.79" width="10.26" height="10.27"/>
	</g>
</g>
</svg>
