<?xml version="1.0" encoding="utf-8"?>
<!-- Generator: Adobe Illustrator 26.2.1, SVG Export Plug-In . SVG Version: 6.00 Build 0)  -->
<svg version="1.1" xmlns="http://www.w3.org/2000/svg" xmlns:xlink="http://www.w3.org/1999/xlink" x="0px" y="0px"
	 viewBox="0 0 225 225" style="enable-background:new 0 0 225 225;" xml:space="preserve">
<style type="text/css">
	.st0{display:none;}
	.st1{display:inline;fill:#FAB433;}
	.st2{fill:none;}
	.st3{fill:none;stroke:#000000;stroke-width:1.6;stroke-miterlimit:10;}
	.st4{fill:none;stroke:#000000;stroke-width:0.7265;stroke-miterlimit:10;}
	.st5{fill:none;stroke:#000000;stroke-linecap:round;stroke-linejoin:round;stroke-miterlimit:10;}
	.st6{fill:none;stroke:#000000;stroke-miterlimit:10;}
	.st7{fill:none;stroke:#000000;stroke-width:0.7105;stroke-miterlimit:10;}
	.st8{fill:none;stroke:#000000;stroke-width:5.4;stroke-linecap:round;stroke-linejoin:round;stroke-miterlimit:10;}
	.st9{fill:none;stroke:#000000;stroke-width:2.9309;stroke-linecap:round;stroke-linejoin:round;stroke-miterlimit:10;}
	.st10{fill:none;stroke:#000000;stroke-width:0.5;stroke-linecap:round;stroke-linejoin:round;}
	.st11{fill:none;stroke:#FFFFFF;stroke-width:0;stroke-linecap:round;stroke-linejoin:round;}
	.st12{fill:#FFFFFF;}
	.st13{fill:none;stroke:#000000;stroke-width:1.4;stroke-miterlimit:10;}
	.st14{fill:url(#);stroke:#000000;stroke-width:1.4387;stroke-miterlimit:10;}
	.st15{fill:url(#);stroke:#000000;stroke-width:1.3718;stroke-miterlimit:10;}
	.st16{fill:none;stroke:#000000;stroke-width:1.0041;stroke-miterlimit:10;}
	.st17{fill:none;stroke:#000000;stroke-width:1.3621;stroke-miterlimit:10;}
	.st18{fill:none;stroke:#000000;stroke-width:0.25;stroke-miterlimit:10;}
</style>
<g id="Layer_2" class="st0">
	<rect id="XMLID_573_" x="-100.99" y="-520.01" class="st1" width="1160" height="772"/>
</g>
<g id="Layer_1">
	<path id="XMLID_14530_" d="M109.37,45.07c-0.15,0.01-0.3,0.01-0.45,0.02C109.07,45.08,109.22,45.08,109.37,45.07z M109.73,45.05
		c-0.12,0-0.23,0.01-0.35,0.02c0.15-0.01,0.3-0.01,0.46-0.02C109.8,45.05,109.76,45.05,109.73,45.05z M91.34,48.41
		c-0.06,0.02-0.13,0.04-0.19,0.06c-0.03,0.01-0.06,0.02-0.09,0.03c0.05-0.02,0.1-0.03,0.15-0.05
		C91.25,48.44,91.29,48.42,91.34,48.41z M77.86,54.58c-0.54,0.32-1.08,0.65-1.6,0.99c-0.1,0.06-0.19,0.12-0.29,0.18
		c-0.01,0-0.01,0.01-0.01,0.01c0.21-0.13,0.42-0.27,0.64-0.4C77.03,55.09,77.45,54.83,77.86,54.58z M46.33,99.23
		c0.14-0.67,0.28-1.35,0.43-2.02C46.61,97.88,46.47,98.56,46.33,99.23z M45.99,101.05c-0.03,0.16-0.05,0.32-0.08,0.48
		c0.08-0.48,0.17-0.96,0.26-1.44C46.11,100.41,46.05,100.73,45.99,101.05z M46.17,100.09c0.05-0.29,0.1-0.57,0.16-0.86
		C46.28,99.52,46.23,99.8,46.17,100.09z M113.04,45c-0.01,0-0.02,0-0.04,0c0.5,0,1,0.02,1.5,0.03C114.02,45.02,113.53,45,113.04,45z
		 M114.64,45.03c-0.05,0-0.09,0-0.14,0c0.06,0,0.12,0,0.17,0C114.66,45.03,114.65,45.03,114.64,45.03z M75.08,168.63
		c-0.32-0.21-0.63-0.41-0.92-0.61c-0.22-0.14-0.43-0.29-0.64-0.42c0.03,0.02,0.06,0.04,0.09,0.06c0.24,0.17,0.47,0.33,0.71,0.49
		c0.04,0.03,0.08,0.06,0.12,0.08c0.5,0.33,1,0.66,1.52,0.98c0.25,0.16,0.5,0.31,0.76,0.47c-0.2-0.13-0.41-0.26-0.61-0.39
		C75.76,169.07,75.42,168.85,75.08,168.63z M149.22,55.88c0.43,0.28,0.85,0.54,1.25,0.8c-0.07-0.05-0.14-0.1-0.21-0.14
		c-0.37-0.24-0.75-0.5-1.14-0.75c-0.88-0.57-1.77-1.11-2.67-1.64c0.52,0.31,1.04,0.63,1.56,0.95c0.39,0.25,0.78,0.5,1.17,0.75
		c0.25,0.16,0.5,0.32,0.74,0.48c-0.09-0.06-0.19-0.13-0.28-0.19C149.49,56.06,149.35,55.97,149.22,55.88z M68.44,61.36
		c-0.01,0.01-0.02,0.02-0.03,0.03c0.03-0.02,0.05-0.05,0.08-0.07C68.47,61.33,68.46,61.35,68.44,61.36z M158.88,161.54
		c0.14-0.13,0.27-0.26,0.41-0.39c0.09-0.08,0.17-0.17,0.26-0.25l0,0c-0.15,0.15-0.31,0.29-0.47,0.45
		C159.02,161.41,158.95,161.48,158.88,161.54z M180,112.22l-0.01-0.9c0.01,0.27,0.01,0.53,0.01,0.78c0-0.01,0-0.02,0-0.03
		c0-0.26-0.01-0.53-0.01-0.8c0-0.04,0-0.08,0-0.12c-0.02-0.78-0.05-1.6-0.09-2.44c-0.05-0.89-0.12-1.77-0.2-2.65
		c0.06,0.68,0.11,1.35,0.16,1.99c0.07,1.16,0.12,2.25,0.14,3.26c0,0.16,0,0.32,0,0.48c0,0.14,0,0.28,0,0.42
		c0.01,0.29,0.01,0.58,0.01,0.87c0,0.04,0,0.07,0,0.11c0,0.04,0,0.09,0,0.13l0.01-0.72C180,112.48,180,112.35,180,112.22z
		 M179.52,104.44c0.06,0.54,0.12,1.08,0.17,1.63c-0.04-0.45-0.09-0.9-0.14-1.37C179.54,104.61,179.53,104.52,179.52,104.44z
		 M86.17,174.63c-0.11-0.05-0.22-0.1-0.34-0.14c0.01,0.01,0.02,0.01,0.04,0.02C85.97,174.55,86.07,174.59,86.17,174.63z
		 M179.99,113.32c0-0.04,0-0.08,0-0.12c0-0.03,0-0.07,0-0.1c-0.03-4.86-1.09-9.56-3.03-14c0,0,0,0.01,0.01,0.01
		c0.01-0.64,0.01-1.27-0.01-1.91c-0.12-3.69-0.87-7.26-2.17-10.69c-0.53-1.27-1.1-2.53-1.72-3.78c2.02,4.52,3.07,9.35,2.94,14.35
		c0.09,0.18,0.18,0.36,0.27,0.55c-0.23-0.47-0.47-0.94-0.72-1.41c-2.03-3.79-4.71-7.35-7.95-10.63c0.02,0.02,0.05,0.04,0.07,0.07
		c0.01-0.6,0.01-1.2-0.01-1.79c-0.15-3.83-1.08-7.54-2.7-11.02c3.22,2.65,5.86,5.76,7.81,9.28c-0.26-0.51-0.52-1.01-0.79-1.52
		c-0.38-0.71-0.77-1.4-1.17-2.09c-0.03-0.04-0.06-0.09-0.09-0.13c-1.57-2.42-3.49-4.61-5.72-6.54c-0.31-0.27-0.62-0.53-0.94-0.79
		c-0.04-0.08-0.09-0.16-0.13-0.24c-0.36-0.65-0.75-1.29-1.15-1.93c-1.32-2.06-2.89-4.03-4.69-5.89c-0.63-0.65-1.27-1.29-1.95-1.91
		c0.21,0.16,0.42,0.32,0.63,0.48c0.28,0.22,0.56,0.44,0.83,0.67l-0.01-0.01l-1.53-1.33c-0.34-0.29-0.69-0.58-1.04-0.86
		c-0.18-0.14-0.37-0.28-0.55-0.41c-0.42-0.35-0.85-0.69-1.29-1.03c-0.23-0.17-0.45-0.34-0.68-0.51c-0.09-0.07-0.18-0.13-0.27-0.2
		c-0.34-0.24-0.68-0.49-1.02-0.73c-0.41-0.27-0.85-0.56-1.3-0.85c1.13,0.78,2.21,1.6,3.23,2.45c-2.21-1.32-4.71-2.24-7.46-2.75
		c-0.69-0.13-1.4-0.23-2.12-0.31c-0.03,0-0.05-0.01-0.08-0.01c-2.58-2.13-5.58-3.99-8.93-5.52c1.05-0.11,2.05-0.1,3.01,0.02
		c0.53,0.07,1.04,0.17,1.54,0.32c0.02,0.01,0.05,0.01,0.07,0.02c0.12,0.03,0.23,0.08,0.35,0.12c0.59,0.26,1.18,0.52,1.75,0.78
		c-0.09-0.05-0.18-0.09-0.27-0.14c-0.78-0.36-1.57-0.71-2.37-1.04c0.09,0.05,0.19,0.1,0.28,0.15c-0.55-0.24-1.1-0.47-1.64-0.69
		c-0.31-0.09-0.62-0.17-0.94-0.23c-0.44-0.08-0.89-0.13-1.36-0.15c-0.68-0.03-1.38,0.02-2.1,0.13c-2.51-1.02-5.18-1.86-7.99-2.5
		c-0.92-0.21-1.85-0.39-2.8-0.55c-0.15-0.03-0.3-0.05-0.45-0.08c0.09-0.06,0.19-0.12,0.28-0.17c0.4-0.23,0.79-0.34,1.15-0.34
		c-0.77-0.12-1.55-0.24-2.33-0.33c-0.28,0.02-0.58,0.14-0.89,0.39c-0.07,0.05-0.14,0.11-0.2,0.17c-2.09-0.26-4.23-0.41-6.42-0.44
		c-2.09-0.03-4.14,0.06-6.15,0.25c-0.04-0.05-0.08-0.09-0.11-0.13c-0.24-0.27-0.48-0.42-0.7-0.45c-0.08,0.01-0.15,0.01-0.23,0.02
		c0.01,0,0.02,0,0.03-0.01c-0.73,0.07-1.46,0.15-2.18,0.25c0.37,0.01,0.77,0.19,1.19,0.55c-0.87,0.11-1.72,0.25-2.57,0.4
		c-0.69,0.12-1.37,0.26-2.05,0.41c-2.37,0.52-4.65,1.18-6.81,1.99c-0.51-0.1-1-0.15-1.49-0.18c-0.42-0.02-0.83-0.01-1.24,0.04
		c-0.44,0.05-0.87,0.12-1.28,0.24c-0.81,0.29-1.63,0.6-2.43,0.93c0.25-0.09,0.51-0.16,0.77-0.22c0.11-0.03,0.23-0.05,0.34-0.07
		c0.45-0.09,0.91-0.15,1.39-0.17c0.71-0.04,1.45,0,2.21,0.11c-2.75,1.14-5.3,2.51-7.59,4.07c-0.57,0.39-1.13,0.78-1.66,1.19
		c-0.36,0.03-0.71,0.07-1.07,0.11c-3.07,0.36-5.84,1.26-8.25,2.68c0.77-0.59,1.57-1.15,2.39-1.7c0.06-0.04,0.11-0.08,0.17-0.12
		c0.01-0.01,0.02-0.01,0.02-0.02c-1.8,1.16-3.54,2.39-5.19,3.7l-0.56,0.45c-0.11,0.09-0.23,0.18-0.34,0.28
		c0.16-0.12,0.31-0.24,0.47-0.35c-1.44,1.21-2.77,2.48-4,3.81c-1.51,1.63-2.86,3.35-4.02,5.15c-0.16,0.25-0.33,0.5-0.49,0.76
		c0.52-0.41,1.05-0.8,1.6-1.18c0.04-0.07,0.09-0.14,0.14-0.22c1.28-2.06,2.8-4.02,4.55-5.86c1.1-1.16,2.28-2.27,3.55-3.33
		c2.73-1.64,5.91-2.67,9.45-3.07c0.09-0.01,0.18-0.03,0.27-0.04c-0.15,0.12-0.29,0.25-0.43,0.37c-0.74,0.64-1.45,1.31-2.11,2
		c-0.63,0.65-1.23,1.33-1.78,2.02c-0.72,0.9-1.37,1.82-1.96,2.78c-3.3,0.92-6.35,2.17-9.09,3.73c-0.23,0.13-0.45,0.27-0.68,0.4
		c-0.63,0.38-1.25,0.77-1.85,1.18c-0.02,0.01-0.04,0.03-0.06,0.04c-0.55,0.38-1.08,0.77-1.6,1.18c-0.86,0.67-1.67,1.39-2.44,2.14
		c-1.33,1.29-2.52,2.69-3.57,4.19c-0.68,1.06-1.34,2.14-1.96,3.23l0,0c1.38-2.22,3.06-4.25,5-6.08c0.63-0.59,1.28-1.17,1.96-1.72
		c-1.92,3.63-3.1,7.52-3.4,11.58c-2.68,2.58-4.97,5.39-6.83,8.37c-0.43,0.7-0.84,1.4-1.23,2.12c-0.09,0.17-0.19,0.34-0.28,0.51
		c0.26-3.43,1.06-6.76,2.34-9.94c0.2-0.49,0.41-0.98,0.63-1.46c-0.65,1.3-1.25,2.63-1.8,3.97c-1.15,3.02-1.88,6.16-2.12,9.4
		c-1.4,3.15-2.34,6.46-2.76,9.89c-0.07,0.71-0.14,1.42-0.19,2.12l-0.04,0.79l-0.01,0.3l-0.08,1.56l-0.01,0.15
		c-0.01,0.4-0.02,0.79-0.02,1.19l0,0.25l0,0.09v0.02c0,0.02,0,0.04,0,0.06c0,0.17,0,0.33,0,0.5l0.03,1.71
		c0,0.15,0.01,0.29,0.01,0.44c0.02,0.45,0.04,0.89,0.08,1.33c0.31,3.98,1.31,7.84,2.92,11.51c0.01,0.02,0.02,0.05,0.03,0.07
		c0.05,1.49,0.19,2.95,0.42,4.36c0.34,2.06,0.86,4.04,1.57,5.93c0.51,1.23,1.06,2.45,1.64,3.66c-0.56-1.28-1.03-2.6-1.41-3.97
		c-0.68-2.44-1.07-5.04-1.16-7.77c2.05,3.95,4.82,7.66,8.21,11.04c0.42,0.42,0.84,0.83,1.27,1.23c0.09,3.55,0.64,6.75,1.59,9.61
		c0.18,0.54,0.37,1.06,0.57,1.57v0c0.04,0.11,0.09,0.23,0.14,0.34c0.03,0.08,0.07,0.17,0.1,0.26c-1.1-1.03-2.13-2.09-3.1-3.18
		c-2.15-2.42-4-4.98-5.49-7.68c0.19,0.38,0.39,0.75,0.59,1.13c0.48,0.9,0.98,1.78,1.5,2.64c1.96,3.1,4.4,6.01,7.26,8.69
		c1.03,1.98,2.29,3.74,3.77,5.26c0.17,0.18,0.34,0.35,0.52,0.52c0.25,0.24,0.52,0.48,0.79,0.73l0.61,0.54l0.04,0.03l0.18,0.16
		l0.31,0.28c-0.09-0.08-0.18-0.16-0.27-0.23c0.26,0.23,0.51,0.45,0.75,0.67c0.12,0.1,0.23,0.2,0.34,0.3
		c0.04,0.04,0.09,0.08,0.14,0.12c0.01,0.01,0.02,0.02,0.04,0.03c0.27,0.23,0.55,0.46,0.83,0.68c-0.21-0.18-0.44-0.37-0.67-0.56
		c-0.29-0.25-0.59-0.5-0.89-0.77c-0.07-0.07-0.15-0.13-0.22-0.2c-0.15-0.14-0.3-0.29-0.45-0.44c-0.67-0.66-1.29-1.38-1.87-2.15
		c-0.76-1.01-1.45-2.1-2.04-3.27c0.18,0.15,0.36,0.29,0.54,0.44c3.84,3.17,8.29,5.97,13.23,8.29c0.2,0.5,0.42,0.98,0.65,1.44
		c0.17,0.35,0.35,0.69,0.54,1.01c0.96,1.65,2.1,2.97,3.41,3.95c-1.8-0.84-3.52-1.76-5.16-2.74c-0.06-0.03-0.11-0.07-0.17-0.1
		c0.31,0.2,0.61,0.39,0.91,0.58c0.32,0.2,0.63,0.39,0.93,0.57c0.26,0.15,0.53,0.3,0.79,0.45c0.24,0.13,0.49,0.26,0.73,0.39
		c0.34,0.19,0.69,0.38,1.05,0.57c0.62,0.32,1.25,0.63,1.89,0.93c0.17,0.1,0.35,0.19,0.53,0.28c0.02,0.01,0.05,0.02,0.07,0.04
		c0.74,0.35,1.48,0.68,2.23,1c-0.22-0.11-0.44-0.22-0.65-0.35c0.9,0.38,1.82,0.74,2.76,1.08c3.73,1.37,7.71,2.44,11.9,3.16
		c0.26,0.25,0.53,0.42,0.81,0.53c0.09,0.03,0.17,0.06,0.26,0.08c0.42,0.07,0.84,0.14,1.26,0.21l0.48,0.07
		c0.23,0.03,0.45,0.06,0.68,0.09c-0.02-0.01-0.03-0.01-0.05-0.01c-0.3-0.08-0.58-0.27-0.84-0.57c0.71,0.1,1.43,0.18,2.15,0.26
		c2.28,0.24,4.6,0.38,6.97,0.41c2,0.02,3.98-0.03,5.93-0.16c0.48-0.03,0.96-0.06,1.43-0.1c-0.18,0.32-0.37,0.5-0.57,0.55
		c-0.02,0-0.04,0.01-0.05,0.01c-0.04,0-0.07,0.01-0.11,0.01c-0.98,0.08-1.94,0.14-2.9,0.18c-0.03,0-0.06,0-0.1,0
		c-0.01,0-0.03,0-0.05,0c-1.25,0.05-2.47,0.06-3.68,0.05c0.06,0,0.13,0.01,0.19,0.01c0.13,0,0.27,0.01,0.41,0.01
		c0.03,0,0.06,0,0.09,0h0.01c0.93,0.01,1.85-0.01,2.78-0.05c0.22-0.01,0.43-0.02,0.63-0.03c0.09,0,0.18,0,0.28-0.01
		c1.15-0.06,2.31-0.14,3.46-0.26c0.06-0.01,0.12-0.01,0.18-0.02c0.01,0,0.01,0,0.01,0c0.05-0.01,0.09-0.01,0.14-0.02
		c0.4-0.05,0.82-0.11,1.26-0.18l0,0c0.23-0.09,0.45-0.27,0.65-0.53c4.13-0.5,8.1-1.34,11.85-2.47c0.86-0.26,1.7-0.53,2.54-0.82
		c0.23-0.08,0.46-0.16,0.69-0.24c-0.09,0.06-0.18,0.1-0.27,0.15c-0.18,0.1-0.35,0.19-0.53,0.28c-0.14,0.06-0.28,0.12-0.42,0.18
		c3.03-1.1,6.01-2.42,8.94-3.99c0.76-0.41,1.51-0.84,2.26-1.27c0.46-0.28,0.96-0.58,1.46-0.89c0.26-0.16,0.51-0.32,0.77-0.48
		c0.21-0.13,0.42-0.26,0.62-0.39c0.22-0.14,0.44-0.29,0.66-0.44c-0.35,0.23-0.71,0.47-1.08,0.69c-0.13,0.08-0.25,0.16-0.38,0.24
		c-2.74,1.69-5.72,3.18-8.89,4.46c1.11-0.87,2.09-2.06,2.92-3.55c0.17-0.3,0.33-0.62,0.49-0.95c0.25-0.53,0.5-1.09,0.72-1.7
		c0.76-0.31,1.52-0.63,2.26-0.96c4.51-2,8.65-4.39,12.31-7.1c-0.75,1.53-1.64,2.89-2.65,4.1c-0.6,0.72-1.25,1.38-1.93,1.98
		c-0.32,0.28-0.65,0.56-0.99,0.81c0.01-0.01,0.02-0.02,0.03-0.02l1.68-1.31c0.06-0.04,0.11-0.09,0.17-0.13l0.22-0.17l0.01-0.01
		c0.13-0.11,0.27-0.22,0.4-0.33c0.04-0.03,0.07-0.06,0.11-0.09c0.71-0.61,1.38-1.26,2.01-1.97c1-1.14,1.88-2.41,2.64-3.81
		c0.12-0.21,0.24-0.43,0.35-0.65c0.08-0.07,0.16-0.14,0.25-0.21c0.67-0.55,1.31-1.11,1.94-1.69c0.35-0.32,0.7-0.64,1.04-0.97
		c2.6-2.51,4.84-5.21,6.67-8.08c0.03-0.05,0.07-0.09,0.1-0.14l0,0.01c0.74-1.25,1.43-2.52,2.09-3.8c1.46-3.16,2.37-6.65,2.69-10.43
		c0.05-0.61,0.09-1.22,0.11-1.84c2.22-4.03,3.68-8.34,4.27-12.83c-0.1,1.2-0.23,2.43-0.37,3.62c0.04-0.22,0.07-0.45,0.11-0.67
		c0.15-1.37,0.28-2.79,0.38-4.16c-0.02,0.17-0.04,0.35-0.06,0.52c0.04-0.42,0.07-0.84,0.1-1.24c0.05-0.66,0.09-1.29,0.13-1.89
		c0,0,0,0.01,0,0.01l-0.03,0.51c-0.04,0.66-0.09,1.37-0.14,2.09c0.09-0.85,0.15-1.71,0.17-2.57c0.01-0.27,0.01-0.54,0.01-0.8
		C179.99,113.44,179.99,113.38,179.99,113.32L179.99,113.32L179.99,113.32z M176.66,98.45c0.07,0.15,0.14,0.31,0.21,0.46
		C176.8,98.75,176.73,98.6,176.66,98.45c-0.06-0.14-0.12-0.27-0.19-0.41C176.54,98.17,176.6,98.31,176.66,98.45z M175.45,98.5
		c0.15,0.28,0.3,0.56,0.44,0.84c-0.39,4.18-1.6,8.2-3.5,11.99c-0.19,0.39-0.4,0.78-0.61,1.16c-0.02,0.04-0.04,0.07-0.06,0.11
		c-0.13-0.31-0.28-0.63-0.41-0.94c-1.86-4.22-4.31-8.38-7.28-12.4c-0.03-0.04-0.06-0.08-0.09-0.12c1.98-3.61,3.23-7.48,3.62-11.52
		C170.77,91,173.43,94.66,175.45,98.5z M68.08,104.33c-1.73-1.83-3.25-3.77-4.52-5.81c-0.21-0.34-0.42-0.68-0.62-1.03
		c-0.22-0.38-0.43-0.76-0.63-1.14c0.16-0.2,0.32-0.39,0.48-0.58c0.62-0.75,1.26-1.5,1.92-2.24c2.86-3.21,6.05-6.29,9.53-9.18
		c0.76,1.47,1.7,2.88,2.78,4.23c0.55,0.68,1.13,1.35,1.76,2c0.38,0.4,0.77,0.79,1.18,1.18c-3.81,4.59-7.23,9.41-10.15,14.31
		C69.22,105.51,68.64,104.92,68.08,104.33z M68.43,108.49c-0.22,0.39-0.43,0.79-0.65,1.19c-2.46,4.55-4.5,9.14-6.01,13.68
		c-0.84-0.78-1.63-1.59-2.39-2.41c-2.64-2.84-4.85-5.91-6.53-9.15c0.28-0.65,0.57-1.3,0.88-1.95c1.2-2.53,2.61-5.04,4.22-7.5
		c0.86-1.32,1.77-2.62,2.74-3.91c0.13,0.24,0.26,0.48,0.39,0.71c0.37,0.68,0.77,1.35,1.19,2.01c1.18,1.83,2.56,3.58,4.11,5.25
		C67.03,107.12,67.72,107.81,68.43,108.49z M103.49,64.85c-1.12,0.06-2.23,0.14-3.33,0.24c-2.39,0.22-4.73,0.54-7.03,0.94
		c0.01-0.12,0.02-0.25,0.04-0.37c0.15-1.29,0.54-2.53,1.16-3.7c1.92,0.07,3.87,0.23,5.86,0.46c1.1,0.13,2.2,0.27,3.31,0.45
		c1.58,0.25,3.17,0.55,4.78,0.89c1.39,0.3,2.8,0.63,4.22,1.01c-1.23-0.38-2.46-0.71-3.67-1.03c-1.8-0.47-3.58-0.87-5.33-1.21
		c-1.11-0.21-2.21-0.4-3.31-0.56c-1.87-0.28-3.71-0.49-5.52-0.63c0.76-1.25,1.77-2.39,2.99-3.42c0.87,0.28,1.75,0.59,2.63,0.92
		c1.07,0.4,2.15,0.83,3.25,1.31c2.32,1.01,4.69,2.18,7.1,3.54c0.62,0.35,1.24,0.71,1.86,1.08c-0.57-0.37-1.13-0.73-1.69-1.08
		c-2.47-1.54-4.89-2.88-7.25-4.01c-1.09-0.52-2.16-1-3.23-1.44c-0.69-0.28-1.37-0.55-2.04-0.8c0.68-0.51,1.41-0.99,2.19-1.42
		c0.7-0.39,1.44-0.76,2.22-1.08c0.34,0.27,0.68,0.55,1.02,0.83c2.52,2.1,5.15,4.74,7.87,7.91c0.31,0.36,0.61,0.72,0.92,1.09
		c-0.28-0.37-0.55-0.73-0.82-1.09c-2.74-3.6-5.39-6.54-7.91-8.83c-0.09-0.08-0.17-0.16-0.26-0.24c0.09-0.03,0.19-0.06,0.28-0.09
		c1.61-0.57,3.34-1,5.16-1.24c1.04,2.74,2.13,6.21,3.26,10.4c0.1,0.36,0.19,0.72,0.29,1.09c-0.07-0.37-0.14-0.73-0.21-1.09
		c-0.82-4.23-1.62-7.74-2.38-10.51c0.96-0.09,1.94-0.13,2.93-0.12c1.04,0.01,2.06,0.08,3.06,0.21c-0.99,2.74-2.03,6.22-3.12,10.42
		c-0.09,0.36-0.19,0.72-0.28,1.09c0.12-0.37,0.24-0.73,0.36-1.09c1.38-4.15,2.72-7.58,3.99-10.28c1.91,0.31,3.71,0.82,5.36,1.49
		c-2.8,2.24-5.74,5.17-8.79,8.79c-0.3,0.36-0.61,0.72-0.91,1.09c0.34-0.37,0.68-0.73,1.02-1.09c3.29-3.5,6.47-6.31,9.49-8.45
		c0.34,0.16,0.67,0.32,1,0.49c1.2,0.62,2.29,1.34,3.26,2.14c-1.01,0.33-2.03,0.7-3.07,1.1c-3.18,1.23-6.48,2.8-9.85,4.73
		c-0.61,0.35-1.22,0.71-1.83,1.08c0.67-0.37,1.35-0.73,2.02-1.07c3.32-1.71,6.56-3.1,9.69-4.19c1.08-0.37,2.14-0.71,3.19-1.01
		c0.15-0.04,0.3-0.09,0.45-0.13c1.16,1.06,2.1,2.23,2.79,3.5c-1.01,0.04-2.04,0.12-3.07,0.2c-1.08,0.09-2.17,0.2-3.27,0.34
		c-2.51,0.32-5.06,0.77-7.66,1.34c-1.36,0.3-2.74,0.63-4.13,1.01c1.6-0.37,3.2-0.7,4.77-0.97c2.38-0.42,4.73-0.73,7.03-0.95
		c1.1-0.1,2.2-0.18,3.28-0.23c1.13-0.06,2.26-0.1,3.37-0.11c0.47,1.01,0.77,2.07,0.89,3.16c0.05,0.44,0.07,0.89,0.06,1.35
		c0.12,0.03,0.24,0.06,0.36,0.08c-1.52-0.35-3.07-0.66-4.64-0.93c-1.09-0.19-2.19-0.36-3.3-0.51c-3.84-0.53-7.79-0.83-11.82-0.88
		c4.03,0.19,7.98,0.64,11.81,1.3c1.11,0.19,2.21,0.4,3.3,0.63c1.43,0.3,2.85,0.63,4.24,0.99c-0.01,0.07-0.02,0.13-0.02,0.2
		c-0.15,1.35-0.58,2.64-1.25,3.85c-1-0.5-2.01-0.98-3.03-1.45c-1.08-0.5-2.17-0.98-3.27-1.44c-2.53-1.06-5.12-2.02-7.74-2.87
		c-1.34-0.43-2.69-0.84-4.04-1.22c1.18,0.37,2.36,0.78,3.53,1.2c2.8,1.01,5.56,2.14,8.25,3.39c1.1,0.51,2.19,1.04,3.26,1.59
		c0.9,0.46,1.8,0.93,2.68,1.41c-0.53,0.85-1.19,1.64-1.94,2.39c-0.29,0.29-0.6,0.57-0.93,0.84c-0.06,0.05-0.12,0.11-0.19,0.16
		c-0.36-0.32-0.72-0.63-1.08-0.94c-0.63-0.55-1.27-1.09-1.91-1.63c-3.18-2.64-6.47-5.08-9.85-7.26c-0.61-0.39-1.22-0.78-1.83-1.15
		c0.56,0.37,1.11,0.76,1.66,1.15c3.44,2.43,6.78,5.14,10,8.08c0.33,0.3,0.66,0.6,0.98,0.9c0.47,0.44,0.94,0.88,1.41,1.34
		c-0.78,0.58-1.64,1.1-2.55,1.58c-0.61,0.32-1.24,0.62-1.9,0.89c-0.54-0.91-1.09-1.8-1.65-2.68c-2.27-3.61-4.63-7.01-7.05-10.12
		c-0.3-0.38-0.6-0.76-0.9-1.14c0.27,0.37,0.53,0.75,0.8,1.14c2.23,3.2,4.39,6.68,6.48,10.39c0.5,0.9,1,1.8,1.5,2.72
		c-1.7,0.61-3.54,1.05-5.48,1.28c-0.09-0.5-0.19-0.99-0.28-1.48c-0.88-4.59-1.79-8.93-2.74-12.9c-0.09-0.38-0.18-0.76-0.27-1.14
		c0.06,0.37,0.13,0.76,0.19,1.14c0.7,4.18,1.38,8.74,2.02,13.58c0.04,0.3,0.08,0.61,0.12,0.91c-0.38,0.03-0.76,0.05-1.15,0.07
		c-0.5,0.02-1.01,0.03-1.52,0.03c-1.13-0.01-2.24-0.1-3.31-0.24c1.06-5.13,2.19-9.95,3.35-14.34c0.1-0.38,0.2-0.76,0.3-1.14
		c-0.13,0.37-0.26,0.76-0.39,1.14c-1.46,4.34-2.87,9.12-4.21,14.2c-1.44-0.25-2.82-0.61-4.12-1.07c-0.41-0.15-0.81-0.3-1.2-0.47
		c0.37-0.59,0.75-1.18,1.12-1.77c2.52-3.91,5.15-7.57,7.86-10.89c0.31-0.38,0.62-0.76,0.94-1.14c-0.35,0.37-0.7,0.76-1.04,1.14
		c-2.68,2.96-5.29,6.2-7.8,9.67c-0.63,0.87-1.26,1.75-1.87,2.64c-0.46-0.21-0.89-0.44-1.32-0.68c-1.05-0.59-2.02-1.25-2.88-1.98
		c0.89-0.77,1.8-1.52,2.71-2.26c1.07-0.87,2.15-1.71,3.25-2.53c2.3-1.72,4.66-3.34,7.06-4.83c0.63-0.39,1.27-0.78,1.9-1.15
		c-0.7,0.37-1.4,0.76-2.1,1.16c-2.33,1.32-4.62,2.76-6.87,4.29c-1.1,0.75-2.19,1.52-3.26,2.31c-1.1,0.81-2.19,1.64-3.26,2.5
		c-1.14-1.07-2.06-2.26-2.73-3.53c1.93-0.94,3.9-1.81,5.9-2.63c1.09-0.45,2.2-0.88,3.31-1.29c1.55-0.57,3.12-1.1,4.71-1.59
		c1.42-0.44,2.85-0.85,4.29-1.23c-1.71,0.38-3.39,0.8-5.07,1.27c-1.32,0.37-2.64,0.77-3.94,1.19c-1.12,0.36-2.22,0.74-3.32,1.14
		c-2.1,0.77-4.17,1.6-6.2,2.49c-0.42-0.95-0.7-1.95-0.81-2.98c-0.04-0.38-0.07-0.76-0.06-1.15c2.3-0.48,4.66-0.88,7.06-1.19
		c1.1-0.14,2.21-0.26,3.33-0.36c2.95-0.27,5.96-0.42,9.02-0.42C109.44,64.64,106.44,64.68,103.49,64.85z M134.7,66.3
		c-0.13-1.31-0.48-2.58-1.04-3.78c4.28,0.12,8.35,0.62,12.16,1.47c0.9,0.2,1.79,0.42,2.66,0.66c0.16,0.04,0.33,0.08,0.49,0.13
		c1.07,2.32,1.71,4.78,1.85,7.32c0.03,0.53,0.05,1.05,0.03,1.59c0.06,0.03,0.12,0.07,0.19,0.1c-0.66-0.33-1.33-0.66-2.01-0.98
		c-0.91-0.43-1.84-0.84-2.78-1.24c-3.73-1.57-7.69-2.9-11.82-3.96c0.11,0.03,0.21,0.05,0.32,0.08
		C134.76,67.22,134.74,66.76,134.7,66.3z M134.69,68.53c0-0.02,0-0.04,0.01-0.06c0.4,0.12,0.8,0.25,1.2,0.37
		c3.6,1.12,7.05,2.44,10.33,3.94c0.94,0.43,1.86,0.87,2.77,1.33c0.59,0.3,1.18,0.61,1.76,0.92c-0.27,2.81-1.13,5.5-2.51,8.01l0,0
		c-0.75-0.6-1.51-1.18-2.28-1.76c-0.11-0.08-0.22-0.17-0.33-0.25c-1.09-0.81-2.2-1.61-3.34-2.38c-2.89-1.98-5.91-3.83-9.06-5.52
		C134.03,71.68,134.53,70.14,134.69,68.53z M153.14,76.36c3.9,2.28,7.45,4.84,10.62,7.62c0.7,0.61,1.38,1.23,2.04,1.86
		c0.01,0.01,0.01,0.01,0.02,0.02c-0.01,0.1-0.03,0.2-0.04,0.31c-0.4,3.8-1.59,7.45-3.46,10.85c-0.19-0.24-0.39-0.48-0.59-0.72
		c-3.28-4.03-7.06-7.87-11.26-11.44C151.94,82.2,152.86,79.35,153.14,76.36z M136.69,76.2c3.05,1.97,5.98,4.09,8.75,6.33
		c0.71,0.57,1.4,1.14,2.09,1.72c-0.84,1.33-1.84,2.61-2.96,3.81c-0.41,0.44-0.83,0.88-1.28,1.3c-0.57,0.54-1.17,1.07-1.79,1.58
		c-0.84-1.06-1.71-2.11-2.59-3.15c-1.07-1.26-2.15-2.49-3.27-3.71c-2.03-2.21-4.14-4.35-6.32-6.39c1-0.81,1.87-1.7,2.62-2.65
		c0.32-0.4,0.61-0.81,0.88-1.24C134.14,74.59,135.42,75.39,136.69,76.2z M98.91,84.78c0.56-0.99,1.12-1.97,1.69-2.94
		c0.03-0.06,0.07-0.11,0.1-0.17c0.14-0.24,0.28-0.49,0.43-0.73c0.89,0.37,1.82,0.71,2.78,0.99c1.07,0.32,2.17,0.58,3.32,0.77
		c-0.1,0.4-0.2,0.81-0.3,1.21c-0.81,3.25-1.59,6.6-2.33,10.02c-0.4,1.86-0.8,3.74-1.18,5.63c-0.42-0.07-0.84-0.15-1.25-0.23
		c-3.29-0.65-6.4-1.6-9.27-2.81C94.77,92.49,96.78,88.56,98.91,84.78z M91.33,95.82c-2.95-1.38-5.6-3.04-7.89-4.93
		c-0.14-0.11-0.28-0.23-0.42-0.34c0.1-0.12,0.19-0.23,0.29-0.35c0.57-0.69,1.15-1.38,1.73-2.06c1.1-1.29,2.24-2.55,3.4-3.79
		c2.23-2.39,4.55-4.69,6.96-6.88c1.39,1.18,3.01,2.21,4.82,3.06c-0.33,0.5-0.65,1-0.98,1.5c-0.63,0.99-1.26,1.98-1.87,2.99
		C95.25,88.51,93.22,92.13,91.33,95.82z M103.57,111.49c0.24-1.75,0.48-3.5,0.74-5.24c0.17-1.18,0.34-2.36,0.52-3.53
		c0.14,0.02,0.28,0.03,0.41,0.05c0.67,0.08,1.35,0.16,2.03,0.22c1.48,0.13,2.99,0.22,4.51,0.24c1.9,0.02,3.77-0.05,5.61-0.2
		c0.03,0.34,0.06,0.68,0.1,1.01c0.44,4.56,0.84,9.17,1.2,13.75c0.08,1.02,0.16,2.04,0.24,3.06c-0.49,0.04-0.98,0.08-1.48,0.11
		c-1.93,0.13-3.89,0.18-5.88,0.16c-1.56-0.02-3.1-0.09-4.62-0.2c-0.71-0.05-1.41-0.12-2.11-0.19c-0.8-0.08-1.6-0.17-2.39-0.28
		C102.79,117.47,103.17,114.48,103.57,111.49z M111.83,100.32c-1.76-0.02-3.49-0.13-5.19-0.31c-0.46-0.05-0.91-0.1-1.36-0.16
		c0.87-5.49,1.83-10.86,2.84-15.99c0.06-0.33,0.13-0.66,0.19-0.99c1,0.13,2.02,0.22,3.06,0.26c0.25,0.01,0.49,0.02,0.74,0.02
		c1.04,0.01,2.06-0.02,3.06-0.11c0.03,0.25,0.06,0.51,0.09,0.76c0.66,5.24,1.28,10.74,1.84,16.34
		C115.38,100.28,113.62,100.34,111.83,100.32z M94.73,76.88c-3.07,2.58-6,5.34-8.79,8.23c-1.01,1.05-2.01,2.12-2.98,3.2
		c-0.37,0.41-0.73,0.81-1.09,1.23c-0.69-0.64-1.33-1.31-1.94-2c-0.05-0.06-0.1-0.11-0.15-0.17c-1.31-1.51-2.42-3.12-3.3-4.81
		c0.8-0.63,1.62-1.24,2.45-1.84c0.89-0.65,1.8-1.29,2.72-1.92c3.16-2.15,6.49-4.15,9.95-5.96C92.37,74.3,93.43,75.66,94.73,76.88z
		 M81.54,77.46c-0.93,0.59-1.85,1.19-2.75,1.8c-0.98,0.66-1.95,1.34-2.9,2.04c-0.98-2.22-1.56-4.56-1.7-6.98
		c-0.02-0.39-0.04-0.78-0.03-1.17c1.37-0.67,2.78-1.3,4.22-1.89c0.93-0.39,1.88-0.76,2.85-1.11c2.89-1.07,5.91-2,9.03-2.76
		c0,0.39,0.02,0.77,0.06,1.15c0.12,1.24,0.44,2.44,0.95,3.58C87.88,73.73,84.63,75.52,81.54,77.46z M81.04,93.05
		c0.05-0.07,0.1-0.13,0.15-0.2c0.99,0.84,2.04,1.63,3.15,2.39c1.75,1.18,3.65,2.26,5.68,3.21c-1.03,2.1-2.02,4.23-2.97,6.37
		c-0.06,0.14-0.12,0.27-0.18,0.41c-0.51,1.17-1.01,2.34-1.5,3.52c-0.06,0.14-0.11,0.28-0.17,0.42c-0.77,1.89-1.51,3.78-2.2,5.68
		c-1.55-0.73-3.04-1.51-4.48-2.35c-0.5-0.29-0.98-0.59-1.47-0.89c-0.41-0.26-0.81-0.52-1.21-0.79c-1.57-1.05-3.05-2.15-4.43-3.33
		C74.19,102.56,77.43,97.7,81.04,93.05z M86.5,112.04c0.43-1.19,0.87-2.38,1.33-3.56c0.05-0.13,0.1-0.27,0.15-0.4
		c0.46-1.18,0.92-2.35,1.4-3.52c0.04-0.11,0.09-0.21,0.13-0.32c0.7-1.69,1.42-3.38,2.16-5.05c2.7,1.14,5.6,2.06,8.66,2.73
		c0.71,0.16,1.42,0.3,2.14,0.43c0.12,0.02,0.24,0.05,0.37,0.07c-0.08,0.4-0.15,0.8-0.23,1.2c-0.06,0.31-0.12,0.62-0.17,0.93
		c-0.06,0.3-0.11,0.59-0.17,0.89c-0.9,4.86-1.73,9.76-2.44,14.62c-3.08-0.53-6.06-1.25-8.9-2.14c-0.88-0.28-1.75-0.56-2.6-0.87
		c-1.07-0.38-2.12-0.79-3.15-1.22C85.61,114.55,86.05,113.29,86.5,112.04z M101.86,125.71c0.08-0.79,0.17-1.59,0.26-2.39
		c1.04,0.14,2.09,0.25,3.15,0.35c0.66,0.06,1.33,0.12,1.99,0.16c1.41,0.09,2.83,0.16,4.28,0.17c2.21,0.03,4.4-0.04,6.54-0.2
		c0.35-0.02,0.71-0.05,1.05-0.08c0.03,0.42,0.06,0.84,0.09,1.27c0.17,2.47,0.33,4.92,0.47,7.34c0.17,2.91,0.32,5.78,0.45,8.57
		c-0.79,0.07-1.59,0.12-2.38,0.17c-0.39,0.02-0.79,0.04-1.19,0.06c-0.79,0.03-1.58,0.06-2.37,0.08c-0.93,0.02-1.86,0.02-2.8,0.01
		c-0.66-0.01-1.32-0.03-1.97-0.05c-0.39-0.01-0.78-0.03-1.17-0.05c-2.61-0.12-5.18-0.35-7.7-0.69
		C100.88,135.7,101.32,130.75,101.86,125.71z M119.01,99.94c-0.79-5.52-1.66-10.94-2.57-16.11c-0.05-0.3-0.11-0.61-0.16-0.91
		c2.07-0.25,4.05-0.71,5.89-1.34c0.13-0.04,0.26-0.09,0.39-0.13c0.03,0.06,0.06,0.13,0.1,0.19c0.34,0.67,0.68,1.34,1.02,2.01
		c0.91,1.83,1.8,3.69,2.66,5.59c1.22,2.67,2.39,5.4,3.5,8.17c-1.47,0.53-3,0.99-4.57,1.38c-0.95,0.24-1.91,0.45-2.89,0.63
		C121.27,99.62,120.15,99.8,119.01,99.94z M126.57,86.69c-0.9-1.72-1.83-3.42-2.78-5.08c-0.1-0.17-0.19-0.35-0.29-0.52
		c0.11-0.05,0.22-0.09,0.33-0.14c1.18-0.49,2.29-1.06,3.32-1.7c0.51-0.31,0.99-0.64,1.46-0.99c1.68,1.7,3.31,3.47,4.9,5.28
		c1.01,1.15,2,2.32,2.97,3.51c1.3,1.59,2.56,3.21,3.78,4.85c-2.58,1.91-5.54,3.55-8.8,4.87C129.92,93.34,128.29,89.96,126.57,86.69z
		 M141.99,94.29c0.33,0.47,0.66,0.95,0.99,1.42c0.68,0.99,1.35,1.99,1.99,2.99c2.13,3.29,4.1,6.64,5.87,10.03
		c0.12,0.22,0.24,0.44,0.35,0.66c-0.38,0.28-0.77,0.56-1.17,0.84c-0.29,0.2-0.58,0.39-0.87,0.59c-0.87,0.58-1.76,1.13-2.68,1.67
		c-2.32,1.36-4.81,2.58-7.44,3.64c-0.04,0.02-0.07,0.03-0.11,0.05c-0.35-1.07-0.71-2.15-1.08-3.22c-0.6-1.76-1.23-3.51-1.89-5.26
		c-0.44-1.16-0.89-2.32-1.35-3.47c-0.64-1.6-1.29-3.19-1.97-4.76C136.11,98.06,139.25,96.32,141.99,94.29z M145.59,96.39
		c-0.69-0.97-1.39-1.93-2.1-2.88c-0.06-0.08-0.12-0.16-0.18-0.24c0.1-0.08,0.19-0.16,0.28-0.24c1.3-1.09,2.49-2.24,3.56-3.46
		c0.28-0.32,0.56-0.65,0.82-0.98c0.63-0.79,1.21-1.59,1.74-2.42c0.18,0.16,0.35,0.32,0.52,0.48c2.56,2.34,4.96,4.78,7.18,7.31
		c1.3,1.48,2.54,2.99,3.71,4.53c0.06,0.08,0.13,0.17,0.19,0.25c-0.16,0.25-0.33,0.5-0.5,0.75l-0.01,0.01
		c-2.09,3.11-4.75,5.99-7.9,8.56c-0.33-0.6-0.66-1.19-1-1.79C149.99,102.92,147.88,99.62,145.59,96.39z M158.04,107.03
		c1.79-1.85,3.37-3.82,4.7-5.88c0.05-0.08,0.11-0.17,0.17-0.25c0.29,0.41,0.57,0.82,0.85,1.23c2.77,4.07,5.06,8.27,6.77,12.49
		c-2.08,3.3-4.72,6.37-7.8,9.19c-0.62,0.57-1.26,1.12-1.92,1.67c-0.09,0.07-0.18,0.15-0.27,0.23c-0.12-0.38-0.25-0.76-0.37-1.14
		c-0.79-2.4-1.7-4.81-2.73-7.23c-0.28-0.67-0.58-1.34-0.89-2.01c-0.38-0.83-0.76-1.66-1.17-2.49c-0.37-0.77-0.76-1.54-1.15-2.31
		C155.59,109.42,156.87,108.25,158.04,107.03z M163.31,71.58c1.27,2.76,2.11,5.65,2.45,8.64c0.08,0.66,0.13,1.32,0.15,1.99
		c0.02,0.59,0.03,1.18,0.02,1.77c0.13,0.12,0.25,0.24,0.38,0.36c-0.15-0.14-0.29-0.27-0.44-0.41c-0.66-0.61-1.34-1.21-2.04-1.8
		c-3.19-2.68-6.79-5.12-10.71-7.26c0.04,0.02,0.07,0.04,0.11,0.06c0.01-0.54,0-1.08-0.03-1.62c-0.15-2.72-0.82-5.36-1.97-7.84
		c4.12,1.37,7.84,3.19,11.1,5.42C162.65,71.12,162.99,71.34,163.31,71.58z M146.21,57.03c3.17,0.58,6.05,1.64,8.55,3.17
		c2.35,2.14,4.37,4.47,6.03,6.94c0.01,0.02,0.03,0.04,0.04,0.06c0.58,0.87,1.12,1.75,1.61,2.65c-0.21-0.15-0.42-0.28-0.63-0.43
		c-3.28-2.22-7.05-4-11.24-5.27c-0.73-1.35-1.6-2.65-2.6-3.9c-0.25-0.32-0.52-0.63-0.79-0.94c-0.76-0.87-1.58-1.71-2.46-2.51
		C145.21,56.86,145.71,56.94,146.21,57.03z M142.83,56.6c0.15,0.13,0.28,0.27,0.43,0.4c0.46,0.44,0.91,0.89,1.34,1.35
		c1.46,1.57,2.69,3.25,3.66,5.02c0.03,0.05,0.06,0.1,0.08,0.15c-0.02,0-0.04-0.01-0.06-0.01c-0.86-0.22-1.73-0.41-2.62-0.58
		c-3.87-0.77-8-1.16-12.37-1.13c-0.79-1.45-1.87-2.8-3.2-4.02c2.9-0.68,5.69-1.08,8.34-1.21c1.27-0.06,2.5-0.06,3.7,0
		C142.36,56.58,142.6,56.59,142.83,56.6z M133.26,50.4c3.15,1.44,5.99,3.19,8.41,5.2c-0.76-0.03-1.54-0.02-2.33,0
		c-1.09,0.04-2.2,0.12-3.33,0.26c-2.11,0.26-4.31,0.7-6.58,1.34c-0.7-0.58-1.46-1.12-2.27-1.63c-0.82-0.51-1.69-0.97-2.61-1.39
		c0.76-0.49,1.51-0.93,2.24-1.33c0.15-0.08,0.3-0.16,0.45-0.24C129.35,51.51,131.37,50.77,133.26,50.4z M121.09,46.77
		c0.43,0.07,0.86,0.15,1.29,0.23c0.98,0.18,1.94,0.39,2.88,0.63c2.24,0.56,4.39,1.26,6.42,2.09c-1.6,0.39-3.3,1.11-5.08,2.13
		c-0.91,0.52-1.84,1.12-2.79,1.81c-0.06,0.04-0.12,0.08-0.18,0.13c-0.46-0.19-0.93-0.37-1.42-0.53c-1.49-0.51-3.07-0.91-4.73-1.18
		c0.09-0.18,0.18-0.35,0.27-0.52C118.95,49.29,120.06,47.69,121.09,46.77z M113.17,46.09c2.06,0.03,4.08,0.16,6.05,0.41
		c-0.81,0.96-1.7,2.63-2.65,4.99c-0.06,0.14-0.11,0.28-0.17,0.43c-1.14-0.14-2.31-0.22-3.51-0.24c-1.14-0.01-2.26,0.03-3.36,0.14
		c-0.04-0.13-0.07-0.24-0.11-0.37c-0.73-2.42-1.41-4.13-2.04-5.13C109.27,46.15,111.2,46.07,113.17,46.09z M102.16,47.09
		c0.94-0.19,1.89-0.35,2.85-0.48c0.16-0.02,0.31-0.05,0.47-0.07c0.85,0.96,1.78,2.62,2.76,4.96c0.06,0.15,0.12,0.29,0.19,0.44
		c-1.57,0.21-3.08,0.53-4.52,0.96c-0.59,0.17-1.16,0.36-1.72,0.57c-0.45-0.37-0.9-0.71-1.35-1.04c-0.11-0.08-0.21-0.15-0.31-0.23
		c-2.05-1.48-4-2.49-5.8-3.03C97.07,48.3,99.56,47.6,102.16,47.09z M93.11,49.8c1.87,0.45,3.87,1.31,5.98,2.6
		c0.53,0.32,1.07,0.68,1.62,1.06c0.18,0.12,0.36,0.24,0.54,0.37c-0.21,0.09-0.41,0.17-0.61,0.26c-1.64,0.73-3.13,1.61-4.44,2.61
		c-1.82-0.58-3.59-1.02-5.31-1.35c-1.04-0.2-2.07-0.34-3.07-0.44c-1.17-0.12-2.32-0.18-3.43-0.17
		C86.94,52.82,89.87,51.15,93.11,49.8z M79.81,59.02c0.04-0.04,0.08-0.09,0.12-0.13c0.98-1.11,2.06-2.17,3.25-3.16
		c0.06,0,0.12,0,0.17,0c0.64-0.02,1.29-0.02,1.95-0.01c1.1,0.02,2.24,0.1,3.39,0.23c2.18,0.25,4.44,0.69,6.79,1.33
		c-1.4,1.17-2.56,2.49-3.43,3.92c-3.58-0.13-7,0.04-10.25,0.48c-0.9,0.12-1.79,0.26-2.67,0.42c-0.63,0.12-1.26,0.25-1.88,0.39
		C78,61.28,78.85,60.12,79.81,59.02z M76.57,63.7c0.78-0.2,1.58-0.38,2.39-0.55c0.89-0.19,1.79-0.35,2.71-0.5
		c3.17-0.5,6.5-0.76,9.98-0.76c-0.73,1.38-1.19,2.86-1.35,4.4c-0.01,0.09-0.02,0.18-0.03,0.27c-2.44,0.51-4.81,1.13-7.12,1.83
		c-0.65,0.2-1.3,0.41-1.94,0.62c-0.96,0.32-1.91,0.66-2.84,1.01c-1.43,0.54-2.82,1.11-4.18,1.73C74.42,68.93,75.23,66.23,76.57,63.7
		z M62.43,70.09c0.14-0.1,0.29-0.2,0.44-0.3c0.62-0.43,1.25-0.84,1.91-1.23c2.87-1.73,6.07-3.15,9.56-4.22
		c-1.42,2.68-2.29,5.55-2.51,8.54c-3.14,1.57-6.07,3.34-8.75,5.28c-0.73,0.53-1.45,1.08-2.14,1.63c-0.61,0.49-1.22,0.99-1.81,1.51
		C59.43,77.37,60.57,73.6,62.43,70.09z M60.89,81.65c0.7-0.58,1.41-1.15,2.15-1.71c2.67-2.03,5.59-3.9,8.73-5.58
		c0,0.4,0.01,0.79,0.03,1.18c0.14,2.59,0.76,5.1,1.81,7.47c-3.39,2.65-6.52,5.49-9.33,8.46c-0.68,0.72-1.34,1.45-1.98,2.18
		c-0.27,0.31-0.55,0.62-0.82,0.94c-1.43-3.23-2.25-6.64-2.39-10.16c-0.02-0.4-0.03-0.8-0.03-1.2C59.65,82.7,60.27,82.17,60.89,81.65
		z M49.26,95.69c0.39-0.73,0.79-1.45,1.23-2.17c1.86-3.05,4.15-5.93,6.83-8.61c0,0.4,0.01,0.81,0.02,1.21
		c0.14,3.65,1,7.18,2.47,10.52c-2.76,3.5-5.08,7.15-6.93,10.87c-0.36,0.73-0.71,1.47-1.04,2.21c-0.18-0.4-0.34-0.8-0.5-1.2
		c-1.41-3.54-2.23-7.26-2.36-11.09c-0.01-0.4-0.02-0.81-0.02-1.21C49.07,96.04,49.17,95.86,49.26,95.69z M48.46,121.34
		c-0.14,0.98-0.25,1.96-0.31,2.94c-0.03,0.45-0.06,0.89-0.07,1.34c-1.98-4.48-3.05-9.25-3.05-14.18c0-0.06,0-0.11,0-0.17
		c0-0.03,0-0.07,0-0.1c0.02-0.45,0.04-0.9,0.08-1.35c0.3-4.02,1.3-7.9,2.93-11.6c0,0.41,0.01,0.81,0.02,1.21
		c0.14,4.34,1.15,8.53,2.9,12.5C49.75,115.04,48.91,118.19,48.46,121.34z M58.65,139.16c-0.01,0.32-0.03,0.63-0.04,0.95
		c-3.96-3.71-7.17-7.84-9.48-12.28c0.01-0.43,0.04-0.87,0.07-1.31c0.15-2.26,0.49-4.53,1.03-6.8c0.45-1.9,1.02-3.79,1.72-5.68
		c0.08,0.15,0.16,0.3,0.24,0.44c1.75,3.26,4.01,6.34,6.72,9.19c0.67,0.71,1.37,1.41,2.09,2.09c-0.06,0.2-0.11,0.4-0.17,0.6
		C59.6,130.74,58.85,135.03,58.65,139.16z M62.96,155.84c-0.01-0.01-0.01-0.01-0.02-0.02c-0.01-0.02-0.02-0.05-0.03-0.07
		c-0.12-0.3-0.24-0.6-0.35-0.9c-0.18-0.5-0.36-1-0.52-1.52c-0.84-2.73-1.32-5.8-1.41-9.2c3.3,2.8,7.06,5.33,11.18,7.54
		c0.78,0.42,1.57,0.82,2.38,1.22c0.36,0.18,0.71,0.35,1.08,0.52c0.04,2.2,0.2,4.23,0.47,6.09c0.02,0.12,0.04,0.23,0.05,0.34
		c0.06,0.39,0.12,0.77,0.19,1.15c0.24,1.26,0.53,2.43,0.88,3.51c0.02,0.06,0.04,0.13,0.06,0.19
		C71.67,162.23,66.97,159.24,62.96,155.84z M76.86,136.61c-0.23,1.2-0.43,2.39-0.62,3.56c-0.02,0.1-0.03,0.19-0.04,0.29
		c-0.07,0.46-0.14,0.91-0.2,1.36c-0.1,0.74-0.2,1.49-0.28,2.22c-0.26,2.35-0.42,4.62-0.47,6.82c0,0.1-0.01,0.21-0.01,0.32
		c-5.5-2.58-10.42-5.71-14.63-9.28c0.01-0.29,0.02-0.58,0.04-0.87c0.17-3.98,0.84-8.13,1.96-12.38c0.1-0.39,0.2-0.77,0.31-1.16
		c0.98,0.83,2,1.63,3.06,2.41c2.23,1.64,4.63,3.17,7.19,4.56c1.21,0.66,2.45,1.29,3.73,1.89C76.89,136.43,76.88,136.52,76.86,136.61
		z M72.21,131.04c-2.9-1.68-5.58-3.55-8.02-5.56c-0.17-0.14-0.36-0.28-0.52-0.43c0.61-1.93,1.31-3.86,2.09-5.81
		c0.95-2.36,2.02-4.73,3.2-7.09c0.37-0.73,0.74-1.46,1.12-2.19c0.18,0.15,0.37,0.3,0.55,0.45c0.87,0.72,1.78,1.41,2.72,2.08
		c0.68,0.49,1.38,0.96,2.1,1.42c0.13,0.08,0.26,0.17,0.4,0.25c1.95,1.23,4.02,2.36,6.19,3.38c-1,2.88-1.9,5.75-2.7,8.59
		c-0.22,0.77-0.42,1.54-0.63,2.31c-0.47,1.8-0.9,3.58-1.28,5.34C75.63,132.93,73.88,132.01,72.21,131.04z M79.78,137.62
		c2.85,1.19,5.85,2.23,8.97,3.1c0.72,0.2,1.45,0.4,2.19,0.58c2.05,0.51,4.14,0.96,6.29,1.33c-0.1,1.24-0.19,2.47-0.27,3.68
		c-0.03,0.41-0.05,0.81-0.08,1.22c-0.02,0.36-0.05,0.73-0.07,1.09c-0.03,0.54-0.06,1.07-0.08,1.61c0,0.01,0,0.02,0,0.03
		c-0.06,1.2-0.1,2.38-0.14,3.54c-0.01,0.23-0.01,0.46-0.02,0.69c-0.03,1.11-0.05,2.2-0.06,3.26c-1.13-0.19-2.24-0.42-3.35-0.65
		c-0.96-0.2-1.92-0.42-2.86-0.65c-2.45-0.6-4.83-1.3-7.14-2.09c-1.76-0.6-3.49-1.25-5.16-1.96c0-0.07,0-0.14,0.01-0.2
		c0.05-2.67,0.26-5.47,0.6-8.37c0.02-0.14,0.03-0.28,0.05-0.42c0.04-0.37,0.1-0.74,0.14-1.11c0.19-1.42,0.41-2.85,0.66-4.31
		c0.03-0.16,0.05-0.32,0.08-0.48C79.62,137.55,79.7,137.58,79.78,137.62z M79.54,165.85c-0.03-0.1-0.06-0.21-0.09-0.31
		c-0.35-1.2-0.64-2.51-0.87-3.93c-0.06-0.36-0.11-0.72-0.16-1.09c-0.24-1.81-0.38-3.78-0.42-5.91c3.86,1.63,7.98,2.98,12.3,4.04
		c0.94,0.23,1.9,0.45,2.86,0.65c1.11,0.23,2.22,0.46,3.35,0.65c0.01,0.79,0.02,1.55,0.04,2.3c0.01,0.19,0.01,0.38,0.02,0.57
		c0.04,1.19,0.09,2.32,0.16,3.38c0.01,0.11,0.02,0.22,0.02,0.33c0.02,0.23,0.03,0.46,0.05,0.69c0.04,0.55,0.09,1.08,0.15,1.6
		c0.08,0.75,0.17,1.47,0.27,2.13c-3.04-0.52-6-1.2-8.85-2.02c-0.85-0.24-1.69-0.49-2.52-0.76c-2.08-0.67-4.09-1.41-6.04-2.22
		C79.72,165.93,79.63,165.89,79.54,165.85z M89.34,175.41c-0.88-0.29-1.74-0.59-2.59-0.91c-0.83-0.31-1.65-0.63-2.46-0.97
		c-1.4-1.08-2.6-2.63-3.56-4.61c-0.15-0.32-0.3-0.64-0.44-0.98c-0.09-0.22-0.18-0.43-0.27-0.65c0.56,0.24,1.14,0.47,1.71,0.69
		c0.12,0.05,0.23,0.09,0.35,0.14c0.94,0.36,1.9,0.7,2.87,1.03c3.92,1.33,8.06,2.4,12.38,3.15c0.04,0.01,0.07,0.01,0.11,0.02
		c0.06,0.32,0.12,0.63,0.19,0.93c0.36,1.66,0.81,2.96,1.32,3.9c0.13,0.25,0.27,0.47,0.42,0.67c0.02,0.03,0.04,0.06,0.05,0.08
		C95.92,177.3,92.55,176.46,89.34,175.41z M99.38,123.29c-0.14,1.04-0.28,2.07-0.42,3.11c-0.38,2.92-0.72,5.81-1.02,8.65
		c-0.09,0.86-0.18,1.71-0.26,2.56c-0.08,0.79-0.15,1.58-0.22,2.37c-3.3-0.57-6.49-1.32-9.56-2.23c-0.84-0.25-1.68-0.52-2.5-0.79
		c-1.25-0.42-2.48-0.86-3.69-1.33c-0.56-0.22-1.12-0.45-1.67-0.68c0.14-0.72,0.3-1.45,0.45-2.18c0.11-0.49,0.22-0.99,0.33-1.49
		c0.16-0.73,0.34-1.46,0.52-2.19c0.85-3.47,1.84-6.99,2.97-10.54c1.75,0.74,3.56,1.41,5.43,2.01c0.8,0.26,1.62,0.5,2.45,0.73
		c2.34,0.66,4.76,1.21,7.26,1.64C99.41,123.04,99.39,123.16,99.38,123.29z M119.23,178.48c-0.02,0.07-0.05,0.13-0.07,0.19
		c-0.01,0.02-0.01,0.04-0.02,0.06c-0.64,0.05-1.28,0.1-1.92,0.14c-1.87,0.11-3.76,0.16-5.67,0.13c-2.2-0.03-4.36-0.15-6.48-0.35
		c-0.68-0.07-1.36-0.14-2.03-0.22c-0.3-0.04-0.61-0.07-0.91-0.11c-0.09-0.14-0.18-0.31-0.26-0.48c-0.53-1.1-0.98-2.78-1.31-5.05
		c2.09,0.28,4.22,0.49,6.38,0.62c0.4,0.02,0.8,0.05,1.19,0.07c1.08,0.05,2.18,0.09,3.27,0.1c1.3,0.02,2.6,0,3.88-0.04
		c0.39-0.01,0.78-0.03,1.17-0.04c1.24-0.05,2.48-0.13,3.7-0.23C119.91,175.68,119.6,177.41,119.23,178.48z M120.61,162.05
		c0,0.1,0,0.21,0,0.31c-0.01,0.76-0.02,1.49-0.03,2.2c0,0.15-0.01,0.29-0.01,0.44c-0.03,1.33-0.07,2.58-0.12,3.73
		c-0.01,0.3-0.03,0.61-0.04,0.9c-0.02,0.39-0.04,0.77-0.07,1.14c-0.03,0.4-0.05,0.79-0.08,1.16c-1.42,0.12-2.85,0.21-4.3,0.26
		c-0.34,0.01-0.69,0.02-1.03,0.03c-1.18,0.03-2.36,0.05-3.55,0.03c-0.91-0.01-1.81-0.04-2.71-0.07c-0.35-0.01-0.7-0.03-1.04-0.05
		c-1.62-0.09-3.22-0.21-4.8-0.38c-0.75-0.08-1.5-0.17-2.25-0.27c-0.07-0.01-0.14-0.02-0.21-0.03c-0.03-0.26-0.06-0.52-0.09-0.79
		c-0.06-0.6-0.12-1.23-0.17-1.88c-0.06-0.81-0.12-1.67-0.16-2.57c-0.01-0.19-0.02-0.39-0.03-0.58c-0.04-0.97-0.08-1.99-0.1-3.06
		c0-0.15-0.01-0.3-0.01-0.46c-0.01-0.53-0.02-1.07-0.02-1.62c2.51,0.34,5.07,0.57,7.67,0.71c0.25,0.01,0.49,0.03,0.74,0.04
		c0.73,0.03,1.47,0.06,2.21,0.07c0.07,0,0.13,0,0.2,0c0.24,0,0.47,0.01,0.71,0.01c0.04,0,0.09,0,0.13,0c0.04,0,0.07,0,0.11,0
		c0.19,0,0.37,0,0.56,0c0.03,0,0.05,0,0.08,0c0.16,0,0.33,0,0.49,0l0.08,0c0.18,0,0.35,0,0.53,0c0.03,0,0.06,0,0.1,0
		c0.25,0,0.5-0.01,0.75-0.01c0.05,0,0.11,0,0.16,0c0.58-0.01,1.16-0.02,1.74-0.04c0.17,0,0.33-0.02,0.5-0.02
		c1.36-0.06,2.72-0.14,4.06-0.25C120.61,161.35,120.61,161.7,120.61,162.05z M117.34,158.97c-0.24,0.01-0.48,0.02-0.72,0.03
		c-0.69,0.03-1.38,0.05-2.08,0.06c-0.06,0-0.13,0-0.19,0c-0.28,0-0.56,0.01-0.84,0.02c-0.03,0-0.07,0-0.1,0c-0.18,0-0.36,0-0.55,0
		c-0.03,0-0.05,0-0.08,0c-0.16,0-0.33,0-0.49,0h-0.08c-0.18,0-0.35,0-0.53,0c-0.03,0-0.07,0-0.1,0c-0.09,0-0.17,0-0.26,0
		c-0.17,0-0.35-0.01-0.52-0.01c-0.06,0-0.12,0-0.18,0c-0.59-0.01-1.18-0.03-1.77-0.05c-0.19-0.01-0.37-0.01-0.56-0.02
		c-2.89-0.13-5.72-0.38-8.5-0.75c0-0.77,0.01-1.55,0.03-2.34c0-0.18,0.01-0.36,0.01-0.54c0.03-1.32,0.06-2.67,0.11-4.05
		c0.01-0.28,0.02-0.57,0.03-0.85c0.01-0.15,0.01-0.29,0.02-0.44c0.03-0.78,0.07-1.56,0.11-2.35c0.05-1.07,0.11-2.16,0.18-3.26
		c0.03-0.43,0.05-0.87,0.08-1.31c0.13,0.02,0.27,0.03,0.4,0.05c0.42,0.05,0.84,0.11,1.26,0.16c0.26,0.03,0.52,0.06,0.78,0.09
		c1.96,0.21,3.95,0.36,5.97,0.44c0.34,0.01,0.68,0.03,1.03,0.04c0.52,0.02,1.05,0.03,1.57,0.03c0.21,0,0.42,0,0.63,0
		c1.36,0.01,2.72-0.01,4.06-0.06c0.35-0.01,0.69-0.03,1.04-0.05c1.06-0.05,2.11-0.12,3.15-0.21c0.03,0.7,0.05,1.4,0.08,2.09
		c0.04,1.18,0.08,2.33,0.11,3.47c0.01,0.39,0.02,0.78,0.03,1.16c0.04,1.51,0.07,3,0.1,4.44c0,0.17,0.01,0.33,0.01,0.5
		c0.01,0.81,0.02,1.6,0.02,2.38c0,0.11,0,0.22,0,0.33c0,0.26,0,0.53,0.01,0.79C119.53,158.85,118.44,158.91,117.34,158.97z
		 M121.43,119.26c-0.2-1.9-0.42-3.8-0.65-5.71c-0.37-3.12-0.76-6.25-1.18-9.35c-0.06-0.46-0.12-0.93-0.19-1.39
		c0.89-0.11,1.78-0.24,2.65-0.39c0.95-0.16,1.88-0.35,2.8-0.55c2.09-0.47,4.11-1.05,6.04-1.75c0.44,1.13,0.87,2.27,1.28,3.41
		c0.41,1.11,0.81,2.22,1.2,3.34c1.13,3.23,2.17,6.48,3.13,9.72c0.04,0.15,0.09,0.3,0.13,0.45c-0.11,0.04-0.23,0.08-0.35,0.12
		c-3.89,1.37-8.05,2.42-12.41,3.09c-0.64,0.1-1.28,0.19-1.93,0.27c-0.13,0.02-0.26,0.04-0.4,0.05
		C121.53,120.14,121.48,119.7,121.43,119.26z M124.65,123.06c2.59-0.41,5.1-0.95,7.54-1.61c0.93-0.25,1.85-0.52,2.76-0.81
		c0.84-0.27,1.68-0.54,2.5-0.84c0.01,0.03,0.01,0.06,0.02,0.09c0.05,0.18,0.1,0.36,0.15,0.55c0.8,2.94,1.53,5.86,2.16,8.73
		c0.31,1.4,0.6,2.8,0.87,4.18c0.11,0.56,0.22,1.12,0.32,1.67c0.08,0.46,0.17,0.92,0.25,1.37c-0.64,0.23-1.3,0.45-1.95,0.67
		c-3.83,1.26-7.86,2.25-12.05,2.95c-0.5,0.08-1.01,0.17-1.51,0.25c-0.8,0.12-1.6,0.23-2.41,0.33c-0.31-4.86-0.72-9.92-1.22-15.08
		c-0.06-0.68-0.13-1.37-0.2-2.05C122.81,123.34,123.73,123.21,124.65,123.06z M143.65,172.36c0.05-0.03,0.1-0.05,0.16-0.08
		c-0.22,0.12-0.45,0.23-0.67,0.35c-0.15,0.07-0.29,0.15-0.44,0.22c-0.37,0.18-0.74,0.36-1.11,0.54c-0.02,0.01-0.04,0.02-0.07,0.03
		c-0.03,0.01-0.06,0.03-0.09,0.04c-1.3,0.62-2.67,1.21-4.09,1.78c0.38-0.16,0.77-0.32,1.16-0.48c0.15-0.08,0.3-0.16,0.44-0.25
		C140.56,173.85,142.13,173.13,143.65,172.36z M140.93,169.53c-0.13,0.33-0.26,0.65-0.39,0.95c-0.23,0.52-0.48,1-0.74,1.46
		c-0.69,1.18-1.47,2.15-2.35,2.87c-0.92,0.33-1.86,0.64-2.81,0.93c-0.79,0.25-1.6,0.48-2.41,0.7c-2.46,0.67-5.01,1.21-7.62,1.62
		c-0.9,0.14-1.81,0.28-2.73,0.39c0.07-0.12,0.14-0.26,0.2-0.41c0.5-1.09,0.9-2.79,1.21-5.1c0.27-0.03,0.54-0.07,0.8-0.11
		c0.48-0.06,0.95-0.12,1.43-0.19c3.81-0.56,7.5-1.37,11.03-2.39c0.82-0.24,1.64-0.49,2.44-0.75c0.75-0.24,1.49-0.5,2.22-0.76
		C141.12,169.01,141.03,169.27,140.93,169.53z M143,156.52c-0.05,2.25-0.19,4.31-0.44,6.18c-0.04,0.33-0.09,0.66-0.14,0.98
		c-0.21,1.32-0.46,2.55-0.77,3.66c-1.93,0.69-3.93,1.32-5.97,1.87c-0.7,0.19-1.41,0.37-2.12,0.55c-3.12,0.76-6.34,1.36-9.65,1.78
		c-0.15,0.02-0.3,0.04-0.46,0.06c0.01-0.12,0.02-0.24,0.04-0.36c0.06-0.57,0.11-1.16,0.16-1.79c0.07-0.9,0.13-1.87,0.17-2.89
		c0.01-0.19,0.02-0.39,0.02-0.58c0.04-0.94,0.07-1.93,0.09-2.97c0-0.14,0.01-0.28,0.01-0.43c0.01-0.63,0.02-1.28,0.02-1.94
		c2.68-0.32,5.31-0.77,7.88-1.31c0.96-0.2,1.92-0.42,2.86-0.66c0.4-0.1,0.8-0.2,1.2-0.3c2.44-0.64,4.81-1.37,7.11-2.19
		C143,156.29,143,156.4,143,156.52z M134.7,156.44c-0.95,0.23-1.9,0.45-2.86,0.66c-2.57,0.54-5.19,0.98-7.88,1.31
		c0-0.53-0.01-1.06-0.01-1.59c0-0.16,0-0.31-0.01-0.47c-0.02-1.12-0.04-2.27-0.07-3.44c-0.01-0.23-0.01-0.47-0.02-0.71
		c-0.05-1.69-0.12-3.43-0.2-5.2c-0.02-0.4-0.04-0.8-0.06-1.21c-0.03-0.54-0.06-1.09-0.09-1.64c0-0.09-0.01-0.18-0.01-0.28
		c-0.01-0.21-0.02-0.41-0.03-0.62c0.21-0.02,0.41-0.06,0.61-0.08c0.44-0.06,0.89-0.12,1.33-0.18c3.64-0.52,7.17-1.26,10.56-2.2
		c0.81-0.23,1.62-0.46,2.42-0.71c1.11-0.34,2.2-0.7,3.27-1.09c0.39,2.51,0.7,4.95,0.92,7.33c0.04,0.44,0.08,0.87,0.11,1.3
		c0.18,2.17,0.29,4.28,0.32,6.31C140.33,154.91,137.56,155.74,134.7,156.44z M143.92,135.37c-0.08-0.4-0.16-0.8-0.24-1.2
		c-0.13-0.67-0.28-1.35-0.42-2.02c-0.04-0.19-0.08-0.37-0.12-0.55c-0.87-3.95-1.94-8-3.17-12.07c-0.06-0.2-0.12-0.39-0.18-0.59
		c1.48-0.59,2.9-1.24,4.29-1.93c1.77-0.87,3.46-1.82,5.07-2.83c0.86-0.54,1.69-1.1,2.49-1.67c0.27-0.19,0.54-0.38,0.8-0.57
		c0.29,0.6,0.58,1.21,0.86,1.81c0.26,0.56,0.51,1.11,0.75,1.66c0.37,0.83,0.72,1.65,1.07,2.47c0.23,0.55,0.45,1.09,0.66,1.64
		c1.03,2.62,1.94,5.22,2.7,7.8c-3.65,2.71-7.78,5.09-12.29,7.09C145.45,134.73,144.69,135.05,143.92,135.37z M145.22,137.61
		c0.93-0.39,1.85-0.79,2.75-1.21c4.08-1.91,7.85-4.13,11.21-6.62c0.15,0.58,0.29,1.15,0.43,1.73c0.16,0.68,0.31,1.35,0.45,2.03
		c0.77,3.7,1.21,7.31,1.29,10.76c-2.52,1.87-5.25,3.58-8.16,5.14c-0.78,0.42-1.57,0.82-2.38,1.22c-1.6,0.78-3.25,1.52-4.94,2.21
		c-0.04-2.25-0.18-4.6-0.42-7.03c-0.05-0.47-0.1-0.95-0.15-1.43c-0.24-2.1-0.54-4.25-0.92-6.44
		C144.67,137.85,144.94,137.72,145.22,137.61z M159.55,157.12c-0.12,0.33-0.24,0.66-0.37,0.98c-0.56,0.42-1.13,0.82-1.72,1.22
		c-2.92,2.01-6.11,3.82-9.52,5.41c-0.9,0.42-1.82,0.82-2.75,1.21c-0.27,0.11-0.54,0.23-0.81,0.34c0.28-0.93,0.51-1.94,0.71-3
		c0.06-0.34,0.13-0.69,0.18-1.04c0.32-2.01,0.52-4.25,0.58-6.7c0-0.16,0.01-0.31,0.01-0.46c5.74-2.31,10.95-5.21,15.48-8.57
		c-0.01,0.4-0.03,0.79-0.05,1.19C161.13,151.24,160.53,154.39,159.55,157.12z M174.04,134.84c-0.3,3.79-1.21,7.27-2.65,10.4
		c-1.99,3.14-4.46,6.1-7.36,8.81c-0.89,0.84-1.81,1.65-2.78,2.44c0.08-0.19,0.15-0.38,0.22-0.57c1.11-2.85,1.79-6.12,1.99-9.81
		c0.02-0.42,0.05-0.85,0.06-1.28c4.3-3.51,7.89-7.47,10.61-11.78C174.13,133.65,174.09,134.25,174.04,134.84z M167.66,138.86
		c-0.56,0.57-1.15,1.12-1.75,1.67c-0.77,0.7-1.56,1.4-2.38,2.07c-0.09-3.61-0.6-7.38-1.47-11.25c-0.16-0.7-0.33-1.4-0.51-2.11
		c-0.09-0.36-0.19-0.73-0.29-1.09c0.27-0.22,0.52-0.44,0.79-0.67c0.64-0.55,1.27-1.1,1.88-1.67c0.35-0.33,0.69-0.66,1.02-0.99
		c2.5-2.47,4.67-5.12,6.45-7.93c0.07,0.19,0.13,0.38,0.19,0.56c1.54,4.47,2.43,8.96,2.56,13.36
		C172.35,133.66,170.17,136.35,167.66,138.86z M176.96,125.54c-0.3,0.67-0.61,1.34-0.95,2.01c-0.19,0.38-0.39,0.76-0.6,1.13
		c-0.14-4.48-1.07-9.04-2.71-13.55c-0.03-0.09-0.06-0.18-0.09-0.27c0.42-0.76,0.81-1.53,1.17-2.31c0.01-0.02,0.02-0.03,0.02-0.05
		c1.63-3.53,2.67-7.24,3.03-11.1c1.81,4.22,2.85,8.65,3,13.2C179.47,118.38,178.49,122.05,176.96,125.54z M86.89,174.93
		c-0.24-0.1-0.47-0.2-0.71-0.3c0.18,0.08,0.37,0.16,0.55,0.24C86.78,174.89,86.83,174.91,86.89,174.93z M150.62,168.19
		c-0.16,0.11-0.32,0.21-0.48,0.32c0.07-0.05,0.14-0.09,0.21-0.14C150.44,168.32,150.53,168.25,150.62,168.19z M79.99,171.65
		c-0.22-0.12-0.43-0.24-0.65-0.36c-0.07-0.04-0.15-0.08-0.22-0.12C79.42,171.33,79.71,171.49,79.99,171.65z M162.65,157.68
		c0.01-0.01,0.02-0.02,0.03-0.03c0.05-0.06,0.1-0.12,0.15-0.17c-0.05,0.05-0.09,0.1-0.14,0.16
		C162.68,157.65,162.67,157.67,162.65,157.68z M163.03,157.26c0.16-0.18,0.31-0.36,0.47-0.54c-0.22,0.26-0.45,0.51-0.67,0.76
		C162.9,157.41,162.97,157.33,163.03,157.26z M161.96,158.44c0.14-0.15,0.28-0.3,0.41-0.44c-0.35,0.38-0.7,0.75-1.05,1.12
		C161.53,158.89,161.75,158.66,161.96,158.44z M127.08,178.41c0,0,0.01,0,0.02-0.01c0.01,0,0.02,0,0.03-0.01
		c-0.25,0.05-0.5,0.1-0.77,0.15C126.6,178.5,126.85,178.45,127.08,178.41z"/>
</g>
</svg>
