<?xml version="1.0" encoding="utf-8"?>
<!-- Generator: Adobe Illustrator 26.2.1, SVG Export Plug-In . SVG Version: 6.00 Build 0)  -->
<svg version="1.1" xmlns="http://www.w3.org/2000/svg" xmlns:xlink="http://www.w3.org/1999/xlink" x="0px" y="0px"
	 viewBox="0 0 225 225" style="enable-background:new 0 0 225 225;" xml:space="preserve">
<style type="text/css">
	.st0{display:none;}
	.st1{display:inline;fill:#FAB433;}
	.st2{fill:none;}
	.st3{fill:none;stroke:#000000;stroke-width:1.6;stroke-miterlimit:10;}
	.st4{fill:none;stroke:#000000;stroke-width:0.7265;stroke-miterlimit:10;}
	.st5{fill:none;stroke:#000000;stroke-linecap:round;stroke-linejoin:round;stroke-miterlimit:10;}
	.st6{fill:none;stroke:#000000;stroke-miterlimit:10;}
	.st7{fill:none;stroke:#000000;stroke-width:0.7105;stroke-miterlimit:10;}
	.st8{fill:none;stroke:#000000;stroke-width:5.4;stroke-linecap:round;stroke-linejoin:round;stroke-miterlimit:10;}
	.st9{fill:none;stroke:#000000;stroke-width:2.9309;stroke-linecap:round;stroke-linejoin:round;stroke-miterlimit:10;}
	.st10{fill:none;stroke:#000000;stroke-width:0.5;stroke-linecap:round;stroke-linejoin:round;}
	.st11{fill:none;stroke:#FFFFFF;stroke-width:0;stroke-linecap:round;stroke-linejoin:round;}
	.st12{fill:#FFFFFF;}
	.st13{fill:none;stroke:#000000;stroke-width:1.4;stroke-miterlimit:10;}
	.st14{fill:url(#);stroke:#000000;stroke-width:1.4387;stroke-miterlimit:10;}
	.st15{fill:url(#);stroke:#000000;stroke-width:1.3718;stroke-miterlimit:10;}
	.st16{fill:none;stroke:#000000;stroke-width:1.0041;stroke-miterlimit:10;}
	.st17{fill:none;stroke:#000000;stroke-width:1.3621;stroke-miterlimit:10;}
	.st18{fill:none;stroke:#000000;stroke-width:0.25;stroke-miterlimit:10;}
</style>
<g id="Layer_2" class="st0">
	
		<rect id="XMLID_00000049924193275795927410000016330201882968263580_" x="-835.99" y="-30.01" class="st1" width="1160" height="772"/>
</g>
<g id="Layer_1">
	<path id="XMLID_00000036944785115099928920000000007687902577232287_" d="M156.69,134.89l-4.55,8.09
		c-3.35,5.89-8.38,5.84-11.2-0.13l-6.48-13.71c-2.81-5.97-8.22-6.08-12.03-0.24l-2.87,4.42c-3.8,5.81-10.69,6.83-15.27,2.25
		c-4.61-4.61-11.57-3.62-15.51,2.22l-2.41,3.62c-3.94,5.81-10.71,5.87-15.08,0.13l-0.86-1.15c-4.34-5.73-11.68-8.17-16.26-5.38
		c-1.37,0.8-2.65,1.58-3.78,2.28c9.83,24.67,33.94,42.08,62.09,42.08c29.52,0,54.59-19.13,63.43-45.67
		c-1.37-0.99-3.03-2.2-4.82-3.48C166.52,126.89,160.03,129,156.69,134.89z M112.49,45.64c-36.91,0-66.86,29.95-66.86,66.86
		c0,3.59,0.29,7.1,0.83,10.53c0.11,0.67,0.21,1.34,0.37,2.01l0.15-0.2v-2.81c0.2-0.38,0.43-0.8,0.67-1.25v3.18l0.68-0.89v-3.54
		c0.21-0.39,0.44-0.8,0.67-1.22v3.89l0.68-0.89v-4.22c0.22-0.39,0.44-0.79,0.67-1.19v4.53l0.68-0.89v-4.83
		c0.22-0.38,0.44-0.77,0.67-1.16v5.11l0.68-0.89v-5.37c0.22-0.37,0.44-0.75,0.67-1.12v5.61l0.68-0.89v-5.82
		c0.15-0.24,0.3-0.49,0.45-0.73c0.07-0.11,0.15-0.2,0.22-0.3v5.97l0.16-0.21c0.16-0.22,0.35-0.37,0.52-0.57v-6.1
		c0.22-0.25,0.44-0.49,0.67-0.71v6.08c0.23-0.23,0.44-0.49,0.68-0.69v-5.96c0.22-0.17,0.44-0.32,0.67-0.47v5.95
		c0.23-0.17,0.45-0.35,0.68-0.49v-5.86c0.22-0.11,0.44-0.2,0.67-0.29v5.77c0.22-0.11,0.45-0.18,0.68-0.28v-5.73
		c0.22-0.07,0.44-0.14,0.67-0.19v5.65c0.23-0.07,0.45-0.11,0.68-0.16v-5.6c0.22-0.03,0.44-0.07,0.67-0.08v5.6
		c0.23-0.02,0.45-0.08,0.68-0.08v-5.54c0.22,0,0.45,0.01,0.67,0.03v5.57c0.23,0.02,0.45,0.07,0.68,0.11v-5.62
		c0.22,0.03,0.45,0.08,0.67,0.13v5.6c0.23,0.07,0.45,0.22,0.68,0.32v-5.76c0.22,0.06,0.45,0.15,0.67,0.23v5.85
		c0.23,0.13,0.46,0.26,0.68,0.42v-6c0.22,0.1,0.45,0.2,0.67,0.31v6.27c0.22,0.2,0.47,0.36,0.68,0.59v-6.47
		c0.23,0.14,0.45,0.28,0.67,0.43v6.96c0.23,0.31,0.47,0.59,0.68,0.95v-7.39c0.23,0.19,0.45,0.39,0.67,0.6v7.93l0.68,1.19V109
		c0.22,0.25,0.45,0.5,0.66,0.77l0.01,0.02v8.82l0.68,1.19v-9.14c0.22,0.28,0.44,0.55,0.67,0.81v9.5l0.68,1.19v-9.96
		c0.22,0.23,0.44,0.44,0.67,0.65v10.46c0.22,0.38,0.45,0.68,0.68,1.01v-10.88c0.22,0.18,0.44,0.35,0.67,0.5v11.29
		c0.22,0.26,0.45,0.47,0.68,0.68v-11.55c0.22,0.13,0.45,0.26,0.67,0.37v11.79c0.23,0.17,0.45,0.27,0.68,0.4v-11.88
		c0.22,0.09,0.45,0.16,0.67,0.22v11.99c0.23,0.08,0.45,0.09,0.68,0.12v-11.96c0.22,0.04,0.45,0.07,0.67,0.09v11.94
		c0.23-0.01,0.45-0.1,0.68-0.17v-11.76c0.23-0.01,0.45-0.04,0.67-0.08v11.59c0.23-0.13,0.46-0.31,0.68-0.5v-11.28
		c0.23-0.08,0.45-0.17,0.67-0.28v10.86c0.23-0.29,0.47-0.56,0.68-0.93v-10.34c0.23-0.16,0.45-0.35,0.67-0.55v9.4
		c0.08-0.19,0.17-0.34,0.24-0.55l0.44-1.31v-8.3c0.24-0.31,0.46-0.65,0.67-1.02v7.33l0.68-2.02v-6.48l0.67-1.08v5.57l0.68-2.02
		v-4.64l0.67-1.08v3.73l0.68-2.02v-2.8l0.67-1.08v1.89l0.68-2.02v-0.97l0.67-1.08v0.06l0.04-0.12l2.81-8.38
		c2.01-6.03,5.73-6.08,8.22-0.08l4.34,10.42l0.08,0.19v-0.13c0.22,0.21,0.45,0.36,0.67,0.54v1.18l0.68,1.62v-2.26
		c0.22,0.16,0.44,0.29,0.67,0.43v3.43l0.68,1.62v-4.71c0.22,0.11,0.45,0.26,0.67,0.34v5.87c0.21,0.45,0.43,0.86,0.68,1.25v-6.95
		c0.22,0.06,0.45,0.12,0.67,0.16v7.7c0.22,0.26,0.44,0.53,0.68,0.75v-8.36c0.23,0.01,0.45-0.02,0.67-0.03v8.91
		c0.22,0.16,0.45,0.3,0.68,0.42v-9.36c0.23-0.04,0.45-0.13,0.67-0.2v9.89c0.22,0.08,0.45,0.12,0.68,0.17v-10.3
		c0.23-0.1,0.45-0.21,0.67-0.34V118c0.22,0.03,0.45,0,0.68,0v-11.29c0.23-0.18,0.45-0.36,0.67-0.57v11.83
		c0.23-0.02,0.45-0.02,0.68-0.07v-12.55c0.24-0.31,0.46-0.65,0.67-1.01v13.33c0.23-0.07,0.45-0.13,0.68-0.23v-14.4
		c0.01-0.03,0.03-0.05,0.04-0.07l0.63-1.89v16.05c0.23-0.12,0.45-0.29,0.68-0.43V99.03l0.67-2.01v19.24
		c0.23-0.17,0.45-0.39,0.68-0.59V94.98l0.67-2.01v22.05c0.2-0.21,0.41-0.36,0.61-0.59c0.02-0.02,0.04-0.04,0.06-0.06V90.93
		l0.67-2.01v24.8c0.23-0.22,0.45-0.46,0.68-0.65V86.88l0.67-2.01v27.66c0.22-0.16,0.45-0.29,0.68-0.43V82.83l0.67-2.01v30.86
		c0.23-0.12,0.45-0.19,0.68-0.28V78.98c0.21-0.48,0.43-0.94,0.67-1.34v33.53c0.23-0.07,0.45-0.18,0.68-0.23V76.68
		c0.22-0.28,0.44-0.57,0.67-0.79v35.01c0.23-0.02,0.45-0.04,0.68-0.03V75.41c0.22-0.14,0.44-0.27,0.67-0.35v35.82
		c0.23,0.03,0.45,0.11,0.68,0.17V74.91c0.22-0.03,0.44-0.02,0.67,0.01v36.3c0.23,0.09,0.45,0.22,0.68,0.33V75.07
		c0.23,0.08,0.45,0.22,0.67,0.36v36.53c0.23,0.16,0.46,0.32,0.68,0.51V75.9c0.23,0.21,0.45,0.5,0.67,0.77v36.52
		c0.23,0.27,0.47,0.54,0.68,0.86V77.56c0.23,0.37,0.45,0.8,0.67,1.25v36.41c0.08,0.17,0.19,0.29,0.27,0.47l0.41,0.93V80.48
		l0.67,1.92v35.73l0.68,1.54V84.34l0.67,1.92v34.92l0.68,1.54V88.2l0.67,1.92v34.12l0.68,1.54V92.06l0.67,1.92v33.31l0.68,1.54
		V95.92l0.67,1.92v32.51l0.68,1.54V99.76c0.2,0.44,0.44,0.8,0.67,1.19v32.12c0.22,0.37,0.44,0.74,0.68,1.04V102
		c0.21,0.27,0.44,0.51,0.67,0.75v32.1c0.22,0.22,0.44,0.43,0.68,0.6v-32.03c0.21,0.18,0.44,0.3,0.67,0.45v31.97
		c0.23,0.12,0.44,0.26,0.68,0.34v-31.86c0.22,0.11,0.45,0.16,0.67,0.24v31.75c0.23,0.04,0.45,0.13,0.68,0.14V104.8
		c0.22,0.06,0.44,0.12,0.67,0.16v31.44c0.23-0.02,0.45-0.04,0.68-0.1v-31.31c0.22,0.01,0.44,0.05,0.67,0.03v31.09
		c0.23-0.08,0.45-0.21,0.68-0.32v-30.85c0.22-0.03,0.45-0.09,0.67-0.15v30.68c0.23-0.15,0.45-0.37,0.68-0.55v-30.28
		c0.22-0.08,0.45-0.21,0.67-0.31v30.04c0.23-0.22,0.45-0.47,0.68-0.72v-29.66c0.22-0.12,0.45-0.22,0.67-0.36v29.2
		c0.16-0.21,0.33-0.37,0.48-0.6l0.2-0.29v-28.86c0.22-0.18,0.45-0.34,0.67-0.55v28.41l0.68-1.01v-27.95
		c0.21-0.2,0.44-0.36,0.67-0.53v27.5l0.23-0.34c0.14-0.21,0.31-0.36,0.45-0.56V100.9c0.22-0.14,0.44-0.24,0.67-0.36v26.68
		c0.22-0.26,0.44-0.53,0.68-0.76v-26.24c0.22-0.1,0.44-0.23,0.67-0.31v25.98c0.23-0.19,0.44-0.41,0.68-0.58V99.72
		c0.22-0.06,0.45-0.1,0.67-0.14v25.26c0.22-0.14,0.45-0.26,0.68-0.39V99.44c0.22-0.03,0.44-0.04,0.67-0.05v24.69
		c0.22-0.11,0.45-0.19,0.68-0.28V99.4c0.22,0,0.45-0.01,0.67,0.01v24.16c0.23-0.07,0.45-0.17,0.68-0.22V99.48
		c0.22,0.03,0.45,0.11,0.67,0.16v23.58c0.23-0.04,0.45-0.05,0.68-0.07V99.8c0.22,0.06,0.45,0.1,0.67,0.18v23.1
		c0.23-0.01,0.45-0.01,0.68,0V100.3c0.22,0.1,0.45,0.2,0.67,0.32v22.53c0.23,0.03,0.45,0.04,0.68,0.08v-22.29
		c0.23,0.14,0.44,0.34,0.67,0.5v21.93c0.23,0.06,0.45,0.17,0.68,0.25v-21.67c0.22,0.18,0.46,0.32,0.67,0.52v21.4
		c0.23,0.1,0.46,0.21,0.68,0.34v-20.99c0.23,0.24,0.46,0.48,0.67,0.74v20.7c0.23,0.15,0.46,0.28,0.68,0.46v-20.34l0.67,0.89v19.99
		c0.23,0.2,0.45,0.4,0.68,0.59v-19.68l0.67,0.89v19.36c0.23,0.2,0.45,0.39,0.68,0.59v-19.05l0.67,0.89v18.73
		c0.24,0.21,0.45,0.39,0.68,0.58v-18.41l0.67,0.89v18.09c0.24,0.21,0.45,0.39,0.68,0.58v-17.77l0.67,0.89v17.42c0,0,0,0.01,0,0.01
		c0.55-1.96,0.99-3.96,1.35-5.99c-0.2,1.1-0.42,2.19-0.67,3.26v-13.81l0.67,0.89v9.64c0.27-1.52,0.51-3.05,0.68-4.61v-4.13l0.3,0.4
		c0.05-1.15,0.08-2.3,0.08-3.48C179.37,75.59,149.43,45.64,112.49,45.64z"/>
</g>
</svg>
