<?xml version="1.0" encoding="utf-8"?>
<!-- Generator: Adobe Illustrator 26.2.1, SVG Export Plug-In . SVG Version: 6.00 Build 0)  -->
<svg version="1.1" xmlns="http://www.w3.org/2000/svg" xmlns:xlink="http://www.w3.org/1999/xlink" x="0px" y="0px"
	 viewBox="0 0 225 225" style="enable-background:new 0 0 225 225;" xml:space="preserve">
<style type="text/css">
	.st0{display:none;}
	.st1{display:inline;fill:#FAB433;}
	.st2{fill:none;}
	.st3{fill:none;stroke:#000000;stroke-width:1.6;stroke-miterlimit:10;}
	.st4{fill:none;stroke:#000000;stroke-width:0.7265;stroke-miterlimit:10;}
	.st5{fill:none;stroke:#000000;stroke-linecap:round;stroke-linejoin:round;stroke-miterlimit:10;}
	.st6{fill:none;stroke:#000000;stroke-miterlimit:10;}
	.st7{fill:none;stroke:#000000;stroke-width:0.7105;stroke-miterlimit:10;}
	.st8{fill:none;stroke:#000000;stroke-width:5.4;stroke-linecap:round;stroke-linejoin:round;stroke-miterlimit:10;}
	.st9{fill:none;stroke:#000000;stroke-width:2.9309;stroke-linecap:round;stroke-linejoin:round;stroke-miterlimit:10;}
	.st10{fill:none;stroke:#000000;stroke-width:0.5;stroke-linecap:round;stroke-linejoin:round;}
	.st11{fill:none;stroke:#FFFFFF;stroke-width:0;stroke-linecap:round;stroke-linejoin:round;}
	.st12{fill:#FFFFFF;}
	.st13{fill:none;stroke:#000000;stroke-width:1.4;stroke-miterlimit:10;}
	.st14{fill:url(#);stroke:#000000;stroke-width:1.4387;stroke-miterlimit:10;}
	.st15{fill:url(#);stroke:#000000;stroke-width:1.3718;stroke-miterlimit:10;}
	.st16{fill:none;stroke:#000000;stroke-width:1.0041;stroke-miterlimit:10;}
	.st17{fill:none;stroke:#000000;stroke-width:1.3621;stroke-miterlimit:10;}
	.st18{fill:none;stroke:#000000;stroke-width:0.25;stroke-miterlimit:10;}
</style>
<g id="Layer_2" class="st0">
	<rect id="XMLID_1_" x="-100.99" y="-520.01" class="st1" width="1160" height="772"/>
</g>
<g id="Layer_1">
	<g id="XMLID_14891_">
		<g id="XMLID_14892_">
			<path id="XMLID_14893_" d="M71.61,166.48c-0.87-0.69-1.74-1.38-2.6-2.07c-0.21-0.22-0.4-0.48-0.64-0.67
				c-2.04-1.62-3.89-3.45-5.63-5.38c-12.24-13.56-18.24-29.5-17.85-47.75c0.26-12.08,3.67-23.26,10.01-33.56
				c1.05-1.71,2.28-3.3,3.33-5.01c0.86-1.09,1.73-2.17,2.59-3.26c0.25-0.24,0.52-0.46,0.74-0.73c2.17-2.62,4.63-4.97,7.22-7.16
				c9.76-8.22,20.95-13.34,33.56-15.22c15-2.23,29.2,0.29,42.56,7.49c2.38,1.28,4.61,2.8,6.89,4.25c1.85,1.47,3.69,2.94,5.54,4.41
				c1.43,1.4,2.92,2.75,4.29,4.21c7.59,8.07,13.02,17.41,15.93,28.11c4.83,17.73,2.91,34.73-5.8,50.94
				c-1.3,2.41-2.85,4.66-4.33,6.96c-1.38,1.74-2.76,3.47-4.15,5.21c-2.01,2.1-3.99,4.24-6.2,6.13
				c-15.35,13.08-33.06,18.51-53.08,16.22c-9.71-1.11-18.72-4.38-27.04-9.54C75.12,168.94,73.43,167.62,71.61,166.48z
				 M104.54,102.55c-0.41,0.45-0.37,0.81-0.02,1.17c0.83,0.84,1.65,1.68,2.48,2.51c0.2,0.2,0.45,0.33,0.74,0.32
				c1.42-0.03,2.87,0.12,4.25-0.22c4.41-1.08,8.8-2.24,13.21-3.36c0.52-0.13,0.77-0.34,0.73-0.92c-0.18-2.73-0.34-5.47-0.48-8.2
				c-0.03-0.66-0.37-0.89-0.96-0.98c-1.95-0.3-3.91-0.6-5.85-0.98c-0.88-0.17-1.51,0.05-2.17,0.61c-2.55,2.18-5.14,4.32-7.72,6.48
				C107.32,100.19,105.9,101.4,104.54,102.55z M115.92,143.44c2.14,1.41,4.07,2.68,6.01,3.96c0.4,0.27,0.8,0.15,1.19,0.03
				c1.49-0.48,2.96-1,4.46-1.43c0.71-0.21,0.9-0.57,0.84-1.28c-0.15-1.8-0.31-3.6-0.3-5.4c0.01-1.61-0.4-2.76-1.91-3.64
				c-1.6-0.94-2.98-2.25-4.47-3.39c-0.53-0.41-1.02-0.6-1.4,0.21c-1.52,3.23-3.04,6.45-4.59,9.67
				C115.43,142.79,115.56,143.22,115.92,143.44z M142.21,106.94c-0.25-0.26-0.57-0.25-0.88-0.24c-1.07,0.03-2.15,0.09-3.22,0.08
				c-0.7,0-0.97,0.27-1.03,0.97c-0.29,3.87-0.6,7.74-0.94,11.6c-0.07,0.83,0.09,1.04,0.94,0.79c3.49-1.04,6.99-2.02,10.49-3.01
				c1.4-0.4,1.6-0.95,0.71-2.15c-1.49-2-3.01-3.97-4.51-5.96C143.25,108.33,142.73,107.64,142.21,106.94z M102.42,101.58
				c0.47,0.63,1.04,0.4,1.65-0.11c3.68-3.11,7.37-6.21,11.05-9.3c0.18-0.15,0.47-0.28,0.43-0.54c-0.05-0.37-0.43-0.28-0.68-0.33
				c-3.01-0.51-6.02-1.01-9.03-1.52c-0.43-0.07-0.83-0.07-1.17,0.24c-2.17,1.94-4.33,3.88-6.5,5.82c-0.51,0.46-0.54,0.94-0.06,1.43
				C99.51,98.67,100.91,100.07,102.42,101.58z M91.6,113.46c-0.21,0.22-0.25,0.53-0.23,0.84c0.24,4.11,0.48,8.23,0.71,12.34
				c0.04,0.65,0.3,0.69,0.78,0.36c0.92-0.62,1.85-1.22,2.78-1.83c2.69-1.77,5.37-3.55,8.06-5.32c0.49-0.32,0.75-0.52,0.06-1.01
				c-2.69-1.94-5.34-3.95-7.99-5.96C94.41,111.87,92.63,112.08,91.6,113.46z M120.19,77.82c-0.73-0.54-1.29-0.5-1.78-0.06
				c-2.79,2.48-5.57,4.98-8.36,7.47c-0.5,0.44-0.45,0.66,0.21,0.87c2.68,0.82,5.35,1.68,8.03,2.53c0.5,0.16,0.92,0.12,1.34-0.24
				c1.28-1.11,2.58-2.2,3.9-3.27c0.53-0.43,0.67-0.88,0.47-1.54C123.28,81.2,121.28,79.7,120.19,77.82z M137.16,92.21
				c0.07-0.48,0.12-0.71,0.14-0.95c0.33-3.97,0.62-7.95,1-11.91c0.11-1.16-0.2-2.05-0.87-2.96c-0.55-0.74-0.96-0.69-1.59-0.16
				c-2.29,1.96-4.58,3.91-6.91,5.82c-0.73,0.59-0.76,1.07-0.24,1.82c1.3,1.88,3.12,3.23,4.7,4.82
				C134.56,89.85,135.8,90.94,137.16,92.21z M142.23,140.57c1.75-2.94,3.41-5.7,5.01-8.49c0.4-0.7,0.29-1.55,0.33-2.35
				c0.03-0.49-0.36-0.41-0.67-0.4c-3.46,0.2-6.92,0.41-10.38,0.59c-0.61,0.03-0.78,0.28-0.64,0.87c0.43,1.79,0.82,3.58,1.25,5.37
				c0.06,0.26,0.18,0.54,0.36,0.73c1.17,1.23,2.37,2.43,3.55,3.64C141.54,141.04,141.99,141.16,142.23,140.57z M107.44,121.65
				c0,0.01-0.01,0.01-0.01,0.02c-0.33-0.26-0.68-0.49-0.97-0.78c-0.68-0.7-1.33-0.69-2.09-0.11c-0.83,0.63-1.72,1.16-2.59,1.74
				c-2.55,1.68-5.1,3.34-7.64,5.03c-0.98,0.65-0.96,0.74,0.06,1.36c0.44,0.27,0.88,0.56,1.28,0.89c1.45,1.22,3.03,1.54,4.83,0.87
				c0.71-0.27,1.46-0.44,2.2-0.63c0.59-0.15,1.05-0.46,1.47-0.91c1.37-1.47,2.77-2.9,4.18-4.34c1.37-1.4,1.37-1.53-0.21-2.74
				C107.76,121.91,107.6,121.78,107.44,121.65z M96.03,111.62c0.51,0.4,0.79,0.64,1.09,0.87c2.32,1.75,4.64,3.51,6.96,5.26
				c0.22,0.17,0.48,0.28,0.7,0.44c0.52,0.39,0.99,0.33,1.52-0.03c1.92-1.29,3.86-2.58,5.81-3.82c0.8-0.51,0.55-0.9-0.04-1.3
				c-0.2-0.14-0.43-0.23-0.65-0.32c-2.24-0.91-4.49-1.83-6.74-2.73c-0.41-0.17-0.83-0.36-1.3-0.24
				C101.04,110.35,98.69,110.94,96.03,111.62z M86.57,87.24c-1.78-1.55-2.8-1.39-3.85,0.43c-0.17,0.3-0.4,0.57-0.56,0.87
				c-0.52,1.01-1.39,1.82-1.59,3c-0.34,2.01-0.7,4.02-1.05,6.03c-0.09,0.52-0.1,0.99,0.51,1.19c0.59,0.19,1.15,0.71,1.79,0.03
				c2.15-2.29,4.34-4.55,6.48-6.86c0.85-0.92,0.77-2.18-0.09-3.08C87.62,88.25,87.02,87.69,86.57,87.24z M83.75,65.28
				c0.09-0.2,0.24-0.41,0.28-0.64c0.35-1.94,0.7-3.89,1.02-5.84c0.12-0.74-0.39-0.83-0.92-0.66c-0.32,0.1-0.58,0.36-0.86,0.57
				c-2.96,2.24-5.84,4.57-8.89,6.67c-1.48,1.02-1.96,2.06-1.54,3.78c0.36,1.48,0.55,1.69,1.99,1.12c0.22-0.09,0.43-0.21,0.65-0.33
				c2.42-1.35,4.84-2.71,7.26-4.07C83.06,65.7,83.39,65.5,83.75,65.28z M106.46,138.45c-1.89-1.24-3.62-2.37-5.35-3.51
				c-0.38-0.25-0.74-0.37-1.11,0.03c-1.09,1.15-2.19,2.3-3.29,3.45c-0.33,0.35-0.53,0.75-0.2,1.21c1.6,2.25,3.21,4.51,4.82,6.76
				c0.27,0.37,0.55,0.36,0.82-0.03c1.49-2.16,2.98-4.32,4.5-6.47C107.11,139.22,106.99,138.74,106.46,138.45z M150.06,129.53
				c-0.45,1.1-1.44,1.96-1.57,3.23c-0.19,1.9-0.31,3.8-0.51,5.7c-0.08,0.78,0.16,0.9,0.86,0.67c1.94-0.66,3.89-1.27,5.83-1.89
				c0.48-0.15,0.89-0.37,1.12-0.85c0.64-1.34,1.29-2.69,1.94-4.02c0.22-0.44,0.22-0.79-0.31-1c-1.8-0.72-3.58-1.49-5.41-2.15
				C151.39,128.97,150.66,128.95,150.06,129.53z M113.07,142.87c-1.57-1.03-2.91-1.9-4.23-2.79c-0.49-0.33-0.84-0.2-1.14,0.24
				c-1.56,2.24-3.11,4.49-4.69,6.72c-0.5,0.7-0.28,1,0.47,1.24c2.02,0.62,4.03,1.26,6.02,1.96c0.78,0.27,1.13,0.02,1.44-0.66
				c0.76-1.67,1.54-3.33,2.37-4.97C113.74,143.79,113.72,143.16,113.07,142.87z M109.73,139.3c1.37,0.9,2.63,1.69,3.85,2.55
				c0.58,0.41,0.89,0.34,1.19-0.29c1.53-3.25,3.08-6.51,4.64-9.75c0.3-0.62,0.25-0.9-0.51-0.85c-1.38,0.09-2.77,0.16-4.15,0.24
				c-0.36,0.02-0.68,0.11-0.91,0.43c-1.43,2.04-2.87,4.07-4.3,6.11C109.09,138.4,109.07,138.97,109.73,139.3z M160.83,116.05
				c-1.63-1.37-1.89-1.35-2.81,0.14c-0.82,1.32-1.58,2.68-2.4,4c-0.33,0.53-0.24,0.97,0.09,1.43c1.23,1.71,2.46,3.43,3.68,5.15
				c0.43,0.61,0.76,0.62,1.1-0.08c1.08-2.24,2.18-4.48,3.27-6.72c0.24-0.49,0.21-0.9-0.21-1.3
				C162.55,117.73,161.56,116.76,160.83,116.05z M116.25,78.14c-0.25-0.04-0.35-0.08-0.44-0.06c-5.13,1.02-10.26,2.06-15.39,3.08
				c-0.36,0.07-0.62,0.27-0.87,0.53c-0.48,0.5-0.55,0.83,0.25,1.07c2.55,0.78,5.09,1.6,7.63,2.41c0.43,0.14,0.81,0.11,1.16-0.2
				C111.1,82.73,113.63,80.48,116.25,78.14z M91.24,102.06c-0.83,0.82-0.33,1.11,0.23,1.34c2.05,0.84,4.11,1.66,6.16,2.5
				c0.55,0.23,0.97,0.15,1.42-0.25c0.8-0.71,1.64-1.39,2.47-2.06c0.47-0.38,0.57-0.72,0.1-1.2c-1.51-1.52-3.01-3.06-4.51-4.59
				c-0.36-0.36-0.69-0.37-1.08-0.03C94.38,99.27,92.72,100.74,91.24,102.06z M79.31,152.29c0,0-0.01,0.01-0.01,0.01
				c0.08,0.06,0.16,0.14,0.24,0.19c0.53,0.33,0.91,1.14,1.76,0.47c1.26-0.99,1.57-1.61,1.14-2.64c-0.58-1.41-1.17-2.81-1.77-4.2
				c-0.16-0.38-0.3-0.79-0.7-1c-1.47-0.76-2.95-1.52-4.42-2.27c-0.59-0.3-0.93-0.12-1.18,0.51c-0.89,2.32-0.56,4.01,1.27,5.72
				C76.84,150.19,78.09,151.22,79.31,152.29z M109.22,69.76c-0.01-0.01-0.02-0.02-0.02-0.02c0.12-0.13,0.22-0.28,0.35-0.38
				c0.73-0.58,0.62-1.03-0.05-1.66c-0.88-0.83-1.74-1.11-2.89-0.66c-0.77,0.3-1.59,0.57-2.41,0.63c-3.07,0.24-4.8,1.87-5.32,4.86
				c-0.01,0.03-0.03,0.06-0.04,0.09c-0.29,0.59-0.1,0.8,0.54,0.79c1.84-0.02,3.67-0.01,5.51,0.01c0.56,0,1-0.17,1.39-0.58
				C107.24,71.8,108.23,70.78,109.22,69.76z M103.47,89.56c-0.39-0.31-0.75-0.29-1.08-0.35c-2.32-0.4-4.65-0.78-6.97-1.17
				c-1.85-0.31-2.44,0.04-3.19,1.79c-0.31,0.72-0.32,1.26,0.33,1.83c0.81,0.7,1.5,1.54,2.27,2.27c1.8,1.71,1.82,1.72,3.67,0.09
				C100.17,92.56,101.79,91.08,103.47,89.56z M136.78,121.6c0.07,0.08,0.12,0.19,0.2,0.22c3.4,1.39,6.81,2.76,10.21,4.15
				c0.66,0.27,0.75-0.07,0.8-0.61c0.16-2.04,0.35-4.08,0.54-6.11c0.11-1.22,0.12-1.22-1.03-0.89c-3.27,0.93-6.53,1.86-9.8,2.8
				C137.38,121.24,136.99,121.22,136.78,121.6z M90.75,126.45c0.05-0.08,0.12-0.14,0.12-0.19c-0.19-3.63-0.39-7.25-0.6-10.88
				c-0.06-1.02-0.58-0.37-0.84-0.15c-1.78,1.48-3.54,2.99-5.31,4.48c-1.19,1-1.24,1.4,0,2.38c1.19,0.94,2.47,1.78,3.75,2.58
				C88.82,125.27,89.64,126.1,90.75,126.45z M101.6,79.46c0.06,0.11,0.11,0.22,0.17,0.32c0.23-0.07,0.46-0.15,0.7-0.19
				c3.02-0.61,6.04-1.22,9.06-1.83c1.97-0.4,3.94-0.78,5.9-1.2c0.34-0.07,1.05-0.05,0.58-0.7c-0.52-0.72-1.1-1.35-2.19-1.32
				c-2.87,0.07-5.75,0.02-8.62,0.01c-0.42,0-0.85-0.03-1.17,0.3C104.55,76.39,103.07,77.93,101.6,79.46z M152.48,89.09
				c-0.28,0.56-0.46,1.18-0.06,1.81c0.79,1.26,1.62,2.5,2.4,3.77c0.29,0.46,0.64,0.58,1.14,0.45c1.64-0.43,3.29-0.85,4.93-1.26
				c0.55-0.14,0.7-0.38,0.34-0.86c-1.5-1.95-2.99-3.9-4.48-5.86c-0.25-0.32-0.54-0.46-0.89-0.24
				C154.75,87.61,153.65,88.33,152.48,89.09z M85.18,150.53c-0.59,0.49-0.62,1.12-0.49,1.81c0.21,1.1,0.76,2.07,1.19,3.09
				c0.14,0.33,0.44,0.41,0.77,0.44c1.76,0.16,3.52,0.31,5.27,0.47c0.49,0.05,0.72-0.12,0.68-0.63c-0.08-1.14-0.15-2.28-0.21-3.42
				c-0.03-0.5-0.27-0.85-0.7-1.07c-1.35-0.7-2.7-1.4-4.05-2.11c-0.49-0.26-0.9-0.2-1.29,0.25C86,149.78,85.58,150.14,85.18,150.53z
				 M167.28,91.9c0.31,0.23,0.59,0.15,0.85,0.09c0.84-0.21,1.68-0.41,2.52-0.64c1.27-0.35,1.43-0.75,0.68-1.81
				c-1.83-2.6-3.68-5.19-5.52-7.78c-0.34-0.48-0.62-0.99-1.4-0.53c-1.42,0.84-1.58,0.99-1.14,1.98c1.21,2.72,2.45,5.42,3.68,8.13
				C167.06,91.54,167.19,91.74,167.28,91.9z M132.22,107.59c-0.24,0.88-1.2,1.73-0.91,3c0.7,3.07,1.4,6.13,2.09,9.21
				c0.13,0.6,0.5,0.94,1.07,0.92c0.6-0.03,0.46-0.61,0.49-0.98c0.3-3.48,0.58-6.96,0.87-10.44c0.2-2.46,0.21-2.46-2.32-2.35
				C133.06,106.96,132.6,106.94,132.22,107.59z M147.39,127.3c-0.06-0.03-0.12-0.06-0.19-0.09c-3.56-1.45-7.13-2.89-10.69-4.34
				c-0.54-0.22-0.66,0.08-0.69,0.54c-0.12,1.56-0.23,3.11-0.38,4.66c-0.07,0.74,0.31,0.77,0.88,0.74c2.8-0.18,5.61-0.33,8.41-0.5
				c0.8-0.05,1.59-0.09,2.39-0.15c0.24-0.02,0.5-0.08,0.57-0.37C147.73,127.55,147.58,127.41,147.39,127.3z M108.41,137.38
				c1.25-1.75,2.49-3.49,3.73-5.24c0.13-0.19,0.4-0.37,0.24-0.63c-0.15-0.25-0.44-0.14-0.67-0.12c-2.63,0.15-5.25,0.32-7.88,0.44
				c-0.95,0.04-1.5,0.63-2.05,1.25c-0.36,0.4-0.25,0.77,0.17,1.04c1.79,1.18,3.59,2.35,5.38,3.53
				C107.81,137.97,108.16,137.87,108.41,137.38z M151.51,107.33c-0.17-0.03-0.3-0.52-0.65-0.34c-0.26,0.13-0.17,0.5-0.2,0.77
				c-0.14,1.59-0.19,3.19-0.44,4.76c-0.22,1.33,0.51,2.16,1.2,3.06c0.26,0.34,0.59,0.28,0.94,0.18c1.6-0.46,3.21-0.9,4.8-1.38
				c1-0.3,1.12-0.72,0.37-1.44C155.58,111.08,153.58,109.26,151.51,107.33z M116.82,125.61c0.7-1.41,1.86-2.54,2.67-3.91
				c0.37-0.63,0.31-1.05-0.22-1.53c-0.69-0.62-1.33-1.3-1.96-1.99c-0.44-0.48-0.81-0.56-1.29-0.05c-1.35,1.43-2.73,2.84-4.1,4.25
				c-0.44,0.45-0.38,0.84,0.11,1.21c0.99,0.76,1.96,1.53,2.94,2.3C115.66,126.42,116.25,126.17,116.82,125.61z M122.44,107.51
				c-0.03-0.08-0.06-0.16-0.09-0.24c-3.53,0.12-7.06,0.22-10.58,0.37c-0.64,0.03-1.28,0.29-1.92,0.46
				c-0.42,0.11-0.63,0.36-0.25,0.73c1.06,1.05,2.08,2.14,3.22,3.09c0.58,0.48,1.35,1.02,2.18,0.49
				C117.5,110.8,119.97,109.15,122.44,107.51z M57.14,90.8c-1.03-0.78-1.55-0.61-1.85,0.55c-0.31,1.2-0.61,2.41-0.92,3.61
				c-0.1,0.37-0.18,0.74-0.03,1.12c0.66,1.71,1.33,3.41,2,5.12c0.09,0.23,0.27,0.56,0.5,0.37c0.86-0.71,1.99-1.23,2.31-2.4
				c0.83-3.04-0.64-5.59-1.84-8.18C57.26,90.89,57.17,90.83,57.14,90.8z M135.8,74.77c-0.32-0.09-0.44-0.16-0.57-0.16
				c-3.16-0.15-6.13,0.93-9.19,1.43c-0.28,0.05-0.45,0.23-0.42,0.51c0.12,1.49-0.14,3.03,0.94,4.36c0.6,0.74,1.01,0.87,1.73,0.23
				c1.37-1.21,2.79-2.37,4.19-3.55C133.55,76.68,134.61,75.78,135.8,74.77z M114.1,151.55c0.17,0.13,0.23,0.22,0.32,0.25
				c2.24,0.73,4.49,1.45,6.73,2.18c0.38,0.12,0.75,0.09,1.12-0.01c1.44-0.38,2.88-0.76,4.33-1.14c0.22-0.06,0.54-0.05,0.6-0.32
				c0.06-0.28-0.25-0.39-0.44-0.52c-1.32-0.89-2.66-1.76-3.98-2.65c-0.45-0.3-0.9-0.3-1.39-0.14
				C119.02,149.97,116.65,150.73,114.1,151.55z M109.35,55.86c-0.33,0.23-0.23,0.65,0.12,1.02c0.49,0.52,0.62,1.66,1.74,1.21
				c1.92-0.78,3.82-1.61,5.74-2.42c0.42-0.18,0.57-0.48,0.48-0.91c-0.32-1.45-0.65-2.9-0.98-4.35c-0.12-0.52-0.38-0.63-0.79-0.25
				C113.6,52.01,111.55,53.87,109.35,55.86z M133.09,98.48c1.4-1.6,1.41-1.6,1.1-2.11c-0.82-1.35-1.81-2.43-3.56-2.48
				c-0.79-0.02-1.58-0.23-2.36-0.38c-0.61-0.12-0.85,0.04-0.69,0.7c0.54,2.29,1.07,4.59,1.58,6.89c0.18,0.84,0.53,0.9,1.09,0.32
				C131.32,100.3,132.4,99.18,133.09,98.48z M83.22,139.76c2.35,1.05,4.69,2.1,7.02,3.13c0.29,0.13,0.54,0.03,0.73-0.22
				c0.23-0.3,0.11-0.59-0.05-0.87c-1.06-1.9-2.13-3.8-3.18-5.71c-0.25-0.45-0.58-0.51-1.04-0.37c-0.96,0.29-1.94,0.52-2.89,0.84
				c-0.44,0.15-1.21,0.02-1.19,0.74C82.65,138.14,82.61,139.04,83.22,139.76z M62.26,81.31c0.09,0.02,0.22,0.07,0.35,0.1
				c2.53,0.43,5.05,0.84,7.58,1.27c0.61,0.11,0.82-0.16,0.8-0.74c-0.05-1.52-0.1-3.05-0.12-4.57c-0.01-0.73-0.32-0.81-0.92-0.55
				c-1.43,0.62-2.87,1.22-4.3,1.83c-1.02,0.43-2.05,0.84-3.05,1.31C61.94,80.27,61.78,80.94,62.26,81.31z M106.37,86.96
				c0.85-0.72,0.25-0.81-0.18-0.95c-2.44-0.78-4.89-1.54-7.33-2.33c-0.59-0.19-1.06-0.16-1.49,0.32c-0.6,0.67-1.24,1.31-1.86,1.96
				c-0.18,0.19-0.54,0.32-0.45,0.64c0.1,0.38,0.5,0.31,0.79,0.35c2.32,0.39,4.68,0.66,6.96,1.2
				C104.45,88.54,105.57,88.07,106.37,86.96z M69.14,107.02c1.37-1.82,1.36-1.82,0.08-3.61c-0.76-1.07-1.52-2.14-2.29-3.21
				c-0.65-0.9-0.72-0.89-1.29,0.1c-0.07,0.12-0.1,0.27-0.19,0.37c-1.58,1.88-1.61,3.83-0.28,5.85c0.32,0.49,0.27,1.36,1.11,1.31
				C67.29,107.76,68.5,108.22,69.14,107.02z M153.14,144.44c0.05,0.07,0.11,0.14,0.16,0.2c1.24-0.6,2.44-1.3,3.72-1.78
				c2.89-1.09,3.8-3.87,5.34-6.11c0.12-0.17,0.25-0.49,0.03-0.66c-0.12-0.09-0.4-0.01-0.58,0.05c-1.32,0.42-2.65,0.81-3.95,1.29
				c-0.84,0.31-1.65,0.73-2.08,1.61C154.91,140.84,154.02,142.64,153.14,144.44z M62.58,86.58c0.49,0.38,0.93,0.82,1.65,0.67
				c2.03-0.42,4.06-0.82,6.1-1.21c0.53-0.1,0.79-0.37,0.75-0.92c-0.04-0.51,0.05-1.09-0.67-1.22c-2.62-0.45-5.24-0.89-7.87-1.32
				c-0.28-0.05-0.53-0.03-0.7,0.29C61.27,83.94,61.63,85.84,62.58,86.58z M115.04,117.49c0.69-0.81,0.45-1.5-0.85-2.41
				c-0.36-0.25-0.68-0.3-1.05-0.06c-1.99,1.31-3.98,2.62-5.97,3.93c-0.55,0.36-0.44,0.69,0.02,1.04c0.77,0.58,1.55,1.17,2.28,1.79
				c0.56,0.48,1.01,0.47,1.51-0.07C112.31,120.31,113.66,118.93,115.04,117.49z M67.49,123.33c-0.37,0.34-0.43,0.76-0.32,1.23
				c0.45,1.92,0.91,3.83,1.34,5.75c0.13,0.58,0.35,0.69,0.82,0.29c0.84-0.72,1.68-1.43,2.53-2.14c0.27-0.22,0.32-0.51,0.35-0.83
				c0.15-2.27-1.19-4.06-1.94-6.04c-0.15-0.4-0.51-0.3-0.77-0.07C68.82,122.12,68.16,122.73,67.49,123.33z M128.51,123.88
				c-0.04,0.16-0.1,0.3-0.1,0.43c0.06,1.14,0.06,2.29,0.23,3.41c0.13,0.85,1.12,1.46,2.01,1.41c0.86-0.05,1.73-0.12,2.59-0.14
				c0.76-0.01,1.07-0.24,0.85-1.07c-0.39-1.51-0.72-3.03-1.04-4.55c-0.13-0.61-0.38-0.82-1-0.62c-0.95,0.31-1.93,0.55-2.89,0.84
				C128.94,123.66,128.73,123.78,128.51,123.88z M76.55,95.11c2.07-2.65,3.5-5.39,3.75-8.66c0.06-0.84-0.21-1.12-0.94-1.02
				c-1.06,0.15-2.11,0.38-3.17,0.6c-0.5,0.1-0.81,0.45-0.74,0.97C75.8,89.67,76.17,92.33,76.55,95.11z M95.63,81
				c1.6-0.51,3.11-0.25,4.14-1.25c1.44-1.39,2.76-2.91,4.12-4.38c0.16-0.17,0.4-0.35,0.3-0.62c-0.11-0.3-0.41-0.19-0.64-0.19
				c-1.56-0.01-3.12-0.01-4.68-0.01c-0.4,0-0.77,0.03-0.94,0.47C97.2,76.92,96.47,78.81,95.63,81z M110.3,160.92
				c-0.79-0.41-1.49-0.8-2.21-1.14c-0.47-0.23-0.77,0.01-0.97,0.46c-0.58,1.26-1.17,2.5-1.78,3.74c-0.3,0.61-0.14,0.93,0.48,1.19
				c1.3,0.53,2.66,0.34,4,0.46c0.98,0.09,1.72-0.45,2.5-0.86c0.29-0.15,0.39-0.42,0.2-0.7C111.78,162.99,111.02,161.93,110.3,160.92
				z M139.82,55.31c-0.09-0.05-0.18-0.11-0.27-0.16c-2.35-1.39-4.69-2.79-7.04-4.17c-0.2-0.12-0.45-0.19-0.68-0.22
				c-0.28-0.03-0.56,0.06-0.75,0.28c-0.24,0.3,0.03,0.53,0.18,0.73c1.46,1.93,2.93,3.85,4.41,5.76c0.22,0.29,0.47,0.51,0.88,0.4
				c0.97-0.26,1.95-0.48,2.9-0.81C140.26,56.84,140.43,55.82,139.82,55.31z M120.9,148.1c-1.98-1.3-3.76-2.47-5.54-3.64
				c-0.56-0.37-0.75,0.08-0.93,0.44c-0.83,1.71-1.65,3.43-2.46,5.16c-0.11,0.23-0.34,0.52-0.12,0.77c0.22,0.25,0.52,0.07,0.78-0.01
				c1.95-0.63,3.89-1.26,5.84-1.89C119.21,148.69,119.95,148.43,120.9,148.1z M126.24,107.49c-0.32,0.26-0.45,0.36-0.57,0.48
				c-1.82,1.89-3.63,3.8-5.46,5.67c-0.88,0.9-0.89,1.05,0.29,1.51c3.37,1.29,2.33,1.61,4.63-1.4c0.53-0.69,1.27-1.38,1.3-2.31
				C126.47,110.2,126.33,108.96,126.24,107.49z M152.53,106.35c0.12,0.56,0.46,0.82,0.75,1.09c1.52,1.42,3.05,2.82,4.57,4.24
				c0.94,0.87,0.94,0.87,1.64-0.23c1.53-2.39,1.48-2.84-0.43-4.9c-0.2-0.22-0.42-0.37-0.71-0.36
				C156.43,106.23,154.51,106.29,152.53,106.35z M73.85,62.56c-0.05-0.04-0.11-0.08-0.16-0.13c-0.43,0.54-0.88,1.07-1.29,1.63
				c-0.24,0.34-0.26,0.77,0.03,1.06c0.31,0.31,0.55-0.07,0.79-0.24c0.72-0.53,1.44-1.08,2.16-1.62c2.21-1.67,4.41-3.34,6.61-5.02
				c0.28-0.21,0.82-0.53,0.16-0.78c-1-0.38-2.06-0.58-3.11-0.82c-0.39-0.09-0.64,0.2-0.86,0.48C76.73,58.93,75.29,60.74,73.85,62.56
				z M162.64,92.98c0.65,0.58,1.29,0.01,1.93-0.07c0.71-0.09,0.86-0.43,0.44-1.06c-1.58-2.32-3.15-4.65-4.72-6.97
				c-0.17-0.26-0.37-0.61-0.73-0.4c-0.66,0.38-1.28,0.82-1.89,1.28c-0.27,0.21-0.14,0.51,0.04,0.74
				C159.35,88.65,160.98,90.8,162.64,92.98z M125.9,71.07c-0.72,0.61-0.63,1.29-0.46,1.92c0.19,0.72,0.86,0.42,1.33,0.43
				c1.9,0.04,3.8,0.01,5.7,0.03c0.6,0.01,1.16-0.12,1.74-0.22c0.6-0.1,0.67-0.32,0.33-0.82c-0.58-0.86-1.21-1.56-2.31-1.75
				c-0.88-0.15-1.79-0.34-2.6-0.7C127.95,69.22,126.79,69.89,125.9,71.07z M130.88,137.75c0.76,0.6,1.3,1.04,1.84,1.47
				c0.4,0.32,0.62,0.22,0.66-0.29c0.1-1.24,0.2-2.49,0.29-3.73c0.02-0.28-0.05-0.56-0.26-0.77c-1.24-1.26-2.48-2.51-3.72-3.76
				c-0.18-0.18-0.39-0.31-0.65-0.21c-0.34,0.13-0.28,0.44-0.27,0.71c0.04,0.9,0.16,1.8,0.13,2.7
				C128.84,135.67,129.28,137.16,130.88,137.75z M170.41,119.13c0.46,0.36,0.63,0.13,0.76-0.21c0.96-2.48,1.92-4.96,2.88-7.44
				c0.25-0.65-0.06-0.73-0.6-0.57c-1,0.29-1.98,0.62-2.99,0.85c-0.85,0.2-1.33,0.65-1.43,1.53c-0.05,0.37-0.12,0.76-0.26,1.11
				C167.9,116.53,169.78,117.65,170.41,119.13z M163.73,106.64c-0.65,0.55-0.57,1.2-0.05,1.93c0.51,0.7,0.91,1.47,1.41,2.17
				c0.3,0.42,0.41,1.14,1.15,1.01c0.87-0.16,1.77-0.3,2.18-1.32c0.46-1.13,0.6-2.34,0.93-3.5c0.2-0.73-0.11-1.06-0.83-1.05
				c-1.28,0.03-2.56,0.07-3.84,0.11C164.27,106,163.94,106.14,163.73,106.64z M106.61,52.31c0.85-0.2,1.37-0.62,1.94-0.93
				c2.18-1.21,4.34-2.44,6.52-3.66c0.41-0.23,0.63-0.51,0.53-1.01c-0.1-0.52-0.46-0.6-0.91-0.65c-1.95-0.24-3.77,0.32-5.58,0.91
				c-0.4,0.13-0.61,0.43-0.75,0.8C107.79,49.23,107.23,50.68,106.61,52.31z M93.31,65.55c0.72-1.27,1.38-2.41,2.01-3.57
				c0.46-0.85,0.16-1.31-0.81-1.23c-0.29,0.02-0.59,0.18-0.86,0.33c-0.94,0.51-1.88,1.04-2.81,1.57c-2.96,1.68-2.29,0.87-2.22,4.05
				c0,0.07,0.01,0.14,0.01,0.21c-0.02,0.63,0.26,0.69,0.77,0.46c1.11-0.5,2.23-0.95,3.34-1.44C92.98,65.81,93.19,65.63,93.31,65.55z
				 M95.22,96.96c0.4-0.32,0.37-0.64-0.06-1.05c-0.97-0.93-1.91-1.9-2.84-2.87c-0.81-0.84-0.91-0.8-1.4,0.21
				c-1.14,2.34-0.37,4.76-0.33,7.14c0.01,0.56,0.42,0.36,0.65,0.15C92.56,99.37,93.86,98.19,95.22,96.96z M90.61,75.09
				c-0.44,0.74-0.75,1.24-1.04,1.75c-0.8,1.4-0.34,2.59,1.19,3.07c0.49,0.16,1,0.28,1.48,0.47c0.72,0.28,1.09,0.01,1.29-0.7
				c0.22-0.8,0.5-1.58,0.75-2.37c0.88-2.8,0.88-2.79-2.07-2.78C91.49,74.53,90.8,74.51,90.61,75.09z M125.31,54.33
				c-1.22,1.35-1.23,1.58-0.15,3.09c0.22,0.31,0.44,0.62,0.67,0.92c1.86,2.48,0.91,2.1,3.97,1.38c0.07-0.02,0.13-0.04,0.2-0.06
				c0.73-0.15,0.79-0.52,0.4-1.11c-0.87-1.33-1.71-2.67-2.57-4.01C126.7,52.78,126.7,52.78,125.31,54.33z M93.38,52.59
				c-0.43-0.47-0.86-0.59-1.23,0.06c-0.63,1.12-1.25,2.24-1.87,3.36c-0.28,0.52-0.2,0.83,0.46,0.91c1.92,0.26,3.84,0.56,5.76,0.84
				c0.48,0.07,0.94-0.01,1.2-0.43c0.33-0.53-0.16-0.85-0.46-1.14C95.98,54.98,94.67,53.79,93.38,52.59z M124.52,170.4
				c1.02-1.31,0.89-1.47-0.32-2.27c-2.34-1.55-4.96-0.87-7.46-1.12c-0.28-0.03-0.53,0.15-0.3,0.45c0.55,0.73,0.85,1.71,1.79,2.08
				c1.32,0.52,2.66,0.99,4.01,1.42C123.17,171.25,124,170.95,124.52,170.4z M149.23,105.31c-0.47-0.53-0.72-0.86-1.01-1.14
				c-1.2-1.15-2.47-2.23-3.61-3.44c-0.97-1.03-1.98-1.19-3.26-0.72c-0.69,0.25-0.71,0.52-0.34,1.03c0.91,1.27,1.81,2.54,2.72,3.8
				c0.25,0.35,0.57,0.6,1.04,0.58C146.15,105.39,147.53,105.35,149.23,105.31z M55.04,117.01c1.02-1.81,1.86-3.32,2.7-4.82
				c0.39-0.69,0.42-1.45,0.47-2.21c0.03-0.46-0.13-0.73-0.64-0.71c-1.38,0.05-2.77,0.09-4.15,0.13c-0.31,0.01-0.57,0.08-0.45,0.49
				C53.63,112.17,54.3,114.46,55.04,117.01z M157.41,98.56c0.86,1.93,1.97,3.37,4.25,3.89c2.78,0.64,2.73,0.81,4.17-1.66
				c0.39-0.66,0.31-0.98-0.5-1.1c-2.25-0.35-4.5-0.75-6.75-1.11C158.22,98.51,157.85,98.33,157.41,98.56z M153.9,78.24
				c-1.06,1.25-1.08,1.82-0.12,3.1c0.52,0.69,1.04,1.38,1.57,2.07c1.46,1.9,0.97,1.73,3.01,0.46c0.66-0.41,0.71-0.83,0.29-1.44
				c-0.92-1.34-1.82-2.69-2.73-4.04C154.97,76.98,154.97,76.98,153.9,78.24z M176.76,117.45c-0.26,0.41-0.48,0.85-0.79,1.21
				c-1.2,1.42-1.66,3.16-2.2,4.87c-0.19,0.62,0.07,1.1,0.49,1.48c0.43,0.39,0.76-0.07,1.09-0.26c0.71-0.42,1.4-0.89,2.1-1.33
				c0.36-0.23,0.63-0.52,0.75-0.95c0.49-1.75,0.32-3.4-0.63-4.97C177.29,117.05,177.06,116.97,176.76,117.45z M155.63,101.77
				c-1.23-0.52-2.51-0.91-3.81-1.25c-0.41-0.11-0.54,0.22-0.57,0.56c-0.1,1.13-0.19,2.27-0.29,3.4c-0.05,0.53,0.19,0.77,0.72,0.76
				c1.86-0.06,3.72-0.12,5.59-0.17c0.44-0.01,0.59-0.2,0.32-0.58C156.95,103.58,156.3,102.69,155.63,101.77z M150.5,126.65
				c0.84-1.45,1.71-2.95,2.58-4.44c0.17-0.29,0.21-0.59,0-0.88c-0.83-1.11-1.65-2.22-2.51-3.31c-0.3-0.37-0.73-0.42-0.79,0.19
				c-0.26,2.65-0.47,5.31-0.7,7.97c-0.04,0.42,0.23,0.62,0.58,0.76C150.01,127.07,150.27,126.99,150.5,126.65z M82.33,102.77
				c-1.6-1.25-1.62-1.25-2.97,0.31c-0.27,0.31-0.58,0.61-0.78,0.97c-0.57,0.99-0.68,2.11-0.2,3.09c0.36,0.72,1.27,0.18,1.92,0.29
				c1.55,0.26,2.29-0.51,2.75-1.93C83.61,103.81,83.71,103.84,82.33,102.77z M137.17,149.08c0.31-0.49,0.53-0.84,0.74-1.2
				c0.47-0.77,0.41-2.66-0.17-3.34c-0.72-0.84-1.46-0.03-2.19,0.08c-0.3,0.04-0.59,0.19-0.89,0.28c-0.4,0.13-0.64,0.38-0.68,0.82
				c-0.13,1.55-0.25,3.1-0.39,4.64c-0.04,0.5,0.15,0.62,0.6,0.47C135.38,150.44,136.3,149.66,137.17,149.08z M85.37,108.95
				c-0.38,1.21-0.88,2.65-1.24,4.11c-0.13,0.55,0.43,0.29,0.66,0.24c1.34-0.32,2.68-0.66,4.01-1.03c0.47-0.13,1.19-0.06,1.2-0.75
				c0.02-1.02,0.09-2.07-0.31-3.05c-0.04-0.1-0.31-0.16-0.47-0.15c-1.03,0.02-2.07,0.05-3.1,0.09
				C85.87,108.42,85.65,108.53,85.37,108.95z M100.55,147.27c-1.43-2-2.69-3.77-3.95-5.53c-1.31-1.83-1.31-1.83-2.86-0.23
				c-0.99,1.02-0.89,2.47,0.4,3.12C96.1,145.62,98.07,146.64,100.55,147.27z M153.55,152.18c0.05,0.08,0.1,0.16,0.15,0.25
				c1.6-0.53,3.2-1.05,4.8-1.59c0.36-0.12,0.54-0.4,0.67-0.74c0.53-1.4,0.73-2.88,1.09-4.32c0.06-0.24,0.05-0.59-0.3-0.5
				c-0.88,0.23-1.91,0.16-2.51,1.05C156.14,148.26,154.85,150.22,153.55,152.18z M143.92,89.13c-0.92,1.3-1.95,2.72-2.94,4.17
				c-0.18,0.26-0.54,0.57-0.33,0.92c0.24,0.4,0.73,0.31,1.13,0.34c0.36,0.03,0.64-0.21,0.93-0.4c1.07-0.7,2.14-1.4,3.2-2.1
				c2.16-1.43,1.99-0.98,0.58-3C145.3,87.33,145.29,87.34,143.92,89.13z M139.67,79.55c-0.09,0.02-0.17,0.05-0.26,0.07
				c-0.32,3.9-0.65,7.81-0.97,11.71c1.39-2.4,2.56-4.83,3.71-7.27c0.15-0.32,0.24-0.66,0.01-0.99
				C141.34,81.9,140.51,80.73,139.67,79.55z M127.17,166c0.71-1.21,1.28-2.16,1.82-3.12c0.16-0.29,0.46-0.61,0.14-0.94
				c-0.26-0.26-0.59-0.09-0.88,0.01c-2.37,0.77-4.74,1.54-7.11,2.33c-0.25,0.08-0.62,0.09-0.63,0.44c0,0.31,0.35,0.38,0.57,0.53
				c1.75,1.19,3.74,0.77,5.65,0.87C126.99,166.13,127.18,165.97,127.17,166z M141,151.97c-0.05,0.2-0.16,0.38-0.13,0.52
				c0.23,1.12,0.48,2.23,0.75,3.34c0.1,0.42,0.42,0.39,0.75,0.28c0.82-0.27,1.64-0.54,2.47-0.79c0.37-0.12,0.58-0.34,0.61-0.74
				c0.1-1.24,0.21-2.48,0.3-3.72c0.03-0.48-0.21-0.96-0.7-0.76C143.67,150.65,142.35,151.33,141,151.97z M97.04,54.45
				c1.68,1.47,1.68,1.47,2.6-0.24c0.07-0.12,0.12-0.25,0.18-0.37c0.99-1.8,0.97-1.89-0.38-3.41c-0.34-0.38-0.68-0.52-1.18-0.37
				c-1.16,0.35-2.32,0.69-3.49,0.99c-0.8,0.2-0.77,0.57-0.27,1.05C95.41,52.95,96.33,53.79,97.04,54.45z M154.01,140.03
				c-0.07-0.05-0.13-0.1-0.2-0.15c-1.58,1-3.08,2.15-4.75,2.96c-1.63,0.79-1.72,2.08-1.74,3.53c-0.01,0.5,0.25,0.9,0.74,0.74
				c1.24-0.42,2.66-0.75,3.36-1.9C152.43,143.57,153.16,141.76,154.01,140.03z M146.97,65.19c-1.25-1.85-2.33-3.52-3.5-5.13
				c-0.51-0.7-1.29-0.16-1.94-0.12c-0.57,0.04-0.55,0.53-0.59,0.94c-0.08,0.86-0.14,1.72-0.22,2.58c-0.05,0.47,0.05,0.82,0.59,0.9
				C143.12,64.62,144.92,64.89,146.97,65.19z M138.06,71.03c0.06-0.07,0.11-0.15,0.17-0.22c-1.29-2-2.57-4-3.86-5.99
				c-0.21-0.33-0.56-0.47-0.9-0.34c-0.76,0.29-1.37,0.86-1.77,1.53c-0.31,0.52,0.34,0.91,0.6,1.33c0.37,0.58,0.78,1.14,1.2,1.69
				c0.31,0.4,0.52,0.92,1.08,1.07C135.74,70.4,136.9,70.71,138.06,71.03z M49.09,115.39c-0.49,1.94-0.93,3.57-1.28,5.21
				c-0.1,0.45,0.05,0.96,0.1,1.44c0.04,0.43,0.28,0.61,0.72,0.5c1.17-0.3,2.35-0.59,3.52-0.91c0.47-0.13,0.77-0.49,0.48-0.94
				C51.53,118.99,50.38,117.31,49.09,115.39z M68.31,95.67c-0.77,1-0.96,1.74-0.37,2.67c0.94,1.49,1.74,3.07,2.61,4.6
				c0.14,0.25,0.22,0.68,0.62,0.59c0.45-0.1,0.37-0.54,0.36-0.86c-0.03-1.83-0.08-3.67-0.14-5.5c-0.03-0.72-2.35-1.93-2.99-1.58
				C68.28,95.65,68.19,95.77,68.31,95.67z M131.35,139.61c0,0-0.01,0.01-0.01,0.01c-0.38-0.3-0.74-0.63-1.14-0.9
				c-0.27-0.18-0.51-0.62-0.87-0.41c-0.29,0.17-0.1,0.58-0.09,0.88c0.06,1.21,0.14,2.42,0.21,3.63c0.15,2.58,0.14,2.56,2.6,1.74
				c0.66-0.22,0.87-0.6,1-1.25c0.34-1.64,0.02-2.91-1.62-3.64C131.4,139.66,131.38,139.63,131.35,139.61z M118.78,47.36
				c-0.52,0.39-0.28,0.79-0.01,1.16c1,1.4,2.02,2.8,3.03,4.2c0.21,0.29,0.41,0.6,0.83,0.47c0.48-0.14,0.44-0.57,0.42-0.95
				c-0.09-1.55-0.18-3.1-0.28-4.65c-0.02-0.31-0.02-0.61-0.37-0.79C121.34,46.26,119.56,46.52,118.78,47.36z M129.91,51.9
				c-0.6-0.46-1.14,0.01-1.65,0.27c-0.62,0.33-0.1,0.73,0.09,1.02c1.08,1.73,2.18,3.44,3.29,5.15c0.41,0.63,2.42,0.64,2.84,0.03
				c0.14-0.2,0.07-0.4-0.06-0.57C132.93,55.86,131.44,53.91,129.91,51.9z M162.48,144.69c-0.64,1.71-1.29,3.34-1.87,5
				c-0.16,0.47,0.25,0.39,0.51,0.31c0.99-0.32,1.96-0.65,2.95-0.98c0.29-0.1,0.45-0.32,0.54-0.59c0.45-1.38,0.89-2.75,1.33-4.14
				c0.07-0.21,0.17-0.6-0.22-0.53C164.61,143.96,163.5,144.2,162.48,144.69z M98.55,134.87c0.24-0.4,0.84-0.74,0.41-1.25
				c-0.43-0.5-0.93-1.09-1.74-0.88c-1.33,0.35-2.65,0.76-3.99,1.12c-0.52,0.14-0.6,0.38-0.29,0.8c0.67,0.92,1.35,1.84,2,2.77
				c0.32,0.45,0.63,0.48,1.01,0.09C96.82,136.63,97.69,135.75,98.55,134.87z M66.96,132.41c0.08-0.07,0.15-0.15,0.23-0.22
				c-0.74-1.89-1.48-3.79-2.23-5.68c-0.18-0.45-0.5-0.43-0.82-0.16c-0.99,0.86-1.98,1.73-2.95,2.62c-0.36,0.32-0.38,0.66,0.12,0.89
				C63.2,130.71,65.08,131.56,66.96,132.41z M132.8,161.43c-0.23,0.54,0.11,0.75,0.52,0.94c1.54,0.69,3.09,1.39,4.63,2.1
				c0.38,0.18,0.73,0.17,1.1,0.01c0.77-0.32,1.54-0.63,2.3-0.96c0.31-0.14,0.66-0.28,0.61-0.73c-0.04-0.4-0.3-0.6-0.67-0.7
				c-0.3-0.08-0.6-0.2-0.9-0.23c-2.27-0.22-4.55-0.43-6.82-0.63C133.29,161.22,133,161.15,132.8,161.43z M132.26,119.92
				c-0.66-2.9-1.26-5.5-1.92-8.39c-0.83,1.75-1.57,3.19-2.18,4.69c-0.29,0.7-0.59,1.64,0.33,2.12
				C129.6,118.92,130.82,119.33,132.26,119.92z M165,98.47c0.05-0.09,0.11-0.17,0.16-0.26c-0.8-1.07-1.6-2.14-2.42-3.2
				c-0.24-0.32-0.61-0.29-0.96-0.2c-1.68,0.42-3.35,0.85-5.03,1.28c-0.26,0.07-0.6,0.09-0.59,0.46c0.01,0.32,0.29,0.47,0.57,0.52
				C159.49,97.55,162.25,98.01,165,98.47z M135.11,156.23c0.43,0.28,0.87,0.56,1.3,0.85c0.8,0.57,3.26,0.34,3.93-0.37
				c0.19-0.21,0.18-0.44,0.13-0.68c-0.2-0.91-0.41-1.82-0.61-2.73c-0.08-0.37-0.27-0.6-0.65-0.41c-1.33,0.65-2.68,1.29-3.97,2.02
				C134.74,155.2,134.42,155.74,135.11,156.23z M123.97,173.66c-0.99,1.27-0.91,1.61,0.45,2.25c0.41,0.19,0.85,0.33,1.21,0.58
				c1.19,0.83,2.43,0.83,3.75,0.35c0.44-0.16,0.87-0.25,0.83-0.86c-0.03-0.55-0.1-1-0.74-1.21c-1.41-0.46-2.81-0.97-4.21-1.49
				C124.68,173.07,124.25,173.16,123.97,173.66z M107.03,87.94c-0.76,0.64-0.44,0.79,0.03,0.87c3.17,0.53,6.35,1.06,9.52,1.59
				c0.07,0.01,0.14,0.01,0.21,0.01c0.37,0,0.76-0.14,0.83-0.49c0.08-0.43-0.4-0.41-0.66-0.5c-2.24-0.73-4.52-1.34-6.71-2.17
				C108.79,86.71,107.71,86.85,107.03,87.94z M128.33,63.79c-0.9-0.45-1.82-0.39-2.69-0.57c-0.62-0.13-0.81,0.17-0.78,0.74
				c0.06,0.96,0.11,1.93,0.17,2.89c0.01,0.24,0,0.54,0.22,0.66c0.67,0.36,1.47,0.8,2.14,0.47c0.9-0.44,1.71-1.14,2.21-2.08
				c0.05-0.09-0.01-0.29-0.08-0.39C129.13,64.92,128.71,64.33,128.33,63.79z M118.09,60.23c0.31-0.32,0.42-0.67,0.32-1.08
				c-0.14-0.61-0.29-1.21-0.4-1.83c-0.11-0.63-0.41-0.7-0.95-0.46c-1.65,0.72-3.32,1.4-4.97,2.11c-0.27,0.11-0.67,0.16-0.63,0.58
				c0.04,0.45,0.45,0.47,0.79,0.52c1.51,0.23,3.02,0.44,4.52,0.68C117.36,60.85,117.8,60.7,118.09,60.23z M139.82,169.19
				c0.03-0.05,0.11-0.2,0.18-0.36c0.55-1.07,0.54-1.1-0.69-1.14c-1.21-0.04-2.43-0.03-3.63-0.12c-1.18-0.09-2.15,0.46-3.14,0.93
				c-0.62,0.3-0.57,0.96-0.47,1.47c0.11,0.54,0.64,0.26,0.97,0.23c1.87-0.13,3.73-0.3,5.59-0.46
				C139.06,169.71,139.48,169.67,139.82,169.19z M74.33,87.55c-2.05,1.53-2.56,3.01-1.81,5.95c0.35,1.36,1.82,1.78,3,2.46
				C75.13,93.21,74.74,90.45,74.33,87.55z M147.86,81.62c0.68-0.97,1.26-1.83,1.86-2.67c0.25-0.36,0.26-0.69-0.01-1.04
				c-0.51-0.65-1-1.32-1.51-1.97c-0.41-0.53-0.72-0.41-0.97,0.15c-0.35,0.75-0.65,1.54-1.08,2.23c-0.7,1.11-0.62,2.06,0.18,3.11
				C147.17,82.52,147.12,82.57,147.86,81.62z M82.86,122.75c-0.23-0.15-0.46-0.31-0.69-0.46c-0.2-0.12-0.41-0.38-0.64-0.19
				c-0.24,0.2-0.02,0.45,0.09,0.65c1.45,2.6,2.9,5.18,4.35,7.78c0.46,0.84,0.93,0.36,1.44,0.06c0.57-0.33,0.82-0.64,0.33-1.3
				c-1.32-1.77-2.58-3.59-3.87-5.39C83.57,123.5,83.3,123.05,82.86,122.75z M102.78,174.68c-0.8-0.77-1.63-0.86-2.22-0.35
				c-0.51,0.44-1.07,1.16-0.55,2c0.88,1.42,3.73,2.57,5.38,2.18c0.89-0.21,1-0.56,0.31-1.23
				C104.71,176.33,103.54,175.57,102.78,174.68z M153.75,123.4c-0.7,1.16-1.4,2.32-2.09,3.47c-0.4,0.67-0.11,1.01,0.59,0.98
				c1.63-0.06,3.25-0.17,4.88-0.25c0.46-0.02,0.56-0.21,0.28-0.58c-0.94-1.24-1.88-2.48-2.83-3.72
				C154.26,122.9,153.96,122.88,153.75,123.4z M115.49,73.42c-1.39-1.33-2.55-2.46-3.72-3.58c-0.36-0.35-0.77-0.35-1.1,0
				c-0.93,0.98-1.83,1.98-2.73,2.98c-0.31,0.35-0.22,0.57,0.25,0.57C110.53,73.41,112.87,73.41,115.49,73.42z M147.99,160.5
				c0.05,0.06,0.1,0.12,0.16,0.18c2.22-0.93,4.44-1.87,6.66-2.81c0.39-0.17,0.31-0.42,0.04-0.63c-0.87-0.68-1.75-1.36-2.64-2.03
				c-0.29-0.22-0.6-0.19-0.81,0.13C150.26,157.07,149.12,158.78,147.99,160.5z M105.98,128.82c0.21,0.04,0.31,0.09,0.39,0.07
				c2.32-0.65,4.65-1.31,6.97-1.97c0.63-0.18,0.47-0.45,0.09-0.75c-0.44-0.34-0.87-0.68-1.31-1.02c-1.56-1.2-1.54-1.59-2.91,0.15
				c-0.13,0.16-0.32,0.27-0.45,0.43C107.9,126.77,106.78,127.6,105.98,128.82z M60.48,109.66c-0.37,0.42-0.49,0.99-0.2,1.69
				c0.62,1.46,1.14,2.96,1.75,4.43c0.17,0.4,0.13,1.17,0.72,1.07c0.5-0.09,0.8-0.73,0.93-1.28c0.07-0.29,0.04-0.62-0.02-0.92
				c-0.35-1.58-0.73-3.16-1.1-4.74c-0.09-0.39-0.19-0.77-0.68-0.77C61.41,109.15,60.89,109.03,60.48,109.66z M76.04,99.63
				c-0.09-0.03-0.18-0.06-0.26-0.08c-1.02,1.75-2.1,3.47-2.9,5.33c-0.28,0.65-0.21,1.44,0.29,2.08c0.29,0.36,0.6,0.47,0.95,0.09
				c0.73-0.79,1.45-1.58,2.18-2.37c0.27-0.3,0.38-0.65,0.32-1.05C76.42,102.3,76.23,100.97,76.04,99.63z M99.85,151.52
				c-0.15,0.19-0.31,0.37-0.45,0.57c-0.83,1.13-0.69,1.43,0.51,2.15c1.11,0.66,2.01,0.02,2.95-0.28c2.17-0.69,2.29-0.28,0.75-2.39
				C102.51,150.07,100.96,150.06,99.85,151.52z M89.78,113.45c-0.04-0.07-0.07-0.13-0.11-0.2c-1.87,0.48-3.75,0.96-5.62,1.44
				c-0.36,0.09-0.6,0.3-0.71,0.67c-0.35,1.12-0.72,2.24-1.07,3.36c-0.07,0.22-0.2,0.5,0.06,0.66c0.27,0.17,0.45-0.08,0.63-0.23
				C85.23,117.26,87.5,115.36,89.78,113.45z M50.54,109.86c-0.16,0.73-0.78,1.6-0.41,2.4c1.01,2.2,2.19,4.31,3.31,6.46
				c0.08,0.15,0.19,0.31,0.4,0.26c0.2-0.05,0.24-0.23,0.28-0.4c0.09-0.35-0.02-0.69-0.12-1.02c-0.38-1.3-0.75-2.59-1.13-3.89
				c-0.35-1.2-0.7-2.39-1.05-3.59c-0.09-0.31-0.21-0.59-0.61-0.6C50.96,109.47,50.73,109.51,50.54,109.86z M150.49,61.55
				c-1.19-0.7-2.33-1.3-3.39-2c-0.62-0.41-1.2-0.4-1.87-0.26c-0.52,0.1-0.68,0.28-0.37,0.74c0.88,1.29,1.75,2.57,2.63,3.86
				c0.33,0.48,0.7,0.49,1.13,0.12c0.6-0.52,1.21-1.03,1.83-1.53C150.89,62.12,150.85,61.81,150.49,61.55z M129.75,146.65
				c-0.01,0.08-0.07,0.25-0.06,0.41c0.08,1.41,0.17,2.82,0.26,4.24c0.01,0.2,0.02,0.41,0.27,0.51c0.54,0.21,2.15-0.56,2.2-1.1
				c0.15-1.48,0.26-2.96,0.38-4.44c0.02-0.24,0.05-0.5-0.26-0.6C132.33,145.61,129.96,146.39,129.75,146.65z M110.71,159.19
				c0.09,0.59,0.36,0.85,0.75,1.05c1.26,0.65,2.5,1.31,3.76,1.95c0.33,0.17,0.69,0.43,1.07,0.21c1.18-0.67,2.35-1.35,3.66-2.38
				C116.69,159.73,113.73,159.46,110.71,159.19z M80.67,123.92c0.27,1.88,0.52,3.71,0.78,5.54c0.37,2.57,0.36,2.55,2.97,2.36
				c0.75-0.06,0.81-0.28,0.47-0.87c-1.21-2.13-2.39-4.27-3.6-6.4C81.17,124.33,81.13,124.01,80.67,123.92z M114.32,176.34
				c1.58,0.6,3.16,1.2,4.73,1.81c0.5,0.19,0.96,0.13,1.13-0.37c0.24-0.7,1.28-1.23,0.62-2.11c-0.55-0.74-1.47-1.31-2.3-1.19
				C116.99,174.69,115.67,175.55,114.32,176.34z M140.91,74.99c-0.47-0.48-1-0.5-1.06-0.06c-0.13,0.94-0.53,1.97,0.01,2.84
				c0.83,1.35,1.82,2.61,2.75,3.9c0.12,0.17,0.34,0.52,0.54,0.16c0.36-0.67,1.12-1.35,0.66-2.17
				C142.9,78.04,141.85,76.49,140.91,74.99z M121.81,130.8c1.85,1.47,3.55,2.83,5.25,4.17c0.18,0.14,0.36,0.4,0.62,0.26
				c0.26-0.14,0.15-0.43,0.14-0.66c-0.06-1.1-0.14-2.21-0.2-3.31c-0.03-0.48-0.18-0.79-0.74-0.75
				C125.23,130.61,123.58,130.7,121.81,130.8z M164.7,120.68c-0.79,1.62-1.59,3.23-2.37,4.85c-0.9,1.84-0.89,1.84,1.18,1.69
				c0.42-0.03,1.02,0.12,1.17-0.44c0.46-1.81,0.87-3.64,1.26-5.47c0.09-0.43-0.28-0.69-0.62-0.87
				C165.04,120.29,164.85,120.45,164.7,120.68z M94.99,158.33c-0.24,0.38-0.47,0.77-0.71,1.14c-0.29,0.44-0.38,0.93-0.09,1.37
				c0.3,0.45,0.8,0.33,1.24,0.22c1.51-0.39,3-0.83,4.52-1.17c0.94-0.21,0.81-0.62,0.4-1.21c-0.24-0.35-0.58-0.47-0.97-0.51
				c-1.1-0.1-2.21-0.19-3.31-0.3C95.61,157.83,95.23,157.92,94.99,158.33z M144.3,95.01c0.18,0.03,0.38,0.07,0.58,0.11
				c1.54,0.26,3.07,0.52,4.61,0.76c0.32,0.05,0.72,0.28,0.95-0.1c0.23-0.37,0.23-0.83-0.01-1.19c-0.53-0.81-1.12-1.58-1.69-2.36
				c-0.23-0.31-0.53-0.31-0.82-0.11c-1.19,0.78-2.37,1.56-3.55,2.34C144.16,94.6,143.93,94.74,144.3,95.01z M123.53,125.81
				c-0.45,0.95-0.93,2.02-1.46,3.07c-0.34,0.66-0.11,0.78,0.52,0.74c1.35-0.1,2.7-0.16,4.04-0.25c0.3-0.02,0.67,0.06,0.79-0.34
				c0.1-0.32-0.02-0.63-0.24-0.86c-0.84-0.87-1.69-1.73-2.55-2.59C124.26,125.2,123.9,125.25,123.53,125.81z M150.87,88.47
				c0.11-0.02,0.22-0.05,0.32-0.07c0.21-2.4,0.41-4.79,0.61-7.19c0.01-0.17-0.02-0.39-0.24-0.38c-0.15,0.01-0.31,0.13-0.42,0.25
				c-0.83,0.88-1.65,1.78-2.47,2.67c-0.21,0.23-0.48,0.5-0.28,0.82C149.21,85.88,150.04,87.17,150.87,88.47z M59.42,112.28
				c-0.08,0.02-0.17,0.05-0.25,0.07c-0.21,2.3-0.42,4.61-0.62,6.91c-0.03,0.34-0.08,0.77,0.5,0.63c0.71-0.17,1.41-0.34,2.1-0.57
				c0.56-0.18,0.73-0.65,0.53-1.17C60.95,116.19,60.18,114.24,59.42,112.28z M156.01,146.4c-1.27,0.07-2.24,0.56-3.28,0.72
				c-1.45,0.23-1.63,1.49-2.03,2.49c-0.32,0.8,0.61,1.12,1.03,1.63c0.43,0.52,0.79,0.44,1.14-0.09
				C153.87,149.63,154.88,148.11,156.01,146.4z M149.11,112.37c0.17-1.92,0.31-3.57,0.45-5.21c0.04-0.48-0.16-0.71-0.65-0.69
				c-1.04,0.04-2.07,0.06-3.11,0.09c-0.47,0.01-0.68,0.22-0.38,0.65C146.58,108.86,147.77,110.5,149.11,112.37z M149.7,104.05
				c0.29-0.69,0.24-1.28,0.28-1.85c0.19-2.54,0.6-2.09-1.99-2.94c-0.85-0.28-1.69-0.63-2.62-0.26c-0.42,0.17-0.63,0.32-0.22,0.71
				C146.64,101.12,148.13,102.55,149.7,104.05z M115.74,155.7c-1.78-0.8-3.28-1.48-4.78-2.15c-0.41-0.18-0.66,0.07-0.82,0.4
				c-0.38,0.78-0.78,1.54-1.1,2.34c-0.28,0.7,0.05,1.11,0.79,0.93C111.71,156.79,113.56,156.27,115.74,155.7z M131.15,92.72
				c0.05-0.06,0.09-0.12,0.14-0.19c-0.83-1.1-1.65-2.2-2.48-3.3c-0.82-1.08-1.65-2.16-2.6-3.41c-0.05,1.88,0.18,3.47,0.63,5.03
				c0.11,0.37,0.32,0.58,0.69,0.7C128.73,91.93,129.94,92.33,131.15,92.72z M123.96,148.4c-0.19,0.4,0.17,0.5,0.36,0.63
				c1.29,0.87,2.59,1.72,3.89,2.58c0.54,0.36,0.59,0.02,0.57-0.39c-0.06-1.21-0.14-2.42-0.21-3.63c-0.03-0.54-0.31-0.62-0.77-0.47
				c-1.15,0.38-2.31,0.74-3.46,1.11C124.21,148.27,124.09,148.34,123.96,148.4z M175.49,133.73c0.2-0.6,0.39-1.15,0.56-1.72
				c0.09-0.32-0.06-0.47-0.39-0.36c-1.54,0.5-3.11,0.95-4.62,1.54c-0.73,0.28-0.81,1.13-0.79,1.78c0.01,0.56,0.72,0.76,1.13,0.65
				C172.84,135.23,174.12,134.39,175.49,133.73z M148.86,69.98c0.04-0.07,0.1-0.19,0.17-0.31c0.72-1.19-0.38-1.82-0.82-2.63
				c-0.3-0.55-0.74-0.54-1.2-0.15c-0.66,0.56-1.31,1.12-1.98,1.67c-0.3,0.24-0.45,0.49-0.29,0.89
				C145.29,70.8,147.84,71.17,148.86,69.98z M111.92,157.9c0.02,0.08,0.04,0.16,0.06,0.24c1.55,0.14,3.09,0.28,4.64,0.42
				c1.52,0.14,3.03,0.28,4.55,0.41c0.26,0.02,0.63,0.1,0.71-0.24c0.09-0.38-0.32-0.38-0.55-0.49c-0.97-0.46-1.95-0.89-2.92-1.33
				c-0.44-0.2-0.88-0.45-1.38-0.32C115.31,157.01,113.62,157.46,111.92,157.9z M172.12,140.05c0.37-0.46,0.66-0.96,0.95-1.47
				c0.33-0.6,0.13-0.86-0.42-1.1c-1.05-0.47-2.7-0.11-3.47,0.78c-0.68,0.8-0.47,2.03,0.47,2.83c0.49,0.41,1.47,0.15,2.07-0.56
				C171.87,140.38,171.99,140.22,172.12,140.05z M56.51,105.1c-0.62-0.44-1.12-0.61-1.67-0.08c-0.69,0.67-1.44,1.29-2.16,1.93
				c-0.26,0.23-0.38,0.49-0.27,0.83c0.11,0.37,0.4,0.46,0.73,0.46c1.31-0.03,2.62-0.07,3.94-0.11c0.3-0.01,0.62-0.1,0.5-0.47
				C57.28,106.75,56.98,105.82,56.51,105.1z M174.99,112.24c-1.11,2.89-2.13,5.57-3.16,8.25c-0.05,0.13-0.08,0.27-0.07,0.4
				c0.02,0.36,0.14,0.73,0.49,0.85c0.4,0.13,0.48-0.29,0.64-0.54c1.48-2.21,1.85-4.83,2.71-7.27
				C175.8,113.36,175.5,112.87,174.99,112.24z M66.61,89.52c0.56,0.44,0.96,0.77,1.37,1.09c0.26,0.2,0.57,0.35,0.86,0.15
				c1.01-0.69,1.91-1.5,2.25-2.73c0.18-0.65-0.06-1-0.82-0.83c-1.04,0.23-2.1,0.4-3.14,0.64c-0.59,0.14-1.56-0.01-1.67,0.51
				C65.32,88.98,66.33,89.17,66.61,89.52z M121.22,73.34c0.13-0.06,0.27-0.12,0.4-0.18c-0.41-1.76-0.82-3.53-1.24-5.29
				c-0.05-0.21-0.21-0.36-0.42-0.42c-1.08-0.3-2.17-0.59-3.25-0.88c-0.06,0.08-0.11,0.15-0.17,0.23
				C118.1,68.98,119.66,71.16,121.22,73.34z M59.94,153.33c0.9,0.29,1.86,0.45,2.8,0.24c0.69-0.15,1.14-2.02,0.6-2.26
				c-1.01-0.44-2.05-0.84-3.12-1.11c-0.8-0.2-1.86,0.83-1.53,1.38C59.04,152.19,59.5,152.72,59.94,153.33z M96.05,166.35
				c-0.03,0.08-0.06,0.17-0.09,0.25c0.9,0.8,2.02,1.26,3.03,1.9c2.27,1.45,2.5,1.36,3.48-1.15c0.01-0.03,0.03-0.06,0.05-0.09
				c0.21-0.48,0.05-0.72-0.48-0.73C100.04,166.48,98.05,166.41,96.05,166.35z M121.08,88.67c-0.66,0.52-0.38,0.73,0.06,0.87
				c1.08,0.35,2.18,0.68,3.26,1.05c0.69,0.24,0.85-0.06,0.84-0.69c-0.03-1.15-0.33-2.26-0.58-3.37c-0.13-0.59-0.42-0.54-0.8-0.23
				C122.89,87.12,121.92,87.95,121.08,88.67z M118.09,73.18c0.49,0.28,1.06,0.44,1.4,0.12c0.32-0.3-0.2-0.65-0.4-0.93
				c-1.32-1.87-2.65-3.73-3.98-5.58c-0.29-0.4-0.59-0.87-1.16-0.41c-0.47,0.38-0.4,0.81-0.04,1.27c0.85,1.09,1.68,2.2,2.51,3.31
				C116.98,71.7,117.54,72.45,118.09,73.18z M161.24,154.65c0,0-0.01-0.01-0.01-0.01c0.79-1.09,1.58-2.17,2.37-3.26
				c0.16-0.23,0.33-0.51,0.19-0.76c-0.19-0.34-0.49-0.1-0.74-0.03c-2.91,0.78-2.91,0.79-3.57,3.69c-0.02,0.1-0.06,0.2-0.07,0.3
				c-0.02,0.43-0.48,1.02-0.05,1.23c0.49,0.25,1.03-0.21,1.43-0.59C160.96,155.05,161.09,154.84,161.24,154.65z M78.44,79.06
				c-0.51-0.45-0.73-0.42-1.11,0.23c-0.57,0.99-1.12,1.99-1.65,3c-0.19,0.37-0.71,0.8-0.24,1.16c0.41,0.32,1.04,0.41,1.55,0
				c0.51-0.41,1.01-0.84,1.5-1.28C80.18,80.65,80.17,80.6,78.44,79.06z M115.02,127.63c-3.3,0.94-6.45,1.84-9.6,2.74
				c2.29,0.08,4.53-0.04,6.77-0.18C113.68,130.11,114.52,129.38,115.02,127.63z M110.85,175c0.72,0.23,1.34,0.72,2.12,0.39
				c1.05-0.44,2.11-0.88,3.16-1.33c0.22-0.09,0.5-0.16,0.5-0.46c-0.01-0.29-0.28-0.37-0.5-0.46c-0.22-0.09-0.46-0.23-0.68-0.22
				c-1.66,0.11-3.32,0.25-4.97,0.38c-0.38,0.03-0.49,0.23-0.31,0.56C110.38,174.26,110.63,174.63,110.85,175z M120.57,59.35
				c-0.49,0.53-0.97,1.09-0.32,1.79c0.45,0.47,2.89,0.54,3.16,0.13c0.1-0.16,0.13-0.4,0.12-0.59c-0.05-1.03-0.11-2.07-0.18-3.1
				c-0.02-0.24,0.01-0.52-0.29-0.6c-0.27-0.07-0.43,0.15-0.6,0.33C121.83,57.98,121.2,58.66,120.57,59.35z M116.92,170.28
				c-2.14-0.73-4.46-1.52-6.78-2.29c-0.23-0.08-0.52,0.04-0.61,0.29c-0.13,0.35,0.17,0.47,0.42,0.59c1.77,0.86,3.54,1.7,5.3,2.58
				c0.46,0.23,0.93,0.25,1.41,0.17c0.31-0.05,0.79,0.11,0.89-0.31C117.65,170.95,117.26,170.72,116.92,170.28z M127.12,161.1
				c0-0.11,0.01-0.21,0.01-0.32c-1.35-0.16-2.68-0.71-4.08,0.02c-1.44,0.75-2.92,1.43-4.37,2.16c-0.26,0.13-0.76,0.21-0.64,0.55
				c0.14,0.43,0.64,0.33,1,0.21C121.74,162.86,124.43,161.98,127.12,161.1z M119.75,119.06c1.02,0.9,1.02,0.9,1.57,0.04
				c0.26-0.4,0.54-0.8,0.84-1.18c0.34-0.44,0.27-0.75-0.25-0.96c-0.96-0.39-1.92-0.78-2.88-1.17c-0.49-0.2-0.86-0.04-1.17,0.37
				c-0.32,0.43-0.16,0.78,0.14,1.11C118.65,117.95,119.31,118.61,119.75,119.06z M122.88,118.92c-0.21,0.26-0.37,0.44-0.51,0.64
				c-0.83,1.18-0.81,1.35,0.22,2.34c0.15,0.14,0.29,0.29,0.43,0.45c0.4,0.44,0.73,0.33,0.96-0.15c0.48-0.99,0.94-2,1.41-3
				c0.23-0.48,0.02-0.74-0.41-0.99C123.93,117.58,123.32,118.09,122.88,118.92z M123.8,108.25c-0.04-0.06-0.08-0.12-0.13-0.17
				c-2.39,1.58-4.78,3.16-7.17,4.75c-0.17,0.12-0.5,0.19-0.27,0.54c0.34,0.51,1.92,0.78,2.33,0.35
				C120.33,111.9,122.06,110.07,123.8,108.25z M93.36,70.79c-0.48,0.74-0.85,1.32-1.23,1.9c-0.31,0.47-0.18,0.7,0.38,0.7
				c0.79,0,1.58,0,2.37-0.01c0.43,0,0.71-0.21,0.83-0.63c0.24-0.79,0.51-1.57,0.75-2.36c0.07-0.22,0.15-0.62-0.19-0.54
				C95.22,70.07,94.08,70.12,93.36,70.79z M163.73,117.25c0.43,0.45,0.66,0.66,1.01,0.49c0.42-0.21,0.95-1.79,0.75-2.22
				c-0.75-1.68-1.32-1.94-3.09-1.44c-0.23,0.07-0.46,0.14-0.7,0.2c-0.56,0.15-0.7,0.37-0.22,0.82
				C162.32,115.87,163.13,116.67,163.73,117.25z M53.04,123c-0.34,0.6-0.68,1.2-1.02,1.8c-0.25,0.44-0.17,0.79,0.32,1
				c0.76,0.33,1.51,0.67,2.27,1.01c0.34,0.15,0.66,0.17,0.95-0.13c0.29-0.31,0.4-0.65,0.19-1.03c-0.51-0.9-1-1.81-1.54-2.69
				C53.83,122.36,53.41,122.35,53.04,123z M167.59,97.85c0.48-0.59,0.66-1.42-0.07-2.3c-0.31-0.37-0.54-0.8-0.82-1.2
				c-0.4-0.56-2.25-0.57-2.68-0.04c-0.17,0.22-0.04,0.39,0.08,0.56c0.84,1.1,1.68,2.2,2.52,3.29
				C166.92,98.56,167.19,98.44,167.59,97.85z M122.25,125.86c-0.06-0.08-0.12-0.16-0.18-0.24c-1.48,0.43-2.97,0.84-4.45,1.29
				c-0.48,0.15-0.46,0.49-0.11,0.77c0.75,0.61,1.52,1.2,2.29,1.78c0.38,0.28,0.65,0.11,0.83-0.26
				C121.17,128.09,121.71,126.98,122.25,125.86z M156.59,77.37c1.14,1.67,2.22,3.25,3.31,4.83c0.27,0.38,0.59,0.24,0.91,0.04
				c0.39-0.24,0.51-0.55,0.32-0.97c-0.28-0.63-0.56-1.26-0.85-1.89C159.58,77.83,158.66,77.29,156.59,77.37z M114.66,49.52
				c-0.04-0.06-0.08-0.12-0.12-0.17c-2.19,1.23-4.36,2.47-6.57,3.67c-0.66,0.36-0.87,0.67-0.36,1.34c0.46,0.6,0.83,0.9,1.46,0.21
				c0.39-0.43,0.88-0.78,1.31-1.17C111.82,52.1,113.24,50.81,114.66,49.52z M167.98,122.8c-0.95-0.79-0.98-0.78-1.25,0.38
				c-0.2,0.87-0.45,1.74-0.61,2.62c-0.07,0.39-0.53,0.98,0.09,1.17c0.59,0.18,1.35,0.26,1.87-0.23
				C169.23,125.65,169.16,123.79,167.98,122.8z M137.17,142.54c0.07-0.05,0.14-0.09,0.21-0.14c-0.39-1.67-0.78-3.34-1.19-5.01
				c-0.11-0.43-0.5-0.65-0.81-0.92c-0.42-0.36-0.61-0.18-0.65,0.29c-0.09,1-0.17,2-0.24,3c-0.03,0.36,0.06,0.69,0.36,0.93
				C135.62,141.31,136.39,141.92,137.17,142.54z M120.78,63.65c-0.02,0.14-0.05,0.24-0.06,0.34c-0.13,1.56,0.73,2.68,2.29,3.07
				c0.62,0.16,0.93,0.09,0.85-0.64c-0.07-0.69-0.05-1.38-0.14-2.06c-0.06-0.42,0.24-1.16-0.45-1.18
				C122.44,63.15,121.56,63.28,120.78,63.65z M168.66,80.44c0.26,0.96,3.68,7.57,4.23,8.22c0.6-0.56,0.61-1.17,0.23-1.87
				c-1.03-1.85-2.04-3.7-3.04-5.57C169.79,80.67,169.38,80.39,168.66,80.44z M63.72,101.43c0.49-0.87,0.93-1.69,1.4-2.49
				c0.51-0.87-0.04-1.48-0.58-1.98c-0.57-0.54-0.89,0.19-1.27,0.46c-0.3,0.22-0.54,0.53-0.85,0.75c-0.43,0.32-0.52,0.68-0.3,1.16
				c0.3,0.66,0.57,1.33,0.85,2C63.22,101.9,63.48,101.8,63.72,101.43z M173.82,128.32c-0.72-0.67-1.33-0.56-1.67,0.34
				c-0.31,0.81-0.53,1.65-0.8,2.47c-0.15,0.45-0.07,0.71,0.47,0.54c1.16-0.36,2.31-0.73,3.46-1.12c0.47-0.16,0.5-0.43,0.14-0.76
				C174.88,129.3,174.35,128.81,173.82,128.32z M173.67,93.49c-0.45,1.99-0.89,3.86-1.3,5.73c-0.07,0.34,0.16,0.5,0.47,0.55
				c0.36,0.06,0.71,0.06,0.9-0.32c0.27-0.52,0.53-1.05,0.78-1.58C175.37,96.1,175.22,95.22,173.67,93.49z M97.16,161.8
				c-0.01,0.08-0.03,0.17-0.04,0.25c2.03,0.72,4.06,1.44,6.39,2.27c-0.69-1.22-1.23-2.17-1.76-3.13c-0.23-0.41-0.58-0.45-0.98-0.34
				C99.57,161.17,98.37,161.49,97.16,161.8z M65.56,90.19c-0.01,0.01-0.02,0.02-0.03,0.03c-0.6-0.47-1.19-0.96-1.79-1.42
				c-0.23-0.18-0.52-0.22-0.79-0.08c-0.24,0.13-0.16,0.35-0.05,0.54c0.6,1.05,1.17,2.12,1.81,3.15c0.27,0.43,0.8,0.57,1.27,0.61
				c0.62,0.05,1.03-0.4,1.31-0.87c0.28-0.48-0.21-0.73-0.52-0.99C66.38,90.83,65.97,90.51,65.56,90.19z M87.49,94.73
				c-0.04-0.03-0.09-0.06-0.13-0.09c-1.43,1.49-2.87,2.99-4.3,4.49c-0.14,0.15-0.37,0.34-0.26,0.53c0.37,0.62,1.1,0.64,1.69,0.9
				c0.51,0.22,0.67-0.22,0.82-0.56C86.04,98.25,86.76,96.49,87.49,94.73z M144.28,78.19c0.38,0.36,0.58,0.21,0.72-0.09
				c0.46-0.97,0.91-1.94,1.36-2.91c0.2-0.43-0.01-0.57-0.41-0.58c-1.07-0.01-2.14-0.02-3.22-0.01c-0.32,0-0.6,0.13-0.37,0.5
				C143.01,76.18,143.68,77.22,144.28,78.19z M142.77,160.72c0.52,0.31,0.98,0.33,1.24-0.17c0.45-0.89,1.03-1.73,1.16-2.76
				c0.16-1.28,0.05-1.37-1.14-1c-0.46,0.15-0.93,0.29-1.38,0.45c-0.22,0.08-0.57,0.14-0.55,0.4
				C142.19,158.72,142.46,159.76,142.77,160.72z M74.61,81.34c0.09,0.01,0.17,0.02,0.26,0.03c0.61-1.1,1.23-2.2,1.84-3.31
				c0.17-0.3,0.11-0.6-0.12-0.86c-0.58-0.63-1.27-1.06-2.11-1.24c-0.35-0.07-0.59,0.01-0.54,0.38
				C74.14,78.01,74.38,79.67,74.61,81.34z M77.58,133.59c-0.65,0.88-0.27,1.71,0.11,2.54c0.21,0.46,0.51,0.52,0.9,0.26
				c0.69-0.45,1.38-0.9,2.06-1.37c0.57-0.39,0.29-0.94,0.21-1.42c-0.09-0.54-0.56-0.4-0.92-0.38c-0.55,0.02-1.1,0.06-1.65,0.09
				C78.02,133.33,77.74,133.33,77.58,133.59z M99.83,106.52c0.02,0.1,0.05,0.2,0.07,0.3c1.89-0.06,3.77-0.12,5.9-0.18
				c-0.88-0.89-1.59-1.55-2.23-2.27c-0.41-0.45-0.77-0.37-1.16-0.04C101.55,105.05,100.69,105.78,99.83,106.52z M134.97,101.91
				c-0.07,0.13-0.13,0.22-0.18,0.31c-0.32,0.65-0.64,1.3-0.95,1.96c-0.77,1.61-0.77,1.53,1.01,1.59c1.08,0.03,1.42-0.36,1.39-1.36
				c-0.02-0.65,0.12-1.31,0.14-1.97c0.01-0.34,0.28-0.85-0.25-0.98C135.7,101.35,135.25,101.54,134.97,101.91z M117.62,48.88
				c-0.1,0.05-0.2,0.1-0.3,0.15c0.32,1.4,0.64,2.81,0.96,4.21c0.42,1.84,0.51,1.88,2.17,0.95c0.03-0.02,0.06-0.03,0.09-0.05
				c0.39-0.19,0.51-0.47,0.25-0.83C119.73,51.83,118.67,50.36,117.62,48.88z M155.87,158.7c-2.28,0.96-4.27,1.79-6.25,2.62
				c1.42,0.33,2.79,0.45,4.16,0.58c0.52,0.05,0.88-0.15,1.08-0.62C155.17,160.52,155.46,159.75,155.87,158.7z M91.44,140.35
				c0.09-0.02,0.17-0.05,0.26-0.07c-0.08-1.32-0.14-2.65-0.23-3.97c-0.14-2.07,0.33-2.02-2.02-1.36c-0.07,0.02-0.13,0.04-0.2,0.06
				c-0.42,0.11-0.59,0.35-0.35,0.76C89.74,137.29,90.59,138.82,91.44,140.35z M174.01,101.54c-0.5,0.62-0.07,2.17,0.88,2.75
				c0.59,0.37,1.36,0.4,1.91-0.12c0.63-0.6,0.6-2.04,0.05-2.46C176.35,101.33,174.28,101.21,174.01,101.54z M137.79,101.12
				c-0.3,0.69-0.24,1.24-0.28,1.78c-0.24,2.93-0.23,2.94,2.71,2.68c0.07-0.01,0.14-0.01,0.21-0.01c0.45-0.02,0.57-0.2,0.29-0.58
				C139.77,103.74,138.82,102.49,137.79,101.12z M146.16,161.1c1.45-2.16,2.77-4.12,4.22-6.28c-1.11,0.23-2.15,0.26-2.62,0.93
				C146.73,157.24,145.9,158.88,146.16,161.1z M117.89,106.04c0.02,0.08,0.04,0.15,0.06,0.23c2.06-0.07,4.13-0.13,6.19-0.2
				c0.66-0.02,1.17-0.4,1.65-0.79c0.3-0.24,0.34-0.6,0.21-0.95c-0.14-0.36-0.45-0.25-0.71-0.19
				C122.82,104.77,120.35,105.4,117.89,106.04z M138.79,69.54c0.09-0.02,0.18-0.04,0.28-0.06c0.1-1.26,0.21-2.51,0.31-3.77
				c0.02-0.28-0.13-0.47-0.41-0.51c-1-0.16-2-0.31-3.29-0.5C136.84,66.5,137.81,68.02,138.79,69.54z M63.23,122.07
				c-1.29,2.33-2.43,4.38-3.57,6.43c1.47-1,2.75-2.14,4.02-3.29c0.4-0.36,0.51-0.79,0.29-1.31
				C63.74,123.4,63.55,122.89,63.23,122.07z M80.74,70.9c-0.04-0.13-0.08-0.25-0.12-0.38c-1.34,0.23-2.68,0.45-4.02,0.68
				c-0.78,0.13-1.57,0.24-2.25,0.7c-0.25,0.17-0.68,0.26-0.57,0.63c0.11,0.39,0.42,0.84,0.87,0.77
				C76.85,72.93,78.77,71.84,80.74,70.9z M143.59,140.55c0.06,0.06,0.11,0.13,0.17,0.19c0.85-0.27,1.69-0.54,2.54-0.82
				c0.25-0.08,0.42-0.27,0.44-0.53c0.14-1.52,0.28-3.04,0.41-4.56c-0.06-0.01-0.12-0.02-0.18-0.03
				C145.85,136.72,144.72,138.64,143.59,140.55z M153.12,82.39c-0.09,0.02-0.17,0.04-0.26,0.07c-0.13,1.5-0.25,3.01-0.38,4.51
				c-0.06,0.7,0.28,0.58,0.67,0.33c0.61-0.39,1.2-0.81,1.81-1.2c0.43-0.27,0.56-0.58,0.22-1.02
				C154.48,84.19,153.8,83.28,153.12,82.39z M133.34,171.37c-0.02,0.07-0.04,0.14-0.06,0.21c0.81,0.42,1.63,0.85,2.44,1.27
				c2.1,1.08,1.72,1.24,2.83-1c0.03-0.06,0.07-0.12,0.1-0.18c0.22-0.49,0.18-0.8-0.48-0.74
				C136.55,171.09,134.95,171.22,133.34,171.37z M164.04,140.73c-0.26,0.74-0.94,1.51-0.66,2.19c0.17,0.41,1.1-0.16,1.69-0.25
				c0.24-0.03,0.47-0.11,0.7-0.18c0.77-0.22,1.6-1.73,1.35-2.48c-0.1-0.31-0.3-0.62-0.67-0.48
				C165.61,139.85,164.8,140.24,164.04,140.73z M172.53,92.15c-0.42,0.2-0.63,0.59-0.85,0.96c-0.41,0.68-0.78,1.38-1.2,2.06
				c-0.9,1.46-0.9,1.57,0.13,2.91c0.14,0.18,0.23,0.5,0.51,0.44c0.28-0.05,0.27-0.37,0.32-0.59c0.38-1.61,0.76-3.23,1.13-4.84
				C172.64,92.8,172.83,92.51,172.53,92.15z M96.51,106.92c0.02-0.07,0.04-0.13,0.06-0.2c-1.4-0.57-2.79-1.14-4.19-1.71
				c-1.63-0.66-1.6-0.66-1.5,1.13c0.04,0.69,0.24,0.98,0.98,0.94C93.41,106.98,94.96,106.97,96.51,106.92z M63.08,96.02
				c0.39-0.26,0.42-0.6,0.16-0.97c-0.53-0.76-1.07-1.53-1.63-2.27c-0.31-0.41-0.64-0.34-0.7,0.15c-0.12,0.96-0.21,1.93-0.18,2.89
				c0.02,0.53,0.19,1.25,0.67,1.44c0.48,0.19,0.81-0.5,1.21-0.8C62.79,96.34,62.92,96.17,63.08,96.02z M102.37,155.49
				c1.42,0.74,2.68,1.4,3.96,2.04c0.29,0.15,0.62,0.12,0.84-0.17c0.19-0.25,0.18-0.52,0.01-0.77c-0.43-0.62-0.87-1.24-1.31-1.86
				c-0.15-0.2-0.34-0.37-0.61-0.29C104.34,154.73,103.4,154.92,102.37,155.49z M126.6,83.97c0.62,1.7,6.37,8.97,7.39,9.14
				C131.45,90.04,129.85,86.54,126.6,83.97z M81.88,166.16c0.53,1.41,0.62,2.99,1.82,4.02c0.38,0.33,0.83,0.87,1.42,0.24
				c0.53-0.57,0.58-1.18,0.04-1.76C84.21,167.67,83.07,166.91,81.88,166.16z M95.48,155.72c1.4-1.78,1.39-1.79-0.62-2.85
				c-0.24-0.13-0.5-0.24-0.74-0.37c-0.39-0.22-0.58-0.16-0.54,0.33c0.07,1,0.09,2,0.2,3c0.08,0.74,0.68,0.94,1.25,0.45
				C95.21,156.13,95.33,155.91,95.48,155.72z M73.21,110.06c-0.1,0.04-0.21,0.07-0.31,0.11c0.04,1.4,0.06,2.81,0.14,4.21
				c0.03,0.56,1.01,1.23,1.45,1.01c0.57-0.28,1.14-0.76,0.81-1.46C74.67,112.61,73.91,111.35,73.21,110.06z M92.75,60.24
				c-0.82-0.23-1.37-0.38-1.92-0.53c-2.68-0.71-2.88-0.54-2.49,2.23c0,0.03,0,0.07,0,0.1c0.02,0.41,0.2,0.58,0.6,0.36
				C90.12,61.73,91.31,61.05,92.75,60.24z M132.54,163.69c-0.05,0.57-0.1,1.23-0.17,1.88c-0.06,0.51,0.13,0.73,0.67,0.79
				c1.16,0.14,2.19-0.19,3.19-0.69c0.41-0.21,0.55-0.46,0.02-0.7c-1.03-0.47-2.07-0.94-3.11-1.4
				C132.96,163.49,132.74,163.35,132.54,163.69z M156.82,115.96c-0.06-0.07-0.11-0.14-0.17-0.22c-0.62,0.17-1.25,0.33-1.86,0.52
				c-2.61,0.8-2.74,0.23-0.85,2.87c0.02,0.03,0.05,0.05,0.07,0.08c0.3,0.41,0.61,0.44,0.89,0
				C155.54,118.13,156.17,117.04,156.82,115.96z M84.76,68.43c0.06,0.03,0.12,0.09,0.18,0.09c0.8-0.01,1.62-0.09,2.32-0.43
				c0.55-0.27,0.2-0.95,0.18-1.43c-0.02-0.6,0.25-1.5-0.29-1.73c-0.6-0.26-1.22,0.47-1.79,0.82C84.88,66.04,84.46,68.14,84.76,68.43
				z M146.59,85.87c-0.47,0.41-0.39,0.79-0.12,1.17c0.6,0.85,1.21,1.68,1.8,2.53c0.32,0.46,0.65,0.52,1.13,0.19
				c0.49-0.34,0.51-0.66,0.21-1.12c-0.57-0.86-1.16-1.72-1.66-2.63C147.47,85.16,147.03,85.38,146.59,85.87z M158.4,152.11
				c-1.43,0.47-2.53,0.83-3.65,1.19c-0.45,0.14-0.57,0.4-0.25,0.75c0.56,0.61,1.14,1.19,1.74,1.77c0.33,0.32,0.62,0.25,0.79-0.18
				C157.46,154.55,157.87,153.47,158.4,152.11z M88.38,148.21c1.1,0.57,2.2,1.13,3.3,1.7c0.16,0.08,0.32,0.14,0.47-0.01
				c0.31-0.31-0.03-2.19-0.46-2.34c-0.81-0.28-1.64-0.52-2.47-0.72c-0.54-0.13-0.8,0.3-1.05,0.68
				C87.96,147.82,88.12,148.03,88.38,148.21z M171.07,107.55c-0.28,0.59-0.7,1.45-1.12,2.32c-0.1,0.22-0.26,0.45-0.09,0.67
				c0.19,0.25,0.45,0.06,0.67,0.02c0.24-0.05,0.47-0.12,0.7-0.2c3-0.92,2.96-0.29,0.93-3.01c-0.04-0.06-0.08-0.11-0.12-0.17
				C171.72,106.83,171.45,106.88,171.07,107.55z M72.12,76.29c-0.04,0.12-0.09,0.19-0.09,0.25c0.04,2.04,0.06,4.09,0.16,6.12
				c0.03,0.53,0.64,0.42,1.02,0.49c0.31,0.05,0.46-0.12,0.42-0.43c-0.29-2.06-0.58-4.12-0.87-6.17c-0.03-0.17-0.11-0.35-0.31-0.37
				C72.34,76.18,72.21,76.26,72.12,76.29z M73.3,125.4c0.07,0.01,0.15,0.02,0.22,0.03c0.43-2.48,0.85-4.95,1.28-7.43
				c0.08-0.46-0.07-0.88-0.57-0.59c-0.53,0.31-1.13,0.67-1.1,1.49C73.21,121.06,73.25,123.23,73.3,125.4z M166.7,101.53
				c-0.3,0.51-0.58,1.02-0.89,1.52c-0.22,0.36-0.14,0.6,0.24,0.72c0.99,0.31,1.98,0.61,2.98,0.88c0.22,0.06,0.52,0.12,0.68-0.11
				c0.18-0.25-0.07-0.46-0.2-0.64c-0.6-0.81-1.24-1.58-1.82-2.4C167.31,100.97,167.02,100.96,166.7,101.53z M69.2,120.29
				c0.07-0.16,0.24-0.36,0.21-0.53c-0.09-0.48-0.06-1.1-0.8-1.11c-1.02-0.02-2.62,0.68-2.52,1.11c0.18,0.8,0.05,1.92,0.71,2.28
				c0.61,0.33,1.1-0.72,1.66-1.12C68.71,120.74,68.93,120.52,69.2,120.29z M79.92,126.85c-0.08,0-0.16-0.01-0.24-0.01
				c-0.4,1.24-0.8,2.48-1.2,3.72c-0.55,1.69-0.52,1.71,1.28,1.53c0.42-0.04,0.88-0.01,0.79-0.66
				C80.34,129.9,80.13,128.38,79.92,126.85z M105.47,63.97c-1.91-1.57-2.91-1.32-3.66,0.84c-0.23,0.65-0.18,0.91,0.59,0.75
				c0.92-0.19,1.84-0.32,2.76-0.49c0.33-0.06,0.83,0.02,0.94-0.31C106.24,64.34,105.64,64.25,105.47,63.97z M95.06,110.68
				c2.3-0.59,4.46-1.14,6.7-1.72C98.72,107.2,97.9,107.81,95.06,110.68z M157.25,135.99c0.07,0.07,0.13,0.13,0.2,0.2
				c0.92-0.59,1.86-1.17,2.77-1.78c0.53-0.36,1.58-0.67,1.44-1.14c-0.2-0.66-1.25-0.69-1.94-0.98c-0.37-0.15-0.66-0.03-0.85,0.36
				C158.35,133.77,157.79,134.88,157.25,135.99z M99.31,165.3c0.02-0.09,0.05-0.19,0.07-0.28c-1.51-0.74-3.02-1.48-4.54-2.21
				c-0.14-0.07-0.43-0.1-0.48-0.03c-0.38,0.53-0.07,1.13-0.09,1.69c-0.02,0.4,0.18,0.66,0.61,0.68
				C96.36,165.2,97.84,165.25,99.31,165.3z M112.99,171.92c0-0.1,0.01-0.2,0.01-0.29c-1.05-0.51-2.08-1.06-3.16-1.51
				c-0.63-0.26-1.35-1.14-1.88-0.59c-0.37,0.38,0.48,1.16,0.77,1.77c0.2,0.42,0.37,0.95,0.99,0.91
				C110.82,172.12,111.9,172.02,112.99,171.92z M77.27,56.3c-2.72,1.08-5.68,4.62-5.17,6.17C73.83,60.48,75.61,58.61,77.27,56.3z
				 M71.8,157.92c-0.31-0.25-0.56-0.43-0.79-0.63c-0.65-0.6-0.96-0.37-1.2,0.4c-0.43,1.4-0.46,1.39,0.93,1.93
				c0.55,0.21,1.1,0.41,1.64,0.63c0.57,0.23,0.71,0.01,0.71-0.56C73.1,158.7,72.3,158.39,71.8,157.92z M118.27,125.51
				c1.05-0.3,1.85-0.49,2.62-0.76c0.66-0.23,1.73-0.11,1.85-0.79c0.1-0.6-0.84-1.07-1.33-1.59c-0.42-0.44-0.74-0.4-1.07,0.09
				C119.71,123.39,119.07,124.32,118.27,125.51z M135.77,174.17c-0.87-0.45-1.84-0.99-2.84-1.45c-0.32-0.15-0.76-0.73-1.04-0.18
				c-0.26,0.51-0.41,1.24,0,1.78c0.6,0.78,3.18,1.01,3.99,0.44C136.16,174.56,136.17,174.41,135.77,174.17z M162.98,131.82
				c0.29,0.28,0.48,0.19,0.54-0.05c0.24-1.07,0.97-2.25,0.53-3.18c-0.3-0.63-1.59-0.04-2.44-0.09c-0.1-0.01-0.21,0.02-0.31,0.04
				c-0.32,0.08-0.4,0.29-0.23,0.54C161.72,130.03,162.38,130.96,162.98,131.82z M140.38,90.48c0.06,0.03,0.11,0.07,0.17,0.1
				c0.7-0.71,1.4-1.42,2.09-2.14c0.4-0.43,0.79-0.87,1.16-1.33c0.63-0.76,0.52-1.54-0.26-2.13c-0.33-0.25-0.5-0.12-0.64,0.18
				C142.06,86.93,141.22,88.71,140.38,90.48z M96.6,152.48c0.07-0.05,0.13-0.11,0.2-0.16c-0.69-1.22-1.34-2.47-2.09-3.66
				c-0.26-0.41-0.8-0.77-1.3-0.32c-0.37,0.33,0.1,2.53,0.54,2.77C94.82,151.58,95.72,152.02,96.6,152.48z M57.81,114.76
				c-0.06-0.01-0.12-0.03-0.18-0.04c-0.53,0.96-0.99,1.96-1.6,2.86c-0.54,0.8-0.43,1.55-0.14,2.35c0.11,0.3,0.2,0.61,0.62,0.57
				c0.41-0.04,0.76-0.18,0.81-0.65C57.49,118.16,57.65,116.46,57.81,114.76z M122.56,72.04c0.24,0.24,0.38,0.06,0.55-0.06
				c0.91-0.6,1.33-2.18,0.83-3.21c-0.14-0.3-1.89-0.95-2.14-0.78c-0.23,0.16-0.1,0.37-0.06,0.56c0.23,1.04,0.46,2.08,0.7,3.12
				C122.48,71.81,122.53,71.93,122.56,72.04z M80.42,55.17c0.02,0.08,0.04,0.16,0.05,0.24c1.15,0.17,2.31,0.35,3.46,0.51
				c1.32,0.18,1.86-0.3,1.91-1.6c0.02-0.47-0.12-0.66-0.59-0.53C83.64,54.24,82.03,54.71,80.42,55.17z M128.43,122.49
				c0.08,0,0.22,0.04,0.34,0.01c1.07-0.3,2.13-0.6,3.2-0.91c0.12-0.03,0.29-0.15,0.3-0.24c0.01-0.2-0.19-0.27-0.35-0.33
				c-1.03-0.42-2.06-0.82-3.09-1.23c-0.19-0.08-0.39-0.17-0.58,0.02C128.08,119.96,128.19,122.27,128.43,122.49z M91.34,171.98
				c0.08-0.04,0.15-0.08,0.23-0.13c-0.46-1.03-0.89-2.07-1.38-3.08c-0.21-0.45-0.63-0.71-1.11-0.87c-0.54-0.17-0.84,0.11-1.11,0.51
				c-0.3,0.44-0.14,0.77,0.23,1.07C89.24,170.31,90.29,171.15,91.34,171.98z M82.97,82.03c0.58,0.54,0.95,0.46,1.24-0.05
				c0.34-0.6,0.64-1.23,1-1.82c0.31-0.51,0.1-0.74-0.38-0.94c-0.85-0.34-1.77-0.05-2.19,0.8C82.23,80.84,82.4,81.57,82.97,82.03z
				 M140.76,66.16c-0.09,0.03-0.18,0.05-0.27,0.08c-0.12,1.55-0.23,3.1-0.37,4.91c0.87-0.73,1.51-1.29,2.17-1.82
				c0.36-0.29,0.43-0.58,0.14-0.97C141.87,67.63,141.32,66.89,140.76,66.16z M170.52,129.41c-2.16,0.66-3.17,1.76-3.35,3.64
				C169.57,132.77,170.39,131.87,170.52,129.41z M71.19,114.88c-0.44-0.26-0.89-0.52-1.33-0.79c-0.29-0.18-0.57-0.25-0.85,0.01
				c-0.24,0.23-0.36,0.51-0.24,0.84c0.16,0.45,0.35,0.9,0.53,1.34c0.17,0.43,0.36,0.89,0.94,0.71c0.56-0.17,1.33-0.01,1.59-0.73
				C72.06,115.66,71.69,115.22,71.19,114.88z M160.79,70.94c-0.29,0.38-0.71,0.73-0.36,1.27c0.4,0.62,0.7,1.31,1.67,1.29
				c1.43-0.03,1.5-0.08,0.87-1.31c-0.19-0.37-0.38-0.73-0.57-1.1C161.8,69.93,161.63,69.91,160.79,70.94z M144.07,143.52
				c0.46,0.8,1.04,0.57,1.75,0.12c0.86-0.54,0.69-1.35,0.72-2.11c0.02-0.42-0.31-0.37-0.6-0.27c-0.69,0.22-1.38,0.44-2.06,0.67
				c-0.97,0.32-1,0.49-0.27,1.19C143.74,143.24,143.88,143.35,144.07,143.52z M53.87,98.09c-0.09,0-0.19,0.01-0.28,0.01
				c-0.14,0.49-0.28,0.98-0.41,1.47c-0.42,1.58,0.08,2.48,1.67,3.05c0.19,0.07,0.39,0.19,0.57,0.01c0.14-0.15,0.08-0.33,0.02-0.49
				C54.91,100.78,54.39,99.44,53.87,98.09z M165.92,148.13c1.17-1.47,2.24-2.81,3.3-4.16c0.28-0.35,0.65-0.92-0.03-1.05
				c-0.66-0.13-1.54-0.03-1.84,0.8C166.84,145.13,166.42,146.58,165.92,148.13z M49.98,98.67c0.51-1.77,0.98-3.42,1.45-5.07
				c0.09-0.33,0.17-0.67,0.21-1.01c0.02-0.2-0.02-0.45-0.24-0.53c-0.26-0.08-0.31,0.19-0.44,0.34c-1.21,1.57-1.27,3.45-1.45,5.3
				C49.48,98,49.52,98.33,49.98,98.67z M86.24,124.98c-0.02,0.06-0.05,0.12-0.07,0.18c0.89,1.23,1.74,2.5,2.68,3.7
				c0.67,0.86,1.2-0.01,1.64-0.33c0.59-0.43-0.03-0.71-0.32-0.91C88.87,126.72,87.55,125.86,86.24,124.98z M121.4,56.81
				c-0.01-0.01-0.02-0.02-0.03-0.03c0.17-0.17,0.33-0.35,0.51-0.51c0.29-0.27,0.58-0.54,0.3-0.97c-0.27-0.41-0.65-0.3-1.02-0.15
				c-0.48,0.19-0.96,0.38-1.43,0.6c-0.3,0.14-0.76,0.21-0.71,0.64c0.08,0.68,0.15,1.39,0.5,1.99c0.13,0.22,0.36-0.04,0.5-0.17
				C120.49,57.75,120.94,57.28,121.4,56.81z M104.62,162.85c0.44-0.94,0.88-1.88,1.31-2.82c0.18-0.4,0-0.53-0.38-0.44
				c-0.81,0.2-1.61,0.42-2.41,0.63c-0.37,0.1-0.4,0.34-0.25,0.64c0.36,0.67,0.73,1.34,1.11,1.99
				C104.19,163.15,104.42,163.26,104.62,162.85z M65.59,135.27c-0.54,0.41-0.33,0.63,0.08,0.77c0.82,0.27,1.65,0.51,2.47,0.8
				c0.67,0.23,0.76-0.08,0.57-0.6c-0.28-0.76-0.26-1.82-1.08-2.14c-0.87-0.33-1.32,0.69-1.96,1.11
				C65.62,135.24,65.57,135.29,65.59,135.27z M115.53,64.74c-0.01,0.11-0.02,0.21-0.03,0.32c1.32,0.35,2.64,0.7,3.97,1.03
				c0.4,0.1,0.49-0.15,0.41-0.49c-0.09-0.44-0.2-0.88-0.29-1.32c-0.08-0.38-0.31-0.51-0.68-0.44
				C117.77,64.08,116.63,64.34,115.53,64.74z M166.1,78.29c-0.5-0.99-0.98-1.8-1.33-2.65c-0.37-0.92-1.01-1.1-1.89-1.01
				c-0.48,0.05-0.66,0.15-0.32,0.61c0.57,0.78,1.11,1.58,1.69,2.35C164.66,78.11,165.23,78.3,166.1,78.29z M149.34,71.67
				c-0.16,0.5-0.77,1.02-0.55,1.55c0.22,0.5,0.94,0.18,1.43,0.23c0.1,0.01,0.21,0.01,0.31,0c0.58-0.04,1.46,0.27,1.66-0.16
				c0.26-0.58-0.51-1.11-0.87-1.64C150.88,70.99,149.87,71.01,149.34,71.67z M66.8,74.8c-0.03-0.1-0.06-0.2-0.1-0.3
				c-0.75,0-1.51-0.02-2.26-0.01c-1.1,0.02-2.08,1.03-2.11,2.12c-0.01,0.41,0.08,0.65,0.51,0.41C64.17,76.3,65.48,75.55,66.8,74.8z
				 M138.74,53.3c0.03-0.05,0.06-0.1,0.09-0.15c-0.33-0.49-0.69-0.95-0.98-1.46c-0.82-1.4-2.33-1.49-3.64-1.94
				c-0.21-0.07-0.52,0.01-0.61,0.28c-0.1,0.31,0.2,0.41,0.4,0.52C135.57,51.47,137.16,52.38,138.74,53.3z M89.91,85.89
				c0.53,0.15,1.04,0.43,1.36-0.27c0.16-0.35,0.35-0.68,0.46-1.04c0.16-0.54,0.79-1.13,0.4-1.58c-0.33-0.38-1.03,0.08-1.57,0.16
				c-0.39,0.06-0.92,0.06-0.91,0.64C89.65,84.5,89.52,85.24,89.91,85.89z M74.78,124.9c0.05,0.01,0.09,0.03,0.14,0.04
				c0.33-0.79,0.66-1.58,0.99-2.37c0.41-0.99,0.83-1.98,1.23-2.97c0.24-0.61-0.13-0.9-0.64-1.08c-0.68-0.25-0.66,0.3-0.73,0.68
				C75.43,121.1,75.11,123,74.78,124.9z M108.77,60.85c0.72,0.95,1.34,1.78,1.98,2.6c0.43,0.56,1.01,0.52,1.61,0.37
				c0.3-0.07,0.38-0.21,0.26-0.53C112.05,61.74,110.76,60.87,108.77,60.85z M60.47,100.94c-0.09,0-0.18-0.01-0.27-0.01
				c-0.13,1.37-0.25,2.74-0.38,4.11c-0.06,0.64,0.03,1.33,0.8,1.29c0.67-0.04,0.91-0.7,0.77-1.35
				C61.1,103.62,60.78,102.28,60.47,100.94z M138.83,64c-0.89-2.56-1.95-2.97-3.47-1.47c-0.05,0.05-0.1,0.09-0.15,0.14
				c-0.32,0.38-0.34,0.71,0.23,0.81C136.55,63.67,137.66,63.82,138.83,64z M86.19,75.22c0.14-0.25,0.59-0.54-0.12-0.69
				c-2.03-0.43-2.77,0.11-2.92,2.15c0,0.03-0.01,0.07-0.01,0.1c-0.02,0.21-0.07,0.43,0.13,0.57c0.25,0.19,0.47,0.02,0.65-0.13
				C84.67,76.57,85.42,75.9,86.19,75.22z M160.98,111.16c-0.06,0.11-0.24,0.4-0.39,0.71c-0.23,0.48-0.95,0.97-0.58,1.43
				c0.39,0.49,1.09-0.05,1.62-0.2c1.85-0.52,2.04-0.19,0.61-2.15C161.82,110.37,161.48,110.46,160.98,111.16z M126.72,47.74
				c-0.44-0.32-0.93-0.36-1.4-0.45c-0.16-0.03-0.39-0.05-0.48,0.04c-0.18,0.18,0.01,0.39,0.11,0.55c0.45,0.73,0.92,1.46,1.4,2.17
				c0.22,0.33,0.46,0.8,0.96,0.44c0.45-0.33,0.87-0.77,0.45-1.39C127.44,48.63,127.06,48.18,126.72,47.74z M124.04,154.72
				c0.46,0.47,0.99,0.44,1.4,0.66c1.36,0.72,2.27-0.16,3.22-0.88c0.23-0.18,0.33-0.45,0.23-0.74c-0.08-0.25-0.3-0.26-0.51-0.21
				C126.96,153.93,125.54,154.31,124.04,154.72z M79.76,74.94c-0.71,0.97-0.61,1.27,0.54,1.65c0.26,0.09,0.52,0.18,0.79,0.25
				c0.33,0.09,0.75,0.24,0.84-0.25c0.12-0.65,0.57-1.33,0.13-1.97C81.82,74.27,80.03,74.57,79.76,74.94z M62.41,121.16
				c-1.47,1.4-2.68,2.73-3.56,4.32c-0.23,0.42-0.56,0.81-0.53,1.32c0.02,0.25,0.14,0.49,0.4,0.56c0.28,0.08,0.32-0.19,0.42-0.36
				C60.21,125.11,61.27,123.21,62.41,121.16z M78.9,111.11c0.28,0.2,0.44,0.05,0.6-0.09c0.29-0.25,0.6-0.47,0.85-0.76
				c0.41-0.47,1.39-0.78,1.08-1.46c-0.28-0.62-1.19-0.17-1.82-0.2c-0.37-0.02-0.96-0.18-1.01,0.42
				C78.56,109.74,78.68,110.47,78.9,111.11z M126.91,119.32c-0.08-0.01-0.17-0.03-0.25-0.04c-0.55,1.15-1.11,2.29-1.64,3.44
				c-0.09,0.2-0.32,0.44-0.15,0.67c0.22,0.28,0.51,0.07,0.76,0.01c1.52-0.37,1.52-0.37,1.42-1.93
				C127.02,120.75,126.96,120.04,126.91,119.32z M145.77,84.57c0.59-0.73-0.01-2.81-0.82-3.02c-0.26-0.07-0.36,0.12-0.48,0.29
				c-0.71,1.06-0.65,1.62,0.17,2.7C145.08,85.11,145.43,85.15,145.77,84.57z M75.49,130.38c0.62-1.63,1.22-3.19,1.89-4.96
				C74.57,127.44,74.13,128.6,75.49,130.38z M52.36,94.59c-0.26,0.91-0.49,1.68-0.72,2.47c-0.22,0.76-0.44,1.52-0.64,2.29
				c-0.11,0.42-0.01,0.8,0.43,0.91c0.45,0.11,0.45-0.33,0.52-0.61c0.3-1.1,0.58-2.2,0.87-3.3C52.98,95.74,52.83,95.22,52.36,94.59z
				 M72.66,101.14c0.95-0.9,1.3-1.87,1.9-2.67c0.25-0.33,0.1-0.6-0.24-0.75c-0.35-0.16-0.7-0.29-1.06-0.43
				c-0.51-0.2-0.72,0-0.7,0.51C72.6,98.84,72.63,99.87,72.66,101.14z M133.11,102.38c-1.24,0.13-2.17,0.81-2.99,1.55
				c-0.51,0.47-0.21,1.29,0.18,1.69c0.48,0.49,0.74-0.23,0.97-0.54C131.92,104.21,132.5,103.28,133.11,102.38z M130.97,130.3
				c0.84,0.87,1.52,1.59,2.21,2.3c0.05,0.05,0.09,0.11,0.14,0.15c0.3,0.29,0.48,0.31,0.6-0.18c0.53-2.19,0.31-2.48-1.91-2.37
				C131.74,130.22,131.47,130.26,130.97,130.3z M125.85,171.99c-0.02,0.08-0.03,0.17-0.05,0.25c1.09,0.39,2.19,0.78,3.28,1.16
				c0.28,0.1,0.65,0.39,0.85,0.1c0.29-0.41,0.11-0.93,0.03-1.4c-0.07-0.41-0.41-0.41-0.73-0.38
				C128.1,171.81,126.98,171.9,125.85,171.99z M104.93,172.06c0.52,0.51,1.4,0.49,2.31,0.35c0.46-0.07,0.56-0.26,0.39-0.71
				c-0.63-1.65-0.94-1.76-2.4-0.82c-0.17,0.11-0.35,0.22-0.52,0.34C104.38,171.45,104.3,171.68,104.93,172.06z M167.53,149.33
				c-1.51,0.17-3.37,2.89-3.18,4.63C165.72,152.57,166.76,151.09,167.53,149.33z M82.32,135.34c0.06,0.13,0.11,0.25,0.17,0.38
				c1.21-0.34,2.42-0.68,3.63-1.03c0.34-0.1,0.74-0.2,0.44-0.68c-0.23-0.38-0.35-1.11-0.99-0.77
				C84.45,133.87,83.4,134.64,82.32,135.34z M49.79,103.57c-0.39,1.37-0.75,2.55-1.06,3.75c-0.08,0.32-0.46,0.78,0.08,0.98
				c0.49,0.18,0.89-0.12,1.05-0.6C50.3,106.42,50.71,105.12,49.79,103.57z M76.4,124.41c0.05,0.05,0.1,0.11,0.15,0.16
				c0.48-0.43,1-0.83,1.44-1.29c0.59-0.62,0.82-1.43,1-2.24c0.08-0.38,0.03-0.84-0.39-0.98c-0.46-0.15-0.54,0.33-0.66,0.62
				C77.42,121.92,76.91,123.16,76.4,124.41z M71.88,132.22c0.32-0.58,0.49-1.17,0.4-1.82c-0.07-0.48-0.31-0.5-0.63-0.23
				c-0.75,0.62-1.49,1.24-2.23,1.87c-0.18,0.15-0.42,0.34-0.09,0.58C69.62,132.84,71.68,132.49,71.88,132.22z M164.83,131.36
				c1.83-0.9,2.17-1.24,2.53-2.5c0.06-0.2,0.27-0.44-0.05-0.63c-0.45-0.27-1.72,0.1-1.86,0.59
				C165.22,129.6,165.06,130.4,164.83,131.36z M147.82,142.33c1.69-1.08,3.25-2.07,4.82-3.07c-1.29,0.25-2.48,0.7-3.71,1.01
				C147.85,140.53,147.56,141.15,147.82,142.33z M53.72,103.3c-0.22-0.15-0.48-0.32-0.74-0.49c-0.28-0.19-0.56-0.2-0.66,0.16
				c-0.22,0.8-0.46,1.6-0.57,2.42c-0.07,0.48,0.24,0.62,0.64,0.27c0.52-0.45,1.05-0.9,1.56-1.37
				C54.39,103.88,54.23,103.56,53.72,103.3z M164.38,88.88c0.05-0.03,0.1-0.06,0.15-0.09c-0.77-1.69-1.53-3.38-2.3-5.06
				c-0.16-0.34-0.33-0.74-0.84-0.47c-0.52,0.27-0.39,0.64-0.13,1.03C162.3,85.81,163.34,87.34,164.38,88.88z M161.1,78.43
				c0.39,0.84,0.7,1.56,1.04,2.26c0.17,0.36,0.45,0.38,0.77,0.16c0.28-0.19,0.6-0.35,0.87-0.56c0.6-0.46,0.57-0.96-0.13-1.24
				C162.9,78.75,162.11,78.51,161.1,78.43z M54.27,139.82c0.39,0.27,0.66,0.59,1.02,0.47c0.43-0.14,0.25-0.59,0.32-0.9
				c0.04-0.17,0.07-0.35,0.04-0.52c-0.1-0.64,0.57-1.62-0.25-1.84c-0.83-0.23-0.92,0.92-1.33,1.47
				C53.66,139.07,53.8,139.53,54.27,139.82z M145.73,66.18c-1.21-0.18-2.41-0.36-3.7-0.55c1.17,2.56,1.87,2.69,3.61,0.84
				C145.69,66.43,145.69,66.35,145.73,66.18z M83.65,109.11c-0.38,0.18-0.45,0.2-0.5,0.24c-1.32,1.02-1.45,2.68-2.16,4.04
				c-0.13,0.24-0.42,0.61-0.01,0.79c0.33,0.15,0.7-0.1,0.84-0.44C82.41,112.28,82.97,110.82,83.65,109.11z M76.38,156.52
				c-0.46-0.37-1.05-0.77-1.58-0.44c-0.49,0.3,0.07,0.87,0.06,1.33c0,0.13,0.04,0.28,0.09,0.4c0.14,0.38,0.03,0.99,0.4,1.12
				c0.5,0.17,0.65-0.5,0.99-0.75C77.05,157.65,77.2,157.1,76.38,156.52z M167.88,118.79c-0.64,1.73-0.61,1.87,0.54,2.86
				c0.18,0.16,0.35,0.33,0.54,0.48c0.23,0.17,0.42,0.61,0.76,0.34c0.34-0.26,0.28-0.69,0.04-1.04
				C169.18,120.59,168.57,119.76,167.88,118.79z M115.87,62.64c-0.17-0.22,1.01-0.55-0.04-0.84c-0.79-0.21-1.63-0.26-2.45-0.38
				c-0.21-0.03-0.53,0.01-0.4,0.28c0.31,0.65,0.64,1.37,1.32,1.66C114.88,63.62,115.43,63.27,115.87,62.64z M154.89,128.88
				c-0.01,0.06-0.02,0.11-0.04,0.17c1.01,0.41,2.01,0.82,3.02,1.22c0.32,0.13,0.66,0.29,0.91-0.12c0.18-0.29,0.37-0.59,0.2-0.96
				c-0.16-0.36-0.44-0.51-0.82-0.49C157.07,128.76,155.98,128.82,154.89,128.88z M85.52,84.35c-0.07,0.14,0.07,0.28,0.21,0.44
				c0.64,0.71,1.52,0.76,2.38,0.83c0.32,0.03,0.42-0.22,0.39-0.48c-0.06-0.49,0.19-1.06-0.32-1.43
				C87.98,83.57,85.69,84.08,85.52,84.35z M60.31,140.56c-0.24-0.25-0.59-0.35-1-0.01c-0.37,0.31-0.75,0.61-1.13,0.91
				c-0.2,0.16-0.34,0.36-0.23,0.63c0.12,0.29,0.38,0.44,0.67,0.39c0.51-0.08,1.01-0.21,1.51-0.36c0.31-0.09,0.76-0.06,0.81-0.51
				C60.98,141.21,60.71,140.91,60.31,140.56z M96.59,148.98c-0.06,0.07-0.12,0.14-0.18,0.2c0.22,0.42,0.41,0.87,0.68,1.25
				c0.3,0.44,0.37,1.26,0.97,1.21c0.62-0.05,0.82-0.86,1.22-1.33c0.23-0.28,0.16-0.51-0.21-0.62
				C98.23,149.46,97.41,149.22,96.59,148.98z M59.61,148.71c0.05-0.12,0.11-0.23,0.16-0.35c-1.01-0.81-2.02-1.61-3.04-2.41
				c-0.13-0.11-0.28-0.2-0.45-0.06c-0.29,0.25-0.19,1.53,0.19,1.68C57.5,147.98,58.56,148.33,59.61,148.71z M88.43,144.6
				c-1.42-0.45-2.99-0.95-4.57-1.44c-0.18-0.06-0.34,0.04-0.37,0.25c-0.03,0.27,0.1,0.5,0.35,0.57c1.48,0.45,2.97,0.88,4.45,1.3
				c0.17,0.05,0.35-0.02,0.45-0.19C88.85,144.9,88.72,144.78,88.43,144.6z M151.37,67.45c-0.58,0.72-0.61,1.6-0.05,2.03
				c0.5,0.39,0.99,0.18,1.4-0.16c0.33-0.28,0.36-1.9,0.06-2.03C152.3,67.09,151.78,66.95,151.37,67.45z M89.27,98.06
				c-0.05-0.01-0.11-0.02-0.16-0.03c-0.4,1.06-0.8,2.12-1.19,3.18c-0.11,0.31-0.17,0.63,0.2,0.81c0.33,0.16,0.67,0.41,1.07,0.25
				c0.37-0.15,0.3-0.51,0.29-0.81C89.4,100.32,89.33,99.19,89.27,98.06z M126.61,113.9c-0.61,0.77-1.19,1.48-1.76,2.21
				c-0.21,0.27-0.34,0.58,0.05,0.79c0.39,0.21,0.82,0.54,1.25,0.36c0.45-0.17,0.58-0.68,0.57-1.14
				C126.72,115.37,126.65,114.63,126.61,113.9z M148.53,96.88c-2.26-0.37-4.27-0.69-6.28-1.02c-0.02,0.12-0.03,0.25-0.05,0.37
				C144.21,96.62,146.04,98.14,148.53,96.88z M166.88,137.22c0.42,0.57,0.86,0.46,1.13,0.13c0.37-0.44,0.69-0.99,0.21-1.56
				c-0.39-0.47-1.86-0.82-2.02-0.51C165.68,136.23,166.64,136.67,166.88,137.22z M91.81,108.23c-0.02,0.08-0.04,0.16-0.06,0.24
				c0.24,0.19,0.47,0.39,0.72,0.57c1.27,0.94,1.86,0.89,2.88-0.27c0.11-0.12,0.24-0.3,0.22-0.43c-0.04-0.26-0.3-0.22-0.5-0.22
				C93.99,108.15,92.9,108.19,91.81,108.23z M108.96,63.32c-0.88-2.14-1.72-2.53-3.24-1.64c-0.17,0.1-0.43,0.17-0.34,0.43
				c0.04,0.13,0.22,0.28,0.36,0.32C106.78,62.74,107.84,63.02,108.96,63.32z M84.41,70.72c-0.26,0.33-0.33,0.53-0.29,0.74
				c0.04,0.21,0.21,0.27,0.4,0.22c0.94-0.25,1.88-0.48,2.8-0.78c0.47-0.16,0.33-0.63,0.29-1c-0.02-0.24-0.18-0.43-0.41-0.34
				C86.21,69.95,85.23,70.38,84.41,70.72z M66.18,71.66c0.02,0.06,0.04,0.12,0.06,0.17c1.36-0.24,2.72-0.48,4.18-0.74
				c-1.48-1.72-1.23-1.73-2.85-0.5C67.11,70.95,66.64,71.31,66.18,71.66z M162.72,77.44c-0.64-0.91-1.16-1.67-1.71-2.41
				c-0.31-0.42-0.81-0.54-1.21-0.33c-0.51,0.26-0.01,0.65,0.06,0.97C160.18,77.06,161.29,77.29,162.72,77.44z M70.66,162.38
				c-0.36-0.22-0.79-0.5-1.24-0.77c-0.23-0.14-0.47-0.4-0.73-0.1c-0.26,0.29-0.28,0.65-0.01,0.94c0.35,0.38,0.74,0.73,1.11,1.09
				c0.39,0.4,0.79,0.74,1.29,0.16C71.6,163.1,71.18,162.77,70.66,162.38z M92.82,136.46c-0.06,0.02-0.12,0.04-0.17,0.07
				c0.07,1.12,0.13,2.25,0.2,3.37c0.02,0.23,0.02,0.52,0.39,0.46c0.52-0.08,1.26-1.46,0.98-1.91
				C93.79,137.77,93.29,137.13,92.82,136.46z M142.7,143.86c-0.41-0.51-0.8-0.55-1.04-0.05c-0.26,0.56-1.06,1.11-0.25,1.8
				c0.79,0.68,1.42,0.03,1.87-0.45C144.04,144.36,142.77,144.28,142.7,143.86z M126.84,96.13c-0.03,0.02-0.07,0.04-0.1,0.06
				c0.1,1.75,0.19,3.51,0.31,5.26c0.02,0.37-0.12,0.96,0.55,0.87c0.68-0.09,0.49-0.64,0.4-1.06
				C127.63,99.55,127.23,97.84,126.84,96.13z M56.6,141.23c0.9-0.75,1.95-1.08,2-1.93c0.05-0.77-0.92-1.12-1.66-1.68
				C56.83,138.82,56.73,139.87,56.6,141.23z M79.35,124.07c-0.06-0.02-0.12-0.04-0.18-0.07c-0.95,2.48-1.9,4.95-2.84,7.44
				c-0.09,0.23-0.33,0.57,0.06,0.71c0.37,0.13,0.44-0.25,0.52-0.5C77.73,129.12,78.54,126.6,79.35,124.07z M78.44,141.4
				c-0.66-0.22-1.47-0.5-2.29-0.76c-0.32-0.1-0.71-0.28-0.89,0.17c-0.19,0.47,0.14,0.7,0.54,0.83c0.79,0.25,1.57,0.51,2.37,0.73
				c0.26,0.07,0.63,0.38,0.79-0.06C79.07,142.01,78.81,141.73,78.44,141.4z M65.22,110.96c-0.14-0.11-0.27-0.22-0.41-0.32
				c-0.22-0.16-0.48-0.4-0.74-0.25c-0.3,0.18-0.09,0.51-0.03,0.76c0.14,0.68,0.31,1.35,0.48,2.02c0.06,0.24,0.13,0.49,0.49,0.32
				C65.94,113.03,66.07,111.6,65.22,110.96z M82.59,155.19c0.31,0.22,0.73,0.61,1.26,0.19c0.22-0.17-0.13-2.4-0.4-2.47
				c-0.72-0.18-0.96,0.52-1.34,0.88C81.51,154.37,82.05,154.75,82.59,155.19z M128.83,62.13c0.01,0.13,0.02,0.26,0.02,0.39
				c1.22,0.18,2.45,0.36,3.67,0.53c0.26,0.04,0.57-0.01,0.43-0.36c-0.2-0.5-0.41-1.13-1.11-1.05
				C130.84,61.76,129.84,61.97,128.83,62.13z M151.94,62.75c-1.01,0.85-2.02,1.69-3.22,2.7c0.96,0.01,1.72,0.68,2.31-0.14
				C151.55,64.61,151.91,63.78,151.94,62.75z M143.79,147.5c0.69,0.54,1.82,0.63,2.07,0.12c0.4-0.8-0.47-1.05-0.84-1.44
				c-0.67-0.7-1.23,0.03-1.64,0.42C142.89,147.09,143.62,147.24,143.79,147.5z M58.98,101.5c-0.55,0.21-0.84,0.54-1.15,0.84
				c-0.78,0.75-0.71,1.74,0.15,2.4c0.42,0.32,0.68,0.32,0.74-0.28C58.8,103.51,58.89,102.55,58.98,101.5z M132.26,69.48
				c-0.19-0.62-0.54-0.98-0.82-1.37c-0.9-1.24-1.09-1.23-2.15-0.11c-0.4,0.42-0.36,0.61,0.18,0.75
				C130.33,68.98,131.2,69.21,132.26,69.48z M138.07,139.12c-0.08,0.05-0.16,0.1-0.24,0.15c0.16,0.7,0.31,1.4,0.48,2.1
				c0.08,0.32,0.04,0.78,0.45,0.85c0.52,0.09,1.01-0.16,1.47-0.39c0.26-0.13,0.11-0.36-0.04-0.51
				C139.5,140.59,138.78,139.86,138.07,139.12z M91.33,157.44c-1.26-0.11-2.52-0.23-3.79-0.32c-0.25-0.02-0.61-0.21-0.71,0.16
				c-0.09,0.32,0.28,0.43,0.48,0.59C88.74,158.97,90.03,158.09,91.33,157.44z M57.93,84.5c-0.06,1.27,0.62,2.02,1.21,2.81
				c0.21,0.27,0.34,0.83,0.82,0.57c0.42-0.23,0.31-0.74,0.18-1.12C59.79,85.72,58.94,85.14,57.93,84.5z M87.19,80.55
				c-0.4,0.62-0.76,1.17-1.09,1.73c-0.15,0.25-0.11,0.44,0.25,0.5c1.3,0.22,2.13-0.56,1.93-1.83c-0.05-0.31-0.07-0.63-0.46-0.71
				C87.49,80.18,87.31,80.4,87.19,80.55z M141.07,97.4c-0.8-0.55-1.29,0.05-1.76,0.45c-0.47,0.39-0.06,0.75,0.22,1.04
				c0.3,0.3,2.21,0.13,2.32-0.24C142.04,97.99,141.21,97.87,141.07,97.4z M124.23,48.9c-0.07,0.03-0.14,0.05-0.21,0.08
				c0.05,0.92,0.1,1.84,0.15,2.76c0.02,0.44,0.15,0.82,0.68,0.56c0.41-0.19,1.22-0.23,0.86-0.98
				C125.31,50.47,124.73,49.71,124.23,48.9z M143.41,170.6c-2.22-0.12-2.73,0.23-3.71,2.56
				C141.21,172.63,142.22,171.57,143.41,170.6z M154.09,99.98c0.04-0.06,0.09-0.11,0.13-0.17c-0.46-0.63-0.91-1.25-1.37-1.88
				c-0.25-0.34-0.6-0.51-0.99-0.4c-0.43,0.12-0.33,0.55-0.38,0.87c-0.06,0.41,0.01,0.76,0.48,0.9
				C152.67,99.52,153.38,99.75,154.09,99.98z M127.54,109.79c0.08,0.02,0.15,0.04,0.23,0.07c0.36-0.45,0.73-0.89,1.07-1.36
				c0.25-0.34,0.74-0.67,0.42-1.16c-0.29-0.44-0.82-0.21-1.25-0.22c-0.43-0.02-0.63,0.2-0.6,0.64
				C127.46,108.43,127.5,109.11,127.54,109.79z M66.56,116.74c-0.13,0.12-0.25,0.24-0.38,0.36c-0.22,0.21-0.57,0.4-0.41,0.75
				c0.18,0.4,0.55,0.15,0.83,0.1c0.31-0.05,0.62-0.11,0.91-0.23c0.32-0.13,0.9-0.01,0.86-0.55c-0.04-0.5-0.2-1.1-0.67-1.34
				c-0.42-0.21-0.58,0.37-0.85,0.6C66.73,116.52,66.65,116.64,66.56,116.74z M95.18,131.16c-0.81-0.86-1.63-1.33-2.46-1.8
				c-0.12-0.07-0.31-0.17-0.37-0.03c-0.2,0.5-0.06,1.02-0.03,1.53c0.02,0.35,0.24,0.48,0.56,0.46
				C93.59,131.27,94.3,131.22,95.18,131.16z M154.97,64.22c-0.03,0.06-0.07,0.13-0.1,0.19c0.33,0.48,0.7,0.95,1,1.45
				c0.46,0.77,1.2,0.87,1.97,0.92c0.21,0.01,0.44,0,0.52-0.24c0.08-0.24-0.08-0.4-0.27-0.51C157.05,65.42,156.01,64.82,154.97,64.22
				z M169.47,94.63c0.24-0.41,0.53-0.92,0.82-1.42c0.11-0.18,0.21-0.48-0.08-0.47c-0.68,0.02-1.42,0.11-1.95,0.52
				c-0.54,0.41,0.08,0.92,0.2,1.37c0.06,0.24,0.14,0.58,0.48,0.58C169.21,95.21,169.25,94.88,169.47,94.63z M78.84,83.36
				c-0.41,0.46-0.31,0.73,0.25,0.76c0.37,0.02,0.77,0,1.12-0.11c0.83-0.25,0.6-1.06,0.77-1.65c0.05-0.19,0.09-0.51-0.17-0.51
				c-0.47,0.01-0.75,0.42-1.08,0.71C79.41,82.84,79.11,83.12,78.84,83.36z M78.6,77.27c0.49,1,1.17,1.4,1.65,1.98
				c0.22,0.27,0.44,0.58,0.85,0.42c0.43-0.16,0.44-0.58,0.49-0.95c0.06-0.45-0.26-0.6-0.6-0.71C80.27,77.79,79.56,77.57,78.6,77.27z
				 M67.02,65.57c1.31-1.21,2.33-2.63,3.36-4.35C68.45,62.25,67.71,63.89,67.02,65.57z M93.72,85.99c0.98-0.66,1.54-1.49,2.22-2.2
				c0.2-0.21,0.61-0.34,0.45-0.72c-0.13-0.31-0.51-0.32-0.8-0.39c-0.42-0.1-0.64,0.13-0.78,0.49
				C94.46,84.06,94.12,84.95,93.72,85.99z M119.76,155.79c-0.05,0.13-0.1,0.27-0.16,0.4c1.18,0.52,2.36,1.04,3.55,1.54
				c0.23,0.1,0.47,0.02,0.69-0.12c0.37-0.25,0.41-0.49-0.05-0.64C122.45,156.56,121.11,156.18,119.76,155.79z M69.09,111.97
				c0.96-0.56,1.7-1.32,2.35-2.18c0.19-0.25,0.39-0.57,0.05-0.81c-0.3-0.21-0.72-0.19-0.94,0.1
				C69.89,109.94,69.36,110.88,69.09,111.97z M67.08,155.65c-0.43,0.57-0.44,1.79-0.03,2.36c0.13,0.18,0.29,0.31,0.51,0.3
				c0.25-0.02,0.3-0.25,0.34-0.45c0.11-0.61,0.22-1.22,0.32-1.83c0.05-0.29,0.04-0.57-0.32-0.65
				C67.57,155.29,67.28,155.34,67.08,155.65z M106.83,56.6c0.53-0.55,0.36-1.27-0.41-1.97c-0.23-0.21-0.49-0.4-0.65-0.02
				c-0.29,0.66-0.81,1.35-0.14,2.09C106.1,57.21,106.48,56.88,106.83,56.6z M52.63,128.52c0.3,0.36,0.56,0.55,0.89,0.34
				c0.23-0.15,0.44-0.36,0.48-0.65c0.07-0.42-0.29-0.5-0.56-0.63c-0.5-0.23-1-0.47-1.51-0.68c-0.27-0.11-0.6-0.41-0.82-0.04
				c-0.18,0.3,0.19,0.47,0.38,0.65C51.89,127.88,52.31,128.24,52.63,128.52z M107.31,57.68c-0.61,0.59-0.21,1.03,0.18,1.44
				c0.53,0.56,1.13,0.22,1.47-0.14c0.61-0.63-0.21-1.01-0.49-1.44C108.03,56.85,107.67,57.51,107.31,57.68z M144.96,56.91
				c0.87,0.65,1.55,1.1,2.44,0.84c0.33-0.1,0.94,0.02,0.83-0.51c-0.1-0.51-0.45-1.05-1.17-0.88
				C146.43,56.5,145.81,56.68,144.96,56.91z M62.38,140.95c0.55,0.42,1.21,0.37,1.27-0.1c0.09-0.66-1.1-2.03-1.76-2.05
				c-0.26-0.01-0.43,0.07-0.36,0.33C61.69,139.79,61.74,140.51,62.38,140.95z M152.13,92.65c-0.42,1.19-0.33,2.07,0.44,2.85
				c0.37,0.37,0.77,0.38,1.12,0.13c0.37-0.26,0.01-0.56-0.13-0.8C153.13,94.14,152.67,93.47,152.13,92.65z M129.8,109.57
				c-1.69,1.26-2.34,2.81-1.83,4.28C128.6,112.38,129.42,111.08,129.8,109.57z"/>
		</g>
	</g>
</g>
</svg>
