<?xml version="1.0" encoding="utf-8"?>
<!-- Generator: Adobe Illustrator 26.2.1, SVG Export Plug-In . SVG Version: 6.00 Build 0)  -->
<svg version="1.1" xmlns="http://www.w3.org/2000/svg" xmlns:xlink="http://www.w3.org/1999/xlink" x="0px" y="0px"
	 viewBox="0 0 225 225" style="enable-background:new 0 0 225 225;" xml:space="preserve">
<style type="text/css">
	.st0{display:none;}
	.st1{display:inline;fill:#FAB433;}
	.st2{fill:none;}
	.st3{fill:none;stroke:#000000;stroke-width:1.6;stroke-miterlimit:10;}
	.st4{fill:none;stroke:#000000;stroke-width:0.7265;stroke-miterlimit:10;}
	.st5{fill:none;stroke:#000000;stroke-linecap:round;stroke-linejoin:round;stroke-miterlimit:10;}
	.st6{fill:none;stroke:#000000;stroke-miterlimit:10;}
	.st7{fill:none;stroke:#000000;stroke-width:0.7105;stroke-miterlimit:10;}
	.st8{fill:none;stroke:#000000;stroke-width:5.4;stroke-linecap:round;stroke-linejoin:round;stroke-miterlimit:10;}
	.st9{fill:none;stroke:#000000;stroke-width:2.9309;stroke-linecap:round;stroke-linejoin:round;stroke-miterlimit:10;}
	.st10{fill:none;stroke:#000000;stroke-width:0.5;stroke-linecap:round;stroke-linejoin:round;}
	.st11{fill:none;stroke:#FFFFFF;stroke-width:0;stroke-linecap:round;stroke-linejoin:round;}
	.st12{fill:#FFFFFF;}
	.st13{fill:none;stroke:#000000;stroke-width:1.4;stroke-miterlimit:10;}
	.st14{fill:url(#);stroke:#000000;stroke-width:1.4387;stroke-miterlimit:10;}
	.st15{fill:url(#);stroke:#000000;stroke-width:1.3718;stroke-miterlimit:10;}
	.st16{fill:none;stroke:#000000;stroke-width:1.0041;stroke-miterlimit:10;}
	.st17{fill:none;stroke:#000000;stroke-width:1.3621;stroke-miterlimit:10;}
	.st18{fill:none;stroke:#000000;stroke-width:0.25;stroke-miterlimit:10;}
</style>
<g id="Layer_2" class="st0">
	<rect id="XMLID_4_" x="-345.99" y="-275.01" class="st1" width="1160" height="772"/>
</g>
<g id="Layer_1">
	<g id="XMLID_7707_">
		<path id="XMLID_7715_" d="M53.44,110.99H45c0,37.22,30.28,67.5,67.5,67.5c11.86,0,23-3.07,32.68-8.44H112.5
			C79.93,170.05,53.44,143.56,53.44,110.99z"/>
		<path id="XMLID_7714_" d="M70.31,110.99h-8.44c0,27.92,22.71,50.62,50.62,50.62h44.62c2.92-2.58,5.61-5.4,8.05-8.44H112.5
			C89.24,153.18,70.31,134.25,70.31,110.99z"/>
		<path id="XMLID_7713_" d="M171.56,110.99H180c0-37.22-30.28-67.5-67.5-67.5c-11.86,0-23,3.07-32.68,8.44h32.68
			C145.07,51.93,171.56,78.43,171.56,110.99z"/>
		<path id="XMLID_7712_" d="M104.06,110.99h-8.44c0,9.3,7.57,16.87,16.88,16.87h65.37c0.71-2.75,1.22-5.57,1.58-8.44H112.5
			C107.85,119.43,104.06,115.65,104.06,110.99z"/>
		<path id="XMLID_7711_" d="M87.19,110.99h-8.44c0,18.61,15.14,33.75,33.75,33.75h58.45c1.56-2.7,2.94-5.52,4.13-8.44H112.5
			C98.54,136.3,87.19,124.95,87.19,110.99z"/>
		<path id="XMLID_7710_" d="M120.94,110.99h8.44c0-9.3-7.57-16.88-16.87-16.88H47.13c-0.71,2.75-1.22,5.57-1.58,8.44h66.96
			C117.15,102.56,120.94,106.34,120.94,110.99z"/>
		<path id="XMLID_7709_" d="M154.69,110.99h8.44c0-27.92-22.71-50.62-50.62-50.62H67.88c-2.92,2.58-5.61,5.4-8.05,8.44h52.68
			C135.76,68.81,154.69,87.73,154.69,110.99z"/>
		<path id="XMLID_7708_" d="M137.81,110.99h8.44c0-18.61-15.14-33.75-33.75-33.75H54.05c-1.56,2.7-2.94,5.52-4.13,8.44h62.58
			C126.46,85.68,137.81,97.04,137.81,110.99z"/>
	</g>
</g>
</svg>
