<?xml version="1.0" encoding="utf-8"?>
<!-- Generator: Adobe Illustrator 26.2.1, SVG Export Plug-In . SVG Version: 6.00 Build 0)  -->
<svg version="1.1" xmlns="http://www.w3.org/2000/svg" xmlns:xlink="http://www.w3.org/1999/xlink" x="0px" y="0px"
	 viewBox="0 0 225 225" style="enable-background:new 0 0 225 225;" xml:space="preserve">
<style type="text/css">
	.st0{display:none;}
	.st1{display:inline;fill:#FAB433;}
	.st2{fill:none;}
	.st3{fill:none;stroke:#000000;stroke-width:1.6;stroke-miterlimit:10;}
	.st4{fill:none;stroke:#000000;stroke-width:0.7265;stroke-miterlimit:10;}
	.st5{fill:none;stroke:#000000;stroke-linecap:round;stroke-linejoin:round;stroke-miterlimit:10;}
	.st6{fill:none;stroke:#000000;stroke-miterlimit:10;}
	.st7{fill:none;stroke:#000000;stroke-width:0.7105;stroke-miterlimit:10;}
	.st8{fill:none;stroke:#000000;stroke-width:5.4;stroke-linecap:round;stroke-linejoin:round;stroke-miterlimit:10;}
	.st9{fill:none;stroke:#000000;stroke-width:2.9309;stroke-linecap:round;stroke-linejoin:round;stroke-miterlimit:10;}
	.st10{fill:none;stroke:#000000;stroke-width:0.5;stroke-linecap:round;stroke-linejoin:round;}
	.st11{fill:none;stroke:#FFFFFF;stroke-width:0;stroke-linecap:round;stroke-linejoin:round;}
	.st12{fill:#FFFFFF;}
	.st13{fill:none;stroke:#000000;stroke-width:1.4;stroke-miterlimit:10;}
	.st14{fill:url(#);stroke:#000000;stroke-width:1.4387;stroke-miterlimit:10;}
	.st15{fill:url(#);stroke:#000000;stroke-width:1.3718;stroke-miterlimit:10;}
	.st16{fill:none;stroke:#000000;stroke-width:1.0041;stroke-miterlimit:10;}
	.st17{fill:none;stroke:#000000;stroke-width:1.3621;stroke-miterlimit:10;}
	.st18{fill:none;stroke:#000000;stroke-width:0.25;stroke-miterlimit:10;}
</style>
<g id="Layer_2" class="st0">
	<rect id="XMLID_573_" x="-345.99" y="-275.01" class="st1" width="1160" height="772"/>
</g>
<g id="Layer_1">
	<path id="XMLID_12102_" d="M46.42,75.2L46.42,75.2l-0.04,0.13l-0.01,0l0,0.01l0.04-0.11L46.42,75.2z M46.43,75.19
		c0,0,0,0.01-0.01,0.01l0,0C46.43,75.2,46.43,75.2,46.43,75.19z M48.84,71.61c7.52-7.52,25.05-5.43,35.02,4.54c0,0,0,0,0,0
		c5,5,6.9,11.1,5,15.91l0.04-0.09c0.17-0.41,0.32-0.68,0.42-0.86l0.08-0.13c0.05-0.09,0.1-0.17,0.15-0.26l0.1-0.17
		c0.08-0.14,0.15-0.28,0.23-0.42c0.09-0.17,0.17-0.34,0.25-0.52c0.11-0.25,0.22-0.51,0.31-0.77c0.16-0.43,0.29-0.88,0.4-1.33
		c0.25-1.06,0.36-2.19,0.33-3.34c-0.01-0.29-0.02-0.58-0.05-0.88c-0.4-4.61-2.87-9.41-6.98-13.52c-0.82-0.82-1.72-1.62-2.66-2.37
		c-9.79-7.79-22.87-9.01-29.16-2.71c-0.4,0.4-0.77,0.85-1.18,1.41l-0.12,0.17c-0.09,0.12-0.18,0.25-0.27,0.38l-0.78,1.27
		c-0.61,1.13-1.32,2.53-2.01,3.95c-0.45,0.92-0.88,1.84-1.26,2.7l-0.01-0.01c-0.11,0.22-0.2,0.44-0.28,0.66
		c0.09-0.21,0.19-0.43,0.29-0.66C47.25,73.47,47.96,72.49,48.84,71.61z M46.43,75.2L46.43,75.2L46.43,75.2L46.43,75.2z
		 M94.68,126.36c-0.02-0.02-0.09-0.09-0.1-0.1c-7.21,6.22-17.6,15.85-23.65,21.91c-2.74,2.75-4.3,4.48-4.51,5.02l3.53,3.62
		l3.71,3.44c1.5,0.25,17.1-16.55,26.5-28.54c-0.04-0.04-0.09-0.08-0.13-0.12l0.14,0.12c3.9-5.02,3.73-5.52,3.67-5.71l-0.51-0.48
		c-0.15-0.13-0.29-0.26-0.44-0.39c-0.36-0.33-0.7-0.65-1.06-0.99l-0.15-0.15c-0.31-0.31-0.63-0.64-0.96-0.99l-0.81-0.83
		c-0.42-0.01-2.42,1.62-5.33,4.1L94.68,126.36z M143.87,60.09c-0.74,5.63-12.45,23.32-21.04,31.92l-0.01,0
		c-2.98,2.98-5.05,4.32-5.84,3.78l0.15,0.11c0.6,0.43,1.14,0.85,1.66,1.25l0.16,0.12l2.16,1.81c0.29,0.25,2.13-1.29,5.16-4.33
		c0,0,0,0,0.01,0c9.11-9.11,25.12-27.92,25.04-29.83l-0.08-0.09l0.05-0.01l0,0.01l0.02,0l-2.41-2.01l-0.29-0.24
		c-0.46-0.39-0.91-0.77-1.33-1.12l-3.64-2.74l-0.07-0.03c0.02,0.02,0.04,0.03,0.06,0.05C143.88,58.99,143.95,59.44,143.87,60.09z
		 M131.29,111.14c0.25,0.41,0.56,0.93,0.9,1.55c0.29,0.55,0.66,1.23,0.97,1.85c0.09,0.18,0.18,0.35,0.27,0.54
		c0,0.01,0.01,0.01,0.01,0.02c0,0.01,0.01,0.02,0.01,0.02l0.1,0.2c-2.72-5.75,17.2-18.7,32.02-21.19l0.01,0
		c1.62-0.27,3.04-0.39,4.26-0.37c0.49,0.01,0.94,0.04,1.36,0.09c1.26,0.15,2.22,0.5,2.87,1.02c0.11,0.09,0.21,0.18,0.29,0.27
		c0.18,0.19,0.32,0.39,0.42,0.61c0,0.01,0.01,0.01,0.01,0.02c0,0,0-0.01,0-0.01l-0.09-0.2c0,0,0,0,0,0l-0.11-0.23
		c-0.61-1.21-1.36-2.62-2.12-4.01c-0.71-1.31-1.43-2.61-2.08-3.73c-0.02-0.04-0.05-0.08-0.07-0.12c0.03,0.06,0.06,0.11,0.08,0.18
		c-0.08-0.13-0.15-0.25-0.22-0.37c-0.36-0.42-1.02-0.65-1.98-0.67c-1.39-0.03-3.4,0.38-5.99,1.28c0.01,0.02,0.02,0.04,0.03,0.06
		c-0.01-0.02-0.02-0.04-0.04-0.06C148.2,92.73,129.01,107.17,131.29,111.14z M168.16,100.44c-10.18,0.16-27.54,6.29-32.28,14.67
		c-0.18,0.31-0.33,0.62-0.45,0.93c-0.06,0.15-0.12,0.3-0.17,0.45c-0.02,0.06-0.04,0.12-0.05,0.18l-0.02,0.08
		c-0.06,0.21-0.11,0.41-0.14,0.62c-0.02,0.14-0.04,0.28-0.05,0.42c-0.04,0.54,0.03,1.06,0.19,1.55l0.13,0.39
		c0.2,0.59,0.42,1.32,0.63,2.13c0.09,0.37,0.18,0.72,0.27,1.11l0.04,0.09c-1.85-8.51,17.83-18.22,33.69-16.29
		c4.17,0.51,7.36,1.76,9.23,3.64c0.85,0.85,1.4,1.81,1.66,2.88l-0.02-0.09c-0.27-1.12-0.63-2.46-1.05-3.98
		c-0.42-1.53-0.81-2.86-1.14-3.93l-0.22-0.63l-0.11-0.31c-0.19-0.53-0.51-1.01-0.95-1.45C175.72,101.23,172.46,100.37,168.16,100.44
		z M139.82,119.4c-2.19,2.19-3.24,4.59-3.05,6.95l0.01,0.16c0.03,0.37,0.06,0.74,0.07,1.05l0,0.93l-0.01,0.58l0.01,0.06
		c0.12-2.22,1.17-4.38,3.05-6.26c6.29-6.29,20.26-8.06,31.15-3.96c3.26,1.23,6.02,2.92,7.99,4.89c0.48,0.48,0.92,0.98,1.3,1.49
		c0.3,0.4,0.59,0.84,0.87,1.35l0.08,0.14c0.04,0.08,0.09,0.15,0.13,0.23c0.15,0.29,0.28,0.58,0.4,0.88c0.39,0.98,0.59,2,0.61,3.04
		l0,0.13c0,0.12,0.01,0.25,0.01,0.37c0.04-0.96,0.04-2.09,0.04-2.95c0.01-1.02,0.01-1.85-0.01-2.53l-0.23-3.63l0-0.01l-0.01,0
		l-0.01-0.1c-0.17-1.71-1.03-3.37-2.47-4.81c-1.99-1.99-5.05-3.54-8.85-4.5C160.06,110.2,146.11,113.1,139.82,119.4z M182.45,131.52
		L182.45,131.52L182.45,131.52l0-0.06l-0.01,0L182.45,131.52z M178.58,149.81c0.07-0.19,0.14-0.38,0.21-0.57l-0.01,0L178.58,149.81z
		 M170.33,124.64c-0.04,0.14-0.08,0.25-0.1,0.33C170.26,124.89,170.29,124.78,170.33,124.64c-13.03-6.6-31.47-4.08-33.76,6.72
		l0.01,0l-0.03,0.08c-0.08,0.36-0.14,0.59-0.19,0.77c-0.04,0.13-0.08,0.25-0.12,0.37l-0.13,0.41c0.53-1.34,1.35-2.57,2.43-3.66
		l0.03-0.07l-0.01,0.05c6.29-6.29,19.82-5.99,30.18,0.66c0.03-0.1,0.05-0.17,0.06-0.21c-0.01,0.05-0.03,0.12-0.06,0.23
		c1.8,1.16,3.43,2.46,4.84,3.87c4.84,4.84,6.78,10.59,5.2,15.38l0.79-2.15c0.26-0.85,0.57-1.92,0.91-3.19
		c0.17-0.6,0.32-1.21,0.47-1.79l0.08-0.35l0.26-1.05c0.77-3.72-0.79-7.87-4.3-11.37C175.19,127.54,172.95,125.96,170.33,124.64z
		 M77.39,46.44c0.13,0,0.26,0,0.39,0l0.07,0c0.75,0.02,1.5,0.1,2.24,0.25c0.45,0.09,0.91,0.2,1.37,0.34
		c0.46,0.14,0.92,0.3,1.38,0.47c0.23,0.09,0.46,0.19,0.69,0.29c0.45,0.2,0.91,0.43,1.37,0.68c0.91,0.5,1.82,1.09,2.7,1.75
		c0.44,0.34,0.88,0.7,1.31,1.07c0.43,0.38,0.87,0.78,1.28,1.2c1.28,1.28,2.47,2.73,3.56,4.32c0.03-0.02,0.07-0.03,0.1-0.04
		l-0.04,0.02l-0.06,0.04c6.95,10.22,7.49,23.65,1.22,29.95l-0.03,0.01c-0.72,0.72-1.52,1.33-2.37,1.81
		c-0.28,0.16-0.57,0.31-0.83,0.44l0.5-0.2c0,0,0.55-0.17,0.69-0.22c0.08-0.02,0.16-0.04,0.26-0.07c0.43-0.11,0.86-0.25,1.28-0.42
		c9.38-3.85,11.29-20.58,4.51-33.12c-1.3-2.41-2.84-4.51-4.55-6.22c-3.89-3.89-8.45-5.53-12.5-4.5c-0.68,0.18-1.52,0.43-2.57,0.75
		c-0.44,0.13-0.89,0.27-1.32,0.4c-0.45,0.14-0.88,0.28-1.28,0.42l-1.08,0.44l-1.98,0.81c0.97-0.35,1.99-0.57,3.04-0.64
		C76.95,46.45,77.17,46.45,77.39,46.44z M57.8,57.84l-0.71,0.72l-0.15,0.17c2.64-2.69,6.49-4.05,10.86-3.85
		c-0.41-0.02-0.84-0.02-1.3,0c2-0.03,4.09,0.26,6.22,0.88c4.14,1.24,8.22,3.69,12.14,7.3l0.28,0.28c0.44,0.44,0.87,0.89,1.29,1.36
		c3.4,3.82,5.74,8.33,6.59,12.71c0.24,1.27,0.36,2.51,0.36,3.7c-0.01,1.17-0.14,2.31-0.38,3.39c-0.09,0.4-0.21,0.82-0.37,1.27
		c-0.24,0.71-0.54,1.4-0.9,2.05c-0.2,0.36-0.41,0.7-0.63,1.02c-0.15,0.21-0.3,0.41-0.46,0.61c-0.11,0.14-0.23,0.28-0.35,0.42
		l-0.09,0.11c-0.07,0.08-0.14,0.16-0.21,0.23l0.09-0.07c0.03-0.03,0.34-0.31,0.34-0.31l0,0l0.06-0.04l0.22-0.17
		c0.49-0.35,0.97-0.75,1.41-1.2c0,0,0.06-0.05,0.09-0.07c7.17-7.17,4-21.85-5.09-30.93c0,0,0,0,0,0c-3.23-3.23-6.93-5.52-10.7-6.62
		c-0.54-0.16-1.09-0.3-1.63-0.4c-0.54-0.11-1.08-0.19-1.61-0.24c-0.54-0.05-1.07-0.08-1.58-0.08c-0.52,0-1.04,0.03-1.54,0.09
		c-0.76,0.09-1.5,0.24-2.21,0.45c-0.24,0.07-0.47,0.15-0.7,0.23c-0.57,0.21-1.15,0.48-1.71,0.8l-0.26,0.17
		c-0.38,0.25-0.76,0.49-1.1,0.72c-0.75,0.54-1.3,0.93-1.85,1.38l-0.28,0.23c-0.36,0.3-0.74,0.63-1.2,1.04l-0.49,0.4
		c-0.19,0.16-0.4,0.34-0.6,0.52c-0.5,0.45-0.99,0.93-1.67,1.6l-0.12,0.12L57.8,57.84z M111.75,44.72c0.25,0.18,0.47,0.35,0.66,0.52
		c0.11,0.1,0.23,0.21,0.34,0.32c1.91,1.91,3.26,5.09,3.91,9.18l0,0.01c2.42,15.58-6.53,35.43-15.6,33.84l0.07,0.02
		c0.26,0.05,0.51,0.1,0.75,0.15c0.13,0.03,0.68,0.16,0.68,0.16c0.59,0.15,1.17,0.31,1.89,0.52l0.26,0.08
		c0.25,0.08,0.51,0.13,0.78,0.16c7.7,0.85,17.79-18.38,17.47-33.35l0-0.01c-0.08-3.58-0.76-6.44-1.99-8.28
		c-0.24-0.36-0.5-0.68-0.77-0.95l-0.01-0.01c-0.13-0.13-0.27-0.26-0.41-0.37c-0.41-0.33-0.86-0.57-1.34-0.73l0,0.01l-0.07-0.03
		c-2.43-0.69-5.84-1.54-8.67-2.17l0,0.01l-0.11-0.02C110.33,43.91,111.07,44.24,111.75,44.72z M128.32,50.31
		c1.1,1.6,1.42,4.5,0.94,8.38c0.05,0.02,0.09,0.04,0.14,0.06l-0.14-0.06c-1.24,9.79-7.36,22.87-13.65,29.17l-0.01,0
		c-2.08,2.08-4,3.23-5.56,3.34c-0.5,0.03-0.97-0.04-1.39-0.21l0.71,0.32l0.06,0.03l0-0.01l0.09,0.05l0.26,0.12
		c0.57,0.27,1.13,0.55,1.69,0.85l0.22,0.12l0.68,0.38l0.44,0.24c1.28,0.71,3.57-0.49,6.46-3.38c6.29-6.29,13.6-18.78,16.29-27.85
		c0,0,0,0,0,0c0.85-2.87,1.17-5.17,0.92-6.66c-0.11-0.66-0.33-1.16-0.66-1.49c-0.06-0.06-0.11-0.11-0.18-0.15l-0.74-0.43
		c-1.17-0.63-2.64-1.4-4.5-2.34c-0.44-0.22-0.86-0.44-1.27-0.64l-0.57-0.28l-1.48-0.65c0.31,0.14,0.59,0.34,0.84,0.59
		C128.05,49.96,128.19,50.13,128.32,50.31z M91.58,42.75c2.98,0.04,5.68,1.25,8.02,3.59c1.86,1.86,3.49,4.39,4.98,7.74
		c4.45,10.86,2.96,24.81-3.33,31.1l-0.1,0.09c0,0-0.34,0.3-0.5,0.44l-0.23,0.2c-1.66,1.38-2.91,1.94-5.19,2.3l-0.14,0.03l0.16-0.01
		l0.25-0.01c0.33-0.02,0.68-0.04,1.08-0.05c0.01,0,0.17,0,0.5,0l0.81,0.03c0.28,0.01,0.57,0.01,0.85-0.01
		c0.57-0.04,1.15-0.15,1.72-0.33c0.49-0.15,0.98-0.37,1.52-0.66c0,0,0.16-0.08,0.2-0.1c0.86-0.49,1.71-1.15,2.51-1.96
		c0.01,0,0.01,0,0.01,0c8.94-8.94,9.5-31.48,1.16-39.82c-1.63-1.63-3.5-2.56-5.41-2.7l-0.24-0.01l0.08,0l-2.49-0.09
		c-1.92,0-4.43,0.12-6.16,0.22c0.11,0,0.22,0,0.34-0.01l-0.27,0.02L91.58,42.75z M127.05,100.44c-0.78,0.82-1.34,1.45-1.68,1.87
		c-0.28,0.35-0.39,0.55-0.32,0.63l0.35,0.38l0,0l0.05,0.06c0.31,0.34,0.64,0.71,0.98,1.11l0.2,0.23c0,0,0.53,0.63,0.7,0.84
		c0.41,0.5,0.79,0.98,1.12,1.4c-0.1-0.16-0.1-0.38-0.01-0.67c0.08-0.24,0.21-0.52,0.41-0.85c0.13-0.22,0.29-0.46,0.48-0.71
		c2.82-3.83,16.2-15.79,28.74-22.89l0,0.01c3.77-2.13,6.16-2.98,6.75-2.4l0.05,0.04l-2.13-2.72c-0.52-0.64-1.19-1.41-2.09-2.44
		c-0.89-1.03-1.56-1.8-2.13-2.41l-0.03-0.01c-0.84-0.25-18.83,15.88-28.99,26.05l0,0c-0.59,0.59-1.12,1.12-1.59,1.61
		C127.6,99.86,127.31,100.16,127.05,100.44z M102.14,160.58l0.27-0.4c0.16-0.23,0.31-0.46,0.46-0.69c4.09-6.14,7.41-12.92,9.36-19.1
		c0.67-2.32,0.99-4.12,0.99-5.5l0-0.07c0-0.12,0-0.23-0.01-0.34l-0.01-0.15c-0.07-0.96-0.34-1.66-0.82-2.14
		c-0.07-0.07-0.15-0.14-0.23-0.2l-0.76-0.45l-0.61-0.37c-0.5-0.31-1.1-0.71-1.65-1.09l-0.65-0.44c-0.16-0.11-0.3-0.21-0.5-0.32
		c0.18,0.21,0.65,0.76-0.27,3.34c-0.04,0.12-0.09,0.24-0.13,0.36c-0.49,1.27-1.11,2.54-1.51,3.39c0.07,0.05,0.14,0.1,0.2,0.15
		c-0.07-0.05-0.14-0.1-0.21-0.15c-7.01,13.58-21.55,31.21-24.7,29.97c0.68,0.48,1.51,1.05,2.69,1.82c1.11,0.75,1.94,1.3,2.63,1.73
		l0.08,0.05l2.7,1.61c1.27,0.59,3.35-0.45,6.03-2.99c0.52-0.49,1.05-1.04,1.61-1.64C98.75,165.21,100.44,163.05,102.14,160.58z
		 M53.33,122.47c6.29-6.29,19.24-12.72,28.87-14.35l0,0.01c1.27-0.21,2.45-0.34,3.49-0.36c0.51-0.01,1-0.01,1.46,0.02
		c0.23,0.01,0.45,0.04,0.66,0.06c0.42,0.05,0.81,0.12,1.16,0.22c0.53,0.14,0.98,0.32,1.36,0.55c0.22,0.14,0.42,0.29,0.58,0.45
		l0.06,0.06c0.18,0.19,0.32,0.39,0.42,0.56c-0.29-0.61-0.6-1.33-0.85-1.92c-0.31-0.77-0.55-1.42-0.73-1.93l-0.04-0.1
		c-0.19-0.55-0.52-1.06-0.97-1.52l-0.14-0.15l-0.02-0.02c-1.7-1.54-4.81-2.33-9.01-2.26l-0.01-0.01
		c-10.22,0.16-23.66,5.41-29.95,11.7c-2.64,2.64-3.72,5.19-3.03,7.19c0.46,1.23,1.06,2.75,1.73,4.39c0.62,1.53,1.22,2.94,1.77,4.13
		C49.45,127.61,50.59,125.22,53.33,122.47z M95.05,116.04c-0.31-0.45-0.62-0.89-0.88-1.29l-0.09-0.15
		c-0.12-0.18-0.26-0.42-0.44-0.71c-0.05-0.08-0.11-0.15-0.18-0.22c-0.98-0.98-3.79-0.74-7.91,0.69
		c-8.85,3.06-21.16,10.66-27.46,16.95c-2.93,2.93-4.15,5.17-3.46,6.33l1.01,1.63l0.04,0.06l0.01,0l0.03,0.06
		c0.56,0.85,1.25,1.86,2.11,3.09c0.86,1.25,1.58,2.25,2.22,3.1c-0.44-0.68,0.95-2.68,3.91-5.64c6.29-6.29,17.83-15.04,25.72-19.5
		c0,0,0,0,0,0.01c3.77-2.13,6.16-2.98,6.79-2.36c-0.25-0.34-0.49-0.65-0.7-0.96L95.05,116.04z M175.44,148.14
		c-0.68-2.76-2.07-5.5-4.16-8.16c-0.8-1.04-1.68-2.04-2.62-2.98c-8.64-8.64-24.01-12.39-31.54-4.85c-0.04,0.07-0.08,0.13-0.13,0.2
		c0.03-0.05,0.06-0.11,0.09-0.16c-0.24,0.27-0.51,0.59-0.77,0.91c-0.15,0.18-0.29,0.37-0.43,0.55c-0.12,0.16-0.23,0.31-0.36,0.49
		l0.01,0l-0.05,0.06c-0.05,0.08-0.11,0.16-0.17,0.24l-0.05,0.07c-0.07,0.09-0.16,0.19-0.29,0.36l0.19-0.19
		c6.29-6.29,18.73-4.26,27.73,4.53l0.29,0.29c4.66,4.66,7.63,10.49,8.14,15.98c0.03,0.35,0.05,0.71,0.07,1.06
		c0.01,0.24,0.02,0.49,0.01,0.73c0,0.29-0.01,0.58-0.03,0.87c-0.07,1.29-0.31,2.54-0.7,3.71c-0.47,1.43-1.17,2.72-2.08,3.84
		c-0.11,0.13-0.22,0.27-0.33,0.41l-0.01-0.01l-0.21,0.25l0,0l-0.02,0.03c0,0,0.17-0.19,0.25-0.27c1.45-1.58,2.2-2.47,2.99-3.5
		c0.97-1.21,1.69-2.25,2.92-4.12c0.82-1.31,1.4-3.02,1.61-4.8C176.05,151.86,175.93,150.01,175.44,148.14z M45.57,87.29
		c6.29-6.29,20.26-8.06,31.16-3.96l0,0.01c3.26,1.23,6.02,2.92,7.98,4.88c0.48,0.48,0.92,0.98,1.31,1.5c0.04,0.05,0.07,0.1,0.1,0.14
		l0.07,0.11c0.32,0.45,0.6,0.9,0.83,1.33l0.08,0.14c0.15,0.29,0.28,0.59,0.4,0.88c0.09,0.23,0.16,0.47,0.25,0.75
		c0.08,0.26,0.14,0.51,0.19,0.77c0.06,0.31,0.11,0.63,0.14,0.94c0.04,0.44,0.05,0.81,0.04,1.15l0.05-0.68l0.01-0.22l-0.01,0
		l0.02-0.09c0.05-0.4,0.11-0.8,0.19-1.22c0.79-3.73-0.78-7.89-4.29-11.4c-1.8-1.8-4.03-3.38-6.64-4.69l0-0.01
		c-10.72-5.43-24.57-4.73-30.86,1.57c-0.96,0.96-1.7,2.01-2.22,3.13c-0.3,0.64-0.52,1.31-0.68,2.04l-0.68,4l-0.07,0.5
		c-0.08,0.68-0.15,1.44-0.22,2.21c-0.1,1.06-0.17,1.85-0.2,2.5c-0.02,0.34-0.01,0.7,0.04,1.13c0.02-0.71,0.05-1.41,0.09-2.09
		C42.97,90.69,43.96,88.91,45.57,87.29z M44.06,111.32c-0.02-0.11-0.04-0.22-0.04-0.33c-0.01-0.28-0.01-0.57,0.02-0.86
		c0.06-0.58,0.22-1.19,0.46-1.79c0.5-1.25,1.39-2.51,2.63-3.75c6.29-6.29,20.06-10.35,30.7-9.07c-0.01-0.02-0.01-0.05-0.02-0.07
		l0.02,0.08c4.16,0.51,7.35,1.77,9.22,3.64c0.36,0.36,0.67,0.74,0.92,1.14c0.02,0.04,0.05,0.08,0.07,0.12l0.05,0.08
		c0.29,0.5,0.5,1.02,0.62,1.53l-0.18-0.89l-0.01,0l-0.01-0.09c-0.04-0.21-0.06-0.33-0.06-0.34c-0.05-0.29-0.09-0.61-0.13-0.94
		c-0.05-0.37-0.1-0.74-0.14-1.06c-0.15-1.74-1.01-3.44-2.47-4.91c-1.99-1.99-5.05-3.54-8.85-4.5l0,0.01l0.01,0.11l-0.02-0.12
		C66,86.6,52.04,89.5,45.75,95.79c-2.13,2.13-3.19,4.47-3.05,6.82l0.05,0.43l-0.02-0.17l-0.01,0v0.07l0.04,0.33l0.04,0.37
		c0.1,0.81,0.22,1.69,0.34,2.56c0.19,1.37,0.35,2.48,0.51,3.37l0.46,2.23c0.05,0.22,0.12,0.45,0.23,0.71
		c-0.09-0.37-0.18-0.73-0.27-1.08L44.06,111.32z M168.03,166.34L168.03,166.34L168.03,166.34L168.03,166.34z M158.76,142.76l0-0.01
		c-0.6-0.72-1.24-1.42-1.89-2.07c-7.3-7.3-16.59-9.44-22.6-5.21l-0.22,0.15c-0.15,0.08-0.32,0.18-0.49,0.27l-0.14,0.07l-0.07,0.03
		l-0.07,0.05c5.15-2.33,11.75-0.38,17.22,5.09l0,0c1.27,1.27,2.47,2.72,3.55,4.31l0,0.01c6.96,10.23,7.5,23.67,1.21,29.96
		c-0.71,0.71-1.5,1.32-2.35,1.8c-0.65,0.3-1.33,0.6-2,0.9c0.13-0.04,0.26-0.09,0.39-0.13c0.24-0.09,0.48-0.18,0.72-0.29
		c0.34-0.17,0.69-0.35,1.11-0.56l0.1-0.04c0.61-0.31,1.25-0.65,1.89-0.99c1.2-0.64,2.24-1.21,3.09-1.71l2.26-1.5
		c0.53-0.37,1.04-0.8,1.51-1.27C168.24,165.32,166.81,152.38,158.76,142.76z M137.28,148.27l-0.08-0.01L137.28,148.27
		c-1.04-3.68-2.65-6.68-4.64-8.67c-0.54-0.54-1.12-1.02-1.71-1.4c-1.22-0.8-2.52-1.24-3.84-1.31c-0.46-0.04-1-0.1-1.53-0.16
		c-0.43-0.05-0.85-0.1-1.22-0.16l-0.3-0.05l-0.09,0c1.19,0.23,2.3,0.85,3.29,1.84c0,0,0,0,0,0c1.91,1.91,3.26,5.08,3.9,9.17
		l0.2,0.04c-0.07-0.01-0.14-0.02-0.2-0.03c1.67,10.71-2.09,24.54-8.38,30.83c-2.37,2.37-4.84,3.42-7.13,3.04l1.06,0.19
		c1.09,0.16,2.41,0.33,3.92,0.5c1.46,0.17,2.82,0.31,3.99,0.4l0.07,0.01c2.34,0.12,4.7-0.94,6.82-3.06
		C137.77,173.14,140.38,159.16,137.28,148.27z M117.74,171.15c0.55-0.88,1.11-1.86,1.66-2.91l0.25-0.5
		c0.11-0.21,0.21-0.43,0.31-0.64c0.08-0.17,0.16-0.33,0.24-0.5c0.16-0.34,0.31-0.68,0.46-1.03l0.08-0.18
		c0.18-0.43,0.36-0.86,0.54-1.3c0.36-0.9,0.7-1.84,1.02-2.79l0.04-0.13c1.63-4.99,2.51-10.25,2.52-15.22
		c-0.04-0.01-0.08-0.02-0.12-0.04l0.12,0.03c-0.13-4.06-0.92-7-2.34-8.74l-0.21-0.24l-0.19-0.2c-0.09-0.09-0.18-0.17-0.28-0.25
		c-0.62-0.53-1.19-0.77-1.57-0.93l-0.29-0.09c-1.21-0.4-2.43-0.86-3.67-1.39c0.31,0.14,0.6,0.34,0.86,0.59
		c1.41,1.41,1.89,4.56,1.35,8.88l0.02,0.01l-0.02-0.01c-1.24,9.79-7.36,22.88-13.66,29.17c-2.71,2.71-5.14,3.83-6.85,3.15
		l-0.08-0.04l-0.06-0.01l0.06,0.03l0.19,0.08c1.13,0.46,2.5,1,3.96,1.55c1.66,0.63,3.11,1.16,4.32,1.57l0.21,0.07
		c1.37,0.35,2.9,0.04,4.53-0.92c1.47-0.84,2.96-2.19,4.42-4.01C116.3,173.3,117.04,172.27,117.74,171.15z M148.82,147.25
		C148.82,147.25,148.82,147.25,148.82,147.25c-1.3-2.41-2.83-4.5-4.54-6.22c-3.89-3.89-8.45-5.53-12.53-4.49l-0.3,0.07
		c-0.2,0.04-0.43,0.08-0.73,0.14l-0.11,0.01c-0.21,0.03-0.42,0.05-0.64,0.08l-0.28,0.05l0.11-0.01c0.31-0.03,0.6-0.04,0.88-0.03
		c0.31,0.01,0.63,0.03,0.95,0.07c1.59,0.21,3.15,0.84,4.66,1.89c0.69,0.48,1.37,1.06,2.02,1.7c1.96,1.96,3.61,4.54,4.85,7.68
		l-0.06,0.02l0.11-0.01c4.46,10.86,2.97,24.81-3.32,31.1c-0.23,0.23-0.47,0.45-0.7,0.65c-1.49,1.28-3.12,2.06-4.84,2.33l3.42-0.41
		c0.69-0.11,1.53-0.27,2.63-0.5c1.12-0.22,1.97-0.4,2.66-0.57c1.77-0.45,3.39-1.4,4.81-2.82
		C154.14,171.68,154.58,157.9,148.82,147.25z"/>
</g>
</svg>
