<?xml version="1.0" encoding="utf-8"?>
<!-- Generator: Adobe Illustrator 27.0.0, SVG Export Plug-In . SVG Version: 6.00 Build 0)  -->
<svg version="1.1" id="Layer_1" xmlns="http://www.w3.org/2000/svg" xmlns:xlink="http://www.w3.org/1999/xlink" x="0px" y="0px"
	 viewBox="0 0 225 225" style="enable-background:new 0 0 225 225;" xml:space="preserve">
<style type="text/css">
	.st0{display:none;}
	.st1{display:inline;fill:#FAB433;}
	.st2{fill:#FFFFFF;}
</style>
<g id="Layer_2_00000057846932773267237150000001018813523406292155_" class="st0">
	<rect id="XMLID_1638_" x="-591" y="-30" class="st1" width="1160" height="772"/>
</g>
<g id="Layer_1_00000177484745693831761300000012889933618799773851_">
	<g id="XMLID_5775_">
		<g id="XMLID_6114_">
			<rect id="XMLID_6197_" x="153.4" y="112.5" class="st2" width="0.4" height="12.5"/>
			<rect id="XMLID_6196_" x="160.8" y="112.5" class="st2" width="0.4" height="12.5"/>
			<rect id="XMLID_6195_" x="168.2" y="112.5" class="st2" width="0.4" height="12.5"/>
			<rect id="XMLID_6194_" x="175.6" y="112.5" class="st2" width="0.4" height="12.5"/>
			<rect id="XMLID_6193_" x="157.1" y="112.5" class="st2" width="0.4" height="12.5"/>
			<rect id="XMLID_6192_" x="164.5" y="112.5" class="st2" width="0.4" height="12.5"/>
			<rect id="XMLID_6191_" x="171.9" y="112.5" class="st2" width="0.4" height="12.5"/>
			<rect id="XMLID_6190_" x="179.3" y="112.5" class="st2" width="0.4" height="12.5"/>
			<rect id="XMLID_6189_" x="153.4" y="125" class="st2" width="0.4" height="0.1"/>
			<rect id="XMLID_6188_" x="160.8" y="125" class="st2" width="0.4" height="0.1"/>
			<rect id="XMLID_6187_" x="168.2" y="125" class="st2" width="0.4" height="0.1"/>
			<rect id="XMLID_6186_" x="175.6" y="125" class="st2" width="0.4" height="0.1"/>
			<rect id="XMLID_6185_" x="157.1" y="125" class="st2" width="0.4" height="0.1"/>
			<rect id="XMLID_6184_" x="164.5" y="125" class="st2" width="0.4" height="0.1"/>
			<rect id="XMLID_6183_" x="171.9" y="125" class="st2" width="0.4" height="0.1"/>
			<rect id="XMLID_6182_" x="179.3" y="125" class="st2" width="0.4" height="0.1"/>
			<rect id="XMLID_6181_" x="116.6" y="112.5" class="st2" width="0.4" height="12.5"/>
			<rect id="XMLID_6180_" x="123.9" y="112.5" class="st2" width="0.4" height="12.5"/>
			<rect id="XMLID_6179_" x="131.3" y="112.5" class="st2" width="0.4" height="12.5"/>
			<rect id="XMLID_6178_" x="138.7" y="112.5" class="st2" width="0.4" height="12.5"/>
			<rect id="XMLID_6177_" x="146.1" y="112.5" class="st2" width="0.4" height="12.5"/>
			<rect id="XMLID_6176_" x="120.2" y="112.5" class="st2" width="0.4" height="12.5"/>
			<rect id="XMLID_6175_" x="127.6" y="112.5" class="st2" width="0.4" height="12.5"/>
			<rect id="XMLID_6174_" x="135" y="112.5" class="st2" width="0.4" height="12.5"/>
			<rect id="XMLID_6173_" x="142.4" y="112.5" class="st2" width="0.4" height="12.5"/>
			<rect id="XMLID_6172_" x="149.8" y="112.5" class="st2" width="0.4" height="12.5"/>
			<rect id="XMLID_6171_" x="116.6" y="125" class="st2" width="0.4" height="0.1"/>
			<rect id="XMLID_6170_" x="123.9" y="125" class="st2" width="0.4" height="0.1"/>
			<rect id="XMLID_6169_" x="131.3" y="125" class="st2" width="0.4" height="0.1"/>
			<rect id="XMLID_6168_" x="138.7" y="125" class="st2" width="0.4" height="0.1"/>
			<rect id="XMLID_6167_" x="146.1" y="125" class="st2" width="0.4" height="0.1"/>
			<rect id="XMLID_6166_" x="120.2" y="125" class="st2" width="0.4" height="0.1"/>
			<rect id="XMLID_6165_" x="127.6" y="125" class="st2" width="0.4" height="0.1"/>
			<rect id="XMLID_6164_" x="135" y="125" class="st2" width="0.4" height="0.1"/>
			<rect id="XMLID_6163_" x="142.4" y="125" class="st2" width="0.4" height="0.1"/>
			<rect id="XMLID_6162_" x="149.8" y="125" class="st2" width="0.4" height="0.1"/>
			<rect id="XMLID_6161_" x="112.9" y="112.5" class="st2" width="0.4" height="12.5"/>
			<rect id="XMLID_6160_" x="112.9" y="125" class="st2" width="0.4" height="0.1"/>
			<polygon id="XMLID_6159_" class="st2" points="153.8,125.3 153.8,125.1 153.4,125.1 153.4,125.3 153.4,161.9 153.8,161.9 			"/>
			<path id="XMLID_6158_" class="st2" d="M160.8,125.3v35.5c0.1-0.1,0.2-0.2,0.4-0.4v-35.2v-0.1h-0.4V125.3z"/>
			<path id="XMLID_6157_" class="st2" d="M168.2,125.3v26.8c0.1-0.2,0.2-0.4,0.4-0.5v-26.3v-0.1h-0.4V125.3z"/>
			<path id="XMLID_6156_" class="st2" d="M175.6,125.3v13.5c0.1-0.3,0.2-0.6,0.4-0.9v-12.6v-0.1h-0.4V125.3z"/>
			<polygon id="XMLID_6155_" class="st2" points="157.5,125.3 157.5,125.1 157.1,125.1 157.1,125.3 157.1,161.9 157.5,161.9 			"/>
			<path id="XMLID_6154_" class="st2" d="M164.5,125.3v31.5c0.1-0.1,0.2-0.3,0.4-0.4v-31.1v-0.1h-0.4V125.3z"/>
			<path id="XMLID_6153_" class="st2" d="M171.9,125.3v21c0.1-0.2,0.2-0.4,0.4-0.7v-20.4v-0.1h-0.4V125.3z"/>
			<path id="XMLID_6152_" class="st2" d="M179.3,125.3v1.8c0.1-0.6,0.2-1.2,0.4-1.8v-0.1h-0.4V125.3z"/>
			<rect id="XMLID_6151_" x="153.4" y="161.9" class="st2" width="0.4" height="0.1"/>
			<rect id="XMLID_6150_" x="157.1" y="161.9" class="st2" width="0.4" height="0.1"/>
			<polygon id="XMLID_6149_" class="st2" points="116.9,125.3 116.9,125.1 116.6,125.1 116.6,125.3 116.6,161.9 116.9,161.9 			"/>
			<polygon id="XMLID_6148_" class="st2" points="124.3,125.3 124.3,125.1 123.9,125.1 123.9,125.3 123.9,161.9 124.3,161.9 			"/>
			<polygon id="XMLID_6147_" class="st2" points="131.7,125.3 131.7,125.1 131.3,125.1 131.3,125.3 131.3,161.9 131.7,161.9 			"/>
			<polygon id="XMLID_6146_" class="st2" points="139.1,125.3 139.1,125.1 138.7,125.1 138.7,125.3 138.7,161.9 139.1,161.9 			"/>
			<polygon id="XMLID_6145_" class="st2" points="146.1,125.3 146.1,161.9 146.4,161.9 146.4,125.3 146.4,125.1 146.1,125.1 			"/>
			<polygon id="XMLID_6144_" class="st2" points="120.6,125.3 120.6,125.1 120.2,125.1 120.2,125.3 120.2,161.9 120.6,161.9 			"/>
			<polygon id="XMLID_6143_" class="st2" points="128,125.3 128,125.1 127.6,125.1 127.6,125.3 127.6,161.9 128,161.9 			"/>
			<polygon id="XMLID_6142_" class="st2" points="135.4,125.3 135.4,125.1 135,125.1 135,125.3 135,161.9 135.4,161.9 			"/>
			<polygon id="XMLID_6141_" class="st2" points="142.8,125.3 142.8,125.1 142.4,125.1 142.4,125.3 142.4,161.9 142.8,161.9 			"/>
			<polygon id="XMLID_6140_" class="st2" points="150.1,125.3 150.1,125.1 149.8,125.1 149.8,125.3 149.8,161.9 150.1,161.9 			"/>
			<rect id="XMLID_6139_" x="116.6" y="161.9" class="st2" width="0.4" height="0.1"/>
			<rect id="XMLID_6138_" x="123.9" y="161.9" class="st2" width="0.4" height="0.1"/>
			<rect id="XMLID_6137_" x="131.3" y="161.9" class="st2" width="0.4" height="0.1"/>
			<rect id="XMLID_6136_" x="138.7" y="161.9" class="st2" width="0.4" height="0.1"/>
			<rect id="XMLID_6135_" x="146.1" y="161.9" class="st2" width="0.4" height="0.1"/>
			<rect id="XMLID_6134_" x="120.2" y="161.9" class="st2" width="0.4" height="0.1"/>
			<rect id="XMLID_6133_" x="127.6" y="161.9" class="st2" width="0.4" height="0.1"/>
			<rect id="XMLID_6132_" x="135" y="161.9" class="st2" width="0.4" height="0.1"/>
			<rect id="XMLID_6131_" x="142.4" y="161.9" class="st2" width="0.4" height="0.1"/>
			<rect id="XMLID_6130_" x="149.8" y="161.9" class="st2" width="0.4" height="0.1"/>
			<polygon id="XMLID_6129_" class="st2" points="113.2,125.3 113.2,125.1 112.9,125.1 112.9,125.3 112.9,161.9 113.2,161.9 			"/>
			<rect id="XMLID_6128_" x="112.9" y="161.9" class="st2" width="0.4" height="0.1"/>
			<path id="XMLID_6127_" class="st2" d="M153.8,162.2V162h-0.4v0.1v5c0.1-0.1,0.2-0.2,0.4-0.3V162.2z"/>
			<path id="XMLID_6126_" class="st2" d="M157.5,162h-0.4v0.1v2.1c0.1-0.1,0.2-0.2,0.4-0.3v-1.7V162z"/>
			<path id="XMLID_6125_" class="st2" d="M116.9,162.2V162h-0.4v0.1v18.5c0.1,0,0.2,0,0.4,0V162.2z"/>
			<path id="XMLID_6124_" class="st2" d="M124.3,162h-0.4v0.1v17.7c0.1,0,0.2,0,0.4-0.1v-17.6V162z"/>
			<path id="XMLID_6123_" class="st2" d="M131.7,162h-0.4v0.1v16c0.1,0,0.2-0.1,0.4-0.1v-15.9V162z"/>
			<path id="XMLID_6122_" class="st2" d="M139.1,162h-0.4v0.1v13.5c0.1-0.1,0.2-0.1,0.4-0.1v-13.3V162z"/>
			<path id="XMLID_6121_" class="st2" d="M146.1,162.2v9.9c0.1-0.1,0.2-0.1,0.4-0.2v-9.6V162h-0.4V162.2z"/>
			<path id="XMLID_6120_" class="st2" d="M120.6,162h-0.4v0.1v18.2c0.1,0,0.2,0,0.4,0v-18.2V162z"/>
			<path id="XMLID_6119_" class="st2" d="M128,162h-0.4v0.1v17c0.1,0,0.2-0.1,0.4-0.1v-16.9V162z"/>
			<path id="XMLID_6118_" class="st2" d="M135.4,162H135v0.1V177c0.1,0,0.2-0.1,0.4-0.1v-14.7V162z"/>
			<path id="XMLID_6117_" class="st2" d="M142.8,162h-0.4v0.1V174c0.1-0.1,0.2-0.1,0.4-0.2v-11.6V162z"/>
			<path id="XMLID_6116_" class="st2" d="M150.1,162h-0.4v0.1v7.6c0.1-0.1,0.2-0.2,0.4-0.2v-7.4V162z"/>
			<path id="XMLID_6115_" class="st2" d="M113.2,162h-0.4v0.1v18.7c0.1,0,0.2,0,0.4,0v-18.6V162z"/>
		</g>
		<g id="XMLID_6098_">
			<path id="XMLID_6113_" class="st2" d="M157.2,95.8c-0.8,0.7-1.6,1.4-2.5,2v14.6h2.5V95.8z"/>
			<path id="XMLID_6112_" class="st2" d="M164.6,88.4v24.1h2.5V85.3C166.2,86.4,165.4,87.4,164.6,88.4z"/>
			<path id="XMLID_6111_" class="st2" d="M174.4,83.6v28.9h2.5v-23C176.1,87.5,175.3,85.5,174.4,83.6z"/>
			<path id="XMLID_6110_" class="st2" d="M159.6,93.6v18.9h2.5V91.2C161.3,92,160.5,92.8,159.6,93.6z"/>
			<path id="XMLID_6109_" class="st2" d="M171.7,78.3c-0.7,1.2-1.4,2.4-2.2,3.5v30.6h2.5V78.8C171.9,78.7,171.8,78.5,171.7,78.3z"/>
			<path id="XMLID_6108_" class="st2" d="M179.3,98.2v14.3h1.5C180.8,107.6,180.3,102.8,179.3,98.2z"/>
			<path id="XMLID_6107_" class="st2" d="M115.4,112.4L115.4,112.4l2.5,0.1v-0.2C117,112.3,116.2,112.4,115.4,112.4z"/>
			<path id="XMLID_6106_" class="st2" d="M125.2,111.3v1.2h2.5v-1.7C126.8,111,126,111.2,125.2,111.3z"/>
			<path id="XMLID_6105_" class="st2" d="M135.1,108.7v3.8h2.5v-4.7C136.7,108.1,135.9,108.4,135.1,108.7z"/>
			<path id="XMLID_6104_" class="st2" d="M144.9,104.3v8.2h2.5v-9.6C146.5,103.4,145.7,103.9,144.9,104.3z"/>
			<path id="XMLID_6103_" class="st2" d="M112.5,112.5h0.4v0C112.8,112.5,112.6,112.5,112.5,112.5z"/>
			<path id="XMLID_6102_" class="st2" d="M120.3,112.1v0.4h2.5v-0.8C121.9,111.8,121.1,112,120.3,112.1z"/>
			<path id="XMLID_6101_" class="st2" d="M130.1,110.2v2.3h2.5v-3C131.8,109.8,130.9,110,130.1,110.2z"/>
			<path id="XMLID_6100_" class="st2" d="M140,106.8v5.8h2.5v-6.9C141.6,106,140.8,106.4,140,106.8z"/>
			<path id="XMLID_6099_" class="st2" d="M149.8,101.4v11.1h2.5V99.7C151.5,100.3,150.6,100.9,149.8,101.4z"/>
		</g>
		<g id="XMLID_5979_">
			<path id="XMLID_6097_" class="st2" d="M151.5,64.5h9.6c-0.2-0.2-0.5-0.5-0.8-0.7h-8.8V64.5z"/>
			<path id="XMLID_6096_" class="st2" d="M151.5,58.8v0.7h4.2c-0.3-0.2-0.6-0.5-0.9-0.7H151.5z"/>
			<path id="XMLID_6095_" class="st2" d="M151.5,61.3V62h7c-0.3-0.2-0.5-0.5-0.8-0.7H151.5z"/>
			<path id="XMLID_6094_" class="st2" d="M151.5,57.1h1c-0.3-0.2-0.6-0.5-1-0.7V57.1z"/>
			<rect id="XMLID_6093_" x="151.4" y="63.8" class="st2" width="0.1" height="0.7"/>
			<rect id="XMLID_6092_" x="151.4" y="58.8" class="st2" width="0.1" height="0.7"/>
			<rect id="XMLID_6091_" x="151.4" y="61.3" class="st2" width="0.1" height="0.7"/>
			<path id="XMLID_6090_" class="st2" d="M151.5,56.4L151.5,56.4l0,0.7h0.1L151.5,56.4C151.5,56.4,151.5,56.4,151.5,56.4z"/>
			<path id="XMLID_6089_" class="st2" d="M164.6,88.4h-13.1v0.7H164C164.2,88.8,164.4,88.6,164.6,88.4z"/>
			<path id="XMLID_6088_" class="st2" d="M151.5,83.4v0.7h16.4c0.2-0.2,0.4-0.5,0.5-0.7H151.5z"/>
			<path id="XMLID_6087_" class="st2" d="M151.5,78.5v0.7h19.6c0.1-0.2,0.3-0.5,0.4-0.7H151.5z"/>
			<path id="XMLID_6086_" class="st2" d="M151.5,73.6v0.7h17.6c-0.2-0.2-0.3-0.5-0.5-0.7H151.5z"/>
			<path id="XMLID_6085_" class="st2" d="M151.5,68.7v0.7h14c-0.2-0.2-0.4-0.5-0.6-0.7H151.5z"/>
			<path id="XMLID_6084_" class="st2" d="M151.5,85.9v0.7H166c0.2-0.2,0.4-0.5,0.6-0.7H151.5z"/>
			<path id="XMLID_6083_" class="st2" d="M151.5,81v0.7h18.1c0.2-0.2,0.3-0.5,0.5-0.7H151.5z"/>
			<path id="XMLID_6082_" class="st2" d="M151.5,76.1v0.7h19.2c-0.1-0.2-0.3-0.5-0.5-0.7H151.5z"/>
			<path id="XMLID_6081_" class="st2" d="M151.5,71.1v0.7h15.9c-0.2-0.2-0.4-0.5-0.6-0.7H151.5z"/>
			<path id="XMLID_6080_" class="st2" d="M151.5,66.2V67h11.9c-0.2-0.2-0.4-0.5-0.7-0.7H151.5z"/>
			<rect id="XMLID_6079_" x="151.4" y="88.4" class="st2" width="0.1" height="0.7"/>
			<rect id="XMLID_6078_" x="151.4" y="83.4" class="st2" width="0.1" height="0.7"/>
			<rect id="XMLID_6077_" x="151.4" y="78.5" class="st2" width="0.1" height="0.7"/>
			<rect id="XMLID_6076_" x="151.4" y="73.6" class="st2" width="0.1" height="0.7"/>
			<rect id="XMLID_6075_" x="151.4" y="68.7" class="st2" width="0.1" height="0.7"/>
			<rect id="XMLID_6074_" x="151.4" y="85.9" class="st2" width="0.1" height="0.7"/>
			<rect id="XMLID_6073_" x="151.4" y="81" class="st2" width="0.1" height="0.7"/>
			<rect id="XMLID_6072_" x="151.4" y="76.1" class="st2" width="0.1" height="0.7"/>
			<rect id="XMLID_6071_" x="151.4" y="71.1" class="st2" width="0.1" height="0.7"/>
			<rect id="XMLID_6070_" x="151.4" y="66.2" class="st2" width="0.1" height="0.7"/>
			<path id="XMLID_6069_" class="st2" d="M151.5,98.2v0.7h1.8c0.3-0.2,0.7-0.5,1-0.7H151.5z"/>
			<path id="XMLID_6068_" class="st2" d="M151.5,93.3V94h7.7c0.3-0.2,0.5-0.5,0.8-0.7H151.5z"/>
			<path id="XMLID_6067_" class="st2" d="M151.5,95.7v0.7h4.9c0.3-0.2,0.6-0.5,0.9-0.7H151.5z"/>
			<path id="XMLID_6066_" class="st2" d="M151.5,90.8v0.7h10.2c0.2-0.2,0.5-0.5,0.7-0.7H151.5z"/>
			<rect id="XMLID_6065_" x="151.4" y="98.2" class="st2" width="0.1" height="0.7"/>
			<rect id="XMLID_6064_" x="151.4" y="93.3" class="st2" width="0.1" height="0.7"/>
			<rect id="XMLID_6063_" x="151.4" y="95.7" class="st2" width="0.1" height="0.7"/>
			<rect id="XMLID_6062_" x="151.4" y="90.8" class="st2" width="0.1" height="0.7"/>
			<polygon id="XMLID_6061_" class="st2" points="151.4,63.8 126.9,63.8 126.9,64.5 151.4,64.5 151.4,64.5 151.4,63.8 			"/>
			<polygon id="XMLID_6060_" class="st2" points="151.4,58.8 126.9,58.8 126.9,59.6 151.4,59.6 151.4,59.6 151.4,58.8 			"/>
			<path id="XMLID_6059_" class="st2" d="M148.9,54.7c-0.4-0.2-0.8-0.5-1.2-0.7h-20.7v0.7H148.9z"/>
			<path id="XMLID_6058_" class="st2" d="M139.5,49.7c-0.6-0.3-1.2-0.5-1.8-0.7h-10.8v0.7H139.5z"/>
			<polygon id="XMLID_6057_" class="st2" points="151.4,61.3 126.9,61.3 126.9,62 151.4,62 151.4,62 151.4,61.3 			"/>
			<polygon id="XMLID_6056_" class="st2" points="151.4,56.4 126.9,56.4 126.9,57.1 151.4,57.1 151.4,57.1 151.4,56.4 			"/>
			<path id="XMLID_6055_" class="st2" d="M144.6,52.2c-0.5-0.2-0.9-0.5-1.4-0.7h-16.3v0.7H144.6z"/>
			<path id="XMLID_6054_" class="st2" d="M132.9,47.3c-0.8-0.3-1.7-0.5-2.6-0.7h-3.4v0.7H132.9z"/>
			<rect id="XMLID_6053_" x="126.8" y="63.8" class="st2" width="0.1" height="0.7"/>
			<rect id="XMLID_6052_" x="126.8" y="58.8" class="st2" width="0.1" height="0.7"/>
			<rect id="XMLID_6051_" x="126.8" y="53.9" class="st2" width="0.1" height="0.7"/>
			<rect id="XMLID_6050_" x="126.8" y="49" class="st2" width="0.1" height="0.7"/>
			<rect id="XMLID_6049_" x="126.8" y="61.3" class="st2" width="0.1" height="0.7"/>
			<rect id="XMLID_6048_" x="126.8" y="56.4" class="st2" width="0.1" height="0.7"/>
			<rect id="XMLID_6047_" x="126.8" y="51.5" class="st2" width="0.1" height="0.7"/>
			<rect id="XMLID_6046_" x="126.8" y="46.5" class="st2" width="0.1" height="0.7"/>
			<polygon id="XMLID_6045_" class="st2" points="151.4,88.4 126.9,88.4 126.9,89.1 151.4,89.1 151.4,89.1 151.4,88.4 			"/>
			<polygon id="XMLID_6044_" class="st2" points="151.4,83.4 126.9,83.4 126.9,84.2 151.4,84.2 151.4,84.2 151.4,83.4 			"/>
			<polygon id="XMLID_6043_" class="st2" points="151.4,78.5 126.9,78.5 126.9,79.3 151.4,79.3 151.4,79.3 151.4,78.5 			"/>
			<polygon id="XMLID_6042_" class="st2" points="151.4,73.6 126.9,73.6 126.9,74.3 151.4,74.3 151.4,74.3 151.4,73.6 			"/>
			<polygon id="XMLID_6041_" class="st2" points="151.4,68.7 126.9,68.7 126.9,69.4 151.4,69.4 151.4,69.4 151.4,68.7 			"/>
			<polygon id="XMLID_6040_" class="st2" points="151.4,85.9 126.9,85.9 126.9,86.6 151.4,86.6 151.4,86.6 151.4,85.9 			"/>
			<polygon id="XMLID_6039_" class="st2" points="151.4,81 126.9,81 126.9,81.7 151.4,81.7 151.4,81.7 151.4,81 			"/>
			<polygon id="XMLID_6038_" class="st2" points="151.4,76.1 126.9,76.1 126.9,76.8 151.4,76.8 151.4,76.8 151.4,76.1 			"/>
			<polygon id="XMLID_6037_" class="st2" points="151.4,71.1 126.9,71.1 126.9,71.9 151.4,71.9 151.4,71.9 151.4,71.1 			"/>
			<polygon id="XMLID_6036_" class="st2" points="151.4,66.2 126.9,66.2 126.9,67 151.4,67 151.4,67 151.4,66.2 			"/>
			<rect id="XMLID_6035_" x="126.8" y="88.4" class="st2" width="0.1" height="0.7"/>
			<rect id="XMLID_6034_" x="126.8" y="83.4" class="st2" width="0.1" height="0.7"/>
			<rect id="XMLID_6033_" x="126.8" y="78.5" class="st2" width="0.1" height="0.7"/>
			<rect id="XMLID_6032_" x="126.8" y="73.6" class="st2" width="0.1" height="0.7"/>
			<rect id="XMLID_6031_" x="126.8" y="68.7" class="st2" width="0.1" height="0.7"/>
			<rect id="XMLID_6030_" x="126.8" y="85.9" class="st2" width="0.1" height="0.7"/>
			<rect id="XMLID_6029_" x="126.8" y="81" class="st2" width="0.1" height="0.7"/>
			<rect id="XMLID_6028_" x="126.8" y="76.1" class="st2" width="0.1" height="0.7"/>
			<rect id="XMLID_6027_" x="126.8" y="71.1" class="st2" width="0.1" height="0.7"/>
			<rect id="XMLID_6026_" x="126.8" y="66.2" class="st2" width="0.1" height="0.7"/>
			<path id="XMLID_6025_" class="st2" d="M134.8,108.8c0.7-0.2,1.4-0.5,2-0.7h-9.9v0.7H134.8z"/>
			<path id="XMLID_6024_" class="st2" d="M145.8,103.8c0.4-0.2,0.9-0.5,1.3-0.7h-20.2v0.7H145.8z"/>
			<polygon id="XMLID_6023_" class="st2" points="151.4,98.2 126.9,98.2 126.9,98.9 151.4,98.9 151.4,98.9 151.4,98.2 			"/>
			<polygon id="XMLID_6022_" class="st2" points="151.4,93.3 126.9,93.3 126.9,94 151.4,94 151.4,94 151.4,93.3 			"/>
			<path id="XMLID_6021_" class="st2" d="M129,110.5h-2.1v0.5C127.6,110.8,128.3,110.7,129,110.5z"/>
			<path id="XMLID_6020_" class="st2" d="M140.9,106.3c0.5-0.2,1-0.5,1.6-0.7h-15.6v0.7H140.9z"/>
			<path id="XMLID_6019_" class="st2" d="M126.9,101.4h22.9c0.4-0.2,0.8-0.5,1.1-0.7h-24C126.9,100.7,126.9,101.4,126.9,101.4z"/>
			<polygon id="XMLID_6018_" class="st2" points="151.4,95.7 126.9,95.7 126.9,96.5 151.4,96.5 151.4,96.5 151.4,95.7 			"/>
			<polygon id="XMLID_6017_" class="st2" points="151.4,90.8 126.9,90.8 126.9,91.6 151.4,91.6 151.4,91.6 151.4,90.8 			"/>
			<rect id="XMLID_6016_" x="126.8" y="108" class="st2" width="0.1" height="0.7"/>
			<rect id="XMLID_6015_" x="126.8" y="103.1" class="st2" width="0.1" height="0.7"/>
			<rect id="XMLID_6014_" x="126.8" y="98.2" class="st2" width="0.1" height="0.7"/>
			<rect id="XMLID_6013_" x="126.8" y="93.3" class="st2" width="0.1" height="0.7"/>
			<path id="XMLID_6012_" class="st2" d="M126.9,111v-0.5h-0.1L126.9,111C126.9,111,126.9,111,126.9,111z"/>
			<rect id="XMLID_6011_" x="126.8" y="105.6" class="st2" width="0.1" height="0.7"/>
			<rect id="XMLID_6010_" x="126.8" y="100.7" class="st2" width="0.1" height="0.7"/>
			<rect id="XMLID_6009_" x="126.8" y="95.7" class="st2" width="0.1" height="0.7"/>
			<rect id="XMLID_6008_" x="126.8" y="90.8" class="st2" width="0.1" height="0.7"/>
			<polygon id="XMLID_6007_" class="st2" points="126.8,63.8 112.5,63.8 112.5,64.5 126.8,64.5 126.8,64.5 126.8,63.8 			"/>
			<polygon id="XMLID_6006_" class="st2" points="126.8,58.8 112.5,58.8 112.5,59.6 126.8,59.6 126.8,59.6 126.8,58.8 			"/>
			<polygon id="XMLID_6005_" class="st2" points="126.8,54.7 126.8,54.7 126.8,53.9 126.8,53.9 112.5,53.9 112.5,54.7 			"/>
			<polygon id="XMLID_6004_" class="st2" points="126.8,49.7 126.8,49.7 126.8,49 126.8,49 112.5,49 112.5,49.7 			"/>
			<path id="XMLID_6003_" class="st2" d="M121.9,44.8c-3.1-0.4-6.2-0.6-9.4-0.6v0.6H121.9z"/>
			<polygon id="XMLID_6002_" class="st2" points="126.8,61.3 112.5,61.3 112.5,62 126.8,62 126.8,62 126.8,61.3 			"/>
			<polygon id="XMLID_6001_" class="st2" points="126.8,56.4 112.5,56.4 112.5,57.1 126.8,57.1 126.8,57.1 126.8,56.4 			"/>
			<polygon id="XMLID_6000_" class="st2" points="126.8,52.2 126.8,52.2 126.8,51.5 126.8,51.5 112.5,51.5 112.5,52.2 			"/>
			<polygon id="XMLID_5999_" class="st2" points="112.5,47.3 126.8,47.3 126.8,47.3 126.8,46.5 126.8,46.5 112.5,46.5 			"/>
			<polygon id="XMLID_5998_" class="st2" points="126.8,88.4 112.5,88.4 112.5,89.1 126.8,89.1 126.8,89.1 126.8,88.4 			"/>
			<polygon id="XMLID_5997_" class="st2" points="126.8,83.4 112.5,83.4 112.5,84.2 126.8,84.2 126.8,84.2 126.8,83.4 			"/>
			<polygon id="XMLID_5996_" class="st2" points="126.8,78.5 112.5,78.5 112.5,79.3 126.8,79.3 126.8,79.3 126.8,78.5 			"/>
			<polygon id="XMLID_5995_" class="st2" points="126.8,73.6 112.5,73.6 112.5,74.3 126.8,74.3 126.8,74.3 126.8,73.6 			"/>
			<polygon id="XMLID_5994_" class="st2" points="126.8,68.7 112.5,68.7 112.5,69.4 126.8,69.4 126.8,69.4 126.8,68.7 			"/>
			<polygon id="XMLID_5993_" class="st2" points="126.8,85.9 112.5,85.9 112.5,86.6 126.8,86.6 126.8,86.6 126.8,85.9 			"/>
			<polygon id="XMLID_5992_" class="st2" points="126.8,81 112.5,81 112.5,81.7 126.8,81.7 126.8,81.7 126.8,81 			"/>
			<polygon id="XMLID_5991_" class="st2" points="126.8,76.1 112.5,76.1 112.5,76.8 126.8,76.8 126.8,76.8 126.8,76.1 			"/>
			<polygon id="XMLID_5990_" class="st2" points="126.8,71.1 112.5,71.1 112.5,71.9 126.8,71.9 126.8,71.9 126.8,71.1 			"/>
			<polygon id="XMLID_5989_" class="st2" points="126.8,66.2 112.5,66.2 112.5,67 126.8,67 126.8,67 126.8,66.2 			"/>
			<polygon id="XMLID_5988_" class="st2" points="126.8,108.8 126.8,108.8 126.8,108 126.8,108 112.5,108 112.5,108.8 			"/>
			<polygon id="XMLID_5987_" class="st2" points="126.8,103.8 126.8,103.8 126.8,103.1 126.8,103.1 112.5,103.1 112.5,103.8 			"/>
			<polygon id="XMLID_5986_" class="st2" points="126.8,98.2 112.5,98.2 112.5,98.9 126.8,98.9 126.8,98.9 126.8,98.2 			"/>
			<polygon id="XMLID_5985_" class="st2" points="126.8,93.3 112.5,93.3 112.5,94 126.8,94 126.8,94 126.8,93.3 			"/>
			<path id="XMLID_5984_" class="st2" d="M126.8,111v-0.5h-0.1h-14.3v0.7h13.1C126,111.2,126.4,111.1,126.8,111z"/>
			<polygon id="XMLID_5983_" class="st2" points="126.8,106.3 126.8,106.3 126.8,105.6 126.8,105.6 112.5,105.6 112.5,106.3 			"/>
			<polygon id="XMLID_5982_" class="st2" points="126.8,100.7 112.5,100.7 112.5,101.4 126.8,101.4 126.8,101.4 126.8,100.7 			"/>
			<polygon id="XMLID_5981_" class="st2" points="126.8,95.7 112.5,95.7 112.5,96.5 126.8,96.5 126.8,96.5 126.8,95.7 			"/>
			<polygon id="XMLID_5980_" class="st2" points="126.8,90.8 112.5,90.8 112.5,91.6 126.8,91.6 126.8,91.6 126.8,90.8 			"/>
		</g>
		<g id="XMLID_5897_">
			<rect id="XMLID_5978_" x="98.9" y="112.5" class="st2" width="1.5" height="12.5"/>
			<rect id="XMLID_5977_" x="106.3" y="112.5" class="st2" width="1.5" height="12.5"/>
			<rect id="XMLID_5976_" x="102.6" y="112.5" class="st2" width="1.5" height="12.5"/>
			<rect id="XMLID_5975_" x="110" y="112.5" class="st2" width="1.5" height="12.5"/>
			<rect id="XMLID_5974_" x="98.9" y="125" class="st2" width="1.5" height="0.1"/>
			<rect id="XMLID_5973_" x="106.3" y="125" class="st2" width="1.5" height="0.1"/>
			<rect id="XMLID_5972_" x="102.6" y="125" class="st2" width="1.5" height="0.1"/>
			<rect id="XMLID_5971_" x="110" y="125" class="st2" width="1.5" height="0.1"/>
			<rect id="XMLID_5970_" x="62" y="112.5" class="st2" width="1.5" height="12.5"/>
			<rect id="XMLID_5969_" x="69.4" y="112.5" class="st2" width="1.5" height="12.5"/>
			<rect id="XMLID_5968_" x="76.8" y="112.5" class="st2" width="1.5" height="12.5"/>
			<rect id="XMLID_5967_" x="84.2" y="112.5" class="st2" width="1.5" height="12.5"/>
			<rect id="XMLID_5966_" x="91.5" y="112.5" class="st2" width="1.5" height="12.5"/>
			<rect id="XMLID_5965_" x="65.7" y="112.5" class="st2" width="1.5" height="12.5"/>
			<rect id="XMLID_5964_" x="73.1" y="112.5" class="st2" width="1.5" height="12.5"/>
			<rect id="XMLID_5963_" x="80.5" y="112.5" class="st2" width="1.5" height="12.5"/>
			<rect id="XMLID_5962_" x="87.8" y="112.5" class="st2" width="1.5" height="12.5"/>
			<rect id="XMLID_5961_" x="95.2" y="112.5" class="st2" width="1.5" height="12.5"/>
			<rect id="XMLID_5960_" x="62" y="125" class="st2" width="1.5" height="0.1"/>
			<rect id="XMLID_5959_" x="69.4" y="125" class="st2" width="1.5" height="0.1"/>
			<rect id="XMLID_5958_" x="76.8" y="125" class="st2" width="1.5" height="0.1"/>
			<rect id="XMLID_5957_" x="84.2" y="125" class="st2" width="1.5" height="0.1"/>
			<rect id="XMLID_5956_" x="91.5" y="125" class="st2" width="1.5" height="0.1"/>
			<rect id="XMLID_5955_" x="65.7" y="125" class="st2" width="1.5" height="0.1"/>
			<rect id="XMLID_5954_" x="73.1" y="125" class="st2" width="1.5" height="0.1"/>
			<rect id="XMLID_5953_" x="80.5" y="125" class="st2" width="1.5" height="0.1"/>
			<rect id="XMLID_5952_" x="87.8" y="125" class="st2" width="1.5" height="0.1"/>
			<rect id="XMLID_5951_" x="95.2" y="125" class="st2" width="1.5" height="0.1"/>
			<rect id="XMLID_5950_" x="47.3" y="112.5" class="st2" width="1.5" height="12.5"/>
			<rect id="XMLID_5949_" x="54.6" y="112.5" class="st2" width="1.5" height="12.5"/>
			<path id="XMLID_5948_" class="st2" d="M45,123.4v-10.9h-0.9C44.2,116.2,44.5,119.9,45,123.4z"/>
			<rect id="XMLID_5947_" x="51" y="112.5" class="st2" width="1.5" height="12.5"/>
			<rect id="XMLID_5946_" x="58.3" y="112.5" class="st2" width="1.5" height="12.5"/>
			<rect id="XMLID_5945_" x="47.3" y="125" class="st2" width="1.5" height="0.1"/>
			<rect id="XMLID_5944_" x="54.6" y="125" class="st2" width="1.5" height="0.1"/>
			<rect id="XMLID_5943_" x="51" y="125" class="st2" width="1.5" height="0.1"/>
			<rect id="XMLID_5942_" x="58.3" y="125" class="st2" width="1.5" height="0.1"/>
			<polygon id="XMLID_5941_" class="st2" points="100.4,125.3 100.4,125.1 98.9,125.1 98.9,125.3 98.9,161.9 100.4,161.9 			"/>
			<polygon id="XMLID_5940_" class="st2" points="107.8,125.3 107.8,125.1 106.3,125.1 106.3,125.3 106.3,161.9 107.8,161.9 			"/>
			<polygon id="XMLID_5939_" class="st2" points="104.1,125.3 104.1,125.1 102.6,125.1 102.6,125.3 102.6,161.9 104.1,161.9 			"/>
			<polygon id="XMLID_5938_" class="st2" points="111.5,125.3 111.5,125.1 110,125.1 110,125.3 110,161.9 111.5,161.9 			"/>
			<rect id="XMLID_5937_" x="98.9" y="161.9" class="st2" width="1.5" height="0.1"/>
			<rect id="XMLID_5936_" x="106.3" y="161.9" class="st2" width="1.5" height="0.1"/>
			<rect id="XMLID_5935_" x="102.6" y="161.9" class="st2" width="1.5" height="0.1"/>
			<rect id="XMLID_5934_" x="110" y="161.9" class="st2" width="1.5" height="0.1"/>
			<path id="XMLID_5933_" class="st2" d="M62,125.3v33.3c0.5,0.5,1,1.1,1.5,1.6v-34.8v-0.1H62V125.3z"/>
			<polygon id="XMLID_5932_" class="st2" points="70.9,125.3 70.9,125.1 69.4,125.1 69.4,125.3 69.4,161.9 70.9,161.9 			"/>
			<polygon id="XMLID_5931_" class="st2" points="78.3,125.3 78.3,125.1 76.8,125.1 76.8,125.3 76.8,161.9 78.3,161.9 			"/>
			<polygon id="XMLID_5930_" class="st2" points="85.6,125.3 85.6,125.1 84.2,125.1 84.2,125.3 84.2,161.9 85.6,161.9 			"/>
			<polygon id="XMLID_5929_" class="st2" points="91.5,125.3 91.5,161.9 93,161.9 93,125.3 93,125.1 91.5,125.1 			"/>
			<polygon id="XMLID_5928_" class="st2" points="67.2,125.3 67.2,125.1 65.7,125.1 65.7,125.3 65.7,161.9 67.2,161.9 			"/>
			<polygon id="XMLID_5927_" class="st2" points="74.6,125.3 74.6,125.1 73.1,125.1 73.1,125.3 73.1,161.9 74.6,161.9 			"/>
			<polygon id="XMLID_5926_" class="st2" points="81.9,125.3 81.9,125.1 80.5,125.1 80.5,125.3 80.5,161.9 81.9,161.9 			"/>
			<polygon id="XMLID_5925_" class="st2" points="89.3,125.3 89.3,125.1 87.8,125.1 87.8,125.3 87.8,161.9 89.3,161.9 			"/>
			<polygon id="XMLID_5924_" class="st2" points="96.7,125.3 96.7,125.1 95.2,125.1 95.2,125.3 95.2,161.9 96.7,161.9 			"/>
			<rect id="XMLID_5923_" x="69.4" y="161.9" class="st2" width="1.5" height="0.1"/>
			<rect id="XMLID_5922_" x="76.8" y="161.9" class="st2" width="1.5" height="0.1"/>
			<rect id="XMLID_5921_" x="84.2" y="161.9" class="st2" width="1.5" height="0.1"/>
			<rect id="XMLID_5920_" x="91.5" y="161.9" class="st2" width="1.5" height="0.1"/>
			<rect id="XMLID_5919_" x="65.7" y="161.9" class="st2" width="1.5" height="0.1"/>
			<rect id="XMLID_5918_" x="73.1" y="161.9" class="st2" width="1.5" height="0.1"/>
			<rect id="XMLID_5917_" x="80.5" y="161.9" class="st2" width="1.5" height="0.1"/>
			<rect id="XMLID_5916_" x="87.8" y="161.9" class="st2" width="1.5" height="0.1"/>
			<rect id="XMLID_5915_" x="95.2" y="161.9" class="st2" width="1.5" height="0.1"/>
			<path id="XMLID_5914_" class="st2" d="M47.3,125.3v7.6c0.5,1.4,0.9,2.8,1.5,4.2v-11.8v-0.1h-1.5V125.3z"/>
			<path id="XMLID_5913_" class="st2" d="M54.6,125.3v23.6c0.5,0.8,1,1.5,1.5,2.2v-25.8v-0.1h-1.5V125.3z"/>
			<path id="XMLID_5912_" class="st2" d="M51,125.3v16.9c0.5,1,1,1.9,1.5,2.9v-19.8v-0.1H51V125.3z"/>
			<path id="XMLID_5911_" class="st2" d="M58.3,125.3v28.9c0.5,0.6,1,1.2,1.5,1.9v-30.7v-0.1h-1.5V125.3z"/>
			<path id="XMLID_5910_" class="st2" d="M100.4,162.2V162h-1.5v0.1v17.3c0.5,0.1,1,0.2,1.5,0.3V162.2z"/>
			<path id="XMLID_5909_" class="st2" d="M107.8,162h-1.5v0.1v18.4c0.5,0,1,0.1,1.5,0.1v-18.5V162z"/>
			<path id="XMLID_5908_" class="st2" d="M104.1,162h-1.5v0.1v17.9c0.5,0.1,1,0.1,1.5,0.2v-18.1V162z"/>
			<path id="XMLID_5907_" class="st2" d="M111.5,162H110v0.1v18.6c0.5,0,1,0,1.5,0v-18.6V162z"/>
			<path id="XMLID_5906_" class="st2" d="M70.9,162h-1.5v0.1v3.4c0.5,0.4,1,0.8,1.5,1.2v-4.5C70.9,162.2,70.9,162,70.9,162z"/>
			<path id="XMLID_5905_" class="st2" d="M78.3,162h-1.5v0.1v8.6c0.5,0.3,1,0.6,1.5,0.9v-9.5V162z"/>
			<path id="XMLID_5904_" class="st2" d="M85.6,162h-1.5v0.1v12.5c0.5,0.2,1,0.4,1.5,0.6v-13.2V162z"/>
			<path id="XMLID_5903_" class="st2" d="M91.5,162.2v15.4c0.5,0.2,1,0.3,1.5,0.5v-15.8V162h-1.5V162.2z"/>
			<path id="XMLID_5902_" class="st2" d="M67.2,162h-1.5v0.1v0.1c0.5,0.5,1,0.9,1.5,1.4v-1.5V162z"/>
			<path id="XMLID_5901_" class="st2" d="M74.6,162h-1.5v0.1v6.1c0.5,0.3,1,0.7,1.5,1v-7.2V162z"/>
			<path id="XMLID_5900_" class="st2" d="M81.9,162h-1.5v0.1v10.7c0.5,0.3,1,0.5,1.5,0.8v-11.5V162z"/>
			<path id="XMLID_5899_" class="st2" d="M89.3,162h-1.5v0.1v14.1c0.5,0.2,1,0.4,1.5,0.6v-14.6V162z"/>
			<path id="XMLID_5898_" class="st2" d="M96.7,162h-1.5v0.1v16.5c0.5,0.1,1,0.2,1.5,0.4v-16.8V162z"/>
		</g>
		<g id="XMLID_5846_">
			<path id="XMLID_5896_" class="st2" d="M68.3,96.3c-0.2-0.2-0.5-0.4-0.7-0.6v2.4h0.7V96.3z"/>
			<path id="XMLID_5895_" class="st2" d="M70,97.7v0.4h0.5C70.3,97.9,70.2,97.8,70,97.7z"/>
			<rect id="XMLID_5894_" x="67.6" y="98.1" class="st2" width="0.7" height="0.1"/>
			<path id="XMLID_5893_" class="st2" d="M70.5,98.1H70v0.1L70.5,98.1C70.6,98.1,70.5,98.1,70.5,98.1z"/>
			<path id="XMLID_5892_" class="st2" d="M48.7,88.2c-0.3,0.7-0.5,1.3-0.7,2v7.9h0.7V88.2z"/>
			<path id="XMLID_5891_" class="st2" d="M53.6,78.8c-0.1-0.1-0.2-0.3-0.2-0.4c-0.2,0.3-0.3,0.6-0.5,0.9v18.8h0.7V78.8z"/>
			<path id="XMLID_5890_" class="st2" d="M58.5,86c-0.2-0.3-0.5-0.7-0.7-1v13h0.7V86z"/>
			<path id="XMLID_5889_" class="st2" d="M63.4,91.7c-0.2-0.3-0.5-0.5-0.7-0.8v7.2h0.7V91.7z"/>
			<path id="XMLID_5888_" class="st2" d="M46.2,96c-0.2,0.7-0.3,1.4-0.5,2h0.5V96z"/>
			<path id="XMLID_5887_" class="st2" d="M51.1,82.5c-0.2,0.5-0.5,1-0.7,1.6v14h0.7V82.5z"/>
			<path id="XMLID_5886_" class="st2" d="M56,82.6c-0.2-0.4-0.5-0.7-0.7-1.1v16.5H56V82.6z"/>
			<path id="XMLID_5885_" class="st2" d="M60.9,89c-0.2-0.3-0.5-0.6-0.7-0.9v9.9h0.7V89z"/>
			<path id="XMLID_5884_" class="st2" d="M65.9,94.1c-0.2-0.2-0.5-0.5-0.7-0.7v4.7h0.7V94.1z"/>
			<rect id="XMLID_5883_" x="47.9" y="98.1" class="st2" width="0.7" height="0.1"/>
			<rect id="XMLID_5882_" x="52.8" y="98.1" class="st2" width="0.7" height="0.1"/>
			<rect id="XMLID_5881_" x="57.8" y="98.1" class="st2" width="0.7" height="0.1"/>
			<rect id="XMLID_5880_" x="62.7" y="98.1" class="st2" width="0.7" height="0.1"/>
			<path id="XMLID_5879_" class="st2" d="M46.2,98.1h-0.5c0,0,0,0.1,0,0.1L46.2,98.1L46.2,98.1z"/>
			<rect id="XMLID_5878_" x="50.4" y="98.1" class="st2" width="0.7" height="0.1"/>
			<rect id="XMLID_5877_" x="55.3" y="98.1" class="st2" width="0.7" height="0.1"/>
			<rect id="XMLID_5876_" x="60.2" y="98.1" class="st2" width="0.7" height="0.1"/>
			<rect id="XMLID_5875_" x="65.1" y="98.1" class="st2" width="0.7" height="0.1"/>
			<path id="XMLID_5874_" class="st2" d="M92.9,109.7c-0.2-0.1-0.5-0.1-0.7-0.2v3.1h0.7V109.7z"/>
			<path id="XMLID_5873_" class="st2" d="M97.1,110.8v1.8h0.7v-1.6C97.6,110.9,97.3,110.8,97.1,110.8z"/>
			<path id="XMLID_5872_" class="st2" d="M102,111.7v0.8h0.7v-0.7C102.5,111.8,102.3,111.7,102,111.7z"/>
			<path id="XMLID_5871_" class="st2" d="M106.9,112.3v0.2h0.7v-0.2C107.4,112.3,107.2,112.3,106.9,112.3z"/>
			<path id="XMLID_5870_" class="st2" d="M111.9,112.5L111.9,112.5l0.6,0C112.3,112.5,112.1,112.5,111.9,112.5z"/>
			<path id="XMLID_5869_" class="st2" d="M94.6,110.1v2.4h0.7v-2.2C95.1,110.3,94.9,110.2,94.6,110.1z"/>
			<path id="XMLID_5868_" class="st2" d="M99.6,111.3v1.2h0.7v-1.1C100.1,111.4,99.8,111.3,99.6,111.3z"/>
			<path id="XMLID_5867_" class="st2" d="M104.5,112v0.5h0.7v-0.4C105,112.1,104.7,112.1,104.5,112z"/>
			<path id="XMLID_5866_" class="st2" d="M109.4,112.4L109.4,112.4l0.7,0.1v0C109.9,112.4,109.6,112.4,109.4,112.4z"/>
			<polygon id="XMLID_5865_" class="st2" points="68.3,98.2 68.3,98.2 67.6,98.2 67.6,98.2 67.6,112.5 68.3,112.5 			"/>
			<path id="XMLID_5864_" class="st2" d="M72.5,99.6v12.9h0.7v-12.4C73,99.9,72.8,99.8,72.5,99.6z"/>
			<path id="XMLID_5863_" class="st2" d="M77.4,102.8v9.7h0.7v-9.2C77.9,103.1,77.7,103,77.4,102.8z"/>
			<path id="XMLID_5862_" class="st2" d="M82.3,105.5v7h0.7v-6.7C82.8,105.7,82.6,105.6,82.3,105.5z"/>
			<path id="XMLID_5861_" class="st2" d="M87.3,107.7v4.8H88V108C87.8,107.9,87.5,107.8,87.3,107.7z"/>
			<path id="XMLID_5860_" class="st2" d="M70.6,98.2h-0.6v0.1v14.3h0.7V98.3C70.7,98.2,70.7,98.2,70.6,98.2z"/>
			<path id="XMLID_5859_" class="st2" d="M75,101.3v11.2h0.7v-10.8C75.4,101.6,75.2,101.4,75,101.3z"/>
			<path id="XMLID_5858_" class="st2" d="M79.9,104.2v8.3h0.7v-7.9C80.4,104.5,80.1,104.4,79.9,104.2z"/>
			<path id="XMLID_5857_" class="st2" d="M84.8,106.6v5.9h0.7V107C85.3,106.9,85.1,106.8,84.8,106.6z"/>
			<path id="XMLID_5856_" class="st2" d="M89.7,108.6v3.9h0.7v-3.6C90.2,108.8,90,108.7,89.7,108.6z"/>
			<polygon id="XMLID_5855_" class="st2" points="48.7,98.2 47.9,98.2 47.9,98.2 47.9,112.5 48.7,112.5 48.7,98.2 			"/>
			<polygon id="XMLID_5854_" class="st2" points="53.6,98.2 52.8,98.2 52.8,98.2 52.8,112.5 53.6,112.5 53.6,98.2 			"/>
			<polygon id="XMLID_5853_" class="st2" points="58.5,98.2 57.8,98.2 57.8,98.2 57.8,112.5 58.5,112.5 58.5,98.2 			"/>
			<polygon id="XMLID_5852_" class="st2" points="62.7,98.2 62.7,98.2 62.7,112.5 63.4,112.5 63.4,98.2 63.4,98.2 			"/>
			<path id="XMLID_5851_" class="st2" d="M46.2,98.2h-0.5c-0.1,0.4-0.2,0.8-0.2,1.2v13.2h0.7L46.2,98.2
				C46.2,98.2,46.2,98.2,46.2,98.2z"/>
			<polygon id="XMLID_5850_" class="st2" points="51.1,98.2 50.4,98.2 50.4,98.2 50.4,112.5 51.1,112.5 51.1,98.2 			"/>
			<polygon id="XMLID_5849_" class="st2" points="56,98.2 55.3,98.2 55.3,98.2 55.3,112.5 56,112.5 56,98.2 			"/>
			<polygon id="XMLID_5848_" class="st2" points="60.9,98.2 60.2,98.2 60.2,98.2 60.2,112.5 60.9,112.5 60.9,98.2 			"/>
			<polygon id="XMLID_5847_" class="st2" points="65.9,98.2 65.1,98.2 65.1,98.2 65.1,112.5 65.9,112.5 65.9,98.2 			"/>
		</g>
		<g id="XMLID_5776_">
			<rect id="XMLID_5845_" x="100" y="56.3" class="st2" width="12.5" height="1.5"/>
			<rect id="XMLID_5844_" x="100" y="48.9" class="st2" width="12.5" height="1.5"/>
			<rect id="XMLID_5843_" x="100" y="52.6" class="st2" width="12.5" height="1.5"/>
			<path id="XMLID_5842_" class="st2" d="M100.6,45.2c-0.2,0-0.4,0.1-0.6,0.1v1.4h12.5v-1.5L100.6,45.2L100.6,45.2z"/>
			<rect id="XMLID_5841_" x="99.9" y="56.3" class="st2" width="0.1" height="1.5"/>
			<rect id="XMLID_5840_" x="99.9" y="48.9" class="st2" width="0.1" height="1.5"/>
			<rect id="XMLID_5839_" x="99.9" y="52.6" class="st2" width="0.1" height="1.5"/>
			<path id="XMLID_5838_" class="st2" d="M99.9,45.4v1.3h0.1v-1.4C99.9,45.3,99.9,45.3,99.9,45.4z"/>
			<rect id="XMLID_5837_" x="100" y="93.2" class="st2" width="12.5" height="1.5"/>
			<rect id="XMLID_5836_" x="100" y="85.8" class="st2" width="12.5" height="1.5"/>
			<rect id="XMLID_5835_" x="100" y="78.4" class="st2" width="12.5" height="1.5"/>
			<rect id="XMLID_5834_" x="100" y="71" class="st2" width="12.5" height="1.5"/>
			<rect id="XMLID_5833_" x="100" y="63.7" class="st2" width="12.5" height="1.5"/>
			<rect id="XMLID_5832_" x="100" y="89.5" class="st2" width="12.5" height="1.5"/>
			<rect id="XMLID_5831_" x="100" y="82.1" class="st2" width="12.5" height="1.5"/>
			<rect id="XMLID_5830_" x="100" y="74.7" class="st2" width="12.5" height="1.5"/>
			<rect id="XMLID_5829_" x="100" y="67.4" class="st2" width="12.5" height="1.5"/>
			<rect id="XMLID_5828_" x="100" y="60" class="st2" width="12.5" height="1.5"/>
			<rect id="XMLID_5827_" x="99.9" y="93.2" class="st2" width="0.1" height="1.5"/>
			<rect id="XMLID_5826_" x="99.9" y="85.8" class="st2" width="0.1" height="1.5"/>
			<rect id="XMLID_5825_" x="99.9" y="78.4" class="st2" width="0.1" height="1.5"/>
			<rect id="XMLID_5824_" x="99.9" y="71" class="st2" width="0.1" height="1.5"/>
			<rect id="XMLID_5823_" x="99.9" y="63.7" class="st2" width="0.1" height="1.5"/>
			<rect id="XMLID_5822_" x="99.9" y="89.5" class="st2" width="0.1" height="1.5"/>
			<rect id="XMLID_5821_" x="99.9" y="82.1" class="st2" width="0.1" height="1.5"/>
			<rect id="XMLID_5820_" x="99.9" y="74.7" class="st2" width="0.1" height="1.5"/>
			<rect id="XMLID_5819_" x="99.9" y="67.4" class="st2" width="0.1" height="1.5"/>
			<rect id="XMLID_5818_" x="99.9" y="60" class="st2" width="0.1" height="1.5"/>
			<rect id="XMLID_5817_" x="100" y="107.9" class="st2" width="12.5" height="1.5"/>
			<rect id="XMLID_5816_" x="100" y="100.6" class="st2" width="12.5" height="1.5"/>
			<path id="XMLID_5815_" class="st2" d="M101.6,111.6c3.6,0.6,7.2,0.9,10.9,0.9v-0.9H101.6z"/>
			<rect id="XMLID_5814_" x="100" y="104.2" class="st2" width="12.5" height="1.5"/>
			<rect id="XMLID_5813_" x="100" y="96.9" class="st2" width="12.5" height="1.5"/>
			<rect id="XMLID_5812_" x="99.9" y="107.9" class="st2" width="0.1" height="1.5"/>
			<rect id="XMLID_5811_" x="99.9" y="100.6" class="st2" width="0.1" height="1.5"/>
			<rect id="XMLID_5810_" x="99.9" y="104.2" class="st2" width="0.1" height="1.5"/>
			<rect id="XMLID_5809_" x="99.9" y="96.9" class="st2" width="0.1" height="1.5"/>
			<path id="XMLID_5808_" class="st2" d="M99.7,56.3H73.7c-0.7,0.5-1.4,1-2.1,1.5h28.1h0.1v-1.5H99.7z"/>
			<path id="XMLID_5807_" class="st2" d="M99.7,48.9H87.5c-1.2,0.5-2.3,1-3.5,1.5h15.7h0.1v-1.5H99.7z"/>
			<path id="XMLID_5806_" class="st2" d="M99.7,52.6H79.6c-0.9,0.5-1.7,1-2.5,1.5h22.7h0.1v-1.5H99.7z"/>
			<path id="XMLID_5805_" class="st2" d="M94.1,46.7h5.7h0.1v-1.3C97.9,45.7,96,46.2,94.1,46.7z"/>
			<path id="XMLID_5804_" class="st2" d="M99.7,93.2H64.9c0.5,0.5,1,1,1.6,1.5h33.3h0.1v-1.5H99.7z"/>
			<polygon id="XMLID_5803_" class="st2" points="99.7,85.8 63.1,85.8 63.1,87.3 99.7,87.3 99.9,87.3 99.9,85.8 			"/>
			<polygon id="XMLID_5802_" class="st2" points="99.7,78.4 63.1,78.4 63.1,79.9 99.7,79.9 99.9,79.9 99.9,78.4 			"/>
			<polygon id="XMLID_5801_" class="st2" points="99.7,71 63.1,71 63.1,72.5 99.7,72.5 99.9,72.5 99.9,71 			"/>
			<path id="XMLID_5800_" class="st2" d="M99.7,63.7h-35c-0.5,0.5-1,1-1.5,1.5h36.5h0.1v-1.5C99.9,63.7,99.7,63.7,99.7,63.7z"/>
			<polygon id="XMLID_5799_" class="st2" points="99.7,89.5 63.1,89.5 63.1,91 99.7,91 99.9,91 99.9,89.5 			"/>
			<polygon id="XMLID_5798_" class="st2" points="99.7,82.1 63.1,82.1 63.1,83.6 99.7,83.6 99.9,83.6 99.9,82.1 			"/>
			<polygon id="XMLID_5797_" class="st2" points="99.7,74.7 63.1,74.7 63.1,76.2 99.7,76.2 99.9,76.2 99.9,74.7 			"/>
			<polygon id="XMLID_5796_" class="st2" points="99.7,67.4 63.1,67.4 63.1,68.8 99.7,68.8 99.9,68.8 99.9,67.4 			"/>
			<path id="XMLID_5795_" class="st2" d="M99.7,60H68.8c-0.6,0.5-1.2,1-1.7,1.5h32.6h0.1V60H99.7z"/>
			<rect id="XMLID_5794_" x="63" y="85.8" class="st2" width="0.1" height="1.5"/>
			<rect id="XMLID_5793_" x="63" y="78.4" class="st2" width="0.1" height="1.5"/>
			<rect id="XMLID_5792_" x="63" y="71" class="st2" width="0.1" height="1.5"/>
			<rect id="XMLID_5791_" x="63" y="89.5" class="st2" width="0.1" height="1.5"/>
			<rect id="XMLID_5790_" x="63" y="82.1" class="st2" width="0.1" height="1.5"/>
			<rect id="XMLID_5789_" x="63" y="74.7" class="st2" width="0.1" height="1.5"/>
			<rect id="XMLID_5788_" x="63" y="67.4" class="st2" width="0.1" height="1.5"/>
			<path id="XMLID_5787_" class="st2" d="M99.7,107.9H87.9c1.4,0.5,2.8,1,4.2,1.5h7.6h0.1v-1.5H99.7z"/>
			<path id="XMLID_5786_" class="st2" d="M99.7,100.6H73.9c0.7,0.5,1.5,1,2.2,1.5h23.6h0.1v-1.5H99.7z"/>
			<path id="XMLID_5785_" class="st2" d="M99.7,104.2H79.9c0.9,0.5,1.9,1,2.9,1.5h16.9h0.1v-1.5H99.7z"/>
			<path id="XMLID_5784_" class="st2" d="M99.7,96.9H69c0.6,0.5,1.2,1,1.8,1.5h28.9h0.1v-1.5H99.7z"/>
			<path id="XMLID_5783_" class="st2" d="M62.8,85.8h-4.5c0.4,0.5,0.8,1,1.2,1.5h3.3H63v-1.5H62.8z"/>
			<path id="XMLID_5782_" class="st2" d="M62.8,78.4h-9.5c0.3,0.5,0.6,1,0.9,1.5h8.6H63v-1.5H62.8z"/>
			<path id="XMLID_5781_" class="st2" d="M62.8,71h-4.7c-0.4,0.5-0.7,1-1.1,1.5h5.7H63V71H62.8z"/>
			<path id="XMLID_5780_" class="st2" d="M62.8,89.5h-1.5c0.4,0.5,0.9,1,1.3,1.5h0.1H63v-1.5H62.8z"/>
			<path id="XMLID_5779_" class="st2" d="M62.8,82.1h-7.2c0.3,0.5,0.7,1,1,1.5h6.2H63v-1.5H62.8z"/>
			<path id="XMLID_5778_" class="st2" d="M62.8,74.7h-7.3c-0.3,0.5-0.6,1-1,1.5h8.2H63v-1.5H62.8z"/>
			<path id="XMLID_5777_" class="st2" d="M62.8,67.4h-1.6c-0.4,0.5-0.8,1-1.3,1.5h2.9H63v-1.5H62.8z"/>
		</g>
	</g>
</g>
</svg>
