<?xml version="1.0" encoding="utf-8"?>
<!-- Generator: Adobe Illustrator 26.2.1, SVG Export Plug-In . SVG Version: 6.00 Build 0)  -->
<svg version="1.1" xmlns="http://www.w3.org/2000/svg" xmlns:xlink="http://www.w3.org/1999/xlink" x="0px" y="0px"
	 viewBox="0 0 225 225" style="enable-background:new 0 0 225 225;" xml:space="preserve">
<style type="text/css">
	.st0{display:none;}
	.st1{display:inline;fill:#FAB433;}
	.st2{fill:none;}
	.st3{fill:none;stroke:#000000;stroke-width:1.6;stroke-miterlimit:10;}
	.st4{fill:none;stroke:#000000;stroke-width:0.7265;stroke-miterlimit:10;}
	.st5{fill:none;stroke:#000000;stroke-linecap:round;stroke-linejoin:round;stroke-miterlimit:10;}
	.st6{fill:none;stroke:#000000;stroke-miterlimit:10;}
	.st7{fill:none;stroke:#000000;stroke-width:0.7105;stroke-miterlimit:10;}
	.st8{fill:none;stroke:#000000;stroke-width:5.4;stroke-linecap:round;stroke-linejoin:round;stroke-miterlimit:10;}
	.st9{fill:none;stroke:#000000;stroke-width:2.9309;stroke-linecap:round;stroke-linejoin:round;stroke-miterlimit:10;}
	.st10{fill:none;stroke:#000000;stroke-width:0.5;stroke-linecap:round;stroke-linejoin:round;}
	.st11{fill:none;stroke:#FFFFFF;stroke-width:0;stroke-linecap:round;stroke-linejoin:round;}
	.st12{fill:#FFFFFF;}
	.st13{fill:none;stroke:#000000;stroke-width:1.4;stroke-miterlimit:10;}
	.st14{fill:url(#);stroke:#000000;stroke-width:1.4387;stroke-miterlimit:10;}
	.st15{fill:url(#);stroke:#000000;stroke-width:1.3718;stroke-miterlimit:10;}
	.st16{fill:none;stroke:#000000;stroke-width:1.0041;stroke-miterlimit:10;}
	.st17{fill:none;stroke:#000000;stroke-width:1.3621;stroke-miterlimit:10;}
	.st18{fill:none;stroke:#000000;stroke-width:0.25;stroke-miterlimit:10;}
</style>
<g id="Layer_2" class="st0">
	<rect id="XMLID_1014_" x="-835.99" y="-520.01" class="st1" width="1160" height="772"/>
</g>
<g id="Layer_1">
	<g id="XMLID_1453_">
		<path d="M84.4,87.32l3.51,3.51c0.46-0.52,0.92-1.03,1.42-1.52c0.58-0.58,1.17-1.12,1.78-1.64l-3.53-3.53l-0.3-0.3L67.89,64.45
			c-0.59,0.55-1.18,1.09-1.76,1.67c-0.49,0.49-0.96,1-1.43,1.51l19.39,19.39L84.4,87.32z M63.43,69.01l0.02,0.02
			c0.41-0.47,0.82-0.94,1.25-1.39C64.27,68.09,63.84,68.54,63.43,69.01z M79.59,91.52l0.3,0.3l4.24,4.24
			c0.76-1.31,1.62-2.57,2.57-3.79l-3.63-3.63l-0.3-0.3L63.45,69.02c-1.01,1.13-1.98,2.28-2.89,3.47L79.59,91.52z M56.85,77.81
			c-0.09,0.14-0.17,0.28-0.26,0.42C56.68,78.09,56.77,77.95,56.85,77.81L56.85,77.81z M75.38,96.33l5.97,5.97
			c0.5-1.54,1.12-3.05,1.85-4.51l-4.64-4.64l-0.3-0.3L59.41,74c-0.9,1.25-1.74,2.52-2.55,3.81l18.22,18.22L75.38,96.33z
			 M70.57,100.54l0.3,0.3l8.97,8.97c0.15-1.84,0.45-3.66,0.91-5.45l-6.7-6.7l-0.3-0.3L55.86,79.47c-0.79,1.36-1.54,2.74-2.23,4.14
			L70.57,100.54z M55.85,79.46l0.01,0.01c0.11-0.19,0.22-0.39,0.33-0.58C56.08,79.08,55.96,79.27,55.85,79.46z M56.19,78.89
			c0.13-0.22,0.27-0.44,0.41-0.66C56.46,78.45,56.32,78.67,56.19,78.89z M73.06,60.12c0.41-0.31,0.83-0.62,1.25-0.92l-0.01-0.01
			C73.89,59.49,73.47,59.8,73.06,60.12z M88.6,82.51l0.3,0.3l3.67,3.67c1.23-0.94,2.51-1.79,3.83-2.53l-4.31-4.31l-0.3-0.3l-19-19
			c0.09-0.07,0.19-0.14,0.28-0.21c-1.29,0.97-2.55,1.99-3.78,3.07L88.6,82.51z M78.63,56.35c0.39-0.23,0.77-0.46,1.16-0.69
			l-0.01-0.01C79.4,55.88,79.01,56.12,78.63,56.35z M93.11,78l0.3,0.3l4.73,4.73c1.48-0.72,3-1.33,4.55-1.81l-6.1-6.1l-0.3-0.3
			L78.13,56.65c0.17-0.1,0.33-0.2,0.5-0.3c-1.47,0.89-2.91,1.83-4.32,2.85L93.11,78z M100.8,70.31L83.95,53.46
			c-1.41,0.68-2.79,1.42-4.16,2.2l17.83,17.83l0.3,0.3l6.84,6.84c1.82-0.44,3.67-0.72,5.52-0.84l-9.18-9.18L100.8,70.31z
			 M105.31,65.8L90.32,50.81c-1.53,0.55-3.06,1.14-4.56,1.81l16.37,16.37l0.3,0.3l10.43,10.43c2.43,0.03,4.86,0.32,7.24,0.88
			l-14.5-14.5L105.31,65.8z M90.3,50.79l0.02,0.02c0.65-0.23,1.3-0.48,1.96-0.69C91.61,50.33,90.95,50.55,90.3,50.79z M98.55,48.43
			c-0.01,0-0.01,0-0.02,0C98.54,48.43,98.55,48.43,98.55,48.43z M97.27,48.74c0.42-0.1,0.84-0.22,1.27-0.31
			c-0.43,0.09-0.86,0.18-1.29,0.28L97.27,48.74z M114.33,56.78l-9.41-9.41c-1.84,0.21-3.66,0.52-5.48,0.89l11.71,11.71l0.3,0.3
			l35.93,35.93l3.18-3.18l-35.93-35.93L114.33,56.78z M106.64,64.47l0.3,0.3l16.98,16.98c4.3,1.59,8.34,4.1,11.79,7.56
			c3.29,3.29,5.75,7.14,7.38,11.18l2.96-2.96l-35.93-35.93l-0.3-0.3L97.27,48.74c-1.67,0.4-3.34,0.84-4.98,1.38L106.64,64.47z
			 M98.55,48.43c0.29-0.06,0.59-0.11,0.88-0.17l-0.02-0.02C99.13,48.3,98.84,48.37,98.55,48.43z M50.28,91.82
			c0.17-0.52,0.35-1.03,0.54-1.54C50.63,90.78,50.45,91.3,50.28,91.82z M50.94,89.92c-0.04,0.12-0.08,0.23-0.12,0.35
			C50.86,90.16,50.9,90.05,50.94,89.92L50.94,89.92z M66.36,105.35l14.12,14.12c-0.51-2.34-0.76-4.73-0.75-7.11l-10.18-10.18
			l-0.3-0.3L52.78,85.4c-0.67,1.49-1.28,3-1.84,4.53l15.12,15.12L66.36,105.35z M81.49,123.14l-16.46-16.46l-0.3-0.3L50.25,91.9
			c-0.54,1.63-1.03,3.27-1.43,4.93l12.73,12.73l0.3,0.3l35.93,35.93l2.72-2.72c-4.03-1.62-7.89-4.08-11.18-7.38
			C85.67,132.04,83.06,127.72,81.49,123.14z M50.25,91.9L50.25,91.9c0.01-0.03,0.02-0.05,0.03-0.08
			C50.27,91.84,50.26,91.87,50.25,91.9z M118.84,52.28l-5.34-5.34c-2.06-0.03-4.11,0.04-6.17,0.2l8.32,8.32l0.3,0.3l35.93,35.93
			l3.18-3.18l-35.93-35.93L118.84,52.28z M60.23,110.89L48.34,99c-0.38,1.81-0.68,3.63-0.9,5.46l9.6,9.6l0.3,0.3l35.93,35.93
			l3.18-3.18l-35.93-35.93L60.23,110.89z M123.42,47.84c-2.38-0.4-4.77-0.67-7.17-0.81l3.92,3.92l0.3,0.3l35.93,35.93l-1.33,1.33
			l4.51-4.51l-35.93-35.93L123.42,47.84z M158.9,66.12c-5.55-5.55-11.84-9.89-18.57-13.03l25.08,25.08l1.84-1.84
			C164.88,72.75,162.1,69.32,158.9,66.12z M135.77,51.17c-2.96-1.12-5.99-2.02-9.06-2.7l34.19,34.19L159.58,84l5.84-5.84l-1.33,1.33
			L135.77,51.17z M66.13,158.88c3.2,3.2,6.63,5.98,10.2,8.35l2.08-2.08l-25.71-25.71C55.88,146.49,60.35,153.1,66.13,158.88z
			 M50.89,134.97l28.85,28.85l3.18-3.18l-34.57-34.57C48.99,129.08,49.83,132.05,50.89,134.97z M51.21,119.9l-4.2-4.2
			c0.12,2.38,0.37,4.75,0.75,7.11l0.27,0.27l0.3,0.3l35.93,35.93l3.18-3.18L51.51,120.2L51.21,119.9z M55.72,115.39l-8.53-8.53
			c-0.17,2.04-0.26,4.08-0.24,6.12l5.59,5.59l0.3,0.3l35.93,35.93l3.18-3.18L56.02,115.7L55.72,115.39z M52.7,139.43
			c-0.66-1.46-1.26-2.95-1.8-4.45C51.44,136.48,52.04,137.96,52.7,139.43z"/>
		<path id="XMLID_1454_" d="M135.71,135.69c-9.51,9.51-23.42,11.92-35.21,7.38l-24.17,24.17c25.46,16.84,60.16,14.05,82.56-8.35
			s25.19-57.1,8.35-82.56l-24.17,24.17C147.63,112.27,145.22,126.18,135.71,135.69z"/>
	</g>
</g>
</svg>
