<?xml version="1.0" encoding="utf-8"?>
<!-- Generator: Adobe Illustrator 26.2.1, SVG Export Plug-In . SVG Version: 6.00 Build 0)  -->
<svg version="1.1" xmlns="http://www.w3.org/2000/svg" xmlns:xlink="http://www.w3.org/1999/xlink" x="0px" y="0px"
	 viewBox="0 0 225 225" style="enable-background:new 0 0 225 225;" xml:space="preserve">
<style type="text/css">
	.st0{display:none;}
	.st1{display:inline;fill:#FAB433;}
	.st2{fill:none;}
	.st3{fill:none;stroke:#000000;stroke-width:1.6;stroke-miterlimit:10;}
	.st4{fill:none;stroke:#000000;stroke-width:0.7265;stroke-miterlimit:10;}
	.st5{fill:none;stroke:#000000;stroke-linecap:round;stroke-linejoin:round;stroke-miterlimit:10;}
	.st6{fill:none;stroke:#000000;stroke-miterlimit:10;}
	.st7{fill:none;stroke:#000000;stroke-width:0.7105;stroke-miterlimit:10;}
	.st8{fill:none;stroke:#000000;stroke-width:5.4;stroke-linecap:round;stroke-linejoin:round;stroke-miterlimit:10;}
	.st9{fill:none;stroke:#000000;stroke-width:2.9309;stroke-linecap:round;stroke-linejoin:round;stroke-miterlimit:10;}
	.st10{fill:none;stroke:#000000;stroke-width:0.5;stroke-linecap:round;stroke-linejoin:round;}
	.st11{fill:none;stroke:#FFFFFF;stroke-width:0;stroke-linecap:round;stroke-linejoin:round;}
	.st12{fill:#FFFFFF;}
	.st13{fill:none;stroke:#000000;stroke-width:1.4;stroke-miterlimit:10;}
	.st14{fill:url(#);stroke:#000000;stroke-width:1.4387;stroke-miterlimit:10;}
	.st15{fill:url(#);stroke:#000000;stroke-width:1.3718;stroke-miterlimit:10;}
	.st16{fill:none;stroke:#000000;stroke-width:1.0041;stroke-miterlimit:10;}
	.st17{fill:none;stroke:#000000;stroke-width:1.3621;stroke-miterlimit:10;}
	.st18{fill:none;stroke:#000000;stroke-width:0.25;stroke-miterlimit:10;}
</style>
<g id="Layer_2" class="st0">
	<rect id="XMLID_1_" x="-345.99" y="-30.01" class="st1" width="1160" height="772"/>
</g>
<g id="Layer_1">
	<path id="XMLID_14389_" d="M129.48,179.3c0.04-0.01,0.08-0.03,0.13-0.04c-0.87,0.22-1.74,0.42-2.62,0.6
		C127.83,179.71,128.66,179.54,129.48,179.3L129.48,179.3z M106.8,44.38c-1.65,0.12-3.31,0.28-4.94,0.6
		c0.1-0.01,0.19-0.02,0.29-0.03c-3.59,0.57-7.24,1.36-10.68,2.57c-3.42,1.21-6.73,2.68-10.01,4.22c2.16-1.01,4.35-1.96,6.55-2.86
		c-0.08,0.05-0.16,0.1-0.24,0.15c2.89-0.46,5.55-1.85,8.35-2.64c1.16-0.33,2.32-0.63,3.5-0.87c0.64-0.13,1.27-0.25,1.91-0.37
		c0.39-0.07,0.78-0.15,1.18-0.22c0.13-0.02,0.27-0.05,0.4-0.07c0.02,0,0.63-0.09,0.25-0.05c0.24-0.04,0.48-0.08,0.72-0.12
		c-0.2,0.03-0.4,0.07-0.6,0.1c3.16-0.34,6.33-0.59,9.51-0.71C110.93,44.17,108.86,44.13,106.8,44.38L106.8,44.38z M104.26,44.67
		C104.28,44.66,104.38,44.65,104.26,44.67L104.26,44.67z M128.14,45.76c0.57,0.13,1.14,0.28,1.71,0.41
		c-0.95-0.24-1.89-0.48-2.86-0.66C127.38,45.6,127.76,45.68,128.14,45.76L128.14,45.76z M118.75,44.33
		c0.13,0.01,0.25,0.02,0.38,0.03c-2.03-0.18-4.09-0.36-6.13-0.28C114.92,44.08,116.84,44.17,118.75,44.33L118.75,44.33z
		 M130.92,46.45c-0.18-0.05-0.36-0.09-0.54-0.14c0.41,0.11,0.83,0.22,1.24,0.33C131.39,46.58,131.16,46.51,130.92,46.45
		L130.92,46.45z M124.33,180.36c-0.07,0.01-0.13,0.03-0.2,0.04c0.21-0.03,0.42-0.07,0.63-0.11
		C124.61,180.31,124.47,180.33,124.33,180.36L124.33,180.36z M121.09,44.56c1.01,0.12,2.02,0.29,3.03,0.42
		c-1.34-0.27-2.7-0.42-4.06-0.54C120.4,44.48,120.75,44.52,121.09,44.56L121.09,44.56z M124.25,45.01c0.15,0.02,0.3,0.05,0.45,0.07
		c-0.19-0.03-0.38-0.06-0.57-0.1C124.17,44.99,124.21,45,124.25,45.01L124.25,45.01z M123.86,180.44c-1.26,0.2-2.53,0.37-3.8,0.5
		c1.36-0.12,2.73-0.27,4.07-0.54C124.04,180.41,123.95,180.42,123.86,180.44L123.86,180.44z M49.13,91.07
		c-0.6-0.48-1.46,1.49-1.61,1.83c-0.58,1.37-0.96,2.84-1.29,4.29c-0.38,1.66-0.73,3.34-1.01,5.02c-0.22,1.37-0.42,2.78-0.33,4.17
		c0.02,0.36,0.25,2.17,0.98,1.69c0.42-0.31,0.68-0.87,0.9-1.33c0.34-0.72,0.61-1.49,0.85-2.25c0.95-3.02,1.58-6.19,1.85-9.34
		c0.08-0.91,0.13-1.83,0.05-2.73C49.49,92,49.46,91.36,49.13,91.07L49.13,91.07z M164.2,134.34c1.2,0.18,2.52-0.64,3.36-1.41
		c1.1-1.01,1.89-2.35,2.47-3.71c1.09-2.58,1.55-5.68,0.79-8.41c-0.54-1.94-2.02-3.98-4.29-3.54c-2.34,0.45-3.99,2.87-4.86,4.91
		c-0.92,2.14-1.35,4.56-1.13,6.88C160.73,131.15,161.69,134.15,164.2,134.34L164.2,134.34z M97.84,83.03
		c2.75-0.13,5.3-1.34,6.97-3.55c1.7-2.26,2.06-5.48,0.46-7.89c-1.56-2.36-4.53-3.27-7.21-2.5c-2.89,0.83-5.39,3.33-6.2,6.23
		c-0.5,1.78-0.33,3.76,0.78,5.28C93.9,82.29,95.81,82.92,97.84,83.03L97.84,83.03z M160.24,72.22c-1.04-1.12-2.23-2.14-3.6-2.83
		c-1-0.5-2.54-0.98-3.35,0.09c-0.59,0.75-0.58,1.85-0.46,2.75c0.18,1.31,0.64,2.59,1.21,3.77c1.24,2.57,3.13,5.15,5.75,6.44
		c1.11,0.55,2.74,0.99,3.71-0.07c0.88-0.97,0.74-2.45,0.47-3.63C163.4,76.29,161.94,74.04,160.24,72.22L160.24,72.22z M52.14,81.68
		c-0.1,0.27-0.5,1.23-0.02,1.35c0.31-0.08,0.55-0.26,0.78-0.47c0.81-0.73,1.49-1.63,2.14-2.51c1.72-2.32,3.25-4.79,4.64-7.32
		c0.35-0.63,0.68-1.27,0.98-1.92c0.24-0.52,0.58-1.13,0.59-1.71c0.02-0.82-1.71,0.85-1.88,1.03c-2.1,2.22-3.81,4.94-5.33,7.59
		C53.33,78.98,52.6,80.29,52.14,81.68L52.14,81.68z M60.41,76.18c-0.68,1.27-1.28,2.65-1.43,4.09c-0.12,1.11,0.17,2.64,1.52,2.77
		c1.01,0.09,2.02-0.49,2.81-1.05c1.07-0.75,2-1.7,2.81-2.71c1.68-2.08,3.1-4.62,3.62-7.26c0.18-0.92,0.34-2.44-0.62-3
		c-1.01-0.59-2.43,0.27-3.25,0.83C63.57,71.42,61.72,73.75,60.41,76.18L60.41,76.18z M71.46,133.43c2.19,1.33,4.94,1.25,6.84-0.53
		c1.92-1.8,2.48-4.64,2.19-7.17c-0.32-2.77-1.74-5.61-4.07-7.22c-2.35-1.63-5.4-1.8-7.51,0.31
		C64.89,122.84,66.75,130.78,71.46,133.43L71.46,133.43z M67.03,62.59c1.09-0.45,2.08-1.27,3.02-1.97c1.2-0.88,2.38-1.79,3.56-2.7
		c1.79-1.37,3.57-2.74,5.35-4.12c0.39-0.3,0.83-0.59,1.18-0.94c0.22-0.22-0.38-0.02-0.47,0.01c-0.57,0.22-1.12,0.51-1.65,0.81
		c-2.57,1.46-5,3.22-7.33,5.04c-1.01,0.79-2.01,1.61-2.93,2.5c-0.29,0.28-0.58,0.58-0.82,0.91C66.8,62.36,66.53,62.79,67.03,62.59
		L67.03,62.59z M139.76,172.61c1.29-0.2,2.57-0.88,3.7-1.51c1.32-0.73,2.6-1.56,3.78-2.5c1.08-0.86,2.11-1.81,2.94-2.91
		c0.43-0.57,1.68-2.32,0.55-2.85c-1.05-0.49-2.61,0.37-3.53,0.86c-1.21,0.65-2.33,1.48-3.38,2.36c-1.04,0.88-2.02,1.83-2.93,2.84
		c-0.76,0.86-1.89,1.98-2.11,3.14C138.66,172.66,139.33,172.68,139.76,172.61L139.76,172.61z M139.5,156.51
		c1.36,0.16,2.89-0.44,4.04-1.11c1.29-0.75,2.43-1.8,3.33-2.98c1.67-2.18,3.08-5.63,1.42-8.2c-1.51-2.37-4.72-2.2-6.95-1.09
		c-2.58,1.28-4.62,3.7-5.38,6.48c-0.4,1.47-0.49,3.14,0.15,4.56C136.74,155.53,138.01,156.42,139.5,156.51L139.5,156.51z
		 M56.15,133.72c1.13,0.78,2.5,0.91,3.52-0.11c0.88-0.87,1.27-2.15,1.45-3.34c0.46-2.95-0.14-6.2-1.42-8.88
		c-0.82-1.72-2.45-4.32-4.68-4.18c-1.26,0.08-2.18,1.21-2.64,2.3c-0.49,1.17-0.63,2.47-0.62,3.73c0.02,2.05,0.45,4.13,1.19,6.05
		C53.61,130.98,54.59,132.73,56.15,133.72L56.15,133.72z M92,150.55c1.64,4.94,8.7,8.42,12.71,3.98c1.8-1.99,2.03-5,0.86-7.37
		c-1.32-2.69-4.1-4.52-7.06-4.8c-2.09-0.2-4.16,0.5-5.56,2.08C91.44,146.12,91.31,148.48,92,150.55L92,150.55z M131.42,127.39
		c0.61-2.87-0.18-5.92-2.35-7.94c-2.07-1.93-5.07-2.68-7.82-2.03c-2.84,0.66-5.37,2.77-6.44,5.49c-0.98,2.48-0.75,5.39,0.71,7.64
		c2.05,3.15,6.09,4.57,9.68,3.54C128.35,133.18,130.74,130.59,131.42,127.39L131.42,127.39z M105.43,52.78
		c-2.75-0.4-5.53,1.69-6.94,3.9c-0.65,1.03-1.09,2.28-0.81,3.51c0.3,1.33,1.49,2.13,2.77,2.36c2.62,0.48,5.6-0.89,7.02-3.14
		c1.26-2,1.33-5.3-1.17-6.38C106.03,52.91,105.73,52.82,105.43,52.78L105.43,52.78z M85.06,52.78c-0.4-0.16-0.97,0.07-1.35,0.19
		c-0.7,0.22-1.37,0.53-2.02,0.86c-1.49,0.75-2.91,1.65-4.26,2.63c-1.24,0.9-2.4,1.9-3.43,3.02c-0.44,0.48-2.15,2.32-1.26,3.04
		c0.82,0.66,2.65-0.47,3.35-0.86c1.32-0.73,2.53-1.64,3.7-2.6c0.96-0.79,1.88-1.63,2.77-2.51c0.83-0.83,1.73-1.7,2.34-2.71
		C85.05,53.61,85.5,52.95,85.06,52.78L85.06,52.78z M146.85,72.92c-1.71-2.24-4.71-4.53-7.7-4.05c-3.13,0.5-3.85,4.04-3.23,6.67
		c0.66,2.8,2.65,5.36,5.26,6.62c2.4,1.16,5.76,1.43,7.26-1.26C149.85,78.32,148.5,75.04,146.85,72.92L146.85,72.92z M128.59,74.25
		c-0.92-2.45-3.05-4.4-5.55-5.15c-2.71-0.81-5.58,0.01-7.42,2.17c-1.74,2.04-2.06,4.94-0.86,7.33c1.32,2.65,4.26,4.36,7.19,4.44
		c2.12,0.06,4.42-0.72,5.78-2.4C129.2,78.84,129.39,76.37,128.59,74.25L128.59,74.25z M179.98,119.2c-0.12-0.81-0.62-2.67-1.77-1.72
		c-0.9,0.75-1.42,1.9-1.84,2.96c-0.58,1.47-0.99,3.02-1.3,4.57c-0.33,1.62-0.63,3.26-0.74,4.91c-0.07,1.16-0.13,2.51,0.36,3.6
		c0.38,0.85,1.11,1.08,1.78,0.41c0.73-0.73,1.18-1.74,1.57-2.67c0.59-1.41,1.02-2.9,1.35-4.39
		C179.96,124.41,180.36,121.71,179.98,119.2L179.98,119.2z M158.31,162.79c-0.31-0.15-0.68,0.09-0.96,0.23
		c-0.54,0.27-1.06,0.59-1.57,0.92c-1.38,0.89-2.71,1.86-4.02,2.85c-1.47,1.11-2.94,2.25-4.36,3.43c-0.58,0.48-1.16,0.98-1.69,1.51
		c-0.23,0.23-0.64,0.56-0.7,0.9c0.4,0.1,1.04-0.29,1.39-0.45c0.66-0.31,1.31-0.66,1.94-1.02c1.38-0.78,2.72-1.64,4.01-2.57
		c1.29-0.91,2.53-1.89,3.7-2.95C156.3,165.41,158.79,163.06,158.31,162.79L158.31,162.79z M114.47,170.76
		c1.45,2.34,4.47,2.24,6.6,0.97c2.13-1.27,4.2-4.12,3.17-6.68c-1-2.47-4.27-2.71-6.46-1.94c-2.57,0.9-4.65,3.5-3.91,6.33
		C113.99,169.9,114.19,170.35,114.47,170.76L114.47,170.76z M82.65,168.94c-2.06-2.07-4.35-4.06-6.95-5.42
		c-0.56-0.29-2.72-1.47-3.14-0.4c-0.36,0.92,0.83,2.12,1.38,2.7c2.11,2.26,4.79,4.22,7.52,5.65c0.57,0.3,1.15,0.57,1.75,0.79
		c0.41,0.15,1.41,0.63,1.86,0.34c0.71-0.35-1.13-2.31-1.36-2.56C83.36,169.66,83.01,169.3,82.65,168.94L82.65,168.94z
		 M111.07,179.32c-0.48-1.31-1.67-2.3-2.98-2.72c-0.72-0.23-3.02-0.6-2.83,0.81c0.09,0.66,0.75,1.21,1.25,1.59
		c0.68,0.5,1.45,0.91,2.23,1.22c0.66,0.26,1.37,0.49,2.09,0.52C111.48,180.67,111.21,179.72,111.07,179.32L111.07,179.32z
		 M105.47,180.71c-0.16,0.03-0.56-0.14-0.76-0.19c-0.27-0.07-0.54-0.13-0.81-0.2c-0.43-0.11-0.87-0.21-1.3-0.33
		c-0.94-0.24-1.88-0.53-2.8-0.85c-2.54-0.85-5.02-1.98-7.61-2.65c-0.27-0.07-0.66-0.2-0.94-0.13c-0.33,0.06,0.28,0.5,0.4,0.57
		c0.67,0.44,1.44,0.73,2.19,1.01c2.25,0.85,4.59,1.51,6.93,2.06c-2.39-0.42-4.72-1.01-7.04-1.73c-1.13-0.35-2.25-0.73-3.37-1.11
		c-0.83-0.28-1.71-0.68-2.58-0.82c0.21,0.29,0.99,0.51,1.38,0.66c0.65,0.26,1.3,0.49,1.96,0.72c1.56,0.53,3.13,0.99,4.72,1.4
		c2.76,0.71,5.59,1.3,8.43,1.6c-0.03-0.01-0.04-0.01-0.02-0.01c-0.14-0.02-0.28-0.07-0.42-0.1c0.35,0.05,0.71,0.1,1.07,0.11
		C105.04,180.74,105.47,180.71,105.47,180.71L105.47,180.71z M91.13,48.97c0.28,0.22,1.02-0.1,1.34-0.2
		c0.82-0.26,1.63-0.55,2.44-0.83c1.7-0.59,3.4-1.25,5.13-1.75c1.81-0.53,3.68-0.87,5.46-1.53c-2.96,0.18-5.93,0.99-8.76,1.84
		c-1.32,0.4-2.64,0.83-3.9,1.37C92.44,48.04,91.23,48.42,91.13,48.97L91.13,48.97z M107.81,44.68c0.03-0.03-0.58,0.01-0.68,0.02
		c-0.56,0.08-1.11,0.18-1.66,0.3c-1.18,0.26-2.33,0.59-3.47,0.97c-0.49,0.17-5.41,2.01-4.65,2.88c0.43,0.49,1.73-0.02,2.2-0.17
		c1.09-0.35,2.13-0.85,3.15-1.37c1.01-0.52,2-1.08,3.01-1.61c0.39-0.2,0.79-0.4,1.19-0.59C107.19,45,107.59,44.9,107.81,44.68
		L107.81,44.68z M110.99,44.67c-0.47-0.16-1.19,0.15-1.62,0.29c-0.79,0.26-1.56,0.6-2.27,1.03c-0.7,0.42-2.85,2.11-1.32,2.84
		c1.12,0.58,2.72-0.04,3.67-0.71c0.58-0.4,1.09-0.94,1.42-1.57C111.02,46.22,111.63,44.84,110.99,44.67L110.99,44.67z M113.33,46.49
		c0.22,1.29,1.4,2.18,2.63,2.45c0.9,0.19,2.69,0.16,2.68-1.15c-0.02-1.45-2.12-2.5-3.26-2.91c-0.49-0.17-1.19-0.4-1.61,0.02
		C113.35,45.3,113.24,45.93,113.33,46.49L113.33,46.49z M117.52,44.65c-0.06-0.02-0.09,0-0.1,0.05c0.32,0.3,0.74,0.54,1.1,0.78
		c0.89,0.61,1.8,1.19,2.74,1.72c1.04,0.59,2.12,1.14,3.25,1.53c0.51,0.17,1.82,0.65,2.26,0.07c0.3-0.4-0.41-0.96-0.66-1.16
		c-0.86-0.68-1.9-1.15-2.91-1.54c-0.91-0.36-1.84-0.65-2.78-0.9C119.47,44.97,118.49,44.7,117.52,44.65L117.52,44.65z M120.88,44.94
		c1.81,0.54,3.63,1.06,5.39,1.73c1.34,0.52,2.68,1.04,4.02,1.53c0.89,0.33,1.95,0.83,2.92,0.83c0.28,0.02,0.4-0.11,0.19-0.33
		c-0.29-0.31-0.7-0.51-1.07-0.7c-1.31-0.68-2.73-1.18-4.14-1.62c-2.49-0.77-5.08-1.36-7.68-1.67c-0.17-0.02-0.34-0.04-0.52-0.05
		C120,44.72,120.77,44.9,120.88,44.94L120.88,44.94z M121.78,44.68c-0.08-0.01-0.17-0.02-0.25-0.03c0.03,0.01,0.03,0.01,0.01,0.01
		c2.66,0.5,5.31,1,7.91,1.79c1.59,0.48,3.15,1.04,4.72,1.56c0.79,0.26,1.58,0.51,2.37,0.74c0.26,0.07,0.52,0.16,0.79,0.22
		c0.1,0.02,0.52,0.1,0.25-0.06c-0.84-0.51-1.82-0.83-2.74-1.16c-1.48-0.54-2.98-1-4.5-1.4C127.53,45.6,124.66,45.01,121.78,44.68
		L121.78,44.68z M90.83,53.4c-2.66,1.13-5.4,3.11-6.89,5.63c-0.51,0.87-1.04,2.27-0.19,3.11c0.86,0.85,2.36,0.51,3.37,0.19
		c2.77-0.87,5.19-3.08,6.65-5.55c0.52-0.89,1.41-2.51,0.76-3.53C93.8,52.11,91.71,53.02,90.83,53.4L90.83,53.4z M124.36,57.8
		c-0.66-2.52-3.21-4.77-5.81-5.06c-2.99-0.34-5.19,2.41-4.75,5.26c0.48,2.81,3.29,4.56,5.99,4.66c2.24,0.08,4.72-1.17,4.72-3.68
		C124.51,58.58,124.46,58.18,124.36,57.8L124.36,57.8z M136.93,62.67c1.31,0,2.54-0.73,2.43-2.17c-0.09-1.28-0.87-2.45-1.7-3.39
		c-0.87-0.98-1.89-1.83-2.98-2.55c-1.2-0.8-2.58-1.55-4.03-1.78c-1.07-0.17-2.21,0.14-2.42,1.33c-0.2,1.17,0.36,2.43,0.94,3.41
		c1.42,2.42,3.88,4.54,6.69,5.05C136.22,62.63,136.57,62.67,136.93,62.67L136.93,62.67z M144.24,54.73
		c-0.53-0.32-5.51-3.08-5.49-1.49c0.01,0.48,0.31,0.96,0.55,1.35c0.42,0.66,0.92,1.26,1.44,1.84c1.31,1.46,2.8,2.79,4.39,3.95
		c1.31,0.95,2.85,2,4.48,2.25c0.62,0.09,1.52,0.04,1.55-0.77c0.04-0.92-0.71-1.86-1.26-2.53C148.36,57.45,146.31,55.96,144.24,54.73
		L144.24,54.73z M146.44,54.27c1.74,1.54,3.57,2.99,5.42,4.39c1.7,1.29,3.43,2.63,5.32,3.62c0.23,0.12,0.9,0.58,1.13,0.31
		c0.23-0.32-0.55-1.11-0.74-1.33c-0.9-1.02-1.94-1.92-3-2.78c-2.3-1.87-4.8-3.55-7.44-4.91c-0.56-0.29-1.15-0.59-1.76-0.78
		c-0.52-0.16-0.37,0.11-0.12,0.37C145.64,53.56,146.04,53.92,146.44,54.27L146.44,54.27z M84.5,69.96
		c-1.85-2.15-5.15-0.77-7.02,0.61c-1.92,1.41-3.46,3.44-4.27,5.68c-0.69,1.89-0.92,4.36,0.7,5.87c2.07,1.92,5.43,0.56,7.34-0.91
		c1.82-1.4,3.23-3.42,3.9-5.61C85.69,73.8,85.87,71.45,84.5,69.96L84.5,69.96z M171.7,82.71c0.29,0.17,0.75,0.47,1.08,0.22
		c0.45-0.33,0.18-1.25,0.07-1.67c-0.34-1.27-0.93-2.48-1.55-3.63c-1.45-2.67-3.26-5.31-5.46-7.42c-0.32-0.3-2.01-2-2.44-1.18
		c-0.35,0.68,0.25,1.87,0.5,2.48c0.59,1.41,1.34,2.76,2.13,4.08c0.86,1.42,1.72,2.85,2.72,4.17
		C169.57,80.84,170.5,82.02,171.7,82.71L171.7,82.71z M55.77,108.09c2.17-0.55,3.54-3.04,4.3-4.95c1.08-2.72,1.56-5.9,0.91-8.79
		c-0.29-1.3-0.98-2.82-2.37-3.25c-1.2-0.39-2.38,0.38-3.23,1.16c-1.95,1.8-2.94,4.59-3.38,7.14c-0.32,1.89-0.41,3.97,0.15,5.82
		C52.63,106.8,53.91,108.56,55.77,108.09L55.77,108.09z M73.67,108.11c5.18-0.92,7.76-7.4,6.63-12.07
		c-0.52-2.16-1.95-4.16-4.15-4.82c-2.65-0.79-5.33,0.71-6.98,2.73c-1.93,2.36-2.8,5.67-2.23,8.67
		C67.54,105.83,70.16,108.73,73.67,108.11L73.67,108.11z M91.13,93.41c-1.88,1.88-2.98,4.34-2.86,7.03
		c0.12,2.64,1.52,5.14,3.77,6.55c5,3.14,11.69-0.33,12.92-5.85c0.75-3.38-0.57-6.99-3.55-8.86C98.16,90.25,93.89,90.79,91.13,93.41
		L91.13,93.41z M126.51,91.87c-2.67-1.22-5.8-1.17-8.32,0.42c-2.25,1.42-3.75,3.71-3.95,6.38c-0.44,5.79,5.21,10.52,10.84,9.31
		c3.25-0.7,5.81-3.25,6.4-6.53C132.19,97.54,130.15,93.52,126.51,91.87L126.51,91.87z M152.32,94.47c-1.56-2.15-4.21-3.73-6.93-3.4
		c-2.52,0.3-4.43,2.28-5.21,4.61c-1.47,4.45,0.67,9.94,5,11.91c3.09,1.4,6.57,0.19,8.18-2.77
		C155.12,101.59,154.49,97.34,152.32,94.47L152.32,94.47z M164.46,107.08c1.03,0.84,2.4,1.4,3.71,0.92
		c0.89-0.33,1.56-1.05,2.02-1.86c1.34-2.39,1.18-5.54,0.49-8.1c-0.71-2.64-2.35-5.87-5.12-6.83c-1.73-0.6-3.34,0.33-4.16,1.86
		c-1.15,2.13-1.11,4.86-0.66,7.17C161.24,102.78,162.39,105.41,164.46,107.08L164.46,107.08z M179.85,100.92
		c-0.41-2.86-1.12-5.95-2.63-8.45c-0.39-0.64-1.39-2.1-2.19-1.13c-0.62,0.76-0.62,2.04-0.64,2.97c-0.02,1.59,0.16,3.19,0.43,4.75
		c0.23,1.56,0.55,3.1,1.02,4.61c0.37,1.2,0.83,2.44,1.59,3.45c0.44,0.58,1.39,1.52,2.02,0.67c0.5-0.66,0.58-1.65,0.63-2.45
		C180.19,103.87,180.06,102.38,179.85,100.92L179.85,100.92z M49.11,127.35c-0.43-2.85-1.06-5.84-2.24-8.48
		c-0.24-0.55-1.11-2.44-1.68-1.15c-0.4,0.91-0.29,2.09-0.22,3.05c0.11,1.54,0.36,3.08,0.66,4.6c0.33,1.63,0.63,3.27,1.07,4.87
		c0.33,1.18,0.69,2.46,1.41,3.47c0.15,0.22,0.63,0.85,0.94,0.64c0.42-0.22,0.44-1.1,0.47-1.51C49.65,131,49.4,129.13,49.11,127.35
		L49.11,127.35z M97.95,134.33c2.37-0.26,4.57-1.54,5.89-3.55c1.54-2.34,1.75-5.45,0.65-8.01c-1.13-2.62-3.37-4.51-6.12-5.25
		c-2.87-0.77-5.97,0.02-7.99,2.25c-2.36,2.61-2.71,6.54-1.15,9.65C90.86,132.64,94.33,134.73,97.95,134.33L97.95,134.33z
		 M151.35,132.08c3.56-3.47,4.5-10.69-0.03-13.82c-2.06-1.42-4.71-1.34-6.84-0.1c-2.42,1.41-4.04,3.97-4.57,6.68
		c-0.59,3.03,0.2,6.59,2.85,8.45C145.47,135.19,149.11,134.3,151.35,132.08L151.35,132.08z M60.74,154.73
		c-1.22-2.7-2.85-5.28-4.51-7.73c-0.73-1.08-1.5-2.15-2.35-3.15c-0.41-0.49-0.99-1.29-1.64-1.48c-0.56-0.16-0.32,0.79-0.26,1.02
		c0.22,0.79,0.6,1.55,0.97,2.28c1.08,2.12,2.36,4.14,3.73,6.08c0.89,1.26,1.82,2.52,2.88,3.64c0.41,0.44,0.93,1.04,1.55,1.17
		C61.61,156.36,60.87,155.01,60.74,154.73L60.74,154.73z M68.4,156.55c0.97,0.07,1.41-0.82,1.47-1.66c0.1-1.4-0.41-2.83-0.93-4.1
		c-1.09-2.65-2.86-5.22-5.11-7.02c-0.96-0.77-2.57-1.89-3.87-1.27c-0.99,0.4-1.1,1.72-0.99,2.62c0.32,2.8,2.1,5.59,3.89,7.69
		c0.75,0.89,1.59,1.71,2.53,2.4C66.24,155.84,67.32,156.53,68.4,156.55L68.4,156.55z M78.44,155.44c1.14,0.68,2.48,1.22,3.83,1.1
		c1.44-0.13,2.51-1.09,2.98-2.43c0.97-2.81-0.45-6.16-2.26-8.31c-1.57-1.87-4.02-3.56-6.56-3.46c-1.34,0.05-2.58,0.68-3.25,1.88
		c-0.7,1.26-0.61,2.81-0.23,4.16C73.77,151.3,75.85,153.89,78.44,155.44L78.44,155.44z M124.77,155.49
		c2.28-1.24,3.92-3.58,4.25-6.16c0.39-3.01-1.51-5.65-4.32-6.59c-2.71-0.91-5.76-0.23-7.94,1.59c-2.29,1.91-3.36,5.08-2.28,7.93
		c0.71,1.86,2.3,3.3,4.19,3.91C120.71,156.82,122.92,156.53,124.77,155.49L124.77,155.49z M163.42,148.3
		c0.71-1.73,1.65-5.74-1.3-5.95c-1.36-0.1-2.7,0.71-3.74,1.49c-1.06,0.8-1.97,1.8-2.75,2.87c-1.5,2.06-2.93,4.79-2.87,7.41
		c0.03,1.29,0.56,2.34,1.93,2.44c1.43-0.08,2.71-0.89,3.8-1.76C160.62,153.06,162.37,150.83,163.42,148.3L163.42,148.3z
		 M171.55,147.27c0.63-1.23,1.44-2.71,1.47-4.13c0.03-1.54-1.6-0.31-2.14,0.18c-2.27,2.02-3.9,4.85-5.39,7.46
		c-0.72,1.26-1.44,2.58-1.89,3.97c-0.13,0.39-0.25,0.82-0.23,1.24c-0.03,0.64,0.48,0.62,0.92,0.39c1.17-0.6,2.12-1.74,2.96-2.72
		c1.04-1.22,1.99-2.52,2.85-3.87C170.61,148.97,171.1,148.13,171.55,147.27L171.55,147.27z M75.11,168.6
		c-2.24-1.72-4.46-3.51-6.8-5.09c-0.4-0.27-0.82-0.57-1.27-0.73c-0.32-0.1-0.35-0.02-0.23,0.22c0.21,0.4,0.55,0.73,0.86,1.04
		c2.5,2.5,5.53,4.6,8.5,6.51c0.93,0.6,1.87,1.19,2.87,1.67c0.32,0.15,0.65,0.3,0.99,0.4c0.19,0.05,0.22-0.02,0.1-0.14
		c-0.31-0.3-0.68-0.55-1.01-0.81C77.77,170.64,76.44,169.62,75.11,168.6L75.11,168.6z M92.16,172.47c1.05,0.29,2.57,0.32,2.58-1.14
		c0-1.12-0.64-2.27-1.24-3.18c-1.65-2.48-4.33-4.85-7.35-5.37c-0.94-0.15-2.27-0.1-2.74,0.91c-0.49,1.06,0.32,2.36,0.92,3.19
		c1.7,2.37,4.34,4.42,7.1,5.36C91.67,172.33,91.92,172.4,92.16,172.47L92.16,172.47z M99.89,170.37c1.74,1.62,4.76,3.25,7.01,1.64
		c2.11-1.51,1.66-4.7,0.25-6.52c-1.52-1.96-4.33-3.23-6.8-2.68c-1.31,0.29-2.45,1.2-2.7,2.57c-0.21,1.18,0.23,2.39,0.86,3.37
		C98.9,169.35,99.37,169.89,99.89,170.37L99.89,170.37z M137.72,162.78c-2.64-0.52-5.55,1.45-7.21,3.32
		c-0.99,1.12-1.87,2.47-2.2,3.95c-0.28,1.28,0.15,2.6,1.65,2.61c1.22,0.11,2.67-0.64,3.7-1.21c1.3-0.72,2.53-1.64,3.57-2.7
		c0.95-0.97,1.91-2.21,2.11-3.59C139.52,163.98,138.9,163.02,137.72,162.78L137.72,162.78z M104.42,178.97
		c-1.12-0.6-2.25-1.21-3.42-1.72c-0.93-0.41-2.14-1.03-3.2-0.93c-1.46,0.15,0.54,1.45,0.88,1.63c1.47,0.8,3.08,1.38,4.68,1.86
		c0.84,0.25,1.69,0.48,2.55,0.65c0.36,0.07,0.72,0.14,1.09,0.18c0.19,0.02,0.68,0.16,0.82,0.02
		C106.72,180.06,105.54,179.58,104.42,178.97L104.42,178.97z M117.82,179.05c0.71-0.67,1.3-1.93,0.12-2.5
		c-1.22-0.59-2.93,0-3.84,0.9c-0.46,0.45-0.82,1.13-0.79,1.79c0,0.6,0.29,1.45,1.01,1.49c0.59,0.03,1.26-0.3,1.78-0.54
		C116.72,179.89,117.33,179.53,117.82,179.05L117.82,179.05z M121.41,179.88c1.55-0.47,3.14-1.06,4.47-2.01
		c0.3-0.21,1.09-0.77,0.91-1.2c-0.15-0.51-1.17-0.31-1.53-0.23c-1.75,0.38-3.4,1.34-4.92,2.26c-0.97,0.59-2.11,1.19-2.94,1.97
		c0.11,0.21,1.26-0.12,1.49-0.16C119.75,180.34,120.59,180.13,121.41,179.88L121.41,179.88z M120.23,180.71
		c2.31-0.24,4.62-0.75,6.85-1.38c1.35-0.38,2.69-0.82,3.99-1.36c0.75-0.31,1.59-0.65,2.22-1.19c0.62-0.53-0.32-0.43-0.69-0.34
		c-1.31,0.28-2.58,0.8-3.82,1.28c-1.47,0.57-2.92,1.17-4.41,1.69c-0.7,0.25-1.42,0.45-2.14,0.64c-0.72,0.19-1.58,0.32-2.23,0.68
		C120.08,180.72,120.15,180.72,120.23,180.71L120.23,180.71z M129.83,178.82c-0.47,0.14-0.97,0.23-1.44,0.34
		c-2.29,0.53-4.57,1.06-6.86,1.57c1.06,0,2.31-0.31,3.4-0.5c1.51-0.26,3.01-0.58,4.49-0.96c1.72-0.43,3.42-0.94,5.1-1.52
		c0.7-0.25,1.4-0.5,2.08-0.8c0.3-0.13,0.86-0.3,1.05-0.6c-0.86,0.11-1.73,0.49-2.55,0.77C133.35,177.71,131.6,178.3,129.83,178.82
		L129.83,178.82z"/>
</g>
</svg>
