<?xml version="1.0" encoding="utf-8"?>
<!-- Generator: Adobe Illustrator 26.2.1, SVG Export Plug-In . SVG Version: 6.00 Build 0)  -->
<svg version="1.1" xmlns="http://www.w3.org/2000/svg" xmlns:xlink="http://www.w3.org/1999/xlink" x="0px" y="0px"
	 viewBox="0 0 225 225" style="enable-background:new 0 0 225 225;" xml:space="preserve">
<style type="text/css">
	.st0{display:none;}
	.st1{display:inline;fill:#FAB433;}
	.st2{fill:none;}
	.st3{fill:none;stroke:#000000;stroke-width:1.6;stroke-miterlimit:10;}
	.st4{fill:none;stroke:#000000;stroke-width:0.7265;stroke-miterlimit:10;}
	.st5{fill:none;stroke:#000000;stroke-linecap:round;stroke-linejoin:round;stroke-miterlimit:10;}
	.st6{fill:none;stroke:#000000;stroke-miterlimit:10;}
	.st7{fill:none;stroke:#000000;stroke-width:0.7105;stroke-miterlimit:10;}
	.st8{fill:none;stroke:#000000;stroke-width:5.4;stroke-linecap:round;stroke-linejoin:round;stroke-miterlimit:10;}
	.st9{fill:none;stroke:#000000;stroke-width:2.9309;stroke-linecap:round;stroke-linejoin:round;stroke-miterlimit:10;}
	.st10{fill:none;stroke:#000000;stroke-width:0.5;stroke-linecap:round;stroke-linejoin:round;}
	.st11{fill:none;stroke:#FFFFFF;stroke-width:0;stroke-linecap:round;stroke-linejoin:round;}
	.st12{fill:#FFFFFF;}
	.st13{fill:none;stroke:#000000;stroke-width:1.4;stroke-miterlimit:10;}
	.st14{fill:url(#);stroke:#000000;stroke-width:1.4387;stroke-miterlimit:10;}
	.st15{fill:url(#);stroke:#000000;stroke-width:1.3718;stroke-miterlimit:10;}
	.st16{fill:none;stroke:#000000;stroke-width:1.0041;stroke-miterlimit:10;}
	.st17{fill:none;stroke:#000000;stroke-width:1.3621;stroke-miterlimit:10;}
	.st18{fill:none;stroke:#000000;stroke-width:0.25;stroke-miterlimit:10;}
</style>
<g id="Layer_2" class="st0">
	<rect id="XMLID_2028_" x="-835.99" y="-275.01" class="st1" width="1160" height="772"/>
</g>
<g id="Layer_1">
	<path id="XMLID_10565_" d="M140.86,150.06c-0.05,0.01-0.08,0.01-0.13,0.03c-0.03-0.02-0.07-0.04-0.11-0.06
		c0.18-0.3,0.47-0.7,0.87-1.19h-0.18c-0.47,0.36-0.92,0.63-1.26,0.76c-0.15-0.19-0.17-0.42-0.1-0.62c0.06-0.04,0.14-0.1,0.22-0.14
		h-28.2c0,0.01,0,0.02-0.01,0.03c-0.03-0.02-0.04-0.02-0.07-0.03H69.96c0.03,0.02,0.06,0.06,0.08,0.12
		c-0.03,0.03-0.06,0.11-0.11,0.13c-0.05,0.02-0.1,0-0.13-0.03c0.02-0.07,0.03-0.15,0.05-0.22H55.63c2.52,3.94,5.44,7.59,8.7,10.91
		c0.15-0.03,0.32,0,0.45,0.09c0.18,0.12,0.26,0.37,0.21,0.59c0.01,0.01,0.02,0.03,0.04,0.04h5.67c-0.02-0.12-0.07-0.25-0.02-0.32
		c0.06-0.08,0.23-0.09,0.45-0.16c-0.01,0.22,0.03,0.4-0.04,0.45c-0.02,0.02-0.05,0.02-0.08,0.02h10.19c0,0,0-0.01,0.01-0.01
		c0,0,0.01,0.01,0.01,0.01h58.12c0.02-0.06,0.13-0.15,0.17-0.14c0.05,0.01,0.11,0.08,0.13,0.14h20.32c3.55-3.51,6.7-7.42,9.4-11.64
		h-27.84C141,149.51,140.82,149.92,140.86,150.06z M57.15,150.31c-0.09,0.07-0.23,0.06-0.3-0.03c-0.07-0.09-0.05-0.23,0.06-0.29
		c0.04-0.02,0.08-0.05,0.13-0.07c0.04,0.03,0.08,0.06,0.12,0.1C57.25,150.1,57.25,150.23,57.15,150.31z M57.22,149.31
		c-0.02,0.01-0.09-0.03-0.09-0.05c0-0.03,0.03-0.09,0.06-0.1c0.02-0.01,0.07,0.02,0.13,0.05C57.27,149.26,57.25,149.3,57.22,149.31z
		 M57.74,150.65c-0.11,0.02-0.21-0.03-0.22-0.12c-0.02-0.1,0.07-0.21,0.19-0.24c0.1-0.02,0.19,0.03,0.21,0.12
		C57.93,150.53,57.85,150.63,57.74,150.65z M61.64,149.65c-0.02,0-0.05-0.03-0.08-0.05c0.02-0.03,0.04-0.06,0.06-0.08
		c0.02-0.01,0.05,0.02,0.11,0.04C61.69,149.61,61.67,149.64,61.64,149.65z M62.21,149.58c-0.09,0.02-0.18-0.03-0.21-0.13
		c-0.03-0.1,0.04-0.21,0.14-0.23c0.1-0.03,0.2,0.03,0.23,0.12C62.38,149.45,62.32,149.56,62.21,149.58z M62.94,149.11
		c-0.07,0.1-0.16,0.21-0.27,0.33c-0.01,0.02-0.04,0.04-0.06,0.06c-0.09-0.03-0.17-0.09-0.2-0.2c-0.04-0.17,0.08-0.38,0.26-0.42
		c0.14-0.04,0.29,0.04,0.37,0.15C63,149.05,62.97,149.07,62.94,149.11z M64.02,149.93c-0.03,0.01-0.07-0.04-0.11-0.05
		c0.02-0.04,0.03-0.09,0.06-0.11c0.03-0.01,0.08,0.02,0.15,0.05C64.08,149.88,64.05,149.93,64.02,149.93z M65.82,155.35
		c-0.04,0.05-0.09,0.11-0.13,0.16c0-0.03,0-0.05-0.01-0.08C65.72,155.39,65.77,155.38,65.82,155.35z M65.32,155.85
		c0,0.01,0.01,0.02,0.01,0.02c0.01,0.01,0.03,0.01,0.04,0.01c-0.03,0.04-0.07,0.08-0.09,0.11C65.3,155.95,65.3,155.89,65.32,155.85z
		 M65.96,158.5c-0.05-0.04-0.06-0.16-0.04-0.23c0.02-0.04,0.16-0.07,0.21-0.04c0.06,0.04,0.07,0.14,0.13,0.27
		C66.11,158.51,66,158.54,65.96,158.5z M67.24,158.84c-0.02,0.02-0.04,0.03-0.06,0.05c-0.07,0.06-0.16,0.13-0.26,0.19
		c-0.11,0.02-0.22,0.01-0.32-0.04c-0.25-0.14-0.36-0.49-0.23-0.75c0.12-0.23,0.39-0.31,0.62-0.19
		C67.25,158.24,67.36,158.58,67.24,158.84z M67.43,156.73c-0.1,0.25-0.24,0.46-0.45,0.59c-0.04-0.06-0.08-0.13-0.13-0.16
		c-0.24-0.16-0.66-0.04-0.9,0.22c-0.24-0.08-0.45-0.23-0.59-0.5c-0.07-0.13-0.09-0.28-0.12-0.42c0.06,0.03,0.15,0.03,0.27-0.04
		c0.15-0.09,0.33-0.2,0.53-0.32c0.2-0.12,0.4-0.22,0.62-0.31c0.22-0.09,0.43-0.09,0.63,0c0.02,0.01,0.04,0.03,0.06,0.04
		C67.52,156.09,67.56,156.39,67.43,156.73z M68.03,158.49c-0.05,0-0.09,0.01-0.13,0.02c-0.36-0.25-0.45-0.69-0.22-1.04
		c0.02-0.04,0.06-0.06,0.09-0.09c0.06-0.07,0.14-0.12,0.21-0.17c0,0.02,0.01,0.04,0.01,0.05c0.04,0.21,0.11,0.4,0.22,0.57
		c0.17,0.23,0.25,0.4,0.24,0.51C68.43,158.44,68.29,158.49,68.03,158.49z M69.71,150.82c0.03-0.01,0.09,0.02,0.1,0.05
		c0.01,0.04-0.02,0.08-0.05,0.15c-0.05-0.05-0.1-0.08-0.11-0.11C69.65,150.88,69.69,150.83,69.71,150.82z M69.8,154.16
		c-0.04-0.21-0.07-0.41-0.1-0.62c0.18,0.02,0.29,0.13,0.29,0.32C69.99,154.01,69.92,154.1,69.8,154.16z M72.88,151.02
		c-0.03-0.02-0.07-0.04-0.08-0.06c-0.01-0.02,0.02-0.06,0.04-0.11c0.04,0.04,0.09,0.06,0.09,0.08
		C72.93,150.96,72.9,150.99,72.88,151.02z M73.27,150.59c-0.06,0.07-0.23,0.06-0.34,0.09c-0.01-0.06-0.04-0.12-0.05-0.18
		c0.13-0.09,0.23-0.19,0.27-0.31c0.04-0.02,0.08-0.02,0.12-0.04C73.28,150.36,73.33,150.52,73.27,150.59z M74.8,150.25
		c-0.02,0.01-0.09-0.04-0.1-0.07c-0.01-0.03,0.03-0.07,0.07-0.14c0.05,0.05,0.11,0.08,0.11,0.11
		C74.87,150.19,74.83,150.24,74.8,150.25z M75.72,157.87c-0.11-0.07-0.2-0.14-0.3-0.2c0.07-0.04,0.16-0.08,0.28-0.14
		C75.71,157.7,75.75,157.82,75.72,157.87z M77.31,154.39c-0.08,0-0.15-0.11-0.3-0.23c0.16-0.08,0.26-0.17,0.34-0.16
		c0.07,0.01,0.18,0.15,0.17,0.2C77.51,154.29,77.39,154.39,77.31,154.39z M79.7,159.44c-0.05,0.01-0.13-0.05-0.14-0.09
		c-0.01-0.04,0.04-0.13,0.08-0.14c0.05-0.01,0.11,0.04,0.17,0.06c0,0.02,0.01,0.04,0.01,0.06C79.78,159.36,79.75,159.44,79.7,159.44
		z M82.68,158.5c-0.06-0.03-0.08-0.16-0.16-0.31c0.16,0,0.28-0.03,0.34,0.02c0.05,0.04,0.05,0.16,0.08,0.24
		C82.86,158.46,82.74,158.53,82.68,158.5z M86.32,159.49c-0.12,0.03-0.24-0.05-0.27-0.16c-0.03-0.12,0.04-0.24,0.16-0.26
		c0.12-0.03,0.24,0.05,0.27,0.16C86.52,159.34,86.44,159.46,86.32,159.49z M88.38,159.11c-0.05,0.07-0.21,0.06-0.33,0.08
		c-0.02-0.12-0.1-0.27-0.06-0.35c0.04-0.08,0.21-0.1,0.41-0.18C88.4,158.88,88.43,159.03,88.38,159.11z M101.14,159.09
		c-0.04,0.5-0.19,0.64-0.69,0.65c-0.27,0-0.54,0.04-0.81,0.02c0,0-0.01,0-0.01,0c-0.01-0.03-0.02-0.05-0.03-0.08
		c0,0.03,0,0.05,0,0.08c-0.17-0.02-0.33-0.08-0.5-0.12c-0.1-0.02-0.21-0.04-0.31-0.07c-0.06-0.01-0.14-0.04-0.15-0.07
		c-0.02-0.06,0.01-0.13,0.03-0.2c0.02-0.06,0.06-0.13,0.09-0.19c0.13-0.08,0.26-0.16,0.41-0.21c0.31-0.12,0.63-0.18,0.97-0.18
		c0.34,0,0.66,0.1,0.97,0.31c0.01,0.01,0.03,0.02,0.04,0.03C101.14,159.06,101.14,159.08,101.14,159.09z M128.91,150.92
		c0.09,0.01,0.25,0.18,0.24,0.27c-0.01,0.1-0.16,0.24-0.27,0.25c-0.09,0.01-0.21-0.12-0.31-0.19c0-0.05,0-0.09,0-0.14
		C128.69,151.04,128.81,150.91,128.91,150.92z M124.9,150.58c0.02-0.01,0.05,0,0.09,0.01c0.01,0.01,0.02,0.02,0.04,0.02
		c0,0,0,0,0.01,0c0.02,0.01,0.05,0.02,0.06,0.04c0.02,0.03-0.02,0.15-0.06,0.17c-0.05,0.03-0.14-0.01-0.27-0.02
		C124.83,150.69,124.85,150.6,124.9,150.58z M125.16,154.42c-0.27,0.03-0.54,0.05-0.82,0.04c0.1-0.14,0.26-0.24,0.45-0.23
		C124.93,154.24,125.07,154.31,125.16,154.42z M119.69,149.97c0.21,0.02,0.31,0.16,0.29,0.37c-0.01,0.2-0.27,0.44-0.51,0.51
		c-0.06-0.04-0.12-0.07-0.18-0.11c-0.05-0.08-0.1-0.16-0.11-0.25C119.17,150.27,119.51,149.95,119.69,149.97z M119.9,153.08
		c0.03,0.04,0.08,0.09,0.12,0.14c-0.38-0.17-0.76-0.36-1.14-0.56C119.28,152.64,119.66,152.77,119.9,153.08z M115.5,154.3
		c0.26,0.01,0.3,0.24,0.3,0.57c-0.05,0.04-0.16,0.13-0.26,0.21c-0.12-0.18-0.26-0.35-0.36-0.54
		C115.17,154.51,115.39,154.3,115.5,154.3z M113.12,149.61c-0.23-0.05-0.3-0.23-0.29-0.45c0.07-0.2,0.21-0.3,0.4-0.27
		c0.1,0.09,0.2,0.18,0.3,0.27c0.01,0.05,0.03,0.1,0.02,0.16C113.51,149.55,113.34,149.65,113.12,149.61z M115.42,156.83
		c-0.69-0.26-1.36-0.6-2-1c0,0,0,0,0,0c0.26-0.06,0.54,0.04,0.85,0.32c0.21-0.17,0.43-0.33,0.63-0.5c0.04-0.03,0.05-0.1,0.08-0.14
		c0.06-0.09,0.12-0.17,0.18-0.25c0.05,0.09,0.1,0.19,0.15,0.28c0.01,0.02,0.02,0.03,0.03,0.07c0.31,0.06,0.64,0.15,0.64,0.54
		C115.98,156.51,115.72,156.69,115.42,156.83z M117.11,154.17c-0.05,0.08-0.16,0.13-0.29,0.22c-0.1-0.12-0.22-0.2-0.23-0.3
		c-0.03-0.19,0-0.38,0.02-0.57c0-0.03,0.05-0.08,0.08-0.07c0.05,0,0.11,0.02,0.13,0.06c0.1,0.12,0.2,0.25,0.27,0.39
		C117.13,153.97,117.15,154.1,117.11,154.17z M117.65,151.73c0.29-0.37,0.78-0.36,1.05,0.03c0.22,0.3,0.21,0.53,0,0.81
		c-0.38-0.21-0.75-0.42-1.13-0.65C117.59,151.85,117.61,151.78,117.65,151.73z M117.86,160.3c-0.07-0.01-0.18-0.15-0.17-0.2
		c0.02-0.08,0.14-0.19,0.21-0.19c0.08,0,0.15,0.12,0.29,0.23C118.04,160.23,117.94,160.31,117.86,160.3z M119.61,157.87
		c-0.16-0.1-0.3-0.14-0.33-0.22c-0.03-0.07,0.05-0.19,0.08-0.28c0.1,0.03,0.25,0.04,0.29,0.11
		C119.7,157.54,119.64,157.68,119.61,157.87z M119.79,154.5c-0.4,0.46-1.16,0.42-1.59-0.01c-0.39-0.39-0.42-0.99-0.09-1.42
		c0.43,0.25,0.86,0.49,1.3,0.7c0.21,0.1,0.42,0.19,0.64,0.28C119.99,154.21,119.9,154.37,119.79,154.5z M120.12,152.73
		L120.12,152.73C120.12,152.73,120.12,152.73,120.12,152.73c0.01-0.01,0.01-0.01,0.02-0.01
		C120.13,152.73,120.13,152.73,120.12,152.73z M120.41,149.45c-0.06,0.03-0.16-0.02-0.31-0.05c0.02-0.02,0.02-0.03,0.04-0.05
		c0.1,0.02,0.21,0.04,0.31,0.05C120.43,149.42,120.42,149.44,120.41,149.45z M121.47,149.89c-0.07-0.15-0.06-0.32,0.01-0.45
		c0.05,0,0.1,0,0.15,0c0-0.06,0.01-0.11,0.01-0.17c0.01-0.01,0.02-0.02,0.03-0.03c0.26-0.12,0.6-0.02,0.72,0.22
		c0.12,0.23,0,0.55-0.26,0.68C121.91,150.25,121.59,150.13,121.47,149.89z M122.27,150.54c-0.02-0.07,0.03-0.21,0.09-0.25
		c0.06-0.03,0.17,0.03,0.33,0.06c-0.09,0.14-0.12,0.26-0.19,0.28C122.44,150.66,122.29,150.6,122.27,150.54z M122.92,157.91
		c-0.04,0.01-0.08,0.03-0.12,0.04c-0.1-0.15-0.2-0.25-0.19-0.33c0.01-0.09,0.16-0.17,0.25-0.25c0.08,0.09,0.22,0.18,0.23,0.27
		C123.1,157.72,123.02,157.81,122.92,157.91z M123.72,152.46c-0.36-0.06-0.71-0.14-1.05-0.22c0-0.01-0.01-0.03-0.01-0.04
		c0-0.03,0.02-0.06,0.03-0.09c-0.14-0.31-0.01-0.66,0.32-0.82c0.35-0.17,0.73-0.05,0.9,0.29
		C124.05,151.9,123.95,152.33,123.72,152.46z M124.13,151.26c0-0.17,0.14-0.32,0.31-0.33c0.18-0.01,0.32,0.13,0.32,0.31
		c0,0.18-0.14,0.32-0.3,0.33C124.28,151.58,124.13,151.44,124.13,151.26z M124.77,155.29c-0.25-0.01-0.45-0.2-0.51-0.44
		c0.35-0.04,0.68-0.11,1.01-0.22c0.01,0.05,0.03,0.1,0.03,0.15C125.29,155.07,125.05,155.3,124.77,155.29z M127.77,151.19
		c-0.09-0.12-0.2-0.2-0.19-0.26c0.01-0.06,0.08-0.12,0.14-0.17c0.02-0.01,0.05-0.01,0.07-0.01c0.07,0.06,0.16,0.12,0.18,0.19
		C127.98,150.98,127.86,151.07,127.77,151.19z M129.85,151.95c0.02,0.27-0.14,0.5-0.41,0.49c-0.24-0.01-0.49-0.05-0.73-0.11
		c0.6-0.3,1.14-0.71,1.62-1.25c-0.59,0.38-1.2,0.68-1.8,0.92c0.02-0.03,0.04-0.06,0.07-0.08c0.27-0.18,0.57-0.34,0.9-0.52
		c-0.11-0.41-0.05-0.61,0.23-0.79c0.29-0.17,0.81-0.11,1.05,0.15c0.06,0.06,0.09,0.19,0.09,0.28c-0.02,0.38-0.46,0.71-0.83,0.65
		c-0.08-0.01-0.16-0.02-0.26-0.03C129.81,151.77,129.84,151.86,129.85,151.95z M130.43,153.43c0.02-0.28,0.27-0.58,0.43-0.52
		c0.11,0.04,0.18,0.18,0.26,0.28c-0.17,0.14-0.33,0.28-0.51,0.39C130.59,153.6,130.47,153.46,130.43,153.43z M131.28,158.76
		c-0.11-0.04-0.23-0.04-0.36-0.07c0.06-0.11,0.12-0.2,0.16-0.3c0.09-0.21,0.27-0.3,0.45-0.19c0.02,0.01,0.04,0.03,0.05,0.05
		c0.03,0.06,0.06,0.11,0.1,0.16c0.03,0.07,0.04,0.14,0.03,0.19C131.67,158.79,131.48,158.82,131.28,158.76z M133.92,154.31
		c-0.04,0.02-0.09,0.05-0.13,0.07c-0.03-0.02-0.06-0.04-0.09-0.05c-0.05-0.09-0.14-0.18-0.14-0.26c0-0.06,0.16-0.16,0.22-0.14
		c0.08,0.03,0.18,0.14,0.19,0.22C133.99,154.19,133.96,154.25,133.92,154.31z M135.66,149.75c-0.07,0-0.13-0.09-0.2-0.15
		c0.06-0.06,0.12-0.16,0.2-0.18c0.05-0.01,0.13,0.08,0.25,0.16C135.79,149.67,135.72,149.76,135.66,149.75z M136.42,152.75
		c-0.12-0.13-0.25-0.26-0.36-0.41c0.05-0.01,0.11-0.02,0.16-0.01c0.13,0.01,0.25,0.13,0.37,0.2
		C136.53,152.6,136.48,152.68,136.42,152.75z M140.05,152.07c-0.08-0.11-0.15-0.18-0.2-0.25c0.09,0.06,0.19,0.11,0.29,0.16
		C140.11,152.01,140.08,152.04,140.05,152.07z M154.3,153.01c0.04-0.01,0.12,0.07,0.24,0.15c-0.1,0.07-0.16,0.13-0.22,0.15
		c-0.05-0.02-0.07-0.11-0.05-0.28C154.28,153.03,154.29,153.01,154.3,153.01z M154.28,157.04c0.08,0.02,0.15,0.09,0.22,0.17
		c-0.05,0.05-0.11,0.09-0.17,0.11c-0.16,0.05-0.31,0.03-0.44-0.02C153.92,157.1,154.09,156.98,154.28,157.04z M149.62,151.82
		c0.05,0.09,0.07,0.2,0.05,0.3C149.62,152.03,149.59,151.89,149.62,151.82z M148.02,157.65c0.03,0.01,0.05,0.04,0.07,0.05
		c-0.12,0.06-0.23,0.08-0.35,0.08C147.86,157.7,147.96,157.63,148.02,157.65z M141.82,149.39c-0.09,0.16-0.19,0.3-0.28,0.43
		c-0.04,0.03-0.07,0.06-0.11,0.08c-0.06,0.03-0.13,0.04-0.2,0.06c0.17-0.14,0.38-0.37,0.6-0.68
		C141.83,149.32,141.83,149.36,141.82,149.39z M81.89,52.42c0.06-0.09,0.15-0.16,0.25-0.18c0.01,0,0.01-0.01,0.01-0.01
		c0.02,0,0.05,0,0.07,0.01c0.04,0.14,0.06,0.25,0.06,0.34h60.39c-0.24-0.12-0.39-0.37-0.41-0.64C133.28,47.52,123.19,45,112.5,45
		c-11.21,0-21.78,2.75-31.08,7.59h0.61C81.98,52.53,81.94,52.48,81.89,52.42z M118.54,50.81c0.03-0.24,0.05-0.48,0.1-0.71
		c0-0.05,0.03-0.09,0.04-0.14c0.27-0.18,0.64-0.2,0.9-0.02c0.08,0.06,0.14,0.13,0.2,0.2c-0.02,0.37-0.04,0.72-0.07,1.03
		c-0.26,0.33-0.68,0.42-1.02,0.2c-0.08-0.05-0.14-0.12-0.19-0.2C118.51,51.07,118.53,50.95,118.54,50.81z M117.92,51.72
		c0.07,0,0.16-0.02,0.25-0.06c0.1-0.02,0.16-0.08,0.21-0.17c0.05,0.01,0.1,0.02,0.15,0.05c0.22,0.14,0.28,0.45,0.13,0.67
		c-0.13,0.2-0.39,0.25-0.59,0.13C117.87,52.23,117.79,51.93,117.92,51.72z M116.31,46.73c0.04,0.05,0.08,0.08,0.08,0.1
		c0,0.02-0.02,0.03-0.03,0.04c-0.03-0.02-0.06-0.05-0.1-0.08C116.27,46.78,116.29,46.76,116.31,46.73z M108.09,50.08
		c0.12-0.01,0.23,0.1,0.24,0.23c0.01,0.13-0.07,0.23-0.17,0.24c-0.12,0.01-0.23-0.12-0.24-0.26
		C107.91,50.18,107.98,50.09,108.09,50.08z M107.24,46.66c0.1,0.12,0.21,0.24,0.32,0.36C107.4,47.02,107.25,46.86,107.24,46.66
		C107.24,46.66,107.24,46.66,107.24,46.66z M105.82,50.88c0.11-0.09,0.26-0.07,0.33,0.06c0.07,0.12,0.04,0.27-0.08,0.34
		c-0.12,0.07-0.27,0.02-0.32-0.11c-0.02-0.05-0.04-0.1-0.06-0.16C105.73,50.95,105.77,50.91,105.82,50.88z M102.1,46.95
		c0.12-0.01,0.19,0.07,0.2,0.18c0.01,0.11-0.04,0.19-0.15,0.2c-0.12,0.01-0.18-0.07-0.2-0.18C101.94,47.04,101.98,46.96,102.1,46.95
		z M99.01,50.17c0.08,0.06,0.15,0.14,0.2,0.23c0.17,0.34,0.04,0.76-0.29,0.94c-0.35,0.18-0.84,0.03-1.01-0.31
		c-0.05-0.1-0.06-0.21-0.06-0.32C98.39,50.44,98.87,50.22,99.01,50.17z M84.11,51.42c0.02,0.03,0.07,0.05,0.07,0.08
		c0,0.03-0.04,0.07-0.07,0.12c-0.04-0.05-0.08-0.09-0.07-0.11C84.04,51.49,84.08,51.46,84.11,51.42z M154.3,96.19
		c-0.03-0.06,0.05-0.27,0.09-0.28c0.11-0.01,0.26,0.03,0.35,0.1c0.03,0.02-0.01,0.12-0.04,0.23h23.32
		c-1.48-5.98-3.76-11.64-6.71-16.88h-19.59c0,0.01,0,0.03,0,0.04c-0.08,0.09-0.17,0.18-0.26,0.27c-0.01-0.01-0.02-0.01-0.03-0.02
		c0.01,0.03,0.01,0.06,0.02,0.08c0.04,0.12,0.02,0.22-0.08,0.3c-0.11,0.09-0.23,0.09-0.35,0.03c-0.11-0.05-0.14-0.15-0.12-0.27
		c0-0.03-0.04-0.07-0.05-0.1c-0.01-0.04-0.03-0.1-0.01-0.12c0.02-0.02,0.08-0.02,0.12-0.03c0.04,0,0.07,0.01,0.11,0.02
		c-0.02-0.04-0.04-0.07-0.06-0.11c-0.01-0.02-0.03-0.05-0.05-0.07c0.01-0.01,0.02-0.01,0.02-0.01h-64.9
		c-0.05,0.06-0.09,0.13-0.14,0.2c-0.04-0.04-0.07-0.08-0.09-0.14c-0.01-0.02,0-0.04,0-0.06H53.7c-1.09,1.93-2.09,3.93-2.99,5.98
		c0.08,0.04,0.15,0.12,0.18,0.22c0.03,0.14-0.04,0.37-0.14,0.48c-0.08,0.08-0.2,0.06-0.33-0.02c-1.4,3.28-2.56,6.7-3.43,10.23
		h107.39C154.35,96.23,154.32,96.21,154.3,96.19z M175.43,92.22c0.03-0.01,0.07,0,0.1,0.01c-0.04,0.14-0.12,0.29-0.23,0.44
		c-0.01-0.01-0.03-0.02-0.04-0.04C175.15,92.46,175.23,92.26,175.43,92.22z M173.14,93.09c-0.02,0.01-0.03,0.03-0.06,0.04
		c-0.02,0-0.03-0.01-0.04-0.01C173.07,93.11,173.11,93.1,173.14,93.09z M156.52,84.66c-0.05-0.05-0.1-0.08-0.11-0.11
		c-0.01-0.03,0.03-0.08,0.06-0.09c0.03-0.01,0.09,0.03,0.1,0.05C156.58,84.54,156.55,84.59,156.52,84.66z M156.96,81.69
		c-0.02-0.1,0.01-0.21,0.03-0.32c0-0.02,0.08-0.03,0.11-0.02c0.09,0.02,0.21,0.2,0.2,0.28c-0.01,0.07-0.07,0.13-0.09,0.17
		C157.06,81.82,156.97,81.79,156.96,81.69z M166.4,92.85c0.05-0.01,0.11,0.04,0.17,0.06c0,0.02,0.01,0.04,0.01,0.06
		c-0.04,0.04-0.07,0.11-0.12,0.11c-0.05,0.01-0.13-0.05-0.14-0.09C166.31,92.95,166.36,92.86,166.4,92.85z M165.55,79.7
		c0.03-0.01,0.07,0.02,0.13,0.04c-0.04,0.05-0.06,0.09-0.09,0.1c-0.03,0-0.07-0.03-0.1-0.05C165.51,79.75,165.53,79.7,165.55,79.7z
		 M161.92,80.77c0.02,0.01,0.03,0.02,0.04,0.04c0,0.03-0.02,0.08-0.05,0.1c-0.01,0.01-0.06-0.02-0.08-0.04
		C161.86,80.83,161.89,80.8,161.92,80.77z M161.53,83.68c0.05,0.05,0.11,0.08,0.11,0.11c0,0.04-0.04,0.09-0.08,0.1
		c-0.02,0.01-0.09-0.04-0.1-0.07C161.45,83.79,161.49,83.75,161.53,83.68z M161.24,93.26c0.46-0.22,0.96-0.07,1.17,0.35
		c0.15,0.29,0.08,0.62-0.14,0.86c0.03,0.04,0.06,0.09,0.07,0.15c0.03,0.16-0.08,0.34-0.24,0.37c-0.17,0.04-0.35-0.07-0.39-0.24
		c0,0,0,0,0,0c-0.37,0.06-0.73-0.09-0.89-0.41C160.63,93.95,160.82,93.46,161.24,93.26z M158.91,87.35
		c0.01-0.02,0.04-0.05,0.05-0.07c0.04,0.01,0.07,0.02,0.1,0.03c-0.03,0.08-0.03,0.17-0.09,0.22c-0.02,0.02-0.08,0-0.15-0.02
		C158.85,87.45,158.88,87.39,158.91,87.35z M157.7,82.05c0.18,0.02,0.35,0.08,0.4,0.27c0.06,0.19,0.06,0.38-0.1,0.53
		c-0.06,0.06-0.15,0.09-0.22,0.13c-0.27,0.05-0.47-0.07-0.56-0.31c0-0.01,0-0.03-0.01-0.04c-0.17-0.08-0.09-0.14,0.01-0.22
		c0.03-0.02,0.04-0.09,0.06-0.13C157.37,82.12,157.51,82.03,157.7,82.05z M157.09,80.89c0.11-0.02,0.23,0.06,0.24,0.17
		c0.02,0.11-0.08,0.22-0.19,0.24c-0.11,0.01-0.21-0.07-0.22-0.19C156.9,81,156.98,80.9,157.09,80.89z M156.79,82.6
		c-0.03,0.03-0.06,0.11-0.11,0.13c-0.09,0.04-0.16-0.01-0.19-0.11c-0.02-0.08,0.01-0.15,0.09-0.17
		C156.68,82.42,156.75,82.47,156.79,82.6z M156.44,81.45c0.04,0,0.09,0.03,0.1,0.06c0.01,0.03-0.03,0.07-0.06,0.15
		c-0.05-0.06-0.1-0.08-0.1-0.12C156.38,81.51,156.42,81.45,156.44,81.45z M156.1,79.73c0.05,0,0.1,0.01,0.16,0.01
		c-0.01,0.03-0.04,0.07-0.06,0.08c-0.03,0.01-0.09-0.03-0.1-0.06C156.09,79.76,156.09,79.74,156.1,79.73z M155.29,86.34
		c0.03-0.01,0.09,0.03,0.17,0.06c-0.05,0.05-0.08,0.09-0.11,0.11c-0.03,0-0.06-0.01-0.09-0.01c-0.02-0.01-0.03-0.03-0.05-0.04
		C155.23,86.41,155.25,86.35,155.29,86.34z M154.86,85.58c0.01,0.02-0.03,0.06-0.04,0.09c-0.03-0.02-0.09-0.03-0.1-0.06
		c-0.01-0.03,0.02-0.07,0.04-0.14C154.81,85.52,154.85,85.55,154.86,85.58z M154.58,79.68c0.03,0.06,0.06,0.12,0.08,0.19
		c-0.03,0.01-0.05,0.03-0.08,0.04c-0.03-0.06-0.06-0.13-0.09-0.19C154.52,79.7,154.58,79.68,154.58,79.68z M154.54,80.59
		c0.1-0.01,0.16,0.02,0.19,0.11c0.03,0.08-0.03,0.17-0.13,0.19c-0.09,0.02-0.15-0.03-0.17-0.12
		C154.4,80.68,154.45,80.62,154.54,80.59z M78.12,83.34c-0.02,0.05-0.11,0.08-0.21,0.14c-0.03-0.12-0.08-0.2-0.05-0.25
		c0.02-0.04,0.13-0.07,0.19-0.05C78.09,83.19,78.14,83.3,78.12,83.34z M60.67,92.25c-0.36,0.18-0.81,0.01-0.99-0.36
		c-0.19-0.38-0.04-0.85,0.33-1.03c0.35-0.16,0.8,0.01,0.99,0.37C61.2,91.62,61.06,92.07,60.67,92.25z M62.37,81.5
		c-0.06-0.03-0.1-0.11-0.14-0.2c0.01-0.07,0.02-0.14,0.03-0.21c0.11-0.02,0.24-0.07,0.31-0.02c0.08,0.05,0.14,0.24,0.1,0.31
		C62.63,81.45,62.44,81.53,62.37,81.5z M63.34,83.7c0.14-0.04,0.28-0.03,0.42,0.02C63.62,83.74,63.48,83.73,63.34,83.7z
		 M68.75,93.96c-0.1,0.18-0.26,0.22-0.44,0.14c-0.18-0.08-0.26-0.3-0.17-0.46c0.11-0.17,0.26-0.22,0.42-0.15
		C68.76,93.59,68.84,93.8,68.75,93.96z M70.37,93.11c-0.09,0.06-0.28-0.03-0.54-0.07c0.13-0.23,0.17-0.44,0.27-0.47
		c0.11-0.04,0.34,0.05,0.39,0.14C70.55,92.81,70.47,93.05,70.37,93.11z M70.31,84.67c0.08-0.18,0.17-0.36,0.26-0.54
		c0.02,0.13,0.1,0.27,0.06,0.38C70.59,84.66,70.46,84.7,70.31,84.67z M71.9,89.46c-0.12,0.22-0.44,0.29-0.71,0.15
		c-0.25-0.12-0.29-0.24-0.18-0.45c0.14-0.28,0.44-0.39,0.7-0.26C71.91,89.01,72,89.27,71.9,89.46z M72.81,90.86
		c-0.08,0.18-0.24,0.22-0.41,0.16c-0.16-0.05-0.23-0.27-0.15-0.41c0.1-0.17,0.24-0.21,0.43-0.14C72.84,90.56,72.89,90.7,72.81,90.86
		z M73.13,84.97c-0.07,0.17-0.3,0.24-0.49,0.14c-0.17-0.09-0.23-0.25-0.15-0.41c0.08-0.17,0.29-0.25,0.46-0.16
		C73.12,84.63,73.21,84.78,73.13,84.97z M73.82,88.33c-0.03,0.07-0.23,0.14-0.29,0.1c-0.24-0.14-0.08-0.32,0.01-0.53
		C73.67,88.04,73.95,88.06,73.82,88.33z M76.41,81.51c0.55-0.24,1.1-0.45,1.6-0.61c-0.01,0.11-0.04,0.23-0.1,0.34
		c0.01,0.02,0.03,0.05,0.04,0.07c-0.21,0.13-0.42,0.28-0.65,0.38c-0.17,0.08-0.37,0.1-0.55,0.13c-0.19,0.04-0.3-0.06-0.33-0.24
		C76.41,81.55,76.41,81.53,76.41,81.51z M76.54,93.2c-0.06-0.04-0.06-0.15-0.09-0.23c0.07-0.02,0.16-0.09,0.22-0.07
		c0.05,0.02,0.07,0.12,0.14,0.23C76.68,93.17,76.58,93.23,76.54,93.2z M78.24,89.33c-0.13,0.25-0.36,0.31-0.64,0.16
		c-0.41-0.22-0.6-0.64-0.42-0.96c0.15-0.27,0.5-0.37,0.79-0.22C78.31,88.48,78.43,88.96,78.24,89.33z M78.42,82.57
		c-0.03-0.17-0.1-0.29-0.06-0.36c0.04-0.07,0.22-0.13,0.26-0.1c0.08,0.06,0.13,0.2,0.12,0.29C78.72,82.46,78.57,82.5,78.42,82.57z
		 M80.05,91.54c-0.01-0.15-0.05-0.25-0.01-0.31c0.03-0.05,0.17-0.09,0.21-0.06c0.06,0.04,0.1,0.17,0.08,0.22
		C80.3,91.45,80.18,91.47,80.05,91.54z M84.05,80.62c-0.15-0.02-0.31-0.04-0.47-0.1c0.18-0.06,0.34-0.13,0.51-0.2
		C84.12,80.4,84.11,80.51,84.05,80.62z M85.63,79.92c-0.07,0.06-0.14,0.11-0.21,0.17c-0.06,0-0.13-0.02-0.19-0.06
		c-0.14-0.09-0.22-0.26-0.09-0.4c0.08-0.09,0.25-0.1,0.38-0.15c0.03,0.02,0.07,0.04,0.1,0.06C85.62,79.67,85.66,79.81,85.63,79.92z
		 M151.27,84.4c0.02-0.01,0.07,0.02,0.13,0.05c-0.05,0.05-0.07,0.09-0.1,0.09c-0.02,0.01-0.06-0.03-0.09-0.05
		C151.22,84.45,151.24,84.4,151.27,84.4z M150.95,84.45c0.04-0.01,0.11,0.03,0.17,0.05l0.01,0.06c-0.04,0.04-0.08,0.11-0.13,0.12
		c-0.04,0.01-0.13-0.05-0.14-0.09C150.85,84.55,150.9,84.46,150.95,84.45z M150.73,83.41c0.03-0.01,0.08,0.02,0.15,0.05
		c-0.05,0.05-0.07,0.1-0.1,0.11c-0.03,0.01-0.07-0.04-0.11-0.06C150.69,83.48,150.7,83.42,150.73,83.41z M149.21,80.33
		c0.03,0.03,0.06,0.06,0.08,0.11c-0.03-0.03-0.06-0.05-0.09-0.08C149.2,80.35,149.21,80.34,149.21,80.33z M148.86,81.68
		c0.1-0.02,0.25,0.1,0.28,0.22c0.03,0.14-0.05,0.27-0.19,0.3c-0.14,0.03-0.28-0.06-0.31-0.2C148.62,81.85,148.72,81.7,148.86,81.68z
		 M147.01,81.45c0,0.08-0.04,0.13-0.12,0.15c-0.08,0.02-0.14-0.01-0.17-0.09C146.83,81.48,146.93,81.46,147.01,81.45z M139.4,92.43
		c0.12-0.02,0.23,0.04,0.26,0.15c0.03,0.14-0.05,0.25-0.18,0.28c-0.12,0.02-0.24-0.06-0.26-0.17
		C139.19,92.58,139.27,92.46,139.4,92.43z M92.04,83.94c-0.08,0-0.16-0.13-0.31-0.26c0.18-0.08,0.29-0.16,0.38-0.15
		c0.07,0.01,0.2,0.17,0.18,0.21C92.25,83.83,92.13,83.94,92.04,83.94z M92.51,94.46c-0.02-0.02-0.04-0.08-0.03-0.09
		c0.03-0.02,0.07-0.04,0.11-0.04c0.02,0,0.03,0.06,0.05,0.12C92.58,94.46,92.54,94.48,92.51,94.46z M99.66,89.12
		c-0.04,0-0.08-0.01-0.11-0.01c-0.03-0.02-0.06-0.04-0.06-0.06c-0.01-0.07,0.04-0.14,0.07-0.27c0.1,0.07,0.17,0.1,0.19,0.15
		C99.78,89.02,99.74,89.09,99.66,89.12z M129.15,82.91c-0.04,0.01-0.06,0-0.09-0.01c0.05-0.1,0.1-0.2,0.16-0.29
		c0.03,0.02,0.05,0.05,0.06,0.09C129.29,82.81,129.24,82.88,129.15,82.91z M130.26,81.08c-0.05,0.02-0.15-0.01-0.21-0.04
		c0.06-0.12,0.13-0.25,0.2-0.37c0.07,0.02,0.15,0.04,0.25,0.06C130.38,80.9,130.34,81.05,130.26,81.08z M130.8,80.42
		c-0.07,0.05-0.19-0.03-0.24-0.19c0.03-0.03,0.07-0.11,0.13-0.14c0.1-0.04,0.2,0.02,0.21,0.13C130.9,80.28,130.86,80.38,130.8,80.42
		z M133.28,90.94c-0.01,0-0.02-0.01-0.02-0.01c0.05-0.08,0.09-0.16,0.14-0.23c0.04-0.07,0.08-0.13,0.12-0.19
		c0.03,0.05,0.05,0.12,0.03,0.19C133.54,90.8,133.36,90.96,133.28,90.94z M135.19,83.71c-0.18,0.05-0.36-0.06-0.41-0.24
		c-0.05-0.19,0.05-0.38,0.23-0.44c0.17-0.05,0.36,0.06,0.41,0.24C135.48,83.47,135.38,83.66,135.19,83.71z M137.56,89.28
		c0.09-0.45,0.59-0.76,1.09-0.66c0.33,0.06,0.48,0.31,0.4,0.69c-0.11,0.54-0.54,0.9-0.97,0.81
		C137.72,90.04,137.49,89.67,137.56,89.28z M138.67,93.51c0.09,0.02,0.24,0.22,0.22,0.31c-0.08,0.33-0.34,0.21-0.61,0.17
		C138.39,93.79,138.32,93.46,138.67,93.51z M139.17,96.02c0.07,0.07-0.08,0.11-0.2,0.06c-0.1-0.04-0.2-0.07-0.33-0.05
		c0-0.01,0-0.02,0-0.04c0.05-0.27,0.32-0.46,0.57-0.41c0.19,0.04,0.33,0.2,0.39,0.4c-0.15-0.02-0.39-0.15-0.54-0.12
		C139.05,95.85,139.1,95.93,139.17,96.02z M139.61,94.06c-0.22-0.06-0.32-0.21-0.3-0.44c0.05-0.22,0.19-0.32,0.4-0.29
		c0.23,0.03,0.34,0.2,0.32,0.42C140.03,93.95,139.81,94.11,139.61,94.06z M140.45,89.96c-0.05-0.08-0.15-0.16-0.15-0.23
		c0-0.07,0.12-0.13,0.22-0.23c0.08,0.13,0.18,0.23,0.16,0.28C140.65,89.86,140.53,89.9,140.45,89.96z M143.91,83.95
		c-0.01,0.01-0.03,0.01-0.05,0.01c-0.08-0.08-0.17-0.16-0.25-0.25c0.02-0.03,0.03-0.07,0.06-0.09c0.04-0.02,0.08-0.05,0.13-0.07
		c0.04,0.03,0.08,0.06,0.12,0.1C144.01,83.74,144.01,83.87,143.91,83.95z M143.98,82.95c-0.02,0-0.05-0.02-0.07-0.04
		c0.05-0.01,0.11-0.02,0.15-0.04C144.03,82.91,144,82.94,143.98,82.95z M144.49,84.29c-0.11,0.02-0.21-0.03-0.23-0.12
		c-0.02-0.1,0.07-0.21,0.19-0.24c0.1-0.02,0.19,0.03,0.21,0.12C144.69,84.16,144.61,84.27,144.49,84.29z M145.88,83.1
		c-0.1,0.02-0.21-0.05-0.23-0.16c-0.03-0.11,0.05-0.23,0.16-0.25c0.11-0.02,0.21,0.04,0.23,0.15
		C146.06,82.96,145.99,83.08,145.88,83.1z M146.27,82.18c-0.09,0.01-0.15-0.03-0.17-0.12c-0.01-0.09,0.03-0.17,0.13-0.17
		c0.06,0,0.12,0.05,0.17,0.07C146.41,82.1,146.37,82.16,146.27,82.18z M146.95,82.7c-0.14,0.03-0.28-0.06-0.31-0.2
		c-0.03-0.14,0.06-0.28,0.2-0.31c0.14-0.03,0.28,0.06,0.31,0.2C147.18,82.52,147.09,82.67,146.95,82.7z M147.76,86.05
		c-0.03,0-0.06-0.03-0.09-0.05c0.02-0.03,0.04-0.06,0.07-0.07c0.02-0.01,0.05,0.02,0.1,0.05C147.81,86.01,147.78,86.05,147.76,86.05
		z M147.64,83.92c-0.17,0.04-0.33-0.07-0.37-0.24c-0.03-0.13,0.1-0.29,0.26-0.33c0.15-0.03,0.3,0.07,0.33,0.24
		C147.9,83.75,147.81,83.88,147.64,83.92z M148.18,85.24c-0.07,0.04-0.13-0.02-0.15-0.1c-0.01-0.08,0.03-0.15,0.11-0.16
		c0.05,0,0.1,0.04,0.2,0.08C148.27,85.15,148.23,85.22,148.18,85.24z M148.32,83.24c0.02-0.03,0.04-0.06,0.06-0.08
		c0.02-0.01,0.06,0.02,0.11,0.05c-0.05,0.04-0.07,0.08-0.1,0.08C148.37,83.29,148.34,83.25,148.32,83.24z M148.61,85.91
		c-0.08,0.02-0.19-0.05-0.21-0.13c-0.03-0.1,0.03-0.21,0.13-0.23c0.09-0.02,0.19,0.04,0.21,0.13
		C148.77,85.77,148.7,85.89,148.61,85.91z M148.75,83.09c-0.02-0.1,0.04-0.21,0.14-0.23c0.1-0.03,0.2,0.03,0.23,0.12
		c0.03,0.1-0.04,0.21-0.15,0.24C148.87,83.24,148.78,83.19,148.75,83.09z M149.14,84.49c-0.06-0.06-0.13-0.09-0.13-0.12
		c0-0.04,0.05-0.09,0.08-0.14c0.04,0.03,0.1,0.05,0.12,0.09C149.21,84.36,149.17,84.41,149.14,84.49z M149.56,83.16
		c-0.18,0.04-0.35-0.05-0.39-0.22c-0.04-0.17,0.08-0.37,0.26-0.42c0.18-0.04,0.37,0.07,0.41,0.24
		C149.88,82.95,149.76,83.11,149.56,83.16z M149.8,81.58c-0.01-0.05-0.01-0.09,0-0.13c-0.24,0.06-0.66-0.06-0.73-0.24
		c-0.06-0.15,0.1-0.46,0.28-0.61c0.02,0.08,0.04,0.17,0.04,0.28c0.07-0.11,0.17-0.24,0.31-0.38c0.17,0.01,0.34,0.1,0.41,0.26
		c0.05,0.12,0.05,0.25,0.02,0.36c0.2-0.02,0.38,0.1,0.42,0.3c0.05,0.22-0.08,0.43-0.29,0.47C150.05,81.93,149.85,81.8,149.8,81.58z
		 M151.43,86.32c-0.02-0.05-0.06-0.09-0.08-0.14c-0.1,0.25-0.22,0.43-0.35,0.54c-0.15,0.06-0.31,0.09-0.49,0.05
		c-0.4-0.08-0.68-0.5-0.6-0.89c0.08-0.42,0.48-0.7,0.9-0.63c0.47,0.08,0.77,0.5,0.68,0.92C151.48,86.23,151.45,86.27,151.43,86.32z
		 M151.78,84.92c-0.04-0.06-0.08-0.09-0.08-0.12c0-0.02,0.03-0.07,0.05-0.07c0.03,0,0.08,0.03,0.08,0.06
		C151.84,84.82,151.81,84.85,151.78,84.92z M152.14,84.37c-0.12,0.03-0.25-0.04-0.27-0.15c-0.03-0.13,0.05-0.27,0.18-0.3
		c0.12-0.03,0.25,0.06,0.28,0.19C152.35,84.22,152.26,84.34,152.14,84.37z M152.48,84.24c-0.03,0.01-0.09-0.04-0.1-0.07
		c-0.01-0.03,0.03-0.07,0.06-0.14c0.05,0.05,0.1,0.08,0.11,0.11C152.55,84.18,152.5,84.24,152.48,84.24z M152.72,83.73
		c-0.04-0.04-0.09-0.06-0.09-0.09c0-0.03,0.03-0.07,0.06-0.08c0.01-0.01,0.07,0.03,0.07,0.05
		C152.77,83.64,152.74,83.68,152.72,83.73z M152.46,81.58c-0.11-0.05-0.17-0.15-0.14-0.27c0.04-0.16,0.15-0.21,0.37-0.17
		c0.14-0.22,0.27-0.29,0.43-0.22c0.1,0.05,0.13,0.16,0.09,0.28c-0.05,0.16-0.19,0.22-0.4,0.17
		C152.69,81.58,152.6,81.63,152.46,81.58z M153.26,84.15c-0.16,0.04-0.31-0.06-0.35-0.23c-0.04-0.17,0.06-0.34,0.23-0.38
		c0.16-0.04,0.35,0.06,0.38,0.18C153.55,83.87,153.4,84.11,153.26,84.15z M153.55,83c-0.04,0.01-0.12-0.04-0.12-0.07
		c0-0.05,0.03-0.12,0.07-0.13c0.04-0.01,0.1,0.03,0.18,0.07C153.62,82.93,153.59,82.99,153.55,83z M153.61,80.1
		c-0.22,0.05-0.45-0.11-0.47-0.27c0-0.02,0-0.04,0.01-0.06c0.07-0.16,0.36-0.24,0.5-0.13c0.01,0,0.02,0.01,0.02,0.01
		c0.05,0.08,0.16,0.19,0.14,0.23C153.77,79.98,153.66,80.05,153.61,80.1z M112.5,180c11.21,0,21.78-2.75,31.09-7.59H81.42
		C90.72,177.25,101.29,180,112.5,180z M113.91,177.92c-0.07,0.05-0.2,0.2-0.33,0.21c-0.23,0.01-0.34-0.18-0.34-0.4
		c0.01-0.19,0.1-0.35,0.32-0.35C113.77,177.38,113.94,177.59,113.91,177.92z M111.85,175.75c0.13-0.09,0.25-0.24,0.39-0.25
		c0,0,0,0,0,0c0.06-0.17,0.18-0.32,0.35-0.41c0.27-0.13,0.56-0.1,0.77,0.05c-0.26,0.26-0.48,0.49-0.63,0.67
		c-0.1,0.11-0.2,0.26-0.3,0.39c-0.01-0.01-0.02-0.01-0.03-0.02c-0.05,0.02-0.1,0.03-0.16,0.02c-0.15-0.03-0.27-0.2-0.4-0.3
		C111.84,175.84,111.84,175.8,111.85,175.75z M109.41,174.48c0.07,0.05,0.12,0.28,0.07,0.34c-0.07,0.08-0.27,0.14-0.35,0.09
		c-0.09-0.05-0.11-0.23-0.19-0.44C109.16,174.47,109.32,174.42,109.41,174.48z M105.51,178.62c0.02,0.04-0.03,0.12-0.06,0.22
		c-0.08-0.07-0.16-0.1-0.17-0.15c-0.01-0.04,0.04-0.14,0.08-0.14C105.4,178.54,105.49,178.58,105.51,178.62z M141.24,148.84h-0.89
		C139.68,149.39,140.29,149.45,141.24,148.84z M179.24,102.36H45.76c-0.5,3.31-0.76,6.69-0.76,10.14c0,0.26,0.01,0.52,0.02,0.78
		c0,0,0.01,0,0.01,0c0.19,0.15,0.23,0.34,0.13,0.53c0,0-0.01,0.01-0.01,0.01c-0.04-0.06-0.07-0.12-0.11-0.18
		c0.03,1.41,0.09,2.82,0.2,4.21h69.98c0,0,0-0.01,0-0.01c0,0,0,0.01,0.01,0.01h42c-0.01-0.1,0.02-0.19,0.13-0.25
		c0.12-0.07,0.29-0.02,0.41,0.13c-0.05,0.03-0.09,0.06-0.16,0.1c0,0,0.06,0.01,0.13,0.02h22.03c0.14-1.77,0.23-3.55,0.23-5.36
		C180,109.05,179.74,105.67,179.24,102.36z M47.24,107.44c-0.34-0.02-0.55-0.28-0.52-0.61c0-0.06,0.03-0.11,0.05-0.16
		c0.23,0.27,0.44,0.52,0.64,0.75C47.35,107.43,47.3,107.44,47.24,107.44z M47.51,107.37c-0.1-0.33-0.23-0.66-0.42-1.01
		c0.06-0.02,0.13-0.03,0.2-0.03c0.28,0.03,0.51,0.32,0.49,0.62C47.77,107.14,47.66,107.28,47.51,107.37z M62.67,106.13
		c-0.05-0.04-0.08-0.12-0.08-0.18c0-0.03,0.1-0.06,0.19-0.11c0.02,0.1,0.06,0.18,0.04,0.22C62.8,106.1,62.69,106.15,62.67,106.13z
		 M73.25,104.25c-0.01-0.12-0.04-0.2-0.01-0.23c0.04-0.04,0.13-0.05,0.19-0.08c0.01,0.06,0.06,0.14,0.04,0.17
		C73.44,104.17,73.36,104.19,73.25,104.25z M74.96,114.46c-0.16,0.31-0.5,0.42-0.79,0.27c-0.04-0.02-0.06-0.05-0.09-0.07
		c0.05-0.07,0.11-0.15,0.16-0.22c0.18-0.26,0.34-0.51,0.5-0.76C75,113.82,75.1,114.18,74.96,114.46z M76.02,117.4
		c-0.08-0.03-0.11-0.19-0.2-0.37c0.2-0.03,0.35-0.1,0.42-0.05c0.07,0.05,0.13,0.24,0.09,0.31C76.3,117.37,76.11,117.43,76.02,117.4z
		 M77.06,104.44c-0.06,0.06-0.18,0.08-0.27,0.11c-0.02-0.09-0.08-0.2-0.05-0.27c0.01-0.02,0.04-0.03,0.07-0.05
		c0.09,0.01,0.17,0.01,0.25,0.01C77.07,104.34,77.09,104.41,77.06,104.44z M77.98,103.55c-0.17,0.12-0.31,0.16-0.47,0.18
		c-0.04-0.17-0.03-0.36,0.06-0.55c0.15-0.31,0.45-0.49,0.74-0.5C78.38,103.01,78.27,103.35,77.98,103.55z M79.72,115.35
		c-0.1,0.04-0.35-0.04-0.37-0.12c-0.05-0.14,0.02-0.32,0.06-0.6c0.23,0.12,0.38,0.15,0.45,0.24c-0.01,0.02-0.02,0.05-0.03,0.07
		c0.02,0,0.04-0.01,0.06-0.01C79.97,115.11,79.9,115.29,79.72,115.35z M80.86,116.89c-0.11,0.21-0.41,0.29-0.63,0.17
		c-0.21-0.11-0.3-0.37-0.19-0.57c0.13-0.25,0.4-0.33,0.63-0.2C80.88,116.4,80.97,116.68,80.86,116.89z M83.95,103.22
		c-0.07-0.02-0.1-0.17-0.17-0.31c0.16-0.04,0.28-0.11,0.35-0.07c0.06,0.03,0.11,0.2,0.08,0.26
		C84.17,103.17,84.02,103.24,83.95,103.22z M86.37,117.59c-0.05,0-0.13-0.06-0.14-0.11c-0.01-0.04,0.05-0.1,0.11-0.2
		c0.07,0.08,0.13,0.13,0.14,0.18C86.48,117.51,86.4,117.59,86.37,117.59z M86.57,107.01c-0.03,0.05-0.12,0.05-0.18,0.08
		c-0.02-0.07-0.07-0.15-0.06-0.22c0.01-0.04,0.11-0.06,0.22-0.11C86.57,106.88,86.6,106.97,86.57,107.01z M86.53,105.81
		c-0.3-0.01-0.54-0.28-0.52-0.59c0-0.01,0.01-0.02,0.01-0.04c-0.12,0.12-0.27,0.22-0.44,0.25c-0.31,0.05-0.63-0.23-0.64-0.57
		c0-0.18,0.05-0.35,0.1-0.59c0.11-0.07,0.22-0.16,0.34-0.24c0.37,0.11,0.69,0.31,0.94,0.58c-0.01,0.05,0,0.1-0.01,0.14
		c0.03-0.02,0.07-0.03,0.11-0.04c0.23,0.28,0.38,0.61,0.46,0.98C86.77,105.77,86.65,105.82,86.53,105.81z M86.88,103.06
		c-0.02,0.04-0.12,0.06-0.17,0.05c-0.06-0.02-0.1-0.1-0.15-0.14c0.04-0.02,0.07-0.05,0.11-0.07c0.06,0,0.14-0.04,0.17-0.01
		C86.89,102.92,86.9,103.02,86.88,103.06z M87.61,107.35c0.07,0.05,0.1,0.18,0.17,0.34c-0.16,0.04-0.25,0.07-0.34,0.09
		C87.5,107.64,87.56,107.5,87.61,107.35z M88.66,115.49c-0.52-0.03-0.94-0.51-0.9-1.04c0.04-0.54,0.5-0.94,1.04-0.9
		c0.56,0.04,0.95,0.5,0.91,1.06C89.68,115.14,89.22,115.52,88.66,115.49z M104.07,105.82c-0.18,0.24-0.42,0.53-0.68,0.8
		c-0.11-0.14-0.16-0.33-0.12-0.52c0.07-0.37,0.41-0.62,0.77-0.56c0.06,0.01,0.11,0.04,0.17,0.06
		C104.15,105.68,104.12,105.75,104.07,105.82z M107.59,111.64c0-0.01-0.01-0.02-0.01-0.03c0.02-0.07,0.11-0.11,0.22-0.21
		c0.02,0.05,0.04,0.1,0.06,0.14C107.77,111.57,107.67,111.6,107.59,111.64z M109.85,110.58c-0.12-0.51-0.1-1.06,0.01-1.61
		c0.08-0.01,0.16-0.02,0.24-0.01c0.4,0.07,0.71,0.49,0.65,0.86C110.68,110.25,110.24,110.59,109.85,110.58z M112.59,109.4
		c-0.19-0.04-0.32-0.18-0.25-0.36c0.05-0.13,0.22-0.22,0.33-0.33l0.14,0.03c0.06,0.13,0.17,0.27,0.17,0.4
		C112.97,109.35,112.79,109.44,112.59,109.4z M113.65,112.45c-0.1-0.03-0.21-0.06-0.32-0.09c0.05-0.05,0.11-0.1,0.17-0.11
		c0.04-0.01,0.18,0.14,0.17,0.18C113.67,112.43,113.66,112.44,113.65,112.45z M114.19,108.14c-0.07-0.21-0.18-0.35-0.14-0.43
		c0.05-0.1,0.21-0.14,0.32-0.21c0.06,0.11,0.19,0.23,0.17,0.32C114.51,107.93,114.36,108,114.19,108.14z M128.16,112.44
		c-0.07,0.03-0.17-0.02-0.31-0.05c0.07-0.13,0.1-0.25,0.14-0.26c0.08-0.01,0.2,0.03,0.25,0.09
		C128.26,112.25,128.21,112.42,128.16,112.44z M137.24,113.91c-0.12,0.22-0.23,0.45-0.37,0.66c-0.09,0.14-0.21,0.23-0.34,0.3
		c0.02-0.11,0.03-0.23,0.06-0.34c0.1-0.39,0.24-0.75,0.41-1.09c0.04,0.02,0.07,0.04,0.11,0.05
		C137.3,113.58,137.34,113.73,137.24,113.91z M137.44,103.08c0.03-0.19,0.14-0.33,0.36-0.31c0.2,0.02,0.34,0.26,0.28,0.58
		c-0.08,0.04-0.22,0.17-0.36,0.16C137.49,103.5,137.4,103.29,137.44,103.08z M138.12,112.25c-0.06,0.29-0.34,0.49-0.62,0.45
		c-0.02,0-0.03-0.01-0.05-0.02c0-0.01,0.01-0.02,0.01-0.02c0.19-0.25,0.41-0.45,0.65-0.61
		C138.13,112.11,138.13,112.18,138.12,112.25z M138.75,112.47c-0.07,0.03-0.27-0.03-0.29-0.08c-0.03-0.1,0.01-0.25,0.08-0.32
		c0.05-0.05,0.2,0.02,0.38,0.06C138.85,112.29,138.83,112.44,138.75,112.47z M140.46,113.54c-0.04,0.04-0.15,0.07-0.2,0.05
		c-0.05-0.02-0.06-0.12-0.08-0.19c0.01-0.02,0.03-0.04,0.04-0.06c0.07,0,0.16-0.03,0.21,0
		C140.47,113.38,140.49,113.51,140.46,113.54z M144.95,106.66c0.08-0.2,0.23-0.39,0.44-0.49c0.27-0.13,0.51-0.03,0.65,0.28
		c0.05,0.1,0.07,0.2,0.09,0.3C145.73,106.78,145.33,106.74,144.95,106.66z M153.79,104.51c-0.08-0.03-0.19-0.03-0.23-0.09
		c-0.03-0.05,0.01-0.15,0.03-0.28c0.12,0.05,0.25,0.07,0.27,0.11C153.87,104.33,153.82,104.42,153.79,104.51z M154.96,116.79
		c-0.13,0.04-0.29-0.03-0.44-0.06c-0.02-0.04-0.04-0.08-0.06-0.11c0.06-0.12,0.09-0.29,0.19-0.37c0.15-0.11,0.33-0.05,0.43,0.12
		C155.17,116.53,155.14,116.73,154.96,116.79z M178.15,111.89c-0.2,0.07-0.36,0.03-0.46-0.14c-0.11-0.22-0.04-0.45,0.14-0.53
		c0.2-0.08,0.36-0.02,0.47,0.17C178.41,111.58,178.33,111.82,178.15,111.89z M165.3,125.65c-0.06,0.06-0.12,0.15-0.18,0.16
		c-0.05,0.01-0.17-0.08-0.17-0.13c0-0.05,0.05-0.11,0.11-0.17h-36.37c-0.04,0.06-0.09,0.11-0.14,0.17
		c-0.05-0.02-0.09-0.04-0.09-0.07c-0.01-0.03,0-0.06,0.01-0.1H81.43c0.01,0.01,0.03,0.02,0.03,0.03c0,0.06-0.04,0.12-0.08,0.22
		c-0.08-0.07-0.14-0.1-0.15-0.14c-0.02-0.05,0-0.09,0.02-0.12H46.26c0.94,4.8,2.38,9.41,4.27,13.79h16.22
		c0.03-0.04,0.06-0.09,0.09-0.09c0.14-0.01,0.3-0.01,0.42,0.05c0.02,0.01,0.04,0.03,0.05,0.04h0.57c0.01-0.02,0.03-0.04,0.04-0.04
		c0.03,0,0.06,0.03,0.09,0.04h39.17c0.5-0.23,1.01-0.43,1.55-0.58c0,0.02,0.01,0.04,0.01,0.06c-0.01,0.19-0.11,0.37-0.23,0.52h11.89
		c0.07-0.02,0.14-0.02,0.21,0h22.43c-0.05-0.21-0.11-0.41-0.14-0.62c0.09-0.03,0.17-0.05,0.25-0.04c0.31,0.03,0.55,0.3,0.53,0.59
		c0,0.03-0.01,0.05-0.02,0.07h0.73c-0.01-0.01-0.03-0.01-0.03-0.03c-0.01-0.02,0.05-0.1,0.09-0.11c0.04,0,0.09,0.05,0.17,0.09
		c-0.02,0.02-0.03,0.03-0.04,0.04h29.87c1.89-4.38,3.34-8.99,4.27-13.79h-13.58C165.21,125.56,165.26,125.61,165.3,125.65z
		 M66.52,132.08c-0.02,0.03-0.06,0.1-0.11,0.11c-0.09,0.03-0.17-0.03-0.17-0.12c0-0.06,0.05-0.14,0.1-0.17
		C66.4,131.86,66.49,131.94,66.52,132.08z M64.34,129.01c0.03-0.02,0.04-0.04,0.07-0.05c0.15-0.04,0.31,0.07,0.34,0.22
		c0.04,0.16-0.06,0.32-0.22,0.36c-0.12,0.02-0.22-0.05-0.28-0.16C64.27,129.26,64.3,129.13,64.34,129.01z M64.41,129.68
		c0.04,0.01,0.1,0.14,0.08,0.18c-0.03,0.06-0.12,0.08-0.23,0.15c-0.03-0.12-0.09-0.22-0.06-0.26
		C64.23,129.69,64.35,129.66,64.41,129.68z M62.87,134.89c0.01,0.01,0.02,0.02,0.02,0.03c0.01,0.03-0.03,0.13-0.07,0.13
		c-0.02,0.01-0.05-0.01-0.08-0.02C62.79,134.98,62.83,134.93,62.87,134.89z M53.85,126.84c-0.08-0.05-0.14-0.3-0.08-0.37
		c0.06-0.09,0.13-0.11,0.2-0.12c0.06,0.01,0.12,0.03,0.18,0.05c0.08,0.04,0.17,0.1,0.26,0.16
		C54.21,126.69,54.15,127.03,53.85,126.84z M61.41,137.26c-0.1,0.02-0.22-0.05-0.24-0.15c-0.02-0.09,0.05-0.2,0.15-0.22
		c0.1-0.02,0.21,0.04,0.24,0.15C61.57,137.14,61.51,137.24,61.41,137.26z M62.48,138.71c-0.03,0.01-0.07-0.03-0.14-0.07
		c0.05-0.05,0.08-0.11,0.11-0.1c0.04,0.01,0.07,0.05,0.11,0.08C62.54,138.65,62.51,138.7,62.48,138.71z M62.58,138.42
		c-0.02,0.01-0.04,0.01-0.05,0.01c-0.04-0.04-0.11-0.07-0.12-0.11c-0.01-0.05,0.05-0.1,0.07-0.16c0.05,0.03,0.12,0.05,0.14,0.1
		C62.64,138.3,62.6,138.37,62.58,138.42z M62.88,138.78c-0.1,0.01-0.17-0.03-0.2-0.13c-0.03-0.09,0.04-0.18,0.13-0.21
		c0.09-0.02,0.17,0.03,0.19,0.12C63.03,138.67,62.97,138.77,62.88,138.78z M63.22,134.93c0-0.03,0.03-0.06,0.04-0.09
		c0.03,0.02,0.07,0.03,0.09,0.06c0.01,0.02-0.02,0.06-0.05,0.11C63.26,134.98,63.22,134.96,63.22,134.93z M63.42,139.08
		c-0.04-0.03-0.07-0.07-0.07-0.11c-0.01-0.08-0.04-0.19,0.07-0.23c0.06-0.02,0.13,0.02,0.19,0.07
		C63.55,138.9,63.49,138.99,63.42,139.08z M63.7,137.53c-0.05-0.03-0.1-0.07-0.16-0.11c0.04-0.06,0.06-0.09,0.09-0.12
		c0.05,0.04,0.11,0.07,0.14,0.12C63.78,137.44,63.72,137.5,63.7,137.53z M63.81,136.11c-0.17-0.16-0.19-0.45-0.04-0.62
		c0.1-0.12,0.31-0.11,0.42,0.01c0.06,0.07,0.09,0.15,0.15,0.26c-0.03,0.1-0.04,0.21-0.1,0.31
		C64.15,136.24,63.95,136.25,63.81,136.11z M64.34,136.66c-0.03,0-0.06-0.04-0.07-0.06c0-0.02,0.02-0.06,0.05-0.07
		c0.03-0.01,0.07,0.01,0.1,0.01c-0.01,0.02-0.01,0.04-0.02,0.06C64.38,136.62,64.36,136.66,64.34,136.66z M64.5,136.99
		c-0.03-0.02-0.08-0.03-0.09-0.06c-0.01-0.02,0.01-0.06,0.04-0.12c0.05,0.04,0.09,0.06,0.09,0.08
		C64.55,136.92,64.52,136.95,64.5,136.99z M64.68,137.27c-0.04,0-0.09-0.04-0.1-0.08c-0.01-0.02,0.04-0.09,0.06-0.1
		c0.04-0.01,0.08,0.03,0.15,0.07C64.74,137.22,64.71,137.28,64.68,137.27z M65.13,136.03c-0.03,0.01-0.11-0.04-0.11-0.08
		c-0.01-0.04,0.03-0.11,0.06-0.13c0.03-0.01,0.09,0.03,0.16,0.06C65.19,135.96,65.17,136.02,65.13,136.03z M65.51,136.38
		c-0.01-0.03-0.03-0.05-0.04-0.08c-0.01-0.05,0.02-0.11,0.03-0.17c0.05,0.02,0.12,0.03,0.16,0.07c0,0,0,0,0.01,0.01
		C65.61,136.26,65.56,136.32,65.51,136.38z M65.79,126.27c-0.13-0.07-0.2-0.21-0.21-0.34c0.06-0.11,0.12-0.22,0.18-0.33
		c0.12-0.07,0.28-0.08,0.42,0c0.2,0.11,0.27,0.35,0.16,0.54C66.23,126.31,65.98,126.37,65.79,126.27z M66.6,134.86
		c-0.2,0.05-0.39-0.09-0.44-0.3c-0.05-0.23,0.07-0.44,0.28-0.49c0.19-0.05,0.38,0.08,0.43,0.29
		C66.93,134.59,66.81,134.81,66.6,134.86z M67.18,125.82c0.04,0.03,0.09,0.16,0.06,0.19c-0.05,0.05-0.15,0.09-0.21,0.07
		c-0.05-0.02-0.07-0.12-0.13-0.25C67.03,125.83,67.12,125.79,67.18,125.82z M66.92,133.5c0-0.04,0.04-0.09,0.07-0.13
		c0.04,0.03,0.09,0.05,0.1,0.09c0.01,0.04-0.03,0.08-0.07,0.16C66.98,133.56,66.92,133.53,66.92,133.5z M67.25,138.82
		c-0.12,0.03-0.24-0.04-0.27-0.16c-0.03-0.11,0.05-0.24,0.16-0.27c0.11-0.03,0.23,0.04,0.26,0.15
		C67.44,138.66,67.36,138.79,67.25,138.82z M80.54,135.18c0.14,0,0.26,0.08,0.34,0.19c-0.28,0.06-0.54,0.12-0.76,0.15
		C80.17,135.32,80.34,135.17,80.54,135.18z M68.16,132.79c-0.02-0.02-0.07-0.03-0.07-0.05c0-0.03,0.02-0.06,0.04-0.12
		c0.04,0.04,0.08,0.06,0.08,0.09C68.2,132.73,68.17,132.76,68.16,132.79z M68.52,138.92c-0.04,0.01-0.08-0.04-0.13-0.07
		c0.03-0.04,0.05-0.11,0.08-0.12c0.02-0.01,0.05,0,0.09,0.02c0.01,0.03,0.03,0.06,0.04,0.1C68.57,138.89,68.55,138.92,68.52,138.92z
		 M68.86,126.3c-0.04,0.05-0.18,0.09-0.23,0.06c-0.02-0.01-0.03-0.04-0.05-0.07c0.06-0.09,0.11-0.18,0.17-0.26
		c0.03-0.01,0.05-0.02,0.08-0.03C68.85,126.14,68.9,126.25,68.86,126.3z M70.8,130.02c-0.21,0.41-0.69,0.56-1.11,0.35
		c-0.4-0.21-0.54-0.68-0.33-1.1c0.04-0.09,0.11-0.16,0.18-0.22c0.03-0.02,0.05-0.04,0.08-0.06c0.24-0.16,0.56-0.2,0.83-0.06
		C70.85,129.14,71,129.62,70.8,130.02z M71.84,126.43c0.04-0.07,0.15-0.1,0.23-0.15c0,0,0,0.01,0,0.01
		C71.99,126.33,71.92,126.38,71.84,126.43z M76,137.53c0.02-0.05,0.21-0.09,0.26-0.05c0.07,0.05,0.07,0.18,0.13,0.34
		c-0.16,0.01-0.3,0.05-0.34,0.01C75.99,137.76,75.96,137.61,76,137.53z M76.33,138.8c-0.02,0-0.04,0.01-0.06,0.01
		c-0.05-0.04-0.12-0.07-0.15-0.12c-0.04-0.08,0.01-0.16,0.1-0.18c0.09-0.02,0.17,0.01,0.18,0.1
		C76.41,138.67,76.36,138.73,76.33,138.8z M77.02,138.47c-0.08,0.02-0.15,0-0.17-0.09c-0.02-0.08,0.04-0.17,0.17-0.2
		c0.03,0.02,0.1,0.06,0.12,0.11C77.17,138.38,77.11,138.44,77.02,138.47z M78.94,133.12c-0.02-0.17-0.06-0.28-0.04-0.36
		c-0.02,0-0.04,0.01-0.06,0.01c-0.41-0.03-0.65-0.33-0.62-0.75c0.03-0.42,0.39-0.73,0.81-0.7c0.33,0.02,0.61,0.43,0.58,0.84
		c-0.02,0.24-0.19,0.43-0.41,0.53c0.04,0.05,0.06,0.11,0.07,0.17c-0.06,0.07-0.11,0.13-0.16,0.18
		C79.06,133.06,79,133.08,78.94,133.12z M79.95,137.92c-0.46-0.03-0.76-0.42-0.74-0.92c0.02-0.46,0.36-0.78,0.79-0.76
		c0.43,0.02,0.82,0.45,0.8,0.89C80.78,137.58,80.38,137.95,79.95,137.92z M80.56,136.09c-0.25-0.01-0.45-0.23-0.44-0.49
		c0.31,0,0.61,0.02,0.88,0.05C80.98,135.9,80.78,136.1,80.56,136.09z M81.07,134.49c-0.07-0.14-0.13-0.21-0.13-0.28
		c0.01-0.05,0.11-0.1,0.17-0.15c0.05,0.07,0.13,0.14,0.14,0.21C81.26,134.32,81.16,134.38,81.07,134.49z M83.34,138.54
		c-0.05,0-0.12-0.04-0.15-0.08c-0.02-0.03,0.03-0.1,0.07-0.19c0.07,0.07,0.13,0.1,0.15,0.15C83.42,138.45,83.36,138.54,83.34,138.54
		z M83.51,139.19c0.15-0.32,0.48-0.53,0.86-0.53C84.09,138.89,83.8,139.07,83.51,139.19z M84.91,129.03
		c-0.3-0.03-0.52-0.27-0.49-0.54c0.01-0.09,0.05-0.17,0.11-0.24c-0.19-0.24-0.21-0.56-0.03-0.82c0.22-0.32,0.66-0.39,0.99-0.17
		c0.33,0.23,0.43,0.69,0.21,1.01c-0.07,0.1-0.18,0.17-0.29,0.21c0.01,0.04,0.02,0.08,0.02,0.12
		C85.4,128.87,85.19,129.05,84.91,129.03z M85.97,131.87c-0.12-0.41-0.28-0.8-0.47-1.16c0.09-0.04,0.18-0.06,0.28-0.06
		c0.35,0.02,0.62,0.34,0.59,0.68C86.36,131.58,86.19,131.78,85.97,131.87z M89.91,130.13c-0.04,0.14-0.21,0.25-0.29,0.34
		c-0.32-0.08-0.44-0.22-0.41-0.45c0.03-0.21,0.17-0.34,0.39-0.31C89.82,129.75,89.96,129.92,89.91,130.13z M90.63,138.88
		c-0.01-0.02-0.02-0.04-0.03-0.05c0.02-0.03,0.04-0.06,0.06-0.09C90.65,138.78,90.64,138.83,90.63,138.88z M90.71,132.28
		c-0.03,0.01-0.05,0.01-0.09,0.01c-0.25-0.02-0.36-0.2-0.35-0.43c0.01-0.22,0.14-0.37,0.38-0.36c0.03,0,0.06,0.01,0.08,0.02
		C90.75,131.79,90.74,132.04,90.71,132.28z M90.34,127.8c-0.26-0.02-0.46-0.27-0.43-0.56c0.03-0.27,0.26-0.46,0.52-0.43
		c0.25,0.03,0.45,0.28,0.42,0.54C90.82,127.62,90.59,127.82,90.34,127.8z M92.8,137.81c-0.03-0.01-0.04-0.03-0.07-0.05
		c0.1-0.02,0.19-0.04,0.22-0.02s0.05,0.07,0.06,0.12C92.94,137.85,92.87,137.85,92.8,137.81z M96.08,134.56
		c0.02,0.3-0.1,0.56-0.37,0.78c-0.16-0.34-0.32-0.65-0.49-0.93c0.07-0.03,0.14-0.06,0.22-0.08c0.25-0.04,0.47,0.02,0.66,0.14
		C96.09,134.51,96.08,134.53,96.08,134.56z M95.62,129.43c-0.19-0.12-0.21-0.32-0.09-0.5c0.12-0.18,0.33-0.24,0.49-0.1
		c0.11,0.09,0.14,0.29,0.19,0.41C96,129.48,95.82,129.57,95.62,129.43z M100.9,129.88c-0.05,0.06-0.17,0.06-0.26,0.09
		c-0.02-0.08-0.08-0.19-0.05-0.25c0.04-0.07,0.16-0.09,0.3-0.16C100.9,129.72,100.94,129.84,100.9,129.88z M106.27,133.11
		c-0.06,0-0.12,0-0.17,0c-0.01-0.01-0.01-0.02-0.02-0.03c0.12-0.07,0.24-0.15,0.41-0.26c0.06,0.09,0.1,0.16,0.13,0.22
		C106.5,133.05,106.39,133.09,106.27,133.11z M118.55,131.72c0.16-0.2,0.46-0.21,0.64-0.02c0.07,0.07,0.14,0.15,0.21,0.24
		c-0.05,0.09-0.09,0.18-0.14,0.27c-0.21,0.04-0.42,0.09-0.63,0.16c0,0,0,0,0,0C118.43,132.21,118.39,131.92,118.55,131.72z
		 M118.78,133.63c0.03,0.16-0.04,0.31-0.19,0.38c-0.21,0.1-0.46-0.01-0.57-0.25c-0.02-0.04-0.03-0.09-0.04-0.13
		C118.25,133.63,118.51,133.63,118.78,133.63z M117.53,129.25c0.04-0.01,0.1,0,0.15,0.03c0.01-0.01,0.02-0.02,0.03-0.03
		c0.06,0.07,0.17,0.15,0.17,0.22c-0.01,0.09-0.11,0.17-0.21,0.3c-0.05-0.08-0.11-0.14-0.14-0.19c-0.05-0.01-0.1-0.03-0.17-0.05
		C117.43,129.39,117.46,129.27,117.53,129.25z M108.66,128.46c-0.02-0.07-0.03-0.14-0.02-0.22c0.04-0.22,0.27-0.39,0.48-0.39
		C109.03,128.1,108.87,128.3,108.66,128.46z M113.32,136.07c-0.05,0.01-0.11-0.09-0.21-0.18c0.13-0.06,0.2-0.13,0.27-0.13
		c0.05,0,0.14,0.13,0.13,0.16C113.47,135.99,113.39,136.07,113.32,136.07z M119.33,136.5c-0.72,0-1.46-0.02-2.19-0.03
		c-0.03-0.33,0.08-0.65,0.34-0.94c0.38-0.4,0.86-0.49,1.34-0.25c0.49,0.24,0.66,0.57,0.61,1.22
		C119.4,136.5,119.37,136.5,119.33,136.5z M121.03,131.82c0.07-0.01,0.19,0.02,0.22,0.07c0.01,0.02,0.01,0.06,0,0.11
		c-0.1,0-0.19,0.01-0.29,0.01C120.95,131.96,120.99,131.83,121.03,131.82z M122.02,136.18c-0.19,0.05-0.38,0.1-0.56,0.14
		c-0.09-0.04-0.17-0.11-0.22-0.21c-0.09-0.21,0-0.46,0.21-0.57c0.22-0.11,0.5-0.01,0.61,0.22
		C122.14,135.91,122.11,136.06,122.02,136.18z M122.15,132c-0.09,0-0.18,0-0.27,0c-0.14-0.04-0.22-0.15-0.17-0.3
		c0.04-0.14,0.2-0.24,0.38-0.42c0.14,0.2,0.28,0.31,0.28,0.42C122.37,131.85,122.29,131.96,122.15,132z M123.14,138.27
		c-0.03-0.04-0.06-0.07-0.08-0.11c-0.13-0.27,0-0.62,0.27-0.75c0.14-0.07,0.3-0.07,0.44-0.02
		C123.57,137.69,123.36,137.98,123.14,138.27z M124.3,134.21c-0.21,0.1-0.47-0.01-0.57-0.24c-0.07-0.16-0.04-0.34,0.07-0.46
		c0.14-0.03,0.27-0.07,0.4-0.1c0.13,0.03,0.24,0.11,0.3,0.24C124.59,133.85,124.5,134.11,124.3,134.21z M125.49,133.72
		c-0.09-0.01-0.24-0.19-0.22-0.26c0.03-0.11,0.17-0.24,0.27-0.25c0.09-0.01,0.2,0.14,0.37,0.28
		C125.71,133.61,125.59,133.73,125.49,133.72z M126.63,131.37c-0.06,0.02-0.18-0.03-0.22-0.08c-0.03-0.04,0.01-0.18,0.05-0.2
		c0.06-0.03,0.15,0.01,0.29,0.02C126.69,131.23,126.68,131.35,126.63,131.37z M127.77,130.34c-0.13-0.06-0.26-0.09-0.27-0.14
		c-0.01-0.09,0.04-0.19,0.07-0.28c0.08,0.03,0.2,0.04,0.23,0.1C127.84,130.09,127.79,130.19,127.77,130.34z M138.04,134.19
		c0.04,0.01,0.1,0.05,0.11,0.08c0.01,0.04-0.04,0.09-0.08,0.17c-0.06-0.07-0.11-0.11-0.11-0.15
		C137.96,134.26,138.02,134.19,138.04,134.19z M132.91,125.97c-0.04-0.06-0.12-0.13-0.11-0.19c0.01-0.07,0.1-0.13,0.19-0.24
		c0.06,0.12,0.14,0.21,0.12,0.24C133.07,125.86,132.98,125.91,132.91,125.97z M134.82,133.13c0-0.02-0.01-0.04-0.01-0.06
		c0.02,0.01,0.03,0.02,0.04,0.04C134.84,133.12,134.84,133.12,134.82,133.13z M135.66,134.47c-0.06-0.04-0.13-0.08-0.18-0.12
		c0.02-0.03,0.05-0.06,0.09-0.07c0.04-0.01,0.09,0.06,0.19,0.12C135.72,134.42,135.69,134.44,135.66,134.47z M136.33,133.34
		c-0.03,0-0.08-0.05-0.15-0.1c0.07-0.04,0.11-0.09,0.15-0.09c0.03,0,0.09,0.06,0.09,0.08C136.41,133.28,136.36,133.33,136.33,133.34
		z M138.06,137.68c-0.27-0.02-0.45-0.24-0.42-0.48c0.03-0.28,0.29-0.48,0.57-0.46c0.29,0.02,0.47,0.2,0.44,0.46
		C138.62,137.48,138.35,137.7,138.06,137.68z M139.93,135.12c-0.04-0.01-0.08-0.07-0.12-0.11c0.04-0.03,0.07-0.09,0.11-0.09
		c0.04,0,0.08,0.05,0.15,0.1C140.01,135.07,139.96,135.13,139.93,135.12z M144.01,133.09c-0.08,0.24-0.22,0.46-0.49,0.48
		c-0.28,0.03-0.55-0.03-0.71-0.29c-0.02-0.03-0.03-0.07-0.04-0.1c0.42-0.06,0.84-0.17,1.27-0.3
		C144.04,132.94,144.03,133.01,144.01,133.09z M165,126.25c0.04,0,0.07,0.06,0.11,0.09c-0.04,0.04-0.07,0.1-0.11,0.11
		c-0.03,0.01-0.07-0.05-0.14-0.1C164.92,126.3,164.96,126.25,165,126.25z M156.88,127.28c0.05-0.01,0.11-0.02,0.16-0.03
		c0.03,0.05,0.05,0.09,0.09,0.16c-0.07,0.04-0.14,0.11-0.16,0.09c-0.05-0.04-0.13-0.11-0.12-0.16
		C156.86,127.33,156.87,127.3,156.88,127.28z M156.17,127.84c0-0.02,0.09-0.03,0.1-0.02c0.07,0.1,0.16,0.19,0.19,0.3
		c0.01,0.05-0.06,0.13-0.1,0.2c-0.02,0.01-0.03,0.01-0.05,0.02h-0.05c-0.04-0.07-0.12-0.13-0.13-0.2
		C156.12,128.04,156.15,127.94,156.17,127.84z M155.88,127.37c-0.04,0.03-0.08,0.06-0.13,0.09c-0.07-0.01-0.13-0.04-0.19-0.07
		C155.67,127.39,155.78,127.38,155.88,127.37z M155.02,127.39c0.11,0,0.21,0.01,0.31,0.01c0,0.01,0,0.01,0,0.02
		C155.23,127.55,155.13,127.47,155.02,127.39C155.02,127.39,155.02,127.39,155.02,127.39z M154.49,128.82
		c0.02-0.01,0.07-0.02,0.08-0.01c0.01,0.02,0.02,0.05,0.04,0.08c-0.04,0.01-0.09,0.02-0.13,0.03c0-0.01-0.01-0.01-0.01-0.02
		C154.46,128.88,154.48,128.83,154.49,128.82z M153.66,127.3c-0.04,0.01-0.07,0.01-0.1,0.02c-0.21,0.1-0.42,0.13-0.64,0.11
		c-0.16-0.02-0.25-0.13-0.29-0.26C152.97,127.23,153.31,127.27,153.66,127.3z M153.84,128.2c0.14,0.04,0.19,0.11,0.12,0.25
		c-0.05,0.11-0.12,0.13-0.19,0.05c-0.09-0.09-0.16-0.21-0.24-0.31c0.01-0.01,0.03-0.03,0.04-0.04
		C153.65,128.17,153.75,128.18,153.84,128.2z M153.36,128.57c0.01,0.1,0.05,0.23,0.01,0.3c-0.05,0.07-0.17,0.11-0.27,0.14
		c-0.06,0.02-0.14-0.01-0.25-0.03c0-0.12-0.05-0.27,0-0.37c0.05-0.1,0.2-0.15,0.28-0.21c-0.01-0.05-0.03-0.1-0.02-0.14
		c0.03-0.11,0.16-0.19,0.11-0.33c0-0.01,0.07-0.04,0.1-0.07c0.02,0.04,0.07,0.09,0.07,0.13c-0.02,0.14-0.06,0.27-0.08,0.41
		C153.31,128.46,153.35,128.51,153.36,128.57z M153.17,130.72c-0.03,0.02-0.05,0.04-0.07,0.04c-0.01,0-0.04-0.02-0.05-0.03
		C153.09,130.73,153.13,130.72,153.17,130.72z M152.55,127.62c0.04-0.07,0.08-0.14,0.12-0.2c0.05,0.04,0.11,0.09,0.17,0.13
		c0.12,0.08,0.15,0.22,0.08,0.33c-0.07,0.1-0.17,0.14-0.29,0.07C152.5,127.88,152.47,127.74,152.55,127.62z M152.83,131.84
		c-0.05-0.01-0.09-0.02-0.14-0.04c0.04-0.01,0.08-0.02,0.12-0.02C152.82,131.8,152.82,131.82,152.83,131.84z M151.68,127.04
		c0.16,0.02,0.31,0.05,0.47,0.07c0.01,0.05,0.02,0.11-0.01,0.18c-0.05,0.12-0.11,0.25-0.18,0.41c-0.12-0.16-0.22-0.28-0.29-0.41
		C151.62,127.2,151.63,127.11,151.68,127.04z M144.88,135.91c-0.01-0.01-0.02-0.03-0.02-0.04c-0.02-0.1,0.05-0.16,0.17-0.2
		C144.98,135.75,144.93,135.83,144.88,135.91z M144.73,132.64c0.13-0.05,0.25-0.09,0.37-0.14
		C145.02,132.59,144.84,132.66,144.73,132.64z M145.5,132.86c-0.15-0.01-0.29-0.17-0.28-0.33c0-0.03,0.01-0.06,0.03-0.08
		c0.12-0.05,0.24-0.1,0.36-0.15c0.11,0.04,0.2,0.14,0.2,0.27C145.79,132.73,145.65,132.86,145.5,132.86z M146.46,134.04
		c0-0.02-0.01-0.04,0-0.06c0.03-0.07,0.1-0.09,0.17-0.09C146.57,133.94,146.52,133.99,146.46,134.04z M146.91,127.03
		c-0.1,0.12-0.26,0.14-0.41,0.05c-0.09-0.05-0.14-0.12-0.16-0.2c0.22-0.04,0.44-0.06,0.65-0.09
		C146.99,126.88,146.97,126.96,146.91,127.03z M148.55,128.16c-0.01,0.01-0.02,0.02-0.03,0.02c-0.12,0.05-0.3,0.17-0.37,0.13
		c-0.13-0.09-0.2-0.27-0.25-0.35c0-0.32,0.29-0.59,0.52-0.57c0.03,0,0.06,0.01,0.09,0.03C148.71,127.57,148.74,128,148.55,128.16z
		 M148.82,128.94c0.02-0.02,0.05-0.04,0.07-0.06c0.03,0.03,0.06,0.05,0.09,0.08C148.93,128.95,148.87,128.94,148.82,128.94z
		 M149.65,128.99c-0.04,0.02-0.11-0.04-0.17-0.06l0.14-0.26C149.72,128.81,149.8,128.92,149.65,128.99z M151.88,133.42
		c-0.23-0.13-0.46-0.27-0.69-0.42c0-0.03,0.01-0.06,0.02-0.09c0.02-0.14,0.11-0.21,0.2-0.27c0.14,0.04,0.28,0.07,0.43,0.11
		c0.03,0.1,0.07,0.2,0.1,0.28C151.91,133.17,151.89,133.29,151.88,133.42z M152.11,129.08c-0.06-0.03-0.11-0.06-0.17-0.1
		c-0.01-0.01-0.02-0.01-0.04-0.02c-0.24,0.29-0.57,0.15-0.87,0.16c-0.02,0-0.05-0.01-0.07-0.02c-0.12-0.1-0.2-0.15-0.39-0.06
		c-0.26,0.13-0.63-0.17-0.73-0.46c-0.08-0.24,0.08-0.42,0.12-0.62c0.04-0.18,0.1-0.35,0.13-0.53c0.04-0.25,0.13-0.46,0.34-0.58
		c0.33,0.05,0.66,0.1,0.99,0.15c0.02,0.02,0.03,0.05,0.05,0.07c0.05,0.07,0.07,0.19,0.06,0.28c0,0.13-0.03,0.26,0.09,0.37
		c0.02,0.02,0.02,0.07,0.01,0.1c-0.08,0.24,0.02,0.41,0.17,0.59c0.08,0.09,0.1,0.24,0.15,0.36c0.01,0.04,0.03,0.08,0.06,0.11
		c0.05,0.04,0.11,0.07,0.16,0.11C152.17,129,152.11,129.09,152.11,129.08z M152.5,127.16c-0.02,0.03-0.05,0.07-0.07,0.11
		c-0.05-0.06-0.09-0.1-0.11-0.13C152.38,127.14,152.44,127.15,152.5,127.16z M152.53,138.48c-0.04,0-0.09-0.06-0.1-0.1
		c0-0.01,0.01-0.02,0.02-0.04c0.04,0.04,0.08,0.08,0.12,0.11C152.56,138.47,152.55,138.48,152.53,138.48z M152.81,135.74
		c-0.03-0.01-0.11-0.03-0.14-0.07c-0.07-0.1-0.12-0.22-0.19-0.33c0.18,0.1,0.37,0.2,0.55,0.3
		C152.98,135.69,152.91,135.74,152.81,135.74z M153.71,133.53c-0.02,0.04-0.01,0.1-0.01,0.15c0,0.3-0.08,0.38-0.37,0.41
		c-0.04,0-0.09,0.01-0.13,0.02c-0.29-0.14-0.58-0.28-0.86-0.44c0.03-0.31,0.22-0.49,0.55-0.46c0.16,0.01,0.33,0.03,0.46-0.1
		c0.01-0.01,0.02-0.01,0.02-0.02c0.09,0.01,0.17,0.03,0.26,0.04C153.7,133.24,153.77,133.36,153.71,133.53z M153.74,131.48
		c-0.05-0.05-0.17-0.13-0.2-0.23c-0.05-0.14,0.11-0.29,0.25-0.29c0.14,0,0.27,0.11,0.28,0.24
		C154.08,131.34,153.96,131.47,153.74,131.48z M154.18,128.98c-0.04,0.01-0.09,0.02-0.13,0.03c-0.05-0.02-0.09-0.04-0.14-0.07
		c-0.02-0.01-0.03-0.05-0.04-0.07c-0.14,0.02-0.24,0.03-0.35,0.04c-0.01-0.02-0.01-0.04-0.02-0.06c0.04-0.02,0.08-0.07,0.11-0.07
		c0.14,0.03,0.24-0.01,0.28-0.15c0.01-0.02,0.02-0.05,0.02-0.07c0.09,0.06,0.16,0.09,0.21,0.14c0.05,0.05,0.1,0.12,0.11,0.19
		C154.23,128.91,154.21,128.95,154.18,128.98z M154.3,127.62c-0.09,0.05-0.2,0.08-0.32,0.12c-0.03-0.02-0.08-0.05-0.09-0.09
		c-0.01-0.04-0.01-0.11,0.02-0.13c0.09-0.06,0.19-0.11,0.29-0.14c0.04-0.01,0.12,0.04,0.14,0.08
		C154.35,127.5,154.33,127.6,154.3,127.62z M154.76,131.87c-0.04,0-0.11-0.04-0.11-0.06c-0.01-0.04,0.02-0.1,0.06-0.13
		c0.07-0.05,0.15-0.08,0.24-0.13C154.97,131.65,154.86,131.86,154.76,131.87z M154.59,131.33c-0.07-0.02-0.16-0.12-0.16-0.19
		c0-0.08,0.07-0.21,0.14-0.23c0.09-0.02,0.24,0.01,0.29,0.07c0.1,0.12,0.14,0.28,0.2,0.42
		C154.89,131.38,154.73,131.37,154.59,131.33z M155.33,127.87c0.11-0.07,0.21-0.05,0.3,0.04c0.04,0.04,0.06,0.09,0.11,0.15
		c0.03-0.07,0.04-0.12,0.07-0.14c0.04-0.03,0.1-0.05,0.14-0.04c0.04,0.01,0.08,0.07,0.08,0.11c-0.01,0.04-0.05,0.1-0.09,0.12
		c-0.2,0.09-0.2,0.1-0.08,0.27c0.05-0.01,0.11-0.04,0.16-0.02c0.03,0.01,0.06,0.04,0.09,0.07c-0.29,0.11-0.59,0.21-0.88,0.3
		c-0.01-0.02-0.02-0.05-0.06-0.06c-0.04-0.02-0.06-0.09-0.08-0.14C155.05,128.39,155.22,127.93,155.33,127.87z M156.1,130.59
		c-0.02,0.05-0.09,0.08-0.16,0.14c-0.06-0.06-0.13-0.11-0.15-0.16c-0.02-0.11-0.01-0.22-0.01-0.34c0-0.01,0.02-0.02,0.03-0.03
		c0.01,0,0.03-0.01,0.04-0.01c0.02,0,0.05,0.01,0.06,0.02c0.06,0.07,0.12,0.14,0.17,0.21C156.1,130.47,156.12,130.54,156.1,130.59z
		 M155.77,131.03c-0.03,0.03-0.09,0.08-0.14,0.13c-0.08-0.1-0.17-0.19-0.24-0.3c-0.01-0.02,0.11-0.15,0.17-0.15
		C155.72,130.71,155.75,130.84,155.77,131.03z M155.82,136.71c-0.13,0-0.24-0.07-0.31-0.17c0.16,0.04,0.33,0.09,0.5,0.13
		C155.95,136.7,155.89,136.71,155.82,136.71z M156.49,138.89c0.04-0.13-0.04-0.31,0.17-0.32c0.05,0,0.16,0.1,0.16,0.15
		C156.81,138.92,156.64,138.88,156.49,138.89z M156.5,134.04c0.01-0.05,0.07-0.12,0.11-0.12c0.04,0,0.1,0.06,0.18,0.12
		c-0.09,0.06-0.14,0.11-0.19,0.11C156.57,134.15,156.49,134.07,156.5,134.04z M156.87,131.93c-0.27,0.04-0.53,0.1-0.81,0.12
		c0,0,0,0,0,0c0,0,0,0,0,0c-0.3,0.03-0.61,0.04-0.92,0.04c-0.01-0.1,0-0.2,0.07-0.3c0.18-0.27,0.44-0.27,0.75-0.03
		c0.12-0.11,0.23-0.21,0.34-0.32c0.02-0.02,0.03-0.06,0.04-0.09c0.03-0.05,0.06-0.1,0.09-0.15c0.03,0.05,0.07,0.1,0.1,0.15
		c0.01,0.01,0.01,0.02,0.02,0.04c0.18,0.02,0.38,0.05,0.4,0.29C156.96,131.78,156.92,131.87,156.87,131.93z M157.44,133.52
		c-0.02-0.05-0.05-0.11-0.07-0.16c0.04,0,0.08,0,0.12,0c0.01,0.04,0.03,0.08,0.04,0.13C157.5,133.5,157.47,133.51,157.44,133.52z
		 M157.54,131.68c-0.04-0.04-0.1-0.07-0.11-0.11c-0.01-0.03,0.05-0.07,0.1-0.15c0.05,0.07,0.1,0.11,0.1,0.15
		C157.62,131.6,157.57,131.64,157.54,131.68z M157.82,130.64c-0.21,0.29-0.66,0.3-0.93,0.07c-0.22-0.18-0.28-0.48-0.16-0.74
		c0.19-0.05,0.39-0.1,0.58-0.14c0.14-0.03,0.28-0.06,0.43-0.08c0.03,0.02,0.05,0.03,0.08,0.06c0.08,0.08,0.2,0.18,0.19,0.26
		C157.98,130.26,157.93,130.48,157.82,130.64z M158.45,138.53c-0.13-0.01-0.21-0.08-0.23-0.22c0-0.13,0.07-0.21,0.2-0.21
		c0.14-0.01,0.22,0.07,0.24,0.2C158.68,138.42,158.57,138.53,158.45,138.53z M158.75,131.03c-0.17,0.01-0.32-0.13-0.33-0.3
		c-0.01-0.18,0.12-0.32,0.29-0.33c0.17,0,0.32,0.14,0.33,0.3C159.05,130.88,158.92,131.02,158.75,131.03z M160.5,129.88
		c-0.01,0.01-0.09-0.06-0.11-0.08c0-0.08,0.03-0.16,0.07-0.22c0.1,0,0.2,0,0.3,0.01c0.01,0.01,0.02,0.02,0.03,0.03
		C160.69,129.71,160.6,129.8,160.5,129.88z M161.24,126.16c0.06-0.06,0.12-0.11,0.21-0.2c0.07,0.07,0.11,0.12,0.15,0.16
		c-0.07,0.06-0.13,0.13-0.21,0.17C161.36,126.3,161.28,126.21,161.24,126.16z M161.47,130.94c0.01-0.01,0.03-0.03,0.04-0.02
		c0.01,0,0.02,0.01,0.03,0.02C161.51,130.93,161.49,130.93,161.47,130.94z M161.67,130.27c-0.03-0.01-0.06-0.03-0.09-0.05
		c-0.03-0.05-0.09-0.1-0.09-0.15c0-0.03,0.09-0.1,0.12-0.09c0.05,0.01,0.11,0.07,0.12,0.12
		C161.73,130.16,161.69,130.22,161.67,130.27z M163.25,133.86c-0.05-0.07-0.1-0.11-0.1-0.15c0-0.03,0.07-0.1,0.1-0.09
		c0.04,0.01,0.09,0.06,0.1,0.1C163.35,133.75,163.3,133.8,163.25,133.86z M163.51,130.78c-0.11-0.18-0.23-0.29-0.22-0.38
		c0.01-0.06,0.07-0.11,0.14-0.16c0.1,0.04,0.19,0.08,0.29,0.12c0.01,0.02,0.04,0.04,0.04,0.06
		C163.77,130.51,163.64,130.61,163.51,130.78z M164.02,133.68c-0.06-0.06-0.09-0.11-0.13-0.15c0.03-0.03,0.07-0.09,0.11-0.09
		c0.04,0,0.1,0.05,0.11,0.09C164.12,133.56,164.07,133.61,164.02,133.68z M164.03,127.34c-0.26-0.02-0.48-0.02-0.57,0.02
		c-0.15-0.05-0.3-0.12-0.45-0.19c-0.05-0.16,0.02-0.34,0.18-0.45c0.27-0.19,0.68-0.12,0.88,0.13
		C164.16,126.99,164.14,127.2,164.03,127.34z M165.24,131.13c-0.37-0.09-0.74-0.16-1.11-0.2c0.01-0.13,0.07-0.24,0.16-0.33
		c0.33,0.16,0.64,0.33,0.95,0.52C165.24,131.12,165.24,131.12,165.24,131.13z M172.22,131.17c-0.02-0.01-0.04-0.06-0.03-0.08
		c0.01-0.02,0.06-0.04,0.08-0.03c0.02,0.01,0.03,0.05,0.06,0.1C172.28,131.17,172.24,131.19,172.22,131.17z M176.26,128.51
		c0.03-0.06,0.08-0.07,0.14-0.05c0.07,0.02,0.08,0.08,0.06,0.14c-0.03,0.06-0.08,0.08-0.14,0.06
		C176.26,128.64,176.23,128.57,176.26,128.51z M174.36,131.74c0.05,0,0.1-0.03,0.14-0.01c0.06,0.02,0.07,0.08,0.04,0.14
		c-0.03,0.05-0.09,0.08-0.14,0.04c-0.03-0.03-0.04-0.09-0.06-0.13C174.35,131.76,174.35,131.75,174.36,131.74z M174.24,128.06
		c0,0.06-0.08,0.13-0.16,0.24c-0.08-0.11-0.15-0.17-0.16-0.23C174.03,128.06,174.13,128.06,174.24,128.06z M173.39,132.25
		c0.02,0.02,0.03,0.06,0.03,0.08c0,0.01-0.05,0.04-0.07,0.03c-0.02-0.01-0.03-0.05-0.05-0.09
		C173.34,132.26,173.37,132.24,173.39,132.25z M172.53,129.23c0.24-0.01,0.43,0.17,0.43,0.41c0,0.22-0.18,0.4-0.41,0.41
		c-0.24,0-0.44-0.18-0.44-0.41C172.11,129.42,172.31,129.23,172.53,129.23z M170.67,129.26c0.02,0.01,0.03,0.06,0.02,0.07
		c-0.01,0.02-0.05,0.04-0.08,0.03c-0.02-0.01-0.03-0.05-0.06-0.09C170.61,129.26,170.64,129.25,170.67,129.26z M170.42,129.74
		c0.06,0.04,0.09,0.12,0.05,0.19c-0.04,0.07-0.13,0.1-0.19,0.07c-0.07-0.03-0.1-0.13-0.06-0.2
		C170.26,129.73,170.35,129.7,170.42,129.74z M170.15,126.32c0.11,0.05,0.17,0.17,0.12,0.28c-0.04,0.1-0.18,0.18-0.26,0.14
		c-0.09-0.04-0.17-0.23-0.13-0.32C169.92,126.32,170.04,126.27,170.15,126.32z M169.88,131.18c0.1,0.04,0.13,0.14,0.09,0.24
		c-0.03,0.08-0.14,0.12-0.23,0.08c-0.09-0.04-0.13-0.15-0.09-0.23C169.68,131.18,169.79,131.14,169.88,131.18z M169.53,129.52
		c0.06,0.03,0.12,0.09,0.17,0.15c0.01,0.01-0.01,0.06-0.03,0.07c-0.05,0.04-0.2,0.04-0.24,0c-0.03-0.04-0.05-0.09-0.06-0.12
		C169.42,129.53,169.47,129.49,169.53,129.52z M169.02,128.88c0.06,0.02,0.08,0.07,0.06,0.12c-0.02,0.06-0.08,0.08-0.17,0.05
		c-0.01-0.03-0.04-0.08-0.03-0.11C168.9,128.88,168.96,128.86,169.02,128.88z M168.13,129.47c0.08-0.17,0.23-0.24,0.4-0.19
		c0.01,0,0.02,0.01,0.03,0.01c0.12-0.07,0.12,0,0.12,0.09c0,0.03,0.03,0.05,0.05,0.09c0.06,0.12,0.05,0.24-0.03,0.34
		c-0.08,0.1-0.19,0.16-0.32,0.12c-0.13-0.04-0.24-0.12-0.26-0.27C168.11,129.59,168.13,129.53,168.13,129.47z M167.36,126.65
		c0.02,0.01,0.03,0.04,0.06,0.08c-0.05,0.01-0.08,0.02-0.1,0.01c-0.02-0.01-0.02-0.04-0.03-0.06
		C167.31,126.67,167.34,126.65,167.36,126.65z M166.58,135.12c0.06,0.03,0.08,0.08,0.05,0.14c-0.02,0.06-0.08,0.08-0.13,0.05
		c-0.04-0.02-0.05-0.07-0.07-0.1C166.47,135.13,166.51,135.1,166.58,135.12z M165.74,126.58c0.01,0.03,0.04,0.07,0.04,0.1
		c-0.01,0.02-0.05,0.04-0.1,0.07c-0.01-0.06-0.03-0.1-0.02-0.13C165.66,126.6,165.71,126.6,165.74,126.58z M165.46,135.14
		c0.01,0.02,0.03,0.05,0.02,0.07c-0.01,0.02-0.04,0.03-0.08,0.06c-0.01-0.04-0.03-0.07-0.02-0.09
		C165.41,135.16,165.44,135.15,165.46,135.14z M143.48,52.54c-0.03,0.02-0.07,0.04-0.1,0.05h0.21
		C143.55,52.57,143.51,52.56,143.48,52.54z M148.67,74.22c0.1-0.02,0.3,0.13,0.33,0.26h1.83c0.01-0.01,0.01-0.02,0.02-0.02
		c0.02-0.01,0.02-0.04,0.04-0.06l-0.03-0.03c-0.06,0.08-0.14,0.12-0.21,0.04c-0.03-0.03-0.03-0.12,0-0.16c0.07-0.08,0.15-0.02,0.2,0
		c0.11-0.01,0.22-0.04,0.33-0.04c0.02,0,0.04,0.04,0.06,0.07c-0.01,0.02-0.02,0.04-0.04,0.06c-0.02,0.01-0.04,0.02-0.05,0.02
		c-0.02,0-0.04,0-0.06-0.01c0,0.01-0.01,0.02-0.01,0.03c0.02,0.01,0.05,0.02,0.07,0.03c-0.01,0.02-0.02,0.03-0.03,0.05h7.38
		c-0.06-0.02-0.12-0.04-0.17-0.07c-0.29-0.2-0.43-0.51-0.42-0.83c-0.03-0.05-0.06-0.1-0.07-0.15c-0.03-0.12,0.04-0.21,0.17-0.25
		c0.03-0.05,0.04-0.11,0.07-0.16c0.03-0.05,0.09-0.09,0.13-0.13c0.08,0.12,0.17,0.21,0.25,0.22c0.41,0.08,0.35-0.2,0.25-0.5
		c0.24-0.04,0.51,0.01,0.74,0.17c0.44,0.29,0.56,0.92,0.25,1.37c-0.11,0.16-0.26,0.26-0.42,0.33h8.99
		c-4.83-7.07-10.97-13.19-18.07-17.98H74.8c-7.1,4.79-13.24,10.9-18.08,17.98h91.78C148.54,74.36,148.6,74.24,148.67,74.22z
		 M163.78,71.82c0.03,0.02,0.1,0.05,0.12,0.11c0.03,0.09-0.03,0.16-0.12,0.18c-0.08,0.02-0.15,0-0.17-0.09
		C163.58,71.94,163.64,71.85,163.78,71.82z M162.98,72.15c0.09-0.02,0.17,0.01,0.18,0.1c0.01,0.06-0.05,0.13-0.07,0.19
		c-0.02,0-0.04,0.01-0.06,0.01c-0.05-0.04-0.12-0.07-0.15-0.13C162.85,72.25,162.9,72.17,162.98,72.15z M161.04,73.48
		c0.09-0.02,0.17,0.02,0.19,0.11c0.02,0.09-0.03,0.19-0.12,0.21c-0.09,0.02-0.17-0.01-0.2-0.11
		C160.87,73.6,160.94,73.5,161.04,73.48z M160.34,71.16c0.13-0.03,0.18,0,0.21,0.11c0.03,0.15-0.05,0.29-0.18,0.32
		c-0.11,0.02-0.23-0.04-0.25-0.15C160.09,71.32,160.19,71.19,160.34,71.16z M159.75,72.42c0.14-0.02,0.13,0.1,0.16,0.2
		c-0.1-0.01-0.21,0.07-0.25-0.07C159.66,72.51,159.71,72.42,159.75,72.42z M159.19,71.21c0.08-0.03,0.17,0.03,0.19,0.11
		c0.02,0.09-0.03,0.16-0.12,0.19c-0.09,0.02-0.15-0.02-0.18-0.1C159.06,71.3,159.1,71.24,159.19,71.21z M149.36,73.72
		c-0.05-0.01-0.11-0.05-0.14-0.09c-0.01-0.02,0.04-0.11,0.08-0.12c0.04-0.01,0.1,0.03,0.18,0.06
		C149.42,73.65,149.38,73.72,149.36,73.72z M151.06,72.89c0.03-0.07,0.06-0.13,0.09-0.19c0.02,0.02,0.07,0.05,0.07,0.07
		c-0.01,0.07-0.04,0.13-0.06,0.19C151.14,72.95,151.11,72.93,151.06,72.89z M151.28,73.58c-0.05-0.05-0.1-0.07-0.1-0.11
		c0-0.03,0.04-0.07,0.06-0.1c0.03,0.03,0.08,0.05,0.1,0.08C151.34,73.47,151.31,73.52,151.28,73.58z M152.29,72.19
		c-0.03,0.01-0.07-0.03-0.11-0.05c0.02-0.04,0.03-0.09,0.06-0.11c0.02-0.01,0.07,0.03,0.13,0.05
		C152.34,72.13,152.32,72.18,152.29,72.19z M152.35,71.93c-0.02,0.01-0.04,0.01-0.05,0.02c-0.04-0.04-0.11-0.07-0.12-0.11
		c-0.01-0.04,0.04-0.12,0.08-0.13c0.04-0.01,0.11,0.04,0.13,0.08C152.41,71.82,152.37,71.88,152.35,71.93z M153.08,71.24
		c-0.11,0.02-0.26-0.04-0.26-0.11c0-0.05,0.05-0.09,0.08-0.14c0.07,0.05,0.15,0.1,0.22,0.16C153.13,71.15,153.09,71.22,153.08,71.24
		z M153.21,70.36c-0.03,0.03-0.05,0.07-0.09,0.08c-0.02,0.01-0.08-0.04-0.08-0.07c0-0.04,0.03-0.09,0.07-0.1
		c0.03-0.01,0.08,0.01,0.12,0.02C153.22,70.31,153.22,70.33,153.21,70.36z M154.53,66.56c-0.04,0.01-0.09-0.02-0.17-0.04
		c0.05-0.06,0.07-0.13,0.1-0.13c0.05,0,0.1,0.04,0.15,0.06C154.58,66.49,154.56,66.55,154.53,66.56z M156.52,73.1
		c0.05,0.05,0.1,0.08,0.1,0.11c0,0.03-0.04,0.09-0.06,0.09c-0.04,0-0.09-0.03-0.1-0.06C156.45,73.21,156.49,73.17,156.52,73.1z
		 M156.05,72.7c0.01,0.01,0.01,0.02,0.02,0.03c-0.02,0.01-0.04,0.03-0.05,0.04C156.02,72.75,156.04,72.73,156.05,72.7z
		 M155.23,68.18c-0.04,0.05-0.06,0.08-0.08,0.11c-0.03-0.02-0.07-0.04-0.08-0.06c-0.01-0.03,0.02-0.08,0.05-0.09
		C155.14,68.13,155.18,68.16,155.23,68.18z M155.01,62.55c0.02-0.01,0.1,0.02,0.11,0.04c0.01,0.04-0.02,0.08-0.04,0.15
		c-0.06-0.04-0.12-0.05-0.13-0.08C154.93,62.62,154.97,62.57,155.01,62.55z M154.89,66.26c0.04,0.04,0.08,0.06,0.08,0.08
		c0,0.03-0.03,0.06-0.05,0.09c-0.02-0.02-0.07-0.03-0.07-0.05C154.84,66.35,154.86,66.31,154.89,66.26z M154.44,63.5
		c0.1-0.02,0.16,0.02,0.18,0.12c0.02,0.1-0.04,0.15-0.12,0.18c-0.1,0.01-0.16-0.03-0.18-0.13C154.31,63.58,154.36,63.52,154.44,63.5
		z M153.8,70.38c-0.03,0-0.11-0.05-0.11-0.07c0-0.05,0.04-0.11,0.08-0.15c0.02-0.01,0.07,0.03,0.14,0.06
		C153.87,70.28,153.83,70.32,153.8,70.38z M153.75,67.01c0.04,0.03,0.1,0.05,0.1,0.09c0.01,0.03-0.03,0.08-0.07,0.16
		c-0.05-0.06-0.11-0.09-0.11-0.12C153.69,67.09,153.73,67.05,153.75,67.01z M153.09,65.54c0.06-0.04,0.16,0.04,0.19,0.18
		c-0.03,0.03-0.06,0.09-0.12,0.11c-0.09,0.03-0.17-0.03-0.17-0.12C153,65.65,153.04,65.57,153.09,65.54z M152.77,67.88
		c0.05,0,0.1,0.03,0.17,0.06c0.04-0.11,0.13-0.2,0.26-0.23c0.19-0.05,0.38,0.08,0.43,0.29c0.05,0.23-0.06,0.45-0.27,0.5
		c-0.2,0.05-0.39-0.09-0.44-0.3c0-0.02,0-0.04,0-0.05c-0.01,0.01-0.02,0.03-0.03,0.03c-0.1,0.03-0.18-0.02-0.21-0.12
		C152.64,67.97,152.67,67.88,152.77,67.88z M152.26,69.77c0.05,0.02,0.12,0.03,0.16,0.06c0.07,0.06,0.12,0.15,0.2,0.25
		c-0.03,0.05-0.06,0.11-0.11,0.14c-0.07,0.04-0.14,0-0.18-0.07c-0.04-0.07-0.09-0.14-0.1-0.22
		C152.21,69.88,152.25,69.82,152.26,69.77z M152.27,71.02c0,0.03,0.01,0.07,0.02,0.11c0.04-0.02,0.07-0.04,0.11-0.06
		c0.11-0.04,0.21,0,0.24,0.1c0.03,0.11,0.04,0.22,0.04,0.33c0,0.08-0.09,0.12-0.15,0.06c-0.1-0.09-0.2-0.19-0.31-0.3
		c-0.15,0.09-0.24,0.09-0.34,0c-0.1-0.09-0.14-0.31-0.06-0.43c0.02-0.03,0.06-0.06,0.1-0.07C152.07,70.73,152.25,70.87,152.27,71.02
		z M151.78,69.6c-0.01-0.04,0.02-0.11,0.06-0.13c0.03-0.01,0.09,0.03,0.16,0.06c-0.05,0.07-0.07,0.13-0.11,0.14
		C151.86,69.68,151.78,69.63,151.78,69.6z M152.08,69.3c-0.08-0.07-0.16-0.11-0.17-0.15c-0.01-0.04,0.05-0.14,0.08-0.14
		c0.05,0,0.14,0.04,0.16,0.08C152.16,69.12,152.11,69.2,152.08,69.3z M151.71,67.02c0.14-0.04,0.29,0.04,0.33,0.17
		c0.04,0.14-0.03,0.28-0.17,0.32c-0.14,0.04-0.29-0.03-0.33-0.17C151.49,67.21,151.57,67.06,151.71,67.02z M151.4,70.74
		c0.03,0,0.08,0.03,0.15,0.07c-0.05,0.05-0.08,0.11-0.11,0.11c-0.04,0-0.09-0.04-0.1-0.08C151.33,70.81,151.37,70.74,151.4,70.74z
		 M151.42,72.33c0.09-0.02,0.19,0.04,0.21,0.13c0.02,0.09-0.03,0.18-0.12,0.2c-0.09,0.02-0.17-0.04-0.19-0.15
		C151.3,72.42,151.33,72.36,151.42,72.33z M151.3,70.53c0.01,0.03-0.02,0.06-0.04,0.09c-0.03-0.02-0.08-0.03-0.09-0.06
		c-0.01-0.02,0.02-0.06,0.04-0.12C151.25,70.49,151.29,70.5,151.3,70.53z M151.16,70.24c-0.02,0.02-0.04,0.06-0.06,0.06
		c-0.02,0-0.06-0.03-0.07-0.06c0-0.02,0.02-0.06,0.05-0.07c0.03-0.01,0.07,0,0.1,0.01C151.17,70.2,151.17,70.22,151.16,70.24z
		 M150.53,69.13c0.1-0.12,0.31-0.11,0.42,0.01c0.06,0.07,0.09,0.15,0.15,0.26c-0.03,0.1-0.04,0.22-0.1,0.31
		c-0.1,0.16-0.3,0.17-0.44,0.04C150.4,69.6,150.38,69.3,150.53,69.13z M150.38,70.94c0.05,0.04,0.11,0.07,0.14,0.12
		c0.01,0.01-0.04,0.07-0.07,0.11c-0.05-0.03-0.1-0.06-0.17-0.11C150.33,71,150.36,70.97,150.38,70.94z M150.45,72.54
		c0.02,0.09-0.04,0.19-0.13,0.21c-0.09,0.02-0.2-0.04-0.21-0.13c-0.01-0.08-0.04-0.19,0.08-0.23
		C150.28,72.35,150.42,72.44,150.45,72.54z M150.02,68.48c0.03,0.02,0.08,0.03,0.09,0.06c0.01,0.02-0.02,0.06-0.05,0.11
		c-0.04-0.04-0.08-0.06-0.09-0.09C149.97,68.55,150,68.51,150.02,68.48z M150.06,72.93c0.04,0.14-0.01,0.24-0.13,0.27
		c-0.14,0.04-0.28-0.05-0.32-0.18c-0.03-0.12,0.03-0.24,0.15-0.27C149.89,72.72,150.03,72.8,150.06,72.93z M149.76,72.21
		c0.02,0.1-0.04,0.2-0.12,0.21c-0.1,0.01-0.17-0.03-0.2-0.13c-0.03-0.09,0.04-0.18,0.13-0.21
		C149.66,72.06,149.74,72.11,149.76,72.21z M149.52,68.45c0.05,0.04,0.11,0.06,0.13,0.11c0.01,0.03-0.03,0.13-0.07,0.13
		c-0.04,0.01-0.1-0.04-0.18-0.07C149.46,68.54,149.49,68.49,149.52,68.45z M149.24,71.81c0.05,0.03,0.12,0.05,0.14,0.09
		c0.02,0.04-0.02,0.11-0.04,0.16c-0.02,0.01-0.04,0.01-0.06,0.02c-0.04-0.04-0.11-0.07-0.12-0.11
		C149.16,71.92,149.21,71.86,149.24,71.81z M149.21,72.18c0.04,0.01,0.07,0.05,0.11,0.08c-0.03,0.03-0.05,0.09-0.08,0.09
		c-0.03,0.01-0.07-0.04-0.14-0.07C149.15,72.23,149.19,72.17,149.21,72.18z M62.57,73.03c-0.11,0.23-0.37,0.31-0.59,0.19
		c-0.22-0.12-0.32-0.39-0.21-0.6c0.02-0.05,0.06-0.09,0.09-0.12c0.21,0.01,0.42,0.02,0.62,0.01C62.6,72.65,62.65,72.85,62.57,73.03z
		 M144.02,59.87c0.16-0.05,0.33,0.05,0.38,0.21c0.05,0.16-0.05,0.34-0.21,0.38c-0.16,0.04-0.34-0.05-0.38-0.21
		C143.77,60.09,143.86,59.91,144.02,59.87z M143.81,70.32c0.11,0.04,0.19,0.12,0.23,0.24c0.05,0.15-0.09,0.35-0.28,0.41
		c-0.15,0.04-0.32-0.05-0.38-0.21C143.5,70.61,143.65,70.46,143.81,70.32z M66.57,66.55c-0.08-0.05-0.16-0.11-0.2-0.2
		c-0.15-0.28-0.03-0.64,0.26-0.78c0.12,0.09,0.2,0.22,0.2,0.41C66.84,66.23,66.73,66.41,66.57,66.55z M69.04,70.49
		c-0.25,0.12-0.56,0.02-0.68-0.22c-0.02-0.03-0.02-0.07-0.03-0.1c0.3-0.11,0.63-0.21,0.95-0.28C69.37,70.1,69.26,70.37,69.04,70.49z
		 M69.38,70.58c-0.04,0-0.08-0.05-0.15-0.1c0.06-0.05,0.11-0.11,0.14-0.11c0.04,0.01,0.09,0.06,0.11,0.11
		C69.49,70.51,69.42,70.58,69.38,70.58z M71.68,61.67c0-0.15,0.01-0.32,0.04-0.5c0.04-0.01,0.07-0.01,0.09,0.01
		c0.08,0.06,0.16,0.24,0.13,0.34C71.92,61.59,71.79,61.62,71.68,61.67z M72.4,62.21c-0.07,0.04-0.19,0-0.36-0.01
		c0.08-0.14,0.1-0.27,0.16-0.29c0.08-0.03,0.19,0.03,0.28,0.05C72.46,62.05,72.45,62.18,72.4,62.21z M75.14,64.51
		c-0.2,0.1-0.43,0.05-0.5-0.16c-0.05-0.14,0.02-0.33,0.04-0.46c0,0,0-0.01,0.01-0.01c0.32-0.11,0.52-0.1,0.63,0.13
		C75.42,64.22,75.34,64.41,75.14,64.51z M75.39,73.4c-0.03,0-0.09-0.03-0.1-0.06c-0.01-0.03,0.02-0.07,0.05-0.14
		c0.05,0.05,0.09,0.08,0.1,0.11C75.45,73.34,75.4,73.4,75.39,73.4z M79.16,74.15c-0.02,0-0.08-0.05-0.08-0.06
		C79.1,74.05,79.13,74,79.16,74c0.03-0.01,0.07,0.04,0.13,0.07C79.23,74.11,79.2,74.15,79.16,74.15z M79.22,66.96
		c0.02-0.15,0.1-0.28,0.25-0.35c0.25-0.11,0.54,0,0.69,0.23C79.78,67.22,79.5,67.16,79.22,66.96z M86.08,63.11
		c-0.01-0.02-0.01-0.06,0.01-0.1c0.1,0.1,0.2,0.2,0.31,0.29C86.25,63.23,86.14,63.19,86.08,63.11z M90.99,68.3
		c-0.05,0.23-0.18,0.45-0.29,0.67c-0.11,0.22-0.29,0.27-0.5,0.16c-0.08-0.04-0.16-0.09-0.25-0.14c-0.38-0.48-0.73-0.99-0.95-1.57
		C89,67.4,89,67.38,89,67.37c0.15-0.39,0.49-0.67,0.91-0.71c0.45-0.05,0.87,0.22,1.09,0.67c0.03,0.01,0.07,0.01,0.1,0.01
		C91.06,67.66,91.06,67.98,90.99,68.3z M114.37,74.42c-0.15,0.05-0.22,0.02-0.26-0.11c-0.05-0.17,0.03-0.34,0.19-0.39
		c0.13-0.04,0.27,0.03,0.3,0.15C114.65,74.21,114.54,74.37,114.37,74.42z M117.79,73.61c-0.01,0.02-0.04,0.03-0.05,0.05
		c-0.19,0.02-0.39,0.06-0.58,0.1c-0.02,0.01-0.04,0.02-0.07,0.02c-0.02-0.01-0.04-0.01-0.06-0.02c-0.24-0.17-0.29-0.53-0.11-0.79
		c0.17-0.24,0.49-0.31,0.72-0.15C117.92,73.01,117.98,73.34,117.79,73.61z M118.23,74.27c-0.09,0.04-0.21-0.02-0.23-0.11
		c-0.01-0.04,0-0.07,0.01-0.11c0.11,0,0.22,0,0.33,0C118.37,74.15,118.33,74.23,118.23,74.27z M121.78,71.87
		c-0.09-0.01-0.24-0.18-0.25-0.27c0.15,0.09,0.29,0.16,0.43,0.21C121.89,71.84,121.84,71.87,121.78,71.87z M122.16,71.66
		c-0.02,0.02-0.05,0.03-0.07,0.05c-0.12-0.12-0.23-0.26-0.35-0.41c0.03-0.02,0.06-0.03,0.09-0.04c0.1-0.01,0.23,0.16,0.34,0.26
		C122.17,71.57,122.17,71.61,122.16,71.66z M122.25,57.24c-0.05-0.03-0.08-0.07-0.1-0.11c0.17,0.02,0.34,0.04,0.51,0.07
		C122.57,57.34,122.39,57.35,122.25,57.24z M122.44,56.65c0.07-0.02,0.13-0.04,0.22-0.07c0,0.06,0.01,0.09,0.01,0.14
		C122.6,56.7,122.52,56.67,122.44,56.65z M124.15,59.3c-0.06,0.05-0.16,0.04-0.25,0.05c-0.01-0.09-0.03-0.18,0-0.25
		c0.02-0.04,0.14-0.04,0.26-0.07C124.16,59.16,124.19,59.27,124.15,59.3z M124.89,69.04c-0.06-0.05-0.11-0.07-0.12-0.11
		c-0.01-0.03,0.03-0.07,0.05-0.11c0.04,0.02,0.1,0.03,0.11,0.06C124.94,68.91,124.91,68.96,124.89,69.04z M124.9,57.75
		c-0.1-0.06-0.17-0.16-0.2-0.26c0.24,0.04,0.48,0.07,0.73,0.11c-0.25-0.08-0.5-0.16-0.74-0.24c0-0.09,0.01-0.17,0.06-0.25
		c0.12-0.19,0.4-0.25,0.59-0.12c0.2,0.12,0.28,0.46,0.16,0.65C125.39,57.8,125.09,57.86,124.9,57.75z M126.02,69.54
		c-0.1,0.05-0.26-0.04-0.49-0.08c0.13-0.2,0.18-0.38,0.27-0.39c0.12-0.02,0.25,0.09,0.38,0.14
		C126.13,69.32,126.11,69.5,126.02,69.54z M132.26,70.03c-0.03,0.01-0.08-0.02-0.15-0.05c0.05-0.06,0.08-0.11,0.11-0.12
		c0.03-0.01,0.07,0.03,0.11,0.05C132.31,69.96,132.3,70.02,132.26,70.03z M132.83,69.94c-0.05,0.02-0.13-0.03-0.2-0.05l-0.02-0.07
		c0.05-0.05,0.09-0.13,0.15-0.15c0.05-0.01,0.16,0.05,0.17,0.09C132.93,69.82,132.88,69.92,132.83,69.94z M133.9,70.52
		c-0.15,0.03-0.31-0.07-0.33-0.21c-0.02-0.12,0.06-0.24,0.18-0.27c0.14-0.03,0.29,0.07,0.33,0.21
		C134.11,70.37,134.03,70.49,133.9,70.52z M134.46,71.14c-0.03,0.01-0.09-0.02-0.17-0.05c0.05-0.07,0.08-0.13,0.11-0.14
		c0.04-0.01,0.09,0.04,0.13,0.06C134.5,71.05,134.49,71.12,134.46,71.14z M134.2,66.11c-0.03-0.13,0.03-0.22,0.19-0.25
		c0.19-0.05,0.36,0.06,0.41,0.27c0.04,0.15-0.01,0.23-0.13,0.26C134.46,66.44,134.24,66.31,134.2,66.11z M135,68.53
		c-0.11,0.02-0.19-0.02-0.22-0.11c-0.03-0.11,0.03-0.22,0.14-0.24c0.1-0.02,0.18,0.02,0.22,0.12C135.16,68.38,135.1,68.51,135,68.53
		z M136.75,58.92c-0.21,0.3-0.67,0.39-0.95,0.18c-0.25-0.18-0.3-0.54-0.12-0.79c0.2-0.28,0.65-0.36,0.94-0.17
		C136.88,58.32,136.94,58.65,136.75,58.92z M137.96,68.66c-0.05,0-0.09-0.05-0.13-0.09c0.03-0.04,0.06-0.11,0.09-0.11
		c0.04-0.01,0.1,0.04,0.18,0.08C138.03,68.6,137.99,68.66,137.96,68.66z M138.49,65.23c-0.08-0.13-0.17-0.21-0.16-0.27
		c0.02-0.08,0.11-0.14,0.18-0.21c0.06,0.06,0.16,0.13,0.16,0.19C138.67,65.02,138.58,65.1,138.49,65.23z M138.69,67.09
		c-0.03-0.12,0.04-0.27,0.06-0.41l0.12-0.06c0.11,0.06,0.27,0.1,0.33,0.2c0.11,0.15,0.02,0.31-0.14,0.39
		C138.91,67.29,138.74,67.26,138.69,67.09z M138.93,69.95c-0.01-0.04,0.03-0.11,0.07-0.2c0.08,0.06,0.16,0.1,0.16,0.13
		c0,0.05-0.05,0.11-0.09,0.17C139.02,70.02,138.95,69.99,138.93,69.95z M139.38,71.64c-0.11,0.04-0.24-0.02-0.27-0.12
		c-0.04-0.12,0.03-0.25,0.15-0.29c0.11-0.03,0.22,0.02,0.26,0.13C139.56,71.47,139.5,71.6,139.38,71.64z M139.74,71.4
		c-0.06,0-0.12-0.04-0.18-0.07l-0.01-0.06c0.04-0.05,0.07-0.11,0.12-0.13c0.08-0.03,0.14,0.02,0.16,0.1
		C139.85,71.33,139.82,71.4,139.74,71.4z M140.36,71.23c-0.01-0.01-0.03-0.01-0.05-0.02c0.05-0.05,0.07-0.1,0.11-0.11l0,0
		C140.4,71.15,140.38,71.18,140.36,71.23z M140.48,69.6c-0.04,0-0.09-0.03-0.11-0.06c-0.01-0.01,0.02-0.09,0.04-0.09
		c0.04,0,0.09,0.02,0.16,0.04C140.53,69.54,140.51,69.6,140.48,69.6z M140.78,69.01c0.08-0.1,0.11-0.19,0.17-0.22
		c0.08-0.05,0.16,0.01,0.18,0.1c0.02,0.1-0.02,0.18-0.11,0.19C140.96,69.1,140.89,69.05,140.78,69.01z M141.08,73.8
		c0.07-0.14,0.14-0.28,0.22-0.42c0,0.01,0.01,0.01,0.01,0.02C141.35,73.56,141.24,73.75,141.08,73.8z M141.72,74.18
		c-0.12,0.04-0.25-0.03-0.29-0.15c-0.03-0.12,0.03-0.24,0.15-0.27c0.12-0.03,0.26,0.04,0.29,0.15
		C141.91,74.02,141.83,74.14,141.72,74.18z M141.76,66.76c0.03-0.04,0.04-0.11,0.08-0.12c0.04-0.01,0.09,0.03,0.17,0.06
		c-0.06,0.06-0.09,0.12-0.12,0.13C141.85,66.84,141.8,66.79,141.76,66.76z M142.03,74.01c-0.03,0-0.06-0.02-0.11-0.05
		c0.04-0.04,0.07-0.08,0.08-0.08c0.04,0.01,0.06,0.04,0.1,0.06C142.07,73.97,142.05,74.01,142.03,74.01z M141.9,62.72
		c-0.15-0.3-0.03-0.64,0.27-0.79c0.35-0.17,0.81-0.01,0.97,0.33c0.13,0.29,0,0.65-0.3,0.79C142.51,63.21,142.06,63.05,141.9,62.72z
		 M144.06,73.9c-0.45,0.23-0.94,0.05-1.19-0.43c-0.17-0.35-0.12-0.58,0.16-0.73c0.48-0.25,1.1-0.05,1.34,0.42
		C144.53,73.47,144.42,73.72,144.06,73.9z M144.82,72.79c-0.04,0-0.09-0.03-0.1-0.07c-0.01-0.02,0.02-0.07,0.04-0.14
		c0.06,0.05,0.1,0.08,0.12,0.12C144.88,72.73,144.83,72.8,144.82,72.79z M145.52,61.5c-0.11,0.02-0.2-0.01-0.23-0.12
		c-0.04-0.12,0.03-0.2,0.14-0.23c0.02-0.01,0.04,0,0.06,0C145.5,61.26,145.52,61.38,145.52,61.5
		C145.53,61.49,145.52,61.5,145.52,61.5z M145.79,70.25c-0.07-0.07-0.13-0.1-0.14-0.14c-0.01-0.03,0.05-0.11,0.08-0.11
		c0.04,0,0.1,0.04,0.12,0.07C145.86,70.1,145.82,70.15,145.79,70.25z M146.23,71.64c-0.11,0.02-0.23-0.06-0.25-0.17
		c-0.03-0.12,0.02-0.21,0.13-0.23c0.12-0.02,0.24,0.06,0.26,0.17C146.39,71.52,146.33,71.62,146.23,71.64z M146.68,70.41
		c-0.09,0.02-0.25-0.13-0.27-0.24c-0.02-0.13,0.05-0.25,0.17-0.28c0.12-0.03,0.25,0.06,0.28,0.19
		C146.89,70.19,146.78,70.4,146.68,70.41z M147.45,74.08c-0.03,0-0.09-0.04-0.1-0.07c-0.01-0.03,0.03-0.07,0.06-0.15
		c0.06,0.06,0.11,0.09,0.11,0.13C147.52,74.01,147.47,74.07,147.45,74.08z M148.17,70.9c-0.1,0.02-0.22-0.05-0.24-0.14
		c-0.02-0.09,0.05-0.2,0.15-0.22c0.1-0.02,0.21,0.04,0.24,0.15C148.33,70.78,148.27,70.88,148.17,70.9z"/>
</g>
</svg>
