<?xml version="1.0" encoding="utf-8"?>
<!-- Generator: Adobe Illustrator 26.2.1, SVG Export Plug-In . SVG Version: 6.00 Build 0)  -->
<svg version="1.1" xmlns="http://www.w3.org/2000/svg" xmlns:xlink="http://www.w3.org/1999/xlink" x="0px" y="0px"
	 viewBox="0 0 225 225" style="enable-background:new 0 0 225 225;" xml:space="preserve">
<style type="text/css">
	.st0{display:none;}
	.st1{display:inline;fill:#FAB433;}
	.st2{fill:none;}
	.st3{fill:none;stroke:#000000;stroke-width:1.6;stroke-miterlimit:10;}
	.st4{fill:none;stroke:#000000;stroke-width:0.7265;stroke-miterlimit:10;}
	.st5{fill:none;stroke:#000000;stroke-linecap:round;stroke-linejoin:round;stroke-miterlimit:10;}
	.st6{fill:none;stroke:#000000;stroke-miterlimit:10;}
	.st7{fill:none;stroke:#000000;stroke-width:0.7105;stroke-miterlimit:10;}
	.st8{fill:none;stroke:#000000;stroke-width:5.4;stroke-linecap:round;stroke-linejoin:round;stroke-miterlimit:10;}
	.st9{fill:none;stroke:#000000;stroke-width:2.9309;stroke-linecap:round;stroke-linejoin:round;stroke-miterlimit:10;}
	.st10{fill:none;stroke:#000000;stroke-width:0.5;stroke-linecap:round;stroke-linejoin:round;}
	.st11{fill:none;stroke:#FFFFFF;stroke-width:0;stroke-linecap:round;stroke-linejoin:round;}
	.st12{fill:#FFFFFF;}
	.st13{fill:none;stroke:#000000;stroke-width:1.4;stroke-miterlimit:10;}
	.st14{fill:url(#);stroke:#000000;stroke-width:1.4387;stroke-miterlimit:10;}
	.st15{fill:url(#);stroke:#000000;stroke-width:1.3718;stroke-miterlimit:10;}
	.st16{fill:none;stroke:#000000;stroke-width:1.0041;stroke-miterlimit:10;}
	.st17{fill:none;stroke:#000000;stroke-width:1.3621;stroke-miterlimit:10;}
	.st18{fill:none;stroke:#000000;stroke-width:0.25;stroke-miterlimit:10;}
</style>
<g id="Layer_2" class="st0">
	<rect id="XMLID_1638_" x="-345.99" y="-30.01" class="st1" width="1160" height="772"/>
</g>
<g id="Layer_1">
	<g id="XMLID_6475_">
		<path id="XMLID_6495_" d="M98.9,141.75c8.92-0.92,18.25-0.92,27.2,0c0.91-7.78,1.48-16.58,1.59-26.22H97.32
			C97.42,125.16,97.99,133.97,98.9,141.75z"/>
		<path id="XMLID_6494_" d="M75.19,78.58c-3.31,9.18-5.32,19.69-5.64,30.89h21.68c0.1-9.2,0.65-18.36,1.64-26.91
			C86.76,81.66,80.83,80.32,75.19,78.58z"/>
		<path id="XMLID_6493_" d="M93.66,76.55c1.86-12.69,4.75-23.58,8.66-30.51C92.14,50,83.36,59.74,77.46,72.95
			C82.63,74.52,88.05,75.72,93.66,76.55z"/>
		<path id="XMLID_6492_" d="M147.54,72.94c-5.91-13.21-14.68-22.94-24.87-26.89c3.91,6.93,6.81,17.81,8.67,30.5
			C136.95,75.72,142.38,74.51,147.54,72.94z"/>
		<path id="XMLID_6491_" d="M125.3,77.25c-3.11-20.88-8.6-33.15-12.8-33.15c-4.21,0-9.69,12.27-12.8,33.15
			C108.14,78.1,116.87,78.1,125.3,77.25z"/>
		<path id="XMLID_6490_" d="M126.1,83.26c-4.47,0.46-9,0.78-13.6,0.78c-4.6,0-9.12-0.31-13.59-0.78
			c-0.91,7.78-1.48,16.58-1.59,26.22h30.37C127.58,99.84,127.01,91.04,126.1,83.26z"/>
		<path id="XMLID_6489_" d="M132.12,142.44c6.12,0.9,12.04,2.24,17.69,3.98c3.31-9.18,5.32-19.69,5.64-30.89h-21.68
			C133.66,124.73,133.11,133.89,132.12,142.44z"/>
		<path id="XMLID_6488_" d="M161.5,109.47h19.32c-0.62-14.24-5.61-27.36-13.67-38.05c-3.65,1.96-7.56,3.72-11.67,5.23
			C159.04,86.46,161.19,97.61,161.5,109.47z"/>
		<path id="XMLID_6487_" d="M153.21,71.01c3.51-1.29,6.81-2.79,9.95-4.42c-6.84-7.55-15.36-13.55-24.93-17.46
			C144.18,54.73,149.3,62.2,153.21,71.01z"/>
		<path id="XMLID_6486_" d="M149.81,78.58c-5.63,1.74-11.55,3.08-17.68,3.99c0.99,8.55,1.54,17.71,1.64,26.91h21.68
			C155.14,98.27,153.12,87.76,149.81,78.58z"/>
		<path id="XMLID_6485_" d="M131.34,148.45c-1.86,12.69-4.75,23.58-8.67,30.5c10.19-3.95,18.97-13.69,24.87-26.9
			C142.37,150.48,136.95,149.27,131.34,148.45z"/>
		<path id="XMLID_6484_" d="M77.46,152.06c5.91,13.21,14.68,22.94,24.87,26.89c-3.91-6.93-6.81-17.81-8.66-30.5
			C88.05,149.28,82.62,150.49,77.46,152.06z"/>
		<path id="XMLID_6483_" d="M138.23,175.86c9.61-3.92,18.14-9.95,25-17.53c-3.12-1.62-6.48-3.08-10-4.37
			C149.31,162.78,144.19,170.26,138.23,175.86z"/>
		<path id="XMLID_6482_" d="M99.7,147.75c3.11,20.88,8.59,33.15,12.8,33.15c4.21,0,9.7-12.26,12.8-33.15
			C116.87,146.9,108.11,146.9,99.7,147.75z"/>
		<path id="XMLID_6481_" d="M155.48,148.34c4.13,1.52,8.04,3.28,11.67,5.24c8.06-10.69,13.05-23.81,13.67-38.05H161.5
			C161.19,127.38,159.04,138.53,155.48,148.34z"/>
		<path id="XMLID_6480_" d="M69.55,115.53c0.31,11.21,2.33,21.71,5.64,30.9c5.64-1.75,11.56-3.08,17.68-3.98
			c-0.99-8.55-1.54-17.71-1.64-26.91H69.55z"/>
		<path id="XMLID_6479_" d="M71.78,153.97c-3.52,1.29-6.87,2.75-10,4.37c6.85,7.58,15.38,13.61,24.99,17.52
			C80.81,170.26,75.69,162.79,71.78,153.97z"/>
		<path id="XMLID_6478_" d="M86.77,49.14c-9.61,3.92-18.14,9.95-24.99,17.53c3.13,1.63,6.49,3.09,10,4.37
			C75.69,62.22,80.81,54.74,86.77,49.14z"/>
		<path id="XMLID_6477_" d="M69.52,76.66c-4.12-1.52-8.03-3.27-11.67-5.24c-8.06,10.69-13.05,23.81-13.67,38.05H63.5
			C63.81,97.61,65.96,86.46,69.52,76.66z"/>
		<path id="XMLID_6476_" d="M63.5,115.53H44.18c0.62,14.24,5.61,27.36,13.67,38.05c3.64-1.96,7.55-3.71,11.67-5.24
			C65.96,138.54,63.81,127.39,63.5,115.53z"/>
	</g>
</g>
</svg>
