<?xml version="1.0" encoding="utf-8"?>
<!-- Generator: Adobe Illustrator 26.2.1, SVG Export Plug-In . SVG Version: 6.00 Build 0)  -->
<svg version="1.1" xmlns="http://www.w3.org/2000/svg" xmlns:xlink="http://www.w3.org/1999/xlink" x="0px" y="0px"
	 viewBox="0 0 225 225" style="enable-background:new 0 0 225 225;" xml:space="preserve">
<style type="text/css">
	.st0{display:none;}
	.st1{display:inline;fill:#FAB433;}
	.st2{fill:none;}
	.st3{fill:none;stroke:#000000;stroke-width:1.6;stroke-miterlimit:10;}
	.st4{fill:none;stroke:#000000;stroke-width:0.7265;stroke-miterlimit:10;}
	.st5{fill:none;stroke:#000000;stroke-linecap:round;stroke-linejoin:round;stroke-miterlimit:10;}
	.st6{fill:none;stroke:#000000;stroke-miterlimit:10;}
	.st7{fill:none;stroke:#000000;stroke-width:0.7105;stroke-miterlimit:10;}
	.st8{fill:none;stroke:#000000;stroke-width:5.4;stroke-linecap:round;stroke-linejoin:round;stroke-miterlimit:10;}
	.st9{fill:none;stroke:#000000;stroke-width:2.9309;stroke-linecap:round;stroke-linejoin:round;stroke-miterlimit:10;}
	.st10{fill:none;stroke:#000000;stroke-width:0.5;stroke-linecap:round;stroke-linejoin:round;}
	.st11{fill:none;stroke:#FFFFFF;stroke-width:0;stroke-linecap:round;stroke-linejoin:round;}
	.st12{fill:#FFFFFF;}
	.st13{fill:none;stroke:#000000;stroke-width:1.4;stroke-miterlimit:10;}
	.st14{fill:url(#);stroke:#000000;stroke-width:1.4387;stroke-miterlimit:10;}
	.st15{fill:url(#);stroke:#000000;stroke-width:1.3718;stroke-miterlimit:10;}
	.st16{fill:none;stroke:#000000;stroke-width:1.0041;stroke-miterlimit:10;}
	.st17{fill:none;stroke:#000000;stroke-width:1.3621;stroke-miterlimit:10;}
	.st18{fill:none;stroke:#000000;stroke-width:0.25;stroke-miterlimit:10;}
</style>
<g id="Layer_2" class="st0">
	<rect id="XMLID_3548_" x="-100.99" y="-520.01" class="st1" width="1160" height="772"/>
</g>
<g id="Layer_1">
	<path id="XMLID_14616_" d="M122.76,47.92c-0.48,0.42-0.98,0.94-1.49,1.54c-0.28,0.33-0.56,0.67-0.85,1.05
		c0.75,0.16,1.47,0.35,2.19,0.55c0.43,0.12,0.87,0.25,1.29,0.38c0.08-0.07,0.16-0.12,0.24-0.19c0.56-0.45,1.11-0.85,1.65-1.21
		c0.23-0.15,0.45-0.29,0.67-0.43c0.29-0.17,0.58-0.33,0.86-0.48c-0.37-0.12-0.75-0.24-1.13-0.35
		C125.08,48.47,123.93,48.17,122.76,47.92z M122.16,46.34c0.35-0.23,0.7-0.38,1.03-0.44c-1.98-0.34-4.02-0.58-6.09-0.72
		c-0.12-0.01-0.24-0.02-0.36-0.03c-0.19,0.13-0.39,0.47-0.6,1.02c1.85,0.12,3.66,0.33,5.43,0.63
		C121.76,46.61,121.96,46.47,122.16,46.34z M119.52,49.3c0.44-0.68,0.88-1.27,1.29-1.75c-1.01-0.17-2.05-0.31-3.09-0.42
		c-0.62-0.06-1.24-0.12-1.87-0.16c-0.22,0.73-0.46,1.67-0.7,2.82c1.29,0.08,2.55,0.23,3.78,0.44
		C119.13,49.9,119.32,49.59,119.52,49.3z M135.11,51.2c0.61-0.09,1.21-0.14,1.8-0.16c0.82-0.03,1.63,0,2.39,0.1
		c-1.42-0.73-2.92-1.4-4.46-2.01c-0.29-0.11-0.58-0.23-0.87-0.34c-0.07,0-0.15,0-0.23,0c-0.55-0.01-1.11,0.03-1.7,0.12
		c-0.46,0.07-0.94,0.17-1.42,0.32C132.19,49.81,133.69,50.47,135.11,51.2z M148.18,57.08c-0.19-0.17-0.39-0.34-0.59-0.51
		c-0.39-0.1-0.78-0.19-1.18-0.27c-1.38-0.28-2.82-0.46-4.31-0.53c0,0-0.01,0-0.02,0c1.13,0.95,2.17,1.95,3.11,3
		c1.48,0.2,2.91,0.49,4.29,0.85c0.61,0.16,1.22,0.33,1.81,0.52C150.33,59.07,149.29,58.06,148.18,57.08z M121.79,68.12
		c0.19-0.29,0.35-0.59,0.47-0.9c-0.67-0.21-1.34-0.42-2.01-0.61c-2.42-0.71-4.89-1.34-7.39-1.87c1.85,0.6,3.68,1.26,5.49,1.97
		C119.5,67.15,120.65,67.62,121.79,68.12z M125.71,47.68c1.01,0.26,2.01,0.54,2.98,0.86c0.1-0.04,0.19-0.06,0.29-0.1
		c0.17-0.06,0.33-0.12,0.5-0.16c0.5-0.14,0.99-0.23,1.46-0.28c0.25-0.02,0.49-0.03,0.73-0.03c-1.37-0.45-2.77-0.84-4.21-1.2
		c-0.57-0.14-1.15-0.28-1.74-0.4c-0.25,0.03-0.51,0.09-0.77,0.18c-0.11,0.04-0.22,0.08-0.34,0.13c-0.3,0.13-0.61,0.3-0.92,0.51
		c0.11,0.02,0.22,0.05,0.33,0.08C124.59,47.4,125.16,47.54,125.71,47.68z M118.09,51.75c-1.06-0.18-2.15-0.31-3.26-0.38
		c-0.15,0.79-0.3,1.65-0.46,2.59c-0.05,0.3-0.1,0.59-0.15,0.9c-0.06,0.37-0.12,0.74-0.18,1.13c0.67,0.04,1.32,0.12,1.96,0.23
		C116.73,54.52,117.42,53.03,118.09,51.75z M122.4,66.83c0-0.01,0-0.01,0-0.01c0.1-0.32,0.17-0.64,0.21-0.97
		c-3.19-0.53-6.44-0.91-9.76-1.12c3.2,0.54,6.34,1.23,9.41,2.07C122.32,66.81,122.36,66.82,122.4,66.83z M122.43,63.82
		c-0.07-0.24-0.15-0.47-0.26-0.7c-0.97,0.12-1.96,0.26-2.95,0.41c-2.09,0.32-4.22,0.72-6.37,1.21c3.28-0.4,6.5-0.62,9.65-0.67
		C122.49,63.98,122.46,63.9,122.43,63.82z M115.69,64.83c0.6,0.03,1.2,0.06,1.8,0.11c0.14,0.01,0.28,0.02,0.43,0.03
		c0.72,0.05,1.43,0.11,2.14,0.18c0.18,0.02,0.35,0.04,0.53,0.05c0.59,0.06,1.17,0.12,1.75,0.19c0.1,0.01,0.21,0.02,0.32,0.04
		c0.01-0.33-0.01-0.65-0.06-0.97c-3.18-0.08-6.42,0.01-9.73,0.27c0.74,0.01,1.47,0.04,2.21,0.07
		C115.27,64.81,115.48,64.82,115.69,64.83z M121.99,62.75c-0.16-0.3-0.36-0.59-0.58-0.87c-1,0.27-2.02,0.58-3.04,0.9
		c-1.82,0.57-3.65,1.22-5.51,1.94c1.86-0.51,3.7-0.94,5.51-1.31C119.59,63.17,120.79,62.94,121.99,62.75z M149.73,57.23
		c0.21,0.18,0.42,0.36,0.62,0.54c0.56,0.49,1.11,0.99,1.63,1.51c0.58,0.57,1.14,1.15,1.67,1.74c1.81,0.76,3.49,1.68,5.03,2.75
		c-1.18-1.32-2.47-2.57-3.86-3.78c-0.18-0.16-0.36-0.32-0.55-0.47c-1.31-0.88-2.73-1.6-4.26-2.17
		C149.92,57.31,149.82,57.26,149.73,57.23z M121.13,61.55c-0.24-0.27-0.51-0.52-0.79-0.77c-0.65,0.3-1.3,0.61-1.96,0.94
		c-1.81,0.9-3.65,1.9-5.52,3.01c1.86-0.83,3.7-1.56,5.51-2.23C119.3,62.17,120.22,61.84,121.13,61.55z M118.56,59.61
		c-0.06-0.03-0.13-0.06-0.19-0.09c-0.31-0.15-0.62-0.29-0.95-0.41c-1,1.12-2.02,2.35-3.05,3.66c-0.13,0.17-0.26,0.33-0.4,0.5
		c-0.37,0.47-0.74,0.96-1.11,1.46c1.87-1.84,3.71-3.49,5.51-4.96C118.43,59.72,118.49,59.66,118.56,59.61z M119.97,60.49
		c-0.31-0.23-0.64-0.45-0.98-0.64c-0.21,0.15-0.41,0.3-0.62,0.46c-1.8,1.32-3.64,2.79-5.51,4.43c1.87-1.24,3.7-2.36,5.51-3.37
		C118.91,61.06,119.44,60.77,119.97,60.49z M114.36,62.47c0.86-1.26,1.71-2.44,2.55-3.54c-0.41-0.13-0.84-0.25-1.28-0.34
		c-0.42,0.85-0.84,1.74-1.27,2.68c-0.29,0.65-0.59,1.31-0.89,2c-0.21,0.48-0.41,0.96-0.62,1.46c0.32-0.5,0.64-0.98,0.96-1.46
		C114,63,114.18,62.74,114.36,62.47z M139.86,52.07c-0.75-0.05-1.52-0.05-2.31,0c-0.25,0.02-0.49,0.03-0.74,0.05
		c0.38,0.21,0.74,0.44,1.11,0.66c0.96,0.59,1.87,1.21,2.74,1.87c0.76,0.01,1.51,0.05,2.24,0.12c1.03,0.1,2.04,0.25,3,0.47
		c-1.43-1.07-2.96-2.08-4.58-3C140.85,52.15,140.36,52.1,139.86,52.07z M145.56,151.28c-0.02-0.49-0.04-0.98-0.06-1.48
		c-0.06-1.26-0.15-2.54-0.28-3.84c-0.02-0.24-0.04-0.48-0.06-0.72c-0.99,0.39-2,0.76-3.03,1.12c-1.71,0.6-3.46,1.15-5.25,1.64
		c0.04,0.49,0.07,0.98,0.1,1.47c0.13,2.09,0.2,4.13,0.22,6.08c0.54-0.15,1.07-0.31,1.61-0.46c2.33-0.69,4.6-1.46,6.79-2.33
		C145.59,152.26,145.58,151.77,145.56,151.28z M147.93,127.79c1.22-0.61,2.41-1.24,3.57-1.91c0.27-0.15,0.54-0.31,0.8-0.46
		c-0.44-1.42-0.91-2.85-1.42-4.28c-0.34-0.97-0.7-1.94-1.07-2.91c-0.13-0.35-0.26-0.69-0.4-1.04c-1.72,1.03-3.53,1.98-5.41,2.85
		c-0.27,0.13-0.54,0.25-0.81,0.38c0.49,1.57,0.96,3.14,1.39,4.7c0.11,0.4,0.22,0.81,0.33,1.21c0.23,0.86,0.46,1.72,0.67,2.58
		c0.05-0.02,0.11-0.05,0.16-0.08C146.49,128.49,147.22,128.15,147.93,127.79z M150.57,130.4c-1.35,0.72-2.73,1.4-4.15,2.04
		c0.18,0.83,0.35,1.65,0.51,2.47c0.15,0.73,0.28,1.45,0.41,2.17c0.21,1.17,0.4,2.33,0.57,3.48c1.5-0.67,2.96-1.39,4.37-2.15
		c0.96-0.51,1.91-1.04,2.84-1.59c-0.47-2.6-1.07-5.26-1.81-7.95C152.42,129.4,151.5,129.91,150.57,130.4z M156.13,145.12
		c-0.04-0.65-0.09-1.3-0.15-1.96c-0.09-1.01-0.2-2.03-0.34-3.06c-2.18,1.31-4.49,2.51-6.9,3.61c-0.13,0.06-0.26,0.12-0.4,0.18
		c0.28,2.58,0.45,5.08,0.49,7.49c0.56-0.25,1.12-0.51,1.67-0.78c1.99-0.95,3.91-1.98,5.74-3.07
		C156.22,146.73,156.18,145.93,156.13,145.12z M145.22,160.55c0.05-0.41,0.09-0.83,0.13-1.25c0.1-1.03,0.16-2.1,0.2-3.22
		c0-0.12,0.01-0.23,0.02-0.35c-2.17,0.85-4.41,1.62-6.72,2.31c-0.02,0.01-0.05,0.01-0.07,0.02c-0.53,0.16-1.07,0.32-1.61,0.46
		c-0.04,1.85-0.15,3.56-0.31,5.14c-0.02,0.19-0.04,0.38-0.06,0.57c-0.02,0.17-0.03,0.35-0.05,0.51c0.67-0.18,1.33-0.37,1.98-0.57
		c2.16-0.65,4.26-1.38,6.29-2.18C145.1,161.53,145.16,161.05,145.22,160.55z M135.04,132.67c0.98-0.27,1.95-0.56,2.9-0.87
		c1.45-0.46,2.87-0.96,4.26-1.49c0.15-0.06,0.31-0.11,0.46-0.17c-0.03-0.12-0.06-0.24-0.08-0.35c-0.53-2.35-1.13-4.72-1.79-7.11
		c-0.1-0.37-0.2-0.74-0.31-1.12c-0.69,0.27-1.39,0.53-2.1,0.78c-1.61,0.57-3.26,1.1-4.95,1.56c0.4,1.96,0.77,3.91,1.11,5.85
		C134.71,130.73,134.88,131.7,135.04,132.67z M157.83,135.1c0.76-0.51,1.51-1.04,2.23-1.58c1.34-0.98,2.62-2.01,3.83-3.07
		c-0.07-0.32-0.15-0.65-0.23-0.97c-0.53-2.21-1.18-4.45-1.96-6.7c-0.29,0.26-0.59,0.5-0.89,0.75c-1.4,1.18-2.89,2.31-4.46,3.38
		c-0.15,0.1-0.3,0.21-0.45,0.31c0.02,0.07,0.04,0.13,0.06,0.2c0.59,2.01,1.09,4,1.52,5.96C157.6,133.96,157.72,134.53,157.83,135.1z
		 M136.97,135.91c-0.45,0.13-0.91,0.27-1.37,0.4c0.11,0.74,0.21,1.47,0.3,2.19c0.09,0.67,0.17,1.34,0.25,2
		c0.17,1.38,0.32,2.75,0.44,4.1c0.1-0.03,0.2-0.06,0.31-0.09c1.12-0.31,2.23-0.65,3.32-1c1.11-0.36,2.21-0.75,3.29-1.15
		c0.42-0.16,0.84-0.31,1.26-0.48c-0.22-1.68-0.49-3.4-0.79-5.14c-0.18-1.01-0.36-2.02-0.56-3.04c-0.63,0.25-1.26,0.49-1.91,0.72
		C140.03,134.97,138.51,135.46,136.97,135.91z M166.78,79.94c-0.93-0.83-1.9-1.63-2.92-2.41c-0.8-0.61-1.63-1.2-2.48-1.77
		c-0.18-0.12-0.35-0.24-0.52-0.36c0.14,0.88,0.24,1.78,0.28,2.68c0.04,0.69,0.05,1.39,0.03,2.09c0.05,0.04,0.11,0.08,0.16,0.12
		c0.48,0.36,0.95,0.72,1.41,1.09c0.02,0.02,0.05,0.04,0.07,0.06c0.44,0.35,0.87,0.71,1.29,1.07c0.12,0.1,0.24,0.21,0.36,0.31
		c0.38,0.33,0.76,0.67,1.13,1.01c0.06,0.06,0.13,0.11,0.19,0.17c0.42,0.39,0.83,0.78,1.24,1.18c0.04,0.04,0.08,0.08,0.12,0.11
		c0.02-0.73,0.01-1.45-0.02-2.17C167.06,82.06,166.95,81,166.78,79.94z M160.23,65.62c-1.03-0.73-2.12-1.4-3.27-2.01
		c-0.63-0.33-1.27-0.66-1.93-0.95c1.08,1.37,2.04,2.8,2.85,4.28c0.64,0.33,1.27,0.68,1.88,1.04c0.76,0.44,1.5,0.91,2.21,1.39
		c0.5,0.34,0.99,0.69,1.46,1.06c-0.65-1.18-1.38-2.33-2.19-3.45C160.92,66.52,160.59,66.06,160.23,65.62z M164.88,73.41
		c-0.13-0.31-0.26-0.62-0.4-0.93c-0.61-0.48-1.24-0.94-1.89-1.39c-1.2-0.83-2.45-1.61-3.77-2.33c0.37,0.8,0.69,1.61,0.98,2.43
		c0.26,0.74,0.48,1.49,0.67,2.25c0.24,0.15,0.48,0.31,0.72,0.47c0.84,0.54,1.66,1.1,2.44,1.68c0.94,0.69,1.84,1.41,2.7,2.15
		c-0.12-0.5-0.26-0.99-0.41-1.48C165.62,75.29,165.27,74.35,164.88,73.41z M167.54,75.21c-0.31-0.31-0.62-0.62-0.94-0.92
		c0.22,0.48,0.42,0.96,0.62,1.44c0.37,0.93,0.7,1.88,0.98,2.84c0.12,0.4,0.23,0.79,0.33,1.19c0.14,0.14,0.27,0.28,0.4,0.41
		c0.65,0.66,1.27,1.33,1.86,2.03c0.77,0.9,1.49,1.83,2.16,2.79c-0.05-0.22-0.12-0.43-0.18-0.64c-0.26-0.96-0.56-1.9-0.9-2.83
		c-0.3-0.82-0.63-1.63-1-2.43c-0.51-0.7-1.05-1.37-1.61-2.03C168.7,76.43,168.14,75.81,167.54,75.21z M167.92,95.77
		c1.63,2.12,3.1,4.29,4.37,6.52c0.13-0.38,0.24-0.77,0.35-1.16c0.46-1.62,0.8-3.28,1-4.97c-0.72-1.16-1.51-2.3-2.35-3.42
		c-0.61-0.81-1.25-1.61-1.92-2.4c-0.07-0.08-0.13-0.16-0.2-0.24c-0.21,1.78-0.59,3.52-1.12,5.22
		C168.01,95.47,167.97,95.63,167.92,95.77z M167.8,98.97c-0.23-0.33-0.46-0.65-0.7-0.98c-0.02,0.05-0.05,0.1-0.07,0.15
		c-0.73,1.75-1.63,3.44-2.68,5.07c0.49,0.75,0.96,1.51,1.42,2.27c0.55,0.91,1.07,1.82,1.57,2.74c0.38,0.7,0.75,1.4,1.1,2.1
		c1.17-1.82,2.16-3.7,2.96-5.65c-0.56-1.01-1.16-2.01-1.79-3.01c-0.56-0.88-1.15-1.76-1.76-2.63C167.83,99.03,167.81,99,167.8,98.97
		z M169.44,87.74c0.37,0.42,0.73,0.84,1.09,1.26c0.07,0.08,0.14,0.17,0.21,0.25c0.29,0.35,0.58,0.71,0.85,1.07
		c0.09,0.11,0.18,0.23,0.26,0.34c0.33,0.44,0.66,0.87,0.97,1.32c0.03,0.04,0.05,0.07,0.08,0.11c0.28,0.41,0.56,0.82,0.83,1.23
		c0.04,0.06,0.08,0.12,0.12,0.18c0.02-0.75,0.01-1.5-0.02-2.25c-0.05-1.27-0.17-2.54-0.37-3.78c-0.71-1.03-1.47-2.03-2.29-3.01
		c-0.6-0.72-1.24-1.43-1.9-2.12c-0.09-0.1-0.18-0.19-0.27-0.29c0.18,1.12,0.29,2.25,0.34,3.39c0.03,0.73,0.05,1.46,0.02,2.2
		C169.38,87.68,169.41,87.71,169.44,87.74z M162.54,117.57c0.13-0.13,0.26-0.27,0.39-0.4c1.34-1.36,2.58-2.78,3.7-4.25
		c0.1-0.13,0.2-0.26,0.3-0.39c-1.16-2.44-2.49-4.87-3.98-7.27c-0.46,0.63-0.96,1.24-1.47,1.85c-0.81,0.97-1.68,1.91-2.6,2.83
		c0.9,1.68,1.73,3.36,2.51,5.05C161.79,115.83,162.18,116.7,162.54,117.57z M107.65,54.95c0.3,0.47,0.6,0.95,0.9,1.46
		c0.61-0.14,1.24-0.25,1.88-0.33c-0.13-0.42-0.27-0.82-0.4-1.22c-0.41-1.23-0.82-2.35-1.22-3.34c-1.07,0.13-2.12,0.31-3.13,0.54
		C106.33,52.93,106.98,53.9,107.65,54.95z M113.13,58.3c-0.01,0-0.03,0-0.05,0c-0.47-0.01-0.93,0-1.37,0.04
		c0.3,1.51,0.6,3.15,0.9,4.92c0.08,0.48,0.17,0.97,0.25,1.47c0.02-0.5,0.04-0.98,0.06-1.46C112.99,61.48,113.06,59.82,113.13,58.3z
		 M63.85,126.22c0.26-0.86,0.54-1.71,0.83-2.58c0.02-0.07,0.05-0.14,0.07-0.21c-0.18-0.15-0.36-0.31-0.54-0.46
		c-1.64-1.41-3.17-2.89-4.56-4.44c-0.13,0.32-0.24,0.64-0.36,0.96c-0.82,2.16-1.52,4.31-2.08,6.44c-0.01,0.03-0.02,0.06-0.02,0.08
		c0.12,0.13,0.24,0.25,0.35,0.38c0.13,0.15,0.27,0.29,0.4,0.43c0.74,0.79,1.52,1.56,2.33,2.32c0.72,0.68,1.47,1.34,2.24,1.99
		C62.89,129.51,63.34,127.87,63.85,126.22z M114.37,60.39c0.24-0.65,0.48-1.3,0.72-1.91c-0.23-0.04-0.47-0.07-0.71-0.1
		c-0.22-0.03-0.45-0.05-0.67-0.06c-0.22,1.51-0.44,3.16-0.66,4.94c-0.06,0.48-0.12,0.96-0.18,1.46c0.17-0.5,0.33-0.98,0.49-1.46
		C113.7,62.27,114.04,61.31,114.37,60.39z M64.21,137.01c-0.29,1.81-0.49,3.6-0.6,5.34c-0.03,0.44-0.06,0.88-0.07,1.32
		c2.12,1.58,4.38,3.07,6.78,4.44c0.01-0.3,0.03-0.61,0.05-0.92c0.07-1.51,0.2-3.05,0.39-4.62c0.07-0.63,0.16-1.26,0.25-1.9
		c-2.36-1.35-4.6-2.81-6.68-4.37C64.28,136.54,64.25,136.77,64.21,137.01z M100.77,73.26c0.51-0.42,1.02-0.83,1.54-1.24
		c-0.41-0.34-0.78-0.7-1.12-1.08c-0.15,0.1-0.3,0.19-0.46,0.29c-2.15,1.35-4.26,2.79-6.32,4.29c-0.33,0.24-0.65,0.47-0.98,0.72
		c0.56,0.63,1.19,1.23,1.87,1.8c1.21-1.12,2.44-2.22,3.68-3.28C99.57,74.25,100.17,73.75,100.77,73.26z M111.14,58.4
		c-0.46,0.06-0.9,0.13-1.33,0.23c0.77,1.42,1.56,2.96,2.36,4.63c0.23,0.48,0.46,0.97,0.69,1.47c-0.13-0.5-0.25-0.99-0.37-1.47
		C112.03,61.51,111.58,59.89,111.14,58.4z M107.6,59.36c-0.38,0.17-0.74,0.35-1.08,0.56c1.49,1.01,3.01,2.13,4.54,3.35
		c0.6,0.47,1.2,0.96,1.8,1.46c-0.45-0.5-0.9-0.99-1.35-1.47C110.19,61.85,108.88,60.54,107.6,59.36z M109.29,58.76
		c-0.42,0.12-0.83,0.25-1.22,0.4c1.18,1.25,2.39,2.61,3.6,4.09c0.39,0.48,0.79,0.97,1.19,1.47c-0.28-0.5-0.55-0.99-0.83-1.47
		C111.1,61.64,110.19,60.13,109.29,58.76z M113.17,55.95c0.02,0,0.04,0,0.06,0c0.02-0.38,0.04-0.74,0.05-1.1
		c0.06-1.31,0.13-2.49,0.19-3.54c-0.04,0-0.07,0-0.11,0c-1.09-0.02-2.17,0.01-3.23,0.09c0.27,1.02,0.55,2.18,0.84,3.45
		c0.08,0.38,0.17,0.76,0.25,1.15C111.86,55.96,112.51,55.94,113.17,55.95z M75.02,77.79c-2.07,1.27-4.05,2.62-5.94,4.03
		c-0.42,0.31-0.83,0.62-1.24,0.94c0.38,1.5,0.9,2.97,1.56,4.4c2.18-1.97,4.5-3.87,6.93-5.67c-0.03-0.07-0.06-0.14-0.1-0.22
		C75.73,80.14,75.32,78.98,75.02,77.79z M108.7,47.02c0.24,0.55,0.5,1.23,0.75,2.02c0.08,0.25,0.16,0.51,0.25,0.79
		c1.23-0.1,2.48-0.13,3.75-0.11c0.04,0,0.08,0,0.12,0c0.02-0.25,0.03-0.49,0.05-0.72c0.06-0.84,0.11-1.55,0.16-2.12
		c-0.05,0-0.11,0-0.16,0C111.94,46.85,110.3,46.9,108.7,47.02z M91.5,69.86c-0.44,0.16-0.89,0.32-1.32,0.49
		c0.19,0.76,0.45,1.5,0.79,2.22c0.2-0.1,0.4-0.19,0.6-0.29c2.64-1.29,5.36-2.48,8.14-3.54c-0.2-0.43-0.36-0.88-0.47-1.33
		C96.59,68.11,94.02,68.94,91.5,69.86z M91.63,73.8c0.34,0.57,0.72,1.12,1.14,1.66c2.57-1.76,5.22-3.41,7.94-4.94
		c0.02-0.01,0.05-0.03,0.07-0.04c-0.03-0.03-0.05-0.07-0.07-0.1c-0.28-0.36-0.53-0.73-0.74-1.12c-2.86,1.23-5.65,2.6-8.36,4.07
		c-0.07,0.04-0.13,0.07-0.2,0.11C91.48,73.55,91.55,73.68,91.63,73.8z M72.9,86.45c-0.89,0.8-1.77,1.6-2.62,2.42
		c0.77,1.39,1.67,2.73,2.7,4.03c1.52-1.71,3.11-3.39,4.76-5.03c0.53-0.52,1.06-1.04,1.6-1.56c-0.86-1.09-1.62-2.22-2.27-3.39
		C75.63,84.07,74.25,85.25,72.9,86.45z M106.11,60.17c-0.32,0.22-0.63,0.45-0.91,0.69c1.64,0.72,3.31,1.53,4.99,2.42
		c0.88,0.46,1.77,0.94,2.66,1.45c-0.67-0.51-1.34-0.99-2.01-1.46C109.25,62.14,107.67,61.11,106.11,60.17z M133.6,156.05
		c0-0.31-0.01-0.62-0.01-0.94c-0.01-0.8-0.03-1.61-0.06-2.43c-0.01-0.35-0.03-0.7-0.04-1.05c0-0.08-0.01-0.16-0.01-0.24
		c-0.04-0.83-0.08-1.67-0.13-2.52c-0.89,0.2-1.79,0.39-2.7,0.57c-1.51,0.3-3.04,0.55-4.59,0.77c-0.49,0.07-0.98,0.14-1.48,0.2
		c-0.09,0.01-0.18,0.03-0.28,0.04c0,0.07,0,0.14,0.01,0.21c0.01,0.33,0.02,0.66,0.03,0.99c0.02,0.69,0.03,1.37,0.05,2.04
		c0,0.24,0.01,0.48,0.01,0.72c0,0.12,0,0.24,0,0.36c0.02,1.11,0.03,2.2,0.03,3.26c1.66-0.2,3.3-0.45,4.92-0.74
		c1.44-0.26,2.86-0.54,4.27-0.86C133.6,156.31,133.6,156.18,133.6,156.05z M120.84,69.27c0.26-0.26,0.49-0.53,0.7-0.81
		c-1.06-0.52-2.13-1.01-3.2-1.49c-1.81-0.8-3.63-1.56-5.48-2.25c1.85,0.94,3.67,1.95,5.47,3.01
		C119.17,68.24,120.01,68.75,120.84,69.27z M107.17,70.85c0.36,0.19,0.75,0.35,1.15,0.5c1.13-1.77,2.28-3.47,3.44-5.1
		c0.37-0.51,0.74-1.02,1.11-1.52c-0.5,0.5-1.01,1.01-1.51,1.52C109.94,67.72,108.54,69.25,107.17,70.85z M110.64,71.97
		c0.45,0.08,0.91,0.13,1.39,0.16c0.22-2.03,0.44-3.99,0.66-5.87c0.06-0.51,0.12-1.03,0.18-1.53c-0.16,0.5-0.33,1.01-0.49,1.53
		C111.78,68.09,111.2,69.99,110.64,71.97z M108.81,71.53c0.41,0.13,0.84,0.25,1.28,0.34c0.7-1.94,1.42-3.81,2.14-5.61
		c0.21-0.51,0.42-1.02,0.62-1.52c-0.32,0.5-0.64,1.01-0.96,1.52C110.86,67.94,109.82,69.7,108.81,71.53z M114.29,70.74
		c0.1,0.44,0.2,0.87,0.29,1.32c0.46-0.06,0.9-0.13,1.33-0.23c-0.53-1.31-1.06-2.59-1.6-3.83c-0.25-0.58-0.51-1.16-0.76-1.73
		c-0.23-0.52-0.47-1.03-0.7-1.53c0.13,0.5,0.26,1.02,0.38,1.53C113.6,67.71,113.95,69.2,114.29,70.74z M112.6,72.15
		c0.01,0,0.02,0,0.02,0c0.48,0.01,0.95,0,1.4-0.04c-0.3-2.02-0.6-3.97-0.91-5.85c-0.09-0.52-0.17-1.03-0.26-1.53
		c-0.02,0.5-0.04,1.01-0.05,1.53C112.74,68.15,112.67,70.12,112.6,72.15z M119.61,70.27c0.32-0.22,0.62-0.45,0.9-0.69
		c-0.72-0.51-1.45-1-2.19-1.49c-1.8-1.19-3.62-2.32-5.47-3.37c1.85,1.38,3.66,2.85,5.45,4.4C118.74,69.51,119.18,69.89,119.61,70.27
		z M114.33,66.41c1.28,1.49,2.55,3.06,3.79,4.68c0.05-0.02,0.1-0.05,0.15-0.07c0.32-0.15,0.63-0.31,0.93-0.49
		c-0.3-0.3-0.6-0.59-0.9-0.88c-1.78-1.73-3.6-3.38-5.44-4.92c0.46,0.51,0.91,1.02,1.36,1.54C114.26,66.32,114.29,66.37,114.33,66.41
		z M104.88,61.17c-0.09,0.09-0.17,0.18-0.26,0.28c-0.16,0.17-0.31,0.35-0.45,0.53c0.14,0.04,0.29,0.08,0.43,0.12
		c1.38,0.36,2.77,0.77,4.18,1.22c1.35,0.43,2.71,0.9,4.08,1.41c-1-0.51-2-0.99-2.99-1.44C108.18,62.51,106.52,61.8,104.88,61.17z
		 M114.32,67.46c0.71,1.37,1.42,2.78,2.12,4.23c0.42-0.12,0.83-0.25,1.22-0.41c-1.09-1.61-2.2-3.16-3.33-4.65
		c-0.09-0.12-0.19-0.25-0.28-0.37c-0.4-0.52-0.8-1.03-1.2-1.54c0.28,0.5,0.56,1.02,0.84,1.54
		C113.91,66.66,114.11,67.06,114.32,67.46z M103.09,64.59c3.19-0.12,6.45-0.08,9.77,0.14c-3.24-0.55-6.43-0.92-9.55-1.11
		C103.21,63.93,103.13,64.26,103.09,64.59z M104.6,62.48c-0.22-0.05-0.45-0.1-0.67-0.15c-0.19,0.29-0.35,0.59-0.48,0.9
		c0.37,0.04,0.75,0.09,1.13,0.13c0.33,0.04,0.66,0.08,0.99,0.12c2.39,0.31,4.82,0.72,7.28,1.25c-1.58-0.51-3.15-0.97-4.7-1.39
		C106.96,63.02,105.78,62.74,104.6,62.48z M103.06,65.01c0,0,0,0.02,0,0.02c-0.01,0.33,0.01,0.66,0.06,0.98
		c3.18-0.58,6.43-1.01,9.73-1.28C109.53,64.65,106.26,64.75,103.06,65.01z M105.75,69.97c0.31,0.23,0.64,0.44,0.99,0.64
		c1.46-1.52,2.94-2.97,4.43-4.36c0.56-0.52,1.12-1.03,1.69-1.53c-0.74,0.5-1.48,1.01-2.22,1.54
		C108.99,67.44,107.35,68.67,105.75,69.97z M103.54,67.35c0.34-0.11,0.68-0.22,1.02-0.33c0.65-0.21,1.3-0.42,1.96-0.61
		c2.09-0.63,4.2-1.19,6.34-1.68c-3.28,0.4-6.5,0.96-9.65,1.68C103.29,66.73,103.4,67.05,103.54,67.35z M104.59,68.92
		c0.24,0.27,0.51,0.52,0.8,0.76c1.64-1.2,3.31-2.33,4.99-3.41c0.82-0.53,1.65-1.04,2.48-1.54c-1.1,0.49-2.2,1.02-3.29,1.55
		C107.89,67.11,106.23,67.99,104.59,68.92z M104.56,67.41c-0.28,0.1-0.55,0.2-0.83,0.31c0.16,0.3,0.36,0.59,0.58,0.86
		c0.08-0.04,0.17-0.08,0.25-0.12c1.51-0.76,3.03-1.49,4.57-2.17c1.23-0.55,2.48-1.07,3.73-1.56c-1.79,0.49-3.57,1.04-5.33,1.63
		C106.53,66.7,105.54,67.05,104.56,67.41z M61.86,134.35c-0.53-0.44-1.04-0.89-1.55-1.35c-0.38-0.34-0.75-0.68-1.11-1.03
		c-0.79-0.75-1.55-1.53-2.28-2.32c-0.15-0.16-0.31-0.33-0.46-0.49c-0.37,1.85-0.63,3.67-0.79,5.48c-0.05,0.6-0.09,1.19-0.12,1.79
		c1.66,1.84,3.49,3.6,5.48,5.27c0.02-0.49,0.05-0.97,0.09-1.47c0.13-1.83,0.36-3.7,0.69-5.6C61.83,134.53,61.84,134.44,61.86,134.35
		z M154.7,77.79c-0.97-0.61-1.97-1.2-2.98-1.78c-0.24-0.13-0.47-0.27-0.71-0.41c-0.15,1.31-0.44,2.59-0.85,3.84
		c0.42,0.28,0.83,0.57,1.24,0.85c0.99,0.69,1.96,1.4,2.91,2.12c0.99,0.75,1.96,1.52,2.89,2.3c0.48-1.48,0.82-3.01,1.01-4.56
		C157.08,79.34,155.91,78.55,154.7,77.79z M163.25,90.37c0.64,0.67,1.26,1.34,1.86,2.03c0.21,0.24,0.43,0.48,0.64,0.72
		c0.01-0.03,0.02-0.07,0.03-0.1c0.56-1.74,0.96-3.53,1.17-5.35c-0.96-0.99-1.97-1.96-3.02-2.91c-0.8-0.72-1.64-1.43-2.49-2.13
		c-0.14-0.12-0.28-0.24-0.43-0.36c-0.19,1.65-0.56,3.27-1.07,4.85c0.31,0.28,0.61,0.57,0.91,0.86
		C161.67,88.76,162.48,89.56,163.25,90.37z M148.22,83.73c-0.15,0.25-0.3,0.5-0.46,0.75c0.18,0.15,0.35,0.31,0.52,0.46
		c0.67,0.58,1.32,1.18,1.97,1.77l0.21,0.19c0.92,0.85,1.82,1.72,2.69,2.6c0.4,0.4,0.8,0.8,1.19,1.21c0.4-0.63,0.77-1.26,1.12-1.91
		c0.4-0.75,0.77-1.52,1.09-2.3c-1.7-1.52-3.49-2.98-5.35-4.39c-0.52-0.4-1.05-0.79-1.58-1.18c-0.12,0.3-0.25,0.6-0.39,0.89
		C148.92,82.48,148.58,83.11,148.22,83.73z M118.24,53.78c-0.48,0.8-0.97,1.66-1.46,2.59c0.62,0.13,1.22,0.29,1.81,0.48
		c0.49-0.59,0.98-1.14,1.46-1.67c0.79-0.87,1.57-1.67,2.33-2.38c-0.97-0.31-1.97-0.58-3-0.8C119,52.54,118.63,53.14,118.24,53.78z
		 M158.44,90.77c-0.46,0.93-0.97,1.83-1.54,2.72c0.75,0.85,1.48,1.71,2.19,2.58c0.73,0.89,1.45,1.8,2.14,2.71
		c0.38,0.5,0.75,0.99,1.11,1.49c0.92-1.43,1.71-2.91,2.38-4.43c0.09-0.2,0.18-0.39,0.26-0.59c-1.75-2.14-3.66-4.22-5.72-6.22
		C159,89.61,158.72,90.19,158.44,90.77z M126.22,54.39c-0.85-0.44-1.75-0.83-2.69-1.18c-0.78,0.62-1.58,1.32-2.39,2.07
		c-0.61,0.57-1.23,1.17-1.86,1.82c0.27,0.1,0.53,0.21,0.79,0.32c0.28,0.12,0.56,0.25,0.83,0.39c0.13-0.1,0.26-0.19,0.4-0.28
		c0.96-0.69,1.91-1.33,2.85-1.91C124.84,55.18,125.54,54.76,126.22,54.39z M119.61,129.14c-0.05-0.93-0.11-1.86-0.16-2.8
		c-0.36,0.03-0.72,0.05-1.07,0.07c-2.29,0.15-4.62,0.21-6.98,0.17c-0.05,0-0.1,0-0.15,0c-0.01,0.66-0.02,1.32-0.04,1.98
		c-0.04,2.36-0.09,4.7-0.12,7c0.05,0,0.11,0,0.16,0c0.57,0.01,1.13,0.01,1.7,0.01c0.57,0,1.14-0.01,1.71-0.02
		c0.83-0.02,1.66-0.04,2.49-0.08c0.57-0.03,1.15-0.06,1.72-0.1c0.37-0.02,0.73-0.05,1.09-0.07c-0.06-1.31-0.13-2.65-0.21-3.98
		C119.69,130.59,119.65,129.86,119.61,129.14z M112.56,147.71c0.32,0,0.63,0.01,0.95,0.01c0.78,0,1.56-0.02,2.33-0.04
		c0.33-0.01,0.65-0.03,0.97-0.04c0.84-0.03,1.68-0.08,2.51-0.14c0.36-0.02,0.72-0.04,1.08-0.07c-0.02-0.66-0.04-1.33-0.06-2
		c-0.03-1.06-0.07-2.14-0.11-3.22c-0.04-1.06-0.08-2.12-0.13-3.2c-1.53,0.12-3.07,0.2-4.63,0.25c-1.42,0.04-2.86,0.05-4.3,0.02
		c-0.06,0-0.11,0-0.17,0c-0.01,0.63-0.02,1.26-0.03,1.89c-0.02,1.32-0.04,2.61-0.06,3.89c-0.01,0.89-0.02,1.78-0.04,2.65
		c0.06,0,0.12,0,0.18,0C111.57,147.71,112.06,147.71,112.56,147.71z M50.79,102.44c-0.83,1.58-1.55,3.19-2.18,4.81
		c-0.25,0.64-0.48,1.29-0.7,1.93c0.54,2.16,1.3,4.28,2.25,6.33c0.16-0.51,0.33-1.02,0.51-1.53c0.64-1.84,1.39-3.67,2.27-5.49
		c-0.44-0.95-0.83-1.9-1.18-2.88c-0.34-0.94-0.63-1.88-0.88-2.84C50.85,102.66,50.82,102.55,50.79,102.44z M132.8,142.09
		c-0.16-1.62-0.34-3.27-0.54-4.94c-0.07,0.02-0.14,0.03-0.2,0.04c-0.72,0.16-1.44,0.31-2.16,0.46c-1.55,0.31-3.11,0.57-4.71,0.79
		c-0.49,0.07-0.98,0.14-1.47,0.2c0.11,1.65,0.2,3.27,0.29,4.87c0.05,0.89,0.09,1.78,0.13,2.65c0.01,0.29,0.03,0.59,0.04,0.88
		c0.21-0.03,0.42-0.06,0.63-0.08c1.34-0.17,2.67-0.37,3.99-0.6c1.46-0.26,2.9-0.55,4.32-0.87c-0.02-0.28-0.05-0.56-0.07-0.83
		c-0.02-0.27-0.05-0.55-0.07-0.83C132.91,143.25,132.85,142.67,132.8,142.09z M135.69,65.77c-1.32-0.24-2.66-0.44-4.02-0.61
		c-1.67-0.21-3.36-0.39-5.08-0.51c0.07,0.45,0.1,0.9,0.09,1.36c0.1,0.02,0.2,0.04,0.3,0.05c0.57,0.1,1.14,0.2,1.7,0.31
		c0.21,0.04,0.41,0.08,0.61,0.12c0.64,0.13,1.28,0.26,1.91,0.4c0.08,0.02,0.15,0.03,0.23,0.05c0.63,0.14,1.26,0.29,1.88,0.44
		c0.21,0.05,0.41,0.1,0.61,0.15c0.53,0.13,1.06,0.27,1.58,0.42c0.11,0.03,0.22,0.05,0.32,0.08c0.02-0.6-0.01-1.19-0.08-1.77
		C135.74,66.1,135.72,65.93,135.69,65.77z M126.64,66.61c-0.03,0.25-0.07,0.49-0.13,0.74c-0.05,0.22-0.11,0.43-0.18,0.65
		c0.52,0.17,1.03,0.34,1.54,0.51c1.26,0.42,2.5,0.87,3.73,1.34c1.23,0.47,2.45,0.96,3.65,1.48c0.22-0.68,0.38-1.37,0.48-2.08
		c0.01-0.07,0.02-0.15,0.03-0.22C132.81,68.08,129.77,67.27,126.64,66.61z M152.19,93.64c0.18-0.21,0.35-0.43,0.52-0.65
		c0.17-0.22,0.34-0.43,0.5-0.65c-0.18-0.2-0.37-0.4-0.56-0.61c-0.13-0.14-0.26-0.28-0.39-0.43c-0.72-0.78-1.46-1.55-2.21-2.32
		c-1.05-1.07-2.13-2.12-3.24-3.15c-0.82,1.1-1.74,2.16-2.75,3.16c1.38,1.54,2.71,3.11,4,4.7c0.64,0.79,1.27,1.59,1.89,2.4
		C150.74,95.31,151.49,94.49,152.19,93.64z M137.26,76.38c-0.02,0.04-0.05,0.08-0.07,0.12c0.73,0.48,1.46,0.98,2.18,1.48
		c1.85,1.29,3.64,2.62,5.38,4.01c0.25-0.39,0.48-0.79,0.71-1.2c0.09-0.17,0.18-0.33,0.27-0.5c0.26-0.5,0.5-1.02,0.72-1.54
		c-0.94-0.62-1.9-1.23-2.87-1.82c-1.09-0.67-2.2-1.32-3.33-1.95c-0.58-0.32-1.17-0.65-1.76-0.96
		C138.15,74.84,137.74,75.62,137.26,76.38z M144.2,100.76c1.28-0.86,2.49-1.77,3.62-2.73c0.2-0.17,0.39-0.33,0.59-0.5
		c-1.35-1.89-2.76-3.76-4.23-5.59c-0.47-0.58-0.94-1.16-1.41-1.73c-0.3,0.27-0.61,0.53-0.93,0.79c-0.82,0.67-1.69,1.32-2.61,1.93
		c0.48,0.71,0.96,1.42,1.43,2.14C141.89,96.94,143.07,98.84,144.2,100.76z M147.62,68.9c-1.23-0.44-2.48-0.84-3.76-1.21
		c-1.11-0.33-2.25-0.63-3.4-0.91c-0.36-0.09-0.72-0.18-1.08-0.26c0.04,0.27,0.08,0.54,0.1,0.82c0.06,0.6,0.09,1.21,0.07,1.82
		c0.11,0.04,0.23,0.08,0.34,0.12c0.49,0.16,0.97,0.33,1.46,0.5c0.17,0.06,0.35,0.12,0.52,0.18c0.61,0.22,1.21,0.44,1.81,0.67
		c0.14,0.05,0.27,0.11,0.41,0.16c0.48,0.19,0.97,0.38,1.44,0.58c0.18,0.08,0.36,0.15,0.54,0.23c0.57,0.24,1.14,0.49,1.7,0.74
		c0.02,0.01,0.05,0.02,0.07,0.03c0.02-0.65,0-1.29-0.05-1.93C147.76,69.92,147.7,69.41,147.62,68.9z M143.69,75.48
		c1.11,0.61,2.2,1.24,3.27,1.9c0.37-1.14,0.63-2.31,0.77-3.51c-1.26-0.63-2.55-1.23-3.87-1.8c-1.12-0.48-2.25-0.94-3.4-1.39
		c-0.24-0.09-0.48-0.19-0.72-0.28c-0.09-0.03-0.18-0.07-0.27-0.1c0,0,0,0.01,0,0.02c-0.11,0.91-0.31,1.79-0.59,2.65
		c0.49,0.24,0.97,0.48,1.45,0.72C141.46,74.28,142.58,74.87,143.69,75.48z M127.8,70.99c1.24,0.64,2.46,1.31,3.67,2
		c0.78,0.45,1.56,0.9,2.33,1.37c0.44-0.68,0.81-1.39,1.11-2.12c-1.1-0.53-2.22-1.03-3.35-1.52c-1.22-0.53-2.46-1.04-3.71-1.53
		c-0.57-0.22-1.15-0.44-1.73-0.66c-0.18,0.44-0.41,0.87-0.67,1.28C126.25,70.19,127.03,70.59,127.8,70.99z M46.47,98.55
		c0.01-0.06,0.02-0.12,0.03-0.19c0,0.01,0,0.02-0.01,0.03c-0.09,0.47-0.18,0.94-0.27,1.42c-0.08,0.41-0.15,0.82-0.23,1.23
		c0.09-0.41,0.19-0.83,0.3-1.24C46.34,99.38,46.4,98.97,46.47,98.55z M45.16,117.25c0.02,0.18,0.03,0.37,0.05,0.55
		c-0.03-0.3-0.05-0.59-0.08-0.88C45.14,117.02,45.15,117.14,45.16,117.25z M47.07,112.11c-0.57,2.31-0.92,4.65-1.04,7.01
		c0.56,2.23,1.33,4.4,2.31,6.51c0.04-0.73,0.1-1.46,0.18-2.19c0.18-1.64,0.45-3.27,0.83-4.91c-0.56-1.22-1.05-2.46-1.47-3.71
		C47.57,113.92,47.3,113.02,47.07,112.11z M46.08,105.09c-0.03-0.77-0.04-1.55-0.01-2.32c0-0.06,0-0.11,0.01-0.17
		c-0.43,1.66-0.73,3.36-0.9,5.09c-0.09,1.24-0.15,2.48-0.17,3.73c0.03,1.67,0.18,3.33,0.45,4.96c0.04-0.79,0.12-1.57,0.21-2.35
		c0.18-1.55,0.46-3.09,0.84-4.62C46.27,107.99,46.13,106.55,46.08,105.09z M45.25,118.1c-0.01-0.1-0.02-0.2-0.04-0.31
		c0.05,0.5,0.1,1.01,0.15,1.52c0.05,0.44,0.09,0.88,0.14,1.32c-0.03-0.42-0.06-0.84-0.07-1.27C45.36,118.95,45.3,118.52,45.25,118.1
		z M177.36,131.16c0.3-1.06,0.58-2.12,0.84-3.19c0.1-0.45,0.19-0.91,0.28-1.39c0.1-0.49,0.19-0.98,0.28-1.47
		c0.08-0.43,0.16-0.86,0.23-1.28c0.1-0.54,0.19-1.07,0.28-1.59c0.13-0.98,0.24-1.99,0.34-2.99c-0.29,1.96-0.74,3.89-1.35,5.78
		C178.15,127.14,177.84,129.18,177.36,131.16z M87.04,174.79c-0.77-0.29-1.52-0.59-2.27-0.9c-0.34-0.14-0.67-0.28-1-0.42
		c-1.05-0.46-2.09-0.95-3.09-1.46c0.09,0.06,0.17,0.11,0.26,0.16c1.16,0.61,2.33,1.19,3.52,1.73c0.28,0.12,0.56,0.25,0.84,0.37
		c0.4,0.17,0.79,0.35,1.19,0.52c0.52,0.22,1.05,0.43,1.57,0.63c-0.13-0.07-0.26-0.13-0.38-0.21
		C87.46,175.08,87.25,174.94,87.04,174.79z M96.91,177.65c-0.94-0.2-1.87-0.42-2.78-0.65c-0.95-0.24-1.89-0.5-2.81-0.77
		c-0.39-0.12-0.78-0.24-1.17-0.36c-0.12-0.04-0.24-0.07-0.35-0.11c0.37,0.29,0.76,0.52,1.16,0.71c2.31,0.78,4.67,1.43,7.05,1.96
		c-0.13-0.05-0.26-0.12-0.38-0.19C97.37,178.07,97.13,177.88,96.91,177.65z M45.53,120.97c0.01,0.14,0.03,0.27,0.04,0.41
		c0.02,0.18,0.05,0.37,0.08,0.55c-0.05-0.42-0.1-0.85-0.15-1.29C45.51,120.75,45.52,120.86,45.53,120.97z M117.35,170.02
		c-0.79,0.04-1.58,0.07-2.38,0.09c-0.31,0.01-0.63,0.01-0.94,0.02c-0.77,0.01-1.54,0.01-2.31,0c-0.28,0-0.55,0-0.83-0.01
		c-0.04,0-0.08,0-0.12,0l-0.06,0c0,0.12,0,0.23,0,0.35c0,1.52,0.01,2.86,0.02,4.02c0.06,0,0.11,0,0.17,0
		c3.03,0.06,6.01-0.03,8.93-0.26c0.08-0.67,0.16-1.41,0.23-2.2c0.06-0.68,0.12-1.41,0.16-2.18c-0.61,0.05-1.23,0.09-1.85,0.12
		C118.03,169.99,117.69,170.01,117.35,170.02z M115.58,175.93c-1.38,0.05-2.77,0.06-4.17,0.04c-0.16,0-0.33,0-0.49,0
		c-0.06,0-0.11,0-0.17,0c0.02,1.07,0.04,1.92,0.07,2.57c0.05,0,0.1,0,0.15,0c2.73,0.05,5.42-0.03,8.06-0.24
		c0.07-0.2,0.13-0.43,0.19-0.67c0.14-0.54,0.27-1.18,0.39-1.92c-0.78,0.06-1.56,0.11-2.34,0.15
		C116.72,175.89,116.15,175.92,115.58,175.93z M48.11,104.48c0.62-1.56,1.33-3.09,2.15-4.6c-0.22-1.32-0.35-2.65-0.4-4
		c-0.03-0.75-0.04-1.51-0.02-2.27c0-0.05,0-0.11,0.01-0.16c-1.18,2.04-2.15,4.16-2.92,6.34c0,0.06,0,0.11-0.01,0.17
		c-0.07,2.22,0.08,4.41,0.43,6.56C47.59,105.83,47.84,105.16,48.11,104.48z M62.47,67.71c1.2-1.62,2.56-3.17,4.05-4.64
		c-1.23,1.14-2.41,2.32-3.54,3.54c-0.33,0.36-0.66,0.73-0.99,1.11c-0.27,0.3-0.53,0.61-0.8,0.91c-0.06,0.07-0.12,0.14-0.19,0.21
		c-0.42,0.49-0.83,0.99-1.23,1.5C60.61,69.41,61.5,68.52,62.47,67.71z M45.95,101.26c-0.01,0.04-0.02,0.09-0.03,0.13
		c-0.05,0.29-0.1,0.59-0.14,0.88c0.07-0.4,0.14-0.81,0.22-1.23C45.98,101.11,45.97,101.18,45.95,101.26z M140.19,51.09
		c0.24,0.12,0.49,0.24,0.74,0.36c0.13,0.03,0.26,0.07,0.38,0.11c0.26,0.08,0.51,0.17,0.76,0.26c-0.65-0.32-1.31-0.63-1.97-0.93
		c-0.02-0.01-0.04-0.02-0.06-0.03c-1.53-0.68-3.08-1.31-4.66-1.87c0.68,0.26,1.35,0.53,2.02,0.81
		C138.35,50.22,139.28,50.65,140.19,51.09z M141.78,171.46c0.19-0.29,0.38-0.6,0.56-0.92c-0.91,0.36-1.84,0.7-2.78,1.02
		c-1.58,0.55-3.19,1.06-4.84,1.51c-0.16,0.36-0.33,0.69-0.5,1c-0.16,0.29-0.32,0.56-0.49,0.82c-0.23,0.35-0.47,0.68-0.72,0.96
		c0.93-0.26,1.84-0.53,2.75-0.82c1.08-0.34,2.15-0.71,3.19-1.1c0.37-0.14,0.75-0.28,1.11-0.42c0.11-0.11,0.22-0.23,0.34-0.35
		c0.21-0.21,0.41-0.44,0.6-0.68C141.28,172.17,141.54,171.83,141.78,171.46z M134.61,79.65c0.22,0.2,0.44,0.4,0.66,0.6
		c1.37,1.23,2.71,2.49,4.01,3.78c0.7,0.69,1.4,1.39,2.08,2.1c0.44-0.44,0.86-0.88,1.26-1.34c0.44-0.5,0.86-1.02,1.25-1.55
		c-0.12-0.11-0.25-0.21-0.38-0.32c-2.23-1.91-4.56-3.74-6.98-5.47C135.96,78.22,135.32,78.95,134.61,79.65z M127.27,80.29
		c0.16-0.09,0.32-0.17,0.47-0.26c-0.14-0.17-0.28-0.33-0.41-0.5c-0.31-0.38-0.62-0.76-0.94-1.14c-0.93-1.11-1.88-2.2-2.84-3.27
		c-0.19-0.21-0.38-0.43-0.58-0.64c-0.38-0.42-0.77-0.84-1.16-1.26c-0.48,0.29-0.99,0.55-1.52,0.79c0.05,0.07,0.1,0.14,0.15,0.21
		c0.34,0.47,0.67,0.95,1.01,1.43c0.52,0.75,1.03,1.5,1.54,2.26c0.75,1.12,1.49,2.27,2.22,3.43
		C125.93,81.02,126.62,80.66,127.27,80.29z M114.11,83.82c0.49-0.02,0.98-0.04,1.47-0.08c-0.19-1.53-0.38-3.04-0.57-4.52
		c-0.17-1.27-0.34-2.53-0.51-3.77c-0.64,0.05-1.3,0.07-1.97,0.06c-0.01,0-0.02,0-0.04,0c-0.02,0.58-0.04,1.17-0.05,1.76
		c-0.05,1.53-0.09,3.1-0.14,4.68c-0.02,0.62-0.04,1.25-0.05,1.88c0.02,0,0.04,0,0.06,0C112.91,83.85,113.51,83.84,114.11,83.82z
		 M120.03,83.06c-0.63-1.87-1.27-3.71-1.92-5.5c-0.05-0.13-0.1-0.27-0.15-0.4c-0.26-0.71-0.52-1.42-0.79-2.11
		c-0.61,0.14-1.24,0.25-1.88,0.33c0.21,1.02,0.42,2.06,0.63,3.11c0.33,1.68,0.66,3.38,0.98,5.12c0.34-0.04,0.67-0.1,1.01-0.15
		C118.63,83.35,119.34,83.22,120.03,83.06z M124.19,74.63c0.1,0.1,0.2,0.21,0.31,0.31c1.43,1.45,2.83,2.94,4.2,4.48
		c0.76-0.51,1.47-1.05,2.12-1.63c-1.05-0.94-2.12-1.86-3.2-2.76c-0.13-0.11-0.26-0.22-0.38-0.32c-1.17-0.97-2.37-1.91-3.57-2.83
		c-0.39,0.35-0.82,0.67-1.28,0.98C122.99,73.44,123.59,74.03,124.19,74.63z M124.12,81.8c-0.76-1.36-1.54-2.7-2.33-4.02
		c-0.38-0.63-0.75-1.25-1.13-1.86c-0.34-0.55-0.68-1.09-1.02-1.63c-0.55,0.22-1.13,0.41-1.72,0.57c0.28,0.62,0.56,1.25,0.84,1.88
		c0.12,0.26,0.23,0.53,0.34,0.8c0.74,1.7,1.46,3.44,2.16,5.22C122.24,82.48,123.2,82.16,124.12,81.8z M125.32,58
		c1.44-0.59,2.85-1.11,4.23-1.54c-0.65-0.49-1.35-0.94-2.08-1.37c-0.08-0.05-0.15-0.1-0.23-0.14c-0.57,0.27-1.14,0.56-1.72,0.86
		c-1.05,0.55-2.12,1.16-3.2,1.83c-0.27,0.17-0.54,0.33-0.81,0.51c0.49,0.28,0.96,0.59,1.39,0.91
		C123.72,58.67,124.52,58.33,125.32,58z M132.76,52.88c-0.67,0.18-1.35,0.39-2.05,0.63c-0.38,0.13-0.76,0.27-1.15,0.42
		c0.47,0.27,0.93,0.55,1.38,0.85c0.45,0.29,0.88,0.6,1.3,0.91c2.09-0.51,4.1-0.84,6.02-0.98c-0.23-0.17-0.46-0.34-0.7-0.51
		c-0.89-0.63-1.83-1.23-2.82-1.8C134.1,52.54,133.43,52.7,132.76,52.88z M129.1,49.77c-1.04,0.44-2.11,1.02-3.23,1.75
		c-0.21,0.13-0.41,0.26-0.62,0.41c0.65,0.25,1.28,0.51,1.9,0.79c0.41,0.19,0.83,0.38,1.22,0.58c0.71-0.33,1.41-0.61,2.1-0.87
		c0.04-0.01,0.08-0.03,0.11-0.04c0.88-0.33,1.75-0.6,2.59-0.81l0.01,0c-1.1-0.56-2.26-1.08-3.45-1.55
		C129.53,49.94,129.32,49.85,129.1,49.77z M129.45,107.36c1.74-0.48,3.43-1.03,5.06-1.65c0.21-0.08,0.42-0.15,0.62-0.23
		c-0.53-1.37-1.07-2.74-1.63-4.1c-0.62-1.5-1.25-3-1.9-4.49c-0.93,0.37-1.89,0.71-2.87,1.02c-0.63,0.2-1.26,0.39-1.9,0.57
		c0.58,1.86,1.14,3.73,1.69,5.61C128.83,105.18,129.15,106.27,129.45,107.36z M139.56,55.75c-0.17,0.01-0.35,0.02-0.52,0.03
		c-1.86,0.09-3.8,0.31-5.81,0.71c0.42,0.35,0.81,0.71,1.19,1.08c0.34,0.33,0.66,0.66,0.97,1.01c0.76-0.06,1.5-0.1,2.24-0.13
		c0.68-0.03,1.35-0.04,2.02-0.04c0.93,0,1.84,0.03,2.74,0.08C141.54,57.53,140.59,56.62,139.56,55.75z M125.63,94.77
		c0.07-0.02,0.14-0.04,0.21-0.06c1.22-0.34,2.4-0.73,3.55-1.16c0.2-0.08,0.4-0.15,0.6-0.23c-0.14-0.31-0.29-0.62-0.44-0.93
		c-0.92-1.94-1.86-3.86-2.83-5.74c-0.26-0.51-0.52-1.01-0.79-1.52c-1.07,0.42-2.18,0.79-3.33,1.11l0.03,0.09
		c0.49,1.29,0.96,2.6,1.43,3.92C124.6,91.74,125.12,93.25,125.63,94.77z M123.45,134.94c0.56-0.07,1.12-0.15,1.68-0.23
		c0.67-0.1,1.33-0.2,1.98-0.31c1.58-0.26,3.14-0.57,4.67-0.92c-0.03-0.22-0.07-0.45-0.1-0.68c-0.21-1.51-0.44-3.04-0.69-4.58
		c-0.1-0.65-0.21-1.31-0.32-1.96c-0.09-0.54-0.17-1.07-0.26-1.61c-0.51,0.12-1.03,0.23-1.55,0.33c-1.77,0.37-3.58,0.67-5.42,0.91
		c-0.25,0.03-0.49,0.07-0.74,0.1c0.12,1.27,0.23,2.54,0.34,3.79C123.19,131.53,123.33,133.25,123.45,134.94z M113.22,113.45
		c-0.53,0-1.06,0-1.59-0.01c-0.04,0-0.09,0-0.13,0c-0.01,0.67-0.03,1.34-0.04,2.02c-0.05,2.42-0.1,4.83-0.15,7.23
		c0.05,0,0.1,0,0.15,0c0.61,0.01,1.22,0.02,1.83,0.01c0.8,0,1.6-0.02,2.39-0.05c0.73-0.02,1.46-0.06,2.19-0.11
		c0.45-0.03,0.89-0.05,1.34-0.09c-0.1-1.49-0.21-2.99-0.32-4.5c-0.05-0.72-0.11-1.44-0.16-2.15c-0.07-0.86-0.13-1.71-0.2-2.57
		c-1.62,0.13-3.26,0.2-4.92,0.21C113.47,113.45,113.35,113.45,113.22,113.45z M117.37,100.12c-1.78,0.14-3.61,0.2-5.45,0.16
		c-0.03,0-0.07,0-0.1,0c-0.02,0.66-0.03,1.33-0.05,1.99c-0.06,2.4-0.11,4.81-0.17,7.24c0.04,0,0.08,0,0.12,0
		c0.63,0.01,1.27,0.01,1.89,0.01c1-0.01,1.99-0.04,2.97-0.09c0.54-0.03,1.08-0.07,1.62-0.11c-0.19-2.29-0.4-4.57-0.61-6.84
		C117.51,101.69,117.44,100.91,117.37,100.12z M122.24,90.01c-0.35-1.14-0.7-2.28-1.05-3.41c-1.18,0.27-2.39,0.48-3.64,0.63
		c0.14,0.79,0.27,1.58,0.41,2.38c0.36,2.13,0.7,4.28,1.04,6.46c1.63-0.2,3.22-0.48,4.77-0.83
		C123.27,93.48,122.76,91.74,122.24,90.01z M112.14,87.5c-0.02,0.63-0.04,1.27-0.05,1.91c-0.06,2.31-0.12,4.65-0.18,7.01
		c0.03,0,0.06,0,0.09,0c0.63,0.01,1.26,0.01,1.89,0c1.04-0.02,2.08-0.06,3.1-0.15c-0.31-3.01-0.63-5.98-0.97-8.88
		c-1.24,0.1-2.51,0.14-3.8,0.11C112.19,87.51,112.17,87.5,112.14,87.5z M143.59,63.59c-1.09-0.2-2.19-0.37-3.31-0.51
		c-0.67-0.08-1.35-0.16-2.03-0.22c0.38,0.84,0.69,1.7,0.91,2.58c0.43,0.08,0.85,0.17,1.27,0.26c1.15,0.24,2.27,0.5,3.38,0.79
		c1.19,0.31,2.37,0.64,3.51,1c-0.28-1.16-0.68-2.28-1.19-3.38C145.3,63.91,144.45,63.75,143.59,63.59z M143.4,59.68
		c-0.14-0.01-0.28-0.02-0.42-0.04c-2.18-0.2-4.46-0.26-6.81-0.16c0.24,0.31,0.47,0.62,0.69,0.94c0.32,0.47,0.62,0.94,0.89,1.43
		c0.82,0.05,1.64,0.11,2.44,0.19c1.81,0.17,3.58,0.42,5.29,0.74c-0.39-0.72-0.84-1.42-1.32-2.1
		C143.91,60.34,143.66,60.01,143.4,59.68z M136.96,89.7c0.12-0.08,0.24-0.17,0.37-0.25c0.43-0.3,0.85-0.6,1.26-0.91
		c0.56-0.42,1.09-0.86,1.6-1.31c-0.39-0.44-0.79-0.87-1.18-1.3c-1.71-1.86-3.47-3.68-5.3-5.43c-0.76,0.67-1.59,1.3-2.47,1.89
		c1.85,2.21,3.64,4.5,5.36,6.85C136.72,89.38,136.84,89.54,136.96,89.7z M131.66,92.62c0.43-0.19,0.86-0.4,1.28-0.61
		c0.89-0.44,1.74-0.9,2.56-1.39c-0.47-0.71-0.94-1.41-1.43-2.11c-1.12-1.63-2.28-3.23-3.46-4.8c-0.16-0.21-0.32-0.43-0.48-0.64
		c-0.93,0.55-1.91,1.06-2.93,1.52c1.34,2.27,2.64,4.59,3.89,6.96C131.29,91.91,131.48,92.26,131.66,92.62z M134.4,119.61
		c1.71-0.52,3.38-1.1,4.99-1.74c-0.04-0.14-0.09-0.28-0.13-0.42c-0.8-2.58-1.66-5.18-2.58-7.76c-0.06-0.18-0.12-0.36-0.19-0.54
		c-0.94,0.37-1.89,0.72-2.87,1.04c-1.03,0.35-2.09,0.67-3.16,0.96c0.28,1.06,0.53,2.12,0.8,3.18c0.47,1.93,0.94,3.86,1.36,5.78
		c0.18-0.05,0.35-0.1,0.52-0.15C133.56,119.86,133.99,119.74,134.4,119.61z M124.13,71.45c1.2,0.82,2.38,1.68,3.55,2.55
		c0.31,0.24,0.62,0.47,0.94,0.71c1.01,0.77,2,1.56,2.98,2.36c0.32-0.31,0.62-0.64,0.9-0.96c0.24-0.28,0.47-0.56,0.69-0.85
		c0.02-0.03,0.04-0.05,0.06-0.08c-0.6-0.4-1.21-0.79-1.82-1.18c-1.2-0.76-2.42-1.5-3.65-2.21c-0.88-0.51-1.76-1.01-2.65-1.49
		C124.83,70.7,124.49,71.08,124.13,71.45z M131.49,59.88c-1.2,0.15-2.42,0.33-3.65,0.55c-0.96,0.17-1.93,0.36-2.91,0.58
		c0.31,0.39,0.58,0.8,0.81,1.22c0.72-0.08,1.43-0.15,2.14-0.21c1.25-0.11,2.48-0.18,3.71-0.22c0.9-0.03,1.8-0.05,2.69-0.05
		c-0.39-0.7-0.84-1.38-1.36-2.03C132.45,59.76,131.97,59.82,131.49,59.88z M142,116.78c0.75-0.34,1.48-0.69,2.2-1.05
		c0.88-0.44,1.74-0.9,2.59-1.37c0.4-0.22,0.79-0.45,1.18-0.68c-0.06-0.15-0.13-0.3-0.2-0.45c-0.29-0.67-0.59-1.35-0.89-2.02
		c-0.87-1.93-1.78-3.85-2.75-5.76c0-0.01-0.01-0.01-0.01-0.02c0,0-0.01,0.01-0.02,0.01c-1.35,0.81-2.78,1.56-4.25,2.26
		c-0.35,0.16-0.7,0.33-1.05,0.49c0.97,2.42,1.88,4.85,2.73,7.27C141.69,115.89,141.85,116.33,142,116.78z M130.4,57.13
		c-1.19,0.31-2.41,0.67-3.64,1.09c-1.1,0.37-2.22,0.78-3.35,1.23c0.41,0.34,0.78,0.7,1.12,1.08c1.11-0.3,2.2-0.56,3.28-0.8
		c1.51-0.33,3-0.6,4.45-0.81C131.71,58.3,131.08,57.7,130.4,57.13z M137.31,104.56c0.78-0.35,1.54-0.72,2.29-1.1
		c0.93-0.48,1.84-0.97,2.71-1.5c-0.75-1.38-1.52-2.75-2.31-4.12c-0.77-1.31-1.55-2.62-2.36-3.91c-0.02,0.01-0.04,0.02-0.06,0.04
		c-1.31,0.78-2.7,1.5-4.15,2.15c0.86,1.75,1.69,3.53,2.5,5.31C136.4,102.47,136.86,103.51,137.31,104.56z M152.51,61.66
		c-0.83-0.29-1.68-0.55-2.55-0.78c-1.19-0.32-2.42-0.6-3.68-0.81c0.55,0.7,1.06,1.42,1.52,2.16c0.26,0.41,0.51,0.82,0.73,1.23
		c1.77,0.45,3.47,0.98,5.1,1.6c0.55,0.21,1.1,0.43,1.63,0.65c-0.77-1.39-1.66-2.74-2.69-4.03
		C152.56,61.68,152.54,61.67,152.51,61.66z M131.62,62.55c-1.22,0-2.46,0.03-3.72,0.09c-0.63,0.03-1.26,0.06-1.89,0.11
		c0.2,0.43,0.36,0.88,0.47,1.33c0.48,0.01,0.96,0.04,1.44,0.06c1.26,0.06,2.51,0.14,3.74,0.25c1.3,0.12,2.58,0.26,3.84,0.44
		c-0.19-0.76-0.45-1.5-0.78-2.22C133.7,62.57,132.66,62.55,131.62,62.55z M156.14,67.44c-2.16-0.99-4.45-1.83-6.87-2.53
		c0.02,0.05,0.05,0.11,0.07,0.16c0.52,1.15,0.93,2.33,1.23,3.54c0.35,0.13,0.69,0.27,1.04,0.41c1,0.4,1.98,0.81,2.94,1.26
		c1.08,0.5,2.13,1.02,3.15,1.57c-0.22-0.88-0.49-1.75-0.81-2.61C156.66,68.63,156.42,68.03,156.14,67.44z M158.07,73.69
		c-1.1-0.63-2.23-1.24-3.4-1.81c-0.97-0.48-1.96-0.93-2.97-1.36c-0.27-0.12-0.54-0.24-0.82-0.35c0.1,0.6,0.17,1.21,0.21,1.82
		c0.04,0.65,0.06,1.3,0.04,1.96c0.09,0.04,0.17,0.09,0.26,0.14c0.47,0.24,0.93,0.48,1.38,0.73c0.11,0.06,0.21,0.11,0.32,0.17
		c0.54,0.3,1.07,0.6,1.6,0.91c0.15,0.09,0.29,0.17,0.43,0.26c0.42,0.25,0.83,0.5,1.24,0.75c0.14,0.08,0.27,0.17,0.41,0.25
		c0.51,0.32,1.01,0.64,1.5,0.97c0.03,0.02,0.06,0.04,0.1,0.06c0.02-0.69,0.01-1.38-0.03-2.06
		C158.29,75.31,158.21,74.49,158.07,73.69z M150.22,112.25c0.84-0.56,1.65-1.14,2.44-1.74c0.57-0.43,1.12-0.87,1.66-1.32
		c0.31-0.26,0.62-0.52,0.92-0.78c-0.11-0.2-0.22-0.39-0.33-0.58c-0.76-1.36-1.55-2.71-2.38-4.05c-0.63-1.02-1.27-2.03-1.94-3.04
		c-0.21,0.18-0.43,0.36-0.64,0.54c-1.2,1.01-2.47,1.98-3.83,2.88c0.57,1.04,1.13,2.09,1.67,3.14c0.02,0.03,0.04,0.07,0.05,0.1
		c0.58,1.12,1.14,2.25,1.68,3.38C149.76,111.27,150,111.76,150.22,112.25z M160.48,119.48c-0.46-1.18-0.96-2.36-1.49-3.53
		c-0.63-1.42-1.3-2.84-2.01-4.25c-0.44,0.38-0.88,0.76-1.34,1.13c-1.23,1-2.53,1.97-3.89,2.88c0.33,0.78,0.65,1.57,0.96,2.35
		c0.77,1.93,1.48,3.85,2.12,5.76c0.71-0.47,1.39-0.96,2.07-1.46C158.15,121.44,159.35,120.48,160.48,119.48z M153.23,100.65
		c0.99,1.45,1.94,2.9,2.84,4.37c0.34,0.56,0.68,1.11,1.01,1.67c1.44-1.43,2.75-2.92,3.91-4.49l0,0c-0.2-0.29-0.4-0.57-0.6-0.85
		c-0.66-0.94-1.33-1.87-2.03-2.8c-0.85-1.12-1.73-2.23-2.65-3.33c-0.48,0.65-1,1.29-1.54,1.92c-0.29,0.33-0.58,0.67-0.89,0.99
		c-0.34,0.36-0.69,0.73-1.04,1.08c0.31,0.43,0.61,0.87,0.9,1.3C153.16,100.56,153.2,100.61,153.23,100.65z M104.46,52.38
		c-0.99,0.27-1.95,0.59-2.86,0.95c1.46,1.08,2.96,2.35,4.5,3.84c0.55-0.22,1.13-0.41,1.72-0.57c-0.4-0.56-0.79-1.08-1.18-1.59
		c-0.54-0.71-1.08-1.37-1.61-1.98C104.84,52.81,104.65,52.59,104.46,52.38z M155.73,155.61c0.21-1.31,0.35-2.7,0.43-4.16
		c0.02-0.31,0.04-0.61,0.05-0.93c-2.34,1.4-4.81,2.68-7.41,3.85c-0.07,2.28-0.27,4.38-0.59,6.28c0.14-0.06,0.27-0.12,0.4-0.19
		c1.68-0.76,3.31-1.58,4.88-2.45c0.68-0.38,1.36-0.76,2.02-1.16C155.59,156.45,155.66,156.03,155.73,155.61z M158.26,155.13
		c2.19-1.47,4.24-3.04,6.14-4.71c0-0.02,0.01-0.04,0.01-0.05c0.35-1.56,0.6-3.22,0.74-4.97c0.04-0.47,0.07-0.94,0.09-1.41
		c-1.92,1.69-4,3.29-6.23,4.78C158.91,151.05,158.66,153.17,158.26,155.13z M147.57,168.23c-0.75,0.37-1.52,0.74-2.3,1.09
		c-0.32,0.53-0.66,1.02-1.02,1.47c-0.46,0.59-0.95,1.12-1.47,1.59c0.26-0.11,0.5-0.23,0.76-0.35c0.04-0.02,0.08-0.04,0.12-0.06
		c1.32-0.62,2.61-1.27,3.85-1.96c0.51-0.28,1-0.57,1.5-0.86c0.81-0.67,1.55-1.44,2.23-2.31c0.26-0.33,0.51-0.66,0.75-1.01
		C150.57,166.67,149.09,167.47,147.57,168.23z M162.82,155.26c0.33-0.77,0.64-1.56,0.9-2.38c-1.8,1.58-3.74,3.07-5.81,4.47
		c-0.09,0.06-0.17,0.12-0.25,0.18c-0.08,0.27-0.17,0.53-0.26,0.8c-0.17,0.51-0.34,1.01-0.54,1.49c-0.2,0.51-0.41,1-0.64,1.48
		c-0.19,0.4-0.39,0.78-0.6,1.16c1.73-1.16,3.35-2.38,4.89-3.67c0.31-0.26,0.61-0.51,0.91-0.77
		C161.94,157.14,162.4,156.22,162.82,155.26z M150.28,165.64c0.94-0.5,1.86-1.01,2.75-1.55c0.77-1.44,1.41-3.06,1.91-4.85
		c-0.01,0.01-0.03,0.02-0.05,0.03c-2.25,1.34-4.63,2.58-7.13,3.7c-0.01,0-0.02,0.01-0.03,0.01c-0.1,0.43-0.21,0.85-0.33,1.26
		c-0.31,1.09-0.68,2.08-1.08,3.01c-0.06,0.14-0.12,0.28-0.18,0.41c0.48-0.22,0.96-0.44,1.44-0.67
		C148.5,166.56,149.4,166.11,150.28,165.64z M95.58,176.71c0.24,0.05,0.47,0.11,0.71,0.16c-0.07-0.1-0.13-0.22-0.2-0.33
		c-0.26-0.44-0.51-0.95-0.74-1.54c-0.1-0.26-0.2-0.54-0.3-0.84c-1.08-0.23-2.13-0.48-3.19-0.75c-1.64-0.42-3.25-0.87-4.81-1.38
		c0.04,0.09,0.08,0.16,0.12,0.24c0.11,0.23,0.22,0.45,0.34,0.66c0.2,0.37,0.42,0.71,0.64,1.03c0.23,0.33,0.47,0.65,0.72,0.93
		c1.35,0.44,2.72,0.83,4.12,1.2C93.85,176.31,94.71,176.52,95.58,176.71z M136.64,171.15c1.54-0.45,3.05-0.94,4.53-1.48
		c0.66-0.24,1.32-0.49,1.97-0.74c0.02-0.06,0.05-0.12,0.07-0.17c0.15-0.37,0.3-0.75,0.44-1.14c0.03-0.09,0.06-0.19,0.1-0.28
		c0.32-0.94,0.61-1.94,0.85-3.03c-0.55,0.22-1.11,0.43-1.67,0.63c-2.11,0.78-4.28,1.47-6.51,2.09c-0.04,0.21-0.08,0.42-0.12,0.62
		c-0.07,0.35-0.13,0.69-0.21,1.02c-0.2,0.93-0.43,1.78-0.68,2.57c-0.03,0.1-0.06,0.2-0.09,0.29c0.24-0.06,0.47-0.14,0.7-0.2
		C136.23,171.27,136.44,171.21,136.64,171.15z M178.89,119.89c0.39-1.51,0.69-3.05,0.88-4.62c-0.05-1.45-0.2-2.89-0.43-4.32
		c-0.14-0.88-0.31-1.76-0.51-2.63c-0.27,2.27-0.76,4.49-1.47,6.65c0.53,2.34,0.84,4.69,0.93,7.05
		C178.51,121.32,178.71,120.61,178.89,119.89z M128.13,173.15c1.3-0.23,2.58-0.49,3.85-0.78c0.06-0.22,0.13-0.45,0.19-0.69
		c0.09-0.34,0.17-0.69,0.25-1.05c0.16-0.7,0.3-1.45,0.43-2.24c0.03-0.17,0.06-0.32,0.08-0.49c-1.39,0.32-2.81,0.6-4.24,0.86
		c-0.46,0.08-0.92,0.15-1.38,0.23c-0.54,0.09-1.08,0.17-1.62,0.25c-0.56,0.08-1.12,0.16-1.69,0.23c-0.04,0.44-0.08,0.87-0.13,1.28
		c-0.11,1.02-0.24,1.94-0.38,2.78c-0.02,0.11-0.04,0.23-0.05,0.34c0.93-0.11,1.85-0.25,2.77-0.39
		C126.86,173.37,127.5,173.27,128.13,173.15z M165.06,137.78c-0.07-0.78-0.16-1.56-0.26-2.35c-0.08-0.59-0.17-1.19-0.27-1.78
		c-1.64,1.44-3.4,2.8-5.26,4.1c-0.29,0.2-0.58,0.41-0.88,0.61c0.37,2.53,0.59,5.01,0.64,7.4c0.54-0.36,1.08-0.73,1.6-1.11
		c1.63-1.16,3.17-2.39,4.63-3.67C165.23,139.93,165.16,138.86,165.06,137.78z M176.42,117.74c-0.01-0.05-0.02-0.11-0.03-0.16
		c-0.65,1.58-1.42,3.12-2.3,4.63c-0.3,0.51-0.6,1.01-0.92,1.51c0.49,2.41,0.79,4.81,0.86,7.18c0.38-0.59,0.74-1.19,1.09-1.8
		c0.82-1.44,1.56-2.92,2.18-4.43c-0.05-1.39-0.18-2.78-0.39-4.18C176.78,119.58,176.62,118.66,176.42,117.74z M173.21,119.36
		c0.92-1.55,1.72-3.15,2.4-4.78c-0.36-1.2-0.77-2.4-1.24-3.59c-0.35-0.91-0.75-1.82-1.16-2.72c-0.1-0.23-0.2-0.45-0.31-0.68
		c-0.76,1.83-1.69,3.61-2.76,5.33c-0.09,0.15-0.18,0.31-0.28,0.46c1.04,2.41,1.9,4.83,2.57,7.25
		C172.7,120.22,172.96,119.79,173.21,119.36z M177.1,110.17c0.41-1.55,0.72-3.12,0.91-4.73c-0.43-1.31-0.93-2.61-1.5-3.89
		c-0.39-0.88-0.81-1.76-1.27-2.63c-0.01-0.02-0.02-0.04-0.03-0.06c-0.2,1.66-0.52,3.29-0.97,4.89c-0.13,0.47-0.27,0.94-0.42,1.4
		c1.12,2.26,2.04,4.55,2.75,6.87C176.76,111.4,176.94,110.79,177.1,110.17z M173.04,140.48c0.32-0.49,0.62-0.99,0.92-1.5
		c0.88-1.51,1.65-3.05,2.3-4.64c0.39-1.48,0.67-3.02,0.84-4.6c0.08-0.69,0.14-1.38,0.18-2.08c-0.89,2.14-1.98,4.22-3.27,6.23
		C173.9,136.2,173.57,138.4,173.04,140.48z M166.63,148.34c0.35-0.34,0.69-0.7,1.02-1.05c1.36-1.42,2.61-2.9,3.75-4.43
		c0.38-1.52,0.65-3.1,0.81-4.75c0.06-0.59,0.1-1.19,0.13-1.8c-1.44,1.94-3.06,3.8-4.84,5.56
		C167.4,144.17,167.1,146.32,166.63,148.34z M166.8,127.68c1.46-1.5,2.8-3.07,4.01-4.69c-0.23-0.87-0.49-1.74-0.77-2.61
		c-0.29-0.9-0.59-1.8-0.93-2.7c-0.25-0.68-0.52-1.36-0.8-2.04c-1.34,1.8-2.84,3.53-4.51,5.18c0.31,0.86,0.6,1.72,0.88,2.57
		c0.54,1.68,1.02,3.35,1.41,5.01C166.34,128.16,166.57,127.92,166.8,127.68z M172.07,129.51c-0.1-0.86-0.24-1.73-0.4-2.6
		c-0.05-0.27-0.09-0.54-0.15-0.81c-1.13,1.53-2.39,3-3.74,4.43c-0.34,0.35-0.68,0.71-1.03,1.06c0.44,2.48,0.7,4.92,0.77,7.3
		c0.48-0.48,0.95-0.96,1.41-1.45c1.24-1.33,2.39-2.7,3.44-4.11C172.33,132.05,172.23,130.78,172.07,129.51z M133.37,163.76
		c0.04-0.54,0.07-1.09,0.1-1.66c0.01-0.28,0.03-0.56,0.04-0.85c0.02-0.59,0.05-1.2,0.06-1.82c-2.53,0.58-5.13,1.05-7.79,1.41
		c-0.46,0.06-0.93,0.13-1.4,0.19c-0.02,1-0.04,1.96-0.07,2.88c-0.02,0.45-0.03,0.89-0.05,1.32c-0.01,0.21-0.02,0.43-0.03,0.64
		c-0.02,0.46-0.05,0.91-0.08,1.35c0.98-0.12,1.96-0.26,2.93-0.41c0.62-0.1,1.24-0.2,1.86-0.3c0.96-0.17,1.9-0.36,2.85-0.56
		c0.47-0.1,0.95-0.2,1.42-0.31C133.27,165.03,133.33,164.4,133.37,163.76z M106.73,162.16c0-0.21,0-0.41,0-0.62v-0.01
		c-0.32-0.02-0.63-0.05-0.95-0.07c-1.09-0.08-2.17-0.18-3.24-0.29c-1.81-0.2-3.6-0.44-5.36-0.73c0,0.14,0,0.28,0,0.42
		c0,0.51,0.01,1.01,0.01,1.49c0,0.21,0.01,0.41,0.01,0.62c0.01,0.54,0.03,1.07,0.05,1.58c0.01,0.23,0.01,0.46,0.02,0.68
		c0.02,0.48,0.04,0.94,0.07,1.39c0.3,0.05,0.6,0.09,0.9,0.14c0.48,0.07,0.96,0.15,1.44,0.22c0.99,0.14,1.98,0.26,2.98,0.36
		c0.34,0.04,0.69,0.07,1.03,0.11c0.39,0.04,0.79,0.07,1.18,0.11c0.62,0.05,1.24,0.1,1.87,0.14c-0.01-0.7-0.02-1.44-0.02-2.19
		c0-0.13,0-0.26,0-0.39c0-0.17,0-0.35,0-0.52c0-0.34,0-0.69,0-1.04c0-0.12,0-0.24,0-0.36c0-0.25,0-0.51,0-0.77
		C106.73,162.35,106.73,162.25,106.73,162.16z M107.86,126.43c-2.22-0.14-4.4-0.38-6.54-0.69c-0.39-0.06-0.79-0.12-1.18-0.18
		c-0.1-0.02-0.2-0.03-0.3-0.05c-0.21,1.59-0.41,3.16-0.6,4.72c-0.17,1.4-0.33,2.79-0.48,4.17c0.73,0.12,1.46,0.23,2.19,0.34
		c0.61,0.09,1.22,0.16,1.83,0.23c1.41,0.17,2.84,0.3,4.28,0.4c0.12,0.01,0.24,0.02,0.36,0.03
		C107.56,132.46,107.71,129.46,107.86,126.43z M121.3,112.96c0.13,1.08,0.25,2.16,0.37,3.23c0.13,1.13,0.25,2.26,0.37,3.38
		c0,0,0,0.01,0,0.02c0.09,0.85,0.19,1.71,0.27,2.56c0.57-0.07,1.13-0.15,1.69-0.23c1.33-0.19,2.64-0.42,3.92-0.68
		c0.6-0.12,1.2-0.25,1.79-0.38c-0.19-1.01-0.39-2.03-0.59-3.04c-0.28-1.44-0.58-2.87-0.89-4.31c-0.12-0.56-0.23-1.13-0.36-1.69
		c-0.58,0.13-1.16,0.26-1.75,0.37C124.56,112.5,122.94,112.76,121.3,112.96z M107.46,178.39c-0.03-0.16-0.06-0.34-0.1-0.54
		c-0.09-0.57-0.17-1.25-0.24-2.04c-0.54-0.03-1.07-0.08-1.6-0.12c-0.59-0.05-1.17-0.1-1.75-0.16c-1.53-0.16-3.04-0.35-4.53-0.59
		c-0.26-0.04-0.52-0.08-0.78-0.12c0.05,0.18,0.1,0.35,0.15,0.52c0.09,0.31,0.19,0.61,0.28,0.88c0.15,0.42,0.31,0.79,0.48,1.11
		c0.02,0.05,0.05,0.1,0.07,0.14c0.5,0.08,1.01,0.16,1.51,0.23C103.08,178.01,105.25,178.25,107.46,178.39z M106.77,156.95
		c0-0.33,0.01-0.67,0.02-1.01c0-0.17,0.01-0.34,0.01-0.51c0.01-0.51,0.02-1.02,0.03-1.53c0.02-0.97,0.04-1.95,0.07-2.95
		c-0.78-0.05-1.56-0.11-2.33-0.18c-0.85-0.08-1.69-0.16-2.53-0.26c-0.41-0.05-0.81-0.1-1.21-0.16c-0.49-0.06-0.99-0.13-1.48-0.2
		c-0.62-0.09-1.25-0.18-1.86-0.29c0,0.05,0,0.1-0.01,0.15c0,0.09-0.01,0.18-0.01,0.27c-0.01,0.25-0.03,0.5-0.04,0.75
		c-0.04,0.74-0.07,1.47-0.1,2.19c-0.01,0.27-0.02,0.53-0.03,0.8c-0.02,0.6-0.04,1.2-0.06,1.78c-0.01,0.23-0.01,0.45-0.01,0.68
		c-0.01,0.32-0.02,0.63-0.02,0.95c0.42,0.07,0.84,0.13,1.25,0.19c1.36,0.21,2.73,0.39,4.11,0.54c0.08,0.01,0.15,0.02,0.23,0.02
		c0.66,0.07,1.32,0.14,1.99,0.19c0.65,0.06,1.31,0.11,1.96,0.15c0-0.07,0-0.15,0-0.22c0-0.09,0-0.18,0-0.27
		c0-0.25,0.01-0.5,0.01-0.75C106.77,157.18,106.77,157.07,106.77,156.95z M95.53,132.66c0.06-0.42,0.12-0.85,0.18-1.28
		c0.21-1.44,0.42-2.89,0.65-4.36c0.11-0.71,0.22-1.41,0.33-2.11c-1.75-0.37-3.46-0.8-5.13-1.28c-0.77-0.22-1.53-0.45-2.27-0.69
		c-0.05,0.21-0.1,0.43-0.15,0.64c-0.59,2.48-1.14,4.93-1.62,7.35c-0.05,0.23-0.09,0.46-0.14,0.69c1.52,0.49,3.07,0.94,4.65,1.34
		c0.63,0.16,1.27,0.32,1.92,0.47c0.47,0.11,0.95,0.22,1.43,0.32C95.42,133.39,95.48,133.02,95.53,132.66z M98.07,117.16
		c0.01-0.06,0.02-0.12,0.03-0.19c0.26-1.4,0.54-2.8,0.83-4.2c0.05-0.25,0.1-0.5,0.15-0.75c-0.76-0.16-1.51-0.34-2.26-0.53
		c-1.02-0.26-2.03-0.53-3.01-0.83c-0.35-0.11-0.71-0.21-1.06-0.33c-0.45,1.47-0.88,2.94-1.3,4.41c-0.42,1.49-0.83,2.97-1.22,4.46
		c0.08,0.02,0.15,0.05,0.23,0.07c1.96,0.63,3.99,1.18,6.08,1.64c0.27,0.06,0.53,0.12,0.8,0.18
		C97.58,119.78,97.82,118.47,98.07,117.16z M106.98,147.53c0.06-1.96,0.13-3.98,0.2-6.02c0.03-0.79,0.06-1.59,0.09-2.4
		c-1.65-0.11-3.28-0.26-4.89-0.45c-1.34-0.16-2.68-0.35-3.99-0.57c-0.01,0.12-0.02,0.23-0.03,0.34c-0.2,2.1-0.38,4.17-0.53,6.19
		c-0.02,0.31-0.05,0.62-0.07,0.93c-0.02,0.3-0.05,0.61-0.07,0.91c0.31,0.05,0.62,0.1,0.94,0.14c1.12,0.18,2.24,0.33,3.38,0.47
		c0.4,0.05,0.8,0.09,1.21,0.13c0.89,0.09,1.79,0.17,2.69,0.24c0.34,0.03,0.68,0.06,1.02,0.08
		C106.95,147.52,106.97,147.53,106.98,147.53z M100.88,173.72c0.49,0.07,0.98,0.13,1.47,0.19c1.53,0.18,3.09,0.32,4.66,0.42
		c-0.02-0.35-0.04-0.71-0.06-1.09c0-0.01,0-0.02,0-0.03c-0.04-0.66-0.07-1.37-0.09-2.13c-0.01-0.36-0.03-0.74-0.04-1.12
		c-0.62-0.04-1.24-0.09-1.85-0.14c-0.37-0.03-0.73-0.06-1.1-0.1c-1-0.1-2-0.21-2.99-0.34c-0.46-0.06-0.92-0.12-1.38-0.19
		c-0.66-0.1-1.32-0.19-1.97-0.3c0.03,0.38,0.07,0.74,0.11,1.09c0.09,0.84,0.2,1.62,0.31,2.34c0.06,0.34,0.11,0.67,0.18,0.99
		c0.34,0.06,0.69,0.11,1.03,0.16C99.73,173.56,100.3,173.64,100.88,173.72z M116.84,161.64c-0.21,0.01-0.42,0.02-0.63,0.03
		c-0.36,0.01-0.73,0.02-1.09,0.03c-0.11,0-0.22,0-0.33,0.01c-0.22,0-0.43,0.01-0.65,0.01c-0.07,0-0.14,0-0.21,0
		c-0.15,0-0.3,0.01-0.45,0.01c-0.05,0-0.11,0-0.16,0c-0.12,0-0.24,0-0.36,0c-0.05,0-0.09,0-0.14,0c-0.11,0-0.21,0-0.32,0
		c-0.04,0-0.08,0-0.13,0c-0.1,0-0.21,0-0.31,0c-0.04,0-0.08,0-0.13,0c-0.1,0-0.21,0-0.31,0c-0.04,0-0.09,0-0.13,0
		c-0.11,0-0.22,0-0.34,0c-0.05,0-0.1,0-0.15,0c-0.03,0-0.06,0-0.09,0c-0.06,0-0.12,0-0.18,0c0,0.12,0,0.23,0,0.35
		c0,0.09,0,0.18,0,0.27c0,0.38,0,0.76-0.01,1.12c0,0.28,0,0.54,0,0.82c0,0.81-0.01,1.59-0.01,2.34c0,0.43,0,0.86,0,1.28
		c0.06,0,0.12,0,0.18,0c2.99,0.06,5.93-0.03,8.82-0.24c0.21-0.02,0.42-0.03,0.63-0.04c0.01-0.15,0.01-0.31,0.02-0.46
		c0.05-1.17,0.09-2.42,0.12-3.75c0-0.16,0.01-0.32,0.01-0.48c0-0.13,0-0.26,0.01-0.39c0.01-0.3,0.01-0.59,0.02-0.9
		c0-0.07,0-0.13,0-0.2c-0.35,0.03-0.71,0.05-1.07,0.07C118.59,161.55,117.72,161.6,116.84,161.64z M120.54,156.47
		c-0.01-1.79-0.03-3.63-0.06-5.54c0-0.03,0-0.06,0-0.09c-0.38,0.03-0.77,0.05-1.16,0.08c-2.72,0.18-5.49,0.26-8.3,0.2
		c-0.06,0-0.12,0-0.18,0c-0.01,1.23-0.03,2.43-0.04,3.61c-0.01,0.86-0.02,1.7-0.03,2.53c0,0.16,0,0.32,0,0.49
		c0,0.25,0,0.51-0.01,0.76c0,0.07,0,0.14,0,0.21c0.05,0,0.11,0,0.16,0c0,0,0.02,0,0.02,0c0.11,0,0.22,0,0.34,0c0.05,0,0.09,0,0.14,0
		c0.11,0,0.21,0,0.32,0c0.04,0,0.08,0,0.13,0c0.1,0,0.21,0,0.31,0c0.04,0,0.09,0,0.13,0c0.1,0,0.21,0,0.31,0c0.04,0,0.09,0,0.13,0
		c0.11,0,0.22,0,0.34,0c0.05,0,0.1,0,0.15,0c0.13,0,0.27,0,0.4,0c0.06,0,0.12,0,0.19,0c0.18,0,0.35-0.01,0.53-0.01
		c0.09,0,0.17,0,0.26,0c0.27,0,0.54-0.01,0.81-0.01c0.15,0,0.29,0,0.44-0.01c0.54-0.02,1.08-0.04,1.62-0.07
		c0.34-0.02,0.68-0.03,1.02-0.05c0.69-0.04,1.37-0.08,2.06-0.14c0-0.17,0-0.34,0-0.5c0-0.13,0-0.26,0-0.4
		C120.54,157.18,120.54,156.82,120.54,156.47z M101.16,116.36c-0.27,1.77-0.54,3.54-0.79,5.3c1.55,0.26,3.12,0.47,4.72,0.63
		c0.79,0.08,1.58,0.15,2.37,0.21c0.2,0.01,0.4,0.03,0.61,0.05c0.13-2.32,0.27-4.66,0.41-7c0.05-0.74,0.09-1.48,0.14-2.23
		c-2.34-0.15-4.62-0.41-6.85-0.79C101.56,113.81,101.36,115.09,101.16,116.36z M126.97,107.98c0.02,0,0.03-0.01,0.05-0.01
		c-0.01-0.04-0.02-0.07-0.03-0.11c-0.66-2.83-1.36-5.64-2.1-8.42c-0.04-0.15-0.08-0.3-0.11-0.45c-0.38,0.09-0.77,0.17-1.16,0.25
		c-1.33,0.27-2.68,0.49-4.06,0.66c0.13,0.93,0.26,1.86,0.39,2.79c0.3,2.11,0.58,4.23,0.86,6.36c1.04-0.13,2.08-0.28,3.09-0.46
		C124.95,108.42,125.97,108.21,126.97,107.98z M104.1,99.56c-0.37,1.91-0.73,3.83-1.08,5.76c-0.02,0.1-0.03,0.19-0.05,0.29
		c-0.18,1.01-0.37,2.02-0.54,3.04c0.32,0.05,0.65,0.1,0.97,0.15c0.97,0.15,1.96,0.27,2.96,0.38c0.83,0.09,1.67,0.16,2.52,0.22
		c0.01-0.17,0.02-0.33,0.03-0.5c0.03-0.42,0.06-0.84,0.09-1.26c0.12-1.78,0.25-3.55,0.38-5.32c0.05-0.71,0.1-1.42,0.15-2.13
		c-1.03-0.07-2.04-0.16-3.05-0.28C105.68,99.81,104.89,99.69,104.1,99.56z M110.88,83.78c0-0.01,0-0.03,0-0.04
		c0.2-2.2,0.4-4.36,0.61-6.47c0.06-0.6,0.12-1.2,0.18-1.79c-0.67-0.04-1.32-0.12-1.96-0.22c-0.18,0.68-0.37,1.36-0.55,2.06
		c-0.52,1.98-1.04,4.02-1.54,6.1c1.05,0.18,2.13,0.3,3.23,0.37C110.86,83.78,110.87,83.78,110.88,83.78z M106.77,87
		c-0.2,0.86-0.39,1.73-0.59,2.6c-0.28,1.28-0.57,2.57-0.84,3.87c-0.16,0.76-0.32,1.53-0.48,2.3c0.2,0.03,0.41,0.06,0.61,0.09
		c0.28,0.04,0.56,0.09,0.85,0.12c1.15,0.16,2.31,0.28,3.5,0.35c0.18-2.33,0.37-4.64,0.56-6.91c0.06-0.67,0.11-1.33,0.17-1.99
		c-0.62-0.04-1.24-0.1-1.86-0.17C108.05,87.2,107.41,87.11,106.77,87z M131.47,173.9c-0.32,0.07-0.64,0.14-0.97,0.21
		c-0.73,0.16-1.47,0.31-2.21,0.44c-1.6,0.3-3.23,0.56-4.88,0.76c-0.09,0.01-0.18,0.03-0.28,0.04c-0.11,0.47-0.23,0.9-0.35,1.29
		c-0.04,0.13-0.08,0.25-0.12,0.37c-0.12,0.35-0.25,0.68-0.38,0.96c0.25-0.03,0.5-0.07,0.74-0.1c0.42-0.06,0.85-0.11,1.27-0.17
		c0.8-0.12,1.58-0.25,2.36-0.39c1.12-0.2,2.24-0.43,3.33-0.68c0.22-0.29,0.43-0.61,0.63-0.97c0.26-0.45,0.51-0.96,0.73-1.53
		C131.4,174.05,131.43,173.98,131.47,173.9z M132.18,176.68c-0.1,0.08-0.2,0.15-0.29,0.22c-0.32,0.22-0.65,0.41-0.99,0.55
		c2.22-0.63,4.43-1.38,6.62-2.26c0.18-0.07,0.36-0.15,0.55-0.22c0.18-0.09,0.36-0.19,0.53-0.3c0.1-0.06,0.19-0.12,0.29-0.19
		c0.03-0.02,0.05-0.03,0.08-0.05c-1.67,0.66-3.4,1.26-5.17,1.79C133.26,176.38,132.72,176.53,132.18,176.68z M140.91,173.72
		c0.53-0.25,1.06-0.5,1.58-0.76c1.05-0.52,2.09-1.07,3.1-1.64c-1.3,0.71-2.64,1.38-4.04,2.01
		C141.35,173.47,141.13,173.6,140.91,173.72z M139.28,174.45c0.24-0.1,0.47-0.21,0.7-0.31c-0.27,0.12-0.54,0.24-0.82,0.36
		C139.21,174.48,139.25,174.47,139.28,174.45z M154.52,164.23c-0.11,0.16-0.23,0.3-0.34,0.45c-0.32,0.43-0.66,0.84-1.01,1.23
		c-0.57,0.64-1.18,1.22-1.82,1.75c0.36-0.24,0.71-0.5,1.06-0.74c0.28-0.19,0.54-0.39,0.81-0.59c1.65-1.24,3.23-2.55,4.73-3.92
		c0.19-0.18,0.37-0.36,0.55-0.55c0.09-0.09,0.18-0.18,0.27-0.28c0.49-0.53,0.95-1.09,1.39-1.68c-0.56,0.5-1.15,0.98-1.74,1.46
		C157.19,162.35,155.89,163.31,154.52,164.23z M76.02,168.82c-0.34-0.35-0.66-0.72-0.97-1.12c-0.1-0.12-0.2-0.24-0.29-0.37
		c-0.23-0.32-0.46-0.64-0.68-0.99c-0.37-0.21-0.73-0.43-1.09-0.65c-1.77-1.06-3.46-2.18-5.06-3.38c0.71,1.02,1.49,1.94,2.35,2.77
		c0.24,0.23,0.48,0.45,0.73,0.66c0.28,0.22,0.56,0.43,0.85,0.64c0.6,0.44,1.22,0.86,1.85,1.28c1.02,0.68,2.07,1.33,3.16,1.95
		C76.58,169.38,76.3,169.1,76.02,168.82z M107.63,179.1c-1.6-0.1-3.18-0.26-4.74-0.46c-0.82-0.1-1.64-0.22-2.45-0.35
		c-0.17-0.03-0.34-0.05-0.51-0.08c0.06,0.08,0.13,0.14,0.19,0.21c0.25,0.26,0.51,0.45,0.78,0.57c1.73,0.3,3.48,0.54,5.24,0.71
		c0.62,0.05,1.25,0.1,1.89,0.14c-0.02-0.01-0.04-0.02-0.05-0.03C107.85,179.69,107.74,179.46,107.63,179.1z M111.16,179.25
		c-0.05,0-0.1,0-0.14,0c-0.05,0-0.1,0-0.15,0c0.03,0.41,0.06,0.64,0.1,0.73c0,0,0,0.01,0.01,0.01c2.36,0.06,4.72-0.01,7.09-0.21
		c0.24-0.08,0.48-0.33,0.69-0.76c-0.58,0.05-1.17,0.09-1.76,0.12C115.07,179.24,113.13,179.28,111.16,179.25z M160.99,159.46
		c0.01-0.01,0.02-0.03,0.04-0.04C161.02,159.44,161,159.45,160.99,159.46L160.99,159.46z M125.38,178.18
		c-1.16,0.2-2.32,0.37-3.51,0.52c-0.22,0.32-0.46,0.54-0.7,0.68c-0.05,0.03-0.09,0.05-0.14,0.07c0,0-0.01,0-0.01,0
		c1.31-0.18,2.68-0.4,3.96-0.62c0.09-0.02,0.18-0.03,0.27-0.05c0.91-0.18,1.82-0.37,2.73-0.58c0.02-0.01,0.03-0.01,0.05-0.01
		c0.26-0.1,0.51-0.24,0.75-0.4c0.17-0.12,0.34-0.24,0.5-0.39c-0.43,0.1-0.87,0.19-1.31,0.28
		C127.12,177.87,126.26,178.03,125.38,178.18z M179.8,117.34c0.05-0.55,0.09-1.09,0.12-1.61c0-0.08,0.01-0.16,0.01-0.25
		c-0.05,0.72-0.12,1.48-0.19,2.27C179.76,117.62,179.78,117.48,179.8,117.34z M179.91,108.87c-0.04-0.52-0.08-1.05-0.14-1.6
		c-0.05-0.49-0.09-0.99-0.14-1.49c-0.05-0.44-0.09-0.87-0.14-1.3c-0.07-0.65-0.14-1.28-0.22-1.89c-0.17-1.16-0.38-2.32-0.61-3.47
		c-0.02-0.07-0.03-0.15-0.05-0.22c0.01,0.03,0.01,0.06,0.01,0.1c0.34,2.12,0.48,4.27,0.41,6.46c0.01,0.03,0.01,0.06,0.02,0.09
		c0.11,0.47,0.21,0.94,0.3,1.41c0.03,0.13,0.05,0.26,0.07,0.39c0.09,0.47,0.16,0.94,0.23,1.41c0.01,0.05,0.02,0.09,0.02,0.14
		c0.07,0.52,0.13,1.04,0.18,1.56c0.01,0.13,0.02,0.25,0.03,0.38c0.04,0.44,0.06,0.87,0.08,1.31c0,0.07,0.01,0.14,0.01,0.21
		c0.01-0.18,0-0.35,0.01-0.53c0-0.08,0-0.15,0-0.23C179.99,110.69,179.95,109.78,179.91,108.87z M161.26,159.17
		c-0.01,0.02-0.03,0.04-0.04,0.05c0.57-0.62,1.16-1.27,1.75-1.94c0.28-0.32,0.57-0.64,0.85-0.96c-0.51,0.56-1.04,1.12-1.59,1.66
		C161.92,158.39,161.59,158.78,161.26,159.17z M179.18,122.93c0.01-0.06,0.02-0.12,0.03-0.18c0.05-0.31,0.09-0.61,0.14-0.92
		c-0.03,0.2-0.07,0.4-0.1,0.61C179.22,122.6,179.2,122.76,179.18,122.93z M170.55,146.94c1.64-2.77,3.08-5.65,4.3-8.61
		c-0.75,1.62-1.61,3.2-2.6,4.74C171.78,144.42,171.2,145.71,170.55,146.94z M163.9,156.22c0.28-0.31,0.56-0.63,0.83-0.95
		c0.08-0.09,0.15-0.19,0.23-0.29c-0.37,0.43-0.75,0.88-1.15,1.33L163.9,156.22z M167.49,149.19c-0.28,0.31-0.57,0.61-0.86,0.91
		c-0.24,0.24-0.47,0.49-0.71,0.73c-0.41,1.25-0.91,2.43-1.48,3.55c-0.12,0.23-0.23,0.46-0.35,0.68c-0.18,0.33-0.36,0.66-0.56,0.99
		c1.65-1.64,3.15-3.36,4.48-5.15c0.01-0.02,0.02-0.03,0.03-0.05c0,0,0-0.01,0-0.01c0.94-1.52,1.73-3.16,2.38-4.89
		c0.07-0.18,0.14-0.35,0.2-0.53C169.67,146.71,168.62,147.97,167.49,149.19z M50.05,90.81c0.2-1.63,0.52-3.23,0.96-4.8
		c0.14-0.49,0.29-0.99,0.45-1.48c-0.73,1.2-1.38,2.44-1.95,3.72c-0.58,1.52-1.11,3.06-1.59,4.62c-0.34,1.37-0.61,2.75-0.78,4.16
		c0.24-0.66,0.5-1.32,0.77-1.97C48.54,93.61,49.24,92.19,50.05,90.81z M90.79,48.59c-0.66,0.22-1.31,0.46-1.97,0.7
		c0.09-0.02,0.17-0.05,0.26-0.07C89.64,49,90.21,48.79,90.79,48.59z M108.18,45.13c1.21-0.06,2.48-0.1,3.69-0.13
		C110.64,45,109.41,45.05,108.18,45.13z M86.22,50.45c0.18-0.08,0.36-0.17,0.54-0.25c-0.09,0.02-0.18,0.05-0.28,0.08
		c-0.15,0.04-0.3,0.09-0.44,0.14c-1.19,0.51-2.36,1.05-3.53,1.63c-1.1,0.55-2.18,1.12-3.24,1.72c0.69-0.32,1.41-0.59,2.16-0.8
		C82.95,52.05,84.55,51.21,86.22,50.45z M146.27,54.62c0.56,0.39,1.12,0.78,1.66,1.18c0.38,0.13,0.75,0.27,1.11,0.41
		c0.83,0.34,1.63,0.74,2.39,1.19c0.18,0.11,0.36,0.22,0.53,0.33c-2.28-1.64-4.65-3.13-7.09-4.46c-0.58-0.26-1.17-0.48-1.79-0.66
		c0.46,0.27,0.92,0.54,1.37,0.81C145.07,53.81,145.67,54.21,146.27,54.62z M61.79,156.93c-0.37-0.39-0.74-0.78-1.09-1.17
		c0.07,0.1,0.15,0.2,0.23,0.3c0.01,0.01,0.01,0.02,0.02,0.03c2.2,2.6,4.57,5.01,7.09,7.22c-0.86-0.84-1.66-1.76-2.37-2.77
		C64.29,159.38,62.99,158.18,61.79,156.93z M73.83,58.07c0.37-0.15,0.74-0.3,1.12-0.44c1.38-1.21,2.88-2.35,4.48-3.42
		c-0.63,0.19-1.24,0.43-1.84,0.68c-0.42,0.18-0.83,0.38-1.23,0.59c-1.39,0.88-2.74,1.8-4.05,2.77c-0.72,0.56-1.41,1.12-2.08,1.71
		c0.54-0.35,1.1-0.67,1.67-0.98C72.52,58.66,73.16,58.35,73.83,58.07z M174.37,86.98c0.04,0.14,0.08,0.28,0.12,0.42
		c0.05,0.08,0.09,0.16,0.13,0.23c0.45,0.78,0.86,1.57,1.24,2.38c0.52,1.09,0.98,2.21,1.37,3.35c0.01,0.03,0.02,0.06,0.04,0.1
		c-0.01-0.03-0.02-0.06-0.02-0.08c-1.09-3.68-2.51-7.32-4.27-10.88c-0.14-0.27-0.28-0.54-0.41-0.81c-0.07-0.12-0.13-0.24-0.2-0.35
		c0.43,0.93,0.81,1.87,1.15,2.83C173.83,85.1,174.12,86.03,174.37,86.98z M165.51,72.15c0.41,0.37,0.81,0.75,1.2,1.14
		c0.58,0.58,1.13,1.19,1.65,1.81c0.46,0.54,0.91,1.1,1.33,1.67c-0.24-0.44-0.5-0.87-0.76-1.29c-1.45-2.22-3.02-4.34-4.7-6.34
		c-0.03-0.03-0.06-0.07-0.09-0.1c-0.25-0.27-0.51-0.53-0.77-0.78c-0.39-0.38-0.79-0.76-1.2-1.12c0.55,0.7,1.08,1.42,1.57,2.15
		C164.39,70.23,164.98,71.18,165.51,72.15z M160.56,65.22c0.36,0.31,0.71,0.63,1.06,0.96c-1.05-1.11-2.13-2.19-3.25-3.22
		C159.13,63.7,159.87,64.45,160.56,65.22z M48.7,132.64c-0.2-1.31-0.34-2.65-0.39-4.02c-0.6-1.29-1.11-2.61-1.55-3.94
		c-0.28-0.85-0.54-1.7-0.76-2.57c0.05,1.52,0.22,3,0.47,4.45c0.38,1.77,0.83,3.53,1.36,5.29c0.01,0.02,0.01,0.03,0.02,0.05
		c0.12,0.33,0.24,0.66,0.37,0.99c0.05,0.12,0.09,0.24,0.14,0.35c0.27,0.69,0.55,1.37,0.87,2.05c-0.01-0.06-0.02-0.11-0.04-0.17
		C48.98,134.31,48.83,133.48,48.7,132.64z M57.8,75.44c0.17-0.16,0.34-0.33,0.51-0.49c0.01-0.02,0.02-0.04,0.03-0.07
		c0.66-1.57,1.46-3.09,2.37-4.57c0.12-0.19,0.23-0.39,0.36-0.59c-0.03,0.03-0.06,0.06-0.09,0.08c-1.39,1.21-2.65,2.54-3.77,3.97
		c-0.24,0.35-0.48,0.7-0.72,1.05c-0.99,1.61-1.85,3.27-2.57,4.97c0.23-0.3,0.46-0.6,0.7-0.89C55.58,77.69,56.65,76.53,57.8,75.44z
		 M55.8,148.05c-0.24-0.6-0.48-1.21-0.68-1.84c-0.71-0.9-1.38-1.82-2.01-2.75c-0.59-0.87-1.13-1.76-1.64-2.65
		c-0.08-0.13-0.16-0.26-0.23-0.39c0.26,0.76,0.55,1.5,0.87,2.23c1.35,2.7,2.86,5.28,4.51,7.72c0.31,0.43,0.63,0.85,0.96,1.27
		c-0.32-0.53-0.61-1.08-0.89-1.64C56.37,149.36,56.08,148.71,55.8,148.05z M49.89,137.73c0.04,0.11,0.09,0.21,0.13,0.32
		c-0.01-0.04-0.03-0.08-0.04-0.12C49.95,137.87,49.92,137.8,49.89,137.73z M53.21,80.24c-0.59,1.09-1.16,2.2-1.69,3.33
		c0.27-0.5,0.56-1,0.86-1.49C52.63,81.45,52.91,80.84,53.21,80.24z M175.06,90.06c-0.02-0.04-0.04-0.07-0.06-0.11
		c0.21,1.29,0.33,2.59,0.39,3.9c0.03,0.76,0.04,1.52,0.02,2.29c0.01,0.01,0.01,0.02,0.02,0.04c0.25,0.47,0.5,0.93,0.73,1.41
		c0.06,0.12,0.12,0.24,0.17,0.36c0.19,0.39,0.37,0.78,0.54,1.17c0.05,0.1,0.1,0.21,0.14,0.31c0.21,0.48,0.4,0.96,0.59,1.44
		c0.04,0.1,0.07,0.2,0.11,0.3c0.15,0.4,0.29,0.8,0.43,1.2c0.03,0.08,0.06,0.15,0.08,0.23c0.03-0.77,0.01-1.54-0.01-2.31
		c-0.05-1.4-0.18-2.8-0.41-4.17c-0.42-1.24-0.92-2.44-1.48-3.63C175.94,91.67,175.52,90.86,175.06,90.06z M83.29,53.47
		c-0.65,0.06-1.29,0.14-1.91,0.26c-0.18,0.12-0.35,0.24-0.53,0.37c-1.22,0.84-2.37,1.72-3.45,2.66c-0.08,0.07-0.16,0.13-0.23,0.2
		c1.49-0.38,3.07-0.64,4.71-0.78c0.33-0.03,0.66-0.06,0.99-0.08c0.31-0.27,0.62-0.53,0.94-0.79c0.82-0.67,1.69-1.31,2.6-1.92
		c-0.3-0.01-0.6-0.01-0.9-0.01C84.75,53.37,84.01,53.41,83.29,53.47z M77.77,70.95c-0.04,1.18,0.04,2.35,0.23,3.5
		c0.5-0.26,1.01-0.51,1.52-0.75c2.18-1.06,4.44-2.05,6.76-2.95c-0.05-0.28-0.08-0.56-0.11-0.83c-0.06-0.6-0.09-1.22-0.07-1.83
		c0-0.02,0-0.05,0-0.07c-2.89,0.81-5.67,1.77-8.34,2.85C77.77,70.89,77.77,70.92,77.77,70.95z M77.89,69.39
		c0.54-0.2,1.09-0.39,1.64-0.57c2.15-0.73,4.38-1.38,6.67-1.93c0.11-0.91,0.31-1.8,0.6-2.67c-2.44,0.35-4.79,0.82-7.07,1.4
		c-0.35,0.09-0.71,0.17-1.06,0.27C78.3,67.02,78.03,68.19,77.89,69.39z M79.18,64.51c0.22-0.05,0.45-0.1,0.68-0.15
		c2.35-0.52,4.8-0.93,7.33-1.2c0.29-0.7,0.65-1.39,1.05-2.05c0.08-0.14,0.16-0.27,0.25-0.41c-0.07,0-0.14,0-0.21,0.01
		c-0.64,0.01-1.27,0.03-1.89,0.05c-1.89,0.08-3.72,0.26-5.5,0.52C80.22,62.32,79.65,63.4,79.18,64.51z M70.15,65.57
		c-0.42,0.78-0.81,1.58-1.15,2.39c0.91-0.42,1.85-0.81,2.81-1.18c1.35-0.52,2.75-1.01,4.19-1.43c0.12-0.28,0.24-0.56,0.37-0.84
		c0.43-0.92,0.93-1.82,1.49-2.69c-0.18,0.04-0.35,0.08-0.52,0.12c-2.14,0.48-4.19,1.08-6.12,1.83
		C70.84,64.36,70.48,64.96,70.15,65.57z M94,50.67c-0.1,0.04-0.19,0.09-0.28,0.13c-1.25,0.57-2.44,1.19-3.57,1.86
		c0.9,0.15,1.82,0.36,2.76,0.62c0.86,0.24,1.74,0.52,2.64,0.85c0.93-0.55,1.91-1.06,2.94-1.52c-0.53-0.29-1.06-0.55-1.58-0.79
		c-0.8-0.38-1.59-0.7-2.36-0.96C94.37,50.79,94.18,50.72,94,50.67z M67.31,74.32c0.52-0.3,1.06-0.6,1.59-0.89
		c1.81-0.98,3.7-1.9,5.67-2.73c0.16-1.31,0.45-2.59,0.86-3.84c-2.12,0.7-4.15,1.52-6.09,2.42c-0.34,0.16-0.68,0.31-1.01,0.48
		C67.84,71.24,67.5,72.76,67.31,74.32z M84.28,57.14c-0.93,0.92-1.77,1.88-2.52,2.89c0.14-0.02,0.28-0.02,0.42-0.04
		c2.24-0.23,4.56-0.31,6.97-0.24c0.57-0.77,1.22-1.5,1.93-2.2c-0.78-0.1-1.54-0.18-2.3-0.24C87.24,57.17,85.73,57.11,84.28,57.14z
		 M100.04,48.52c-1.51,0.41-2.96,0.89-4.36,1.44c0.35,0.14,0.71,0.29,1.07,0.45c0.68,0.31,1.37,0.67,2.07,1.08
		c0.31,0.18,0.63,0.37,0.94,0.57c0.6-0.23,1.21-0.45,1.83-0.65c0.49-0.16,0.99-0.31,1.49-0.45c-0.5-0.49-0.99-0.92-1.48-1.31
		C101.08,49.22,100.56,48.84,100.04,48.52z M89.04,53.62c-0.11-0.02-0.23-0.04-0.34-0.05c-0.12,0.08-0.24,0.17-0.37,0.25
		c-1.02,0.7-1.98,1.44-2.87,2.22c1.15,0.02,2.32,0.11,3.52,0.24c0.98,0.11,1.98,0.25,2.99,0.43c0.09-0.08,0.19-0.15,0.28-0.23
		c0.69-0.58,1.41-1.14,2.19-1.66c-0.6-0.18-1.2-0.34-1.79-0.49c-1.02-0.26-2.02-0.46-3-0.62C89.45,53.68,89.24,53.65,89.04,53.62z
		 M77.27,117.7l0.01-0.02c-0.01-0.01-0.02-0.01-0.03-0.02c-0.95-0.54-1.87-1.11-2.77-1.69c-0.74-0.48-1.47-0.98-2.17-1.49
		c-0.24-0.17-0.49-0.35-0.72-0.52c-0.27,0.57-0.53,1.15-0.78,1.72c-0.22,0.5-0.44,1-0.65,1.5c-0.4,0.93-0.79,1.86-1.15,2.79
		c-0.26,0.65-0.51,1.31-0.75,1.96c1.12,0.84,2.29,1.64,3.5,2.42c0.05,0.03,0.1,0.07,0.16,0.1c0.81,0.52,1.64,1.02,2.49,1.51
		c0.24-0.78,0.5-1.57,0.76-2.36C75.8,121.63,76.51,119.66,77.27,117.7z M63.48,117.89c0.8,0.76,1.63,1.51,2.5,2.23
		c1.03-2.61,2.2-5.23,3.5-7.84c-0.05-0.04-0.1-0.09-0.15-0.13c-1.12-0.95-2.19-1.93-3.18-2.95c-0.43-0.44-0.86-0.89-1.26-1.34
		c-0.42,0.71-0.82,1.43-1.21,2.15c-0.96,1.77-1.86,3.55-2.66,5.33C61.79,116.21,62.62,117.06,63.48,117.89z M73.67,144.7
		c-0.15,1.45-0.26,2.88-0.32,4.28c-0.01,0.25-0.03,0.5-0.03,0.75c2.51,1.28,5.14,2.43,7.89,3.46c0-0.09,0.01-0.19,0.01-0.28
		c0.03-1.11,0.09-2.24,0.17-3.4c0.03-0.48,0.07-0.97,0.11-1.45c0.06-0.77,0.14-1.54,0.22-2.32c0-0.02,0-0.04,0.01-0.06
		c-0.08-0.03-0.15-0.06-0.23-0.09c-0.76-0.29-1.51-0.59-2.26-0.9c-1.19-0.49-2.36-1.01-3.5-1.55c-0.6-0.29-1.2-0.58-1.79-0.88
		c-0.03,0.2-0.05,0.41-0.07,0.61C73.81,143.48,73.74,144.09,73.67,144.7z M74.45,72.3c-2.56,1.19-5,2.5-7.29,3.93
		c0,0.04,0,0.08,0,0.12c-0.05,1.54,0.05,3.06,0.3,4.56c0.48-0.35,0.98-0.7,1.48-1.04c1.84-1.27,3.76-2.49,5.77-3.63
		c-0.1-0.61-0.17-1.23-0.22-1.86c-0.05-0.65-0.06-1.31-0.04-1.98C74.45,72.37,74.45,72.34,74.45,72.3z M84.41,129.95
		c0.21-0.92,0.43-1.85,0.65-2.78c0.42-1.73,0.87-3.48,1.36-5.24c-0.35-0.13-0.7-0.27-1.05-0.41c-1.93-0.76-3.79-1.59-5.57-2.5
		c-0.93,2.62-1.76,5.22-2.51,7.8c-0.06,0.19-0.11,0.39-0.17,0.58c2.27,1.16,4.66,2.21,7.16,3.14
		C84.32,130.35,84.37,130.15,84.41,129.95z M62.01,98.06c0.04,0.07,0.08,0.13,0.11,0.19c0.61,1.09,1.29,2.15,2.04,3.19
		c0.34,0.48,0.7,0.95,1.07,1.42c1.12-1.66,2.32-3.3,3.57-4.93c0.1-0.13,0.2-0.27,0.3-0.4c0.46-0.58,0.92-1.16,1.4-1.74
		c-1.09-1.37-2.05-2.8-2.86-4.27c-0.02,0.02-0.03,0.04-0.05,0.06c-1.98,2.08-3.83,4.23-5.53,6.42
		C62.04,98.03,62.02,98.04,62.01,98.06z M55.63,107.86c0.8,1.44,1.7,2.85,2.71,4.21c0.3,0.4,0.6,0.8,0.91,1.2
		c0.9-1.9,1.91-3.79,3.01-5.67c0.32-0.55,0.65-1.11,0.99-1.66c-1.02-1.29-1.94-2.63-2.77-4c-0.2-0.33-0.4-0.67-0.58-1
		c-1.46,2.09-2.78,4.22-3.96,6.38C55.84,107.49,55.73,107.68,55.63,107.86z M65.05,85.03c-1.69,1.45-3.29,2.96-4.79,4.51
		c-0.39,0.41-0.78,0.81-1.16,1.22c0.45,1.79,1.07,3.55,1.86,5.25c0.14-0.17,0.29-0.35,0.43-0.52c1.2-1.45,2.46-2.87,3.79-4.26
		c0.49-0.52,1-1.03,1.51-1.53c-0.38-0.81-0.71-1.64-1-2.48C65.46,86.5,65.24,85.77,65.05,85.03z M86.04,169.23
		c0.12,0.43,0.25,0.84,0.39,1.23c0.33,0.11,0.66,0.21,0.99,0.31c1.59,0.49,3.21,0.94,4.86,1.34c0.72,0.17,1.44,0.34,2.17,0.5
		c0.06,0.01,0.12,0.03,0.18,0.04c-0.01-0.03-0.01-0.07-0.02-0.1c-0.08-0.35-0.16-0.71-0.24-1.09c-0.08-0.38-0.14-0.77-0.21-1.18
		c-0.11-0.66-0.2-1.35-0.29-2.08c-1.12-0.24-2.23-0.5-3.33-0.78c-1.05-0.27-2.09-0.54-3.11-0.85c-0.72-0.21-1.43-0.43-2.14-0.66
		c0.04,0.24,0.09,0.47,0.13,0.7C85.6,167.54,85.8,168.42,86.04,169.23z M87.94,75.41c-1.69,1.01-3.33,2.07-4.94,3.16
		c-0.96,0.65-1.9,1.31-2.83,1.99c0.39,0.7,0.82,1.38,1.29,2.05c0.25,0.35,0.51,0.7,0.78,1.05c0.86-0.76,1.74-1.5,2.62-2.23
		c1.52-1.26,3.07-2.48,4.66-3.66c-0.52-0.66-0.99-1.34-1.39-2.04C88.06,75.63,88,75.52,87.94,75.41z M71.89,97.45
		c-1.27,1.66-2.48,3.34-3.63,5.03c-0.5,0.74-0.99,1.49-1.47,2.24c1.34,1.49,2.82,2.91,4.42,4.25c0.37-0.68,0.75-1.36,1.14-2.04
		c0.59-1.03,1.21-2.06,1.83-3.09c0.54-0.87,1.08-1.74,1.64-2.61c-0.82-0.69-1.6-1.4-2.35-2.13C72.93,98.56,72.4,98.01,71.89,97.45z
		 M83.24,84.85c0.86,0.96,1.81,1.87,2.84,2.73c0.93-1.07,1.87-2.12,2.83-3.16c1.04-1.13,2.11-2.24,3.2-3.32
		c0.11-0.11,0.22-0.23,0.33-0.34c-0.13-0.11-0.26-0.23-0.39-0.34c-0.64-0.56-1.23-1.14-1.78-1.75c-0.71,0.58-1.42,1.16-2.12,1.76
		C86.48,81.87,84.84,83.34,83.24,84.85z M79.59,75.17c-0.43,0.23-0.86,0.46-1.29,0.7c0.29,1.15,0.69,2.28,1.2,3.38
		c0.12-0.08,0.24-0.16,0.36-0.24c2.42-1.63,4.95-3.17,7.57-4.6c-0.39-0.84-0.69-1.7-0.91-2.58C84.13,72.86,81.82,73.98,79.59,75.17z
		 M77.99,98.01c0.45-0.64,0.9-1.28,1.36-1.92c1.34-1.86,2.75-3.69,4.2-5.48c-0.03-0.02-0.05-0.05-0.08-0.07
		c-0.83-0.7-1.61-1.43-2.34-2.19c-0.24-0.24-0.47-0.49-0.69-0.74c-0.78,0.8-1.54,1.61-2.3,2.42c-1.33,1.44-2.62,2.91-3.86,4.41
		c0.04,0.04,0.08,0.08,0.12,0.13c0.82,0.9,1.7,1.77,2.64,2.61C77.35,97.47,77.67,97.74,77.99,98.01z M104.74,57.78
		c0.23-0.12,0.46-0.23,0.69-0.33c-0.05-0.04-0.09-0.07-0.14-0.11c-1.39-1.16-2.74-2.17-4.07-3.06c-0.24-0.16-0.49-0.33-0.73-0.48
		c-0.89,0.4-1.73,0.83-2.53,1.31c0.46,0.2,0.91,0.41,1.38,0.64c1.49,0.72,3.02,1.55,4.57,2.49
		C104.17,58.07,104.45,57.92,104.74,57.78z M89.83,67.11c-0.03,0.78,0.03,1.55,0.15,2.3c0.5-0.17,1-0.33,1.51-0.49
		c1.45-0.46,2.92-0.89,4.41-1.29c1.06-0.28,2.13-0.55,3.21-0.8c-0.08-0.45-0.11-0.91-0.09-1.38c0-0.01,0-0.02,0-0.03
		c-3.15,0.39-6.21,0.94-9.19,1.63C89.83,67.07,89.83,67.09,89.83,67.11z M91.57,63.69c-0.38,0.03-0.76,0.06-1.14,0.09
		c-0.25,0.75-0.42,1.52-0.52,2.3c2.96-0.57,6.02-0.99,9.16-1.25c0.03-0.24,0.07-0.47,0.12-0.7c0.05-0.23,0.12-0.46,0.19-0.68
		C96.71,63.41,94.11,63.49,91.57,63.69z M91.73,61.01c-0.37,0.6-0.7,1.23-0.96,1.87c0.28-0.02,0.57-0.02,0.85-0.03
		c2.59-0.11,5.25-0.1,7.97,0.06c0.18-0.44,0.41-0.87,0.67-1.27c-2.87-0.47-5.66-0.76-8.37-0.88C91.83,60.84,91.78,60.93,91.73,61.01
		z M78.7,114.14c0.69-1.65,1.42-3.3,2.18-4.95c0.25-0.53,0.49-1.06,0.75-1.59c0.28-0.59,0.57-1.18,0.86-1.77
		c-0.51-0.29-1.01-0.59-1.51-0.9c-1.17-0.72-2.29-1.49-3.36-2.28c-0.82,1.36-1.61,2.72-2.37,4.1c-0.7,1.27-1.38,2.54-2.02,3.82
		c1.02,0.76,2.09,1.49,3.19,2.2c0.58,0.37,1.18,0.74,1.79,1.09C78.37,113.95,78.53,114.04,78.7,114.14z M97.01,55.7
		c-0.25,0.17-0.49,0.35-0.73,0.52c-0.49,0.35-0.96,0.72-1.4,1.1c1.01,0.24,2.03,0.53,3.06,0.84c0.96,0.29,1.93,0.61,2.91,0.97
		c0.4,0.14,0.8,0.28,1.2,0.44c0.39-0.35,0.82-0.67,1.28-0.98c-1.92-1.03-3.79-1.89-5.61-2.61C97.48,55.89,97.24,55.79,97.01,55.7z
		 M102.17,81.95c1.38-2.61,2.81-5.15,4.27-7.57c-0.26-0.1-0.52-0.21-0.78-0.32c-0.29-0.12-0.57-0.26-0.84-0.39
		c-0.07,0.08-0.14,0.17-0.2,0.26c-1.24,1.55-2.46,3.14-3.66,4.78c-0.5,0.68-0.99,1.37-1.48,2.06c0.52,0.26,1.06,0.51,1.61,0.74
		C101.45,81.67,101.81,81.82,102.17,81.95z M100.22,78.02c1.31-1.61,2.64-3.17,3.99-4.68c-0.49-0.28-0.96-0.58-1.39-0.91
		c-0.68,0.59-1.35,1.2-2.02,1.81c-0.12,0.11-0.24,0.22-0.35,0.33c-1.42,1.31-2.83,2.66-4.2,4.06c-0.03,0.03-0.06,0.06-0.09,0.09
		c0.72,0.54,1.49,1.05,2.31,1.51C99.04,79.48,99.63,78.75,100.22,78.02z M84.26,102.35c0.01-0.02,0.02-0.03,0.03-0.05
		c1.43-2.72,2.95-5.4,4.54-8.04c-0.61-0.35-1.21-0.71-1.79-1.09c-0.71-0.46-1.4-0.94-2.06-1.43c-0.71,0.95-1.41,1.92-2.1,2.89
		c-0.13,0.18-0.25,0.36-0.38,0.53c-0.8,1.14-1.58,2.3-2.34,3.46c-0.16,0.24-0.32,0.48-0.48,0.72c0.28,0.21,0.56,0.41,0.84,0.61
		C81.71,100.8,82.95,101.6,84.26,102.35z M92.99,87.77c1.02-1.51,2.07-3,3.14-4.46c-0.95-0.54-1.85-1.13-2.69-1.76
		c-0.39,0.42-0.78,0.86-1.16,1.29c-1.06,1.18-2.09,2.38-3.11,3.59c-0.6,0.72-1.2,1.45-1.79,2.19c0.2,0.15,0.41,0.3,0.62,0.45
		c0.92,0.65,1.89,1.28,2.9,1.86C91.59,89.86,92.29,88.81,92.99,87.77z M97.92,90.56c0.63-1.36,1.27-2.7,1.92-4.03
		c0.2-0.4,0.4-0.81,0.6-1.21c-1.09-0.41-2.13-0.87-3.12-1.37c-0.73,1.11-1.46,2.23-2.17,3.37c-0.92,1.46-1.81,2.94-2.69,4.44
		c0.31,0.16,0.62,0.31,0.94,0.46c1.02,0.48,2.07,0.93,3.16,1.34C97.01,92.55,97.46,91.55,97.92,90.56z M83.13,133.97
		c-0.75-0.29-1.49-0.58-2.22-0.89c-1.32-0.55-2.6-1.13-3.85-1.75c-0.29-0.14-0.59-0.28-0.88-0.43c-0.43,1.72-0.82,3.42-1.16,5.1
		c-0.12,0.62-0.24,1.23-0.35,1.84c-0.02,0.08-0.03,0.16-0.05,0.24c-0.05,0.29-0.11,0.58-0.16,0.87c0.42,0.21,0.85,0.42,1.27,0.62
		c0.38,0.18,0.75,0.36,1.13,0.54c1.53,0.71,3.11,1.38,4.73,2c0.18,0.07,0.36,0.14,0.54,0.21c0.1-0.75,0.22-1.51,0.33-2.28
		c0.3-1.94,0.65-3.91,1.05-5.92C83.39,134.08,83.26,134.02,83.13,133.97z M53.75,132.23c0.16-1.76,0.43-3.54,0.8-5.33
		c-0.79-1-1.53-2.02-2.22-3.05c-0.57-0.86-1.1-1.73-1.6-2.61c-0.04-0.07-0.08-0.14-0.12-0.21c-0.34,1.51-0.59,3.02-0.76,4.52
		c-0.1,0.88-0.18,1.75-0.22,2.62c1.14,2.06,2.47,4.05,3.99,5.96C53.64,133.5,53.69,132.86,53.75,132.23z M58.47,80.69
		c0.47-0.42,0.95-0.83,1.44-1.24c1.44-1.19,2.96-2.32,4.57-3.38c0.2-1.65,0.56-3.27,1.08-4.84c-1.74,1-3.38,2.09-4.91,3.27
		c-0.33,0.25-0.65,0.5-0.97,0.75C59.1,77.02,58.69,78.83,58.47,80.69z M51.44,91.05c-0.07,2.07,0.07,4.11,0.41,6.11
		c0.36-0.57,0.73-1.13,1.12-1.69c1.05-1.52,2.19-3,3.43-4.45c-0.19-1.14-0.3-2.3-0.35-3.47c-0.03-0.73-0.04-1.46-0.02-2.19
		c0-0.05,0-0.1,0-0.14c-1.71,1.8-3.24,3.7-4.58,5.67C51.45,90.95,51.45,91,51.44,91.05z M55.44,123.3c0.62-2.18,1.38-4.37,2.28-6.56
		c0.05-0.11,0.09-0.23,0.14-0.34c-0.35-0.44-0.69-0.88-1.01-1.33c-0.1-0.14-0.2-0.29-0.3-0.43c-0.61-0.85-1.18-1.72-1.71-2.6
		c-0.24-0.39-0.47-0.79-0.69-1.19c-0.9,1.94-1.67,3.88-2.31,5.84c-0.14,0.43-0.28,0.86-0.41,1.29c1.11,2,2.41,3.94,3.88,5.8
		C55.34,123.62,55.39,123.46,55.44,123.3z M54.42,143.66c-0.06-0.25-0.1-0.5-0.15-0.75c-0.15-0.74-0.28-1.49-0.38-2.26
		c-0.15-1.14-0.25-2.32-0.28-3.53c-0.88-1.11-1.69-2.25-2.45-3.41c-0.55-0.84-1.06-1.68-1.54-2.55c0.03,0.96,0.11,1.89,0.22,2.81
		c0.04,0.37,0.09,0.74,0.15,1.11c0.12,0.82,0.27,1.62,0.46,2.41c0.02,0.1,0.04,0.2,0.06,0.3c0.04,0.07,0.08,0.14,0.12,0.21
		c0.5,0.88,1.03,1.75,1.6,2.61C52.89,141.65,53.63,142.67,54.42,143.66z M53.02,82.2c-0.66,1.99-1.12,4.03-1.37,6.12
		c0.38-0.54,0.77-1.07,1.17-1.59c1.04-1.34,2.17-2.64,3.39-3.89c0.21-1.76,0.59-3.48,1.11-5.16c0.05-0.17,0.1-0.34,0.15-0.51
		C55.82,78.74,54.33,80.42,53.02,82.2z M58.29,83.12c-0.06,1.84,0.06,3.66,0.36,5.44c0.44-0.46,0.89-0.91,1.35-1.36
		c1.46-1.42,3.01-2.8,4.65-4.13c-0.15-0.91-0.25-1.82-0.29-2.75c-0.04-0.69-0.05-1.39-0.03-2.09c0-0.04,0-0.08,0-0.12
		c-2.17,1.52-4.19,3.15-6.04,4.87C58.29,83.02,58.29,83.07,58.29,83.12z M57.19,94.46c-0.11-0.37-0.22-0.75-0.31-1.13
		c-1.27,1.55-2.44,3.13-3.51,4.75c-0.34,0.52-0.68,1.05-1,1.57c0.51,2.02,1.21,3.99,2.1,5.9c0.18-0.32,0.36-0.63,0.55-0.95
		c1.14-1.97,2.41-3.91,3.81-5.81c-0.23-0.49-0.44-0.99-0.64-1.5C57.8,96.37,57.47,95.42,57.19,94.46z M61.01,144.68
		c-1.1-0.92-2.15-1.87-3.15-2.85c-0.77-0.75-1.52-1.52-2.23-2.31c-0.03-0.04-0.07-0.07-0.1-0.11c0.03,1.15,0.12,2.27,0.25,3.35
		c0.09,0.74,0.21,1.46,0.35,2.17c0.06,0.33,0.12,0.66,0.19,0.98c0.15,0.16,0.3,0.32,0.45,0.49c0.73,0.79,1.49,1.56,2.28,2.32
		c0.85,0.81,1.74,1.61,2.67,2.38c-0.11-0.52-0.2-1.05-0.29-1.59c-0.1-0.63-0.18-1.29-0.24-1.95
		C61.1,146.63,61.04,145.68,61.01,144.68z M75.6,165.43c0.1,0.24,0.2,0.48,0.31,0.7c2.23,1.13,4.57,2.16,7,3.09
		c0.11,0.04,0.23,0.09,0.34,0.13c-0.46-1.17-0.84-2.51-1.15-3.98c-0.04-0.21-0.09-0.41-0.13-0.63c-0.38-0.14-0.76-0.29-1.14-0.44
		c-1.25-0.49-2.47-1.01-3.67-1.55c-0.97-0.44-1.93-0.9-2.87-1.37c0.23,0.99,0.51,1.91,0.82,2.79
		C75.26,164.6,75.43,165.02,75.6,165.43z M73.47,156.05c0.09,1.04,0.21,2.03,0.36,2.98c0.59,0.3,1.19,0.59,1.8,0.88
		c1.92,0.91,3.92,1.76,5.97,2.53c-0.04-0.32-0.08-0.66-0.11-0.99c-0.1-0.92-0.17-1.88-0.22-2.88c-0.02-0.4-0.04-0.8-0.05-1.21
		c-0.01-0.39-0.02-0.78-0.03-1.18c-1.37-0.51-2.7-1.06-4.01-1.63c-1.13-0.49-2.23-1.02-3.31-1.56c-0.19-0.09-0.38-0.18-0.56-0.28
		c0.01,0.63,0.04,1.24,0.07,1.84C73.39,155.06,73.43,155.56,73.47,156.05z M85.21,172.94c-0.45-0.59-0.87-1.25-1.25-1.99
		c-0.6-0.22-1.19-0.46-1.78-0.7c-1.19-0.48-2.35-0.99-3.48-1.52c-0.64-0.3-1.27-0.61-1.89-0.92c0.04,0.07,0.09,0.14,0.13,0.2
		c0.57,0.92,1.21,1.73,1.91,2.44c0.18,0.18,0.36,0.36,0.55,0.53c0.37,0.19,0.75,0.37,1.14,0.56c1.76,0.85,3.59,1.64,5.49,2.35
		C85.73,173.61,85.47,173.29,85.21,172.94z M71.69,128.39c-0.3-0.18-0.58-0.37-0.88-0.55c-1.29-0.82-2.54-1.67-3.73-2.56
		c-0.13,0.39-0.24,0.78-0.37,1.16c-0.26,0.83-0.5,1.66-0.73,2.48c-0.39,1.39-0.73,2.78-1.03,4.15c0.52,0.39,1.04,0.77,1.58,1.14
		c0.96,0.67,1.96,1.33,2.98,1.96c0.67,0.41,1.34,0.82,2.03,1.21c0.12-0.63,0.24-1.26,0.38-1.9c0.15-0.74,0.32-1.48,0.49-2.23
		c0.04-0.16,0.08-0.33,0.12-0.49c0.13-0.53,0.26-1.07,0.39-1.61c0.15-0.58,0.3-1.17,0.46-1.76
		C72.81,129.07,72.25,128.74,71.69,128.39z M63.72,158.01c0.25,0.22,0.5,0.44,0.75,0.65c-0.52-0.92-0.98-1.91-1.39-2.95
		c-0.22-0.55-0.42-1.12-0.61-1.71c-0.05-0.15-0.1-0.29-0.14-0.43c-0.78-0.65-1.52-1.32-2.25-2c-0.81-0.76-1.59-1.53-2.33-2.32
		c-0.25-0.27-0.51-0.53-0.75-0.81c0.16,0.49,0.33,0.98,0.51,1.45c0.25,0.66,0.53,1.29,0.83,1.91c0.32,0.67,0.66,1.33,1.03,1.96
		c0.59,0.65,1.21,1.29,1.84,1.92C62.02,156.48,62.85,157.25,63.72,158.01z M63.88,151.18c0.09,0.64,0.19,1.27,0.31,1.88
		c0.32,0.24,0.66,0.48,0.99,0.72c0.94,0.68,1.91,1.33,2.91,1.97c0.91,0.58,1.83,1.14,2.78,1.69c-0.14-0.84-0.26-1.72-0.35-2.63
		c-0.05-0.52-0.1-1.06-0.13-1.6c-0.04-0.68-0.08-1.38-0.09-2.1c-1.26-0.72-2.48-1.47-3.66-2.25c-0.96-0.64-1.9-1.29-2.81-1.96
		c-0.1-0.07-0.21-0.15-0.31-0.22c0.02,0.92,0.08,1.8,0.16,2.67C63.73,149.96,63.8,150.58,63.88,151.18z M66.81,160.5
		c0.45,0.34,0.91,0.67,1.37,0.99c1.57,1.1,3.21,2.15,4.94,3.13h0c-0.2-0.4-0.38-0.81-0.56-1.24c-0.44-1.05-0.81-2.18-1.13-3.39
		c-0.02-0.07-0.04-0.13-0.05-0.19c-2.34-1.33-4.54-2.77-6.6-4.32c0.16,0.55,0.34,1.09,0.52,1.61
		C65.73,158.31,66.23,159.45,66.81,160.5z M93.18,59.04c-0.25,0.29-0.5,0.59-0.73,0.9c2.64,0.22,5.35,0.62,8.14,1.2
		c0.06-0.08,0.13-0.16,0.19-0.23c0.25-0.31,0.51-0.62,0.81-0.9c-0.25-0.08-0.51-0.16-0.76-0.24c-1.6-0.5-3.19-0.94-4.73-1.3
		c-0.67-0.15-1.33-0.3-1.99-0.42C93.78,58.37,93.47,58.7,93.18,59.04z M101.04,103.05c0.3-1.3,0.61-2.6,0.93-3.89
		c-0.14-0.03-0.27-0.06-0.41-0.09c-1.58-0.35-3.12-0.76-4.6-1.24c-0.26,0.71-0.51,1.43-0.77,2.14c-0.47,1.31-0.92,2.62-1.37,3.94
		c-0.3,0.89-0.61,1.78-0.9,2.68c0.66,0.21,1.33,0.41,2.01,0.61c1.29,0.37,2.61,0.7,3.95,0.98c0.24-1.12,0.49-2.23,0.75-3.34
		C100.77,104.24,100.91,103.64,101.04,103.05z M102.92,95.4c0.76-2.94,1.55-5.84,2.37-8.68c-1.2-0.25-2.37-0.57-3.49-0.93
		c-0.64,1.47-1.27,2.96-1.89,4.46c-0.53,1.3-1.05,2.6-1.57,3.92c1.2,0.39,2.44,0.73,3.71,1.03
		C102.34,95.27,102.62,95.33,102.92,95.4z M91.62,105.78c0.1-0.27,0.2-0.53,0.3-0.8c0.13-0.35,0.26-0.69,0.39-1.04
		c0.67-1.77,1.37-3.53,2.08-5.28c0.21-0.5,0.41-1.01,0.62-1.51c-0.31-0.12-0.62-0.24-0.93-0.36c-1.23-0.49-2.41-1.03-3.55-1.6
		l0,0.01c-1.34,2.44-2.62,4.91-3.83,7.41c-0.14,0.28-0.28,0.56-0.41,0.84c0.74,0.38,1.49,0.73,2.26,1.08
		c0.66,0.3,1.33,0.58,2.02,0.85C90.92,105.51,91.27,105.65,91.62,105.78z M108.19,77.35c0.25-0.75,0.5-1.5,0.75-2.24
		c-0.62-0.13-1.22-0.29-1.81-0.48c-0.49,0.94-0.98,1.89-1.46,2.86c-0.31,0.63-0.62,1.26-0.93,1.9c-0.47,0.98-0.95,1.97-1.41,2.98
		c0.5,0.16,1.01,0.31,1.53,0.45c0.49,0.13,0.98,0.25,1.48,0.35C106.95,81.18,107.56,79.24,108.19,77.35z M108.06,45.84
		c0.08,0.11,0.15,0.24,0.23,0.38c1.76-0.14,3.56-0.19,5.38-0.16c0.06,0,0.12,0,0.18,0c0.01-0.12,0.03-0.23,0.04-0.33
		c0.05-0.36,0.09-0.6,0.13-0.71c-0.07,0-0.14,0-0.21,0c-2.17-0.04-4.3,0.02-6.4,0.18C107.62,45.3,107.84,45.51,108.06,45.84z
		 M84.65,159.34c0.03,0.9,0.08,1.77,0.15,2.6c0.03,0.35,0.06,0.7,0.1,1.04c0.02,0.21,0.04,0.42,0.06,0.62
		c1.03,0.34,2.09,0.65,3.15,0.95c1.81,0.51,3.65,0.97,5.53,1.37l0.01,0v0c-0.02-0.26-0.04-0.54-0.05-0.81
		c-0.04-0.62-0.07-1.25-0.1-1.91c-0.01-0.25-0.02-0.5-0.03-0.75c-0.02-0.59-0.03-1.21-0.04-1.83c0-0.25-0.01-0.5-0.01-0.75
		c0-0.05,0-0.09,0-0.14c-1.43-0.3-2.83-0.64-4.21-1c-1.26-0.33-2.5-0.69-3.73-1.08c-0.29-0.09-0.59-0.18-0.88-0.27
		c0,0.3,0.01,0.59,0.02,0.89C84.63,158.62,84.64,158.99,84.65,159.34z M87.48,118.23c0.29-0.98,0.59-1.96,0.9-2.94
		c0.61-1.94,1.25-3.88,1.92-5.81c-1.54-0.58-3.04-1.21-4.48-1.9c-0.4-0.19-0.8-0.38-1.18-0.58c-0.38,0.84-0.75,1.69-1.11,2.53
		c-0.85,1.97-1.65,3.95-2.41,5.92c1.29,0.65,2.62,1.27,3.99,1.84C85.88,117.61,86.67,117.93,87.48,118.23z M90.97,136.49
		c-0.85-0.22-1.68-0.46-2.51-0.71c-0.27-0.08-0.54-0.17-0.81-0.25c-0.32-0.1-0.64-0.19-0.95-0.29c-0.07,0.37-0.13,0.74-0.19,1.11
		c-0.16,0.92-0.31,1.84-0.44,2.75c-0.1,0.63-0.19,1.27-0.28,1.89c-0.12,0.84-0.23,1.67-0.33,2.49c1.41,0.46,2.86,0.88,4.33,1.27
		c1.4,0.37,2.82,0.71,4.26,1.01c0.12-1.45,0.26-2.93,0.42-4.43c0.13-1.29,0.28-2.6,0.44-3.92
		C93.57,137.14,92.26,136.83,90.97,136.49z M84.84,150c-0.03,0.43-0.06,0.86-0.08,1.28c-0.06,1.02-0.1,2.02-0.13,3
		c0,0.03,0,0.06,0,0.09c1.51,0.49,3.05,0.94,4.61,1.35c1.38,0.36,2.79,0.7,4.21,1c0.01-0.52,0.02-1.05,0.04-1.58
		c0.01-0.28,0.02-0.57,0.03-0.86c0.03-0.74,0.06-1.5,0.1-2.26c0.02-0.33,0.03-0.67,0.05-1c0.02-0.29,0.04-0.59,0.05-0.88
		c0.02-0.33,0.04-0.65,0.06-0.98c-0.44-0.09-0.87-0.19-1.31-0.29c-2.31-0.52-4.56-1.13-6.74-1.82c-0.21-0.07-0.43-0.13-0.64-0.2
		c-0.03,0.28-0.05,0.56-0.07,0.84C84.95,148.47,84.89,149.24,84.84,150z M63.13,68.1c-0.28,0.43-0.54,0.86-0.79,1.3
		c-0.7,1.21-1.33,2.45-1.86,3.72c1.78-1.39,3.71-2.66,5.8-3.78c0.24-0.57,0.51-1.14,0.79-1.7c0.21-0.42,0.43-0.83,0.66-1.24
		c0.29-0.51,0.59-1.02,0.91-1.52c-0.15,0.07-0.29,0.15-0.43,0.22C66.39,65.96,64.69,66.96,63.13,68.1z M74.69,59.34
		c-0.85,0.9-1.63,1.83-2.35,2.79c1.69-0.6,3.47-1.08,5.33-1.46c0.38-0.08,0.75-0.16,1.14-0.22c0.76-1.02,1.62-2.01,2.56-2.95
		c0.07-0.07,0.14-0.14,0.21-0.21c-0.05,0-0.09,0.01-0.14,0.02c-0.91,0.09-1.81,0.21-2.68,0.36c-0.41,0.07-0.82,0.16-1.22,0.24
		c-0.65,0.14-1.29,0.29-1.91,0.47C75.31,58.7,75,59.02,74.69,59.34z M64.63,66.06c1.31-0.91,2.72-1.73,4.21-2.45
		c0.33-0.16,0.66-0.32,0.99-0.47c1.04-1.39,2.2-2.72,3.49-3.99c-0.84,0.32-1.65,0.68-2.43,1.08c-0.87,0.44-1.7,0.92-2.49,1.45
		c-0.65,0.64-1.26,1.29-1.85,1.96c-0.73,0.82-1.42,1.66-2.07,2.53C64.53,66.12,64.58,66.09,64.63,66.06z M94.05,49.43
		c0.13-0.05,0.27-0.1,0.4-0.15c1.41-0.54,2.87-1.02,4.38-1.43c-0.15-0.07-0.3-0.13-0.45-0.19c-0.44-0.18-0.87-0.31-1.29-0.39
		c-0.27-0.05-0.54-0.09-0.8-0.11c-0.04,0-0.09-0.01-0.13-0.01c-1,0.27-1.99,0.57-2.96,0.9c-0.68,0.22-1.34,0.46-2,0.71
		c-0.24,0.09-0.48,0.18-0.72,0.27C91.6,48.97,92.79,49.1,94.05,49.43z M100.74,47.27c0.04,0.02,0.08,0.04,0.13,0.07
		c0.36-0.08,0.72-0.16,1.08-0.23c1.35-0.28,2.74-0.5,4.14-0.67c-0.46-0.53-0.89-0.85-1.3-0.97c-0.3,0.04-0.6,0.08-0.89,0.12
		c-1.81,0.25-3.59,0.56-5.32,0.96c0.35,0.03,0.72,0.11,1.09,0.24C100.02,46.9,100.38,47.07,100.74,47.27z M102.42,47.94
		c-0.17,0.04-0.34,0.07-0.51,0.11c0.12,0.1,0.25,0.2,0.37,0.31c0.72,0.6,1.47,1.35,2.24,2.25c1.18-0.27,2.4-0.48,3.64-0.63
		c-0.14-0.31-0.28-0.59-0.41-0.87c-0.37-0.74-0.72-1.37-1.07-1.89c-0.28,0.03-0.55,0.07-0.83,0.11
		C104.69,47.5,103.54,47.7,102.42,47.94z M84.69,51.74c-0.48,0.26-0.95,0.53-1.42,0.81c0.26-0.04,0.52-0.07,0.79-0.1
		c1.25-0.15,2.56-0.17,3.94-0.06c0.92-0.55,1.88-1.06,2.87-1.55c0.44-0.22,0.89-0.43,1.35-0.63c-0.3-0.06-0.59-0.11-0.88-0.15
		c-0.7-0.1-1.37-0.15-2.03-0.15c-0.34,0-0.68,0.02-1.02,0.05c-0.78,0.35-1.54,0.71-2.28,1.09C85.56,51.27,85.12,51.5,84.69,51.74z"
		/>
</g>
</svg>
