<?xml version="1.0" encoding="utf-8"?>
<!-- Generator: Adobe Illustrator 26.2.1, SVG Export Plug-In . SVG Version: 6.00 Build 0)  -->
<svg version="1.1" xmlns="http://www.w3.org/2000/svg" xmlns:xlink="http://www.w3.org/1999/xlink" x="0px" y="0px"
	 viewBox="0 0 225 225" style="enable-background:new 0 0 225 225;" xml:space="preserve">
<style type="text/css">
	.st0{display:none;}
	.st1{display:inline;fill:#FAB433;}
	.st2{fill:none;}
	.st3{fill:none;stroke:#000000;stroke-width:1.6;stroke-miterlimit:10;}
	.st4{fill:none;stroke:#000000;stroke-width:0.7265;stroke-miterlimit:10;}
	.st5{fill:none;stroke:#000000;stroke-linecap:round;stroke-linejoin:round;stroke-miterlimit:10;}
	.st6{fill:none;stroke:#000000;stroke-miterlimit:10;}
	.st7{fill:none;stroke:#000000;stroke-width:0.7105;stroke-miterlimit:10;}
	.st8{fill:none;stroke:#000000;stroke-width:5.4;stroke-linecap:round;stroke-linejoin:round;stroke-miterlimit:10;}
	.st9{fill:none;stroke:#000000;stroke-width:2.9309;stroke-linecap:round;stroke-linejoin:round;stroke-miterlimit:10;}
	.st10{fill:none;stroke:#000000;stroke-width:0.5;stroke-linecap:round;stroke-linejoin:round;}
	.st11{fill:none;stroke:#FFFFFF;stroke-width:0;stroke-linecap:round;stroke-linejoin:round;}
	.st12{fill:#FFFFFF;}
	.st13{fill:none;stroke:#000000;stroke-width:1.4;stroke-miterlimit:10;}
	.st14{fill:url(#);stroke:#000000;stroke-width:1.4387;stroke-miterlimit:10;}
	.st15{fill:url(#);stroke:#000000;stroke-width:1.3718;stroke-miterlimit:10;}
	.st16{fill:none;stroke:#000000;stroke-width:1.0041;stroke-miterlimit:10;}
	.st17{fill:none;stroke:#000000;stroke-width:1.3621;stroke-miterlimit:10;}
	.st18{fill:none;stroke:#000000;stroke-width:0.25;stroke-miterlimit:10;}
</style>
<g id="Layer_2" class="st0">
	<rect id="XMLID_1_" x="-100.99" y="-30.01" class="st1" width="1160" height="772"/>
</g>
<g id="Layer_1">
	<path id="XMLID_14340_" d="M101.24,179.42c0.05,0.01,0.1,0.02,0.16,0.02c0.01,0,0.01,0,0.02,0c-0.08-0.01-0.17-0.03-0.25-0.04
		C101.19,179.41,101.22,179.42,101.24,179.42z M59.62,69.79c-0.12,0.15-0.23,0.29-0.35,0.43c-0.02,0.02-0.03,0.04-0.05,0.07
		c0.15-0.18,0.29-0.36,0.44-0.55C59.65,69.76,59.63,69.78,59.62,69.79z M90.58,48.23l0.24-0.08c-0.12,0.04-0.23,0.08-0.35,0.12
		l-0.05,0.01c-0.09,0.03-0.18,0.07-0.27,0.1l0.39-0.13C90.55,48.24,90.56,48.24,90.58,48.23z M90.01,48.42
		c-0.27,0.1-0.55,0.19-0.83,0.3c-0.01,0-0.01,0.01-0.02,0.01c0.24-0.09,0.48-0.17,0.72-0.25C89.92,48.46,89.96,48.44,90.01,48.42z
		 M71.48,58.34c-0.01,0.01-0.03,0.02-0.04,0.03c-0.1,0.08-0.21,0.16-0.31,0.24C71.24,58.52,71.36,58.43,71.48,58.34
		C71.47,58.35,71.48,58.34,71.48,58.34z M101.14,45.59c0.01,0,0.01,0,0.01,0c0.01,0,0.02,0,0.03,0c0,0,0.02,0,0.02-0.01
		c-0.01,0-0.02,0-0.03,0.01C101.16,45.59,101.15,45.59,101.14,45.59z M65.22,63.69c-0.31,0.29-0.6,0.57-0.87,0.85
		c-0.04,0.05-0.09,0.1-0.13,0.14c0.31-0.32,0.63-0.63,0.95-0.93C65.18,63.73,65.2,63.71,65.22,63.69z M60.75,156.55
		c-0.05-0.06-0.1-0.11-0.15-0.17l0.3,0.35l0.01,0.01c0.01,0.01,0.02,0.02,0.03,0.04c0,0-0.01-0.01-0.01-0.01
		C60.87,156.7,60.81,156.63,60.75,156.55z M72.61,57.51l-0.23,0.16c-0.07,0.05-0.13,0.1-0.2,0.15c-0.02,0.01-0.03,0.03-0.05,0.04
		c-0.01,0.01-0.02,0.02-0.03,0.02c0.07-0.05,0.14-0.1,0.2-0.15C72.4,57.66,72.51,57.58,72.61,57.51z M75.35,55.63
		c0.02-0.01,0.04-0.03,0.06-0.04c0.06-0.04,0.11-0.08,0.17-0.12l-0.62,0.41c-0.14,0.09-0.27,0.18-0.41,0.27l-0.08,0.05
		c0.15-0.1,0.3-0.2,0.45-0.29C75.06,55.82,75.2,55.72,75.35,55.63z M45.49,100.89c0.01-0.06,0.02-0.11,0.03-0.16
		c-0.03,0.18-0.07,0.36-0.1,0.53c-0.02,0.15-0.05,0.29-0.07,0.44l-0.04,0.33c0.03-0.21,0.07-0.41,0.1-0.61
		C45.43,101.24,45.46,101.07,45.49,100.89z M67.75,163.63c0.04,0.04,0.08,0.07,0.12,0.11l0.01,0c-0.05-0.05-0.11-0.1-0.16-0.14
		C67.73,163.61,67.74,163.62,67.75,163.63z M63.5,65.41L63.5,65.41L63.5,65.41L63.5,65.41z M63.76,65.15
		c-0.08,0.09-0.16,0.17-0.25,0.26c0.11-0.11,0.22-0.22,0.32-0.33C63.81,65.1,63.78,65.12,63.76,65.15z M63.51,65.41
		C63.5,65.41,63.5,65.41,63.51,65.41L63.51,65.41L63.51,65.41z M73.66,56.76c-0.03,0.02-0.05,0.03-0.08,0.05
		c-0.1,0.07-0.19,0.13-0.29,0.2c0.07-0.05,0.14-0.1,0.21-0.15C73.57,56.83,73.61,56.79,73.66,56.76z M45.07,103.64
		c-0.01,0.05-0.01,0.09-0.02,0.14l-0.11,0.83c0,0.04-0.01,0.08-0.01,0.13l0.07-0.48C45.02,104.06,45.04,103.85,45.07,103.64z
		 M101.2,45.58c0.05-0.01,0.1-0.02,0.15-0.03c-0.02,0-0.03,0-0.05,0.01C101.27,45.57,101.23,45.58,101.2,45.58z M73.72,168.28
		c0.12,0.08,0.24,0.17,0.36,0.25l0.03,0.02C73.98,168.46,73.85,168.37,73.72,168.28L73.72,168.28z M46.58,95.76
		c-0.01,0.05-0.03,0.11-0.04,0.17c-0.02,0.07-0.03,0.15-0.05,0.22c0.02-0.1,0.05-0.19,0.07-0.29
		C46.56,95.82,46.57,95.79,46.58,95.76z M50.46,84.64c0.13-0.29,0.26-0.57,0.4-0.85c0.04-0.09,0.08-0.18,0.12-0.27l-0.48,1.02
		c-0.03,0.07-0.06,0.14-0.08,0.21c-0.01,0.03-0.03,0.07-0.04,0.1c0.03-0.06,0.05-0.12,0.08-0.18
		C50.45,84.66,50.45,84.65,50.46,84.64z M76.38,170.03c-0.13-0.08-0.26-0.16-0.39-0.24c0.04,0.03,0.09,0.06,0.13,0.09l0.14,0.09
		c0.06,0.04,0.12,0.07,0.18,0.11c0.02,0.01,0.03,0.02,0.05,0.03c-0.03-0.02-0.06-0.04-0.08-0.05
		C76.41,170.05,76.39,170.04,76.38,170.03z M72.46,167.38l-0.26-0.19c-0.03-0.02-0.06-0.04-0.09-0.07c0.05,0.04,0.1,0.08,0.14,0.11
		c0.11,0.08,0.24,0.17,0.36,0.26c-0.07-0.05-0.13-0.1-0.19-0.14C72.43,167.36,72.45,167.37,72.46,167.38z M93.67,177.73
		c0.12,0.03,0.24,0.07,0.36,0.1c0.15,0.04,0.3,0.08,0.45,0.12c0.27,0.07,0.53,0.15,0.8,0.21c0.06,0.02,0.12,0.03,0.19,0.05
		c0.1,0.02,0.19,0.05,0.29,0.07c0.06,0.02,0.13,0.03,0.19,0.05c-0.53-0.13-1.07-0.28-1.59-0.42
		C94.13,177.85,93.9,177.8,93.67,177.73z M90.1,176.6c0.2,0.07,0.41,0.14,0.61,0.21c0.04,0.01,0.08,0.03,0.13,0.04
		c-0.1-0.03-0.2-0.07-0.3-0.1C90.39,176.7,90.25,176.65,90.1,176.6z M100.45,179.28c-0.49-0.09-0.97-0.17-1.46-0.27h0
		c-0.01,0-0.02,0-0.03,0c0.01,0,0.03,0,0.04,0.01l0.01,0c0.16,0.03,0.33,0.06,0.49,0.1c0.11,0.02,0.22,0.04,0.33,0.06
		c0.28,0.05,0.55,0.1,0.83,0.15c0.15,0.03,0.3,0.05,0.46,0.08c0.01,0,0.01,0,0.01,0c-0.01,0-0.02,0-0.04-0.01
		C100.88,179.36,100.67,179.32,100.45,179.28z M97.85,178.77c-0.18-0.04-0.36-0.08-0.54-0.12c-0.01,0-0.02,0-0.03-0.01
		c-0.07-0.02-0.14-0.03-0.21-0.05c-0.13-0.03-0.27-0.06-0.4-0.09c-0.07-0.02-0.14-0.03-0.22-0.05c0.03,0.01,0.06,0.01,0.08,0.02
		c0.09,0.02,0.18,0.04,0.27,0.07l0.01,0c0.09,0.02,0.17,0.04,0.26,0.06c0.09,0.02,0.19,0.04,0.28,0.06
		c0.28,0.06,0.56,0.12,0.84,0.18c0.19,0.04,0.37,0.08,0.56,0.12c-0.08-0.02-0.15-0.03-0.23-0.05
		C98.29,178.87,98.07,178.82,97.85,178.77z M112.64,180.31c2.79-0.13,6.32-0.57,10.31-1.41c1.87-0.4,3.84-0.88,5.88-1.46
		c2.91-0.84,5.97-1.88,9.07-3.16c2.75-1.13,5.54-2.45,8.32-3.98c3.48-1.91,6.93-4.15,10.23-6.76c2-1.59,3.96-3.3,5.82-5.17
		c0.05-0.05,0.09-0.1,0.14-0.15c0.44-0.48,0.88-0.97,1.31-1.46c0.11-0.13,0.22-0.27,0.34-0.4c0.4-0.47,0.8-0.95,1.18-1.43
		c0.14-0.17,0.27-0.34,0.41-0.51c0.48-0.61,0.95-1.22,1.41-1.85c2.06-2.81,3.9-5.78,5.52-8.89c0.42-0.8,0.81-1.61,1.2-2.43
		c0.01-0.01,0.01-0.03,0.02-0.04c-1.78,3.35-3.93,6.46-6.33,9.34c-1.81,2.16-3.76,4.2-5.82,6.1c-3.09,2.85-6.41,5.42-9.82,7.72
		c-2.86,1.93-5.79,3.67-8.7,5.22c-3.19,1.7-6.35,3.19-9.37,4.47c-2.5,1.06-4.9,1.97-7.15,2.75c-3.36,1.16-6.38,2.03-8.83,2.61
		c-2.43,0.57-4.31,0.87-5.44,0.92l-0.01,0l0.01,0C112.42,180.32,112.53,180.31,112.64,180.31z M98.88,47.85
		c-3.43,1.19-7.13,2.68-10.93,4.45c-2.71,1.27-5.46,2.67-8.19,4.22c-3.08,1.73-6.12,3.64-9.04,5.69c-2.58,1.81-5.05,3.75-7.36,5.79
		c-3.09,2.73-5.87,5.64-8.2,8.73c-1.36,1.8-2.56,3.66-3.57,5.57c-0.1,0.19-0.2,0.37-0.29,0.56c-0.02,0.05-0.05,0.1-0.07,0.15
		c-0.09,0.18-0.17,0.37-0.25,0.55c-0.19,0.41-0.38,0.81-0.56,1.22c-0.04,0.1-0.09,0.2-0.14,0.29c-0.04,0.09-0.08,0.19-0.12,0.28
		c-0.03,0.07-0.06,0.14-0.09,0.21c-0.27,0.62-0.53,1.25-0.78,1.87c-0.03,0.08-0.07,0.17-0.1,0.25c-0.02,0.06-0.04,0.11-0.06,0.17
		c-0.26,0.68-0.52,1.36-0.76,2.05c-0.04,0.11-0.08,0.23-0.12,0.34c-0.1,0.27-0.19,0.53-0.28,0.78c-0.01,0.02-0.01,0.03-0.02,0.05
		c-0.03,0.1-0.06,0.22-0.09,0.33c0.06-0.17,0.11-0.34,0.17-0.52c0.01-0.04,0.02-0.07,0.04-0.11c0.05-0.13,0.09-0.27,0.14-0.4
		c-0.25,0.72-0.49,1.45-0.71,2.18c-0.04,0.14-0.08,0.27-0.12,0.41c-0.2,0.67-0.39,1.34-0.57,2.01c-0.03,0.13-0.07,0.25-0.1,0.38
		c-0.03,0.12-0.06,0.24-0.09,0.36c-0.16,0.63-0.31,1.26-0.46,1.89c-0.04,0.17-0.07,0.34-0.11,0.51c-0.16,0.76-0.32,1.52-0.45,2.28
		c0,0.01,0,0.02-0.01,0.03c0,0.02-0.01,0.03-0.01,0.04c-0.14,0.78-0.26,1.57-0.37,2.37c-0.01,0.07-0.02,0.15-0.03,0.23
		c0.02-0.1,0.05-0.21,0.07-0.31c0.66-2.94,1.62-5.77,2.85-8.51c1.21-2.71,2.68-5.32,4.34-7.82c2.31-3.47,5.01-6.74,7.96-9.8
		c2.43-2.52,5.03-4.9,7.73-7.14c3.3-2.73,6.73-5.25,10.17-7.55c2.81-1.88,5.62-3.6,8.35-5.18c3.38-1.95,6.64-3.68,9.64-5.17
		c2.34-1.16,4.52-2.18,6.47-3.05c2.52-1.13,4.66-2.01,6.28-2.65c2.02-0.79,3.21-1.21,3.29-1.22c-1.93,0.12-4.36,0.55-7.14,1.27
		C103.23,46.44,101.11,47.08,98.88,47.85z M131.08,177.44c-5.26,1.55-10.07,2.33-14.2,2.67c-0.14,0.01-0.29,0.02-0.43,0.03
		c-0.75,0.04-1.54,0.08-2.38,0.11c-0.55,0.03-1.11,0.05-1.68,0.07c-0.03,0-0.05,0-0.08,0h0h0.01c0.01,0,0.03,0,0.04,0l0.22,0
		c0.13,0,0.26,0,0.38,0c0.44-0.01,0.99-0.02,1.62-0.05c0.94-0.04,2.06-0.11,3.32-0.22c-0.07,0-0.14,0.01-0.21,0.01
		c0.08-0.01,0.16-0.01,0.24-0.02c0.34-0.03,0.68-0.05,1.02-0.09c0.21-0.03,0.42-0.05,0.63-0.08c1.11-0.13,2.29-0.29,3.52-0.49
		c0.95-0.14,1.9-0.3,2.81-0.47c1.04-0.21,2.13-0.46,3.31-0.75c0.08-0.02,0.17-0.04,0.26-0.06c0.28-0.07,0.56-0.14,0.86-0.21
		l0.46-0.14l2.93-0.89c0.13-0.05,0.27-0.11,0.41-0.16c2.91-1.11,6.58-2.67,9.32-3.96c0.69-0.36,1.38-0.73,2.05-1.12
		c0.16-0.09,0.32-0.18,0.47-0.27c0.66-0.38,1.32-0.77,1.97-1.17c0.08-0.05,0.16-0.1,0.24-0.15c0.29-0.18,0.58-0.37,0.87-0.56
		c-3.47,2.08-6.87,3.77-10.15,5.15C136.23,175.77,133.6,176.7,131.08,177.44z M94.14,47.38c-2.56,0.7-4.9,1.49-7.03,2.31
		c-0.67,0.26-1.33,0.52-1.96,0.79c-2.25,0.95-4.22,1.91-5.89,2.82c-0.94,0.51-1.79,1-2.54,1.46c-0.11,0.07-0.21,0.14-0.32,0.2
		c-0.06,0.04-0.13,0.08-0.19,0.12c-0.07,0.05-0.15,0.09-0.22,0.14c-0.63,0.4-1.26,0.82-1.88,1.24c-0.1,0.07-0.19,0.13-0.29,0.2
		c-0.03,0.02-0.06,0.04-0.1,0.07c-0.58,0.4-1.15,0.81-1.72,1.23c-0.06,0.05-0.13,0.09-0.19,0.14c-0.08,0.06-0.16,0.12-0.23,0.18
		c-0.53,0.4-1.05,0.8-1.56,1.21c-0.13,0.11-0.27,0.21-0.4,0.32c-0.54,0.44-1.08,0.89-1.61,1.34c-0.04,0.04-0.09,0.07-0.14,0.11
		c-0.04,0.04-0.08,0.07-0.12,0.11c-0.01,0.01-0.02,0.01-0.02,0.02c-0.54,0.47-1.07,0.95-1.59,1.43c-0.12,0.11-0.24,0.22-0.35,0.33
		c-0.54,0.51-1.08,1.03-1.61,1.56c-0.1,0.1-0.2,0.2-0.29,0.3c-0.22,0.23-0.44,0.47-0.66,0.7c-0.08,0.09-0.16,0.17-0.24,0.26
		c-0.17,0.18-0.34,0.35-0.51,0.53c-0.08,0.09-0.16,0.17-0.24,0.26c-0.05,0.05-0.1,0.11-0.15,0.16c-0.09,0.09-0.17,0.19-0.25,0.28
		c-0.2,0.22-0.39,0.44-0.58,0.66c-0.17,0.19-0.34,0.38-0.51,0.58c-0.04,0.04-0.07,0.08-0.1,0.12c0.02-0.02,0.04-0.04,0.06-0.06
		c0.08-0.09,0.17-0.17,0.25-0.25c0.05-0.05,0.1-0.1,0.14-0.15c0.03-0.03,0.07-0.07,0.1-0.1c2.11-2.17,4.33-4.16,6.62-5.97
		c2.37-1.87,4.82-3.56,7.29-5.08c2.44-1.49,4.9-2.81,7.33-3.98c2.66-1.28,5.29-2.38,7.83-3.32c4.6-1.7,8.91-2.88,12.59-3.66
		c2.15-0.46,4.08-0.79,5.73-1c1.49-0.19,2.75-0.3,3.72-0.33c-0.34,0.01-0.68,0.03-1.02,0.04C104.82,45.01,99.08,46.03,94.14,47.38z
		 M112.14,45.63c-0.46,0.43-1.15,0.97-2.84,2.09c-1.25,0.83-3.05,1.99-5.71,3.67c-0.13,0.08-0.27,0.17-0.41,0.26
		c-2.07,1.31-4.3,2.72-6.65,4.22c-2.95,1.9-6.06,3.94-9.23,6.12c-2.79,1.91-5.62,3.92-8.42,6.02c-3.66,2.74-7.27,5.63-10.65,8.63
		c-2.78,2.47-5.41,5.02-7.8,7.63c-0.26,0.28-0.52,0.56-0.77,0.85c-2.27,2.56-4.77,5.59-7.05,9.04c-1.68,2.54-3.25,5.31-4.52,8.3
		c-1.45,3.4-2.53,7.09-2.98,11.04c-0.28,2.46-0.33,5.03-0.06,7.69c0,0.04,0.01,0.07,0.01,0.11c0.09,0.66,0.19,1.32,0.29,1.98
		c0.02,0.1,0.03,0.21,0.05,0.31c-0.02-0.13-0.04-0.25-0.06-0.38c-0.06-0.35-0.11-0.7-0.16-1.05c-0.01-0.1-0.03-0.19-0.04-0.29
		l0.12,0.87l0.04,0.26c0,0.01,0,0.02,0.01,0.03c0.03,0.17,0.05,0.33,0.08,0.49l0,0.01c0.01,0.04,0.02,0.08,0.02,0.11
		c0.01,0.07,0.03,0.15,0.04,0.22c0.01,0.07,0.02,0.14,0.03,0.2c0.13,0.77,0.28,1.54,0.44,2.3c0.03,0.13,0.06,0.26,0.08,0.39
		c0.15,0.7,0.31,1.39,0.48,2.07c0.03,0.12,0.06,0.25,0.09,0.37c0.19,0.75,0.39,1.5,0.61,2.24c0.05,0.16,0.09,0.32,0.14,0.48
		c0.15,0.51,0.32,1.02,0.48,1.53c0.07,0.21,0.13,0.43,0.2,0.64c-0.06-0.17-0.11-0.34-0.16-0.5c-0.1-0.3-0.2-0.6-0.29-0.9
		c0.13,0.42,0.25,0.83,0.38,1.22c0.03,0.07,0.06,0.15,0.09,0.23l0,0c0,0.01,0.01,0.03,0.01,0.04c0.03,0.1,0.07,0.19,0.1,0.29
		c0.14,0.42,0.3,0.83,0.45,1.25c0.08,0.22,0.16,0.45,0.24,0.67c0.06,0.16,0.12,0.31,0.18,0.47c0.01,0.03,0.02,0.05,0.03,0.08
		c0.06,0.16,0.13,0.31,0.19,0.47c0.1,0.25,0.2,0.51,0.31,0.76c0.11,0.28,0.22,0.56,0.34,0.83c0.04,0.08,0.07,0.17,0.11,0.25
		c0.02,0.04,0.03,0.07,0.05,0.11c0.18,0.41,0.36,0.81,0.54,1.21c0.1,0.21,0.19,0.42,0.28,0.63c0.03,0.07,0.06,0.14,0.1,0.21
		c-0.01-0.02-0.02-0.04-0.03-0.07c-0.06-0.14-0.1-0.29-0.16-0.43c-0.02-0.06-0.05-0.12-0.07-0.18c-0.04-0.12-0.09-0.24-0.13-0.36
		c-0.89-2.48-1.49-4.93-1.84-7.35c-0.39-2.75-0.45-5.46-0.22-8.12c0.33-3.77,1.24-7.47,2.63-11.07c1.19-3.08,2.72-6.1,4.53-9.06
		c2.21-3.61,4.84-7.12,7.76-10.53c2.42-2.82,5.03-5.57,7.77-8.25c3.46-3.38,7.12-6.64,10.84-9.78c2.82-2.38,5.67-4.68,8.49-6.91
		c3.13-2.47,6.22-4.86,9.19-7.15l0.07-0.05c2.35-1.81,4.67-3.6,6.79-5.3c2.34-1.87,4.43-3.64,6.07-5.22
		c1.27-1.23,2.26-2.34,2.87-3.29c0.58-0.91,0.81-1.68,0.6-2.27c-0.16-0.45-0.56-0.79-1.25-1.03c-0.3-0.1-0.65-0.18-1.05-0.24
		c2.03,0.19,3.63,0.57,4.81,1.13c1.07,0.51,1.78,1.18,2.13,2c0.43,1,0.33,2.23-0.29,3.69c-0.54,1.26-1.46,2.7-2.78,4.31
		c-1.38,1.69-3.17,3.56-5.4,5.64c-0.21,0.2-0.43,0.39-0.65,0.59c-2.29,2.11-4.62,4.17-6.98,6.21c-3.12,2.69-6.28,5.34-9.42,8.01
		c-2.9,2.46-5.79,4.93-8.62,7.47c-3,2.68-5.93,5.42-8.76,8.29c-0.58,0.59-1.29,1.31-2.08,2.13c-2.12,2.19-4.87,5.15-7.68,8.58
		c-2.71,3.31-5.48,7.06-7.76,11c-0.22,0.37-0.43,0.75-0.64,1.12c-1.51,2.73-2.75,5.35-3.75,7.88c-1.42,3.6-2.32,7.01-2.71,10.29
		c-0.31,2.66-0.29,5.22,0.07,7.71c0.47,3.25,1.53,6.38,3.16,9.44c0.81,1.52,1.76,3.02,2.86,4.51c0.26,0.36,0.54,0.72,0.82,1.08
		c0.07,0.08,0.14,0.16,0.21,0.25c0.25,0.29,0.5,0.58,0.75,0.87c0.01,0.01,0.02,0.03,0.03,0.04l0.11,0.13
		c0.12,0.13,0.23,0.27,0.35,0.4c0.03,0.04,0.07,0.08,0.1,0.11c0.09,0.1,0.17,0.2,0.26,0.29c0.04,0.04,0.08,0.09,0.13,0.13
		c0.03,0.03,0.06,0.06,0.08,0.09c0.27,0.3,0.54,0.59,0.82,0.88c0.17,0.18,0.34,0.37,0.51,0.54c0.11,0.12,0.23,0.23,0.34,0.35
		c0.01,0.01,0.01,0.01,0.01,0.01c0.06,0.06,0.12,0.12,0.18,0.18c0.21,0.21,0.42,0.42,0.63,0.62c0.04,0.04,0.09,0.09,0.13,0.13
		c0.2,0.2,0.4,0.4,0.6,0.6c0.03,0.03,0.06,0.06,0.1,0.09c0.07,0.07,0.14,0.13,0.21,0.19c0.32,0.3,0.64,0.59,0.96,0.88
		c0.17,0.16,0.34,0.31,0.51,0.47c0.02,0.02,0.04,0.04,0.06,0.05c0.11,0.1,0.22,0.19,0.33,0.29c0.12,0.11,0.25,0.21,0.37,0.32
		c0.43,0.37,0.86,0.74,1.29,1.1c0.02,0.01,0.04,0.03,0.05,0.05c0.01,0.01,0.03,0.02,0.04,0.03c0.06,0.05,0.12,0.1,0.18,0.15
		c0.54,0.44,1.08,0.86,1.63,1.29c0.12,0.09,0.24,0.19,0.37,0.28c0.14,0.11,0.29,0.21,0.44,0.32c0.02,0.01,0.04,0.03,0.06,0.04
		c0.35,0.26,0.7,0.52,1.06,0.77c0.07,0.05,0.14,0.11,0.22,0.16c0.01,0.01,0.02,0.02,0.04,0.03c0.12,0.09,0.25,0.17,0.37,0.26
		c0,0,0,0,0,0c0.55,0.39,1.11,0.76,1.68,1.13c0.02,0.01,0.04,0.03,0.06,0.04c0.05,0.03,0.09,0.06,0.14,0.09c0,0-0.01-0.01-0.02-0.02
		c-0.15-0.11-0.29-0.21-0.44-0.32c-0.01-0.01-0.03-0.02-0.04-0.03c-2.09-1.52-3.93-3.07-5.52-4.66c-1.82-1.83-3.32-3.7-4.53-5.62
		c-1.65-2.64-2.73-5.37-3.29-8.2c-0.49-2.49-0.57-5.06-0.28-7.7c0.35-3.13,1.23-6.35,2.6-9.68c1.15-2.82,2.66-5.71,4.47-8.68
		c1.07-1.75,2.25-3.52,3.53-5.32c1.28-1.8,2.67-3.63,4.15-5.48c1.44-1.8,2.98-3.63,4.6-5.48c0.96-1.1,1.96-2.21,2.98-3.33
		c3.27-3.57,6.84-7.24,10.67-10.99c2.76-2.7,5.66-5.45,8.67-8.25c0.82-0.76,1.65-1.53,2.49-2.3c2.17-1.99,4.71-4.31,7.31-6.83
		c2.32-2.25,4.69-4.64,6.87-7.07c2.21-2.46,4.23-4.95,5.82-7.36c1.23-1.86,2.21-3.67,2.83-5.38c0.67-1.86,0.91-3.59,0.59-5.13
		c-0.22-1.05-0.69-2.01-1.47-2.87c-0.96-1.05-2.39-1.94-4.36-2.61c-1.26-0.43-2.74-0.78-4.46-1.04c-0.59-0.09-1.2-0.17-1.85-0.23
		c3.06,0.25,5.71,0.66,8,1.2c2.62,0.62,4.76,1.41,6.48,2.35c1.93,1.05,3.32,2.29,4.27,3.68c0.78,1.14,1.26,2.39,1.46,3.71
		c0.31,1.97,0.04,4.11-0.67,6.37c-0.62,1.96-1.58,4-2.78,6.08c-1.23,2.13-2.72,4.3-4.37,6.46c-0.45,0.59-0.91,1.17-1.37,1.75
		c-2.13,2.65-4.47,5.27-6.83,7.77c-3.42,3.62-6.88,6.97-9.83,9.78c-0.61,0.58-1.2,1.14-1.76,1.68c-1.12,1.06-2.3,2.19-3.53,3.36
		c-1.19,1.14-2.43,2.33-3.69,3.56c-0.71,0.7-1.44,1.4-2.16,2.13c-2.82,2.79-5.73,5.76-8.6,8.87c-2.62,2.84-5.2,5.78-7.63,8.78
		c-2.67,3.3-5.15,6.66-7.29,10.04c-1.09,1.71-2.08,3.41-2.98,5.12c-0.64,1.22-1.22,2.43-1.75,3.64c-1.32,3.03-2.25,6.01-2.69,8.92
		c-0.37,2.4-0.39,4.75-0.02,7.02c0.38,2.32,1.19,4.56,2.48,6.67c0.99,1.61,2.25,3.15,3.83,4.62c1.74,1.61,3.85,3.11,6.38,4.51
		c2.11,1.16,4.51,2.25,7.22,3.25c0.25,0.09,0.51,0.19,0.77,0.28c0.07,0.03,0.15,0.05,0.22,0.08c-0.03-0.01-0.06-0.03-0.1-0.04
		c-0.68-0.28-1.32-0.58-1.93-0.89c-1.58-0.81-2.91-1.7-4.02-2.68c-1.14-1.01-2.05-2.09-2.75-3.26c-0.95-1.59-1.5-3.32-1.71-5.15
		c-0.21-1.88-0.07-3.87,0.37-5.93c0.54-2.52,1.53-5.16,2.84-7.84c0.48-0.99,1.01-1.98,1.57-2.98c0.98-1.73,2.07-3.46,3.25-5.2
		c2.14-3.14,4.55-6.28,7.07-9.3c2.53-3.03,5.15-5.96,7.71-8.68c3.85-4.11,7.52-7.76,10.42-10.63c0.11-0.11,0.21-0.21,0.33-0.32
		l0.07-0.07c0.06-0.06,0.13-0.13,0.19-0.19c2.42-2.4,5.46-5.44,8.72-8.89c2.99-3.16,6.15-6.66,9.2-10.35
		c2.33-2.81,4.58-5.73,6.62-8.68c1.64-2.36,3.14-4.75,4.44-7.11c0.42-0.76,0.81-1.51,1.18-2.26c1.13-2.29,2.05-4.55,2.68-6.75
		c0.74-2.58,1.09-5.06,0.94-7.4c-0.09-1.51-0.39-2.96-0.93-4.33c-0.56-1.44-1.39-2.79-2.5-4.05c-0.59-0.66-1.26-1.29-2.01-1.89
		c2.37,1.29,4.4,2.66,6.12,4.11c2.36,1.98,4.13,4.09,5.39,6.32c1.05,1.85,1.74,3.78,2.12,5.78c0.53,2.82,0.44,5.76-0.17,8.79
		c-0.5,2.48-1.35,5.01-2.48,7.58c-0.47,1.07-0.99,2.15-1.56,3.23c-1.19,2.28-2.59,4.58-4.13,6.88c-2.02,3-4.3,6.01-6.76,8.98
		c-2.88,3.49-6,6.95-9.19,10.29c-2.12,2.23-4.28,4.42-6.43,6.54c-0.85,0.85-1.71,1.68-2.56,2.51c-1.12,1.09-2.23,2.16-3.33,3.22
		c-1.97,1.88-3.89,3.7-5.72,5.43c-0.6,0.56-1.19,1.13-1.78,1.7c-2.8,2.7-5.52,5.46-8.05,8.21c-2.71,2.95-5.21,5.9-7.37,8.78
		c-0.13,0.17-0.25,0.34-0.38,0.51c-1.71,2.32-3.2,4.59-4.4,6.79c-1.35,2.47-2.33,4.84-2.85,7.05c-0.42,1.81-0.54,3.52-0.29,5.09
		c0.26,1.62,0.9,3.11,1.98,4.42c0.76,0.93,1.75,1.76,2.97,2.51c1.46,0.89,3.26,1.65,5.44,2.26c0.86,0.24,1.79,0.45,2.77,0.64
		c0.48,0.09,0.98,0.18,1.49,0.26c0.31,0.05,0.63,0.1,0.95,0.14c-0.21-0.02-0.43-0.05-0.64-0.07c-0.01,0-0.02,0-0.03,0
		c-0.27-0.03-0.53-0.07-0.79-0.1c0.36,0.06,0.73,0.1,1.09,0.15c0.28,0.04,0.56,0.08,0.84,0.12c0.06,0.01,0.11,0.01,0.17,0.02
		c0.05,0.01,0.1,0.01,0.16,0.02c0.04,0,0.08,0.01,0.12,0.01c0.21,0.02,0.41,0.04,0.62,0.06c0.27,0.03,0.54,0.06,0.81,0.08
		c0.24,0.02,0.48,0.05,0.72,0.07c0.03,0,0.06,0,0.09,0.01c0.06,0,0.12,0.01,0.19,0.02c0.01,0,0.02,0,0.03,0
		c0.05,0,0.11,0.01,0.16,0.01c-0.02,0-0.03,0-0.05,0c-0.02,0-0.04-0.01-0.06-0.01c0.19,0.01,0.38,0.02,0.58,0.03
		c0.53,0.04,1.06,0.07,1.59,0.1c0.07,0,0.15,0.01,0.22,0.01c0.02,0,0.04,0,0.06,0l0.02,0c0.01,0,0.02,0,0.04,0
		c0.14,0.01,0.29,0.01,0.43,0.02c0.11,0,0.22,0,0.33,0.01c0.39,0.01,0.78,0.02,1.17,0.02c0.01,0,0.02,0,0.02,0
		c0.29,0.01,0.59,0.01,0.9,0.02c0.02,0,0.03,0,0.04,0l0,0c-0.99-0.08-2.39-0.2-2.81-0.96c-0.19-0.34-0.19-0.81,0.12-1.46
		c0.4-0.84,1.32-1.99,3.01-3.55c0.25-0.24,0.52-0.48,0.81-0.73c1.3-1.14,2.62-2.25,3.95-3.34c2.54-2.08,5.13-4.08,7.75-6.04
		c2.62-1.97,5.27-3.91,7.9-5.87c3.57-2.65,7.11-5.32,10.55-8.13c1.49-1.22,2.97-2.47,4.42-3.75c1.09-0.97,2.49-2.21,4.08-3.68
		c2.81-2.6,6.2-5.91,9.52-9.68c2.09-2.37,4.15-4.91,6.02-7.58c0.2-0.28,0.37-0.55,0.56-0.83c2.68-3.95,4.64-7.66,6.03-11.1
		c1.26-3.12,2.08-6.02,2.54-8.7c0.67-3.83,0.66-7.19,0.33-10.02c-0.49-4.16-1.66-7.18-2.34-8.92c-0.02-0.05-0.04-0.1-0.06-0.14
		c-0.19-0.45-0.4-0.9-0.6-1.35c-0.13-0.28-0.25-0.56-0.38-0.84c-0.37-0.78-0.75-1.55-1.14-2.31c-1.61-3.11-3.46-6.08-5.52-8.89
		c-1.03-1.4-2.11-2.76-3.24-4.08c2.13,2.73,3.77,5.46,4.99,8.2c1.1,2.48,1.84,4.97,2.26,7.47c0.57,3.36,0.56,6.72,0.04,10.07
		c-0.45,2.93-1.3,5.87-2.46,8.79c-1.47,3.69-3.47,7.36-5.88,11c-1.98,3-4.25,5.99-6.73,8.94c-2.85,3.4-5.98,6.77-9.31,10.1
		c-2.77,2.77-5.67,5.52-8.65,8.23c-3.41,3.1-6.92,6.16-10.45,9.17c-0.73,0.62-1.46,1.24-2.19,1.86c-1.94,1.64-3.91,3.31-5.84,4.97
		c-2.82,2.43-5.54,4.85-7.92,7.16c-1.85,1.79-3.49,3.51-4.82,5.12c-1.47,1.78-2.56,3.43-3.1,4.87c-0.38,1-0.5,1.89-0.31,2.68
		c0.23,0.95,0.92,1.73,2.16,2.3c0.6,0.28,1.34,0.5,2.22,0.67c0.14,0.03,0.28,0.05,0.43,0.08c-0.89-0.1-1.71-0.23-2.47-0.38
		c-2.12-0.41-3.79-0.99-5.09-1.69c-1.82-0.99-2.88-2.25-3.36-3.68c-0.4-1.22-0.39-2.56-0.05-3.98c0.45-1.91,1.48-3.96,2.84-6.02
		c1.35-2.05,3.03-4.11,4.78-6.05c2.83-3.14,5.85-5.97,8.01-7.96c0.24-0.22,0.48-0.44,0.69-0.64c2.48-2.28,4.97-4.57,7.45-6.87
		c3.54-3.28,7.04-6.57,10.43-9.85c3.03-2.93,5.97-5.87,8.77-8.79c3.29-3.43,6.38-6.85,9.2-10.24c2.52-3.03,4.81-6.05,6.83-9.04
		c2.41-3.58,4.41-7.11,5.91-10.6c1.19-2.76,2.06-5.5,2.56-8.19c0.6-3.22,0.67-6.38,0.13-9.48c-0.4-2.28-1.13-4.53-2.22-6.73
		c-1.31-2.64-3.14-5.22-5.56-7.74c-1.62-1.7-3.51-3.36-5.68-5c-0.13-0.1-0.27-0.19-0.4-0.28c-0.12-0.08-0.24-0.17-0.36-0.25
		c-0.27-0.18-0.53-0.36-0.8-0.54c-0.42-0.28-0.85-0.56-1.29-0.83c-0.26-0.17-0.53-0.34-0.79-0.5c-0.47-0.29-0.95-0.57-1.42-0.85
		c-0.23-0.13-0.46-0.27-0.7-0.41c-0.71-0.4-1.43-0.8-2.16-1.17c-1.02-0.53-2.06-1.02-3.11-1.5c-2.15-0.98-4.36-1.86-6.62-2.61
		c-0.29-0.1-0.59-0.18-0.89-0.28c-0.31-0.1-0.63-0.2-0.95-0.29c-2.8-0.84-5.66-1.52-8.6-2c-2.67-0.44-5.4-0.72-8.17-0.83
		c-0.02,0-0.03,0-0.05,0c-0.92-0.04-1.85-0.06-2.78-0.06c0.1,0.13,0.23,0.31,0.33,0.44C112.47,45.29,112.32,45.45,112.14,45.63z
		 M114.93,179.65c1.32-0.43,2.99-1.04,4.95-1.83c2.39-0.97,5.2-2.21,8.27-3.69c2.39-1.16,4.94-2.46,7.57-3.91
		c3.22-1.77,6.56-3.74,9.91-5.91c2.92-1.89,5.84-3.93,8.67-6.11c3.42-2.62,6.7-5.44,9.72-8.44c2.15-2.14,4.16-4.37,5.98-6.68
		c2.56-3.25,4.72-6.67,6.35-10.24c1.17-2.57,2.07-5.21,2.63-7.93c0.03-0.18,0.07-0.35,0.1-0.53c0.05-0.29,0.11-0.58,0.16-0.87
		c0.58-3.58,0.89-7.26,0.89-11c0-0.89-0.02-1.77-0.05-2.64c-0.01-0.29-0.03-0.58-0.05-0.87c-0.03-0.59-0.06-1.17-0.11-1.76
		c-0.03-0.34-0.06-0.67-0.09-1.01c-0.05-0.53-0.1-1.06-0.16-1.59c-0.04-0.35-0.09-0.7-0.13-1.05c-0.03-0.2-0.06-0.41-0.09-0.61
		c0.31,3.83,0.28,7.52-0.39,11.3c-0.48,2.73-1.3,5.51-2.56,8.42c-1.43,3.31-3.44,6.8-6.18,10.59c-1.6,2.21-3.46,4.53-5.6,6.98
		c-0.24,0.27-0.49,0.55-0.73,0.82c-2.8,3.1-6.1,6.2-9.65,9.2c-2.71,2.3-5.57,4.54-8.47,6.7c-3.47,2.59-6.99,5.05-10.37,7.34
		c-2.7,1.82-5.3,3.52-7.73,5.08c-2.55,1.64-4.91,3.12-6.94,4.39c-0.31,0.2-0.61,0.39-0.91,0.57c-2.15,1.35-3.66,2.33-4.75,3.05
		c-2.25,1.5-2.67,1.92-3.15,2.45c-0.02,0.02-0.04,0.04-0.06,0.07c0.11,0.12,0.24,0.28,0.35,0.39l0,0l0,0
		C112.86,180.26,113.75,180.02,114.93,179.65z M93.13,177.57c-0.52-0.15-1.03-0.31-1.54-0.47c-0.07-0.02-0.14-0.04-0.2-0.06
		c0.17,0.05,0.33,0.11,0.5,0.16c-0.05-0.02-0.1-0.03-0.15-0.04l0.26,0.08c0.1,0.03,0.21,0.06,0.31,0.1l0.51,0.16
		c0.05,0.01,0.1,0.02,0.14,0.04c0.03,0.01,0.07,0.02,0.1,0.03c0.15,0.04,0.3,0.09,0.45,0.13c-0.13-0.04-0.25-0.08-0.38-0.12
		L93.13,177.57z M110.8,44.7c-0.02,0-0.03,0-0.05,0c-0.28,0.01-0.55,0.01-0.83,0.02c0.12,0,0.24-0.01,0.36-0.01
		c-1.22,0.02-2.49,0.07-3.54,0.19c-0.03,0-0.07,0.01-0.1,0.01c0.06-0.01,0.12-0.01,0.19-0.02c-0.08,0.01-0.16,0.02-0.24,0.02
		c-0.25,0.02-0.51,0.05-0.76,0.07c0,0-0.01,0-0.01,0c-0.38,0.04-0.77,0.07-1.15,0.11c-0.09,0.01-0.17,0.02-0.26,0.03
		c-0.1,0.01-0.19,0.02-0.29,0.03c-0.06,0.01-0.11,0.01-0.17,0.02c0.06-0.01,0.11-0.01,0.17-0.02c-0.76,0.09-1.52,0.19-2.27,0.31
		c-0.07,0.01-0.15,0.03-0.22,0.04c-0.09,0.02-0.18,0.03-0.27,0.04c0.03,0,0.05-0.01,0.08-0.01c0.03-0.01,0.07-0.01,0.1-0.02
		c-0.22,0.04-0.44,0.08-0.66,0.12c-0.15,0.03-0.29,0.05-0.44,0.08c-0.31,0.06-0.62,0.1-0.92,0.16c-0.17,0.03-0.34,0.06-0.5,0.1
		l-0.01,0c-0.07,0.01-0.14,0.03-0.21,0.04c-0.67,0.14-1.33,0.28-1.99,0.43c-0.11,0.03-0.23,0.06-0.34,0.08
		c-0.11,0.03-0.23,0.05-0.34,0.08c-0.03,0.01-0.07,0.02-0.11,0.03c-0.24,0.06-0.49,0.12-0.73,0.18c-0.12,0.03-0.24,0.06-0.36,0.09
		c-0.13,0.03-0.25,0.07-0.38,0.1c-0.17,0.04-0.34,0.09-0.51,0.14c-0.08,0.02-0.16,0.04-0.23,0.07c-0.23,0.07-0.46,0.13-0.7,0.2
		c-0.02,0.01-0.04,0.01-0.07,0.02c-0.54,0.16-1.1,0.33-1.68,0.52c-0.01,0-0.03,0.01-0.04,0.01c-0.14,0.05-0.29,0.1-0.44,0.14
		c0.03-0.01,0.07-0.02,0.1-0.03c0.03-0.01,0.06-0.02,0.09-0.03c0.11-0.04,0.22-0.07,0.33-0.11c0.14-0.05,0.29-0.1,0.43-0.14
		c0.1-0.03,0.21-0.06,0.32-0.09c0.81-0.23,1.64-0.46,2.51-0.69c0.45-0.12,0.91-0.24,1.38-0.35c0.8-0.2,1.64-0.39,2.52-0.58
		c2.16-0.45,4.57-0.85,7.38-1.11c0.33-0.03,0.66-0.06,1-0.09c1.15-0.09,2.35-0.16,3.64-0.2c0.03,0,0.05,0,0.08,0
		c0.02,0,0.04,0,0.07,0c0.52-0.01,1.05-0.03,1.59-0.04c-0.49,0-0.97,0.02-1.46,0.03C110.83,44.7,110.82,44.7,110.8,44.7z
		 M93.99,47.18c-0.03,0.01-0.05,0.02-0.08,0.02c-0.4,0.11-0.79,0.23-1.19,0.35c-0.28,0.08-0.57,0.16-0.85,0.25
		c0.54-0.17,1.09-0.33,1.63-0.49c0.06-0.02,0.11-0.03,0.17-0.05c0.02-0.01,0.04-0.01,0.07-0.02c0.1-0.03,0.19-0.05,0.29-0.08
		C94.02,47.17,94.01,47.17,93.99,47.18z M96.36,46.57c-0.22,0.05-0.44,0.11-0.66,0.17c-0.15,0.04-0.3,0.08-0.45,0.11
		c-0.26,0.07-0.52,0.13-0.77,0.2c0.47-0.13,0.94-0.25,1.41-0.37c0.02,0,0.03-0.01,0.05-0.01c0.13-0.03,0.26-0.06,0.39-0.09
		c0.03-0.01,0.06-0.02,0.1-0.02C96.4,46.55,96.38,46.56,96.36,46.57z M108.69,44.78c-0.56,0.03-1.11,0.05-1.66,0.1
		c0.76-0.06,1.52-0.1,2.28-0.13c0.02,0,0.04,0,0.06,0C109.13,44.75,108.91,44.77,108.69,44.78z M101.62,179.49
		c0.03,0.01,0.07,0.01,0.1,0.02c0.03,0,0.07,0.01,0.1,0.01c0.07,0.01,0.13,0.02,0.2,0.03c-0.11-0.02-0.21-0.03-0.32-0.04
		C101.68,179.49,101.65,179.49,101.62,179.49z"/>
</g>
</svg>
