<?xml version="1.0" encoding="utf-8"?>
<!-- Generator: Adobe Illustrator 26.2.1, SVG Export Plug-In . SVG Version: 6.00 Build 0)  -->
<svg version="1.1" xmlns="http://www.w3.org/2000/svg" xmlns:xlink="http://www.w3.org/1999/xlink" x="0px" y="0px"
	 viewBox="0 0 225 225" style="enable-background:new 0 0 225 225;" xml:space="preserve">
<style type="text/css">
	.st0{display:none;}
	.st1{display:inline;fill:#FAB433;}
	.st2{fill:none;}
	.st3{fill:none;stroke:#000000;stroke-width:1.6;stroke-miterlimit:10;}
	.st4{fill:none;stroke:#000000;stroke-width:0.7265;stroke-miterlimit:10;}
	.st5{fill:none;stroke:#000000;stroke-linecap:round;stroke-linejoin:round;stroke-miterlimit:10;}
	.st6{fill:none;stroke:#000000;stroke-miterlimit:10;}
	.st7{fill:none;stroke:#000000;stroke-width:0.7105;stroke-miterlimit:10;}
	.st8{fill:none;stroke:#000000;stroke-width:5.4;stroke-linecap:round;stroke-linejoin:round;stroke-miterlimit:10;}
	.st9{fill:none;stroke:#000000;stroke-width:2.9309;stroke-linecap:round;stroke-linejoin:round;stroke-miterlimit:10;}
	.st10{fill:none;stroke:#000000;stroke-width:0.5;stroke-linecap:round;stroke-linejoin:round;}
	.st11{fill:none;stroke:#FFFFFF;stroke-width:0;stroke-linecap:round;stroke-linejoin:round;}
	.st12{fill:#FFFFFF;}
	.st13{fill:none;stroke:#000000;stroke-width:1.4;stroke-miterlimit:10;}
	.st14{fill:url(#);stroke:#000000;stroke-width:1.4387;stroke-miterlimit:10;}
	.st15{fill:url(#);stroke:#000000;stroke-width:1.3718;stroke-miterlimit:10;}
	.st16{fill:none;stroke:#000000;stroke-width:1.0041;stroke-miterlimit:10;}
	.st17{fill:none;stroke:#000000;stroke-width:1.3621;stroke-miterlimit:10;}
	.st18{fill:none;stroke:#000000;stroke-width:0.25;stroke-miterlimit:10;}
</style>
<g id="Layer_2" class="st0">
	<rect id="XMLID_1_" x="-590.99" y="-520.01" class="st1" width="1160" height="772"/>
</g>
<g id="Layer_1">
	<path id="XMLID_14381_" d="M138.49,173.95c-4.91,1.68-10.05,2.83-15.29,3.45c-10.42,1.23-21.21,0.38-31.32-2.47
		c-4.96-1.4-9.75-3.28-14.26-5.63c-3.24-1.69-6.33-3.62-9.23-5.79c-0.95-0.71-1.88-1.46-2.79-2.23c10.99,10.57,25.17,17,40.04,18.52
		c2.39,0.23,4.79,0.35,7.19,0.35c0.27,0,0.54,0,0.81,0c0.13,0,0.26-0.01,0.39-0.01c10.3-0.23,20.7-2.82,30.39-8.01
		c2.15-1.15,4.21-2.41,6.19-3.75c-0.87,0.52-1.75,1.02-2.64,1.49C144.94,171.46,141.77,172.83,138.49,173.95z M171.27,144.89
		c-0.61,0.81-1.25,1.59-1.9,2.36c-1.67,1.96-3.51,3.79-5.49,5.48c-2.23,1.91-4.65,3.64-7.21,5.2c-2.38,1.45-4.88,2.75-7.49,3.91
		c-2.87,1.27-5.85,2.36-8.94,3.28c-3,0.89-6.09,1.62-9.25,2.18c-3.87,0.68-7.83,1.11-11.82,1.29c-7.2,0.32-14.51-0.18-21.59-1.5
		c-4.17-0.78-8.27-1.84-12.22-3.18c-3.09-1.05-6.1-2.28-8.98-3.68c-3.16-1.53-6.18-3.28-9.01-5.23c-2.32-1.6-4.53-3.34-6.57-5.23
		c-2.34-2.15-4.48-4.49-6.4-7.01c-1.58-2.07-2.99-4.27-4.23-6.59c-1.25-2.33-2.33-4.78-3.2-7.36c-0.19-0.57-0.37-1.14-0.55-1.72
		c1.31,5.92,3.44,11.76,6.44,17.37c0.7,1.31,1.44,2.58,2.22,3.82c0.81,1.09,1.66,2.14,2.55,3.16c1.97,2.24,4.14,4.31,6.48,6.23
		c2.33,1.91,4.83,3.65,7.48,5.23c3.24,1.94,6.69,3.63,10.3,5.08c3.96,1.58,8.1,2.87,12.35,3.84c9.33,2.12,19.18,2.73,28.73,1.77
		c4.07-0.41,8.09-1.1,11.99-2.09c3.59-0.91,7.08-2.06,10.43-3.46c2.8-1.18,5.5-2.53,8.06-4.06c2.74-1.63,5.32-3.47,7.72-5.51
		c1.84-1.56,3.57-3.24,5.18-5.04c3.02-3.98,5.57-8.27,7.62-12.76c-0.02,0.04-0.04,0.07-0.06,0.11
		C172.78,142.79,171.73,144.27,171.27,144.89z M50.91,105.59c0.81,2.82,1.88,5.36,3.02,7.54c1.36,2.62,2.82,4.74,3.98,6.26
		c0.03,0.04,0.06,0.08,0.09,0.11c1.82,2.37,3.89,4.57,6.16,6.6c2.07,1.86,4.31,3.58,6.69,5.15c0.35,0.23,0.72,0.46,1.08,0.69
		c2.47,1.56,5.08,2.98,7.81,4.25c3.09,1.44,6.33,2.68,9.67,3.73c4.27,1.34,8.71,2.37,13.23,3.08c3.29,0.51,6.62,0.85,9.96,1.03
		c6.2,0.32,12.42,0.04,18.42-0.85c4.55-0.67,8.98-1.69,13.19-3.05c3.27-1.06,6.41-2.33,9.36-3.82c2.86-1.44,5.56-3.08,8.04-4.93
		c2.17-1.61,4.18-3.38,6-5.3c1.85-1.95,3.49-4.07,4.91-6.35c1.3-2.08,2.41-4.3,3.31-6.65c0.88-2.31,1.56-4.75,2.01-7.33
		c0.18-1,0.33-2.02,0.44-3.06c0,0,0-0.01,0-0.01c0,0,0,0,0,0c0.04-0.96,0.04-1.83,0.01-2.63c-0.1-2.77-0.59-4.79-1.35-7.66
		c-0.14-0.45-0.27-0.89-0.41-1.32c0.07,0.19,0.15,0.39,0.21,0.58c-0.11-0.32-0.22-0.63-0.34-0.94c0.02,0.06,0.04,0.11,0.06,0.17
		c-0.07-0.18-0.13-0.36-0.2-0.54c-0.3-0.81-0.63-1.65-0.97-2.5c-0.44-1.1-0.89-2.18-1.3-3.17c-0.03-0.08-0.06-0.15-0.09-0.23
		c0.13,0.28,0.25,0.56,0.38,0.84c0.34,0.75,0.66,1.48,0.93,2.16c0.13,0.33,0.27,0.69,0.42,1.07c-0.54-1.42-1.26-3.18-1.9-4.48
		c-0.13-0.26-0.26-0.53-0.4-0.81c-0.29-0.59-0.61-1.2-0.94-1.83c-0.1-0.19-0.19-0.38-0.29-0.56c-0.18-0.35-0.35-0.68-0.52-1
		c-0.07-0.13-0.14-0.26-0.2-0.39c-0.42-0.8-0.98-1.71-1.54-2.6c-0.38-0.62-0.78-1.24-1.2-1.87c0.33,0.5,0.66,1.02,1,1.55
		c0.18,0.29,0.37,0.6,0.55,0.9c0.23,0.39,0.47,0.8,0.71,1.23c0.26,0.46,0.52,0.93,0.78,1.41c0.14,0.27,0.29,0.53,0.43,0.8
		c0.82,1.66,1.44,3.21,1.89,4.67c0.91,2.93,1.19,5.49,1.29,7.77c0.04,0.94,0.05,1.84,0.05,2.69c0.01,0.02,0.02,0.04,0.03,0.06
		c-0.01-0.02-0.02-0.05-0.04-0.07v0c-0.09,1.21-0.25,2.4-0.47,3.56c-0.47,2.46-1.21,4.81-2.19,7.04c-1.02,2.33-2.3,4.53-3.82,6.6
		c-1.58,2.16-3.41,4.18-5.45,6.04c-2.14,1.96-4.52,3.75-7.08,5.38c-2.9,1.84-6.03,3.45-9.34,4.84c-4.13,1.73-8.51,3.1-13.03,4.09
		c-5.47,1.2-11.12,1.84-16.74,1.9c-0.99,0.01-1.98,0-2.97-0.02c-5.26-0.14-10.35-0.75-15.18-1.76c-4.45-0.94-8.7-2.22-12.68-3.8
		c-3.62-1.44-7.02-3.12-10.16-5.01c-1.45-0.87-2.84-1.79-4.18-2.75c-1.1-0.79-2.16-1.61-3.17-2.45c-2.43-2.02-4.63-4.19-6.54-6.49
		c-1.69-2.02-3.15-4.14-4.38-6.34c-1.35-2.41-2.42-4.92-3.16-7.49c-0.7-2.41-1.11-4.87-1.24-7.37c-0.13-2.76,0.1-5.56,0.73-8.39
		c0.59-2.65,1.53-5.31,2.85-7.97c1.12-2.27,2.52-4.53,4.2-6.78c1.61-2.15,3.48-4.28,5.63-6.38c-4.97,4.51-9.17,9.68-12.52,15.3
		c-0.83,1.49-1.54,2.97-2.13,4.42c-1.17,2.85-1.93,5.61-2.36,8.26c-0.43,2.7-0.52,5.28-0.36,7.72
		C49.78,100.8,50.26,103.29,50.91,105.59z M180.12,112.03c-0.01-0.43-0.03-0.88-0.05-1.33c-0.03-0.54-0.06-1.09-0.09-1.63
		c-0.04-0.6-0.08-1.18-0.11-1.75c0.04,1,0.04,2.08,0.07,2.96v0c-0.08,0.9-0.18,1.8-0.32,2.68c-0.38,2.55-1,5.01-1.85,7.36
		c-0.81,2.25-1.83,4.41-3.07,6.47c-1.33,2.23-2.9,4.35-4.72,6.35c-1.64,1.81-3.47,3.52-5.5,5.15c-2.24,1.79-4.72,3.47-7.44,5.04
		c-0.45,0.26-0.91,0.52-1.38,0.77c-2.09,1.14-4.24,2.17-6.43,3.09c-3.18,1.34-6.46,2.46-9.8,3.36c-3.56,0.96-7.19,1.68-10.86,2.16
		c-8.05,1.06-16.27,1.01-24.23-0.05c-2.7-0.36-5.36-0.83-7.99-1.41c-0.83-0.18-1.66-0.38-2.48-0.59c-3.39-0.85-6.7-1.89-9.89-3.1
		c-1.11-0.42-2.2-0.86-3.28-1.33c-1.79-0.77-3.54-1.6-5.24-2.48c-2.91-1.51-5.67-3.18-8.25-5.01c-2.24-1.58-4.34-3.28-6.27-5.09
		c-2.25-2.1-4.29-4.34-6.07-6.72c-1.51-2.01-2.84-4.12-3.96-6.33c-1.23-2.4-2.21-4.91-2.93-7.52c-0.71-2.57-1.16-5.24-1.32-7.99
		c-0.15-2.46-0.06-5,0.27-7.6c0.21-1.62,0.51-3.27,0.92-4.95c-1.8,5.84-2.82,11.92-3,18.08c0.03,0.87,0.08,1.73,0.16,2.58
		c0.27,2.71,0.81,5.37,1.64,7.98c0.76,2.38,1.76,4.72,2.99,7.01c0.86,1.6,1.82,3.17,2.9,4.72c0.35,0.5,0.72,0.99,1.09,1.48
		c1.86,2.47,3.91,4.76,6.14,6.88c1.94,1.85,4.01,3.56,6.18,5.14c2.62,1.9,5.39,3.6,8.29,5.12c2.66,1.39,5.42,2.63,8.26,3.7
		c3.11,1.18,6.31,2.17,9.58,2.99c3.16,0.79,6.38,1.41,9.63,1.85c10.38,1.43,21.05,1.14,31.06-0.77c0.34-0.06,0.68-0.13,1.02-0.2
		l0.01,0c0.08-0.02,0.15-0.03,0.23-0.05c2.66-0.54,5.26-1.2,7.8-1.97c3.09-0.94,6.07-2.05,8.93-3.32c2.62-1.17,5.12-2.48,7.49-3.92
		c2.49-1.52,4.83-3.19,6.99-5.02c1.99-1.68,3.82-3.48,5.46-5.4c1.72-2.02,3.24-4.18,4.53-6.47c1.18-2.09,2.19-4.29,2.97-6.59
		c0.56-1.63,0.99-3.32,1.33-5.05c0.04-0.3,0.08-0.6,0.11-0.89c0.08-0.79,0.15-1.58,0.22-2.36c0.02-0.23,0.04-0.47,0.06-0.7
		c0,0.05,0,0.1,0,0.16v0l0,0c0.01-0.11,0.02-0.22,0.03-0.32c0.1-1.44,0.16-2.88,0.17-4.33C180.13,112.6,180.12,112.32,180.12,112.03
		z M114.98,44.91c-0.16-0.01-0.32-0.01-0.48-0.01c-0.35-0.01-0.7-0.02-1.04-0.03c0.57,0.01,1.13,0.02,1.7,0.05
		C115.1,44.91,115.04,44.91,114.98,44.91z M60.47,76.74c-0.73,2.77-1.04,5.62-0.94,8.48c0.09,2.48,0.5,4.97,1.24,7.46
		c0.76,2.53,1.86,5.05,3.33,7.53c0.64,1.08,1.34,2.15,2.12,3.21c0.82,1.12,1.71,2.19,2.65,3.23c2.14,2.36,4.58,4.5,7.24,6.41
		c0.03,0.03,0.07,0.05,0.11,0.07c2.74,1.96,5.72,3.68,8.89,5.16c4.6,2.16,9.58,3.82,14.75,4.98c5.92,1.32,12.08,1.96,18.2,1.93
		c5.75-0.03,11.45-0.65,16.87-1.89c4.8-1.09,9.37-2.67,13.55-4.72c3.16-1.55,6.1-3.38,8.73-5.49c2.29-1.83,4.35-3.87,6.15-6.13
		c1.68-2.11,3.12-4.4,4.28-6.88c1.01-2.16,1.82-4.45,2.4-6.9c0.3-1.26,0.53-2.56,0.7-3.9l0-0.01l0,0c0.02-0.86,0.01-1.68-0.02-2.48
		c-0.11-2.88-0.54-5.42-1.26-7.75c-0.61-1.95-1.42-3.75-2.42-5.5c-1.35-2.35-3.04-4.59-5.03-6.93c-0.03-0.03-0.05-0.06-0.08-0.1
		c0.23,0.24,0.46,0.49,0.68,0.73c0.08,0.08,0.15,0.16,0.23,0.24c-0.3-0.32-0.62-0.67-0.96-1.04c-0.19-0.2-0.38-0.41-0.58-0.61
		c-0.05-0.05-0.1-0.1-0.15-0.16c0.03,0.03,0.06,0.06,0.09,0.09l-1.68-1.72c0.31,0.3,0.62,0.6,0.92,0.89
		c-0.81-0.84-1.78-1.75-2.72-2.59c-0.08-0.07-0.16-0.14-0.23-0.21c-0.76-0.69-1.53-1.36-2.23-1.91c-0.12-0.1-0.23-0.19-0.36-0.29
		c-0.48-0.39-0.99-0.8-1.5-1.18c-0.3-0.23-0.6-0.45-0.89-0.67c-0.14-0.1-0.27-0.2-0.4-0.3c0.08,0.06,0.15,0.11,0.23,0.17
		c0.13,0.1,0.26,0.2,0.4,0.3c0.06,0.04,0.12,0.09,0.17,0.13c0.23,0.18,0.47,0.36,0.7,0.54c0.32,0.25,0.63,0.5,0.94,0.75
		c0.1,0.08,0.19,0.16,0.29,0.24c-0.67-0.53-1.48-1.15-2.53-1.95c-0.24-0.18-0.49-0.38-0.76-0.58l-0.99-0.67l-0.48-0.32
		c-0.23-0.15-0.47-0.31-0.71-0.47c0.11,0.08,0.22,0.15,0.32,0.23c2.53,1.8,4.67,3.59,6.46,5.35c2.27,2.23,3.99,4.43,5.29,6.59
		c1.11,1.85,1.92,3.66,2.5,5.43c0.89,2.74,1.23,5.37,1.32,7.88c0.02,0.74,0.03,1.46,0.01,2.17c0,0,0,0,0,0l0,0
		c-0.13,1.51-0.38,2.99-0.77,4.43c-0.62,2.37-1.58,4.64-2.83,6.79c-1.41,2.42-3.19,4.69-5.29,6.77c-1.19,1.18-2.49,2.3-3.87,3.36
		c-1.25,0.95-2.58,1.85-3.97,2.69c-3.75,2.27-8,4.13-12.61,5.5c-6.39,1.9-13.48,2.86-20.9,2.67c-0.11,0-0.22-0.01-0.34-0.01
		c-1.16-0.04-2.32-0.09-3.49-0.19c-4.94-0.38-9.57-1.24-13.84-2.48c-4.53-1.32-8.65-3.08-12.31-5.18c-0.64-0.37-1.27-0.74-1.88-1.13
		c-2.58-1.63-4.91-3.45-6.95-5.4c-2.11-2.01-3.92-4.17-5.42-6.43c-1.59-2.41-2.81-4.94-3.64-7.53c-0.79-2.48-1.22-5.01-1.27-7.57
		c-0.05-2.87,0.4-5.77,1.36-8.62c0.79-2.31,1.92-4.6,3.42-6.82c1.62-2.4,3.66-4.73,6.15-6.95c0.21-0.18,0.42-0.36,0.63-0.53
		c2.97-2.54,6.24-4.64,9.69-6.34c13.49-6.62,29.83-7.03,42.59-2.66c3.37,1.15,6.48,2.65,9.23,4.45c2.86,1.87,5.31,4.06,7.24,6.57
		c1.29,1.68,2.34,3.5,3.11,5.44c0.99,2.5,1.53,5.2,1.51,8.1c0,0.43-0.02,0.86-0.04,1.29l-0.01,0l0,0c-0.23,1.84-0.73,3.6-1.48,5.28
		c-0.57,1.29-1.28,2.52-2.13,3.7c-0.83,1.16-1.78,2.26-2.85,3.3c-2.76,2.69-6.26,4.92-10.26,6.59c-7.27,3.04-16.18,4.2-25.27,2.71
		c-0.81-0.13-1.61-0.29-2.39-0.45c-2.66-0.58-5.12-1.37-7.39-2.34c-3.87-1.66-7.14-3.82-9.73-6.31c-2.41-2.32-4.23-4.92-5.39-7.64
		c-1.05-2.47-1.56-5.04-1.48-7.59c0.1-2.99,1-5.96,2.79-8.73c1.51-2.32,3.63-4.5,6.43-6.44c0.04-0.03,0.09-0.06,0.14-0.09
		c10.53-7.17,24.79-7.04,33.48-2.19c2.51,1.4,4.55,3.19,5.91,5.32c1.48,2.32,2.13,5.03,1.68,8.05c-0.02,0.11-0.03,0.23-0.05,0.34h0
		l0,0c-0.3,1.02-0.85,2.91-2.73,4.9c-0.45,0.47-0.93,0.9-1.42,1.31c-0.65,0.53-1.34,1.01-2.06,1.43c-2.68,1.56-5.78,2.35-8.87,2.5
		c-5.14,0.25-10.23-1.26-13.32-3.92c-1.24-1.06-2.15-2.31-2.62-3.7c2.25,1.42,5.26,2.28,8.57,2.28c6.98,0,12.63-3.85,12.63-8.6
		c0-0.22-0.02-0.44-0.04-0.66c-0.01-0.05-0.01-0.11-0.02-0.16c0-0.03-0.01-0.06-0.01-0.09c-0.11-0.83-0.41-1.64-0.9-2.41
		c-1.91-3.1-6.41-5.29-11.66-5.29c-1.43,0-2.79,0.16-4.08,0.46c-3.38,0.56-6.47,1.89-8.91,3.77c-3.01,2.31-5.03,5.44-5.38,8.93
		c-0.24,2.37,0.29,4.91,1.81,7.48c0.19,0.32,0.39,0.64,0.61,0.96c1.96,2.85,4.78,5.08,8.09,6.68c2.23,1.08,4.69,1.88,7.24,2.39
		c7.15,1.42,15.12,0.6,21.39-2.57c2.92-1.47,5.47-3.45,7.39-5.94c0.34-0.44,0.66-0.9,0.96-1.37c1.08-1.7,1.89-3.6,2.36-5.71l0,0h0
		c0.04-0.26,0.07-0.52,0.1-0.78c0.28-2.8-0.29-5.55-1.59-8.1c-1-1.96-2.43-3.81-4.22-5.48c-3.14-2.92-7.41-5.29-12.48-6.78
		c-0.94-0.28-1.91-0.52-2.9-0.74c-11.39-2.43-21.59-0.74-29.5,3.33c-4.03,2.07-7.45,4.76-10.15,7.84c-1.76,2.01-3.21,4.19-4.29,6.47
		c-1.35,2.84-2.16,5.83-2.33,8.86c-0.15,2.6,0.17,5.23,1,7.8c0.66,2.04,1.63,4.04,2.95,5.97c0.39,0.56,0.8,1.11,1.23,1.65
		c1.9,2.39,4.16,4.52,6.72,6.36c3.92,2.83,8.5,5.01,13.43,6.53c2.5,0.77,5.08,1.38,7.71,1.81c9.19,1.51,18.94,0.92,27.43-1.85
		c4.46-1.45,8.57-3.51,12.08-6.18c1.98-1.51,3.76-3.21,5.31-5.11c0.45-0.56,0.87-1.13,1.28-1.72c1.45-2.09,2.63-4.4,3.48-6.92
		c0.51-1.52,0.91-3.12,1.18-4.8v0l0,0c0.03-0.58,0.03-1.16,0.02-1.74c-0.04-2.81-0.52-5.49-1.42-8.02c-0.67-1.9-1.58-3.72-2.72-5.44
		c-1.53-2.32-3.46-4.46-5.78-6.41c-2.21-1.85-4.76-3.54-7.65-5.03c-4.28-2.21-9.27-4-14.95-5.33c-0.01,0-0.02-0.01-0.03-0.01
		c0.07,0.01,0.15,0.03,0.22,0.04c0.18,0.04,0.36,0.07,0.55,0.11c0.35,0.07,0.69,0.15,1.02,0.22c0.12,0.03,0.23,0.05,0.35,0.08
		c0.02,0,0.04,0.01,0.06,0.01c0.08,0.02,0.17,0.04,0.26,0.06c-0.03-0.01-0.05-0.01-0.08-0.02c-0.35-0.09-0.74-0.18-1.15-0.27
		c-0.88-0.19-1.77-0.37-2.67-0.53c-0.06-0.01-0.12-0.02-0.18-0.03l-0.01,0c0.31,0.06,0.64,0.12,0.99,0.19
		c0.04,0.01,0.07,0.01,0.11,0.02c-0.07-0.01-0.14-0.03-0.22-0.04c-0.66-0.12-1.38-0.23-2.1-0.34c-0.65-0.1-1.3-0.2-1.9-0.28
		c-0.07-0.01-0.14-0.02-0.21-0.03c-0.16-0.02-0.31-0.04-0.45-0.07c-0.09-0.01-0.17-0.02-0.26-0.03c-0.21-0.02-0.42-0.04-0.63-0.06
		c-0.03,0-0.06,0-0.08-0.01c-0.84-0.07-1.74-0.13-2.65-0.19c-0.67-0.04-1.35-0.08-1.99-0.11c-0.26-0.01-0.52-0.03-0.77-0.04
		c-0.03,0-0.06,0-0.1,0c-0.14-0.01-0.28-0.01-0.42-0.02c-0.12,0-0.24,0-0.36-0.01c-0.06,0-0.12,0-0.18,0
		c-0.24,0-0.48,0.01-0.74,0.02c-0.19,0-0.37,0-0.56,0c-0.98,0.02-1.71,0.03-2.3,0.05c-3.06,0.14-6.12,0.5-9.17,1.06
		c-0.22,0.04-0.46,0.09-0.72,0.14c-0.96,0.19-1.91,0.4-2.87,0.63c-0.8,0.21-1.65,0.45-2.5,0.69c-0.05,0.01-0.09,0.03-0.14,0.04
		c-0.73,0.21-1.46,0.42-2.15,0.63c-2.62,0.85-5.22,1.87-7.77,3.06c-3.35,1.6-6.39,3.43-9.09,5.44c-2.66,1.98-5.01,4.15-7,6.45
		c-1.83,2.1-3.36,4.32-4.61,6.62C62.04,71.97,61.1,74.33,60.47,76.74z M109.66,44.91c-0.1,0-0.2,0.01-0.3,0.01
		c0.11-0.01,0.22-0.01,0.33-0.01C109.68,44.91,109.67,44.91,109.66,44.91z"/>
</g>
</svg>
