<?xml version="1.0" encoding="utf-8"?>
<!-- Generator: Adobe Illustrator 26.2.1, SVG Export Plug-In . SVG Version: 6.00 Build 0)  -->
<svg version="1.1" xmlns="http://www.w3.org/2000/svg" xmlns:xlink="http://www.w3.org/1999/xlink" x="0px" y="0px"
	 viewBox="0 0 225 225" style="enable-background:new 0 0 225 225;" xml:space="preserve">
<style type="text/css">
	.st0{display:none;}
	.st1{display:inline;fill:#FAB433;}
	.st2{fill:none;}
	.st3{fill:none;stroke:#000000;stroke-width:1.6;stroke-miterlimit:10;}
	.st4{fill:none;stroke:#000000;stroke-width:0.7265;stroke-miterlimit:10;}
	.st5{fill:none;stroke:#000000;stroke-linecap:round;stroke-linejoin:round;stroke-miterlimit:10;}
	.st6{fill:none;stroke:#000000;stroke-miterlimit:10;}
	.st7{fill:none;stroke:#000000;stroke-width:0.7105;stroke-miterlimit:10;}
	.st8{fill:none;stroke:#000000;stroke-width:5.4;stroke-linecap:round;stroke-linejoin:round;stroke-miterlimit:10;}
	.st9{fill:none;stroke:#000000;stroke-width:2.9309;stroke-linecap:round;stroke-linejoin:round;stroke-miterlimit:10;}
	.st10{fill:none;stroke:#000000;stroke-width:0.5;stroke-linecap:round;stroke-linejoin:round;}
	.st11{fill:none;stroke:#FFFFFF;stroke-width:0;stroke-linecap:round;stroke-linejoin:round;}
	.st12{fill:#FFFFFF;}
	.st13{fill:none;stroke:#000000;stroke-width:1.4;stroke-miterlimit:10;}
	.st14{fill:url(#);stroke:#000000;stroke-width:1.4387;stroke-miterlimit:10;}
	.st15{fill:url(#);stroke:#000000;stroke-width:1.3718;stroke-miterlimit:10;}
	.st16{fill:none;stroke:#000000;stroke-width:1.0041;stroke-miterlimit:10;}
	.st17{fill:none;stroke:#000000;stroke-width:1.3621;stroke-miterlimit:10;}
	.st18{fill:none;stroke:#000000;stroke-width:0.25;stroke-miterlimit:10;}
</style>
<g id="Layer_2" class="st0">
	<rect id="XMLID_3548_" x="-345.99" y="-275.01" class="st1" width="1160" height="772"/>
</g>
<g id="Layer_1">
	<g id="XMLID_172_">
		<g id="XMLID_210_">
			<path id="XMLID_212_" d="M114.12,43.59c0.03,0.01,0.04,0.01,0.07,0.01c-0.01-0.01-0.03-0.01-0.04,0h-0.08l-0.01-0.01H114.12z"/>
			<path id="XMLID_211_" d="M178.64,134.88c-3.31,9.46-8.77,18.35-15.89,25.69c-7.2,7.27-16.01,12.94-25.49,16.44
				c-8.82,3.29-18.17,4.68-27.19,4.31c-0.27-0.01-0.54-0.03-0.81-0.04c-0.04-0.01-0.08-0.01-0.13-0.01
				c-0.31-0.03-0.65-0.04-1.03-0.06c-0.01,0-0.03-0.01-0.04,0c-0.04,0-0.1,0-0.14-0.01c-0.01,0-0.01,0-0.03,0
				c-0.04,0-0.1-0.01-0.16-0.01c0,0,0,0-0.01,0c-0.13-0.01-0.27-0.01-0.41-0.03c-0.01,0-0.01,0-0.03,0
				c-1.67-0.13-3.32-0.33-4.95-0.58c-0.13-0.03-0.24-0.06-0.37-0.08c-0.24-0.06-0.48-0.11-0.72-0.17c-0.89-0.21-1.85-0.44-2.84-0.72
				c-0.44-0.16-0.89-0.31-1.36-0.47c-0.35-0.13-0.71-0.25-1.07-0.38c-0.42-0.14-0.86-0.28-1.29-0.45c-0.42-0.2-0.85-0.4-1.29-0.59
				c-2.84-1.2-5.81-2.96-8.71-5.23c-0.25-0.18-0.51-0.38-0.75-0.58c-0.45-0.37-0.9-0.75-1.34-1.13c-1.5-1.31-2.97-2.77-4.34-4.4
				c1.12,0.74,2.26,1.44,3.45,2.14c0.61,0.34,1.23,0.68,1.85,1.02c7.3,3.89,15.81,6.57,24.84,7.35c9.02,0.82,18.56-0.24,27.59-3.41
				c9.02-3.14,17.5-8.36,24.52-15.14c6.93-6.87,12.34-15.28,15.69-24.32c3.39-9.03,4.67-18.68,4.03-27.88
				c-0.62-9.2-3.17-17.96-7.01-25.52c-3.85-7.59-8.94-13.97-14.39-19.02c-1.94-1.77-3.9-3.39-5.87-4.85
				c-3.62-2.71-7.3-4.91-10.87-6.52c-0.68-0.33-1.36-0.66-2.01-0.99c-0.68-0.28-1.36-0.52-2.02-0.78c-1.33-0.49-2.6-0.98-3.83-1.44
				c-0.38-0.11-0.76-0.23-1.13-0.34c-2.09-0.61-4.06-1.07-5.83-1.57c-0.37-0.06-0.74-0.13-1.09-0.17c-0.03-0.01-0.07-0.03-0.1-0.03
				c-0.45-0.07-0.88-0.14-1.3-0.2c-0.48-0.08-0.93-0.16-1.39-0.23c-0.37-0.07-0.74-0.13-1.09-0.18c-0.27-0.04-0.54-0.08-0.79-0.13
				c-0.57-0.11-1.12-0.17-1.63-0.2c-0.01,0-0.03-0.01-0.04,0c-0.04-0.01-0.08-0.01-0.11-0.01c-0.09,0-0.16-0.01-0.23-0.01h-0.06
				c-0.1,0-0.18-0.01-0.27-0.01c-0.16-0.01-0.3-0.01-0.44-0.03c-0.08,0-0.17-0.01-0.25-0.01c-0.11,0-0.23-0.01-0.34-0.01
				c-0.06,0-0.13-0.01-0.18-0.01c-0.03,0-0.07,0-0.1-0.01h-0.14c-0.01,0-0.03,0-0.03,0c-0.16-0.01-0.31-0.03-0.47-0.04
				c-0.65-0.04-1.22-0.07-1.68-0.1c-0.07,0-0.13-0.01-0.18-0.01h-0.07c-0.01,0-0.03,0-0.03,0c-0.04-0.01-0.1-0.01-0.14-0.01
				c-0.03,0.01-0.06,0-0.09,0h-0.06c-0.07,0-0.13-0.01-0.18-0.01h-0.1c-0.03-0.01-0.06-0.01-0.08-0.01h-0.16c-0.01,0-0.01,0-0.01,0
				c-0.01,0-0.04-0.01-0.06-0.01s-0.01,0-0.03,0h-0.1c-0.01,0-0.04-0.01-0.06-0.01c0.04-0.01,0.07,0,0.11,0h0.13
				c0.03,0.01,0.07,0.01,0.11,0.01c0.01-0.01,0.04-0.01,0.06,0c0.04-0.01,0.08,0,0.13,0h0.06c0.03,0,0.06,0,0.08,0.01h0.1
				c0.04-0.01,0.07-0.01,0.11,0h0.13c0.03,0,0.04,0,0.07,0.01h0.13c0.01-0.01,0.01-0.01,0.03,0c0.07,0,0.16,0.01,0.23,0.01
				c0.13,0,0.25,0,0.38,0.01h0.17c0.06,0.01,0.13,0.01,0.18,0.01h0.14c0.07,0,0.16,0.01,0.23,0.01c0.07,0,0.16,0.01,0.23,0
				c0.07,0,0.16,0.01,0.23,0.01h0.07c0.08,0.01,0.18,0.01,0.28,0.01h0.01c0.08,0,0.18,0.01,0.28,0.01h0.06
				c0.07,0.01,0.14,0.01,0.21,0.01c0.01-0.01,0.04,0,0.07,0c0.03-0.01,0.06-0.01,0.08,0c0.04,0.01,0.1,0.01,0.14,0.01
				c0,0,0.01-0.01,0.01,0h0.18c0.07,0,0.13,0,0.2,0.01c0.1,0,0.2,0.01,0.3,0.01h0.23c0.06,0.01,0.11,0.01,0.17,0.01
				c0.01-0.01,0.03-0.01,0.04,0h0.01c0.28,0,0.57,0.03,0.86,0.06c0.35,0.01,0.71,0.06,1.07,0.11c1.68,0.24,3.62,0.52,5.78,0.83
				c2.12,0.54,4.5,1.05,7.04,1.78c1.24,0.44,2.54,0.9,3.89,1.37c0.66,0.25,1.36,0.48,2.05,0.75c0.66,0.31,1.34,0.64,2.04,0.96
				c5.63,2.4,11.52,6.18,17.16,11.16c5.64,5.01,10.96,11.4,15.03,19.07c4.09,7.65,6.89,16.57,7.72,26.04
				C183.08,115.42,181.96,125.42,178.64,134.88z"/>
		</g>
		<g id="XMLID_207_">
			<path id="XMLID_209_" d="M113.62,43.58c0,0,0.09,0,0.25,0.01h-0.04c0,0-0.01,0-0.03,0h-0.01
				C113.68,43.58,113.62,43.58,113.62,43.58z"/>
			<path id="XMLID_208_" d="M174.65,129.19c-3.1,8.89-8.23,17.24-14.9,24.14c-6.76,6.82-15.03,12.16-23.92,15.45
				c-8.91,3.34-18.4,4.6-27.44,3.96c-9.06-0.59-17.67-3.11-25.13-6.9c-2.38-1.2-4.62-2.53-6.76-3.96c-0.96-0.64-1.91-1.3-2.81-1.98
				c-0.21-0.35-0.41-0.71-0.61-1.06c-1.64-3.04-2.97-6.39-3.85-9.97c0.81,0.86,1.64,1.73,2.52,2.57c3.87,3.76,8.47,7.24,13.76,10.05
				c6.83,3.66,14.78,6.17,23.23,6.91c8.44,0.76,17.36-0.23,25.8-3.18c8.44-2.93,16.39-7.8,22.95-14.17
				c6.5-6.42,11.58-14.28,14.72-22.75c3.18-8.46,4.38-17.48,3.79-26.1c-0.57-8.62-2.95-16.83-6.55-23.91
				c-3.59-7.11-8.37-13.09-13.48-17.82c-1.57-1.44-3.17-2.79-4.78-4.02c-3.62-2.8-7.32-5.05-10.92-6.66
				c-0.64-0.31-1.26-0.62-1.88-0.93c-0.62-0.27-1.26-0.48-1.88-0.72c-0.41-0.16-0.82-0.31-1.22-0.45c-0.82-0.31-1.61-0.61-2.38-0.9
				c-0.37-0.11-0.72-0.23-1.07-0.31c-1.95-0.58-3.79-1.03-5.46-1.48c-0.35-0.06-0.69-0.11-1.03-0.17c-0.49-0.08-0.98-0.17-1.43-0.24
				c-0.58-0.1-1.15-0.18-1.68-0.28c-0.03,0-0.04-0.01-0.07-0.01c-0.07-0.01-0.14-0.01-0.21-0.03c-0.33-0.06-0.65-0.1-0.96-0.16
				c-0.03-0.01-0.06-0.01-0.08-0.01c-0.33-0.07-0.65-0.1-0.96-0.13c-0.03-0.01-0.06-0.01-0.08-0.01c-0.01,0-0.03-0.01-0.04,0
				c-0.04,0-0.08-0.01-0.11-0.01c-0.09,0-0.16-0.01-0.23-0.01h-0.06c-0.03-0.01-0.07-0.01-0.1-0.01c-0.18-0.01-0.35-0.01-0.52-0.03
				h-0.08c-0.08,0-0.17-0.01-0.25-0.01c-0.06,0-0.11-0.01-0.16-0.01c-0.16,0-0.31-0.01-0.47-0.03h-0.14c-0.01,0-0.03,0-0.03,0
				c-0.08,0-0.17-0.01-0.24-0.01h-0.03c-0.04,0-0.08,0-0.13-0.01h-0.2c-0.03,0-0.06,0-0.07-0.01c-0.01,0-0.01,0-0.01,0h-0.08
				c-0.14,0-0.27-0.01-0.38-0.03c-0.07,0-0.16-0.01-0.23-0.01c-0.03,0-0.07,0-0.1-0.01c-0.1,0-0.2,0-0.3-0.01h-0.04
				c-0.07,0-0.13-0.01-0.18-0.01c-0.06,0-0.1,0-0.16-0.01h-0.13c-0.03,0-0.04,0-0.06-0.01h-0.07c-0.01,0-0.03,0-0.03,0h-0.1
				c-0.01,0-0.03,0-0.04-0.01c-0.03,0.01-0.06,0-0.09,0h-0.16c-0.03-0.01-0.06-0.01-0.08-0.01h-0.18v-0.01h-0.16
				c-0.01,0-0.01,0-0.01,0c-0.01,0-0.04-0.01-0.06-0.01s-0.01,0-0.03,0h-0.1c-0.01,0-0.04-0.01-0.06-0.01
				c-0.01-0.01-0.03-0.01-0.04,0h-0.08c-0.07,0-0.14,0-0.18-0.01h0.33c0.03,0,0.07,0.01,0.1,0.01h0.18c0.01,0,0.01,0,0.03,0
				c0.03,0.01,0.06,0.01,0.09,0.01c0.04-0.01,0.08,0,0.13,0h0.06c0.03,0,0.06,0,0.08,0.01h0.1c0.04-0.01,0.07-0.01,0.11,0h0.13
				c0.03,0,0.04,0,0.07,0.01h0.13c0.01-0.01,0.01-0.01,0.03,0c0.04-0.01,0.07,0,0.11,0h0.14c0.06,0,0.13,0,0.18,0.01
				c0.06,0,0.11,0.01,0.17,0.01h0.27c0.04,0,0.1,0,0.14,0.01h0.08c0.06,0,0.13,0.01,0.2,0c0.08,0.01,0.17,0.01,0.25,0.01
				c0.07,0,0.16,0.01,0.23,0.01h0.07c0.08,0.01,0.18,0.01,0.28,0.01h0.01c0.08,0,0.18,0.01,0.28,0.01h0.06
				c0.03-0.01,0.06-0.01,0.08,0c0.04,0.01,0.08,0.01,0.13,0.01c0.01-0.01,0.04,0,0.07,0c0.03-0.01,0.06-0.01,0.08,0h0.06
				c0.03,0,0.06,0,0.08,0.01c0,0,0.01-0.01,0.01,0h0.18c0.07,0,0.13,0,0.2,0.01h0.23c0.01,0,0.04,0,0.07,0.01h0.35
				c0.01,0,0.03,0,0.04,0.01c0.01-0.01,0.03-0.01,0.04,0h0.01c0.28,0,0.57,0.03,0.86,0.06c0.2,0.03,0.38,0.04,0.58,0.08
				c1.58,0.23,3.39,0.48,5.43,0.78c1.99,0.5,4.21,0.99,6.6,1.67c1.16,0.41,2.38,0.83,3.65,1.29c0.62,0.23,1.27,0.44,1.91,0.69
				c0.64,0.3,1.27,0.59,1.92,0.89c4.06,1.74,8.27,4.24,12.41,7.45c1.24,0.93,2.47,1.94,3.69,3.01c5.29,4.69,10.28,10.69,14.11,17.89
				c3.85,7.17,6.48,15.54,7.25,24.43C178.79,110.94,177.76,120.31,174.65,129.19z"/>
		</g>
		<g id="XMLID_204_">
			<path id="XMLID_206_" d="M113.62,43.58c0,0,0.09,0,0.25,0.01h-0.04c0,0-0.01,0-0.03,0h-0.01
				C113.68,43.58,113.62,43.58,113.62,43.58z"/>
			<path id="XMLID_205_" d="M170.66,123.52c-2.88,8.3-7.68,16.1-13.93,22.55c-6.31,6.39-14.04,11.38-22.35,14.48
				c-8.31,3.12-17.19,4.31-25.66,3.72c-8.47-0.55-16.54-2.9-23.51-6.43c-5.49-2.77-10.29-6.25-14.35-10.05
				c-0.81-0.75-1.58-1.51-2.32-2.29c-0.18-1-0.31-2.02-0.41-3.04c-0.18-1.99-0.24-4.03-0.14-6.07c0.65,0.9,1.34,1.81,2.08,2.71
				c0.51,0.64,1.05,1.26,1.6,1.89c4.14,4.68,9.43,9.11,15.79,12.5c6.35,3.41,13.74,5.74,21.62,6.45c7.86,0.72,16.16-0.2,24.02-2.94
				c7.88-2.73,15.27-7.25,21.39-13.18c6.07-5.98,10.8-13.31,13.73-21.18c2.97-7.89,4.1-16.3,3.55-24.33
				c-0.52-8.05-2.74-15.69-6.09-22.3c-3.34-6.63-7.78-12.23-12.54-16.63c-1.61-1.48-3.24-2.84-4.89-4.09
				c-3.24-2.45-6.53-4.43-9.74-5.88c-0.59-0.3-1.17-0.58-1.75-0.88c-0.59-0.24-1.19-0.45-1.77-0.68c-1.16-0.44-2.28-0.86-3.35-1.27
				c-0.33-0.1-0.65-0.2-0.98-0.28c-0.01,0-0.03,0-0.04-0.01c-1.81-0.52-3.51-0.95-5.06-1.37c-0.3-0.04-0.59-0.1-0.88-0.14
				c-0.58-0.1-1.13-0.2-1.67-0.27c-0.89-0.16-1.71-0.3-2.49-0.42c-0.64-0.11-1.23-0.17-1.78-0.2c-0.08,0-0.17-0.01-0.25-0.01
				c-0.06,0-0.11-0.01-0.16-0.01h-0.18c-0.06,0-0.13-0.01-0.18-0.01c-0.08,0-0.17,0-0.24-0.01c-0.01,0-0.03,0-0.03,0h-0.11
				c-0.04,0-0.08-0.01-0.13-0.01h-0.16c-0.06,0-0.13-0.01-0.2-0.01c-0.03,0-0.06,0-0.07-0.01c-0.01,0-0.01,0-0.01,0h-0.08
				c-0.14,0-0.27-0.01-0.38-0.03h-0.11c-0.04-0.01-0.07-0.01-0.11-0.01h-0.07c-0.06,0-0.11-0.01-0.16-0.01
				c-0.06,0-0.11-0.01-0.17-0.01h-0.04c-0.07,0-0.13-0.01-0.18-0.01h-0.06c-0.08,0-0.16-0.01-0.23-0.01h-0.13
				c-0.01-0.01-0.01-0.01-0.03-0.01h-0.1c-0.06,0-0.11-0.01-0.17-0.01h-0.11c-0.04-0.01-0.1-0.01-0.14-0.01h-0.13
				c-0.01-0.01-0.04-0.01-0.06-0.01h-0.1c-0.01,0-0.01,0-0.01,0c-0.03,0-0.06-0.01-0.08-0.01h-0.17c-0.01-0.01-0.03-0.01-0.03-0.01
				h-0.08c-0.07,0-0.14,0-0.18-0.01h0.33c0.03,0,0.07,0.01,0.1,0.01h0.18c0.01,0,0.01,0,0.03,0c0.01,0.01,0.01,0.01,0.03,0.01
				c0.01-0.01,0.04-0.01,0.06,0c0.04-0.01,0.08,0,0.13,0c0.04,0,0.1,0,0.14,0.01h0.1c0.04-0.01,0.07-0.01,0.11,0
				c0.03,0,0.06,0,0.08,0.01c0.03-0.01,0.07,0,0.11,0h0.13c0.01-0.01,0.01-0.01,0.03,0c0.04-0.01,0.07,0,0.11,0
				c0.04,0,0.07,0.01,0.11,0.01h0.21c0.06,0,0.11,0.01,0.17,0.01h0.17c0.06,0.01,0.13,0.01,0.18,0.01h0.14
				c0.07,0,0.16,0.01,0.23,0.01c0.14,0.01,0.3,0.01,0.45,0.01h0.07c0.08,0.01,0.18,0.01,0.28,0.01h0.01c0.07-0.01,0.13-0.01,0.2,0
				c0.03,0.01,0.06,0.01,0.09,0.01h0.06c0.03-0.01,0.06-0.01,0.08,0c0.01-0.01,0.03,0,0.06,0c0.01-0.01,0.03-0.01,0.06,0h0.1
				c0.03,0,0.04,0,0.07,0.01h0.06c0.04-0.01,0.1,0,0.14,0c0.18,0,0.37,0.01,0.57,0.03c0.1,0,0.2,0,0.3,0.01h0.13
				c0.03,0.01,0.06,0.01,0.08,0.01h0.01c0.31,0.03,0.64,0.06,0.96,0.11c1.47,0.21,3.17,0.45,5.06,0.72
				c1.85,0.47,3.93,0.92,6.15,1.54c0.44,0.16,0.88,0.31,1.33,0.47c0.68,0.24,1.37,0.5,2.08,0.74c0.59,0.21,1.2,0.41,1.8,0.65
				c0.59,0.28,1.19,0.55,1.8,0.83c4.06,1.74,8.3,4.3,12.44,7.59c0.88,0.68,1.74,1.4,2.6,2.16c4.95,4.38,9.61,9.97,13.19,16.7
				c3.59,6.69,6.05,14.51,6.79,22.82C174.52,106.44,173.56,115.21,170.66,123.52z"/>
		</g>
		<g id="XMLID_201_">
			<path id="XMLID_203_" d="M113.79,43.59c-0.11-0.01-0.17-0.01-0.17-0.01s0.07,0,0.21,0.01c0,0-0.01,0-0.03,0H113.79z"/>
			<path id="XMLID_202_" d="M166.67,117.84c-2.67,7.73-7.13,14.99-12.94,21c-5.87,5.95-13.05,10.6-20.8,13.49
				c-7.73,2.91-15.99,4.02-23.88,3.49c-7.89-0.52-15.41-2.7-21.9-5.98c-6.52-3.28-12-7.65-16.33-12.32
				c-0.23-0.25-0.45-0.5-0.66-0.75c-0.72-0.79-1.4-1.6-2.05-2.4c0.23-2.53,0.68-5.06,1.37-7.56c0.57,0.9,1.17,1.82,1.84,2.73
				c1.05,1.47,2.22,2.94,3.48,4.38c3.83,4.33,8.72,8.43,14.61,11.58c5.87,3.15,12.71,5.33,20.01,5.98
				c7.27,0.68,14.96-0.16,22.26-2.7c7.28-2.52,14.15-6.7,19.82-12.19c5.63-5.54,10.01-12.32,12.75-19.63
				c2.74-7.3,3.8-15.1,3.29-22.55c-0.48-7.47-2.53-14.55-5.63-20.69c-3.1-6.16-7.21-11.35-11.64-15.44
				c-1.54-1.41-3.1-2.71-4.67-3.89c-0.13-0.11-0.25-0.21-0.38-0.3c-2.84-2.11-5.71-3.8-8.51-5.08c-0.55-0.28-1.09-0.55-1.63-0.81
				c-0.55-0.24-1.1-0.42-1.64-0.64c-1.07-0.41-2.11-0.81-3.11-1.19c-0.34-0.1-0.66-0.2-0.99-0.3c-0.06,0-0.1-0.03-0.14-0.04
				c-1.61-0.45-3.12-0.83-4.51-1.23c-0.37-0.06-0.72-0.11-1.06-0.17c-0.01,0-0.04-0.01-0.07-0.01c-1.3-0.21-2.49-0.41-3.55-0.58
				c-0.48-0.08-0.95-0.14-1.39-0.16c-0.17-0.01-0.34-0.03-0.5-0.04c-0.06,0-0.13-0.01-0.18-0.01c-0.1,0-0.18-0.01-0.27-0.01h-0.11
				c-0.06,0-0.1-0.01-0.14-0.01h-0.14c-0.06,0-0.13-0.01-0.2-0.01c-0.03,0-0.06,0-0.08-0.01h-0.08c-0.14,0-0.27-0.01-0.38-0.03
				h-0.11c-0.04-0.01-0.07-0.01-0.11-0.01h-0.07c-0.06,0-0.11-0.01-0.16-0.01c-0.06,0-0.11-0.01-0.17-0.01h-0.04
				c-0.07,0-0.13-0.01-0.18-0.01h-0.06c-0.04,0-0.07,0-0.1-0.01h-0.13c-0.03,0-0.04,0-0.06-0.01h-0.07c-0.01,0-0.03,0-0.03,0h-0.1
				c-0.01,0-0.03,0-0.04-0.01c-0.03,0.01-0.06,0-0.09,0h-0.06c-0.07,0-0.13-0.01-0.18-0.01h-0.1c-0.03-0.01-0.06-0.01-0.08-0.01
				h-0.11c-0.04-0.01-0.08-0.01-0.11-0.01c-0.01,0-0.01,0-0.03,0h-0.1c-0.01,0-0.04-0.01-0.06-0.01c-0.01-0.01-0.03-0.01-0.04,0
				h-0.08c-0.07,0-0.14,0-0.18-0.01h0.33c0.03,0,0.07,0.01,0.1,0.01h0.18c0.01,0,0.01,0,0.03,0c0.03,0.01,0.06,0.01,0.09,0.01
				c0.04-0.01,0.08,0,0.13,0h0.17c0.01,0,0.04,0,0.07,0.01c0.04-0.01,0.07-0.01,0.11,0h0.07c0,0,0,0,0.01,0.01
				c0.03-0.01,0.07,0,0.11,0h0.13c0.01-0.01,0.01-0.01,0.03,0c0.04-0.01,0.07,0,0.11,0c0.04,0,0.07,0.01,0.11,0.01h0.21
				c0.06,0,0.11,0.01,0.17,0.01h0.27c0.03,0,0.06,0.01,0.08,0.01h0.14c0.07,0,0.16,0.01,0.23,0.01c0.07,0,0.16,0.01,0.23,0
				c0.07,0,0.16,0.01,0.23,0.01h0.07c0.08,0.01,0.18,0.01,0.28,0.01h0.01c0.07-0.01,0.13-0.01,0.2,0h0.1c0.01,0,0.03,0,0.04,0.01
				c0.03-0.01,0.06-0.01,0.08,0c0.01-0.01,0.03,0,0.06,0c0.01-0.01,0.03-0.01,0.06,0h0.1c0.03,0,0.04,0,0.07,0.01h0.06
				c0.04-0.01,0.1,0,0.14,0c0.04,0,0.1,0,0.14,0.01c0.14,0,0.28,0,0.42,0.01c0.01,0,0.04,0,0.07,0.01h0.06
				c0.28,0.01,0.57,0.06,0.86,0.1c1.37,0.18,2.94,0.41,4.69,0.66c0.42,0.11,0.88,0.21,1.33,0.33c0.03,0,0.07,0.01,0.1,0.03
				c1.34,0.31,2.79,0.65,4.3,1.07c0.45,0.16,0.92,0.33,1.39,0.5c0.58,0.2,1.17,0.41,1.78,0.62c0.54,0.2,1.1,0.38,1.67,0.59
				c0.54,0.25,1.1,0.52,1.65,0.78c3.69,1.57,7.52,3.86,11.28,6.82c0.92,0.71,1.82,1.46,2.71,2.25c4.6,4.06,8.94,9.25,12.27,15.48
				c3.34,6.24,5.64,13.5,6.32,21.22C170.25,101.96,169.36,110.12,166.67,117.84z"/>
		</g>
		<g id="XMLID_197_">
			<path id="XMLID_200_" d="M113.79,43.59c-0.11-0.01-0.17-0.01-0.17-0.01s0.06,0,0.18,0.01H113.79z"/>
			<path id="XMLID_199_" d="M114.12,43.59c0,0,0.01,0,0.03,0.01h-0.08c-0.07,0-0.14,0-0.18-0.01H114.12z"/>
			<path id="XMLID_198_" d="M162.69,112.15c-2.47,7.15-6.57,13.88-11.95,19.44c-5.42,5.51-12.08,9.83-19.23,12.5
				c-7.17,2.7-14.82,3.73-22.11,3.25c-7.31-0.47-14.27-2.47-20.29-5.53c-6.04-3.03-11.13-7.06-15.14-11.4
				c-0.76-0.83-1.5-1.68-2.19-2.53c-0.68-0.79-1.3-1.6-1.89-2.42c0.13-0.44,0.27-0.86,0.41-1.29c0.58-1.71,1.29-3.39,2.09-5.03
				c0.52,0.9,1.09,1.81,1.73,2.71c1.13,1.67,2.4,3.32,3.83,4.95c3.51,4,8.02,7.78,13.42,10.68c5.39,2.9,11.68,4.91,18.38,5.51
				c6.7,0.62,13.79-0.13,20.49-2.46c6.72-2.3,13.04-6.16,18.27-11.2c5.18-5.09,9.23-11.34,11.76-18.07
				c2.53-6.72,3.52-13.9,3.07-20.77c-0.44-6.87-2.32-13.42-5.17-19.09c-2.86-5.67-6.65-10.46-10.72-14.24
				c-1.2-1.12-2.42-2.15-3.65-3.08c-0.37-0.3-0.74-0.59-1.1-0.86c-2.59-1.89-5.2-3.45-7.75-4.61c-0.51-0.25-1.02-0.51-1.51-0.75
				c-0.5-0.21-1-0.4-1.5-0.59c-0.99-0.37-1.95-0.74-2.87-1.09c-0.35-0.11-0.71-0.21-1.05-0.31c-1.48-0.42-2.88-0.78-4.17-1.15
				c-1.61-0.27-3.05-0.51-4.3-0.71c-0.31-0.06-0.62-0.1-0.9-0.13c-0.17-0.01-0.34-0.03-0.5-0.04c-0.06,0-0.13-0.01-0.18-0.01
				c-0.03,0-0.07,0-0.1-0.01h-0.14c-0.01,0-0.03,0-0.03,0c-0.08,0-0.17-0.01-0.24-0.01h-0.03c-0.04,0-0.08,0-0.13-0.01
				c-0.1,0-0.18,0-0.27-0.01c-0.01,0-0.01,0-0.01,0h-0.08c-0.14,0-0.27-0.01-0.38-0.03h-0.11c-0.04-0.01-0.07-0.01-0.11-0.01h-0.07
				c-0.01,0-0.03-0.01-0.03-0.01h-0.13c-0.06,0-0.11-0.01-0.17-0.01h-0.04c-0.07,0-0.13-0.01-0.18-0.01h-0.06
				c-0.04,0-0.07,0-0.1-0.01h-0.25v-0.01c-0.01,0-0.03,0-0.03,0h-0.1c-0.04,0-0.08-0.01-0.13-0.01h-0.16
				c-0.03-0.01-0.06-0.01-0.08-0.01h-0.18c-0.01-0.01-0.04-0.01-0.06-0.01h-0.1c-0.01,0-0.01,0-0.01,0c-0.01,0-0.04-0.01-0.06-0.01
				s-0.01,0-0.03,0h-0.17c-0.01-0.01-0.03-0.01-0.03-0.01c0.01-0.01,0.03-0.01,0.04,0c0.04-0.01,0.07,0,0.11,0h0.18
				c0.01,0,0.03,0,0.06,0.01c0.01-0.01,0.04-0.01,0.06,0c0.04-0.01,0.08,0,0.13,0h0.17c0.01,0,0.04,0,0.07,0.01
				c0.04-0.01,0.07-0.01,0.11,0h0.33c0.01,0.01,0.01,0.01,0.03,0.01c0.04-0.01,0.07,0,0.11,0h0.14c0.06,0,0.13,0,0.18,0.01h0.23
				c0.04,0,0.07,0.01,0.11,0.01h0.24c0.03,0.01,0.06,0.01,0.08,0.01c0.06,0,0.13,0.01,0.2,0c0.08,0.01,0.17,0.01,0.25,0.01
				c0.07,0,0.16,0.01,0.23,0.01h0.07c0.1,0,0.2,0,0.3,0.01c0.07-0.01,0.13-0.01,0.2,0h0.1c0.01,0,0.03,0,0.04,0.01
				c0.03-0.01,0.06-0.01,0.08,0c0.01-0.01,0.03,0,0.06,0c0.01-0.01,0.03-0.01,0.06,0h0.01c0.01,0,0.04,0,0.07,0.01
				c0.03-0.01,0.06-0.01,0.08,0h0.06c0.04-0.01,0.1,0,0.14,0c0.04,0,0.1,0,0.14,0.01c0.07,0,0.13,0,0.2,0.01
				c0.24,0.01,0.48,0.04,0.72,0.08c1.26,0.17,2.71,0.37,4.34,0.59c0.28,0.07,0.58,0.14,0.88,0.23c0.18,0.04,0.4,0.08,0.59,0.14
				c1.19,0.28,2.47,0.58,3.82,0.96c0.47,0.16,0.95,0.33,1.43,0.49c0.01,0.01,0.03,0.01,0.04,0.01c0.48,0.17,0.96,0.34,1.44,0.51
				c0.51,0.18,1.03,0.35,1.56,0.55c0.5,0.24,1,0.48,1.53,0.72c3.28,1.4,6.7,3.41,10.05,6.01c0.13,0.08,0.25,0.18,0.38,0.3
				c0.83,0.64,1.67,1.33,2.49,2.05c4.26,3.73,8.27,8.54,11.35,14.29c3.1,5.75,5.23,12.47,5.87,19.61
				C165.98,97.48,165.18,105.01,162.69,112.15z"/>
		</g>
		<g id="XMLID_195_">
			<path id="XMLID_196_" d="M158.7,106.48c-2.26,6.57-6.02,12.75-10.96,17.87c-4.98,5.06-11.08,9.03-17.67,11.51
				c-6.59,2.49-13.62,3.45-20.33,3.01c-6.73-0.42-13.14-2.26-18.68-5.06c-5.57-2.79-10.25-6.49-13.96-10.48
				c-0.83-0.9-1.63-1.81-2.36-2.73c-0.66-0.81-1.29-1.63-1.87-2.45c0.95-1.82,2.02-3.58,3.24-5.26c0.52,0.89,1.1,1.8,1.72,2.69
				c0.96,1.4,2.05,2.79,3.24,4.14c3.2,3.65,7.3,7.1,12.23,9.74c4.92,2.66,10.66,4.5,16.77,5.06c6.12,0.58,12.58-0.1,18.72-2.22
				c6.12-2.09,11.91-5.61,16.7-10.21c4.74-4.65,8.46-10.35,10.77-16.5c2.33-6.15,3.24-12.73,2.83-19
				c-0.4-6.29-2.11-12.29-4.72-17.48c-2.59-5.19-6.07-9.59-9.78-13.05c-1.16-1.07-2.33-2.06-3.52-2.97c-0.24-0.2-0.49-0.4-0.75-0.58
				c-2.39-1.78-4.81-3.22-7.18-4.3c-0.47-0.24-0.92-0.47-1.37-0.69c-0.47-0.2-0.93-0.37-1.39-0.54c-0.9-0.35-1.78-0.68-2.62-1
				c-1.72-0.54-3.34-0.93-4.78-1.34c-1.48-0.24-2.8-0.47-3.94-0.65c-0.51-0.1-0.99-0.14-1.43-0.17h-0.04
				c-0.04,0-0.08-0.01-0.13-0.01h-0.03c-0.04,0-0.08,0-0.13-0.01h-0.2c-0.03,0-0.06,0-0.07-0.01c-0.01,0-0.01,0-0.01,0h-0.08
				c-0.14,0-0.27-0.01-0.38-0.03h-0.11c-0.04-0.01-0.07-0.01-0.11-0.01h-0.07c-0.06,0-0.11-0.01-0.16-0.01
				c-0.06,0-0.11-0.01-0.17-0.01h-0.04c-0.08,0-0.17-0.01-0.24-0.01c-0.08,0-0.16-0.01-0.23-0.01h-0.13
				c-0.01-0.01-0.01-0.01-0.03-0.01h-0.1c-0.01,0-0.03,0-0.04-0.01c-0.03,0.01-0.06,0-0.09,0h-0.06c-0.07,0-0.13-0.01-0.18-0.01
				h-0.06c-0.04,0-0.09,0-0.13-0.01h-0.16c-0.01,0-0.01,0-0.01,0c-0.01,0-0.04-0.01-0.06-0.01s-0.01,0-0.03,0h-0.17
				c-0.03,0-0.06,0-0.07-0.01h-0.04c-0.07,0-0.14,0-0.18-0.01h0.33c0.03,0,0.07,0.01,0.1,0.01h0.18c0.01,0,0.01,0,0.03,0h0.1
				c0.08,0.01,0.18,0.01,0.28,0.01h0.14c0.06,0.01,0.11,0.01,0.17,0.01h0.2v0.01c0.01-0.01,0.01-0.01,0.03,0
				c0.04-0.01,0.07,0,0.11,0h0.14c0.06,0,0.13,0,0.18,0.01h0.23c0.07,0,0.14,0,0.21,0.01h0.14c0.08,0.01,0.18,0.01,0.28,0.01h0.35
				c0.25,0,0.52,0.01,0.79,0.04c0.09,0,0.16,0,0.24,0.01h0.1c0.03,0,0.04,0,0.07,0.01h0.06c0.03,0,0.06,0,0.08,0.01
				c0,0,0.01-0.01,0.01,0c0.2,0.01,0.4,0.04,0.61,0.07c0.21,0.03,0.44,0.06,0.66,0.1c0.03,0,0.07,0.01,0.11,0.01
				c0.01-0.01,0.03,0,0.04,0c0.03,0,0.06,0,0.08,0.01c0.31,0.04,0.62,0.08,0.96,0.13c0.03,0,0.06,0,0.08,0.01
				c0.41,0.06,0.83,0.11,1.29,0.17c0.24,0.03,0.49,0.07,0.75,0.1c0.11,0.03,0.23,0.06,0.34,0.08c0.18,0.04,0.37,0.08,0.55,0.13
				c0.24,0.07,0.48,0.13,0.74,0.18c1.02,0.24,2.09,0.5,3.22,0.82c0.42,0.16,0.86,0.3,1.32,0.45c0.04,0.01,0.08,0.04,0.14,0.04
				c0.4,0.16,0.81,0.3,1.22,0.44c0.47,0.17,0.95,0.31,1.41,0.51c0.47,0.21,0.93,0.42,1.41,0.65c3.03,1.29,6.18,3.14,9.29,5.54
				c0.37,0.27,0.74,0.57,1.1,0.86c0.49,0.4,0.98,0.82,1.47,1.24c3.9,3.42,7.59,7.82,10.43,13.11c2.84,5.27,4.81,11.44,5.42,18
				C161.71,92.98,160.98,99.91,158.7,106.48z"/>
		</g>
		<g id="XMLID_193_">
			<path id="XMLID_194_" d="M157.02,88.63c-0.01,0.66-0.07,1.34-0.13,2.01c-0.23,2.53-0.69,5.08-1.39,7.58
				c-0.11,0.44-0.24,0.88-0.38,1.3c-0.13,0.44-0.27,0.86-0.41,1.29c-0.58,1.71-1.29,3.39-2.09,5.03c-0.16,0.34-0.33,0.68-0.51,1
				c-0.95,1.82-2.02,3.58-3.22,5.26c-0.2,0.3-0.41,0.59-0.62,0.88c-1.09,1.46-2.26,2.84-3.52,4.14c-0.07,0.07-0.14,0.14-0.23,0.21
				c-4.5,4.52-9.98,8.09-15.89,10.31c-6,2.29-12.41,3.17-18.55,2.77c-6.15-0.38-12-2.05-17.07-4.6c-5.09-2.54-9.37-5.92-12.77-9.56
				c-0.55-0.59-1.07-1.19-1.57-1.78c-0.69-0.81-1.33-1.63-1.94-2.45c1.09-1.44,2.26-2.83,3.52-4.14c0.07-0.07,0.14-0.14,0.21-0.21
				c0.57,0.88,1.19,1.77,1.85,2.64c0.59,0.78,1.23,1.56,1.89,2.33c2.88,3.29,6.59,6.42,11.04,8.82c4.44,2.42,9.63,4.09,15.16,4.61
				c5.53,0.52,11.38-0.08,16.94-1.99c5.56-1.89,10.79-5.06,15.14-9.22c0.06-0.06,0.13-0.11,0.17-0.18c1.33-1.3,2.56-2.69,3.66-4.16
				c0.3-0.37,0.58-0.74,0.83-1.1c1.16-1.6,2.19-3.28,3.11-5.02c0.21-0.41,0.42-0.83,0.62-1.26c0.51-1.05,0.98-2.13,1.39-3.22
				c0.35-0.93,0.68-1.88,0.95-2.83c0.17-0.54,0.33-1.07,0.45-1.61c0.61-2.4,1-4.84,1.16-7.27c0.07-0.78,0.1-1.54,0.1-2.3
				c0.01-1.07,0-2.15-0.07-3.21c-0.11-1.85-0.35-3.69-0.72-5.47c-0.23-1.26-0.54-2.49-0.9-3.69c-0.68-2.35-1.57-4.6-2.63-6.7
				c-0.65-1.3-1.34-2.53-2.11-3.72c-1.54-2.45-3.31-4.64-5.17-6.57c-0.51-0.55-1.05-1.07-1.58-1.57c-3.39-3.15-6.96-5.57-10.39-7.15
				c-0.42-0.21-0.83-0.41-1.24-0.62c-0.42-0.18-0.85-0.33-1.26-0.5c-0.82-0.31-1.63-0.62-2.39-0.9c-1.56-0.49-3.03-0.86-4.33-1.23
				c-1.34-0.23-2.54-0.42-3.59-0.61c-0.25-0.04-0.51-0.08-0.76-0.1c-0.16-0.01-0.33-0.03-0.49-0.04c-0.06,0-0.13-0.01-0.2-0.01
				c-0.06,0-0.11,0-0.17-0.01c-0.4-0.01-0.74-0.01-1.06-0.06c-0.17-0.01-0.34-0.03-0.51-0.03c-0.17-0.01-0.34-0.03-0.48-0.04
				c-0.07,0-0.13,0-0.18-0.01h-0.08c-0.06,0-0.11-0.01-0.16-0.01c-0.01,0-0.01,0-0.01,0c-0.07,0-0.13-0.01-0.18-0.01h-0.07
				c-0.03,0-0.06,0-0.07-0.01h-0.04c-0.07,0-0.14,0-0.18-0.01h-0.04c0,0-0.01,0-0.03,0h-0.01c-0.11-0.01-0.17-0.01-0.17-0.01
				s0.11,0,0.35,0.01h0.23c0.06,0.01,0.11,0.01,0.17,0.01h0.11c0.01,0,0.01,0,0.03,0h0.1c0.03,0,0.07,0,0.11,0.01h0.31
				c0.03,0,0.07,0,0.11,0.01h0.25c0.08,0,0.18,0,0.28,0.01h0.18c0.07,0,0.16,0.01,0.23,0.01c0.07,0,0.14,0,0.21,0.01h0.14
				c0.2,0,0.41,0,0.64,0.01c0.25,0,0.52,0.01,0.79,0.04c0.04,0,0.09,0,0.13,0.01c0.01-0.01,0.03,0,0.06,0c0.01,0,0.04,0,0.07,0.01
				c0.01-0.01,0.04,0,0.07,0c0.11,0.01,0.23,0.03,0.35,0.04c0.25,0.04,0.51,0.07,0.78,0.11c0.03,0,0.07,0,0.1,0.01h0.06
				c0.33,0.06,0.66,0.1,1.02,0.16c0.45,0.06,0.95,0.11,1.46,0.18c0.07,0.01,0.14,0.01,0.21,0.03c0.03,0,0.04,0.01,0.07,0.01
				c0.16,0.04,0.33,0.08,0.48,0.13c0.08,0.01,0.18,0.04,0.27,0.07c0.18,0.04,0.38,0.08,0.57,0.13c0.03,0,0.06,0.01,0.07,0.01
				c0.93,0.21,1.92,0.45,2.95,0.74c0.47,0.17,0.93,0.33,1.41,0.5c0.34,0.11,0.68,0.24,1.03,0.35c0.42,0.16,0.85,0.3,1.29,0.47
				c0.42,0.2,0.85,0.4,1.29,0.59c2.84,1.2,5.81,2.95,8.71,5.23c0.25,0.18,0.51,0.38,0.75,0.58c0.45,0.37,0.89,0.74,1.34,1.13
				c1.5,1.31,2.97,2.79,4.34,4.41c1.68,1.94,3.22,4.09,4.57,6.45c0.21,0.35,0.41,0.71,0.61,1.06c1.65,3.04,2.98,6.42,3.87,10
				c0.27,1.12,0.51,2.23,0.69,3.38c0.17,0.99,0.3,1.99,0.38,3C157.06,84.54,157.12,86.58,157.02,88.63z"/>
		</g>
		<g id="XMLID_190_">
			<path id="XMLID_192_" d="M110.68,181.39c-0.01,0-0.04,0-0.06-0.01h0.13c0.01,0,0.04,0,0.06,0.01H110.68z"/>
			<path id="XMLID_191_" d="M146.75,58.65c-1.1-0.74-2.25-1.44-3.42-2.11c-0.62-0.37-1.26-0.72-1.9-1.06
				c-7.3-3.9-15.79-6.57-24.83-7.37c-9.04-0.81-18.57,0.25-27.59,3.42C80,54.68,71.52,59.89,64.5,66.68
				C57.56,73.55,52.15,81.95,48.8,91c-3.38,9.04-4.65,18.68-4.02,27.87c0.61,9.22,3.17,17.97,7.01,25.54
				c3.83,7.58,8.94,13.97,14.38,19c1.71,1.56,3.44,3.01,5.19,4.34c0.04,0.04,0.07,0.07,0.11,0.09c3.82,2.91,7.68,5.25,11.45,6.94
				c0.68,0.34,1.34,0.68,2.01,1c0.68,0.28,1.36,0.51,2.02,0.76c0.37,0.14,0.72,0.28,1.07,0.41c0.95,0.37,1.87,0.71,2.76,1.05
				c0.34,0.1,0.68,0.21,1.02,0.3c2.12,0.62,4.11,1.12,5.94,1.61c0.37,0.06,0.72,0.11,1.07,0.17c0.03,0.01,0.07,0.01,0.1,0.03
				c0.48,0.07,0.95,0.16,1.4,0.23c0.52,0.08,1.02,0.16,1.5,0.24c0.13,0.01,0.25,0.04,0.38,0.06c0.1,0.01,0.2,0.03,0.3,0.04
				c0.34,0.07,0.68,0.11,1,0.17c0.16,0.03,0.33,0.06,0.48,0.07c0.17,0.03,0.33,0.06,0.48,0.07c0.23,0.03,0.45,0.04,0.66,0.06
				c0.01,0,0.03,0,0.03,0c0.04,0.01,0.09,0.01,0.13,0.01c0.1,0,0.18,0.01,0.28,0.01h0.07c0.01,0.01,0.03,0,0.03,0
				c0.06,0,0.11,0.01,0.17,0.01c0.11,0,0.23,0.01,0.34,0.01c0.11,0.01,0.24,0.03,0.35,0.03c0.09,0,0.17,0.01,0.25,0.01h0.09
				c0.06,0.01,0.13,0.01,0.18,0.01h0.08c0.01,0,0.01,0,0.01,0c0.07,0.01,0.16,0.01,0.23,0.01h0.06c0.06,0,0.11,0.01,0.17,0.01
				c0.06,0.01,0.13,0.01,0.18,0.01h0.1c0.04,0.01,0.09,0.01,0.13,0.01h0.09c0.06,0,0.1,0,0.16,0.01c0.07,0,0.14,0,0.21,0.01
				c0.07,0,0.16,0,0.23,0.01c0.03,0,0.07,0,0.1,0.01h0.17c0.06,0,0.11,0.01,0.17,0.01c0.07,0,0.13,0.01,0.18,0.01c0,0,0,0,0.01,0
				h0.04c0.04,0,0.07,0,0.1,0.01h0.11c0.06,0,0.1,0.01,0.14,0.01h0.13c0.04,0,0.08,0.01,0.13,0.01h0.06c0.01-0.01,0.03-0.01,0.04,0
				c0.04,0,0.09,0.01,0.13,0.01c0.03-0.01,0.06-0.01,0.07,0h0.04c0.04,0,0.1,0.01,0.14,0.01c0.01-0.01,0.01,0,0.03,0h0.04
				c0.01,0,0.01,0,0.03,0c0.03,0.01,0.06,0.01,0.07,0.01h-0.11c-0.01,0.01-0.04,0.01-0.06,0c-0.01,0.01-0.03,0.01-0.04,0
				c-0.01,0-0.01,0-0.03,0c-0.06,0-0.11-0.01-0.17-0.01c-0.03,0.01-0.06,0.01-0.09,0c-0.1,0-0.2-0.01-0.31-0.01
				c-0.04,0.01-0.07,0-0.11,0c-0.01,0.01-0.01,0.01-0.03,0h-0.04c-0.1-0.01-0.2-0.01-0.31-0.01c-0.01,0.01-0.01,0-0.03,0h-0.06
				c-0.08-0.01-0.18-0.01-0.28-0.01h-0.06c-0.03-0.01-0.07-0.01-0.11-0.01h-0.31c-0.07-0.01-0.14-0.01-0.21-0.01
				c-0.01,0-0.03,0-0.03,0h-0.04v-0.01h-0.18c-0.07,0-0.16-0.01-0.23-0.01c-0.21,0-0.42-0.01-0.65-0.01c-0.01,0-0.01,0-0.03,0
				c-0.04-0.01-0.08-0.01-0.14-0.01h-0.25c-0.01,0-0.01,0-0.03,0c-0.03-0.01-0.07-0.01-0.11-0.01c0,0,0,0.01-0.01,0h-0.2
				c-0.03-0.01-0.06-0.01-0.08-0.01c-0.03,0.01-0.07,0-0.1,0c-0.01,0-0.01,0-0.03,0c-0.08,0-0.17-0.01-0.27-0.01h-0.23
				c-0.04-0.01-0.1-0.01-0.16-0.01h-0.07c-0.1,0-0.2-0.01-0.31-0.01c-0.51-0.03-1.06-0.06-1.64-0.17c-1.68-0.24-3.62-0.51-5.78-0.82
				c-2.12-0.54-4.5-1.06-7.03-1.78c-1.24-0.44-2.54-0.9-3.89-1.39c-0.68-0.24-1.37-0.47-2.05-0.74c-0.68-0.31-1.36-0.64-2.05-0.96
				c-5.61-2.4-11.51-6.18-17.16-11.17c-5.63-4.99-10.96-11.38-15.03-19.06c-4.09-7.65-6.89-16.57-7.71-26.04
				c-0.85-9.46,0.27-19.46,3.59-28.91c3.29-9.46,8.77-18.35,15.89-25.69c7.2-7.27,16.01-12.94,25.48-16.44
				c8.95-3.35,18.47-4.72,27.61-4.28c0.17,0,0.34,0.01,0.51,0.03c0.37,0.01,0.72,0.03,1.09,0.06c0.04,0,0.1,0,0.14,0.01
				c0.24,0.01,0.47,0.03,0.69,0.06c1.67,0.13,3.32,0.31,4.95,0.58c1.19,0.28,2.49,0.57,3.86,0.95c0.79,0.28,1.6,0.57,2.45,0.85
				c0.42,0.16,0.85,0.3,1.29,0.47c0.42,0.2,0.85,0.4,1.29,0.59c3.53,1.48,7.24,3.83,10.8,6.94
				C143.91,55.55,145.38,57.02,146.75,58.65z"/>
		</g>
		<g id="XMLID_187_">
			<path id="XMLID_189_" d="M110.8,181.38c0.01,0.01,0.01,0.01,0.01,0.01h-0.07c-0.01,0-0.04,0-0.06-0.01H110.8z"/>
			<path id="XMLID_188_" d="M155.8,76.15c-0.81-0.88-1.67-1.75-2.56-2.62c-3.87-3.76-8.47-7.24-13.76-10.05
				c-6.82-3.65-14.76-6.15-23.22-6.9c-8.44-0.76-17.36,0.23-25.8,3.18c-8.46,2.93-16.39,7.81-22.96,14.15
				c-6.49,6.43-11.57,14.29-14.72,22.75c-3.17,8.47-4.37,17.49-3.77,26.12c0.57,8.63,2.95,16.83,6.55,23.91
				c3.59,7.11,8.36,13.09,13.47,17.82c1.67,1.54,3.38,2.97,5.1,4.26c3.52,2.69,7.1,4.84,10.58,6.42c0.64,0.31,1.27,0.62,1.88,0.92
				c0.64,0.27,1.27,0.49,1.89,0.74c1.24,0.47,2.43,0.92,3.59,1.36c0.37,0.11,0.72,0.21,1.07,0.31c1.95,0.58,3.77,1.03,5.44,1.48
				c0.37,0.06,0.72,0.11,1.07,0.17c0.51,0.08,1,0.17,1.48,0.24c0.52,0.08,1.03,0.17,1.53,0.25c0.04,0,0.07,0.01,0.1,0.01
				c0.17,0.03,0.34,0.06,0.51,0.08c0.24,0.04,0.48,0.07,0.71,0.11c0.14,0.03,0.3,0.06,0.44,0.07c0.24,0.04,0.47,0.07,0.69,0.1
				c0.01,0,0.03,0,0.03,0c0.04,0.01,0.09,0.01,0.13,0.01c0.1,0,0.18,0.01,0.28,0.01h0.07c0.01,0.01,0.03,0,0.03,0
				c0.06,0,0.11,0.01,0.17,0.01c0.11,0,0.23,0.01,0.34,0.01c0.11,0.01,0.24,0.01,0.35,0.03c0.09,0,0.17,0.01,0.25,0.01h0.09
				c0.06,0.01,0.13,0.01,0.18,0.01h0.08c0.01,0,0.01,0,0.01,0h0.07c0.06,0.01,0.1,0.01,0.16,0.01h0.06c0.06,0,0.11,0.01,0.17,0.01
				c0.06,0.01,0.13,0.01,0.18,0.01h0.1c0.04,0.01,0.09,0.01,0.13,0.01h0.09c0.06,0,0.1,0,0.16,0.01c0.07,0,0.14,0,0.21,0.01
				c0.07,0,0.16,0,0.23,0.01c0.03,0,0.07,0,0.1,0.01c0.11,0,0.23,0.01,0.34,0.01c0.07,0,0.13,0.01,0.18,0.01c0,0,0,0,0.01,0
				c0.04,0,0.08,0,0.14,0.01h0.11c0.06,0,0.1,0.01,0.14,0.01h0.13c0.04,0,0.08,0.01,0.13,0.01h0.06c0.01-0.01,0.03-0.01,0.04,0h0.06
				c0.03,0,0.04,0,0.07,0.01c0.03-0.01,0.06-0.01,0.07,0h0.11c0.03,0,0.06,0,0.07,0.01c0.01-0.01,0.01,0,0.03,0h0.04
				c0.01,0,0.01,0,0.03,0h0.01c0.01,0.01,0.04,0.01,0.06,0.01h-0.11c-0.01,0.01-0.04,0.01-0.06,0c-0.01,0.01-0.03,0.01-0.04,0
				c-0.01,0-0.01,0-0.03,0h-0.08c-0.03,0-0.06,0-0.08-0.01c-0.03,0.01-0.06,0.01-0.09,0c-0.03,0.01-0.07,0-0.1,0h-0.14
				c-0.03,0-0.04,0-0.07-0.01c-0.04,0.01-0.07,0-0.11,0c-0.01,0.01-0.01,0.01-0.03,0h-0.04c-0.1-0.01-0.2-0.01-0.31-0.01
				c-0.01,0.01-0.01,0-0.03,0c-0.1-0.01-0.21-0.01-0.34-0.01c-0.06-0.01-0.11-0.01-0.17-0.01h-0.17c-0.11-0.01-0.23-0.01-0.35-0.01
				c-0.01,0-0.03,0-0.03,0c-0.01,0-0.03,0-0.04-0.01h-0.33c-0.03,0-0.06,0-0.08-0.01h-0.37c-0.08-0.01-0.18-0.01-0.28-0.01
				c-0.01,0-0.01,0-0.03,0c-0.01,0.01-0.04,0.01-0.07,0c0,0,0,0-0.01,0c-0.01,0-0.03,0-0.06-0.01h-0.25c-0.01,0-0.01,0-0.03,0
				c-0.01,0-0.01,0-0.03,0c-0.03,0-0.06,0-0.08-0.01c0,0,0,0.01-0.01,0h-0.2c-0.03-0.01-0.06-0.01-0.08-0.01
				c-0.03,0.01-0.07,0-0.1,0c-0.01,0-0.01,0-0.03,0h-0.2c-0.03,0-0.04,0-0.07-0.01h-0.35c0,0-0.01-0.01-0.03-0.01h-0.07
				c-0.1,0-0.2-0.01-0.31-0.01c-0.37-0.03-0.75-0.07-1.15-0.14c-1.57-0.21-3.39-0.48-5.43-0.76c-1.98-0.51-4.21-0.99-6.59-1.67
				c-1.17-0.41-2.39-0.85-3.65-1.29c-0.62-0.23-1.27-0.44-1.92-0.69c-0.62-0.3-1.26-0.59-1.91-0.9c-4.24-1.81-8.67-4.45-12.99-7.88
				c-0.04-0.01-0.07-0.04-0.11-0.09c-1-0.79-2.02-1.63-3.01-2.5c-5.29-4.68-10.28-10.68-14.11-17.87
				c-3.83-7.17-6.46-15.54-7.24-24.43c-0.81-8.88,0.24-18.25,3.35-27.15c3.08-8.88,8.21-17.22,14.9-24.12
				c6.76-6.83,15.03-12.16,23.92-15.45c8.89-3.34,18.38-4.6,27.43-3.96c9.06,0.59,17.69,3.11,25.13,6.9
				c2.38,1.2,4.64,2.53,6.77,3.96c0.96,0.64,1.91,1.3,2.81,1.98c0.21,0.35,0.41,0.71,0.61,1.06
				C153.58,69.2,154.91,72.58,155.8,76.15z"/>
		</g>
		<g id="XMLID_184_">
			<path id="XMLID_186_" d="M110.88,181.41c-0.01,0-0.01,0-0.03-0.01c0.01,0.01,0.03,0.01,0.04,0c0.01,0,0.03,0,0.03,0h0.07
				c0.01,0,0.03,0,0.03,0c0.01,0,0.03,0,0.03,0v0.01c-0.01,0-0.01,0-0.03,0c0,0-0.01,0-0.03,0H110.88z"/>
			<path id="XMLID_185_" d="M157.02,88.63c-0.65-0.9-1.34-1.81-2.08-2.71c-0.51-0.64-1.06-1.27-1.61-1.91
				c-4.13-4.68-9.43-9.11-15.79-12.5c-6.33-3.41-13.73-5.75-21.6-6.45c-7.86-0.72-16.18,0.18-24.04,2.94
				c-7.86,2.71-15.27,7.25-21.39,13.16c-6.05,6-10.79,13.32-13.73,21.19c-2.96,7.88-4.09,16.29-3.55,24.33
				c0.54,8.05,2.74,15.68,6.09,22.3c3.35,6.63,7.79,12.22,12.56,16.63c1.74,1.6,3.49,3.05,5.27,4.37c0.06,0.06,0.11,0.11,0.18,0.14
				c3.05,2.25,6.15,4.09,9.16,5.46c0.61,0.3,1.19,0.58,1.75,0.86c0.59,0.25,1.19,0.47,1.77,0.68c1.16,0.45,2.28,0.86,3.35,1.27
				c0.41,0.13,0.82,0.25,1.22,0.37c1.74,0.49,3.38,0.9,4.88,1.31c0.34,0.06,0.66,0.11,0.99,0.16c0.52,0.1,1.03,0.18,1.51,0.25
				c0.9,0.16,1.74,0.3,2.52,0.42c0.37,0.07,0.72,0.11,1.06,0.14c0.04,0,0.07,0,0.1,0.01c0.01,0.01,0.03,0,0.03,0
				c0.06,0,0.11,0.01,0.17,0.01c0.11,0,0.23,0.01,0.34,0.01c0.11,0.01,0.24,0.03,0.35,0.03c0.09,0,0.17,0.01,0.25,0.01h0.09
				c0.06,0.01,0.13,0.01,0.18,0.01h0.08c0.01,0,0.01,0,0.01,0h0.07c0.06,0.01,0.1,0.01,0.16,0.01h0.06c0.06,0,0.11,0.01,0.17,0.01
				h0.11c0.01,0,0.01,0,0.01,0c0.01,0,0.04,0.01,0.06,0.01h0.1c0.01,0,0.01,0,0.03,0c0.03,0,0.07,0,0.1,0.01h0.09
				c0.06,0,0.1,0,0.16,0.01c0.07,0,0.14,0,0.21,0.01c0.07,0,0.16,0,0.23,0.01h0.07c0.07,0.01,0.13,0.01,0.2,0.01
				c0.06,0,0.11,0.01,0.17,0.01h0.13c0.01,0,0.04,0.01,0.06,0.01c0,0,0,0,0.01,0h0.04c0.03-0.01,0.07,0,0.1,0
				c0.04,0,0.08,0.01,0.11,0.01h0.14v0.01h0.21c0.01,0,0.03,0,0.03,0c0.03,0,0.04,0,0.07,0.01c0.01-0.01,0.03-0.01,0.04,0h0.06
				c0.04,0,0.1,0.01,0.14,0.01h0.11c0.03,0,0.06,0,0.07,0.01c0.01-0.01,0.01,0,0.03,0h0.04c0.01,0,0.01,0,0.03,0h0.01
				c0.03,0,0.07,0,0.1,0.01h0.13c0.01,0,0.03,0,0.03,0c0.01,0.01,0.01,0.01,0.03,0.01c-0.01,0.01-0.03,0.01-0.04,0h-0.33
				c-0.01-0.01-0.01-0.01-0.03-0.01c-0.01,0.01-0.03,0.01-0.04,0c-0.01,0-0.01,0-0.03,0h-0.08c-0.03,0-0.06,0-0.08-0.01
				c-0.03,0.01-0.06,0.01-0.09,0c-0.03,0.01-0.07,0-0.1,0h-0.14c-0.03,0-0.04,0-0.07-0.01c-0.04,0.01-0.07,0-0.11,0
				c-0.01,0.01-0.01,0.01-0.03,0h-0.04c-0.1-0.01-0.2-0.01-0.31-0.01c-0.01,0.01-0.01,0-0.03,0h-0.17
				c-0.06-0.01-0.11-0.01-0.17-0.01h-0.06c-0.08,0-0.18-0.01-0.28-0.01h-0.14c0,0-0.01,0-0.03,0c-0.06-0.01-0.13-0.01-0.18-0.01
				c-0.01,0-0.03,0-0.03,0h-0.04c-0.06,0-0.13-0.01-0.18-0.01h-0.14c-0.06,0.01-0.11,0.01-0.17,0c-0.01,0.01-0.03,0.01-0.04,0
				c-0.08-0.01-0.16-0.01-0.24-0.01h-0.18c-0.01,0.01-0.03,0-0.04,0c-0.01-0.01-0.04-0.01-0.06-0.01s-0.01,0-0.03,0
				c-0.01,0.01-0.04,0.01-0.07,0c0,0,0,0-0.01,0c-0.06,0.01-0.1,0.01-0.16,0h-0.09c-0.03,0-0.04,0-0.07-0.01c-0.01,0-0.01,0-0.03,0
				c-0.01,0-0.01,0-0.03,0c-0.04,0.01-0.1,0-0.14,0c-0.18,0-0.37-0.01-0.57-0.03c-0.1,0-0.2,0-0.3-0.01h-0.13
				c-0.03-0.01-0.06-0.01-0.08-0.01h-0.01c-0.31-0.03-0.64-0.06-0.96-0.11c-1.47-0.21-3.17-0.45-5.06-0.72
				c-1.85-0.47-3.94-0.92-6.16-1.56c-0.47-0.17-0.93-0.33-1.43-0.49c-0.64-0.23-1.3-0.47-1.98-0.71c-0.58-0.21-1.19-0.41-1.8-0.64
				c-0.58-0.28-1.17-0.57-1.78-0.85c-3.97-1.68-8.09-4.14-12.12-7.34c-0.99-0.75-1.97-1.57-2.93-2.42
				c-4.95-4.37-9.61-9.97-13.19-16.68c-3.59-6.7-6.07-14.52-6.79-22.82c-0.76-8.3,0.2-17.07,3.11-25.37
				c2.88-8.3,7.66-16.1,13.91-22.57c6.32-6.38,14.04-11.37,22.37-14.46c8.31-3.12,17.19-4.31,25.65-3.73
				c8.48,0.57,16.56,2.91,23.53,6.45c5.49,2.77,10.29,6.25,14.35,10.07c0.82,0.75,1.6,1.51,2.35,2.3c0.17,0.99,0.3,1.99,0.38,3
				C157.06,84.54,157.12,86.58,157.02,88.63z"/>
		</g>
		<g id="XMLID_181_">
			<path id="XMLID_183_" d="M111.05,181.39c0.01,0,0.01,0.01,0.03,0.01c-0.01,0-0.01,0-0.03,0c-0.01,0-0.01,0-0.03,0
				c0,0-0.01,0-0.03,0c-0.03,0-0.07,0-0.1-0.01c0.01,0,0.03,0,0.03,0h0.07c0.01,0,0.03,0,0.03,0
				C111.04,181.39,111.05,181.39,111.05,181.39z"/>
			<path id="XMLID_182_" d="M156.89,90.63c-0.23,2.53-0.69,5.08-1.39,7.58c-0.55-0.91-1.16-1.82-1.82-2.73
				c-1.05-1.47-2.22-2.94-3.49-4.4c-3.82-4.34-8.71-8.44-14.59-11.58c-5.87-3.15-12.73-5.33-20.01-5.98
				c-7.28-0.68-14.97,0.16-22.26,2.7c-6.9,2.38-13.39,6.25-18.89,11.3c-0.31,0.3-0.64,0.59-0.95,0.89
				c-1.67,1.64-3.22,3.39-4.67,5.25c-3.41,4.37-6.15,9.25-8.07,14.38c-2.76,7.3-3.8,15.1-3.31,22.55
				c0.48,7.45,2.53,14.55,5.64,20.69c3.1,6.15,7.21,11.35,11.62,15.44c1.5,1.39,3.01,2.66,4.55,3.8c3,2.28,6.05,4.11,9.02,5.46
				c0.55,0.27,1.09,0.54,1.63,0.81c0.55,0.24,1.1,0.42,1.64,0.64c1.07,0.41,2.11,0.81,3.1,1.19c0.37,0.11,0.72,0.21,1.07,0.31
				c0.03,0.01,0.04,0.01,0.07,0.03c1.61,0.47,3.12,0.83,4.51,1.22c0.31,0.06,0.62,0.11,0.93,0.16c1.37,0.23,2.62,0.44,3.73,0.62
				c0.49,0.08,0.96,0.14,1.4,0.16c0.14,0.03,0.28,0.03,0.41,0.04h0.09c0.06,0.01,0.13,0.01,0.18,0.01h0.08c0.01,0,0.01,0,0.01,0
				h0.07c0.06,0.01,0.1,0.01,0.16,0.01h0.06c0.06,0,0.11,0.01,0.17,0.01h0.11c0.01,0,0.01,0,0.01,0c0.06,0,0.11,0.01,0.16,0.01
				c0.01,0,0.01,0,0.03,0H108c0.01,0,0.01,0.01,0.01,0.01h0.09c0.06,0,0.1,0,0.16,0.01c0.07,0,0.14,0,0.21,0.01
				c0.07,0,0.16,0,0.23,0.01h0.07c0.01,0,0.03,0.01,0.03,0.01h0.17c0.06,0,0.11,0.01,0.17,0.01h0.13c0.01,0,0.04,0.01,0.06,0.01
				c0,0,0,0,0.01,0h0.04c0.03-0.01,0.07,0,0.1,0c0.04,0,0.08,0.01,0.11,0.01h0.16c0.04,0,0.07,0,0.11,0.01h0.08
				c0.01,0,0.03,0,0.03,0c0.01,0.01,0.01,0.01,0.01,0.01h0.06c0.01-0.01,0.03-0.01,0.04,0h0.06c0.03,0,0.04,0,0.07,0.01
				c0.03-0.01,0.06-0.01,0.07,0h0.04c0.04,0,0.1,0.01,0.14,0.01c0.01-0.01,0.01,0,0.03,0h0.04c0.03,0,0.07,0,0.1,0.01h0.13
				c0.01,0,0.04,0,0.06,0.01h-0.33c-0.03-0.01-0.04-0.01-0.07-0.01c-0.01,0-0.01,0-0.03,0h-0.3c-0.01-0.01-0.04-0.01-0.06-0.01h-0.2
				l-0.01-0.01c-0.04,0.01-0.07,0-0.11,0c-0.01,0.01-0.01,0.01-0.03,0h-0.04c-0.1-0.01-0.2-0.01-0.31-0.01c-0.01,0.01-0.01,0-0.03,0
				h-0.21c-0.04-0.01-0.08-0.01-0.13-0.01h-0.28c-0.01,0-0.03,0-0.06-0.01h-0.14c0,0-0.01,0-0.03,0c-0.06-0.01-0.13-0.01-0.18-0.01
				c-0.01,0-0.03,0-0.03,0h-0.25c-0.04,0-0.07,0-0.11-0.01c-0.06,0.01-0.11,0.01-0.17,0c-0.01,0.01-0.03,0.01-0.04,0h-0.11
				c-0.04-0.01-0.08-0.01-0.13-0.01h-0.18c-0.01,0.01-0.03,0-0.04,0h-0.04c-0.03,0-0.07,0-0.11-0.01c0,0,0,0-0.01,0
				c-0.06,0.01-0.1,0.01-0.16,0h-0.09c-0.03,0-0.04,0-0.07-0.01c-0.01,0-0.01,0-0.03,0c-0.01,0-0.01,0-0.03,0
				c-0.04,0.01-0.1,0-0.14,0c-0.04,0-0.1,0-0.16-0.01c-0.13,0-0.27,0-0.41-0.01c-0.03,0-0.04,0-0.07-0.01h-0.06
				c-0.27-0.01-0.57-0.06-0.86-0.1c-1.37-0.2-2.94-0.41-4.71-0.66c-0.42-0.11-0.88-0.21-1.33-0.33c-0.03-0.01-0.07-0.01-0.1-0.03
				c-1.34-0.31-2.77-0.65-4.28-1.07c-0.45-0.17-0.92-0.33-1.39-0.49c-0.58-0.2-1.17-0.41-1.78-0.62c-0.55-0.2-1.12-0.38-1.67-0.61
				c-0.55-0.25-1.1-0.51-1.67-0.76c-3.51-1.5-7.14-3.63-10.7-6.39c-0.07-0.03-0.13-0.08-0.18-0.14c-1.05-0.79-2.08-1.64-3.1-2.53
				c-4.6-4.06-8.94-9.25-12.27-15.5c-3.34-6.22-5.64-13.49-6.33-21.21c-0.71-7.71,0.18-15.86,2.88-23.58
				c2.19-6.35,5.59-12.37,9.93-17.65c0.95-1.16,1.95-2.28,3-3.37c0.06-0.06,0.1-0.1,0.16-0.16c5.84-5.87,12.98-10.46,20.64-13.32
				c7.75-2.91,16.01-4.03,23.88-3.49c7.9,0.51,15.41,2.69,21.92,5.98c6.5,3.28,11.99,7.64,16.33,12.32
				c0.23,0.24,0.45,0.49,0.66,0.74C155.55,89.01,156.24,89.81,156.89,90.63z"/>
		</g>
		<g id="XMLID_178_">
			<path id="XMLID_180_" d="M111.05,181.39c0.03,0.01,0.04,0.01,0.06,0.01c-0.01,0-0.01,0-0.03,0c-0.01,0-0.01,0-0.03,0
				c-0.01,0-0.01,0-0.03,0c0,0-0.01,0-0.03,0c-0.03,0-0.04,0-0.07-0.01h0.07c0.01,0,0.03,0,0.03,0
				C111.04,181.39,111.05,181.39,111.05,181.39z"/>
			<path id="XMLID_179_" d="M155.12,99.51c-0.13,0.44-0.27,0.86-0.41,1.29c-0.58,1.71-1.29,3.39-2.09,5.03
				c-0.52-0.9-1.1-1.8-1.73-2.69c-1.13-1.67-2.42-3.34-3.85-4.98c-3.51-3.99-8-7.76-13.4-10.66c-5.4-2.91-11.69-4.91-18.4-5.51
				c-6.69-0.64-13.77,0.13-20.49,2.46c-6.7,2.3-13.02,6.15-18.25,11.2l-0.83,0.83c-1.63,1.68-3.12,3.46-4.51,5.34
				c-2.67,3.66-4.85,7.68-6.42,11.88c-2.55,6.73-3.52,13.91-3.07,20.78c0.44,6.87,2.32,13.42,5.17,19.07
				c2.84,5.68,6.65,10.48,10.7,14.25c1.2,1.1,2.42,2.15,3.65,3.08c0.34,0.27,0.68,0.54,1.02,0.79c2.62,1.94,5.27,3.51,7.85,4.68
				c0.51,0.25,1,0.51,1.5,0.75c0.51,0.21,1.02,0.4,1.51,0.58c0.99,0.38,1.95,0.75,2.87,1.1c0.37,0.11,0.74,0.23,1.09,0.33
				c1.47,0.42,2.86,0.76,4.11,1.12c1.63,0.27,3.05,0.51,4.31,0.72c0.31,0.06,0.62,0.1,0.9,0.13c0.27,0.03,0.52,0.04,0.76,0.06
				c0.01,0,0.01,0,0.01,0h0.16c0.03,0.01,0.04,0.01,0.07,0.01h0.06c0.06,0,0.11,0.01,0.17,0.01h0.11c0.01,0,0.01,0,0.01,0
				c0.06,0,0.11,0.01,0.16,0.01c0.01,0,0.01,0,0.03,0H108c0.04,0,0.07,0,0.1,0.01c0.06,0,0.11,0,0.16,0.01c0.07,0,0.14,0,0.21,0.01
				c0.07,0,0.16,0,0.23,0.01h0.07c0.01,0,0.03,0.01,0.03,0.01h0.17c0.06,0,0.11,0.01,0.17,0.01c0.07,0,0.13,0.01,0.18,0.01
				c0,0,0,0,0.01,0h0.04c0.04,0,0.07,0,0.1,0.01h0.21c0.01,0.01,0.03,0.01,0.04,0.01h0.21c0.01,0,0.03,0,0.03,0
				c0.01,0.01,0.01,0.01,0.01,0.01h0.06c0.01-0.01,0.03-0.01,0.04,0h0.06c0.03,0,0.04,0,0.07,0.01c0.03-0.01,0.06-0.01,0.07,0h0.11
				c0.03,0,0.06,0,0.07,0.01c0.01-0.01,0.01,0,0.03,0h0.04c0.01,0,0.01,0,0.03,0h0.01c0.01,0.01,0.04,0.01,0.06,0.01h0.17
				c0.01,0,0.03,0,0.03,0c0.01,0.01,0.01,0.01,0.03,0.01c-0.01,0.01-0.03,0.01-0.04,0h-0.33c-0.01-0.01-0.01-0.01-0.03-0.01
				c-0.01,0.01-0.03,0.01-0.04,0c-0.01,0-0.01,0-0.03,0h-0.3c-0.01-0.01-0.04-0.01-0.06-0.01h-0.25c-0.03,0-0.07-0.01-0.1-0.01
				h-0.04c-0.1-0.01-0.2-0.01-0.31-0.01c-0.01,0.01-0.01,0-0.03,0h-0.21c-0.04-0.01-0.08-0.01-0.13-0.01h-0.41
				c-0.01-0.01-0.04-0.01-0.07-0.01c0,0-0.01,0-0.03,0c-0.16-0.01-0.31-0.01-0.47-0.01c-0.1,0-0.18-0.01-0.28-0.01
				c-0.01,0.01-0.03,0.01-0.04,0h-0.11c-0.1,0.01-0.2,0-0.31-0.01c-0.01,0.01-0.03,0-0.04,0h-0.04c-0.03,0-0.07,0-0.11-0.01
				c0,0,0,0-0.01,0c-0.06,0.01-0.1,0.01-0.16,0h-0.09c-0.03,0-0.04,0-0.07-0.01c-0.01,0-0.01,0-0.03,0c-0.01,0-0.01,0-0.03,0
				c-0.04,0.01-0.1,0-0.14,0c-0.04,0-0.1,0-0.16-0.01c-0.03,0-0.06,0-0.08-0.01c-0.03,0.01-0.07,0-0.1,0
				c-0.24-0.01-0.48-0.04-0.72-0.08c-0.31-0.04-0.65-0.08-0.99-0.14c-0.16-0.01-0.31-0.04-0.48-0.07c-0.89-0.11-1.84-0.25-2.87-0.4
				c-0.25-0.07-0.52-0.13-0.79-0.18c-0.21-0.06-0.42-0.11-0.65-0.17c-1.2-0.28-2.49-0.58-3.85-0.96c-0.41-0.14-0.82-0.28-1.24-0.44
				c-0.55-0.2-1.1-0.4-1.68-0.59c-0.51-0.18-1.02-0.34-1.54-0.55c-0.49-0.23-1.02-0.47-1.53-0.71c-3.46-1.47-7.04-3.62-10.56-6.39
				c-0.79-0.62-1.58-1.27-2.38-1.97c-4.24-3.75-8.26-8.54-11.35-14.31c-3.1-5.74-5.22-12.46-5.87-19.6
				c-0.66-7.13,0.16-14.66,2.64-21.82c1.75-5.1,4.37-10,7.66-14.41c1.31-1.75,2.74-3.44,4.27-5.02c0.21-0.21,0.42-0.44,0.65-0.64
				c5.3-5.22,11.71-9.29,18.59-11.86c7.15-2.71,14.8-3.75,22.1-3.25c7.32,0.47,14.28,2.47,20.3,5.51
				c6.04,3.04,11.13,7.07,15.14,11.4c0.76,0.83,1.5,1.68,2.19,2.53C153.91,97.9,154.53,98.71,155.12,99.51z"/>
		</g>
		<g id="XMLID_175_">
			<path id="XMLID_177_" d="M111.21,181.41c0.11,0.01,0.17,0.01,0.17,0.01s-0.06,0-0.18-0.01H111.21z"/>
			<path id="XMLID_176_" d="M152.11,106.84c-0.95,1.82-2.02,3.58-3.22,5.26c-0.52-0.89-1.1-1.78-1.72-2.67
				c-0.96-1.4-2.05-2.79-3.25-4.16c-3.2-3.65-7.3-7.1-12.22-9.76c-4.92-2.66-10.66-4.5-16.78-5.06c-6.11-0.58-12.57,0.11-18.71,2.23
				c-6.14,2.09-11.91,5.61-16.7,10.21c-0.37,0.35-0.72,0.72-1.07,1.1c-1.41,1.48-2.73,3.05-3.92,4.71
				c-2.4,3.29-4.35,6.91-5.78,10.69c-2.33,6.15-3.24,12.71-2.83,19c0.38,6.29,2.11,12.29,4.71,17.46c2.6,5.2,6.07,9.6,9.8,13.06
				c1.16,1.07,2.33,2.06,3.52,2.97c0.24,0.2,0.49,0.4,0.75,0.58c2.39,1.78,4.81,3.22,7.17,4.3c0.47,0.24,0.93,0.47,1.37,0.69
				c0.47,0.2,0.93,0.35,1.39,0.54c0.92,0.34,1.78,0.68,2.63,1c1.73,0.54,3.34,0.93,4.78,1.33c1.47,0.25,2.8,0.48,3.94,0.66
				c0.44,0.08,0.86,0.13,1.26,0.16h0.08c0.03,0.01,0.04,0.01,0.07,0.01h0.06c0.06,0,0.11,0.01,0.17,0.01h0.11c0.01,0,0.01,0,0.01,0
				c0.01,0,0.04,0.01,0.06,0.01h0.1c0.01,0,0.01,0,0.03,0H108c0.04,0,0.07,0,0.1,0.01c0.38,0.01,0.72,0.03,1.03,0.06
				c0.04,0,0.08,0,0.13,0.01c0.04,0,0.07,0,0.11,0.01c0.03-0.01,0.07,0,0.1,0c0.07,0,0.14,0.01,0.21,0.01h0.06
				c0.04,0,0.07,0,0.11,0.01h0.08c0.01,0,0.03,0,0.03,0c0.04,0,0.08,0.01,0.11,0.01h0.06c0.04,0,0.1,0.01,0.14,0.01h0.11
				c0.04,0,0.07,0.01,0.1,0.01h0.04c0.01,0,0.01,0,0.03,0h0.01c0.03,0,0.07,0,0.1,0.01h0.13c0.01,0,0.03,0,0.03,0
				c0.03,0.01,0.04,0.01,0.07,0.01c0.01,0,0.03,0,0.03,0h0.07c0.01,0,0.03,0,0.03,0c0.01,0,0.03,0,0.03,0
				c0.03,0.01,0.06,0.01,0.07,0.01c-0.01,0-0.01,0-0.01,0c-0.01,0-0.01,0-0.03,0c-0.01,0-0.01,0-0.03,0c-0.01,0-0.01,0-0.03,0
				c0,0-0.01,0-0.03,0h-0.11c-0.01,0-0.01,0-0.03-0.01c-0.01,0.01-0.03,0.01-0.04,0h-0.24c-0.01,0-0.04,0-0.06-0.01
				c-0.01,0.01-0.04,0.01-0.06,0c-0.01,0.01-0.03,0.01-0.04,0c-0.01,0-0.01,0-0.03,0h-0.17c-0.03,0-0.06,0-0.09-0.01
				c-0.03,0.01-0.07,0-0.1,0h-0.25c-0.03,0-0.04,0-0.07-0.01c-0.01,0.01-0.01,0.01-0.03,0h-0.04c-0.1-0.01-0.2-0.01-0.31-0.01
				c-0.01,0.01-0.01,0-0.03,0h-0.21c-0.04-0.01-0.08-0.01-0.13-0.01h-0.06c-0.08,0-0.18-0.01-0.28-0.01h-0.14c0,0-0.01,0-0.03,0
				c-0.06-0.01-0.13-0.01-0.18-0.01c-0.01,0-0.03,0-0.03,0h-0.25c-0.04,0-0.07,0-0.11-0.01c-0.06,0.01-0.11,0.01-0.17,0
				c-0.01,0.01-0.03,0.01-0.04,0h-0.11c-0.1,0.01-0.2,0-0.31-0.01c-0.01,0.01-0.03,0-0.04,0h-0.04c-0.1,0-0.18,0-0.28-0.01h-0.09
				c-0.03,0-0.04,0-0.07-0.01c-0.01,0-0.01,0-0.03,0c-0.01,0-0.01,0-0.03,0c-0.03,0-0.06,0-0.08-0.01c0,0,0,0.01-0.01,0
				c-0.2-0.01-0.4-0.04-0.61-0.07c-0.21-0.03-0.44-0.06-0.67-0.1c-0.04,0-0.08,0-0.13-0.01c0,0-0.01,0-0.03,0
				c-0.23-0.03-0.45-0.06-0.69-0.1c-0.61-0.07-1.26-0.17-1.94-0.27c-0.1-0.01-0.2-0.03-0.3-0.04c-0.07,0-0.16-0.01-0.24-0.03
				c-0.04-0.01-0.08-0.03-0.14-0.03c-0.21-0.06-0.44-0.11-0.66-0.17c-0.23-0.04-0.47-0.1-0.71-0.17c-1.05-0.24-2.16-0.51-3.34-0.83
				c-0.42-0.14-0.88-0.3-1.32-0.45c-0.03-0.01-0.04-0.01-0.07-0.03c-0.42-0.14-0.86-0.3-1.3-0.45c-0.45-0.17-0.93-0.33-1.41-0.51
				c-0.45-0.21-0.92-0.42-1.4-0.65c-3.07-1.3-6.25-3.18-9.39-5.61c-0.34-0.25-0.68-0.52-1.02-0.79c-0.5-0.4-0.98-0.82-1.47-1.24
				c-3.9-3.42-7.59-7.82-10.42-13.11c-2.86-5.27-4.82-11.44-5.41-18c-0.62-6.55,0.13-13.46,2.4-20.04c1.54-4.48,3.79-8.79,6.63-12.7
				c1.26-1.74,2.63-3.39,4.13-4.95c0.06-0.07,0.13-0.16,0.2-0.23c4.98-5.08,11.08-9.05,17.67-11.51c6.57-2.5,13.62-3.46,20.33-3.01
				c6.72,0.42,13.14,2.26,18.68,5.06c5.56,2.79,10.25,6.49,13.96,10.48c0.83,0.9,1.63,1.82,2.38,2.74
				C150.92,105.21,151.55,106.02,152.11,106.84z"/>
		</g>
		<g id="XMLID_173_">
			<path id="XMLID_174_" d="M148.27,112.97c-1.09,1.46-2.26,2.84-3.52,4.14c-0.07,0.07-0.14,0.14-0.23,0.21
				c-0.57-0.88-1.17-1.77-1.85-2.64c-0.59-0.78-1.22-1.56-1.89-2.33c-2.88-3.29-6.57-6.42-11.03-8.82
				c-4.44-2.42-9.63-4.09-15.17-4.61c-5.53-0.54-11.38,0.09-16.92,1.99c-5.56,1.88-10.8,5.06-15.14,9.22
				c-0.06,0.06-0.13,0.11-0.18,0.18c-1.31,1.3-2.54,2.69-3.65,4.16c-0.28,0.37-0.57,0.74-0.83,1.12c-1.16,1.6-2.21,3.28-3.1,5.02
				c-0.23,0.41-0.44,0.83-0.64,1.26c-0.51,1.05-0.98,2.12-1.39,3.21c-0.35,0.93-0.66,1.87-0.95,2.81c-0.17,0.54-0.33,1.09-0.45,1.64
				c-0.61,2.39-1,4.82-1.16,7.24c-0.07,0.78-0.1,1.56-0.1,2.33c-0.03,1.07,0,2.13,0.07,3.2c0.11,1.87,0.35,3.69,0.72,5.49
				c0.23,1.24,0.52,2.47,0.89,3.66c0.68,2.36,1.57,4.61,2.63,6.72c0.65,1.3,1.36,2.53,2.12,3.72c1.56,2.46,3.32,4.68,5.2,6.62
				c0.51,0.54,1.03,1.03,1.56,1.53c3.38,3.15,6.96,5.57,10.39,7.14c0.41,0.21,0.83,0.42,1.24,0.64c0.42,0.17,0.85,0.33,1.26,0.48
				c0.82,0.33,1.61,0.62,2.38,0.92c1.57,0.5,3.03,0.85,4.34,1.22c1.34,0.24,2.54,0.44,3.59,0.61c0.28,0.06,0.57,0.1,0.82,0.13
				c0.01,0,0.01,0,0.03,0c0.14,0.01,0.28,0.01,0.41,0.03c0.01,0,0.01,0,0.01,0c0.06,0,0.11,0.01,0.16,0.01c0.01,0,0.01,0,0.03,0H108
				c0.03,0,0.04,0,0.06,0.01c0.01-0.01,0.03,0,0.04,0c0.38,0.01,0.72,0.03,1.03,0.06c0.04,0,0.08,0,0.13,0.01
				c0.17,0,0.33,0.01,0.47,0.03h0.01c0.07,0,0.14,0.01,0.2,0.01c0.01,0,0.03,0,0.03,0c0.03,0,0.04,0,0.07,0.01
				c0-0.01,0.01-0.01,0.03-0.01c0,0,0,0,0.01,0.01h0.06c0.03,0,0.04,0,0.07,0.01c0.03-0.01,0.06-0.01,0.07,0h0.11
				c0.03,0,0.06,0,0.07,0.01c0.01-0.01,0.01,0,0.03,0h0.04c0.01,0,0.01,0,0.03,0h0.01c0.03,0,0.07,0,0.1,0.01h0.13
				c0.01,0,0.03,0,0.03,0c0.03,0,0.07,0.01,0.1,0.01h0.07c0.01,0,0.03,0,0.03,0c0.01,0,0.03,0,0.03,0c0.01,0.01,0.04,0.01,0.06,0.01
				c-0.01,0-0.01,0-0.03,0c-0.01,0-0.01,0-0.03,0c-0.01,0-0.01,0-0.03,0c0,0-0.01,0-0.03,0h-0.11c-0.04,0-0.08-0.01-0.14-0.01h-0.25
				c-0.09-0.01-0.17-0.01-0.27-0.01h-0.13c-0.04,0-0.08-0.01-0.13-0.01h-0.18c-0.03,0-0.04,0-0.07-0.01c-0.01,0.01-0.01,0.01-0.03,0
				h-0.04c-0.1-0.01-0.2-0.01-0.31-0.01c-0.01,0.01-0.01,0-0.03,0h-0.21c-0.13-0.01-0.27-0.01-0.41-0.01h-0.13
				c-0.31-0.01-0.65-0.01-1-0.04c-0.1,0.01-0.2,0-0.31-0.01c-0.01,0.01-0.03,0-0.04,0h-0.04c-0.01,0-0.03,0-0.04-0.01
				c-0.01,0.01-0.04,0.01-0.07,0c0,0,0,0-0.01,0c-0.01,0-0.03,0-0.06-0.01c-0.17,0-0.35-0.03-0.54-0.06
				c-0.24-0.03-0.49-0.07-0.76-0.11c0,0-0.01,0.01-0.03,0h-0.07c0,0-0.01,0-0.03-0.01c-0.34-0.03-0.69-0.07-1.06-0.14
				c-0.38-0.04-0.78-0.1-1.19-0.16c-0.16-0.03-0.33-0.04-0.48-0.07c-0.01,0-0.01,0-0.03-0.01c-0.03,0-0.06-0.01-0.1-0.01
				c-0.11-0.03-0.23-0.06-0.35-0.09c-0.13-0.03-0.24-0.06-0.37-0.08c-0.24-0.06-0.48-0.11-0.72-0.17c-0.89-0.21-1.85-0.44-2.84-0.72
				c-0.44-0.16-0.89-0.31-1.36-0.47c-0.35-0.13-0.71-0.25-1.07-0.38c-0.42-0.14-0.86-0.28-1.29-0.45c-0.42-0.2-0.85-0.4-1.29-0.59
				c-2.84-1.2-5.81-2.96-8.71-5.23c-0.25-0.18-0.51-0.38-0.75-0.58c-0.45-0.37-0.9-0.75-1.34-1.13c-1.5-1.31-2.97-2.77-4.34-4.4
				c-1.67-1.94-3.22-4.1-4.57-6.46c-0.21-0.35-0.41-0.71-0.61-1.06c-1.64-3.04-2.97-6.39-3.85-9.97c-0.28-1.1-0.52-2.23-0.69-3.38
				c-0.18-1-0.31-2.02-0.41-3.04c-0.18-1.99-0.24-4.03-0.14-6.07c0.01-0.68,0.07-1.34,0.13-2.02c0.23-2.53,0.68-5.06,1.37-7.56
				c0.13-0.45,0.25-0.89,0.4-1.33c0.13-0.44,0.27-0.86,0.41-1.29c0.58-1.71,1.29-3.39,2.09-5.03c0.16-0.33,0.33-0.66,0.49-0.99
				c0.95-1.82,2.02-3.58,3.24-5.26c0.2-0.3,0.41-0.59,0.62-0.88c1.09-1.44,2.26-2.83,3.52-4.14c0.07-0.07,0.14-0.14,0.21-0.21
				c4.48-4.54,9.97-8.07,15.89-10.32c6.01-2.28,12.43-3.15,18.56-2.77c6.14,0.38,12,2.06,17.07,4.61c5.09,2.53,9.37,5.92,12.77,9.56
				c0.55,0.59,1.07,1.19,1.57,1.78C147.02,111.33,147.66,112.15,148.27,112.97z"/>
		</g>
	</g>
</g>
</svg>
