<?xml version="1.0" encoding="utf-8"?>
<!-- Generator: Adobe Illustrator 26.2.1, SVG Export Plug-In . SVG Version: 6.00 Build 0)  -->
<svg version="1.1" xmlns="http://www.w3.org/2000/svg" xmlns:xlink="http://www.w3.org/1999/xlink" x="0px" y="0px"
	 viewBox="0 0 225 225" style="enable-background:new 0 0 225 225;" xml:space="preserve">
<style type="text/css">
	.st0{display:none;}
	.st1{display:inline;fill:#FAB433;}
	.st2{fill:none;}
	.st3{fill:none;stroke:#000000;stroke-width:1.6;stroke-miterlimit:10;}
	.st4{fill:none;stroke:#000000;stroke-width:0.7265;stroke-miterlimit:10;}
	.st5{fill:none;stroke:#000000;stroke-linecap:round;stroke-linejoin:round;stroke-miterlimit:10;}
	.st6{fill:none;stroke:#000000;stroke-miterlimit:10;}
	.st7{fill:none;stroke:#000000;stroke-width:0.7105;stroke-miterlimit:10;}
	.st8{fill:none;stroke:#000000;stroke-width:5.4;stroke-linecap:round;stroke-linejoin:round;stroke-miterlimit:10;}
	.st9{fill:none;stroke:#000000;stroke-width:2.9309;stroke-linecap:round;stroke-linejoin:round;stroke-miterlimit:10;}
	.st10{fill:none;stroke:#000000;stroke-width:0.5;stroke-linecap:round;stroke-linejoin:round;}
	.st11{fill:none;stroke:#FFFFFF;stroke-width:0;stroke-linecap:round;stroke-linejoin:round;}
	.st12{fill:#FFFFFF;}
	.st13{fill:none;stroke:#000000;stroke-width:1.4;stroke-miterlimit:10;}
	.st14{fill:url(#);stroke:#000000;stroke-width:1.4387;stroke-miterlimit:10;}
	.st15{fill:url(#);stroke:#000000;stroke-width:1.3718;stroke-miterlimit:10;}
	.st16{fill:none;stroke:#000000;stroke-width:1.0041;stroke-miterlimit:10;}
	.st17{fill:none;stroke:#000000;stroke-width:1.3621;stroke-miterlimit:10;}
	.st18{fill:none;stroke:#000000;stroke-width:0.25;stroke-miterlimit:10;}
</style>
<g id="Layer_2" class="st0">
	<rect id="XMLID_1_" x="-590.99" y="-275.01" class="st1" width="1160" height="772"/>
</g>
<g id="Layer_1">
	<g id="XMLID_13215_">
		<path id="XMLID_13292_" d="M119.7,93.32c-4.74-0.07-9.5-0.07-14.25,0c-0.3,0-0.61,0.01-0.91,0.01l8.02,13.88v0v0l8.01-13.88
			C120.28,93.33,119.99,93.32,119.7,93.32z"/>
		<path id="XMLID_13291_" d="M98.47,93.46c-0.48,0.01-0.96,0.02-1.44,0.04c-0.42,0.01-0.83,0.03-1.25,0.04
			c-1.4,0.05-2.79,0.1-4.17,0.16c-0.17,0.01-0.34,0.01-0.5,0.02c-1.48,0.06-2.95,0.14-4.4,0.21c-0.47,0.03-0.95,0.05-1.42,0.08
			c-0.49,0.03-0.97,0.06-1.46,0.09c0.24,0.48,0.48,0.96,0.72,1.45c0.17,0.34,0.34,0.68,0.52,1.02c0.67,1.33,1.36,2.66,2.07,4.01
			c0.06,0.12,0.13,0.24,0.19,0.35c0.65,1.24,1.31,2.49,1.98,3.74c0.21,0.39,0.42,0.78,0.63,1.17c0.22,0.41,0.45,0.82,0.67,1.24
			C93.16,102.51,95.79,97.94,98.47,93.46z"/>
		<path id="XMLID_13290_" d="M75.7,94.66c-0.27,0.02-0.54,0.04-0.81,0.07c-0.82,0.07-1.63,0.14-2.43,0.22
			c-0.22,0.02-0.42,0.04-0.64,0.06c-0.63,0.06-1.26,0.12-1.88,0.18c-0.24,0.02-0.48,0.05-0.72,0.07c-0.7,0.07-1.4,0.15-2.08,0.23
			c-0.06,0.01-0.12,0.01-0.19,0.02c0.18,0.48,0.36,0.95,0.54,1.43c0.1,0.26,0.2,0.53,0.31,0.79c0.47,1.19,0.96,2.39,1.47,3.6
			c0.09,0.22,0.19,0.45,0.29,0.67c0.45,1.05,0.91,2.1,1.38,3.17c0.13,0.28,0.25,0.57,0.38,0.85c0.09,0.2,0.19,0.41,0.28,0.61
			c2-4.05,4.15-8.12,6.42-12.16c-0.16,0.01-0.32,0.03-0.48,0.04C76.92,94.56,76.31,94.61,75.7,94.66z"/>
		<path id="XMLID_13289_" d="M58.27,96.69c-0.15,0.02-0.3,0.05-0.45,0.07c-0.37,0.06-0.73,0.12-1.08,0.18
			c-0.17,0.03-0.34,0.06-0.51,0.09c-0.33,0.06-0.64,0.12-0.96,0.18c-0.1,0.02-0.2,0.04-0.3,0.06c0.13,0.52,0.24,1.04,0.38,1.57
			c0.03,0.1,0.05,0.19,0.07,0.29c0.27,1.05,0.57,2.11,0.89,3.19c0.06,0.2,0.12,0.4,0.18,0.6c0.27,0.91,0.57,1.83,0.87,2.76
			c1.28-3.14,2.69-6.31,4.22-9.48c-0.58,0.08-1.15,0.16-1.71,0.25c-0.1,0.02-0.2,0.03-0.3,0.05C59.13,96.55,58.69,96.62,58.27,96.69
			z"/>
		<path id="XMLID_13288_" d="M48.9,98.66c-0.06,0.02-0.13,0.04-0.2,0.06c-0.37,0.1-0.72,0.21-1.05,0.32c-0.01,0-0.03,0.01-0.04,0.01
			c0.04,0.4,0.08,0.8,0.12,1.21c0.03,0.23,0.05,0.47,0.08,0.7c0.11,0.86,0.24,1.73,0.38,2.6c0.56-1.73,1.18-3.47,1.84-5.21
			c-0.04,0.01-0.08,0.02-0.13,0.03C49.57,98.47,49.23,98.57,48.9,98.66z"/>
		<path id="XMLID_13287_" d="M109.31,76.16c-0.44,0-0.88,0-1.32,0.01c-0.42,0.01-0.84,0.01-1.27,0.02
			c-1.38,0.03-2.76,0.07-4.13,0.12c-0.15,0-0.3,0.01-0.45,0.01c-1.48,0.06-2.95,0.14-4.42,0.22c-0.45,0.03-0.89,0.05-1.34,0.08
			c-0.48,0.03-0.96,0.07-1.44,0.1l2.76,4.77l3.91,6.76C104.2,84.07,106.77,80.01,109.31,76.16z"/>
		<path id="XMLID_13286_" d="M88.59,77.26c-0.22,0.02-0.45,0.04-0.67,0.06c-0.3,0.03-0.6,0.06-0.9,0.09
			c-1.21,0.13-2.4,0.26-3.58,0.41c-0.18,0.02-0.37,0.04-0.56,0.07c-1.35,0.17-2.68,0.35-3.98,0.54c-0.22,0.03-0.43,0.07-0.64,0.1
			c-0.55,0.08-1.09,0.18-1.63,0.26c0.16,0.37,0.31,0.73,0.48,1.11c0.1,0.22,0.19,0.44,0.29,0.66c0.48,1.08,0.98,2.19,1.5,3.32
			c0.05,0.11,0.11,0.23,0.16,0.34c0.47,1.01,0.95,2.05,1.45,3.09c0.14,0.29,0.28,0.58,0.41,0.87c0.11,0.23,0.22,0.46,0.33,0.69
			C83.63,84.9,86.08,81.01,88.59,77.26z"/>
		<path id="XMLID_13285_" d="M70.57,79.88c-0.09,0.02-0.17,0.04-0.26,0.05c-0.56,0.11-1.11,0.23-1.65,0.35
			c-0.2,0.04-0.39,0.09-0.59,0.13c-0.45,0.1-0.91,0.21-1.35,0.31c-0.2,0.05-0.41,0.1-0.61,0.15c-0.45,0.11-0.89,0.22-1.33,0.33
			c-0.17,0.04-0.35,0.09-0.52,0.13c-0.58,0.15-1.15,0.3-1.7,0.46c-0.01,0-0.02,0.01-0.04,0.01c0.1,0.41,0.2,0.81,0.31,1.22
			c0.04,0.14,0.07,0.28,0.11,0.42c0.26,0.93,0.53,1.88,0.83,2.85c0.06,0.19,0.12,0.38,0.18,0.58c0.29,0.94,0.6,1.89,0.92,2.86
			C66.66,86.39,68.56,83.1,70.57,79.88z"/>
		<path id="XMLID_13284_" d="M56.77,83.64c-0.05,0.02-0.1,0.04-0.15,0.05c-0.61,0.23-1.21,0.46-1.78,0.69
			c-0.04,0.02-0.08,0.04-0.12,0.05c-0.59,0.25-1.16,0.5-1.71,0.75l0,0c0.02,0.3,0.04,0.6,0.06,0.9c0.03,0.35,0.06,0.7,0.1,1.06
			c0.06,0.54,0.12,1.1,0.2,1.65c0.04,0.34,0.08,0.67,0.13,1.02c0.01,0.09,0.03,0.19,0.04,0.28C54.55,87.93,55.63,85.78,56.77,83.64z
			"/>
		<path id="XMLID_13283_" d="M112.55,71.32c0.12-0.18,0.24-0.35,0.36-0.52c0.33-0.48,0.66-0.97,0.99-1.44
			c0.19-0.28,0.38-0.55,0.57-0.83c0.3-0.43,0.6-0.86,0.9-1.28c0.18-0.26,0.36-0.52,0.54-0.77c0.41-0.59,0.82-1.16,1.23-1.73
			c0.14-0.19,0.28-0.38,0.41-0.57c0.36-0.5,0.72-0.99,1.07-1.48c0.06-0.08,0.12-0.17,0.18-0.25c-0.33-0.01-0.65-0.03-0.98-0.04
			c-0.36-0.01-0.72-0.02-1.08-0.03c-1.4-0.03-2.79-0.06-4.19-0.06c-0.01,0-0.03,0-0.04,0c-1.39,0-2.79,0.02-4.18,0.06
			c-0.36,0.01-0.72,0.02-1.08,0.03c-0.32,0.01-0.64,0.03-0.96,0.04c0.06,0.07,0.11,0.15,0.17,0.23c0.43,0.58,0.86,1.18,1.29,1.78
			c0.02,0.03,0.04,0.06,0.06,0.09c0.47,0.66,0.95,1.33,1.43,2.01c0.12,0.17,0.24,0.35,0.36,0.52c0.37,0.52,0.74,1.05,1.11,1.59
			c0.14,0.2,0.27,0.4,0.41,0.6c0.4,0.57,0.8,1.16,1.2,1.75C112.4,71.1,112.47,71.2,112.55,71.32z"/>
		<path id="XMLID_13282_" d="M92.21,72c2.29-3.23,4.59-6.29,6.88-9.16c-0.13,0.01-0.27,0.02-0.4,0.03
			c-0.25,0.02-0.49,0.04-0.73,0.06c-1.18,0.1-2.34,0.21-3.5,0.34c-0.25,0.03-0.5,0.05-0.75,0.08c-1.29,0.15-2.57,0.31-3.84,0.48
			c-0.28,0.04-0.56,0.08-0.84,0.12c-0.45,0.07-0.9,0.14-1.35,0.21L92.21,72z"/>
		<path id="XMLID_13281_" d="M80.62,65.44c-0.96,0.2-1.91,0.41-2.84,0.63c-0.19,0.05-0.38,0.09-0.57,0.14
			c-1.1,0.27-2.19,0.54-3.25,0.83c-0.07,0.02-0.14,0.04-0.21,0.06c-0.54,0.15-1.06,0.31-1.6,0.47c0.06,0.18,0.12,0.35,0.19,0.54
			c0.06,0.15,0.11,0.3,0.16,0.46c0.27,0.74,0.55,1.5,0.85,2.28c0.05,0.12,0.1,0.25,0.15,0.37c0.32,0.84,0.66,1.7,1.02,2.59
			C76.5,70.9,78.54,68.1,80.62,65.44z"/>
		<path id="XMLID_13280_" d="M65.21,69.92c-0.05,0.02-0.11,0.04-0.16,0.06c-0.69,0.27-1.36,0.55-2.02,0.84
			c-0.11,0.05-0.23,0.1-0.34,0.15c-0.67,0.3-1.32,0.6-1.95,0.9c-0.02,0.01-0.03,0.02-0.05,0.02c0.02,0.18,0.03,0.36,0.05,0.55
			c0.03,0.29,0.06,0.59,0.1,0.9c0.05,0.41,0.11,0.83,0.17,1.26c0.04,0.31,0.09,0.61,0.14,0.93c0.02,0.13,0.05,0.26,0.07,0.38
			C62.51,73.87,63.84,71.87,65.21,69.92z"/>
		<polygon id="XMLID_13279_" points="53.3,76.52 53.3,76.52 53.3,76.52 		"/>
		<path id="XMLID_13278_" d="M103.02,58.1c1.78-2.06,3.53-3.98,5.24-5.74c-1.54,0.05-3.07,0.13-4.6,0.23
			c-0.21,0.01-0.42,0.04-0.63,0.05c-1.25,0.09-2.49,0.2-3.73,0.33c-0.12,0.01-0.24,0.03-0.36,0.04c0.06,0.07,0.12,0.14,0.18,0.22
			c0.21,0.25,0.42,0.5,0.63,0.76c0.11,0.14,0.22,0.27,0.34,0.41c0.21,0.26,0.43,0.53,0.65,0.8c0.11,0.14,0.23,0.28,0.34,0.42
			c0.22,0.28,0.44,0.56,0.67,0.84c0.12,0.15,0.23,0.29,0.35,0.44c0.22,0.28,0.45,0.57,0.67,0.86
			C102.86,57.88,102.94,57.99,103.02,58.1z"/>
		<path id="XMLID_13277_" d="M85.19,59.87c1.72-1.98,3.44-3.86,5.17-5.62c-0.38,0.07-0.75,0.14-1.13,0.21
			c-0.65,0.13-1.3,0.25-1.95,0.39c-0.61,0.13-1.21,0.27-1.81,0.41c-0.63,0.15-1.26,0.29-1.88,0.45c-0.24,0.06-0.47,0.12-0.7,0.18
			L85.19,59.87z"/>
		<path id="XMLID_13276_" d="M74.2,58.61c-0.83,0.31-1.64,0.63-2.44,0.96c-0.22,0.09-0.43,0.18-0.64,0.28
			c-0.38,0.16-0.74,0.33-1.11,0.5c0.01,0.03,0.01,0.06,0.02,0.09c0.02,0.1,0.05,0.21,0.07,0.31c0.08,0.36,0.18,0.74,0.28,1.14
			c0.04,0.17,0.09,0.34,0.14,0.51c0.03,0.12,0.07,0.25,0.11,0.38C71.8,61.34,72.99,59.95,74.2,58.61z"/>
		<path id="XMLID_13275_" d="M110.98,46.85c0.11,0.1,0.23,0.2,0.34,0.3c0.34,0.3,0.69,0.6,1.04,0.91c0.06,0.06,0.12,0.1,0.18,0.16
			c0.09-0.08,0.18-0.16,0.27-0.24c0.31-0.28,0.61-0.55,0.92-0.81c0.13-0.11,0.26-0.22,0.38-0.33c0.35-0.3,0.7-0.59,1.04-0.87
			c0.04-0.03,0.08-0.07,0.12-0.1c-1.82-0.05-3.65-0.05-5.47,0c0.05,0.04,0.1,0.09,0.15,0.13C110.29,46.27,110.63,46.55,110.98,46.85
			z"/>
		<path id="XMLID_13274_" d="M94.69,48.28c0.08,0.09,0.17,0.18,0.25,0.27c0.18,0.19,0.36,0.38,0.54,0.57
			c0.04,0.05,0.09,0.09,0.13,0.14c0.99-0.87,1.98-1.7,2.96-2.48c-0.19,0.03-0.38,0.04-0.57,0.07c-0.23,0.03-0.46,0.07-0.69,0.1
			c-0.95,0.15-1.9,0.3-2.84,0.47c-0.14,0.03-0.28,0.05-0.41,0.07c-0.04,0.01-0.08,0.02-0.12,0.02c0.04,0.04,0.07,0.07,0.11,0.11
			C94.26,47.84,94.48,48.06,94.69,48.28z"/>
		<path id="XMLID_13273_" d="M80.66,52.05c0.55-0.51,1.1-1,1.66-1.49c-0.22,0.07-0.44,0.14-0.65,0.22
			c-0.25,0.09-0.51,0.18-0.76,0.27c-0.23,0.08-0.45,0.17-0.68,0.26c0.09,0.16,0.19,0.34,0.29,0.51
			C80.57,51.9,80.62,51.97,80.66,52.05z"/>
		<path id="XMLID_13272_" d="M134.49,107.08c0.22-0.41,0.44-0.82,0.66-1.22c0.21-0.39,0.42-0.78,0.63-1.18
			c0.68-1.28,1.35-2.55,2.01-3.81c0.05-0.1,0.1-0.19,0.15-0.29c0.7-1.35,1.39-2.69,2.07-4.02c0.18-0.35,0.35-0.69,0.52-1.03
			c0.24-0.48,0.48-0.96,0.72-1.44c-0.5-0.03-1-0.06-1.5-0.09c-0.44-0.03-0.88-0.05-1.33-0.07c-1.47-0.08-2.95-0.15-4.46-0.22
			c-0.12,0-0.25-0.01-0.38-0.01c-1.41-0.06-2.83-0.11-4.27-0.16c-0.42-0.01-0.85-0.03-1.27-0.04c-0.47-0.01-0.95-0.03-1.42-0.04
			C129.31,97.95,131.94,102.51,134.49,107.08z"/>
		<path id="XMLID_13271_" d="M153.46,106.63c0.08-0.17,0.16-0.35,0.24-0.53c0.16-0.36,0.32-0.71,0.48-1.07
			c0.43-0.96,0.84-1.92,1.25-2.87c0.13-0.3,0.26-0.6,0.38-0.89c0.49-1.17,0.97-2.34,1.42-3.49c0.12-0.31,0.24-0.61,0.36-0.91
			c0.18-0.45,0.34-0.9,0.51-1.35c-0.05-0.01-0.11-0.01-0.16-0.02c-0.69-0.08-1.4-0.16-2.12-0.23c-0.23-0.02-0.47-0.05-0.7-0.07
			c-0.63-0.07-1.28-0.13-1.93-0.19c-0.19-0.02-0.38-0.04-0.57-0.05c-0.82-0.08-1.65-0.15-2.5-0.22c-0.2-0.02-0.4-0.03-0.6-0.05
			c-0.71-0.06-1.42-0.12-2.14-0.17c-0.11-0.01-0.22-0.02-0.33-0.03C149.32,98.52,151.47,102.59,153.46,106.63z"/>
		<path id="XMLID_13270_" d="M167.69,105.67c0.3-0.92,0.59-1.84,0.86-2.74c0.06-0.2,0.12-0.4,0.18-0.6
			c0.31-1.07,0.61-2.13,0.89-3.17c0.03-0.1,0.05-0.21,0.08-0.31c0.14-0.53,0.25-1.04,0.37-1.56c-0.08-0.02-0.15-0.03-0.23-0.04
			c-0.33-0.06-0.67-0.13-1.02-0.19c-0.18-0.03-0.37-0.07-0.55-0.1c-0.3-0.05-0.61-0.11-0.93-0.16c-0.21-0.03-0.42-0.07-0.63-0.1
			c-0.32-0.05-0.66-0.1-0.99-0.16c-0.2-0.03-0.4-0.06-0.6-0.09c-0.54-0.08-1.08-0.16-1.64-0.24h0
			C165.01,99.37,166.41,102.53,167.69,105.67z"/>
		<path id="XMLID_13269_" d="M176.81,103.54c0.14-0.87,0.27-1.73,0.38-2.57c0.03-0.24,0.06-0.48,0.08-0.72
			c0.05-0.4,0.08-0.8,0.12-1.2c-0.01,0-0.03-0.01-0.04-0.01c-0.33-0.11-0.67-0.21-1.03-0.31c-0.07-0.02-0.15-0.04-0.22-0.06
			c-0.31-0.09-0.63-0.18-0.96-0.26c-0.05-0.01-0.1-0.03-0.16-0.04C175.64,100.1,176.25,101.83,176.81,103.54z"/>
		<path id="XMLID_13268_" d="M123.49,88.28l4.42-7.65l2.24-3.88c-0.5-0.03-0.99-0.07-1.49-0.11c-0.43-0.03-0.86-0.06-1.29-0.08
			c-1.47-0.09-2.94-0.16-4.43-0.22c-0.19-0.01-0.39-0.01-0.58-0.02c-1.34-0.05-2.68-0.09-4.02-0.12c-0.43-0.01-0.86-0.02-1.28-0.03
			c-0.42-0.01-0.84-0.01-1.26-0.01C118.33,80.02,120.91,84.08,123.49,88.28z"/>
		<path id="XMLID_13267_" d="M143.82,88.88c0.11-0.23,0.22-0.46,0.33-0.68c0.14-0.3,0.28-0.59,0.42-0.88c0.47-1,0.93-1.98,1.38-2.95
			c0.08-0.17,0.16-0.34,0.23-0.5c0.51-1.11,1-2.2,1.48-3.26c0.1-0.23,0.2-0.45,0.3-0.68c0.17-0.38,0.32-0.74,0.48-1.11
			c-0.5-0.08-1-0.17-1.51-0.25c-0.27-0.04-0.54-0.08-0.82-0.12c-1.26-0.19-2.54-0.36-3.84-0.53c-0.26-0.03-0.53-0.06-0.8-0.1
			c-1.08-0.13-2.18-0.26-3.28-0.37c-0.36-0.04-0.73-0.08-1.09-0.11c-0.2-0.02-0.4-0.04-0.6-0.06
			C139.01,81.02,141.45,84.9,143.82,88.88z"/>
		<path id="XMLID_13266_" d="M160.19,89.73c0.32-0.96,0.62-1.9,0.91-2.82c0.07-0.22,0.13-0.43,0.2-0.64
			c0.29-0.95,0.56-1.89,0.81-2.81c0.04-0.14,0.08-0.28,0.11-0.43c0.11-0.41,0.21-0.81,0.31-1.22c-0.03-0.01-0.06-0.02-0.09-0.02
			c-0.53-0.15-1.08-0.3-1.63-0.44c-0.19-0.05-0.39-0.1-0.59-0.15c-0.41-0.1-0.82-0.21-1.24-0.31c-0.23-0.05-0.45-0.11-0.68-0.16
			c-0.41-0.1-0.83-0.19-1.26-0.29c-0.22-0.05-0.44-0.1-0.67-0.15c-0.49-0.11-0.99-0.21-1.49-0.32c-0.13-0.03-0.25-0.05-0.38-0.08
			C156.5,83.11,158.4,86.4,160.19,89.73z"/>
		<path id="XMLID_13265_" d="M171.49,90.1c0.01-0.09,0.03-0.17,0.04-0.26c0.05-0.35,0.09-0.68,0.13-1.02
			c0.07-0.55,0.14-1.11,0.2-1.65c0.04-0.37,0.07-0.73,0.1-1.09c0.02-0.29,0.04-0.58,0.06-0.87c0,0-0.01,0-0.01-0.01
			c-0.54-0.25-1.1-0.5-1.68-0.74c-0.05-0.02-0.09-0.04-0.14-0.06c-0.57-0.24-1.17-0.47-1.78-0.7c-0.04-0.02-0.09-0.03-0.13-0.05
			C169.41,85.79,170.48,87.94,171.49,90.1z"/>
		<path id="XMLID_13264_" d="M132.88,72.01l2.43-4.21l2.09-3.62c-0.44-0.07-0.88-0.14-1.32-0.21c-0.29-0.04-0.58-0.09-0.88-0.13
			c-1.26-0.18-2.53-0.34-3.82-0.48c-0.25-0.03-0.51-0.05-0.76-0.08c-1.15-0.12-2.32-0.24-3.49-0.34c-0.25-0.02-0.5-0.05-0.75-0.07
			c-0.13-0.01-0.26-0.02-0.39-0.03C128.28,65.71,130.58,68.78,132.88,72.01z"/>
		<path id="XMLID_13263_" d="M150.54,73.82c0.12-0.28,0.22-0.56,0.33-0.83c0.09-0.22,0.18-0.45,0.27-0.67
			c0.1-0.24,0.19-0.48,0.28-0.72c0.1-0.27,0.21-0.54,0.31-0.8c0.08-0.22,0.17-0.44,0.25-0.66c0.1-0.27,0.21-0.54,0.3-0.81
			c0.07-0.2,0.15-0.4,0.22-0.6c0.1-0.27,0.2-0.54,0.29-0.81c0.04-0.11,0.08-0.22,0.12-0.33c-0.48-0.14-0.95-0.29-1.45-0.43
			c-0.15-0.04-0.29-0.08-0.44-0.12c-1.02-0.28-2.06-0.55-3.12-0.8c-0.22-0.05-0.44-0.11-0.67-0.16c-0.91-0.22-1.84-0.42-2.78-0.61
			C146.53,68.12,148.57,70.91,150.54,73.82z"/>
		<path id="XMLID_13262_" d="M163.8,75.93c0.02-0.13,0.05-0.27,0.07-0.4c0.05-0.29,0.09-0.57,0.13-0.85
			c0.07-0.45,0.13-0.9,0.18-1.34c0.03-0.28,0.06-0.55,0.09-0.82c0.02-0.2,0.03-0.4,0.05-0.6c-0.01-0.01-0.03-0.01-0.04-0.02
			c-0.62-0.3-1.26-0.6-1.92-0.89c-0.12-0.05-0.24-0.11-0.37-0.16c-0.65-0.28-1.33-0.56-2.01-0.84c-0.05-0.02-0.1-0.04-0.14-0.06
			C161.21,71.89,162.53,73.89,163.8,75.93z"/>
		<path id="XMLID_13261_" d="M122.06,58.1c0.08-0.1,0.15-0.19,0.22-0.29c0.23-0.3,0.46-0.59,0.69-0.88
			c0.14-0.18,0.27-0.35,0.41-0.52c0.19-0.24,0.39-0.49,0.58-0.73c0.15-0.18,0.29-0.37,0.44-0.55c0.18-0.23,0.36-0.45,0.54-0.67
			c0.14-0.18,0.29-0.35,0.43-0.52c0.18-0.22,0.37-0.44,0.55-0.66c0.07-0.09,0.15-0.18,0.22-0.26c-0.15-0.02-0.29-0.04-0.44-0.05
			c-0.95-0.1-1.91-0.18-2.86-0.25c-0.52-0.04-1.04-0.09-1.57-0.13c-1.34-0.09-2.69-0.16-4.04-0.21c-0.14-0.01-0.27-0.02-0.41-0.02
			C118.53,54.12,120.28,56.04,122.06,58.1z"/>
		<path id="XMLID_13260_" d="M139.88,59.88l2.1-3.63l0.2-0.34c-0.23-0.06-0.46-0.13-0.7-0.19c-0.62-0.16-1.25-0.31-1.88-0.45
			c-0.6-0.14-1.21-0.28-1.82-0.41c-0.63-0.13-1.28-0.26-1.92-0.39c-0.38-0.07-0.76-0.14-1.14-0.21
			C136.44,56.03,138.16,57.9,139.88,59.88z"/>
		<path id="XMLID_13259_" d="M154.42,62.8c0.03-0.13,0.07-0.26,0.11-0.38c0.04-0.17,0.09-0.33,0.13-0.49c0.1-0.4,0.2-0.79,0.29-1.17
			c0.02-0.09,0.05-0.19,0.07-0.29c0.01-0.03,0.01-0.06,0.02-0.09c-0.38-0.17-0.75-0.35-1.14-0.51c-0.2-0.09-0.4-0.17-0.6-0.26
			c-0.79-0.33-1.6-0.65-2.43-0.96C152.07,59.98,153.26,61.37,154.42,62.8z"/>
		<path id="XMLID_13258_" d="M129.45,49.27c0.04-0.05,0.08-0.09,0.13-0.13c0.18-0.19,0.36-0.38,0.53-0.56
			c0.09-0.1,0.18-0.19,0.27-0.29c0.21-0.22,0.42-0.43,0.62-0.63c0.04-0.04,0.08-0.08,0.12-0.12c-0.05-0.01-0.09-0.02-0.13-0.03
			c-0.12-0.02-0.25-0.04-0.38-0.07c-0.94-0.17-1.88-0.33-2.83-0.47c-0.25-0.04-0.49-0.08-0.74-0.11c-0.18-0.03-0.36-0.04-0.54-0.07
			C127.47,47.57,128.45,48.39,129.45,49.27z"/>
		<path id="XMLID_13257_" d="M144.39,52.07l0.42-0.74c-0.23-0.09-0.46-0.18-0.69-0.26c-0.24-0.09-0.49-0.18-0.74-0.26
			c-0.21-0.07-0.43-0.14-0.64-0.21C143.3,51.08,143.84,51.57,144.39,52.07z"/>
		<path id="XMLID_13256_" d="M124.03,125.49c2.43-4.09,4.82-8.23,7.15-12.4c0.13-0.24,0.26-0.47,0.39-0.71l-16.03,0l8.02,13.89
			C123.71,126.02,123.87,125.75,124.03,125.49z"/>
		<path id="XMLID_13255_" d="M145.35,122.85c0.62-1.14,1.23-2.27,1.83-3.41c0.11-0.21,0.22-0.41,0.33-0.62
			c0.68-1.3,1.34-2.6,1.99-3.89c0.21-0.42,0.41-0.83,0.62-1.25c0.21-0.43,0.41-0.86,0.62-1.29l-13.33-0.01
			c2.35,4.33,4.58,8.6,6.66,12.74c0.19-0.34,0.39-0.68,0.58-1.03C144.88,123.69,145.12,123.27,145.35,122.85z"/>
		<path id="XMLID_13254_" d="M161.22,121.91c0.5-1.07,0.98-2.14,1.45-3.2c0.1-0.22,0.2-0.44,0.29-0.66
			c0.52-1.21,1.03-2.41,1.51-3.61c0.1-0.24,0.19-0.48,0.29-0.72c0.17-0.44,0.34-0.88,0.5-1.31l-9.06-0.01
			c1.66,3.6,3.17,7.14,4.51,10.56c0.06-0.12,0.12-0.23,0.17-0.35C161,122.38,161.11,122.14,161.22,121.91z"/>
		<path id="XMLID_13253_" d="M173.53,116.77c0.19-0.6,0.38-1.19,0.56-1.79c0.19-0.62,0.37-1.24,0.55-1.86
			c0.07-0.23,0.13-0.47,0.19-0.7l-4.6-0.01c0.86,2.48,1.63,4.92,2.29,7.3c0.13-0.37,0.26-0.74,0.39-1.11
			C173.12,117.99,173.33,117.38,173.53,116.77z"/>
		<path id="XMLID_13252_" d="M180.01,113.17c0.04-0.25,0.08-0.49,0.12-0.73l-0.86,0c0.17,0.73,0.32,1.46,0.47,2.19
			c0.04-0.22,0.09-0.45,0.14-0.67C179.92,113.68,179.97,113.42,180.01,113.17z"/>
		<path id="XMLID_13251_" d="M113.44,142.49c0.21-0.32,0.42-0.64,0.63-0.97c0.82-1.26,1.64-2.53,2.46-3.83
			c0.05-0.08,0.1-0.16,0.16-0.25c0.77-1.21,1.53-2.43,2.3-3.67c0.23-0.37,0.47-0.75,0.7-1.13c0.24-0.39,0.48-0.79,0.72-1.18
			c-5.24,0.08-10.51,0.08-15.73,0c0.21,0.35,0.42,0.7,0.64,1.04c0.29,0.47,0.58,0.94,0.87,1.41c0.66,1.06,1.32,2.12,1.98,3.16
			c0.15,0.23,0.29,0.47,0.44,0.7c0.8,1.26,1.59,2.49,2.39,3.71c0.22,0.34,0.45,0.68,0.67,1.02c0.29,0.45,0.58,0.89,0.88,1.33
			C112.85,143.39,113.14,142.94,113.44,142.49z"/>
		<path id="XMLID_13250_" d="M126.48,131.34l6.67,11.57c0.26-0.39,0.52-0.77,0.78-1.16c0.27-0.4,0.53-0.8,0.8-1.21
			c0.79-1.2,1.57-2.41,2.35-3.64c0.14-0.22,0.28-0.45,0.42-0.67c0.67-1.07,1.34-2.15,2-3.23c0.25-0.41,0.49-0.82,0.74-1.23
			c0.2-0.34,0.4-0.68,0.6-1.02C136.22,131.01,131.41,131.21,126.48,131.34z"/>
		<path id="XMLID_13249_" d="M146.65,130.36c1.67,3.46,3.2,6.76,4.57,9.89c0.17-0.27,0.35-0.54,0.51-0.81
			c0.19-0.31,0.39-0.63,0.58-0.94c0.72-1.19,1.44-2.38,2.14-3.59c0-0.01,0.01-0.01,0.01-0.02c0.7-1.22,1.39-2.46,2.06-3.69
			c0.16-0.3,0.33-0.6,0.49-0.91c0.16-0.3,0.31-0.6,0.47-0.89C154.1,129.75,150.48,130.08,146.65,130.36z"/>
		<path id="XMLID_13248_" d="M162.87,128.74c0.9,2.58,1.69,5.06,2.37,7.43c0.04-0.07,0.07-0.14,0.11-0.21
			c0.66-1.25,1.3-2.5,1.92-3.76c0.23-0.47,0.44-0.94,0.66-1.4c0.41-0.87,0.83-1.75,1.22-2.63c0.06-0.14,0.12-0.28,0.18-0.41
			C167.34,128.1,165.18,128.43,162.87,128.74z"/>
		<path id="XMLID_13247_" d="M174.23,126.78c0.26,1.3,0.49,2.58,0.68,3.83c0.07-0.16,0.14-0.32,0.2-0.49c0.1-0.25,0.2-0.5,0.29-0.75
			c0.35-0.89,0.68-1.79,1-2.68c0.04-0.12,0.09-0.23,0.13-0.35c0.02-0.05,0.03-0.09,0.05-0.14
			C175.85,126.39,175.07,126.59,174.23,126.78z"/>
		<path id="XMLID_13246_" d="M122.41,157.53c0.46-0.57,0.93-1.15,1.39-1.74c0.19-0.24,0.38-0.48,0.57-0.73
			c0.37-0.48,0.75-0.96,1.12-1.45c0.18-0.24,0.37-0.48,0.55-0.72c0.52-0.69,1.04-1.39,1.57-2.09c0.14-0.19,0.29-0.39,0.43-0.59
			c0.41-0.56,0.82-1.13,1.23-1.7c0.09-0.12,0.17-0.24,0.26-0.36c-4.51,0.3-9.11,0.48-13.75,0.53c2.22,3.26,4.37,6.31,6.43,9.1
			C122.28,157.7,122.34,157.61,122.41,157.53z"/>
		<path id="XMLID_13245_" d="M141.79,153.8c0.79-1.02,1.58-2.06,2.36-3.12c0.14-0.19,0.27-0.38,0.41-0.56
			c0.7-0.96,1.39-1.93,2.08-2.91c0.14-0.2,0.28-0.39,0.41-0.59c0.08-0.11,0.16-0.23,0.23-0.35c-3.63,0.55-7.45,1.01-11.4,1.37
			l4.54,7.87c0.29-0.36,0.58-0.71,0.87-1.08C141.45,154.23,141.62,154.01,141.79,153.8z"/>
		<path id="XMLID_13244_" d="M157.69,148.56c0.28-0.4,0.56-0.8,0.84-1.21c0.83-1.24,1.64-2.49,2.43-3.77
			c-2.39,0.6-4.93,1.16-7.61,1.66c0.89,2.17,1.68,4.21,2.37,6.1c0.09-0.12,0.17-0.23,0.26-0.35
			C156.56,150.2,157.13,149.38,157.69,148.56z"/>
		<path id="XMLID_13243_" d="M168.79,143.15c0.45-0.79,0.89-1.59,1.32-2.39c-1.08,0.41-2.23,0.81-3.43,1.2
			c0.27,1.24,0.49,2.43,0.68,3.58c0.46-0.76,0.92-1.51,1.37-2.28C168.75,143.22,168.77,143.19,168.79,143.15z"/>
		<path id="XMLID_13242_" d="M113.82,167.23c0.13-0.14,0.27-0.28,0.4-0.41c0.3-0.31,0.6-0.63,0.91-0.95
			c0.16-0.17,0.32-0.34,0.48-0.51c0.29-0.31,0.58-0.62,0.87-0.94c0.16-0.18,0.32-0.35,0.48-0.52c0.32-0.36,0.65-0.72,0.98-1.09
			c0.1-0.11,0.2-0.23,0.31-0.34c-3.79,0.12-7.61,0.12-11.4,0c0.09,0.1,0.17,0.19,0.25,0.29c0.35,0.39,0.69,0.78,1.04,1.16
			c0.15,0.17,0.3,0.33,0.45,0.49c0.3,0.32,0.59,0.64,0.89,0.96c0.16,0.17,0.33,0.35,0.49,0.52c0.28,0.3,0.56,0.59,0.84,0.88
			c0.16,0.17,0.33,0.34,0.49,0.5c0.3,0.3,0.6,0.6,0.89,0.89c0.12,0.12,0.24,0.24,0.36,0.36c0.01-0.01,0.02-0.02,0.03-0.03
			C112.98,168.08,113.4,167.66,113.82,167.23z"/>
		<path id="XMLID_13241_" d="M129.73,167.3c0.47-0.45,0.95-0.91,1.42-1.39c0.15-0.15,0.3-0.3,0.45-0.45c0.33-0.33,0.66-0.66,0.99-1
			c0.17-0.18,0.34-0.35,0.51-0.53c0.31-0.33,0.63-0.66,0.94-1c0.17-0.18,0.34-0.36,0.51-0.55c0.33-0.35,0.65-0.71,0.98-1.07
			c0.1-0.11,0.19-0.21,0.29-0.32c-3.36,0.47-6.82,0.84-10.33,1.1C126.97,164,128.39,165.75,129.73,167.3
			C129.72,167.3,129.72,167.3,129.73,167.3z"/>
		<path id="XMLID_13240_" d="M147.06,161.89c0.42-0.45,0.84-0.9,1.25-1.37c0.44-0.49,0.87-0.99,1.31-1.49
			c0.25-0.29,0.5-0.59,0.76-0.89c-2.4,0.61-4.89,1.17-7.48,1.67l2.31,4.01c0.17-0.18,0.34-0.34,0.52-0.52
			C146.17,162.84,146.61,162.37,147.06,161.89z"/>
		<path id="XMLID_13239_" d="M158.31,158.09c0.63-0.74,1.25-1.49,1.86-2.26c0.15-0.2,0.31-0.39,0.47-0.59
			c0.12-0.15,0.23-0.31,0.35-0.46c-1.18,0.46-2.4,0.9-3.66,1.33c0.25,0.83,0.48,1.61,0.67,2.34c0.03-0.04,0.06-0.07,0.1-0.11
			C158.17,158.26,158.24,158.17,158.31,158.09z"/>
		<path id="XMLID_13238_" d="M116.98,172.56c1.12,0.94,2.2,1.77,3.24,2.51c0.03-0.02,0.06-0.04,0.08-0.05
			c0.57-0.39,1.14-0.79,1.72-1.22c0.1-0.08,0.21-0.15,0.32-0.23c0.59-0.44,1.18-0.89,1.77-1.36c0.03-0.03,0.07-0.06,0.11-0.08
			C121.83,172.33,119.41,172.48,116.98,172.56z"/>
		<path id="XMLID_13237_" d="M133.08,171.01c0.64,0.66,1.24,1.24,1.82,1.77c0.32-0.24,0.65-0.46,0.98-0.71
			c0.19-0.15,0.39-0.29,0.58-0.43c0.69-0.53,1.38-1.08,2.07-1.65C136.75,170.37,134.93,170.71,133.08,171.01z"/>
		<path id="XMLID_13236_" d="M147.42,167.68c0.15,0.27,0.3,0.52,0.44,0.77c0.18-0.15,0.37-0.3,0.55-0.45
			c0.22-0.18,0.43-0.36,0.64-0.55c0.18-0.15,0.35-0.32,0.53-0.47C148.87,167.22,148.15,167.45,147.42,167.68z"/>
		<path id="XMLID_13235_" d="M112.48,179.15c0.01,0.01,0.03,0.01,0.04,0.02c0.02-0.01,0.03-0.01,0.04-0.02
			C112.54,179.15,112.51,179.15,112.48,179.15z"/>
		<path id="XMLID_13234_" d="M109.56,112.39l-16.04,0c0.14,0.25,0.28,0.5,0.41,0.74c2.33,4.16,4.73,8.32,7.18,12.44
			c0.14,0.24,0.28,0.48,0.42,0.71L109.56,112.39z"/>
		<path id="XMLID_13233_" d="M87.68,112.39l-13.35,0.01c0.23,0.48,0.46,0.95,0.69,1.42c0.17,0.34,0.34,0.69,0.51,1.03
			c0.67,1.34,1.36,2.68,2.06,4.02c0.07,0.13,0.14,0.26,0.21,0.39c0.64,1.22,1.3,2.44,1.97,3.66c0.2,0.37,0.41,0.74,0.61,1.11
			c0.2,0.37,0.42,0.74,0.62,1.11C83.09,121.01,85.33,116.74,87.68,112.39z"/>
		<path id="XMLID_13232_" d="M68.86,112.4l-9.08,0.01c0.17,0.43,0.32,0.86,0.5,1.29c0.1,0.26,0.2,0.51,0.31,0.77
			c0.48,1.19,0.98,2.38,1.5,3.58c0.1,0.23,0.2,0.45,0.3,0.68c0.47,1.07,0.96,2.15,1.47,3.22c0.1,0.22,0.2,0.43,0.3,0.65
			c0.06,0.12,0.12,0.25,0.18,0.37C65.69,119.55,67.2,116.01,68.86,112.4z"/>
		<path id="XMLID_13231_" d="M54.81,112.41l-4.62,0.01c0.07,0.24,0.13,0.47,0.19,0.71c0.17,0.61,0.36,1.23,0.55,1.84
			c0.18,0.6,0.37,1.2,0.56,1.8c0.2,0.62,0.42,1.25,0.63,1.87c0.12,0.36,0.25,0.72,0.38,1.09C53.17,117.35,53.94,114.9,54.81,112.41z
			"/>
		<path id="XMLID_13230_" d="M45.75,112.43l-0.88,0c0.04,0.25,0.08,0.5,0.12,0.76c0.04,0.25,0.09,0.5,0.14,0.75
			c0.04,0.24,0.1,0.48,0.15,0.72C45.42,113.92,45.58,113.18,45.75,112.43z"/>
		<path id="XMLID_13229_" d="M85.52,132.88c0.76,1.26,1.53,2.51,2.31,3.75c0.04,0.06,0.08,0.12,0.11,0.18
			c0.82,1.29,1.64,2.56,2.47,3.82c0.22,0.34,0.44,0.67,0.67,1.01c0.28,0.43,0.57,0.85,0.86,1.27l6.68-11.57
			c-4.94-0.13-9.75-0.33-14.38-0.6c0.22,0.38,0.44,0.76,0.67,1.14C85.12,132.22,85.32,132.55,85.52,132.88z"/>
		<path id="XMLID_13228_" d="M78.43,130.37c-3.84-0.28-7.47-0.6-10.86-0.97c0.17,0.31,0.32,0.63,0.49,0.94
			c0.15,0.27,0.29,0.54,0.44,0.81c1.36,2.5,2.79,4.97,4.27,7.4c0.17,0.29,0.35,0.57,0.53,0.86c0.18,0.29,0.36,0.57,0.54,0.86
			C75.23,137.14,76.76,133.82,78.43,130.37z"/>
		<path id="XMLID_13227_" d="M62.19,128.75c-2.32-0.31-4.49-0.64-6.48-0.99c0.06,0.13,0.11,0.26,0.17,0.39
			c0.41,0.92,0.84,1.84,1.28,2.76c0.21,0.43,0.4,0.87,0.61,1.3c0.65,1.34,1.33,2.67,2.03,3.99c0,0,0,0.01,0,0.01
			C60.49,133.83,61.28,131.34,62.19,128.75z"/>
		<path id="XMLID_13226_" d="M50.8,126.79c-0.84-0.19-1.63-0.39-2.37-0.58c0.02,0.05,0.03,0.09,0.04,0.14
			c0.04,0.13,0.09,0.25,0.14,0.38c0.32,0.89,0.65,1.78,1,2.67c0.1,0.25,0.19,0.49,0.29,0.74c0.07,0.17,0.15,0.34,0.22,0.52
			C50.3,129.38,50.53,128.1,50.8,126.79z"/>
		<path id="XMLID_13225_" d="M97.16,150.37c0.1,0.13,0.19,0.26,0.29,0.39c0.54,0.73,1.08,1.45,1.62,2.17
			c0.16,0.21,0.32,0.41,0.48,0.62c0.4,0.52,0.8,1.04,1.2,1.56c0.17,0.22,0.35,0.45,0.52,0.67c0.5,0.63,0.99,1.25,1.48,1.86
			c0.04,0.05,0.08,0.1,0.13,0.16c2.06-2.79,4.22-5.84,6.44-9.1c-4.64-0.06-9.24-0.23-13.75-0.53c0.07,0.1,0.14,0.2,0.21,0.3
			C96.23,149.1,96.7,149.74,97.16,150.37z"/>
		<path id="XMLID_13224_" d="M78.49,147.31c0.65,0.94,1.31,1.86,1.98,2.77c0.16,0.21,0.31,0.43,0.47,0.64
			c0.77,1.04,1.54,2.06,2.32,3.07c0.19,0.24,0.37,0.47,0.56,0.71c0.28,0.35,0.56,0.69,0.83,1.04l4.55-7.88
			c-3.96-0.37-7.78-0.83-11.42-1.37c0.07,0.1,0.13,0.2,0.2,0.3C78.15,146.83,78.33,147.07,78.49,147.31z"/>
		<path id="XMLID_13223_" d="M71.71,145.26c-2.69-0.51-5.24-1.06-7.64-1.67c0.01,0.01,0.01,0.02,0.02,0.04
			c0.78,1.26,1.59,2.5,2.41,3.73c0.28,0.41,0.56,0.81,0.84,1.22c0.57,0.82,1.13,1.64,1.71,2.44c0.09,0.12,0.17,0.23,0.26,0.35
			C70.02,149.47,70.82,147.43,71.71,145.26z"/>
		<path id="XMLID_13222_" d="M58.36,141.98c-1.21-0.39-2.36-0.79-3.45-1.2c0.88,1.62,1.8,3.22,2.76,4.79
			C57.86,144.42,58.09,143.22,58.36,141.98z"/>
		<path id="XMLID_13221_" d="M90.5,162.37c0.18,0.2,0.37,0.4,0.55,0.59c0.31,0.33,0.62,0.66,0.93,0.98c0.17,0.18,0.34,0.35,0.5,0.53
			c0.35,0.36,0.69,0.71,1.04,1.05c0.13,0.13,0.26,0.27,0.39,0.4c0.48,0.48,0.96,0.95,1.44,1.4c1.34-1.56,2.76-3.3,4.26-5.22
			c-3.52-0.26-6.98-0.62-10.35-1.09c0.12,0.13,0.24,0.26,0.35,0.39C89.91,161.72,90.2,162.05,90.5,162.37z"/>
		<path id="XMLID_13220_" d="M76.75,160.56c0.42,0.46,0.83,0.91,1.25,1.36c0.44,0.47,0.87,0.93,1.31,1.39
			c0.18,0.18,0.36,0.36,0.54,0.54l2.32-4.01c-2.59-0.49-5.1-1.05-7.5-1.67c0.24,0.28,0.48,0.56,0.72,0.84
			C75.84,159.54,76.3,160.05,76.75,160.56z"/>
		<path id="XMLID_13219_" d="M67.72,156.13c-1.27-0.43-2.5-0.87-3.68-1.33c0.12,0.16,0.24,0.32,0.36,0.47
			c0.16,0.2,0.32,0.4,0.47,0.6c0.59,0.74,1.19,1.47,1.8,2.19c0.1,0.11,0.19,0.23,0.28,0.34c0.03,0.03,0.06,0.06,0.09,0.09
			C67.24,157.74,67.46,156.96,67.72,156.13z"/>
		<path id="XMLID_13218_" d="M102.73,173.58c0.1,0.07,0.19,0.14,0.29,0.21c0.6,0.44,1.19,0.86,1.78,1.26
			c0.01,0.01,0.03,0.02,0.04,0.03c1.04-0.74,2.13-1.58,3.25-2.51c-2.43-0.08-4.85-0.23-7.25-0.44c0.04,0.04,0.09,0.07,0.13,0.1
			C101.56,172.69,102.15,173.15,102.73,173.58z"/>
		<path id="XMLID_13217_" d="M89.15,172.07c0.34,0.25,0.67,0.49,1.01,0.73c0.58-0.53,1.18-1.12,1.83-1.78
			c-1.85-0.3-3.68-0.64-5.46-1.02c0.69,0.57,1.39,1.13,2.09,1.66C88.79,171.8,88.97,171.93,89.15,172.07z"/>
		<path id="XMLID_13216_" d="M77.63,167.7c-0.74-0.23-1.47-0.47-2.19-0.71c0.18,0.16,0.36,0.32,0.53,0.47
			c0.22,0.19,0.43,0.37,0.65,0.55c0.19,0.16,0.37,0.3,0.56,0.45L77.63,167.7z"/>
	</g>
</g>
</svg>
