<?xml version="1.0" encoding="utf-8"?>
<!-- Generator: Adobe Illustrator 26.2.1, SVG Export Plug-In . SVG Version: 6.00 Build 0)  -->
<svg version="1.1" xmlns="http://www.w3.org/2000/svg" xmlns:xlink="http://www.w3.org/1999/xlink" x="0px" y="0px"
	 viewBox="0 0 225 225" style="enable-background:new 0 0 225 225;" xml:space="preserve">
<style type="text/css">
	.st0{display:none;}
	.st1{display:inline;fill:#FAB433;}
	.st2{fill:none;}
	.st3{fill:none;stroke:#000000;stroke-width:1.6;stroke-miterlimit:10;}
	.st4{fill:none;stroke:#000000;stroke-width:0.7265;stroke-miterlimit:10;}
	.st5{fill:none;stroke:#000000;stroke-linecap:round;stroke-linejoin:round;stroke-miterlimit:10;}
	.st6{fill:none;stroke:#000000;stroke-miterlimit:10;}
	.st7{fill:none;stroke:#000000;stroke-width:0.7105;stroke-miterlimit:10;}
	.st8{fill:none;stroke:#000000;stroke-width:5.4;stroke-linecap:round;stroke-linejoin:round;stroke-miterlimit:10;}
	.st9{fill:none;stroke:#000000;stroke-width:2.9309;stroke-linecap:round;stroke-linejoin:round;stroke-miterlimit:10;}
	.st10{fill:none;stroke:#000000;stroke-width:0.5;stroke-linecap:round;stroke-linejoin:round;}
	.st11{fill:none;stroke:#FFFFFF;stroke-width:0;stroke-linecap:round;stroke-linejoin:round;}
	.st12{fill:#FFFFFF;}
	.st13{fill:none;stroke:#000000;stroke-width:1.4;stroke-miterlimit:10;}
	.st14{fill:url(#);stroke:#000000;stroke-width:1.4387;stroke-miterlimit:10;}
	.st15{fill:url(#);stroke:#000000;stroke-width:1.3718;stroke-miterlimit:10;}
	.st16{fill:none;stroke:#000000;stroke-width:1.0041;stroke-miterlimit:10;}
	.st17{fill:none;stroke:#000000;stroke-width:1.3621;stroke-miterlimit:10;}
	.st18{fill:none;stroke:#000000;stroke-width:0.25;stroke-miterlimit:10;}
</style>
<g id="Layer_2" class="st0">
	<rect id="XMLID_1638_" x="-100.99" y="-275.01" class="st1" width="1160" height="772"/>
</g>
<g id="Layer_1">
	<path id="XMLID_6471_" d="M180.9,112.5c0-37.72-30.68-68.4-68.4-68.4c-37.57,0-68.4,30.64-68.4,68.4c0,37.72,30.68,68.4,68.4,68.4
		C150.01,180.9,180.9,150.34,180.9,112.5z M166.66,87.88c-11.47-16.7-31.46-27.79-54.16-27.79c-26.7,0-48.41,19.92-48.41,44.42
		s21.72,44.42,48.41,44.42c17.88,0,32.42-12.75,32.42-28.43s-14.55-28.43-32.42-28.43c-9.22,0-16.43,5.46-16.43,12.44
		c0,6.97,7.22,12.44,16.43,12.44c4.68,0,7.55,2.3,7.55,3.55s-2.87,3.55-7.55,3.55c-12.98,0-23.54-8.77-23.54-19.54
		s10.56-19.54,23.54-19.54c21.8,0,39.53,15.94,39.53,35.53c0,19.59-17.73,35.53-39.53,35.53c-14.89,0-28.87-5.4-39.37-15.2
		c-10.42-9.72-16.15-22.62-16.15-36.33c0-29.13,25.61-51.52,55.52-51.52C136.54,52.98,157.28,67.32,166.66,87.88z M58.44,137.35
		c2.47,3.56,5.34,6.91,8.63,9.97c12.15,11.34,28.28,17.59,45.43,17.59c26.7,0,48.41-19.92,48.41-44.42
		c0-24.49-21.72-44.42-48.41-44.42c-17.88,0-32.42,12.75-32.42,28.43s14.55,28.43,32.42,28.43c9.22,0,16.43-5.46,16.43-12.44
		s-7.22-12.44-16.43-12.44c-4.68,0-7.55-2.3-7.55-3.55c0-1.25,2.87-3.55,7.55-3.55c12.98,0,23.54,8.77,23.54,19.54
		s-10.56,19.54-23.54,19.54c-21.8,0-39.53-15.94-39.53-35.53S90.7,68.97,112.5,68.97c30.61,0,55.52,23.11,55.52,51.52
		c0,29.14-25.62,51.52-55.52,51.52C88.55,172.02,67.87,157.79,58.44,137.35z"/>
</g>
</svg>
