<?xml version="1.0" encoding="utf-8"?>
<!-- Generator: Adobe Illustrator 26.2.1, SVG Export Plug-In . SVG Version: 6.00 Build 0)  -->
<svg version="1.1" xmlns="http://www.w3.org/2000/svg" xmlns:xlink="http://www.w3.org/1999/xlink" x="0px" y="0px"
	 viewBox="0 0 225 225" style="enable-background:new 0 0 225 225;" xml:space="preserve">
<style type="text/css">
	.st0{display:none;}
	.st1{display:inline;fill:#FAB433;}
	.st2{fill:none;}
	.st3{fill:none;stroke:#000000;stroke-width:1.6;stroke-miterlimit:10;}
	.st4{fill:none;stroke:#000000;stroke-width:0.7265;stroke-miterlimit:10;}
	.st5{fill:none;stroke:#000000;stroke-linecap:round;stroke-linejoin:round;stroke-miterlimit:10;}
	.st6{fill:none;stroke:#000000;stroke-miterlimit:10;}
	.st7{fill:none;stroke:#000000;stroke-width:0.7105;stroke-miterlimit:10;}
	.st8{fill:none;stroke:#000000;stroke-width:5.4;stroke-linecap:round;stroke-linejoin:round;stroke-miterlimit:10;}
	.st9{fill:none;stroke:#000000;stroke-width:2.9309;stroke-linecap:round;stroke-linejoin:round;stroke-miterlimit:10;}
	.st10{fill:none;stroke:#000000;stroke-width:0.5;stroke-linecap:round;stroke-linejoin:round;}
	.st11{fill:none;stroke:#FFFFFF;stroke-width:0;stroke-linecap:round;stroke-linejoin:round;}
	.st12{fill:#FFFFFF;}
	.st13{fill:none;stroke:#000000;stroke-width:1.4;stroke-miterlimit:10;}
	.st14{fill:url(#);stroke:#000000;stroke-width:1.4387;stroke-miterlimit:10;}
	.st15{fill:url(#);stroke:#000000;stroke-width:1.3718;stroke-miterlimit:10;}
	.st16{fill:none;stroke:#000000;stroke-width:1.0041;stroke-miterlimit:10;}
	.st17{fill:none;stroke:#000000;stroke-width:1.3621;stroke-miterlimit:10;}
	.st18{fill:none;stroke:#000000;stroke-width:0.25;stroke-miterlimit:10;}
</style>
<g id="Layer_2" class="st0">
	<rect id="XMLID_2028_" x="-590.99" y="-30.01" class="st1" width="1160" height="772"/>
</g>
<g id="Layer_1">
	<g id="XMLID_15248_">
		<g id="XMLID_12352_">
			<path id="XMLID_12416_" class="st18" d="M112.5,112.5h65.88c0.9,0,1.64,0.74,1.62,1.64c0,0.01,0,0.02,0,0.04
				c-0.02,0.9-0.8,1.6-1.7,1.56L112.5,112.5z"/>
			<path id="XMLID_12415_" class="st18" d="M179.84,107.55c0.07,0.9-0.64,1.67-1.54,1.72l-65.8,3.23l65.56-6.46
				c0.9-0.09,1.71,0.57,1.77,1.47C179.84,107.53,179.84,107.54,179.84,107.55z"/>
			<path id="XMLID_12414_" class="st18" d="M112.5,112.5l65.57,6.46c0.9,0.09,1.56,0.89,1.45,1.79c0,0.01,0,0.03,0,0.04
				c-0.11,0.9-0.95,1.52-1.84,1.38L112.5,112.5z"/>
			<path id="XMLID_12413_" class="st18" d="M179.04,100.98c0.15,0.89-0.45,1.72-1.34,1.85l-65.19,9.67l64.64-12.86
				c0.89-0.18,1.74,0.41,1.89,1.3L179.04,100.98z"/>
			<path id="XMLID_12412_" class="st18" d="M112.5,112.5l64.63,12.85c0.88,0.18,1.47,1.04,1.27,1.92c0,0.01-0.01,0.02-0.01,0.03
				c-0.2,0.88-1.09,1.42-1.97,1.2L112.5,112.5z"/>
			<path id="XMLID_12411_" class="st18" d="M177.59,94.51c0.24,0.87-0.3,1.76-1.17,1.98L112.5,112.5l63.06-19.13
				c0.86-0.26,1.79,0.23,2.03,1.1C177.59,94.48,177.59,94.5,177.59,94.51z"/>
			<path id="XMLID_12410_" class="st18" d="M112.5,112.5l63.06,19.13c0.86,0.26,1.36,1.18,1.07,2.04c0,0.01-0.01,0.02-0.01,0.03
				c-0.28,0.86-1.23,1.3-2.08,1L112.5,112.5z"/>
			<path id="XMLID_12409_" class="st18" d="M175.52,88.21c0.33,0.84-0.12,1.79-0.97,2.09l-62.04,22.2l60.88-25.22
				c0.83-0.34,1.8,0.05,2.12,0.89C175.51,88.19,175.51,88.2,175.52,88.21z"/>
			<path id="XMLID_12408_" class="st18" d="M112.5,112.5l60.88,25.22c0.83,0.35,1.24,1.31,0.87,2.13c-0.01,0.01-0.01,0.02-0.02,0.04
				c-0.37,0.82-1.35,1.17-2.16,0.79L112.5,112.5z"/>
			<path id="XMLID_12407_" class="st18" d="M172.83,82.15c0.41,0.81,0.05,1.79-0.76,2.17L112.5,112.5l58.11-31.06
				c0.8-0.42,1.79-0.12,2.2,0.68C172.82,82.13,172.82,82.14,172.83,82.15z"/>
			<path id="XMLID_12406_" class="st18" d="M112.5,112.5l58.11,31.06c0.8,0.43,1.1,1.42,0.66,2.21c-0.01,0.01-0.01,0.02-0.02,0.03
				c-0.44,0.78-1.46,1.04-2.23,0.57L112.5,112.5z"/>
			<path id="XMLID_12405_" class="st18" d="M169.56,76.39c0.48,0.76,0.23,1.78-0.55,2.24L112.5,112.5l54.78-36.6
				c0.75-0.5,1.77-0.3,2.26,0.46C169.54,76.37,169.55,76.38,169.56,76.39z"/>
			<path id="XMLID_12404_" class="st18" d="M112.5,112.5l54.78,36.6c0.75,0.5,0.96,1.53,0.44,2.26c-0.01,0.01-0.01,0.02-0.02,0.03
				c-0.52,0.74-1.55,0.89-2.28,0.35L112.5,112.5z"/>
			<path id="XMLID_12403_" class="st18" d="M165.74,70.97c0.55,0.71,0.4,1.74-0.32,2.28L112.5,112.5l50.92-41.79
				c0.7-0.57,1.74-0.47,2.29,0.24C165.72,70.96,165.73,70.96,165.74,70.97z"/>
			<path id="XMLID_12402_" class="st18" d="M112.5,112.5l50.92,41.79c0.7,0.57,0.8,1.61,0.21,2.3c-0.01,0.01-0.01,0.02-0.02,0.03
				c-0.59,0.68-1.63,0.73-2.3,0.13L112.5,112.5z"/>
			<path id="XMLID_12401_" class="st18" d="M161.41,65.96c0.62,0.65,0.57,1.7-0.1,2.3L112.5,112.5l46.58-46.58
				c0.64-0.64,1.68-0.64,2.31,0.01C161.39,65.94,161.4,65.95,161.41,65.96z"/>
			<path id="XMLID_12400_" class="st18" d="M112.5,112.5l46.58,46.58c0.64,0.64,0.64,1.68-0.01,2.3c-0.01,0.01-0.02,0.02-0.03,0.02
				c-0.65,0.62-1.7,0.57-2.3-0.1L112.5,112.5z"/>
			<path id="XMLID_12399_" class="st18" d="M156.61,61.39c0.68,0.59,0.73,1.63,0.13,2.3L112.5,112.5l41.79-50.92
				c0.57-0.7,1.61-0.8,2.3-0.21C156.6,61.37,156.61,61.38,156.61,61.39z"/>
			<path id="XMLID_12398_" class="st18" d="M112.5,112.5l41.79,50.92c0.57,0.7,0.47,1.74-0.24,2.29c-0.01,0.01-0.02,0.02-0.03,0.02
				c-0.71,0.55-1.74,0.4-2.28-0.32L112.5,112.5z"/>
			<path id="XMLID_12397_" class="st18" d="M151.4,57.31c0.74,0.52,0.89,1.55,0.35,2.28L112.5,112.5l36.6-54.78
				c0.5-0.75,1.53-0.96,2.26-0.44C151.37,57.29,151.38,57.3,151.4,57.31z"/>
			<path id="XMLID_12396_" class="st18" d="M112.5,112.5l36.6,54.78c0.5,0.75,0.3,1.77-0.46,2.26c-0.01,0.01-0.02,0.01-0.03,0.02
				c-0.76,0.48-1.78,0.23-2.24-0.55L112.5,112.5z"/>
			<path id="XMLID_12395_" class="st18" d="M145.8,53.75c0.78,0.45,1.04,1.46,0.57,2.23L112.5,112.5l31.06-58.11
				c0.43-0.8,1.42-1.1,2.21-0.66C145.78,53.74,145.79,53.75,145.8,53.75z"/>
			<path id="XMLID_12394_" class="st18" d="M112.5,112.5l31.06,58.11c0.42,0.79,0.12,1.79-0.68,2.2c-0.01,0.01-0.02,0.01-0.04,0.02
				c-0.81,0.41-1.79,0.05-2.17-0.76L112.5,112.5z"/>
			<path id="XMLID_12393_" class="st18" d="M139.89,50.77c0.82,0.37,1.17,1.35,0.79,2.16L112.5,112.5l25.22-60.88
				c0.35-0.83,1.31-1.24,2.13-0.87C139.86,50.76,139.87,50.76,139.89,50.77z"/>
			<path id="XMLID_12392_" class="st18" d="M112.5,112.5l25.22,60.88c0.34,0.83-0.05,1.8-0.89,2.12c-0.01,0-0.03,0.01-0.04,0.01
				c-0.84,0.33-1.78-0.12-2.09-0.97L112.5,112.5z"/>
			<path id="XMLID_12391_" class="st18" d="M133.7,48.38c0.86,0.28,1.3,1.23,1,2.08l-22.2,62.04l19.13-63.06
				c0.26-0.86,1.18-1.36,2.04-1.07C133.68,48.37,133.69,48.38,133.7,48.38z"/>
			<path id="XMLID_12390_" class="st18" d="M112.5,112.5l19.13,63.06c0.26,0.86-0.23,1.79-1.1,2.03c-0.01,0-0.02,0.01-0.04,0.01
				c-0.87,0.24-1.76-0.3-1.98-1.17L112.5,112.5z"/>
			<path id="XMLID_12389_" class="st18" d="M127.31,46.61c0.88,0.2,1.42,1.09,1.2,1.97L112.5,112.5l12.85-64.63
				c0.18-0.88,1.04-1.47,1.92-1.27C127.29,46.61,127.3,46.61,127.31,46.61z"/>
			<path id="XMLID_12388_" class="st18" d="M112.5,112.5l12.85,64.62c0.18,0.89-0.4,1.76-1.29,1.91c-0.01,0-0.02,0-0.04,0.01
				c-0.89,0.15-1.72-0.47-1.86-1.36L112.5,112.5z"/>
			<path id="XMLID_12387_" class="st18" d="M120.78,45.49c0.9,0.11,1.52,0.95,1.38,1.84l-9.67,65.17l6.46-65.57
				c0.09-0.9,0.89-1.56,1.79-1.45C120.76,45.48,120.77,45.48,120.78,45.49z"/>
			<path id="XMLID_12386_" class="st18" d="M112.5,112.5l6.46,65.56c0.09,0.9-0.57,1.71-1.47,1.77c-0.01,0-0.02,0-0.03,0
				c-0.9,0.07-1.67-0.64-1.72-1.54L112.5,112.5z"/>
			<path id="XMLID_12385_" class="st18" d="M114.17,45c0.9,0.02,1.6,0.8,1.56,1.7l-3.23,65.8V46.62c0-0.9,0.74-1.64,1.64-1.62
				C114.15,45,114.16,45,114.17,45z"/>
			<path id="XMLID_12384_" class="st18" d="M112.5,112.5v65.88c0,0.9-0.74,1.64-1.64,1.62c-0.01,0-0.02,0-0.04,0
				c-0.9-0.02-1.6-0.8-1.56-1.7L112.5,112.5z"/>
			<path id="XMLID_12383_" class="st18" d="M107.55,45.16c0.9-0.07,1.67,0.64,1.72,1.54l3.23,65.8l-6.46-65.56
				c-0.09-0.9,0.57-1.71,1.47-1.77C107.53,45.16,107.54,45.16,107.55,45.16z"/>
			<path id="XMLID_12382_" class="st18" d="M100.98,45.96c0.89-0.15,1.72,0.47,1.86,1.36l9.67,65.17L99.65,47.88
				c-0.18-0.89,0.4-1.76,1.29-1.91C100.95,45.97,100.96,45.97,100.98,45.96z"/>
			<path id="XMLID_12381_" class="st18" d="M94.51,47.41c0.87-0.24,1.76,0.3,1.98,1.17l16.01,63.92L93.37,49.44
				c-0.26-0.86,0.23-1.79,1.1-2.03C94.48,47.41,94.5,47.41,94.51,47.41z"/>
			<path id="XMLID_12380_" class="st18" d="M88.21,49.48c0.84-0.33,1.78,0.12,2.09,0.97l22.2,62.04L87.28,51.62
				c-0.34-0.83,0.05-1.8,0.89-2.12C88.19,49.49,88.2,49.49,88.21,49.48z"/>
			<path id="XMLID_12379_" class="st18" d="M82.15,52.17c0.81-0.41,1.79-0.05,2.17,0.76l28.17,59.57L81.44,54.39
				c-0.42-0.79-0.12-1.79,0.68-2.2C82.13,52.18,82.14,52.18,82.15,52.17z"/>
			<path id="XMLID_12378_" class="st18" d="M76.39,55.44c0.76-0.48,1.78-0.23,2.24,0.55l33.87,56.51L75.9,57.72
				c-0.5-0.75-0.3-1.77,0.46-2.26C76.37,55.46,76.38,55.45,76.39,55.44z"/>
			<path id="XMLID_12377_" class="st18" d="M70.97,59.26c0.71-0.55,1.74-0.4,2.28,0.32l39.24,52.92L70.71,61.58
				c-0.57-0.7-0.47-1.74,0.24-2.29C70.96,59.28,70.96,59.27,70.97,59.26z"/>
			<path id="XMLID_12376_" class="st18" d="M65.96,63.59c0.65-0.62,1.7-0.57,2.3,0.1l44.24,48.81L65.92,65.92
				c-0.64-0.64-0.64-1.68,0.01-2.3C65.94,63.61,65.95,63.6,65.96,63.59z"/>
			<path id="XMLID_12375_" class="st18" d="M112.5,112.5l-6.46,65.57c-0.09,0.9-0.89,1.56-1.79,1.45c-0.01,0-0.03,0-0.04,0
				c-0.9-0.11-1.52-0.95-1.38-1.84L112.5,112.5z"/>
			<path id="XMLID_12374_" class="st18" d="M112.5,112.5l-12.85,64.63c-0.18,0.88-1.04,1.47-1.92,1.27c-0.01,0-0.02-0.01-0.03-0.01
				c-0.88-0.2-1.42-1.09-1.2-1.97L112.5,112.5z"/>
			<path id="XMLID_12373_" class="st18" d="M112.5,112.5l-19.13,63.06c-0.26,0.86-1.18,1.36-2.04,1.07c-0.01,0-0.02-0.01-0.03-0.01
				c-0.86-0.28-1.3-1.23-1-2.08L112.5,112.5z"/>
			<path id="XMLID_12372_" class="st18" d="M112.5,112.5l-25.22,60.88c-0.35,0.83-1.31,1.24-2.13,0.87
				c-0.01-0.01-0.02-0.01-0.04-0.02c-0.82-0.37-1.17-1.35-0.79-2.16L112.5,112.5z"/>
			<path id="XMLID_12371_" class="st18" d="M112.5,112.5l-31.06,58.11c-0.43,0.8-1.42,1.1-2.21,0.66c-0.01-0.01-0.02-0.01-0.03-0.02
				c-0.78-0.45-1.04-1.46-0.57-2.23L112.5,112.5z"/>
			<path id="XMLID_12370_" class="st18" d="M112.5,112.5l-36.6,54.78c-0.5,0.75-1.53,0.96-2.26,0.44c-0.01-0.01-0.02-0.01-0.03-0.02
				c-0.74-0.52-0.89-1.55-0.35-2.28L112.5,112.5z"/>
			<path id="XMLID_12369_" class="st18" d="M112.5,112.5l-41.79,50.92c-0.57,0.7-1.61,0.8-2.3,0.21c-0.01-0.01-0.02-0.01-0.03-0.02
				c-0.68-0.59-0.73-1.63-0.13-2.3L112.5,112.5z"/>
			<path id="XMLID_12368_" class="st18" d="M112.5,112.5l-46.58,46.58c-0.64,0.64-1.68,0.64-2.31-0.01
				c-0.01-0.01-0.02-0.02-0.02-0.03c-0.62-0.65-0.57-1.7,0.1-2.3L112.5,112.5z"/>
			<path id="XMLID_12367_" class="st18" d="M112.5,112.5l-50.92,41.79c-0.7,0.57-1.74,0.47-2.29-0.24
				c-0.01-0.01-0.01-0.02-0.02-0.03c-0.55-0.71-0.4-1.74,0.32-2.28L112.5,112.5z"/>
			<path id="XMLID_12366_" class="st18" d="M112.5,112.5l-54.78,36.6c-0.75,0.5-1.77,0.3-2.26-0.46c-0.01-0.01-0.01-0.02-0.02-0.03
				c-0.48-0.76-0.23-1.78,0.55-2.24L112.5,112.5z"/>
			<path id="XMLID_12365_" class="st18" d="M112.5,112.5l-58.13,31.07c-0.79,0.42-1.78,0.11-2.18-0.69l-0.02-0.04
				c-0.41-0.81-0.07-1.78,0.74-2.17L112.5,112.5z"/>
			<path id="XMLID_12364_" class="st18" d="M112.5,112.5l-60.9,25.22c-0.83,0.34-1.78-0.06-2.1-0.9l-0.01-0.04
				c-0.33-0.84,0.1-1.78,0.95-2.08L112.5,112.5z"/>
			<path id="XMLID_12363_" class="st18" d="M112.5,112.5l-63.07,19.13c-0.86,0.26-1.77-0.24-2.01-1.11l-0.01-0.04
				c-0.24-0.87,0.28-1.76,1.15-1.98L112.5,112.5z"/>
			<path id="XMLID_12362_" class="st18" d="M112.5,112.5l-64.62,12.85c-0.89,0.18-1.76-0.4-1.91-1.29c0-0.01,0-0.02-0.01-0.04
				c-0.15-0.89,0.47-1.72,1.36-1.86L112.5,112.5z"/>
			<path id="XMLID_12361_" class="st18" d="M112.5,112.5l-65.56,6.46c-0.9,0.09-1.71-0.57-1.77-1.47c0-0.01,0-0.02,0-0.03
				c-0.07-0.9,0.64-1.67,1.54-1.72L112.5,112.5z"/>
			<path id="XMLID_12360_" class="st18" d="M112.5,112.5H46.62c-0.9,0-1.64-0.74-1.62-1.64c0-0.01,0-0.02,0-0.04
				c0.02-0.9,0.8-1.6,1.7-1.56L112.5,112.5z"/>
			<path id="XMLID_12359_" class="st18" d="M112.5,112.5l-65.57-6.46c-0.9-0.09-1.56-0.89-1.45-1.79c0-0.01,0-0.03,0-0.04
				c0.11-0.9,0.95-1.52,1.84-1.38L112.5,112.5z"/>
			<path id="XMLID_12358_" class="st18" d="M112.5,112.5L47.87,99.65c-0.88-0.18-1.47-1.04-1.27-1.92c0-0.01,0.01-0.02,0.01-0.03
				c0.2-0.88,1.09-1.42,1.97-1.2L112.5,112.5z"/>
			<path id="XMLID_12357_" class="st18" d="M112.5,112.5L49.44,93.37c-0.86-0.26-1.36-1.18-1.07-2.04c0-0.01,0.01-0.02,0.01-0.03
				c0.28-0.86,1.23-1.3,2.08-1L112.5,112.5z"/>
			<path id="XMLID_12356_" class="st18" d="M112.5,112.5L51.62,87.28c-0.83-0.35-1.24-1.31-0.87-2.13c0.01-0.01,0.01-0.02,0.02-0.04
				c0.37-0.82,1.35-1.17,2.16-0.79L112.5,112.5z"/>
			<path id="XMLID_12355_" class="st18" d="M112.5,112.5L54.39,81.44c-0.8-0.43-1.1-1.42-0.66-2.21c0.01-0.01,0.01-0.02,0.02-0.03
				c0.44-0.78,1.46-1.04,2.23-0.57L112.5,112.5z"/>
			<path id="XMLID_12354_" class="st18" d="M112.5,112.5L57.72,75.9c-0.75-0.5-0.96-1.53-0.44-2.26c0.01-0.01,0.01-0.02,0.02-0.03
				c0.52-0.74,1.55-0.89,2.28-0.35L112.5,112.5z"/>
			<path id="XMLID_12353_" class="st18" d="M112.5,112.5L61.58,70.71c-0.7-0.57-0.8-1.61-0.21-2.3c0.01-0.01,0.01-0.02,0.02-0.03
				c0.59-0.68,1.63-0.73,2.3-0.13L112.5,112.5z"/>
		</g>
		<g id="XMLID_12287_">
			<path id="XMLID_12351_" class="st18" d="M112.5,112.5l65.8,3.22c0.9,0.04,1.6,0.82,1.54,1.72c0,0.01,0,0.02,0,0.04
				c-0.07,0.9-0.87,1.56-1.77,1.47L112.5,112.5z"/>
			<path id="XMLID_12350_" class="st18" d="M180,110.85c0.02,0.9-0.72,1.64-1.62,1.64l-65.88,0.02l65.8-3.25
				c0.9-0.04,1.68,0.66,1.7,1.56C180,110.82,180,110.83,180,110.85z"/>
			<path id="XMLID_12349_" class="st18" d="M112.5,112.5l65.17,9.65c0.89,0.13,1.52,0.97,1.36,1.86c0,0.01,0,0.03-0.01,0.04
				c-0.15,0.89-1.02,1.47-1.91,1.29L112.5,112.5z"/>
			<path id="XMLID_12348_" class="st18" d="M179.52,104.24c0.11,0.89-0.54,1.7-1.43,1.79l-65.59,6.47l65.19-9.69
				c0.89-0.13,1.71,0.49,1.82,1.39L179.52,104.24z"/>
			<path id="XMLID_12347_" class="st18" d="M112.5,112.5l63.92,16c0.87,0.22,1.41,1.11,1.17,1.98c0,0.01-0.01,0.02-0.01,0.03
				c-0.24,0.87-1.16,1.36-2.03,1.1L112.5,112.5z"/>
			<path id="XMLID_12346_" class="st18" d="M178.39,97.71c0.2,0.88-0.38,1.75-1.27,1.92L112.5,112.5l63.92-16.03
				c0.88-0.22,1.77,0.32,1.97,1.2C178.39,97.68,178.39,97.7,178.39,97.71z"/>
			<path id="XMLID_12345_" class="st18" d="M112.5,112.5l62.05,22.19c0.85,0.3,1.3,1.25,0.97,2.09c0,0.01-0.01,0.02-0.01,0.03
				c-0.32,0.84-1.29,1.24-2.12,0.89L112.5,112.5z"/>
			<path id="XMLID_12344_" class="st18" d="M176.63,91.32c0.28,0.86-0.21,1.78-1.07,2.04L112.5,112.5l62.04-22.21
				c0.85-0.3,1.79,0.14,2.08,1C176.62,91.29,176.62,91.31,176.63,91.32z"/>
			<path id="XMLID_12343_" class="st18" d="M112.5,112.5l59.57,28.16c0.82,0.39,1.17,1.37,0.76,2.17c-0.01,0.01-0.01,0.02-0.02,0.04
				c-0.41,0.8-1.4,1.11-2.2,0.68L112.5,112.5z"/>
			<path id="XMLID_12342_" class="st18" d="M174.24,85.14c0.37,0.82-0.04,1.79-0.87,2.13L112.5,112.5l59.56-28.19
				c0.81-0.39,1.8-0.04,2.16,0.79C174.23,85.11,174.23,85.12,174.24,85.14z"/>
			<path id="XMLID_12341_" class="st18" d="M112.5,112.5l56.52,33.86c0.77,0.46,1.03,1.48,0.55,2.24c-0.01,0.01-0.01,0.02-0.02,0.03
				c-0.48,0.76-1.51,0.96-2.26,0.46L112.5,112.5z"/>
			<path id="XMLID_12340_" class="st18" d="M171.25,79.22c0.45,0.78,0.14,1.79-0.65,2.21l-58.1,31.07l56.51-33.88
				c0.77-0.46,1.78-0.21,2.23,0.57C171.24,79.2,171.25,79.21,171.25,79.22z"/>
			<path id="XMLID_12339_" class="st18" d="M112.5,112.5l52.93,39.23c0.72,0.54,0.88,1.57,0.32,2.28c-0.01,0.01-0.02,0.02-0.02,0.03
				c-0.56,0.71-1.59,0.81-2.29,0.24L112.5,112.5z"/>
			<path id="XMLID_12338_" class="st18" d="M167.7,73.62c0.52,0.74,0.31,1.76-0.44,2.26L112.5,112.5l52.91-39.26
				c0.72-0.54,1.76-0.39,2.28,0.35C167.69,73.6,167.7,73.61,167.7,73.62z"/>
			<path id="XMLID_12337_" class="st18" d="M112.5,112.5l48.82,44.23c0.67,0.61,0.72,1.65,0.1,2.3c-0.01,0.01-0.02,0.02-0.02,0.02
				c-0.62,0.65-1.67,0.65-2.3,0.01L112.5,112.5z"/>
			<path id="XMLID_12336_" class="st18" d="M163.63,68.4c0.59,0.68,0.49,1.72-0.21,2.29l-50.91,41.8l48.8-44.25
				c0.67-0.61,1.71-0.56,2.3,0.13C163.61,68.39,163.62,68.39,163.63,68.4z"/>
			<path id="XMLID_12335_" class="st18" d="M112.5,112.5l44.25,48.8c0.61,0.67,0.56,1.71-0.13,2.3c-0.01,0.01-0.02,0.02-0.03,0.02
				c-0.68,0.59-1.72,0.49-2.29-0.21L112.5,112.5z"/>
			<path id="XMLID_12334_" class="st18" d="M159.06,63.6c0.65,0.62,0.65,1.67,0.01,2.3L112.5,112.5l44.23-48.82
				c0.61-0.67,1.65-0.72,2.3-0.1C159.04,63.59,159.05,63.6,159.06,63.6z"/>
			<path id="XMLID_12333_" class="st18" d="M112.5,112.5l39.26,52.91c0.54,0.72,0.39,1.76-0.35,2.28c-0.01,0.01-0.02,0.01-0.03,0.02
				c-0.74,0.52-1.76,0.31-2.26-0.44L112.5,112.5z"/>
			<path id="XMLID_12332_" class="st18" d="M154.04,59.27c0.71,0.56,0.81,1.59,0.24,2.29L112.5,112.5l39.23-52.93
				c0.54-0.73,1.57-0.88,2.28-0.32C154.02,59.26,154.03,59.26,154.04,59.27z"/>
			<path id="XMLID_12331_" class="st18" d="M112.5,112.5l33.88,56.51c0.46,0.77,0.21,1.78-0.57,2.23c-0.01,0.01-0.02,0.01-0.03,0.02
				c-0.78,0.45-1.79,0.14-2.21-0.65L112.5,112.5z"/>
			<path id="XMLID_12330_" class="st18" d="M148.63,55.45c0.76,0.48,0.96,1.51,0.46,2.26L112.5,112.5l33.86-56.52
				c0.46-0.77,1.48-1.03,2.24-0.55C148.61,55.44,148.62,55.44,148.63,55.45z"/>
			<path id="XMLID_12329_" class="st18" d="M112.5,112.5l28.19,59.56c0.39,0.81,0.04,1.8-0.79,2.16c-0.01,0.01-0.02,0.01-0.04,0.02
				c-0.82,0.37-1.79-0.04-2.13-0.87L112.5,112.5z"/>
			<path id="XMLID_12328_" class="st18" d="M142.87,52.18c0.8,0.41,1.11,1.41,0.68,2.2L112.5,112.5l28.16-59.57
				c0.39-0.82,1.37-1.17,2.17-0.76C142.85,52.17,142.86,52.17,142.87,52.18z"/>
			<path id="XMLID_12327_" class="st18" d="M112.5,112.5l22.21,62.04c0.3,0.85-0.14,1.79-1,2.08c-0.01,0-0.03,0.01-0.04,0.01
				c-0.86,0.28-1.78-0.21-2.04-1.07L112.5,112.5z"/>
			<path id="XMLID_12326_" class="st18" d="M136.81,49.49c0.84,0.32,1.24,1.29,0.89,2.12l-25.2,60.89l22.19-62.05
				c0.3-0.85,1.25-1.3,2.09-0.97C136.79,49.48,136.8,49.49,136.81,49.49z"/>
			<path id="XMLID_12325_" class="st18" d="M112.5,112.5l16.03,63.92c0.22,0.88-0.32,1.77-1.2,1.97c-0.01,0-0.02,0.01-0.04,0.01
				c-0.88,0.2-1.75-0.38-1.92-1.27L112.5,112.5z"/>
			<path id="XMLID_12324_" class="st18" d="M130.51,47.41c0.87,0.24,1.36,1.16,1.1,2.03L112.5,112.5l16-63.92
				c0.22-0.87,1.11-1.41,1.98-1.17C130.49,47.41,130.5,47.41,130.51,47.41z"/>
			<path id="XMLID_12323_" class="st18" d="M112.5,112.5l9.68,65.17c0.13,0.89-0.49,1.73-1.39,1.84c-0.01,0-0.02,0-0.04,0
				c-0.89,0.11-1.7-0.55-1.79-1.45L112.5,112.5z"/>
			<path id="XMLID_12322_" class="st18" d="M124.05,45.97c0.89,0.15,1.47,1.02,1.29,1.91L112.5,112.5l9.65-65.17
				c0.13-0.89,0.97-1.52,1.86-1.36C124.02,45.97,124.03,45.97,124.05,45.97z"/>
			<path id="XMLID_12321_" class="st18" d="M112.5,112.5l3.25,65.8c0.04,0.9-0.66,1.68-1.56,1.7c-0.01,0-0.02,0-0.03,0
				c-0.9,0.02-1.64-0.72-1.64-1.62L112.5,112.5z"/>
			<path id="XMLID_12320_" class="st18" d="M117.47,45.17c0.9,0.07,1.56,0.87,1.47,1.77l-6.44,65.56l3.22-65.8
				c0.04-0.9,0.82-1.6,1.72-1.54C117.45,45.16,117.46,45.16,117.47,45.17z"/>
			<path id="XMLID_12319_" class="st18" d="M112.5,112.5l-3.22,65.8c-0.04,0.9-0.82,1.6-1.72,1.54c-0.01,0-0.02,0-0.04,0
				c-0.9-0.07-1.56-0.87-1.47-1.77L112.5,112.5z"/>
			<path id="XMLID_12318_" class="st18" d="M110.85,45c0.9-0.02,1.64,0.72,1.64,1.62l0.02,65.88l-3.25-65.8
				c-0.04-0.9,0.66-1.68,1.56-1.7C110.82,45,110.83,45,110.85,45z"/>
			<path id="XMLID_12317_" class="st18" d="M104.24,45.48c0.89-0.11,1.7,0.55,1.79,1.45l6.47,65.57l-9.68-65.17
				c-0.13-0.89,0.49-1.73,1.39-1.84C104.22,45.48,104.23,45.48,104.24,45.48z"/>
			<path id="XMLID_12316_" class="st18" d="M97.71,46.61c0.88-0.2,1.75,0.38,1.92,1.27l12.87,64.63L96.47,48.58
				c-0.22-0.88,0.32-1.77,1.2-1.97C97.68,46.61,97.7,46.61,97.71,46.61z"/>
			<path id="XMLID_12315_" class="st18" d="M91.32,48.37c0.86-0.28,1.78,0.21,2.04,1.07l19.14,63.05L90.29,50.46
				c-0.3-0.85,0.14-1.79,1-2.08C91.29,48.38,91.31,48.38,91.32,48.37z"/>
			<path id="XMLID_12314_" class="st18" d="M85.14,50.76c0.82-0.37,1.79,0.04,2.13,0.87l25.23,60.87L84.31,52.94
				c-0.39-0.81-0.04-1.8,0.79-2.16C85.11,50.77,85.12,50.77,85.14,50.76z"/>
			<path id="XMLID_12313_" class="st18" d="M79.22,53.75C80,53.3,81,53.6,81.43,54.4l31.07,58.1L78.62,55.99
				c-0.46-0.77-0.21-1.78,0.57-2.23C79.2,53.76,79.21,53.75,79.22,53.75z"/>
			<path id="XMLID_12312_" class="st18" d="M73.62,57.3c0.74-0.52,1.76-0.31,2.26,0.44l36.61,54.77L73.24,59.59
				c-0.54-0.72-0.39-1.76,0.35-2.28C73.6,57.31,73.61,57.3,73.62,57.3z"/>
			<path id="XMLID_12311_" class="st18" d="M68.4,61.37c0.68-0.59,1.72-0.49,2.29,0.21l41.8,50.91L68.25,63.7
				c-0.61-0.67-0.56-1.71,0.13-2.3C68.39,61.39,68.39,61.38,68.4,61.37z"/>
			<path id="XMLID_12310_" class="st18" d="M112.5,112.5l-9.65,65.17c-0.13,0.89-0.97,1.52-1.86,1.36c-0.01,0-0.03,0-0.04-0.01
				c-0.89-0.15-1.47-1.02-1.29-1.91L112.5,112.5z"/>
			<path id="XMLID_12309_" class="st18" d="M112.5,112.5l-16,63.92c-0.22,0.87-1.11,1.41-1.98,1.17c-0.01,0-0.02-0.01-0.03-0.01
				c-0.87-0.24-1.36-1.16-1.1-2.03L112.5,112.5z"/>
			<path id="XMLID_12308_" class="st18" d="M112.5,112.5l-22.19,62.05c-0.3,0.85-1.25,1.3-2.09,0.97c-0.01,0-0.02-0.01-0.03-0.01
				c-0.84-0.32-1.24-1.29-0.89-2.12L112.5,112.5z"/>
			<path id="XMLID_12307_" class="st18" d="M112.5,112.5l-28.16,59.57c-0.39,0.82-1.37,1.17-2.17,0.76
				c-0.01-0.01-0.02-0.01-0.04-0.02c-0.8-0.41-1.11-1.4-0.68-2.2L112.5,112.5z"/>
			<path id="XMLID_12306_" class="st18" d="M112.5,112.5l-33.86,56.52c-0.46,0.77-1.48,1.03-2.24,0.55
				c-0.01-0.01-0.02-0.01-0.03-0.02c-0.76-0.48-0.96-1.51-0.46-2.26L112.5,112.5z"/>
			<path id="XMLID_12305_" class="st18" d="M112.5,112.5l-39.23,52.93c-0.54,0.73-1.57,0.88-2.28,0.32
				c-0.01-0.01-0.02-0.02-0.03-0.02c-0.71-0.56-0.81-1.59-0.24-2.29L112.5,112.5z"/>
			<path id="XMLID_12304_" class="st18" d="M112.5,112.5l-44.23,48.82c-0.61,0.67-1.65,0.72-2.3,0.1c-0.01-0.01-0.02-0.02-0.02-0.02
				c-0.65-0.62-0.65-1.67-0.01-2.3L112.5,112.5z"/>
			<path id="XMLID_12303_" class="st18" d="M112.5,112.5l-48.8,44.25c-0.67,0.61-1.71,0.56-2.3-0.13c-0.01-0.01-0.02-0.02-0.02-0.03
				c-0.59-0.68-0.49-1.72,0.21-2.29L112.5,112.5z"/>
			<path id="XMLID_12302_" class="st18" d="M112.5,112.5l-52.91,39.26c-0.72,0.54-1.76,0.39-2.28-0.35
				c-0.01-0.01-0.01-0.02-0.02-0.03c-0.52-0.74-0.31-1.76,0.44-2.26L112.5,112.5z"/>
			<path id="XMLID_12301_" class="st18" d="M112.5,112.5l-56.51,33.88c-0.77,0.46-1.78,0.21-2.23-0.57
				c-0.01-0.01-0.01-0.02-0.02-0.03C53.3,145,53.6,144,54.4,143.57L112.5,112.5z"/>
			<path id="XMLID_12300_" class="st18" d="M112.5,112.5l-59.58,28.2c-0.81,0.39-1.78,0.03-2.15-0.8l-0.02-0.04
				c-0.37-0.82,0.02-1.78,0.85-2.13L112.5,112.5z"/>
			<path id="XMLID_12299_" class="st18" d="M112.5,112.5l-62.06,22.22c-0.85,0.3-1.77-0.15-2.06-1l-0.01-0.04
				c-0.28-0.86,0.19-1.77,1.05-2.03L112.5,112.5z"/>
			<path id="XMLID_12298_" class="st18" d="M112.5,112.5l-63.93,16.03c-0.88,0.22-1.75-0.32-1.95-1.2l-0.01-0.04
				c-0.2-0.88,0.37-1.74,1.25-1.92L112.5,112.5z"/>
			<path id="XMLID_12297_" class="st18" d="M112.5,112.5l-65.17,9.68c-0.89,0.13-1.73-0.49-1.84-1.39c0-0.01,0-0.02,0-0.04
				c-0.11-0.89,0.55-1.7,1.45-1.79L112.5,112.5z"/>
			<path id="XMLID_12296_" class="st18" d="M112.5,112.5l-65.8,3.25c-0.9,0.04-1.68-0.66-1.7-1.56c0-0.01,0-0.02,0-0.03
				c-0.02-0.9,0.72-1.64,1.62-1.64L112.5,112.5z"/>
			<path id="XMLID_12295_" class="st18" d="M112.5,112.5l-65.8-3.22c-0.9-0.04-1.6-0.82-1.54-1.72c0-0.01,0-0.02,0-0.04
				c0.07-0.9,0.87-1.56,1.77-1.47L112.5,112.5z"/>
			<path id="XMLID_12294_" class="st18" d="M112.5,112.5l-65.17-9.65c-0.89-0.13-1.52-0.97-1.36-1.86c0-0.01,0-0.03,0.01-0.04
				c0.15-0.89,1.02-1.47,1.91-1.29L112.5,112.5z"/>
			<path id="XMLID_12293_" class="st18" d="M112.5,112.5l-63.92-16c-0.87-0.22-1.41-1.11-1.17-1.98c0-0.01,0.01-0.02,0.01-0.03
				c0.24-0.87,1.16-1.36,2.03-1.1L112.5,112.5z"/>
			<path id="XMLID_12292_" class="st18" d="M112.5,112.5L50.45,90.31c-0.85-0.3-1.3-1.25-0.97-2.09c0-0.01,0.01-0.02,0.01-0.03
				c0.32-0.84,1.29-1.24,2.12-0.89L112.5,112.5z"/>
			<path id="XMLID_12291_" class="st18" d="M112.5,112.5L52.93,84.34c-0.82-0.39-1.17-1.37-0.76-2.17c0.01-0.01,0.01-0.02,0.02-0.04
				c0.41-0.8,1.4-1.11,2.2-0.68L112.5,112.5z"/>
			<path id="XMLID_12290_" class="st18" d="M112.5,112.5L55.98,78.64c-0.77-0.46-1.03-1.48-0.55-2.24c0.01-0.01,0.01-0.02,0.02-0.03
				c0.48-0.76,1.51-0.96,2.26-0.46L112.5,112.5z"/>
			<path id="XMLID_12289_" class="st18" d="M112.5,112.5L59.57,73.27c-0.72-0.54-0.88-1.57-0.32-2.28c0.01-0.01,0.02-0.02,0.02-0.03
				c0.56-0.71,1.59-0.81,2.29-0.24L112.5,112.5z"/>
			<path id="XMLID_12288_" class="st18" d="M112.5,112.5L63.68,68.27c-0.67-0.61-0.72-1.65-0.1-2.3c0.01-0.01,0.02-0.02,0.02-0.02
				c0.62-0.65,1.67-0.65,2.3-0.01L112.5,112.5z"/>
		</g>
	</g>
</g>
</svg>
