<?xml version="1.0" encoding="utf-8"?>
<!-- Generator: Adobe Illustrator 26.2.1, SVG Export Plug-In . SVG Version: 6.00 Build 0)  -->
<svg version="1.1" xmlns="http://www.w3.org/2000/svg" xmlns:xlink="http://www.w3.org/1999/xlink" x="0px" y="0px"
	 viewBox="0 0 225 225" style="enable-background:new 0 0 225 225;" xml:space="preserve">
<style type="text/css">
	.st0{display:none;}
	.st1{display:inline;fill:#FAB433;}
	.st2{fill:none;}
	.st3{fill:none;stroke:#000000;stroke-width:1.6;stroke-miterlimit:10;}
	.st4{fill:none;stroke:#000000;stroke-width:0.7265;stroke-miterlimit:10;}
	.st5{fill:none;stroke:#000000;stroke-linecap:round;stroke-linejoin:round;stroke-miterlimit:10;}
	.st6{fill:none;stroke:#000000;stroke-miterlimit:10;}
	.st7{fill:none;stroke:#000000;stroke-width:0.7105;stroke-miterlimit:10;}
	.st8{fill:none;stroke:#000000;stroke-width:5.4;stroke-linecap:round;stroke-linejoin:round;stroke-miterlimit:10;}
	.st9{fill:none;stroke:#000000;stroke-width:2.9309;stroke-linecap:round;stroke-linejoin:round;stroke-miterlimit:10;}
	.st10{fill:none;stroke:#000000;stroke-width:0.5;stroke-linecap:round;stroke-linejoin:round;}
	.st11{fill:none;stroke:#FFFFFF;stroke-width:0;stroke-linecap:round;stroke-linejoin:round;}
	.st12{fill:#FFFFFF;}
	.st13{fill:none;stroke:#000000;stroke-width:1.4;stroke-miterlimit:10;}
	.st14{fill:url(#);stroke:#000000;stroke-width:1.4387;stroke-miterlimit:10;}
	.st15{fill:url(#);stroke:#000000;stroke-width:1.3718;stroke-miterlimit:10;}
	.st16{fill:none;stroke:#000000;stroke-width:1.0041;stroke-miterlimit:10;}
	.st17{fill:none;stroke:#000000;stroke-width:1.3621;stroke-miterlimit:10;}
	.st18{fill:none;stroke:#000000;stroke-width:0.25;stroke-miterlimit:10;}
</style>
<g id="Layer_2" class="st0">
	<rect id="XMLID_3548_" x="-100.99" y="-275.01" class="st1" width="1160" height="772"/>
</g>
<g id="Layer_1">
	<g id="XMLID_21034_">
		<circle id="XMLID_21130_" cx="96.18" cy="132.47" r="17.52"/>
		<circle id="XMLID_21129_" cx="160.62" cy="120.24" r="17.3"/>
		<circle id="XMLID_21128_" cx="107.4" cy="85.64" r="17.39"/>
		<circle id="XMLID_21127_" cx="133.34" cy="154.18" r="17.3"/>
		<circle id="XMLID_21126_" cx="68.32" cy="103.41" r="17.36"/>
		<circle id="XMLID_21125_" cx="152.26" cy="81.29" r="17.28"/>
		<circle id="XMLID_21124_" cx="126.65" cy="116" r="11.75"/>
		<circle id="XMLID_21123_" cx="73.95" cy="72.35" r="11.51"/>
		<circle id="XMLID_21122_" cx="127.57" cy="61.62" r="11.75"/>
		<circle id="XMLID_21121_" cx="103.96" cy="165.6" r="11.85"/>
		<circle id="XMLID_21120_" cx="67.34" cy="143.95" r="11.91"/>
		<circle id="XMLID_21119_" cx="79.21" cy="163.79" r="7.81"/>
		<circle id="XMLID_21118_" cx="100.29" cy="54.21" r="7.73"/>
		<circle id="XMLID_21117_" cx="159.64" cy="152.68" r="7.67"/>
		<circle id="XMLID_21116_" cx="174.82" cy="99.73" r="5.46"/>
		<circle id="XMLID_21115_" cx="57.65" cy="128.56" r="5.3"/>
		<circle id="XMLID_21114_" cx="130.72" cy="96.23" r="5.12"/>
		<circle id="XMLID_21113_" cx="120.26" cy="174.44" r="5.56"/>
		<circle id="XMLID_21112_" cx="137.13" cy="130.54" r="5.22"/>
		<circle id="XMLID_21111_" cx="107.5" cy="110.15" r="5.14"/>
		<circle id="XMLID_21110_" cx="139.64" cy="102.83" r="5.29"/>
		<circle id="XMLID_21109_" cx="120" cy="134.26" r="5.12"/>
		<circle id="XMLID_21108_" cx="81.19" cy="57.21" r="3.52"/>
		<circle id="XMLID_21107_" cx="49.56" cy="118.9" r="3.49"/>
		<circle id="XMLID_21106_" cx="129.8" cy="81.7" r="4"/>
		<circle id="XMLID_21105_" cx="85.21" cy="153.09" r="3.79"/>
		<circle id="XMLID_21104_" cx="165.93" cy="141.55" r="3.5"/>
		<circle id="XMLID_21103_" cx="57.35" cy="79.07" r="3.49"/>
		<circle id="XMLID_21102_" cx="95" cy="108.05" r="4.95"/>
		<circle id="XMLID_21101_" cx="72.3" cy="125.92" r="3.42"/>
		<circle id="XMLID_21100_" cx="146.24" cy="57.33" r="4.06"/>
		<circle id="XMLID_21099_" cx="84.9" cy="88.63" r="3.69"/>
		<circle id="XMLID_21098_" cx="151.42" cy="141.8" r="3.46"/>
		<circle id="XMLID_21097_" cx="110.98" cy="61.11" r="3.96"/>
		<circle id="XMLID_21096_" cx="111.9" cy="49.14" r="3.83"/>
		<circle id="XMLID_21095_" cx="89.37" cy="69.06" r="3.41"/>
		<circle id="XMLID_21094_" cx="97.89" cy="65.75" r="3.41"/>
		<circle id="XMLID_21093_" cx="154.89" cy="60.81" r="2.28"/>
		<circle id="XMLID_21092_" cx="166.37" cy="98.5" r="2.6"/>
		<circle id="XMLID_21091_" cx="87.22" cy="172.19" r="3.15"/>
		<circle id="XMLID_21090_" cx="54.72" cy="86.19" r="3.43"/>
		<circle id="XMLID_21089_" cx="88.38" cy="62.05" r="2.77"/>
		<circle id="XMLID_21088_" cx="92.31" cy="100.39" r="2.6"/>
		<circle id="XMLID_21087_" cx="118.36" cy="47.36" r="2.36"/>
		<circle id="XMLID_21086_" cx="177.25" cy="132.99" r="2.46"/>
		<circle id="XMLID_21085_" cx="46.97" cy="113.35" r="2.28"/>
		<circle id="XMLID_21084_" cx="90.04" cy="158.6" r="2.9"/>
		<circle id="XMLID_21083_" cx="63.63" cy="82.95" r="2.49"/>
		<circle id="XMLID_21082_" cx="46.69" cy="108.5" r="2.28"/>
		<circle id="XMLID_21081_" cx="173.53" cy="138.67" r="3.51"/>
		<circle id="XMLID_21080_" cx="113.93" cy="105.62" r="2.28"/>
		<circle id="XMLID_21079_" cx="51.67" cy="138.43" r="2.44"/>
		<circle id="XMLID_21078_" cx="90.04" cy="50.31" r="2.45"/>
		<circle id="XMLID_21077_" cx="173.6" cy="91.62" r="2.28"/>
		<circle id="XMLID_21076_" cx="178.32" cy="109.58" r="2.28"/>
		<circle id="XMLID_21075_" cx="132.02" cy="174.81" r="2.29"/>
		<circle id="XMLID_21074_" cx="123.3" cy="47.42" r="2.28"/>
		<circle id="XMLID_21073_" cx="107.38" cy="150.51" r="2.59"/>
		<circle id="XMLID_21072_" cx="77.41" cy="122.5" r="2.36"/>
		<circle id="XMLID_21071_" cx="50.03" cy="131.1" r="2.28"/>
		<circle id="XMLID_21070_" cx="128.32" cy="133.03" r="2.82"/>
		<circle id="XMLID_21069_" cx="143.18" cy="135.86" r="2.38"/>
		<circle id="XMLID_21068_" cx="140.24" cy="120.07" r="1.67"/>
		<circle id="XMLID_21067_" cx="67.2" cy="127.2" r="1.52"/>
		<circle id="XMLID_21066_" cx="94.72" cy="176.6" r="1.74"/>
		<circle id="XMLID_21065_" cx="89.87" cy="56.44" r="1.89"/>
		<circle id="XMLID_21064_" cx="112.36" cy="147.11" r="3.08"/>
		<circle id="XMLID_21063_" cx="122.28" cy="102.67" r="1.52"/>
		<circle id="XMLID_21062_" cx="141.53" cy="110.29" r="1.97"/>
		<circle id="XMLID_21061_" cx="171.91" cy="87.26" r="2.11"/>
		<circle id="XMLID_21060_" cx="88.58" cy="94.45" r="2.3"/>
		<circle id="XMLID_21059_" cx="146.86" cy="102.83" r="1.52"/>
		<circle id="XMLID_21058_" cx="158.34" cy="140.4" r="1.91"/>
		<circle id="XMLID_21057_" cx="58.39" cy="120.7" r="1.52"/>
		<circle id="XMLID_21056_" cx="151.26" cy="102.68" r="1.54"/>
		<circle id="XMLID_21055_" cx="132.7" cy="48.17" r="1.7"/>
		<circle id="XMLID_21054_" cx="140.7" cy="55.22" r="1.52"/>
		<circle id="XMLID_21053_" cx="127.64" cy="176.69" r="1.71"/>
		<circle id="XMLID_21052_" cx="142.99" cy="172.76" r="2.16"/>
		<circle id="XMLID_21051_" cx="89.55" cy="163.89" r="1.89"/>
		<circle id="XMLID_21050_" cx="130.1" cy="89.21" r="1.52"/>
		<circle id="XMLID_21049_" cx="110.24" cy="178.26" r="1.52"/>
		<circle id="XMLID_21048_" cx="87.05" cy="54.13" r="1.52"/>
		<circle id="XMLID_21047_" cx="49.11" cy="95.61" r="2.28"/>
		<circle id="XMLID_21046_" cx="170.04" cy="149.29" r="1.82"/>
		<circle id="XMLID_21045_" cx="117.03" cy="142.38" r="1.77"/>
		<circle id="XMLID_21044_" cx="115.84" cy="53.25" r="1.52"/>
		<circle id="XMLID_21043_" cx="114.46" cy="66.98" r="1.52"/>
		<circle id="XMLID_21042_" cx="64.66" cy="159.32" r="1.76"/>
		<circle id="XMLID_21041_" cx="49.66" cy="90.02" r="1.78"/>
		<circle id="XMLID_21040_" cx="123.01" cy="98.86" r="1.99"/>
		<circle id="XMLID_21039_" cx="89.68" cy="112.39" r="1.52"/>
		<circle id="XMLID_21038_" cx="133.22" cy="87.53" r="1.7"/>
		<circle id="XMLID_21037_" cx="50.51" cy="126.48" r="1.71"/>
		<circle id="XMLID_21036_" cx="83.81" cy="61.89" r="1.52"/>
		<circle id="XMLID_21035_" cx="114.88" cy="124.87" r="1.6"/>
	</g>
</g>
</svg>
