<?xml version="1.0" encoding="utf-8"?>
<!-- Generator: Adobe Illustrator 26.2.1, SVG Export Plug-In . SVG Version: 6.00 Build 0)  -->
<svg version="1.1" xmlns="http://www.w3.org/2000/svg" xmlns:xlink="http://www.w3.org/1999/xlink" x="0px" y="0px"
	 viewBox="0 0 225 225" style="enable-background:new 0 0 225 225;" xml:space="preserve">
<style type="text/css">
	.st0{display:none;}
	.st1{display:inline;fill:#FAB433;}
	.st2{fill:none;}
	.st3{fill:none;stroke:#000000;stroke-width:1.6;stroke-miterlimit:10;}
	.st4{fill:none;stroke:#000000;stroke-width:0.7265;stroke-miterlimit:10;}
	.st5{fill:none;stroke:#000000;stroke-linecap:round;stroke-linejoin:round;stroke-miterlimit:10;}
	.st6{fill:none;stroke:#000000;stroke-miterlimit:10;}
	.st7{fill:none;stroke:#000000;stroke-width:0.7105;stroke-miterlimit:10;}
	.st8{fill:none;stroke:#000000;stroke-width:5.4;stroke-linecap:round;stroke-linejoin:round;stroke-miterlimit:10;}
	.st9{fill:none;stroke:#000000;stroke-width:2.9309;stroke-linecap:round;stroke-linejoin:round;stroke-miterlimit:10;}
	.st10{fill:none;stroke:#000000;stroke-width:0.5;stroke-linecap:round;stroke-linejoin:round;}
	.st11{fill:none;stroke:#FFFFFF;stroke-width:0;stroke-linecap:round;stroke-linejoin:round;}
	.st12{fill:#FFFFFF;}
	.st13{fill:none;stroke:#000000;stroke-width:1.4;stroke-miterlimit:10;}
	.st14{fill:url(#);stroke:#000000;stroke-width:1.4387;stroke-miterlimit:10;}
	.st15{fill:url(#);stroke:#000000;stroke-width:1.3718;stroke-miterlimit:10;}
	.st16{fill:none;stroke:#000000;stroke-width:1.0041;stroke-miterlimit:10;}
	.st17{fill:none;stroke:#000000;stroke-width:1.3621;stroke-miterlimit:10;}
	.st18{fill:none;stroke:#000000;stroke-width:0.25;stroke-miterlimit:10;}
</style>
<g id="Layer_2" class="st0">
	<rect id="XMLID_2028_" x="-100.99" y="-520.01" class="st1" width="1160" height="772"/>
</g>
<g id="Layer_1">
	<g id="XMLID_1914_">
		<path id="XMLID_1939_" d="M69.3,146.43c-1.62-4.46-2.92-9.21-3.88-14.17c-7.92-2.4-14.05-5.37-18.25-8.63
			C50.77,132.68,58.65,140.61,69.3,146.43z"/>
		<path id="XMLID_1938_" d="M64.52,126.89c-0.64-4.65-0.98-9.46-0.98-14.39c0-4.93,0.34-9.74,0.98-14.4
			C52.21,102.13,45,107.46,45,112.5C45,117.54,52.21,122.87,64.52,126.89z"/>
		<path id="XMLID_1937_" d="M149.46,149.46c2.09-4.86,3.78-10.16,5-15.79c-5.24,1.3-11.1,2.39-17.64,3.15
			c-0.76,6.54-1.84,12.4-3.15,17.64C139.3,153.25,144.6,151.56,149.46,149.46z"/>
		<path id="XMLID_1936_" d="M78.56,155.69c5.82,10.66,13.75,18.54,22.81,22.14c-3.26-4.21-6.23-10.34-8.63-18.26
			C87.77,158.62,83.02,157.31,78.56,155.69z"/>
		<path id="XMLID_1935_" d="M69.3,78.56c-10.65,5.83-18.53,13.75-22.13,22.8c4.2-3.26,10.33-6.23,18.25-8.63
			C66.38,87.77,67.68,83.02,69.3,78.56z"/>
		<path id="XMLID_1934_" d="M75.54,75.53c-2.09,4.86-3.78,10.16-5.01,15.79c5.24-1.3,11.1-2.39,17.64-3.15
			c0.76-6.54,1.85-12.4,3.15-17.64C85.7,71.75,80.4,73.44,75.54,75.53z"/>
		<path id="XMLID_1933_" d="M71.99,71.99c4.32-9.37,10.09-17.17,16.83-22.69c-15.28,5.74-27.95,16.86-35.67,31.06
			c-1.48,2.71-2.76,5.55-3.86,8.47C54.82,82.08,62.62,76.31,71.99,71.99z"/>
		<path id="XMLID_1932_" d="M160.47,98.11c0.64,4.65,0.98,9.47,0.98,14.4c0,4.93-0.34,9.74-0.98,14.39
			c12.28-4.01,19.49-9.32,19.53-14.35c0-0.01,0-0.03,0-0.04c0-0.02,0-0.04,0-0.05C179.95,107.42,172.76,102.11,160.47,98.11z"/>
		<path id="XMLID_1931_" d="M155.7,146.44c10.65-5.83,18.53-13.75,22.13-22.81c-4.21,3.26-10.34,6.23-18.26,8.64
			C158.61,137.23,157.32,141.97,155.7,146.44z"/>
		<path id="XMLID_1930_" d="M112.5,161.45c-4.93,0-9.74-0.34-14.39-0.98c4.01,12.29,9.32,19.48,14.35,19.53c0.01,0,0.03,0,0.04,0
			c0.01,0,0.03,0,0.04,0c5.03-0.04,10.34-7.24,14.35-19.53C122.24,161.11,117.43,161.45,112.5,161.45z"/>
		<path id="XMLID_1929_" d="M146.44,155.7c-4.47,1.62-9.21,2.92-14.17,3.88c-2.4,7.92-5.37,14.05-8.63,18.26
			C132.69,174.23,140.61,166.35,146.44,155.7z"/>
		<path id="XMLID_1928_" d="M153.01,153.01c-4.32,9.37-10.09,17.17-16.83,22.69c15.28-5.74,27.94-16.86,35.66-31.05
			c1.48-2.72,2.77-5.55,3.86-8.47C170.18,142.92,162.38,148.69,153.01,153.01z"/>
		<path id="XMLID_1927_" d="M71.99,153.01c-9.37-4.32-17.17-10.09-22.69-16.83c6.84,18.2,21.32,32.68,39.52,39.52
			C82.07,170.17,76.3,162.38,71.99,153.01z"/>
		<path id="XMLID_1926_" d="M153.01,71.99c9.37,4.32,17.17,10.09,22.69,16.82c-6.84-18.19-21.32-32.67-39.52-39.51
			C142.92,54.82,148.69,62.61,153.01,71.99z"/>
		<path id="XMLID_1925_" d="M177.83,101.36c-3.6-9.05-11.48-16.98-22.14-22.81c1.62,4.46,2.92,9.21,3.88,14.17
			C167.49,95.13,173.62,98.1,177.83,101.36z"/>
		<path id="XMLID_1924_" d="M146.44,69.3c-5.82-10.65-13.75-18.53-22.8-22.12c3.26,4.2,6.23,10.33,8.63,18.25
			C137.22,66.38,141.97,67.68,146.44,69.3z"/>
		<path id="XMLID_1923_" d="M133.42,112.5c0-7.06-0.35-13.73-0.98-19.94c-6.21-0.63-12.88-0.98-19.94-0.98
			c-7.06,0-13.73,0.35-19.94,0.98c-0.63,6.21-0.98,12.88-0.98,19.94c0,7.06,0.35,13.73,0.98,19.94c6.21,0.63,12.88,0.98,19.94,0.98
			c7.06,0,13.73-0.35,19.94-0.98C133.06,126.23,133.42,119.56,133.42,112.5z"/>
		<path id="XMLID_1922_" d="M156.71,112.5c0-5.47-0.44-10.78-1.25-15.88c-5.35-1.44-11.44-2.64-18.16-3.5
			c0.54,6,0.86,12.42,0.86,19.38c0,6.96-0.32,13.38-0.86,19.38c6.72-0.87,12.81-2.07,18.16-3.51
			C156.27,123.28,156.71,117.97,156.71,112.5z"/>
		<path id="XMLID_1921_" d="M154.47,91.32c-1.22-5.63-2.91-10.93-5.01-15.79c-4.86-2.09-10.16-3.78-15.78-5
			c1.3,5.24,2.39,11.1,3.15,17.64C143.37,88.94,149.22,90.02,154.47,91.32z"/>
		<path id="XMLID_1920_" d="M112.5,63.55c4.93,0,9.74,0.34,14.39,0.98C122.87,52.21,117.54,45,112.5,45
			c-5.04,0-10.37,7.21-14.39,19.52C102.76,63.89,107.57,63.55,112.5,63.55z"/>
		<path id="XMLID_1919_" d="M78.56,69.3c4.47-1.62,9.21-2.92,14.17-3.88c2.4-7.92,5.38-14.05,8.63-18.25
			C92.31,50.77,84.39,58.65,78.56,69.3z"/>
		<path id="XMLID_1918_" d="M69.54,96.62c-0.81,5.1-1.25,10.41-1.25,15.88c0,5.47,0.44,10.78,1.24,15.87
			c5.35,1.44,11.44,2.64,18.16,3.51c-0.53-6-0.86-12.42-0.86-19.38c0-6.96,0.32-13.39,0.86-19.38
			C80.98,93.99,74.88,95.19,69.54,96.62z"/>
		<path id="XMLID_1917_" d="M91.32,154.47c-1.3-5.24-2.39-11.1-3.15-17.64c-6.54-0.76-12.4-1.85-17.64-3.15
			c1.22,5.62,2.91,10.92,5,15.78C80.4,151.55,85.7,153.25,91.32,154.47z"/>
		<path id="XMLID_1916_" d="M131.88,87.69c-0.87-6.72-2.07-12.81-3.51-18.16c-5.09-0.81-10.4-1.25-15.87-1.25
			c-5.47,0-10.78,0.44-15.87,1.25c-1.44,5.34-2.64,11.44-3.51,18.16c6-0.53,12.42-0.86,19.38-0.86
			C119.46,86.84,125.88,87.16,131.88,87.69z"/>
		<path id="XMLID_1915_" d="M93.12,137.3c0.87,6.72,2.07,12.81,3.51,18.16c5.1,0.81,10.41,1.25,15.88,1.25
			c5.47,0,10.78-0.44,15.87-1.25c1.44-5.34,2.64-11.44,3.5-18.16c-6,0.54-12.42,0.86-19.38,0.86
			C105.54,138.16,99.12,137.84,93.12,137.3z"/>
	</g>
</g>
</svg>
