<?xml version="1.0" encoding="utf-8"?>
<!-- Generator: Adobe Illustrator 26.2.1, SVG Export Plug-In . SVG Version: 6.00 Build 0)  -->
<svg version="1.1" xmlns="http://www.w3.org/2000/svg" xmlns:xlink="http://www.w3.org/1999/xlink" x="0px" y="0px"
	 viewBox="0 0 225 225" style="enable-background:new 0 0 225 225;" xml:space="preserve">
<style type="text/css">
	.st0{display:none;}
	.st1{display:inline;fill:#FAB433;}
	.st2{fill:none;}
	.st3{fill:none;stroke:#000000;stroke-width:1.6;stroke-miterlimit:10;}
	.st4{fill:none;stroke:#000000;stroke-width:0.7265;stroke-miterlimit:10;}
	.st5{fill:none;stroke:#000000;stroke-linecap:round;stroke-linejoin:round;stroke-miterlimit:10;}
	.st6{fill:none;stroke:#000000;stroke-miterlimit:10;}
	.st7{fill:none;stroke:#000000;stroke-width:0.7105;stroke-miterlimit:10;}
	.st8{fill:none;stroke:#000000;stroke-width:5.4;stroke-linecap:round;stroke-linejoin:round;stroke-miterlimit:10;}
	.st9{fill:none;stroke:#000000;stroke-width:2.9309;stroke-linecap:round;stroke-linejoin:round;stroke-miterlimit:10;}
	.st10{fill:none;stroke:#000000;stroke-width:0.5;stroke-linecap:round;stroke-linejoin:round;}
	.st11{fill:none;stroke:#FFFFFF;stroke-width:0;stroke-linecap:round;stroke-linejoin:round;}
	.st12{fill:#FFFFFF;}
	.st13{fill:none;stroke:#000000;stroke-width:1.4;stroke-miterlimit:10;}
	.st14{fill:url(#);stroke:#000000;stroke-width:1.4387;stroke-miterlimit:10;}
	.st15{fill:url(#);stroke:#000000;stroke-width:1.3718;stroke-miterlimit:10;}
	.st16{fill:none;stroke:#000000;stroke-width:1.0041;stroke-miterlimit:10;}
	.st17{fill:none;stroke:#000000;stroke-width:1.3621;stroke-miterlimit:10;}
	.st18{fill:none;stroke:#000000;stroke-width:0.25;stroke-miterlimit:10;}
</style>
<g id="Layer_2" class="st0">
	<rect id="XMLID_573_" x="-590.99" y="-520.01" class="st1" width="1160" height="772"/>
</g>
<g id="Layer_1">
	<g>
		<path class="st2" d="M53.18,124.95c-4.47-3.7-7.59-7.87-8.97-12.34c1.31-4.38,4.33-8.49,8.7-12.17
			C51.35,108.44,51.4,116.78,53.18,124.95z"/>
		<path class="st2" d="M153.01,157.25c-0.94,5.89-3.01,10.8-6.26,14.31c-4.67,1.12-10.03,0.45-15.7-1.74
			c3.44-1.11,6.84-2.54,10.14-4.3C145.5,163.21,149.45,160.43,153.01,157.25z"/>
		<path class="st2" d="M152.63,66.37c-5.89-5.18-12.78-9.2-20.38-11.8c5.12-1.77,9.97-2.27,14.29-1.29
			C149.58,56.5,151.6,60.99,152.63,66.37z"/>
		<path d="M57.12,87.15c-1.58,3.53-2.82,7.21-3.71,10.97c-4.59,3.57-7.96,7.61-9.79,11.97c-0.03-0.21-0.06-0.42-0.08-0.63
			c-0.02-0.12-0.04-0.24-0.05-0.36c-0.03-0.35-0.06-0.71-0.07-1.06c-0.01-0.25,0-0.5,0-0.72c0.06-0.85,0.12-1.7,0.2-2.54
			c0.01-0.01,0.01-0.02,0.01-0.03C44.68,98.2,49.55,92.15,57.12,87.15z"/>
		<path d="M181.59,107.58c-0.01,0.41-0.03,0.82-0.06,1.24c-0.01,0.14-0.03,0.28-0.05,0.42c-0.03,0.27-0.05,0.54-0.09,0.81
			c-0.01,0.02-0.01,0.03-0.01,0.04c-1.81-4.29-5.16-8.27-9.7-11.81c-0.89-3.81-2.15-7.54-3.79-11.16
			c7.28,4.82,12.09,10.62,13.35,16.95C181.38,105.28,181.49,106.49,181.59,107.58z"/>
		<polygon points="182.62,103.79 182.62,103.79 182.62,103.8 		"/>
		<path d="M53.41,98.12c-0.18,0.77-0.35,1.55-0.5,2.32c-4.37,3.68-7.39,7.79-8.7,12.17c-0.02-0.06-0.05-0.13-0.06-0.19
			c-0.23-0.77-0.41-1.55-0.53-2.33C45.45,105.73,48.82,101.69,53.41,98.12z"/>
		<path d="M181.38,110.09c-0.12,0.78-0.3,1.56-0.52,2.33c-0.02,0.06-0.05,0.13-0.07,0.19c-1.31-4.42-4.32-8.54-8.65-12.21
			c-0.14-0.71-0.3-1.42-0.46-2.12C176.22,101.82,179.57,105.8,181.38,110.09z"/>
		<path d="M181.59,107.58c0,0.41-0.02,0.82-0.05,1.23C181.56,108.41,181.58,107.99,181.59,107.58z"/>
		<path d="M43.54,109.46c-0.01-0.12-0.03-0.24-0.05-0.36C43.5,109.22,43.52,109.34,43.54,109.46z"/>
		<path d="M180.82,100.18l0.42,3.89c-1.26-6.33-6.07-12.13-13.35-16.95c-0.39-0.87-0.8-1.74-1.24-2.6
			c8.72,5.27,14.48,11.88,15.96,19.25L180.82,100.18z"/>
		<path d="M181.48,109.24c-0.03,0.27-0.06,0.54-0.1,0.81C181.43,109.78,181.45,109.51,181.48,109.24z"/>
		<path d="M58.33,84.59c-0.42,0.85-0.82,1.7-1.21,2.56c-7.57,5-12.44,11.05-13.49,17.6l-1.39-0.17
			C43.45,96.94,49.3,90.06,58.33,84.59z"/>
		<path d="M144.86,173.33c-0.17,0.14-0.34,0.27-0.51,0.39c-0.09,0.07-0.19,0.15-0.29,0.22c-0.29,0.21-0.58,0.41-0.88,0.59
			c-0.18,0.12-0.36,0.22-0.54,0.32l-0.07,0.04c-0.77,0.38-1.54,0.75-2.31,1.09c-6.48,2.5-14.59,1.06-23.14-3.45
			c3.91-0.29,7.82-0.96,11.67-2.03C134.47,172.93,139.93,173.96,144.86,173.33z"/>
		<path d="M75.99,54.03c-2.76,3.64-4.52,8.4-5.34,13.95c-2.92,2.79-5.53,5.83-7.81,9.08c0.56-8.65,3.17-15.66,7.99-19.9
			c0.99-0.72,1.98-1.43,2.88-2.05c0.35-0.21,0.72-0.4,1.09-0.57c0.14-0.07,0.29-0.12,0.43-0.19c0.23-0.1,0.47-0.21,0.71-0.3
			C75.96,54.04,75.97,54.04,75.99,54.03z"/>
		<path d="M78.46,53.28c-3.1,3.27-5.14,7.8-6.18,13.21c-0.55,0.49-1.1,0.99-1.63,1.49c0.82-5.55,2.58-10.31,5.34-13.95
			c0.73-0.28,1.49-0.52,2.27-0.71C78.33,53.3,78.4,53.3,78.46,53.28z"/>
		<path d="M69.91,56.11c-0.01,0.01-0.01,0.01-0.02,0.02l0.03-0.03L69.91,56.11z"/>
		<path d="M146.75,171.56c-0.05,0.05-0.09,0.11-0.14,0.15c-0.55,0.59-1.14,1.13-1.75,1.62c-4.93,0.63-10.39-0.4-16.07-2.83
			c0.76-0.21,1.51-0.44,2.26-0.68C136.72,172.01,142.08,172.68,146.75,171.56z"/>
		<path d="M73.71,55.11c0.36-0.2,0.72-0.39,1.1-0.57C74.43,54.72,74.06,54.91,73.71,55.11z"/>
		<path d="M144.35,173.73c-0.1,0.07-0.19,0.15-0.29,0.22C144.16,173.87,144.26,173.8,144.35,173.73z"/>
		<path d="M140.78,177.28c-2.36,0.91-4.9,1.35-7.57,1.35c-5.84,0-12.32-2.09-18.96-5.95c0.96-0.02,1.91-0.08,2.87-0.15
			c8.55,4.51,16.66,5.95,23.14,3.45c0,0.01-0.01,0.01-0.02,0.02L140.78,177.28z"/>
		<path d="M70.83,57.16c-4.82,4.24-7.43,11.25-7.99,19.9c-0.56,0.8-1.1,1.62-1.63,2.44c0.22-10.14,3.05-18.4,8.66-23.36l0.56,0.59
			l0.26,0.52L70.83,57.16z"/>
		<path d="M75.23,54.36c0.24-0.11,0.47-0.21,0.72-0.31C75.7,54.14,75.46,54.25,75.23,54.36z"/>
		<path d="M107.97,172.53c-5.72,3.03-11.26,4.69-16.26,4.68c-2.21,0-4.32-0.32-6.29-0.98c-1.12-0.49-2.22-1-3.21-1.46
			c-0.36-0.21-0.7-0.43-1.04-0.67c-0.12-0.08-0.23-0.17-0.34-0.25c-0.22-0.16-0.45-0.32-0.67-0.5c-0.01,0-0.02-0.01-0.03-0.02
			c0.93,0.11,1.87,0.17,2.83,0.17c4.13,0,8.59-1.07,13.2-3.06C100.01,171.52,103.97,172.22,107.97,172.53z"/>
		<path d="M162.13,76.99c-2.29-3.26-4.87-6.26-7.72-8.97c-0.83-5.56-2.61-10.33-5.39-13.99c0.03,0.02,0.06,0.03,0.1,0.04
			c0.61,0.24,1.21,0.51,1.78,0.82c0.18,0.09,0.35,0.19,0.52,0.29l0.09,0.06c0.71,0.47,1.42,0.96,2.11,1.45c0,0,0.01,0.01,0.02,0.01
			C158.75,60.85,161.54,68.03,162.13,76.99z"/>
		<path d="M84.98,177.56c1.64,0.55,3.35,0.89,5.13,1.02L84.98,177.56L84.98,177.56z"/>
		<path d="M96.16,170.44c-4.61,1.99-9.07,3.06-13.2,3.06c-0.96,0-1.9-0.06-2.83-0.17c-0.61-0.5-1.19-1.03-1.75-1.62
			c-0.04-0.05-0.08-0.1-0.13-0.15c4.75,1.14,10.16,0.47,15.86-1.73C94.79,170.05,95.47,170.25,96.16,170.44z"/>
		<path d="M154.41,68.02c-0.58-0.56-1.17-1.11-1.78-1.65c-1.03-5.38-3.05-9.87-6.09-13.09c0.06,0.02,0.13,0.02,0.2,0.04
			c0.78,0.19,1.54,0.43,2.28,0.71C151.8,57.69,153.58,62.46,154.41,68.02z"/>
		<path d="M82.21,174.77c-0.35-0.21-0.7-0.43-1.04-0.66C81.51,174.34,81.85,174.56,82.21,174.77z"/>
		<path d="M80.83,173.85c-0.22-0.16-0.45-0.32-0.67-0.5C80.38,173.53,80.61,173.69,80.83,173.85z"/>
		<path d="M110.84,172.68c-6.63,3.86-13.12,5.96-18.98,5.96c-0.36,0-0.7-0.02-1.05-0.04l-5.39-2.37c1.97,0.66,4.08,0.98,6.29,0.98
			c5,0.01,10.54-1.65,16.26-4.68C108.93,172.6,109.88,172.65,110.84,172.68z"/>
		<path d="M149.12,54.08c0.61,0.24,1.21,0.51,1.78,0.81C150.33,54.58,149.73,54.32,149.12,54.08z"/>
		<path d="M163.74,79.41c-0.52-0.82-1.06-1.63-1.61-2.42c-0.59-8.96-3.38-16.14-8.49-20.29l0.84-1.11
			C160.46,60.44,163.5,68.9,163.74,79.41z"/>
		<path d="M103.61,59.88c-9.68,8.15-19.15,19.6-26.92,33.34c-7.23,12.78-12,25.95-14.11,37.83c-2.82-1.46-5.38-3.04-7.66-4.73
			c-6.4-25.73,5.15-53.56,29.56-66.64c3.36-1.8,6.84-3.25,10.4-4.37C97.74,56.47,100.67,58,103.61,59.88z"/>
		<path d="M61.38,142.08C61.38,142.09,61.38,142.09,61.38,142.08c-0.01,0.01-0.01,0-0.01,0S61.37,142.08,61.38,142.08z"/>
		<path d="M113.68,52.65c-0.42,0.24-0.83,0.5-1.24,0.76c-0.41-0.26-0.83-0.51-1.24-0.75c0.41-0.01,0.81-0.04,1.22-0.04
			C112.84,52.62,113.26,52.64,113.68,52.65z"/>
		<path d="M163.72,141.95c-0.01,0.02-0.02,0.04-0.03,0.06v-0.04C163.7,141.96,163.71,141.95,163.72,141.95z"/>
		<path d="M170.05,126.42c-2.24,1.67-4.77,3.24-7.55,4.68c-2.22-12.46-7.4-26.4-15.41-40c-7.45-12.65-16.46-23.36-25.7-31.13
			c2.97-1.89,5.91-3.45,8.78-4.62c14.94,4.66,27.23,14.8,34.63,28.61C171.84,97.1,173.67,112.07,170.05,126.42z"/>
		<path d="M86.65,98.96c-7.04,12.44-11.72,25.05-13.9,36.44c11.63,4.06,25.84,6.38,40.97,6.24c14.28-0.12,27.54-2.38,38.49-6.17
			c-2.3-12.11-7.4-25.58-15.07-38.61c-7.25-12.31-15.83-22.66-24.59-30.25C103.21,74.66,94.09,85.81,86.65,98.96z"/>
		<path d="M153.3,155.08c-3.79,3.57-8.06,6.68-12.78,9.2c-8.89,4.77-18.47,7.03-27.92,7.03c-15.1,0-29.87-5.78-40.98-16.32
			c-0.29-2.67-0.37-5.51-0.23-8.5c11.58,4.19,25.78,6.65,41.08,6.65c0.42,0,0.84,0,1.25-0.01c14.68-0.12,28.46-2.58,39.81-6.69
			C153.67,149.48,153.6,152.37,153.3,155.08z"/>
		<path d="M152.44,136.83c-11.06,3.82-24.39,6.08-38.72,6.21h-1.22c-14.72,0-28.56-2.31-40.01-6.31c0.08-0.44,0.17-0.89,0.26-1.33
			c11.63,4.06,25.84,6.38,40.96,6.24c14.28-0.13,27.55-2.38,38.5-6.17C152.29,135.92,152.37,136.37,152.44,136.83z"/>
		<path d="M43.23,114.1l0.02,0.65l0.23,3.37c0.01,0.32,0.04,0.61,0.06,0.89l0.06,0.58c0.96,8.13,7.57,15.43,17.84,21.01
			c-0.03,0.5-0.05,0.99-0.06,1.48c-0.01,0-0.01,0-0.01,0c-0.81-0.43-1.59-0.87-2.35-1.32c-9.67-5.68-15.86-12.95-16.81-21.01
			l-0.06-0.62c-0.03-0.31-0.06-0.61-0.07-0.92l-0.25-4.11l-0.03-1.91l0.01-0.32c0.02-0.8,0.05-1.65,0.09-2.53
			c0.05-1.38,0.1-2.42,0.16-3.28l0.06-0.57c0.03-0.3,0.07-0.61,0.12-0.91l1.39,0.17c0,0.01,0,0.02-0.01,0.03
			c-0.08,0.84-0.14,1.69-0.2,2.54c0,0.22-0.01,0.47,0,0.72c0.01,0.35,0.04,0.71,0.07,1.06c0.01,0.12,0.03,0.24,0.05,0.36
			c0.02,0.21,0.05,0.42,0.08,0.63c0.12,0.78,0.3,1.56,0.53,2.33c0.01,0.06,0.04,0.13,0.06,0.19c1.38,4.47,4.5,8.64,8.97,12.34
			c0.56,0.46,1.14,0.92,1.74,1.37c2.28,1.69,4.84,3.27,7.66,4.73c-0.08,0.47-0.16,0.93-0.23,1.39
			C52.74,127.54,45.88,121.23,43.23,114.1z"/>
		<path d="M183.17,112.95l-0.7,0.11l0.7,0.01l-0.15,3.55c-0.02,0.36-0.05,0.71-0.08,1.06l-0.11,1.78c-0.04,0.42-0.1,0.79-0.16,1.17
			c-0.21,1.28-0.56,2.55-1.04,3.8c-2.36,6.14-7.86,11.68-15.56,16.21c-0.76,0.45-1.54,0.88-2.35,1.31c-0.01,0-0.02,0.01-0.03,0.02
			c-0.02-0.5-0.04-1-0.07-1.51c8.33-4.54,14.27-10.2,16.7-16.53c0.45-1.16,0.77-2.35,0.97-3.53c0.06-0.35,0.11-0.7,0.15-1.05
			l0.11-1.77c0.03-0.35,0.05-0.7,0.07-1.04l0.11-2.35c-2.67,7.13-9.45,13.42-18.99,18.3c-0.07-0.46-0.16-0.93-0.24-1.39
			c2.78-1.44,5.31-3.01,7.55-4.68c0.61-0.46,1.19-0.92,1.75-1.38c4.48-3.72,7.59-7.91,8.99-12.43c0.02-0.06,0.05-0.13,0.07-0.19
			c0.22-0.77,0.4-1.55,0.52-2.33c0-0.01,0-0.02,0.01-0.04c0.04-0.27,0.06-0.54,0.09-0.81c0.02-0.14,0.04-0.28,0.05-0.42
			c0.03-0.42,0.05-0.83,0.06-1.24c-0.1-1.09-0.21-2.3-0.35-3.51l-0.42-3.89l1.79,3.59h0.01c0,0.01,0,0.01,0,0.02c0,0,0,0,0,0.01
			c0.04,0.22,0.08,0.41,0.11,0.61l0.07,0.66c0.14,1.62,0.26,3.21,0.35,4.6c0.01,0.02,0.01,0.04,0.01,0.06v0.01
			c0.01,0.46,0.02,0.88,0.02,1.31v0.05l0.02,1.09L183.17,112.95z"/>
		<path d="M153.53,146.44c-11.35,4.11-25.13,6.57-39.81,6.69c-0.41,0.01-0.83,0.01-1.25,0.01c-15.3,0-29.5-2.46-41.08-6.65
			c0.02-0.47,0.05-0.94,0.08-1.41c11.48,4.19,25.67,6.66,40.99,6.66c0.42,0,0.83,0,1.25-0.01c14.71-0.12,28.49-2.59,39.74-6.71
			C153.48,145.49,153.51,145.97,153.53,146.44z"/>
		<path d="M79.58,51.55l-0.22,0.12c1.2-0.2,2.43-0.29,3.7-0.29c6.64,0,14.08,2.71,21.64,7.6c-0.36,0.29-0.72,0.6-1.09,0.9
			c-2.94-1.88-5.87-3.41-8.73-4.57c-0.7-0.28-1.39-0.54-2.08-0.78c-5.12-1.75-9.99-2.24-14.34-1.25c-0.06,0.02-0.13,0.02-0.2,0.04
			c-0.78,0.19-1.54,0.43-2.27,0.71c-0.02,0.01-0.03,0.01-0.05,0.02c-0.24,0.09-0.48,0.2-0.71,0.3c-0.14,0.07-0.29,0.12-0.43,0.19
			c-0.37,0.17-0.74,0.36-1.09,0.57c-0.9,0.62-1.89,1.33-2.88,2.05l-0.14,0.09l-0.26-0.52l-0.56-0.59l0.02-0.01l0.03-0.03l0.06-0.06
			c0.13-0.11,0.27-0.23,0.41-0.34l0.55-0.39c1.29-0.92,2.59-1.8,3.73-2.57l0.1-0.06c0,0,0.01-0.01,0.02-0.01l0.11-0.07
			c0.32-0.2,0.62-0.37,0.91-0.55c0.05-0.03,0.09-0.05,0.14-0.08l2.97-1.66c0.41-0.21,0.8-0.41,1.2-0.61l0.7-0.36
			c0.32-0.16,0.63-0.31,0.95-0.46l1.61-0.8c0.37-0.16,0.73-0.3,1.08-0.44c1.21-0.45,2.49-0.79,3.82-1
			c6.15-0.97,13.24,0.78,20.58,4.7c0.78,0.42,1.56,0.86,2.34,1.32c0.41,0.24,0.83,0.49,1.24,0.75c-0.43,0.27-0.85,0.53-1.28,0.81
			c-8.09-4.94-15.97-7.25-22.66-6.19c-1.23,0.19-2.43,0.5-3.55,0.92c-0.33,0.13-0.65,0.26-0.98,0.4l-1.58,0.79
			c-0.32,0.15-0.64,0.3-0.94,0.45l-0.69,0.36C80.36,51.15,79.97,51.35,79.58,51.55z"/>
		<path d="M163.72,144.63c-0.08,11.23-3.28,20.23-9.78,25.1l-0.51,0.36c-0.25,0.17-0.51,0.35-0.77,0.52l-3.43,2.27l-1.92,1.14
			c-0.7,0.38-1.45,0.78-2.24,1.18c-0.84,0.45-1.94,1.02-2.92,1.5l-0.49,0.22c-0.31,0.14-0.59,0.26-0.88,0.37v-0.01l-0.54-1.28
			c0.01-0.01,0.02-0.01,0.02-0.02c0.77-0.34,1.54-0.71,2.31-1.09l0.07-0.04c0.18-0.1,0.36-0.2,0.54-0.32
			c0.3-0.18,0.59-0.38,0.88-0.59c0.1-0.07,0.2-0.15,0.29-0.22c0.17-0.12,0.34-0.25,0.51-0.39c0.61-0.49,1.2-1.03,1.75-1.62
			c0.05-0.04,0.09-0.1,0.14-0.15c3.25-3.51,5.32-8.42,6.26-14.31c0.11-0.71,0.21-1.43,0.29-2.17c0.3-2.71,0.37-5.6,0.23-8.64
			c-0.02-0.47-0.05-0.95-0.08-1.42c-0.18-2.64-0.52-5.38-1.01-8.19c-0.07-0.46-0.15-0.91-0.23-1.36
			c-2.3-12.12-7.4-25.59-15.07-38.61c-7.25-12.31-15.83-22.67-24.6-30.25c0.36-0.3,0.71-0.59,1.07-0.89
			c8.84,7.67,17.46,18.08,24.74,30.43c17.44,29.6,21.66,61.64,10.18,75.52l0.55-0.35l2.8-1.88c0.28-0.17,0.52-0.34,0.75-0.5
			l0.47-0.34c14.8-11.06,11.63-44.79-7.22-76.79c-7.46-12.67-16.49-23.37-25.69-31.05c0.41-0.27,0.8-0.53,1.2-0.79
			c9.24,7.77,18.25,18.48,25.7,31.13c8.01,13.6,13.19,27.54,15.41,40c0.08,0.46,0.17,0.93,0.24,1.39c0.44,2.74,0.74,5.4,0.88,7.97
			c0.03,0.51,0.05,1.01,0.07,1.51v0.04C163.72,142.9,163.73,143.77,163.72,144.63z"/>
		<path d="M153.75,55.02l-0.46-0.32c-0.9-0.62-1.95-1.28-2.76-1.79c-0.74-0.47-1.46-0.92-2.14-1.34l-1.95-1.09l-3.68-1.84
			c-0.28-0.15-0.56-0.28-0.83-0.41l-0.57-0.26c-7.15-3.06-16.06-1.62-25.37,3.37c-0.77,0.41-1.54,0.85-2.31,1.31
			c-0.42,0.24-0.83,0.5-1.24,0.76c-0.43,0.27-0.85,0.53-1.28,0.81c-2.15,1.42-4.31,3-6.46,4.76c-0.36,0.29-0.72,0.6-1.09,0.9
			c-9.68,8.15-19.15,19.6-26.92,33.34c-7.23,12.78-12,25.95-14.11,37.83c-0.08,0.47-0.16,0.93-0.23,1.39
			c-0.46,2.8-0.76,5.53-0.91,8.16c-0.03,0.5-0.05,0.99-0.06,1.48c0,0.01,0,0.01,0,0.01c-0.03,0.88-0.05,1.76-0.04,2.61
			c0.06,8.98,2.1,16.55,6.25,21.68c0.85,1.04,1.78,1.99,2.78,2.8c0.29,0.24,0.59,0.48,0.92,0.72l1.49,0.99
			c0.29,0.2,0.58,0.4,0.88,0.6l0.66,0.42c0.37,0.25,0.75,0.49,1.13,0.73l2.89,1.73v0.01c0.07,0.03,0.13,0.07,0.19,0.1
			c0.35,0.2,0.7,0.4,1.09,0.6c1.25,0.61,2.68,1.31,4.15,1.98l0.61,0.28c0.19,0.07,0.38,0.15,0.58,0.21l0.01,0.01l0.03,0.01
			l0.04,0.01h0.02l5.05,1l1.17,0.23l-0.47-0.21l-5.39-2.37c-1.12-0.49-2.22-1-3.21-1.46c-0.36-0.21-0.7-0.43-1.04-0.67
			c-0.12-0.08-0.23-0.17-0.34-0.25c-0.22-0.16-0.45-0.32-0.67-0.5c-0.01,0-0.02-0.01-0.03-0.02c-0.61-0.5-1.19-1.03-1.75-1.62
			c-0.04-0.05-0.08-0.1-0.13-0.15c-3.29-3.55-5.39-8.48-6.34-14.39c-0.11-0.71-0.21-1.44-0.29-2.18c-0.29-2.67-0.37-5.51-0.23-8.5
			c0.02-0.47,0.05-0.94,0.08-1.41c0.18-2.69,0.51-5.47,1.02-8.35c0.08-0.44,0.17-0.89,0.26-1.33c2.18-11.39,6.86-24.01,13.9-36.44
			c7.44-13.16,16.56-24.3,25.89-32.35c0.36-0.3,0.71-0.59,1.07-0.89c2.19-1.83,4.39-3.49,6.58-4.96c0.41-0.27,0.8-0.53,1.2-0.79
			c2.97-1.89,5.91-3.45,8.78-4.62c0.7-0.28,1.39-0.55,2.08-0.78c5.12-1.77,9.97-2.27,14.29-1.29c0.06,0.02,0.13,0.02,0.2,0.04
			c0.78,0.19,1.54,0.43,2.28,0.71c0.03,0.02,0.06,0.03,0.1,0.04c0.61,0.24,1.21,0.51,1.78,0.82c0.18,0.09,0.35,0.19,0.52,0.29
			l0.09,0.06c0.71,0.47,1.42,0.96,2.11,1.45c0,0,0.01,0.01,0.02,0.01l0.84-1.11C154.24,55.4,154,55.21,153.75,55.02z M85.43,98.27
			c-16.56,29.27-20.22,59.69-9.02,73.32l-0.22-0.13c-0.36-0.24-0.73-0.48-1.11-0.73l-0.65-0.41c-0.28-0.19-0.57-0.39-0.86-0.59
			l-1.48-0.98c-0.29-0.2-0.56-0.42-0.83-0.65c-0.93-0.76-1.79-1.63-2.58-2.6c-10.67-13.18-6.79-43.29,9.23-71.59
			c15.71-27.78,38.33-46.17,55.15-46.17c2.75,0,5.35,0.49,7.74,1.52l0.53,0.24c0.26,0.12,0.52,0.24,0.7,0.33l3.13,1.55l0.58,0.31
			C127.98,48.68,102.35,68.36,85.43,98.27z"/>
	</g>
</g>
</svg>
