<?xml version="1.0" encoding="utf-8"?>
<!-- Generator: Adobe Illustrator 26.2.1, SVG Export Plug-In . SVG Version: 6.00 Build 0)  -->
<svg version="1.1" xmlns="http://www.w3.org/2000/svg" xmlns:xlink="http://www.w3.org/1999/xlink" x="0px" y="0px"
	 viewBox="0 0 225 225" style="enable-background:new 0 0 225 225;" xml:space="preserve">
<style type="text/css">
	.st0{display:none;}
	.st1{display:inline;fill:#FAB433;}
	.st2{fill:none;}
	.st3{fill:none;stroke:#000000;stroke-width:1.6;stroke-miterlimit:10;}
	.st4{fill:none;stroke:#000000;stroke-width:0.7265;stroke-miterlimit:10;}
	.st5{fill:none;stroke:#000000;stroke-linecap:round;stroke-linejoin:round;stroke-miterlimit:10;}
	.st6{fill:none;stroke:#000000;stroke-miterlimit:10;}
	.st7{fill:none;stroke:#000000;stroke-width:0.7105;stroke-miterlimit:10;}
	.st8{fill:none;stroke:#000000;stroke-width:5.4;stroke-linecap:round;stroke-linejoin:round;stroke-miterlimit:10;}
	.st9{fill:none;stroke:#000000;stroke-width:2.9309;stroke-linecap:round;stroke-linejoin:round;stroke-miterlimit:10;}
	.st10{fill:none;stroke:#000000;stroke-width:0.5;stroke-linecap:round;stroke-linejoin:round;}
	.st11{fill:none;stroke:#FFFFFF;stroke-width:0;stroke-linecap:round;stroke-linejoin:round;}
	.st12{fill:#FFFFFF;}
	.st13{fill:none;stroke:#000000;stroke-width:1.4;stroke-miterlimit:10;}
	.st14{fill:url(#);stroke:#000000;stroke-width:1.4387;stroke-miterlimit:10;}
	.st15{fill:url(#);stroke:#000000;stroke-width:1.3718;stroke-miterlimit:10;}
	.st16{fill:none;stroke:#000000;stroke-width:1.0041;stroke-miterlimit:10;}
	.st17{fill:none;stroke:#000000;stroke-width:1.3621;stroke-miterlimit:10;}
	.st18{fill:none;stroke:#000000;stroke-width:0.25;stroke-miterlimit:10;}
</style>
<g id="Layer_2" class="st0">
	<rect id="XMLID_3548_" x="-345.99" y="-520.01" class="st1" width="1160" height="772"/>
</g>
<g id="Layer_1">
	<g id="XMLID_21152_">
		<path id="XMLID_21214_" d="M136.59,78.16c0.02,2.18,1.81,3.96,4,3.96h0.04c1.07-0.01,2.06-0.43,2.81-1.19
			c0.75-0.76,1.16-1.77,1.15-2.84c-0.02-2.18-1.82-3.96-4-3.96h-0.04c-1.07,0.01-2.07,0.44-2.81,1.2
			C136.98,76.08,136.58,77.09,136.59,78.16z M141.86,86.99c-0.13,1.56,1.02,2.94,2.58,3.07c0.09,0.01,0.17,0.01,0.25,0.01
			c1.46,0,2.7-1.14,2.82-2.59c0.14-1.55-1.02-2.93-2.57-3.08c-0.09,0-0.17-0.01-0.25-0.01C143.21,84.4,142,85.52,141.86,86.99z
			 M133.13,73.58c0.2,0,0.41-0.01,0.61-0.04c1.33-0.16,2.52-0.83,3.35-1.89c0.82-1.06,1.19-2.37,1.03-3.71
			c-0.31-2.52-2.45-4.42-4.98-4.42c-0.2,0-0.41,0.01-0.61,0.04c-2.75,0.33-4.72,2.84-4.39,5.59
			C128.46,71.68,130.6,73.58,133.13,73.58z M147.39,111.06c0.03,0.01,0.07,0.02,0.1,0.02c0.14,0,0.26-0.08,0.31-0.22
			c0.05-0.17-0.04-0.35-0.2-0.4c-0.03-0.01-0.07-0.02-0.1-0.02c-0.14,0-0.26,0.09-0.3,0.22
			C147.13,110.82,147.22,111.01,147.39,111.06z M120.76,66.05c0.5,0,1.01-0.06,1.51-0.18c1.68-0.39,3.11-1.43,4.02-2.91
			c0.91-1.48,1.19-3.22,0.78-4.91c-0.7-2.93-3.29-4.98-6.3-4.98c-0.51,0-1.02,0.06-1.52,0.18c-3.48,0.83-5.63,4.34-4.8,7.82
			C115.15,64,117.75,66.05,120.76,66.05z M106.11,59.14c0.57-0.13,1.11-0.36,1.6-0.69c1.14-0.74,1.91-1.86,2.2-3.19
			c0.29-1.32,0.04-2.67-0.69-3.8c-1.16-1.79-3.33-2.66-5.39-2.18c-0.57,0.13-1.11,0.36-1.6,0.68c-2.34,1.51-3.01,4.65-1.49,6.99
			C101.88,58.74,104.04,59.62,106.11,59.14z M93.61,57.73c0.59-0.14,1.13-0.4,1.61-0.8c0.81-0.66,1.32-1.6,1.42-2.65
			c0.1-1.04-0.21-2.07-0.88-2.88c-0.96-1.15-2.45-1.67-3.91-1.33c-0.59,0.14-1.13,0.4-1.61,0.8c-0.81,0.66-1.31,1.61-1.42,2.65
			c-0.1,1.04,0.21,2.06,0.88,2.87C90.64,57.56,92.14,58.07,93.61,57.73z M147.07,92.84c-0.96,0-1.76,0.68-1.92,1.63
			c-0.09,0.51,0.04,1.03,0.34,1.45c0.3,0.42,0.76,0.7,1.27,0.78c0.11,0.02,0.21,0.03,0.32,0.03c0.95,0,1.75-0.69,1.91-1.63
			c0.08-0.51-0.04-1.02-0.34-1.45c-0.3-0.42-0.75-0.7-1.26-0.79C147.28,92.85,147.17,92.84,147.07,92.84z M147.76,107.2
			c0.07,0.02,0.14,0.03,0.21,0.03c0.34,0,0.64-0.23,0.73-0.56c0.06-0.2,0.03-0.4-0.07-0.58c-0.1-0.18-0.27-0.3-0.46-0.36
			c-0.07-0.02-0.14-0.03-0.2-0.03c-0.35,0-0.64,0.23-0.74,0.56C147.11,106.66,147.35,107.09,147.76,107.2z M148.26,99.9
			c-0.09-0.02-0.18-0.03-0.27-0.03c-0.56,0-1.05,0.4-1.17,0.95c-0.07,0.31-0.01,0.63,0.15,0.9c0.17,0.27,0.44,0.46,0.76,0.53
			c0.08,0.02,0.17,0.03,0.26,0.03c0.56,0,1.05-0.39,1.17-0.94c0.07-0.31,0.02-0.63-0.16-0.91
			C148.83,100.15,148.57,99.96,148.26,99.9z M83.67,58.77c0.56-0.13,1.07-0.42,1.48-0.84c0.56-0.57,0.85-1.32,0.84-2.12
			c-0.01-0.8-0.34-1.55-0.91-2.11c-0.73-0.72-1.77-1-2.76-0.77c-0.56,0.13-1.07,0.42-1.47,0.84c-0.56,0.58-0.86,1.34-0.84,2.14
			c0.01,0.8,0.33,1.54,0.91,2.1C81.63,58.72,82.67,59.01,83.67,58.77z M75.61,61.4c0.5-0.11,0.94-0.39,1.25-0.8
			c0.74-0.97,0.56-2.37-0.4-3.11c-0.53-0.4-1.21-0.55-1.86-0.4c-0.51,0.11-0.94,0.39-1.26,0.81c-0.36,0.47-0.52,1.05-0.44,1.63
			c0.08,0.58,0.38,1.11,0.85,1.46C74.29,61.41,74.96,61.56,75.61,61.4z M61.06,69.89c0.1,0.03,0.21,0.04,0.31,0.02
			c0.2-0.05,0.36-0.2,0.43-0.42c0.05-0.15,0.04-0.3-0.03-0.44c-0.07-0.14-0.19-0.24-0.35-0.29c-0.1-0.04-0.22-0.05-0.32-0.02
			c-0.21,0.05-0.37,0.2-0.44,0.4C60.56,69.46,60.73,69.78,61.06,69.89z M64.36,67.31c0.22,0.1,0.44,0.12,0.67,0.07
			c0.32-0.08,0.58-0.28,0.72-0.57c0.24-0.54,0.01-1.14-0.52-1.39c-0.22-0.1-0.45-0.12-0.67-0.07c-0.32,0.07-0.57,0.29-0.71,0.59
			c-0.12,0.25-0.13,0.54-0.03,0.8C63.91,67,64.1,67.2,64.36,67.31z M68.4,63.9c0.35,0.22,0.76,0.28,1.17,0.19
			c0.42-0.1,0.78-0.35,0.99-0.71c0.45-0.75,0.21-1.72-0.54-2.18c-0.35-0.21-0.76-0.27-1.16-0.18c-0.42,0.09-0.78,0.35-1.01,0.73
			c-0.21,0.35-0.28,0.76-0.18,1.17C67.77,63.33,68.04,63.68,68.4,63.9z M131.39,167.27c-0.59,0.13-1.13,0.4-1.61,0.79
			c-0.81,0.67-1.32,1.61-1.42,2.65c-0.1,1.04,0.21,2.07,0.88,2.88c0.96,1.16,2.45,1.67,3.91,1.34c0.59-0.14,1.13-0.4,1.61-0.8
			c0.81-0.66,1.32-1.61,1.42-2.65c0.1-1.04-0.21-2.06-0.88-2.87C134.36,167.44,132.86,166.93,131.39,167.27z M83.14,138
			c0.14-1.56-1.02-2.94-2.58-3.07c-0.09-0.01-0.17-0.01-0.25-0.01c-1.46,0-2.7,1.13-2.82,2.59c-0.13,1.56,1.02,2.94,2.57,3.08
			c0.09,0,0.17,0,0.26,0C81.79,140.59,83,139.48,83.14,138z M149.39,163.59c-0.5,0.12-0.94,0.4-1.25,0.8
			c-0.74,0.97-0.56,2.37,0.4,3.11c0.53,0.4,1.21,0.55,1.86,0.4c0.51-0.11,0.94-0.39,1.26-0.81c0.36-0.46,0.51-1.05,0.44-1.63
			c-0.08-0.59-0.38-1.11-0.85-1.47C150.71,163.58,150.04,163.44,149.39,163.59z M88.41,146.84c-0.02-2.18-1.81-3.96-3.99-3.96h-0.04
			c-1.07,0.01-2.06,0.44-2.81,1.2c-0.75,0.76-1.16,1.78-1.15,2.84c0.02,2.18,1.81,3.96,4,3.96h0.04c1.07-0.01,2.07-0.44,2.82-1.2
			C88.02,148.92,88.42,147.91,88.41,146.84z M118.89,165.86c-0.57,0.13-1.11,0.36-1.6,0.69c-1.14,0.74-1.91,1.87-2.2,3.19
			c-0.28,1.32-0.04,2.67,0.69,3.8c1.15,1.78,3.32,2.66,5.4,2.18c0.57-0.13,1.1-0.36,1.6-0.68c2.34-1.51,3.01-4.65,1.49-6.99
			C123.12,166.26,120.96,165.38,118.89,165.86z M77.93,132.15c0.95,0,1.76-0.68,1.91-1.63c0.09-0.51-0.04-1.03-0.34-1.45
			c-0.3-0.42-0.76-0.7-1.26-0.78c-0.11-0.01-0.22-0.02-0.32-0.02c-0.96,0-1.76,0.69-1.92,1.63c-0.08,0.51,0.04,1.03,0.34,1.45
			c0.3,0.42,0.75,0.7,1.26,0.79C77.72,132.14,77.83,132.15,77.93,132.15z M104.23,171.93c0.51,0,1.02-0.06,1.52-0.18
			c3.48-0.83,5.63-4.34,4.8-7.82c-0.7-2.94-3.3-4.99-6.31-4.99c-0.5,0-1.01,0.06-1.51,0.18c-1.69,0.4-3.11,1.43-4.02,2.91
			c-0.91,1.48-1.19,3.22-0.78,4.92C98.63,169.88,101.22,171.93,104.23,171.93z M160.64,157.68c-0.21-0.09-0.45-0.12-0.67-0.07
			c-0.32,0.08-0.58,0.28-0.72,0.57c-0.24,0.54-0.01,1.14,0.52,1.39c0.22,0.1,0.45,0.12,0.67,0.07c0.32-0.07,0.57-0.29,0.71-0.59
			c0.12-0.25,0.13-0.54,0.03-0.8C161.09,158,160.9,157.8,160.64,157.68z M76.74,125.1c0.09,0.02,0.18,0.03,0.27,0.03
			c0.56,0,1.05-0.4,1.17-0.95c0.07-0.3,0.01-0.63-0.16-0.9c-0.17-0.27-0.44-0.46-0.75-0.53c-0.09-0.02-0.18-0.03-0.27-0.03
			c-0.56,0-1.05,0.39-1.17,0.94c-0.07,0.31-0.02,0.63,0.16,0.9C76.17,124.84,76.43,125.03,76.74,125.1z M91.87,151.42
			c-0.2,0-0.41,0.01-0.61,0.04c-1.33,0.16-2.52,0.83-3.35,1.89c-0.82,1.06-1.19,2.37-1.03,3.71c0.31,2.52,2.45,4.42,4.98,4.42
			c0.21,0,0.41-0.01,0.61-0.04c2.75-0.33,4.72-2.84,4.39-5.59C96.54,153.32,94.4,151.42,91.87,151.42z M141.33,166.22
			c-0.56,0.13-1.07,0.42-1.48,0.84c-0.56,0.57-0.85,1.32-0.84,2.12c0.01,0.8,0.34,1.55,0.92,2.11c0.73,0.71,1.76,1,2.76,0.77
			c0.56-0.13,1.07-0.42,1.47-0.84c0.56-0.57,0.86-1.33,0.85-2.13c-0.01-0.8-0.33-1.55-0.91-2.1
			C143.36,166.28,142.33,165.99,141.33,166.22z M163.94,155.1c-0.1-0.03-0.21-0.04-0.31-0.02c-0.2,0.05-0.36,0.2-0.43,0.42
			c-0.05,0.15-0.04,0.3,0.03,0.44c0.07,0.14,0.19,0.24,0.35,0.29c0.11,0.04,0.22,0.05,0.32,0.02c0.21-0.05,0.37-0.2,0.44-0.4
			C164.44,155.53,164.27,155.21,163.94,155.1z M77.51,114.56c0.14,0,0.26-0.09,0.3-0.22c0.05-0.17-0.04-0.35-0.2-0.41
			c-0.04-0.01-0.07-0.01-0.1-0.01c-0.14,0-0.26,0.08-0.31,0.22c-0.05,0.17,0.04,0.35,0.21,0.4
			C77.44,114.55,77.48,114.56,77.51,114.56z M76.3,118.33c-0.06,0.2-0.03,0.4,0.07,0.58c0.1,0.18,0.27,0.3,0.46,0.35
			c0.07,0.03,0.14,0.04,0.21,0.04c0.34,0,0.64-0.23,0.74-0.56c0.12-0.4-0.12-0.83-0.52-0.94c-0.07-0.02-0.14-0.03-0.21-0.03
			C76.69,117.76,76.39,118,76.3,118.33z M156.6,161.1c-0.35-0.22-0.76-0.28-1.17-0.19c-0.42,0.1-0.77,0.35-0.99,0.71
			c-0.45,0.75-0.21,1.72,0.54,2.18c0.35,0.21,0.76,0.27,1.16,0.18c0.42-0.1,0.78-0.36,1.01-0.73c0.22-0.35,0.28-0.76,0.18-1.17
			C157.23,161.66,156.96,161.32,156.6,161.1z M61.41,149.38c-0.11-0.5-0.39-0.94-0.8-1.25c-0.97-0.74-2.37-0.56-3.11,0.4
			c-0.4,0.53-0.55,1.21-0.4,1.86c0.11,0.51,0.39,0.94,0.81,1.26c0.47,0.36,1.05,0.51,1.63,0.44c0.59-0.08,1.11-0.38,1.47-0.85
			C61.41,150.71,61.56,150.03,61.41,149.38z M63.38,154.44c-0.75-0.45-1.72-0.21-2.17,0.54c-0.21,0.35-0.27,0.76-0.18,1.16
			c0.09,0.42,0.35,0.78,0.73,1.01c0.35,0.21,0.76,0.28,1.17,0.18c0.42-0.1,0.76-0.36,0.98-0.73c0.22-0.35,0.28-0.76,0.19-1.17
			C63.99,155.01,63.74,154.65,63.38,154.44z M69.49,163.2c-0.15-0.05-0.3-0.04-0.44,0.03c-0.14,0.07-0.24,0.19-0.29,0.34
			c-0.04,0.11-0.05,0.22-0.03,0.32c0.05,0.21,0.2,0.38,0.4,0.44c0.32,0.11,0.65-0.07,0.76-0.4c0.03-0.1,0.04-0.21,0.02-0.31
			C69.86,163.42,69.71,163.27,69.49,163.2z M56.39,135.31c1.16-0.95,1.68-2.45,1.34-3.91c-0.13-0.59-0.4-1.13-0.8-1.61
			c-0.66-0.81-1.6-1.32-2.64-1.42c-1.05-0.1-2.07,0.21-2.88,0.89c-1.15,0.95-1.67,2.45-1.33,3.91c0.14,0.59,0.4,1.13,0.8,1.61
			c0.66,0.81,1.61,1.32,2.65,1.42C54.56,136.28,55.58,135.98,56.39,135.31z M58.78,141.33c-0.13-0.56-0.42-1.07-0.84-1.48
			c-0.57-0.56-1.32-0.85-2.12-0.84c-0.8,0.01-1.55,0.34-2.11,0.91c-0.72,0.73-1,1.77-0.77,2.76c0.13,0.56,0.42,1.07,0.84,1.47
			c0.58,0.56,1.33,0.86,2.13,0.84c0.8-0.01,1.54-0.33,2.1-0.91C58.72,143.36,59.01,142.33,58.78,141.33z M66.81,159.25
			c-0.54-0.24-1.14-0.01-1.39,0.52c-0.1,0.22-0.12,0.45-0.07,0.67c0.07,0.32,0.29,0.57,0.59,0.71c0.25,0.12,0.54,0.13,0.8,0.03
			c0.26-0.09,0.47-0.29,0.58-0.54c0.1-0.22,0.12-0.45,0.07-0.67C67.31,159.65,67.1,159.39,66.81,159.25z M61.06,110.55
			c2.94-0.7,4.99-3.3,4.99-6.31c0-0.5-0.06-1.01-0.18-1.51c-0.4-1.69-1.43-3.11-2.91-4.02c-1.48-0.91-3.22-1.19-4.92-0.78
			c-2.93,0.7-4.98,3.29-4.98,6.3c0,0.51,0.06,1.02,0.18,1.52C54.08,109.23,57.58,111.38,61.06,110.55z M100.81,78.18
			c0.31,0.07,0.63,0.01,0.9-0.16c0.27-0.17,0.46-0.44,0.53-0.76c0.02-0.08,0.03-0.17,0.03-0.26c0-0.56-0.39-1.05-0.94-1.17
			c-0.31-0.07-0.64-0.02-0.91,0.16c-0.27,0.18-0.46,0.44-0.53,0.75c-0.02,0.09-0.03,0.18-0.03,0.27
			C99.87,77.56,100.26,78.05,100.81,78.18z M106.09,76.36c-0.18,0.1-0.3,0.27-0.36,0.46c-0.02,0.07-0.03,0.14-0.03,0.2
			c0,0.35,0.23,0.64,0.56,0.74c0.4,0.12,0.83-0.12,0.94-0.52c0.02-0.07,0.03-0.14,0.03-0.21c0-0.34-0.23-0.64-0.56-0.74
			C106.47,76.24,106.27,76.27,106.09,76.36z M110.65,77.81c0.17,0.05,0.35-0.04,0.41-0.2c0.01-0.04,0.02-0.07,0.02-0.1
			c0-0.14-0.08-0.26-0.22-0.31c-0.17-0.05-0.35,0.04-0.4,0.21c-0.01,0.03-0.02,0.06-0.02,0.1
			C110.44,77.65,110.52,77.77,110.65,77.81z M95.1,76.01c-0.51-0.08-1.03,0.04-1.45,0.34c-0.42,0.3-0.7,0.75-0.79,1.26
			c-0.02,0.1-0.03,0.21-0.03,0.32c0,0.95,0.68,1.76,1.64,1.92c0.51,0.09,1.03-0.04,1.45-0.34c0.42-0.3,0.7-0.75,0.78-1.27
			c0.02-0.11,0.03-0.21,0.03-0.32C96.73,76.97,96.04,76.17,95.1,76.01z M84.41,80.05c0,0.09-0.01,0.17-0.01,0.25
			c0,1.48,1.11,2.7,2.59,2.83c1.56,0.14,2.94-1.02,3.07-2.58c0.01-0.09,0.01-0.17,0.01-0.25c0-1.46-1.14-2.7-2.59-2.82
			C85.93,77.34,84.55,78.49,84.41,80.05z M49.28,121.17c0.13,0.57,0.35,1.11,0.68,1.61c1.51,2.34,4.65,3.01,6.99,1.49
			c1.78-1.15,2.66-3.31,2.18-5.38c-0.13-0.57-0.36-1.11-0.69-1.6c-0.74-1.14-1.86-1.91-3.19-2.2c-1.32-0.29-2.67-0.04-3.8,0.69
			C49.68,116.93,48.8,119.1,49.28,121.17z M69.16,96.85c2.52-0.31,4.42-2.45,4.42-4.99c0-0.2-0.01-0.41-0.04-0.61
			c-0.16-1.33-0.83-2.52-1.89-3.35c-1.06-0.82-2.37-1.19-3.71-1.03c-2.52,0.3-4.42,2.45-4.42,4.98c0,0.21,0.01,0.41,0.04,0.61
			C63.9,95.21,66.41,97.18,69.16,96.85z M74.12,84.41v0.04c0.01,1.07,0.44,2.07,1.2,2.81c0.77,0.74,1.78,1.15,2.85,1.14
			c2.18-0.02,3.95-1.81,3.95-3.99v-0.04c-0.01-1.07-0.43-2.06-1.19-2.81c-0.76-0.75-1.78-1.16-2.84-1.15
			C75.9,80.44,74.12,82.23,74.12,84.41z M142.88,140.58v0.04c0.01,1.07,0.43,2.06,1.2,2.81c0.76,0.75,1.77,1.16,2.84,1.15
			c2.18-0.02,3.96-1.81,3.96-4v-0.04c-0.01-1.07-0.44-2.07-1.2-2.82c-0.77-0.75-1.78-1.15-2.85-1.14
			C144.66,136.61,142.88,138.4,142.88,140.58z M114.14,147.79c0.17,0.05,0.35-0.04,0.4-0.21c0.01-0.03,0.02-0.06,0.02-0.1
			c0-0.14-0.09-0.26-0.22-0.3c-0.17-0.05-0.35,0.03-0.41,0.2c-0.01,0.03-0.01,0.07-0.01,0.1C113.92,147.62,114,147.75,114.14,147.79
			z M153.34,137.1c1.06,0.82,2.37,1.19,3.71,1.03c2.52-0.31,4.42-2.45,4.42-4.98c0-0.21-0.01-0.41-0.04-0.61
			c-0.33-2.75-2.84-4.72-5.59-4.39c-2.52,0.31-4.42,2.45-4.42,4.99c0,0.2,0.01,0.4,0.04,0.61
			C151.62,135.07,152.28,136.27,153.34,137.1z M155.5,61.8c0.15,0.05,0.3,0.04,0.44-0.03c0.14-0.07,0.24-0.19,0.29-0.35
			c0.04-0.11,0.05-0.22,0.02-0.32c-0.05-0.21-0.2-0.37-0.4-0.44c-0.32-0.11-0.65,0.07-0.76,0.4c-0.03,0.1-0.04,0.21-0.02,0.31
			C155.13,61.58,155.28,61.73,155.5,61.8z M163.59,75.61c0.11,0.5,0.39,0.93,0.8,1.25c0.97,0.74,2.37,0.56,3.11-0.4
			c0.4-0.53,0.55-1.2,0.4-1.86c-0.11-0.51-0.39-0.94-0.81-1.26c-0.47-0.36-1.05-0.51-1.63-0.44c-0.59,0.08-1.11,0.38-1.47,0.85
			C163.58,74.29,163.44,74.96,163.59,75.61z M166.22,83.67c0.13,0.56,0.42,1.07,0.84,1.48c0.57,0.56,1.33,0.85,2.12,0.84
			c0.8-0.01,1.55-0.34,2.11-0.91c0.71-0.73,1-1.76,0.77-2.76c-0.13-0.56-0.42-1.07-0.84-1.47c-0.58-0.56-1.33-0.86-2.13-0.84
			c-0.8,0.01-1.54,0.33-2.1,0.91C166.28,81.63,165.99,82.67,166.22,83.67z M168.04,100.73c-1.78,1.15-2.66,3.31-2.19,5.38
			c0.13,0.57,0.36,1.11,0.69,1.6c0.74,1.14,1.87,1.91,3.19,2.2c1.32,0.28,2.67,0.04,3.8-0.69c1.79-1.15,2.66-3.32,2.18-5.4
			c-0.13-0.56-0.36-1.1-0.68-1.6C173.52,99.88,170.38,99.21,168.04,100.73z M140.59,144.95c0-0.08,0-0.17,0-0.25
			c0-1.48-1.11-2.7-2.59-2.83c-1.56-0.14-2.94,1.02-3.07,2.58c-0.01,0.09-0.01,0.17-0.01,0.25c0,1.46,1.14,2.7,2.59,2.82
			C139.07,147.66,140.45,146.5,140.59,144.95z M168.61,89.69c-1.17,0.95-1.68,2.45-1.34,3.91c0.14,0.59,0.4,1.13,0.8,1.61
			c0.66,0.81,1.6,1.32,2.65,1.42c1.04,0.1,2.07-0.21,2.88-0.88c1.15-0.96,1.67-2.45,1.33-3.91c-0.14-0.59-0.4-1.13-0.8-1.61
			c-0.66-0.81-1.6-1.32-2.65-1.42C170.44,88.71,169.42,89.02,168.61,89.69z M124.18,146.82c-0.3-0.07-0.63-0.01-0.9,0.15
			c-0.27,0.17-0.46,0.44-0.53,0.75c-0.02,0.09-0.03,0.18-0.03,0.27c0,0.56,0.39,1.05,0.94,1.17c0.31,0.07,0.64,0.02,0.91-0.16
			c0.27-0.17,0.46-0.44,0.53-0.75c0.02-0.09,0.03-0.18,0.03-0.27C125.13,147.43,124.73,146.94,124.18,146.82z M118.91,148.63
			c0.18-0.1,0.3-0.26,0.36-0.46c0.02-0.07,0.03-0.14,0.03-0.2c0-0.35-0.23-0.64-0.56-0.74c-0.4-0.12-0.83,0.12-0.94,0.53
			c-0.02,0.07-0.03,0.14-0.03,0.2c0,0.34,0.23,0.65,0.56,0.74C118.53,148.76,118.73,148.73,118.91,148.63z M158.18,65.75
			c0.54,0.24,1.15,0.01,1.39-0.52c0.1-0.22,0.12-0.45,0.07-0.67c-0.07-0.32-0.29-0.57-0.59-0.71c-0.25-0.12-0.54-0.13-0.8-0.03
			c-0.26,0.09-0.46,0.29-0.58,0.54c-0.1,0.21-0.12,0.44-0.07,0.67C157.69,65.35,157.9,65.61,158.18,65.75z M163.93,114.45
			c-2.93,0.7-4.99,3.3-4.99,6.31c0,0.5,0.06,1.01,0.18,1.51c0.39,1.69,1.43,3.11,2.91,4.02c1.48,0.91,3.22,1.19,4.92,0.78
			c2.93-0.7,4.98-3.29,4.98-6.3c0-0.51-0.06-1.02-0.18-1.52C170.92,115.77,167.41,113.61,163.93,114.45z M129.89,148.99
			c0.51,0.08,1.03-0.04,1.45-0.34c0.42-0.3,0.7-0.75,0.78-1.26c0.02-0.11,0.03-0.21,0.03-0.32c0-0.95-0.68-1.76-1.64-1.91
			c-0.5-0.09-1.02,0.04-1.44,0.34c-0.42,0.3-0.7,0.76-0.78,1.26c-0.02,0.11-0.03,0.22-0.03,0.32
			C128.27,148.03,128.95,148.83,129.89,148.99z M161.62,70.56c0.75,0.45,1.72,0.21,2.17-0.54c0.21-0.35,0.27-0.76,0.18-1.16
			c-0.1-0.42-0.35-0.78-0.73-1.01c-0.35-0.22-0.76-0.28-1.17-0.18c-0.41,0.1-0.76,0.36-0.98,0.73c-0.22,0.35-0.28,0.76-0.19,1.17
			C161.01,69.99,161.26,70.34,161.62,70.56z"/>
		<path id="XMLID_21153_" d="M119.23,74.05c0.07-0.05,0.13-0.11,0.19-0.17c1.03-1.03,1.1-2.71,0.16-3.83c-1-1.19-2.8-1.36-4-0.35
			c-0.06,0.05-0.12,0.11-0.18,0.17c-1.04,1.05-1.12,2.7-0.17,3.84C116.23,74.9,118.03,75.05,119.23,74.05z M45.91,117.65
			c-0.15-0.05-0.31-0.04-0.46,0.04c-0.1,0.05-0.19,0.12-0.24,0.21c-0.11,0.18-0.12,0.41-0.03,0.59c0.15,0.3,0.51,0.41,0.82,0.25
			c0.09-0.05,0.18-0.12,0.23-0.21c0.11-0.18,0.12-0.4,0.01-0.6C46.18,117.8,46.06,117.7,45.91,117.65z M110.87,71.16l0.03-0.03
			c0.74-0.76,1.15-1.77,1.14-2.83c-0.01-1.08-0.44-2.08-1.2-2.82c-1.56-1.53-4.08-1.52-5.63,0.02l-0.02,0.03
			c-0.75,0.76-1.15,1.77-1.15,2.84c0.01,1.07,0.44,2.07,1.2,2.82C106.81,72.72,109.33,72.7,110.87,71.16z M136.16,86.82
			c0.03-0.02,0.06-0.04,0.08-0.06c0.1-0.1,0.13-0.24,0.06-0.37c-0.08-0.15-0.27-0.22-0.43-0.14c-0.03,0.02-0.06,0.03-0.08,0.06
			c-0.1,0.1-0.12,0.25-0.06,0.37C135.8,86.83,135.99,86.89,136.16,86.82z M123.29,73.95c-0.09,0.07-0.17,0.13-0.24,0.21
			c-0.68,0.67-0.76,1.73-0.2,2.51c0.3,0.42,0.76,0.7,1.27,0.78c0.51,0.08,1.02-0.04,1.45-0.34c0.09-0.06,0.16-0.13,0.24-0.21
			c0.67-0.68,0.76-1.73,0.2-2.5c-0.3-0.42-0.75-0.7-1.27-0.78C124.22,73.53,123.71,73.65,123.29,73.95z M129.25,80.5
			c0.31,0.07,0.63,0.01,0.91-0.16c0.08-0.04,0.15-0.1,0.21-0.16c0.4-0.4,0.46-1.02,0.17-1.49c-0.18-0.27-0.44-0.46-0.75-0.53
			c-0.32-0.07-0.64-0.01-0.91,0.16c-0.08,0.05-0.15,0.1-0.21,0.16c-0.4,0.4-0.46,1.02-0.16,1.5
			C128.67,80.23,128.94,80.42,129.25,80.5z M92.92,70.79c2,1.57,4.85,1.39,6.65-0.39c0.14-0.14,0.28-0.3,0.41-0.46
			c0.83-1.06,1.19-2.37,1.04-3.71c-0.16-1.33-0.84-2.52-1.89-3.35c-2-1.57-4.86-1.4-6.65,0.4c-0.14,0.15-0.28,0.3-0.4,0.46
			C90.36,65.91,90.74,69.08,92.92,70.79z M45.79,112.64c-0.22,0.08-0.4,0.23-0.53,0.42c-0.17,0.27-0.2,0.61-0.09,0.92
			c0.1,0.26,0.3,0.47,0.55,0.59c0.25,0.12,0.53,0.13,0.79,0.03c0.22-0.08,0.4-0.23,0.52-0.42c0.17-0.28,0.21-0.61,0.11-0.91
			C46.93,112.7,46.33,112.44,45.79,112.64z M77.51,74.75c2.57,1.58,5.86,1.19,7.99-0.94c0.36-0.35,0.68-0.76,0.94-1.19
			c0.91-1.47,1.19-3.22,0.79-4.9c-0.4-1.69-1.44-3.12-2.92-4.02c-2.56-1.58-5.85-1.2-7.98,0.94c-0.36,0.35-0.67,0.76-0.94,1.19
			C73.51,68.88,74.46,72.88,77.51,74.75z M51.63,96.31c1.02-0.01,1.95-0.54,2.5-1.41c0.3-0.49,0.46-1.06,0.45-1.64
			c-0.01-0.8-0.33-1.54-0.9-2.09c-0.58-0.56-1.34-0.86-2.14-0.84c-1.02,0.01-1.95,0.54-2.5,1.41c-0.3,0.49-0.46,1.05-0.44,1.63
			c0.01,0.81,0.34,1.56,0.91,2.11C50.07,96.03,50.82,96.32,51.63,96.31z M48.69,103.48c0.66-0.09,1.25-0.46,1.59-1.02
			c0.28-0.44,0.39-0.94,0.32-1.45c-0.16-1.21-1.27-2.08-2.48-1.92c-0.66,0.09-1.24,0.46-1.59,1.03c-0.28,0.44-0.39,0.94-0.32,1.47
			c0.08,0.58,0.38,1.11,0.84,1.46C47.53,103.4,48.11,103.56,48.69,103.48z M45.05,108.18c0.1,0.4,0.34,0.74,0.7,0.96
			c0.36,0.22,0.79,0.28,1.21,0.18c0.4-0.1,0.74-0.34,0.96-0.69c0.23-0.37,0.3-0.8,0.2-1.21c-0.21-0.85-1.08-1.37-1.92-1.16
			c-0.39,0.1-0.73,0.34-0.94,0.69C45.02,107.32,44.94,107.76,45.05,108.18z M56.7,88.95c1.49,0.15,2.92-0.55,3.72-1.82
			c0.32-0.52,0.51-1.1,0.58-1.71c0.11-1.05-0.21-2.06-0.87-2.87c-0.67-0.81-1.61-1.31-2.66-1.41c-1.5-0.14-2.92,0.55-3.71,1.82
			c-0.32,0.51-0.51,1.08-0.58,1.7c-0.1,1.04,0.21,2.07,0.87,2.87C54.71,88.35,55.66,88.86,56.7,88.95z M64.9,81.54
			c2.07,0.45,4.22-0.46,5.35-2.26c0.31-0.5,0.53-1.04,0.65-1.62c0.28-1.32,0.03-2.67-0.7-3.81c-0.74-1.14-1.86-1.92-3.18-2.2
			c-2.08-0.45-4.23,0.47-5.36,2.27c-0.31,0.49-0.53,1.04-0.65,1.62C60.43,78.27,62.18,80.96,64.9,81.54z M133.52,82.41
			c-0.19-0.05-0.4-0.03-0.58,0.07c-0.07,0.03-0.12,0.07-0.17,0.12c-0.24,0.24-0.29,0.62-0.13,0.92c0.21,0.37,0.68,0.5,1.04,0.29
			c0.06-0.03,0.12-0.07,0.17-0.12c0.24-0.24,0.29-0.62,0.13-0.92C133.88,82.6,133.72,82.47,133.52,82.41z M176.87,125.91
			c0.66-0.09,1.24-0.46,1.59-1.03c0.28-0.44,0.39-0.94,0.32-1.47c-0.07-0.58-0.37-1.11-0.84-1.46c-0.47-0.35-1.05-0.51-1.64-0.43
			c-0.66,0.09-1.25,0.46-1.6,1.02c-0.27,0.43-0.39,0.94-0.32,1.45C174.55,125.2,175.67,126.07,176.87,125.91z M167.54,143.85
			c1.5,0.14,2.92-0.55,3.71-1.82c0.32-0.51,0.51-1.09,0.58-1.7c0.1-1.04-0.21-2.07-0.87-2.88c-0.67-0.8-1.61-1.31-2.65-1.4
			c-1.5-0.15-2.92,0.55-3.72,1.82c-0.32,0.52-0.51,1.09-0.58,1.71c-0.1,1.05,0.21,2.06,0.87,2.87
			C165.55,143.25,166.49,143.75,167.54,143.85z M119.78,159.5l0.02-0.03c0.75-0.76,1.15-1.77,1.15-2.84
			c-0.02-1.07-0.44-2.07-1.2-2.82c-1.56-1.53-4.08-1.51-5.62,0.03l-0.03,0.03c-0.74,0.76-1.15,1.76-1.14,2.83
			c0.01,1.08,0.43,2.08,1.2,2.82C115.71,161.06,118.23,161.04,119.78,159.5z M147.49,150.25c-2.57-1.58-5.86-1.19-7.99,0.94
			c-0.36,0.35-0.68,0.76-0.94,1.19c-0.91,1.47-1.19,3.21-0.78,4.9c0.4,1.69,1.43,3.12,2.92,4.02c2.57,1.58,5.85,1.2,7.98-0.93
			c0.36-0.36,0.67-0.76,0.94-1.2C151.5,156.12,150.54,152.12,147.49,150.25z M95.75,144.5c-0.31-0.07-0.64-0.01-0.91,0.16
			c-0.07,0.05-0.15,0.11-0.21,0.17c-0.4,0.4-0.46,1.02-0.16,1.49c0.17,0.27,0.44,0.46,0.75,0.53c0.32,0.07,0.64,0.01,0.91-0.16
			c0.08-0.05,0.15-0.1,0.21-0.17c0.4-0.4,0.47-1.02,0.17-1.5C96.33,144.76,96.06,144.57,95.75,144.5z M173.47,134.68
			c1.02-0.01,1.96-0.54,2.5-1.41c0.3-0.49,0.46-1.05,0.44-1.63c-0.01-0.8-0.33-1.56-0.91-2.11c-0.58-0.56-1.33-0.86-2.13-0.84
			c-1.02,0.01-1.95,0.54-2.5,1.41c-0.3,0.49-0.46,1.06-0.45,1.65c0.02,0.8,0.34,1.54,0.91,2.09
			C171.9,134.4,172.66,134.69,173.47,134.68z M178.81,118.74c0.39-0.1,0.73-0.34,0.95-0.69c0.23-0.36,0.3-0.8,0.2-1.23
			c-0.1-0.4-0.34-0.74-0.7-0.96c-0.36-0.22-0.79-0.28-1.21-0.18c-0.4,0.09-0.74,0.34-0.96,0.69c-0.23,0.37-0.3,0.8-0.2,1.21
			C177.1,118.43,177.96,118.95,178.81,118.74z M89.14,138.76c0.03-0.02,0.06-0.03,0.08-0.06c0.1-0.1,0.12-0.25,0.06-0.37
			c-0.08-0.16-0.27-0.22-0.43-0.14c-0.03,0.02-0.06,0.03-0.08,0.06c-0.1,0.1-0.13,0.24-0.06,0.37
			C88.78,138.77,88.98,138.84,89.14,138.76z M105.77,150.95c-0.07,0.05-0.13,0.11-0.19,0.17c-1.03,1.03-1.1,2.71-0.16,3.83
			c1,1.19,2.79,1.36,4,0.35c0.06-0.06,0.12-0.11,0.18-0.17c1.04-1.05,1.12-2.7,0.17-3.84C108.76,150.1,106.97,149.94,105.77,150.95z
			 M179.21,112.36c0.23-0.08,0.4-0.23,0.53-0.42c0.17-0.28,0.2-0.61,0.09-0.92c-0.1-0.27-0.29-0.47-0.55-0.58
			c-0.25-0.12-0.54-0.13-0.79-0.03c-0.22,0.09-0.4,0.23-0.52,0.43c-0.18,0.28-0.21,0.61-0.11,0.91
			C178.07,112.3,178.66,112.56,179.21,112.36z M160.09,143.45c-2.07-0.45-4.22,0.46-5.35,2.26c-0.31,0.5-0.53,1.04-0.65,1.62
			c-0.28,1.32-0.03,2.67,0.7,3.81c0.74,1.13,1.86,1.91,3.18,2.2c2.08,0.44,4.23-0.47,5.36-2.27c0.31-0.49,0.53-1.04,0.65-1.62
			C164.57,146.73,162.82,144.03,160.09,143.45z M132.08,154.21c-2-1.56-4.86-1.39-6.65,0.39c-0.14,0.14-0.28,0.3-0.41,0.46
			c-0.83,1.06-1.19,2.37-1.03,3.71c0.16,1.32,0.83,2.52,1.89,3.35c2,1.57,4.86,1.4,6.66-0.4c0.14-0.14,0.28-0.29,0.4-0.45
			C134.64,159.08,134.26,155.92,132.08,154.21z M91.48,142.58c0.19,0.05,0.4,0.03,0.58-0.07c0.06-0.03,0.11-0.07,0.17-0.12
			c0.24-0.25,0.29-0.62,0.13-0.92c-0.21-0.37-0.68-0.5-1.04-0.29c-0.07,0.03-0.12,0.07-0.17,0.12c-0.24,0.24-0.29,0.62-0.13,0.92
			C91.12,142.4,91.28,142.53,91.48,142.58z M179.09,107.35c0.15,0.05,0.31,0.04,0.46-0.04c0.1-0.05,0.19-0.12,0.24-0.21
			c0.11-0.18,0.12-0.41,0.03-0.59c-0.15-0.3-0.5-0.41-0.81-0.25c-0.09,0.05-0.18,0.12-0.23,0.21c-0.11,0.18-0.12,0.4-0.01,0.6
			C178.82,107.2,178.94,107.3,179.09,107.35z M99.44,147.89c-0.08,0.07-0.17,0.13-0.24,0.21c-0.67,0.68-0.76,1.73-0.2,2.5
			c0.3,0.42,0.75,0.7,1.26,0.78c0.51,0.08,1.03-0.04,1.45-0.34c0.09-0.07,0.17-0.13,0.24-0.21c0.68-0.67,0.77-1.72,0.21-2.51
			c-0.31-0.42-0.76-0.7-1.27-0.78C100.38,147.47,99.86,147.58,99.44,147.89z M108.63,177.08c-0.37-0.22-0.8-0.3-1.21-0.2
			c-0.85,0.21-1.37,1.08-1.16,1.92c0.09,0.4,0.34,0.73,0.69,0.95c0.36,0.23,0.8,0.3,1.23,0.2c0.4-0.1,0.74-0.34,0.96-0.69
			c0.22-0.37,0.28-0.79,0.18-1.21C109.22,177.64,108.97,177.3,108.63,177.08z M118.54,178.77c-0.18-0.11-0.4-0.11-0.6-0.01
			c-0.14,0.07-0.24,0.19-0.29,0.33c-0.05,0.15-0.04,0.31,0.04,0.45c0.05,0.1,0.12,0.19,0.21,0.24c0.18,0.11,0.41,0.12,0.59,0.03
			c0.3-0.16,0.41-0.51,0.25-0.82C118.7,178.91,118.63,178.82,118.54,178.77z M74.75,147.49c1.58-2.57,1.19-5.86-0.94-7.98
			c-0.35-0.36-0.76-0.68-1.19-0.95c-1.47-0.91-3.21-1.19-4.9-0.79c-1.69,0.4-3.12,1.44-4.02,2.92c-1.58,2.56-1.2,5.85,0.94,7.98
			c0.35,0.36,0.76,0.67,1.2,0.94C68.87,151.49,72.88,150.54,74.75,147.49z M91.72,175.96c0.49,0.3,1.05,0.46,1.63,0.45
			c0.8-0.01,1.55-0.34,2.11-0.91c0.56-0.57,0.85-1.33,0.84-2.13c-0.01-1.02-0.54-1.95-1.41-2.5c-0.49-0.3-1.06-0.46-1.64-0.45
			c-0.8,0.01-1.54,0.33-2.09,0.9c-0.56,0.58-0.86,1.34-0.85,2.14C90.33,174.49,90.86,175.42,91.72,175.96z M83.53,92.35
			c0.37-0.21,0.5-0.68,0.29-1.04c-0.03-0.06-0.07-0.12-0.12-0.16c-0.24-0.24-0.62-0.29-0.92-0.13c-0.18,0.1-0.31,0.26-0.36,0.46
			c-0.05,0.19-0.03,0.4,0.07,0.58c0.03,0.07,0.07,0.12,0.12,0.17C82.85,92.47,83.23,92.52,83.53,92.35z M79.97,96.5
			c0.26-0.17,0.45-0.44,0.53-0.75c0.07-0.31,0.01-0.64-0.16-0.91c-0.04-0.07-0.1-0.15-0.16-0.21c-0.39-0.4-1.02-0.46-1.49-0.17
			c-0.27,0.17-0.46,0.44-0.53,0.75c-0.07,0.32-0.01,0.64,0.16,0.91c0.05,0.07,0.1,0.15,0.17,0.21
			C78.87,96.73,79.49,96.79,79.97,96.5z M86.67,89.28c0.16-0.08,0.22-0.27,0.14-0.43c-0.02-0.03-0.03-0.06-0.06-0.08
			c-0.1-0.1-0.25-0.12-0.37-0.06c-0.16,0.08-0.22,0.27-0.14,0.43c0.02,0.03,0.03,0.06,0.06,0.08C86.4,89.31,86.55,89.34,86.67,89.28
			z M74.16,101.95c0.67,0.68,1.72,0.77,2.51,0.2c0.42-0.3,0.7-0.75,0.78-1.26c0.08-0.51-0.03-1.02-0.34-1.44
			c-0.07-0.09-0.13-0.17-0.21-0.24c-0.68-0.67-1.73-0.76-2.51-0.2c-0.42,0.3-0.7,0.75-0.78,1.26c-0.08,0.51,0.04,1.03,0.33,1.45
			C74.02,101.8,74.09,101.88,74.16,101.95z M69.7,109.42c0.06,0.06,0.11,0.12,0.17,0.18c1.05,1.05,2.7,1.12,3.84,0.17
			c1.2-1,1.35-2.8,0.35-4c-0.05-0.06-0.11-0.13-0.17-0.19c-1.03-1.03-2.71-1.1-3.83-0.16C68.86,106.42,68.69,108.21,69.7,109.42z
			 M85.43,164c-1.04-0.1-2.06,0.21-2.87,0.87c-0.81,0.67-1.31,1.61-1.41,2.66c-0.14,1.49,0.55,2.92,1.82,3.71
			c0.51,0.32,1.09,0.52,1.7,0.57c1.04,0.1,2.07-0.21,2.88-0.87c0.8-0.67,1.31-1.6,1.4-2.65c0.15-1.49-0.55-2.92-1.82-3.72
			C86.62,164.26,86.04,164.07,85.43,164z M68.36,120.95c1.07-0.02,2.07-0.44,2.82-1.2c1.53-1.56,1.51-4.08-0.03-5.62l-0.03-0.03
			c-0.76-0.74-1.76-1.15-2.83-1.14c-1.08,0.01-2.07,0.44-2.82,1.19c-1.53,1.56-1.52,4.09,0.02,5.64l0.03,0.02
			C66.29,120.55,67.3,120.96,68.36,120.95z M79.29,154.74c-0.5-0.31-1.04-0.53-1.62-0.65c-1.32-0.28-2.67-0.03-3.81,0.7
			c-1.13,0.74-1.91,1.86-2.2,3.18c-0.45,2.08,0.47,4.23,2.27,5.36c0.49,0.31,1.04,0.53,1.62,0.65c2.72,0.59,5.42-1.16,6-3.89
			C82,158.02,81.09,155.87,79.29,154.74z M113.06,179.73c0.28,0.18,0.61,0.2,0.92,0.09c0.27-0.1,0.47-0.29,0.58-0.55
			c0.12-0.25,0.12-0.53,0.03-0.79c-0.09-0.22-0.23-0.4-0.43-0.52c-0.28-0.17-0.61-0.21-0.92-0.1c-0.55,0.2-0.81,0.8-0.61,1.35
			C112.72,179.44,112.87,179.62,113.06,179.73z M101.01,174.39c-1.21,0.16-2.07,1.28-1.92,2.48c0.09,0.67,0.46,1.25,1.03,1.6
			c0.44,0.28,0.94,0.38,1.47,0.31c0.58-0.07,1.11-0.37,1.46-0.84c0.35-0.47,0.51-1.05,0.43-1.64c-0.09-0.66-0.46-1.24-1.02-1.6
			C102.02,174.44,101.52,174.32,101.01,174.39z M62.88,125.88c-1.57,2-1.4,4.86,0.4,6.65c0.14,0.14,0.3,0.28,0.45,0.4
			c2.18,1.71,5.35,1.33,7.06-0.85c1.56-2,1.39-4.86-0.39-6.65c-0.14-0.14-0.3-0.28-0.46-0.41c-1.06-0.83-2.37-1.2-3.71-1.03
			C64.9,124.14,63.71,124.82,62.88,125.88z M142.22,133.98c0.18-0.1,0.31-0.26,0.36-0.46c0.05-0.19,0.03-0.4-0.07-0.58
			c-0.03-0.06-0.07-0.12-0.12-0.17c-0.24-0.24-0.62-0.29-0.92-0.13c-0.37,0.2-0.5,0.68-0.3,1.04c0.03,0.07,0.07,0.12,0.12,0.17
			C141.54,134.09,141.92,134.14,142.22,133.98z M130.1,54.12c0.49,0.3,1.06,0.46,1.65,0.45c0.8-0.01,1.54-0.33,2.09-0.9
			c0.56-0.57,0.86-1.34,0.84-2.14c-0.01-1.02-0.54-1.95-1.41-2.5c-0.49-0.3-1.05-0.46-1.63-0.44c-0.81,0.01-1.56,0.33-2.11,0.91
			c-0.56,0.58-0.86,1.33-0.84,2.13C128.7,52.65,129.23,53.58,130.1,54.12z M122.54,50.29c0.43,0.27,0.94,0.39,1.45,0.32
			c1.21-0.16,2.07-1.27,1.92-2.48c-0.09-0.66-0.46-1.24-1.03-1.59c-0.44-0.28-0.94-0.39-1.47-0.32c-0.58,0.07-1.1,0.37-1.46,0.84
			c-0.35,0.47-0.51,1.05-0.43,1.63C121.61,49.36,121.98,49.94,122.54,50.29z M137.86,60.41c0.52,0.32,1.1,0.51,1.71,0.58
			c1.05,0.11,2.06-0.21,2.87-0.87c0.81-0.67,1.31-1.61,1.41-2.66c0.14-1.5-0.55-2.92-1.82-3.71c-0.51-0.32-1.08-0.52-1.7-0.58
			c-1.04-0.1-2.07,0.21-2.87,0.87c-0.81,0.66-1.31,1.61-1.41,2.65C135.9,58.19,136.59,59.61,137.86,60.41z M110.83,47.03
			c0.28,0.17,0.61,0.21,0.91,0.1c0.55-0.21,0.82-0.8,0.62-1.35c-0.08-0.22-0.23-0.4-0.42-0.53c-0.27-0.17-0.61-0.2-0.92-0.09
			c-0.26,0.1-0.47,0.29-0.58,0.55c-0.12,0.25-0.13,0.53-0.03,0.79C110.49,46.73,110.64,46.91,110.83,47.03z M106.46,46.23
			c0.18,0.12,0.4,0.12,0.6,0.01c0.14-0.07,0.24-0.18,0.29-0.33c0.05-0.15,0.04-0.31-0.04-0.45c-0.05-0.1-0.12-0.19-0.21-0.24
			c-0.18-0.11-0.41-0.12-0.59-0.03c-0.3,0.15-0.41,0.51-0.25,0.82C106.3,46.09,106.37,46.18,106.46,46.23z M116.37,47.91
			c0.37,0.23,0.8,0.3,1.21,0.2c0.85-0.22,1.37-1.08,1.16-1.92c-0.1-0.4-0.34-0.73-0.69-0.95c-0.37-0.23-0.8-0.31-1.22-0.2
			c-0.4,0.1-0.74,0.34-0.96,0.7c-0.22,0.36-0.28,0.79-0.18,1.21C115.78,47.35,116.02,47.7,116.37,47.91z M138.62,136.29
			c0.15-0.08,0.22-0.27,0.14-0.43c-0.02-0.03-0.03-0.06-0.06-0.08c-0.1-0.1-0.24-0.12-0.37-0.06c-0.16,0.08-0.22,0.27-0.14,0.43
			c0.02,0.03,0.04,0.06,0.06,0.09C138.34,136.33,138.49,136.36,138.62,136.29z M145.71,70.25c0.5,0.31,1.04,0.53,1.62,0.65
			c1.32,0.28,2.67,0.03,3.81-0.7c1.14-0.74,1.91-1.87,2.2-3.18c0.45-2.08-0.47-4.23-2.27-5.36c-0.49-0.31-1.04-0.53-1.61-0.65
			c-2.73-0.59-5.42,1.16-6,3.89C143,66.97,143.91,69.12,145.71,70.25z M150.25,77.51c-1.58,2.57-1.19,5.86,0.94,7.99
			c0.35,0.36,0.76,0.68,1.19,0.95c1.47,0.91,3.21,1.19,4.9,0.78c1.69-0.4,3.12-1.43,4.02-2.92c1.58-2.56,1.2-5.85-0.94-7.98
			c-0.35-0.36-0.76-0.67-1.19-0.94C156.12,73.51,152.12,74.46,150.25,77.51z M146.32,130.53c0.27-0.17,0.46-0.44,0.53-0.75
			c0.07-0.31,0.01-0.63-0.16-0.9c-0.05-0.08-0.11-0.15-0.17-0.21c-0.4-0.39-1.02-0.46-1.5-0.16c-0.26,0.17-0.45,0.44-0.53,0.75
			c-0.07,0.31-0.01,0.64,0.16,0.91c0.04,0.08,0.11,0.15,0.16,0.21C145.22,130.76,145.85,130.83,146.32,130.53z M155.3,115.58
			c-0.06-0.06-0.11-0.12-0.17-0.18c-1.05-1.04-2.7-1.12-3.84-0.17c-1.2,1-1.35,2.8-0.35,4c0.05,0.07,0.11,0.13,0.17,0.19
			c1.04,1.03,2.71,1.1,3.83,0.16C156.14,118.57,156.31,116.78,155.3,115.58z M150.84,123.05c-0.67-0.68-1.72-0.76-2.51-0.2
			c-0.42,0.31-0.7,0.76-0.78,1.27c-0.08,0.5,0.04,1.02,0.34,1.45c0.06,0.08,0.13,0.16,0.21,0.24c0.68,0.67,1.73,0.76,2.5,0.2
			c0.42-0.3,0.7-0.75,0.78-1.26c0.09-0.51-0.04-1.03-0.34-1.45C150.98,123.2,150.91,123.12,150.84,123.05z M153.88,110.9
			c0.76,0.75,1.76,1.15,2.83,1.14c1.07-0.01,2.07-0.44,2.82-1.2c1.53-1.55,1.52-4.08-0.02-5.63l-0.03-0.02
			c-0.76-0.75-1.77-1.15-2.84-1.15c-1.07,0.01-2.07,0.44-2.82,1.2c-1.53,1.56-1.51,4.08,0.03,5.62L153.88,110.9z M161.27,92.06
			c-2.18-1.71-5.34-1.33-7.06,0.85c-1.57,2-1.39,4.86,0.39,6.65c0.15,0.14,0.3,0.28,0.46,0.41c1.06,0.83,2.37,1.19,3.71,1.03
			c1.33-0.16,2.52-0.83,3.35-1.89c1.57-2,1.4-4.86-0.4-6.65C161.58,92.32,161.43,92.19,161.27,92.06z"/>
	</g>
</g>
</svg>
