<?xml version="1.0" encoding="utf-8"?>
<!-- Generator: Adobe Illustrator 26.2.1, SVG Export Plug-In . SVG Version: 6.00 Build 0)  -->
<svg version="1.1" xmlns="http://www.w3.org/2000/svg" xmlns:xlink="http://www.w3.org/1999/xlink" x="0px" y="0px"
	 viewBox="0 0 225 225" style="enable-background:new 0 0 225 225;" xml:space="preserve">
<style type="text/css">
	.st0{display:none;}
	.st1{display:inline;fill:#FAB433;}
	.st2{fill:none;}
	.st3{fill:none;stroke:#000000;stroke-width:1.6;stroke-miterlimit:10;}
	.st4{fill:none;stroke:#000000;stroke-width:0.7265;stroke-miterlimit:10;}
	.st5{fill:none;stroke:#000000;stroke-linecap:round;stroke-linejoin:round;stroke-miterlimit:10;}
	.st6{fill:none;stroke:#000000;stroke-miterlimit:10;}
	.st7{fill:none;stroke:#000000;stroke-width:0.7105;stroke-miterlimit:10;}
	.st8{fill:none;stroke:#000000;stroke-width:5.4;stroke-linecap:round;stroke-linejoin:round;stroke-miterlimit:10;}
	.st9{fill:none;stroke:#000000;stroke-width:2.9309;stroke-linecap:round;stroke-linejoin:round;stroke-miterlimit:10;}
	.st10{fill:none;stroke:#000000;stroke-width:0.5;stroke-linecap:round;stroke-linejoin:round;}
	.st11{fill:none;stroke:#FFFFFF;stroke-width:0;stroke-linecap:round;stroke-linejoin:round;}
	.st12{fill:#FFFFFF;}
	.st13{fill:none;stroke:#000000;stroke-width:1.4;stroke-miterlimit:10;}
	.st14{fill:url(#);stroke:#000000;stroke-width:1.4387;stroke-miterlimit:10;}
	.st15{fill:url(#);stroke:#000000;stroke-width:1.3718;stroke-miterlimit:10;}
	.st16{fill:none;stroke:#000000;stroke-width:1.0041;stroke-miterlimit:10;}
	.st17{fill:none;stroke:#000000;stroke-width:1.3621;stroke-miterlimit:10;}
	.st18{fill:none;stroke:#000000;stroke-width:0.25;stroke-miterlimit:10;}
</style>
<g id="Layer_2" class="st0">
	<rect id="XMLID_4_" x="-590.99" y="-275.01" class="st1" width="1160" height="772"/>
</g>
<g id="Layer_1">
	<g id="XMLID_7607_">
		<path id="XMLID_7618_" d="M59.96,154.38c-2.1-3.32-3.96-6.9-5.52-10.74c-1.93-4.66-3.46-9.63-4.49-14.95
			c-1.18-5.96-1.79-12.31-1.72-18.84c0.08-5.73,0.69-11.31,1.72-16.61c1.07-5.26,2.56-10.27,4.49-14.89
			c1.57-3.84,3.42-7.46,5.52-10.74c1.95-3.06,4.09-5.87,6.42-8.41c1.57-1.66,3.25-3.21,4.97-4.59c0.04-0.08,0.15-0.11,0.19-0.19
			c-1.21,0.92-2.41,1.87-3.56,2.86c-1.05,0.96-2.22,2.06-3.98,3.79c-0.11,0.11-0.21,0.19-0.31,0.31c0,0,0,0-0.04,0
			c-0.08,0.11-0.17,0.19-0.27,0.31c-0.23,0.23-0.52,0.54-0.76,0.84c-0.34,0.38-0.71,0.76-1.03,1.18c-0.12,0.12-0.19,0.21-0.31,0.31
			c-0.76,0.86-1.49,1.76-2.14,2.52c-0.08,0.12-0.15,0.19-0.27,0.31c-2.25,2.9-4.3,6.16-6.08,9.67c-2.33,4.59-4.25,9.69-5.54,15.16
			c-1.39,5.75-2.22,11.91-2.25,18.29c-0.12,7.11,0.71,13.91,2.22,20.3c1.34,5.43,3.19,10.49,5.5,15.1c1.79,3.59,3.88,6.88,6.19,9.79
			c0,0.04,0.04,0.08,0.06,0.1c0.09,0.13,0.17,0.25,0.25,0.36c0.11,0.1,0.19,0.19,0.31,0.35c0.11,0.15,0.23,0.25,0.34,0.38
			c0.31,0.38,0.63,0.72,0.96,1.15c0.02,0,0.02,0,0.04,0.04c0.44,0.52,0.92,1.03,1.34,1.53c-0.19-0.21-0.35-0.42-0.53-0.59
			c0.31,0.28,0.57,0.63,0.84,0.94c0.08,0.08,0.17,0.19,0.27,0.27l0.19,0.19c0.05,0.06,0.11,0.11,0.15,0.19
			c0.11,0.08,0.21,0.19,0.27,0.31c0.25,0.23,0.46,0.42,0.65,0.67c0.4,0.38,0.8,0.78,1.22,1.21c0.34,0.34,0.73,0.65,1.07,0.99
			c0.13,0.11,0.27,0.23,0.38,0.34c0.08,0.1,0.19,0.15,0.27,0.25c0.04,0.02,0.04,0.05,0.08,0.1c-0.04-0.04-0.04-0.04-0.04-0.08
			c0.4,0.36,0.84,0.74,1.33,1.15c-0.28-0.24-0.55-0.47-0.83-0.73c0.28,0.26,0.56,0.49,0.84,0.74c0.71,0.6,1.53,1.27,2.56,2.12
			c0.31,0.25,0.67,0.51,0.99,0.78c-1.95-1.55-3.76-3.21-5.54-5.09C64.05,160.23,61.91,157.44,59.96,154.38z"/>
		<path id="XMLID_7617_" d="M89.77,175.67c-2.48-1.61-4.89-3.48-7.15-5.62c-2.29-2.14-4.43-4.53-6.42-7.19
			c-1.99-2.64-3.84-5.46-5.53-8.54c-1.66-3.08-3.19-6.33-4.49-9.81c-1.34-3.46-2.45-7.07-3.36-10.89
			c-0.96-4.02-1.66-8.18-2.06-12.43c-0.4-3.75-0.57-7.57-0.54-11.45c0.04-3.04,0.23-6.02,0.54-8.97c0.46-4.28,1.11-8.41,2.06-12.42
			c0.92-3.79,2.02-7.46,3.36-10.93c1.3-3.44,2.83-6.69,4.49-9.79c1.68-3.08,3.54-5.9,5.49-8.54c2.03-2.62,4.17-5.03,6.46-7.19
			c2.25-2.12,4.66-3.99,7.15-5.6c2.54-1.61,5.16-2.95,7.91-3.94c1.82-0.69,3.71-1.22,5.62-1.61c-0.34,0.06-0.67,0.12-0.99,0.15
			c-1.12,0.23-2.25,0.46-3.21,0.61c-0.31,0.1-0.65,0.15-0.95,0.23c-1.32,0.36-2.79,0.76-4.25,1.22c-0.38,0.12-0.76,0.27-1.12,0.36
			c-0.9,0.29-1.78,0.55-2.58,0.82l-2.41,0.92c-2.18,0.95-4.28,2.1-6.35,3.42c-2.5,1.68-4.89,3.65-7.15,5.87
			c-2.33,2.24-4.47,4.78-6.46,7.57c-2.02,2.79-3.86,5.87-5.5,9.1c-1.72,3.46-3.25,7.11-4.51,10.97c-1.47,4.43-2.58,9.06-3.35,13.91
			c-0.71,4.47-1.11,9.1-1.16,13.87c-0.04,5.58,0.36,10.99,1.16,16.21c0.76,4.86,1.89,9.56,3.35,13.91c1.26,3.9,2.79,7.55,4.51,11.01
			c1.65,3.25,3.48,6.31,5.5,9.1c1.99,2.79,4.13,5.28,6.42,7.53c2.26,2.25,4.66,4.21,7.17,5.89c2.05,1.34,4.19,2.45,6.36,3.4
			c1.03,0.42,2.05,0.82,3.12,1.19c0.4,0.13,0.78,0.27,1.21,0.38c0.31,0.11,0.65,0.23,0.95,0.34c0.99,0.31,1.99,0.58,2.91,0.88
			c1.26,0.34,2.52,0.65,3.79,0.92c1.07,0.21,2.16,0.4,3.21,0.57c-1.8-0.4-3.59-0.9-5.33-1.53
			C94.93,178.58,92.29,177.28,89.77,175.67z"/>
		<path id="XMLID_7616_" d="M122.19,181.79c0.15-0.04,0.36-0.06,0.54-0.06c0.19-0.02,0.38-0.06,0.53-0.06
			c0.25-0.04,0.56-0.08,0.8-0.11c0.57-0.08,1.13-0.19,1.72-0.29c0.46-0.06,0.92-0.15,1.38-0.21c0.58-0.11,1.15-0.25,1.72-0.34
			c0.5-0.08,0.95-0.19,1.41-0.27c0.42-0.09,0.84-0.19,1.3-0.31c0.92-0.23,1.91-0.5,2.9-0.8c0.15-0.04,0.27-0.08,0.42-0.12
			c0.8-0.27,1.66-0.5,2.48-0.8c-0.23,0.06-0.42,0.11-0.61,0.19c-1.64,0.46-3.29,0.76-4.97,0.99c-1.72,0.23-3.44,0.31-5.22,0.27
			c-1.16-0.04-2.35-0.12-3.5-0.27c-2.86-0.36-5.68-1.07-8.37-2.1c-2.72-1.05-5.35-2.41-7.87-4.05c-2.49-1.68-4.89-3.63-7.15-5.85
			c-2.29-2.25-4.45-4.78-6.44-7.57c-2.02-2.79-3.84-5.85-5.52-9.1c-1.72-3.46-3.23-7.11-4.51-10.95c-1.45-4.42-2.56-9.08-3.33-13.97
			c-0.82-5.22-1.22-10.63-1.15-16.21c0-0.86,0.02-1.72,0.04-2.6c0.15-3.84,0.54-7.6,1.11-11.27c0.76-4.86,1.87-9.52,3.33-13.93
			c1.28-3.8,2.75-7.44,4.47-10.8c0-0.08,0.04-0.11,0.04-0.15c1.68-3.29,3.52-6.32,5.52-9.13c1.99-2.75,4.15-5.29,6.44-7.53
			c2.26-2.22,4.66-4.18,7.15-5.81c2.52-1.68,5.16-3.06,7.87-4.09c2.69-1.03,5.48-1.74,8.37-2.1c1.72-0.23,3.44-0.31,5.2-0.27
			c1.19,0.04,2.37,0.11,3.56,0.27c1.78,0.23,3.55,0.61,5.33,1.11c0.06,0.02,0.1,0.02,0.17,0.04c-0.33-0.11-0.63-0.19-0.96-0.27
			c-0.84-0.31-1.64-0.52-2.41-0.75c-0.96-0.29-1.93-0.53-2.89-0.78h-0.09c-0.92-0.19-1.95-0.4-2.95-0.57
			c-0.5-0.08-0.92-0.19-1.38-0.27c-0.5-0.12-1.01-0.17-1.51-0.27c-1.32-0.15-2.7-0.31-4.07-0.46c-0.38,0-0.76-0.05-1.15-0.08
			c-1.78-0.04-3.55,0.08-5.27,0.25c-2.83,0.32-5.66,1.05-8.33,2.04c-2.71,1.03-5.33,2.33-7.87,3.9c-2.48,1.65-4.85,3.52-7.15,5.66
			c-2.28,2.14-4.43,4.55-6.42,7.17c-1.99,2.64-3.86,5.47-5.53,8.54c-1.66,3.09-3.19,6.35-4.49,9.79c-1.34,3.48-2.45,7.15-3.36,10.93
			c-0.92,4.01-1.65,8.14-2.06,12.42c-0.31,2.95-0.5,5.93-0.52,8.97c-0.06,3.88,0.13,7.7,0.52,11.41c0.42,4.28,1.15,8.45,2.06,12.46
			c0.92,3.82,2.02,7.43,3.36,10.89c1.34,3.48,2.83,6.73,4.49,9.81c1.66,3.08,3.54,5.9,5.53,8.56c1.99,2.64,4.15,5.02,6.42,7.16
			c2.25,2.16,4.66,4.02,7.15,5.62c2.54,1.6,5.16,2.9,7.91,3.93c2.68,0.99,5.46,1.68,8.35,2.03c1.13,0.15,2.27,0.23,3.44,0.25
			C119.55,181.94,120.85,181.88,122.19,181.79z"/>
		<path id="XMLID_7615_" d="M127.52,46.95c-0.36,0.09-0.67,0.17-1.01,0.25c0,0.04-0.06,0.04-0.08,0.04
			c-0.29,0.08-0.59,0.17-0.9,0.27c-0.09,0-0.13,0.04-0.25,0.06c-0.23,0.09-0.46,0.15-0.73,0.25c-0.15,0.06-0.31,0.12-0.46,0.15
			c-0.19,0.06-0.34,0.15-0.49,0.19c-0.35,0.11-0.69,0.27-0.99,0.36c-2.75,1.12-5.37,2.58-7.87,4.36c-2.52,1.81-4.93,3.95-7.19,6.32
			c-2.32,2.52-4.47,5.32-6.42,8.41c-0.09,0.15-0.19,0.31-0.31,0.46c-1.97,3.13-3.71,6.57-5.22,10.21
			c-1.93,4.62-3.42,9.63-4.49,14.91c-1.07,5.31-1.65,10.89-1.74,16.67c-0.02,1.87,0.02,3.75,0.09,5.58
			c0.21,4.61,0.76,9.06,1.65,13.38c1.07,5.26,2.56,10.28,4.49,14.91c1.59,3.82,3.44,7.38,5.53,10.66c1.95,3.1,4.11,5.89,6.42,8.41
			c2.24,2.37,4.62,4.51,7.19,6.31c2.5,1.79,5.12,3.21,7.87,4.36c0.31,0.11,0.65,0.27,0.99,0.38c0.19,0.08,0.42,0.13,0.65,0.23
			c0.12,0.06,0.23,0.06,0.31,0.11c0.31,0.1,0.58,0.19,0.88,0.31h0.09c0.36,0.1,0.67,0.19,1.01,0.31c1.32,0.35,2.68,0.65,4.05,0.84
			c0.12,0,0.23,0.02,0.35,0.04c1.18,0.19,2.37,0.27,3.55,0.29c1.76,0.05,3.48-0.06,5.18-0.29c2.89-0.38,5.64-1.15,8.35-2.22
			c1.83-0.76,3.65-1.68,5.43-2.75c3.1-2.03,6-4.22,8.7-6.65c0.48-0.38,1.03-0.96,1.59-1.49c1.26-1.2,2.48-2.41,3.67-3.71
			c0.27-0.35,0.61-0.69,0.92-1.03c-0.19,0.21-0.38,0.4-0.54,0.58c0.11-0.12,0.25-0.31,0.38-0.46c-0.15,0.19-0.35,0.42-0.54,0.61
			c-1.45,1.53-2.98,2.98-4.57,4.24c-2.49,1.97-5.14,3.59-7.89,4.82c-2.64,1.22-5.47,2.06-8.33,2.45c-0.65,0.12-1.3,0.17-1.91,0.23
			c-0.5,0.04-0.99,0.08-1.45,0.08h-0.19c-0.5,0.04-0.99,0.04-1.55,0c-1.2,0-2.43-0.13-3.61-0.31c-2.9-0.42-5.7-1.26-8.37-2.45
			c-2.75-1.26-5.39-2.85-7.83-4.82c-2.6-2.06-4.99-4.51-7.19-7.24c-2.41-3-4.59-6.37-6.42-10.07c-2.33-4.57-4.2-9.63-5.5-15.06
			c-1.03-4.24-1.76-8.68-2.08-13.3c-0.17-2.33-0.25-4.74-0.25-7.15c0.1-6.44,0.92-12.59,2.33-18.38c1.3-5.43,3.17-10.49,5.5-15.06
			c0.95-1.91,1.99-3.75,3.09-5.47c1.07-1.64,2.18-3.17,3.33-4.62c2.2-2.72,4.59-5.16,7.19-7.23c2.45-1.95,5.08-3.59,7.83-4.82
			c2.68-1.2,5.5-2.02,8.37-2.46c1.68-0.25,3.36-0.36,5.08-0.31c0.58,0.02,1.15,0.06,1.72,0.09c0.61,0.06,1.3,0.12,1.91,0.23
			c2.91,0.42,5.69,1.26,8.37,2.45c2.75,1.26,5.37,2.87,7.86,4.82c1.93,1.57,3.8,3.33,5.52,5.28c-0.19-0.19-0.34-0.38-0.52-0.57
			c0.02,0.02,0.06,0.04,0.06,0.08c-0.15-0.23-0.34-0.42-0.5-0.61c-1.76-1.91-3.56-3.75-5.47-5.43c-0.88-0.76-1.93-1.65-3.46-2.91
			c-1.51-1.22-3.12-2.33-4.76-3.42c-0.1-0.06-0.15-0.13-0.25-0.17c-0.05-0.04-0.05-0.04-0.1-0.04c-1.79-1.11-3.65-2.06-5.58-2.83
			c-2.68-1.11-5.46-1.87-8.33-2.25c-1.18-0.15-2.37-0.27-3.58-0.31c-1.74-0.04-3.46,0.08-5.16,0.27
			C129.79,46.47,128.65,46.66,127.52,46.95z"/>
		<path id="XMLID_7614_" d="M134.72,111.19c0.08-4.36-1.57-8.26-4.05-10.4c-1.26-1.07-2.68-1.68-4.2-1.68
			c-1.66-0.1-3.21,0.57-4.55,1.68c-2.37,2.08-4,5.73-4.05,10.01c-0.04,4.39,1.61,8.27,4.05,10.4c1.26,1.07,2.68,1.68,4.24,1.72
			c1.65,0.04,3.21-0.61,4.51-1.72C133.05,119.14,134.68,115.47,134.72,111.19z"/>
		<path id="XMLID_7611_" d="M147.97,139.99c3.21-2.83,5.9-6.63,7.87-11.18c1.57-3.55,2.64-7.55,3.19-11.81
			c0.21-1.76,0.36-3.56,0.36-5.39c0.08-6.76-1.22-13.05-3.56-18.38c-1.97-4.55-4.66-8.39-7.83-11.22c-1.28-1.09-2.6-2.05-4.02-2.81
			c-1.41-0.76-2.83-1.34-4.36-1.72c-1.26-0.35-2.6-0.54-3.93-0.59c-1.62-0.02-3.21,0.17-4.78,0.55c-3.02,0.76-5.86,2.41-8.37,4.63
			c-0.38,0.28-0.69,0.65-1.03,0.95c-0.11,0.15-0.23,0.23-0.34,0.35c-0.23,0.27-0.5,0.5-0.73,0.72c-0.11,0.15-0.21,0.29-0.31,0.4
			c-0.31,0.35-0.61,0.71-0.92,1.05c-0.11,0.15-0.23,0.31-0.34,0.42c-0.15,0.27-0.36,0.5-0.54,0.8c-0.15,0.19-0.29,0.38-0.42,0.61
			c-0.15,0.19-0.27,0.42-0.46,0.61c-0.11,0.25-0.27,0.46-0.42,0.65c-0.19,0.4-0.42,0.8-0.65,1.18c-0.61,1.09-1.22,2.22-1.72,3.44
			c-2.14,5.01-3.44,10.87-3.52,17.16c-0.08,6.67,1.22,12.96,3.52,18.27c0.5,1.22,1.11,2.41,1.76,3.55v0.04
			c0.36,0.61,0.72,1.22,1.11,1.79c0.12,0.19,0.23,0.38,0.36,0.54c0.15,0.23,0.31,0.46,0.46,0.67c0.15,0.21,0.32,0.44,0.48,0.67
			c0.15,0.19,0.27,0.34,0.42,0.54c0.27,0.34,0.57,0.69,0.88,1.03c0.12,0.12,0.19,0.23,0.35,0.38c0.21,0.27,0.46,0.5,0.69,0.73
			c0.11,0.15,0.23,0.25,0.34,0.34c0.35,0.35,0.69,0.69,1.03,0.99c2.52,2.22,5.35,3.79,8.37,4.59c1.26,0.31,2.6,0.54,3.94,0.54
			c1.64,0.08,3.25-0.13,4.78-0.54C142.66,143.76,145.47,142.19,147.97,139.99z M127.56,133.63c-3.32-1.26-6.19-3.98-8.33-7.57
			c-2.48-4.2-3.93-9.59-3.9-15.44c0.12-5.58,1.53-10.7,3.86-14.64c2.18-3.63,5.08-6.35,8.37-7.61c1.49-0.57,3.06-0.84,4.66-0.84
			h0.02c1.38,0.04,2.73,0.35,4.05,0.84c1.32,0.5,2.54,1.22,3.73,2.14c1.76,1.42,3.33,3.25,4.63,5.47c2.48,4.16,3.96,9.56,3.9,15.4
			c-0.04,0.27-0.04,0.55-0.04,0.8c-0.21,5.27-1.61,10.09-3.86,13.87c-2.14,3.63-5.05,6.31-8.36,7.57c-1.47,0.58-3.04,0.88-4.64,0.84
			C130.24,134.43,128.86,134.16,127.56,133.63z"/>
		<path id="XMLID_7608_" d="M134.2,161.72c0.73,0.25,1.45,0.46,2.2,0.65c0.02,0,0.02,0,0.02,0c0.35,0.12,0.69,0.19,1.07,0.27
			c0.04,0,0.04,0,0.08,0.04c0.38,0.06,0.76,0.15,1.11,0.21c1.22,0.21,2.48,0.31,3.75,0.36c1.68,0.02,3.36-0.12,5.01-0.36
			c2.91-0.52,5.7-1.43,8.33-2.81c2.79-1.45,5.47-3.36,7.87-5.69c2.66-2.52,5.09-5.5,7.19-8.91c0.38-0.61,0.76-1.22,1.11-1.87
			c2.16-3.86,3.98-8.13,5.31-12.73c1.7-5.87,2.68-12.25,2.75-18.96c0.02-1.11,0-2.22-0.04-3.29v-0.29
			c-0.23-6.06-1.15-11.85-2.72-17.18c-1.57-5.39-3.76-10.32-6.42-14.64c-2.02-3.25-4.28-6.08-6.8-8.54
			c-0.11-0.13-0.23-0.28-0.38-0.4c-2.41-2.29-5.08-4.2-7.87-5.62c-2.64-1.42-5.43-2.37-8.33-2.85c-1.22-0.21-2.46-0.31-3.71-0.36
			c-1.72-0.04-3.36,0.11-5.05,0.38c-0.35,0.08-0.75,0.13-1.11,0.19c-0.04,0.04-0.08,0.04-0.11,0.04c-0.35,0.08-0.69,0.15-1.03,0.27
			h-0.08c-2.06,0.55-4.09,1.3-6.02,2.33c-2.77,1.45-5.45,3.36-7.86,5.66c-2.64,2.52-5.05,5.52-7.15,8.9
			c-1.45,2.33-2.77,4.86-3.9,7.57c-0.15,0.31-0.29,0.61-0.38,0.96c-0.15,0.31-0.27,0.61-0.38,0.92c-1.7,4.49-2.94,9.17-3.71,13.95
			c-0.02,0.17-0.04,0.32-0.08,0.54c0,0.08-0.04,0.15-0.04,0.23c-0.04,0.27-0.08,0.61-0.15,0.98c-0.06,0.63-0.15,1.28-0.21,1.93
			c0,0.04,0,0.04,0,0.09c-0.1,0.86-0.15,1.87-0.21,2.85c-0.08,0.99-0.15,1.95-0.15,2.83c0,0.04,0,0.04,0,0.09
			c0,0.09-0.04,0.17-0.04,0.25v0.69c0,0.04,0,0.04,0,0.08v0.8c0.04,0.21,0.04,0.38,0.04,0.57c0,1.07,0,1.88,0.04,2.49
			c0,0.04,0.02,0.08,0.02,0.15c0.02,0.84,0.09,1.72,0.15,2.6c0.02,0.27,0.05,0.54,0.05,0.73c0.15,1.53,0.35,3.1,0.61,4.63
			c0.08,0.34,0.15,0.74,0.25,1.2c0.1,0.56,0.21,1.2,0.34,1.97c0.02,0.06,0.02,0.15,0.06,0.21c0,0.06,0,0.09,0,0.09
			c0.09,0.42,0.19,0.82,0.27,1.22l0.12,0.35l0.11,0.46l0.08,0.36c0.35,1.28,0.75,2.66,1.15,3.96c0.12,0.42,0.25,0.8,0.35,1.22
			l0.11,0.23c0.09,0.31,0.19,0.61,0.31,0.92c0,0.06,0.04,0.12,0.04,0.19c0.11,0.31,0.23,0.61,0.34,0.88
			c1.34,3.48,2.9,6.73,4.74,9.67c2.12,3.44,4.55,6.46,7.19,9.02c2.45,2.29,5.12,4.24,7.91,5.69
			C131.6,160.73,132.9,161.26,134.2,161.72z M133.2,154.34c-2.94-0.57-5.77-1.74-8.37-3.4c-0.31-0.21-0.59-0.42-0.88-0.61
			c-0.27-0.19-0.51-0.36-0.76-0.58c-2.29-1.66-4.36-3.75-6.27-6.12c-2.94-3.75-5.39-8.26-7.17-13.38
			c-2.08-6.02-3.23-12.84-3.13-19.99c0.06-6.69,1.2-12.98,3.15-18.6c1.76-5.06,4.21-9.57,7.15-13.32c1.91-2.37,3.98-4.43,6.27-6.13
			l0.75-0.52c0.31-0.23,0.59-0.42,0.9-0.65c2.6-1.65,5.43-2.83,8.37-3.39c1.57-0.32,3.21-0.51,4.86-0.44h0.06
			c1.28,0,2.54,0.19,3.8,0.44c2.95,0.56,5.73,1.72,8.33,3.39c2.89,1.87,5.54,4.28,7.87,7.22c2.95,3.73,5.39,8.26,7.19,13.3
			c2.14,6.08,3.29,12.92,3.21,20.18c-0.02,1.49-0.11,2.95-0.21,4.43c-0.4,5.05-1.47,9.86-3,14.26c-1.79,5.05-4.24,9.56-7.19,13.26
			c-2.33,2.94-4.97,5.39-7.86,7.23c-2.62,1.66-5.41,2.83-8.35,3.4c-1.61,0.35-3.25,0.5-4.89,0.44
			C135.73,154.73,134.47,154.57,133.2,154.34z"/>
	</g>
</g>
</svg>
