<?xml version="1.0" encoding="utf-8"?>
<!-- Generator: Adobe Illustrator 26.2.1, SVG Export Plug-In . SVG Version: 6.00 Build 0)  -->
<svg version="1.1" xmlns="http://www.w3.org/2000/svg" xmlns:xlink="http://www.w3.org/1999/xlink" x="0px" y="0px"
	 viewBox="0 0 225 225" style="enable-background:new 0 0 225 225;" xml:space="preserve">
<style type="text/css">
	.st0{display:none;}
	.st1{display:inline;fill:#FAB433;}
	.st2{fill:none;}
	.st3{fill:none;stroke:#000000;stroke-width:1.6;stroke-miterlimit:10;}
	.st4{fill:none;stroke:#000000;stroke-width:0.7265;stroke-miterlimit:10;}
	.st5{fill:none;stroke:#000000;stroke-linecap:round;stroke-linejoin:round;stroke-miterlimit:10;}
	.st6{fill:none;stroke:#000000;stroke-miterlimit:10;}
	.st7{fill:none;stroke:#000000;stroke-width:0.7105;stroke-miterlimit:10;}
	.st8{fill:none;stroke:#000000;stroke-width:5.4;stroke-linecap:round;stroke-linejoin:round;stroke-miterlimit:10;}
	.st9{fill:none;stroke:#000000;stroke-width:2.9309;stroke-linecap:round;stroke-linejoin:round;stroke-miterlimit:10;}
	.st10{fill:none;stroke:#000000;stroke-width:0.5;stroke-linecap:round;stroke-linejoin:round;}
	.st11{fill:none;stroke:#FFFFFF;stroke-width:0;stroke-linecap:round;stroke-linejoin:round;}
	.st12{fill:#FFFFFF;}
	.st13{fill:none;stroke:#000000;stroke-width:1.4;stroke-miterlimit:10;}
	.st14{fill:url(#);stroke:#000000;stroke-width:1.4387;stroke-miterlimit:10;}
	.st15{fill:url(#);stroke:#000000;stroke-width:1.3718;stroke-miterlimit:10;}
	.st16{fill:none;stroke:#000000;stroke-width:1.0041;stroke-miterlimit:10;}
	.st17{fill:none;stroke:#000000;stroke-width:1.3621;stroke-miterlimit:10;}
	.st18{fill:none;stroke:#000000;stroke-width:0.25;stroke-miterlimit:10;}
</style>
<g id="Layer_2" class="st0">
	
		<rect id="XMLID_00000049924193275795927410000016330201882968263580_" x="-835.99" y="-275.01" class="st1" width="1160" height="772"/>
</g>
<g id="Layer_1">
	<path id="XMLID_1036_" d="M63.63,142.1c-4.18-2.44-8.13-5.43-11.7-9c-0.4-0.4-0.8-0.81-1.19-1.24c-0.13-0.14-0.26-0.28-0.38-0.42
		c-0.22-0.24-0.43-0.47-0.65-0.72c8.04,27.59,33.8,47.18,62.89,47.18c1.16,0,2.35-0.03,3.65-0.11c3.28-0.18,6.58-0.61,9.8-1.29
		c2.34-1.77,4.2-3.36,5.85-5.01c17.77-17.78,21.02-44.97,9.25-66.17c0.55,2.26,0.83,4.61,0.83,7c0,9.13-4.14,17.58-11.35,23.2
		c-0.71,0.63-1.43,1.24-2.17,1.82C109.71,152.37,83.78,153.82,63.63,142.1z"/>
	<path id="XMLID_00000029742539174035630660000001832090723494515386_" d="M87.47,128.42c-16.32-20.45-16.55-49.41-1.17-70.1
		c1.65-2.22,3.47-4.34,5.48-6.34c0.43-0.43,0.87-0.85,1.33-1.28c0.14-0.13,0.29-0.25,0.43-0.38c0.29-0.27,0.58-0.53,0.89-0.8
		C66.69,57.49,47,83.28,47,112.5c0,1.18,0.04,2.42,0.12,3.79v0c0.19,3.3,0.63,6.61,1.32,9.87c1.75,2.32,3.33,4.16,4.95,5.78
		c17.93,17.93,45.45,20.98,66.62,9.05c-0.17,0.04-0.33,0.08-0.5,0.12c-2.29,0.56-4.65,0.85-7.02,0.85c-9.13,0-17.58-4.14-23.2-11.35
		l0,0C88.67,129.89,88.06,129.16,87.47,128.42z"/>
	<path id="XMLID_00000092445635877056956270000011076573783780434838_" d="M161.46,82.8c4.18,2.44,8.13,5.43,11.7,9
		c0.4,0.4,0.8,0.81,1.19,1.24c0.13,0.14,0.26,0.28,0.38,0.42c0.22,0.24,0.43,0.47,0.65,0.72C167.35,66.59,141.59,47,112.5,47
		c-1.16,0-2.35,0.03-3.65,0.11c-3.28,0.18-6.58,0.61-9.8,1.29c-2.34,1.77-4.2,3.36-5.85,5.01c-17.77,17.78-21.02,44.97-9.25,66.17
		c-0.55-2.26-0.83-4.61-0.83-7c0-9.13,4.14-17.58,11.35-23.2c0.71-0.63,1.43-1.24,2.17-1.82C115.39,72.52,141.31,71.07,161.46,82.8z
		"/>
	<path id="XMLID_00000129179565397832721070000005247197117744282031_" d="M176.54,98.77c-1.69-2.21-3.22-3.98-4.8-5.56
		c-17.83-17.83-45.11-21.04-66.33-9.16c2.29-0.56,4.66-0.85,7.08-0.85c8.09,0,15.79,3.33,21.33,9.17l0.04-0.04
		c0.24,0.25,0.46,0.51,0.68,0.77c0.15,0.17,0.29,0.34,0.45,0.51c15.69,17.07,19.2,40.99,10.77,61.11c-1.05,2.51-2.3,4.97-3.72,7.34
		c-0.95,1.58-1.99,3.13-3.1,4.64c-1.68,2.26-3.54,4.42-5.59,6.47c-0.72,0.72-1.48,1.43-2.28,2.14
		c12.59-3.73,23.92-11.26,32.28-21.52c9.45-11.62,14.66-26.28,14.66-41.29c0-1.16-0.03-2.34-0.1-3.62
		C177.71,105.53,177.26,102.13,176.54,98.77z"/>
</g>
</svg>
