<?xml version="1.0" encoding="utf-8"?>
<!-- Generator: Adobe Illustrator 26.2.1, SVG Export Plug-In . SVG Version: 6.00 Build 0)  -->
<svg version="1.1" xmlns="http://www.w3.org/2000/svg" xmlns:xlink="http://www.w3.org/1999/xlink" x="0px" y="0px"
	 viewBox="0 0 225 225" style="enable-background:new 0 0 225 225;" xml:space="preserve">
<style type="text/css">
	.st0{display:none;}
	.st1{display:inline;fill:#FAB433;}
	.st2{fill:none;}
	.st3{fill:none;stroke:#000000;stroke-width:1.6;stroke-miterlimit:10;}
	.st4{fill:none;stroke:#000000;stroke-width:0.7265;stroke-miterlimit:10;}
	.st5{fill:none;stroke:#000000;stroke-linecap:round;stroke-linejoin:round;stroke-miterlimit:10;}
	.st6{fill:none;stroke:#000000;stroke-miterlimit:10;}
	.st7{fill:none;stroke:#000000;stroke-width:0.7105;stroke-miterlimit:10;}
	.st8{fill:none;stroke:#000000;stroke-width:5.4;stroke-linecap:round;stroke-linejoin:round;stroke-miterlimit:10;}
	.st9{fill:none;stroke:#000000;stroke-width:2.9309;stroke-linecap:round;stroke-linejoin:round;stroke-miterlimit:10;}
	.st10{fill:none;stroke:#000000;stroke-width:0.5;stroke-linecap:round;stroke-linejoin:round;}
	.st11{fill:none;stroke:#FFFFFF;stroke-width:0;stroke-linecap:round;stroke-linejoin:round;}
	.st12{fill:#FFFFFF;}
	.st13{fill:none;stroke:#000000;stroke-width:1.4;stroke-miterlimit:10;}
	.st14{fill:url(#);stroke:#000000;stroke-width:1.4387;stroke-miterlimit:10;}
	.st15{fill:url(#);stroke:#000000;stroke-width:1.3718;stroke-miterlimit:10;}
	.st16{fill:none;stroke:#000000;stroke-width:1.0041;stroke-miterlimit:10;}
	.st17{fill:none;stroke:#000000;stroke-width:1.3621;stroke-miterlimit:10;}
	.st18{fill:none;stroke:#000000;stroke-width:0.25;stroke-miterlimit:10;}
</style>
<g id="Layer_2" class="st0">
	
		<rect id="XMLID_00000049924193275795927410000016330201882968263580_" x="-100.99" y="-520.01" class="st1" width="1160" height="772"/>
</g>
<g id="Layer_1">
	<path id="XMLID_00000019668447926118163380000000040568517852793020_" d="M89.01,104.87c-0.78,1.86-1.52,3.74-2.24,5.61
		c-2.51,6.62-4.59,13.28-6.14,19.73c-1.06,4.41-1.88,8.72-2.4,12.83c0,0.01,0,0.03,0,0.04c-0.43,3.42-0.67,6.71-0.69,9.82
		c0,0.14-0.01,0.29-0.01,0.43c0,2.9,0.19,5.51,0.56,7.84c0.46,2.9,1.19,5.35,2.16,7.35c0.85,1.75,1.89,3.16,3.09,4.21
		c5.87,2.83,12.13,4.79,18.56,5.81c-0.94-1-1.68-3.33-2.15-6.98c-0.2-1.56-0.36-3.37-0.47-5.42c-0.06-1.16-0.1-2.4-0.13-3.72
		c-0.02-1.01-0.03-2.05-0.03-3.15c0-0.05,0-0.11,0-0.16c0-1.17,0.02-2.37,0.04-3.6c0.03-1.58,0.08-3.21,0.15-4.88
		c0.01-0.16,0.01-0.31,0.02-0.47c0.12-2.92,0.3-5.96,0.53-9.1c0.78-10.84,2.16-22.76,3.94-34.44c0.01-0.07,0.02-0.13,0.03-0.2
		c2.28-14.91,5.21-29.4,8.41-40.71c-3.65,4.24-7.16,9.1-10.46,14.36C96.98,87.7,92.65,96.17,89.01,104.87z M80.12,63.57
		c-6.17,1.12-11.64,3.22-16.17,6.19c-3.36,2.2-6.19,4.89-8.41,8c-5.26,8.56-8.52,18.21-9.54,28.18c0.71-3.85,2.08-7.54,4.03-11.01
		c2.83-5.06,6.88-9.68,11.89-13.67c5-3.99,10.96-7.35,17.64-9.92c6.66-2.56,14.03-4.34,21.85-5.14c3.52-0.36,7.14-0.53,10.82-0.49
		c-3.69-1.02-7.29-1.77-10.8-2.28C93.75,62.33,86.56,62.41,80.12,63.57z M80.02,80.37c-6.26,4.36-11.83,9.33-16.44,14.68
		c-4.44,5.14-8,10.63-10.47,16.24c-2.41,5.48-3.77,11.08-3.89,16.6c-0.01,0.26-0.01,0.52-0.01,0.78c0,2.95,0.36,5.74,1.05,8.36
		c0.95,2.42,2.05,4.82,3.31,7.17c3.18,5.94,7.14,11.2,11.67,15.72c-1.22-1.69-2.24-3.6-3.01-5.75c-1.19-3.29-1.83-7.09-1.83-11.4
		c0-0.21,0.01-0.43,0.01-0.64c0.07-4.6,0.84-9.45,2.23-14.41c1.53-5.46,3.79-11.04,6.68-16.58c3.4-6.52,7.65-12.96,12.55-19.01
		c5.77-7.12,12.42-13.7,19.64-19.24c3.46-2.66,7.05-5.07,10.73-7.19c-3.68,0.92-7.29,2.06-10.8,3.39
		C93.72,72.02,86.49,75.87,80.02,80.37z M178.83,117.31c0-0.06,0.01-0.11,0.01-0.16c0.03-0.37,0.05-0.75,0.07-1.12
		c-0.04,0.59-0.09,1.2-0.14,1.82C178.79,117.67,178.82,117.49,178.83,117.31z M125.62,75.65c6.77,5.91,12.96,12.77,18.27,20.06
		c2.66,3.66,5.1,7.43,7.28,11.25c1.47,2.58,2.82,5.19,4.04,7.8c2.52,5.41,4.47,10.83,5.73,16.09c1.09,4.53,1.67,8.94,1.67,13.13
		c0,0.21-0.01,0.41-0.01,0.62c-0.06,4.37-0.77,8.21-2.03,11.47c-0.92,2.38-2.15,4.45-3.64,6.21c6.63-5.95,11.87-13.08,15.58-20.88
		c1.2-3.2,1.88-6.7,1.95-10.48c0.01-0.25,0.01-0.51,0.01-0.76c0-5.13-1.08-10.36-3.07-15.54c-2.16-5.62-5.4-11.17-9.52-16.43
		c-4.31-5.52-9.59-10.72-15.58-15.35c-0.25-0.19-0.49-0.38-0.74-0.57c-1.36-1.03-2.76-2.04-4.19-3.01
		c-4.97-3.38-10.33-6.36-15.99-8.85c-4.24-1.87-8.64-3.45-13.16-4.7c4.5,2.77,8.86,6.01,13.01,9.61
		C125.36,75.43,125.49,75.54,125.62,75.65z M120.7,119.43c0,0.02,0,0.03,0.01,0.05c0.95,9.11,1.66,18.07,2.06,26.26
		c0.12,2.48,0.21,4.89,0.27,7.21c0.03,1.3,0.06,2.58,0.08,3.83c0.01,0.94,0.02,1.87,0.02,2.78c0,0.04,0,0.09,0,0.13
		c0,0.96-0.01,1.88-0.02,2.78c-0.02,1.15-0.05,2.25-0.09,3.28c-0.07,1.92-0.18,3.63-0.32,5.14c-0.4,4.3-1.08,6.95-1.96,7.95
		c6.18-0.79,12.33-2.45,18.28-5.06c1.31-1.04,2.44-2.51,3.34-4.43c0.9-1.92,1.59-4.28,2.03-7.07c0.36-2.29,0.56-4.88,0.58-7.75
		c0-0.14,0.01-0.27,0.01-0.4c0-2.73-0.17-5.62-0.48-8.61c-0.39-3.77-1.01-7.72-1.84-11.78c-0.92-4.48-2.09-9.09-3.48-13.74
		c-0.46-1.53-0.94-3.06-1.44-4.59c-3.44-10.47-7.92-20.99-13.06-30.5c-1.5-2.77-3.05-5.46-4.65-8.04c-2.5-4.03-5.11-7.79-7.8-11.17
		c1,4.26,1.96,8.98,2.88,13.99C117.34,91.87,119.28,105.81,120.7,119.43z M146.99,73.04c6.52,2.9,12.31,6.56,17.11,10.79
		c4.79,4.23,8.6,9.04,11.17,14.25c2.29,4.64,3.59,9.6,3.74,14.74c0-0.33,0-0.66-0.01-1c-0.07-1.99-0.16-3.54-0.27-4.9
		c-0.21-2.51-0.52-4.4-1.07-7.32c-0.1-0.54-0.21-1.12-0.33-1.74l0-0.02c0-0.01,0-0.02,0-0.02c-0.27-1.05-0.59-2.23-0.94-3.44
		c-0.25-0.87-0.51-1.74-0.78-2.59c-0.05-0.15-0.1-0.3-0.15-0.45c-0.63-1.85-1.33-3.54-2.46-6.19c-0.03-0.08-0.07-0.16-0.1-0.24
		c-0.06-0.14-0.11-0.26-0.17-0.41c-0.12-0.25-0.25-0.51-0.39-0.77c-0.29-0.58-0.61-1.19-0.94-1.81c-0.07-0.13-0.14-0.27-0.21-0.4
		c-0.02-0.04-0.05-0.07-0.07-0.11c-2.18-3.73-5.17-6.95-8.82-9.61c-4.4-3.21-9.76-5.59-15.85-7.03c-6.33-1.5-13.43-1.98-21.04-1.3
		c-4.25,0.38-8.65,1.11-13.17,2.23c4.52,0.06,8.93,0.43,13.2,1.09C133.18,68,140.45,70.13,146.99,73.04z M156.2,62.65
		c-0.03-0.02-0.06-0.04-0.08-0.07c-0.01-0.01-0.03-0.02-0.04-0.03c0.01,0.01,0.02,0.02,0.03,0.03
		C156.14,62.6,156.17,62.62,156.2,62.65z M156.08,62.55c-0.11-0.09-0.22-0.19-0.34-0.28c-0.08-0.07-0.16-0.13-0.24-0.2
		c0.1,0.08,0.19,0.15,0.28,0.23C155.88,62.38,155.98,62.46,156.08,62.55z M121.46,46.8c0.02,0,0.04,0,0.06,0c0.05,0,0.1,0,0.15,0.01
		c0,0-0.01,0-0.02,0l-0.73-0.09l-0.79-0.1l-0.18-0.02c-0.03,0-0.05,0-0.08-0.01c0,0-0.01,0-0.01,0c-0.24-0.02-0.48-0.04-0.74-0.06
		c-0.83-0.07-1.73-0.13-2.63-0.19c-0.93-0.06-1.86-0.11-2.72-0.15c-0.03,0-0.06,0-0.08,0c-0.14-0.01-0.29-0.01-0.42-0.02
		c-0.07,0-0.15-0.01-0.21-0.01h0h0c-0.11,0-0.23,0-0.34,0.01c-0.24,0-0.47,0.01-0.72,0.02c-0.19,0-0.38,0-0.57,0
		c-0.97,0.02-1.7,0.03-2.29,0.05c-0.35,0.01-0.65,0.02-0.92,0.03c-0.34,0.02-0.68,0.05-1.03,0.08c-0.63,0.05-1.27,0.11-1.81,0.16
		c0,0-0.01,0-0.01,0c-0.01,0-0.01,0-0.02,0l-0.03,0l-0.79,0.09c1.96-0.24,4.69,6.13,7.71,19.13
		C115.82,53.11,119.07,46.82,121.46,46.8z M144.27,57.42c4.19,0.6,7.85,2.07,10.85,4.36c0,0,0.01,0.01,0.01,0.01
		c0.05,0.04,0.1,0.07,0.14,0.1c-0.12-0.1-0.23-0.19-0.35-0.29c-0.45-0.36-0.91-0.73-1.38-1.09c-0.67-0.53-1.35-1.05-1.98-1.52
		c-0.24-0.18-0.48-0.36-0.7-0.54c-0.22-0.16-0.42-0.3-0.62-0.43c-0.89-0.58-2.01-1.34-2.99-1.95c-0.61-0.36-1.35-0.78-2.34-1.34
		c-0.38-0.21-0.79-0.45-1.26-0.71c-0.22-0.12-0.44-0.24-0.67-0.38c-0.22-0.11-0.46-0.23-0.71-0.35c-0.18-0.08-0.35-0.17-0.53-0.26
		c-0.13-0.06-0.26-0.12-0.4-0.18c-0.83-0.4-1.68-0.81-2.43-1.14c-0.06-0.02-0.11-0.05-0.17-0.07c0.26,0.11,0.51,0.25,0.76,0.39
		c-0.58-0.26-1.17-0.51-1.76-0.76c-3.57-1.11-7.99-0.11-12.98,3.05c-3.9,2.47-8.13,6.25-12.56,11.4c4.5-2.58,8.87-4.56,13.04-5.97
		C132.29,57.37,138.73,56.63,144.27,57.42z M101.82,55.04c-5.36-4.16-10.09-5.58-13.81-4.35c-0.08,0.03-0.16,0.06-0.24,0.09
		c-0.01,0-0.02,0.01-0.04,0.01c-0.16,0.07-0.33,0.13-0.49,0.2C87.24,51,87.22,51,87.21,51.01l-0.01,0
		c-0.11,0.04-0.22,0.09-0.32,0.13c-0.03,0.01-0.06,0.03-0.09,0.04c-0.58,0.25-1.2,0.52-1.82,0.8c-0.78,0.35-1.55,0.71-2.25,1.03
		c0.1-0.05,0.2-0.1,0.3-0.15c-0.2,0.09-0.39,0.18-0.57,0.27c-0.02,0.01-0.04,0.02-0.06,0.03c-0.01,0.01-0.02,0.01-0.03,0.02
		c-0.13,0.06-0.25,0.13-0.37,0.19c-0.08,0.04-0.16,0.08-0.23,0.12c-0.08,0.04-0.16,0.08-0.24,0.12c-0.07,0.04-0.15,0.08-0.22,0.11
		c-0.88,0.47-1.89,1.04-2.75,1.53l-0.01,0c-0.04,0.03-0.09,0.05-0.13,0.08c-0.89,0.54-2.03,1.27-3.84,2.42
		c-0.06,0.04-0.12,0.08-0.17,0.12c-0.65,0.45-1.37,0.99-2.09,1.53c-0.42,0.32-0.84,0.64-1.24,0.94c3.07-2.2,6.83-3.5,11.1-3.85
		c5.65-0.47,12.22,0.71,19.35,3.66c3.45,1.43,7.04,3.27,10.72,5.54C108.59,61.13,105.09,57.58,101.82,55.04z"/>
</g>
</svg>
