<?xml version="1.0" encoding="utf-8"?>
<!-- Generator: Adobe Illustrator 26.2.1, SVG Export Plug-In . SVG Version: 6.00 Build 0)  -->
<svg version="1.1" xmlns="http://www.w3.org/2000/svg" xmlns:xlink="http://www.w3.org/1999/xlink" x="0px" y="0px"
	 viewBox="0 0 225 225" style="enable-background:new 0 0 225 225;" xml:space="preserve">
<style type="text/css">
	.st0{display:none;}
	.st1{display:inline;fill:#FAB433;}
	.st2{fill:none;}
	.st3{fill:none;stroke:#000000;stroke-width:1.6;stroke-miterlimit:10;}
	.st4{fill:none;stroke:#000000;stroke-width:0.7265;stroke-miterlimit:10;}
	.st5{fill:none;stroke:#000000;stroke-linecap:round;stroke-linejoin:round;stroke-miterlimit:10;}
	.st6{fill:none;stroke:#000000;stroke-miterlimit:10;}
	.st7{fill:none;stroke:#000000;stroke-width:0.7105;stroke-miterlimit:10;}
	.st8{fill:none;stroke:#000000;stroke-width:5.4;stroke-linecap:round;stroke-linejoin:round;stroke-miterlimit:10;}
	.st9{fill:none;stroke:#000000;stroke-width:2.9309;stroke-linecap:round;stroke-linejoin:round;stroke-miterlimit:10;}
	.st10{fill:none;stroke:#000000;stroke-width:0.5;stroke-linecap:round;stroke-linejoin:round;}
	.st11{fill:none;stroke:#FFFFFF;stroke-width:0;stroke-linecap:round;stroke-linejoin:round;}
	.st12{fill:#FFFFFF;}
	.st13{fill:none;stroke:#000000;stroke-width:1.4;stroke-miterlimit:10;}
	.st14{fill:url(#);stroke:#000000;stroke-width:1.4387;stroke-miterlimit:10;}
	.st15{fill:url(#);stroke:#000000;stroke-width:1.3718;stroke-miterlimit:10;}
	.st16{fill:none;stroke:#000000;stroke-width:1.0041;stroke-miterlimit:10;}
	.st17{fill:none;stroke:#000000;stroke-width:1.3621;stroke-miterlimit:10;}
	.st18{fill:none;stroke:#000000;stroke-width:0.25;stroke-miterlimit:10;}
</style>
<g id="Layer_2" class="st0">
	<rect id="XMLID_1638_" x="-835.99" y="-275.01" class="st1" width="1160" height="772"/>
</g>
<g id="Layer_1">
	<g id="XMLID_5672_">
		<path id="XMLID_5748_" d="M112.5,151.52l0,0.53l-24.37,24.37c-0.13-0.05-0.25-0.1-0.38-0.15L112.5,151.52z M112.5,162.07l0,0.53
			l-16.33,16.33c-0.14-0.03-0.29-0.06-0.43-0.1L112.5,162.07z M112.5,156.79l0,0.53l-20.46,20.46c-0.13-0.04-0.26-0.09-0.39-0.13
			L112.5,156.79z M98.75,112.5l0.53,0l-41.3,41.3c-0.08-0.1-0.16-0.19-0.23-0.3L98.75,112.5z M109.3,112.5l0.53,0L62.83,159.5
			c-0.09-0.09-0.17-0.18-0.26-0.27L109.3,112.5z M112.5,119.86l0,0.53l-44.26,44.26c-0.09-0.08-0.19-0.16-0.28-0.24L112.5,119.86z
			 M112.5,130.41l0,0.53l-38.27,38.27c-0.1-0.07-0.2-0.15-0.31-0.22L112.5,130.41z M112.5,140.96l0,0.53l-31.65,31.65
			c-0.12-0.06-0.23-0.12-0.35-0.18L112.5,140.96z M104.03,112.5l0.53,0l-44.23,44.23c-0.08-0.09-0.16-0.19-0.24-0.28L104.03,112.5z
			 M112.5,114.58l0,0.53l-47.03,47.03c-0.09-0.09-0.18-0.17-0.27-0.26L112.5,114.58z M112.5,125.13l0,0.53L71.16,167
			c-0.1-0.08-0.2-0.16-0.29-0.23L112.5,125.13z M112.5,135.69l0,0.53l-35.04,35.04c-0.11-0.07-0.22-0.13-0.33-0.19L112.5,135.69z
			 M112.5,146.24l0,0.53l-28.1,28.1c-0.12-0.05-0.24-0.11-0.36-0.16L112.5,146.24z M67.09,112.5l0.53,0L47.2,132.92
			c-0.04-0.14-0.08-0.27-0.12-0.41L67.09,112.5z M77.65,112.5l0.53,0l-28.06,28.06c-0.05-0.12-0.11-0.24-0.16-0.36L77.65,112.5z
			 M88.2,112.5l0.53,0l-35,35c-0.07-0.11-0.13-0.22-0.19-0.33L88.2,112.5z M61.82,112.5l0.53,0l-16.28,16.28
			c-0.03-0.14-0.07-0.29-0.1-0.43L61.82,112.5z M72.37,112.5l0.53,0l-24.33,24.33c-0.05-0.13-0.1-0.25-0.15-0.38L72.37,112.5z
			 M82.92,112.5l0.53,0l-31.61,31.61c-0.06-0.12-0.12-0.23-0.18-0.35L82.92,112.5z M93.48,112.5l0.53,0l-38.23,38.23
			c-0.07-0.11-0.14-0.22-0.21-0.32L93.48,112.5z M112.49,172.62l0,0.53l-7.35,7.35c-0.16-0.02-0.31-0.04-0.47-0.06L112.49,172.62z
			 M112.49,167.35l0,0.53l-11.96,11.96c-0.15-0.03-0.3-0.05-0.45-0.08L112.49,167.35z M112.49,178.43l-2.41,2.41
			c-0.17-0.01-0.34-0.01-0.51-0.01l2.93-2.93L112.49,178.43z M45.99,112.5l0.53,0l-2.36,2.36c-0.01-0.17-0.01-0.34-0.01-0.51
			L45.99,112.5z M56.54,112.5l0.53,0l-11.92,11.92c-0.03-0.15-0.05-0.3-0.08-0.45L56.54,112.5z M51.26,112.5l0.53,0l-7.3,7.3
			c-0.02-0.16-0.04-0.32-0.05-0.47L51.26,112.5z"/>
		<path id="XMLID_5733_" d="M149.83,112.5l3.52,0l-40.85,40.85l0-3.52L149.83,112.5z M163.9,112.5l3.52,0l-54.92,54.92l0-3.52
			L163.9,112.5z M180.9,112.49c0,0.2-0.01,0.4-0.02,0.6l-67.79,67.79c-0.2,0-0.4,0.02-0.6,0.02l0-2.93l65.47-65.47L180.9,112.49z
			 M179.78,124.75c-0.27,1.51-0.58,3-0.95,4.47l-49.62,49.62c-1.47,0.37-2.96,0.68-4.47,0.95L179.78,124.75z M142.79,112.5l3.52,0
			l-33.81,33.81l0-3.52L142.79,112.5z M156.86,112.5l3.52,0l-47.88,47.88l0-3.52L156.86,112.5z M170.93,112.49l3.52,0l-61.96,61.96
			l0-3.52L170.93,112.49z M180.76,116.74c-0.08,1.3-0.2,2.59-0.35,3.87l-59.79,59.79c-1.28,0.15-2.57,0.27-3.87,0.35L180.76,116.74z
			 M177.36,134.21c-0.65,1.95-1.38,3.85-2.2,5.72l-35.24,35.24c-1.47,0.64-2.96,1.24-4.48,1.78c-0.06,0.02-0.12,0.04-0.18,0.06
			c-0.35,0.12-0.7,0.24-1.05,0.36L177.36,134.21z M147.12,171.48l24.36-24.36C165.57,157.17,157.17,165.57,147.12,171.48z
			 M135.76,112.5l3.52,0l-26.78,26.78l0-3.52L135.76,112.5z M121.69,112.5l3.52,0l-12.7,12.7l0-3.52L121.69,112.5z M114.65,112.5
			l3.52,0l-5.67,5.67l0-3.52L114.65,112.5z M128.72,112.5l3.52,0l-19.74,19.74l0-3.52L128.72,112.5z"/>
		<path id="XMLID_5713_" d="M110.22,44.15c0.72-0.02,1.44-0.05,2.17-0.06L44.1,112.39c0-0.73,0.03-1.44,0.05-2.17L110.22,44.15z
			 M112.5,52.43l0,2.11L54.54,112.5l-2.11,0L112.5,52.43z M104.52,44.58c0.78-0.09,1.56-0.16,2.34-0.23l-62.52,62.52
			c0.06-0.78,0.14-1.56,0.23-2.34L104.52,44.58z M112.5,47.15l0,2.11L49.26,112.5l-2.11,0L112.5,47.15z M99.14,45.41
			c0.56-0.11,1.12-0.2,1.69-0.3l-55.71,55.71c0.15-0.87,0.31-1.74,0.49-2.6L98.22,45.6c0.25-0.05,0.5-0.11,0.76-0.16
			C99.03,45.43,99.08,45.42,99.14,45.41z M112.5,57.7l0,2.11L59.81,112.5l-2.11,0L112.5,57.7z M112.5,73.53l0,2.11L75.64,112.5
			l-2.11,0L112.5,73.53z M112.5,84.08l0,2.11l-26.3,26.3l-2.11,0L112.5,84.08z M112.5,94.64l0,2.11L96.75,112.5l-2.11,0L112.5,94.64
			z M112.5,105.19l0,2.11l-5.2,5.2l-2.11,0L112.5,105.19z M112.5,78.81l0,2.11L80.92,112.5l-2.11,0L112.5,78.81z M112.5,89.36
			l0,2.11L91.47,112.5l-2.11,0L112.5,89.36z M112.5,99.91l0,2.11l-10.47,10.47l-2.11,0L112.5,99.91z M81.99,51.28
			c1.29-0.65,2.6-1.27,3.94-1.83L49.45,85.93c0.57-1.34,1.18-2.65,1.83-3.94L81.99,51.28z M112.5,62.98l0,2.11L65.09,112.5l-2.11,0
			L112.5,62.98z M90.97,47.58c1-0.33,2.02-0.64,3.04-0.93L46.65,94.01c0.29-1.02,0.6-2.04,0.93-3.04L90.97,47.58z M112.5,68.26
			l0,2.11L70.37,112.5l-2.11,0L112.5,68.26z M64.62,63.67c3.02-2.96,6.3-5.65,9.82-8.01L55.66,74.45c2.59-3.86,5.57-7.44,8.87-10.69
			C64.56,63.73,64.59,63.7,64.62,63.67z M112.5,112.5l-2.03,0l2.03-2.03L112.5,112.5z"/>
		<path id="XMLID_5673_" d="M162.9,66.26c0.17,0.18,0.33,0.37,0.5,0.55l-45.68,45.68l-1.06,0L162.9,66.26z M166.13,70.06
			c0.16,0.2,0.31,0.39,0.46,0.59l-41.84,41.84l-1.06,0L166.13,70.06z M169.12,74.11c0.14,0.21,0.28,0.43,0.42,0.64l-37.75,37.75
			l-1.06,0L169.12,74.11z M171.82,78.45c0.13,0.22,0.26,0.44,0.39,0.67l-33.38,33.38l-1.06,0L171.82,78.45z M164.55,68.13
			c0.16,0.19,0.33,0.37,0.49,0.57l-43.8,43.8l-1.06,0L164.55,68.13z M167.66,72.05c0.15,0.2,0.29,0.41,0.44,0.62l-39.83,39.83
			l-1.06,0L167.66,72.05z M170.5,76.25c0.14,0.22,0.28,0.43,0.41,0.64l-35.61,35.61l-1.06,0L170.5,76.25z M173.29,81.15
			c0.04,0.09,0.09,0.17,0.13,0.26l-31.09,31.09l-1.06,0l31.78-31.78c0.03,0.06,0.06,0.13,0.1,0.19
			C173.21,80.98,173.25,81.07,173.29,81.15z M147.37,53.65c0.22,0.13,0.45,0.25,0.67,0.39L112.5,89.58l0-1.06L147.37,53.65z
			 M151.64,56.41c0.21,0.14,0.41,0.29,0.62,0.44L112.5,96.61l0-1.06L151.64,56.41z M155.66,59.43c0.19,0.16,0.39,0.31,0.58,0.47
			l-43.74,43.74l0-1.06L155.66,59.43z M159.4,62.73c0.18,0.17,0.36,0.34,0.54,0.52l-47.44,47.44l0-1.06L159.4,62.73z M145.14,52.37
			c0.23,0.12,0.44,0.26,0.67,0.39L112.5,86.06l0-1.06L145.14,52.37z M149.54,55c0.21,0.14,0.43,0.27,0.64,0.41L112.5,93.09l0-1.06
			L149.54,55z M153.69,57.89c0.2,0.15,0.39,0.31,0.59,0.46l-41.78,41.78l0-1.06L153.69,57.89z M157.56,61.05
			c0.19,0.16,0.38,0.32,0.57,0.49l-45.62,45.62l0-1.06L157.56,61.05z M161.18,64.46c0.17,0.18,0.34,0.36,0.51,0.54l-47.5,47.5
			l-1.06,0L161.18,64.46z M176.36,87.98c0.1,0.25,0.2,0.5,0.3,0.76l-23.76,23.76l-1.06,0L176.36,87.98z M178.13,93.24
			c0.08,0.27,0.16,0.55,0.23,0.82l-18.44,18.44l-1.06,0L178.13,93.24z M179.54,98.86c0.06,0.3,0.1,0.6,0.16,0.9l-12.73,12.73
			l-1.06,0L179.54,98.86z M180.48,104.96c0.03,0.32,0.07,0.64,0.1,0.96l-6.58,6.58l-1.06,0L180.48,104.96z M180.9,112.49l-0.92,0
			l0.9-0.9C180.88,111.9,180.9,112.19,180.9,112.49z M177.29,90.56c0.09,0.26,0.18,0.52,0.27,0.79l-21.14,21.14l-1.06,0
			L177.29,90.56z M178.89,96c0.07,0.28,0.13,0.57,0.2,0.86l-15.64,15.64l-1.06,0L178.89,96z M180.07,101.85
			c0.05,0.31,0.09,0.62,0.13,0.93l-9.72,9.72l-1.06,0L180.07,101.85z M180.75,108.2c0.02,0.33,0.05,0.66,0.06,0.99l-3.3,3.3l-1.06,0
			L180.75,108.2z M174.25,83.05c0.11,0.24,0.22,0.49,0.33,0.73l-28.72,28.72l-1.06,0L174.25,83.05z M175.35,85.47
			c0.11,0.25,0.21,0.49,0.31,0.74l-26.29,26.29l-1.06,0L175.35,85.47z M142.81,51.17c0.23,0.12,0.46,0.24,0.7,0.36L112.5,82.54
			l0-1.06L142.81,51.17z M114.66,44.15c0.34,0.01,0.69,0.01,1.03,0.03l-3.19,3.19l0-1.06L114.66,44.15z M121.18,44.66
			c0.31,0.04,0.63,0.08,0.94,0.12l-9.62,9.62l0-1.06L121.18,44.66z M127.19,45.69c0.29,0.06,0.57,0.13,0.86,0.2L112.5,61.44l0-1.06
			L127.19,45.69z M132.77,47.15c0.27,0.08,0.53,0.18,0.79,0.26L112.5,68.47l0-1.06L132.77,47.15z M137.95,49
			c0.25,0.1,0.51,0.19,0.76,0.3l-26.2,26.2l0-1.06L137.95,49z M117.99,44.34c0.33,0.03,0.66,0.04,0.98,0.07l-6.47,6.47l0-1.06
			L117.99,44.34z M124.24,45.12c0.3,0.05,0.6,0.1,0.9,0.16L112.5,57.92l0-1.06L124.24,45.12z M130.03,46.37
			c0.28,0.07,0.55,0.16,0.82,0.23L112.5,64.95l0-1.06L130.03,46.37z M135.4,48.04c0.26,0.09,0.52,0.18,0.78,0.27L112.5,71.99l0-1.06
			L135.4,48.04z M140.42,50.05c0.24,0.11,0.49,0.22,0.73,0.33L112.5,79.02l0-1.06L140.42,50.05z"/>
	</g>
</g>
</svg>
