<?xml version="1.0" encoding="utf-8"?>
<!-- Generator: Adobe Illustrator 26.2.1, SVG Export Plug-In . SVG Version: 6.00 Build 0)  -->
<svg version="1.1" xmlns="http://www.w3.org/2000/svg" xmlns:xlink="http://www.w3.org/1999/xlink" x="0px" y="0px"
	 viewBox="0 0 225 225" style="enable-background:new 0 0 225 225;" xml:space="preserve">
<style type="text/css">
	.st0{display:none;}
	.st1{display:inline;fill:#FAB433;}
	.st2{fill:none;}
	.st3{fill:none;stroke:#000000;stroke-width:1.6;stroke-miterlimit:10;}
	.st4{fill:none;stroke:#000000;stroke-width:0.7265;stroke-miterlimit:10;}
	.st5{fill:none;stroke:#000000;stroke-linecap:round;stroke-linejoin:round;stroke-miterlimit:10;}
	.st6{fill:none;stroke:#000000;stroke-miterlimit:10;}
	.st7{fill:none;stroke:#000000;stroke-width:0.7105;stroke-miterlimit:10;}
	.st8{fill:none;stroke:#000000;stroke-width:5.4;stroke-linecap:round;stroke-linejoin:round;stroke-miterlimit:10;}
	.st9{fill:none;stroke:#000000;stroke-width:2.9309;stroke-linecap:round;stroke-linejoin:round;stroke-miterlimit:10;}
	.st10{fill:none;stroke:#000000;stroke-width:0.5;stroke-linecap:round;stroke-linejoin:round;}
	.st11{fill:none;stroke:#FFFFFF;stroke-width:0;stroke-linecap:round;stroke-linejoin:round;}
	.st12{fill:#FFFFFF;}
	.st13{fill:none;stroke:#000000;stroke-width:1.4;stroke-miterlimit:10;}
	.st14{fill:url(#);stroke:#000000;stroke-width:1.4387;stroke-miterlimit:10;}
	.st15{fill:url(#);stroke:#000000;stroke-width:1.3718;stroke-miterlimit:10;}
	.st16{fill:none;stroke:#000000;stroke-width:1.0041;stroke-miterlimit:10;}
	.st17{fill:none;stroke:#000000;stroke-width:1.3621;stroke-miterlimit:10;}
	.st18{fill:none;stroke:#000000;stroke-width:0.25;stroke-miterlimit:10;}
</style>
<g id="Layer_2" class="st0">
	<rect id="XMLID_3548_" x="-590.99" y="-520.01" class="st1" width="1160" height="772"/>
</g>
<g id="Layer_1">
	<g id="XMLID_7692_">
		<path id="XMLID_7697_" d="M112.49,166.34c28.84,0,52.31-23.46,52.31-52.3h-8.48c0,24.16-19.66,43.83-43.83,43.83
			c-24.17,0-43.83-19.66-43.83-43.83c0-24.17,19.66-43.83,43.83-43.83v-8.48c-28.84,0-52.31,23.46-52.31,52.31
			C60.18,142.88,83.64,166.34,112.49,166.34z"/>
		<path id="XMLID_7696_" d="M157.97,68.55l-5.99,6c10.55,10.54,16.36,24.57,16.36,39.48c0,14.92-5.81,28.94-16.36,39.49
			c-10.55,10.55-24.57,16.36-39.49,16.36c-14.92,0-28.94-5.81-39.49-16.36c-21.77-21.78-21.77-57.2,0-78.98L67,68.55
			c-25.08,25.08-25.08,65.89,0,90.97c12.15,12.15,28.3,18.84,45.48,18.84c17.18,0,33.33-6.69,45.48-18.84
			c12.15-12.15,18.84-28.3,18.84-45.48S170.12,80.7,157.97,68.55z"/>
		<path id="XMLID_7695_" d="M123.98,125.53c3.07-3.07,4.77-7.15,4.77-11.49c0-4.34-1.69-8.43-4.76-11.5
			c-3.07-3.08-7.15-4.77-11.49-4.77s-8.43,1.69-11.5,4.77c-3.07,3.07-4.76,7.15-4.76,11.49c0,4.34,1.69,8.42,4.76,11.49l5.99-6
			c-1.47-1.47-2.28-3.42-2.28-5.5c0-2.08,0.81-4.03,2.28-5.5c1.47-1.47,3.42-2.28,5.5-2.28c2.08,0,4.03,0.81,5.5,2.28
			c1.47,1.47,2.28,3.42,2.28,5.5c0,2.08-0.81,4.02-2.28,5.49L123.98,125.53z"/>
		<path id="XMLID_7694_" d="M140.76,114.03c0-15.59-12.69-28.27-28.27-28.27c-7.55,0-14.65,2.94-19.99,8.28
			c-5.34,5.34-8.28,12.44-8.28,19.99c0,7.55,2.94,14.65,8.28,19.99c5.34,5.34,12.44,8.28,19.99,8.28v-8.48
			c-5.29,0-10.26-2.06-14-5.8c-3.74-3.74-5.8-8.71-5.8-14c0-5.29,2.06-10.26,5.8-14c3.74-3.74,8.71-5.8,14-5.8
			c10.91,0,19.79,8.88,19.79,19.79L140.76,114.03z"/>
		<path id="XMLID_7693_" d="M112.48,73.74c-10.76,0-20.88,4.19-28.49,11.8c-7.61,7.61-11.8,17.73-11.8,28.49
			c0,10.76,4.19,20.88,11.8,28.49c7.61,7.61,17.73,11.8,28.49,11.8c10.76,0,20.88-4.19,28.49-11.8l-6-5.99
			c-6.01,6.01-14,9.32-22.49,9.32c-8.5,0-16.49-3.31-22.49-9.32c-6.01-6.01-9.32-13.99-9.32-22.49c0-8.5,3.31-16.48,9.32-22.49
			c6.01-6.01,13.99-9.32,22.49-9.32c8.5,0,16.49,3.31,22.5,9.32l5.99-6C133.36,77.93,123.25,73.74,112.48,73.74z"/>
	</g>
</g>
</svg>
