<?xml version="1.0" encoding="utf-8"?>
<!-- Generator: Adobe Illustrator 26.2.1, SVG Export Plug-In . SVG Version: 6.00 Build 0)  -->
<svg version="1.1" xmlns="http://www.w3.org/2000/svg" xmlns:xlink="http://www.w3.org/1999/xlink" x="0px" y="0px"
	 viewBox="0 0 225 225" style="enable-background:new 0 0 225 225;" xml:space="preserve">
<style type="text/css">
	.st0{display:none;}
	.st1{display:inline;fill:#FAB433;}
	.st2{fill:none;}
	.st3{fill:none;stroke:#000000;stroke-width:1.6;stroke-miterlimit:10;}
	.st4{fill:none;stroke:#000000;stroke-width:0.7265;stroke-miterlimit:10;}
	.st5{fill:none;stroke:#000000;stroke-linecap:round;stroke-linejoin:round;stroke-miterlimit:10;}
	.st6{fill:none;stroke:#000000;stroke-miterlimit:10;}
	.st7{fill:none;stroke:#000000;stroke-width:0.7105;stroke-miterlimit:10;}
	.st8{fill:none;stroke:#000000;stroke-width:5.4;stroke-linecap:round;stroke-linejoin:round;stroke-miterlimit:10;}
	.st9{fill:none;stroke:#000000;stroke-width:2.9309;stroke-linecap:round;stroke-linejoin:round;stroke-miterlimit:10;}
	.st10{fill:none;stroke:#000000;stroke-width:0.5;stroke-linecap:round;stroke-linejoin:round;}
	.st11{fill:none;stroke:#FFFFFF;stroke-width:0;stroke-linecap:round;stroke-linejoin:round;}
	.st12{fill:#FFFFFF;}
	.st13{fill:none;stroke:#000000;stroke-width:1.4;stroke-miterlimit:10;}
	.st14{fill:url(#);stroke:#000000;stroke-width:1.4387;stroke-miterlimit:10;}
	.st15{fill:url(#);stroke:#000000;stroke-width:1.3718;stroke-miterlimit:10;}
	.st16{fill:none;stroke:#000000;stroke-width:1.0041;stroke-miterlimit:10;}
	.st17{fill:none;stroke:#000000;stroke-width:1.3621;stroke-miterlimit:10;}
	.st18{fill:none;stroke:#000000;stroke-width:0.25;stroke-miterlimit:10;}
</style>
<g id="Layer_2" class="st0">
	<rect id="XMLID_1638_" x="-345.99" y="-520.01" class="st1" width="1160" height="772"/>
</g>
<g id="Layer_1">
	<g id="XMLID_5626_">
		<g id="XMLID_5662_">
			<path d="M112.5,133.81c30.8,0,51.5,8.53,51.5,16.5s-20.69,16.5-51.5,16.5S61,158.29,61,150.32S81.7,133.81,112.5,133.81
				 M112.5,132.68c-29.07,0-52.64,7.9-52.64,17.64s23.57,17.64,52.64,17.64s52.64-7.9,52.64-17.64
				C165.14,140.57,141.57,132.68,112.5,132.68L112.5,132.68z"/>
		</g>
		<g id="XMLID_5660_">
			<path d="M102.27,47.6L102.27,47.6c1.07,0,2.02,0.24,2.83,0.7c3.57,2.06,4.5,8.76,2.55,18.38c-2.06,10.16-7.04,22.4-14.01,34.47
				c-12.19,21.12-28.19,37.05-37.21,37.05c-1.07,0-2.02-0.24-2.83-0.7c-6.9-3.99-3.95-26.17,11.46-52.85
				C77.25,63.53,93.25,47.6,102.27,47.6 M102.27,46.46c-9.39,0-25.38,15.42-38.2,37.62c-14.54,25.18-19.48,49.53-11.04,54.41
				c1,0.58,2.14,0.85,3.4,0.85c9.39,0,25.38-15.42,38.2-37.62c14.54-25.18,19.48-49.53,11.04-54.41
				C104.67,46.74,103.53,46.46,102.27,46.46L102.27,46.46z"/>
		</g>
		<g id="XMLID_5658_">
			<path d="M122.73,46.46l0,1.14h0c9.02,0,25.02,15.93,37.21,37.05c15.4,26.68,18.36,48.87,11.46,52.85
				c-0.81,0.47-1.76,0.7-2.83,0.7c-9.02,0-25.02-15.93-37.21-37.05C115.95,74.48,113,52.29,119.9,48.3c0.81-0.47,1.76-0.7,2.83-0.7
				L122.73,46.46 M122.73,46.46c-1.26,0-2.4,0.28-3.4,0.85c-8.44,4.87-3.49,29.23,11.04,54.41c12.82,22.2,28.81,37.62,38.2,37.62
				c1.26,0,2.4-0.28,3.4-0.85c8.44-4.87,3.49-29.23-11.04-54.41C148.11,61.88,132.12,46.46,122.73,46.46L122.73,46.46z"/>
		</g>
		<g id="XMLID_5656_">
			<path d="M112.5,137.11c24.64,0,41.2,6.83,41.2,13.2s-16.55,13.2-41.2,13.2s-41.2-6.83-41.2-13.2S87.86,137.11,112.5,137.11
				 M112.5,136.2c-23.26,0-42.11,6.32-42.11,14.11c0,7.79,18.85,14.11,42.11,14.11s42.11-6.32,42.11-14.11
				C154.61,142.52,135.76,136.2,112.5,136.2L112.5,136.2z"/>
		</g>
		<g id="XMLID_5654_">
			<path d="M97.69,56.66L97.69,56.66c0.86,0,1.62,0.19,2.26,0.56c2.86,1.65,3.6,7.01,2.04,14.7c-1.65,8.13-5.63,17.92-11.2,27.58
				c-9.76,16.9-22.55,29.64-29.77,29.64c-0.86,0-1.62-0.19-2.26-0.56c-5.52-3.19-3.16-20.94,9.17-42.28
				C77.67,69.41,90.47,56.66,97.69,56.66 M97.69,55.75c-7.51,0-20.31,12.34-30.56,30.09c-11.63,20.14-15.58,39.63-8.83,43.52
				c0.8,0.46,1.71,0.68,2.72,0.68c7.51,0,20.31-12.34,30.56-30.09c11.63-20.14,15.58-39.63,8.83-43.52
				C99.61,55.97,98.7,55.75,97.69,55.75L97.69,55.75z"/>
		</g>
		<g id="XMLID_5652_">
			<path d="M127.31,55.75v0.91c7.21,0,20.01,12.74,29.77,29.64c5.58,9.66,9.56,19.45,11.2,27.58c1.56,7.69,0.82,13.05-2.04,14.7
				c-0.65,0.37-1.41,0.56-2.26,0.56c-7.22,0-20.01-12.74-29.77-29.64c-5.58-9.66-9.56-19.45-11.2-27.58
				c-1.56-7.69-0.82-13.05,2.04-14.7c0.64-0.37,1.41-0.56,2.26-0.56L127.31,55.75 M127.31,55.75c-1.01,0-1.92,0.22-2.72,0.68
				c-6.75,3.9-2.8,23.38,8.83,43.52c10.25,17.76,23.05,30.09,30.56,30.09c1.01,0,1.92-0.22,2.72-0.68c6.75-3.9,2.8-23.38-8.83-43.52
				C147.62,68.09,134.82,55.75,127.31,55.75L127.31,55.75z"/>
		</g>
		<g id="XMLID_5650_">
			<path d="M112.5,139.76c19.72,0,32.96,5.46,32.96,10.56c0,5.1-13.24,10.56-32.96,10.56s-32.96-5.46-32.96-10.56
				C79.54,145.22,92.79,139.76,112.5,139.76 M112.5,139.03c-18.6,0-33.69,5.05-33.69,11.29s15.08,11.29,33.69,11.29
				s33.69-5.05,33.69-11.29C146.19,144.08,131.11,139.03,112.5,139.03L112.5,139.03z"/>
		</g>
		<g id="XMLID_5648_">
			<path d="M94.02,63.91L94.02,63.91c0.69,0,1.29,0.15,1.81,0.45c4.42,2.55,2.53,16.75-7.33,33.82
				c-7.8,13.52-18.04,23.71-23.82,23.71c-0.69,0-1.3-0.15-1.81-0.45c-2.29-1.32-2.88-5.61-1.63-11.76c1.32-6.5,4.5-14.34,8.96-22.06
				C78.01,74.1,88.25,63.91,94.02,63.91 M94.02,63.18c-6.01,0-16.24,9.87-24.45,24.08c-9.3,16.11-12.47,31.7-7.07,34.82
				c0.64,0.37,1.37,0.55,2.18,0.55c6.01,0,16.24-9.87,24.45-24.08c9.3-16.11,12.47-31.7,7.07-34.82
				C95.56,63.36,94.83,63.18,94.02,63.18L94.02,63.18z"/>
		</g>
		<g id="XMLID_5646_">
			<path d="M130.98,63.91L130.98,63.91c5.77,0,16.01,10.19,23.81,23.71c9.86,17.07,11.75,31.27,7.33,33.82
				c-0.52,0.3-1.13,0.45-1.81,0.45c-5.77,0-16.01-10.19-23.82-23.71c-4.46-7.73-7.64-15.56-8.96-22.06
				c-1.25-6.15-0.65-10.44,1.63-11.76C129.68,64.06,130.29,63.91,130.98,63.91 M130.98,63.18c-0.81,0-1.54,0.18-2.18,0.55
				c-5.4,3.12-2.24,18.71,7.07,34.82c8.2,14.21,18.44,24.08,24.45,24.08c0.81,0,1.54-0.18,2.18-0.55c5.4-3.12,2.24-18.71-7.07-34.82
				C147.22,73.05,136.99,63.18,130.98,63.18L130.98,63.18z"/>
		</g>
		<g id="XMLID_5644_">
			<path d="M112.5,141.87c15.77,0,26.37,4.37,26.37,8.45s-10.59,8.45-26.37,8.45s-26.37-4.37-26.37-8.45c0-2.11,2.73-4.24,7.5-5.83
				C98.66,142.8,105.36,141.87,112.5,141.87 M112.5,141.29c-14.88,0-26.95,4.04-26.95,9.03c0,4.99,12.07,9.03,26.95,9.03
				s26.95-4.04,26.95-9.03C139.45,145.33,127.38,141.29,112.5,141.29L112.5,141.29z"/>
		</g>
		<g id="XMLID_5642_">
			<path d="M91.09,69.71L91.09,69.71c0.55,0,1.04,0.12,1.45,0.36c1.83,1.06,2.3,4.49,1.3,9.41c-1.06,5.2-3.6,11.47-7.17,17.65
				c-6.24,10.81-14.43,18.97-19.05,18.97c-0.55,0-1.04-0.12-1.45-0.36c-3.53-2.04-2.02-13.4,5.87-27.06
				C78.28,77.86,86.47,69.71,91.09,69.71 M91.09,69.13c-4.81,0-13,7.9-19.56,19.26c-7.44,12.89-9.97,25.36-5.65,27.86
				c0.51,0.3,1.1,0.44,1.74,0.44c4.81,0,13-7.9,19.56-19.26c7.44-12.89,9.97-25.36,5.65-27.86C92.32,69.27,91.73,69.13,91.09,69.13
				L91.09,69.13z"/>
		</g>
		<g id="XMLID_5640_">
			<path d="M133.91,69.71L133.91,69.71c4.62,0,12.81,8.16,19.05,18.97c7.89,13.66,9.4,25.02,5.87,27.06
				c-0.41,0.24-0.9,0.36-1.45,0.36c-4.62,0-12.81-8.15-19.05-18.97c-7.89-13.66-9.4-25.02-5.87-27.06
				C132.88,69.83,133.37,69.71,133.91,69.71 M133.91,69.13c-0.64,0-1.23,0.14-1.74,0.44c-4.32,2.49-1.79,14.97,5.65,27.86
				c6.56,11.37,14.75,19.26,19.56,19.26c0.64,0,1.23-0.14,1.74-0.44c4.32-2.49,1.79-14.97-5.65-27.86
				C146.91,77.02,138.72,69.13,133.91,69.13L133.91,69.13z"/>
		</g>
		<g id="XMLID_5638_">
			<path d="M112.5,143.56c12.62,0,21.09,3.5,21.09,6.76c0,3.26-8.48,6.76-21.09,6.76s-21.09-3.5-21.09-6.76
				C91.41,147.05,99.88,143.56,112.5,143.56 M112.5,143.09c-11.91,0-21.56,3.24-21.56,7.23c0,3.99,9.65,7.23,21.56,7.23
				s21.56-3.24,21.56-7.23C134.06,146.33,124.41,143.09,112.5,143.09L112.5,143.09z"/>
		</g>
		<g id="XMLID_5636_">
			<path d="M88.74,74.35L88.74,74.35c0.44,0,0.83,0.1,1.16,0.29c1.46,0.84,1.84,3.59,1.04,7.53c-0.84,4.16-2.88,9.18-5.74,14.12
				c-4.99,8.65-11.55,15.18-15.24,15.18c-0.44,0-0.83-0.1-1.16-0.29c-1.46-0.84-1.84-3.59-1.04-7.53c0.84-4.16,2.88-9.18,5.74-14.12
				C78.49,80.87,85.05,74.35,88.74,74.35 M88.74,73.88c-3.85,0-10.4,6.32-15.65,15.41c-5.95,10.31-7.98,20.29-4.52,22.28
				c0.41,0.24,0.88,0.35,1.39,0.35c3.85,0,10.4-6.32,15.65-15.41c5.95-10.31,7.98-20.29,4.52-22.28
				C89.72,74,89.26,73.88,88.74,73.88L88.74,73.88z"/>
		</g>
		<g id="XMLID_5634_">
			<path d="M136.26,74.35L136.26,74.35c3.69,0,10.25,6.52,15.24,15.18c2.85,4.94,4.89,9.96,5.74,14.12c0.8,3.94,0.42,6.68-1.04,7.53
				c-0.33,0.19-0.72,0.29-1.16,0.29c-3.69,0-10.25-6.52-15.24-15.18c-2.85-4.94-4.89-9.96-5.74-14.12c-0.8-3.94-0.42-6.68,1.04-7.53
				C135.43,74.45,135.82,74.35,136.26,74.35 M136.26,73.88c-0.52,0-0.98,0.11-1.39,0.35c-3.46,2-1.43,11.97,4.52,22.28
				c5.25,9.09,11.8,15.41,15.65,15.41c0.52,0,0.98-0.11,1.39-0.35c3.46-2,1.43-11.97-4.52-22.28
				C146.66,80.2,140.11,73.88,136.26,73.88L136.26,73.88z"/>
		</g>
		<g id="XMLID_5632_">
			<path d="M112.5,144.91c10.09,0,16.87,2.8,16.87,5.41s-6.78,5.41-16.87,5.41s-16.87-2.8-16.87-5.41S102.41,144.91,112.5,144.91
				 M112.5,144.54c-9.53,0-17.25,2.59-17.25,5.78s7.72,5.78,17.25,5.78s17.25-2.59,17.25-5.78
				C129.75,147.13,122.03,144.54,112.5,144.54L112.5,144.54z"/>
		</g>
		<g id="XMLID_5630_">
			<path d="M86.86,78.06L86.86,78.06c0.35,0,0.66,0.08,0.93,0.23c1.17,0.68,1.47,2.87,0.84,6.02c-0.68,3.33-2.31,7.34-4.59,11.3
				c-4,6.92-9.24,12.14-12.19,12.14c-0.35,0-0.66-0.08-0.93-0.23c-1.17-0.68-1.47-2.87-0.84-6.02c0.68-3.33,2.31-7.34,4.59-11.3
				C78.66,83.28,83.91,78.06,86.86,78.06 M86.86,77.69c-3.08,0-8.32,5.05-12.52,12.33c-4.76,8.25-6.38,16.23-3.62,17.83
				c0.33,0.19,0.7,0.28,1.11,0.28c3.08,0,8.32-5.05,12.52-12.33c4.76-8.25,6.38-16.23,3.62-17.83
				C87.65,77.78,87.27,77.69,86.86,77.69L86.86,77.69z"/>
		</g>
		<g id="XMLID_5628_">
			<path d="M138.14,78.06L138.14,78.06c2.96,0,8.2,5.22,12.19,12.14c5.05,8.74,6.02,16.01,3.75,17.32
				c-0.26,0.15-0.58,0.23-0.93,0.23c-2.96,0-8.2-5.22-12.19-12.14c-5.05-8.74-6.02-16.01-3.75-17.32
				C137.48,78.14,137.79,78.06,138.14,78.06 M138.14,77.69c-0.41,0-0.79,0.09-1.11,0.28c-2.76,1.6-1.15,9.58,3.62,17.83
				c4.2,7.27,9.44,12.33,12.52,12.33c0.41,0,0.79-0.09,1.11-0.28c2.76-1.6,1.15-9.58-3.62-17.83
				C146.46,82.74,141.21,77.69,138.14,77.69L138.14,77.69z"/>
		</g>
		<path id="XMLID_5627_" d="M76.5,167.95c9.54,6.16,20.76,9.94,32.82,10.51c0.01,0,0.02,0,0.02,0c0.59,0.03,1.19,0.05,1.78,0.06
			c0.41,0.01,0.82,0.01,1.22,0.02c0.05,0,0.11,0,0.16,0c0.08,0,0.16,0,0.24,0c0.46,0,0.92-0.01,1.38-0.02c0.09,0,0.17,0,0.26-0.01
			c1.13-0.03,2.27-0.09,3.4-0.18c0.03,0,0.05,0,0.08-0.01c0.5-0.04,1-0.09,1.5-0.14c0.14-0.01,0.29-0.03,0.43-0.05
			c0.37-0.04,0.75-0.09,1.12-0.13c0.19-0.02,0.39-0.05,0.58-0.07c0.3-0.04,0.6-0.09,0.9-0.13c11.73-1.75,22.46-6.56,31.34-13.59
			c0.1-0.08,0.19-0.15,0.29-0.23c0.43-0.34,0.86-0.69,1.28-1.05c0.2-0.17,0.4-0.34,0.6-0.51c0.36-0.31,0.71-0.62,1.06-0.93
			c0.41-0.37,0.81-0.74,1.21-1.12c0.15-0.14,0.3-0.28,0.45-0.42c0.34-0.32,0.67-0.65,1-0.98c0.05-0.05,0.09-0.09,0.14-0.14
			c0.36-0.37,0.73-0.73,1.08-1.11c-0.01,0-0.01,0.01-0.02,0.01c0.66-0.7,1.31-1.41,1.94-2.14c-0.99,1.06-2.28,2.08-3.82,3.04
			c-0.01,0.01-0.02,0.01-0.04,0.02c0,0-0.01,0-0.01,0c-8.14,3.54-17.79,3.32-26.07-1.46c-9.08-5.24-14.24-14.66-14.47-24.42
			c-0.02-0.96,0-1.93,0.08-2.89c0.32-4.18,1.56-8.36,3.8-12.23c2.75-4.77,6.66-8.47,11.17-10.92c8.57-4.68,19.31-4.92,28.39,0.32
			c8.28,4.78,13.3,13.03,14.3,21.85c-0.03,0.9-0.1,1.75-0.22,2.55c0,0.02-0.01,0.04-0.01,0.06c-0.06,0.38-0.13,0.75-0.2,1.11
			c-0.01,0.03-0.01,0.06-0.02,0.08c-0.08,0.35-0.17,0.69-0.26,1.02c-0.05,0.16-0.1,0.33-0.16,0.49c0.06-0.15,0.11-0.29,0.16-0.44
			c0.31-0.91,0.61-1.82,0.88-2.73c0.78-2.61,1.39-5.28,1.84-8.01c0.01-0.07,0.02-0.14,0.03-0.21c0.08-0.5,0.16-1,0.23-1.5
			c0.08-0.57,0.15-1.15,0.22-1.73c0.02-0.22,0.05-0.44,0.07-0.66c0.06-0.61,0.12-1.22,0.17-1.84c0.01-0.08,0.01-0.15,0.02-0.23
			c0.56-7.61-0.18-15.37-2.32-22.92c-0.04-0.15-0.08-0.3-0.13-0.45c-0.08-0.27-0.16-0.55-0.24-0.82c-0.08-0.27-0.17-0.55-0.25-0.82
			c-0.06-0.19-0.12-0.38-0.18-0.57c-0.14-0.44-0.29-0.88-0.45-1.32c-0.01-0.04-0.03-0.07-0.04-0.11c-1.75-4.96-4.08-9.64-6.89-13.98
			c-0.1-0.16-0.21-0.32-0.32-0.48c-0.15-0.23-0.31-0.46-0.46-0.69c-0.2-0.3-0.4-0.59-0.61-0.88c-0.02-0.03-0.04-0.06-0.06-0.09
			c-6.39-9.09-14.73-16.15-24.11-20.93c-0.21-0.11-0.43-0.22-0.64-0.33c-0.16-0.08-0.32-0.16-0.48-0.23
			c-0.36-0.18-0.73-0.35-1.09-0.52c-0.07-0.03-0.13-0.06-0.2-0.09c-3.95-1.82-8.11-3.27-12.43-4.3c-0.76-0.18-1.53-0.35-2.31-0.5
			c-0.17-0.03-0.33-0.07-0.5-0.1c0.02,0.01,0.05,0.01,0.08,0.02c-0.19-0.04-0.38-0.08-0.57-0.11c1.56,0.29,3.26,0.94,5.08,1.91
			c7.11,5.25,11.74,13.68,11.78,23.19c0,0.04,0,0.08,0,0.11c0,10.48-5.57,19.67-13.91,24.75c-4.39,2.67-9.54,4.21-15.05,4.21
			c-5.51,0-10.66-1.54-15.05-4.21c-8.34-5.08-13.92-14.27-13.92-24.75c0-0.89,0.04-1.78,0.12-2.65c0.77-8.46,5.18-15.87,11.65-20.65
			c1.81-0.97,3.52-1.62,5.08-1.91c-0.14,0.03-0.29,0.06-0.43,0.08c0.13-0.03,0.26-0.06,0.39-0.09c-0.16,0.03-0.31,0.05-0.46,0.08
			c-0.94,0.18-1.88,0.39-2.81,0.61c-0.33,0.08-0.65,0.17-0.98,0.25c-0.21,0.05-0.42,0.11-0.63,0.16c-0.36,0.09-0.71,0.19-1.07,0.29
			c-0.52,0.15-1.04,0.3-1.55,0.46c-0.25,0.08-0.49,0.15-0.74,0.23c-0.6,0.19-1.2,0.39-1.79,0.6c-0.08,0.03-0.17,0.06-0.25,0.09
			c-0.67,0.24-1.33,0.49-1.98,0.75c-0.04,0.01-0.08,0.03-0.11,0.04c-0.73,0.29-1.46,0.6-2.18,0.91c0,0-0.01,0-0.01,0.01
			c-3.31,1.46-6.49,3.17-9.49,5.13c-9.35,6.06-16.71,14.13-21.84,23.31c-0.02,0.04-0.04,0.07-0.06,0.11
			c-0.18,0.32-0.35,0.63-0.52,0.95c-0.12,0.22-0.24,0.45-0.35,0.67c-0.07,0.13-0.14,0.27-0.21,0.4c-3.45,6.72-5.8,14.1-6.78,21.91
			c-0.02,0.17-0.04,0.34-0.06,0.51c-0.03,0.25-0.06,0.5-0.09,0.75c-0.78,7.12-0.41,14.4,1.18,21.56c0.01,0.03,0.01,0.06,0.02,0.09
			c0.16,0.71,0.33,1.42,0.51,2.12c0.03,0.13,0.07,0.26,0.1,0.39c0.15,0.58,0.31,1.16,0.49,1.74c0.03,0.1,0.05,0.19,0.08,0.29
			c0,0,0,0,0-0.01c0,0,0,0,0,0c0.32,1.07,0.67,2.15,1.05,3.21c-0.53-1.5-0.82-3.3-0.89-5.35c0.17-1.55,0.47-3.07,0.89-4.57
			c1.97-7.04,6.58-13.34,13.41-17.28c9.08-5.24,19.81-5.01,28.39-0.32c4.51,2.46,8.42,6.15,11.17,10.92c2.75,4.77,4,10,3.87,15.14
			c-0.04,1.52-0.19,3.04-0.46,4.53c-1.48,8.07-6.35,15.46-14.01,19.88c-8.28,4.78-17.94,5.01-26.07,1.46
			c-1.75-1.08-3.16-2.24-4.2-3.44c0.11,0.13,0.23,0.26,0.34,0.39c0,0,0,0,0,0c0.01,0.01,0.02,0.02,0.03,0.03
			c0.62,0.72,1.25,1.42,1.89,2.1c3.41,3.62,7.19,6.79,11.23,9.5c0.09,0.06,0.18,0.12,0.27,0.18
			C75.95,167.59,76.22,167.77,76.5,167.95z"/>
	</g>
</g>
</svg>
