<?xml version="1.0" encoding="utf-8"?>
<!-- Generator: Adobe Illustrator 26.2.1, SVG Export Plug-In . SVG Version: 6.00 Build 0)  -->
<svg version="1.1" xmlns="http://www.w3.org/2000/svg" xmlns:xlink="http://www.w3.org/1999/xlink" x="0px" y="0px"
	 viewBox="0 0 225 225" style="enable-background:new 0 0 225 225;" xml:space="preserve">
<style type="text/css">
	.st0{display:none;}
	.st1{display:inline;fill:#FAB433;}
	.st2{fill:none;}
	.st3{fill:none;stroke:#000000;stroke-width:1.6;stroke-miterlimit:10;}
	.st4{fill:none;stroke:#000000;stroke-width:0.7265;stroke-miterlimit:10;}
	.st5{fill:none;stroke:#000000;stroke-linecap:round;stroke-linejoin:round;stroke-miterlimit:10;}
	.st6{fill:none;stroke:#000000;stroke-miterlimit:10;}
	.st7{fill:none;stroke:#000000;stroke-width:0.7105;stroke-miterlimit:10;}
	.st8{fill:none;stroke:#000000;stroke-width:5.4;stroke-linecap:round;stroke-linejoin:round;stroke-miterlimit:10;}
	.st9{fill:none;stroke:#000000;stroke-width:2.9309;stroke-linecap:round;stroke-linejoin:round;stroke-miterlimit:10;}
	.st10{fill:none;stroke:#000000;stroke-width:0.5;stroke-linecap:round;stroke-linejoin:round;}
	.st11{fill:none;stroke:#FFFFFF;stroke-width:0;stroke-linecap:round;stroke-linejoin:round;}
	.st12{fill:#FFFFFF;}
	.st13{fill:none;stroke:#000000;stroke-width:1.4;stroke-miterlimit:10;}
	.st14{fill:url(#);stroke:#000000;stroke-width:1.4387;stroke-miterlimit:10;}
	.st15{fill:url(#);stroke:#000000;stroke-width:1.3718;stroke-miterlimit:10;}
	.st16{fill:none;stroke:#000000;stroke-width:1.0041;stroke-miterlimit:10;}
	.st17{fill:none;stroke:#000000;stroke-width:1.3621;stroke-miterlimit:10;}
	.st18{fill:none;stroke:#000000;stroke-width:0.25;stroke-miterlimit:10;}
</style>
<g id="Layer_2" class="st0">
	
		<rect id="XMLID_00000049924193275795927410000016330201882968263580_" x="-590.99" y="-30.01" class="st1" width="1160" height="772"/>
</g>
<g id="Layer_1">
	<g id="XMLID_00000137098120463914600220000018028275788575953046_">
		<path id="XMLID_00000003096430757912310970000005485126817123772801_" d="M115.47,46.48c-0.05-0.02-0.09-0.03-0.12-0.04
			c-0.03-0.01-0.03-0.01,0,0C115.38,46.45,115.41,46.46,115.47,46.48c0.12,0.04,0.26,0.09,0.22,0.07c7.74,2.66,14.73,7.55,19.79,14
			l0.24,0.31c8.05,10.54,10.86,24.42,7.36,37.23c-2.91,10.64-9.95,19.91-19.44,25.53c17.05-4.96,29.32-20.99,29.32-38.82v-0.02
			c0-3.45-0.47-6.91-1.34-10.25c0-0.01,0-0.02-0.01-0.03c-3.16-12-12.05-22.35-23.58-27.06c-5.01-1.2-10.14-1.78-15.28-1.79
			c0.99,0.27,1.98,0.57,2.94,0.9C115.6,46.52,115.53,46.5,115.47,46.48z"/>
		<path id="XMLID_00000064323678681379657360000015402718412480259734_" d="M89.56,50.37C89.63,50.37,89.61,50.37,89.56,50.37
			c1.13-0.09,2.26-0.14,3.38-0.14v0c1.85,0,3.67,0.21,5.5,0.36c0,0,0,0,0.01,0c5.41,0.71,10.73,2.47,15.48,5.17l0.11,0.06
			c10.12,5.62,17.62,15.72,20.34,26.94c2.98,12.28,0.31,25.81-7.42,35.86c7.89-6.16,13.24-15.38,14.86-25.24
			c1.81-11-1.14-22.44-7.94-31.26l-0.32-0.42c-7.55-9.42-19.31-15.17-31.39-15.26c-5.14,0.8-10.24,2.19-15.06,4.16
			C87.92,50.51,88.74,50.44,89.56,50.37C89.42,50.39,89.07,50.41,89.56,50.37z"/>
		<path id="XMLID_00000071559327449202137660000015268106432135613623_" d="M173.43,139.25
			C173.25,139.47,173.36,139.34,173.43,139.25c-1.3,1.61-2.73,3.11-4.25,4.52l-0.01,0.01c-0.61,0.56-1.23,1.1-1.86,1.63
			c0,0-0.01,0-0.01,0.01c-11.69,9.59-27.98,12.41-42.18,7.03c-14.42-5.46-25.05-18.75-27.18-34.02
			c-1.97,16.48,6.8,32.99,21.54,40.59c15.38,7.93,34.63,5.04,46.98-7.09c3.1-4.24,5.72-8.82,7.75-13.68
			C173.96,138.58,173.7,138.92,173.43,139.25C173.47,139.2,173.49,139.18,173.43,139.25z"/>
		<path id="XMLID_00000062887520798362787360000013626322809476535479_" d="M172.15,107.59
			C172.21,107.43,172.1,107.74,172.15,107.59c-6.04,16.69-22.37,27.99-40.07,27.99h0c-8.03,0-16.21-2.28-22.95-6.69
			c-0.96-0.58-1.86-1.26-2.77-1.93c10.86,13.45,29.25,18.9,45.61,12.93c15.73-5.74,26.49-21.16,26.57-37.88
			c-0.81-5.1-2.21-10.12-4.17-14.89C175.32,93.97,174.51,101.09,172.15,107.59z"/>
		<path id="XMLID_00000147197426186074813290000009182160585753285269_" d="M179.25,113.09
			C179.04,113.83,179.21,113.21,179.25,113.09c-4.72,17.12-19.85,29.83-37.57,31.35c-16.14,1.38-32.16-6.91-40.35-20.87
			c4.9,17.2,20.99,29.39,38.87,29.39c16.12,0,31.16-10.02,37.35-24.91c1.2-5.03,1.82-10.2,1.83-15.37
			C179.34,112.81,179.28,112.95,179.25,113.09z"/>
		<path id="XMLID_00000174579955817969560980000017264164161555962044_" d="M161.06,67.46C161.09,67.52,161.08,67.51,161.06,67.46
			c7.09,13.99,6.02,30.98-2.97,43.87c-7.92,11.36-21.15,18.26-35,18.26h0c-3.6,0-7.19-0.49-10.68-1.37
			c13.37,7.4,30.25,6.68,42.81-2.11c13.34-9.34,19.85-26.16,16.32-42.05l0-0.02c-0.5-2.23-1.19-4.44-2.07-6.56
			c-2.69-4.38-5.89-8.39-9.51-12.04c0.38,0.66,0.74,1.33,1.09,2.01C160.99,67.32,160.85,67.05,161.06,67.46z"/>
		<path id="XMLID_00000106107715548597437400000015917358782755774618_" d="M152.6,70.19C149.81,62.5,152.61,70.2,152.6,70.19
			c1.81,4.53,2.58,9.7,2.58,14.56v0.09l0,0.04v0.06h0v0.34l-0.01,0.01c0,3.47-0.5,6.99-1.37,10.34c-0.67,2.24-1.28,4.62-2.37,6.7
			c-0.48,1.05-1,2.1-1.56,3.11c-0.01,0.01-0.01,0.03-0.02,0.04c-6.49,11.63-18.24,19.72-31.42,21.59
			c17.73,2.02,35.03-7.97,41.96-24.47l0.05-0.12c6.18-14.88,2.77-32.45-8.51-43.94c-4.22-3.09-8.83-5.72-13.66-7.74
			C144.85,55.76,149.81,62.5,152.6,70.19z"/>
		<path id="XMLID_00000150083619863820008030000014841183091043804574_" d="M63.96,157.57c-5.69-11.06-6.26-24.32-1.49-35.81
			l0.08-0.2c8.14-19.28,29.72-30.08,50.05-24.78c-13.45-7.52-30.61-6.63-43.16,2.36c-6.63,4.75-11.61,11.37-14.47,18.99
			c-2.63,7-3.49,15.57-1.51,22.84c0.5,2.23,1.19,4.45,2.06,6.56c2.69,4.38,5.9,8.39,9.52,12.04
			C64.65,158.92,64.3,158.24,63.96,157.57C64.24,158.13,63.83,157.32,63.96,157.57z"/>
		<path id="XMLID_00000068667601062866936920000013618741191851175066_" d="M50.27,130.96c0.12-4.6,0.97-9.24,2.57-13.56
			c-0.06,0.16,0.05-0.14,0,0c4.8-13.31,16.4-23.6,30.15-26.84c12.17-2.87,25.26-0.23,35.29,7.22l0.15,0.11
			c0.07,0.05,0.14,0.09,0.2,0.14C108.38,84.93,90.41,79.5,74.59,84.57c-16.54,5.32-28.08,21.02-28.13,38.42
			c0.81,5.1,2.21,10.12,4.17,14.9c-0.3-2.28-0.41-4.56-0.36-6.85C50.27,131.01,50.27,130.99,50.27,130.96z"/>
		<path id="XMLID_00000173847720959349262950000006908136952737443257_" d="M135.45,174.62
			C135.42,174.62,135.43,174.62,135.45,174.62c-1.12,0.09-2.23,0.14-3.35,0.14h0c-1.84,0-3.68-0.12-5.5-0.36c-0.01,0-0.02,0-0.03,0
			c-4.62-0.59-8.85-2.09-13.1-3.91c-0.79-0.4-1.59-0.8-2.36-1.24c-0.01,0-0.01-0.01-0.02-0.01l-0.03-0.02
			c-0.01,0-0.02-0.01-0.03-0.02l-0.07-0.04v0c-10.01-6.26-17.52-15.3-20.34-26.94c-3.01-12.43-0.19-25.63,7.42-35.86
			c-7.85,6.28-13.22,15.28-14.86,25.23c-1.81,10.99,1.12,22.46,7.94,31.26l0.07,0.09c2,2.38,4.07,4.63,6.5,6.58
			c0,0,0.01,0.01,0.01,0.01c7.13,5.72,16.13,8.96,25.28,9c5.11-0.81,10.13-2.21,14.91-4.17
			C137.08,174.48,136.26,174.56,135.45,174.62C135.54,174.61,136.01,174.58,135.45,174.62z"/>
		<path id="XMLID_00000163056999793380228820000013312754940875439751_" d="M109.14,178.39c-7.66-2.61-14.61-7.57-19.61-13.93
			l-0.2-0.27c-8.1-10.52-10.92-24.48-7.41-37.3c2.91-10.64,9.94-19.9,19.44-25.52c-15.08,4.38-26.62,17.47-28.87,33.05
			c-2.5,16.99,6.41,33.85,21.56,41.77c0.94,0.49,1.92,0.96,2.91,1.36c5.01,1.2,10.14,1.78,15.29,1.79
			C111.21,179.07,110.17,178.75,109.14,178.39C110.09,178.72,109.1,178.38,109.14,178.39z"/>
		<path id="XMLID_00000036221657081053641470000000982920158833895047_" d="M85.05,172.89C84.66,172.57,84.91,172.78,85.05,172.89
			c-9.59-8.04-15.21-20.15-15.23-32.64v-0.34c0-0.01,0-0.02,0-0.02h0v-0.01h0c0-20.85,16.2-39.07,36.74-41.94
			c-17.68-2.04-34.99,7.98-41.92,24.4l-0.1,0.22c-6.12,14.87-2.75,32.42,8.54,43.91c4.2,3.07,8.76,5.69,13.56,7.7
			C86.1,173.77,85.57,173.33,85.05,172.89C85.1,172.94,85.12,172.96,85.05,172.89z"/>
		<path id="XMLID_00000107557267424672458800000002989166376713479308_" d="M67.26,64.05C67.24,64.06,67.23,64.06,67.26,64.05
			c0.02-0.01,0.08-0.04,0.2-0.1c0.06-0.03,0.04-0.02,0,0c14.7-7.5,32.85-5.82,45.85,4.4c13.03,10.23,19.21,28.05,14.93,44.12
			c5.81-10.57,6.69-23.74,2.02-34.92c-2.35-5.62-5.84-10.72-10.39-14.78c-2.43-2.17-5.1-4.01-7.98-5.54
			c-2.22-1.18-4.92-2.62-7.43-3.04c-8.83-2.63-18.46-2.17-26.99,1.35c-4.39,2.71-8.41,5.92-12.07,9.54
			c0.67-0.39,1.36-0.76,2.05-1.11C67.4,63.98,67.3,64.03,67.26,64.05z"/>
		<path id="XMLID_00000024698995636260970070000014774437981149506734_" d="M47.17,107.45c0.01-0.03,0.03-0.07,0.04-0.1
			c0.01-0.03,0.01-0.04,0.02-0.05c0.03-0.06,0.03-0.08,0,0c-0.01,0.02-0.01,0.03-0.02,0.05C47.2,107.37,47.18,107.42,47.17,107.45
			c-0.04,0.1-0.07,0.19-0.06,0.16c6.13-15.79,21.63-26.7,38.57-27.18c15.35-0.44,30.21,7.75,37.98,21
			c-4.77-17-20.7-29.15-38.34-29.37c-16.34-0.21-31.59,9.84-37.88,24.91c-1.19,4.97-1.79,10.11-1.82,15.22
			c0.41-1.55,0.91-3.08,1.49-4.58C47.14,107.54,47.15,107.5,47.17,107.45z"/>
		<path id="XMLID_00000124856219364333810790000009547127034315722893_" d="M51.34,86.03C61.79,72.82,79.57,66.9,95.87,71.25
			c16.16,4.32,28.55,18.26,31.1,34.75c0.03,0.19,0.05,0.37,0.08,0.56c2.01-16.48-6.81-33-21.54-40.59
			c-15.39-7.93-34.64-5.04-46.98,7.1c-3.1,4.24-5.72,8.83-7.75,13.68C50.98,86.52,51.16,86.28,51.34,86.03
			C51.37,86,51.36,86.01,51.34,86.03z"/>
		<path id="XMLID_00000092445196724980778410000017282573295689940374_" d="M156.74,161.45c-14.94,7.15-32.98,5.18-45.82-5.4
			c-6.04-4.97-10.62-11.64-13.17-19.03c-2.62-7.59-3.4-16.7-1.01-24.48c-8.09,14.7-6.12,33.46,4.88,46.15
			c11.21,12.94,30.11,17.3,45.89,10.79c4.4-2.7,8.42-5.92,12.08-9.55C158.68,160.48,157.71,160.98,156.74,161.45
			C156.67,161.48,157.69,160.99,156.74,161.45z"/>
	</g>
</g>
</svg>
