<?xml version="1.0" encoding="utf-8"?>
<!-- Generator: Adobe Illustrator 26.2.1, SVG Export Plug-In . SVG Version: 6.00 Build 0)  -->
<svg version="1.1" xmlns="http://www.w3.org/2000/svg" xmlns:xlink="http://www.w3.org/1999/xlink" x="0px" y="0px"
	 viewBox="0 0 225 225" style="enable-background:new 0 0 225 225;" xml:space="preserve">
<style type="text/css">
	.st0{display:none;}
	.st1{display:inline;fill:#FAB433;}
	.st2{fill:none;}
	.st3{fill:none;stroke:#000000;stroke-width:1.6;stroke-miterlimit:10;}
	.st4{fill:none;stroke:#000000;stroke-width:0.7265;stroke-miterlimit:10;}
	.st5{fill:none;stroke:#000000;stroke-linecap:round;stroke-linejoin:round;stroke-miterlimit:10;}
	.st6{fill:none;stroke:#000000;stroke-miterlimit:10;}
	.st7{fill:none;stroke:#000000;stroke-width:0.7105;stroke-miterlimit:10;}
	.st8{fill:none;stroke:#000000;stroke-width:5.4;stroke-linecap:round;stroke-linejoin:round;stroke-miterlimit:10;}
	.st9{fill:none;stroke:#000000;stroke-width:2.9309;stroke-linecap:round;stroke-linejoin:round;stroke-miterlimit:10;}
	.st10{fill:none;stroke:#000000;stroke-width:0.5;stroke-linecap:round;stroke-linejoin:round;}
	.st11{fill:none;stroke:#FFFFFF;stroke-width:0;stroke-linecap:round;stroke-linejoin:round;}
	.st12{fill:#FFFFFF;}
	.st13{fill:none;stroke:#000000;stroke-width:1.4;stroke-miterlimit:10;}
	.st14{fill:url(#);stroke:#000000;stroke-width:1.4387;stroke-miterlimit:10;}
	.st15{fill:url(#);stroke:#000000;stroke-width:1.3718;stroke-miterlimit:10;}
	.st16{fill:none;stroke:#000000;stroke-width:1.0041;stroke-miterlimit:10;}
	.st17{fill:none;stroke:#000000;stroke-width:1.3621;stroke-miterlimit:10;}
	.st18{fill:none;stroke:#000000;stroke-width:0.25;stroke-miterlimit:10;}
</style>
<g id="Layer_2" class="st0">
	
		<rect id="XMLID_00000049924193275795927410000016330201882968263580_" x="-100.99" y="-30.01" class="st1" width="1160" height="772"/>
</g>
<g id="Layer_1">
	<path id="XMLID_00000033346729548320589460000007519355691920421023_" d="M45.63,113.19v0.07c0.06,4.23,0.68,8.32,1.77,12.2
		c1.18,4.22,2.94,8.2,5.17,11.86c2.22,3.64,4.91,6.96,7.99,9.88l0,0c2.98,2.83,6.33,5.27,9.97,7.25h0
		c3.44,1.88,7.14,3.35,11.03,4.34c3.57,0.91,7.3,1.42,11.15,1.47c0,0,0,0,0,0c0.23,0,0.45,0,0.67,0c3.36,0,6.64-0.35,9.81-1.01
		c3.23-0.67,6.34-1.67,9.3-2.97c2.76-1.21,5.39-2.66,7.85-4.35c2.26-1.55,4.38-3.29,6.34-5.19c1.79-1.74,3.45-3.62,4.95-5.62
		c1.37-1.83,2.61-3.76,3.72-5.78c1.02-1.86,1.91-3.79,2.67-5.79v0c0.71-1.86,1.31-3.78,1.79-5.75c0,0,0,0,0,0
		c0.45-1.85,0.79-3.74,1.01-5.67c-0.51,1.79-1.12,3.57-1.85,5.33c-0.73,1.76-1.55,3.46-2.46,5.08c-0.94,1.69-1.98,3.31-3.11,4.85
		c0,0,0,0,0,0.01c-1.19,1.63-2.47,3.17-3.85,4.61l0,0c-1.47,1.56-3.03,3-4.68,4.33c-1.79,1.45-3.68,2.76-5.65,3.92
		c-2.15,1.27-4.4,2.38-6.72,3.3h0c-2.54,1.01-5.16,1.81-7.84,2.37c-2.92,0.62-5.9,0.96-8.91,1.02c-3.23,0.06-6.49-0.21-9.73-0.82
		c-3.18-0.6-6.34-1.53-9.45-2.82c-0.21-0.09-0.41-0.17-0.62-0.26c-3.53-1.52-6.78-3.41-9.74-5.62c-3.21-2.4-6.07-5.17-8.53-8.23
		c-2.61-3.23-4.77-6.77-6.44-10.53c-1.73-3.87-2.95-7.97-3.6-12.18v-0.01c-0.66-4.24-0.76-8.6-0.23-12.96
		c0.45-3.83,1.39-7.67,2.83-11.43c-1.65,4.21-2.88,8.57-3.65,13.05c-0.05,0.31-0.1,0.62-0.16,0.93c-0.06,0.35-0.11,0.71-0.16,1.06
		c-0.05,0.35-0.1,0.71-0.14,1.07c-0.31,2.49-0.48,5.03-0.5,7.6c0,0.23-0.01,0.46-0.01,0.69C45.63,112.73,45.63,112.96,45.63,113.19z
		 M100.32,173.76c4.11-0.11,8.2-0.75,12.18-1.92l0,0c3.76-1.1,7.41-2.68,10.86-4.73c3.17-1.88,6.17-4.16,8.92-6.84c0,0,0,0,0,0
		c0.16-0.16,0.32-0.32,0.48-0.48c2.38-2.38,4.45-4.94,6.22-7.65c1.81-2.76,3.3-5.67,4.48-8.67c1.1-2.8,1.92-5.69,2.47-8.62
		c0.5-2.69,0.78-5.42,0.82-8.15c0.04-2.5-0.12-5-0.48-7.47c-0.32-2.27-0.81-4.51-1.46-6.71c-0.6-2.03-1.33-4.03-2.2-5.98l0,0
		c-0.81-1.82-1.74-3.6-2.8-5.33c0,0,0,0,0,0c-0.99-1.63-2.09-3.2-3.29-4.73c0.91,1.63,1.73,3.32,2.46,5.08
		c0.73,1.76,1.35,3.54,1.85,5.34c0.53,1.87,0.94,3.74,1.23,5.63c0,0,0,0,0,0.01c0.31,1.99,0.49,3.99,0.54,5.98v0
		c0.06,2.14-0.02,4.26-0.25,6.37c-0.24,2.29-0.65,4.55-1.23,6.77c-0.62,2.42-1.43,4.79-2.42,7.08l0,0
		c-1.08,2.51-2.37,4.92-3.87,7.22c-1.63,2.5-3.49,4.85-5.58,7.02c-2.24,2.33-4.73,4.44-7.46,6.3c-2.67,1.82-5.57,3.4-8.67,4.68
		c-0.21,0.09-0.42,0.17-0.62,0.25c-3.57,1.42-7.21,2.38-10.86,2.91c-3.97,0.57-7.95,0.63-11.85,0.21c-4.13-0.44-8.16-1.42-12-2.89
		c-3.96-1.51-7.72-3.55-11.16-6.07l-0.01-0.01c-3.47-2.53-6.62-5.54-9.33-9c-2.39-3.03-4.44-6.4-6.08-10.08
		c1.81,4.14,4.03,8.1,6.64,11.81c0.18,0.26,0.36,0.51,0.55,0.77c0.21,0.29,0.42,0.58,0.64,0.86c0.22,0.29,0.43,0.57,0.65,0.85
		c1.55,1.98,3.22,3.89,5.02,5.73c0.16,0.16,0.32,0.33,0.48,0.49c0.16,0.16,0.33,0.32,0.49,0.49l0.05,0.05
		c3.03,2.94,6.36,5.4,9.88,7.38c3.82,2.14,7.87,3.72,12.04,4.73C91.82,173.43,96.07,173.87,100.32,173.76L100.32,173.76z
		 M147.2,164.43c2.82-2.98,5.27-6.33,7.25-9.97v0c1.88-3.44,3.35-7.14,4.33-11.02c0.91-3.57,1.42-7.31,1.47-11.15c0,0,0,0,0,0
		c0-0.22,0-0.45,0-0.67c0-3.36-0.35-6.64-1.01-9.81c-0.67-3.23-1.67-6.34-2.97-9.3c-1.2-2.76-2.67-5.39-4.35-7.85
		c-1.55-2.26-3.29-4.38-5.19-6.34c-1.74-1.79-3.62-3.45-5.62-4.95c-1.83-1.37-3.76-2.61-5.78-3.72c-1.86-1.02-3.79-1.91-5.79-2.67h0
		c-1.86-0.71-3.78-1.32-5.75-1.79c0,0,0,0,0,0c-1.85-0.45-3.74-0.79-5.67-1.01c1.79,0.5,3.57,1.12,5.33,1.85
		c1.76,0.73,3.46,1.55,5.08,2.46c1.69,0.95,3.31,1.99,4.85,3.11c0,0,0,0,0.01,0c1.63,1.19,3.17,2.48,4.61,3.84l0,0
		c1.56,1.47,3,3.03,4.33,4.68c1.45,1.79,2.76,3.68,3.92,5.65c1.28,2.15,2.38,4.4,3.3,6.71v0c1.01,2.54,1.81,5.16,2.37,7.84
		c0.61,2.92,0.96,5.9,1.02,8.91c0.06,3.23-0.2,6.49-0.82,9.73c-0.6,3.18-1.53,6.34-2.82,9.44c-0.09,0.21-0.17,0.41-0.26,0.62
		c-1.52,3.53-3.41,6.79-5.62,9.74c-2.4,3.21-5.17,6.07-8.23,8.53c-3.23,2.61-6.77,4.77-10.53,6.44c-3.87,1.73-7.97,2.94-12.18,3.6
		h-0.01c-4.24,0.66-8.6,0.76-12.95,0.23c-3.83-0.46-7.67-1.39-11.42-2.83c4.2,1.65,8.57,2.88,13.05,3.65
		c0.31,0.05,0.62,0.11,0.93,0.16c0.35,0.06,0.71,0.11,1.06,0.16c0.35,0.05,0.71,0.1,1.06,0.14c2.49,0.31,5.03,0.48,7.6,0.5
		c0.23,0,0.46,0.01,0.69,0.01c0.23,0,0.46,0,0.69-0.01h0.07c4.23-0.07,8.32-0.68,12.2-1.77c4.22-1.19,8.2-2.94,11.86-5.17
		C140.96,170.21,144.28,167.52,147.2,164.43L147.2,164.43z M171.83,112.51L171.83,112.51c-1.1-3.76-2.68-7.42-4.73-10.86
		c-1.88-3.17-4.16-6.17-6.84-8.92c0,0,0,0,0,0c-0.16-0.16-0.32-0.32-0.48-0.48c-2.38-2.38-4.94-4.45-7.65-6.22
		c-2.76-1.81-5.67-3.3-8.67-4.48c-2.8-1.1-5.69-1.93-8.63-2.47c-2.69-0.51-5.42-0.77-8.15-0.82c-2.5-0.04-5,0.13-7.47,0.48
		c-2.27,0.32-4.51,0.81-6.71,1.46c-2.03,0.59-4.03,1.33-5.99,2.2l0,0c-1.82,0.81-3.6,1.74-5.33,2.79c0,0,0,0,0,0
		c-1.63,0.99-3.2,2.09-4.73,3.29c1.62-0.91,3.32-1.73,5.08-2.46c1.76-0.73,3.54-1.35,5.34-1.85c1.87-0.53,3.75-0.94,5.63-1.23
		c0,0,0,0,0.01,0c1.99-0.31,3.99-0.49,5.98-0.54h0c2.14-0.06,4.26,0.02,6.37,0.25c2.29,0.24,4.55,0.66,6.77,1.23
		c2.42,0.62,4.79,1.43,7.08,2.42l0,0c2.51,1.08,4.92,2.37,7.22,3.87c2.5,1.63,4.85,3.49,7.02,5.58c2.33,2.24,4.44,4.73,6.3,7.46
		c1.83,2.67,3.4,5.57,4.69,8.67c0.08,0.21,0.17,0.42,0.25,0.62c1.42,3.57,2.38,7.21,2.91,10.86c0.57,3.97,0.63,7.95,0.21,11.85
		c-0.44,4.13-1.42,8.16-2.89,12c-1.51,3.96-3.55,7.72-6.07,11.16l0,0.01c-2.53,3.47-5.54,6.61-9,9.32
		c-3.03,2.39-6.4,4.44-10.08,6.08c4.14-1.8,8.1-4.03,11.81-6.65c0.26-0.18,0.51-0.36,0.77-0.55c0.29-0.21,0.58-0.42,0.86-0.64
		c0.28-0.21,0.57-0.43,0.85-0.65c1.98-1.55,3.89-3.22,5.73-5.02c0.16-0.16,0.33-0.32,0.49-0.48c0.16-0.16,0.32-0.33,0.49-0.49
		l0.05-0.05c2.94-3.03,5.4-6.36,7.38-9.89c2.14-3.82,3.72-7.87,4.73-12.04c1.01-4.14,1.45-8.39,1.33-12.64l0-0.01
		C173.65,120.58,173.01,116.48,171.83,112.51z M164.43,77.8L164.43,77.8c-2.99-2.83-6.33-5.27-9.97-7.25h0
		c-3.44-1.88-7.14-3.35-11.03-4.34c-3.57-0.91-7.31-1.42-11.15-1.47h0c-0.22,0-0.45-0.01-0.67-0.01c-3.36,0-6.64,0.35-9.81,1.01
		c-3.23,0.68-6.34,1.67-9.3,2.97c-2.76,1.21-5.39,2.66-7.85,4.35c-2.26,1.55-4.38,3.28-6.34,5.19c-1.79,1.74-3.45,3.62-4.95,5.62
		c-1.37,1.83-2.61,3.76-3.72,5.78c-1.02,1.86-1.91,3.79-2.67,5.79v0c-0.71,1.86-1.31,3.78-1.79,5.75c0,0,0,0,0,0
		c-0.45,1.85-0.79,3.74-1.01,5.67c0.5-1.79,1.12-3.57,1.85-5.33c0.73-1.76,1.55-3.46,2.46-5.08c0.94-1.69,1.98-3.31,3.11-4.85
		c0,0,0,0,0-0.01c1.19-1.63,2.48-3.17,3.85-4.61l0,0c1.47-1.56,3.03-3,4.68-4.33c1.79-1.45,3.68-2.76,5.65-3.92
		c2.15-1.27,4.4-2.38,6.71-3.3h0c2.54-1.01,5.16-1.81,7.84-2.37c2.91-0.61,5.9-0.96,8.91-1.02c3.23-0.07,6.49,0.2,9.73,0.82
		c3.18,0.6,6.34,1.53,9.45,2.82c0.21,0.09,0.41,0.17,0.62,0.26c3.53,1.51,6.79,3.41,9.74,5.62c3.21,2.41,6.07,5.18,8.53,8.23
		c2.6,3.23,4.76,6.77,6.44,10.53c1.73,3.87,2.95,7.97,3.6,12.18v0.01c0.66,4.24,0.76,8.6,0.23,12.96
		c-0.46,3.83-1.39,7.67-2.83,11.42c1.65-4.2,2.88-8.57,3.65-13.05c0.05-0.31,0.1-0.62,0.16-0.93c0.06-0.35,0.11-0.71,0.16-1.06
		c0.05-0.35,0.1-0.71,0.14-1.06c0.31-2.49,0.48-5.03,0.5-7.6c0-0.23,0.01-0.46,0.01-0.69c0-0.23,0-0.46-0.01-0.69v-0.07
		c-0.06-4.23-0.68-8.31-1.77-12.21c-1.18-4.22-2.94-8.2-5.17-11.86C170.21,84.04,167.52,80.72,164.43,77.8z M124.68,51.24
		c-4.11,0.11-8.2,0.75-12.18,1.92l0,0c-3.76,1.1-7.41,2.68-10.86,4.73c-3.17,1.88-6.17,4.16-8.93,6.84c0,0,0,0,0,0
		c-0.16,0.16-0.32,0.32-0.48,0.48c-2.38,2.38-4.45,4.94-6.22,7.65c-1.81,2.76-3.3,5.67-4.48,8.67c-1.1,2.8-1.93,5.69-2.47,8.62
		c-0.5,2.7-0.77,5.42-0.82,8.15c-0.04,2.5,0.12,5,0.48,7.47c0.32,2.27,0.81,4.51,1.46,6.71c0.6,2.03,1.33,4.03,2.2,5.98l0,0
		c0.81,1.82,1.74,3.6,2.8,5.33c0,0,0,0,0,0c0.99,1.63,2.09,3.2,3.29,4.73c-0.91-1.63-1.73-3.32-2.46-5.08
		c-0.73-1.76-1.35-3.54-1.85-5.33c-0.53-1.87-0.94-3.75-1.23-5.63c0,0,0,0,0-0.01c-0.31-1.99-0.49-3.99-0.54-5.98v0
		c-0.06-2.14,0.02-4.26,0.25-6.37c0.24-2.29,0.65-4.55,1.23-6.77c0.62-2.42,1.43-4.79,2.42-7.08l0,0c1.08-2.51,2.37-4.93,3.87-7.22
		c1.63-2.5,3.49-4.85,5.58-7.02c2.24-2.33,4.73-4.44,7.46-6.3c2.67-1.82,5.57-3.4,8.67-4.68c0.21-0.09,0.42-0.17,0.62-0.25
		c3.57-1.42,7.21-2.39,10.86-2.91c3.97-0.57,7.95-0.64,11.85-0.21c4.13,0.44,8.16,1.42,12,2.89c3.96,1.51,7.72,3.55,11.16,6.07
		l0.01,0.01c3.46,2.53,6.61,5.54,9.32,9c2.39,3.03,4.44,6.4,6.08,10.08c-1.8-4.14-4.03-8.1-6.65-11.81
		c-0.18-0.26-0.36-0.51-0.55-0.77c-0.21-0.29-0.42-0.58-0.64-0.86c-0.21-0.29-0.43-0.57-0.65-0.85c-1.55-1.98-3.22-3.9-5.02-5.73
		c-0.16-0.16-0.32-0.33-0.49-0.49c-0.16-0.16-0.33-0.33-0.49-0.48l-0.05-0.05c-3.04-2.94-6.36-5.4-9.88-7.38
		c-3.82-2.14-7.88-3.72-12.04-4.73C133.18,51.57,128.93,51.13,124.68,51.24L124.68,51.24z M77.8,60.57
		c-2.83,2.98-5.27,6.33-7.25,9.97v0c-1.88,3.44-3.35,7.14-4.33,11.03c-0.91,3.57-1.42,7.3-1.47,11.15v0c0,0.22,0,0.45,0,0.67
		c0,3.36,0.35,6.64,1.01,9.81c0.67,3.23,1.67,6.34,2.97,9.3c1.2,2.76,2.67,5.39,4.35,7.85c1.55,2.26,3.29,4.38,5.19,6.34
		c1.74,1.79,3.62,3.45,5.62,4.95c1.83,1.37,3.76,2.62,5.78,3.72c1.86,1.02,3.79,1.91,5.79,2.67h0c1.86,0.71,3.78,1.31,5.75,1.79
		c0,0,0,0,0,0c1.85,0.45,3.74,0.79,5.67,1.01c-1.79-0.51-3.57-1.12-5.33-1.85c-1.76-0.73-3.46-1.55-5.08-2.46
		c-1.69-0.95-3.31-1.99-4.85-3.11c0,0,0,0,0,0c-1.63-1.19-3.17-2.47-4.62-3.85l0,0c-1.56-1.47-3-3.03-4.33-4.68
		c-1.45-1.79-2.76-3.68-3.92-5.65c-1.28-2.15-2.38-4.4-3.3-6.72v0c-1.01-2.54-1.8-5.16-2.37-7.84c-0.61-2.91-0.96-5.9-1.02-8.91
		c-0.06-3.23,0.21-6.49,0.82-9.73c0.6-3.18,1.53-6.34,2.82-9.44c0.09-0.21,0.17-0.41,0.26-0.62c1.52-3.53,3.41-6.78,5.62-9.74
		c2.41-3.21,5.17-6.07,8.23-8.53c3.23-2.61,6.77-4.77,10.53-6.45c3.87-1.73,7.97-2.95,12.18-3.6h0.01c4.24-0.66,8.6-0.76,12.96-0.23
		c3.83,0.45,7.67,1.39,11.42,2.83c-4.2-1.65-8.57-2.88-13.05-3.65c-0.31-0.05-0.62-0.1-0.93-0.15c-0.35-0.06-0.7-0.11-1.06-0.16
		c-0.35-0.05-0.71-0.1-1.07-0.14c-2.49-0.31-5.03-0.48-7.6-0.5c-0.23,0-0.46-0.01-0.69-0.01c-0.23,0-0.46,0-0.69,0.01h-0.07
		c-4.23,0.06-8.31,0.68-12.2,1.78c-4.22,1.18-8.2,2.93-11.86,5.17C84.04,54.79,80.72,57.48,77.8,60.57L77.8,60.57z M53.17,112.49
		L53.17,112.49c1.1,3.76,2.68,7.42,4.73,10.87c1.88,3.17,4.16,6.17,6.84,8.92c0,0,0,0,0,0c0.16,0.16,0.32,0.32,0.47,0.48
		c2.38,2.38,4.94,4.45,7.65,6.22c2.76,1.81,5.67,3.3,8.67,4.48c2.81,1.1,5.69,1.92,8.63,2.47c2.69,0.5,5.42,0.77,8.15,0.81
		c2.5,0.04,5-0.12,7.47-0.48c2.27-0.32,4.51-0.81,6.71-1.46c2.03-0.59,4.03-1.33,5.99-2.2l0,0c1.82-0.81,3.6-1.74,5.33-2.8l0,0
		c1.63-0.99,3.2-2.09,4.73-3.29c-1.62,0.91-3.32,1.73-5.08,2.46c-1.76,0.73-3.54,1.35-5.34,1.85c-1.87,0.53-3.74,0.94-5.63,1.23
		c0,0,0,0-0.01,0c-1.99,0.31-3.99,0.49-5.98,0.54h0c-2.14,0.06-4.27-0.02-6.37-0.25c-2.29-0.24-4.55-0.65-6.77-1.22
		c-2.42-0.62-4.79-1.43-7.08-2.42l0,0c-2.51-1.08-4.92-2.37-7.22-3.87c-2.5-1.63-4.85-3.49-7.02-5.58c-2.33-2.24-4.44-4.73-6.3-7.46
		c-1.82-2.67-3.4-5.57-4.68-8.67c-0.08-0.21-0.17-0.41-0.25-0.62c-1.42-3.57-2.38-7.21-2.91-10.86c-0.57-3.97-0.63-7.95-0.21-11.85
		c0.44-4.13,1.42-8.16,2.89-12c1.51-3.96,3.55-7.72,6.07-11.16l0.01-0.01c2.53-3.47,5.54-6.61,9-9.32c3.03-2.39,6.4-4.44,10.08-6.08
		c-4.14,1.81-8.1,4.03-11.81,6.65c-0.26,0.18-0.51,0.36-0.77,0.55c-0.29,0.21-0.58,0.42-0.86,0.64c-0.29,0.21-0.57,0.43-0.85,0.65
		c-1.98,1.55-3.89,3.22-5.73,5.02c-0.16,0.16-0.33,0.32-0.49,0.48c-0.16,0.16-0.32,0.33-0.49,0.49l-0.05,0.05
		c-2.94,3.04-5.4,6.36-7.38,9.88c-2.14,3.82-3.72,7.88-4.73,12.04c-1.01,4.14-1.45,8.39-1.33,12.64l0,0
		C51.35,104.42,51.99,108.52,53.17,112.49z"/>
</g>
</svg>
