<?xml version="1.0" encoding="utf-8"?>
<!-- Generator: Adobe Illustrator 26.2.1, SVG Export Plug-In . SVG Version: 6.00 Build 0)  -->
<svg version="1.1" xmlns="http://www.w3.org/2000/svg" xmlns:xlink="http://www.w3.org/1999/xlink" x="0px" y="0px"
	 viewBox="0 0 225 225" style="enable-background:new 0 0 225 225;" xml:space="preserve">
<style type="text/css">
	.st0{display:none;}
	.st1{display:inline;fill:#FAB433;}
	.st2{fill:none;}
	.st3{fill:none;stroke:#000000;stroke-width:1.6;stroke-miterlimit:10;}
	.st4{fill:none;stroke:#000000;stroke-width:0.7265;stroke-miterlimit:10;}
	.st5{fill:none;stroke:#000000;stroke-linecap:round;stroke-linejoin:round;stroke-miterlimit:10;}
	.st6{fill:none;stroke:#000000;stroke-miterlimit:10;}
	.st7{fill:none;stroke:#000000;stroke-width:0.7105;stroke-miterlimit:10;}
	.st8{fill:none;stroke:#000000;stroke-width:5.4;stroke-linecap:round;stroke-linejoin:round;stroke-miterlimit:10;}
	.st9{fill:none;stroke:#000000;stroke-width:2.9309;stroke-linecap:round;stroke-linejoin:round;stroke-miterlimit:10;}
	.st10{fill:none;stroke:#000000;stroke-width:0.5;stroke-linecap:round;stroke-linejoin:round;}
	.st11{fill:none;stroke:#FFFFFF;stroke-width:0;stroke-linecap:round;stroke-linejoin:round;}
	.st12{fill:#FFFFFF;}
	.st13{fill:none;stroke:#000000;stroke-width:1.4;stroke-miterlimit:10;}
	.st14{fill:url(#);stroke:#000000;stroke-width:1.4387;stroke-miterlimit:10;}
	.st15{fill:url(#);stroke:#000000;stroke-width:1.3718;stroke-miterlimit:10;}
	.st16{fill:none;stroke:#000000;stroke-width:1.0041;stroke-miterlimit:10;}
	.st17{fill:none;stroke:#000000;stroke-width:1.3621;stroke-miterlimit:10;}
	.st18{fill:none;stroke:#000000;stroke-width:0.25;stroke-miterlimit:10;}
</style>
<g id="Layer_2" class="st0">
	<rect id="XMLID_2028_" x="-100.99" y="-30.01" class="st1" width="1160" height="772"/>
</g>
<g id="Layer_1">
	<g id="XMLID_12482_">
		<path id="XMLID_12886_" d="M160.58,86.08c-0.22-0.06-0.44-0.07-0.66-0.05c-1.34,0.16-1.87,1.9-1.19,3.9
			c0.58,1.68,1.82,2.94,2.99,3.16c0.23,0.04,0.45,0.04,0.66,0c1.25-0.25,1.73-2,1.05-3.91C162.88,87.6,161.7,86.36,160.58,86.08z"/>
		<path id="XMLID_12885_" d="M159.76,120.09c0.2-0.01,0.4-0.06,0.6-0.15c1.18-0.5,1.92-2.21,1.65-3.84
			c-0.22-1.37-1.1-2.26-2.07-2.25c-0.19,0-0.39,0.04-0.59,0.12c-1.25,0.48-2.02,2.23-1.73,3.92
			C157.86,119.28,158.76,120.15,159.76,120.09z"/>
		<path id="XMLID_12884_" d="M166.28,126.16c0.19-0.03,0.39-0.1,0.59-0.22c1.2-0.7,2.04-2.77,1.88-4.63
			c-0.14-1.59-0.95-2.58-1.93-2.51c-0.2,0.01-0.4,0.07-0.6,0.17c-1.3,0.66-2.18,2.8-1.98,4.78
			C164.41,125.38,165.27,126.33,166.28,126.16z"/>
		<path id="XMLID_12883_" d="M126.02,165.39c5.82-1.53,9.96-6.27,9.19-10.59c-0.72-4.06-5.14-6.56-10.49-6.28
			c-1.06,0.06-2.16,0.23-3.25,0.52c-6.68,1.77-10.64,7.08-8.85,11.72c1.33,3.46,5.78,5.48,10.57,5.11
			C124.11,165.8,125.06,165.64,126.02,165.39z"/>
		<path id="XMLID_12882_" d="M113.51,121.33c1.74-0.46,2.78-2.27,2.31-4.01c-0.39-1.45-1.72-2.42-3.17-2.42
			c-0.28,0-0.57,0.04-0.85,0.11c-1.75,0.47-2.79,2.29-2.32,4.02c0.4,1.46,1.73,2.41,3.17,2.42
			C112.93,121.45,113.22,121.41,113.51,121.33z"/>
		<path id="XMLID_12881_" d="M152.12,60.86c-0.15-0.07-0.29-0.12-0.42-0.16c-0.82-0.24-0.96,0.24-0.29,1.09
			c0.58,0.73,1.54,1.47,2.32,1.82c0.15,0.07,0.3,0.12,0.44,0.16c0.8,0.21,0.89-0.3,0.19-1.15
			C153.79,61.93,152.87,61.22,152.12,60.86z"/>
		<path id="XMLID_12880_" d="M121.73,108.55c-0.36,0-0.72,0.05-1.08,0.14c-2.2,0.59-3.5,2.88-2.9,5.11c0.5,1.85,2.16,3.06,3.98,3.05
			c0.35,0,0.71-0.05,1.07-0.15c2.19-0.61,3.48-2.88,2.89-5.07C125.19,109.78,123.54,108.56,121.73,108.55z"/>
		<path id="XMLID_12879_" d="M146.55,55c-1.49-0.56-1.76-0.09-0.56,1.07c1.05,1.02,2.84,2.2,4.28,2.86
			c0.28,0.13,0.54,0.23,0.78,0.31c1.42,0.48,1.48-0.12,0.22-1.29c-1.02-0.94-2.64-2.01-3.97-2.64
			C147.04,55.2,146.78,55.09,146.55,55z"/>
		<path id="XMLID_12878_" d="M136.38,58.26c1.56,2.2,4.86,4.26,7.88,5.04c0.58,0.15,1.14,0.25,1.67,0.29
			c3.06,0.24,3.82-1.59,1.82-4.01c-1.58-1.9-4.5-3.7-7.12-4.48c-0.52-0.16-1.04-0.28-1.54-0.35
			C135.93,54.29,134.66,55.83,136.38,58.26z"/>
		<path id="XMLID_12877_" d="M166.27,132.61c0.12-0.03,0.25-0.09,0.38-0.17c0.78-0.5,1.39-1.84,1.37-2.99
			c-0.02-0.96-0.49-1.51-1.11-1.39c-0.12,0.02-0.25,0.07-0.39,0.15c-0.82,0.49-1.45,1.86-1.42,3.04
			C165.15,132.24,165.64,132.76,166.27,132.61z"/>
		<path id="XMLID_12876_" d="M157.44,157.89c0.09-0.05,0.2-0.1,0.3-0.17c0.65-0.43,1.29-1.21,1.42-1.74
			c0.11-0.44-0.18-0.57-0.67-0.35c-0.1,0.04-0.2,0.1-0.31,0.17c-0.68,0.44-1.33,1.25-1.44,1.77
			C156.65,158.01,156.95,158.12,157.44,157.89z"/>
		<path id="XMLID_12875_" d="M163.78,110.37c0.56,2.88,2.15,4.74,3.83,4.69c0.31-0.01,0.63-0.09,0.94-0.24
			c1.8-0.9,2.8-4.18,2.23-7.34c-0.49-2.67-1.96-4.58-3.51-4.77c-0.32-0.04-0.64-0.01-0.96,0.1
			C164.24,103.48,163.11,106.88,163.78,110.37z"/>
		<path id="XMLID_12874_" d="M140.35,66.34c-0.29-0.06-0.58-0.08-0.87-0.07c-1.75,0.06-2.55,1.41-1.75,3.04
			c0.69,1.41,2.31,2.53,3.87,2.79c0.3,0.05,0.6,0.07,0.89,0.05c1.73-0.12,2.42-1.53,1.56-3.15
			C143.37,67.69,141.83,66.62,140.35,66.34z"/>
		<path id="XMLID_12873_" d="M166.55,92.64c1.35,4.23,3.7,7.35,5.71,7.82c0.37,0.08,0.71,0.07,1.04-0.05
			c1.75-0.65,2.11-4.69,0.72-8.97c-1.16-3.55-3.22-6.54-5.01-7.45c-0.37-0.19-0.74-0.29-1.09-0.3
			C165.55,83.64,164.96,87.63,166.55,92.64z"/>
		<path id="XMLID_12872_" d="M114.61,148.37c0.22,0,0.46-0.03,0.69-0.08c1.41-0.34,2.27-1.61,1.92-2.83
			c-0.31-1.05-1.38-1.73-2.57-1.72c-0.23,0-0.47,0.03-0.7,0.09c-1.42,0.35-2.27,1.64-1.88,2.88
			C112.39,147.72,113.46,148.38,114.61,148.37z"/>
		<path id="XMLID_12871_" d="M173.42,104.06c-0.11-0.02-0.23-0.01-0.34,0.04c-0.72,0.32-1.06,1.92-0.77,3.59
			c0.23,1.37,0.83,2.3,1.43,2.33c0.11,0.01,0.23-0.02,0.34-0.08c0.66-0.38,0.98-1.96,0.72-3.52
			C174.56,105.11,173.99,104.16,173.42,104.06z"/>
		<path id="XMLID_12870_" d="M162.26,133.2c-0.29-6-4.42-9.79-9.78-9.44c-1.12,0.07-2.3,0.33-3.5,0.77
			c-7.76,2.88-13.07,11.78-11.65,19.51c1.06,5.79,5.89,8.67,11.36,7.45c1.02-0.23,2.07-0.6,3.13-1.12
			C157.94,147.35,162.57,139.76,162.26,133.2z"/>
		<path id="XMLID_12869_" d="M154.57,60.04c0.21,0.15,0.41,0.29,0.58,0.4c0.73,0.47,1.07,0.58,0.79,0.24
			c-0.34-0.42-1.44-1.34-2.49-2.09c-0.2-0.14-0.39-0.27-0.55-0.38c-0.73-0.48-1.12-0.63-0.9-0.33
			C152.29,58.26,153.45,59.25,154.57,60.04z"/>
		<path id="XMLID_12868_" d="M150.21,74.49c1.9,3.93,5.57,7.21,8.79,8.08c0.6,0.16,1.18,0.23,1.71,0.2
			c3.02-0.19,3.64-3.74,1.46-7.82c-1.76-3.28-4.92-6.19-7.72-7.27c-0.57-0.22-1.13-0.37-1.67-0.43
			C149.26,66.81,148.06,70.02,150.21,74.49z"/>
		<path id="XMLID_12867_" d="M176.1,104.24c0.04,0.01,0.08,0.01,0.12-0.02c0.22-0.13,0.3-0.8,0.16-1.51
			c-0.11-0.59-0.34-1.03-0.55-1.09c-0.04-0.01-0.08-0.01-0.12,0.01c-0.24,0.11-0.31,0.79-0.17,1.51
			C175.66,103.76,175.89,104.19,176.1,104.24z"/>
		<path id="XMLID_12866_" d="M122.28,120.48c-0.8,0.01-1.61,0.12-2.42,0.34c-4.97,1.38-7.92,6.4-6.59,11.18
			c1.09,3.87,4.72,6.34,8.67,6.24c0.77-0.02,1.55-0.14,2.34-0.36c4.73-1.36,7.69-6.2,6.59-10.82
			C129.91,123.06,126.31,120.45,122.28,120.48z"/>
		<path id="XMLID_12865_" d="M140.45,123.83c-0.33-1.56-1.63-2.55-3.1-2.51c-0.29,0.01-0.59,0.06-0.89,0.15
			c-1.81,0.56-2.94,2.54-2.51,4.42c0.36,1.54,1.68,2.51,3.15,2.44c0.28-0.01,0.57-0.07,0.86-0.16
			C139.73,127.6,140.84,125.65,140.45,123.83z"/>
		<path id="XMLID_12864_" d="M122.62,141.13c-0.18,0.01-0.36,0.03-0.53,0.08c-1.12,0.31-1.79,1.34-1.53,2.33
			c0.22,0.8,1.01,1.3,1.91,1.27c0.18-0.01,0.36-0.04,0.54-0.09c1.09-0.3,1.77-1.32,1.52-2.28
			C124.32,141.62,123.52,141.1,122.62,141.13z"/>
		<path id="XMLID_12863_" d="M154.03,157.17c0.26-0.1,0.55-0.23,0.84-0.4c1.75-1.02,3.3-3.04,3.49-4.53
			c0.16-1.31-0.74-1.86-2.11-1.41c-0.28,0.09-0.57,0.22-0.88,0.39c-1.91,1.05-3.54,3.2-3.62,4.78
			C151.67,157.24,152.66,157.68,154.03,157.17z"/>
		<path id="XMLID_12862_" d="M130.07,138.17c-1.83,0.57-3.01,2.38-2.61,4.05c0.33,1.36,1.63,2.18,3.09,2.08
			c0.28-0.02,0.57-0.07,0.86-0.17c1.79-0.57,2.96-2.33,2.62-3.95c-0.29-1.4-1.58-2.25-3.07-2.17
			C130.67,138.03,130.37,138.08,130.07,138.17z"/>
		<path id="XMLID_12861_" d="M142.95,161.13c0.27-0.06,0.55-0.16,0.84-0.28c1.75-0.75,3.14-2.36,3.12-3.63
			c-0.02-1.1-1.07-1.61-2.5-1.31c-0.28,0.06-0.58,0.15-0.89,0.28c-1.87,0.78-3.3,2.47-3.18,3.78
			C140.45,161.02,141.55,161.46,142.95,161.13z"/>
		<path id="XMLID_12860_" d="M108.53,91.94c-4.68,1.25-7.5,6.01-6.31,10.61c1.02,3.94,4.6,6.54,8.55,6.54c0.78,0,1.56-0.1,2.35-0.31
			c4.78-1.3,7.56-6.15,6.23-10.82c-1.1-3.83-4.66-6.34-8.53-6.32C110.06,91.64,109.29,91.74,108.53,91.94z"/>
		<path id="XMLID_12859_" d="M178.1,103.2c0.09,0.04,0.18,0.03,0.25-0.03c0.43-0.32,0.41-2.33-0.06-4.47
			c-0.4-1.79-1.02-3.24-1.49-3.59c-0.1-0.07-0.19-0.1-0.27-0.08c-0.56,0.15-0.54,2.18-0.01,4.54
			C176.96,101.54,177.61,102.99,178.1,103.2z"/>
		<path id="XMLID_12858_" d="M179.1,118.86c0.01-0.63-0.09-1.01-0.23-0.97c-0.03,0.01-0.06,0.03-0.09,0.07
			c-0.2,0.27-0.37,1.11-0.38,1.88c-0.01,0.65,0.09,1.02,0.24,0.96c0.03-0.01,0.06-0.04,0.09-0.09
			C178.92,120.44,179.09,119.61,179.1,118.86z"/>
		<path id="XMLID_12857_" d="M174.59,88.42c-0.07-0.06-0.13-0.09-0.18-0.09c-0.34-0.03-0.25,1,0.18,2.29
			c0.37,1.09,0.85,1.98,1.19,2.22c0.06,0.05,0.12,0.07,0.17,0.06c0.29-0.04,0.2-1.08-0.22-2.31
			C175.39,89.58,174.92,88.7,174.59,88.42z"/>
		<path id="XMLID_12856_" d="M175.75,109.47c-0.3,3.39,0.3,6.95,1.35,7.88c0.18,0.16,0.37,0.22,0.55,0.19
			c0.7-0.13,1.36-1.81,1.54-4.26c0.22-2.96-0.3-6.25-1.16-7.39c-0.18-0.23-0.36-0.37-0.53-0.42
			C176.69,105.25,175.98,106.8,175.75,109.47z"/>
		<path id="XMLID_12855_" d="M173.34,123.52c1.2-0.94,2.05-3.73,1.9-6.26c-0.13-2.16-0.96-3.58-1.94-3.56
			c-0.2,0-0.41,0.07-0.62,0.19c-1.37,0.82-2.3,3.77-2.09,6.56c0.18,2.27,1.07,3.6,2.14,3.37
			C172.92,123.78,173.13,123.68,173.34,123.52z"/>
		<path id="XMLID_12854_" d="M178.25,96.26c-0.03,0.42,0.11,1.52,0.39,2.79c0.16,0.72,0.32,1.35,0.47,1.8
			C178.87,99.29,178.58,97.76,178.25,96.26z"/>
		<path id="XMLID_12853_" d="M159.96,160.44c0.07-0.06,0.16-0.12,0.24-0.2c0.54-0.46,1.16-1.13,1.38-1.51
			c0.19-0.32,0.04-0.33-0.34-0.05c-0.07,0.06-0.16,0.12-0.25,0.2c-0.56,0.47-1.2,1.17-1.42,1.55
			C159.41,160.74,159.57,160.72,159.96,160.44z"/>
		<path id="XMLID_12852_" d="M176.55,90.03c-0.15-0.34-0.3-0.61-0.41-0.75c-0.05-0.07-0.1-0.12-0.14-0.13
			c-0.25-0.07-0.03,1.18,0.49,2.79c0.43,1.35,0.91,2.47,1.18,2.77c0.05,0.06,0.09,0.08,0.13,0.07c0.03-0.01,0.05-0.05,0.06-0.11
			C177.47,93.08,177.03,91.54,176.55,90.03z"/>
		<path id="XMLID_12851_" d="M161.56,70.72c3.89,6.17,8.71,12.21,11.44,14.43c0.47,0.38,0.85,0.63,1.15,0.72
			c0.45,0.14,0.63-0.12,0.52-0.73c-3.68-9.02-7.55-14.93-14.71-21.18C156.92,61.31,157.32,63.98,161.56,70.72z"/>
		<path id="XMLID_12850_" d="M179.97,114.35c-0.3,0.66-0.58,2.69-0.64,4.6c-0.03,1.23,0.04,2.05,0.17,2.3
			C179.77,118.96,179.92,116.66,179.97,114.35z"/>
		<path id="XMLID_12849_" d="M179.97,110.61c-0.02-0.07-0.05-0.1-0.07-0.11c-0.02,0-0.03,0.01-0.05,0.04
			c-0.11,0.17-0.16,0.87-0.12,1.56c0.03,0.57,0.11,0.94,0.2,0.94c0.02,0,0.03-0.02,0.05-0.05c0.01-0.01,0.02-0.03,0.02-0.05
			C180,112.17,179.99,111.39,179.97,110.61z"/>
		<path id="XMLID_12848_" d="M179.38,102.85c-0.03-0.02-0.06-0.01-0.09,0.02c-0.23,0.25-0.23,1.81-0.01,3.5
			c0.17,1.35,0.42,2.3,0.62,2.43C179.8,106.81,179.63,104.82,179.38,102.85z"/>
		<path id="XMLID_12847_" d="M115.66,173.06c-0.35-0.64-1.63-1.06-3.06-1.06c-0.28,0-0.57,0.02-0.86,0.05
			c-1.71,0.21-2.68,0.98-2.17,1.73c0.41,0.59,1.67,0.98,3.02,0.98c0.26,0,0.53-0.01,0.8-0.04
			C115.04,174.53,116.06,173.78,115.66,173.06z"/>
		<path id="XMLID_12846_" d="M88.5,106.33c-0.49,0.01-0.98,0.09-1.47,0.24c-2.95,0.91-4.69,4.19-3.9,7.36
			c0.66,2.66,2.9,4.44,5.36,4.48c0.49,0.01,0.99-0.05,1.48-0.19c3.08-0.84,4.9-4.19,4.06-7.46
			C93.33,108.04,91.01,106.29,88.5,106.33z"/>
		<path id="XMLID_12845_" d="M104.88,169.83c-0.19-0.01-0.37-0.01-0.56,0c-1.12,0.09-1.7,0.64-1.3,1.24
			c0.33,0.48,1.21,0.84,2.13,0.9c0.18,0.01,0.36,0.01,0.54,0c1.1-0.08,1.7-0.62,1.35-1.2C106.74,170.26,105.83,169.89,104.88,169.83
			z"/>
		<path id="XMLID_12844_" d="M110.29,165.88c0.14,0,0.28-0.01,0.42-0.03c0.84-0.13,1.35-0.68,1.11-1.23
			c-0.2-0.47-0.87-0.79-1.59-0.8c-0.14,0-0.28,0.01-0.42,0.03c-0.86,0.14-1.35,0.69-1.09,1.25
			C108.94,165.57,109.59,165.87,110.29,165.88z"/>
		<path id="XMLID_12843_" d="M65.96,161.86c0.75,0.7,1.45,1.3,2.03,1.75c0.95,0.75,1.6,1.11,1.61,0.87
			c0.03-0.48-1.82-2.53-4.08-4.62c-0.86-0.8-1.63-1.45-2.24-1.91c-0.94-0.71-1.46-0.94-1.29-0.51
			C62.23,158.08,64.01,160.04,65.96,161.86z"/>
		<path id="XMLID_12842_" d="M157.34,95.03c-2.32-7.55-8.84-13.17-15.66-14.02c-1.41-0.17-2.85-0.16-4.28,0.07
			c-9.31,1.51-14.78,11.29-11.85,21.71c2.51,8.91,10.1,14.73,17.96,14.59c1.47-0.03,2.94-0.27,4.37-0.75
			C155.95,113.93,160.15,104.22,157.34,95.03z"/>
		<path id="XMLID_12841_" d="M101.38,51.13C89.4,53.69,79.97,62.87,80.74,71.47c0.87,9.46,11.19,15.69,24.24,15.39
			c2.64-0.06,5.33-0.41,8.01-1.07c8.03-1.97,14.08-6.17,17.26-11.29c2.83-4.56,3.21-9.73,0.46-14.35
			c-3.85-6.44-13.75-10.3-23.51-9.79C105.29,50.47,103.34,50.72,101.38,51.13z"/>
		<path id="XMLID_12840_" d="M157.63,159.56c0.08-0.04,0.17-0.1,0.27-0.16c0.56-0.39,1.12-1.04,1.26-1.45
			c0.12-0.36-0.1-0.44-0.52-0.22c-0.08,0.04-0.17,0.1-0.26,0.16c-0.58,0.4-1.16,1.07-1.29,1.49
			C156.98,159.72,157.21,159.79,157.63,159.56z"/>
		<path id="XMLID_12839_" d="M160.09,159.18c0.23-0.48-0.05-0.54-0.64-0.18c-0.11,0.07-0.24,0.16-0.38,0.26
			c-0.86,0.64-1.76,1.62-2.01,2.18c-0.19,0.45,0.12,0.47,0.71,0.09c0.12-0.07,0.24-0.16,0.38-0.26
			C158.96,160.66,159.82,159.73,160.09,159.18z"/>
		<path id="XMLID_12838_" d="M156,163.87c0.65-0.48,1.36-1.16,1.58-1.51c0.19-0.31-0.03-0.3-0.5-0.01c-0.09,0.06-0.19,0.13-0.3,0.21
			c-0.69,0.5-1.42,1.2-1.63,1.56c-0.16,0.29,0.08,0.26,0.55-0.04C155.79,164.02,155.89,163.95,156,163.87z"/>
		<path id="XMLID_12837_" d="M151.74,159.93c-0.93,0.1-1.96,0.33-3.05,0.68c-4.92,1.55-10.56,5.04-13.53,8.55
			c-3.19,3.78-1.39,5.71,3.52,4.55c0.87-0.21,1.8-0.5,2.73-0.85c3.83-1.45,8.25-4.13,11.06-6.85
			C156.25,162.34,156.11,159.48,151.74,159.93z"/>
		<path id="XMLID_12836_" d="M117.18,168.3c-0.42-1.01-2-1.65-3.78-1.65c-0.35,0-0.71,0.03-1.06,0.09
			c-2.14,0.34-3.36,1.57-2.73,2.74c0.5,0.93,2.06,1.53,3.74,1.52c0.33,0,0.66-0.03,1-0.08C116.39,170.61,117.66,169.44,117.18,168.3
			z"/>
		<path id="XMLID_12835_" d="M133.89,167.34c1.29-0.42,2.25-1.35,2.15-2.07c-0.09-0.63-0.91-0.92-1.96-0.75
			c-0.21,0.03-0.43,0.09-0.65,0.16c-1.34,0.44-2.3,1.39-2.15,2.14c0.12,0.6,0.96,0.86,1.98,0.69
			C133.46,167.46,133.67,167.41,133.89,167.34z"/>
		<path id="XMLID_12834_" d="M123.78,174.33c0.49-0.05,0.99-0.14,1.5-0.25c3.11-0.71,5.38-2.46,5.06-3.88
			c-0.3-1.33-2.53-1.98-5.29-1.71c-0.55,0.05-1.1,0.15-1.67,0.28c-3.46,0.8-5.66,2.66-4.92,4.16
			C119.02,174.05,121.26,174.61,123.78,174.33z"/>
		<path id="XMLID_12833_" d="M109.55,175.53c-0.78-0.97-3.14-1.75-5.65-1.96c-0.49-0.04-0.98-0.06-1.47-0.05
			c-2.88,0.06-4.19,1.02-3.01,2.12c0.92,0.85,3.16,1.55,5.39,1.75c0.44,0.04,0.88,0.06,1.32,0.06
			C108.84,177.44,110.39,176.58,109.55,175.53z"/>
		<path id="XMLID_12832_" d="M70.55,164.82c-0.02,0.1,0.36,0.49,0.85,0.86c0.19,0.14,0.37,0.27,0.53,0.36
			c0.25,0.15,0.42,0.21,0.45,0.16c0.04-0.09-0.34-0.48-0.85-0.87c-0.19-0.14-0.38-0.27-0.53-0.36
			C70.73,164.82,70.56,164.75,70.55,164.82z"/>
		<path id="XMLID_12831_" d="M110.99,179.59c6.17,0.13,12.28-0.47,18.08-1.74c0,0,0,0,0,0
			C123.27,179.12,117.15,179.72,110.99,179.59L110.99,179.59z"/>
		<path id="XMLID_12830_" d="M124.98,175.27c-1.09,0.01-2.22,0.08-3.36,0.18c-4.89,0.45-9.39,1.53-10.87,2.74
			c-0.64,0.52-0.52,0.97,0.22,1.29c6.22,0.13,12.4-0.47,18.25-1.75c0.05-0.02,0.09-0.04,0.14-0.06
			C132.15,176.33,130.39,175.2,124.98,175.27z"/>
		<path id="XMLID_12829_" d="M71.44,166.28c-0.23-0.18-0.45-0.33-0.63-0.46c-0.28-0.19-0.46-0.3-0.45-0.26
			c0.02,0.06,0.5,0.47,1.09,0.91c0.23,0.17,0.44,0.32,0.61,0.45c0.28,0.2,0.47,0.31,0.47,0.28
			C72.54,167.15,72.05,166.75,71.44,166.28z"/>
		<path id="XMLID_12828_" d="M72.06,166.61c0.18,0.11,0.3,0.17,0.31,0.14c0.02-0.04-0.27-0.31-0.65-0.59
			c-0.14-0.11-0.28-0.2-0.39-0.27c-0.18-0.11-0.3-0.17-0.3-0.14c-0.01,0.05,0.28,0.31,0.65,0.59
			C71.82,166.45,71.95,166.54,72.06,166.61z"/>
		<path id="XMLID_12827_" d="M100.26,177.32c-0.85-0.62-2.9-1.32-4.89-1.71c-0.39-0.08-0.76-0.14-1.13-0.18
			c-2.18-0.28-2.93,0.12-1.75,0.85c0.93,0.58,2.82,1.21,4.59,1.57c0.35,0.07,0.7,0.13,1.04,0.18
			C100.23,178.31,101.22,178.01,100.26,177.32z"/>
		<path id="XMLID_12826_" d="M75.98,169.61c0.6,0.38,1.18,0.73,1.68,1.01c0.81,0.46,1.42,0.74,1.56,0.71
			c0.25-0.06-0.96-0.99-2.68-2.08c-0.66-0.42-1.3-0.8-1.83-1.09c-0.84-0.46-1.4-0.72-1.45-0.62
			C73.2,167.66,74.41,168.61,75.98,169.61z"/>
		<path id="XMLID_12825_" d="M106.71,177.74c-0.08-0.01-0.17-0.01-0.25-0.01c-0.5,0-0.76,0.11-0.58,0.25
			c0.15,0.11,0.55,0.21,0.96,0.24c0.08,0.01,0.16,0.01,0.24,0.01c0.5,0,0.76-0.11,0.6-0.25
			C107.54,177.86,107.13,177.77,106.71,177.74z"/>
		<path id="XMLID_12824_" d="M135.31,175.81c0.9-0.31,1.67-0.71,1.72-0.88c0.04-0.15-0.46-0.09-1.18,0.12
			c-0.14,0.04-0.29,0.09-0.45,0.14c-0.94,0.32-1.72,0.72-1.72,0.89c0,0.13,0.51,0.07,1.21-0.14
			C135.02,175.91,135.16,175.86,135.31,175.81z"/>
		<path id="XMLID_12823_" d="M147.95,170.06c-0.13,0.07-0.28,0.15-0.43,0.24c-0.96,0.54-1.91,1.15-2.1,1.36
			c-0.16,0.17,0.24,0.02,0.9-0.33c0.13-0.07,0.27-0.15,0.42-0.23c0.9-0.51,1.82-1.09,2.05-1.32
			C148.99,169.57,148.63,169.7,147.95,170.06z"/>
		<path id="XMLID_12822_" d="M85.12,174.42c2.38,0.98,4.89,1.84,7.51,2.56c0,0,0,0,0,0C90.01,176.25,87.5,175.39,85.12,174.42
			C85.12,174.41,85.12,174.41,85.12,174.42z"/>
		<path id="XMLID_12821_" d="M87.26,174.66c-0.34-0.12-0.67-0.22-0.98-0.32c-1.61-0.49-2.06-0.45-1.25,0.02
			c2.38,0.98,4.9,1.84,7.54,2.56c-0.09-0.08-0.26-0.18-0.5-0.31C91.04,176.08,89.03,175.26,87.26,174.66z"/>
		<path id="XMLID_12820_" d="M104.24,179.16c1.01,0.11,2.03,0.2,3.05,0.27c0,0,0,0,0,0C106.27,179.36,105.25,179.27,104.24,179.16
			C104.24,179.16,104.24,179.16,104.24,179.16z"/>
		<path id="XMLID_12819_" d="M105.37,178.5c-0.22-0.02-0.43-0.03-0.64-0.04c-1.27-0.05-1.88,0.13-1.38,0.39
			c0.18,0.1,0.49,0.19,0.87,0.27c1.02,0.11,2.04,0.2,3.07,0.27c0.64-0.04,0.9-0.17,0.6-0.36
			C107.51,178.82,106.47,178.6,105.37,178.5z"/>
		<path id="XMLID_12818_" d="M134.41,176.46c3.66-1.11,7.07-2.49,10.17-4.1c0,0,0,0,0,0C141.49,173.96,138.08,175.34,134.41,176.46
			C134.42,176.45,134.41,176.46,134.41,176.46z"/>
		<path id="XMLID_12817_" d="M142.82,172.94c-0.49,0.19-1.04,0.41-1.63,0.64c-2.29,0.92-4.97,2.05-6.72,2.83
			c3.67-1.12,7.09-2.5,10.19-4.1C144.76,172.22,144.15,172.43,142.82,172.94z"/>
		<path id="XMLID_12816_" d="M80.44,172.24c0.93,0.49,1.9,0.96,2.89,1.4c0,0,0,0,0,0C82.34,173.2,81.38,172.73,80.44,172.24
			C80.44,172.24,80.44,172.24,80.44,172.24z"/>
		<path id="XMLID_12815_" d="M81.12,172.5c-0.13-0.06-0.25-0.12-0.36-0.17c-0.55-0.26-0.67-0.29-0.36-0.11
			c0.94,0.49,1.9,0.96,2.89,1.41c-0.06-0.03-0.13-0.07-0.22-0.12C82.58,173.23,81.77,172.82,81.12,172.5z"/>
		<path id="XMLID_12814_" d="M77.35,171.34C77.35,171.34,77.35,171.34,77.35,171.34c0.73,0,1.45,0.01,2,0.31c0,0,0,0,0,0
			C78.79,171.35,78.07,171.34,77.35,171.34z"/>
		<path id="XMLID_12813_" d="M98.82,178.38C98.82,178.38,98.82,178.38,98.82,178.38c1.15,0.21,2.31,0.39,3.48,0.55c0,0,0,0,0,0
			C101.13,178.77,99.97,178.59,98.82,178.38z"/>
		<path id="XMLID_12812_" d="M100.44,178.55c-0.22-0.03-0.44-0.07-0.66-0.09c-0.4-0.05-0.72-0.08-0.96-0.09
			c1.15,0.21,2.31,0.39,3.48,0.55C101.76,178.79,101.1,178.66,100.44,178.55z"/>
		<path id="XMLID_12811_" d="M95.16,177.62c0,0-0.01,0-0.02,0c0.16,0.04,0.31,0.07,0.47,0.11c-0.01,0-0.01,0-0.02,0
			C95.45,177.68,95.31,177.65,95.16,177.62z"/>
		<path id="XMLID_12810_" d="M95.38,177.66c-0.07-0.02-0.15-0.03-0.22-0.05c0.15,0.03,0.29,0.07,0.44,0.1
			C95.52,177.7,95.45,177.68,95.38,177.66z"/>
		<path id="XMLID_12809_" d="M117.56,46.56c1.06,0.13,2.11,0.24,3.14,0.34c4.23,0.4,7.49,0.54,8.05,0.22
			c-5.69-1.25-11.69-1.84-17.73-1.71C111.98,45.73,114.3,46.16,117.56,46.56z"/>
		<path id="XMLID_12808_" d="M88.02,49.92c0.33-0.11,0.69-0.24,1.06-0.37c1.82-0.65,3.39-1.28,3.97-1.59
			c-2.58,0.71-5.04,1.55-7.38,2.52c-0.08,0.04-0.14,0.08-0.17,0.1C85.26,50.78,86.34,50.49,88.02,49.92z"/>
		<path id="XMLID_12807_" d="M106.49,45.66c0.35-0.04,0.66-0.08,0.93-0.12c-1,0.07-1.99,0.16-2.98,0.26c0.37,0,0.88-0.03,1.44-0.08
			C106.08,45.7,106.28,45.68,106.49,45.66z"/>
		<path id="XMLID_12806_" d="M140.69,52.11c0.71,0.31,1.37,0.58,1.99,0.83c2.53,1,4.01,1.4,3.52,0.91
			c-0.26-0.26-1.05-0.73-2.11-1.28c-3.06-1.58-6.43-2.95-10.04-4.05c-0.03,0.01-0.05,0.02-0.05,0.05
			C133.94,48.99,136.96,50.5,140.69,52.11z"/>
		<path id="XMLID_12805_" d="M100.09,47.05c0.23-0.04,0.47-0.08,0.72-0.12c1.47-0.28,2.5-0.64,2.29-0.8
			c-0.07-0.05-0.28-0.08-0.57-0.07c-1.15,0.15-2.29,0.33-3.42,0.54c-0.77,0.2-1.26,0.42-1.19,0.53
			C98.02,47.27,98.92,47.23,100.09,47.05z"/>
		<path id="XMLID_12804_" d="M95.18,47.69c0.11-0.03,0.22-0.05,0.34-0.08c0.72-0.19,1.28-0.4,1.24-0.47
			c-0.03-0.05-0.34-0.01-0.78,0.08c-0.15,0.04-0.31,0.07-0.46,0.11c-0.03,0.01-0.06,0.02-0.09,0.02c-0.7,0.18-1.26,0.39-1.25,0.46
			C94.2,47.88,94.62,47.82,95.18,47.69z"/>
		<path id="XMLID_12803_" d="M92.1,48.76c0,0.09,0.37,0.05,0.89-0.08c0.1-0.03,0.21-0.06,0.33-0.09c0.67-0.2,1.2-0.43,1.18-0.53
			c-0.02-0.08-0.4-0.04-0.9,0.09c-0.1,0.02-0.2,0.05-0.31,0.08C92.63,48.42,92.11,48.66,92.1,48.76z"/>
		<path id="XMLID_12802_" d="M106.59,46.92c0.27-0.02,0.54-0.04,0.82-0.08c1.66-0.2,2.69-0.58,2.31-0.85
			c-0.3-0.21-1.43-0.28-2.69-0.19c-0.25,0.02-0.5,0.04-0.75,0.07c-1.56,0.18-2.62,0.55-2.38,0.82
			C104.12,46.93,105.24,47.01,106.59,46.92z"/>
		<path id="XMLID_12801_" d="M131.13,48.34c-0.23-0.05-0.45-0.1-0.66-0.14c-1.34-0.23-1.89-0.04-1.21,0.45
			c0.6,0.43,1.91,0.92,3.15,1.21c0.24,0.06,0.48,0.1,0.71,0.14c1.35,0.22,1.79-0.02,1.02-0.53
			C133.51,49.07,132.27,48.61,131.13,48.34z"/>
		<path id="XMLID_12800_" d="M112,46.94c0.11,0,0.21-0.01,0.32-0.01c0.65-0.05,1.04-0.2,0.85-0.34c-0.15-0.12-0.63-0.19-1.15-0.19
			c-0.1,0-0.21,0-0.31,0.01c-0.64,0.04-1.03,0.19-0.87,0.34C110.97,46.87,111.46,46.94,112,46.94z"/>
		<path id="XMLID_12799_" d="M125.44,47.77c-0.1-0.01-0.2-0.03-0.29-0.03c-0.6-0.05-0.88,0.07-0.62,0.26
			c0.22,0.17,0.76,0.34,1.29,0.42c0.1,0.02,0.21,0.03,0.31,0.04c0.6,0.05,0.87-0.08,0.6-0.27
			C126.48,48.01,125.95,47.85,125.44,47.77z"/>
		<path id="XMLID_12798_" d="M45.23,108.75c0.25-0.52,0.52-2.25,0.6-3.83c0.07-1.3-0.01-2.03-0.19-1.86
			c-0.01,0.01-0.01,0.01-0.02,0.02c-0.24,1.92-0.42,3.86-0.51,5.82c0.01,0,0.01,0,0.02,0C45.16,108.88,45.19,108.84,45.23,108.75z"
			/>
		<path id="XMLID_12797_" d="M46.2,101.11c0.33-0.65,0.77-2.35,0.98-3.78c0.17-1.18,0.13-1.74-0.09-1.47
			c-0.04,0.05-0.09,0.13-0.14,0.25c-0.06,0.13-0.13,0.3-0.19,0.5c-0.33,1.47-0.61,2.97-0.84,4.49c0.02,0.22,0.07,0.3,0.16,0.22
			C46.1,101.28,46.15,101.21,46.2,101.11z"/>
		<path id="XMLID_12796_" d="M48.11,91.78c0.17-0.64,0.25-1.05,0.25-1.2c-0.47,1.47-0.9,2.99-1.28,4.53
			C47.39,94.26,47.82,92.88,48.11,91.78z"/>
		<path id="XMLID_12795_" d="M50.47,85.85c-0.43,1.27-0.37,1.78,0.11,1.3c0.1-0.1,0.21-0.24,0.34-0.41
			c0.82-1.13,1.92-3.37,2.43-4.93c0.41-1.26,0.27-1.62-0.26-1.02c-0.1,0.12-0.22,0.27-0.35,0.46
			C51.96,82.35,50.97,84.38,50.47,85.85z"/>
		<path id="XMLID_12794_" d="M46.52,124.45c0.19,0.98,0.48,1.74,0.7,1.9c0.04,0.03,0.08,0.04,0.12,0.02
			c0.24-0.13,0.22-1.24-0.02-2.47c-0.2-1.03-0.5-1.8-0.72-1.91c-0.04-0.02-0.08-0.02-0.12,0.01
			C46.27,122.17,46.29,123.27,46.52,124.45z"/>
		<path id="XMLID_12793_" d="M48.07,93.64c0.04-0.04,0.08-0.1,0.14-0.19c0.32-0.53,0.76-1.73,0.96-2.66
			c0.17-0.76,0.13-1.08-0.08-0.84c-0.04,0.05-0.09,0.12-0.14,0.21c-0.31,0.54-0.73,1.68-0.93,2.57
			C47.85,93.48,47.88,93.84,48.07,93.64z"/>
		<path id="XMLID_12792_" d="M45.1,111.47c-0.01-0.39-0.04-0.68-0.07-0.81c-0.02,0.76-0.03,1.51-0.02,2.27
			C45.07,112.7,45.11,112.07,45.1,111.47z"/>
		<path id="XMLID_12791_" d="M45.8,121.33c0.27-0.33,0.3-2.26,0.08-4.31c-0.18-1.7-0.45-2.83-0.7-2.86
			c-0.04-0.01-0.08,0.03-0.12,0.11c-0.01,0.01-0.01,0.03-0.02,0.05c0.05,2.26,0.2,4.52,0.45,6.74c0.06,0.15,0.12,0.25,0.17,0.29
			C45.72,121.38,45.76,121.37,45.8,121.33z"/>
		<path id="XMLID_12790_" d="M58.9,71.71c-1.18,1.28-2.6,3.35-3.24,4.7c-0.55,1.18-0.36,1.49,0.43,0.82
			c0.16-0.14,0.34-0.31,0.55-0.53c1.29-1.35,2.87-3.66,3.47-5.06c0.48-1.11,0.16-1.25-0.68-0.47C59.27,71.32,59.09,71.5,58.9,71.71z
			"/>
		<path id="XMLID_12789_" d="M49.55,88.11c0.14-0.47,0.15-0.65,0.03-0.47c-0.02,0.04-0.05,0.08-0.09,0.15
			c-0.2,0.38-0.5,1.13-0.67,1.69c-0.15,0.48-0.16,0.67-0.04,0.5c0.02-0.03,0.05-0.08,0.08-0.14C49.07,89.46,49.37,88.68,49.55,88.11
			z"/>
		<path id="XMLID_12788_" d="M54.29,143.5c0.87,0.23,0.75-1.64-0.27-4.2c-0.86-2.16-2.03-3.97-2.85-4.49
			c-0.15-0.1-0.29-0.15-0.41-0.14c-0.67,0.04-0.49,1.97,0.44,4.29c0.78,1.93,1.86,3.65,2.65,4.29
			C54.01,143.38,54.16,143.47,54.29,143.5z"/>
		<path id="XMLID_12787_" d="M54.44,146.38c0.23,0.14,0.09-0.39-0.31-1.19c-0.34-0.67-0.76-1.31-1.01-1.56
			c-0.05-0.05-0.09-0.08-0.13-0.1c-0.21-0.11-0.06,0.44,0.34,1.22c0.33,0.64,0.73,1.26,0.98,1.52
			C54.35,146.32,54.4,146.36,54.44,146.38z"/>
		<path id="XMLID_12786_" d="M48.42,131.17c0.33,1.16,0.81,2.12,1.15,2.39c0.07,0.05,0.13,0.08,0.19,0.08
			c0.37-0.03,0.31-1.24-0.12-2.71c-0.35-1.23-0.84-2.21-1.19-2.43c-0.07-0.04-0.13-0.06-0.18-0.04
			C47.96,128.56,48.02,129.78,48.42,131.17z"/>
		<g id="XMLID_12785_">
			<path d="M69.68,138.2c3.43-8.17,0.54-20.58-6.25-26.86c-5.68-5.24-11.73-2.67-13.44,5.07c-1.49,6.8,0.8,16.42,5.24,22.05
				C60.23,144.79,66.86,144.9,69.68,138.2z"/>
		</g>
		<path id="XMLID_12784_" d="M65.44,157.79c1.13,1.03,2.16,1.4,2.28,0.83c0.13-0.62-0.76-2-1.97-3.09c-1.2-1.08-2.21-1.41-2.27-0.74
			C63.44,155.42,64.3,156.75,65.44,157.79z"/>
		<path id="XMLID_12783_" d="M61.87,156.14c0.71,0.73,1.26,1.05,1.23,0.69c-0.03-0.38-0.66-1.3-1.4-2.05
			c-0.74-0.76-1.27-1.04-1.21-0.64C60.56,154.53,61.17,155.42,61.87,156.14z"/>
		<path id="XMLID_12782_" d="M72.98,164.74c0.2-0.55-0.99-2.04-2.64-3.33c-1.64-1.29-3.01-1.81-3.08-1.17
			c-0.05,0.59,1.12,2.03,2.63,3.23C71.41,164.66,72.8,165.23,72.98,164.74z"/>
		<path id="XMLID_12781_" d="M58.58,152.89c-0.15-0.45-0.88-1.6-1.61-2.54c-0.72-0.93-1.15-1.26-0.96-0.77
			c0.18,0.47,0.88,1.57,1.56,2.45C58.26,152.93,58.72,153.33,58.58,152.89z"/>
		<path id="XMLID_12780_" d="M95.93,168.4c2.13-2.07,0.17-5.85-4.4-8.44c-4.66-2.63-9.69-2.77-11.2-0.27
			c-1.29,2.14,0.95,5.73,5,7.97C89.33,169.86,94.08,170.18,95.93,168.4z"/>
		<path id="XMLID_12779_" d="M108.6,148.28c2.23-3,1.13-7.24-2.49-9.43c-3.68-2.22-8.34-1.42-10.4,1.74
			c-1.95,3.03-0.69,7.12,2.81,9.18C101.97,151.78,106.48,151.13,108.6,148.28z"/>
		<path id="XMLID_12778_" d="M78.69,133.25c3.17,2.39,7.29,1.77,9.18-1.44c1.97-3.36,0.81-8.1-2.59-10.51
			c-3.31-2.36-7.41-1.48-9.17,1.89C74.45,126.42,75.59,130.91,78.69,133.25z"/>
		<path id="XMLID_12777_" d="M98.5,156.91c1.08-1.41,0.33-3.52-1.72-4.71c-2.06-1.2-4.55-0.97-5.56,0.5
			c-0.96,1.41-0.13,3.47,1.84,4.6C95.02,158.42,97.46,158.24,98.5,156.91z"/>
		<path id="XMLID_12776_" d="M89.12,149.26c1.7-2.65,0.34-6.71-3.02-9.03c-3.34-2.29-7.2-1.86-8.63,0.92
			c-1.33,2.6,0.08,6.45,3.16,8.61C83.74,151.94,87.54,151.73,89.12,149.26z"/>
		<path id="XMLID_12775_" d="M71.79,74.77c-1.27,1.67-1.34,3.57-0.16,4.21c1.24,0.68,3.34-0.21,4.66-1.98
			c1.32-1.76,1.32-3.66,0.02-4.24C75.08,72.21,73.05,73.11,71.79,74.77z"/>
		<path id="XMLID_12774_" d="M49.37,104c0.24,0.43,0.64,0.11,0.91-0.7c0.27-0.82,0.29-1.82,0.04-2.22c-0.24-0.39-0.65-0.06-0.9,0.74
			C49.16,102.61,49.14,103.58,49.37,104z"/>
		<path id="XMLID_12773_" d="M73.52,154.26c2.18,1.66,4.64,1.8,5.46,0.3c0.89-1.62-0.32-4.38-2.68-6.14
			c-2.35-1.76-4.8-1.76-5.51-0.05C70.15,149.99,71.36,152.61,73.52,154.26z"/>
		<path id="XMLID_12772_" d="M90.7,173.72c0.89-0.55-0.47-2.01-3.03-3.3c-2.59-1.3-5.19-1.81-5.83-1.12
			c-0.54,0.6,0.91,2.06,3.25,3.22C87.4,173.67,89.91,174.19,90.7,173.72z"/>
		<path id="XMLID_12771_" d="M78.86,169.68c0.24-0.28-0.73-1.22-2.15-2.14c-1.42-0.91-2.67-1.39-2.8-1.05
			c-0.12,0.3,0.85,1.25,2.17,2.1C77.41,169.45,78.65,169.93,78.86,169.68z"/>
		<path id="XMLID_12770_" d="M77.42,166.39c1.49,0.97,3.02,1.32,3.41,0.81c0.43-0.56-0.53-1.83-2.13-2.86
			c-1.59-1.03-3.14-1.37-3.45-0.74C74.96,164.17,75.93,165.43,77.42,166.39z"/>
		<path id="XMLID_12769_" d="M76.77,160.6c0.34-0.64-0.38-1.87-1.6-2.76c-1.22-0.88-2.43-1.05-2.71-0.38
			c-0.26,0.64,0.46,1.85,1.62,2.69C75.24,161,76.45,161.2,76.77,160.6z"/>
		<path id="XMLID_12768_" d="M62.46,89.09c-2.69,4.72-2.49,10.62,0.44,13.23c3.29,2.92,8.53,1.06,11.66-4.26
			c3.15-5.39,2.65-11.7-1.12-13.99C70.1,82.05,65.18,84.32,62.46,89.09z"/>
		<path id="XMLID_12767_" d="M57.84,80.16c-1.9,3.09-2.45,6.54-1.27,7.66c1.37,1.3,4.22-0.5,6.38-4.01
			c2.17-3.52,2.62-7.06,0.96-7.93C62.48,75.15,59.74,77.06,57.84,80.16z"/>
		<path id="XMLID_12766_" d="M53.65,99.85c0.95,1.19,2.63,0.22,3.76-2.2c1.14-2.45,1.2-5.27,0.13-6.29
			c-0.99-0.94-2.63,0.16-3.66,2.44C52.87,96.06,52.77,98.75,53.65,99.85z"/>
		<path id="XMLID_12765_" d="M50.54,88.91c-1.17,2.67-1.69,5.69-1.19,6.76c0.58,1.2,2.11-0.21,3.46-3.21
			c1.36-3.04,1.88-6.24,1.11-7.11C53.27,84.61,51.73,86.19,50.54,88.91z"/>
		<path id="XMLID_12764_" d="M135.02,74.65c0.18,1.42,1.64,2.74,3.23,2.93c1.57,0.19,2.66-0.8,2.43-2.21
			c-0.22-1.37-1.63-2.64-3.16-2.85C135.96,72.31,134.84,73.26,135.02,74.65z"/>
		<path id="XMLID_12763_" d="M87.53,100.8c1.57,2.88,5.22,3.74,8.15,1.91c2.96-1.86,4.01-5.69,2.33-8.55
			c-1.64-2.77-5.28-3.52-8.13-1.69C87.07,94.28,86.01,98,87.53,100.8z"/>
		<path id="XMLID_12762_" d="M83.32,53.65c-0.7,0.89,0.36,1.15,2.42,0.55c2.11-0.62,4.29-1.83,4.84-2.71
			c0.51-0.81-0.69-0.97-2.65-0.37C86.03,51.7,83.98,52.82,83.32,53.65z"/>
		<path id="XMLID_12761_" d="M76.15,55.69c-2.25,1.27-5.08,3.37-6.45,4.78c-1.48,1.53-0.85,1.82,1.57,0.52
			c2.57-1.38,5.83-3.82,7.14-5.33C79.58,54.29,78.51,54.35,76.15,55.69z"/>
		<path id="XMLID_12760_" d="M119.42,87.07c-1.29-0.02-2.32,0.94-2.31,2.15c0.02,1.23,1.08,2.25,2.39,2.27
			c1.3,0.02,2.33-0.96,2.3-2.18C121.77,88.09,120.71,87.09,119.42,87.07z"/>
		<path id="XMLID_12759_" d="M78.64,58.61c1.23-0.45,2.6-1.42,3.04-2.14c0.42-0.7-0.22-0.89-1.41-0.45
			c-1.16,0.44-2.47,1.35-2.93,2.06C76.85,58.8,77.43,59.05,78.64,58.61z"/>
		<path id="XMLID_12758_" d="M69.52,60.22c-0.6,0.46-1.45,1.19-1.93,1.64c-0.49,0.45-0.4,0.46,0.2-0.01c0.62-0.48,1.52-1.25,2-1.7
			C70.26,59.71,70.13,59.75,69.52,60.22z"/>
		<path id="XMLID_12757_" d="M75.14,56.16c0.67-0.41,1.55-0.98,1.96-1.26c0.4-0.27,0.27,0.21-0.5,0.21c-0.9,0-1.39,0.93-1.87,1.26
			C74.31,56.65,74.49,56.56,75.14,56.16z"/>
		<path id="XMLID_12756_" d="M65.9,70.4c2.38-1.12,5.31-3.95,6.43-6.22c1.04-2.11-0.02-2.77-2.28-1.57
			c-2.13,1.13-4.72,3.63-5.88,5.67C62.95,70.45,63.68,71.44,65.9,70.4z"/>
		<path id="XMLID_12755_" d="M74.09,60.65c0.51-0.23,1.12-0.7,1.35-1.07c0.22-0.36-0.01-0.45-0.52-0.23
			c-0.5,0.23-1.1,0.69-1.33,1.05C73.35,60.77,73.58,60.88,74.09,60.65z"/>
		<path id="XMLID_12754_" d="M74.83,61.33c-0.29,0.52,0.06,0.73,0.78,0.46c0.73-0.27,1.55-0.93,1.83-1.46
			c0.27-0.52-0.1-0.7-0.82-0.43C75.91,60.18,75.11,60.82,74.83,61.33z"/>
		<path id="XMLID_12753_" d="M80.97,54.5c0.68-0.27,1.45-0.74,1.71-1.04c0.26-0.3-0.08-0.32-0.74-0.05
			c-0.65,0.26-1.4,0.71-1.68,1.01C79.99,54.73,80.3,54.76,80.97,54.5z"/>
		<path id="XMLID_12752_" d="M65.81,64.11c-0.86,0.65-2.07,1.87-2.73,2.75c-0.68,0.91-0.55,1.16,0.32,0.52
			c0.9-0.66,2.2-1.97,2.87-2.89C66.92,63.59,66.7,63.44,65.81,64.11z"/>
		<path id="XMLID_12751_" d="M63.27,73.42c0.28-0.7,0.06-1.01-0.49-0.72c-0.54,0.29-1.2,1.06-1.49,1.75
			c-0.29,0.69-0.09,1.04,0.45,0.76C62.3,74.92,62.99,74.12,63.27,73.42z"/>
		<path id="XMLID_12750_" d="M66.75,71.06c-0.78,0.33-1.68,1.3-2.01,2.18c-0.34,0.89,0.01,1.36,0.8,1.05
			c0.81-0.32,1.74-1.33,2.07-2.24C67.94,71.16,67.55,70.72,66.75,71.06z"/>
		<path id="XMLID_12749_" d="M54.23,82.14c-0.47,1.28-0.31,1.98,0.37,1.56c0.71-0.45,1.69-1.91,2.17-3.24
			c0.47-1.31,0.26-1.94-0.46-1.44C55.62,79.49,54.69,80.88,54.23,82.14z"/>
		<path id="XMLID_12748_" d="M47.84,103.97c-0.25,0.08-0.51,0.83-0.57,1.67c-0.07,0.84,0.08,1.49,0.33,1.44
			c0.26-0.05,0.52-0.81,0.59-1.68C48.25,104.53,48.1,103.89,47.84,103.97z"/>
		<path id="XMLID_12747_" d="M163.85,101.33c1.15,0.13,1.93-1.14,1.75-2.85c-0.18-1.69-1.25-3.21-2.39-3.42
			c-1.19-0.21-2.02,1.03-1.85,2.79C161.54,99.63,162.66,101.19,163.85,101.33z"/>
		<path id="XMLID_12746_" d="M159.85,110.16c0.02,1.13,0.67,2.04,1.46,2.05c0.77,0,1.38-0.88,1.36-1.99
			c-0.02-1.1-0.65-2.01-1.42-2.05C160.46,108.15,159.84,109.03,159.85,110.16z"/>
		<path id="XMLID_12745_" d="M101.92,123.36c-1.49-0.02-2.67,1.16-2.64,2.64c0.03,1.46,1.25,2.67,2.73,2.7
			c1.48,0.03,2.67-1.14,2.65-2.61C104.64,124.59,103.42,123.38,101.92,123.36z"/>
		<path id="XMLID_12744_" d="M102.26,130.88c-1.15-0.02-2.06,0.86-2.03,1.98c0.03,1.1,0.99,2.02,2.13,2.05
			c1.15,0.03,2.07-0.85,2.05-1.95C104.38,131.84,103.42,130.91,102.26,130.88z"/>
		<path id="XMLID_12743_" d="M97.55,132.98c-0.07-1.83-1.61-3.36-3.46-3.43c-1.81-0.06-3.2,1.34-3.11,3.14
			c0.09,1.77,1.61,3.27,3.4,3.37C96.2,136.15,97.62,134.78,97.55,132.98z"/>
		<path id="XMLID_12742_" d="M92.54,124.15c0.03,1.25,1.05,2.29,2.28,2.33c1.24,0.03,2.22-0.96,2.19-2.22
			c-0.03-1.27-1.05-2.31-2.3-2.34C93.48,121.89,92.51,122.88,92.54,124.15z"/>
		<path id="XMLID_12741_" d="M98.85,159.9c-0.81-0.07-1.4,0.35-1.32,0.92c0.08,0.57,0.78,1.08,1.58,1.15
			c0.79,0.07,1.39-0.33,1.33-0.9C100.37,160.49,99.65,159.97,98.85,159.9z"/>
		<path id="XMLID_12740_" d="M104.39,164.88c-1.64-0.09-2.85,0.63-2.72,1.62c0.13,0.95,1.51,1.79,3.07,1.89
			c1.57,0.1,2.8-0.59,2.75-1.54C107.42,165.86,106.03,164.98,104.39,164.88z"/>
		<path id="XMLID_12739_" d="M65.92,154.91c0.75,0.35,1.09-0.03,0.75-0.88c-0.35-0.86-1.25-1.84-2.01-2.18
			c-0.74-0.33-1.05,0.09-0.69,0.94C64.32,153.62,65.19,154.56,65.92,154.91z"/>
		<path id="XMLID_12738_" d="M71.75,160.3c-0.3-0.63-1.13-1.4-1.84-1.7c-0.69-0.3-0.99-0.03-0.68,0.6c0.31,0.61,1.11,1.36,1.8,1.66
			C71.72,161.17,72.05,160.92,71.75,160.3z"/>
		<path id="XMLID_12737_" d="M76.13,137.24c0.73,0.1,1.25-0.48,1.17-1.3c-0.09-0.82-0.76-1.56-1.5-1.64
			c-0.72-0.08-1.24,0.51-1.14,1.32C74.75,136.42,75.41,137.15,76.13,137.24z"/>
		<path id="XMLID_12736_" d="M73.19,141.25c-1.04-0.18-1.7,0.58-1.49,1.71c0.21,1.11,1.19,2.17,2.21,2.38
			c1.04,0.21,1.72-0.53,1.53-1.66C75.25,142.52,74.24,141.44,73.19,141.25z"/>
		<path id="XMLID_12735_" d="M67.94,151.36c1.12,0.39,1.74-0.31,1.38-1.58c-0.37-1.31-1.6-2.66-2.74-3.02
			c-1.11-0.35-1.68,0.41-1.29,1.68C65.68,149.68,66.85,150.98,67.94,151.36z"/>
		<path id="XMLID_12734_" d="M54.04,102.45c-0.42,0.07-0.81,0.8-0.87,1.62c-0.06,0.83,0.23,1.46,0.65,1.41
			c0.43-0.05,0.83-0.78,0.89-1.63C54.77,103,54.47,102.37,54.04,102.45z"/>
		<path id="XMLID_12733_" d="M56.15,104.11c-0.06,0.83,0.29,1.48,0.77,1.43c0.5-0.05,0.94-0.78,1-1.64c0.06-0.85-0.3-1.49-0.8-1.43
			C56.64,102.55,56.21,103.28,56.15,104.11z"/>
		<path id="XMLID_12732_" d="M74.01,120.33c1.16,0.05,2.07-1.05,2.04-2.45c-0.03-1.41-1.01-2.56-2.16-2.58
			c-1.13-0.02-2.03,1.09-1.99,2.46C71.93,119.13,72.88,120.28,74.01,120.33z"/>
		<path id="XMLID_12731_" d="M74.05,106.67c0.03-1.2-0.73-2.13-1.69-2.09c-0.95,0.05-1.75,1.03-1.78,2.21
			c-0.03,1.18,0.71,2.11,1.66,2.09C73.2,108.86,74.01,107.87,74.05,106.67z"/>
		<path id="XMLID_12730_" d="M68.14,107.11c-0.87,0.04-1.59,0.99-1.62,2.14c-0.02,1.14,0.66,2.07,1.54,2.06
			c0.88-0.01,1.62-0.97,1.65-2.14C69.73,108,69.03,107.07,68.14,107.11z"/>
		<path id="XMLID_12729_" d="M59.67,103.45c-0.03,0.45,0.18,0.8,0.47,0.77c0.29-0.03,0.55-0.42,0.58-0.88
			c0.03-0.46-0.18-0.8-0.48-0.77C59.96,102.61,59.7,103,59.67,103.45z"/>
		<path id="XMLID_12728_" d="M51.83,96.29c-0.4,0.15-0.83,1-0.97,1.91c-0.14,0.92,0.08,1.57,0.48,1.45
			c0.41-0.12,0.85-0.99,0.99-1.94C52.46,96.78,52.24,96.14,51.83,96.29z"/>
		<path id="XMLID_12727_" d="M50,98.77c0.14-0.05,0.3-0.4,0.36-0.76c0.06-0.36-0.01-0.62-0.15-0.56c-0.14,0.06-0.3,0.4-0.35,0.76
			C49.79,98.57,49.86,98.82,50,98.77z"/>
		<path id="XMLID_12726_" d="M48.21,96.53c-0.06,0.33-0.04,0.55,0.06,0.49c0.1-0.06,0.23-0.38,0.29-0.72
			c0.07-0.34,0.04-0.55-0.06-0.49C48.4,95.88,48.27,96.2,48.21,96.53z"/>
		<path id="XMLID_12725_" d="M48.05,107.96c-0.05,0.95,0.18,1.69,0.5,1.66c0.34-0.03,0.64-0.85,0.69-1.83
			c0.05-0.99-0.18-1.72-0.52-1.66C48.4,106.19,48.1,107,48.05,107.96z"/>
		<path id="XMLID_12724_" d="M135.19,62.76c0.18,0.77,1.2,1.55,2.27,1.74c1.06,0.18,1.74-0.29,1.54-1.05
			c-0.2-0.74-1.2-1.5-2.23-1.69C135.73,61.57,135.02,62.01,135.19,62.76z"/>
		<path id="XMLID_12723_" d="M59.17,77.28c0.19-0.5,0.08-0.74-0.25-0.55c-0.32,0.19-0.74,0.75-0.94,1.24
			c-0.2,0.5-0.09,0.75,0.23,0.56C58.55,78.35,58.97,77.78,59.17,77.28z"/>
		<path id="XMLID_12722_" d="M64.16,67.08c-0.37,0.25-0.87,0.79-1.13,1.2c-0.26,0.42-0.17,0.56,0.2,0.31
			c0.38-0.25,0.9-0.8,1.15-1.22C64.64,66.95,64.53,66.82,64.16,67.08z"/>
		<path id="XMLID_12721_" d="M62.59,68.51c0.15-0.24,0.11-0.31-0.09-0.16c-0.2,0.15-0.48,0.46-0.64,0.71
			c-0.15,0.24-0.12,0.32,0.09,0.17C62.15,69.07,62.43,68.76,62.59,68.51z"/>
		<path id="XMLID_12720_" d="M61.64,68.51c0.2-0.29,0.18-0.35-0.05-0.15c-0.22,0.2-0.56,0.59-0.76,0.87
			c-0.2,0.28-0.19,0.36,0.03,0.17C61.09,69.19,61.44,68.79,61.64,68.51z"/>
		<path id="XMLID_12719_" d="M68.44,63.09c0.25-0.36,0.12-0.44-0.29-0.18c-0.4,0.25-0.94,0.75-1.2,1.1
			c-0.26,0.36-0.14,0.45,0.26,0.2C67.63,63.96,68.18,63.45,68.44,63.09z"/>
		<path id="XMLID_12718_" d="M67.97,61.89c-0.39,0.29-0.95,0.79-1.25,1.12c-0.3,0.34-0.22,0.38,0.18,0.09
			c0.41-0.29,0.98-0.81,1.27-1.15C68.47,61.63,68.37,61.6,67.97,61.89z"/>
		<path id="XMLID_12717_" d="M58.09,75.64c-0.28,0.6-0.18,0.88,0.21,0.61c0.41-0.27,0.97-0.99,1.25-1.6
			c0.28-0.61,0.17-0.86-0.24-0.58C58.91,74.35,58.37,75.05,58.09,75.64z"/>
		<path id="XMLID_12716_" d="M77.69,78.98c-0.59,0.1-1.14,0.67-1.25,1.27c-0.1,0.6,0.29,1.02,0.88,0.92c0.6-0.1,1.17-0.68,1.27-1.29
			C78.68,79.28,78.28,78.88,77.69,78.98z"/>
		<path id="XMLID_12715_" d="M77.79,69.57c0.09-0.34-0.13-0.52-0.5-0.43c-0.37,0.09-0.74,0.43-0.84,0.77
			c-0.1,0.34,0.13,0.53,0.49,0.44C77.31,70.25,77.69,69.91,77.79,69.57z"/>
		<path id="XMLID_12714_" d="M53.44,79.86c0.31-0.37,0.88-1.29,1.27-2.04c0.38-0.74,0.43-1.01,0.11-0.62
			c-0.31,0.38-0.86,1.26-1.23,1.98C53.21,79.91,53.14,80.22,53.44,79.86z"/>
		<path id="XMLID_12713_" d="M46.27,102.56c-0.09,0.69-0.04,1.19,0.1,1.12c0.15-0.08,0.34-0.72,0.43-1.43
			c0.09-0.7,0.04-1.2-0.11-1.1C46.55,101.24,46.36,101.88,46.27,102.56z"/>
		<path id="XMLID_12712_" d="M50.32,88.28c-0.08,0.07-0.2,0.32-0.27,0.55c-0.07,0.23-0.07,0.37,0.01,0.3
			c0.08-0.07,0.2-0.32,0.27-0.55C50.4,88.34,50.4,88.2,50.32,88.28z"/>
		<path id="XMLID_12711_" d="M47.75,103.06c0.4-0.15,0.87-1.37,1.06-2.74c0.18-1.35,0-2.26-0.41-2.05
			c-0.38,0.21-0.84,1.41-1.02,2.69C47.21,102.26,47.38,103.2,47.75,103.06z"/>
		<path id="XMLID_12710_" d="M45.33,110.96c-0.03,1.31,0.16,2.38,0.4,2.4c0.27,0.01,0.5-1.1,0.53-2.5c0.03-1.38-0.15-2.45-0.42-2.38
			C45.59,108.54,45.36,109.66,45.33,110.96z"/>
		<path id="XMLID_12709_" d="M46.81,104.65c-0.04,0.42,0.02,0.74,0.12,0.7c0.11-0.04,0.23-0.42,0.27-0.85
			c0.04-0.43-0.02-0.74-0.13-0.7C46.97,103.85,46.85,104.23,46.81,104.65z"/>
		<path id="XMLID_12708_" d="M46.4,106.21c-0.03,0.38,0.02,0.66,0.11,0.64c0.09-0.03,0.19-0.36,0.22-0.74
			c0.03-0.39-0.02-0.67-0.11-0.64C46.52,105.5,46.43,105.83,46.4,106.21z"/>
		<path id="XMLID_12707_" d="M54.5,90.31c-0.12,0.57,0.02,0.94,0.33,0.83c0.31-0.12,0.67-0.69,0.79-1.27
			c0.12-0.58-0.03-0.94-0.34-0.81C54.97,89.18,54.62,89.74,54.5,90.31z"/>
		<path id="XMLID_12706_" d="M60.72,90.16c0.13-0.77-0.17-1.27-0.67-1.13c-0.5,0.14-1.01,0.87-1.15,1.62
			c-0.14,0.77,0.15,1.28,0.65,1.16C60.06,91.67,60.59,90.94,60.72,90.16z"/>
		<path id="XMLID_12705_" d="M66.98,74.48c-0.36,0.13-0.75,0.57-0.88,0.97c-0.13,0.41,0.05,0.65,0.41,0.52
			c0.36-0.13,0.77-0.57,0.9-0.99C67.53,74.57,67.34,74.34,66.98,74.48z"/>
		<path id="XMLID_12704_" d="M66.79,76.43c-0.33,0.11-0.69,0.52-0.8,0.91c-0.11,0.39,0.06,0.62,0.4,0.51
			c0.34-0.11,0.7-0.52,0.81-0.91C67.31,76.55,67.12,76.32,66.79,76.43z"/>
		<path id="XMLID_12703_" d="M67.07,78.57c-0.55,0.17-1.13,0.84-1.3,1.5c-0.17,0.66,0.14,1.08,0.7,0.92
			c0.56-0.16,1.15-0.84,1.32-1.51C67.95,78.8,67.63,78.4,67.07,78.57z"/>
		<path id="XMLID_12702_" d="M68.55,80.16c-0.44,0.12-0.9,0.63-1.01,1.15c-0.12,0.53,0.15,0.86,0.59,0.75
			c0.45-0.11,0.91-0.63,1.02-1.16C69.27,80.37,69,80.04,68.55,80.16z"/>
		<path id="XMLID_12701_" d="M66.15,82.59c0.12-0.56-0.14-0.92-0.58-0.79c-0.44,0.13-0.9,0.68-1.03,1.24
			c-0.13,0.56,0.13,0.92,0.57,0.8C65.55,83.72,66.02,83.15,66.15,82.59z"/>
		<path id="XMLID_12700_" d="M57.05,149.73c0.58,0.5,0.68,0.08,0.2-0.95c-0.49-1.05-1.36-2.3-1.94-2.76
			c-0.55-0.45-0.6,0.03-0.12,1.05C55.67,148.06,56.5,149.25,57.05,149.73z"/>
		<path id="XMLID_12699_" d="M47.97,95.08c-0.11,0.1-0.28,0.55-0.38,1c-0.1,0.46-0.08,0.75,0.03,0.66c0.11-0.09,0.29-0.54,0.38-1.01
			C48.09,95.27,48.08,94.98,47.97,95.08z"/>
		<path id="XMLID_12698_" d="M98.02,172.41c-0.08-0.26-0.6-0.54-1.16-0.63c-0.56-0.08-0.94,0.07-0.85,0.33
			c0.09,0.26,0.61,0.53,1.16,0.61C97.71,172.8,98.09,172.66,98.02,172.41z"/>
		<path id="XMLID_12697_" d="M58.41,153.53c-0.32-0.44-0.79-1.06-1.03-1.37c-0.24-0.31-0.17-0.2,0.14,0.24
			c0.37,0.51,0.73,0.99,1.01,1.35C58.78,154.06,58.73,153.97,58.41,153.53z"/>
		<path id="XMLID_12696_" d="M60.14,155.59c0.29,0.31,0.29,0.22-0.02-0.2c-0.31-0.43-0.81-1.04-1.1-1.34
			c-0.29-0.3-0.26-0.19,0.05,0.24C59.38,154.7,59.86,155.28,60.14,155.59z"/>
		<path id="XMLID_12695_" d="M97.41,173.64c-0.11-0.3-0.78-0.64-1.49-0.76c-0.7-0.12-1.17,0.04-1.04,0.34
			c0.12,0.29,0.78,0.63,1.47,0.74C97.04,174.08,97.52,173.94,97.41,173.64z"/>
		<path id="XMLID_12694_" d="M48.64,127.31c0.36,0.19,0.51-0.59,0.35-1.74c-0.17-1.16-0.58-2.21-0.94-2.35
			c-0.34-0.13-0.48,0.66-0.32,1.77C47.89,126.09,48.3,127.13,48.64,127.31z"/>
		<path id="XMLID_12693_" d="M78.68,59.96c-0.4,0.79,0.24,1.16,1.44,0.79c1.22-0.37,2.52-1.33,2.88-2.13
			c0.35-0.78-0.34-1.09-1.52-0.72C80.32,58.27,79.07,59.18,78.68,59.96z"/>
		<path id="XMLID_12692_" d="M75.59,62.85c0.18-0.38-0.07-0.54-0.55-0.36c-0.47,0.18-1.01,0.63-1.19,1
			c-0.18,0.38,0.05,0.55,0.53,0.38C74.87,63.69,75.41,63.24,75.59,62.85z"/>
		<path id="XMLID_12691_" d="M46.39,114.1c0.02,1.2,0.3,2.22,0.62,2.27c0.34,0.05,0.59-0.93,0.57-2.19
			c-0.02-1.26-0.31-2.28-0.65-2.27C46.62,111.91,46.37,112.9,46.39,114.1z"/>
		<path id="XMLID_12690_" d="M85.25,55.53c0.2-0.38-0.2-0.52-0.9-0.31c-0.69,0.21-1.42,0.68-1.64,1.07
			c-0.22,0.39,0.17,0.54,0.87,0.33C84.29,56.41,85.04,55.92,85.25,55.53z"/>
		<path id="XMLID_12689_" d="M46.04,116.06c0.07,0.01,0.12-0.25,0.11-0.6c-0.01-0.34-0.08-0.63-0.15-0.64
			c-0.07-0.01-0.12,0.26-0.11,0.6C45.9,115.76,45.97,116.05,46.04,116.06z"/>
		<path id="XMLID_12688_" d="M48.56,118.68c-0.06-1-0.36-1.84-0.68-1.89c-0.29-0.04-0.49,0.7-0.42,1.66
			c0.06,0.96,0.36,1.8,0.65,1.88C48.43,120.41,48.62,119.67,48.56,118.68z"/>
		<path id="XMLID_12687_" d="M48.08,121.77c-0.04-0.4-0.17-0.76-0.29-0.79c-0.12-0.04-0.18,0.25-0.14,0.65
			c0.04,0.39,0.17,0.74,0.28,0.79C48.05,122.46,48.12,122.17,48.08,121.77z"/>
		<path id="XMLID_12686_" d="M46.84,120.1c0.11,0.04,0.16-0.28,0.13-0.71c-0.03-0.43-0.15-0.8-0.25-0.83
			c-0.1-0.03-0.16,0.29-0.13,0.71C46.63,119.69,46.74,120.06,46.84,120.1z"/>
		<path id="XMLID_12685_" d="M48.46,112.81c-0.32,0-0.56,0.77-0.54,1.72c0.02,0.95,0.3,1.75,0.62,1.79
			c0.34,0.04,0.58-0.73,0.56-1.71C49.08,113.61,48.8,112.81,48.46,112.81z"/>
		<path id="XMLID_12684_" d="M46.67,109.46c-0.03,0.7,0.11,1.27,0.29,1.25c0.2-0.02,0.37-0.62,0.4-1.35
			c0.03-0.72-0.11-1.28-0.3-1.25C46.88,108.15,46.7,108.76,46.67,109.46z"/>
		<path id="XMLID_12683_" d="M141.69,155.05c0.2-0.96-0.55-1.6-1.7-1.42c-1.16,0.18-2.25,1.13-2.43,2.1
			c-0.17,0.95,0.6,1.56,1.74,1.37C140.42,156.91,141.49,155.99,141.69,155.05z"/>
		<path id="XMLID_12682_" d="M49.53,112.48c0.26,0,0.49-0.57,0.5-1.27c0.01-0.7-0.2-1.26-0.46-1.24c-0.26,0.02-0.48,0.59-0.49,1.28
			C49.07,111.92,49.28,112.48,49.53,112.48z"/>
		<path id="XMLID_12681_" d="M50.06,106.99c-0.07,1.31,0.32,2.33,0.87,2.29c0.58-0.04,1.11-1.18,1.19-2.55
			c0.07-1.36-0.34-2.38-0.92-2.27C50.64,104.56,50.13,105.69,50.06,106.99z"/>
		<path id="XMLID_12680_" d="M70.19,115.19c0.57,0.01,1.04-0.58,1.03-1.31c-0.01-0.73-0.48-1.33-1.05-1.33
			c-0.56,0-1.02,0.59-1.02,1.31C69.16,114.58,69.63,115.18,70.19,115.19z"/>
		<path id="XMLID_12679_" d="M74.08,122.5c-0.03-0.56-0.42-1.04-0.89-1.06c-0.46-0.02-0.81,0.41-0.78,0.97
			c0.03,0.56,0.42,1.03,0.88,1.06C73.75,123.49,74.1,123.07,74.08,122.5z"/>
		<path id="XMLID_12678_" d="M70.1,144.69c0.09,0.44,0.49,0.87,0.88,0.97c0.39,0.09,0.64-0.19,0.55-0.63
			c-0.09-0.44-0.49-0.88-0.89-0.97C70.25,143.96,70.01,144.25,70.1,144.69z"/>
		<path id="XMLID_12677_" d="M68.36,146.27c0.13,0.54,0.63,1.08,1.1,1.22c0.48,0.13,0.77-0.2,0.65-0.75
			c-0.13-0.55-0.64-1.11-1.12-1.24C68.51,145.38,68.23,145.73,68.36,146.27z"/>
		<path id="XMLID_12676_" d="M63.85,147.41c0.36,0.14,0.55-0.12,0.41-0.59c-0.14-0.46-0.55-0.95-0.91-1.09
			c-0.36-0.13-0.54,0.14-0.4,0.6C63.09,146.79,63.49,147.27,63.85,147.41z"/>
		<path id="XMLID_12675_" d="M72.33,155.29c-0.29-0.84-1.21-1.76-2.06-2.04c-0.84-0.28-1.26,0.18-0.96,1
			c0.3,0.81,1.19,1.7,2.02,1.99C72.15,156.54,72.61,156.11,72.33,155.29z"/>
		<path id="XMLID_12674_" d="M75.22,161.93c-0.26-0.56-1.03-1.22-1.72-1.48c-0.68-0.25-1,0-0.74,0.55c0.26,0.54,1.01,1.19,1.68,1.44
			C75.13,162.71,75.48,162.48,75.22,161.93z"/>
		<path id="XMLID_12673_" d="M76.07,166.88c0.68,0.3,1,0.18,0.71-0.27c-0.3-0.46-1.11-1.08-1.8-1.38c-0.69-0.29-0.98-0.15-0.67,0.31
			C74.61,165.98,75.4,166.58,76.07,166.88z"/>
		<path id="XMLID_12672_" d="M80.66,168.88c-0.25-0.39-1.01-0.91-1.68-1.16c-0.67-0.25-0.99-0.14-0.72,0.25
			c0.26,0.38,0.99,0.89,1.64,1.14C80.56,169.35,80.9,169.26,80.66,168.88z"/>
		<path id="XMLID_12671_" d="M82.02,171.76c0.71,0.28,1.08,0.26,0.8-0.07c-0.28-0.33-1.11-0.84-1.85-1.13
			c-0.73-0.29-1.07-0.24-0.77,0.09C80.5,170.99,81.31,171.48,82.02,171.76z"/>
		<path id="XMLID_12670_" d="M79.95,169.62c0.1,0.13,0.39,0.32,0.65,0.42c0.26,0.1,0.39,0.07,0.29-0.06
			c-0.1-0.14-0.39-0.33-0.65-0.43C79.97,169.45,79.85,169.48,79.95,169.62z"/>
		<path id="XMLID_12669_" d="M82.59,167.64c0.15,0.29,0.66,0.64,1.15,0.79c0.49,0.14,0.77,0.02,0.64-0.27
			c-0.14-0.29-0.66-0.65-1.16-0.8C82.72,167.22,82.44,167.35,82.59,167.64z"/>
		<path id="XMLID_12668_" d="M78.51,163.36c0.41,0.13,0.64-0.01,0.52-0.32c-0.13-0.31-0.57-0.67-0.99-0.8
			c-0.41-0.13-0.63,0.02-0.5,0.33C77.67,162.88,78.1,163.23,78.51,163.36z"/>
		<path id="XMLID_12667_" d="M78.84,158.24c-0.18-0.59-0.89-1.22-1.58-1.4c-0.68-0.18-1.07,0.15-0.88,0.74
			c0.19,0.57,0.89,1.19,1.55,1.37C78.61,159.13,79.02,158.82,78.84,158.24z"/>
		<path id="XMLID_12666_" d="M70.79,156.92c0.09,0.22,0.35,0.47,0.59,0.56c0.24,0.09,0.36-0.02,0.27-0.24
			c-0.09-0.23-0.35-0.48-0.59-0.57C70.82,156.58,70.7,156.69,70.79,156.92z"/>
		<path id="XMLID_12665_" d="M73.75,162.54c-0.26-0.1-0.38-0.03-0.27,0.18c0.11,0.2,0.41,0.45,0.66,0.56
			c0.26,0.11,0.39,0.03,0.28-0.17C74.32,162.9,74.01,162.65,73.75,162.54z"/>
		<path id="XMLID_12664_" d="M93.62,171.6c0.37,0.07,0.63-0.03,0.56-0.21c-0.07-0.19-0.43-0.4-0.81-0.47
			c-0.38-0.07-0.63,0.03-0.56,0.22C92.88,171.32,93.24,171.53,93.62,171.6z"/>
		<path id="XMLID_12663_" d="M91.93,171.27c-0.11-0.26-0.64-0.57-1.17-0.69c-0.53-0.11-0.86,0.02-0.74,0.28
			c0.12,0.26,0.64,0.56,1.15,0.67C91.69,171.65,92.03,171.53,91.93,171.27z"/>
		<path id="XMLID_12662_" d="M93.45,172.7c-0.09-0.2-0.52-0.43-0.97-0.53c-0.44-0.09-0.72,0-0.63,0.2c0.09,0.2,0.52,0.43,0.96,0.52
			C93.25,172.99,93.54,172.9,93.45,172.7z"/>
		<path id="XMLID_12661_" d="M92.33,173.41c0.06,0.11,0.33,0.25,0.6,0.31c0.27,0.06,0.45,0.01,0.39-0.1
			c-0.06-0.11-0.33-0.25-0.6-0.31C92.45,173.25,92.27,173.29,92.33,173.41z"/>
		<path id="XMLID_12660_" d="M80.74,171.46c-0.59-0.25-0.84-0.26-0.58-0.02c0.26,0.24,0.93,0.63,1.51,0.87
			c0.58,0.25,0.86,0.27,0.61,0.04C82.03,172.12,81.34,171.71,80.74,171.46z"/>
		<path id="XMLID_12659_" d="M85.97,154.83c0.15,0.76,1,1.49,1.92,1.63c0.92,0.14,1.57-0.37,1.44-1.14
			c-0.13-0.78-1.01-1.53-1.95-1.67C86.46,153.52,85.83,154.05,85.97,154.83z"/>
		<path id="XMLID_12658_" d="M82.38,152.41c-1.11-0.19-1.83,0.44-1.61,1.41c0.22,0.95,1.26,1.88,2.35,2.09
			c1.1,0.21,1.85-0.4,1.66-1.36C84.58,153.56,83.5,152.6,82.38,152.41z"/>
		<path id="XMLID_12657_" d="M89.52,139.4c1.21,0.09,2.13-0.81,2.05-2.01c-0.08-1.22-1.14-2.27-2.36-2.35
			c-1.22-0.08-2.12,0.84-2.03,2.04C87.27,138.27,88.31,139.31,89.52,139.4z"/>
		<path id="XMLID_12656_" d="M91.79,140.38c-0.77-0.05-1.35,0.5-1.29,1.23c0.06,0.73,0.74,1.37,1.5,1.43
			c0.78,0.06,1.36-0.49,1.31-1.22C93.26,141.08,92.58,140.44,91.79,140.38z"/>
		<path id="XMLID_12655_" d="M91.67,121.62c-0.02-0.91-0.74-1.66-1.61-1.68c-0.86-0.02-1.54,0.7-1.52,1.61
			c0.02,0.9,0.74,1.64,1.59,1.67C91,123.24,91.69,122.53,91.67,121.62z"/>
		<path id="XMLID_12654_" d="M101.06,153.99c0.06,0.78,0.91,1.46,1.89,1.51c0.98,0.05,1.76-0.55,1.72-1.33
			c-0.04-0.8-0.9-1.49-1.9-1.54C101.77,152.58,101,153.2,101.06,153.99z"/>
		<path id="XMLID_12653_" d="M93.27,147.43c-0.76-0.06-1.31,0.43-1.24,1.1c0.07,0.66,0.74,1.26,1.48,1.32
			c0.76,0.07,1.32-0.42,1.26-1.09C94.71,148.09,94.04,147.49,93.27,147.43z"/>
		<path id="XMLID_12652_" d="M99.06,162.98c-0.5-0.05-0.87,0.19-0.82,0.53c0.05,0.33,0.5,0.64,0.99,0.68
			c0.5,0.05,0.87-0.19,0.82-0.51C100.01,163.33,99.56,163.02,99.06,162.98z"/>
		<path id="XMLID_12651_" d="M94.26,159.5c0.07,0.41,0.56,0.79,1.12,0.85c0.56,0.06,0.96-0.22,0.9-0.63
			c-0.06-0.42-0.56-0.8-1.13-0.86C94.59,158.79,94.19,159.08,94.26,159.5z"/>
		<path id="XMLID_12650_" d="M55.19,148.5c0.26,0.31,0.23,0.1-0.08-0.48c-0.31-0.59-0.78-1.31-1.03-1.61
			c-0.25-0.29-0.21-0.06,0.1,0.52C54.48,147.5,54.93,148.2,55.19,148.5z"/>
		<path id="XMLID_12649_" d="M56.7,151.16c0.25,0.32,0.2,0.18-0.12-0.33c-0.33-0.52-0.8-1.21-1.05-1.52
			c-0.24-0.31-0.18-0.14,0.15,0.37C55.99,150.18,56.45,150.84,56.7,151.16z"/>
		<path id="XMLID_12648_" d="M117.3,175.25c0.39-0.02,0.72-0.16,0.74-0.3c0.02-0.15-0.28-0.26-0.67-0.24
			c-0.39,0.02-0.73,0.16-0.74,0.31C116.61,175.16,116.92,175.27,117.3,175.25z"/>
		<path id="XMLID_12647_" d="M59.69,152.96c-0.28-0.51-0.79-1.15-1.13-1.43c-0.34-0.27-0.38-0.08-0.1,0.43
			c0.28,0.5,0.77,1.12,1.11,1.39C59.91,153.64,59.96,153.47,59.69,152.96z"/>
		<path id="XMLID_12646_" d="M60.09,154.76c0.22,0.19,0.24,0.1,0.05-0.21c-0.2-0.31-0.54-0.73-0.76-0.92
			c-0.22-0.19-0.23-0.09-0.04,0.22C59.54,154.16,59.88,154.57,60.09,154.76z"/>
		<path id="XMLID_12645_" d="M62.81,154.67c-0.31-0.6-0.94-1.33-1.42-1.63c-0.47-0.29-0.59-0.05-0.28,0.54
			c0.3,0.58,0.92,1.28,1.38,1.59C62.96,155.48,63.11,155.26,62.81,154.67z"/>
		<path id="XMLID_12644_" d="M125.8,50.66c-1.08,0.37-0.74,1.29,0.81,2.06c1.58,0.79,3.72,1.09,4.77,0.67
			c0.98-0.4,0.51-1.33-1.02-2.06C128.87,50.61,126.85,50.32,125.8,50.66z"/>
		<path id="XMLID_12643_" d="M116.77,47.37c-1.15,0.29-1.01,0.89,0.37,1.36c1.41,0.48,3.51,0.61,4.63,0.28
			c1.08-0.31,0.79-0.93-0.59-1.36C119.84,47.22,117.87,47.1,116.77,47.37z"/>
		<path id="XMLID_12642_" d="M109.41,48.44c0.83,0.23,2.17,0.19,2.98-0.09c0.79-0.27,0.74-0.65-0.09-0.86
			c-0.81-0.2-2.09-0.17-2.88,0.08C108.61,47.84,108.6,48.22,109.41,48.44z"/>
		<path id="XMLID_12641_" d="M167.09,80.98c-0.08-0.61-0.56-1.45-1.08-1.89c-0.52-0.45-0.9-0.33-0.84,0.28
			c0.06,0.61,0.56,1.48,1.1,1.93C166.81,81.74,167.17,81.6,167.09,80.98z"/>
		<path id="XMLID_12640_" d="M96.67,48.92c-0.19,0.13-0.06,0.22,0.28,0.19c0.35-0.03,0.79-0.16,0.98-0.29
			c0.19-0.13,0.05-0.22-0.29-0.19C97.29,48.65,96.86,48.78,96.67,48.92z"/>
		<path id="XMLID_12639_" d="M94.88,49.22c-0.43,0.05-0.99,0.24-1.25,0.42c-0.26,0.18-0.11,0.29,0.32,0.25
			c0.44-0.05,1.01-0.24,1.26-0.42C95.47,49.27,95.31,49.17,94.88,49.22z"/>
		<path id="XMLID_12638_" d="M155.14,65.73c0.24,0.75,1.21,1.82,2.15,2.37c0.93,0.54,1.45,0.37,1.18-0.38
			c-0.26-0.73-1.2-1.76-2.1-2.3C155.47,64.87,154.91,64.99,155.14,65.73z"/>
		<path id="XMLID_12637_" d="M121.05,49.95c-0.09,0.35,0.62,0.75,1.59,0.92c0.97,0.17,1.8,0.01,1.86-0.34
			c0.06-0.33-0.66-0.74-1.6-0.89C121.97,49.48,121.14,49.62,121.05,49.95z"/>
		<path id="XMLID_12636_" d="M123.76,48.95c-0.04,0.26,0.59,0.58,1.44,0.75c0.84,0.16,1.54,0.09,1.56-0.17
			c0.02-0.25-0.62-0.57-1.43-0.73C124.51,48.64,123.81,48.72,123.76,48.95z"/>
		<path id="XMLID_12635_" d="M150.94,63.63c0.04,0.54,0.76,1.38,1.62,1.89c0.85,0.5,1.49,0.47,1.42-0.08
			c-0.07-0.53-0.78-1.35-1.6-1.84C151.55,63.1,150.91,63.11,150.94,63.63z"/>
		<path id="XMLID_12634_" d="M128.99,50.03c0-0.1-0.26-0.25-0.58-0.32c-0.32-0.07-0.6-0.05-0.6,0.05c0,0.1,0.26,0.25,0.59,0.32
			C128.71,50.15,128.99,50.13,128.99,50.03z"/>
		<path id="XMLID_12633_" d="M149.73,56.27c0.37,0.22,0.56,0.29,0.43,0.16c-0.13-0.13-0.53-0.41-0.89-0.62
			c-0.36-0.21-0.56-0.29-0.43-0.16C148.96,55.77,149.36,56.06,149.73,56.27z"/>
		<path id="XMLID_12632_" d="M163.24,84.78c-0.43-0.3-0.8-0.13-0.81,0.38c-0.02,0.51,0.33,1.18,0.76,1.48
			c0.44,0.3,0.8,0.11,0.81-0.4C164.01,85.74,163.67,85.08,163.24,84.78z"/>
		<path id="XMLID_12631_" d="M115.22,47.16c0.06-0.11-0.23-0.22-0.67-0.25c-0.44-0.03-0.85,0.03-0.92,0.14
			c-0.08,0.11,0.22,0.22,0.66,0.25C114.73,47.33,115.14,47.27,115.22,47.16z"/>
		<path id="XMLID_12630_" d="M150.99,56.84c0.45,0.29,0.66,0.39,0.47,0.23c-0.18-0.15-0.68-0.5-1.12-0.78
			c-0.45-0.29-0.67-0.4-0.5-0.25C150.03,56.19,150.54,56.55,150.99,56.84z"/>
		<path id="XMLID_12629_" d="M115.94,49.14c-0.05,0.12,0.18,0.24,0.53,0.28c0.35,0.04,0.66-0.03,0.71-0.15
			c0.04-0.12-0.19-0.24-0.54-0.27C116.31,48.95,115.99,49.02,115.94,49.14z"/>
		<path id="XMLID_12628_" d="M154.05,61.23c-0.22-0.15-0.37-0.17-0.33-0.06c0.04,0.11,0.24,0.32,0.47,0.47
			c0.22,0.15,0.37,0.18,0.33,0.06C154.47,61.58,154.27,61.38,154.05,61.23z"/>
		<path id="XMLID_12627_" d="M81.55,98.49c-0.99-0.31-2.1,0.36-2.49,1.5c-0.38,1.13,0.1,2.32,1.09,2.65
			c1.01,0.34,2.14-0.33,2.53-1.49C83.06,100,82.56,98.81,81.55,98.49z"/>
		<path id="XMLID_12626_" d="M148.48,55.19c0.27,0.16,0.41,0.22,0.31,0.14c-0.1-0.08-0.4-0.27-0.67-0.43
			c-0.27-0.16-0.42-0.23-0.32-0.15C147.9,54.83,148.2,55.03,148.48,55.19z"/>
		<path id="XMLID_12625_" d="M167.48,100.81c0.33,0.22,0.63-0.01,0.68-0.5c0.05-0.5-0.17-1.08-0.5-1.3
			c-0.33-0.23-0.63-0.01-0.68,0.5C166.93,100.01,167.15,100.59,167.48,100.81z"/>
		<path id="XMLID_12624_" d="M69.2,70.72c-0.54,1.47,0.23,2.3,1.76,1.83c1.57-0.49,3.27-2.14,3.77-3.66
			c0.48-1.46-0.39-2.19-1.92-1.66C71.33,67.74,69.72,69.3,69.2,70.72z"/>
		<path id="XMLID_12623_" d="M108.92,160.11c-0.05-1.39-1.66-2.59-3.61-2.67c-1.93-0.08-3.4,0.99-3.28,2.37
			c0.12,1.33,1.72,2.48,3.58,2.57C107.48,162.46,108.96,161.44,108.92,160.11z"/>
		<path id="XMLID_12622_" d="M61.29,149.04c-0.79-2.09-2.56-4.41-3.92-5.14c-1.28-0.68-1.64,0.4-0.85,2.36
			c0.76,1.9,2.39,4.04,3.66,4.84C61.53,151.95,62.04,151.05,61.29,149.04z"/>
		<path id="XMLID_12621_" d="M107.04,115.31c-0.01-3-2.41-5.41-5.36-5.4c-2.92,0.01-5.27,2.41-5.26,5.37
			c0.02,2.94,2.38,5.34,5.29,5.37C104.66,120.68,107.04,118.29,107.04,115.31z"/>
		<path id="XMLID_12620_" d="M83.83,85.02c-2.29,0.24-4.32,2.35-4.56,4.73c-0.24,2.43,1.45,4.27,3.79,4.11
			c2.4-0.17,4.51-2.36,4.7-4.86C87.95,86.55,86.18,84.77,83.83,85.02z"/>
		<path id="XMLID_12619_" d="M78.41,114.55c1.34,0.01,2.43-1.23,2.44-2.79c0-1.55-1.08-2.79-2.42-2.77
			c-1.32,0.02-2.38,1.27-2.39,2.79C76.04,113.3,77.09,114.54,78.41,114.55z"/>
		<path id="XMLID_12618_" d="M143.77,76.45c0.25,1.46,1.67,2.85,3.16,3.1c1.46,0.24,2.4-0.72,2.11-2.15
			c-0.28-1.39-1.65-2.74-3.08-3.01C144.52,74.11,143.53,75.03,143.77,76.45z"/>
		<path id="XMLID_12617_" d="M131.74,48.28c0.72,0.18,1.14,0.21,0.94,0.06c-0.19-0.14-0.9-0.39-1.59-0.57
			c-0.7-0.18-1.13-0.21-0.97-0.08C130.29,47.84,131.01,48.1,131.74,48.28z"/>
		<path id="XMLID_12616_" d="M76.37,105.16c-0.03,0.92,0.6,1.66,1.4,1.63c0.81-0.02,1.49-0.8,1.51-1.74
			c0.03-0.93-0.6-1.66-1.41-1.63C77.07,103.46,76.4,104.24,76.37,105.16z"/>
		<path id="XMLID_12615_" d="M143.78,54.43c-0.58-0.72-2.31-1.72-3.87-2.26c-1.6-0.54-2.52-0.42-2.04,0.28
			c0.52,0.75,2.34,1.83,4.04,2.39C143.57,55.38,144.39,55.19,143.78,54.43z"/>
		<path id="XMLID_12614_" d="M146.16,67.69c1.03,0.25,1.63-0.23,1.36-1.08c-0.27-0.83-1.3-1.7-2.31-1.97
			c-1.02-0.27-1.65,0.19-1.41,1.03C144.06,66.52,145.12,67.43,146.16,67.69z"/>
		<path id="XMLID_12613_" d="M133.56,50.57c-1.18-0.28-1.94-0.14-1.68,0.32c0.27,0.48,1.5,1.12,2.74,1.41
			c1.22,0.29,1.95,0.12,1.62-0.37C135.92,51.46,134.73,50.85,133.56,50.57z"/>
		<path id="XMLID_12612_" d="M54.57,80.5c0.22-0.18,0.56-0.69,0.75-1.14c0.19-0.44,0.15-0.64-0.07-0.45
			c-0.22,0.19-0.55,0.69-0.73,1.12C54.33,80.46,54.35,80.67,54.57,80.5z"/>
		<path id="XMLID_12611_" d="M60.78,71.86c-0.23,0.45-0.15,0.63,0.2,0.41c0.35-0.23,0.83-0.79,1.06-1.24
			c0.23-0.45,0.13-0.61-0.22-0.38C61.48,70.88,61.01,71.42,60.78,71.86z"/>
		<path id="XMLID_12610_" d="M91.66,51.7c-0.32,0.58,0.57,0.82,2,0.55c1.44-0.28,2.82-0.97,3.07-1.54c0.23-0.54-0.69-0.75-2.06-0.48
			C93.31,50.49,91.97,51.15,91.66,51.7z"/>
		<path id="XMLID_12609_" d="M75.34,64.7c-0.47,1.13,0.3,1.73,1.74,1.31c1.47-0.43,3.01-1.72,3.43-2.87c0.4-1.11-0.44-1.64-1.85-1.2
			C77.27,62.38,75.79,63.6,75.34,64.7z"/>
		<path id="XMLID_12608_" d="M80.07,53.41c-0.6,0.45-0.08,0.39,1.21-0.17c1.31-0.57,2.83-1.39,3.36-1.82
			c0.51-0.41-0.1-0.29-1.35,0.25C82.07,52.21,80.65,52.98,80.07,53.41z"/>
		<path id="XMLID_12607_" d="M103.93,47.59c-1.52,0.15-2.9,0.65-3.1,1.11c-0.21,0.5,0.92,0.77,2.53,0.62
			c1.62-0.16,3.03-0.68,3.14-1.17C106.61,47.7,105.45,47.44,103.93,47.59z"/>
		<path id="XMLID_12606_" d="M64.88,64.44c-0.43,0.38-1.09,1.05-1.49,1.5c-0.4,0.45-0.37,0.52,0.06,0.14
			c0.44-0.39,1.14-1.09,1.53-1.54C65.37,64.09,65.32,64.05,64.88,64.44z"/>
		<path id="XMLID_12605_" d="M173.37,126.87c-1.87,2.55-3.23,7.06-3.01,9.92c0.21,2.61,1.76,2.56,3.42,0.04
			c1.55-2.37,2.76-6.3,2.73-8.95C176.48,125.05,175.1,124.52,173.37,126.87z"/>
		<path id="XMLID_12604_" d="M173.72,142.31c0.44-1.13,0.02-0.82-0.98,0.77c-1.04,1.65-2.22,3.9-2.59,4.94
			c-0.35,0.98,0.17,0.46,1.14-1.1C172.22,145.42,173.3,143.38,173.72,142.31z"/>
		<path id="XMLID_12603_" d="M164.57,155.78c1.19-1.3,2.34-2.94,2.6-3.7c0.28-0.81-0.52-0.36-1.8,1.04
			c-1.31,1.42-2.53,3.17-2.71,3.89C162.5,157.66,163.36,157.1,164.57,155.78z"/>
		<path id="XMLID_12602_" d="M173.5,138.91c-0.66,1.02-1.31,2.55-1.44,3.4c-0.12,0.82,0.3,0.65,0.93-0.35
			c0.62-0.97,1.23-2.42,1.39-3.26C174.53,137.84,174.14,137.91,173.5,138.91z"/>
		<path id="XMLID_12601_" d="M168.01,149.89c1.34-1.63,2.58-3.94,2.8-5.2c0.22-1.35-0.76-1.1-2.22,0.63
			c-1.51,1.79-2.84,4.3-2.94,5.56C165.56,152.03,166.62,151.57,168.01,149.89z"/>
		<path id="XMLID_12600_" d="M166.72,146.62c1.29-1.4,2.28-3.58,2.24-4.88c-0.05-1.38-1.2-1.35-2.58,0.1
			c-1.43,1.5-2.47,3.81-2.32,5.15C164.19,148.24,165.39,148.07,166.72,146.62z"/>
		<path id="XMLID_12599_" d="M167.11,134.82c-0.8,0.84-1.31,2.29-1.14,3.23c0.17,0.9,0.93,0.95,1.7,0.12
			c0.75-0.82,1.25-2.22,1.12-3.13C168.64,134.09,167.9,133.99,167.11,134.82z"/>
		<path id="XMLID_12598_" d="M138.52,162.11c0.19-0.6-0.31-0.98-1.12-0.86c-0.82,0.12-1.64,0.7-1.82,1.3
			c-0.18,0.59,0.34,0.96,1.15,0.84C137.52,163.26,138.32,162.69,138.52,162.11z"/>
		<path id="XMLID_12597_" d="M50.29,139.67c0.15,0.43,0.5,1.21,0.79,1.76c0.29,0.56,0.41,0.68,0.26,0.27
			c-0.15-0.43-0.51-1.24-0.81-1.81C50.24,139.33,50.14,139.23,50.29,139.67z"/>
		<path id="XMLID_12596_" d="M160.88,156.23c0.74-0.4,1.7-1.44,2.17-2.34c0.48-0.92,0.28-1.37-0.46-0.99
			c-0.76,0.39-1.78,1.47-2.25,2.42C159.87,156.23,160.12,156.64,160.88,156.23z"/>
		<path id="XMLID_12595_" d="M169.39,149.98c0.26-0.4,0.33-0.54,0.15-0.32c-0.18,0.23-0.53,0.74-0.79,1.15
			c-0.26,0.4-0.32,0.53-0.14,0.3C168.79,150.87,169.14,150.37,169.39,149.98z"/>
		<path id="XMLID_12594_" d="M168.67,150.79c0.43-0.68,0.5-0.95,0.15-0.58c-0.36,0.37-1.01,1.25-1.45,1.95
			c-0.43,0.69-0.47,0.92-0.11,0.53C167.62,152.31,168.24,151.47,168.67,150.79z"/>
		<path id="XMLID_12593_" d="M165.96,154.71c0.34-0.41,0.96-1.21,1.42-1.83c0.45-0.61,0.57-0.8,0.23-0.41
			c-0.34,0.41-1,1.26-1.46,1.89C165.69,154.98,165.61,155.12,165.96,154.71z"/>
		<path id="XMLID_12592_" d="M175.13,135.8c-0.14,0.47-0.14,0.77,0,0.65c0.14-0.12,0.37-0.6,0.52-1.07
			c0.14-0.48,0.15-0.77,0.01-0.66C175.51,134.83,175.28,135.31,175.13,135.8z"/>
		<path id="XMLID_12591_" d="M177.95,124.33c-0.21,0.08-0.49,0.82-0.63,1.64c-0.14,0.82-0.08,1.41,0.13,1.3
			c0.2-0.1,0.48-0.83,0.61-1.63C178.2,124.85,178.15,124.26,177.95,124.33z"/>
		<path id="XMLID_12590_" d="M163.51,154.51c0.29-0.18,0.7-0.65,0.91-1.04c0.21-0.39,0.16-0.57-0.13-0.39
			c-0.29,0.18-0.71,0.65-0.92,1.05C163.16,154.53,163.22,154.69,163.51,154.51z"/>
		<path id="XMLID_12589_" d="M165.41,149.76c0.32-0.71,0.17-1.08-0.32-0.84c-0.51,0.25-1.17,1.04-1.49,1.77
			c-0.31,0.71-0.15,1.07,0.36,0.8C164.45,151.23,165.1,150.46,165.41,149.76z"/>
		<path id="XMLID_12588_" d="M163.32,145.81c0.38-1.14-0.01-1.87-0.87-1.61c-0.89,0.27-1.92,1.45-2.29,2.63
			c-0.37,1.17,0.06,1.85,0.94,1.55C161.96,148.08,162.95,146.95,163.32,145.81z"/>
		<path id="XMLID_12587_" d="M177.15,131.45c0.12-0.1,0.32-0.62,0.45-1.15c0.13-0.53,0.14-0.89,0.02-0.8
			c-0.12,0.09-0.33,0.61-0.46,1.16C177.03,131.2,177.02,131.56,177.15,131.45z"/>
		<path id="XMLID_12586_" d="M159.18,153.26c-0.32,0.76-0.06,1.15,0.57,0.88c0.62-0.27,1.39-1.08,1.72-1.83
			c0.33-0.75,0.1-1.17-0.53-0.92C160.3,151.65,159.51,152.49,159.18,153.26z"/>
		<path id="XMLID_12585_" d="M138.51,159.41c0.1-0.35-0.18-0.59-0.63-0.53c-0.46,0.06-0.9,0.4-1,0.75c-0.1,0.35,0.19,0.58,0.64,0.52
			C137.97,160.09,138.41,159.76,138.51,159.41z"/>
		<path id="XMLID_12584_" d="M99.74,171.91c1.06,0.14,1.87-0.16,1.81-0.69c-0.06-0.55-1-1.11-2.09-1.26
			c-1.09-0.15-1.9,0.18-1.8,0.73C97.76,171.22,98.69,171.76,99.74,171.91z"/>
		<path id="XMLID_12583_" d="M108.31,125.62c0.6,0.03,1.12-0.44,1.14-1.03c0.02-0.6-0.45-1.11-1.05-1.14
			c-0.6-0.03-1.12,0.43-1.14,1.03C107.23,125.07,107.71,125.59,108.31,125.62z"/>
		<path id="XMLID_12582_" d="M149.14,157.56c-0.37,0.09-0.78,0.44-0.91,0.77c-0.12,0.33,0.08,0.52,0.45,0.42
			c0.37-0.09,0.77-0.43,0.9-0.76C149.7,157.65,149.51,157.46,149.14,157.56z"/>
		<path id="XMLID_12581_" d="M51.44,141.38c0.36,0.63,0.56,0.74,0.43,0.24c-0.13-0.51-0.53-1.44-0.9-2.08
			c-0.36-0.63-0.54-0.7-0.41-0.19C50.7,139.86,51.09,140.76,51.44,141.38z"/>
		<path id="XMLID_12580_" d="M48.01,131.74c0.2,0.25,0.21-0.23,0.03-1.08c-0.19-0.86-0.51-1.73-0.7-1.95
			c-0.19-0.21-0.19,0.29-0.01,1.12C47.51,130.64,47.81,131.49,48.01,131.74z"/>
		<path id="XMLID_12579_" d="M81.58,172.42c-0.46-0.21-0.68-0.26-0.49-0.11c0.19,0.15,0.7,0.43,1.16,0.64
			c0.46,0.21,0.69,0.26,0.51,0.12C82.58,172.93,82.05,172.64,81.58,172.42z"/>
		<path id="XMLID_12578_" d="M85.48,173.71c0.59,0.22,0.93,0.23,0.76,0.03c-0.18-0.21-0.82-0.55-1.43-0.78
			c-0.6-0.22-0.92-0.22-0.73-0.01C84.27,173.15,84.9,173.49,85.48,173.71z"/>
		<path id="XMLID_12577_" d="M150.25,168.45c-0.27,0.15-0.63,0.39-0.79,0.54c-0.17,0.15-0.08,0.15,0.19,0
			c0.27-0.15,0.62-0.38,0.78-0.54C150.6,168.31,150.52,168.3,150.25,168.45z"/>
		<path id="XMLID_12576_" d="M129.44,174.41c0.55-0.09,1.11-0.35,1.24-0.58c0.13-0.23-0.22-0.35-0.78-0.26
			c-0.56,0.09-1.12,0.35-1.24,0.59C128.54,174.38,128.89,174.5,129.44,174.41z"/>
		<path id="XMLID_12575_" d="M150.13,153.22c-0.73,0.16-1.51,0.86-1.74,1.56c-0.22,0.69,0.19,1.11,0.91,0.95
			c0.72-0.17,1.48-0.85,1.71-1.54C151.24,153.5,150.85,153.07,150.13,153.22z"/>
		<path id="XMLID_12574_" d="M111.22,175.73c-0.02,0.24,0.52,0.45,1.2,0.47c0.68,0.01,1.27-0.18,1.3-0.42
			c0.04-0.25-0.5-0.47-1.2-0.48C111.83,175.28,111.24,175.47,111.22,175.73z"/>
		<path id="XMLID_12573_" d="M46.39,124.54c-0.11-0.76-0.31-1.49-0.44-1.62c-0.12-0.13-0.14,0.36-0.03,1.09
			c0.11,0.74,0.3,1.45,0.43,1.61C46.49,125.78,46.5,125.3,46.39,124.54z"/>
		<path id="XMLID_12572_" d="M46.94,128.54c0.09,0.12,0.09-0.16-0.01-0.64c-0.09-0.47-0.24-0.96-0.33-1.07
			c-0.09-0.11-0.08,0.18,0.01,0.65C46.7,127.95,46.85,128.42,46.94,128.54z"/>
		<path id="XMLID_12571_" d="M99.32,168.45c0.03,0.26,0.43,0.51,0.88,0.57c0.45,0.06,0.81-0.1,0.79-0.36
			c-0.02-0.26-0.42-0.52-0.89-0.57C99.65,168.03,99.29,168.19,99.32,168.45z"/>
		<path id="XMLID_12570_" d="M52.79,144.42c0.31,0.51,0.47,0.64,0.35,0.28c-0.12-0.37-0.48-1.09-0.8-1.61
			c-0.31-0.51-0.46-0.62-0.33-0.24C52.13,143.22,52.48,143.92,52.79,144.42z"/>
		<path id="XMLID_12569_" d="M53.73,146.26c-0.05-0.12-0.19-0.37-0.3-0.56c-0.12-0.19-0.17-0.24-0.12-0.12
			c0.05,0.12,0.19,0.37,0.3,0.55C53.73,146.32,53.78,146.38,53.73,146.26z"/>
		<path id="XMLID_12568_" d="M50.17,136.88c-0.14-0.88-0.66-2.36-1.14-3.28c-0.47-0.9-0.72-0.9-0.56-0.02
			c0.15,0.86,0.64,2.25,1.09,3.14C50.03,137.64,50.3,137.72,50.17,136.88z"/>
		<path id="XMLID_12567_" d="M49.98,138.51c0.14,0.29,0.21,0.33,0.14,0.09c-0.07-0.24-0.24-0.69-0.39-0.98
			c-0.15-0.29-0.21-0.32-0.14-0.08C49.66,137.79,49.83,138.22,49.98,138.51z"/>
		<path id="XMLID_12566_" d="M51.91,143.06c0.07,0.18,0.25,0.54,0.4,0.81c0.15,0.26,0.21,0.33,0.14,0.15
			c-0.07-0.18-0.25-0.54-0.4-0.81C51.9,142.94,51.84,142.88,51.91,143.06z"/>
		<path id="XMLID_12565_" d="M52.62,144.62c0.23,0.41,0.31,0.53,0.19,0.27c-0.13-0.27-0.42-0.83-0.65-1.25
			c-0.23-0.42-0.31-0.52-0.18-0.25C52.11,143.66,52.4,144.21,52.62,144.62z"/>
		<path id="XMLID_12564_" d="M50.79,133.57c0.18,0.28,0.33,0.27,0.33-0.03c0-0.31-0.15-0.8-0.34-1.08
			c-0.19-0.28-0.33-0.26-0.33,0.05C50.46,132.81,50.61,133.29,50.79,133.57z"/>
		<path id="XMLID_12563_" d="M88.07,174.56c0.13,0.15,0.65,0.4,1.15,0.56c0.51,0.16,0.82,0.16,0.7,0.01
			c-0.13-0.15-0.65-0.41-1.17-0.57C88.25,174.4,87.94,174.4,88.07,174.56z"/>
		<path id="XMLID_12562_" d="M62.36,148.79c0.21,0.63,0.8,1.35,1.32,1.61c0.53,0.26,0.8-0.05,0.6-0.69c-0.2-0.66-0.81-1.4-1.35-1.65
			C62.41,147.81,62.15,148.14,62.36,148.79z"/>
		<path id="XMLID_12561_" d="M107.44,130.81c0.73,0.04,1.35-0.51,1.38-1.21c0.03-0.71-0.55-1.33-1.28-1.37
			c-0.74-0.04-1.35,0.52-1.38,1.23C106.13,130.16,106.71,130.78,107.44,130.81z"/>
		<path id="XMLID_12560_" d="M103.74,177.98c-0.02-0.1-0.38-0.22-0.79-0.27c-0.42-0.05-0.73-0.01-0.69,0.09
			c0.03,0.1,0.39,0.22,0.79,0.27C103.46,178.11,103.76,178.07,103.74,177.98z"/>
		<path id="XMLID_12559_" d="M96.54,106.36c-0.06,1.07,0.74,1.97,1.79,2.01c1.05,0.04,1.95-0.8,2-1.88c0.06-1.06-0.75-1.96-1.8-2
			C97.49,104.47,96.6,105.31,96.54,106.36z"/>
		<path id="XMLID_12558_" d="M95.28,174.77c0.08,0.19,0.59,0.44,1.14,0.55c0.54,0.1,0.94,0.03,0.87-0.16
			c-0.07-0.2-0.58-0.45-1.14-0.55C95.59,174.49,95.2,174.57,95.28,174.77z"/>
		<path id="XMLID_12557_" d="M163.08,149.74c-0.13,0.31-0.04,0.48,0.18,0.38c0.22-0.1,0.51-0.43,0.63-0.74
			c0.13-0.31,0.05-0.48-0.18-0.38C163.49,149.1,163.21,149.43,163.08,149.74z"/>
		<path id="XMLID_12556_" d="M162.28,148.73c-0.15,0.42-0.03,0.66,0.29,0.53c0.31-0.12,0.69-0.57,0.85-0.98
			c0.16-0.42,0.03-0.66-0.28-0.54C162.82,147.86,162.43,148.3,162.28,148.73z"/>
		<path id="XMLID_12555_" d="M157.92,148.63c-0.14,0.42,0.04,0.68,0.39,0.57c0.35-0.1,0.74-0.52,0.88-0.94
			c0.14-0.42-0.03-0.68-0.38-0.59C158.46,147.78,158.06,148.21,157.92,148.63z"/>
		<path id="XMLID_12554_" d="M164.26,142.54c0.59-0.19,1.27-1.04,1.51-1.92c0.24-0.88-0.04-1.48-0.63-1.32
			c-0.61,0.16-1.3,1.04-1.55,1.95C163.35,142.15,163.65,142.72,164.26,142.54z"/>
		<path id="XMLID_12553_" d="M170.15,132.2c0.09-0.43-0.03-0.73-0.26-0.68c-0.23,0.05-0.49,0.45-0.58,0.88
			c-0.09,0.43,0.03,0.73,0.26,0.67C169.81,133.01,170.07,132.62,170.15,132.2z"/>
		<path id="XMLID_12552_" d="M169.21,137.32c-0.34,0.12-0.76,0.72-0.93,1.33c-0.17,0.62-0.02,1.01,0.32,0.88
			c0.34-0.13,0.75-0.72,0.92-1.32C169.68,137.61,169.54,137.21,169.21,137.32z"/>
		<path id="XMLID_12551_" d="M164.76,138.28c-0.07,0.27,0.02,0.46,0.21,0.41c0.18-0.05,0.37-0.3,0.44-0.57
			c0.07-0.27-0.02-0.46-0.2-0.41C165.02,137.75,164.82,138,164.76,138.28z"/>
		<path id="XMLID_12550_" d="M176.62,122.96c0.04-0.33-0.01-0.58-0.12-0.56c-0.11,0.02-0.23,0.3-0.27,0.63
			c-0.04,0.33,0.01,0.58,0.12,0.55C176.46,123.56,176.58,123.29,176.62,122.96z"/>
		<path id="XMLID_12549_" d="M175.98,122.5c0.06-0.48-0.04-0.85-0.21-0.83c-0.18,0.02-0.37,0.45-0.43,0.93
			c-0.06,0.49,0.04,0.86,0.22,0.83C175.74,123.4,175.93,122.98,175.98,122.5z"/>
		<path id="XMLID_12548_" d="M172.24,140.67c0.21-0.58,0.16-0.93-0.1-0.77c-0.27,0.16-0.65,0.78-0.86,1.38
			c-0.21,0.59-0.16,0.93,0.11,0.76C171.65,141.86,172.03,141.25,172.24,140.67z"/>
		<path id="XMLID_12547_" d="M169.71,143.32c0.39-0.22,0.92-1.01,1.18-1.76c0.27-0.76,0.17-1.22-0.22-1.02
			c-0.4,0.2-0.94,1.01-1.21,1.79C169.2,143.1,169.31,143.54,169.71,143.32z"/>
		<path id="XMLID_12546_" d="M162.61,156.22c0.32-0.51,0.23-0.72-0.19-0.46c-0.43,0.27-1.04,0.91-1.35,1.42
			c-0.31,0.51-0.21,0.7,0.22,0.43C161.71,157.34,162.3,156.72,162.61,156.22z"/>
		<path id="XMLID_12545_" d="M169.31,148.85c0.17-0.16,0.45-0.57,0.63-0.91c0.18-0.35,0.2-0.51,0.03-0.36
			c-0.17,0.15-0.46,0.57-0.64,0.93C169.15,148.85,169.15,149,169.31,148.85z"/>
		<path id="XMLID_12544_" d="M164.21,156.64c0.19-0.19,0.52-0.57,0.74-0.86c0.22-0.28,0.24-0.36,0.05-0.17
			c-0.19,0.19-0.53,0.58-0.75,0.87C164.02,156.76,164.01,156.83,164.21,156.64z"/>
		<path id="XMLID_12543_" d="M174.69,139.13c-0.14,0.16-0.42,0.69-0.62,1.19c-0.19,0.49-0.23,0.76-0.08,0.59
			c0.14-0.17,0.42-0.69,0.61-1.18C174.79,139.24,174.83,138.97,174.69,139.13z"/>
		<path id="XMLID_12542_" d="M171.83,144.21c0.17-0.38,0.18-0.58,0.02-0.44c-0.16,0.14-0.43,0.57-0.6,0.95
			c-0.17,0.38-0.17,0.57-0.01,0.43C171.4,145.01,171.67,144.59,171.83,144.21z"/>
		<path id="XMLID_12541_" d="M176.2,133.14c0.08-0.31,0.08-0.51-0.01-0.45c-0.09,0.06-0.23,0.38-0.32,0.69
			c-0.08,0.31-0.08,0.52,0.01,0.45C175.97,133.76,176.11,133.45,176.2,133.14z"/>
		<path id="XMLID_12540_" d="M174.66,136.78c0.11-0.34,0.1-0.55-0.02-0.46c-0.12,0.08-0.3,0.43-0.41,0.77
			c-0.11,0.34-0.1,0.55,0.02,0.46C174.37,137.46,174.55,137.12,174.66,136.78z"/>
		<path id="XMLID_12539_" d="M178.68,126.05c0.13-0.69,0.12-1.19-0.01-1.11c-0.14,0.08-0.35,0.72-0.48,1.43
			c-0.13,0.7-0.12,1.2,0.02,1.1C178.34,127.37,178.56,126.73,178.68,126.05z"/>
		<path id="XMLID_12538_" d="M178.62,123.97c0.13-0.06,0.32-0.65,0.41-1.32c0.09-0.66,0.05-1.18-0.08-1.14
			c-0.14,0.05-0.32,0.65-0.42,1.33C178.44,123.53,178.48,124.04,178.62,123.97z"/>
		<path id="XMLID_12537_" d="M131.92,54.96c-0.74-0.13-1.25,0.09-1.13,0.49c0.13,0.41,0.84,0.86,1.6,0.99
			c0.75,0.13,1.25-0.1,1.11-0.52C133.37,55.52,132.66,55.09,131.92,54.96z"/>
		<path id="XMLID_12536_" d="M134.2,52.68c-0.54-0.12-0.89-0.02-0.77,0.23c0.12,0.26,0.66,0.56,1.22,0.68
			c0.55,0.12,0.89,0.01,0.76-0.24C135.28,53.11,134.74,52.81,134.2,52.68z"/>
		<path id="XMLID_12535_" d="M136.5,53.12c0.07,0.12,0.33,0.27,0.6,0.34c0.26,0.07,0.41,0.02,0.34-0.1
			c-0.07-0.12-0.34-0.27-0.59-0.34C136.59,52.96,136.44,53,136.5,53.12z"/>
		<path id="XMLID_12534_" d="M155.29,61.37c0.52,0.31,0.67,0.24,0.35-0.15c-0.31-0.38-0.97-0.92-1.48-1.23
			c-0.52-0.31-0.69-0.26-0.39,0.12C154.09,60.5,154.77,61.06,155.29,61.37z"/>
		<path id="XMLID_12533_" d="M157.25,61.49c-0.25-0.23-0.7-0.61-1.02-0.86c-0.31-0.25-0.37-0.27-0.12-0.04
			c0.25,0.23,0.72,0.63,1.03,0.88C157.46,61.72,157.51,61.73,157.25,61.49z"/>
		<path id="XMLID_12532_" d="M134.36,58.77c-0.41-0.07-0.69,0.08-0.62,0.34c0.07,0.26,0.47,0.54,0.89,0.61
			c0.41,0.07,0.69-0.08,0.61-0.35C135.16,59.11,134.76,58.84,134.36,58.77z"/>
		<path id="XMLID_12531_" d="M153.59,81.62c-0.13-0.68-0.73-1.33-1.35-1.46c-0.63-0.13-1.04,0.32-0.91,1
			c0.13,0.7,0.74,1.36,1.38,1.48C153.33,82.76,153.72,82.3,153.59,81.62z"/>
		<path id="XMLID_12530_" d="M156.81,84.54c-0.4-0.09-0.66,0.23-0.57,0.72c0.09,0.49,0.48,0.95,0.88,1.03
			c0.4,0.08,0.65-0.24,0.56-0.73C157.6,85.09,157.21,84.63,156.81,84.54z"/>
		<path id="XMLID_12529_" d="M134.25,76.58c-0.03-0.27-0.3-0.52-0.61-0.55c-0.31-0.03-0.53,0.17-0.5,0.44
			c0.03,0.27,0.3,0.52,0.61,0.55C134.05,77.05,134.28,76.85,134.25,76.58z"/>
		<path id="XMLID_12528_" d="M101.18,89.2c-0.55,0.02-1.01,0.46-1.03,0.98c-0.02,0.53,0.42,0.94,0.97,0.93
			c0.55-0.02,1.01-0.46,1.03-0.99C102.16,89.6,101.73,89.18,101.18,89.2z"/>
		<path id="XMLID_12527_" d="M154.32,118.66c-0.03,0.9,0.52,1.6,1.22,1.57c0.69-0.04,1.28-0.78,1.31-1.67
			c0.03-0.89-0.51-1.59-1.2-1.57C154.94,117.01,154.35,117.76,154.32,118.66z"/>
		<path id="XMLID_12526_" d="M162.18,123.67c0.61-0.06,1.15-0.84,1.21-1.72c0.06-0.89-0.39-1.58-1.01-1.53
			c-0.63,0.05-1.18,0.82-1.23,1.73C161.1,123.05,161.56,123.73,162.18,123.67z"/>
		<path id="XMLID_12525_" d="M164.42,118.42c0.02-0.47-0.22-0.85-0.53-0.83c-0.32,0.02-0.59,0.42-0.61,0.9
			c-0.02,0.48,0.23,0.85,0.54,0.83C164.13,119.3,164.4,118.89,164.42,118.42z"/>
		<path id="XMLID_12524_" d="M163.46,115.7c0.4-0.01,0.73-0.51,0.74-1.11c0.01-0.6-0.31-1.08-0.71-1.08c-0.41,0-0.74,0.5-0.75,1.11
			C162.73,115.23,163.05,115.71,163.46,115.7z"/>
		<path id="XMLID_12523_" d="M170.28,124.96c-0.7,0.14-1.39,1.29-1.55,2.58c-0.16,1.28,0.28,2.16,0.97,1.98
			c0.67-0.18,1.34-1.32,1.5-2.55C171.36,125.74,170.95,124.83,170.28,124.96z"/>
		<path id="XMLID_12522_" d="M177.98,122.1c0.07-0.62-0.02-1.08-0.19-1.02c-0.18,0.06-0.38,0.63-0.45,1.27
			c-0.07,0.64,0.02,1.09,0.2,1.01C177.71,123.28,177.91,122.72,177.98,122.1z"/>
		<path id="XMLID_12521_" d="M176.62,93.01c-0.09-0.08-0.1,0.12-0.02,0.44c0.08,0.32,0.21,0.65,0.3,0.72
			c0.09,0.07,0.09-0.13,0.02-0.45C176.84,93.41,176.71,93.09,176.62,93.01z"/>
		<path id="XMLID_12520_" d="M175.69,93.76c-0.08-0.34-0.23-0.68-0.35-0.76c-0.12-0.08-0.16,0.14-0.08,0.49
			c0.08,0.35,0.23,0.69,0.36,0.76C175.73,94.32,175.76,94.1,175.69,93.76z"/>
		<path id="XMLID_12519_" d="M173.02,86.64c-0.16-0.11-0.19,0.1-0.08,0.47c0.11,0.37,0.32,0.76,0.48,0.86
			c0.15,0.1,0.19-0.11,0.08-0.47C173.39,87.13,173.18,86.75,173.02,86.64z"/>
		<path id="XMLID_12518_" d="M175,87.74c-0.1-0.1-0.09,0.07,0,0.37c0.1,0.3,0.25,0.63,0.35,0.72c0.09,0.09,0.09-0.08-0.01-0.38
			C175.25,88.16,175.1,87.84,175,87.74z"/>
		<path id="XMLID_12517_" d="M90.19,49.78c0.26-0.27-0.25-0.25-1.15,0.03c-0.88,0.28-1.83,0.72-2.13,0.99
			c-0.31,0.28,0.18,0.29,1.1,0C88.94,50.52,89.92,50.06,90.19,49.78z"/>
		<path id="XMLID_12516_" d="M93.69,48.76c-0.48,0.11-0.96,0.31-1.08,0.45c-0.12,0.14,0.17,0.16,0.66,0.04
			c0.49-0.12,0.98-0.32,1.09-0.46C94.48,48.66,94.18,48.64,93.69,48.76z"/>
		<path id="XMLID_12515_" d="M95.71,48.05c-0.11,0.12,0.22,0.14,0.76,0.03c0.53-0.11,1.05-0.29,1.15-0.41
			c0.1-0.12-0.24-0.13-0.77-0.03C96.33,47.74,95.82,47.93,95.71,48.05z"/>
		<path id="XMLID_12514_" d="M100.13,47.26c-0.88,0.13-1.71,0.42-1.86,0.63c-0.16,0.23,0.45,0.3,1.36,0.16
			c0.91-0.14,1.75-0.43,1.88-0.65C101.62,47.19,101,47.13,100.13,47.26z"/>
		<path id="XMLID_12513_" d="M89.72,54.01c0.15-0.31-0.24-0.44-0.87-0.29c-0.62,0.15-1.25,0.53-1.41,0.84
			c-0.16,0.32,0.21,0.46,0.85,0.3C88.93,54.72,89.57,54.33,89.72,54.01z"/>
		<path id="XMLID_12512_" d="M99.46,50.33c0.43-0.06,0.82-0.23,0.87-0.39c0.05-0.15-0.24-0.23-0.66-0.17
			c-0.42,0.06-0.81,0.23-0.87,0.38C98.74,50.3,99.04,50.38,99.46,50.33z"/>
		<path id="XMLID_12511_" d="M98.88,49c-0.36,0.05-0.7,0.19-0.75,0.31c-0.06,0.12,0.19,0.17,0.55,0.12c0.36-0.06,0.7-0.2,0.76-0.32
			C99.49,49,99.24,48.95,98.88,49z"/>
		<path id="XMLID_12510_" d="M108.5,48.95c0.02-0.13-0.28-0.22-0.66-0.2c-0.38,0.02-0.71,0.14-0.73,0.27
			c-0.02,0.13,0.27,0.22,0.66,0.2C108.16,49.2,108.48,49.08,108.5,48.95z"/>
		<path id="XMLID_12509_" d="M107.96,47.05c-0.45,0.02-0.83,0.14-0.86,0.25c-0.03,0.12,0.32,0.19,0.77,0.17
			c0.46-0.02,0.84-0.14,0.86-0.26C108.76,47.1,108.41,47.03,107.96,47.05z"/>
		<path id="XMLID_12508_" d="M92.44,88.06c0.05-0.83-0.59-1.44-1.42-1.39c-0.83,0.06-1.55,0.76-1.61,1.58
			c-0.06,0.82,0.57,1.45,1.41,1.4C91.66,89.6,92.39,88.89,92.44,88.06z"/>
		<path id="XMLID_12507_" d="M123.01,86.62c0.55,0.02,0.97-0.38,0.95-0.89c-0.02-0.5-0.48-0.93-1.02-0.95
			c-0.55-0.02-0.97,0.38-0.96,0.88C122.01,86.17,122.46,86.6,123.01,86.62z"/>
		<path id="XMLID_12506_" d="M127.82,115.16c-0.91,0-1.65,0.76-1.66,1.7c-0.01,0.93,0.73,1.67,1.64,1.67
			c0.91-0.01,1.64-0.77,1.65-1.69C129.45,115.91,128.73,115.16,127.82,115.16z"/>
		<path id="XMLID_12505_" d="M115.02,140.17c0.01-0.83-0.72-1.5-1.63-1.5c-0.91,0-1.64,0.68-1.64,1.5c0,0.82,0.73,1.48,1.63,1.48
			C114.28,141.65,115.02,140.99,115.02,140.17z"/>
		<path id="XMLID_12504_" d="M109.03,137.29c0.84,0.01,1.52-0.62,1.51-1.41c-0.01-0.8-0.69-1.45-1.54-1.45
			c-0.85-0.01-1.52,0.63-1.51,1.43C107.5,136.64,108.19,137.28,109.03,137.29z"/>
		<path id="XMLID_12503_" d="M142.08,122.05c-0.02,0.68,0.46,1.2,1.07,1.18c0.61-0.03,1.12-0.59,1.14-1.26
			c0.02-0.68-0.45-1.21-1.06-1.19C142.62,120.81,142.11,121.37,142.08,122.05z"/>
		<path id="XMLID_12502_" d="M136.85,131.19c0.04-0.79-0.55-1.41-1.33-1.37c-0.78,0.04-1.45,0.72-1.49,1.52
			c-0.04,0.8,0.57,1.4,1.34,1.36C136.14,132.65,136.8,131.98,136.85,131.19z"/>
		<path id="XMLID_12501_" d="M134.89,134.57c0.03-0.58-0.41-1.03-1-1c-0.59,0.03-1.09,0.53-1.13,1.12c-0.03,0.58,0.42,1.03,1,0.99
			C134.35,135.65,134.85,135.15,134.89,134.57z"/>
		<path id="XMLID_12500_" d="M131.43,146.43c-0.05,0.57,0.42,0.98,1.04,0.93c0.62-0.05,1.17-0.55,1.23-1.12
			c0.06-0.57-0.41-0.99-1.04-0.94C132.03,145.35,131.48,145.85,131.43,146.43z"/>
		<path id="XMLID_12499_" d="M107.96,153.01c-0.78-0.02-1.39,0.47-1.37,1.09c0.02,0.61,0.67,1.12,1.44,1.14
			c0.77,0.02,1.39-0.46,1.38-1.07C109.39,153.54,108.74,153.03,107.96,153.01z"/>
		<path id="XMLID_12498_" d="M118.99,167.94c-0.03,0.36,0.44,0.62,1.06,0.58c0.61-0.04,1.14-0.35,1.19-0.71
			c0.04-0.36-0.43-0.63-1.06-0.59C119.55,167.25,119.02,167.58,118.99,167.94z"/>
		<path id="XMLID_12497_" d="M135.03,175.01c0.16-0.18-0.17-0.21-0.74-0.06c-0.57,0.15-1.15,0.41-1.3,0.59
			c-0.14,0.17,0.2,0.2,0.76,0.05C134.31,175.45,134.88,175.19,135.03,175.01z"/>
		<path id="XMLID_12496_" d="M139.23,174.11c0.1-0.09-0.05-0.09-0.34,0.01c-0.29,0.1-0.62,0.26-0.72,0.35
			c-0.1,0.09,0.06,0.08,0.35-0.02C138.81,174.35,139.13,174.2,139.23,174.11z"/>
		<path id="XMLID_12495_" d="M132.66,176.72c-0.34,0.09-0.69,0.22-0.78,0.29c-0.09,0.07,0.11,0.05,0.45-0.04
			c0.33-0.09,0.68-0.22,0.77-0.29C133.19,176.61,133,176.63,132.66,176.72z"/>
		<path id="XMLID_12494_" d="M144.58,171.94c0.15-0.12,0.01-0.11-0.32,0.04c-0.33,0.15-0.72,0.37-0.86,0.49
			c-0.14,0.12,0,0.1,0.33-0.05C144.04,172.28,144.43,172.06,144.58,171.94z"/>
		<path id="XMLID_12493_" d="M153.25,166.26c0.39-0.24,0.9-0.64,1.14-0.9c0.25-0.27,0.13-0.29-0.26-0.05
			c-0.4,0.24-0.92,0.65-1.16,0.92C152.73,166.48,152.86,166.5,153.25,166.26z"/>
		<path id="XMLID_12492_" d="M80.23,80.83c-1.04,0.15-2,1.13-2.15,2.2c-0.15,1.08,0.57,1.84,1.62,1.71
			c1.07-0.14,2.05-1.14,2.19-2.23C82.02,81.42,81.28,80.67,80.23,80.83z"/>
		<path id="XMLID_12491_" d="M148.48,58.44c-0.48-0.2-0.71-0.11-0.52,0.21c0.2,0.32,0.76,0.74,1.24,0.94c0.48,0.2,0.7,0.09,0.5-0.23
			C149.5,59.05,148.95,58.64,148.48,58.44z"/>
		<path id="XMLID_12490_" d="M148.13,55.34c-0.16-0.14-0.54-0.38-0.85-0.54c-0.31-0.16-0.43-0.17-0.28-0.03
			c0.16,0.14,0.54,0.39,0.85,0.55C148.18,55.47,148.29,55.48,148.13,55.34z"/>
		<path id="XMLID_12489_" d="M150.74,57.21c0.33,0.18,0.44,0.18,0.25,0c-0.18-0.18-0.59-0.46-0.91-0.64
			c-0.32-0.18-0.44-0.19-0.26-0.01C150,56.74,150.41,57.03,150.74,57.21z"/>
		<path id="XMLID_12488_" d="M155.18,63.1c0.22,0.35,0.73,0.81,1.14,1.03c0.41,0.21,0.55,0.1,0.33-0.25
			c-0.22-0.35-0.72-0.8-1.12-1.01C155.12,62.65,154.97,62.75,155.18,63.1z"/>
		<path id="XMLID_12487_" d="M168.26,81.66c-0.11-0.33-0.36-0.69-0.56-0.79c-0.21-0.11-0.28,0.07-0.18,0.4
			c0.11,0.33,0.36,0.7,0.57,0.8C168.29,82.17,168.37,81.99,168.26,81.66z"/>
		<path id="XMLID_12486_" d="M170.87,101.69c-0.39-0.07-0.66,0.49-0.6,1.24c0.06,0.76,0.43,1.42,0.82,1.47
			c0.38,0.05,0.64-0.51,0.58-1.25C171.61,102.42,171.25,101.76,170.87,101.69z"/>
		<path id="XMLID_12485_" d="M171.65,110.9c0.01,0.54,0.23,0.98,0.49,0.99c0.26,0,0.47-0.43,0.46-0.96
			c-0.01-0.54-0.23-0.98-0.49-0.99C171.85,109.93,171.64,110.36,171.65,110.9z"/>
		<path id="XMLID_12484_" d="M48.68,134.85c-0.46-1.49-1.03-3.11-1.37-3.87c0.53,2.04,1.15,4.02,1.84,5.93
			C49.28,137.01,49.1,136.22,48.68,134.85z"/>
		<path id="XMLID_12483_" d="M177.48,131.54c-0.38,0.47-1.14,2.28-1.71,4.09c-0.57,1.84-0.7,2.85-0.29,2.31
			c0.01-0.01,0.02-0.03,0.03-0.05c0.07-0.1,0.15-0.23,0.23-0.39c0.71-1.95,1.34-3.97,1.88-6.06c-0.03,0-0.07,0.02-0.12,0.07
			C177.5,131.51,177.49,131.52,177.48,131.54z"/>
	</g>
</g>
</svg>
