<?xml version="1.0" encoding="utf-8"?>
<!-- Generator: Adobe Illustrator 26.2.1, SVG Export Plug-In . SVG Version: 6.00 Build 0)  -->
<svg version="1.1" xmlns="http://www.w3.org/2000/svg" xmlns:xlink="http://www.w3.org/1999/xlink" x="0px" y="0px"
	 viewBox="0 0 225 225" style="enable-background:new 0 0 225 225;" xml:space="preserve">
<style type="text/css">
	.st0{display:none;}
	.st1{display:inline;fill:#FAB433;}
	.st2{fill:none;}
	.st3{fill:none;stroke:#000000;stroke-width:1.6;stroke-miterlimit:10;}
	.st4{fill:none;stroke:#000000;stroke-width:0.7265;stroke-miterlimit:10;}
	.st5{fill:none;stroke:#000000;stroke-linecap:round;stroke-linejoin:round;stroke-miterlimit:10;}
	.st6{fill:none;stroke:#000000;stroke-miterlimit:10;}
	.st7{fill:none;stroke:#000000;stroke-width:0.7105;stroke-miterlimit:10;}
	.st8{fill:none;stroke:#000000;stroke-width:5.4;stroke-linecap:round;stroke-linejoin:round;stroke-miterlimit:10;}
	.st9{fill:none;stroke:#000000;stroke-width:2.9309;stroke-linecap:round;stroke-linejoin:round;stroke-miterlimit:10;}
	.st10{fill:none;stroke:#000000;stroke-width:0.5;stroke-linecap:round;stroke-linejoin:round;}
	.st11{fill:none;stroke:#FFFFFF;stroke-width:0;stroke-linecap:round;stroke-linejoin:round;}
	.st12{fill:#FFFFFF;}
	.st13{fill:none;stroke:#000000;stroke-width:1.4;stroke-miterlimit:10;}
	.st14{fill:url(#);stroke:#000000;stroke-width:1.4387;stroke-miterlimit:10;}
	.st15{fill:url(#);stroke:#000000;stroke-width:1.3718;stroke-miterlimit:10;}
	.st16{fill:none;stroke:#000000;stroke-width:1.0041;stroke-miterlimit:10;}
	.st17{fill:none;stroke:#000000;stroke-width:1.3621;stroke-miterlimit:10;}
	.st18{fill:none;stroke:#000000;stroke-width:0.25;stroke-miterlimit:10;}
</style>
<g id="Layer_2" class="st0">
	<rect id="XMLID_573_" x="-835.99" y="-30.01" class="st1" width="1160" height="772"/>
</g>
<g id="Layer_1">
	<path id="XMLID_12041_" d="M145.71,173.93l0.56-0.52c0.11-0.12,0.22-0.22,0.32-0.33c0.12-0.11,0.23-0.22,0.34-0.32
		c0.11-0.11,0.21-0.22,0.32-0.32c0.73-0.75,1.26-1.31,1.85-2.01c0.31-0.37,0.64-0.77,1.03-1.26c0.37-0.46,0.74-0.91,1.09-1.34
		c0.15-0.2,0.3-0.38,0.44-0.56c0-0.01,0.01-0.01,0.01-0.02c0.01-0.01,0.02-0.02,0.02-0.03c0.27-0.38,0.51-0.7,0.72-1
		c0.46-0.66,0.92-1.36,1.39-2.11c0.1-0.16,0.2-0.33,0.31-0.51c0.17-0.29,0.36-0.59,0.53-0.9c0-0.01,0-0.01,0.01-0.02
		c0.46-0.79,0.93-1.61,1.3-2.3l0.16-0.32l1.32-2.72c-0.08,0.19-0.16,0.37-0.25,0.55c0.08-0.17,0.16-0.35,0.24-0.52
		c0.03-0.07,0.06-0.14,0.1-0.21l0.04-0.09c0,0,0-0.01,0.01-0.01c0.02-0.05,0.04-0.1,0.06-0.15c0.34-0.85,0.67-1.7,0.97-2.55
		c0.01-0.02,0.02-0.04,0.02-0.07c3.14-8.72,4.44-17.48,4.34-25.87c0.55-0.45,0.99-0.8,1.36-1.11c0.56-0.48,1.41-1.23,2.44-2.21
		c0.04-0.04,0.08-0.08,0.12-0.12l0,0l0.01,0c0.01-0.01,0.03-0.03,0.04-0.04c0.02-0.02,0.03-0.03,0.05-0.05
		c1.32-1.33,2.2-2.21,2.85-2.88c0.05-0.05,0.09-0.09,0.13-0.14c0,0,0,0,0.01-0.01c0.18-0.19,0.35-0.36,0.5-0.52
		c0.34-0.37,0.64-0.69,0.91-0.99c0.41-0.46,0.81-0.93,1.39-1.63l0.18-0.22l0.22-0.28c0.05-0.07,0.11-0.14,0.17-0.21
		c0.48-0.6,1.06-1.34,1.81-2.31l0,0c12.41-16.61,15.39-36.13,5.87-49.15c-12.54-17.14-42.04-16.55-66.13,1.22
		c-0.18,0.13-0.37,0.27-0.55,0.41c-0.01,0.01-0.01,0.01-0.02,0.01C104.17,75.79,96.63,85.28,92.24,95c-1.2,2.66-2.16,5.34-2.88,8
		c-0.05-0.02-0.09-0.04-0.14-0.06c-0.56-0.26-2.53-1.23-2.98-1.48c-0.11-0.06-0.22-0.13-0.33-0.19c0.29-1.07,0.61-2.15,0.98-3.23
		c3.7-10.79,11.19-21.63,21.82-30.48c1.05-0.88,2.14-1.74,3.26-2.58c1.54-1.16,3.11-2.26,4.7-3.28c24.3-15.71,52.52-15.35,64.9,1.57
		c4.52,6.17,6.34,13.74,5.77,21.79c0.01-0.13,0.02-0.25,0.04-0.36c0-0.06,0.01-0.12,0.01-0.18c0-0.01,0-0.02,0.01-0.03
		c0.01-0.14,0.02-0.27,0.03-0.39c0.03-0.51,0.05-1.02,0.06-1.47c0-0.05,0.01-0.11,0.01-0.17c0-0.27,0-0.56,0-0.86
		c0-0.15,0.01-0.28,0.01-0.44c-0.02-0.83-0.04-1.51-0.07-2.1c0-0.01,0-0.03,0-0.04c-0.01-0.15-0.02-0.29-0.03-0.44
		c0.01,0.24,0.02,0.5,0.03,0.76c-0.05-1.06-0.1-1.85-0.17-2.62c-0.04-0.45-0.09-0.89-0.16-1.38c-0.03-0.15-0.05-0.31-0.07-0.47
		c-0.02-0.12-0.04-0.24-0.06-0.37c-0.04-0.27-0.09-0.55-0.14-0.86c-0.02-0.08-0.03-0.16-0.04-0.25c-0.03-0.16-0.06-0.33-0.09-0.52
		c-0.1-0.42-0.2-0.92-0.31-1.41c-0.01-0.06-0.03-0.11-0.05-0.17c-9.37-32.02-49.8-29.62-77.86-8.18c-2.17,1.66-4.27,3.43-6.27,5.31
		c-5.66,5.31-10.56,11.47-14.26,18.33c-0.77,1.43-1.58,3.07-2.36,4.88c-1,2.31-1.95,4.89-2.71,7.67c-0.01-0.01-0.02-0.01-0.03-0.02
		c-0.08-0.06-0.16-0.12-0.26-0.19c-0.01-0.01-0.02-0.01-0.03-0.02l-0.23-0.17c-0.14-0.1-0.76-0.55-0.94-0.69
		c-0.35-0.27-0.69-0.54-1.01-0.81c2.41-9.09,7.46-18.37,14.8-26.7c3.61-4.1,7.77-7.97,12.44-11.48
		c26.29-19.74,58.72-20.54,72.46-1.8l-0.14-0.21l-0.1-0.15l-0.04-0.06l-0.09-0.11l-0.23-0.3l-0.01-0.01l-0.05-0.07l-0.06-0.08
		c-0.07-0.1-0.15-0.2-0.23-0.3c-0.02-0.03-0.05-0.05-0.07-0.08c-0.47-0.57-0.87-1.05-1.24-1.48c-0.16-0.19-0.32-0.37-0.48-0.55
		c-0.83-0.94-1.54-1.67-2.65-2.69c-0.41-0.38-0.87-0.8-1.42-1.28c-0.07-0.06-0.14-0.12-0.21-0.18c-0.31-0.24-0.65-0.51-1-0.79
		c-0.25-0.17-0.51-0.34-0.76-0.51c-26.08-17.07-62.51-0.17-81.5,24.93c-5.27,6.96-9.19,14.56-11.18,22.24
		c-0.28-0.27-0.56-0.55-0.83-0.83c1.34-6.3,3.77-12.28,7.06-17.81c14.82-24.89,46.7-40.65,71.37-35.42
		c0.16,0.04,0.33,0.07,0.49,0.11c0.73,0.16,1.44,0.34,2.16,0.54c0.09,0.03,0.2,0.05,0.29,0.08c-0.07-0.02-0.15-0.05-0.23-0.07
		l-0.73-0.23c-0.16-0.04-0.3-0.07-0.45-0.11c-0.16-0.04-0.31-0.09-0.45-0.13c-0.15-0.04-0.29-0.08-0.43-0.11
		c-1.01-0.26-1.77-0.44-2.66-0.6c-0.47-0.08-0.99-0.17-1.6-0.27c-0.58-0.09-1.16-0.19-1.71-0.27c-0.24-0.03-0.48-0.07-0.71-0.1
		c-0.01,0-0.02,0-0.02,0c-0.02,0-0.02,0-0.04-0.01c-0.46-0.05-0.86-0.09-1.22-0.12c-0.8-0.07-1.64-0.12-2.52-0.15
		c-0.19,0-0.38-0.01-0.59-0.01c-0.34-0.01-0.69-0.01-1.05-0.01c-0.01,0-0.01,0-0.02,0c-0.91-0.01-1.85,0-2.64,0.02l-0.36,0.02
		l-3.01,0.22c0.2-0.02,0.4-0.04,0.6-0.06c-0.19,0.02-0.38,0.04-0.57,0.05c-0.08,0.01-0.15,0.01-0.23,0.02l-0.1,0.01
		c0,0-0.01,0-0.02,0c-0.06,0.01-0.11,0.02-0.16,0.03c-0.91,0.13-1.8,0.27-2.7,0.43c-0.02,0-0.05,0.01-0.07,0.01
		c-8.05,1.45-15.4,4.16-21.98,7.72c-0.08-0.04-0.17-0.08-0.28-0.12c-0.45-0.17-0.85-0.33-1.22-0.48c-1.26-0.49-2.1-0.82-2.78-1.06
		c-0.69-0.24-1.77-0.6-3.14-1.01c-0.06-0.02-0.11-0.03-0.17-0.05l0,0l-0.01,0c-0.02,0-0.04-0.01-0.06-0.02
		c-0.03-0.01-0.05-0.01-0.07-0.02c-1.81-0.48-3.02-0.8-3.92-1.03c-0.07-0.01-0.12-0.03-0.18-0.05c0,0,0,0-0.01,0
		c-0.25-0.06-0.48-0.12-0.7-0.17c-0.49-0.11-0.92-0.21-1.32-0.29c-0.6-0.12-1.21-0.23-2.11-0.39l-0.28-0.04l-0.35-0.05
		c-0.09-0.01-0.18-0.03-0.27-0.04c-0.76-0.11-1.69-0.25-2.91-0.41l0,0c-20.59-2.44-38.99,4.73-45.5,19.49
		c-8.57,19.43,6.69,44.68,34.12,56.66c0.21,0.09,0.41,0.18,0.63,0.27c0.01,0,0.02,0.01,0.02,0.01c11.69,4.98,23.68,6.76,34.3,5.71
		c3.63-0.36,7.11-1.06,10.35-2.07c0.04,0.28,0.08,0.56,0.11,0.82c0,0,0,0,0,0c0.04,0.34,0.08,0.72,0.11,1.11
		c0.05,0.61,0.09,1.26,0.12,1.88c0.01,0,0.02-0.01,0.03-0.01c0,0,0,0.01,0,0.01c-0.06,0.02-0.12,0.04-0.19,0.06
		c-1.69,0.52-3.44,0.96-5.24,1.31c-11.19,2.19-24.32,1.13-37.3-3.65c-1.29-0.47-2.57-0.98-3.86-1.53c-1.78-0.76-3.51-1.57-5.19-2.43
		c-25.75-13.19-39.55-37.81-31.09-56.99c3.08-7,8.74-12.36,15.99-15.89c-0.12,0.05-0.23,0.1-0.33,0.15
		c-0.05,0.03-0.11,0.05-0.17,0.08c-0.01,0-0.02,0.01-0.03,0.01c-0.12,0.06-0.24,0.12-0.35,0.17c-0.46,0.23-0.91,0.46-1.31,0.68
		c-0.05,0.02-0.1,0.05-0.15,0.08c-0.24,0.14-0.49,0.28-0.75,0.43c-0.13,0.07-0.25,0.13-0.39,0.21c-0.71,0.43-1.29,0.79-1.78,1.11
		c-0.01,0.01-0.02,0.01-0.03,0.02c-0.12,0.08-0.24,0.16-0.36,0.24c0.21-0.13,0.42-0.26,0.64-0.4c-0.89,0.57-1.55,1.01-2.18,1.46
		c-0.37,0.26-0.73,0.53-1.12,0.83c-0.12,0.1-0.25,0.2-0.37,0.3c-0.1,0.07-0.19,0.15-0.29,0.23c-0.21,0.17-0.43,0.35-0.67,0.55
		c-0.06,0.05-0.13,0.1-0.19,0.16c-0.13,0.11-0.26,0.22-0.4,0.33c-0.31,0.3-0.69,0.63-1.06,0.97c-0.04,0.04-0.08,0.09-0.12,0.13
		c-23.04,24.12-0.75,57.94,31.84,71.52c2.53,1.05,5.11,1.98,7.74,2.77c7.43,2.25,15.22,3.41,23.01,3.19
		c1.62-0.05,3.45-0.17,5.41-0.39c3.06-0.35,6.43-0.97,9.87-2.01c0.14-0.04,0.29-0.08,0.43-0.12c0,0.07,0,0.13-0.01,0.2
		c-0.02,0.66-0.04,1.03-0.1,1.64c0,0.02,0,0.04,0,0.06c-0.01,0.1-0.02,0.2-0.03,0.32c0,0.01,0,0.02,0,0.04l-0.03,0.28
		c-0.01,0.08-0.03,0.28-0.05,0.5c-0.08,0.03-0.16,0.06-0.26,0.09c-0.14,0.04-0.29,0.08-0.44,0.13c-9.46,2.93-20.69,3.37-32.3,1.04
		c-5.35-1.08-10.79-2.75-16.16-5.04c-30.24-12.9-47.15-40.58-37.79-61.86l-0.11,0.22l-0.08,0.16l-0.03,0.07l-0.05,0.13l-0.15,0.35
		l0,0.01l-0.04,0.08l-0.03,0.09c-0.05,0.11-0.1,0.23-0.14,0.35c-0.01,0.03-0.02,0.07-0.03,0.1c-0.25,0.69-0.47,1.28-0.66,1.81
		c-0.08,0.24-0.16,0.46-0.23,0.68c-0.4,1.18-0.68,2.17-1,3.63c-0.12,0.54-0.26,1.16-0.4,1.87c-0.02,0.09-0.03,0.18-0.05,0.27
		c-0.05,0.38-0.12,0.82-0.18,1.26c-0.02,0.3-0.04,0.61-0.06,0.91c-1.74,31.12,31.11,54.22,62.34,58.12
		c9.34,1.16,18.53,0.61,26.6-1.95c0.14-0.04,0.27-0.07,0.4-0.11c0-0.01,0.2-0.08,0.48-0.16c-0.06,0.32-0.12,0.65-0.19,0.96
		c0.02-0.01,0.03-0.01,0.05-0.02c0,0,0,0,0,0c-0.26,0.11-0.45,0.19-0.45,0.17c-0.19,0.07-0.4,0.15-0.64,0.23
		c-6.64,2.4-13.64,3.45-20.67,3.35c-28.97-0.39-58.55-20.11-66.36-44.1c-0.05-0.16-0.1-0.32-0.15-0.48
		c-0.22-0.71-0.42-1.42-0.61-2.14c-0.02-0.09-0.05-0.19-0.08-0.29c0.02,0.08,0.03,0.16,0.06,0.24l0.17,0.74
		c0.04,0.16,0.09,0.3,0.13,0.44c0.04,0.16,0.07,0.31,0.11,0.46c0.04,0.15,0.08,0.29,0.12,0.43c0.28,1.01,0.5,1.75,0.81,2.61
		c0.16,0.45,0.35,0.94,0.57,1.52c0.21,0.55,0.42,1.1,0.62,1.61c0.09,0.23,0.18,0.45,0.27,0.66c0.01,0,0.01,0.01,0.01,0.02
		c0.01,0.01,0.01,0.02,0.02,0.04c0.19,0.43,0.36,0.79,0.51,1.12c0.34,0.72,0.72,1.48,1.13,2.26c0.09,0.16,0.19,0.34,0.29,0.52
		c0.16,0.3,0.34,0.61,0.51,0.91c0.01,0,0.01,0.01,0.01,0.02c0.45,0.8,0.93,1.61,1.34,2.28l0.2,0.3l1.7,2.5
		c-0.12-0.16-0.24-0.32-0.35-0.49c0.11,0.16,0.22,0.31,0.33,0.47c0.04,0.06,0.09,0.12,0.13,0.19l0.06,0.08c0,0,0.01,0.01,0.01,0.01
		c0.04,0.04,0.07,0.08,0.1,0.13c0.57,0.72,1.14,1.42,1.72,2.12c0.01,0.02,0.03,0.03,0.05,0.06c5.88,6.96,12.69,12.4,19.88,16.49
		c0.01,0.06,0.01,0.13,0.02,0.2c0.07,0.47,0.14,0.9,0.2,1.3c0.21,1.34,0.34,2.23,0.47,2.94c0.13,0.72,0.36,1.84,0.69,3.22
		c0.01,0.06,0.03,0.11,0.04,0.17l0,0l0,0.01c0.01,0.01,0.01,0.04,0.01,0.06c0.01,0.03,0.01,0.05,0.02,0.07
		c0.49,1.8,0.82,3.01,1.07,3.91c0.02,0.06,0.04,0.12,0.05,0.18c0,0,0,0,0,0.01c0.07,0.25,0.14,0.48,0.2,0.69
		c0.15,0.48,0.28,0.9,0.41,1.28c0.19,0.58,0.41,1.17,0.72,2.02l0.1,0.27l0.13,0.33c0.03,0.08,0.07,0.17,0.1,0.25
		c0.28,0.72,0.63,1.59,1.1,2.72l0,0c8.18,19.05,23.6,31.4,39.63,29.66c21.11-2.29,35.35-28.14,32.01-57.88
		c-0.02-0.22-0.05-0.45-0.08-0.68c0-0.01,0-0.02,0-0.02c-1.53-12.61-5.98-23.89-12.21-32.56c-2.15-2.99-4.51-5.67-7.03-7.99
		c-0.04-0.04-0.07-0.07-0.11-0.1c0.38-0.26,0.76-0.51,1.14-0.76c-0.01-0.01-0.01-0.01-0.02-0.02c0.38-0.25,0.79-0.51,1.23-0.77
		c0.29-0.17,0.6-0.35,0.93-0.53c0.05,0.05,0.09,0.09,0.14,0.14c1.3,1.21,2.55,2.5,3.76,3.88c7.5,8.6,13.14,20.5,15.49,34.13
		c0.24,1.35,0.44,2.72,0.61,4.11c0.23,1.92,0.4,3.83,0.49,5.71c1.46,28.9-12.97,53.16-33.81,55.42c-7.6,0.83-15.07-1.39-21.76-5.9
		c0.1,0.07,0.2,0.14,0.3,0.21c0.05,0.03,0.1,0.07,0.15,0.1c0.01,0.01,0.02,0.01,0.02,0.02c0.11,0.08,0.22,0.15,0.32,0.22
		c0.43,0.28,0.85,0.55,1.24,0.79c0.04,0.03,0.09,0.06,0.14,0.09c0.24,0.14,0.49,0.29,0.75,0.43c0.12,0.08,0.24,0.15,0.37,0.23
		c0.73,0.4,1.33,0.72,1.85,0.99c0.01,0,0.02,0.01,0.03,0.02c0.13,0.06,0.26,0.13,0.39,0.19c-0.22-0.11-0.44-0.24-0.67-0.36
		c0.94,0.49,1.65,0.84,2.36,1.16c0.41,0.19,0.82,0.37,1.28,0.55c0.14,0.05,0.29,0.12,0.45,0.17c0.11,0.05,0.23,0.09,0.35,0.13
		c0.25,0.1,0.52,0.2,0.81,0.31c0.08,0.03,0.15,0.06,0.23,0.09c0.16,0.06,0.32,0.11,0.49,0.18c0.41,0.12,0.89,0.28,1.37,0.44
		c0.06,0.02,0.12,0.03,0.17,0.04c32.41,7.9,50.56-28.32,46.02-63.34c-0.35-2.71-0.84-5.41-1.47-8.08
		c-1.77-7.55-4.65-14.89-8.74-21.52c-0.85-1.38-1.87-2.9-3.04-4.49c-1.83-2.47-4.06-5.09-6.68-7.54c-0.05-0.05-0.1-0.1-0.15-0.15
		c0.28-0.12,2.04-0.79,2.97-1.13c0.05,0.04,0.09,0.09,0.14,0.13c7.27,6.73,13.27,16.23,17.05,27.45c1.74,5.17,3.01,10.71,3.72,16.51
		c3.95,32.64-11.57,61.12-34.68,63.66l0.25-0.02l0.18-0.01l0.08-0.01l0.14-0.02l0.38-0.05l0.01,0l0.08,0l0.1-0.02
		c0.12-0.01,0.25-0.03,0.38-0.05c0.04,0,0.07-0.01,0.1-0.02c0.73-0.13,1.34-0.23,1.9-0.34c0.24-0.05,0.48-0.09,0.71-0.14
		c1.22-0.25,2.22-0.5,3.65-0.95c0.53-0.16,1.13-0.36,1.81-0.59c0.09-0.03,0.17-0.06,0.26-0.09c0.36-0.15,0.77-0.31,1.19-0.47
		c0.27-0.13,0.55-0.27,0.82-0.4c27.82-14.05,31.4-54.05,19.16-83.05c-3.66-8.67-8.73-16.35-14.99-22.06
		c-0.05-0.05-0.1-0.1-0.15-0.15c0.36-0.09,0.71-0.17,1.07-0.25c0.06,0.05,0.12,0.1,0.18,0.15c5.4,4.55,9.8,10.08,13.24,16.22
		c3.29,5.89,5.7,12.33,7.23,18.98c-0.01,0.04-0.01,0.09-0.02,0.13c0.01-0.02,0.03-0.03,0.04-0.05c5.03,21.9,0.66,46.09-12.26,60.46
		c-0.11,0.12-0.23,0.25-0.34,0.37c-0.5,0.55-1.02,1.08-1.55,1.6c-0.07,0.07-0.14,0.14-0.21,0.21
		C145.59,174.04,145.65,173.98,145.71,173.93z M116.73,71.33c1.21-0.91,2.44-1.77,3.68-2.59c22.1-14.59,47.98-14.39,59.28,1.05
		c11.39,15.56,3.84,41-16.75,58.2c-0.01-0.54-0.02-1.08-0.04-1.61c18.49-15.99,25.15-39.14,14.71-53.4
		c-10.05-13.72-32.48-14.51-52.4-2.71c-2.1,1.24-4.17,2.62-6.19,4.14c-11.57,8.69-19.27,20.13-22.1,31.2
		c-0.08-0.02-0.17-0.04-0.26-0.06c-0.06-0.01-0.12-0.03-0.18-0.04c-0.29-0.06-0.52-0.13-0.79-0.2c-0.26-0.07-0.55-0.16-0.93-0.27
		c0,0.01-0.01,0.02-0.01,0.03c-0.57-0.17-1.13-0.35-1.7-0.55C96.18,92.73,104.42,80.58,116.73,71.33z M161.83,71.25
		c-8.21-3.18-18.96-2.28-29.34,2.62c-3.27,1.54-6.49,3.47-9.59,5.8c-9.96,7.48-16.46,17.42-18.57,26.92
		c-0.58-0.02-1.17-0.05-1.76-0.09c0,0,0,0.01,0,0.01c-0.35-0.03-0.67-0.06-0.97-0.09c-0.11-0.01-0.21-0.02-0.32-0.03
		c-0.19-0.02-0.37-0.04-0.54-0.07c2.49-10.29,9.61-20.98,20.38-29.08c2.64-1.98,5.36-3.71,8.12-5.17
		c17.62-9.35,36.79-8.16,45.59,3.86c9.3,12.71,3.79,33.11-12.08,47.7c-0.1-1.29-0.22-2.56-0.38-3.82
		c12.91-13.02,17.1-30.34,9.07-41.32c-0.1-0.14-0.2-0.27-0.3-0.4c-0.03,0.02-0.06,0.04-0.1,0.06c0.03-0.02,0.06-0.05,0.09-0.06
		C168.73,74.96,165.54,72.69,161.83,71.25z M90.06,103.7c8.66,3.69,17.61,4.41,24.88,2.55l0,0c1.56-0.4,3.03-0.93,4.41-1.56
		c0.5,0.57,0.98,1.17,1.45,1.79c-1.22,0.48-2.48,0.9-3.81,1.23c-8.04,2.01-17.91,1.19-27.46-2.88c-3.91-1.67-7.46-3.75-10.55-6.12
		C67.82,90.19,62.48,77.96,66.6,67.97c0,0,0,0,0,0l0,0c0.06-0.14,0.12-0.27,0.18-0.41c4.89-11.09,20.02-15.64,35.82-11.64
		c-1.29,1.01-2.53,2.06-3.72,3.14c-13.11-2.36-25.19,1.83-29.28,11.12c-0.06,0.12-0.11,0.25-0.16,0.37l0,0c0,0,0,0.01,0,0.01
		c-3.52,8.55,0.66,18.92,9.72,26.51C82.25,99.66,85.92,101.94,90.06,103.7z M110.91,106.11c0.06-1.11,0.2-2.24,0.44-3.38
		c0.25-1.16,0.59-2.33,1.01-3.51c0.03,0.02,0.07,0.05,0.11,0.07c1.67,0.83,3.28,1.93,4.78,3.28c0.35,0.31,0.69,0.64,1.03,0.98
		c-1.2,0.67-2.5,1.25-3.88,1.7C113.28,105.61,112.12,105.89,110.91,106.11z M106.18,53.25c-18.6-5.85-37.08-0.94-42.83,12.09
		c-0.07,0.15-0.14,0.31-0.2,0.46c0.04,0.01,0.07,0.03,0.1,0.05c-0.04-0.01-0.07-0.03-0.1-0.05c-1.5,3.63-1.87,7.53-1.26,11.47
		c1.35,8.7,7.5,17.56,16.94,24.1c2.96,2.06,6.25,3.89,9.82,5.4c11.98,5.11,24.4,5.6,33.85,2.2c0.62,1.02,1.21,2.08,1.74,3.21
		c0,0,0.01,0,0.01,0c0,0,0,0,0,0c-10.37,3.51-23.83,2.89-36.82-2.65c-3.04-1.3-5.89-2.79-8.54-4.45
		C61.98,94.5,53.43,77.31,59.44,63.68c6.62-15.01,28.49-20.29,49.91-12.53c0,0,0.01,0,0.01,0
		C108.27,51.83,107.21,52.53,106.18,53.25z M83.84,77.56c-0.02,0.03-0.04,0.07-0.05,0.1c-2.45,0.32-4.74,0.96-6.76,1.92c0,0,0,0,0,0
		c-0.01,0-0.02,0.01-0.02,0.01c-0.42,0.2-0.82,0.41-1.22,0.63c-0.09,0.05-0.17,0.1-0.26,0.15c-0.02,0.01-0.05,0.03-0.07,0.04
		c-0.05,0.03-0.09,0.05-0.14,0.09c0.08-0.05,0.15-0.09,0.23-0.13c0.04-0.02,0.08-0.04,0.11-0.06c0.01-0.01,0.03-0.01,0.04-0.02
		c0.01,0,0.02-0.01,0.03-0.01c0.14-0.08,0.26-0.14,0.38-0.2c0.02-0.01,0.04-0.02,0.06-0.03c0.04-0.02,0.06-0.03,0.1-0.05
		c0.02-0.01,0.04-0.02,0.05-0.03c0.17-0.08,0.36-0.15,0.61-0.26c0.14-0.06,0.27-0.12,0.4-0.17c0.05-0.02,0.1-0.04,0.15-0.06
		c0.1-0.04,0.2-0.07,0.31-0.11c0.15-0.05,0.29-0.1,0.42-0.14c0.12-0.04,0.24-0.07,0.37-0.11l0.11-0.03l0.02,0
		c0.01-0.01,0.02-0.01,0.03-0.01c0.04-0.01,0.08-0.03,0.12-0.04c0.12-0.03,0.25-0.07,0.37-0.1c0.15-0.04,0.3-0.08,0.48-0.11
		c0.01-0.01,0.02-0.01,0.03-0.01l0.03-0.01c0.02-0.01,0.06-0.01,0.09-0.02c0.06-0.01,0.11-0.03,0.18-0.04
		c0.32-0.07,0.68-0.14,1.08-0.2l0.15-0.02c0.26-0.04,0.52-0.08,0.79-0.11c0.45-0.06,0.91-0.1,1.37-0.14
		c-0.06,0.1-0.12,0.21-0.17,0.31c-0.02,0.03-0.03,0.05-0.04,0.08c0,0,0,0.01-0.01,0.01c-0.06,0.11-0.12,0.22-0.17,0.32
		c-0.16,0.31-0.3,0.61-0.46,0.91c-0.1,0.19-0.19,0.39-0.29,0.59C82.26,80.62,82.06,81,82.04,81c-0.75,1.53-1.42,3.05-2,4.56
		l-0.89,2.52l-0.01,0.01c-0.53,1.81-0.86,2.94-1.1,3.85c-0.01,0.01-0.01,0.03-0.01,0.05c-0.01,0.05-0.02,0.11-0.04,0.16
		c-0.12,0.5-0.24,1.05-0.37,1.59c-0.05,0.23-0.1,0.46-0.15,0.69c-0.01,0.06-0.02,0.12-0.03,0.18c-0.23-0.24-0.46-0.49-0.67-0.74
		c-0.1-0.12-0.21-0.24-0.3-0.36c-0.1-0.13-0.21-0.26-0.31-0.39c-0.04-0.05-0.07-0.1-0.11-0.14c-0.01-0.02-0.03-0.03-0.04-0.05
		c-5.18-6.24-6.76-12.98-4.47-19.52l0.01-0.03c-0.03-0.05-0.06-0.1-0.09-0.15c0.03,0.05,0.06,0.1,0.1,0.15
		c0.05-0.11,0.09-0.23,0.14-0.34c2.61-5.93,8.82-9.56,16.42-10.44c2.25-0.26,4.63-0.28,7.07-0.04c-1.2,1.23-2.34,2.49-3.43,3.76
		c-1.97-0.02-3.87,0.14-5.67,0.49c-6.03,1.18-10.88,4.36-13.04,9.26c-0.05,0.11-0.09,0.21-0.13,0.31c0.01,0.03,0.02,0.06,0.02,0.09
		c-0.01-0.02-0.02-0.05-0.03-0.08c-0.01,0.02-0.01,0.05-0.02,0.07c-1.03,2.54-1.24,5.27-0.75,8.01c0.2,1.1,0.5,2.2,0.92,3.29
		c0.01,0,0.01,0.01,0.01,0.01c-0.01-0.01-0.01-0.02-0.01-0.03c-0.01-0.03-0.02-0.06-0.03-0.09c-0.03-0.07-0.05-0.14-0.07-0.22
		c-0.08-0.26-0.15-0.51-0.22-0.76c-0.01-0.03-0.02-0.05-0.02-0.08c-0.06-0.29-0.11-0.49-0.14-0.69l-0.05-0.33
		c0-0.02-0.01-0.04-0.01-0.07c-0.02-0.13-0.03-0.26-0.04-0.38c-0.01-0.03-0.01-0.07-0.01-0.1c0,0,0,0,0,0l0-0.07
		c-0.02-0.42-0.02-0.83,0.01-1.24l0,0c0.07-1.42,0.37-2.82,0.9-4.15c0.01-0.04,0.03-0.08,0.05-0.12l0,0c0.04-0.1,0.08-0.2,0.12-0.29
		c2.27-5.15,7.69-8.29,14.3-9.02c0.31-0.03,0.62-0.06,0.93-0.08c-0.84,1.13-1.64,2.26-2.4,3.4c-6.13,0.83-11.12,3.83-13.25,8.66
		c-0.04,0.1-0.08,0.19-0.12,0.28c0,0.02-0.01,0.04-0.02,0.05c-0.01,0.04-0.03,0.07-0.04,0.11c-0.02,0.07-0.05,0.15-0.07,0.22l0,0.01
		c-0.03,0.07-0.06,0.15-0.08,0.22c-0.01,0.02-0.01,0.04-0.02,0.05l0.02-0.03c0,0,0,0,0-0.01c0.01-0.03,0.03-0.06,0.04-0.1
		c0.05-0.09,0.09-0.17,0.13-0.24c0.01-0.01,0.02-0.03,0.02-0.04c0,0,0,0,0,0c0,0,0,0,0,0c0.05-0.1,0.12-0.2,0.24-0.36l0.02-0.02l0,0
		c0.01-0.01,0.02-0.02,0.03-0.03c0.13-0.17,0.26-0.34,0.4-0.5c2.53-3.01,6.46-4.94,11.05-5.64c-0.24,0.41-0.49,0.81-0.72,1.22
		C83.94,77.38,83.89,77.47,83.84,77.56z M84.51,116.29c-1.4-0.59-2.76-1.23-4.09-1.9c-23.69-11.85-36.45-34.36-28.73-51.86
		c8.03-18.2,35.23-24.21,61.15-13.68c0.09,0.04,0.17,0.08,0.25,0.12c-0.46,0.25-0.92,0.51-1.37,0.77c-0.05-0.02-0.11-0.04-0.17-0.06
		c-23.87-9.33-48.68-3.68-56.06,13.06c-6.86,15.56,3.67,35.38,23.85,46.74c2.12,1.2,4.36,2.3,6.68,3.29
		c13.99,5.97,28.48,6.7,39.73,3.03c0,0,0,0,0,0.01c-0.01,0-0.02,0.01-0.03,0.01c0.14,0.41,0.3,0.9,0.51,1.54
		c0.01,0.03,0.02,0.06,0.03,0.09c0.03,0.1,0.06,0.21,0.1,0.32c0.02,0.06,0.04,0.12,0.05,0.18c0.09,0.28,0.15,0.52,0.22,0.78
		c0.07,0.26,0.14,0.55,0.23,0.93C114.82,123.48,99.41,122.64,84.51,116.29z M127.62,123.59
		C127.62,123.59,127.63,123.59,127.62,123.59c0.01,0.04,0.01,0.08,0.02,0.13C127.64,123.67,127.63,123.63,127.62,123.59z
		 M128.08,124.41c-0.1-0.86-0.24-1.71-0.39-2.56c-0.02-0.19-0.05-0.38-0.08-0.57c-0.02-0.03-0.03-0.07-0.04-0.1
		c-1.55-7.98-5.09-14.86-9.72-19.59l0,0c-1.5-1.53-3.11-2.84-4.8-3.89c-0.03-0.01-0.05-0.02-0.08-0.03
		c0.31-0.72,0.64-1.43,1.01-2.14c0.01,0.01,0.03,0.02,0.04,0.03c1.42,1.01,2.77,2.19,4.05,3.52c5.76,5.96,9.99,14.91,11.23,25.23
		c0.51,4.22,0.48,8.33-0.02,12.19c-1.8,13.93-9.72,24.66-20.43,26.09c0,0,0,0,0,0l0,0c-0.15,0.02-0.3,0.04-0.45,0.05
		c-12.12,1.32-23.7-9.65-28.07-25.47c-0.01-0.05-0.02-0.09-0.03-0.14c1.49,0.55,2.99,1.04,4.49,1.48c0.01,0.05,0.03,0.09,0.04,0.14
		c4.44,12.79,14.22,21.36,24.43,20.25c0.13-0.01,0.27-0.03,0.4-0.05l0,0c0,0,0.01,0,0.01,0c9.16-1.23,16.05-10.03,18.1-21.67
		C128.49,133.2,128.62,128.88,128.08,124.41z M76.28,135.44c0.01,0.04,0.01,0.07,0.02,0.11c4.2,19.11,17.73,32.72,31.91,31.18
		c0.17-0.02,0.33-0.04,0.5-0.06c-0.01-0.04-0.01-0.08,0-0.12c0.01,0.04,0.01,0.07,0.01,0.11c3.89-0.52,7.46-2.15,10.56-4.65
		c6.86-5.52,11.46-15.28,12.4-26.72c0.3-3.6,0.24-7.36-0.23-11.2c-1.62-13.43-7.8-24.78-15.91-31.15c-0.01-0.01-0.02-0.02-0.04-0.03
		c0.22-0.35,0.45-0.7,0.69-1.05c0,0-0.01-0.01-0.01-0.01c0.2-0.28,0.38-0.55,0.57-0.8c0.06-0.09,0.12-0.17,0.18-0.26
		c0.13-0.17,0.25-0.33,0.36-0.48c0.1-0.13,0.21-0.27,0.31-0.4c0.02,0.02,0.04,0.04,0.06,0.06c8.56,7.16,15.03,19.39,16.77,33.79
		c0.4,3.28,0.53,6.5,0.42,9.62c-0.71,19.94-11.32,35.94-26.13,37.55c-16.3,1.77-31.82-14.53-35.81-36.96c0-0.04-0.01-0.07-0.01-0.11
		C74.03,134.43,75.15,134.95,76.28,135.44z M106.35,141.65c0.39-0.01,0.78-0.01,1.16-0.03c0.03,0,0.06,0,0.09,0c0,0,0.01,0,0.01,0
		c0.05,0,0.1,0,0.15-0.01c1.71,2.52,3.73,4.61,5.94,6.14c0,0,0,0,0,0c0.01,0.01,0.02,0.01,0.02,0.02c0.38,0.26,0.77,0.51,1.16,0.74
		c0.08,0.05,0.17,0.1,0.26,0.15c0.02,0.01,0.05,0.03,0.07,0.04c0.05,0.03,0.09,0.05,0.14,0.07c-0.08-0.05-0.16-0.09-0.23-0.13
		c-0.04-0.02-0.07-0.05-0.11-0.07c-0.01-0.01-0.03-0.02-0.04-0.03c-0.01-0.01-0.02-0.01-0.03-0.02c-0.13-0.08-0.25-0.16-0.36-0.23
		c-0.02-0.01-0.04-0.03-0.06-0.04c-0.03-0.02-0.06-0.04-0.09-0.07c-0.02-0.01-0.04-0.02-0.05-0.03c-0.15-0.11-0.31-0.23-0.53-0.4
		c-0.12-0.09-0.24-0.18-0.34-0.26c-0.04-0.03-0.08-0.06-0.12-0.1c-0.08-0.07-0.16-0.13-0.25-0.21c-0.12-0.1-0.23-0.2-0.33-0.29
		c-0.09-0.08-0.18-0.17-0.28-0.27l-0.09-0.08l-0.02-0.02c-0.01,0-0.02-0.01-0.02-0.02c-0.03-0.03-0.07-0.06-0.09-0.09
		c-0.09-0.09-0.18-0.18-0.27-0.27c-0.11-0.11-0.22-0.22-0.34-0.36c-0.01,0-0.02-0.01-0.02-0.02l-0.02-0.03
		c-0.02-0.02-0.04-0.04-0.06-0.06c-0.04-0.05-0.08-0.09-0.12-0.14c-0.22-0.24-0.46-0.52-0.71-0.83l-0.09-0.12
		c-0.17-0.21-0.33-0.41-0.49-0.63c-0.58-0.76-1.13-1.55-1.64-2.39c0,0,0,0,0,0c0.16-0.01,0.32-0.02,0.48-0.03
		c0.22-0.01,0.44-0.03,0.66-0.04c0.15-0.01,0.3-0.02,0.46-0.04c-0.03-0.04-0.07-0.08-0.1-0.13c-0.04-0.05-0.07-0.1-0.11-0.14
		c0.03,0,0.07,0,0.1,0c0.01,0.02,0.03,0.04,0.04,0.05c0.06,0.07,0.11,0.14,0.17,0.21c0.01,0.01,0.02,0.02,0.03,0.03
		c1.69-0.12,3.35-0.3,4.95-0.54l2.62-0.49l0.01,0c1.83-0.45,2.98-0.73,3.89-0.97c0.01,0,0.03-0.01,0.05-0.01
		c0.05-0.02,0.1-0.04,0.16-0.05c0.5-0.15,1.03-0.31,1.56-0.48c0.23-0.07,0.45-0.14,0.67-0.21c0.07-0.03,0.15-0.05,0.23-0.08
		c0.37-0.13,0.77-0.28,1.24-0.45c0.15-0.06,0.29-0.11,0.43-0.17c0.23-0.08,0.44-0.15,0.64-0.23c0.16-0.06,0.3-0.13,0.44-0.19
		c-0.25,1.1-0.56,2.17-0.92,3.22c-0.05,0.15-0.11,0.3-0.16,0.44c-0.06,0.16-0.12,0.31-0.18,0.46c-0.02,0.06-0.05,0.11-0.07,0.17
		c-0.01,0.02-0.02,0.04-0.02,0.06c-2.81,7.6-7.86,12.34-14.67,13.63l-0.03,0.01c-0.03,0.05-0.06,0.1-0.09,0.16
		c0.03-0.05,0.05-0.11,0.08-0.16c-0.12,0.01-0.24,0.03-0.37,0.04c-6.44,0.7-12.69-2.86-17.25-9c-1.48-2-2.79-4.27-3.87-6.76
		c0,0-0.02-0.04-0.04-0.1c1.61,0.37,3.21,0.68,4.79,0.93c0.01,0.02,0.02,0.04,0.02,0.06c1.08,2.06,2.35,3.92,3.75,5.53
		c4.04,4.64,9.22,7.24,14.54,6.66c0.12-0.01,0.22-0.02,0.34-0.04c0.02-0.02,0.04-0.04,0.06-0.06c-0.02,0.02-0.04,0.04-0.06,0.06
		c0.02,0,0.05-0.01,0.07-0.01c2.71-0.38,5.18-1.56,7.31-3.36c0.86-0.72,1.65-1.53,2.39-2.44c0-0.01,0-0.01,0-0.01
		c0,0.01-0.02,0.02-0.02,0.03c-0.02,0.03-0.04,0.05-0.06,0.07c-0.05,0.06-0.1,0.11-0.15,0.17c-0.18,0.2-0.36,0.39-0.55,0.57
		c-0.02,0.02-0.03,0.04-0.05,0.06c-0.22,0.2-0.37,0.34-0.53,0.47l-0.26,0.21c-0.02,0.02-0.03,0.03-0.06,0.04
		c-0.11,0.08-0.21,0.15-0.32,0.22c-0.03,0.02-0.06,0.04-0.08,0.06c0,0,0,0,0,0l-0.06,0.04c-0.35,0.22-0.71,0.43-1.08,0.61l0,0
		c-1.26,0.65-2.62,1.09-4.05,1.3c-0.04,0.01-0.08,0.02-0.12,0.02l0,0c-0.11,0.02-0.21,0.03-0.31,0.04
		c-5.59,0.61-11.02-2.51-14.96-7.88c-0.41-0.55-0.8-1.14-1.17-1.75c-0.01-0.02-0.02-0.04-0.03-0.06c1.34,0.13,2.66,0.22,3.97,0.28
		c0,0,0.01,0.01,0.01,0.01c3.85,5.59,9.32,8.88,14.97,8.27c0.1-0.01,0.2-0.02,0.3-0.04c0.02-0.01,0.04-0.01,0.05-0.01
		c0.04-0.01,0.08-0.01,0.12-0.02c0.07-0.02,0.15-0.03,0.23-0.04l0.01,0c0.08-0.01,0.16-0.02,0.23-0.04c0.02,0,0.04-0.01,0.06-0.01
		l-0.03,0c0,0,0,0-0.01,0c-0.04,0-0.07,0.01-0.11,0.01c-0.1,0-0.19,0.01-0.27,0.01c-0.01,0-0.03,0-0.05,0c0,0,0,0,0,0c0,0,0,0,0,0
		c-0.11,0-0.24,0-0.43-0.02l-0.02-0.01l0,0c-0.01,0-0.02-0.01-0.04-0.01c-0.21-0.03-0.42-0.06-0.64-0.1
		c-4.29-0.76-8.28-3.66-11.32-7.95c0.04,0,0.08,0,0.13,0C106.15,141.66,106.25,141.66,106.35,141.65z M141.75,122.93
		c0.18,1.51,0.31,3,0.4,4.49c1.58,26.44-11.53,48.75-30.55,50.81c-19.78,2.15-38.58-18.41-42.42-46.12c0-0.07-0.01-0.13-0.02-0.19
		c0.45,0.25,0.9,0.5,1.36,0.74c0.01,0.05,0.01,0.1,0.02,0.15c3.86,25.34,21.15,44,39.34,42.02c16.91-1.84,28.8-20.87,28.55-44.02
		c-0.02-2.44-0.19-4.92-0.49-7.43c-1.86-15.36-8.65-28.46-17.69-36.33c-0.02-0.02-0.04-0.04-0.07-0.06c0.15-0.16,0.3-0.31,0.46-0.47
		c0.2-0.19,0.41-0.4,0.7-0.67c-0.01-0.01-0.02-0.02-0.02-0.02c0.58-0.55,1.19-1.09,1.81-1.61c0.03,0.03,0.06,0.07,0.1,0.1
		C132.7,92.82,139.79,106.7,141.75,122.93z M151.08,88.6c0.63-1.81,1.04-3.62,1.18-5.39c0,0,0,0,0,0c0-0.01,0-0.02,0-0.02
		c0.04-0.46,0.06-0.92,0.06-1.37c0-0.1,0-0.2,0-0.3c0-0.03,0-0.06,0-0.08c0-0.05,0-0.11-0.01-0.16c0,0.09,0,0.18,0,0.27
		c0,0.04,0,0.09,0,0.13c0,0.02,0,0.03,0,0.05c0,0.01,0,0.02,0,0.04c0,0.16-0.01,0.29-0.02,0.43c0,0.03,0,0.05-0.01,0.07
		c0,0.04-0.01,0.07-0.01,0.11c0,0.02,0,0.04,0,0.06c-0.02,0.18-0.04,0.39-0.08,0.65c-0.02,0.15-0.04,0.3-0.06,0.43
		c-0.01,0.05-0.01,0.1-0.02,0.16c-0.02,0.1-0.03,0.21-0.06,0.32c-0.03,0.16-0.06,0.3-0.09,0.43c-0.03,0.12-0.06,0.24-0.09,0.38
		l-0.03,0.11l-0.01,0.02c0,0.01,0,0.02-0.01,0.03c-0.01,0.04-0.02,0.09-0.03,0.13c-0.03,0.12-0.06,0.25-0.1,0.37
		c-0.04,0.15-0.08,0.3-0.14,0.47c0,0.01,0,0.02-0.01,0.03L151.55,86c0,0.02-0.02,0.06-0.02,0.09c-0.02,0.06-0.03,0.11-0.06,0.18
		c-0.1,0.31-0.22,0.66-0.36,1.03l-0.05,0.14c-0.09,0.23-0.18,0.46-0.28,0.69c-0.03-0.04-0.05-0.07-0.05-0.07
		c-1.52-2.28-1.93-2.75-2.95-4.02l-1.74-2.03L146.03,82c-1.3-1.36-2.12-2.21-2.79-2.88c-0.01-0.01-0.03-0.02-0.03-0.04
		c-0.04-0.04-0.08-0.07-0.12-0.11c-0.38-0.35-0.79-0.73-1.2-1.11c-0.17-0.16-0.34-0.32-0.52-0.47c-0.06-0.05-0.12-0.11-0.19-0.16
		c-0.3-0.25-0.62-0.53-1.01-0.85c-0.13-0.1-0.24-0.19-0.36-0.29c-0.06-0.06-0.12-0.11-0.18-0.16c0.13-0.03,0.25-0.06,0.38-0.08
		c0.16-0.03,0.31-0.06,0.46-0.08c0.17-0.02,0.33-0.05,0.49-0.08c0.06-0.01,0.12-0.02,0.18-0.03c0.02,0,0.05-0.01,0.06-0.01
		c7.99-1.36,14.62,0.63,19.13,5.89l0.02,0.02c0.06,0,0.12,0,0.18,0c-0.06,0-0.12,0.01-0.18,0.01c0.07,0.1,0.15,0.19,0.22,0.29
		c3.83,5.23,3.87,12.42,0.83,19.44c-0.62,1.43-1.38,2.85-2.25,4.25c-0.54-1.66-1.13-3.27-1.77-4.84c0.54-1.08,1.01-2.18,1.39-3.27
		c2-5.81,1.66-11.6-1.5-15.92c-0.07-0.09-0.13-0.18-0.2-0.27c-0.03-0.01-0.06-0.01-0.09-0.02c0.02,0,0.05,0.01,0.08,0.02
		c-0.01-0.02-0.03-0.03-0.05-0.05c-1.68-2.16-3.94-3.71-6.57-4.65c-1.05-0.38-2.15-0.66-3.31-0.85c-0.01,0-0.01,0-0.01,0
		c0.01,0,0.02,0,0.03,0.01c0.03,0,0.06,0.01,0.09,0.02c0.07,0.01,0.15,0.03,0.22,0.04c0.27,0.06,0.52,0.12,0.76,0.19
		c0.03,0.01,0.05,0.01,0.08,0.02c0.28,0.09,0.48,0.15,0.67,0.22l0.31,0.12c0.02,0.01,0.04,0.02,0.06,0.03
		c0.12,0.05,0.24,0.1,0.35,0.16c0.03,0.01,0.06,0.03,0.09,0.04c0,0,0,0,0,0l0.06,0.03c0.37,0.2,0.72,0.4,1.07,0.63l0,0
		c1.19,0.77,2.25,1.73,3.15,2.86c0.03,0.03,0.05,0.06,0.08,0.1l0,0c0.07,0.08,0.13,0.17,0.19,0.25c3.14,4.29,3.31,10.11,1.07,15.87
		c-0.61-1.26-1.25-2.47-1.91-3.65c1.66-5.15,1.29-10.24-1.52-14.07c-0.06-0.08-0.12-0.16-0.18-0.24c-0.02-0.01-0.03-0.03-0.04-0.04
		c-0.02-0.03-0.05-0.06-0.07-0.09c-0.05-0.06-0.1-0.12-0.15-0.17l0-0.01c-0.05-0.06-0.1-0.12-0.15-0.18
		c-0.01-0.01-0.02-0.03-0.03-0.04l0.02,0.03c0,0,0,0,0,0.01c0.02,0.03,0.04,0.06,0.06,0.09c0.05,0.09,0.1,0.16,0.14,0.23
		c0.01,0.01,0.02,0.03,0.02,0.04c0,0,0,0,0,0c0,0,0,0,0,0c0.06,0.1,0.11,0.21,0.2,0.39l0.01,0.02l0,0c0,0.01,0.01,0.02,0.01,0.04
		c0.08,0.2,0.16,0.4,0.23,0.6c1.18,3.25,1.09,7.01-0.09,10.81c-0.02-0.03-0.04-0.06-0.06-0.09C151.84,89.76,151.4,89.09,151.08,88.6
		z M164.14,81.47c-0.08-0.11-0.16-0.22-0.24-0.32l0,0c0,0,0-0.01-0.01-0.01c-5.65-7.32-16.71-8.89-27.82-4.84
		c-3.8,1.39-7.61,3.43-11.21,6.13c-7.53,5.66-12.63,13.05-14.65,20.27l0,0c-0.34,1.22-0.58,2.43-0.75,3.63
		c-0.72,0.09-1.45,0.17-2.19,0.21c0.17-0.93,0.38-1.86,0.65-2.8c2.28-7.97,7.92-16.11,16.23-22.34c3.4-2.55,6.98-4.58,10.57-6.08
		c12.96-5.4,26.22-3.91,32.81,4.65c0,0,0,0,0,0l0,0c0.09,0.12,0.18,0.24,0.27,0.36c6.79,9.27,3.88,23.59-6.13,35.01
		c-0.3-1.64-0.65-3.25-1.05-4.83C167.99,100.71,169.77,89.16,164.14,81.47z"/>
</g>
</svg>
