<?xml version="1.0" encoding="utf-8"?>
<!-- Generator: Adobe Illustrator 26.2.1, SVG Export Plug-In . SVG Version: 6.00 Build 0)  -->
<svg version="1.1" xmlns="http://www.w3.org/2000/svg" xmlns:xlink="http://www.w3.org/1999/xlink" x="0px" y="0px"
	 viewBox="0 0 225 225" style="enable-background:new 0 0 225 225;" xml:space="preserve">
<style type="text/css">
	.st0{display:none;}
	.st1{display:inline;fill:#FAB433;}
	.st2{fill:none;}
	.st3{fill:none;stroke:#000000;stroke-width:1.6;stroke-miterlimit:10;}
	.st4{fill:none;stroke:#000000;stroke-width:0.7265;stroke-miterlimit:10;}
	.st5{fill:none;stroke:#000000;stroke-linecap:round;stroke-linejoin:round;stroke-miterlimit:10;}
	.st6{fill:none;stroke:#000000;stroke-miterlimit:10;}
	.st7{fill:none;stroke:#000000;stroke-width:0.7105;stroke-miterlimit:10;}
	.st8{fill:none;stroke:#000000;stroke-width:5.4;stroke-linecap:round;stroke-linejoin:round;stroke-miterlimit:10;}
	.st9{fill:none;stroke:#000000;stroke-width:2.9309;stroke-linecap:round;stroke-linejoin:round;stroke-miterlimit:10;}
	.st10{fill:none;stroke:#000000;stroke-width:0.5;stroke-linecap:round;stroke-linejoin:round;}
	.st11{fill:none;stroke:#FFFFFF;stroke-width:0;stroke-linecap:round;stroke-linejoin:round;}
	.st12{fill:#FFFFFF;}
	.st13{fill:none;stroke:#000000;stroke-width:1.4;stroke-miterlimit:10;}
	.st14{fill:url(#);stroke:#000000;stroke-width:1.4387;stroke-miterlimit:10;}
	.st15{fill:url(#);stroke:#000000;stroke-width:1.3718;stroke-miterlimit:10;}
	.st16{fill:none;stroke:#000000;stroke-width:1.0041;stroke-miterlimit:10;}
	.st17{fill:none;stroke:#000000;stroke-width:1.3621;stroke-miterlimit:10;}
	.st18{fill:none;stroke:#000000;stroke-width:0.25;stroke-miterlimit:10;}
</style>
<g id="Layer_2" class="st0">
	
		<rect id="XMLID_00000049924193275795927410000016330201882968263580_" x="-345.99" y="-520.01" class="st1" width="1160" height="772"/>
</g>
<g id="Layer_1">
	<path id="XMLID_00000106131562437161497690000001155540038531748792_" d="M139.24,63.55c0.69,1.25,2.61,3.29,4.8,3.42
		c0.21-0.01,0.47-0.03,0.7-0.14c1.77-0.89-1.06-4.86-4.1-5.74C138.66,60.51,138.32,61.9,139.24,63.55z M140.37,54.65
		c-0.75,0.01,0.29,1.12,1.4,2.07c1.08,0.92,3.49,2.7,4.85,2.8c0.11-0.01,0.26-0.02,0.32-0.12
		C147.53,58.54,142.13,54.64,140.37,54.65z M131.09,61.6c-2.62-1.51-4.57-0.14-4.07,1.95c0.32,1.34,1.92,3.29,4.45,3.42
		c0.19-0.01,0.45-0.02,0.64-0.07C134.54,66.37,133.94,63.25,131.09,61.6z M124.19,175.71c0.16-0.44-1.16-0.35-3.49,0.95
		c-0.27,0.15-1.59,0.9-1.59,1.11c0.03,0.03,0.05,0.03,0.14,0.04C120.48,177.74,123.92,176.46,124.19,175.71z M152.63,71.01
		c1.67-1.03-1.71-5.62-4.63-6.3c-1.7-0.4-1.74,1.13-0.8,2.77c0.78,1.35,2.76,3.55,4.8,3.69C152.19,71.16,152.43,71.14,152.63,71.01z
		 M152.03,76.26c0.63,1.65,2.49,4.04,4.64,4.19c0.16-0.01,0.37-0.03,0.52-0.08c2.25-0.75,0.17-5.65-3-7.09
		C152.14,72.36,151.09,73.8,152.03,76.26z M154.94,71.72c0.81,1.45,2.77,3.8,4.55,3.95c0.12-0.01,0.28-0.03,0.39-0.07
		c1.72-0.78-1.77-6.1-4.49-6.85C153.83,68.31,153.94,69.95,154.94,71.72z M159,82.98c-2.22-1.35-3.88,0.27-3.22,3.14
		c0.41,1.81,2.04,4.44,4.36,4.6c0.17-0.01,0.41-0.03,0.57-0.09C163.11,89.87,161.98,84.79,159,82.98z M148.35,60.97
		c-1.17-0.17-0.62,1.17,0.52,2.58c1.02,1.25,3.21,3.29,4.76,3.42c0.14-0.01,0.32-0.03,0.43-0.14
		C155.05,65.83,150.62,61.3,148.35,60.97z M131.43,59.96c0.57,1.14,2.3,3,4.54,3.12c0.22-0.01,0.49-0.03,0.74-0.13
		c1.82-0.77-0.36-4.13-3.33-5.13C131.31,57.12,130.65,58.37,131.43,59.96z M114.09,176.46c1.49-0.07,2.73-1.63,2.01-2.54
		c-0.78-0.98-3.18-0.5-3.39,0.99C112.63,175.53,113,176.41,114.09,176.46z M112.75,51.42c-0.09,0.98,0.79,2.04,2.43,2.11
		c1.88-0.08,2.24-1.5,1.28-2.61C115.07,49.3,112.9,49.85,112.75,51.42z M121.6,171.68c-0.4-1.33-3.37-0.89-4.3,1.05
		c-0.36,0.76-0.3,1.87,0.98,1.93C119.99,174.58,121.95,172.83,121.6,171.68z M112.84,56.72c-0.14,1.31,1.01,2.71,3.15,2.8
		c2.58-0.11,3.19-2.16,1.87-3.69C116.05,53.74,113.06,54.61,112.84,56.72z M115.61,177.8c1-0.04,2.97-1.14,2.87-1.93
		c-0.11-0.78-2.11-0.41-2.98,0.78C115.49,176.67,114.72,177.76,115.61,177.8z M127.12,49.95c-0.66,0.11,0.76,1.25,1.05,1.48
		c0.96,0.75,2.96,2.03,4.38,2.11c0.19-0.01,0.36-0.02,0.45-0.16C133.58,52.42,128.35,49.74,127.12,49.95z M127.1,53.87
		c0.72,0.94,2.44,2.38,4.21,2.47c0.25-0.01,0.49-0.03,0.69-0.19c1.22-0.96-2.48-3.86-4.61-4.06
		C126.22,51.99,126.36,52.91,127.1,53.87z M117.85,53.87c0.2,0.97,1.36,2.38,3.34,2.47c0.15-0.01,0.36-0.02,0.5-0.05
		c1.69-0.34,1.46-2.25-0.41-3.51C119.24,51.41,117.52,52.25,117.85,53.87z M121.49,48.24c-0.53,0.08,0.48,0.91,0.81,1.16
		c0.22,0.17,2.19,1.66,3.78,1.74c0.17-0.01,0.35-0.02,0.44-0.13C127.14,50.23,122.63,48.06,121.49,48.24z M121.01,51.42
		c0.51,0.81,1.89,2.04,3.55,2.11c0.24-0.01,0.47-0.02,0.68-0.16c1.14-0.73-1.28-2.9-3.34-3.37C120.54,49.7,120.42,50.5,121.01,51.42
		z M134.03,56.72c0.88,1.07,2.84,2.7,4.64,2.8c0.25-0.02,0.49-0.03,0.67-0.21c1.12-1.1-3.06-4.42-5.27-4.65
		C132.82,54.53,133.1,55.6,134.03,56.72z M124.45,176.46c1.59-0.09,5.78-2,5.85-2.84c0.04-0.47-1.57-0.2-4.09,1.29
		c-0.73,0.43-1.41,0.89-1.72,1.17C124.09,176.44,124.31,176.45,124.45,176.46z M135.39,165.57c-0.23-1.49-3.47-0.79-5.27,1.57
		c-0.74,0.97-1.34,2.55,0.24,2.64C132.52,169.66,135.62,167.07,135.39,165.57z M130.51,174.66c1.6-0.1,6.29-2.47,6.47-3.48
		c0.11-0.64-1.83-0.08-4.43,1.55c-0.98,0.62-1.55,1.07-1.7,1.2C130.02,174.62,130.33,174.65,130.51,174.66z M137.04,172.42
		c1.7-0.13,6.47-3,6.81-4.09c0.22-0.73-1.73-0.09-4.49,1.8c-0.19,0.13-0.86,0.59-1.44,1.06
		C136.46,172.36,136.88,172.41,137.04,172.42z M139.41,167.14c-0.77,0.7-2.49,2.54-1.24,2.64c2-0.13,6.12-3.18,6.12-4.54
		C144.28,164.18,141.76,164.99,139.41,167.14z M125.03,174.66c1.65-0.08,5.02-2.11,5-3.26c-0.02-0.99-2.52-0.4-4.4,1.33
		C125.07,173.24,123.88,174.59,125.03,174.66z M120.75,169.77c2.51-0.11,4.39-2.57,3.69-4.02c-0.91-1.88-4.65-0.93-5.48,1.38
		C118.58,168.18,118.89,169.69,120.75,169.77z M119.44,59.96c0.13,1.23,1.42,3.01,3.91,3.12c0.1-0.01,0.23-0.01,0.33-0.02
		c2.42-0.23,2.69-2.81,0.47-4.52C121.75,56.7,119.22,57.84,119.44,59.96z M126.88,55.03c-2.18-0.99-3.3,0.11-2.69,1.69
		c0.5,1.29,2.09,2.71,4.05,2.8c0.22-0.01,0.49-0.02,0.74-0.12C130.7,58.77,129.45,56.2,126.88,55.03z M112.93,63.55
		c-0.17,1.59,1.2,3.3,3.79,3.42c3.13-0.14,4.02-2.64,2.53-4.52C117.31,60.01,113.24,60.72,112.93,63.55z M145.19,166.73
		c1.93-0.15,6.38-3.85,6.26-5.21c-0.09-1.01-2.56,0.17-4.72,2.25C145.92,164.55,144.04,166.62,145.19,166.73z M145.04,163.32
		c2.19-0.15,5.87-3.61,5.71-5.38c-0.15-1.65-3.25-0.41-5.28,2.11C144.51,161.25,143.53,163.2,145.04,163.32z M167.26,133.89
		c-0.9-1.79-3.59-0.08-4.79,3.06c-0.68,1.78-0.87,4.35,0.84,4.5C165.94,141.24,168.3,135.97,167.26,133.89z M169.63,122.75
		c-1.25-1.94-3.75-0.13-4.53,3.28c-0.44,1.92-0.23,4.7,1.63,4.87C169.46,130.67,171.07,124.99,169.63,122.75z M165.88,88
		c-1.8-1.09-2.99,0.62-2.41,3.45c0.38,1.89,1.8,4.62,3.75,4.79c0.07-0.01,0.18-0.01,0.25-0.02C169.86,95.77,168.68,89.7,165.88,88z
		 M168.94,99.11c-1.77-1.52-3.5,0.32-3.32,3.52c0.11,2,1.17,4.91,3.15,5.09C171.66,107.44,171.31,101.15,168.94,99.11z
		 M163.34,144.21c-0.56-1.65-3.31-0.08-4.9,2.79c-0.89,1.61-1.47,3.93,0.04,4.07C160.95,150.87,163.97,146.09,163.34,144.21z
		 M156.17,149.22c-0.57-1.89-3.84-0.46-5.55,2.43c-0.83,1.41-1.47,3.68,0.37,3.82C153.7,155.28,156.75,151.16,156.17,149.22z
		 M162.53,93.76c-2.23-1.83-4.5-0.1-4.19,3.19c0.18,1.95,1.52,4.77,3.93,4.94c0.09-0.01,0.22-0.01,0.31-0.02
		C165.37,101.45,165.33,96.07,162.53,93.76z M79.09,110.27c-2.29-0.59-4.76,1.12-4.97,4.14c-0.04,0.54,0.02,1.14,0.19,1.74
		c0.45,1.66,1.72,3.28,4.02,3.41c4.12-0.23,5.3-5.24,2.8-8.01C80.52,110.87,79.81,110.46,79.09,110.27z M137.76,53.87
		c-1.56-1.01-3.67-1.89-4.25-1.77c-0.7,0.14,0.95,1.5,1.28,1.77c1.08,0.87,3.3,2.38,4.74,2.47c0.12-0.01,0.28-0.02,0.37-0.11
		C140.19,55.94,139.55,55.03,137.76,53.87z M131.61,49.97c0,0.06,0,0.23,2.2,1.45c1.36,0.76,3.8,2.04,4.83,2.11
		c0.09-0.01,0.18-0.02,0.2-0.09C138.97,52.74,132.28,49.53,131.61,49.97z M125.49,48.24c-0.01,0.01-0.02,0.03-0.03,0.05
		c0.05,0.07,0.16,0.21,2,1.11c3.41,1.67,4.26,1.73,4.54,1.74c0.09-0.01,0.19-0.02,0.22-0.08C132.43,50.5,126.77,48.12,125.49,48.24z
		 M128.32,48.26c0.08,0.05,0.08,0.05,2.93,1.14c3.83,1.47,4.42,1.7,4.91,1.74c0.02-0.01,0.05-0.02,0.07-0.04
		C135.86,50.49,129.2,48.09,128.32,48.26z M120,46.99c0,0.01-0.01,0.02-0.01,0.03c0.1,0.08,0.2,0.13,1.79,0.8
		c1.91,0.8,3.25,1.31,4.01,1.35c0.08-0.01,0.18-0.01,0.2-0.06C126.24,48.58,121.01,46.91,120,46.99z M116.97,46.99
		c-0.34,0.05,0.21,0.54,0.57,0.83c0.27,0.21,1.65,1.29,2.96,1.35c0.15-0.01,0.3-0.02,0.4-0.11
		C121.49,48.47,117.94,46.85,116.97,46.99z M147.06,57.62c-0.64,0.01,0.49,1.27,1.66,2.34c1.12,1.03,3.54,3,4.7,3.12
		c0.06-0.01,0.15-0.02,0.2-0.06C154.32,62.33,148.56,57.59,147.06,57.62z M122.15,177.8c0.01,0,0.03,0,0.04,0
		c1.24-0.07,6.49-1.58,6.79-2.28c-0.13-0.31-2.71,0.66-3.96,1.13C122.17,177.73,122.17,177.73,122.15,177.8z M155.12,64.66
		c-0.98-0.18-0.29,1.32,0.85,2.81c1.04,1.36,3.16,3.56,4.43,3.69c0.08-0.01,0.19-0.02,0.25-0.07
		C161.68,70.33,157.13,65.03,155.12,64.66z M138.04,52.13c0.02,0.08,0.06,0.29,2.39,1.75c1.14,0.71,3.89,2.37,4.86,2.47
		c0.07-0.01,0.15-0.02,0.14-0.11C145.36,55.42,138.52,51.61,138.04,52.13z M144.35,54.65c-0.02,0.01-0.04,0.03-0.05,0.04
		c0.05,0.09,0.18,0.33,2.58,2.02c1.42,1,3.92,2.7,4.62,2.8c0.02,0,0.04-0.01,0.06-0.01C151.81,58.97,145.68,54.84,144.35,54.65z
		 M116.09,49.4c0.32,0.8,1.36,1.68,2.68,1.74c0.14-0.01,0.34-0.02,0.51-0.08c1.08-0.38,0.25-1.8-1.5-2.56
		C116.17,47.81,115.76,48.58,116.09,49.4z M107.54,101.89c4.47-0.2,6.3-4.25,4.23-6.95c-2.61-3.39-8.43-2.09-9.04,2.01
		C102.44,98.9,103.75,101.72,107.54,101.89z M86.13,164.78c-1.19,0-1.19,1.06,0,2.36c1.1,1.2,3.2,2.56,4.67,2.64
		c0.21-0.01,0.41-0.03,0.56-0.18C92.3,168.64,88.64,164.77,86.13,164.78z M93.39,166.53c1.47-0.93-0.46-4.42-3.41-5.24
		c-2.06-0.57-3.04,0.68-1.96,2.48c0.69,1.13,2.61,2.86,4.56,2.96C92.86,166.71,93.12,166.7,93.39,166.53z M76.78,136.96
		c0.25,1.78,1.89,4.35,4.78,4.5c0.11-0.01,0.27-0.01,0.38-0.02c3.33-0.37,3.71-4.94,0.6-7.3C79.65,131.95,76.31,133.58,76.78,136.96
		z M113.91,46.23c-0.08,0-0.22,0,0.27,0.49c0.57,0.56,1.3,0.91,1.94,0.94c0.12-0.01,0.24-0.01,0.33-0.08
		C116.96,47.18,114.72,46.22,113.91,46.23z M74.9,126.04c0.06,1.92,1.52,4.7,4.57,4.87c3.98-0.22,4.73-4.97,2.07-7.59
		C78.81,120.61,74.78,122.27,74.9,126.04z M114.54,177.32c-0.39-0.52-1.79-0.19-1.93,0.62c-0.04,0.24,0.06,0.7,0.5,0.73
		C113.81,178.63,114.92,177.83,114.54,177.32z M94.7,81.07c-0.47,1.74,0.37,4.25,3.69,4.41c3.75-0.17,5.68-3.45,4.44-5.86
		C101.13,76.29,95.73,77.25,94.7,81.07z M112.64,47.82c-0.05,0.63,0.55,1.3,1.63,1.35c1.14-0.05,1.27-0.81,0.68-1.46
		C114.04,46.72,112.72,46.78,112.64,47.82z M107.57,125.32c4.78-0.22,6.42-4.72,3.88-7.49c-2.96-3.23-8.54-1.68-8.92,2.47
		C102.35,122.15,103.58,125.14,107.57,125.32z M155.2,63.55c1.2,1.21,3.45,3.29,4.29,3.42c0.02-0.01,0.06,0,0.08-0.02
		c0.71-0.43-5.19-6.03-6.31-5.99C152.81,60.97,154.03,62.36,155.2,63.55z M164.48,148.82c-0.18-1.25-2.42,0.26-4.22,2.83
		c-0.98,1.41-2.14,3.69-1.07,3.82C161.12,155.26,164.7,150.4,164.48,148.82z M158.07,159.55c1.3-0.2,5.89-5.34,5.79-6.47
		c-0.06-0.64-1.76,0.72-3.64,2.91C159.41,156.94,157.45,159.42,158.07,159.55z M172.79,128.2c-0.75-1.5-2.72,0.31-3.7,3.4
		c-0.59,1.85-0.81,4.54,0.53,4.7C171.77,136.05,173.75,130.12,172.79,128.2z M165.03,151.07c1.56-0.25,5.07-6.25,4.72-7.35
		c-0.23-0.72-1.84,0.87-3.31,3.28C165.52,148.5,164.33,150.93,165.03,151.07z M165.12,146.4c2.06-0.23,4.9-5.67,4.31-7.44
		c-0.47-1.4-2.61,0.28-4.02,3.14C164.57,143.8,163.93,146.25,165.12,146.4z M158.11,157.45c-0.11-0.84-2.24,0.44-4.3,2.59
		c-0.83,0.87-2.78,3.15-1.84,3.27C153.69,163.14,158.28,158.76,158.11,157.45z M149.86,166.73c1.25-0.18,6.52-4.45,6.71-5.44
		c0.11-0.54-1.59,0.55-3.86,2.48c-0.51,0.44-3.08,2.63-2.9,2.95C149.82,166.72,149.84,166.72,149.86,166.73z M148.06,168.05
		c-0.16-0.04-0.76,0.13-4.02,2.08c-3.28,1.96-3.45,2.16-3.53,2.25c0.01,0.01,0.02,0.03,0.03,0.04
		C141.65,172.27,148.22,168.65,148.06,168.05z M135.38,173.44c-0.28-0.16-1.62,0.31-4.23,1.47c-2.82,1.26-3.02,1.42-3.11,1.49
		c0,0.02,0,0.04,0,0.05c0.02,0,0.04,0,0.05,0.01C129.63,176.35,135.52,174.06,135.38,173.44z M150.52,164.99
		c0.12-0.62-1.62,0.11-4.31,2.15c-0.34,0.26-3.33,2.53-2.58,2.64C145.21,169.62,150.3,166.08,150.52,164.99z M172.58,87.76
		c-0.81-0.48-0.92,1.25-0.23,3.7c0.53,1.89,1.71,4.62,2.68,4.79c0.03-0.01,0.08-0.01,0.12-0.02
		C176.29,95.73,174.16,88.7,172.58,87.76z M171.57,93.22c-1.31-0.81-2.08,0.97-1.63,3.73c0.32,1.95,1.44,4.77,2.93,4.94
		c0.06-0.01,0.14-0.01,0.19-0.02C174.95,101.39,173.78,94.6,171.57,93.22z M162.06,73.07c-1.16-0.41-1.17,1.02-0.03,3.19
		c0.81,1.54,2.62,4.03,4.06,4.19c0.09-0.01,0.22-0.03,0.3-0.08C167.67,79.54,164.31,73.88,162.06,73.07z M171.17,136.96
		c-0.73,1.78-1.4,4.35-0.62,4.5c1.55-0.26,4.09-6.94,3.51-8.11C173.67,132.56,172.26,134.31,171.17,136.96z M161.1,68.69
		c-0.72-0.19,0.1,1.42,1.23,3.03c1.01,1.45,2.96,3.8,3.86,3.95c0.03-0.01,0.07-0.01,0.09-0.02C167.15,75.21,162.6,69.09,161.1,68.69
		z M166.73,86.12c0.6,1.81,2.11,4.44,3.56,4.6c0.05-0.01,0.13-0.01,0.18-0.02c1.79-0.47-0.39-6.69-2.8-8.02
		C166.33,81.95,165.89,83.59,166.73,86.12z M159.85,81.07c0.64,1.74,2.37,4.25,4.22,4.41c0.13-0.01,0.31-0.03,0.44-0.08
		c1.92-0.81-0.46-6.42-3.22-7.6C159.64,77.09,158.96,78.66,159.85,81.07z M176.6,119.57c1.57-0.3,1.75-7.86,0.68-9.19
		c-0.71-0.88-1.56,1.08-1.74,4.03C175.42,116.45,175.67,119.39,176.6,119.57z M176.63,122.18c-0.56-0.86-1.72,1.02-2.37,3.86
		c-0.44,1.92-0.67,4.7,0.2,4.87C176.03,130.62,177.46,123.44,176.63,122.18z M174.88,102.62c0.21,2,0.95,4.91,1.92,5.09
		c1.73-0.34,0.22-8.23-1-9.05C175.03,98.14,174.6,99.99,174.88,102.62z M152.38,159.55c2.26-0.18,5.85-4.38,5.63-6.03
		c-0.2-1.46-2.93-0.07-4.88,2.47C152.14,157.31,151.05,159.43,152.38,159.55z M119.94,174.91c-0.01,0.01-1.42,1.49-0.26,1.55
		c1.38-0.06,3.99-1.57,4.05-2.54C123.79,173.02,121.53,173.29,119.94,174.91z M128.1,168.74c-0.4-1.34-3.48-0.71-4.87,1.39
		c-0.56,0.85-0.9,2.22,0.6,2.29C125.86,172.33,128.49,170.06,128.1,168.74z M170.3,110.97c-1.55-1.99-3.81-0.09-4.11,3.44
		c-0.17,2.03,0.46,4.97,2.41,5.15C171.37,119.31,172.13,113.33,170.3,110.97z M118.94,162.24c-1.59-2.04-5.71-0.99-6.04,1.53
		c-0.15,1.17,0.66,2.86,2.95,2.96C118.74,166.6,120.21,163.86,118.94,162.24z M112.81,170.13c-0.12,0.91,0.48,2.22,2.2,2.29
		c2.19-0.1,3.51-2.26,2.63-3.51C116.47,167.25,113.09,168.1,112.81,170.13z M115.42,178.74c-0.68,0.14-1.2,0.2-1.61,0.24
		c0.23-0.01,0.46-0.02,0.7-0.03c1.8-0.16,3.43-0.51,3.56-0.71C118.04,178.22,118.04,178.22,115.42,178.74z M115.19,178.66
		c0.02,0.01,0.04,0.01,0.06,0.01c0.93-0.04,3.62-0.85,3.82-1.41c0.1-0.27-0.72-0.37-2.68,0.68
		C115.21,178.57,115.19,178.63,115.19,178.66z M143.7,71.72c0.58,1.55,2.46,3.81,4.83,3.95c0.17-0.01,0.41-0.03,0.58-0.07
		c2.4-0.68,0.75-4.94-2.53-6.52C144.25,67.95,142.8,69.29,143.7,71.72z M173.94,104.65c-1.25-1.2-2.51,0.72-2.49,3.81
		c0.01,2.05,0.69,5.02,2.18,5.21C175.92,113.38,175.73,106.38,173.94,104.65z M174.4,116.69c-1.02-1.58-2.75,0.34-3.25,3.61
		c-0.3,1.98-0.08,4.85,1.35,5.02C174.69,125.06,175.73,118.75,174.4,116.69z M133.72,102.62c-0.11,2,1.29,4.91,4.75,5.09
		c4.14-0.22,5.37-4.8,3-7.51C138.79,97.13,133.94,98.65,133.72,102.62z M141.56,123.63c-2.25-3.16-7.36-1.63-8.05,2.41
		c-0.33,1.92,0.7,4.7,4.02,4.87C141.65,130.7,143.48,126.33,141.56,123.63z M123.79,108.46c-0.2,2.05,1.19,5.02,4.91,5.21
		c4.48-0.22,6.02-4.91,3.61-7.69C129.53,102.77,124.2,104.32,123.79,108.46z M132.46,136.96c-0.41,1.78,0.39,4.35,3.49,4.5
		c3.84-0.19,5.93-4.31,4.35-6.75C138.38,131.77,133.33,133.22,132.46,136.96z M123.74,120.3c-0.25,1.98,1.03,4.85,4.67,5.02
		c4.48-0.21,6.2-4.72,3.94-7.49C129.74,114.62,124.27,116.19,123.74,120.3z M123.5,96.95c-0.14,1.95,1.32,4.77,5,4.94
		c4.38-0.21,5.67-4.66,3.18-7.29C128.89,91.66,123.77,93.13,123.5,96.95z M162.9,113.66c3.26-0.25,3.89-5.74,1.66-8.32
		c-2.04-2.36-4.89-0.58-5.01,3.11C159.49,110.51,160.48,113.48,162.9,113.66z M161.97,125.32c3.21-0.23,4.58-5.6,2.76-8.12
		c-1.7-2.36-4.84-0.56-5.42,3.11C159,122.28,159.62,125.15,161.97,125.32z M141.19,57.63c-1.25-0.15-0.83,1.06,0.22,2.33
		c0.99,1.19,3.09,3,4.82,3.12c0.16-0.01,0.36-0.03,0.51-0.13C147.97,62.05,143.66,57.93,141.19,57.63z M133.94,114.41
		c-0.22,2.03,1.01,4.97,4.44,5.15c4.23-0.22,5.77-4.83,3.58-7.68C139.5,108.67,134.4,110.28,133.94,114.41z M130.31,176.46
		c1.15-0.13,7.91-2.47,8.18-3.06c-0.26,0.03-0.26,0.03-4.09,1.51c-1.45,0.56-2.39,0.9-3.14,1.17
		C130.42,176.39,130.42,176.39,130.31,176.46z M170.56,80.45c0.01-0.01,0.02-0.01,0.03-0.02c0.01-0.25-1.05-2.16-2.19-3.97
		c-0.54-0.84-1.1-1.67-1.67-2.48c-0.44-0.58-0.79-0.96-0.95-0.96c-0.02,0.4,1.44,2.77,1.73,3.24
		C168.71,78.19,170.19,80.31,170.56,80.45z M127.64,136.29c4.31-0.2,6.17-4.42,4.13-7.02c-2.37-3.02-7.81-1.52-8.43,2.33
		C123.04,133.45,124.18,136.13,127.64,136.29z M177.91,101.89c0.18-0.1,0.07-1.13-0.18-2.45c-0.07-0.35-0.14-0.71-0.22-1.06
		c-0.01-0.04-0.02-0.09-0.03-0.13c-0.23-1.02-0.47-2.04-0.75-3.06c-0.34-1.18-0.67-2.07-0.88-2.17c-0.3,0.16,0.15,2.64,0.43,3.93
		C176.78,99.2,177.54,101.73,177.91,101.89z M175.11,90.73c0.01-0.01,0.03-0.01,0.04-0.02c0.08-0.11-0.1-0.82-0.52-1.96
		c-0.59-1.54-1.24-3.07-1.96-4.58c-0.42-0.85-0.87-1.64-1.07-1.64c-0.13,0.49,1,3.28,1.13,3.6
		C173.59,88.22,174.74,90.58,175.11,90.73z M140.4,172.73c-1.48,0.7-2.54,1.17-3.42,1.56c-0.73,0.32-0.74,0.33-0.81,0.37
		c0.01,0,0.03-0.01,0.05-0.01c2.6-1,5.18-2.17,7.7-3.52c0.06-0.03,0.13-0.07,0.19-0.11c0.05-0.04,0.09-0.07,0.12-0.1
		c-0.13,0.03-0.42,0.17-1.64,0.76C141.96,171.98,141.18,172.36,140.4,172.73z M165.55,151.65c-0.43,0.58-2.56,3.49-2.46,3.82
		c0.27-0.1,2.23-2.48,3.66-4.46c0.32-0.45,0.63-0.91,0.94-1.37c0.41-0.64,0.66-1.11,0.61-1.26
		C167.85,148.53,165.78,151.33,165.55,151.65z M127.5,177.27c0.26-0.07,0.46-0.14,0.58-0.19c-0.32,0.03-0.64,0.09-0.96,0.15
		c2.28-0.57,4.99-1.39,5.23-1.75c-0.17-0.03-0.17-0.03-4.16,1.19c-1.44,0.44-2.37,0.69-3.27,0.94c-0.58,0.16-0.58,0.16-0.67,0.21
		c0.23-0.02,0.58-0.07,1-0.16c-0.44,0.11-0.87,0.21-1.31,0.29c-0.84,0.16-1.68,0.29-2.53,0.41c0.35-0.06,0.58-0.11,0.66-0.13
		c-0.31,0.02-0.62,0.06-0.93,0.09c2.22-0.37,4.81-0.94,5.03-1.23c-0.06-0.01-0.06-0.01-3.93,0.86c-0.82,0.18-1.65,0.31-2.48,0.46
		c0.33-0.07,0.56-0.13,0.63-0.18c-0.54,0.03-1.07,0.11-1.6,0.2c1.83-0.34,4.21-0.96,4.27-1.33c-0.27-0.1-1.12,0.15-3.41,0.84
		c-0.87,0.26-1.47,0.43-2.2,0.61c-0.31,0.08-0.31,0.08-0.39,0.12c0.32-0.01,0.83-0.08,1.42-0.19c-0.51,0.09-1.02,0.19-1.53,0.26
		c-0.46,0.06-0.88,0.11-1.27,0.14c0.38-0.02,0.77-0.04,1.16-0.07c0.95-0.1,1.78-0.21,2.4-0.32c-0.26,0.05-0.52,0.1-0.78,0.17
		c0.17-0.01,0.39-0.03,0.63-0.05c-0.27,0.04-0.54,0.07-0.82,0.1c0.53-0.04,1.06-0.08,1.58-0.13c0.03,0,0.07-0.01,0.1-0.01
		c-0.02,0-0.04,0.01-0.06,0.01c0.64-0.06,1.26-0.13,1.86-0.2c0.03,0,0.06-0.01,0.08-0.01c0.06-0.01,0.12-0.02,0.18-0.02
		c0.06-0.01,0.12-0.02,0.18-0.03c-0.07,0.01-0.15,0.02-0.22,0.03c1.35-0.2,2.81-0.47,3.98-0.72c-0.18,0.04-0.36,0.09-0.54,0.13
		c0.88-0.17,1.75-0.37,2.63-0.58c0.1-0.02,0.21-0.05,0.31-0.07c1.86-0.46,3.71-1,5.54-1.63c0,0,0.02-0.01,0.02-0.01
		c-1.34,0.36-2.65,0.82-3.99,1.19C129.13,176.88,128.31,177.08,127.5,177.27z M79.79,54.65c-0.1,0.02-0.36,0.16-0.74,0.36
		c-1.76,1.02-3.46,2.11-5.09,3.27c-0.85,0.61-1.48,1.12-1.51,1.25C72.78,59.44,79.7,54.84,79.79,54.65z M87.62,51.14
		c0.29-0.04,7.97-2.76,8.22-2.91c-0.15,0.02-0.62,0.13-1.27,0.3c0.55-0.17,1.09-0.34,1.65-0.49c0.96-0.25,1.92-0.46,2.89-0.66
		c-0.54,0.12-0.91,0.22-1.03,0.27c0.33-0.03,0.66-0.08,0.99-0.14c-0.41,0.09-0.84,0.19-1.29,0.31c-1.97,0.5-3.84,1.13-4,1.34
		c0.01,0,0.03,0,0.04,0.01c0.5-0.04,8.03-2.17,8.06-2.19c-0.13,0.01-0.59,0.08-1.27,0.21c0.53-0.12,1.06-0.24,1.6-0.33
		c0.85-0.15,1.07-0.19,2.52-0.37c-0.35,0.05-0.58,0.09-0.68,0.12c0.08-0.01,0.14-0.01,0.63-0.07c1.51-0.19,3.69-0.48,6.53-0.55
		c-0.02,0-0.03,0-0.05,0c-0.86,0.02-1.71,0.05-2.57,0.11c-0.38,0.02-0.74,0.05-1.09,0.08c0.35-0.03,0.67-0.06,0.97-0.08
		c-0.29,0.02-0.58,0.04-0.87,0.06c-0.2,0.01-0.4,0.03-0.61,0.05c-0.33,0.03-0.65,0.06-0.98,0.09c-0.28,0.03-0.56,0.06-0.85,0.09
		c-0.24,0.03-0.47,0.05-0.71,0.08c-0.36,0.04-0.71,0.09-1.07,0.14c-0.06,0.01-0.1,0.01-0.1,0.01c0.16-0.02,0.33-0.03,0.49-0.05
		c-0.35,0.05-0.71,0.1-1.09,0.16c-1.1,0.17-2.09,0.35-2.88,0.51c0.35-0.07,0.69-0.15,1.03-0.23c-2.88,0.51-5.74,1.22-8.58,2.13
		c-0.05,0.02-0.1,0.04-0.12,0.05c0.3-0.05,0.59-0.12,0.88-0.2c-0.42,0.13-0.86,0.27-1.31,0.42C89.88,50.03,87.73,50.9,87.62,51.14z
		 M121.82,46.64c0.37,0.05,0.75,0.12,1.12,0.17c-0.2-0.04-0.41-0.07-0.62-0.1C122.15,46.69,121.99,46.67,121.82,46.64z M116.41,46.1
		c-0.34-0.02-0.67-0.04-0.98-0.06c0.42,0.02,0.84,0.05,1.25,0.08C116.51,46.11,116.47,46.11,116.41,46.1z M121.34,46.72
		c0.52,0.09,1.04,0.21,1.56,0.33c-0.27-0.04-0.47-0.05-0.57-0.04c0.9,0.37,1.86,0.54,2.79,0.82c4.36,1.33,4.36,1.33,4.71,1.35
		c0.02-0.01,0.06-0.02,0.08-0.03c-0.18-0.34-2.65-1.1-4.74-1.62c0.34,0.06,0.69,0.11,1.04,0.13c0-0.01,0-0.01,0-0.01
		c-0.25-0.11-0.68-0.22-1.22-0.35c0.77,0.17,1.55,0.33,2.32,0.53c1.17,0.3,2.25,0.6,3.16,0.87c1.23,0.35,1.62,0.46,1.82,0.49
		c-0.02-0.06-0.24-0.17-0.58-0.29c0.54,0.17,1.07,0.33,1.6,0.51c0.72,0.24,1.42,0.52,2.13,0.8c-0.51-0.17-0.88-0.27-0.99-0.23
		c0.14,0.09,0.14,0.09,3.07,1.45c3.76,1.75,4.44,2.06,4.84,2.11c0.01-0.01,0.02-0.03,0.03-0.04c-0.41-0.47-3.41-1.9-5.61-2.79
		c0.44,0.16,0.89,0.31,1.34,0.44c0,0-0.02-0.02-0.03-0.03c-1.77-0.74-3.56-1.39-5.38-1.97c-0.42-0.12-0.86-0.24-1.31-0.36
		c-0.08-0.02-0.15-0.04-0.23-0.06c-2.18-0.58-4.58-1.16-6.69-1.62c-0.11-0.03-0.23-0.05-0.34-0.07c-0.13-0.03-0.26-0.05-0.38-0.08
		c-0.28-0.05-0.56-0.09-0.84-0.13c0.36,0.06,0.72,0.13,1.08,0.19c-0.11-0.01-0.2-0.02-0.26-0.02c0.38,0.11,0.77,0.2,1.16,0.29
		c-1.12-0.25-2.71-0.53-4.18-0.74c0.23,0.02,0.46,0.05,0.71,0.07c0,0-0.46-0.08-1.26-0.18c-1.16-0.14-2.33-0.23-3.5-0.31
		c0.22,0.02,0.67,0.07,1.66,0.17C120.63,46.6,120.67,46.6,121.34,46.72z M120.84,46.51c-0.02,0-0.04,0-0.05-0.01
		c-0.02,0-0.04,0-0.06-0.01c0.1,0.01,0.21,0.03,0.31,0.04C120.98,46.53,120.91,46.52,120.84,46.51z M46.01,114.41
		c0.05,1.97,0.27,4.97,0.67,5.15c0.68-0.31,0.37-9.09-0.33-9.4C45.93,110.37,46,113.74,46.01,114.41z M109.3,49.4
		c-0.44,0.79-0.09,1.68,1.24,1.74c1.42-0.06,2.16-1.02,1.95-1.88C112.14,47.73,110.07,48.04,109.3,49.4z M107.58,46.23
		c-0.17,0.01-1.84,0.15-3.85,0.49c-1.98,0.34-3.69,0.78-3.84,0.93c0.01,0,0.03,0,0.04,0c1.32-0.09,2.56-0.53,3.84-0.79
		C105.04,46.61,106.32,46.45,107.58,46.23z M109.06,178.31c-0.04-0.01-0.09-0.02-0.13-0.03c-0.44-0.09-0.51-0.04-0.53-0.02
		c-0.01,0.14,0.64,0.35,1.28,0.49c0.7,0.15,1.56,0.25,2.32,0.28c0.01,0,0.01,0,0.01,0c-0.23-0.02-0.52-0.05-0.91-0.13
		C110.41,178.73,109.75,178.47,109.06,178.31z M112.51,46.86c0.03-0.27-0.15-0.61-0.41-0.63c-0.26-0.03-0.8,0.21-1.11,0.49
		c-0.46,0.41-0.4,0.9,0.38,0.94C112.06,47.63,112.47,47.24,112.51,46.86z M97.03,49.11c0,0.01,0.01,0.02,0.01,0.03
		c0.04,0.02,0.09,0.02,0.13,0.03c1-0.06,6.57-2.06,6.65-2.18c-0.24-0.02-2.04,0.32-3.77,0.83C98.44,48.3,97.17,48.85,97.03,49.11z
		 M53.95,143.54c-0.01,0.01-0.02,0.01-0.04,0.02c-0.04,0.22,0.3,0.94,0.69,1.67c0.81,1.43,1.67,2.83,2.57,4.18
		c0.64,0.91,1.18,1.59,1.4,1.66c0.01-0.01,0.02-0.01,0.03-0.02C58.72,150.32,54.68,143.79,53.95,143.54z M46.98,121.97
		c-0.32,0.16,0.07,2.47,0.28,3.55c0.15,0.77,0.32,1.54,0.5,2.3c0.37,1.5,0.82,2.96,1.12,3.08
		C49.58,130.57,47.82,122.31,46.98,121.97z M59.91,152.95c0.02,0.26,0.78,1.27,1.64,2.31c0.57,0.68,1.15,1.34,1.74,2
		c1.09,1.18,2.13,2.21,2.42,2.3c0.01,0,0.02-0.01,0.02-0.02C65.68,159.14,60.51,152.95,59.91,152.95z M141.89,170.97
		c-0.2-0.19-1.64,0.41-4.27,1.77c-3.29,1.7-3.31,1.83-3.33,1.92c0.02,0,0.04,0.01,0.05,0.01
		C135.78,174.53,141.83,171.72,141.89,170.97z M148.33,153.95c-0.51-2.07-4.24-0.79-5.95,2.05c-0.79,1.31-1.29,3.43,0.7,3.55
		C145.84,159.39,148.79,155.84,148.33,153.95z M135.47,154.19c-1.11-2.39-5.58-1.19-6.74,1.81c-0.54,1.4-0.23,3.43,2.17,3.55
		C134.04,159.4,136.37,156.13,135.47,154.19z M135.14,163.32c2.7-0.14,5.38-3.16,5.03-4.94c-0.44-2.23-4.47-1.12-6.08,1.67
		C133.35,161.34,133.19,163.21,135.14,163.32z M127.58,166.73c2.66-0.13,5.02-2.87,4.49-4.49c-0.66-2.05-4.64-1.02-5.9,1.53
		C125.59,164.94,125.64,166.63,127.58,166.73z M143.08,162.03c-0.05-1.65-3.3-0.88-5.41,1.74c-0.88,1.09-1.68,2.86-0.1,2.96
		C139.79,166.6,143.14,163.74,143.08,162.03z M132.24,170.13c-0.68,0.61-2.17,2.21-0.93,2.29c1.89-0.11,5.56-2.58,5.69-3.84
		C137.12,167.45,134.48,168.13,132.24,170.13z M116.59,159.55c3.46-0.15,5.07-3.42,3.47-5.36c-1.99-2.42-6.69-1.22-7.08,1.81
		C112.8,157.4,113.8,159.43,116.59,159.55z M120.83,67.48c0.06,1.45,1.46,3.56,4.37,3.69c3.31-0.15,3.8-3.13,1.74-5.15
		C124.53,63.66,120.71,64.58,120.83,67.48z M113,71.72c-0.17,1.55,1.05,3.8,4.32,3.95c3.75-0.16,4.57-3.29,3.12-5.24
		C118.3,67.57,113.37,68.42,113,71.72z M122.96,163.32c3.07-0.14,5.04-3.15,3.96-4.94c-1.33-2.21-5.71-1.09-6.51,1.67
		C120.04,161.34,120.59,163.21,122.96,163.32z M113.42,113.28c-0.14,0.35-0.23,0.73-0.28,1.14c-0.2,1.83,0.94,4.38,4.01,5.01
		c0.34,0.07,0.71,0.12,1.1,0.14c5.1-0.23,6.22-5.1,3.95-7.68C119.64,108.97,114.7,109.99,113.42,113.28z M152.59,144.69
		c-0.97-2.35-4.86-0.92-6.32,2.32c-0.72,1.61-0.74,3.93,1.48,4.07C150.83,150.89,153.48,146.84,152.59,144.69z M151.33,78.27
		c-2.54-1.59-4.68-0.1-4.02,2.8c0.4,1.74,2.13,4.25,4.73,4.41c0.2-0.01,0.46-0.03,0.65-0.08C155.29,84.68,154.44,80.22,151.33,78.27
		z M121.99,76.26c-0.01,1.65,1.45,4.04,4.72,4.19c3.73-0.17,4.53-3.56,2.38-5.86C126.51,71.83,122,72.89,121.99,76.26z
		 M138.75,65.17c-2.66-1.38-4.24,0.12-3.52,2.3c0.47,1.45,2.27,3.56,4.76,3.69c0.19-0.01,0.44-0.03,0.62-0.07
		C143.02,70.51,141.86,66.8,138.75,65.17z M138.39,76.26c0.33,1.65,2.06,4.04,4.85,4.19c0.21-0.01,0.5-0.03,0.7-0.08
		c2.68-0.64,2.19-4.56-0.8-6.55C140.42,72.01,137.8,73.36,138.39,76.26z M151.56,102.62c0.01,2,1.28,4.91,4.09,5.09
		c3.74-0.24,4.23-5.6,1.54-8.12C154.76,97.32,151.55,99.04,151.56,102.62z M155.03,88.63c-2.59-2.13-5.42-0.54-5.05,2.83
		c0.21,1.89,1.74,4.62,4.49,4.79c0.11-0.01,0.25-0.01,0.36-0.02C157.87,95.83,158,91.07,155.03,88.63z M155.76,134.41
		c-1.37-2.53-5.39-0.96-6.52,2.54c-0.57,1.78-0.26,4.35,2.22,4.5C154.77,141.26,157.04,136.79,155.76,134.41z M151.97,114.41
		c-0.2,2.03,0.76,4.97,3.54,5.15c3.62-0.23,4.86-5.24,2.77-8.01C156.15,108.7,152.37,110.42,151.97,114.41z M155.88,146.4
		c2.96-0.2,5.53-4.82,4.52-7c-0.96-2.08-4.31-0.49-5.68,2.7C154,143.8,153.87,146.25,155.88,146.4z M163.3,128.67
		c-1.36-2.26-4.63-0.57-5.64,2.92c-0.53,1.85-0.29,4.54,1.92,4.7C162.71,136.07,164.73,131.04,163.3,128.67z M129.45,71.72
		c0.22,1.55,1.84,3.81,4.73,3.95c0.11-0.01,0.27-0.01,0.38-0.02c2.99-0.31,3.15-3.9,0.27-6C132.1,67.66,129.04,68.84,129.45,71.72z
		 M117.21,151.07c3.93-0.17,5.65-3.9,3.76-6.11c-2.31-2.71-7.5-1.37-7.93,2.04C112.84,148.61,114,150.93,117.21,151.07z
		 M124.88,155.46c3.55-0.16,5.55-3.67,4.13-5.75c-1.72-2.52-6.6-1.24-7.36,1.93C121.29,153.15,122.05,155.33,124.88,155.46z
		 M130.64,139.95c-2.07-2.79-7.31-1.39-8.01,2.15c-0.34,1.7,0.63,4.15,3.81,4.3C130.39,146.22,132.37,142.29,130.64,139.95z
		 M133.71,151.07c3.53-0.17,5.78-3.9,4.52-6.11c-1.53-2.68-6.36-1.35-7.39,2.04C130.36,148.61,130.93,150.93,133.71,151.07z
		 M113.06,81.07c-0.2,1.73,1.14,4.25,4.73,4.41c4.13-0.18,5.44-3.75,3.37-6.18C118.68,76.39,113.46,77.54,113.06,81.07z
		 M139.28,155.46c3.09-0.16,5.62-3.67,4.89-5.75c-0.91-2.56-5.3-1.3-6.71,1.93C136.81,153.15,136.93,155.34,139.28,155.46z
		 M122.34,123.98c-1.03-1.44-2.66-2.07-4.28-2.02c-2.35,0.07-4.65,1.58-4.94,4.07c-0.23,1.92,1.16,4.7,4.94,4.87
		c0.2-0.01,0.39-0.03,0.58-0.05C122.64,130.34,124.2,126.58,122.34,123.98z M122.89,86.12c-0.07,1.81,1.41,4.44,4.93,4.6
		c4.06-0.19,5.15-3.92,2.96-6.46C128.13,81.18,123.04,82.38,122.89,86.12z M113.13,102.62c-0.23,2,1.22,4.91,5.14,5.09
		c4.76-0.22,6-4.63,4.06-7.16C119.7,97.12,113.6,98.5,113.13,102.62z M113.1,91.46c-0.21,1.89,1.2,4.62,5.01,4.79
		c4.59-0.21,5.7-4.34,3.77-6.72C119.29,86.33,113.54,87.59,113.1,91.46z M118.13,133.16c-2.34-0.04-4.74,1.38-5.04,3.8
		c-0.13,1.07,0.29,2.43,1.42,3.37c0.74,0.62,1.79,1.07,3.2,1.13c4.19-0.18,5.97-3.89,4.19-6.42
		C121.01,133.77,119.58,133.18,118.13,133.16z M132.86,91.46c0,1.89,1.52,4.62,4.89,4.79c3.99-0.2,4.84-4.5,2.36-7.05
		C137.32,86.33,132.85,87.73,132.86,91.46z M146.71,83.67c-2.75-2.35-6.2-0.91-5.86,2.45c0.18,1.81,1.8,4.44,4.81,4.6
		c0.12-0.01,0.28-0.01,0.39-0.02C149.2,90.35,149.6,86.14,146.71,83.67z M142.52,96.95c0.03,1.95,1.48,4.77,4.61,4.94
		c3.9-0.22,4.54-5.04,1.87-7.6C146.35,91.74,142.47,93.33,142.52,96.95z M131.41,81.07c0.11,1.73,1.7,4.25,4.88,4.41
		c3.8-0.19,4.24-4.08,1.67-6.47C135.17,76.4,131.19,77.65,131.41,81.07z M146.93,125.32c4.03-0.22,5.61-5.11,3.41-7.82
		c-2.24-2.77-6.6-1.07-7.18,2.8C142.87,122.28,143.84,125.15,146.93,125.32z M147.31,139.95c-1.32-2.78-6-1.37-7.15,2.15
		c-0.56,1.7-0.14,4.15,2.54,4.3C146.09,146.22,148.42,142.29,147.31,139.95z M145.27,136.29c3.7-0.2,5.7-4.42,4.21-7.02
		c-1.72-3.01-6.49-1.51-7.4,2.33C141.65,133.45,142.35,136.13,145.27,136.29z M154.08,130.9c3.55-0.22,5.32-4.97,3.61-7.59
		c-1.77-2.72-5.73-1.06-6.52,2.73C150.77,127.96,151.41,130.74,154.08,130.9z M143.32,108.46c-0.13,2.05,1.1,5.02,4.26,5.21
		c4.01-0.23,5.15-5.32,2.67-8.02C147.72,102.88,143.57,104.56,143.32,108.46z M84.16,59.96c-1.38,1.42-1.84,3.01-0.19,3.12
		c2.53-0.14,5.37-3.22,5.31-4.71C89.22,56.76,86.08,57.98,84.16,59.96z M103.27,86.12c-0.32,1.81,0.85,4.44,4.47,4.6
		c4.08-0.18,5.88-3.61,4.3-6.13C109.88,81.15,103.98,82.18,103.27,86.12z M103.56,106c-0.58,0.65-0.97,1.48-1.09,2.46
		c-0.24,2.05,1.15,5.03,5,5.21c2.02-0.09,3.51-0.99,4.35-2.2c1.06-1.52,1.11-3.55-0.08-5.14C109.65,103.54,105.54,103.75,103.56,106
		z M104.07,76.26c-0.41,1.93,0.86,4.05,4.02,4.19c3.76-0.16,5.44-3.27,3.99-5.56C110.14,71.81,104.82,72.72,104.07,76.26z
		 M106.33,59.96c-0.44,1.43,0.39,3.01,2.8,3.12c2.77-0.12,4.01-2.22,3.2-3.89C111.14,56.76,107.16,57.27,106.33,59.96z M105.1,67.48
		c-0.43,1.7,0.64,3.57,3.46,3.69c3.34-0.15,4.85-2.88,3.58-4.89C110.43,63.58,105.89,64.35,105.1,67.48z M104.38,151.65
		c-0.01,1.51,1.32,3.69,4.29,3.82c3.74-0.16,4.99-3.67,2.96-5.75C109.13,147.17,104.39,148.43,104.38,151.65z M83,120.3
		c-0.09,1.98,1.32,4.85,4.7,5.02c4.22-0.22,5.5-4.72,3.15-7.49C88.16,114.67,83.18,116.24,83,120.3z M111.66,165.57
		c-1.81-1.51-5.14-0.79-4.9,1.57c0.11,1.04,1.16,2.55,3.17,2.64c0.08,0,0.19-0.01,0.26-0.01
		C112.32,169.57,113.52,167.12,111.66,165.57z M105.47,160.05c0.05,1.29,1.26,3.16,3.78,3.27c3.2-0.14,4.24-3.15,2.48-4.94
		C109.52,156.12,105.36,157.23,105.47,160.05z M103.5,142.1c-0.06,1.63,1.24,3.95,4.3,4.26c0.12,0.01,0.24,0.03,0.37,0.03
		c2.81-0.12,4.38-1.95,4.42-3.84c0.02-0.91-0.32-1.84-1.05-2.6C108.82,137.14,103.64,138.52,103.5,142.1z M102.87,131.59
		c-0.12,1.85,1.32,4.54,4.93,4.7c4.49-0.2,6.07-4.48,3.67-7.02C108.6,126.23,103.13,127.7,102.87,131.59z M69.48,63.08
		c1.03-0.15,7.02-4.98,6.74-5.44c-0.39-0.09-2.29,1.13-3.83,2.33C70.61,61.35,68.98,62.97,69.48,63.08z M78.34,56.72
		c-0.33,0.22-0.75,0.53-1.04,0.74c-0.88,0.67-2.34,1.96-1.6,2.06c1.6-0.16,6.87-4.23,6.88-4.77C82.59,54.33,80.33,55.38,78.34,56.72
		z M70.08,63.55c-1.65,1.55-2.85,3.3-1.92,3.42c1.88-0.19,6.21-4.81,6.15-5.79C74.27,60.45,72.05,61.69,70.08,63.55z M82.48,56.34
		c1.8-0.14,6.57-3.52,6.73-4.11c0.14-0.51-2.26,0.4-4.35,1.64c-0.92,0.55-1.5,0.99-1.83,1.26C82.71,55.4,81.73,56.27,82.48,56.34z
		 M64.37,67.48c-1.55,1.68-2.85,3.57-2.23,3.69c1.37-0.21,5.91-5.46,5.86-6.38C67.96,64.21,66.13,65.57,64.37,67.48z M87.63,51.42
		c-1.9,0.86-3.4,1.77-3.43,2.07c0.03,0.02,0.08,0.04,0.11,0.04c0.95-0.09,7.41-3.18,7.51-3.59C91.48,49.89,89.36,50.64,87.63,51.42z
		 M105.57,46.72c-1.28,0.27-2.67,0.69-2.75,0.92c0.03,0.01,0.08,0.02,0.11,0.02c0.13-0.01,0.31-0.02,0.94-0.17
		c0.05-0.01,4.82-1.22,4.89-1.26C108.53,46.24,107.1,46.39,105.57,46.72z M107.75,47.82c-0.09,0.06-0.2,0.15-0.27,0.22
		c-0.56,0.52-0.61,1.09,0.28,1.13c1.28-0.06,2.28-1.06,2.41-1.73C110.35,46.42,108.4,47.34,107.75,47.82z M110.31,46.23
		c-0.19-0.01-1.29,0.17-2.27,0.49c-0.65,0.21-1.16,0.46-1.37,0.65c-0.19,0.17-0.13,0.27,0.15,0.28c1.16-0.05,3.48-1.4,3.5-1.41
		L110.31,46.23z M93.94,49.4c-1.87,0.7-3.29,1.45-3.24,1.71c0.04,0.02,0.09,0.03,0.13,0.04c1.15-0.08,7.16-2.65,7.21-2.9
		C97.7,48.2,95.71,48.74,93.94,49.4z M111.53,175.58c-1.01-0.36-2.1,0.16-1.7,1.08c0.23,0.53,0.97,1.11,1.7,1.15
		c0.11,0,0.27-0.01,0.45-0.11C112.75,177.29,112.79,176.02,111.53,175.58z M64.75,146.32c2-0.81-0.22-6.47-3-7.67
		c-1.8-0.78-2.58,0.9-1.6,3.45c0.65,1.7,2.38,4.15,4.18,4.3C64.45,146.39,64.63,146.37,64.75,146.32z M63.42,155.46
		c0.03-0.01,0.06-0.01,0.09-0.02c0.86-0.41-3.6-6.68-5.03-7.06c-0.74-0.2-0.22,1.29,1.14,3.25
		C60.83,153.39,62.63,155.34,63.42,155.46z M69.5,159.55c0.07-0.01,0.17-0.02,0.23-0.06c1.02-0.75-3.44-6.19-5.36-6.54
		c-1.04-0.19-0.7,1.21,0.73,3.05C66.35,157.62,68.39,159.44,69.5,159.55z M65.84,148.45c-1.55-0.44-1.84,1.09-0.61,3.2
		c0.88,1.51,2.87,3.69,4.52,3.82c0.11-0.01,0.26-0.02,0.36-0.07C71.83,154.64,68.47,149.19,65.84,148.45z M76.36,163.32
		c0.13-0.01,0.29-0.03,0.39-0.13c0.86-0.85-3.1-5.62-5.5-5.97c-1.25-0.18-1.08,1.12,0.36,2.83
		C72.87,161.54,75.04,163.21,76.36,163.32z M50.19,127.75c-0.89-0.52-1.04,1.24-0.33,3.84c0.47,1.73,1.59,4.53,2.61,4.7
		c0.04-0.01,0.08-0.01,0.12-0.02C53.81,135.79,51.83,128.7,50.19,127.75z M72.57,163.77c1.49,1.35,3.72,2.87,4.68,2.96
		c0.05-0.01,0.13-0.01,0.17-0.05c0.63-0.64-5.05-5.54-6.41-5.52C70.3,161.17,71,162.34,72.57,163.77z M62.94,151.07
		c0.09-0.01,0.21-0.03,0.29-0.07c1.31-0.8-1.93-6.59-4.13-7.38c-1.27-0.46-1.35,1.16-0.17,3.38
		C59.78,148.61,61.59,150.93,62.94,151.07z M53.13,122.33c-1.46-1.19-2.45,0.68-1.98,3.71c0.3,1.92,1.4,4.7,2.88,4.87
		C56.38,130.63,55.23,124.04,53.13,122.33z M111.68,171.4c-1.46-1-3.8-0.36-3.46,1.33c0.16,0.76,1.03,1.87,2.48,1.93
		c0.11-0.01,0.26-0.01,0.36-0.03C112.58,174.35,113.19,172.44,111.68,171.4z M57.73,141.46c0.05-0.01,0.13-0.01,0.18-0.02
		c1.86-0.46-0.16-6.73-2.6-8.08c-1.44-0.8-1.97,0.95-1.08,3.6C54.82,138.74,56.3,141.31,57.73,141.46z M107.21,178.67v-0.01
		c-6.53-1.6-6.6-1.6-6.83-1.57c0,0.01-0.01,0.03-0.01,0.04c0.28,0.22,1.5,0.58,2.52,0.82C104.94,178.42,106.94,178.65,107.21,178.67
		z M108.88,178.64c-0.04-0.02-4.33-1.79-4.85-1.55c-0.21,0.1,0.34,0.46,1.49,0.84c1.35,0.44,2.95,0.71,3.33,0.73
		C108.86,178.66,108.87,178.65,108.88,178.64z M108.55,177.1c-0.37,0.09-0.36,0.43,0.28,0.84c0.63,0.41,1.64,0.71,2.03,0.73
		c0.06,0,0.1-0.01,0.13-0.04C111.16,178.37,109.63,176.84,108.55,177.1z M62.71,68.67c-0.38,0.12-1.86,1.89-2.77,3.05
		c-1.01,1.3-2.61,3.51-2.59,3.93c0.01,0.01,0.02,0.01,0.03,0.02C57.82,75.53,62.94,69.24,62.71,68.67z M89.54,174.63
		c-0.04-0.03-6.98-3.59-7.83-3.71c-0.01,0.01-0.03,0.03-0.04,0.04c0.23,0.31,1.69,1.13,3.01,1.77c2.29,1.11,4.44,1.88,4.85,1.93
		C89.53,174.65,89.54,174.64,89.54,174.63z M79.82,169.76c0.17-0.47-6.51-5.11-7.15-4.97c-0.15,0.25,1.15,1.37,2.5,2.35
		c1.8,1.3,3.99,2.56,4.59,2.64C79.78,169.77,79.8,169.77,79.82,169.76z M81.17,170.13c1.8,1.13,4.11,2.22,4.87,2.29
		c0.03-0.01,0.08-0.02,0.1-0.04c-0.03-0.65-6.6-4.58-7.24-4.33C78.54,168.19,79.56,169.12,81.17,170.13z M101.72,177.8
		c0.01-0.01,0.02-0.01,0.03-0.02c-0.05-0.03-6.8-2.39-7.47-2.32c-0.01,0.02-0.01,0.04-0.02,0.06c0.28,0.28,1.55,0.77,2.69,1.13
		C99.1,177.34,101.3,177.78,101.72,177.8z M90.74,174.91c2.23,0.89,4.47,1.51,4.95,1.55c0.01-0.01,0.02-0.02,0.03-0.03
		c-0.05-0.04-7.28-3.24-7.83-3C88,173.71,89.41,174.38,90.74,174.91z M164.41,71.17c0.01,0,0.01-0.01,0.02-0.02
		c-0.05-0.25-0.72-1.12-1.6-2.14c-0.45-0.52-0.91-1.04-1.38-1.55c-0.1-0.11-0.2-0.22-0.3-0.32c-0.38-0.41-0.77-0.81-1.16-1.2
		c-0.75-0.75-1.34-1.27-1.5-1.27c0.07,0.27,1.28,1.68,2.29,2.81C161.31,68.07,163.94,71.01,164.41,71.17z M117.18,46.25
		c-0.1-0.01-0.18-0.01-0.25-0.01c2.23,0.39,2.23,0.39,2.63,0.48c1.42,0.31,2.78,0.85,4.25,0.94c0.02,0,0.04,0,0.05,0
		c0-0.01,0-0.03,0-0.04c-0.57-0.36-2.67-0.79-4.44-1.08c0.3,0.03,0.6,0.06,0.91,0.08c-0.03-0.05-2.74-0.54-6.72-0.62l-0.02,0
		c0.62,0.01,1.38,0.05,2.25,0.11C116.28,46.14,116.73,46.19,117.18,46.25z M116.21,46.29c-0.28-0.04-0.51-0.06-0.67-0.06
		c0.03,0.02,0.03,0.02,0.31,0.1c0.31,0.09,0.68,0.19,1.27,0.39c2.74,0.92,2.74,0.92,3.25,0.94c0.1-0.01,0.13-0.01,0.16-0.05
		c0-0.33-1.84-0.85-3.33-1.15c0.43,0.07,0.86,0.13,1.3,0.15c0.01,0,0.03-0.01,0.04-0.01c-0.21-0.12-2.44-0.57-5.54-0.62
		c0.52,0.01,1.16,0.04,1.94,0.12C115.37,46.15,115.79,46.22,116.21,46.29z M112.53,46.1c0.01,0.23,0.3,0.49,0.76,0.51
		c0.07,0,0.2-0.01,0.27-0.07c0.22-0.2-0.43-0.54-1.05-0.56c0,0-0.01,0-0.01,0c0.02,0,0.03,0.01,0.03,0.02
		C112.55,46.03,112.53,46.07,112.53,46.1z M116.11,46.61c0.07,0,0.08-0.01,0.1-0.03c-0.07-0.18-1.66-0.59-3.61-0.61h-0.01
		c0.33,0,0.72,0.03,1.24,0.13C114.59,46.25,115.32,46.58,116.11,46.61z M114.61,46.01c-0.03,0-0.06,0-0.08,0
		c0.06,0,0.12,0,0.19,0.01C114.68,46.02,114.64,46.01,114.61,46.01z M113.01,45.98c-0.12,0-0.25,0-0.38,0h0
		C112.75,45.98,112.88,45.98,113.01,45.98L113.01,45.98z M49.55,125.3c1.45-0.53,0.67-8-0.95-9.07c-0.82-0.54-1.29,1.32-1.03,4.08
		c0.17,1.85,0.83,4.84,1.86,5.02C49.46,125.32,49.51,125.31,49.55,125.3z M148.02,56.34l0-0.01c-0.09-0.09-0.29-0.24-0.58-0.43
		c-2.27-1.4-4.62-2.66-7.04-3.77c-0.07-0.02-0.12-0.03-0.15-0.03c1.01,0.73,2.17,1.18,3.25,1.77
		C147.98,56.33,147.98,56.33,148.02,56.34z M167.52,77.64c-0.76-0.22-0.3,1.57,0.58,3.43c0.82,1.74,2.4,4.25,3.32,4.41
		c0.03-0.01,0.08-0.01,0.1-0.02C172.6,84.96,169.08,78.1,167.52,77.64z M152.73,59.96c2.44,1.95,3.82,3.03,4.1,3.12l0.01-0.02
		c-0.09-0.18-0.52-0.59-1.13-1.13c-1.27-1.09-2.58-2.13-3.93-3.12c-0.12-0.09-0.25-0.18-0.37-0.27c-0.2-0.15-0.41-0.29-0.62-0.44
		c-0.43-0.29-0.75-0.47-0.86-0.47C150.03,57.77,150.43,58.11,152.73,59.96z M57.66,76.26c-1.09,1.65-2.27,4.04-1.49,4.19
		c1.53-0.24,5.17-6.24,4.82-7.28C60.77,72.5,59.15,74.01,57.66,76.26z M70.65,60.96c-0.3,0.09-1.73,1.25-3.2,2.59
		c-1.02,0.94-3.26,3.11-3.21,3.42C64.81,66.8,70.67,61.3,70.65,60.96z M51.08,87.68c-0.25,0.09-0.68,1.04-1.04,1.97
		c-0.54,1.47-1.03,2.97-1.46,4.48c-0.29,1.1-0.46,2.03-0.27,2.12C49.05,95.96,51.64,87.96,51.08,87.68z M177.97,108.46
		c0.1,2.37,0.41,5.03,0.76,5.21c0.21-0.11,0.28-1.34,0.26-2.88c-0.03-1.19-0.09-2.38-0.18-3.55c-0.14-1.57-0.34-2.83-0.57-2.94
		C177.93,104.45,177.91,106.87,177.97,108.46z M46.49,107.71c0.82-0.35,2.01-8.81,1.28-9.14c-0.3,0.12-0.63,1.6-0.84,2.75
		c-0.16,0.93-0.3,1.86-0.42,2.8C46.31,105.82,46.2,107.58,46.49,107.71z M110.22,46.48c-0.08,0.08-0.04,0.13,0.13,0.14
		c0.76-0.03,1.35-0.62,2.12-0.63c-0.01,0-0.01,0-0.02,0c-0.39,0-0.82,0.05-1.21,0.12C110.64,46.22,110.31,46.38,110.22,46.48z
		 M77.98,56.33c0.02,0,0.04,0.01,0.05,0.01c0.94-0.13,7.33-3.95,7.56-4.22c-0.01-0.01-0.02-0.03-0.03-0.04
		c-0.47,0.06-2.33,0.89-3.98,1.78C80.22,54.6,78.05,55.92,77.98,56.33z M105.57,46.61c0.17-0.01,0.4-0.04,1.04-0.14
		c1.51-0.22,2.94-0.41,4.71-0.48c-0.71,0.02-1.42,0.05-2.12,0.1C107.24,46.25,105.65,46.53,105.57,46.61z M110.11,46.1
		c-1.25,0.13-2.24,0.35-2.44,0.48c0,0.01,0.01,0.02,0.01,0.03c0.01,0,0.03,0,0.05,0c0.24-0.01,0.53-0.07,1.24-0.21
		c1.08-0.22,1.92-0.38,3-0.41c0.12,0,0.25-0.01,0.37-0.01c-0.07,0-0.14,0-0.22,0c-0.03,0-0.05,0-0.08,0c-0.01,0-0.01,0-0.02,0
		c-0.24,0-0.47,0.01-0.7,0.02c0.12,0,0.24,0,0.36-0.01C111.04,46.02,110.49,46.06,110.11,46.1z M89.78,49.98
		c-2.57,0.94-5.11,2.04-7.6,3.32c-0.2,0.11-0.33,0.2-0.36,0.23c0.04-0.01,7.86-3.44,8.08-3.59C89.87,49.96,89.82,49.97,89.78,49.98z
		 M52.01,85.47c0.74-0.26,4.36-7.07,4.16-7.83c-0.01-0.01-0.03-0.01-0.04-0.02c-0.3,0.1-1.08,1.34-1.72,2.46
		c-0.61,1.1-1.19,2.22-1.74,3.35c-0.44,0.95-0.77,1.78-0.71,2.02C51.98,85.46,52,85.47,52.01,85.47z M71.08,163.3
		c0.63-0.37-5.21-6.13-6.19-6.1c-0.5,0.01,0.34,1.29,1.87,2.85c1.47,1.49,3.52,3.16,4.24,3.27
		C71.03,163.31,71.06,163.31,71.08,163.3z M57.18,146.4c0.03-0.01,0.07-0.01,0.1-0.02c1.16-0.49-2.22-7.43-3.85-7.89
		c-0.76-0.22-0.54,1.4,0.49,3.62C54.72,143.8,56.26,146.25,57.18,146.4z M76.79,168.62c2.14,1.36,4.35,2.59,6.61,3.69
		c0.15,0.06,0.25,0.1,0.3,0.12c0,0,0-0.01,0-0.01c-0.05-0.05-7.41-4.37-7.68-4.37C76.1,168.14,76.38,168.35,76.79,168.62z
		 M49.57,133.16c-0.19,0.1,0.1,1.12,0.42,2.08c0.54,1.48,1.14,2.96,1.8,4.42c0.45,0.95,0.88,1.71,1.11,1.8
		C53.43,141.19,50.32,133.44,49.57,133.16z M67.34,161.17c0.09,0.24,1.12,1.2,2.2,2.12c0.78,0.65,1.56,1.29,2.36,1.91
		c1.12,0.85,2.02,1.47,2.24,1.53c0,0,0.01-0.01,0.01-0.01C74.13,166.66,67.87,161.17,67.34,161.17z M53.06,91.46
		c-0.66,1.89-0.96,4.62,0.45,4.79c2.26-0.25,4.31-6.15,3.28-8.06C56.04,86.76,54.12,88.45,53.06,91.46z M85.81,173.41
		c0.02,0.01,0.05,0.03,0.08,0.04c2.62,1.14,5.32,2.11,8.06,2.91l-7.89-2.88C85.86,173.41,85.86,173.41,85.81,173.41z M48.24,113.66
		c1.69-0.31,1.98-7.86,0.85-9.17c-0.74-0.85-1.62,1.04-1.85,3.96C47.08,110.51,47.28,113.48,48.24,113.66z M51.75,90.73
		c1.59-0.26,4.15-6.34,3.69-7.91c-0.3-1.03-1.78,0.61-2.98,3.31C51.65,87.94,50.9,90.57,51.75,90.73z M48.92,96.95
		c-0.5,1.95-0.79,4.77,0.13,4.94c1.77-0.31,3.24-7.38,2.31-8.68C50.78,92.42,49.62,94.2,48.92,96.95z M146.23,169.77
		c0.04-0.01,0.09-0.03,0.15-0.06c1.74-1.06,3.5-2.23,5.01-3.25c0.59-0.43,1.17-0.86,1.75-1.3c0.2-0.17,0.32-0.31,0.34-0.38
		c-0.26,0.08-1.5,0.94-3.54,2.36C146.28,169.69,146.28,169.69,146.23,169.77z M155.26,163.32c0.24-0.08,1.66-1.3,3.1-2.64
		c0.35-0.33,0.7-0.67,1.04-1c0.07-0.07,0.14-0.14,0.21-0.21c0.5-0.5,0.98-1,1.46-1.52c0.31-0.36,0.5-0.63,0.49-0.75
		c-0.26,0.08-1.33,1.04-3.18,2.85C155.27,163.08,155.26,163.25,155.26,163.32z M171.26,142.1c-0.02,0.04-1.97,3.88-1.75,4.3
		c0.19-0.07,1.02-1.41,1.87-2.96c0.7-1.33,1.35-2.69,1.96-4.06c0.16-0.45,0.23-0.78,0.17-0.91
		C173.12,138.62,171.87,140.91,171.26,142.1z M175.35,131.59c-0.67,2.14-1.23,4.55-0.97,4.7c0.16-0.07,0.43-0.61,0.74-1.38
		c0.67-1.87,1.25-3.78,1.75-5.71c0.19-0.86,0.27-1.47,0.14-1.54C176.65,127.82,175.82,130.1,175.35,131.59z M177.65,120.3
		c-0.31,2.29-0.44,4.86-0.13,5.02c0.17-0.08,0.38-0.8,0.58-1.81c0.28-1.69,0.5-3.39,0.66-5.09c0.09-1.25,0.07-2.2-0.1-2.29
		C178.3,116.29,177.86,118.72,177.65,120.3z M115.24,178.34c0.03-0.09-0.09-0.18-0.58-0.06c-0.38,0.09-0.78,0.3-1.09,0.46
		c-0.41,0.21-0.51,0.23-0.77,0.28c0.01,0,0.03,0,0.04,0c0.05,0,0.1,0,0.15-0.01C113.96,178.95,115.13,178.6,115.24,178.34z
		 M107.26,178.46c-1.36-0.26-1.43-0.26-1.49-0.21c0.29,0.14,1.27,0.34,2.34,0.49c1.02,0.14,2.15,0.23,3.24,0.27c0.05,0,0.1,0,0.14,0
		c-0.75-0.04-1.37-0.08-2.4-0.23C108.45,178.69,107.86,178.58,107.26,178.46z M109.32,178.92c-0.23-0.02-0.46-0.04-0.69-0.06
		c-0.25-0.02-0.51-0.05-0.79-0.08c-1.2-0.13-2.28-0.3-2.99-0.41c-1.02-0.16-1.03-0.16-1.12-0.14c0.18,0.05,0.65,0.15,1.32,0.25
		c-0.03,0-0.06-0.01-0.09-0.01c-0.9-0.14-1.8-0.28-2.7-0.46c-0.97-0.19-1.87-0.39-2.63-0.57c-1.7-0.39-1.72-0.38-1.84-0.36
		c0.32,0.15,1.69,0.52,3.35,0.84c0.7,0.14,1.36,0.25,1.97,0.35c-0.22-0.02-0.45-0.04-0.67-0.06c0.03,0.01,0.09,0.02,0.17,0.03
		c-0.33-0.05-0.55-0.08-0.7-0.1c2.94,0.48,5.92,0.76,8.91,0.84c-0.37-0.01-0.73-0.03-1.1-0.05
		C109.58,178.94,109.45,178.93,109.32,178.92z M100.13,177.8l-7.97-2.23c-0.41-0.11-0.41-0.11-0.49-0.08
		c0.36,0.2,1.74,0.69,3.45,1.17c0.8,0.23,1.57,0.42,2.27,0.59c-0.15-0.03-0.29-0.05-0.44-0.08c1.45,0.35,2.9,0.65,4.37,0.9
		c-0.54-0.1-1.07-0.21-1.6-0.33C99.92,177.78,100.07,177.8,100.13,177.8z M111.55,178.24c-0.28,0.06-0.35,0.28-0.01,0.5
		c0.29,0.19,0.71,0.27,0.85,0.28c0.01,0,0.02,0,0.03,0l0.01,0c0.05-0.04,0.19-0.33-0.07-0.56
		C112.12,178.25,111.78,178.19,111.55,178.24z M107.74,53.87c-0.45,1.15,0.19,2.39,2.06,2.47c2.2-0.1,3.2-1.75,2.57-3.06
		C111.42,51.31,108.48,51.99,107.74,53.87z M82.16,71.72c-0.84,1.55-0.85,3.8,1.72,3.95c3.12-0.16,5.44-3.35,4.83-5.52
		C87.98,67.54,83.88,68.53,82.16,71.72z M99.9,58.96c-0.34-2.38-4.03-1.37-5.62,1c-0.98,1.45-0.75,3.01,1.31,3.12
		C98.16,62.95,100.15,60.67,99.9,58.96z M97.24,66.28c-0.72-2.66-5.04-1.88-6.6,1.2c-0.74,1.45-0.59,3.56,2.06,3.69
		C95.67,71.03,97.78,68.29,97.24,66.28z M101.24,50.3c0.08-0.91-2.47,0.06-3.99,1.13c-0.23,0.17-0.52,0.39-0.69,0.55
		c-0.55,0.51-1.25,1.49,0.01,1.56C98.62,53.43,101.16,51.17,101.24,50.3z M86.5,63.55c-1.14,1.59-1.1,3.3,0.95,3.42
		c2.89-0.15,5.07-3.07,4.86-4.76C92.01,59.9,88.24,61.11,86.5,63.55z M91.56,56.72c-1.24,1.28-1.54,2.71,0.15,2.8
		c2.47-0.13,4.81-2.66,4.77-4.06C96.43,53.84,93.39,54.85,91.56,56.72z M101.32,100.55c-2.42-3.46-8.17-2.11-8.79,2.07
		c-0.06,0.41-0.05,0.86,0.02,1.32c0.29,1.77,1.65,3.63,4.55,3.77c2.07-0.1,3.58-1.12,4.36-2.47
		C102.31,103.8,102.32,101.99,101.32,100.55z M97.15,119.57c4.59-0.22,6.15-4.84,3.7-7.68c-2.8-3.25-8.14-1.67-8.53,2.53
		C92.14,116.31,93.3,119.38,97.15,119.57z M89.32,136.27c3.59-0.36,4.69-4.74,1.83-7.31c-2.92-2.64-7.24-1.03-7.12,2.64
		c0.06,1.85,1.61,4.54,4.85,4.7C89.02,136.28,89.2,136.28,89.32,136.27z M94.87,74.58c-1.35-2.74-5.97-1.68-7.28,1.68
		c-0.64,1.65-0.21,4.04,2.76,4.19C93.93,80.27,96,76.89,94.87,74.58z M93.07,84.27c-1.7-3.06-6.76-1.86-7.84,1.86
		c-0.53,1.81,0.17,4.44,3.39,4.6C92.4,90.54,94.47,86.78,93.07,84.27z M58.83,86.12c-0.78,1.81-1.07,4.44,0.77,4.6
		c2.6-0.22,4.96-5.05,4.11-7.32C62.95,81.39,60.22,82.91,58.83,86.12z M62.93,119.57c3.29-0.24,4.03-5.73,1.82-8.32
		c-2.05-2.41-4.98-0.61-5.14,3.17C59.53,116.45,60.5,119.39,62.93,119.57z M60.17,102.62c-0.37,2.01,0.2,4.91,2.61,5.09
		c3.33-0.24,4.75-5.6,2.86-8.12C63.94,97.33,60.82,99.06,60.17,102.62z M57.92,116.69c-1.82-1.6-3.64,0.29-3.47,3.61
		c0.1,1.98,1.14,4.85,3.11,5.02C60.49,125.06,60.27,118.75,57.92,116.69z M60.21,136.29c0.07-0.01,0.17-0.01,0.25-0.02
		c2.44-0.44,1.42-6.54-1.38-8.26c-1.89-1.16-3.19,0.65-2.58,3.59C56.89,133.45,58.3,136.13,60.21,136.29z M65.86,81.07
		c-0.86,1.73-1.09,4.25,1.08,4.41c2.93-0.2,5.42-4.41,4.61-6.74C70.78,76.51,67.43,77.88,65.86,81.07z M62.29,91.46
		c-0.62,1.89-0.46,4.62,1.86,4.79c3.05-0.22,5.11-4.87,3.91-7.35C66.85,86.42,63.46,87.93,62.29,91.46z M70.08,86.12
		c-0.69,1.81-0.48,4.44,2.14,4.6c3.27-0.2,5.5-4.33,4.43-6.77C75.47,81.26,71.42,82.6,70.08,86.12z M73.76,76.26
		c-0.87,1.65-1.02,4.04,1.39,4.19c3.08-0.18,5.56-3.87,4.86-6.14C79.25,71.87,75.46,73.06,73.76,76.26z M78.65,81.07
		c-0.69,1.73-0.39,4.25,2.44,4.41c3.44-0.18,5.62-3.75,4.67-6.18C84.61,76.34,80.09,77.47,78.65,81.07z M79.96,155.46
		c0.22-0.01,0.5-0.03,0.77-0.15c2.17-0.97,0.32-5.38-2.78-6.65c-2.4-0.98-3.84,0.55-2.81,2.98
		C75.78,153.15,77.7,155.33,79.96,155.46z M70.68,125.32c0.4-0.02,0.75-0.11,1.08-0.24c2.35-0.93,2.87-4.34,1.53-6.73
		c-0.24-0.42-0.53-0.82-0.89-1.16c-2.45-2.35-5.79-0.55-5.77,3.11C66.63,122.28,67.9,125.15,70.68,125.32z M72.78,105.64
		c-2.11-2.74-5.94-1.06-6.39,2.81c-0.24,2.05,0.69,5.02,3.5,5.21C73.54,113.43,74.87,108.35,72.78,105.64z M75.82,146.4
		c0.19-0.01,0.44-0.03,0.62-0.08c2.11-0.56,2.05-3.57,0.45-5.73c-0.1-0.12-0.2-0.25-0.3-0.37c-0.43-0.5-0.95-0.93-1.56-1.26
		c-2.59-1.41-4.68,0.27-3.92,3.14C71.57,143.8,73.33,146.25,75.82,146.4z M72.69,136.29c0.11-0.01,0.25-0.01,0.35-0.02
		c0.32-0.04,0.61-0.13,0.86-0.26c2.3-1.16,2.09-5.58-0.74-7.59c-0.49-0.35-0.98-0.57-1.45-0.68c-2.08-0.5-3.82,1.17-3.48,3.86
		C68.48,133.45,70.02,136.13,72.69,136.29z M67.58,96.95c-0.47,1.95,0.1,4.77,2.85,4.94c3.43-0.21,5.28-4.66,3.85-7.29
		C72.65,91.62,68.52,93.07,67.58,96.95z M87.55,101.89c3.97-0.2,5.89-4.25,4.25-6.95c-2.07-3.41-7.35-2.11-8.19,2.01
		C83.22,98.9,84.18,101.72,87.55,101.89z M64.58,130.9c0.09-0.01,0.22-0.01,0.31-0.02c2.81-0.41,2.92-5.81,0.16-8.13
		c-2.29-1.93-4.7-0.12-4.36,3.28C60.87,127.96,62.21,130.74,64.58,130.9z M82.85,108.46c-0.25,2.05,0.95,5.02,4.38,5.21
		c4.25-0.22,5.85-4.92,3.65-7.69c-0.45-0.57-0.98-0.98-1.56-1.26c-2.34-1.13-5.35,0.08-6.25,2.75
		C82.97,107.78,82.9,108.11,82.85,108.46z M76.06,91.46c-0.53,1.89,0.08,4.62,3.11,4.79c3.76-0.21,5.77-4.5,4.2-7.05
		C81.61,86.36,77.1,87.75,76.06,91.46z M74.52,102.62c-0.35,2.01,0.57,4.91,3.7,5.09c3.88-0.22,5.57-4.8,3.71-7.51
		C79.85,97.16,75.2,98.68,74.52,102.62z M93.57,168.04c-1.19,0-1.31,0.94-0.27,2.09c0.83,0.91,2.76,2.22,4.25,2.29
		c0.2-0.01,0.39-0.02,0.56-0.15C99.14,171.43,96.02,168.03,93.57,168.04z M97.76,164.9c-1.97-0.52-3.09,0.61-2.22,2.24
		c0.54,1.01,2.22,2.55,4.09,2.64c0.27-0.01,0.52-0.03,0.8-0.18C101.97,168.76,100.53,165.63,97.76,164.9z M95.52,157.59
		c-2.54-1.13-4.59,0.2-3.8,2.46c0.46,1.29,2.14,3.16,4.46,3.27c0.23-0.01,0.52-0.03,0.82-0.13
		C99.16,162.45,98.64,158.98,95.52,157.59z M100.62,170.93c-1.32-0.12-1.68,0.72-0.76,1.8c0.65,0.77,2.26,1.87,3.6,1.93
		c0.17-0.01,0.43-0.02,0.61-0.2C104.91,173.63,102.76,171.13,100.62,170.93z M84.35,144.21c-1.55-0.92-3.04-0.85-3.94-0.13
		c-0.74,0.59-1.09,1.62-0.75,2.92c0.42,1.61,2.19,3.93,4.83,4.07c0.2-0.01,0.47-0.03,0.66-0.07c1.4-0.33,1.97-1.57,1.8-2.97
		C86.78,146.65,85.89,145.12,84.35,144.21z M93.86,149.22c-1.66-1.11-3.42-1.09-4.48-0.32c-0.77,0.56-1.17,1.52-0.9,2.75
		c0.34,1.51,2.03,3.69,4.72,3.82c0.2-0.01,0.48-0.03,0.68-0.07c2.54-0.53,2.77-3.59,0.72-5.57
		C94.37,149.61,94.13,149.4,93.86,149.22z M92.84,172.73c1.2,0.86,3.32,1.87,4.42,1.93c0.1-0.01,0.22-0.01,0.28-0.07
		c0.58-0.54-3.83-3.92-5.63-3.66C91.19,171.04,91.59,171.83,92.84,172.73z M83.44,156c0.57,1.4,2.42,3.43,4.76,3.55
		c0.23-0.01,0.52-0.03,0.81-0.14c2.01-0.78,1.1-4.6-2.06-6.06C84.36,152.15,82.46,153.59,83.44,156z M99.16,174.91
		c1.12,0.77,2.95,1.5,3.84,1.55c0.13-0.01,0.24-0.01,0.28-0.1c0.28-0.51-3.19-3.16-4.8-2.95C97.87,173.49,97.95,174.09,99.16,174.91
		z M92.39,139.67c-2.9-2.44-6.91-0.94-6.5,2.44c0.21,1.7,1.85,4.15,4.86,4.3c0.12-0.01,0.28-0.01,0.4-0.02
		C94.46,146.04,95.2,142.03,92.39,139.67z M104.6,176.66c0.93,0.61,2.39,1.12,3.03,1.15c0.1-0.01,0.18-0.01,0.22-0.07
		c0.33-0.52-2.65-2.56-3.81-2.24C103.63,175.61,103.68,176.05,104.6,176.66z M106.73,56.04c-0.49-2.3-3.99-1.5-5.24,0.68
		c-0.75,1.3-0.33,2.71,1.67,2.8C105.52,59.42,107.04,57.53,106.73,56.04z M91.49,51.42c-1.12,0.59-1.71,1.06-1.92,1.23
		c-0.36,0.31-0.86,0.83-0.19,0.88c1.9-0.12,6.23-3.07,6.31-3.48C95.78,49.64,93.42,50.41,91.49,51.42z M83.65,56.72
		c-0.09,0.07-0.22,0.17-0.31,0.25c-1.43,1.19-2.19,2.47-1,2.56c2.26-0.15,5.84-3.44,5.96-4.5C88.4,54.02,85.66,55.16,83.65,56.72z
		 M79.11,71.17c2.91-0.17,5.4-3.58,5.15-5.39c-0.32-2.23-3.95-0.83-5.76,1.7C77.45,68.93,76.95,71.04,79.11,71.17z M97.83,49.4
		c-0.85,0.39-1.51,0.8-1.88,1.13c-0.28,0.26-0.5,0.57,0.05,0.61c1.76-0.1,5.54-2.48,5.62-2.82C101.69,48,99.49,48.63,97.83,49.4z
		 M89.64,56.34c2.21-0.13,5.24-2.79,5.44-3.82c0.2-1.03-2.51-0.06-4.43,1.35c-0.17,0.13-0.39,0.3-0.55,0.44
		C89.01,55.24,88.48,56.27,89.64,56.34z M106.36,48.59c0.09-0.85-2.19,0.03-3.3,0.81c-0.19,0.13-0.42,0.32-0.55,0.45
		c-0.44,0.42-0.96,1.24,0.2,1.3C104.5,51.06,106.28,49.36,106.36,48.59z M98.94,56.34c2.27-0.11,4.06-2.17,3.99-3.4
		c-0.11-1.68-3.04-0.62-4.48,0.93C97.41,55,97.3,56.26,98.94,56.34z M108.36,50.93c-0.11-1.64-2.61-1.08-3.88,0.5
		c-0.77,0.96-0.67,2.04,0.86,2.11C107.14,53.46,108.44,52.07,108.36,50.93z M103.47,47.82c-0.73,0.29-1.31,0.6-1.61,0.87
		c-0.2,0.17-0.45,0.45,0.08,0.49c1.49-0.08,4.62-1.89,4.67-2.15C106.49,46.87,104.7,47.33,103.47,47.82z M81.75,61.6
		c-0.12-1.53-3.13-0.14-5.08,1.95c-1.25,1.34-2.23,3.29-0.51,3.42C78.72,66.8,81.87,63.16,81.75,61.6z M55.66,96.95
		c-0.51,1.95-0.36,4.77,1.57,4.94c2.72-0.24,4.42-5.44,3.15-7.88C59.23,91.8,56.58,93.45,55.66,96.95z M56.54,113.66
		c2.88-0.26,3.72-6.24,1.84-8.59c-1.57-1.96-3.86-0.13-4.22,3.38C53.95,110.51,54.55,113.48,56.54,113.66z M50.55,102.62
		c-0.35,2.01-0.19,4.91,1.29,5.09c2.31-0.27,3.44-6.56,2.05-8.6C52.83,97.58,51.12,99.38,50.55,102.62z M57.28,81.07
		c-0.94,1.73-1.68,4.25-0.37,4.41c2.12-0.23,5-5.64,4.38-7.4C60.84,76.81,58.74,78.37,57.28,81.07z M75.03,63.08
		c2.08-0.16,6.18-4.05,6.19-5.15c0.01-0.92-2.65,0.41-4.57,2.04C74.97,61.37,73.88,62.97,75.03,63.08z M61.85,75.67
		c2.07-0.22,5.51-5.19,5.33-6.6c-0.15-1.13-2.33,0.26-4.17,2.65C61.81,73.28,60.66,75.53,61.85,75.67z M74.23,65.17
		c-0.16-1.41-2.9,0.15-4.76,2.3c-1.25,1.45-2.34,3.56-0.84,3.69C71.04,70.98,74.41,66.73,74.23,65.17z M70.69,71.72
		c-1.06,1.55-1.68,3.8,0.29,3.95c2.82-0.19,5.49-4.12,5.17-6.02C75.81,67.66,72.65,68.86,70.69,71.72z M67.61,141.46
		c0.17-0.01,0.4-0.03,0.56-0.08c2.45-0.76,1.48-5.87-1.46-7.7c-2.34-1.45-4.17,0.29-3.43,3.28
		C63.72,138.74,65.35,141.31,67.61,141.46z M63.48,76.26c-1.03,1.65-1.72,4.04-0.04,4.19c2.56-0.21,5.29-4.76,4.93-6.63
		C68.02,72.01,65.28,73.38,63.48,76.26z M86.04,170.13c1.34,1.03,3.63,2.22,4.77,2.29c0.1-0.01,0.23-0.02,0.29-0.09
		c0.66-0.77-4.81-4.54-6.22-4.29C84.16,168.18,84.68,169.09,86.04,170.13z M92.49,174.66c0.04,0,0.09-0.01,0.12-0.03
		c0.11-0.6-6.2-3.91-7.04-3.7c-0.39,0.1,0.28,0.82,2.05,1.8C89.32,173.66,91.68,174.6,92.49,174.66z M104.29,177.8
		c0.02,0,0.04,0,0.06,0c0.01-0.01,0.02-0.03,0.03-0.04c-0.33-0.4-5.27-2.59-5.88-2.27c-0.24,0.13,0.33,0.6,1.71,1.17
		C101.79,177.3,103.71,177.77,104.29,177.8z M52.02,119.57c2.46-0.29,2.36-7.23,0.49-9.03c-1.27-1.22-2.6,0.74-2.63,3.88
		C49.87,116.31,50.43,119.38,52.02,119.57z M94.12,174.91c1.7,0.82,3.87,1.5,4.6,1.55c0.04,0,0.09-0.03,0.12-0.06
		c-0.3-0.58-5.99-3.37-6.64-2.96C91.95,173.59,92.61,174.19,94.12,174.91z M85.77,163.09c1.38-1.05-1.2-5.19-4.24-5.83
		c-1.86-0.39-2.5,0.94-1.34,2.78c0.79,1.25,2.86,3.16,4.8,3.27C85.26,163.3,85.52,163.28,85.77,163.09z M71.87,151.07
		c0.15-0.01,0.35-0.03,0.49-0.07c2.23-0.73,0.32-5.74-2.73-7.15c-2.22-1.03-3.45,0.59-2.39,3.15
		C67.91,148.61,69.79,150.93,71.87,151.07z M77.25,159.55c0.18-0.01,0.39-0.03,0.58-0.14c1.51-0.91-1.29-5.68-4.37-6.41
		c-1.75-0.42-2.23,1.01-1,3C73.33,157.4,75.39,159.43,77.25,159.55z M79.13,167.14c1.46,1.21,3.76,2.55,4.86,2.64
		c0.1-0.01,0.22-0.02,0.26-0.1c0.52-0.89-5.22-5.18-6.54-4.88C77.08,164.93,77.69,165.94,79.13,167.14z M83.61,166.73
		c0.2-0.01,0.4-0.03,0.53-0.2c0.81-1.07-3.2-5.38-5.64-5.37c-1.13,0-1,1.18,0.27,2.61C79.97,165.12,82.16,166.63,83.61,166.73z
		 M102.02,144.69c-2.85-2.34-7.03-0.91-6.79,2.32c0.07,0.88,0.56,1.99,1.5,2.82c0.77,0.68,1.82,1.19,3.18,1.25
		c0.12-0.01,0.28-0.01,0.4-0.02c1.77-0.17,2.89-1.27,3.18-2.61C103.77,147.2,103.33,145.76,102.02,144.69z M93.72,136.96
		c0.02,1.78,1.55,4.35,4.88,4.5c4.11-0.19,5.29-4.31,2.92-6.75C98.7,131.81,93.67,133.26,93.72,136.96z M97.66,130.9
		c4.45-0.21,5.82-4.58,3.35-7.27c-2.85-3.11-8.12-1.58-8.28,2.41C92.65,127.96,94.13,130.74,97.66,130.9z M101.83,89.52
		c-2.21-3.23-7.68-1.98-8.49,1.94c-0.39,1.89,0.65,4.62,4.19,4.79C101.69,96.05,103.62,92.13,101.83,89.52z M103.89,70.43
		c-1.39-2.92-6.19-2.07-7.34,1.29c-0.62,1.81,0.25,3.81,3.1,3.95C103.04,75.52,104.91,72.59,103.89,70.43z M103.14,153.95
		c-2.65-2.1-6.35-0.81-5.92,2.05c0.22,1.4,1.71,3.43,4.37,3.55c0.1,0,0.24-0.01,0.35-0.02
		C104.83,159.27,105.56,155.87,103.14,153.95z M104.23,161.84c-2.4-1.53-5.19-0.36-4.6,1.93c0.3,1.17,1.72,2.86,3.92,2.96
		c0.17-0.01,0.39-0.02,0.55-0.05C106.23,166.26,106.66,163.39,104.23,161.84z M105.18,62.45c-1.02-2.43-5.12-1.72-6.35,1.1
		c-0.59,1.34-0.22,3.29,2.42,3.42C104.19,66.83,105.96,64.31,105.18,62.45z M105.37,168.33c-1.82-0.78-3.7,0.04-2.97,1.8
		c0.37,0.88,1.69,2.22,3.38,2.29c0.25-0.01,0.48-0.02,0.76-0.15C107.99,171.61,107.55,169.26,105.37,168.33z M106.68,173.44
		c-1.15-0.2-1.93,0.44-1.2,1.47c0.5,0.71,1.73,1.5,2.75,1.55c0.14-0.01,0.36-0.02,0.54-0.15
		C109.56,175.72,108.6,173.77,106.68,173.44z"/>
</g>
</svg>
