<?xml version="1.0" encoding="utf-8"?>
<!-- Generator: Adobe Illustrator 26.2.1, SVG Export Plug-In . SVG Version: 6.00 Build 0)  -->
<svg version="1.1" xmlns="http://www.w3.org/2000/svg" xmlns:xlink="http://www.w3.org/1999/xlink" x="0px" y="0px"
	 viewBox="0 0 225 225" style="enable-background:new 0 0 225 225;" xml:space="preserve">
<style type="text/css">
	.st0{display:none;}
	.st1{display:inline;fill:#FAB433;}
	.st2{fill:none;}
	.st3{fill:none;stroke:#000000;stroke-width:1.6;stroke-miterlimit:10;}
	.st4{fill:none;stroke:#000000;stroke-width:0.7265;stroke-miterlimit:10;}
	.st5{fill:none;stroke:#000000;stroke-linecap:round;stroke-linejoin:round;stroke-miterlimit:10;}
	.st6{fill:none;stroke:#000000;stroke-miterlimit:10;}
	.st7{fill:none;stroke:#000000;stroke-width:0.7105;stroke-miterlimit:10;}
	.st8{fill:none;stroke:#000000;stroke-width:5.4;stroke-linecap:round;stroke-linejoin:round;stroke-miterlimit:10;}
	.st9{fill:none;stroke:#000000;stroke-width:2.9309;stroke-linecap:round;stroke-linejoin:round;stroke-miterlimit:10;}
	.st10{fill:none;stroke:#000000;stroke-width:0.5;stroke-linecap:round;stroke-linejoin:round;}
	.st11{fill:none;stroke:#FFFFFF;stroke-width:0;stroke-linecap:round;stroke-linejoin:round;}
	.st12{fill:#FFFFFF;}
	.st13{fill:none;stroke:#000000;stroke-width:1.4;stroke-miterlimit:10;}
	.st14{fill:url(#);stroke:#000000;stroke-width:1.4387;stroke-miterlimit:10;}
	.st15{fill:url(#);stroke:#000000;stroke-width:1.3718;stroke-miterlimit:10;}
	.st16{fill:none;stroke:#000000;stroke-width:1.0041;stroke-miterlimit:10;}
	.st17{fill:none;stroke:#000000;stroke-width:1.3621;stroke-miterlimit:10;}
	.st18{fill:none;stroke:#000000;stroke-width:0.25;stroke-miterlimit:10;}
</style>
<g id="Layer_2" class="st0">
	<rect id="XMLID_16010_" x="-835.99" y="-30.01" class="st1" width="1160" height="772"/>
</g>
<g id="Layer_1">
	<path d="M144.78,154.95c-8.18-9.34-19.82-14.68-31.97-14.68c-0.1,0-0.2,0-0.3,0l-0.01-0.88l-0.01,0.88c-0.1,0-0.2,0-0.3,0
		c-12.15,0-23.79,5.34-31.97,14.68c-2.63,3-5.66,4.39-9.54,4.39H45.11v3.49h34.1c2.85,0,5.44-1.05,7.92-3.2
		c6.88-5.98,15.8-9.26,25.14-9.26c0.08,0,0.15,0,0.23,0c0.08,0,0.15,0,0.23,0c9.34,0,18.26,3.29,25.14,9.26
		c2.47,2.15,5.06,3.2,7.92,3.2h34.1v-3.49h-25.57C150.44,159.35,147.41,157.95,144.78,154.95z M156.97,143.43
		c-0.66-1.13-1.47-2.22-2.26-3.23c-10.24-13.19-25.57-20.75-42.07-20.75c-0.05,0-0.09,0-0.14,0l0-0.88l0,0.88c-0.05,0-0.09,0-0.14,0
		c-16.5,0-31.83,7.56-42.07,20.75c-0.79,1.01-1.61,2.11-2.26,3.24c-1.49,2.57-3.89,3.88-7.14,3.88H45.11v4.58h20.35
		c2.47,0,4.32-0.88,5.65-2.69c10.36-14.14,24.29-21.31,41.39-21.31s31.03,7.17,41.39,21.31c1.33,1.81,3.17,2.69,5.65,2.69h20.35
		v-4.58h-15.78C160.86,147.31,158.46,146.01,156.97,143.43z M161.04,89.09c-11.18-10.19-24.81-16.23-40.5-17.93
		c-2.7-0.29-5.41-0.44-8.04-0.45c-2.63,0.01-5.33,0.16-8.04,0.45c-15.69,1.71-29.32,7.74-40.5,17.94c-2.36,2.15-5.15,3.24-8.32,3.24
		H45.11v7.48c0.69,0,4.81,0.02,6.95-0.01c2.87-0.04,5.27-1.17,7.58-3.53c13.64-14.03,32.91-22.08,52.86-22.1l0,0.88l0-0.88
		c19.95,0.02,39.22,8.08,52.86,22.1c2.3,2.37,4.71,3.49,7.58,3.53c2.13,0.03,6.26,0.01,6.95,0.01v-7.48h-10.53
		C166.19,92.33,163.4,91.24,161.04,89.09z M152.47,150.25c-10.01-13.66-23.46-20.59-39.97-20.59s-29.96,6.93-39.97,20.59
		c-1.66,2.26-4.04,3.41-7.07,3.41H45.11v3.93h25.57c3.38,0,5.91-1.17,8.21-3.79c8.52-9.73,20.64-15.29,33.3-15.29
		c0.1,0,0.21,0,0.31,0c0.1,0,0.21,0,0.31,0c12.66,0,24.78,5.56,33.3,15.29c2.3,2.62,4.83,3.79,8.21,3.79h25.57v-3.93h-20.35
		C156.5,153.66,154.13,152.51,152.47,150.25z M153.79,78.75c-12.17-8.55-26.07-12.87-41.28-12.76l0-0.88l0,0.88
		c-0.15,0-0.31,0-0.46,0c-15.04,0-28.77,4.29-40.82,12.76c-3.91,2.75-8,4.03-12.85,4.03H45.11v7.79h10.53
		c2.71,0,5.11-0.94,7.13-2.78c11.47-10.45,25.43-16.64,41.5-18.39c2.77-0.3,5.53-0.45,8.23-0.46l0,0.88l0-0.88
		c2.69,0.01,5.46,0.16,8.22,0.46c16.07,1.75,30.04,7.93,41.5,18.38c2.02,1.84,4.42,2.78,7.13,2.78h10.53v-7.79h-13.25
		C161.79,82.78,157.7,81.5,153.79,78.75z M147.78,70.67c-5.36-3.06-11.19-5.39-17.35-6.93c-5.97-1.49-11.94-2.25-17.74-2.25
		c-0.06,0-0.12,0-0.19,0l0-0.88l0,0.88c-5.89,0.01-11.89,0.74-17.93,2.25c-6.16,1.54-11.99,3.87-17.35,6.93
		c-2.68,1.53-5.58,2.28-8.86,2.28H45.11v8.07h13.25c4.47,0,8.23-1.18,11.84-3.71c12.35-8.68,26.43-13.08,41.84-13.08
		c0.16,0,0.31,0,0.47,0c15.58-0.07,29.82,4.31,42.3,13.08c3.6,2.53,7.36,3.71,11.84,3.71h13.25v-8.07h-23.24
		C153.36,72.95,150.46,72.21,147.78,70.67z M136.71,160.97c-6.56-5.7-15.07-8.83-23.99-8.83c-0.07,0-0.15,0-0.22,0l0-0.88l0,0.88
		c-0.07,0-0.15,0-0.22,0c-8.92,0-17.43,3.13-23.99,8.83c-2.81,2.44-5.78,3.63-9.07,3.63h-34.1v2.96c1.95,0,29.05,0.06,42.72,0
		c4.72-0.02,8.15-0.84,11.12-2.64c4.45-2.7,9.04-4.01,13.53-3.97v0c0.01,0,0.01,0,0.02,0c0,0,0.01,0,0.01,0v0
		c4.5-0.07,9.08,1.26,13.53,3.97c2.97,1.8,6.4,2.61,11.12,2.64c13.67,0.06,40.76,0,42.72,0v-2.96h-34.1
		C142.49,164.6,139.52,163.41,136.71,160.97z M151.07,62.83c-0.28,0-0.56,0-0.85,0c-5.35,0-12.19-0.34-19-2.49
		c-6.19-1.96-12.46-2.92-18.71-2.93l0-0.88l0,0.88c-6.2,0.01-12.52,0.97-18.71,2.93c-6.82,2.16-13.65,2.49-19,2.49
		c-0.29,0-0.57,0-0.85,0c-9.17-0.05-27.28-0.06-28.82-0.05v8.41h23.24c2.97,0,5.58-0.67,7.99-2.05c5.5-3.14,11.48-5.53,17.79-7.11
		c6.12-1.53,12.23-2.3,18.17-2.3c0.06,0,0.12,0,0.19,0c0.06,0,0.13,0,0.19,0c5.94,0,12.06,0.77,18.17,2.3
		c6.31,1.58,12.3,3.97,17.79,7.11c2.41,1.38,5.02,2.05,7.99,2.05h23.24v-8.41C178.35,62.78,160.24,62.78,151.07,62.83z M45.11,45.11
		v15.91c1.54,0,19.66,0,28.83,0.05c5.35,0.01,12.36-0.21,19.31-2.41c6.32-2,12.75-3.01,19.12-3.01c0.04,0,0.08,0,0.13,0
		c0.04,0,0.09,0,0.13,0c6.37,0,12.8,1.01,19.12,3.01c6.95,2.2,13.97,2.44,19.31,2.41c9.18-0.06,27.29-0.05,28.83-0.05V45.11H45.11z
		 M172.92,101.57c-3.32-0.05-6.2-1.38-8.82-4.07c-13.31-13.69-32.12-21.55-51.6-21.57c-19.48,0.02-38.29,7.88-51.6,21.57
		c-2.61,2.69-5.5,4.02-8.82,4.07c-0.91,0.01-2.17,0.02-3.38,0.02c-1.64,0-3.18-0.01-3.6-0.01v7.03h5.95c2.4,0,4.38-0.92,5.87-2.73
		c1.01-1.23,2.16-2.62,3.39-3.88c11.23-11.58,24.65-18.62,39.89-20.94c4.2-0.64,8.33-0.97,12.28-1l0.01,0.88l0.01-0.88
		c3.95,0.03,8.08,0.36,12.28,1c15.24,2.32,28.66,9.36,39.89,20.94c1.23,1.27,2.38,2.66,3.39,3.88c1.49,1.81,3.47,2.73,5.87,2.73
		h5.95v-7.03c-0.42,0-1.96,0.01-3.6,0.01C175.08,101.59,173.82,101.59,172.92,101.57z M137.16,169.32
		c-5.06-0.02-8.77-0.92-12.03-2.89c-4.17-2.53-8.42-3.77-12.62-3.71l-0.01-0.88l-0.01,0.88c-4.19-0.09-8.45,1.18-12.62,3.71
		c-3.26,1.98-6.97,2.87-12.03,2.89c-4.73,0.02-11.07,0.03-17.42,0.03c-12.01,0-24.05-0.03-25.31-0.03v10.56h134.78v-10.56
		c-1.26,0-13.3,0.03-25.31,0.03C148.23,169.35,141.89,169.34,137.16,169.32z M166.7,107c-0.99-1.2-2.12-2.56-3.3-3.78
		c-10.95-11.3-24.04-18.17-38.89-20.42c-4.11-0.62-8.16-0.95-12.02-0.98c-3.86,0.03-7.9,0.36-12.02,0.98
		c-14.85,2.26-27.93,9.13-38.89,20.42c-1.18,1.21-2.3,2.58-3.3,3.78c-1.85,2.24-4.28,3.37-7.23,3.37h-5.95v6.52h6.61
		c2.22,0,4.04-0.95,5.4-2.83c12.65-17.57,33.3-28.05,55.24-28.05c0.05,0,0.09,0,0.14,0c0.05,0,0.09,0,0.14,0
		c21.95,0,42.59,10.48,55.24,28.05c1.36,1.88,3.17,2.83,5.4,2.83h6.61v-6.52h-5.95C170.98,110.37,168.55,109.24,166.7,107z
		 M160.3,135.97c-0.47-0.97-1.13-1.98-2.03-3.09c-11.22-13.94-25.51-21.4-42.48-22.17c-1.18-0.05-2.25-0.08-3.3-0.07l0-0.88l0,0.88
		c-1.04,0-2.12,0.02-3.3,0.07c-16.96,0.78-31.25,8.24-42.48,22.17c-0.9,1.11-1.56,2.12-2.02,3.09c-1.57,3.25-4.31,4.83-8.38,4.83
		h-11.2v4.74h15.78c2.64,0,4.42-0.95,5.61-3c0.71-1.22,1.57-2.37,2.4-3.43c10.58-13.62,26.41-21.43,43.46-21.43
		c0.05,0,0.09,0,0.14,0c0.05,0,0.1,0,0.14,0c17.05,0,32.88,7.8,43.46,21.43c0.82,1.06,1.68,2.21,2.39,3.43c1.19,2.05,2.97,3,5.61,3
		h15.78v-4.74h-11.2C164.62,140.81,161.87,139.23,160.3,135.97z M162.88,128.65c-11.29-16.75-29.92-26.71-49.9-26.71
		c-0.16,0-0.32,0-0.48,0l-0.01-0.88l-0.01,0.88c-0.16,0-0.32,0-0.48,0c-19.98,0-38.61,9.96-49.9,26.71
		c-2.42,3.59-5.37,5.12-9.87,5.12h-7.13v5.28h11.2c3.42,0,5.51-1.18,6.79-3.84c0.53-1.09,1.26-2.21,2.24-3.43
		c11.55-14.35,26.28-22.03,43.77-22.83c1.2-0.05,2.32-0.09,3.38-0.08c0,0,0,0,0,0c0,0,0,0,0,0c1.06-0.02,2.17,0.02,3.38,0.08
		c17.49,0.8,32.22,8.48,43.77,22.83c0.98,1.22,1.71,2.34,2.24,3.43c1.28,2.65,3.38,3.84,6.79,3.84h11.2v-5.28h-7.13
		C168.25,133.77,165.3,132.24,162.88,128.65z M165.32,122.34c-11.86-17.46-31.43-27.85-52.42-27.85c-0.13,0-0.26,0-0.39,0
		l-0.01-0.88l-0.01,0.88c-0.13,0-0.26,0-0.39,0c-20.99,0-40.56,10.39-52.42,27.85c-1.97,2.9-4.5,4.25-7.94,4.25h-6.63v5.41h7.13
		c3.95,0,6.31-1.22,8.41-4.34c11.62-17.24,30.79-27.49,51.36-27.49c0.16,0,0.32,0,0.48,0c0.16,0,0.32,0,0.48,0
		c20.57,0,39.74,10.25,51.36,27.49c2.1,3.12,4.46,4.34,8.41,4.34h7.13v-5.41h-6.63C169.81,126.6,167.29,125.25,165.32,122.34z
		 M166.45,115.09c-12.32-17.11-32.43-27.32-53.81-27.32c-0.05,0-0.09,0-0.14,0l0-0.88l0,0.88c-0.05,0-0.09,0-0.14,0
		c-21.38,0-41.49,10.2-53.81,27.32c-1.68,2.33-4.04,3.57-6.83,3.57h-6.61v6.18h6.63c2.85,0,4.85-1.07,6.49-3.48
		c12.19-17.94,32.31-28.62,53.88-28.62c0.13,0,0.26,0,0.4,0c0.13,0,0.27,0,0.4,0c21.57,0,41.69,10.68,53.88,28.62
		c1.64,2.41,3.64,3.48,6.49,3.48h6.63v-6.18h-6.61C170.5,118.66,168.14,117.42,166.45,115.09z"/>
</g>
</svg>
