<?xml version="1.0" encoding="utf-8"?>
<!-- Generator: Adobe Illustrator 27.0.0, SVG Export Plug-In . SVG Version: 6.00 Build 0)  -->
<svg version="1.1" id="Layer_1" xmlns="http://www.w3.org/2000/svg" xmlns:xlink="http://www.w3.org/1999/xlink" x="0px" y="0px"
	 viewBox="0 0 225 225" style="enable-background:new 0 0 225 225;" xml:space="preserve">
<style type="text/css">
	.st0{display:none;}
	.st1{display:inline;fill:#FAB433;}
	.st2{fill:#FFFFFF;}
</style>
<g id="Layer_2_00000050621099974023645060000003455738874764352429_" class="st0">
	<rect id="XMLID_573_" x="-591" y="-275" class="st1" width="1160" height="772"/>
</g>
<g id="Layer_1_00000052797491749572927960000003462594091811912590_">
	<g>
		<path class="st2" d="M57.4,150.3L57.4,150.3c0.1,0,0.1,0.1,0.2,0.1l0,0C57.5,150.3,57.5,150.3,57.4,150.3z"/>
		<polygon class="st2" points="59.9,146.9 59.9,146.9 59.3,147.2 		"/>
		<path class="st2" d="M60.5,150.5c0.2-0.1,0.4-0.1,0.5-0.3c0.2-0.1,0.5-0.3,0.8-0.5l0,0c-0.3,0.2-0.6,0.4-0.8,0.5
			C60.8,150.3,60.7,150.4,60.5,150.5z"/>
		<path class="st2" d="M153.1,60.2c-0.1,0-0.2,0-0.2,0C152.9,60.2,153,60.2,153.1,60.2z"/>
		<path class="st2" d="M57.5,147.1c0-0.4,0-0.8,0-1.2C57.5,146.3,57.5,146.7,57.5,147.1L57.5,147.1z"/>
		<path class="st2" d="M128.5,175.9c0,0,0,0.1,0,0.1C128.5,176,128.5,176,128.5,175.9z"/>
		<path class="st2" d="M53,142.6c0.1-0.1,0.2-0.1,0.3-0.2c0.1-0.1,0.2-0.2,0.3-0.3c-0.1,0.1-0.2,0.2-0.3,0.3
			C53.2,142.5,53.1,142.6,53,142.6z"/>
		<path class="st2" d="M161.5,150.8c0.6,0.3,1.2,0.6,1.6,0.8l-1.2-1.3C161.8,150.5,161.7,150.7,161.5,150.8z"/>
		<path class="st2" d="M164.2,151.8l0.2,0.2c0.1,0.1,0.1,0.2,0.2,0.3l0,0c-0.1-0.1-0.1-0.2-0.2-0.3L164.2,151.8z"/>
		<path class="st2" d="M54.3,141.5L54.3,141.5c0,0.6-0.1,1.2-0.1,1.7c0,0,0,0.2-0.1,0.6c0-0.4,0.1-0.6,0.1-0.6
			C54.3,142.6,54.3,142,54.3,141.5z"/>
		<path class="st2" d="M54,145.7c0,1,0.5,2,1.2,2.8l0,0C54.5,147.7,54.1,146.7,54,145.7z"/>
		<path class="st2" d="M153.1,57.8c0.3,0.1,0.6,0.3,0.8,0.5C153.7,58.1,153.4,58,153.1,57.8z"/>
		<path class="st2" d="M174.8,110.6c0.8,0.2,1.6,0.4,2.4,0.6C176.4,110.9,175.6,110.8,174.8,110.6L174.8,110.6z"/>
		<path class="st2" d="M78.3,169.9C78.3,169.9,78.3,169.9,78.3,169.9L78.3,169.9C78.3,169.9,78.3,169.9,78.3,169.9z"/>
		<path class="st2" d="M78.9,165.4c-0.4-0.3-0.9-0.6-1.3-0.8c0,0.5,0,1,0,1.6c0.2-0.1,0.4-0.1,0.6-0.2L78.9,165.4z"/>
		<path class="st2" d="M127.9,172.9L127.9,172.9C127.9,172.9,127.9,172.9,127.9,172.9C127.9,172.9,127.9,172.9,127.9,172.9z"/>
		<path class="st2" d="M73.5,161.6L73.5,161.6c0,0.2,0,0.3,0,0.5c0,0,0,0.1,0,0.2c0-0.1,0-0.2,0-0.2
			C73.4,161.9,73.4,161.8,73.5,161.6z"/>
		<path class="st2" d="M79.2,169.8C79.2,169.8,79.2,169.8,79.2,169.8c0.1,0,0.2-0.1,0.3-0.1C79.4,169.8,79.3,169.8,79.2,169.8z"/>
		<path class="st2" d="M59.3,147.2c-0.1,0.1-0.3,0.1-0.4,0.2C59.1,147.4,59.2,147.3,59.3,147.2z"/>
		<path class="st2" d="M74.8,168.8C74.9,168.8,74.9,168.8,74.8,168.8L74.8,168.8C74.9,168.8,74.9,168.8,74.8,168.8z"/>
		<path class="st2" d="M152.7,60.2c-0.1,0-0.2,0-0.2,0C152.5,60.2,152.6,60.2,152.7,60.2z"/>
		<path class="st2" d="M151.5,60.5C151.5,60.5,151.5,60.5,151.5,60.5C151.5,60.5,151.5,60.5,151.5,60.5z"/>
		<path class="st2" d="M151.7,60.4c0,0-0.1,0-0.1,0C151.6,60.4,151.7,60.4,151.7,60.4z"/>
		<path class="st2" d="M177.5,111.9L177.5,111.9c-0.2,0.1-0.4,0.2-0.6,0.2C177.1,112.1,177.3,112,177.5,111.9z"/>
		<path class="st2" d="M151.4,60.5L151.4,60.5L151.4,60.5z"/>
		<path class="st2" d="M152,60.3c-0.1,0-0.1,0-0.2,0C151.9,60.4,151.9,60.3,152,60.3z"/>
		<path class="st2" d="M49.1,99.2c0,0-0.1,0-0.2,0C49,99.2,49.1,99.2,49.1,99.2z"/>
		<path class="st2" d="M176.1,111.6c0,0,0.1,0,0.1,0c-0.4-0.1-0.9-0.2-1.3-0.3c0,0.1,0,0.2,0,0.3L176.1,111.6z"/>
		<path class="st2" d="M59.1,150.7c0.2,0,0.4,0,0.6-0.1C59.5,150.7,59.3,150.7,59.1,150.7C59.1,150.7,59.1,150.7,59.1,150.7z"/>
		<path class="st2" d="M152.3,60.2c-0.1,0-0.2,0-0.3,0.1C152.1,60.3,152.2,60.3,152.3,60.2z"/>
		<path class="st2" d="M60.3,150.5c-0.2,0.1-0.3,0.1-0.5,0.1C60,150.6,60.2,150.6,60.3,150.5z"/>
		<path class="st2" d="M47.9,95.4c0.1,0,0.1,0,0.2,0C48.1,95.4,48,95.4,47.9,95.4z"/>
		<path class="st2" d="M46.9,95.8c0.1,0,0.1-0.1,0.2-0.1C47,95.7,47,95.7,46.9,95.8z"/>
		<path class="st2" d="M175.5,115.7c0.2,0,0.5,0,0.7,0c0,0,0,0,0.1,0c0,0,0,0-0.1,0C175.9,115.7,175.7,115.7,175.5,115.7z"/>
		<path class="st2" d="M49.4,141.5c0.1,0.1,0.1,0.2,0.2,0.2C49.5,141.7,49.5,141.6,49.4,141.5C49.4,141.5,49.4,141.5,49.4,141.5z"/>
		<path class="st2" d="M47.6,95.5c0.1,0,0.1,0,0.2-0.1C47.7,95.4,47.7,95.5,47.6,95.5z"/>
		<path class="st2" d="M48.3,95.4C48.3,95.4,48.3,95.4,48.3,95.4C48.3,95.4,48.3,95.4,48.3,95.4C48.3,95.4,48.3,95.4,48.3,95.4z"/>
		<path class="st2" d="M47.3,95.6c0.1,0,0.1-0.1,0.2-0.1C47.4,95.6,47.3,95.6,47.3,95.6z"/>
		<path class="st2" d="M46.5,96c0.1-0.1,0.2-0.1,0.2-0.2C46.7,95.9,46.6,96,46.5,96z"/>
		<path class="st2" d="M174.7,115.7c0.2,0,0.5,0,0.7,0C175.2,115.7,175,115.7,174.7,115.7L174.7,115.7z"/>
		<path class="st2" d="M152.2,57.5c0.2,0.1,0.5,0.2,0.7,0.2C152.7,57.7,152.5,57.6,152.2,57.5z"/>
		<path class="st2" d="M46.1,96.4c0.1-0.1,0.2-0.2,0.3-0.3C46.3,96.2,46.2,96.3,46.1,96.4z"/>
		<path class="st2" d="M110.2,176.9c-0.1-0.1-0.1-0.3-0.2-0.4C110.1,176.7,110.1,176.8,110.2,176.9z"/>
		<polygon class="st2" points="159.8,154.7 159.8,154.7 159.8,154.7 		"/>
		<path class="st2" d="M161.5,155.5c0.1,0.1,0.2,0.1,0.3,0.2l0,0l0,0C161.7,155.6,161.6,155.5,161.5,155.5z"/>
		<path class="st2" d="M58.8,147.5c-0.1,0-0.2,0.1-0.3,0.1C58.6,147.6,58.7,147.5,58.8,147.5z"/>
		<path class="st2" d="M141.2,51.4c0.4,0,0.7,0.1,1.1,0.1C142,51.5,141.6,51.4,141.2,51.4z"/>
		<path class="st2" d="M142.6,51.6c0.4,0.1,0.9,0.2,1.3,0.3C143.4,51.8,143,51.7,142.6,51.6z"/>
		<path class="st2" d="M58.5,150.7L58.5,150.7c0.2,0,0.3,0.1,0.5,0.1C58.8,150.7,58.7,150.7,58.5,150.7z"/>
		<path class="st2" d="M140.1,54.7c-0.6,0.1-1.2,0.1-1.8,0.2C138.9,54.8,139.5,54.8,140.1,54.7z"/>
		<path class="st2" d="M167.2,142.3c0.7,0,1.4,0.1,2.1,0.1l-1.5-1.3C167.6,141.5,167.4,141.9,167.2,142.3z"/>
		<path class="st2" d="M137.9,51.5c0.5-0.1,1-0.1,1.5-0.2C138.9,51.4,138.4,51.4,137.9,51.5z"/>
		<path class="st2" d="M140.2,51.3c-0.1,0-0.3,0-0.4,0c0.3,0,0.7,0,1,0C140.6,51.3,140.4,51.3,140.2,51.3z"/>
		<polygon class="st2" points="164.9,153 164.9,153 164.9,153 		"/>
		<path class="st2" d="M144.2,52c0.3,0.1,0.6,0.2,0.8,0.3C144.7,52.2,144.4,52.1,144.2,52z"/>
		<path class="st2" d="M121.2,174.3L121.2,174.3c0.1,0.2,0.2,0.5,0.4,0.9c0,0,0,0,0,0c0,0,0,0,0,0
			C121.5,174.8,121.3,174.5,121.2,174.3z"/>
		<path class="st2" d="M123.6,178.8C123.6,178.8,123.7,178.9,123.6,178.8L123.6,178.8C123.7,178.9,123.6,178.8,123.6,178.8z"/>
		<path class="st2" d="M59.5,146.3c-0.4-0.6-0.8-1.3-1.2-1.9c0,0.8-0.1,1.7-0.1,2.6c0.3-0.1,0.5-0.2,0.8-0.3L59.5,146.3z"/>
		<path class="st2" d="M115.9,178.4c0.1-0.1,0.1-0.1,0.2-0.2c0.1-0.3,0.2-0.5,0.3-0.8c-0.1,0.2-0.2,0.5-0.3,0.8
			C116,178.2,115.9,178.3,115.9,178.4z"/>
		<path class="st2" d="M143.4,54.4c-0.2,0-0.5,0.1-0.8,0.1C142.9,54.4,143.2,54.4,143.4,54.4z"/>
		<path class="st2" d="M58.2,147.7L58.2,147.7c0,0,0.1,0,0.1,0C58.2,147.6,58.2,147.7,58.2,147.7z"/>
		<path class="st2" d="M115.8,178.4L115.8,178.4C115.8,178.4,115.8,178.4,115.8,178.4L115.8,178.4z"/>
		<path class="st2" d="M144.4,54.3c-0.2,0-0.4,0-0.6,0C144,54.3,144.2,54.3,144.4,54.3z"/>
		<path class="st2" d="M116.6,46.6c0.1,0.1,0.2,0.2,0.3,0.3C116.8,46.8,116.7,46.7,116.6,46.6z"/>
		<path class="st2" d="M163.9,152.7c-0.2-0.1-0.4-0.1-0.6-0.2c-0.3-0.2-0.9-0.4-1.5-0.8c0.7,0.3,1.2,0.6,1.5,0.8
			C163.5,152.6,163.7,152.7,163.9,152.7z"/>
		<path class="st2" d="M167.3,143c-0.2,0-0.3,0-0.5,0l0,0C167,142.9,167.1,142.9,167.3,143z"/>
		<path class="st2" d="M116.2,46.3c0.1,0.1,0.2,0.1,0.3,0.2C116.3,46.4,116.3,46.3,116.2,46.3z"/>
		<path class="st2" d="M169.9,143.2c-0.2,0-0.3,0-0.5-0.1C169.6,143.1,169.8,143.1,169.9,143.2L169.9,143.2z"/>
		<path class="st2" d="M115.7,46c0.1,0,0.2,0.1,0.3,0.1C115.9,46.1,115.8,46.1,115.7,46z"/>
		<path class="st2" d="M115.3,45.9c0.1,0,0.2,0.1,0.3,0.1C115.5,45.9,115.4,45.9,115.3,45.9z"/>
		<path class="st2" d="M78.5,166.4c-0.1,0.1-0.3,0.1-0.4,0.2C78.2,166.6,78.4,166.5,78.5,166.4z"/>
		<path class="st2" d="M151.3,57.4c0.2,0,0.4,0,0.7,0.1C151.7,57.4,151.5,57.4,151.3,57.4z"/>
		<path class="st2" d="M150.8,57.3c-0.2,0-0.4,0-0.5,0c0.2,0,0.5,0,0.7,0C150.9,57.4,150.8,57.3,150.8,57.3z"/>
		<path class="st2" d="M80.2,169.4c-0.2,0.1-0.4,0.2-0.5,0.2C79.8,169.6,80,169.5,80.2,169.4z"/>
		<polygon class="st2" points="76.8,166.9 76.8,166.9 76.8,166.9 		"/>
		<path class="st2" d="M109.9,176.3c-0.1-0.2-0.1-0.4-0.1-0.6C109.8,175.9,109.9,176.1,109.9,176.3z"/>
		<path class="st2" d="M83.1,167.8L83.1,167.8c-0.2,0.1-0.5,0.3-0.7,0.4C82.6,168,82.8,167.9,83.1,167.8z"/>
		<path class="st2" d="M76.9,166.2L76.9,166.2c0-0.7,0-1.4,0.1-2.1l0,0C76.9,164.8,76.9,165.5,76.9,166.2z"/>
		<polygon class="st2" points="170.7,143.2 170.7,143.2 170.7,143.2 		"/>
		<path class="st2" d="M161.8,151.7c-0.2-0.1-0.5-0.2-0.7-0.4l0,0C161.4,151.5,161.6,151.6,161.8,151.7z"/>
		<path class="st2" d="M117,47.1c0.1,0.2,0.2,0.3,0.4,0.5C117.2,47.4,117.1,47.2,117,47.1z"/>
		<path class="st2" d="M77.9,166.7c-0.1,0-0.2,0.1-0.3,0.1C77.8,166.8,77.9,166.7,77.9,166.7z"/>
		<path class="st2" d="M81.6,168.6c-0.2,0.1-0.4,0.2-0.6,0.3C81.2,168.8,81.4,168.7,81.6,168.6z"/>
		<path class="st2" d="M74.7,168.6c-0.1-0.1-0.1-0.1-0.2-0.2C74.6,168.5,74.6,168.6,74.7,168.6z"/>
		<path class="st2" d="M162.7,155.9C162.6,155.9,162.6,155.9,162.7,155.9C162.6,155.9,162.6,155.9,162.7,155.9z"/>
		<path class="st2" d="M163.5,156C163.5,156,163.5,156,163.5,156C163.5,156,163.5,156,163.5,156C163.4,156,163.5,156,163.5,156z"/>
		<path class="st2" d="M164.3,155.9c0,0-0.1,0-0.1,0C164.2,155.9,164.3,155.9,164.3,155.9z"/>
		<path class="st2" d="M173.3,91.8c-0.2,0.1-0.5,0.3-0.7,0.4C172.8,92.1,173,92,173.3,91.8c0.9-0.5,1.5-1.4,1.7-2.5l0,0
			C174.8,90.4,174.1,91.3,173.3,91.8z"/>
		<path class="st2" d="M121.8,175.5c-0.1-0.1-0.1-0.2-0.2-0.3C121.7,175.3,121.7,175.4,121.8,175.5z"/>
		<path class="st2" d="M123.5,178.7c-0.1-0.1-0.2-0.1-0.2-0.2C123.3,178.6,123.4,178.7,123.5,178.7z"/>
		<path class="st2" d="M161.2,155.3c-0.1-0.1-0.2-0.1-0.2-0.1C161,155.2,161.1,155.3,161.2,155.3z"/>
		<path class="st2" d="M122.8,177.9c-0.1-0.2-0.2-0.3-0.2-0.5C122.7,177.6,122.8,177.8,122.8,177.9z"/>
		<path class="st2" d="M160.7,155.1c-0.1,0-0.1-0.1-0.2-0.1C160.6,155,160.6,155,160.7,155.1z"/>
		<path class="st2" d="M170.7,146.4C170.7,146.4,170.7,146.4,170.7,146.4C170.6,146.4,170.7,146.4,170.7,146.4z"/>
		<path class="st2" d="M178.9,108.6c0.2,0.2,0.4,0.4,0.6,0.7C179.3,109,179.1,108.8,178.9,108.6z"/>
		<path class="st2" d="M170,146.6C170,146.6,169.9,146.6,170,146.6C170,146.6,170,146.6,170,146.6z"/>
		<rect x="113.6" y="49.3" class="st2" width="0" height="0.2"/>
		<path class="st2" d="M114.4,49.4c0,0.1,0.1,0.1,0.1,0.2l0,0C114.5,49.5,114.4,49.4,114.4,49.4z"/>
		<path class="st2" d="M96.4,50.6C96.3,50.6,96.3,50.6,96.4,50.6c0,0.2,0,0.6,0,0.9c0.2,0,0.3-0.1,0.4-0.1L96.4,50.6z"/>
		<path class="st2" d="M178.9,108.6c-0.2-0.2-0.5-0.4-0.8-0.5c-0.2-0.1-0.4-0.2-0.7-0.2c0.2,0.1,0.5,0.2,0.7,0.2
			C178.4,108.2,178.7,108.4,178.9,108.6z"/>
		<path class="st2" d="M168.6,146.6c-0.4,0-0.9-0.1-1.2-0.1C167.8,146.6,168.2,146.6,168.6,146.6z"/>
		<path class="st2" d="M169.3,146.7C169.3,146.7,169.4,146.7,169.3,146.7c-0.1,0-0.1,0-0.2,0C169.2,146.7,169.3,146.7,169.3,146.7z"
			/>
		<path class="st2" d="M123.2,178.4c-0.1-0.1-0.1-0.2-0.2-0.3C123,178.2,123.1,178.3,123.2,178.4z"/>
		<path class="st2" d="M145.6,52.6c-0.1,0-0.1-0.1-0.2-0.1C145.5,52.5,145.5,52.6,145.6,52.6C145.6,52.6,145.6,52.6,145.6,52.6z"/>
		<path class="st2" d="M152.3,61.9c0.3-0.3,0.5-0.7,0.7-1c-0.8,0.1-1.3,0.3-1.4,0.3c-0.7,0.2-1.4,0.5-2.2,0.7c0.5,0.4,1,0.8,1.6,1.2
			L152.3,61.9z"/>
		<path class="st2" d="M98.3,47.7c0.1,0.1,0.3,0.2,0.4,0.3C98.5,47.9,98.4,47.8,98.3,47.7z"/>
		<path class="st2" d="M169.7,137L169.7,137c0.4,0.4,0.9,0.9,1.4,1.4C170.6,137.9,170.1,137.4,169.7,137z"/>
		<path class="st2" d="M98.7,48.1c0.1,0.1,0.2,0.2,0.3,0.3C98.9,48.3,98.8,48.2,98.7,48.1z"/>
		<path class="st2" d="M137.7,55c0.2,0,0.4-0.1,0.6-0.1C138.1,55,137.9,55,137.7,55L137.7,55z"/>
		<path class="st2" d="M97.3,47.4C97.3,47.4,97.3,47.4,97.3,47.4c0.1,0,0.3,0.1,0.4,0.1C97.5,47.4,97.4,47.4,97.3,47.4z"/>
		<path class="st2" d="M145.1,54.9c-0.6,0-1.1,0.1-1.8,0.2c-0.5,0.1-1,0.1-1.6,0.2c-0.8,0.1-1.8,0.2-2.8,0.3
			c1.9,0.9,3.7,1.9,5.5,2.9c0.1,0,0.3-0.1,0.4-0.1l0.5-1.3C145.4,56.3,145.4,55.5,145.1,54.9z"/>
		<path class="st2" d="M145.8,54.9L145.8,54.9c0.3,0.7,0.3,1.5,0.1,2.3l-0.3,0.8l0,0l0.3-0.8C146.1,56.5,146.1,55.6,145.8,54.9z"/>
		<path class="st2" d="M96.5,49.7c0.2,0.2,0.3,0.4,0.4,0.6l0.5,1l0,0l-0.5-1C96.8,50.1,96.7,49.9,96.5,49.7z"/>
		<path class="st2" d="M99.8,49.6c-0.1-0.2-0.3-0.5-0.4-0.7c-0.1-0.1-0.2-0.3-0.3-0.4c0.1,0.1,0.2,0.3,0.3,0.4
			C99.5,49.1,99.6,49.4,99.8,49.6z"/>
		<path class="st2" d="M115.1,45.8c-0.1,0-0.2,0-0.2,0l0,0C115,45.8,115,45.8,115.1,45.8z"/>
		<path class="st2" d="M160,154.7C160,154.7,160,154.7,160,154.7C160,154.7,160,154.7,160,154.7z"/>
		<path class="st2" d="M159.9,154.7C159.8,154.7,159.8,154.7,159.9,154.7C159.8,154.7,159.8,154.7,159.9,154.7z"/>
		<path class="st2" d="M171.1,88.3c0.3-0.2,0.5-0.4,0.7-0.6c-0.3,0-0.6-0.1-0.8-0.1c-0.4,0-0.8-0.1-1.2-0.1c0.2,0.4,0.4,0.8,0.5,1.2
			L171.1,88.3z"/>
		<path class="st2" d="M160.3,154.9C160.3,154.9,160.2,154.8,160.3,154.9C160.2,154.9,160.3,154.9,160.3,154.9z"/>
		<path class="st2" d="M155.2,64.8c-0.3,0.3-0.7,0.6-1,1l0,0C154.5,65.4,154.9,65.1,155.2,64.8c0.8-0.8,1.3-1.9,1.1-3.1
			C156.4,62.8,156,64,155.2,64.8z"/>
		<path class="st2" d="M173.9,85.3L173.9,85.3c-0.4-0.6-0.8-1-1.4-1.4C173.1,84.3,173.6,84.8,173.9,85.3z"/>
		<path class="st2" d="M100.1,50.2c0.1,0.2,0.2,0.3,0.2,0.4C100.2,50.5,100.2,50.3,100.1,50.2z"/>
		<path class="st2" d="M97.8,47.5c0.1,0,0.2,0.1,0.4,0.2C98,47.6,97.9,47.6,97.8,47.5z"/>
		<path class="st2" d="M50,142.1c-0.1-0.1-0.2-0.2-0.4-0.3C49.7,141.9,49.9,142,50,142.1z"/>
		<path class="st2" d="M51.3,142.8c-0.1,0-0.3-0.1-0.4-0.1C51.1,142.7,51.2,142.8,51.3,142.8z"/>
		<path class="st2" d="M50.8,142.6c-0.1-0.1-0.2-0.1-0.3-0.1C50.6,142.5,50.7,142.6,50.8,142.6z"/>
		<path class="st2" d="M46,102.2c0.3,0.3,0.7,0.6,1.1,0.8c0.8,0.4,1.9,1,2.8,1.5l0,0c-1-0.5-2.1-1.1-2.8-1.5
			C46.6,102.8,46.3,102.5,46,102.2z"/>
		<path class="st2" d="M50.4,142.4c-0.1-0.1-0.2-0.1-0.3-0.2C50.2,142.3,50.3,142.3,50.4,142.4z"/>
		<path class="st2" d="M52,142.9c0,0,0.1,0,0.1,0c-0.1,0-0.2,0-0.3,0C51.9,142.9,52,142.9,52,142.9z"/>
		<path class="st2" d="M51.7,142.9c-0.1,0-0.2,0-0.3-0.1C51.5,142.9,51.6,142.9,51.7,142.9z"/>
		<path class="st2" d="M52.5,142.8c-0.1,0-0.2,0-0.2,0.1C52.4,142.9,52.5,142.9,52.5,142.8z"/>
		<path class="st2" d="M50.8,134.1c-0.6,0.6-1.1,1.3-1.5,1.7c-0.2,0.3-0.5,0.6-0.6,1l0,0c0.2-0.4,0.4-0.7,0.6-1
			C49.7,135.4,50.2,134.7,50.8,134.1z"/>
		<path class="st2" d="M52.9,142.7c-0.1,0-0.2,0.1-0.2,0.1C52.8,142.8,52.8,142.7,52.9,142.7z"/>
		<path class="st2" d="M50,99.5c0.2,0.1,0.4,0.2,0.7,0.3l0,0C50.4,99.7,50.2,99.6,50,99.5z"/>
		<path class="st2" d="M172.9,140.4c0.3,0.4,0.4,0.8,0.6,1.2C173.4,141.2,173.2,140.8,172.9,140.4z"/>
		<path class="st2" d="M48.5,99.1c0,0,0.1,0,0.1,0C48.6,99.1,48.5,99.1,48.5,99.1L48.5,99.1z"/>
		<path class="st2" d="M172,83.7c0.1,0,0.2,0.1,0.3,0.1C172.2,83.8,172.1,83.7,172,83.7z"/>
		<polygon class="st2" points="47.5,99 47.5,99 47.5,99 		"/>
		<path class="st2" d="M168.1,140.5L168.1,140.5l2,1.8c0.1,0.1,0.1,0.2,0.2,0.2l0,0c-0.1-0.1-0.1-0.2-0.2-0.2L168.1,140.5z"/>
		<path class="st2" d="M173.6,142L173.6,142c0-0.1,0-0.2-0.1-0.4C173.6,141.8,173.6,141.9,173.6,142z"/>
		<path class="st2" d="M110.6,48.8c0-0.3,0-0.7,0.1-1C110.6,48.1,110.6,48.5,110.6,48.8z"/>
		<path class="st2" d="M167.8,143c0.5,0,1,0.1,1.5,0.1C168.9,143.1,168.4,143,167.8,143z"/>
		<polygon class="st2" points="50.4,100.9 50.4,100.9 50,100.7 		"/>
		<path class="st2" d="M51.1,133.7c0.2-0.3,0.5-0.5,0.7-0.8C51.6,133.2,51.3,133.4,51.1,133.7z"/>
		<path class="st2" d="M73.8,167.6c0-0.1-0.1-0.1-0.1-0.2C73.8,167.4,73.8,167.5,73.8,167.6z"/>
		<path class="st2" d="M73.6,167.2c0-0.1-0.1-0.2-0.1-0.3C73.6,167,73.6,167.1,73.6,167.2z"/>
		<path class="st2" d="M74.4,168.3c-0.1-0.1-0.1-0.1-0.2-0.2C74.3,168.2,74.3,168.3,74.4,168.3z"/>
		<path class="st2" d="M74.1,168c-0.1-0.1-0.1-0.1-0.1-0.2C74,167.9,74,167.9,74.1,168z"/>
		<path class="st2" d="M116.4,177.4c0.3-0.7,0.5-1.1,0.5-1.1c0.1-0.2,0.2-0.5,0.3-0.6c-0.1,0.2-0.2,0.4-0.3,0.6
			C116.9,176.2,116.7,176.7,116.4,177.4z"/>
		<path class="st2" d="M73.5,166.7c0-0.1,0-0.2-0.1-0.3C73.4,166.5,73.5,166.6,73.5,166.7z"/>
		<path class="st2" d="M110.6,48.8c0,0.2,0,0.4,0.1,0.5c0,0.1,0,0.2,0.1,0.2l0,0c0-0.1,0-0.2-0.1-0.2
			C110.7,49.1,110.6,49,110.6,48.8z"/>
		<path class="st2" d="M73.4,165.7L73.4,165.7c0-0.7,0-1.3,0-1.8C73.4,164.4,73.4,165,73.4,165.7z"/>
		<polygon class="st2" points="54,135.8 54,135.8 53.4,136.5 		"/>
		<path class="st2" d="M54,145.1c0-0.5,0.1-1,0.1-1.4C54.1,144.1,54.1,144.6,54,145.1z"/>
		<path class="st2" d="M46.1,96.4c-0.1,0.1-0.1,0.1-0.2,0.2l0,0C46,96.6,46,96.5,46.1,96.4z"/>
		<path class="st2" d="M73.4,166.2c0-0.2,0-0.3,0-0.5C73.4,165.9,73.4,166.1,73.4,166.2z"/>
		<path class="st2" d="M127.9,173c0.2,0.6,0.4,1.2,0.5,1.6c0.1,0.4,0.2,0.9,0.1,1.3c0,0,0,0.1,0,0.1c0,0.1,0,0.3-0.1,0.4
			c0.1,0,0.2,0.1,0.3,0.2c0.1,0.2,0.2,0.4,0.2,0.6c0,0.1-0.1,0.2-0.1,0.2c0.4-0.9,0.5-2,0.2-3.1c-0.1-0.5-0.3-1.1-0.5-1.7
			C128.3,172.8,128.1,172.9,127.9,173C127.9,172.9,127.9,172.9,127.9,173z"/>
		<path class="st2" d="M110.7,49.3c0-0.2-0.1-0.4-0.1-0.5c0-0.3,0-0.7,0.1-1s0.2-0.6,0.4-0.9c-0.1-0.1-0.1-0.1-0.2-0.2
			c-0.1-0.2-0.1-0.5,0.1-0.7c-0.2,0.2-0.4,0.4-0.6,0.6c-0.5,0.8-0.6,1.7-0.4,2.8c0,0,0,0.1,0,0.1c0.2,0,0.5,0,0.7,0
			C110.7,49.5,110.7,49.4,110.7,49.3z"/>
		<path class="st2" d="M97.3,47.2c0,0,0,0.1,0,0.1c0.1,0,0.3,0.1,0.4,0.1c0,0,0.1,0,0.1,0c0.1,0,0.2,0.1,0.4,0.2c0,0,0.1,0,0.1,0.1
			c0.1,0.1,0.3,0.2,0.4,0.3c0,0,0,0,0.1,0c0.1,0.1,0.2,0.2,0.3,0.3c0,0,0.1,0.1,0.1,0.1c0.1,0.1,0.2,0.3,0.3,0.4
			c0.1,0.2,0.3,0.5,0.4,0.7c0.1,0.2,0.2,0.4,0.3,0.5c0.1,0.2,0.2,0.3,0.2,0.4c0,0,0,0,0,0c0.2,0,0.5-0.1,0.7-0.1
			c-0.3-0.6-0.7-1.3-1.1-1.9c-0.7-1.2-1.9-1.9-3.1-1.9c0,0-0.1,0-0.1,0C97,46.7,97.2,46.9,97.3,47.2z"/>
		<path class="st2" d="M47,103c-0.4-0.2-0.8-0.5-1.1-0.8c-0.2-0.3-0.5-0.6-0.6-1c-0.1,0-0.2,0.1-0.2,0.1c0,0-0.1,0-0.1,0
			c-0.2,0-0.4-0.2-0.5-0.3c0,0,0,0.1,0,0.1c0.3,1.1,1.1,2,2.2,2.6c0.8,0.4,2.1,1.1,3.1,1.6c0-0.2,0.1-0.5,0.1-0.7
			C48.9,104,47.8,103.4,47,103z"/>
		<path class="st2" d="M178.9,114.8c-0.1,0-0.2-0.1-0.2-0.2c-0.7,0.6-1.6,1-2.4,1c0,0,0,0-0.1,0c-0.2,0-0.4,0-0.7,0
			c-0.2,0-0.5,0-0.7,0c0,0.2,0,0.4-0.1,0.7c0.5,0,1,0,1.5,0c1.2,0,2.3-0.5,3.1-1.3c0.1-0.1,0.1-0.2,0.2-0.3
			c-0.1,0.1-0.2,0.1-0.3,0.1C179.1,114.9,179,114.9,178.9,114.8z"/>
		<path class="st2" d="M53.4,136.5l-1.4,1.5c0,0.1-0.1,0.1-0.1,0.1c0.4-0.3,0.9-0.8,1.4-1.3c0.3-0.3,0.6-0.6,0.9-0.8
			c0-0.1,0-0.1-0.1-0.2L53.4,136.5z"/>
		<path class="st2" d="M148.9,54.9c-0.1,0.1-0.1,0.2-0.2,0.2c0.3,0.5,0.5,1.1,0.6,1.7c0.2,0,0.4-0.1,0.7-0.1c0-0.6-0.2-1.2-0.5-1.7
			c-0.1-0.3-0.3-0.5-0.5-0.7C149.1,54.5,149.1,54.7,148.9,54.9z"/>
		<path class="st2" d="M145.8,54.9c-0.1,0-0.1,0-0.2,0c-0.2,0-0.4,0-0.6,0c0.3,0.6,0.4,1.4,0.2,2.1l-0.5,1.3
			c0.3-0.1,0.6-0.2,0.8-0.3l0.3-0.8C146.1,56.5,146.1,55.6,145.8,54.9z"/>
		<path class="st2" d="M96.8,51.4c0.2-0.1,0.4-0.1,0.7-0.2l-0.5-1c-0.1-0.2-0.3-0.4-0.4-0.6c0,0-0.1-0.1-0.1-0.1c0,0.2,0,0.6,0,1
			c0,0,0,0,0,0L96.8,51.4z"/>
		<path class="st2" d="M113.7,49.6c0-0.1-0.1-0.2-0.1-0.2L113.7,49.6C113.7,49.6,113.7,49.6,113.7,49.6z"/>
		<path class="st2" d="M175.2,89.3c-0.1,0-0.1,0-0.2,0c0,0,0,0-0.1,0c-0.2,1.1-0.8,2-1.7,2.5c-0.2,0.1-0.5,0.3-0.7,0.4
			c-0.3,0.2-0.5,0.3-0.8,0.5c0.1,0.2,0.1,0.4,0.2,0.7c0.6-0.3,1.1-0.7,1.7-1c1-0.6,1.7-1.6,2-2.7c0.1-0.3,0.1-0.6,0.1-0.9
			C175.7,89,175.5,89.2,175.2,89.3z"/>
		<path class="st2" d="M111.4,45.8c0.2-0.1,0.5-0.2,0.9-0.4C111.9,45.5,111.6,45.6,111.4,45.8z"/>
		<path class="st2" d="M171.1,88.3l-0.8,0.4c0.1,0.2,0.2,0.4,0.2,0.6l0.9-0.5c0.4-0.3,0.8-0.6,1.1-1c-0.2-0.1-0.5-0.1-0.8-0.2
			C171.6,88,171.3,88.2,171.1,88.3z"/>
		<path class="st2" d="M151,63c0.2,0.1,0.4,0.3,0.6,0.4l1.2-1.1c0.4-0.4,0.8-1,0.9-1.5c0,0-0.1,0-0.1,0c-0.2,0-0.4,0-0.6,0
			c-0.1,0.4-0.4,0.7-0.7,1L151,63z"/>
		<path class="st2" d="M164.2,151.8l-1.8-1.9c-0.1,0.2-0.3,0.4-0.4,0.5l1.2,1.3c0.2,0.1,0.4,0.2,0.6,0.3c0.3,0.1,0.6,0.2,0.9,0.3
			c-0.1-0.1-0.1-0.2-0.2-0.3L164.2,151.8z"/>
		<path class="st2" d="M156.4,61.2c-0.1,0.1-0.2,0.1-0.2,0.2c0,0.1,0.1,0.2,0.1,0.3c0.2,1.2-0.3,2.3-1.1,3.1c-0.3,0.3-0.7,0.6-1,1
			c0.2,0.2,0.3,0.3,0.5,0.5c0.3-0.3,0.7-0.6,1-0.9c0.9-0.8,1.3-1.9,1.3-3.1c0-0.9-0.3-1.7-0.8-2.4c0.1,0.2,0.3,0.4,0.4,0.7
			C156.7,60.7,156.6,61,156.4,61.2z"/>
		<path class="st2" d="M173.5,143.6C173.5,143.6,173.5,143.6,173.5,143.6C173.5,143.6,173.5,143.6,173.5,143.6z"/>
		<path class="st2" d="M77.9,166.7c0.1,0,0.1,0,0.2-0.1c0.1-0.1,0.3-0.1,0.4-0.2c0,0,0,0,0,0l1-0.6c-0.2-0.1-0.4-0.3-0.6-0.4
			l-0.7,0.5c-0.2,0.1-0.4,0.2-0.6,0.2c0,0.2,0,0.5,0,0.7c0.1,0,0.1,0,0.1,0C77.8,166.8,77.9,166.7,77.9,166.7z"/>
		<path class="st2" d="M168.1,140.5c-0.1,0.2-0.2,0.4-0.3,0.6l1.5,1.3c0.1,0,0.1,0,0.2,0c0.3,0,0.6,0.1,0.9,0.1
			c-0.1-0.1-0.1-0.2-0.2-0.2L168.1,140.5z"/>
		<path class="st2" d="M171.4,146.1C171.4,146.1,171.3,146.1,171.4,146.1C171.3,146.1,171.4,146.1,171.4,146.1z"/>
		<path class="st2" d="M82.3,168.2c-0.3,0.1-0.5,0.3-0.8,0.4c-0.2,0.1-0.4,0.2-0.6,0.3c-0.3,0.2-0.6,0.3-0.8,0.5l0,0
			c-0.2,0.1-0.4,0.2-0.5,0.2c-0.1,0-0.1,0-0.2,0.1c-0.1,0-0.2,0.1-0.3,0.1c0,0.1,0,0.2,0,0.3c-0.1,0.2-0.3,0.4-0.5,0.4
			c0.7-0.1,1.3-0.2,1.9-0.6c0.9-0.5,2.2-1.3,3.2-1.9c-0.2-0.1-0.5-0.2-0.7-0.4C82.8,167.9,82.6,168,82.3,168.2z"/>
		<path class="st2" d="M61,150.2c-0.2,0.1-0.4,0.2-0.5,0.3c0,0-0.1,0-0.2,0.1c-0.2,0.1-0.3,0.1-0.5,0.1c0,0-0.1,0-0.2,0
			c-0.2,0-0.4,0.1-0.6,0.1c0,0,0,0,0,0c0,0,0,0-0.1,0c-0.2,0-0.3,0-0.5-0.1c0,0.1-0.1,0.2-0.2,0.3c-0.1,0.1-0.3,0.2-0.5,0.2
			c-0.1,0-0.1,0-0.2,0c-0.1-0.1-0.3-0.1-0.4-0.2c0.6,0.3,1.2,0.5,1.9,0.5c0.8,0,1.5-0.2,2.2-0.6c0.3-0.2,0.6-0.3,0.9-0.5
			c-0.1-0.2-0.3-0.4-0.4-0.5C61.6,149.9,61.3,150.1,61,150.2z"/>
		<path class="st2" d="M172.6,145.1C172.6,145.1,172.6,145.1,172.6,145.1C172.6,145.1,172.6,145.1,172.6,145.1z"/>
		<path class="st2" d="M172.1,145.6C172,145.7,172,145.7,172.1,145.6C172,145.7,172,145.6,172.1,145.6z"/>
		<path class="st2" d="M173.1,144.4C173.1,144.4,173.1,144.4,173.1,144.4C173.1,144.4,173.1,144.4,173.1,144.4z"/>
		<path class="st2" d="M164.1,152.8c0.1,0,0.3,0.1,0.4,0.1C164.3,152.9,164.2,152.8,164.1,152.8z"/>
		<path class="st2" d="M110,177.2c0.1-0.1,0.1-0.1,0.2-0.2c0,0,0-0.1,0-0.1c-0.1-0.1-0.1-0.3-0.2-0.4c0-0.1-0.1-0.1-0.1-0.2
			c-0.1-0.2-0.1-0.4-0.1-0.6v0c0-0.2,0-0.5-0.1-0.8c-0.2,0-0.4,0-0.7,0c0,0.3,0.1,0.6,0.1,0.9c0.1,0.8,0.3,1.6,0.8,2.2
			c0-0.1-0.1-0.1-0.1-0.2C109.8,177.6,109.9,177.4,110,177.2z"/>
		<path class="st2" d="M165,155.7c0,0-0.1,0-0.1,0C164.9,155.8,165,155.8,165,155.7z"/>
		<path class="st2" d="M174.8,111.6c0,0.2,0,0.4,0,0.7l1.2,0c0.3,0,0.5-0.1,0.8-0.1c0.2-0.1,0.4-0.1,0.6-0.2
			c-0.1-0.1-0.3-0.1-0.4-0.1c-0.3-0.1-0.6-0.2-0.9-0.2c0,0-0.1,0-0.1,0L174.8,111.6z"/>
		<path class="st2" d="M165.8,155.4c0,0-0.1,0-0.1,0.1C165.7,155.5,165.7,155.4,165.8,155.4z"/>
		<path class="st2" d="M171.1,138.4c0.3,0.3,0.6,0.6,0.9,0.9c0.2,0.2,0.4,0.4,0.5,0.5c0.2,0.2,0.3,0.3,0.4,0.5
			c0.3,0.4,0.4,0.8,0.6,1.2c0,0.1,0,0.2,0.1,0.4c0,0,0,0,0.1,0c0.1,0,0.3,0,0.4,0.1c0.1,0.1,0.2,0.3,0.2,0.5c0,0,0-0.1,0-0.1
			c0-1.1-0.5-2.3-1.3-3.1c-0.8-0.8-2.2-2.2-3-3c-0.1,0.2-0.2,0.4-0.3,0.7C170.1,137.4,170.6,137.9,171.1,138.4z"/>
		<path class="st2" d="M167.4,154C167.3,154.1,167.3,154.1,167.4,154C167.3,154.1,167.3,154.1,167.4,154z"/>
		<path class="st2" d="M48.4,136.7C48.4,136.7,48.5,136.7,48.4,136.7c0.2,0,0.2,0,0.3,0.1c0.2-0.4,0.4-0.7,0.6-1
			c0.4-0.4,0.9-1,1.5-1.7c0.1-0.1,0.2-0.3,0.3-0.4c0.2-0.3,0.5-0.5,0.7-0.8c0.3-0.3,0.6-0.7,0.8-0.9c-0.1-0.2-0.2-0.5-0.2-0.8
			c-0.9,1-2.7,3.1-3.5,4.1c-0.4,0.5-0.7,1.1-0.9,1.7C48,136.9,48.2,136.7,48.4,136.7z"/>
		<path class="st2" d="M166.4,155.1C166.3,155.1,166.3,155.1,166.4,155.1C166.3,155.1,166.3,155.1,166.4,155.1z"/>
		<path class="st2" d="M167.7,153.3c0,0.1,0,0.1-0.1,0.1C167.6,153.4,167.6,153.4,167.7,153.3z"/>
		<path class="st2" d="M166.9,154.6c0,0-0.1,0.1-0.1,0.1C166.9,154.6,166.9,154.6,166.9,154.6z"/>
		<path class="st2" d="M113.1,45.9c0.1,0,0.1,0,0.2,0C113.2,45.8,113.2,45.8,113.1,45.9z"/>
		<path class="st2" d="M45.6,97.1c0-0.1,0.1-0.2,0.2-0.2C45.7,96.9,45.7,97,45.6,97.1z"/>
		<path class="st2" d="M45.4,97.5c0-0.1,0.1-0.2,0.1-0.3C45.5,97.3,45.4,97.4,45.4,97.5z"/>
		<path class="st2" d="M173.6,142.7C173.6,142.7,173.6,142.7,173.6,142.7L173.6,142.7C173.6,142.7,173.6,142.7,173.6,142.7z"/>
		<path class="st2" d="M45.2,98c0-0.1,0.1-0.2,0.1-0.3C45.3,97.8,45.2,97.9,45.2,98z"/>
		<path class="st2" d="M45,99.1c0-0.1,0-0.2,0-0.3C45,98.8,45,98.9,45,99.1z"/>
		<path class="st2" d="M45.1,98.5c0-0.1,0-0.2,0.1-0.3C45.1,98.3,45.1,98.4,45.1,98.5z"/>
		<path class="st2" d="M170.7,143.2c-0.1,0-0.3,0-0.4,0C170.4,143.2,170.6,143.2,170.7,143.2L170.7,143.2z"/>
		<path class="st2" d="M113.7,48.2c-0.1-0.1-0.1-0.2-0.2-0.3C113.6,48,113.7,48.1,113.7,48.2z"/>
		<polygon class="st2" points="111.6,46.5 111.6,46.5 111.6,46.4 		"/>
		<path class="st2" d="M170.1,143.2c-0.1,0-0.1,0-0.2,0l0,0C170,143.2,170,143.2,170.1,143.2z"/>
		<path class="st2" d="M48.5,139.5c0-0.1,0-0.3-0.1-0.5C48.4,139.2,48.5,139.4,48.5,139.5z"/>
		<path class="st2" d="M111.6,46.4C111.6,46.4,111.7,46.4,111.6,46.4C111.7,46.4,111.6,46.4,111.6,46.4z"/>
		<path class="st2" d="M48.4,138.8c0-0.2,0-0.3,0-0.5C48.4,138.5,48.4,138.7,48.4,138.8z"/>
		<path class="st2" d="M123.7,178.9c0.1,0.1,0.2,0.1,0.3,0.2C123.9,179,123.8,178.9,123.7,178.9
			C123.7,178.9,123.7,178.9,123.7,178.9z"/>
		<path class="st2" d="M48.9,140.8c-0.1-0.1-0.1-0.3-0.2-0.4C48.8,140.5,48.8,140.6,48.9,140.8z"/>
		<path class="st2" d="M164.9,153c-0.1,0-0.2,0-0.2,0C164.8,153,164.9,153,164.9,153L164.9,153z"/>
		<path class="st2" d="M51.7,139c0,0,0.1,0,0.1,0C51.8,139,51.7,139,51.7,139z"/>
		<path class="st2" d="M48.4,138.1c0-0.2,0-0.5,0.1-0.7C48.4,137.6,48.4,137.9,48.4,138.1z"/>
		<path class="st2" d="M45,99.7c0-0.1,0-0.3,0-0.4C45,99.4,45,99.6,45,99.7z"/>
		<path class="st2" d="M48.2,99c-0.1,0-0.1,0-0.2,0C48.1,99,48.1,99,48.2,99z"/>
		<path class="st2" d="M48.5,137.4L48.5,137.4L48.5,137.4z"/>
		<path class="st2" d="M48.7,140.2c-0.1-0.2-0.1-0.4-0.2-0.6C48.5,139.9,48.6,140.1,48.7,140.2z"/>
		<path class="st2" d="M57.5,147.2c0,0,0,0.2,0,0.5C57.5,147.4,57.5,147.2,57.5,147.2c0,0,0-0.1,0-0.1l0,0
			C57.5,147.1,57.5,147.1,57.5,147.2z"/>
		<path class="st2" d="M49.3,141.4c0,0,0.1,0.1,0.1,0.1c0,0,0,0,0,0C49.4,141.5,49.3,141.4,49.3,141.4z"/>
		<path class="st2" d="M55.2,148.5L55.2,148.5c0.7,0.8,1.5,1.4,2.2,1.8l0,0C56.7,149.9,55.8,149.3,55.2,148.5z"/>
		<path class="st2" d="M146.1,52.9c-0.2-0.1-0.4-0.2-0.5-0.3c0,0,0,0,0,0C145.8,52.7,145.9,52.8,146.1,52.9z"/>
		<path class="st2" d="M175,88.6C175,88.6,175,88.6,175,88.6L175,88.6C175,88.6,175,88.6,175,88.6L175,88.6z"/>
		<path class="st2" d="M175,88c-0.1-0.8-0.5-1.8-1-2.7l0,0C174.5,86.2,174.8,87.2,175,88z"/>
		<path class="st2" d="M114.9,45.8c-0.1,0-0.1,0-0.2,0C114.8,45.8,114.8,45.8,114.9,45.8L114.9,45.8z"/>
		<path class="st2" d="M48.5,99.1C48.5,99.1,48.5,99.1,48.5,99.1L48.5,99.1C48.5,99.1,48.5,99.1,48.5,99.1z"/>
		<path class="st2" d="M47.5,99C47.5,99,47.5,99,47.5,99c0.1,0,0.2,0,0.2,0C47.7,99,47.6,99,47.5,99z"/>
		<path class="st2" d="M179.1,114.2L179.1,114.2c0.3-0.4,0.5-0.9,0.7-1.5C179.6,113.3,179.4,113.8,179.1,114.2z"/>
		<path class="st2" d="M114.2,45.7C114.2,45.7,114.2,45.7,114.2,45.7c0.1,0,0.3,0,0.4,0C114.5,45.7,114.4,45.7,114.2,45.7z"/>
		<path class="st2" d="M146.5,53.1c0.2,0.2,0.5,0.3,0.7,0.5C146.9,53.4,146.7,53.3,146.5,53.1z"/>
		<path class="st2" d="M148.4,54.6c-0.3-0.3-0.6-0.5-0.9-0.8C147.8,54,148.1,54.3,148.4,54.6L148.4,54.6z"/>
		<path class="st2" d="M111.8,46.3C111.8,46.3,111.8,46.3,111.8,46.3C111.8,46.3,111.8,46.3,111.8,46.3z"/>
		<path class="st2" d="M113.7,45.8C113.7,45.8,113.7,45.7,113.7,45.8C113.7,45.8,113.7,45.8,113.7,45.8z"/>
		<path class="st2" d="M128.1,177.5c0,0,0,0.1-0.1,0.1C128.1,177.5,128.1,177.5,128.1,177.5z"/>
		<path class="st2" d="M112.7,46c0.1,0,0.1,0,0.2,0C112.8,46,112.7,46,112.7,46z"/>
		<path class="st2" d="M153.5,60.1c-0.1,0-0.2,0-0.4,0C153.3,60.1,153.4,60.1,153.5,60.1z"/>
		<path class="st2" d="M154.9,59.1c0.1,0.2,0.3,0.3,0.4,0.5C155.2,59.5,155,59.3,154.9,59.1z"/>
		<path class="st2" d="M145.4,54.2c-0.2,0-0.4,0-0.6,0C145,54.2,145.2,54.2,145.4,54.2z"/>
		<path class="st2" d="M154.1,58.5c0.2,0.1,0.4,0.3,0.5,0.4C154.5,58.7,154.3,58.6,154.1,58.5z"/>
		<path class="st2" d="M111.4,178.6c-0.1,0-0.1-0.1-0.2-0.1C111.3,178.5,111.4,178.6,111.4,178.6z"/>
		<path class="st2" d="M112.2,178.9c-0.1,0-0.1,0-0.2-0.1C112.1,178.9,112.2,178.9,112.2,178.9z"/>
		<path class="st2" d="M45.9,96.6C45.9,96.7,45.9,96.7,45.9,96.6C45.9,96.7,45.9,96.7,45.9,96.6C45.9,96.6,45.9,96.6,45.9,96.6z"/>
		<path class="st2" d="M112.7,179c-0.1,0-0.1,0-0.2,0C112.6,179,112.6,179,112.7,179z"/>
		<path class="st2" d="M111.8,178.8c-0.1,0-0.1-0.1-0.2-0.1C111.7,178.7,111.8,178.8,111.8,178.8z"/>
		<path class="st2" d="M113.2,179.1c-0.1,0-0.1,0-0.2,0C113,179.1,113.1,179.1,113.2,179.1z"/>
		<path class="st2" d="M113.6,179.1C113.6,179.1,113.6,179.1,113.6,179.1c0,0-0.1,0-0.1,0C113.5,179.1,113.5,179.1,113.6,179.1z"/>
		<path class="st2" d="M110.8,178.1c0,0-0.1-0.1-0.1-0.1C110.7,178,110.8,178,110.8,178.1z"/>
		<path class="st2" d="M111.1,178.4c0,0-0.1-0.1-0.1-0.1C111,178.3,111,178.3,111.1,178.4z"/>
		<path class="st2" d="M114.1,179.1c-0.1,0-0.2,0-0.2,0C113.9,179.1,114,179.1,114.1,179.1z"/>
		<path class="st2" d="M78,169.9c-0.1,0-0.2,0-0.2,0C77.8,169.9,77.9,169.9,78,169.9z"/>
		<path class="st2" d="M74.9,168.9c0,0,0.1,0.1,0.1,0.1C75,168.9,75,168.9,74.9,168.9C74.9,168.8,74.9,168.9,74.9,168.9z"/>
		<path class="st2" d="M76.8,166.9C76.8,166.9,76.8,166.9,76.8,166.9L76.8,166.9C76.8,166.9,76.8,166.9,76.8,166.9
			c0-0.2,0-0.4,0-0.6l0,0C76.9,166.4,76.8,166.6,76.8,166.9z"/>
		<path class="st2" d="M78.3,169.9L78.3,169.9c-0.1,0-0.1,0-0.2,0C78.2,169.9,78.2,169.9,78.3,169.9c0,0,0.1,0,0.2,0l0,0
			C78.5,169.9,78.4,169.9,78.3,169.9C78.3,169.9,78.3,169.9,78.3,169.9z"/>
		<path class="st2" d="M114.5,179c-0.1,0-0.2,0-0.2,0C114.3,179,114.4,179,114.5,179z"/>
		<path class="st2" d="M126.2,179.1c-0.1,0-0.1,0-0.2,0.1C126.1,179.1,126.1,179.1,126.2,179.1z"/>
		<path class="st2" d="M126.7,178.9C126.7,178.9,126.7,178.9,126.7,178.9C126.7,178.9,126.7,178.9,126.7,178.9z"/>
		<path class="st2" d="M125.7,179.2c-0.1,0-0.1,0-0.2,0C125.6,179.2,125.6,179.2,125.7,179.2z"/>
		<path class="st2" d="M125.1,179.3c0,0,0.1,0,0.1,0c-0.1,0-0.2,0-0.2,0C125,179.3,125,179.3,125.1,179.3z"/>
		<path class="st2" d="M77.5,169.9c-0.1,0-0.2,0-0.2,0C77.4,169.9,77.5,169.9,77.5,169.9z"/>
		<path class="st2" d="M127.6,178.2c0,0-0.1,0.1-0.1,0.1C127.5,178.3,127.5,178.2,127.6,178.2z"/>
		<path class="st2" d="M127.9,177.8c0,0-0.1,0.1-0.1,0.1C127.8,177.9,127.8,177.9,127.9,177.8z"/>
		<path class="st2" d="M114.9,178.9c-0.1,0-0.1,0-0.2,0.1C114.7,179,114.8,178.9,114.9,178.9z"/>
		<path class="st2" d="M115.2,178.8c-0.1,0-0.1,0.1-0.2,0.1C115.1,178.9,115.2,178.8,115.2,178.8z"/>
		<path class="st2" d="M124.4,179.2c-0.1,0-0.3-0.1-0.4-0.1C124.1,179.1,124.2,179.2,124.4,179.2z"/>
		<path class="st2" d="M115.5,178.6c-0.1,0-0.1,0.1-0.2,0.1C115.4,178.7,115.5,178.7,115.5,178.6z"/>
		<path class="st2" d="M124.8,179.3c-0.1,0-0.2,0-0.3-0.1C124.6,179.2,124.7,179.3,124.8,179.3z"/>
		<path class="st2" d="M127.2,178.5c0,0-0.1,0.1-0.1,0.1C127.1,178.6,127.2,178.6,127.2,178.5z"/>
		<path class="st2" d="M75.4,169.2c-0.1,0-0.1-0.1-0.2-0.1C75.3,169.1,75.3,169.1,75.4,169.2z"/>
		<path class="st2" d="M76.2,169.6c-0.1,0-0.2-0.1-0.2-0.1C76.1,169.5,76.2,169.5,76.2,169.6z"/>
		<path class="st2" d="M49.2,141.2c-0.1-0.1-0.1-0.2-0.2-0.3C49.1,141,49.1,141.1,49.2,141.2z"/>
		<path class="st2" d="M115.7,178.6c0.1,0,0.1-0.1,0.1-0.1l0,0C115.7,178.5,115.7,178.5,115.7,178.6z"/>
		<path class="st2" d="M77.1,169.8c-0.1,0-0.2,0-0.2-0.1C76.9,169.8,77,169.8,77.1,169.8z"/>
		<path class="st2" d="M76.7,169.7c-0.1,0-0.2-0.1-0.2-0.1C76.5,169.6,76.6,169.7,76.7,169.7z"/>
		<path class="st2" d="M75.8,169.4c-0.1,0-0.2-0.1-0.2-0.1C75.7,169.3,75.8,169.4,75.8,169.4z"/>
		<path class="st2" d="M50,100.7l0.4,0.2c0-0.1,0-0.3,0.1-0.4c-0.4-0.2-0.8-0.3-1.1-0.4c-0.4-0.2-0.8-0.2-1.2-0.3
			c0.1,0.1,0.3,0.2,0.4,0.3L50,100.7z"/>
		<path class="st2" d="M96.5,47.3L96.5,47.3C96.6,47.3,96.6,47.3,96.5,47.3L96.5,47.3C96.6,47.3,96.6,47.3,96.5,47.3z"/>
		<path class="st2" d="M51.4,139.1C51.4,139.1,51.3,139.1,51.4,139.1L51.4,139.1C51.3,139.1,51.3,139.1,51.4,139.1z"/>
		<polygon class="st2" points="167.8,152.7 167.8,152.7 167.8,152.7 		"/>
		<polygon class="st2" points="156,60.7 156,60.7 156,60.7 		"/>
		<path class="st2" d="M153.6,60.1c0.1,0,0.2,0,0.2,0l0,0C153.8,60.1,153.7,60.1,153.6,60.1z"/>
		<path class="st2" d="M155.6,60.1C155.6,60.1,155.7,60.2,155.6,60.1c0,0-0.1-0.2-0.2-0.3C155.5,59.9,155.6,60,155.6,60.1z"/>
		<path class="st2" d="M58.5,147.6c0.1,0,0.2-0.1,0.3-0.1c0,0,0.1,0,0.2-0.1c0.1-0.1,0.3-0.1,0.4-0.2l0.5-0.3
			c-0.1-0.2-0.2-0.4-0.4-0.6l-0.5,0.3c-0.2,0.1-0.5,0.2-0.8,0.3c0,0.1,0,0.2,0,0.3c0,0,0,0.2,0,0.4c0,0,0.1,0,0.1,0
			C58.4,147.6,58.4,147.6,58.5,147.6z"/>
		<path class="st2" d="M45.1,100.6c0-0.2-0.1-0.5-0.1-0.7C45.1,100.1,45.1,100.4,45.1,100.6C45.1,100.6,45.2,100.6,45.1,100.6
			L45.1,100.6C45.2,100.6,45.2,100.6,45.1,100.6z"/>
		<path class="st2" d="M149.9,57.4c-0.2,0-0.4,0.1-0.6,0.1c0,0,0,0,0,0C149.5,57.5,149.7,57.4,149.9,57.4z"/>
		<path class="st2" d="M156,60.7L156,60.7c0,0-0.1-0.1-0.1-0.1C155.9,60.6,155.9,60.6,156,60.7C155.9,60.6,156,60.7,156,60.7z"/>
		<path class="st2" d="M164.6,147c0.8,0.9,1.7,2,2.3,2.7c0.5,0.6,0.9,1.4,0.9,2.3c0.1,0,0.2,0,0.4,0.1c0.2,0.1,0.3,0.4,0.3,0.6
			c0-0.1,0-0.1,0-0.2c0.1-1.1-0.3-2.3-1.1-3.2c-0.5-0.6-1.2-1.4-1.9-2.2C165.2,147.1,164.9,147.1,164.6,147z"/>
		<path class="st2" d="M112.4,46.1C112.4,46.1,112.4,46.1,112.4,46.1C112.4,46.1,112.4,46.1,112.4,46.1
			C112.4,46.1,112.4,46.1,112.4,46.1z"/>
		<path class="st2" d="M111.6,46.5C111.6,46.5,111.6,46.5,111.6,46.5L111.6,46.5C111.6,46.5,111.6,46.5,111.6,46.5z"/>
		<path class="st2" d="M55,134.5L55,134.5c-0.1,0.6-0.2,1.2-0.2,1.8c-0.1,0.1-0.2,0.2-0.3,0.3c0.1-0.1,0.2-0.2,0.3-0.3
			C54.8,135.7,54.9,135.1,55,134.5z"/>
		<path class="st2" d="M161.1,151.4c-0.1,0-0.1-0.1-0.2-0.1C161,151.3,161,151.4,161.1,151.4L161.1,151.4z"/>
		<path class="st2" d="M174.7,115.7c0.1-1.2,0.1-2.3,0.1-3.5c0-0.2,0-0.4,0-0.7c0-0.1,0-0.2,0-0.3c-0.4-0.1-0.9-0.2-1.4-0.3
			c0.1,6.4-0.7,12.8-2.6,19.1c-1.3,4.3-3.1,8.4-5.2,12.2c0.5,0,1,0,1.5,0.1c0.2-0.4,0.4-0.8,0.6-1.2c0.1-0.2,0.2-0.4,0.3-0.6l0,0
			c0.6-1.1,1.1-2.3,1.6-3.4l0,0c0.1-0.2,0.2-0.4,0.3-0.7c0.8-2,1.5-4,2.2-6c1.4-4.6,2.2-9.3,2.6-14
			C174.7,116.2,174.7,115.9,174.7,115.7L174.7,115.7z"/>
		<path class="st2" d="M173.4,110.2L173.4,110.2c0.5,0.1,0.9,0.2,1.4,0.3v0C174.4,110.4,173.9,110.3,173.4,110.2z"/>
		<path class="st2" d="M120.7,173L120.7,173c0.2,0.5,0.3,0.8,0.6,1.3l0,0C121,173.8,120.9,173.5,120.7,173z"/>
		<path class="st2" d="M114.5,49.6L114.5,49.6c0.2,0.4,0.5,0.9,0.7,1.3C115,50.4,114.7,50,114.5,49.6z"/>
		<path class="st2" d="M154.2,65.7c-0.9-0.8-1.8-1.6-2.7-2.3c-0.2-0.1-0.4-0.3-0.6-0.4c-0.5-0.4-1-0.8-1.6-1.2
			c-0.5,0.2-1.1,0.3-1.6,0.5c7.1,5.1,13.2,11.8,17.8,19.9c0.6,0.1,1.1,0.2,1.7,0.2c-3.4-6.3-7.7-11.7-12.6-16.3
			C154.5,66,154.4,65.9,154.2,65.7L154.2,65.7z"/>
		<path class="st2" d="M135.2,55.4L135.2,55.4c0.9-0.1,1.7-0.3,2.5-0.4l0,0C136.9,55.1,136.1,55.3,135.2,55.4z"/>
		<path class="st2" d="M166.8,142.9c-0.2,0-0.4,0-0.6,0C166.4,142.9,166.6,142.9,166.8,142.9L166.8,142.9z"/>
		<path class="st2" d="M136.4,55.9c2.2,0.9,4.3,2,6.4,3.2c0.6-0.2,1.1-0.4,1.6-0.6c-1.8-1.1-3.6-2-5.5-2.9
			C138.1,55.6,137.2,55.8,136.4,55.9z"/>
		<path class="st2" d="M73.5,160L73.5,160c0,0.5,0,1.1-0.1,1.6l0,0C73.5,161,73.5,160.5,73.5,160z"/>
		<path class="st2" d="M130.4,52.8c-0.6,0.1-1.1,0.2-1.7,0.3C129.2,53,129.8,52.9,130.4,52.8z"/>
		<path class="st2" d="M124.8,173.6L124.8,173.6c-0.2-0.4-0.3-0.6-0.4-0.9C124.5,173,124.6,173.3,124.8,173.6z"/>
		<path class="st2" d="M54,135.8L54,135.8c0,0.1,0,0.1,0.1,0.2c0,0,0,0,0,0c0.1-0.9,0.2-1.9,0.3-2.8c-3.8-10.3-4.7-21.4-2.7-32.2
			c-0.5-0.2-0.9-0.4-1.3-0.5c0,0.1,0,0.3-0.1,0.4l0,0c-0.2,1.2-0.4,2.4-0.6,3.7l0,0c0,0.2-0.1,0.5-0.1,0.7c-1,8.8-0.1,17.6,2.6,26
			c0.1,0.2,0.2,0.5,0.2,0.8C53,133.3,53.5,134.6,54,135.8z"/>
		<path class="st2" d="M164.6,146.4c-0.1,0-0.2,0-0.3,0C164.4,146.4,164.5,146.4,164.6,146.4z"/>
		<path class="st2" d="M162.3,149.8c0.7-0.9,1.3-1.8,2-2.8c-0.6,0-1.1,0-1.6,0c-0.8,1.1-1.6,2.2-2.4,3.2c0.4,0.2,0.9,0.4,1.2,0.6
			c0.1-0.2,0.2-0.3,0.4-0.5C162.1,150.2,162.2,150,162.3,149.8z"/>
		<path class="st2" d="M171.7,92.8c-0.4-1.1-0.8-2.2-1.2-3.3c-0.1-0.2-0.2-0.4-0.2-0.6c-0.2-0.4-0.3-0.8-0.5-1.2
			c-0.5,0-1-0.1-1.5-0.1c2.6,6,4.3,12.2,5,18.6c0.5,0.1,0.9,0.2,1.4,0.3c-0.4-4.4-1.3-8.7-2.6-13C171.9,93.2,171.8,93,171.7,92.8z"
			/>
		<path class="st2" d="M109.8,174.9c0.8,0,1.6,0.1,2.4,0.1c0.2,0,0.4,0,0.7,0c0.2-0.4,0.3-0.9,0.6-1.3c-6.4,0.1-12.8-0.7-19.1-2.6
			c-6-1.8-11.7-4.5-16.7-8c0,0.5,0,1,0,1.6c0.4,0.3,0.9,0.6,1.3,0.8c0.2,0.1,0.4,0.3,0.6,0.4c1.2,0.7,2.3,1.4,3.5,2l0,0
			c0.2,0.1,0.5,0.2,0.7,0.4c7.9,4,16.5,6.3,25.3,6.7C109.3,174.8,109.5,174.9,109.8,174.9z"/>
		<path class="st2" d="M100.3,50.6c-1,0.2-1.9,0.4-2.9,0.6l0,0c-0.2,0-0.4,0.1-0.7,0.2c-0.2,0-0.3,0.1-0.4,0.1c0,0.4,0,0.9,0,1.4
			c5.2-1.4,10.4-2.1,15.7-2.1c0.8,0,1.7,0,2.5,0.1c-0.3-0.5-0.5-0.9-0.8-1.4c0,0,0,0-0.1,0l0,0c-1,0-1.9,0-2.9,0l0,0
			c-0.2,0-0.5,0-0.7,0c-3,0.1-6,0.4-9,0.9C100.8,50.5,100.6,50.6,100.3,50.6z"/>
		<path class="st2" d="M50.6,99.8L50.6,99.8c0.4,0.2,0.8,0.3,1.3,0.5l0,0C51.4,100.1,51,99.9,50.6,99.8z"/>
		<path class="st2" d="M119.5,51.3L119.5,51.3c-0.2-0.4-0.5-0.8-0.7-1.2C119,50.5,119.3,50.9,119.5,51.3z"/>
		<path class="st2" d="M52.9,96.2c0.2-0.6,0.3-1.2,0.5-1.8c4.7-15.7,15.3-28.6,29.8-36.3c2.8-1.5,5.6-2.7,8.4-3.7c0-0.5,0-1,0-1.4
			c-3.1,1.1-6.1,2.4-9.1,4C67.7,64.9,56.9,78,52.1,94.1c-0.2,0.6-0.3,1.1-0.5,1.7C52,95.9,52.5,96.1,52.9,96.2z"/>
		<path class="st2" d="M165.5,142.9c-0.1,0-0.2,0-0.2,0l0,0C165.4,142.9,165.4,142.9,165.5,142.9z"/>
		<path class="st2" d="M115.2,50.9C115.2,50.9,115.3,50.9,115.2,50.9L115.2,50.9C115.3,50.9,115.2,50.9,115.2,50.9z"/>
		<path class="st2" d="M157,154c-4.5,4.9-9.9,9-15.9,12.3c-5.2,2.8-10.6,4.8-16.2,5.9c0.2,0.4,0.3,0.7,0.5,1.3
			c0.8-0.2,1.6-0.4,2.4-0.6l0,0c0.2-0.1,0.4-0.1,0.7-0.2c4.5-1.2,8.9-3,13.2-5.2c6.3-3.4,11.9-7.7,16.6-12.8
			C157.9,154.4,157.4,154.2,157,154z"/>
		<path class="st2" d="M128.7,53.1C128.6,53.1,128.6,53.1,128.7,53.1L128.7,53.1C128.6,53.2,128.6,53.1,128.7,53.1z"/>
		<path class="st2" d="M120,173.1c-0.3,0.1-0.7,0.1-1.1,0.1c-0.3,0.6-0.5,1-0.7,1.4c0.8-0.1,1.5-0.2,2.3-0.3
			C120.3,173.9,120.2,173.6,120,173.1z"/>
		<path class="st2" d="M95.6,53.1c0-0.1,0-0.2,0-0.3C95.6,52.9,95.6,53,95.6,53.1L95.6,53.1z"/>
		<path class="st2" d="M76.9,164.1L76.9,164.1c0-0.5,0-1.1,0-1.6l0,0C76.9,163.1,76.9,163.6,76.9,164.1z"/>
		<path class="st2" d="M120.3,51.4c0.4-0.1,0.8-0.1,1.2-0.1c1.1,0,2.2,0.3,3.1,0.9c0.8,0.2,1.7,0.4,2.5,0.6c1-0.2,2-0.4,3-0.6
			c-3.5-1-7-1.8-10.6-2.2C119.8,50.4,120,50.9,120.3,51.4z"/>
		<path class="st2" d="M72.9,159.4c-5.8-4.8-10.7-10.7-14.4-17.5c0,0.8-0.1,1.6-0.1,2.5c0.4,0.7,0.8,1.3,1.2,1.9
			c0.1,0.2,0.2,0.4,0.4,0.6l0,0c0.6,1,1.3,1.9,2,2.8l0,0c0.1,0.2,0.3,0.4,0.4,0.5c3.1,4.1,6.6,7.7,10.5,10.8
			C72.8,160.5,72.8,160,72.9,159.4z"/>
		<path class="st2" d="M180,111.8c0.1-0.9,0-1.8-0.5-2.6c-0.1-0.2-0.3-0.5-0.6-0.7s-0.5-0.4-0.8-0.5c-0.2-0.1-0.4-0.2-0.7-0.2
			s-0.5-0.2-0.7-0.2c-0.4-0.1-0.8-0.2-0.8-0.2c-1.5-0.4-2.9-0.7-4.4-1.1c-0.5-0.1-0.9-0.2-1.4-0.3c-1-0.2-1.9-0.4-2.9-0.6
			c-0.5-0.1-1.1-0.2-1.6-0.3c-0.9-0.2-1.8-0.3-2.6-0.5c-0.6-0.1-1.1-0.2-1.7-0.3c-0.9-0.1-1.7-0.3-2.6-0.4c-0.5-0.1-1.1-0.2-1.6-0.2
			c-0.9-0.1-1.8-0.2-2.6-0.3c-0.5-0.1-1-0.1-1.5-0.2c-1-0.1-2-0.2-3-0.2c-0.4,0-0.8-0.1-1.1-0.1c-1.4-0.1-2.7-0.2-4.1-0.2
			c-0.2,0-0.4,0-0.6,0c-1.1,0-2.3-0.1-3.4-0.1c-0.9,0-1.9,0-2.8,0c-0.2,0-0.4,0-0.6,0c-1.1,0-2.3,0.1-3.4,0.1c-0.3,0-0.7,0-1,0.1
			c-0.8,0.1-1.6,0.1-2.5,0.2c-0.4,0-0.8,0.1-1.2,0.1c-0.7,0.1-1.5,0.1-2.2,0.2c-0.4,0.1-0.9,0.1-1.3,0.2c-0.7,0.1-1.4,0.2-2.2,0.3
			c-0.4,0.1-0.9,0.1-1.3,0.2c-0.8,0.1-1.6,0.2-2.3,0.4c-0.4,0.1-0.7,0.1-1.1,0.2c-1.1,0.2-2.2,0.4-3.3,0.6c0,0,0,0-0.1,0
			c-1.2-2.1-3.4-3.5-5.9-3.5c-0.7,0-1.5,0.1-2.2,0.4c-0.8-1.6-1.7-3.2-2.4-4.8l0,0l0,0c0,0,0.1-0.1,0.1-0.1c1.7-1.3,2.7-3.2,2.7-5.3
			c0-0.7-0.1-1.4-0.3-2c-0.1-0.4-0.3-0.9-0.5-1.3c-0.2-0.3-0.4-0.7-0.7-1l0,0l0,0c1.3-1.3,2.6-2.6,3.9-3.8c0.8-0.7,1.6-1.5,2.4-2.2
			c2-1.7,4.1-3.4,6.3-5c2.2-1.6,4.5-3.1,6.8-4.6c0.9,1.1,2.2,1.8,3.5,2c0.4,0.1,0.9,0.2,1.4,0.2c0.3,0,0.6,0,0.9-0.1
			c0.9-0.1,1.8-0.4,2.6-0.9c2.4,1.9,4.9,3.5,7.4,5c4.3,2.5,8.9,4.5,13.7,5.9c2,0.6,3.9,1.1,5.7,1.5c0.6,0.1,1.3,0.3,1.9,0.4
			c2.6,0.4,5.2,0.8,8.1,0.9c0,0,1.9,0.1,3.2,0.9c0.1,0.1,0.3,0.2,0.4,0.3c0,0,0,0,0.1,0c0.1,0.1,0.3,0.3,0.4,0.5l0,0c0,0,0,0,0,0
			c0-0.2,0-0.4-0.1-0.6c-0.1-0.8-0.5-1.8-1-2.7c-0.4-0.6-0.8-1-1.4-1.4c-0.1-0.1-0.2-0.1-0.3-0.2c-0.1-0.1-0.2-0.1-0.3-0.1
			c-0.2-0.1-0.5-0.1-0.8-0.1c-1.9-0.1-6.1-0.7-10-1.5c-1.1-0.2-2.1-0.5-3.1-0.7c-0.7-0.2-1.3-0.3-1.9-0.5c-1.6-0.5-3.1-1-4.6-1.6
			c-3.8-1.5-7.5-3.4-10.9-5.6c-1.4-0.9-2.8-1.9-4.2-3c0.4-0.7,0.6-1.5,0.7-2.3c0-0.3,0.1-0.5,0.1-0.8s0-0.6-0.1-0.8
			s-0.1-0.5-0.1-0.8l0,0l0,0c0.5-0.2,1-0.4,1.4-0.6c2.2-1,4.4-1.9,6.6-2.7c2.1-0.8,4.2-1.5,6.3-2.1c0,0,0,0,0,0c0,0,0,0,0,0s0,0,0,0
			c0,0,0,0,0.1,0c0,0,0,0,0.1,0c0,0,0.1,0,0.1,0c0,0,0.1,0,0.1,0c0.1,0,0.1,0,0.2,0c0,0,0,0,0,0c0.1,0,0.2,0,0.3-0.1
			c0,0,0.1,0,0.1,0c0.1,0,0.1,0,0.2,0c0,0,0.1,0,0.1,0c0.1,0,0.2,0,0.2,0c0,0,0.1,0,0.1,0c0.1,0,0.2,0,0.4,0c0,0,0,0,0,0l0,0
			c0.1,0,0.2,0,0.2,0c0.1,0,0.2,0,0.2,0c0,0,0.1,0,0.1,0c0.2,0,0.3,0,0.5,0.1c0,0,0,0,0,0c0.2,0,0.4,0.1,0.5,0.2c0,0,0.1,0,0.1,0
			c0.2,0.1,0.4,0.1,0.5,0.2h0l0,0c0,0,0-0.1-0.1-0.1c-0.1-0.2-0.2-0.3-0.3-0.5c-0.1-0.1-0.1-0.2-0.1-0.2c-0.1-0.1-0.1-0.2-0.2-0.2
			c-0.1-0.2-0.3-0.3-0.4-0.5c-0.1-0.1-0.1-0.2-0.2-0.2c-0.2-0.2-0.3-0.3-0.5-0.4c-0.1,0-0.1-0.1-0.2-0.2c-0.2-0.2-0.5-0.3-0.8-0.5
			c-0.1,0-0.1,0-0.2-0.1c-0.2-0.1-0.5-0.2-0.7-0.2c-0.1,0-0.2,0-0.3-0.1c-0.2,0-0.4-0.1-0.7-0.1c-0.1,0-0.2,0-0.3,0
			c-0.2,0-0.5,0-0.7,0c-0.1,0-0.2,0-0.3,0c-0.2,0-0.4,0.1-0.6,0.1c-0.1,0-0.3,0-0.4,0.1c-0.2,0.1-0.4,0.1-0.6,0.2
			c-0.4,0.1-0.9,0.3-1.4,0.5c-3.3,1.1-7.9,2.9-11.5,4.6c0,0,0,0-0.1,0c-0.2-0.2-0.3-0.3-0.5-0.5c-1.2-1-2.7-1.5-4.2-1.5
			c-1.2,0-2.4,0.3-3.4,0.9l0,0l0,0c-0.1-0.1-0.2-0.2-0.3-0.3c-0.5-0.6-1-1.2-1.5-1.8l0,0l0,0c0.1-0.1,0.1-0.2,0.2-0.2
			c0.3-0.5,0.6-1,0.7-1.6c0.1-0.2,0.1-0.5,0.1-0.7l0,0l0,0c2.7-0.6,5.9-1.3,8.8-1.8c0.9-0.1,1.7-0.3,2.5-0.4c0.2,0,0.4-0.1,0.6-0.1
			c0.6-0.1,1.2-0.2,1.8-0.2s1.1-0.1,1.6-0.2c0.4,0,0.7-0.1,1-0.1c0.3,0,0.5-0.1,0.8-0.1c0.1,0,0.3,0,0.4,0c0.2,0,0.4,0,0.6,0
			c0.1,0,0.2,0,0.3,0c0.2,0,0.4,0,0.6,0c0.1,0,0.1,0,0.2,0c0,0,0,0,0.1,0c0.1,0,0.1,0,0.2,0c0.2,0,0.4,0,0.5,0c0.1,0,0.2,0,0.3,0
			c0.2,0,0.4,0,0.6,0.1c0.1,0,0.2,0,0.2,0c0.3,0,0.6,0.1,0.9,0.2c-0.3-0.3-0.6-0.5-0.9-0.8c-0.1-0.1-0.2-0.2-0.3-0.2
			c-0.2-0.2-0.4-0.3-0.7-0.5c-0.1-0.1-0.2-0.2-0.4-0.2c-0.2-0.1-0.4-0.2-0.6-0.3c-0.1,0-0.1-0.1-0.1-0.1c-0.1-0.1-0.3-0.1-0.4-0.2
			c-0.3-0.1-0.6-0.2-0.8-0.3c-0.1,0-0.2-0.1-0.3-0.1c-0.4-0.1-0.8-0.2-1.3-0.3c-0.1,0-0.2,0-0.2,0c-0.4-0.1-0.7-0.1-1.1-0.1
			c-0.2,0-0.3,0-0.5,0c-0.3,0-0.7,0-1,0c-0.1,0-0.3,0-0.4,0c-0.5,0-1,0.1-1.5,0.2l0,0c-1.8,0.3-4.6,0.8-7.5,1.3
			c-0.6,0.1-1.1,0.2-1.7,0.3c0,0-0.1,0-0.1,0c-1.1,0.2-2.2,0.5-3.2,0.7l0,0l0,0l0,0c-0.1-0.2-0.3-0.3-0.4-0.5
			c-0.1,0-0.1-0.1-0.2-0.1c-0.1-0.1-0.3-0.2-0.4-0.3c-0.1,0-0.1-0.1-0.2-0.1c-0.2-0.1-0.4-0.2-0.6-0.3c0,0,0,0,0,0
			c-0.2-0.1-0.4-0.2-0.6-0.2c-0.1,0-0.1,0-0.2-0.1c-0.2,0-0.3-0.1-0.5-0.1c-0.1,0-0.1,0-0.2,0c-0.2,0-0.4,0-0.7,0
			c-0.2,0-0.3,0-0.5,0c-0.1,0-0.2,0-0.3,0c-0.2,0-0.5,0.1-0.7,0.2l0,0l0,0c-0.1-0.2-0.3-0.5-0.4-0.7c0,0-0.1-0.1-0.1-0.2
			c-0.2-0.4-0.5-0.8-0.7-1.2c-0.4-0.7-0.7-1.3-1-1.8c-0.1-0.2-0.2-0.3-0.2-0.4c-0.1-0.1-0.1-0.2-0.2-0.3l0,0
			c-0.1-0.2-0.2-0.4-0.4-0.5c0,0-0.1-0.1-0.1-0.2c-0.1-0.1-0.2-0.2-0.3-0.3c-0.1,0-0.1-0.1-0.2-0.1c-0.1-0.1-0.2-0.1-0.3-0.2
			c-0.1,0-0.1-0.1-0.2-0.1c-0.1,0-0.2-0.1-0.3-0.1c-0.1,0-0.1,0-0.2-0.1c-0.1,0-0.2-0.1-0.3-0.1c-0.1,0-0.1,0-0.2,0
			c-0.1,0-0.2,0-0.2,0c-0.1,0-0.1,0-0.2,0c0,0,0,0-0.1,0c-0.2,0-0.3,0-0.4,0c-0.2,0-0.3,0-0.5,0c0,0-0.1,0-0.1,0
			c-0.1,0-0.3,0-0.4,0.1c-0.1,0-0.1,0-0.2,0c-0.1,0-0.2,0-0.3,0.1c-0.1,0-0.1,0-0.2,0c-0.1,0-0.2,0-0.2,0.1c0,0,0,0,0,0
			c0,0-0.1,0-0.1,0c-0.1,0-0.1,0-0.2,0.1c0,0-0.1,0-0.1,0c-0.1,0-0.1,0-0.2,0.1c0,0-0.1,0-0.1,0c0,0-0.1,0-0.1,0c0,0,0,0,0,0
			c0,0,0,0,0,0l0,0l0,0c0,0,0,0,0,0c0,0,0,0,0,0c0,0,0,0,0,0c0,0,0.1,0,0.1,0c0,0,0,0,0,0s0,0,0,0c0.1,0,0.2,0,0.2,0c0,0,0,0,0,0
			c0.1,0,0.2,0,0.3,0.1c0,0,0.1,0,0.1,0c0.1,0,0.2,0.1,0.2,0.2c0,0,0.1,0,0.1,0.1c0.1,0.1,0.2,0.2,0.3,0.4l0,0
			c0.1,0.2,0.2,0.4,0.4,0.7c0.1,0.1,0.1,0.2,0.2,0.3c0.1,0.2,0.2,0.4,0.4,0.7c0.1,0.2,0.2,0.3,0.3,0.5c0,0.1,0.1,0.1,0.1,0.2
			c0.2,0.4,0.5,0.9,0.7,1.3c0,0,0,0,0,0.1c0.3,0.5,0.6,1,0.9,1.5c0.1,0.2,0.2,0.3,0.3,0.5c0.3,0.5,0.6,1,0.9,1.4l0,0l0,0
			c-0.3,0.5-0.5,1.1-0.5,1.8c-1.7,0.5-3.3,1.1-4.9,1.7c-1.6,0.6-3.2,1.2-4.7,1.9c-3.1,1.3-6.1,2.8-8.9,4.4c-0.3-0.3-0.7-0.5-1.1-0.7
			c-0.2-0.1-0.4-0.2-0.6-0.2c-0.2-0.1-0.4-0.1-0.6-0.2c-0.1-0.6-0.1-1.3-0.1-2c0-0.6-0.1-1.3-0.1-2c0-0.4,0-0.8,0-1.1
			c0-0.4,0-0.7,0-1.1s0-0.7,0-1.1c0-0.7,0-1.4,0-2c0-0.2,0-0.5,0-0.7c0-0.1,0-0.2,0-0.3c0-1.2,0-2.3,0-3c0-0.3,0-0.6,0.1-0.7
			c0-0.2,0.1-0.4,0.1-0.6c0.1-0.3,0.2-0.6,0.3-0.8c0.2-0.3,0.3-0.4,0.4-0.4c0.1,0,0.1,0,0.1,0s-0.4,0-1,0.2c-0.1,0-0.2,0.1-0.3,0.1
			c-0.2,0.1-0.5,0.2-0.8,0.3c-0.4,0.2-0.8,0.4-1.1,0.7c-0.6,0.5-1,1-1.1,1.9c0,0.4-0.1,2.1-0.1,4.2l0,0c0,0.6,0,1.2,0,1.9
			c0,2.3,0.1,4.9,0.3,6.9l0,0l0,0c-1.1,0.4-2,1.2-2.6,2.1c-0.3,0.5-0.6,1-0.7,1.5C89.1,67.4,89,67.7,89,68c0,0.3-0.1,0.5-0.1,0.8
			c0,0.5,0.1,1,0.2,1.5c-2.5,1.9-4.8,3.8-6.9,5.8c-7,6.6-12.8,14.5-17.2,23.4l0,0c-0.3,0-0.6,0-0.9,0c-0.1,0-0.2,0-0.4,0
			c-0.2,0-0.4,0.1-0.6,0.1c-0.1,0-0.2,0.1-0.4,0.1c-0.2,0.1-0.4,0.2-0.6,0.2c-0.1,0-0.2,0.1-0.3,0.1c-0.3,0.2-0.6,0.3-0.8,0.5h0
			c-3.5-1.8-6.2-2.9-9.7-4.1c0,0-0.2-0.1-0.7-0.3c-0.4-0.2-1-0.4-1.7-0.6c-0.1,0-0.3-0.1-0.5-0.1c0,0-0.1,0-0.1,0c0,0-0.1,0-0.1,0
			c-0.1,0-0.1,0-0.2,0c0,0-0.1,0-0.1,0c-0.1,0-0.1,0-0.2,0.1c0,0-0.1,0-0.1,0.1c-0.1,0-0.1,0.1-0.2,0.1c0,0-0.1,0-0.1,0.1
			c-0.1,0-0.1,0.1-0.2,0.1c0,0-0.1,0.1-0.1,0.1c-0.1,0.1-0.2,0.1-0.2,0.2c0,0-0.1,0-0.1,0.1c-0.1,0.1-0.2,0.2-0.3,0.3
			c0,0,0,0.1-0.1,0.1c-0.1,0.1-0.1,0.1-0.2,0.2c0,0,0,0,0,0.1c0,0-0.1,0.1-0.1,0.1c-0.1,0.1-0.1,0.2-0.2,0.2c0,0.1-0.1,0.1-0.1,0.2
			c0,0.1-0.1,0.2-0.1,0.3c0,0.1,0,0.1-0.1,0.2c0,0.1-0.1,0.2-0.1,0.3c0,0.1,0,0.1-0.1,0.2c0,0.1,0,0.2-0.1,0.3c0,0.1,0,0.2,0,0.2
			c0,0.1,0,0.2,0,0.3c0,0.1,0,0.2,0,0.2c0,0.1,0,0.3,0,0.4c0,0.1,0,0.1,0,0.2c0,0.2,0.1,0.4,0.1,0.7c0,0,0,0,0,0
			c0,0,0.1-0.1,0.1-0.1c0,0,0,0,0-0.1c0-0.1,0.1-0.2,0.2-0.2c0,0,0,0,0,0c0.1-0.1,0.1-0.2,0.2-0.2c0,0,0,0,0.1-0.1
			c0.1-0.1,0.2-0.2,0.2-0.2c0,0,0,0,0,0c0.1-0.1,0.2-0.1,0.3-0.2c0,0,0,0,0.1-0.1c0.1-0.1,0.2-0.1,0.4-0.2c0,0,0,0,0,0
			c0.1,0,0.3-0.1,0.4-0.1c0,0,0.1,0,0.1,0c0.1,0,0.2,0,0.2,0l0,0c0.1,0,0.2,0,0.2,0h0c0.1,0,0.2,0,0.2,0c0.1,0,0.1,0,0.2,0
			c0.1,0,0.2,0,0.3,0c0,0,0,0,0.1,0c0,0,0.1,0,0.1,0c0.1,0,0.2,0.1,0.3,0.1c0,0,0.1,0,0.2,0c0.2,0.1,0.4,0.1,0.5,0.2
			c0.1,0,0.2,0.1,0.3,0.1c0.2,0.1,0.4,0.2,0.7,0.3c0.4,0.2,0.8,0.3,1.3,0.5c1.8,0.7,4.2,1.8,6.2,2.7c0.2,0.1,0.4,0.2,0.6,0.3
			c-0.1,0.2-0.1,0.5-0.2,0.7c0,0.1,0,0.2,0,0.2c0,0.3-0.1,0.6-0.1,0.8c0,0.4,0,0.9,0.2,1.3c0.1,0.4,0.2,0.8,0.4,1.2
			c0.4,0.8,0.9,1.4,1.6,2c-1,2.8-1.9,5.8-2.7,8.8c-0.1,0.4-0.2,0.9-0.3,1.3c-0.5,2-0.9,4-1.3,6.1c-0.5,2.8-1,5.8-1.3,8.7
			c-0.1,0.6-0.2,1.2-0.2,1.8c-0.1,0.1-0.2,0.2-0.3,0.3c-0.8,0.8-1.6,1.6-2.3,2.1c-0.1,0.1-0.2,0.1-0.3,0.2c0,0-0.1,0-0.1,0
			c-0.1,0-0.2,0.1-0.3,0.1c0,0-0.1,0-0.1,0c0,0,0,0,0,0c-0.1,0-0.3,0-0.4,0c0,0,0,0,0,0h0c-0.2,0-0.3,0-0.5-0.1c0,0-0.1,0-0.1,0
			c-0.2,0-0.3-0.1-0.5-0.2c0,0,0,0-0.1,0c-0.1-0.1-0.3-0.2-0.4-0.3c0,0,0,0-0.1-0.1c-0.1-0.1-0.3-0.3-0.4-0.4c0,0,0-0.1-0.1-0.1
			c-0.1-0.2-0.2-0.4-0.3-0.6l0,0l0,0c0,0.2-0.1,0.5-0.1,0.7c0,0.1,0,0.1,0,0.2c0,0.2,0,0.3,0,0.5c0,0.1,0,0.1,0,0.2
			c0,0.2,0,0.3,0.1,0.5c0,0.1,0,0.1,0,0.1c0,0.2,0.1,0.4,0.2,0.6c0,0,0,0.1,0,0.1c0,0.1,0.1,0.3,0.2,0.4c0,0.1,0.1,0.1,0.1,0.2
			c0.1,0.1,0.1,0.2,0.2,0.3c0,0.1,0.1,0.1,0.1,0.1c0,0.1,0.1,0.1,0.1,0.1c0.1,0.1,0.1,0.1,0.2,0.2c0,0,0,0,0,0
			c0.1,0.1,0.2,0.2,0.4,0.3c0,0,0.1,0.1,0.1,0.1c0.1,0.1,0.2,0.1,0.3,0.2c0,0,0.1,0.1,0.1,0.1c0.1,0.1,0.2,0.1,0.3,0.1
			c0,0,0.1,0,0.1,0.1c0.1,0.1,0.3,0.1,0.4,0.1c0,0,0,0,0.1,0c0.1,0,0.2,0,0.3,0.1c0,0,0.1,0,0.1,0c0.1,0,0.2,0,0.3,0
			c0,0,0.1,0,0.2,0c0.1,0,0.2,0,0.2-0.1c0,0,0.1,0,0.1,0c0.1,0,0.2-0.1,0.2-0.1c0,0,0.1,0,0.1-0.1c0.1-0.1,0.2-0.1,0.3-0.2
			c0.1-0.1,0.2-0.2,0.3-0.3c0.6-0.6,0.7-0.6,0.7-0.6c0,0,0,0,0,0l0,0l0,0c0,0.6-0.1,1.2-0.1,1.7c0,0,0,0.2-0.1,0.6
			c0,0.4-0.1,0.8-0.1,1.4c0,0,0,0.1,0,0.1c0,0.2,0,0.3,0,0.5c0,1,0.5,2,1.2,2.8c0.7,0.8,1.5,1.4,2.2,1.8c0.1,0,0.1,0.1,0.2,0.1
			c0.1,0,0.2,0.1,0.3,0.1c-0.3-1.2-0.4-2.2-0.4-2.8c0-0.3,0-0.5,0-0.5c0,0,0-0.1,0-0.1c0-0.4,0-0.8,0-1.2c0-0.4,0-0.8,0.1-1.2
			c0.1-2.4,0.3-4.6,0.5-6.6c5-4.4,10.3-8.4,15.7-11.9c0.4-0.2,0.8-0.5,1.1-0.7c0.8-0.5,1.7-1,2.6-1.6c0.7,0.7,1.4,1.3,2.3,1.8
			c-0.5,1.5-0.9,3-1.4,4.5c-0.3,0.9-0.5,1.9-0.8,2.8c-0.3,1.1-0.6,2.2-0.8,3.2c-1.6,6.6-2.6,13.2-3.1,20.8c-0.1,1-0.1,2.1-0.2,3.1
			c0,0.5,0,1.1-0.1,1.6c0,0.2,0,0.3,0,0.5c0,0,0,0.1,0,0.2c0,0.2,0,0.7,0,1.7c0,0.5,0,1.1,0,1.8l0,0c0,0.2,0,0.4,0,0.5
			c0,0.1,0,0.1,0,0.2c0,0.1,0,0.2,0.1,0.3c0,0.1,0,0.1,0.1,0.2c0,0.1,0.1,0.2,0.1,0.3c0,0.1,0.1,0.1,0.1,0.2c0,0.1,0.1,0.2,0.1,0.2
			c0,0.1,0.1,0.1,0.1,0.2c0,0.1,0.1,0.1,0.1,0.2c0,0.1,0.1,0.1,0.1,0.2c0.1,0.1,0.1,0.1,0.2,0.2c0.1,0.1,0.1,0.1,0.2,0.1
			c0.1,0.1,0.1,0.1,0.2,0.2c0.1,0.1,0.1,0.1,0.2,0.1c0,0,0.1,0,0.1,0.1c0,0,0.1,0.1,0.1,0.1c0.1,0,0.1,0.1,0.2,0.1
			c0.1,0,0.1,0.1,0.2,0.1c0.1,0,0.1,0.1,0.2,0.1c0.1,0,0.1,0.1,0.2,0.1c0.1,0,0.1,0.1,0.2,0.1c0.1,0,0.2,0.1,0.2,0.1
			c0.1,0,0.1,0.1,0.2,0.1c0.1,0,0.2,0.1,0.2,0.1c0.1,0,0.1,0,0.2,0.1c0.1,0,0.2,0,0.2,0.1c0.1,0,0.1,0,0.2,0c0.1,0,0.2,0,0.2,0
			s0.1,0,0.2,0c0.1,0,0.2,0,0.2,0c0.1,0,0.1,0,0.2,0c0.1,0,0.1,0,0.1,0c0,0,0,0,0,0c0.1,0,0.1,0,0.2,0c-0.6-0.5-0.9-1.1-1.2-1.5
			c-0.1-0.2-0.2-0.3-0.2-0.5c-0.1-0.2-0.2-0.5-0.2-0.6c0-0.2-0.1-0.3-0.1-0.4l0,0c0,0,0-0.1,0-0.1c0-0.2,0-0.4,0-0.6
			c0-0.7,0-1.4,0.1-2.1c0-0.5,0-1.1,0-1.6c0.2-6,0.8-11.9,1.7-17.6c1-6.4,2.5-12.6,4.4-18.4l0,0l0,0c0.3,0,0.5,0,0.8,0
			c1.2,0,2.4-0.3,3.5-0.8c0.5-0.2,1-0.5,1.5-0.8l0,0l0,0c4.1,4.2,8.1,8.7,11.8,13.7c2,2.6,4,5.4,5.8,8.2c1.1,1.6,2.1,3.3,3.2,5
			c2.1,3.4,4.1,6.9,6,10.6l0,0l0,0c-0.4,0.4-0.8,0.9-1.1,1.4s-0.5,1.1-0.7,1.6c-0.1,0.4-0.1,0.8-0.1,1.2c0,0.3,0,0.5,0.1,0.8
			s0.1,0.5,0.2,0.7c0.1,0.4,0.3,0.9,0.5,1.2c0.2,0.3,0.4,0.6,0.7,0.9c0.1,0.1,0.3,0.3,0.4,0.4c-0.1,0.3-0.3,0.5-0.4,0.8
			s-0.2,0.5-0.3,0.7c-0.7,1.3-1.1,2.4-1.4,3.3c-0.1,0.2-0.2,0.4-0.3,0.6c-0.1,0.3-0.2,0.5-0.4,0.7c-0.4,0.4-1,0.7-2.1,0.8l0,0
			c0,0.1,0.1,0.2,0.2,0.4c0,0,0.1,0.1,0.1,0.1c0.1,0.1,0.1,0.1,0.2,0.2c0,0,0.1,0.1,0.1,0.1c0.1,0.1,0.1,0.1,0.2,0.1
			c0.1,0,0.1,0.1,0.2,0.1c0.1,0,0.1,0.1,0.2,0.1c0.1,0,0.1,0.1,0.2,0.1c0.1,0,0.2,0.1,0.2,0.1c0.1,0,0.1,0,0.2,0.1
			c0.1,0,0.2,0,0.2,0.1c0.1,0,0.1,0,0.2,0c0.1,0,0.2,0,0.3,0c0.1,0,0.1,0,0.2,0c0.1,0,0.2,0,0.3,0c0.1,0,0.2,0,0.2,0
			c0.1,0,0.1,0,0.2,0c0.1,0,0.2,0,0.2,0c0.1,0,0.1,0,0.2,0c0.1,0,0.2,0,0.2,0c0.1,0,0.1,0,0.2,0c0.1,0,0.2,0,0.2-0.1
			c0.1,0,0.1,0,0.2-0.1c0.1,0,0.1-0.1,0.2-0.1c0,0,0.1,0,0.1-0.1c0.1,0,0.1-0.1,0.2-0.1c0,0,0.1,0,0.1-0.1c0.1,0,0.1-0.1,0.1-0.1
			l0,0c0,0,0.1,0,0.1-0.1c0.1-0.1,0.1-0.1,0.2-0.2c0.1-0.3,0.2-0.5,0.3-0.8c0.3-0.7,0.5-1.1,0.5-1.1c0.1-0.2,0.2-0.5,0.3-0.6
			c0.2-0.4,0.3-0.7,0.4-1c0.1-0.3,0.2-0.6,0.4-0.8c0.2-0.4,0.4-0.9,0.8-1.6h1.2v0l0,0l0,0c0.1,0,0.1,0,0.2,0c0.1,0,0.1,0,0.2,0
			c0.2,0.4,0.3,0.7,0.4,0.9c0.2,0.5,0.3,0.8,0.6,1.3c0.1,0.2,0.2,0.5,0.4,0.9c0,0,0,0,0,0c0,0.1,0.1,0.2,0.2,0.3s0.2,0.4,0.3,0.6
			c0.2,0.4,0.3,0.8,0.5,1.3l0,0c0.1,0.2,0.2,0.4,0.2,0.5c0,0.1,0.1,0.1,0.1,0.1c0.1,0.1,0.1,0.2,0.2,0.3c0,0.1,0.1,0.1,0.1,0.1
			c0.1,0.1,0.2,0.1,0.2,0.2c0,0,0.1,0.1,0.1,0.1c0,0,0,0,0.1,0c0.1,0.1,0.2,0.1,0.3,0.2c0,0,0,0,0,0c0.1,0.1,0.3,0.1,0.4,0.1
			c0,0,0.1,0,0.1,0c0.1,0,0.2,0,0.3,0.1c0.1,0,0.1,0,0.1,0c0.1,0,0.2,0,0.2,0c0.1,0,0.2,0,0.3,0c0.1,0,0.1,0,0.2,0
			c0.1,0,0.2-0.1,0.3-0.1c0.1,0,0.1,0,0.2-0.1c0.2-0.1,0.3-0.1,0.5-0.2c0,0,0,0,0.1,0c0.1-0.1,0.3-0.1,0.4-0.2
			c0.1,0,0.1-0.1,0.1-0.1c0.1-0.1,0.2-0.1,0.2-0.2c0,0,0.1-0.1,0.1-0.1c0.1-0.1,0.1-0.1,0.2-0.2c0,0,0.1-0.1,0.1-0.1
			c0.1-0.1,0.1-0.2,0.2-0.2c0,0,0.1-0.1,0.1-0.1c0.1-0.1,0.1-0.2,0.1-0.4c0,0-0.1,0-0.1,0s-0.1,0-0.1,0c0,0-0.1,0-0.1,0
			c-0.1,0-0.1,0-0.1,0c0,0-0.1,0-0.1,0c-0.1,0-0.1,0-0.2-0.1c0,0-0.1,0-0.1-0.1c-0.1,0-0.1-0.1-0.2-0.1c0,0-0.1-0.1-0.1-0.1
			c-0.1,0-0.1-0.1-0.2-0.1c0,0-0.1-0.1-0.1-0.1c-0.1,0-0.1-0.1-0.1-0.1c0,0-0.1-0.1-0.1-0.1c-0.1-0.1-0.1-0.1-0.1-0.1
			c0,0-0.1-0.1-0.1-0.1c-0.1-0.1-0.1-0.1-0.1-0.1c0,0-0.1-0.1-0.1-0.1c0-0.1-0.1-0.1-0.1-0.1c0,0-0.1-0.1-0.1-0.1
			c0-0.1-0.1-0.1-0.1-0.1c0,0-0.1-0.1-0.1-0.1c0-0.1-0.1-0.1-0.1-0.1c0,0-0.1-0.1-0.1-0.1c0,0-0.1-0.1-0.1-0.1c0,0-0.1-0.1-0.1-0.1
			s0-0.1-0.1-0.1s0-0.1-0.1-0.1c0,0,0,0,0-0.1c-0.1-0.1-0.1-0.2-0.1-0.2c-0.1-0.2-0.2-0.4-0.3-0.6c0,0,0,0,0-0.1
			c-0.2-0.4-0.3-0.6-0.4-0.9c-0.3-0.7-0.5-1.2-1.1-2.4c0.5-0.5,0.8-1.1,1.1-1.7c0.2-0.6,0.4-1.3,0.4-2c0-0.6-0.1-1.1-0.3-1.6
			c-0.1-0.4-0.3-0.8-0.5-1.2l0,0l0,0c3.9-5,8.6-9,14-11.8l0,0l0,0c1-0.5,2.1-1,3.2-1.5c0.5-0.2,0.9-0.4,1.4-0.6l0,0l0,0
			c0.2,0.2,0.3,0.4,0.5,0.6c1.3,1.4,3.1,2.2,5,2.2c1,0,2-0.2,2.8-0.6c0.7-0.3,1.3-0.7,1.8-1.3l0,0l0,0c2.8,1.6,4.2,2.4,7.1,3.8l0,0
			l0,0h0l0,0c0,0,0.1,0,0.2,0.1c0,0,0,0,0,0c0.1,0,0.1,0.1,0.2,0.1c0,0,0,0,0.1,0c0.1,0,0.1,0.1,0.2,0.1c0.1,0,0.1,0.1,0.2,0.1
			c0.1,0,0.2,0.1,0.3,0.1c0.1,0,0.2,0.1,0.2,0.1s0.2,0.1,0.3,0.1c0.1,0.1,0.2,0.1,0.3,0.2l0,0c0.2,0.1,0.5,0.2,0.8,0.3
			c0,0,0.1,0,0.1,0c0.2,0.1,0.5,0.1,0.8,0.1c0,0,0.1,0,0.1,0c0.2,0,0.4,0,0.6-0.1c0,0,0.1,0,0.1,0c0.2,0,0.4-0.1,0.6-0.1
			c0,0,0.1,0,0.1,0c0.2-0.1,0.4-0.1,0.6-0.2c0,0,0.1,0,0.1-0.1c0.2-0.1,0.3-0.2,0.5-0.3c0,0,0.1,0,0.1-0.1c0.2-0.1,0.3-0.3,0.5-0.4
			c0,0,0.1-0.1,0.1-0.1c0.1-0.1,0.3-0.3,0.4-0.5c0,0,0,0,0-0.1c0.1-0.2,0.2-0.4,0.3-0.6c0-0.1,0-0.1,0.1-0.1
			c0.1-0.2,0.1-0.4,0.1-0.6l0,0c-0.3,0.1-0.6,0.2-0.9,0.3c0,0-0.1,0-0.1,0c-0.3,0.1-0.6,0.1-0.9,0.1c0,0-0.1,0-0.1,0
			c0,0-0.1,0-0.1,0c-0.1,0-0.2,0-0.4,0c-0.1,0-0.2,0-0.2,0c0,0-0.1,0-0.1,0l0,0c-0.1,0-0.2,0-0.2-0.1s-0.1,0-0.2-0.1
			c-0.1,0-0.3-0.1-0.4-0.1c-0.1,0-0.1,0-0.2-0.1c-0.2-0.1-0.4-0.1-0.6-0.2c-0.3-0.2-0.9-0.4-1.5-0.8c-0.2-0.1-0.5-0.2-0.7-0.4
			c-0.1,0-0.1-0.1-0.2-0.1c-0.2-0.1-0.5-0.3-0.8-0.4c-0.2-0.1-0.4-0.2-0.6-0.3c-1.2-0.6-2.5-1.3-3.7-1.9c-0.1-0.1-0.3-0.1-0.4-0.2
			c-0.3-0.2-0.6-0.4-0.9-0.5l0,0l0,0c0-0.1,0.1-0.2,0.1-0.4c0.1-0.2,0.1-0.4,0.1-0.6c0.5-0.1,0.9-0.1,1.4-0.2c0.1,0,0.2,0,0.3,0
			c0.4,0,0.7-0.1,1.1-0.1c0.1,0,0.1,0,0.2,0c0.4,0,0.8-0.1,1.2-0.1c0.1,0,0.2,0,0.3,0c0.3,0,0.6,0,1-0.1c0.1,0,0.2,0,0.2,0
			c0.4,0,0.8,0,1.2,0c0.1,0,0.2,0,0.2,0c0.2,0,0.4,0,0.6,0c0.2,0,0.3,0,0.5,0c0.1,0,0.1,0,0.2,0c0.4,0,0.9,0,1.3,0
			c0.1,0,0.2,0,0.3,0c0.5,0,0.9,0,1.5,0.1c0,0,0.6,0,1.4,0.1c0.4,0,0.8,0.1,1.2,0.1c0.2,0,0.3,0,0.5,0l0,0c0.1,0,0.2,0,0.2,0
			c0.2,0,0.4,0,0.6-0.1c0,0,0.1,0,0.1,0c0.2,0,0.4-0.1,0.6-0.2c0,0,0.1,0,0.1,0c0.2-0.1,0.4-0.2,0.6-0.3c0,0,0.1,0,0.1-0.1
			c0.2-0.1,0.4-0.2,0.6-0.4c0,0,0.1,0,0.1-0.1c0.2-0.1,0.4-0.3,0.5-0.5c0,0,0-0.1,0.1-0.1c0.2-0.2,0.3-0.4,0.4-0.6c0,0,0-0.1,0-0.1
			c0.1-0.2,0.2-0.5,0.3-0.8c0,0,0,0,0-0.1c0.1-0.3,0.1-0.6,0.2-0.9l0,0c0,0,0,0,0,0s0,0,0,0l0,0c-0.2,0.1-0.4,0.2-0.6,0.2
			c-0.1,0-0.1,0-0.2,0.1c-0.1,0-0.3,0.1-0.4,0.1c-0.1,0-0.1,0-0.2,0c-0.1,0-0.3,0-0.4,0.1c-0.1,0-0.1,0-0.2,0c-0.2,0-0.4,0-0.6,0h0
			c0,0,0,0-0.1,0c-0.1,0-0.1,0-0.2,0l0,0c-0.1,0-0.3,0-0.4,0c-0.1,0-0.1,0-0.2,0c-0.1,0-0.1,0-0.2,0c-0.2,0-0.3,0-0.5-0.1
			c0,0,0,0,0,0s0,0,0,0c-0.5-0.1-1-0.1-1.5-0.1c-0.2,0-0.4,0-0.5,0s-0.3,0-0.5,0c-0.2,0-0.4,0-0.6,0c-0.2,0-0.4,0-0.6,0
			c-0.1,0-0.2,0-0.2,0c-0.3,0-0.6,0-0.9,0c-0.2,0-0.4,0-0.7,0c-0.3,0-0.6,0-0.9,0c-0.5,0-0.9,0-1.4,0c-0.3,0-0.6,0-0.9,0
			c-0.5,0-0.9,0-1.4,0.1c-0.3,0-0.6,0-0.8,0.1c-0.5,0-1,0.1-1.5,0.1c-0.2,0-0.5,0-0.7,0.1c-0.7,0.1-1.4,0.1-2.1,0.2l0,0l0,0
			c-1.1-2.4-3.5-3.9-6.1-3.9c-0.4,0-0.8,0-1.2,0.1c-0.3,0.1-0.7,0.2-1,0.3c-0.8,0.3-1.6,0.8-2.3,1.4c-0.4-0.3-0.8-0.6-1.3-0.9
			c-11.3-7.8-20.7-17-28-27.2l0,0l0,0c0.6-0.6,1.1-1.3,1.4-2c0.2-0.4,0.3-0.9,0.4-1.4c0.1-0.3,0.1-0.7,0.2-1l0,0l0,0c0,0,0,0,0,0
			c1.1-0.2,2.2-0.4,3.3-0.6c0.4-0.1,0.7-0.1,1.1-0.2c0.8-0.1,1.6-0.2,2.4-0.3c0.4-0.1,0.8-0.1,1.2-0.2c0.8-0.1,1.6-0.2,2.4-0.3
			c0.4,0,0.8-0.1,1.2-0.1c1-0.1,2-0.2,2.9-0.2c0.2,0,0.4,0,0.6-0.1c1.2-0.1,2.4-0.2,3.6-0.2c0.3,0,0.7,0,1,0c0.9,0,1.7-0.1,2.6-0.1
			c0.4,0,0.8,0,1.3,0c0.4,0,0.8,0,1.1,0c0.3,0,0.6,0,0.9,0c0.9,0,1.9,0,2.8,0c0.5,0,1.1,0,1.6,0c1,0,2,0.1,3.1,0.2
			c0.4,0,0.9,0,1.3,0.1c1.4,0.1,2.9,0.2,4.3,0.3c0.2,0,0.5,0.1,0.8,0.1c1.2,0.1,2.4,0.2,3.5,0.4c0.5,0.1,1,0.1,1.5,0.2
			c0.9,0.1,1.9,0.3,2.8,0.4c0.5,0.1,1.1,0.2,1.6,0.3c0.9,0.2,1.8,0.3,2.6,0.5c0.5,0.1,1,0.2,1.6,0.3c0.9,0.2,1.9,0.4,2.8,0.6
			c0.4,0.1,0.9,0.2,1.3,0.3c0.1,0,0.1,0,0.2,0c0.5,0.1,0.9,0.2,1.4,0.3c0.8,0.2,1.6,0.4,2.4,0.6h0c0.8,0.2,1.3,0.6,1.6,1.1
			c0.1,0.1,0.1,0.3,0.2,0.4c0.1,0.4,0.2,0.9,0.1,1.6c0.3-0.4,0.5-0.9,0.7-1.5C179.9,112.4,179.9,112.2,180,111.8z M130.6,63.8
			c1,0,1.9,0.4,2.6,1.1c0.7,0.7,1.1,1.6,1.1,2.6c0,0.8-0.2,1.5-0.6,2.1c-0.1,0.2-0.3,0.4-0.4,0.6c-0.7,0.7-1.6,1.1-2.6,1.1
			c-0.7,0-1.3-0.2-1.9-0.5c-0.2-0.1-0.3-0.2-0.5-0.3c-0.3-0.2-0.6-0.5-0.8-0.8c-0.3-0.4-0.5-0.8-0.6-1.3c-0.1-0.2-0.1-0.5-0.1-0.7
			C126.8,65.5,128.5,63.8,130.6,63.8z M144.6,144.7c0.2-0.4,0.4-0.9,0.8-1.2c0.4-0.4,0.8-0.6,1.2-0.8c0.4-0.2,0.9-0.3,1.4-0.3
			c2,0,3.7,1.7,3.7,3.7l0,0l0,0c0,1-0.4,1.9-1.1,2.6c-0.3,0.3-0.7,0.6-1.2,0.8c-0.2,0.1-0.4,0.2-0.7,0.2s-0.5,0.1-0.8,0.1l0,0l0,0
			c-0.4,0-0.7-0.1-1.1-0.2c-1.5-0.5-2.6-1.9-2.6-3.5C144.3,145.7,144.4,145.2,144.6,144.7z M105.8,108.4c0-1,0.4-1.9,1.1-2.6
			c0.3-0.3,0.8-0.6,1.2-0.8s0.9-0.3,1.4-0.3c1.3,0,2.4,0.7,3.1,1.6c0.3,0.4,0.5,0.8,0.6,1.3c0.1,0.2,0.1,0.5,0.1,0.8l0,0l0,0
			c0,0.8-0.2,1.5-0.6,2.1c-0.5,0.8-1.4,1.4-2.3,1.6c-0.2,0.1-0.5,0.1-0.7,0.1l0,0c-0.5,0-1-0.1-1.4-0.3s-0.8-0.5-1.2-0.8
			c-0.3-0.3-0.5-0.6-0.7-1C106,109.6,105.8,109,105.8,108.4L105.8,108.4L105.8,108.4z M120.1,55.7c0.1-0.1,0.1-0.2,0.2-0.3
			c0.1,0,0.1-0.1,0.2-0.1c0.2-0.2,0.5-0.3,0.8-0.4c0.1,0,0.2,0,0.3,0c0.1,0,0.2,0,0.4,0c0.2,0,0.5,0.1,0.7,0.3
			c0.5,0.3,0.8,0.9,0.8,1.5l0,0l0,0c0,0.1,0,0.2,0,0.4c-0.1,0.3-0.2,0.7-0.5,0.9c-0.3,0.3-0.8,0.5-1.3,0.5c-0.1,0-0.2,0-0.3,0
			c0,0-0.1,0-0.1,0c-0.3-0.1-0.7-0.2-0.9-0.5c-0.3-0.3-0.5-0.8-0.5-1.3C119.8,56.3,119.9,56,120.1,55.7z M97.4,73.8
			c0.2-0.1,0.5-0.3,0.7-0.4s0.4-0.3,0.6-0.5c1.1-1.1,1.7-2.5,1.7-4.1c0-0.5-0.1-1.1-0.2-1.6l0,0l0,0c4.8-2.7,10.1-5,15.7-7
			c0.6-0.2,1.2-0.4,1.8-0.6c0.1,0.1,0.1,0.1,0.2,0.2c0.1,0.1,0.2,0.2,0.3,0.3c0.2,0.2,0.4,0.4,0.7,0.5c0,0,0.1,0.1,0.1,0.1
			c0.2,0.2,0.5,0.3,0.7,0.4c0.1,0,0.1,0,0.1,0.1c0.3,0.1,0.5,0.2,0.8,0.2h0c0.3,0,0.6,0.1,0.8,0.1c0.1,0,0.1,0,0.2,0
			c0.2,0,0.4,0,0.7,0l0,0l0,0l0,0c0.4,0.5,0.8,1,1.2,1.5s0.8,1,1.2,1.4c-0.6,1-0.8,2.1-0.8,3.2c0,0.2,0,0.5,0,0.7
			c0,0.2,0.1,0.5,0.1,0.7l0,0l0,0c-0.8,0.5-1.5,0.9-2.2,1.4c-1.7,1.1-3.3,2.2-4.9,3.4c-1.2,0.8-2.3,1.7-3.4,2.6s-2.2,1.8-3.2,2.7
			c-0.3,0.3-0.7,0.6-1,0.9c-2,1.8-4,3.7-5.9,5.7c-0.7-0.3-1.5-0.4-2.3-0.4c-0.1,0-0.2,0-0.3,0c-0.2,0-0.3,0-0.5,0
			c-0.2-0.8-0.5-1.5-0.7-2.2s-0.4-1.4-0.6-2.1c-0.4-1.7-0.8-3.4-1.2-5.2C97.7,75.1,97.6,74.4,97.4,73.8L97.4,73.8L97.4,73.8z
			 M104.8,91.9c0,0.8-0.2,1.5-0.6,2.1c-0.3,0.4-0.6,0.7-1,1c-0.6,0.4-1.3,0.6-2.1,0.6s-1.5-0.2-2.1-0.6c-0.4-0.3-0.7-0.6-1-1
			c-0.4-0.6-0.6-1.3-0.6-2.1c0-0.2,0-0.5,0.1-0.7c0.1-0.7,0.5-1.4,1-1.9c0.2-0.2,0.4-0.3,0.6-0.5c0.4-0.3,0.8-0.4,1.3-0.6
			c0.2-0.1,0.5-0.1,0.7-0.1c1,0,1.9,0.4,2.6,1.1c0.3,0.3,0.6,0.8,0.8,1.2C104.7,90.9,104.8,91.4,104.8,91.9z M92.7,66.8
			c0.1-0.1,0.3-0.2,0.4-0.3c0.4-0.3,1-0.5,1.5-0.5c0.3,0,0.6,0.1,0.9,0.2c0.1,0.1,0.3,0.1,0.4,0.2c0.2,0.1,0.3,0.2,0.4,0.3
			c0.1,0.1,0.2,0.1,0.2,0.2c0.5,0.5,0.8,1.2,0.8,1.9l0,0l0,0c0,0.2,0,0.4-0.1,0.5c-0.1,0.5-0.4,1-0.8,1.4c-0.5,0.5-1.2,0.8-1.9,0.8
			l0,0c-0.7,0-1.4-0.3-1.9-0.8c-0.1-0.1-0.2-0.2-0.3-0.3c-0.1-0.2-0.2-0.4-0.3-0.6c-0.1-0.3-0.2-0.7-0.2-1.1
			C91.9,68,92.2,67.3,92.7,66.8z M61.5,105.1c0-0.9,0.4-1.6,1-2.1c0.5-0.4,1.1-0.6,1.7-0.6c0.5,0,1,0.2,1.4,0.4
			c0.8,0.5,1.4,1.4,1.4,2.4c0,1.1-0.7,2.1-1.7,2.5c-0.3,0.1-0.7,0.2-1.1,0.2c-0.8,0-1.5-0.3-2-0.8c-0.1-0.1-0.2-0.3-0.3-0.4
			C61.6,106.2,61.5,105.7,61.5,105.1L61.5,105.1L61.5,105.1z M76.3,114c-0.7,1.2-1,2.6-1,4c0,0.9,0.1,1.8,0.4,2.7l0,0l0,0
			c-3.6,2.2-7.1,4.5-10.5,7.1c-2.2,1.6-4.4,3.3-6.5,5.1l0,0l0,0c1.1-7.9,2.8-15.3,5.2-22.1l0,0c0.2,0,0.3,0,0.5,0c0.1,0,0.2,0,0.3,0
			c0.1,0,0.2,0,0.3,0c0.1,0,0.2,0,0.3-0.1c0.1,0,0.2-0.1,0.3-0.1c0.1,0,0.2-0.1,0.3-0.1c0.1,0,0.2-0.1,0.3-0.1
			c0.1,0,0.2-0.1,0.3-0.1c0.1-0.1,0.2-0.1,0.3-0.2c0.1,0,0.2-0.1,0.2-0.1c0.1-0.1,0.2-0.1,0.3-0.2c0.1-0.1,0.1-0.1,0.2-0.1
			c0.1-0.1,0.2-0.2,0.3-0.3c0.1-0.1,0.1-0.1,0.2-0.1c0.2-0.2,0.3-0.3,0.4-0.5c1.9,1.2,3.9,2.5,5.8,3.9C75,113.1,75.7,113.6,76.3,114
			L76.3,114L76.3,114z M70.3,105.8c-0.1-0.1-0.3-0.2-0.4-0.2l0,0l0,0c0-0.1,0-0.3,0-0.4c0-0.2,0-0.4,0-0.6s-0.1-0.4-0.1-0.6
			c-0.2-1.2-0.8-2.2-1.7-3l0,0l0,0c1.6-3.2,3.4-6.2,5.3-9.2c0.7-1,1.3-1.9,2-2.8c2.8-3.7,5.8-7.2,9.1-10.3c1.5-1.4,3.1-2.8,4.7-4.1
			c0.6-0.4,1.1-0.9,1.7-1.3l0,0l0,0c0.3,0.2,0.6,0.4,0.9,0.6c0.7,0.3,1.3,0.6,2.1,0.7c0.1,0.6,0.2,1.1,0.3,1.7
			c0.4,1.9,0.8,3.7,1.3,5.6c0.2,0.8,0.4,1.5,0.7,2.3c0.2,0.8,0.5,1.6,0.8,2.5l0,0l0,0c-0.3,0.2-0.5,0.4-0.7,0.6
			c-0.3,0.3-0.6,0.7-0.8,1c-0.2,0.4-0.4,0.8-0.6,1.2c-0.2,0.6-0.4,1.2-0.5,1.9c0,0.2,0,0.4,0,0.7c0,0.9,0.2,1.8,0.5,2.6
			c0.1,0.3,0.2,0.5,0.4,0.8c-0.6,0.8-1.2,1.6-1.7,2.5c-1.1,1.5-2.1,3.1-3.1,4.6c-1.5,2.4-2.9,5-4.2,7.6h0c-0.4-0.1-0.7-0.2-1.1-0.2
			c-0.1,0-0.2,0-0.4,0c-0.2,0-0.5-0.1-0.8-0.1c-0.2,0-0.5,0-0.7,0c0,0-0.1,0-0.1,0c-0.3,0-0.6,0.1-0.9,0.1c-0.1,0-0.2,0-0.2,0.1
			c-0.2,0.1-0.5,0.1-0.7,0.2c-0.1,0-0.1,0-0.2,0.1c-0.3,0.1-0.6,0.2-0.8,0.3c-0.1,0-0.1,0.1-0.2,0.1c-0.2,0.1-0.4,0.2-0.7,0.3
			c-0.1,0-0.1,0.1-0.2,0.1c-0.3,0.2-0.5,0.3-0.8,0.5C75.8,109.4,73.1,107.5,70.3,105.8z M87.8,122c-1.1,1.1-2.5,1.6-3.9,1.6
			c-2.9,0-5.3-2.2-5.6-5c0-0.2,0-0.4,0-0.6c0-0.4,0-0.8,0.1-1.1c0.1-0.6,0.3-1.1,0.6-1.5c0.9-1.7,2.8-2.9,4.9-2.9
			c1.4,0,2.8,0.6,3.8,1.5c0.3,0.3,0.6,0.6,0.9,1c0.6,0.9,1,2,1,3.1C89.4,119.6,88.8,121,87.8,122z M89.3,111.5L89.3,111.5
			L89.3,111.5c2.5-4.8,5.3-9.5,8.5-13.8c0.3,0.2,0.6,0.3,0.8,0.4c0.1,0,0.2,0.1,0.3,0.1c0.2,0.1,0.4,0.1,0.6,0.2
			c0.1,0,0.2,0.1,0.3,0.1c0.2,0,0.4,0.1,0.6,0.1c0.1,0,0.2,0,0.3,0c0.3,0,0.6,0,0.9,0c0.9,1.8,1.8,3.7,2.8,5.5l0,0l0,0
			c-0.5,0.6-0.9,1.3-1.2,2s-0.4,1.5-0.4,2.3v0c-4.1,1.3-8.2,2.8-12.2,4.5c-0.2-0.2-0.4-0.5-0.6-0.7c0,0,0-0.1-0.1-0.1
			C89.8,111.9,89.6,111.7,89.3,111.5z M119.2,169.2c-0.7,0-1.3-0.3-1.8-0.7s-0.7-1.1-0.7-1.8c0-0.9,0.4-1.6,1.1-2.1
			c0.4-0.3,0.9-0.4,1.4-0.4c0.7,0,1.3,0.3,1.8,0.7c0.5,0.5,0.7,1.1,0.7,1.8c0,0.2,0,0.3-0.1,0.5c0,0.2-0.1,0.3-0.1,0.5
			c-0.1,0.3-0.3,0.6-0.6,0.8c-0.2,0.2-0.4,0.3-0.6,0.4C120,169.1,119.6,169.2,119.2,169.2z M141.6,144.1c-0.1,0.2-0.1,0.5-0.2,0.8
			c-0.1,0.4-0.1,0.8-0.1,1.2c0,0.2,0,0.4,0,0.5c-1.1,0.4-2.1,0.9-3.1,1.3c-0.7,0.3-1.3,0.6-1.9,1c-1.4,0.8-2.8,1.6-4.2,2.5
			c-0.7,0.5-1.3,0.9-2,1.4c-1,0.8-1.9,1.6-2.9,2.4c-0.9,0.8-1.8,1.6-2.6,2.5c0,0,0,0,0,0c-1.2,1.2-2.2,2.5-3.3,3.8l0,0l0,0
			c-0.1,0-0.2-0.1-0.3-0.1c-0.6-0.2-1.2-0.3-1.8-0.3c-0.1,0-0.1,0-0.2,0c-0.1,0-0.1,0-0.2,0C111,146,101.7,133,91.2,122.5l0,0l0,0
			c0.1-0.2,0.2-0.5,0.3-0.7c0.2-0.5,0.4-0.9,0.6-1.4c0.2-0.7,0.3-1.5,0.3-2.3c0-0.5-0.1-1.1-0.2-1.6c0-0.1,0-0.2,0-0.2l0,0l0,0
			c3.6-1.5,7.2-2.9,11-4.1c0.2-0.1,0.5-0.2,0.7-0.2l0,0l0,0c0.8,1.3,2.1,2.3,3.5,2.8c0.5,0.2,1,0.3,1.5,0.3l1.3,0v0l0,0
			c0.1,0,0.2,0,0.3-0.1c0.2,0,0.4-0.1,0.6-0.1c2.9,4.1,6.1,8,9.7,11.7c1.3,1.3,2.6,2.6,3.9,3.9C129.8,135.4,135.5,140,141.6,144.1z"
			/>
		<path class="st2" d="M180.5,109.9c-0.3-1.1-1.1-2-2.1-2.4c-0.9-0.3-2.2-0.7-2.3-0.7c-0.5-0.1-1-0.2-1.5-0.4
			c-0.5-0.1-0.9-0.2-1.4-0.3c-11.4-2.7-22.1-4-32.7-4c-8.3,0-16.4,0.8-24.7,2.4c-1.3-2.1-3.7-3.4-6.2-3.4c-0.6,0-1.2,0.1-1.8,0.2
			c-0.7-1.3-1.3-2.5-1.9-3.8c1.6-1.4,2.6-3.4,2.6-5.6c0-1.5-0.4-2.9-1.3-4.2c1.9-2,3.9-3.8,5.9-5.6c3.8-3.3,8-6.4,12.5-9.2
			c1.4,1.3,3.1,2,5,2c1.2,0,2.4-0.3,3.5-0.9c6.3,4.9,13.4,8.5,21,10.8c4.6,1.4,8.6,2.2,13.2,2.6c0.5,0.1,1,0.1,1.5,0.1
			c0.4,0,0.8,0.1,1.2,0.1c0.2,0,0.5,0.1,0.8,0.1c0.2,0,0.5,0.1,0.8,0.2c0.8,0.2,1.7,0.6,1.9,1.1c0.1,0.2,0.3,0.3,0.5,0.3l0,0
			c0,0,0,0,0.1,0c0.1,0,0.1,0,0.2,0c0.3-0.1,0.5-0.3,0.5-0.6c0,0,0-0.1,0-0.1c-0.1-1.9-1.4-5.7-4.5-5.8c-0.9,0-2.3-0.2-3.9-0.4
			c-0.5-0.1-1.1-0.2-1.7-0.2c-3-0.5-6.5-1.2-9.2-2c-6.9-2.1-13.4-5.3-19.1-9.8c0.4-0.9,0.6-1.9,0.6-2.9c0-0.4,0-0.8-0.1-1.2
			c3.3-1.5,6.6-2.8,10-4c0.5-0.2,1.1-0.3,1.6-0.5c0.7-0.2,1.4-0.5,2.2-0.7c0,0,0.6-0.2,1.4-0.3c0.2,0,0.4,0,0.6,0c0,0,0.1,0,0.1,0
			c0.7,0,1.4,0.2,1.9,0.5c0.1,0,0.2,0.1,0.3,0.1c0.1,0,0.1,0,0.2,0c0.1,0,0.2-0.1,0.2-0.2c0.2-0.2,0.3-0.5,0.1-0.8
			c-0.1-0.2-0.2-0.4-0.4-0.7c-1.2-1.9-3.2-3.1-5.4-3.1c-0.3,0-0.5,0-0.8,0.1c-0.2,0-0.4,0.1-0.7,0.1s-0.4,0.1-0.7,0.2
			c-0.9,0.3-1.9,0.6-3.1,1l0,0c-0.3,0.1-0.5,0.2-0.8,0.3c-0.1,0-0.2,0.1-0.4,0.1c-0.5,0.2-1.1,0.4-1.6,0.6c-2.4,0.9-5,2-7.3,3
			c-1.4-1.2-3.1-1.9-4.9-1.9c-1.1,0-2.2,0.3-3.2,0.8c-0.4-0.4-0.7-0.9-1.1-1.3c0.4-0.6,0.6-1.2,0.8-1.9c3.1-0.7,6.5-1.4,9.4-1.8
			c0.9-0.1,1.7-0.3,2.5-0.4c1-0.1,2-0.2,2.8-0.3c0.6,0,1.1-0.1,1.6-0.2c0.6-0.1,1.2-0.1,1.8-0.2c0.2,0,0.4,0,0.6,0
			c0.1,0,0.1,0,0.2,0l0,0c0.8,0,1.6,0.1,2.4,0.3c0.1,0,0.1,0,0.2,0c0.1,0,0.3,0,0.4-0.1c0.1-0.1,0.2-0.1,0.2-0.2
			c0.1-0.2,0.1-0.4,0-0.6c0-0.1-0.1-0.2-0.1-0.2c-1.6-1.6-4.5-3.4-8.6-3.4c-0.8,0-1.6,0.1-2.4,0.2l-0.6,0.1
			c-1.9,0.3-4.5,0.7-7.1,1.2c-1,0.2-2,0.4-3,0.6c-0.5,0.1-1,0.2-1.4,0.3c-0.3-0.3-0.7-0.7-1.1-0.9c-0.9-0.6-2-0.9-3.1-0.9
			c-0.4,0-0.8,0-1.2,0.1c-0.3-0.5-0.6-0.9-0.8-1.4c-0.5-0.9-1-1.7-1.3-2.2l-0.3-0.5c-0.8-1.5-2.1-2.2-3.7-2.2c-0.8,0-1.5,0.2-2,0.4
			c-0.4,0.2-0.7,0.3-0.9,0.4c-0.1,0-0.1,0.1-0.1,0.1c-0.1,0-0.1,0.1-0.2,0.2c-0.1,0.2-0.2,0.4-0.1,0.7c0,0.1,0.1,0.2,0.2,0.2
			c0.1,0.1,0.3,0.2,0.5,0.2c0.1,0,0.1,0,0.2,0c0,0,0.1,0,0.1,0c0.3,0,0.6,0.2,0.7,0.4c0.2,0.3,0.6,1,1,1.7c0,0,0,0,0,0.1l0,0
			c0,0.1,0.1,0.2,0.1,0.2c0.2,0.4,0.5,0.9,0.8,1.4c0.7,1.2,1.4,2.5,2.1,3.6c-0.2,0.4-0.3,0.8-0.4,1.2c-6.4,2.1-12.4,4.7-17.9,7.7
			c-0.5-0.3-1.1-0.6-1.7-0.8c-0.2-2.9-0.3-6.8-0.3-9.7c0-0.5,0-1,0-1.4c0-0.3,0-0.7,0-1c0-0.4,0-0.8,0-1c0-0.2,0-0.3,0-0.3
			c0.2-0.9,0.4-1.2,0.4-1.3c0.2-0.1,0.4-0.3,0.4-0.6v0c0,0,0-0.1,0-0.1c0-0.3-0.3-0.5-0.6-0.6c0,0-0.1,0-0.1,0c0,0-0.1,0-0.1,0
			c-0.2,0-4.7,0.6-4.9,3.7c0,0.3,0,1.3-0.1,2.6c0,0.4,0,0.9,0,1.4c0,2.6,0.1,6,0.3,8.6c-2.2,1.1-3.6,3.3-3.6,5.8
			c0,0.4,0,0.8,0.1,1.2c-2.4,1.8-4.6,3.6-6.7,5.6C74.7,82,69,89.8,64.5,98.7c-0.1,0-0.2,0-0.3,0c-1.2,0-2.4,0.3-3.4,1
			c-3-1.4-5.3-2.5-7.9-3.4c-0.4-0.2-0.8-0.3-1.3-0.5c-0.1,0-0.1-0.1-0.2-0.1c-0.2-0.1-1.1-0.5-2.4-0.9c-0.2-0.1-0.5-0.1-0.7-0.1
			c-1,0-2.2,0.6-2.9,1.5c-0.7,0.8-1.4,2.3-0.9,4.5c0,0.1,0,0.1,0.1,0.2c0.1,0.2,0.3,0.3,0.5,0.3c0,0,0.1,0,0.1,0
			c0.1,0,0.2,0,0.2-0.1c0.1-0.1,0.2-0.1,0.3-0.2l0-0.1c0.3-0.5,0.8-1.2,2-1.2c0.2,0,0.3,0,0.5,0.1c0.4,0.1,0.8,0.1,1.2,0.3
			c0.3,0.1,0.7,0.2,1.1,0.4c0.4,0.2,0.8,0.3,1.3,0.5c1.8,0.8,4.2,1.8,6.2,2.7c-0.1,0.5-0.2,0.9-0.2,1.4c0,1.8,0.8,3.5,2.1,4.7
			c-2.5,7.2-4.3,15.1-5.4,23.4c-0.1,0.9-0.2,1.9-0.3,2.8c0,0,0,0,0,0c-0.3,0.3-0.6,0.6-0.9,0.8c-0.5,0.5-1,1-1.4,1.3
			c0,0-0.1,0.1-0.1,0.1c-0.2,0.1-0.5,0.2-0.9,0.2c-0.6,0-1.3-0.2-1.7-1.3c-0.1-0.2-0.2-0.3-0.4-0.4l0,0c-0.1,0-0.2-0.1-0.2-0.1
			c0,0,0,0-0.1,0c-0.2,0-0.4,0.1-0.5,0.3c0,0.1-0.1,0.2-0.1,0.2c-0.3,1.8,0.1,3.5,1.1,4.7c0.8,1,2,1.6,3.1,1.6
			c0.6,0,1.1-0.2,1.5-0.5c0,0,0,0.1,0,0.1c0,0-0.1,0.9-0.2,2c-0.2,2.6,2,5,3.9,5.8c0.2,0.1,0.3,0.1,0.4,0.2c0.1,0,0.1,0,0.2,0
			c0.2,0,0.3-0.1,0.5-0.2c0.1-0.1,0.1-0.2,0.2-0.3l0,0c0-0.1,0-0.2,0-0.4c-0.3-1.2-0.4-2.1-0.4-2.6l0,0c0-0.3,0-0.4,0-0.4
			c0-0.1,0-0.2,0-0.3c0-0.9,0.1-1.8,0.1-2.6c0-0.9,0.1-1.7,0.1-2.5c0.1-1.3,0.2-2.4,0.3-3.6c4.9-4.3,10.1-8.3,15.4-11.7
			c1-0.7,2.1-1.3,3.2-2c0.5,0.5,1,0.9,1.6,1.2c-3.7,11.5-5.5,21.4-6.1,33.5c0,0.5,0,1.1-0.1,1.6c0,0.3,0,0.6,0,1c0,0,0,0.8-0.1,3.7
			c0,1.2,0.4,2.3,1.3,3.2c1,1.1,2.7,1.7,4.2,1.7c0.1,0,0.2,0,0.4,0c0,0,0.1,0,0.1,0c0.2,0,0.4-0.2,0.5-0.4c0-0.1,0.1-0.2,0-0.3v0
			c0-0.1-0.1-0.3-0.2-0.4c-1.5-1.4-1.5-2.5-1.5-2.6c0,0,0,0,0-0.1c0-0.2,0-0.5,0-0.7c0-0.5,0-1,0-1.6c0-0.5,0-1,0-1.6
			c0.4-12.8,2.4-24.8,5.9-35.7c0.1,0,0.2,0,0.3,0c1.7,0,3.5-0.5,4.9-1.4c9.8,10,18.6,22.2,26.1,36.5c-1.1,1.1-1.8,2.7-1.8,4.3
			c0,1.6,0.6,3.1,1.7,4.2c-0.5,1.1-0.9,1.9-1.3,2.7c-0.2,0.5-0.4,0.9-0.6,1.3c-0.1,0.1-0.1,0.2-0.1,0.4c-0.4,1.1-0.5,1.5-2.2,1.6
			c-0.1,0-0.2,0-0.3,0.1c-0.1,0.1-0.2,0.1-0.2,0.2c-0.1,0.2-0.1,0.4-0.1,0.6c0,0.1,0.1,0.1,0.1,0.2c0.5,1.3,2.2,1.8,3.6,1.8
			c1.2,0,2.6-0.4,3.1-1.3c0.5-1.1,0.8-1.9,0.9-1.9c0.3-0.9,0.6-1.4,0.8-1.9c0.2-0.4,0.4-0.9,0.7-1.4c0.1-0.1,0.1-0.2,0.2-0.4h0.8
			l0.1,0.2c0,0,0,0,0,0c0.2,0.6,0.4,0.8,0.6,1.3c0.1,0.3,0.3,0.6,0.5,1.1c0,0,0.4,0.9,1,2.2c0.8,2,2.3,2.3,3.1,2.3
			c1.6,0,3.3-1.2,3.8-2.5c0-0.1,0.1-0.2,0.1-0.2c0-0.2,0-0.4-0.2-0.6c-0.1-0.1-0.2-0.1-0.3-0.2c-0.1,0-0.1-0.1-0.2-0.1
			c0,0,0,0-0.1,0l0,0c-0.7,0-1.8-1.4-2.5-2.4c-0.1-0.2-0.2-0.4-0.2-0.5c-0.2-0.5-0.4-0.9-0.5-1.3c-0.2-0.4-0.4-0.8-0.6-1.3l-0.2-0.4
			c0.8-1.1,1.3-2.4,1.3-3.8c0-0.9-0.2-1.9-0.7-2.8c3.8-4.8,8.3-8.6,13.5-11.3c1.3-0.7,2.6-1.3,4.1-1.9c1.4,1.7,3.5,2.7,5.7,2.7
			c1.8,0,3.4-0.6,4.8-1.8c1.7,0.9,2.8,1.6,4.2,2.3c0.4,0.2,0.8,0.4,1.3,0.6c0.4,0.2,0.8,0.4,1.2,0.6c0,0,0.1,0,0.1,0
			c0.1,0.1,0.5,0.2,1.9,0.9c0.6,0.3,1.2,0.4,2,0.4c2.3,0,4.8-1.5,5-3.9l0,0c0-0.2-0.1-0.5-0.3-0.6c-0.1-0.1-0.2-0.1-0.4-0.1
			c0,0,0,0,0,0c-0.1,0-0.2,0-0.3,0.1c-0.5,0.2-1.1,0.3-1.7,0.3c-0.4,0-0.9-0.1-1.3-0.2l0,0c-0.3-0.1-0.6-0.2-0.9-0.3
			c-0.1-0.1-0.3-0.2-0.6-0.3c-0.4-0.2-0.9-0.5-1.6-0.8c-0.4-0.2-0.8-0.4-1.2-0.6c-1.6-0.8-3.5-1.8-5.1-2.6c0,0,0-0.1,0-0.1
			c2.5-0.3,4.6-0.5,7.1-0.5c0.1,0,0.2,0,0.4,0c0.5,0,1.1,0,1.6,0c0.1,0,0.2,0,0.3,0c0.3,0,0.6,0,0.9,0c0.1,0,0.3,0,0.5,0
			c0,0,1.5,0.1,3.1,0.2c0.1,0,0.2,0,0.3,0c1.9,0,4.8-1.6,5-4.6c0-0.1,0-0.1,0-0.1c0-0.2-0.1-0.4-0.2-0.5c-0.1-0.1-0.3-0.1-0.4-0.1
			c0,0,0,0-0.1,0l0,0c-0.1,0-0.1,0-0.2,0c-0.9,0.4-1.6,0.5-2.4,0.5c-0.2,0-0.4,0-0.7,0l0,0c-0.3,0-0.6,0-0.9-0.1c-0.1,0-0.1,0-0.2,0
			c-0.7-0.1-1.4-0.1-2.1-0.1c-0.5,0-1-0.1-1.5-0.1c-0.8,0-1.5,0-2.3,0c-3.1,0-6.2,0.2-8.9,0.5c-1.3-2.4-3.8-3.9-6.5-3.9
			c-1.7,0-3.3,0.6-4.6,1.6c-11.4-7.8-20.9-16.9-28.3-27.2c0.9-1.1,1.5-2.4,1.7-3.9c7.5-1.5,15.6-2.2,24-2.2
			c11.2,0,22.4,1.3,32.6,3.8c0.5,0.1,0.9,0.2,1.4,0.3c0.4,0.1,0.9,0.2,1.3,0.3c0.3,0.1,0.6,0.2,0.9,0.2c0.1,0,0.3,0.1,0.4,0.1l0,0
			c0.9,0.3,1.1,0.9,1,2.2c0,0.2,0.1,0.4,0.2,0.5c0.1,0.1,0.1,0.1,0.2,0.2c0.1,0,0.2,0,0.2,0c0.1,0,0.2,0,0.3-0.1
			c0.1-0.1,0.2-0.1,0.2-0.2C180.4,113.5,181,111.6,180.5,109.9z M179.1,114.2c0.1-0.6,0-1.1-0.1-1.6c-0.1-0.1-0.1-0.3-0.2-0.4
			c-0.3-0.5-0.8-0.8-1.6-1.1h0c-0.8-0.2-1.6-0.4-2.4-0.6c-0.4-0.1-0.9-0.2-1.4-0.3c-0.1,0-0.1,0-0.2-0.1c-0.4-0.1-0.9-0.2-1.3-0.3
			c-0.9-0.2-1.8-0.4-2.8-0.6c-0.5-0.1-1-0.2-1.6-0.3c-0.9-0.2-1.8-0.3-2.6-0.5c-0.5-0.1-1.1-0.2-1.6-0.3c-0.9-0.2-1.9-0.3-2.8-0.4
			c-0.5-0.1-1-0.1-1.5-0.2c-1.2-0.2-2.4-0.3-3.5-0.4c-0.2,0-0.5-0.1-0.8-0.1c-1.4-0.1-2.9-0.2-4.3-0.3c-0.4,0-0.9-0.1-1.3-0.1
			c-1-0.1-2-0.1-3.1-0.2c-0.5,0-1.1,0-1.6,0c-0.9,0-1.9,0-2.8,0c-0.3,0-0.6,0-0.9,0c-0.4,0-0.8,0-1.1,0c-0.4,0-0.8,0-1.3,0
			c-0.9,0-1.7,0-2.6,0.1c-0.3,0-0.7,0-1,0c-1.2,0.1-2.4,0.1-3.6,0.2c-0.2,0-0.4,0-0.6,0.1c-1,0.1-2,0.2-2.9,0.2
			c-0.4,0-0.8,0.1-1.2,0.1c-0.8,0.1-1.6,0.2-2.4,0.3c-0.4,0.1-0.8,0.1-1.2,0.2c-0.8,0.1-1.6,0.2-2.4,0.3c-0.4,0.1-0.7,0.1-1.1,0.2
			c-1.1,0.2-2.2,0.4-3.3,0.6c0,0,0,0,0,0l0,0c0,0.3-0.1,0.7-0.2,1c-0.1,0.5-0.2,0.9-0.4,1.4c-0.3,0.7-0.8,1.4-1.4,2l0,0
			c7.3,10.2,16.7,19.4,28,27.2c0.4,0.3,0.8,0.6,1.3,0.9c0.7-0.6,1.4-1.1,2.3-1.4c0.3-0.1,0.6-0.2,1-0.3c0.4-0.1,0.8-0.1,1.2-0.1
			c2.6,0,5,1.6,6.1,3.9l0,0c0.7-0.1,1.4-0.2,2.1-0.2c0.2,0,0.5,0,0.7-0.1c0.5,0,1-0.1,1.5-0.1c0.3,0,0.6,0,0.8-0.1
			c0.5,0,0.9-0.1,1.4-0.1c0.3,0,0.6,0,0.9,0c0.5,0,0.9,0,1.4,0c0.2,0,0.4,0,0.5,0c0.1,0,0.2,0,0.4,0c0.2,0,0.4,0,0.7,0
			c0.3,0,0.6,0,0.9,0c0.1,0,0.2,0,0.2,0c0.2,0,0.4,0,0.6,0c0.2,0,0.4,0,0.6,0c0.2,0,0.3,0,0.5,0c0.2,0,0.4,0,0.5,0
			c0.5,0,1,0.1,1.5,0.1c0,0,0,0,0,0s0,0,0,0c0.2,0,0.4,0,0.5,0.1c0.1,0,0.1,0,0.2,0c0.1,0,0.1,0,0.2,0c0.1,0,0.3,0,0.4,0l0,0
			c0.1,0,0.1,0,0.2,0c0,0,0,0,0.1,0h0c0.2,0,0.4,0,0.6,0c0.1,0,0.1,0,0.2,0c0.1,0,0.3,0,0.4-0.1c0.1,0,0.1,0,0.2,0
			c0.1,0,0.3-0.1,0.4-0.1c0.1,0,0.1,0,0.2-0.1c0.2-0.1,0.4-0.1,0.6-0.2l0,0c0,0,0,0,0,0c0,0,0,0,0,0l0,0l0,0c0,0.3-0.1,0.6-0.2,0.9
			c0,0,0,0,0,0.1c-0.1,0.3-0.2,0.5-0.3,0.8c0,0,0,0.1,0,0.1c-0.1,0.2-0.3,0.4-0.4,0.6c0,0,0,0.1-0.1,0.1c-0.2,0.2-0.3,0.4-0.5,0.5
			c0,0-0.1,0-0.1,0.1c-0.2,0.1-0.4,0.3-0.6,0.4c0,0-0.1,0-0.1,0.1c-0.2,0.1-0.4,0.2-0.6,0.3c0,0-0.1,0-0.1,0
			c-0.2,0.1-0.4,0.1-0.6,0.2c0,0-0.1,0-0.1,0c-0.2,0-0.4,0.1-0.6,0.1c0,0,0,0,0,0c-0.1,0-0.1,0-0.2,0l0,0c-0.2,0-0.3,0-0.5,0
			c-0.4,0-0.9-0.1-1.2-0.1c-0.8-0.1-1.4-0.1-1.4-0.1c-0.5,0-1-0.1-1.5-0.1c-0.1,0-0.2,0-0.3,0c-0.4,0-0.9,0-1.3,0
			c-0.1,0-0.1,0-0.2,0c-0.2,0-0.3,0-0.5,0c-0.2,0-0.4,0-0.6,0c-0.1,0-0.2,0-0.2,0c-0.4,0-0.8,0-1.2,0c-0.1,0-0.2,0-0.2,0
			c-0.3,0-0.6,0-1,0.1c-0.1,0-0.2,0-0.3,0c-0.4,0-0.8,0.1-1.2,0.1c-0.1,0-0.1,0-0.2,0c-0.4,0-0.7,0.1-1.1,0.1c-0.1,0-0.2,0-0.3,0
			c-0.4,0.1-0.9,0.1-1.4,0.2c0,0.2-0.1,0.4-0.1,0.6c0,0.1,0,0.3-0.1,0.4l0,0c0.3,0.2,0.6,0.3,0.9,0.5c0.1,0.1,0.3,0.1,0.4,0.2
			c1.2,0.6,2.5,1.3,3.7,1.9c0.2,0.1,0.4,0.2,0.6,0.3c0.3,0.1,0.5,0.3,0.8,0.4c0.1,0,0.1,0.1,0.2,0.1c0.2,0.1,0.5,0.2,0.7,0.4
			c0.7,0.3,1.2,0.6,1.5,0.8c0.2,0.1,0.4,0.2,0.6,0.2c0.1,0,0.1,0,0.2,0.1c0.1,0,0.3,0.1,0.4,0.1c0.1,0,0.1,0,0.2,0.1s0.2,0,0.2,0
			l0,0c0,0,0.1,0,0.1,0c0.1,0,0.2,0,0.2,0c0.1,0,0.2,0,0.4,0c0,0,0.1,0,0.1,0c0,0,0.1,0,0.1,0c0.3,0,0.6,0,0.9-0.1c0,0,0.1,0,0.1,0
			c0.3-0.1,0.6-0.1,0.9-0.3l0,0l0,0c0,0.2-0.1,0.4-0.1,0.6c0,0.1,0,0.1-0.1,0.1c-0.1,0.2-0.2,0.4-0.3,0.6c0,0,0,0,0,0.1
			c-0.1,0.2-0.2,0.3-0.4,0.5c0,0-0.1,0.1-0.1,0.1c-0.1,0.1-0.3,0.3-0.5,0.4c0,0-0.1,0-0.1,0.1c-0.2,0.1-0.3,0.2-0.5,0.3
			c0,0-0.1,0-0.1,0.1c-0.2,0.1-0.4,0.2-0.6,0.2c0,0-0.1,0-0.1,0c-0.2,0.1-0.4,0.1-0.6,0.1c0,0-0.1,0-0.1,0c-0.2,0-0.4,0.1-0.6,0.1
			c0,0,0,0-0.1,0s-0.1,0-0.1,0c-0.3,0-0.5,0-0.8-0.1c0,0-0.1,0-0.1,0c-0.3-0.1-0.5-0.1-0.8-0.3l0,0c-0.1-0.1-0.2-0.1-0.3-0.2
			c-0.1-0.1-0.2-0.1-0.3-0.1c-0.1-0.1-0.2-0.1-0.2-0.1c-0.1-0.1-0.2-0.1-0.3-0.1c-0.1,0-0.1-0.1-0.2-0.1c-0.1,0-0.2-0.1-0.2-0.1
			c0,0,0,0-0.1,0c-0.1,0-0.1-0.1-0.2-0.1c0,0,0,0,0,0c-0.1-0.1-0.2-0.1-0.2-0.1l0,0h0l0,0l0,0l0,0c-2.9-1.4-4.3-2.2-7.1-3.8l0,0
			c-0.5,0.5-1.2,1-1.8,1.3c-0.9,0.4-1.8,0.6-2.8,0.6c-1.9,0-3.7-0.8-5-2.2c-0.2-0.2-0.4-0.4-0.5-0.6l0,0c-0.5,0.2-0.9,0.4-1.4,0.6
			c-1.1,0.5-2.2,1-3.2,1.5l0,0c-5.4,2.9-10.1,6.8-14,11.8l0,0c0.2,0.4,0.4,0.8,0.5,1.2c0.2,0.5,0.3,1.1,0.3,1.6c0,0.7-0.1,1.4-0.4,2
			c-0.2,0.6-0.6,1.2-1.1,1.7c0.5,1.1,0.8,1.7,1.1,2.4c0.1,0.3,0.2,0.6,0.4,0.9c0,0,0,0,0,0.1c0.1,0.2,0.2,0.4,0.3,0.6
			c0,0,0.1,0.1,0.1,0.2c0,0,0,0,0,0.1c0,0,0,0.1,0.1,0.1s0,0.1,0.1,0.1s0.1,0.1,0.1,0.1c0,0,0.1,0.1,0.1,0.1c0,0,0.1,0.1,0.1,0.1
			c0,0.1,0.1,0.1,0.1,0.1c0,0,0.1,0.1,0.1,0.1c0,0.1,0.1,0.1,0.1,0.1c0,0,0.1,0.1,0.1,0.1c0,0.1,0.1,0.1,0.1,0.1
			c0,0,0.1,0.1,0.1,0.1c0,0.1,0.1,0.1,0.1,0.1c0,0,0.1,0.1,0.1,0.1c0.1,0.1,0.1,0.1,0.1,0.1c0,0,0.1,0.1,0.1,0.1
			c0.1,0,0.1,0.1,0.1,0.1c0,0,0.1,0.1,0.1,0.1c0.1,0,0.1,0.1,0.2,0.1c0,0,0.1,0.1,0.1,0.1c0.1,0,0.1,0.1,0.2,0.1c0,0,0.1,0,0.1,0.1
			c0.1,0,0.1,0.1,0.2,0.1c0,0,0.1,0,0.1,0c0.1,0,0.1,0,0.1,0c0,0,0.1,0,0.1,0c0,0,0.1,0,0.1,0s0.1,0,0.1,0c0,0.1-0.1,0.2-0.1,0.4
			c0,0,0,0.1-0.1,0.1c-0.1,0.1-0.1,0.2-0.2,0.2c0,0-0.1,0.1-0.1,0.1c-0.1,0.1-0.1,0.1-0.2,0.2c0,0-0.1,0.1-0.1,0.1
			c-0.1,0.1-0.2,0.1-0.2,0.2c0,0-0.1,0.1-0.1,0.1c-0.1,0.1-0.2,0.2-0.4,0.2c0,0,0,0-0.1,0c-0.2,0.1-0.3,0.1-0.5,0.2
			c-0.1,0-0.1,0-0.2,0.1c-0.1,0-0.2,0.1-0.3,0.1c-0.1,0-0.1,0-0.2,0c-0.1,0-0.2,0-0.3,0c0,0-0.1,0-0.1,0s-0.1,0-0.1,0
			c-0.1,0-0.1,0-0.1,0c-0.1,0-0.2,0-0.3-0.1c0,0-0.1,0-0.1,0c-0.1,0-0.3-0.1-0.4-0.1c0,0,0,0,0,0c-0.1-0.1-0.2-0.1-0.3-0.2
			c0,0,0,0-0.1-0.1c0,0-0.1-0.1-0.1-0.1c-0.1-0.1-0.2-0.1-0.2-0.2c0,0-0.1-0.1-0.1-0.1c-0.1-0.1-0.1-0.2-0.2-0.3
			c0-0.1-0.1-0.1-0.1-0.1c-0.1-0.2-0.2-0.3-0.2-0.5l0,0c-0.2-0.5-0.4-0.9-0.5-1.3c-0.1-0.2-0.2-0.4-0.3-0.6
			c-0.1-0.1-0.1-0.2-0.2-0.3c0,0,0,0,0,0c-0.2-0.4-0.3-0.7-0.4-0.9c-0.2-0.5-0.3-0.8-0.6-1.3c-0.1-0.2-0.2-0.5-0.4-0.9
			c-0.1,0-0.1,0-0.2,0c-0.1,0-0.1,0-0.2,0l0,0v0l0,0h-1.2c-0.3,0.7-0.6,1.1-0.8,1.6c-0.1,0.3-0.2,0.6-0.4,0.8
			c-0.1,0.3-0.3,0.6-0.4,1c-0.1,0.2-0.2,0.4-0.3,0.6c0,0-0.2,0.4-0.5,1.1c-0.1,0.2-0.2,0.5-0.3,0.8c0,0.1-0.1,0.1-0.2,0.2
			c0,0-0.1,0-0.1,0.1l0,0c0,0-0.1,0.1-0.1,0.1c0,0-0.1,0-0.1,0.1c-0.1,0-0.1,0.1-0.2,0.1c0,0-0.1,0-0.1,0.1c-0.1,0-0.1,0.1-0.2,0.1
			c-0.1,0-0.1,0-0.2,0.1c-0.1,0-0.1,0-0.2,0.1c-0.1,0-0.1,0-0.2,0c-0.1,0-0.2,0-0.2,0c-0.1,0-0.1,0-0.2,0c-0.1,0-0.2,0-0.2,0
			c-0.1,0-0.1,0-0.2,0c0,0-0.1,0-0.1,0c0,0-0.1,0-0.1,0c-0.1,0-0.2,0-0.3,0c-0.1,0-0.1,0-0.2,0c-0.1,0-0.2,0-0.3,0
			c-0.1,0-0.1,0-0.2,0c-0.1,0-0.2,0-0.2-0.1c-0.1,0-0.1,0-0.2-0.1c-0.1,0-0.2-0.1-0.2-0.1c-0.1,0-0.1-0.1-0.2-0.1
			c-0.1,0-0.1-0.1-0.2-0.1c-0.1,0-0.1-0.1-0.2-0.1c-0.1-0.1-0.1-0.1-0.2-0.1c0,0-0.1-0.1-0.1-0.1c-0.1-0.1-0.1-0.1-0.2-0.2
			c0,0-0.1-0.1-0.1-0.1c-0.1-0.1-0.1-0.2-0.2-0.4l0,0l0,0c1.1-0.1,1.7-0.4,2.1-0.8c0.2-0.2,0.3-0.4,0.4-0.7c0.1-0.2,0.2-0.4,0.3-0.6
			c0.3-0.9,0.8-2,1.4-3.3c0.1-0.2,0.2-0.4,0.3-0.7s0.2-0.5,0.4-0.8c-0.1-0.1-0.3-0.3-0.4-0.4c-0.3-0.3-0.5-0.6-0.7-0.9
			c-0.2-0.4-0.4-0.8-0.5-1.2c-0.1-0.2-0.1-0.5-0.2-0.7s-0.1-0.5-0.1-0.8l0,0c0-0.4,0-0.8,0.1-1.2c0.1-0.6,0.3-1.1,0.7-1.6
			s0.7-1,1.1-1.4l0,0c-1.9-3.7-3.9-7.2-6-10.6c-1-1.7-2.1-3.4-3.2-5c-1.9-2.9-3.8-5.6-5.8-8.2c-3.7-4.9-7.7-9.5-11.8-13.7l0,0
			c-0.5,0.3-1,0.6-1.5,0.8c-1.1,0.5-2.3,0.8-3.5,0.8c-0.2,0-0.5,0-0.8,0l0,0c-1.9,5.8-3.4,12-4.4,18.4c-0.9,5.6-1.5,11.5-1.7,17.6
			c0,0.5,0,1.1,0,1.6c0,0.7-0.1,1.4-0.1,2.1c0,0.2,0,0.4,0,0.6c0,0,0,0,0,0.1l0,0c0,0.1,0,0.2,0.1,0.4c0,0.2,0.1,0.4,0.2,0.6
			c0.1,0.1,0.1,0.3,0.2,0.5c0.2,0.4,0.6,0.9,1.2,1.5l0,0c-0.1,0-0.2,0-0.3,0c0,0,0,0-0.1,0c-0.1,0-0.1,0-0.2,0c-0.1,0-0.2,0-0.2,0
			c-0.1,0-0.1,0-0.2,0c-0.1,0-0.2,0-0.2,0s-0.1,0-0.2,0c-0.1,0-0.2,0-0.2-0.1s-0.1,0-0.2-0.1c-0.1,0-0.2-0.1-0.2-0.1
			c-0.1,0-0.1-0.1-0.2-0.1c-0.1,0-0.2-0.1-0.2-0.1s-0.1-0.1-0.2-0.1c-0.1,0-0.1-0.1-0.2-0.1c-0.1,0-0.1-0.1-0.2-0.1
			c-0.1,0-0.1-0.1-0.2-0.1c-0.1,0-0.1-0.1-0.2-0.1c0,0-0.1-0.1-0.1-0.1c0,0-0.1-0.1-0.1-0.1c-0.1,0-0.1-0.1-0.2-0.1
			c-0.1-0.1-0.1-0.1-0.2-0.2c-0.1-0.1-0.1-0.1-0.2-0.1c-0.1-0.1-0.1-0.1-0.2-0.2c0-0.1-0.1-0.1-0.1-0.2c-0.1-0.1-0.1-0.1-0.1-0.2
			c0-0.1-0.1-0.1-0.1-0.2c0-0.1-0.1-0.1-0.1-0.2c0-0.1-0.1-0.1-0.1-0.2c0-0.1-0.1-0.2-0.1-0.3c0-0.1,0-0.1-0.1-0.2
			c0-0.1,0-0.2-0.1-0.3c0-0.1,0-0.1,0-0.2c0-0.2,0-0.3,0-0.5l0,0l0,0c0-0.7,0-1.3,0-1.8c0-1,0-1.5,0-1.7c0-0.1,0-0.2,0-0.2
			c0-0.2,0-0.3,0-0.5c0-0.6,0-1.1,0.1-1.6c0.1-1.1,0.1-2.1,0.2-3.1c0.5-7.5,1.5-14.1,3.1-20.8c0.3-1.1,0.5-2.1,0.8-3.2
			c0.2-0.9,0.5-1.8,0.8-2.8c0.4-1.5,0.9-3,1.4-4.5c-0.8-0.5-1.6-1.1-2.3-1.8c-0.9,0.5-1.8,1.1-2.6,1.6c-0.4,0.2-0.8,0.5-1.1,0.7
			c-5.4,3.5-10.7,7.5-15.7,11.9c-0.2,2-0.3,4.1-0.5,6.6c0,0.4,0,0.8-0.1,1.2c0,0.4,0,0.8,0,1.2c0,0,0,0.1,0,0.1c0,0,0,0.2,0,0.5
			c0,0.6,0.1,1.6,0.4,2.8l0,0c-0.1,0-0.2-0.1-0.3-0.1c-0.1,0-0.1-0.1-0.2-0.1c-0.7-0.4-1.6-1-2.2-1.8c-0.6-0.8-1.1-1.8-1.2-2.8
			c0-0.2,0-0.3,0-0.5c0,0,0-0.1,0-0.1c0-0.5,0.1-1,0.1-1.4c0-0.4,0.1-0.6,0.1-0.6c0-0.6,0.1-1.2,0.1-1.7l0,0c0,0,0,0,0,0
			c0,0,0,0-0.7,0.6c-0.1,0.1-0.2,0.2-0.3,0.3c-0.1,0.1-0.2,0.2-0.3,0.2c0,0-0.1,0-0.1,0.1c-0.1,0-0.2,0.1-0.2,0.1c0,0-0.1,0-0.1,0
			c-0.1,0-0.2,0-0.2,0.1c0,0-0.1,0-0.2,0c0,0-0.1,0-0.1,0c0,0-0.1,0-0.1,0s-0.1,0-0.1,0c-0.1,0-0.2,0-0.3-0.1c0,0,0,0-0.1,0
			c-0.1,0-0.3-0.1-0.4-0.1c0,0-0.1,0-0.1-0.1c-0.1-0.1-0.2-0.1-0.3-0.1c0,0-0.1-0.1-0.1-0.1c-0.1-0.1-0.2-0.1-0.3-0.2
			c0,0-0.1-0.1-0.1-0.1c-0.1-0.1-0.2-0.2-0.4-0.3c0,0,0,0,0,0c-0.1-0.1-0.1-0.1-0.2-0.2c0,0-0.1-0.1-0.1-0.1c0,0-0.1-0.1-0.1-0.1
			c-0.1-0.1-0.1-0.2-0.2-0.3c0-0.1-0.1-0.1-0.1-0.2c-0.1-0.1-0.1-0.3-0.2-0.4c0,0,0-0.1,0-0.1c-0.1-0.2-0.1-0.4-0.2-0.6
			c0-0.1,0-0.1,0-0.1c0-0.1,0-0.3-0.1-0.5c0-0.1,0-0.1,0-0.2c0-0.2,0-0.3,0-0.5c0-0.1,0-0.1,0-0.2c0-0.2,0-0.5,0.1-0.7l0,0l0,0l0,0
			c0.1,0.2,0.2,0.4,0.3,0.6c0,0,0,0.1,0.1,0.1c0.1,0.2,0.2,0.3,0.4,0.4c0,0,0,0,0.1,0.1c0.1,0.1,0.3,0.2,0.4,0.3c0,0,0,0,0.1,0
			c0.2,0.1,0.3,0.1,0.5,0.2c0,0,0.1,0,0.1,0c0.2,0,0.3,0.1,0.5,0.1h0c0,0,0,0,0,0c0.2,0,0.3,0,0.4,0c0,0,0,0,0,0c0,0,0.1,0,0.1,0
			c0.1,0,0.2-0.1,0.3-0.1c0,0,0.1,0,0.1,0c0.1-0.1,0.2-0.1,0.3-0.2c0.7-0.5,1.5-1.4,2.3-2.1c0.1-0.1,0.2-0.2,0.3-0.3
			c0.1-0.6,0.1-1.2,0.2-1.8c0.4-3,0.8-5.9,1.3-8.7c0.4-2.1,0.8-4.1,1.3-6.1c0.1-0.4,0.2-0.9,0.3-1.3c0.8-3,1.7-6,2.7-8.8
			c-0.7-0.5-1.2-1.2-1.6-2c-0.2-0.4-0.3-0.8-0.4-1.2s-0.2-0.8-0.2-1.3c0-0.3,0-0.6,0.1-0.8c0-0.1,0-0.2,0-0.2c0-0.2,0.1-0.5,0.2-0.7
			c-0.2-0.1-0.4-0.2-0.6-0.3c-2-1-4.4-2-6.2-2.7c-0.5-0.2-0.9-0.4-1.3-0.5c-0.2-0.1-0.5-0.2-0.7-0.3c-0.1,0-0.2-0.1-0.3-0.1
			c-0.2-0.1-0.4-0.1-0.5-0.2c0,0-0.1,0-0.2,0c-0.1,0-0.2-0.1-0.3-0.1c0,0-0.1,0-0.1,0c0,0,0,0-0.1,0c-0.1,0-0.2,0-0.3,0
			c-0.1,0-0.1,0-0.2,0c-0.1,0-0.2,0-0.2,0h0c-0.1,0-0.2,0-0.2,0l0,0c-0.1,0-0.2,0-0.3,0c0,0-0.1,0-0.1,0c-0.1,0-0.3,0.1-0.4,0.1
			c0,0,0,0,0,0c-0.1,0.1-0.2,0.1-0.4,0.2c0,0,0,0-0.1,0.1c-0.1,0.1-0.2,0.1-0.3,0.2c0,0,0,0,0,0c-0.1,0.1-0.2,0.2-0.2,0.2
			c0,0,0,0-0.1,0.1c-0.1,0.1-0.1,0.2-0.2,0.2c0,0,0,0,0,0c-0.1,0.1-0.1,0.2-0.2,0.2c0,0,0,0,0,0.1c0,0.1-0.1,0.1-0.1,0.1
			c0,0,0,0,0,0c0-0.2-0.1-0.5-0.1-0.7c0-0.1,0-0.1,0-0.2c0-0.2,0-0.4,0-0.5c0-0.1,0-0.2,0-0.2c0-0.1,0-0.2,0-0.3c0-0.1,0-0.2,0-0.2
			c0-0.1,0-0.2,0.1-0.3c0-0.1,0-0.1,0.1-0.2c0-0.1,0.1-0.2,0.1-0.3c0-0.1,0-0.1,0.1-0.2c0-0.1,0.1-0.2,0.1-0.3
			c0-0.1,0.1-0.1,0.1-0.2c0-0.1,0.1-0.2,0.2-0.2c0,0,0.1-0.1,0.1-0.1c0,0,0,0,0-0.1c0.1-0.1,0.1-0.1,0.2-0.2c0,0,0-0.1,0.1-0.1
			c0.1-0.1,0.2-0.2,0.3-0.3c0,0,0.1,0,0.1-0.1c0.1-0.1,0.2-0.1,0.2-0.2c0,0,0.1-0.1,0.1-0.1c0.1,0,0.1-0.1,0.2-0.1
			c0,0,0.1,0,0.1-0.1c0.1,0,0.1-0.1,0.2-0.1c0,0,0.1,0,0.1-0.1c0.1,0,0.1,0,0.2-0.1c0,0,0.1,0,0.1,0c0.1,0,0.1,0,0.2,0
			c0,0,0.1,0,0.1,0c0,0,0,0,0,0s0,0,0,0c0.2,0,0.3,0,0.5,0.1c0.7,0.2,1.3,0.4,1.7,0.6c0.4,0.2,0.7,0.3,0.7,0.3
			c3.5,1.3,6.1,2.4,9.7,4.1h0c0.3-0.2,0.6-0.4,0.8-0.5c0.1-0.1,0.2-0.1,0.3-0.1c0.2-0.1,0.4-0.2,0.6-0.2c0.1,0,0.2-0.1,0.4-0.1
			c0.2-0.1,0.4-0.1,0.6-0.1c0.1,0,0.2,0,0.4,0c0.1,0,0.1,0,0.2,0c0.2,0,0.5,0,0.7,0.1l0,0c4.4-8.9,10.2-16.8,17.2-23.4
			c2.2-2,4.4-3.9,6.9-5.8c-0.1-0.5-0.2-1-0.2-1.5c0-0.3,0-0.5,0.1-0.8c0-0.3,0.1-0.6,0.2-0.9c0.2-0.5,0.4-1.1,0.7-1.5
			c0.6-0.9,1.5-1.7,2.6-2.1l0,0c-0.2-2-0.2-4.6-0.3-6.9c0-0.7,0-1.3,0-1.9l0,0c0-2.1,0-3.8,0.1-4.2c0.1-0.8,0.5-1.4,1.1-1.9
			c0.3-0.3,0.7-0.5,1.1-0.7c0.3-0.1,0.5-0.2,0.8-0.3c0.1,0,0.2-0.1,0.3-0.1c0.6-0.1,1-0.2,1-0.2l0,0c0,0,0,0-0.1,0
			c-0.1,0-0.2,0.2-0.4,0.4c-0.1,0.2-0.2,0.4-0.3,0.8c0,0.2-0.1,0.4-0.1,0.6c0,0.2,0,0.4-0.1,0.7c0,0.7,0,1.7,0,3c0,0.1,0,0.2,0,0.3
			c0,0.2,0,0.5,0,0.7c0,0.7,0,1.3,0,2c0,0.4,0,0.7,0,1.1c0,0.4,0,0.7,0,1.1c0,0.4,0,0.8,0,1.1c0,0.7,0.1,1.4,0.1,2
			c0,0.7,0.1,1.3,0.1,2c0.2,0,0.4,0.1,0.6,0.2c0.2,0.1,0.4,0.2,0.6,0.2c0.4,0.2,0.7,0.4,1.1,0.7c2.8-1.6,5.8-3.1,8.9-4.4
			c1.6-0.7,3.1-1.3,4.7-1.9s3.2-1.2,4.9-1.7c0.1-0.6,0.2-1.2,0.5-1.8l0,0c-0.3-0.4-0.6-0.9-0.9-1.4c-0.1-0.2-0.2-0.3-0.3-0.5
			c-0.3-0.5-0.6-1-0.9-1.5c0,0,0,0,0-0.1c-0.3-0.5-0.5-0.9-0.7-1.3c0-0.1-0.1-0.1-0.1-0.2c-0.1-0.2-0.2-0.3-0.3-0.5
			c-0.1-0.2-0.3-0.5-0.4-0.7c-0.1-0.1-0.1-0.2-0.2-0.3c-0.2-0.3-0.3-0.5-0.4-0.7l0,0c-0.1-0.2-0.2-0.3-0.3-0.4c0,0-0.1,0-0.1-0.1
			c-0.1-0.1-0.2-0.1-0.2-0.2c0,0-0.1,0-0.1,0c-0.1,0-0.2-0.1-0.3-0.1c0,0,0,0,0,0c-0.1,0-0.2,0-0.2,0c0,0,0,0,0,0c0,0,0,0,0,0
			c-0.1,0-0.1,0-0.1,0c0,0,0,0,0,0s0,0,0,0c0,0,0,0,0,0l0,0l0,0c0,0,0,0,0,0c0,0,0,0,0,0c0,0,0,0,0,0c0,0,0.1,0,0.1,0
			c0,0,0.1,0,0.1,0c0,0,0.1,0,0.2-0.1c0,0,0.1,0,0.1,0c0.1,0,0.1,0,0.2-0.1c0,0,0.1,0,0.1,0c0,0,0,0,0.1,0c0.1,0,0.2,0,0.2-0.1
			c0.1,0,0.1,0,0.2,0c0.1,0,0.2,0,0.3-0.1c0.1,0,0.1,0,0.2,0c0.1,0,0.3,0,0.4-0.1c0,0,0.1,0,0.1,0c0.2,0,0.3,0,0.5,0c0,0,0,0,0,0
			c0.1,0,0.3,0,0.4,0c0,0,0,0,0.1,0c0.1,0,0.1,0,0.2,0c0.1,0,0.2,0,0.2,0c0.1,0,0.1,0,0.2,0c0.1,0,0.2,0.1,0.3,0.1
			c0.1,0,0.1,0,0.2,0.1c0.1,0,0.2,0.1,0.3,0.1c0.1,0,0.1,0.1,0.2,0.1c0.1,0.1,0.2,0.1,0.3,0.2c0.1,0,0.1,0.1,0.2,0.1
			c0.1,0.1,0.2,0.2,0.3,0.3c0,0,0.1,0.1,0.1,0.2c0.1,0.2,0.2,0.3,0.4,0.5l0,0c0.1,0.1,0.1,0.2,0.2,0.3s0.2,0.3,0.2,0.4
			c0.3,0.5,0.6,1.1,1,1.8c0.2,0.4,0.5,0.8,0.7,1.2c0,0,0.1,0.1,0.1,0.2c0.1,0.2,0.3,0.5,0.4,0.7l0,0c0.2-0.1,0.5-0.2,0.7-0.2
			c0.1,0,0.2,0,0.3,0c0.2,0,0.3,0,0.5,0h0c0.2,0,0.4,0,0.7,0c0.1,0,0.1,0,0.2,0c0.2,0,0.3,0.1,0.5,0.1c0.1,0,0.1,0,0.2,0.1
			c0.2,0.1,0.4,0.1,0.6,0.2c0,0,0,0,0,0c0.2,0.1,0.4,0.2,0.6,0.3c0.1,0,0.1,0.1,0.2,0.1c0.1,0.1,0.3,0.2,0.4,0.3
			c0.1,0,0.1,0.1,0.2,0.1c0.2,0.2,0.3,0.3,0.4,0.5l0,0l0,0c1-0.2,2.1-0.5,3.2-0.7c0,0,0.1,0,0.1,0c0.6-0.1,1.1-0.2,1.7-0.3
			c2.9-0.5,5.7-1,7.5-1.3l0,0c0.5-0.1,1-0.1,1.5-0.2c0.1,0,0.3,0,0.4,0c0.1,0,0.3,0,0.4,0c0.2,0,0.4,0,0.6,0c0.2,0,0.3,0,0.5,0
			c0.4,0,0.7,0.1,1.1,0.1c0.1,0,0.2,0,0.2,0c0.4,0.1,0.9,0.2,1.3,0.3c0.1,0,0.2,0.1,0.3,0.1c0.3,0.1,0.6,0.2,0.8,0.3
			c0.1,0.1,0.3,0.1,0.4,0.2c0.1,0,0.1,0.1,0.2,0.1c0.2,0.1,0.4,0.2,0.5,0.3c0.1,0.1,0.2,0.2,0.4,0.2c0.2,0.2,0.5,0.3,0.7,0.5
			c0.1,0.1,0.2,0.1,0.3,0.2c0.3,0.2,0.6,0.5,0.9,0.8l0,0c-0.3-0.1-0.6-0.1-0.9-0.2c-0.1,0-0.2,0-0.2,0c-0.2,0-0.4-0.1-0.6-0.1
			c-0.1,0-0.2,0-0.3,0c-0.2,0-0.4,0-0.5,0c-0.1,0-0.1,0-0.2,0c0,0,0,0-0.1,0c-0.1,0-0.1,0-0.2,0c-0.2,0-0.4,0-0.6,0
			c-0.1,0-0.2,0-0.3,0c-0.2,0-0.4,0-0.6,0c-0.1,0-0.3,0-0.4,0c-0.2,0-0.5,0-0.8,0.1c-0.3,0-0.7,0.1-1,0.1c-0.5,0-1,0.1-1.6,0.2
			c-0.6,0.1-1.2,0.1-1.8,0.2c-0.2,0-0.4,0-0.6,0.1c-0.8,0.1-1.6,0.2-2.5,0.4c-3,0.5-6.1,1.1-8.8,1.8l0,0c0,0.2-0.1,0.5-0.1,0.7
			c-0.1,0.6-0.4,1.1-0.7,1.6c-0.1,0.1-0.1,0.2-0.2,0.2l0,0c0.5,0.6,1,1.2,1.5,1.8c0.1,0.1,0.2,0.2,0.3,0.3l0,0
			c1-0.6,2.2-0.9,3.4-0.9c1.6,0,3,0.5,4.2,1.5c0.2,0.1,0.3,0.3,0.5,0.5c0,0,0,0,0.1,0c3.6-1.7,8.2-3.4,11.5-4.6
			c0.5-0.2,1-0.3,1.4-0.5c0.2-0.1,0.4-0.1,0.6-0.2c0.1,0,0.3-0.1,0.4-0.1c0.2,0,0.4-0.1,0.6-0.1c0.1,0,0.2,0,0.3,0
			c0.2,0,0.4,0,0.5,0c0.1,0,0.1,0,0.2,0c0.1,0,0.2,0,0.3,0c0.2,0,0.4,0,0.7,0.1c0.1,0,0.2,0,0.3,0.1c0.2,0.1,0.5,0.2,0.7,0.2
			c0.1,0,0.1,0,0.2,0.1c0.3,0.1,0.6,0.3,0.8,0.5c0.1,0,0.1,0.1,0.2,0.2c0.2,0.1,0.4,0.3,0.5,0.4c0.1,0.1,0.1,0.2,0.2,0.2
			c0.1,0.2,0.3,0.3,0.4,0.5c0.1,0.1,0.1,0.2,0.2,0.2c0.1,0.1,0.1,0.2,0.2,0.3c0.1,0.1,0.1,0.2,0.2,0.4c0,0,0.1,0.1,0.1,0.1l0,0l0,0
			h0c-0.2-0.1-0.4-0.2-0.5-0.2c-0.1,0-0.1,0-0.1,0c-0.2-0.1-0.4-0.1-0.5-0.2c0,0,0,0,0,0c-0.2,0-0.4-0.1-0.5-0.1c0,0-0.1,0-0.1,0
			c-0.1,0-0.2,0-0.3,0c-0.1,0-0.2,0-0.2,0l0,0c0,0,0,0,0,0c-0.1,0-0.2,0-0.4,0c-0.1,0-0.1,0-0.1,0c-0.1,0-0.2,0-0.2,0
			c-0.1,0-0.1,0-0.1,0c-0.1,0-0.2,0-0.2,0c0,0-0.1,0-0.1,0c-0.1,0-0.2,0-0.3,0.1c0,0,0,0,0,0c-0.1,0-0.1,0-0.2,0c0,0-0.1,0-0.1,0
			c0,0-0.1,0-0.1,0c0,0,0,0-0.1,0c0,0-0.1,0-0.1,0s0,0,0,0c0,0,0,0,0,0s0,0,0,0c-2.1,0.6-4.2,1.4-6.3,2.1c-2.2,0.8-4.4,1.7-6.6,2.7
			c-0.5,0.2-1,0.4-1.4,0.6l0,0c0.1,0.3,0.1,0.5,0.1,0.8s0.1,0.5,0.1,0.8l0,0c0,0.3,0,0.5-0.1,0.8c-0.1,0.8-0.3,1.6-0.7,2.3
			c1.4,1.1,2.8,2.1,4.2,3c3.4,2.2,7.1,4.1,10.9,5.6c1.5,0.6,3.1,1.1,4.6,1.6c0.6,0.2,1.2,0.3,1.9,0.5c1,0.2,2,0.5,3.1,0.7
			c3.9,0.8,8.1,1.4,10,1.5c0.3,0,0.5,0.1,0.8,0.1c0.1,0,0.2,0.1,0.3,0.1c0.1,0.1,0.2,0.1,0.3,0.2c0.5,0.3,1,0.8,1.4,1.4
			c0.6,0.9,0.9,1.9,1,2.7c0,0.2,0.1,0.4,0.1,0.6l0,0c0,0,0,0,0,0l0,0c-0.1-0.2-0.2-0.3-0.4-0.5c0,0,0,0-0.1,0
			c-0.1-0.1-0.2-0.2-0.4-0.3c-1.2-0.8-3.2-0.9-3.2-0.9c-3-0.2-5.6-0.5-8.1-0.9c-0.6-0.1-1.3-0.2-1.9-0.4c-1.9-0.4-3.8-0.9-5.7-1.5
			c-4.8-1.4-9.4-3.4-13.7-5.9c-2.6-1.5-5.1-3.2-7.4-5c-0.8,0.5-1.7,0.8-2.6,0.9c-0.3,0-0.6,0.1-0.9,0.1c-0.5,0-0.9-0.1-1.4-0.2
			c-1.4-0.3-2.6-1-3.5-2c-2.3,1.4-4.6,3-6.8,4.6s-4.3,3.3-6.3,5c-0.8,0.7-1.6,1.4-2.4,2.2c-1.3,1.2-2.6,2.5-3.9,3.8l0,0
			c0.2,0.3,0.5,0.6,0.7,1c0.2,0.4,0.4,0.8,0.5,1.3c0.2,0.7,0.3,1.3,0.3,2c0,2.1-1,4.1-2.7,5.3c0,0-0.1,0.1-0.1,0.1l0,0
			c0.8,1.6,1.6,3.2,2.4,4.8c0.7-0.2,1.4-0.4,2.2-0.4c2.5,0,4.7,1.4,5.9,3.5c0,0,0,0,0.1,0c1.1-0.2,2.2-0.4,3.3-0.6
			c0.4-0.1,0.7-0.1,1.1-0.2c0.8-0.1,1.6-0.2,2.3-0.4c0.4-0.1,0.9-0.1,1.3-0.2c0.7-0.1,1.4-0.2,2.2-0.3c0.4-0.1,0.9-0.1,1.3-0.2
			c0.7-0.1,1.5-0.2,2.2-0.2c0.4,0,0.8-0.1,1.2-0.1c0.8-0.1,1.6-0.1,2.5-0.2c0.3,0,0.7,0,1-0.1c1.1-0.1,2.3-0.1,3.4-0.1
			c0.2,0,0.4,0,0.6,0c0.8,0,1.7,0,2.5,0c0.1,0,0.2,0,0.3,0c1.1,0,2.3,0,3.4,0.1c0.2,0,0.4,0,0.6,0c1.4,0.1,2.7,0.1,4.1,0.2
			c0.4,0,0.8,0.1,1.1,0.1c1,0.1,2,0.2,3,0.2c0.5,0.1,1,0.1,1.5,0.2c0.9,0.1,1.8,0.2,2.6,0.3c0.5,0.1,1.1,0.1,1.6,0.2
			c0.9,0.1,1.7,0.2,2.6,0.4c0.6,0.1,1.1,0.2,1.7,0.3c0.9,0.2,1.8,0.3,2.6,0.5c0.5,0.1,1.1,0.2,1.6,0.3c1,0.2,1.9,0.4,2.9,0.6
			c0.5,0.1,0.9,0.2,1.4,0.3c1.4,0.3,2.9,0.7,4.4,1.1c0,0,0.3,0.1,0.8,0.2c0.2,0.1,0.5,0.2,0.7,0.2s0.5,0.2,0.7,0.2
			c0.3,0.1,0.6,0.3,0.8,0.5s0.4,0.4,0.6,0.7c0.4,0.7,0.6,1.7,0.5,2.6c0,0.3-0.1,0.6-0.2,0.9C179.6,113.3,179.4,113.8,179.1,114.2
			L179.1,114.2z"/>
		<path class="st2" d="M133.2,64.9c-0.7-0.7-1.6-1.1-2.6-1.1c-2,0-3.7,1.7-3.7,3.7c0,0.2,0,0.5,0.1,0.7c0.1,0.5,0.3,0.9,0.6,1.3
			c0.2,0.3,0.5,0.6,0.8,0.8c0.1,0.1,0.3,0.2,0.5,0.3c0.6,0.3,1.2,0.5,1.9,0.5c1,0,1.9-0.4,2.6-1.1c0.2-0.2,0.3-0.3,0.4-0.6
			c0.4-0.6,0.6-1.3,0.6-2.1C134.2,66.6,133.9,65.6,133.2,64.9z M130.6,70.6c-1.7,0-3-1.4-3-3s1.4-3,3-3c0.8,0,1.6,0.3,2.1,0.9
			c0.6,0.6,0.9,1.3,0.9,2.1C133.6,69.2,132.2,70.6,130.6,70.6z"/>
		<path class="st2" d="M111.2,114.9c-0.2,0.1-0.4,0.1-0.6,0.1c-0.1,0-0.2,0.1-0.3,0.1l0,0v0l-1.3,0c-0.5-0.1-1-0.2-1.5-0.3
			c-1.4-0.5-2.7-1.5-3.5-2.8l0,0c-0.2,0.1-0.5,0.2-0.7,0.2c-3.7,1.2-7.4,2.6-11,4.1l0,0c0,0.1,0,0.2,0,0.2c0.1,0.5,0.2,1.1,0.2,1.6
			c0,0.8-0.1,1.5-0.3,2.3c-0.1,0.5-0.3,0.9-0.6,1.4c-0.1,0.2-0.2,0.5-0.3,0.7l0,0c10.5,10.5,19.8,23.6,27.7,38.8c0.1,0,0.1,0,0.2,0
			c0.1,0,0.1,0,0.2,0c0.6,0,1.2,0.1,1.8,0.3c0.1,0,0.2,0.1,0.3,0.1l0,0c1-1.3,2.1-2.6,3.3-3.8c0,0,0,0,0,0c0.8-0.9,1.7-1.7,2.6-2.5
			c0.9-0.8,1.9-1.6,2.9-2.4c0.6-0.5,1.3-1,2-1.4c1.4-0.9,2.8-1.8,4.2-2.5c0.6-0.3,1.3-0.6,1.9-1c1-0.5,2-0.9,3.1-1.3
			c0-0.2,0-0.4,0-0.5l0,0c0-0.4,0.1-0.8,0.1-1.2c0.1-0.3,0.1-0.5,0.2-0.8c-6.2-4.2-11.8-8.7-16.9-13.6c-1.3-1.3-2.6-2.6-3.9-3.9
			C117.3,122.9,114.1,118.9,111.2,114.9z M140.9,144.4c-0.1,0.6-0.2,1.1-0.2,1.7c0,0,0,0.1,0,0.1c-1.6,0.7-3.2,1.4-4.6,2.1
			c-5.7,3-10.7,7.2-14.9,12.4c-0.6-0.2-1.2-0.3-1.8-0.3c-7.8-14.9-16.9-27.7-27.3-38.2c0.7-1.3,1-2.8,1-4.3c0-0.5,0-0.9-0.1-1.4
			c3.5-1.5,7.1-2.8,10.7-3.9c1.2,1.7,3.1,2.8,5.2,3c0,0,0,0,0.1,0l1.3,0c0,0,0,0,0,0c0.1,0,0.2,0,0.3-0.1c0.1,0,0.3,0,0.4-0.1
			C118.7,126.5,128.8,136.2,140.9,144.4z"/>
		<path class="st2" d="M79.2,110.8c0.1,0,0.1-0.1,0.2-0.1c0.2-0.1,0.4-0.2,0.7-0.3c0.1,0,0.1-0.1,0.2-0.1c0.3-0.1,0.6-0.2,0.8-0.3
			c0.1,0,0.1,0,0.2-0.1c0.2-0.1,0.5-0.1,0.7-0.2c0.1,0,0.2,0,0.2-0.1c0.3-0.1,0.6-0.1,0.9-0.1c0,0,0.1,0,0.1,0c0.2,0,0.4,0,0.6,0
			c0.1,0,0.1,0,0.2,0c0.2,0,0.5,0,0.8,0.1c0.1,0,0.2,0,0.4,0c0.4,0.1,0.7,0.1,1.1,0.2h0c1.3-2.6,2.7-5.1,4.2-7.6
			c1-1.6,2-3.1,3.1-4.6c0.6-0.8,1.2-1.7,1.7-2.5c-0.2-0.2-0.3-0.5-0.4-0.8c-0.3-0.8-0.5-1.7-0.5-2.6c0-0.2,0-0.4,0-0.7
			c0.1-0.7,0.2-1.3,0.5-1.9c0.2-0.4,0.4-0.8,0.6-1.2c0.2-0.4,0.5-0.7,0.8-1c0.2-0.2,0.5-0.4,0.7-0.6l0,0c-0.3-0.8-0.5-1.7-0.8-2.5
			c-0.2-0.8-0.4-1.6-0.7-2.3c-0.5-1.8-0.9-3.7-1.3-5.6c-0.1-0.6-0.2-1.1-0.3-1.7c-0.7-0.1-1.4-0.3-2.1-0.7c-0.3-0.2-0.6-0.4-0.9-0.6
			l0,0c-0.6,0.4-1.2,0.9-1.7,1.3c-1.7,1.3-3.2,2.7-4.7,4.1c-3.3,3.1-6.4,6.6-9.1,10.3c-0.7,0.9-1.3,1.9-2,2.8
			c-1.9,2.9-3.7,5.9-5.3,9.2l0,0c0.9,0.8,1.5,1.9,1.7,3c0,0.2,0.1,0.4,0.1,0.6s0,0.4,0,0.6l0,0c0,0.1,0,0.3,0,0.4l0,0
			c0.1,0.1,0.3,0.2,0.4,0.2c2.8,1.7,5.5,3.6,8.2,5.6C78.7,111.2,79,111,79.2,110.8z M68.9,100.7C73.1,92.4,78.5,85.2,85,79
			c1.9-1.8,3.8-3.4,6-5c0.7,0.5,1.6,0.9,2.5,1c0.4,2.4,1,4.6,1.5,6.8c0.3,1.3,0.8,2.8,1.3,4.4c-0.2,0.1-0.3,0.2-0.4,0.4
			c-1.4,1.4-2.2,3.2-2.2,5.2c0,1.1,0.3,2.3,0.8,3.3c-3.2,4.3-6.1,9-8.6,13.9c-0.7-0.2-1.3-0.2-2-0.2c-1.9,0-3.8,0.6-5.3,1.7
			c-2.6-1.9-5.2-3.7-7.8-5.4c0,0,0,0,0-0.1C70.7,103.4,70,101.9,68.9,100.7z"/>
		<path class="st2" d="M92.4,70.4c0.1,0.1,0.2,0.2,0.3,0.3c0.5,0.5,1.2,0.8,1.9,0.8l0,0c0.7,0,1.4-0.3,1.9-0.8
			c0.4-0.4,0.7-0.9,0.8-1.4c0-0.2,0.1-0.4,0.1-0.5l0,0c0-0.7-0.3-1.4-0.8-1.9c-0.1-0.1-0.2-0.1-0.2-0.2c-0.1-0.1-0.3-0.2-0.4-0.3
			c-0.1-0.1-0.3-0.1-0.4-0.2C95.3,66.1,95,66,94.7,66c-0.6,0-1.1,0.2-1.5,0.5c-0.2,0.1-0.3,0.2-0.4,0.3c-0.5,0.5-0.8,1.2-0.8,1.9
			c0,0.4,0.1,0.7,0.2,1.1C92.2,70,92.3,70.2,92.4,70.4z M94.7,66.7c0.6,0,1.1,0.2,1.5,0.6s0.6,0.9,0.6,1.5c0,0.6-0.2,1.1-0.6,1.5
			c-0.4,0.4-0.9,0.6-1.5,0.6l0,0c-0.6,0-1.1-0.2-1.5-0.6s-0.6-0.9-0.6-1.5C92.6,67.6,93.5,66.7,94.7,66.7z"/>
		<path class="st2" d="M62.3,107c0.5,0.5,1.2,0.8,1.9,0.8c0.4,0,0.7-0.1,1.1-0.2c1-0.4,1.7-1.4,1.7-2.5c0-1-0.6-1.9-1.4-2.4
			c-0.4-0.2-0.9-0.4-1.4-0.4c-0.7,0-1.3,0.2-1.8,0.6c-0.6,0.5-1,1.3-1,2.1l0,0c0,0.6,0.2,1.1,0.5,1.5C62,106.8,62.2,106.9,62.3,107z
			 M64.2,103c1.2,0,2.1,0.9,2.1,2.1s-0.9,2.1-2.1,2.1c-1.2,0-2.1-0.9-2.1-2.1C62.1,103.9,63.1,103,64.2,103z"/>
		<path class="st2" d="M120.4,168.9c0.2-0.1,0.4-0.3,0.6-0.4c0.2-0.2,0.4-0.5,0.6-0.8c0.1-0.1,0.1-0.3,0.1-0.5s0.1-0.3,0.1-0.5
			c0-0.7-0.3-1.3-0.7-1.8c-0.5-0.5-1.1-0.7-1.8-0.7c-0.5,0-1,0.2-1.4,0.4c-0.7,0.4-1.1,1.2-1.1,2.1c0,0.7,0.3,1.3,0.7,1.8
			c0.5,0.5,1.1,0.7,1.8,0.7C119.6,169.2,120,169.1,120.4,168.9z M117.4,166.7c0-1,0.8-1.9,1.8-1.9c1,0,1.8,0.8,1.8,1.9
			c0,0.5-0.2,1-0.5,1.3c-0.3,0.4-0.8,0.5-1.3,0.5C118.2,168.5,117.4,167.7,117.4,166.7z"/>
		<path class="st2" d="M90.1,112.2c0.2,0.2,0.4,0.5,0.6,0.7c4-1.7,8.1-3.2,12.2-4.5v0c0-0.8,0.1-1.6,0.4-2.3c0.3-0.7,0.7-1.4,1.2-2
			l0,0c-1-1.8-1.9-3.7-2.8-5.5c-0.2,0-0.5,0-0.7,0c-0.1,0-0.1,0-0.2,0c-0.1,0-0.2,0-0.3,0c-0.2,0-0.4,0-0.6-0.1
			c-0.1,0-0.2,0-0.3-0.1c-0.2-0.1-0.4-0.1-0.6-0.2c-0.1,0-0.2-0.1-0.3-0.1c-0.3-0.1-0.6-0.2-0.8-0.4c-3.2,4.3-6,9-8.5,13.8l0,0
			C89.6,111.7,89.8,111.9,90.1,112.2C90.1,112.2,90.1,112.2,90.1,112.2z M98,98.5c1,0.4,2,0.7,3,0.7c0.1,0,0.2,0,0.3,0
			c0.7,1.6,1.5,3.2,2.4,4.7c-0.9,1.2-1.4,2.5-1.5,4c-3.8,1.2-7.6,2.6-11.3,4.2c-0.2-0.3-0.5-0.6-0.8-0.8
			C92.4,106.8,95.1,102.6,98,98.5z"/>
		<path class="st2" d="M101.1,88.2c-0.2,0-0.5,0-0.7,0.1c-0.5,0.1-0.9,0.3-1.3,0.6c-0.2,0.1-0.4,0.3-0.6,0.5c-0.5,0.5-0.9,1.2-1,1.9
			c-0.1,0.2-0.1,0.5-0.1,0.7c0,0.8,0.2,1.5,0.6,2.1c0.3,0.4,0.6,0.7,1,1c0.6,0.4,1.3,0.6,2.1,0.6s1.5-0.2,2.1-0.6
			c0.4-0.3,0.7-0.6,1-1c0.4-0.6,0.6-1.3,0.6-2.1c0-0.5-0.1-1-0.3-1.4c-0.2-0.4-0.4-0.8-0.8-1.2C103,88.6,102,88.2,101.1,88.2z
			 M101.1,94.9c-1.7,0-3-1.4-3-3c0-0.8,0.3-1.6,0.9-2.1s1.3-0.9,2.1-0.9s1.6,0.3,2.1,0.9c0.6,0.6,0.9,1.3,0.9,2.1
			C104.1,93.5,102.7,94.9,101.1,94.9z"/>
		<path class="st2" d="M146.9,149.7c0.4,0.1,0.7,0.2,1.1,0.2l0,0c0.3,0,0.5,0,0.8-0.1c0.2-0.1,0.5-0.1,0.7-0.2
			c0.4-0.2,0.8-0.5,1.2-0.8c0.7-0.7,1.1-1.6,1.1-2.6l0,0c0-2-1.7-3.7-3.7-3.7c-0.5,0-1,0.1-1.4,0.3c-0.4,0.2-0.9,0.4-1.2,0.8
			c-0.4,0.4-0.6,0.8-0.8,1.2c-0.2,0.4-0.3,0.9-0.3,1.4C144.3,147.8,145.4,149.2,146.9,149.7z M145.9,144c0.6-0.6,1.3-0.9,2.1-0.9
			c1.7,0,3,1.4,3,3c0,1.7-1.4,3-3,3s-3-1.4-3-3C145,145.3,145.3,144.6,145.9,144z"/>
		<path class="st2" d="M74.4,112.7c-1.9-1.4-3.8-2.7-5.8-3.9c-0.1,0.2-0.3,0.3-0.4,0.5c-0.1,0.1-0.1,0.1-0.2,0.1
			c-0.1,0.1-0.2,0.2-0.3,0.3c-0.1,0.1-0.1,0.1-0.2,0.1c-0.1,0.1-0.2,0.2-0.3,0.2c-0.1,0.1-0.2,0.1-0.2,0.1c-0.1,0.1-0.2,0.1-0.3,0.2
			c-0.1,0-0.2,0.1-0.3,0.1c-0.1,0-0.2,0.1-0.3,0.1c-0.1,0-0.2,0.1-0.3,0.1c-0.1,0-0.2,0.1-0.3,0.1c-0.1,0-0.2,0-0.3,0.1
			c-0.1,0-0.2,0-0.3,0c-0.1,0-0.2,0-0.3,0c-0.1,0-0.1,0-0.2,0c-0.1,0-0.2,0-0.3,0l0,0c-2.4,6.8-4.2,14.2-5.2,22l0,0
			c2.1-1.8,4.3-3.4,6.5-5.1c3.4-2.5,6.9-4.9,10.5-7.1l0,0c-0.3-0.9-0.4-1.8-0.4-2.7c0-1.4,0.3-2.8,1-4l0,0
			C75.7,113.6,75,113.1,74.4,112.7z M74.6,118.1c0,0.8,0.1,1.6,0.3,2.3c-5.3,3.2-10.4,6.8-15.3,10.8c1-7,2.7-13.6,4.8-19.7
			c1.6,0,3.2-0.7,4.3-1.8c2.3,1.4,4.5,3,6.7,4.6C74.9,115.4,74.6,116.8,74.6,118.1z"/>
		<path class="st2" d="M120.3,58c0.3,0.3,0.6,0.4,0.9,0.5c0,0,0.1,0,0.1,0c0.1,0,0.2,0,0.3,0c0.5,0,0.9-0.2,1.3-0.5
			c0.3-0.3,0.4-0.6,0.5-0.9c0-0.1,0-0.2,0-0.4l0,0c0-0.6-0.3-1.2-0.8-1.5c-0.2-0.1-0.4-0.2-0.7-0.3c-0.1,0-0.2,0-0.4,0
			c-0.1,0-0.2,0-0.3,0c-0.3,0-0.6,0.2-0.8,0.4c-0.1,0-0.1,0.1-0.2,0.1c-0.1,0.1-0.2,0.2-0.2,0.3c-0.2,0.3-0.3,0.6-0.3,1
			C119.8,57.2,120,57.6,120.3,58z M120.8,55.9c0.2-0.2,0.5-0.3,0.8-0.3c0.6,0,1.1,0.5,1.1,1.1c0,0.3-0.1,0.6-0.3,0.8
			c-0.2,0.2-0.5,0.3-0.8,0.3s-0.6-0.1-0.8-0.3c-0.2-0.2-0.3-0.5-0.3-0.8C120.4,56.4,120.6,56.1,120.8,55.9z"/>
		<path class="st2" d="M97.8,75.7c0.4,1.8,0.7,3.5,1.2,5.2c0.2,0.7,0.4,1.4,0.6,2.1s0.4,1.5,0.7,2.2c0.2,0,0.3,0,0.5,0
			c0.1,0,0.2,0,0.3,0c0.8,0,1.6,0.1,2.3,0.4c1.9-2,3.9-3.9,5.9-5.7c0.3-0.3,0.7-0.6,1-0.9c1.1-0.9,2.1-1.8,3.2-2.7s2.2-1.7,3.4-2.6
			c1.6-1.2,3.2-2.3,4.9-3.4c0.7-0.5,1.5-1,2.2-1.4l0,0c-0.1-0.2-0.1-0.5-0.1-0.7c0-0.2,0-0.5,0-0.7c0-1.1,0.3-2.2,0.8-3.2
			c-0.4-0.5-0.8-0.9-1.2-1.4s-0.8-1-1.2-1.5l0,0l0,0c-0.2,0-0.5,0-0.7,0c0,0-0.1,0-0.1,0c0,0-0.1,0-0.1,0c-0.3,0-0.6,0-0.8-0.1h0
			c-0.3-0.1-0.5-0.1-0.8-0.2c-0.1,0-0.1,0-0.1-0.1c-0.2-0.1-0.5-0.2-0.7-0.4c0,0-0.1-0.1-0.1-0.1c-0.2-0.2-0.4-0.3-0.7-0.5
			c-0.1-0.1-0.2-0.2-0.3-0.3c-0.1-0.1-0.1-0.1-0.2-0.2c-0.6,0.2-1.2,0.4-1.8,0.6c-5.6,1.9-10.9,4.2-15.7,7l0,0
			c0.2,0.5,0.2,1,0.2,1.6c0,1.5-0.6,3-1.7,4.1c-0.2,0.2-0.4,0.4-0.6,0.5c-0.2,0.2-0.4,0.3-0.7,0.4l0,0
			C97.6,74.4,97.7,75.1,97.8,75.7z M99.2,73.3c1.2-1.2,1.9-2.8,1.9-4.5c0-0.4,0-0.8-0.1-1.2c5.1-2.8,10.7-5.2,16.5-7.2
			c0.1,0.1,0.1,0.2,0.2,0.2c1,1,2.4,1.6,3.8,1.6c0.2,0,0.3,0,0.5,0c0.6,0.8,1.2,1.5,1.9,2.3c-0.5,1-0.7,2.1-0.7,3.1
			c0,0.3,0,0.7,0.1,1.1c-4.8,3-9.3,6.3-13.4,9.8c-2.3,2-4.5,4.1-6.7,6.3c-0.7-0.2-1.4-0.3-2.1-0.3c-0.1,0-0.2,0-0.3,0
			c-0.4-1.3-0.8-2.6-1.1-3.8c-0.6-2.2-1.1-4.3-1.5-6.6C98.6,73.9,98.9,73.6,99.2,73.3z"/>
		<path class="st2" d="M106.3,110.1c0.2,0.3,0.4,0.7,0.7,1c0.3,0.3,0.7,0.6,1.2,0.8s0.9,0.3,1.4,0.3l0,0c0.2,0,0.5,0,0.7-0.1
			c1-0.2,1.8-0.8,2.3-1.6c0.4-0.6,0.6-1.3,0.6-2.1l0,0c0-0.3,0-0.5-0.1-0.8c-0.1-0.5-0.3-0.9-0.6-1.3c-0.7-1-1.8-1.6-3.1-1.6
			c-0.5,0-1,0.1-1.4,0.3s-0.8,0.5-1.2,0.8c-0.7,0.7-1.1,1.6-1.1,2.6l0,0C105.8,109,106,109.6,106.3,110.1z M107.4,106.2
			c0.6-0.6,1.3-0.9,2.1-0.9c1.7,0,3,1.4,3,3s-1.4,3-3,3l0,0c-1.7,0-3-1.4-3-3C106.5,107.6,106.8,106.8,107.4,106.2z"/>
		<path class="st2" d="M87.6,113.9c-1-0.9-2.3-1.5-3.8-1.5c-2.1,0-4,1.2-4.9,2.9c-0.3,0.5-0.4,1-0.6,1.5c-0.1,0.4-0.1,0.7-0.1,1.1
			c0,0.2,0,0.4,0,0.6c0.3,2.8,2.7,5,5.6,5c1.5,0,2.9-0.6,3.9-1.6c1.1-1.1,1.6-2.5,1.6-3.9c0-1.2-0.3-2.2-1-3.1
			C88.2,114.6,87.9,114.2,87.6,113.9z M88.7,118.1c0,1.3-0.5,2.5-1.4,3.5s-2.2,1.4-3.5,1.4c-2.7,0-4.9-2.2-4.9-4.9s2.2-4.9,4.9-4.9
			C86.5,113.2,88.7,115.4,88.7,118.1z"/>
	</g>
</g>
<g id="_x32_Eygmu.tif">
	
		<image style="overflow:visible;" width="768" height="944" id="Layer_0" xlink:href="3777B4900C0B2FF1.png"  transform="matrix(0.5 0 0 0.5 308 261.5)">
	</image>
</g>
<g id="FUQvJX.tif">
	
		<image style="overflow:visible;" width="768" height="944" id="Layer_0_00000137810540252729624400000009235623175890325637_" xlink:href="3777B4900C0B2FF3.png"  transform="matrix(0.5 0 0 0.5 308 261.5)">
	</image>
</g>
</svg>
