<?xml version="1.0" encoding="utf-8"?>
<!-- Generator: Adobe Illustrator 26.2.1, SVG Export Plug-In . SVG Version: 6.00 Build 0)  -->
<svg version="1.1" xmlns="http://www.w3.org/2000/svg" xmlns:xlink="http://www.w3.org/1999/xlink" x="0px" y="0px"
	 viewBox="0 0 225 225" style="enable-background:new 0 0 225 225;" xml:space="preserve">
<style type="text/css">
	.st0{display:none;}
	.st1{display:inline;fill:#FAB433;}
	.st2{fill:none;}
	.st3{fill:none;stroke:#000000;stroke-width:1.6;stroke-miterlimit:10;}
	.st4{fill:none;stroke:#000000;stroke-width:0.7265;stroke-miterlimit:10;}
	.st5{fill:none;stroke:#000000;stroke-linecap:round;stroke-linejoin:round;stroke-miterlimit:10;}
	.st6{fill:none;stroke:#000000;stroke-miterlimit:10;}
	.st7{fill:none;stroke:#000000;stroke-width:0.7105;stroke-miterlimit:10;}
	.st8{fill:none;stroke:#000000;stroke-width:5.4;stroke-linecap:round;stroke-linejoin:round;stroke-miterlimit:10;}
	.st9{fill:none;stroke:#000000;stroke-width:2.9309;stroke-linecap:round;stroke-linejoin:round;stroke-miterlimit:10;}
	.st10{fill:none;stroke:#000000;stroke-width:0.5;stroke-linecap:round;stroke-linejoin:round;}
	.st11{fill:none;stroke:#FFFFFF;stroke-width:0;stroke-linecap:round;stroke-linejoin:round;}
	.st12{fill:#FFFFFF;}
	.st13{fill:none;stroke:#000000;stroke-width:1.4;stroke-miterlimit:10;}
	.st14{fill:url(#);stroke:#000000;stroke-width:1.4387;stroke-miterlimit:10;}
	.st15{fill:url(#);stroke:#000000;stroke-width:1.3718;stroke-miterlimit:10;}
	.st16{fill:none;stroke:#000000;stroke-width:1.0041;stroke-miterlimit:10;}
	.st17{fill:none;stroke:#000000;stroke-width:1.3621;stroke-miterlimit:10;}
	.st18{fill:none;stroke:#000000;stroke-width:0.25;stroke-miterlimit:10;}
</style>
<g id="Layer_2" class="st0">
	<rect id="XMLID_4_" x="-590.99" y="-30.01" class="st1" width="1160" height="772"/>
</g>
<g id="Layer_1">
	<g>
		<path d="M170.73,120.81c0,31.24-24.63,56.73-55.52,58.12c26.3-1.39,47.2-23.15,47.2-49.8c0-27.55-22.33-49.88-49.87-49.88
			c-9.18,0-16.63-7.44-16.63-16.62c0-8.9,6.99-16.16,15.77-16.61c0.07-0.01,0.14-0.01,0.22-0.01h0.12c0.03-0.01,0.06,0,0.09,0
			c-4.39,0.22-7.88,3.85-7.88,8.3c0,4.59,3.72,8.32,8.31,8.32C144.67,62.63,170.73,88.68,170.73,120.81z"/>
		<path d="M154.1,137.44c0,22.23-17.47,40.39-39.42,41.51c-0.14,0.01-0.28,0.02-0.43,0.02c-0.07,0.01-0.14,0.01-0.21,0.01
			c-0.04,0.01-0.07,0-0.1,0h-0.11c17.76-0.68,31.96-15.3,31.96-33.23c0-18.36-14.89-33.25-33.25-33.25
			c-18.37,0-33.25-14.89-33.25-33.25c0-17.93,14.19-32.55,31.97-33.22C98.08,46.7,87.6,57.6,87.6,70.94
			c0,13.77,11.17,24.94,24.94,24.94C135.49,95.88,154.1,114.48,154.1,137.44z"/>
		<path d="M137.48,154.06c0,13.42-10.59,24.35-23.86,24.92h-0.22c8.78-0.45,15.76-7.71,15.76-16.6c0-9.19-7.44-16.63-16.62-16.63
			c-27.55,0-49.88-22.33-49.88-49.87c0-26.66,20.9-48.42,47.21-49.81c0.03-0.01,0.07-0.01,0.1-0.01c0.14-0.01,0.28-0.02,0.43-0.01
			c-21.96,1.12-39.42,19.28-39.42,41.51c0,22.96,18.6,41.57,41.56,41.57C126.31,129.13,137.48,140.29,137.48,154.06z"/>
		<path d="M120.85,170.69c0,4.45-3.49,8.08-7.88,8.3c-0.14,0.01-0.29,0.01-0.43,0.01c-36.73,0-66.5-29.77-66.5-66.5
			c0-35.84,28.34-65.04,63.83-66.43c-30.9,1.39-55.52,26.88-55.52,58.12c0,32.13,26.05,58.19,58.19,58.19
			C117.13,162.38,120.85,166.1,120.85,170.69z"/>
	</g>
	<circle class="st16" cx="112.5" cy="112.5" r="66.46"/>
</g>
</svg>
