<?xml version="1.0" encoding="utf-8"?>
<!-- Generator: Adobe Illustrator 26.2.1, SVG Export Plug-In . SVG Version: 6.00 Build 0)  -->
<svg version="1.1" xmlns="http://www.w3.org/2000/svg" xmlns:xlink="http://www.w3.org/1999/xlink" x="0px" y="0px"
	 viewBox="0 0 225 225" style="enable-background:new 0 0 225 225;" xml:space="preserve">
<style type="text/css">
	.st0{display:none;}
	.st1{display:inline;fill:#FAB433;}
	.st2{fill:none;}
	.st3{fill:none;stroke:#000000;stroke-width:1.6;stroke-miterlimit:10;}
	.st4{fill:none;stroke:#000000;stroke-width:0.7265;stroke-miterlimit:10;}
	.st5{fill:none;stroke:#000000;stroke-linecap:round;stroke-linejoin:round;stroke-miterlimit:10;}
	.st6{fill:none;stroke:#000000;stroke-miterlimit:10;}
	.st7{fill:none;stroke:#000000;stroke-width:0.7105;stroke-miterlimit:10;}
	.st8{fill:none;stroke:#000000;stroke-width:5.4;stroke-linecap:round;stroke-linejoin:round;stroke-miterlimit:10;}
	.st9{fill:none;stroke:#000000;stroke-width:2.9309;stroke-linecap:round;stroke-linejoin:round;stroke-miterlimit:10;}
	.st10{fill:none;stroke:#000000;stroke-width:0.5;stroke-linecap:round;stroke-linejoin:round;}
	.st11{fill:none;stroke:#FFFFFF;stroke-width:0;stroke-linecap:round;stroke-linejoin:round;}
	.st12{fill:#FFFFFF;}
	.st13{fill:none;stroke:#000000;stroke-width:1.4;stroke-miterlimit:10;}
	.st14{fill:url(#);stroke:#000000;stroke-width:1.4387;stroke-miterlimit:10;}
	.st15{fill:url(#);stroke:#000000;stroke-width:1.3718;stroke-miterlimit:10;}
	.st16{fill:none;stroke:#000000;stroke-width:1.0041;stroke-miterlimit:10;}
	.st17{fill:none;stroke:#000000;stroke-width:1.3621;stroke-miterlimit:10;}
	.st18{fill:none;stroke:#000000;stroke-width:0.25;stroke-miterlimit:10;}
</style>
<g id="Layer_2" class="st0">
	
		<rect id="XMLID_00000049924193275795927410000016330201882968263580_" x="-835.99" y="-520.01" class="st1" width="1160" height="772"/>
</g>
<g id="Layer_1">
	<path id="XMLID_00000083795097130286860440000009025523045560841399_" d="M147.89,57.48c-2.67-0.35-4.95-0.52-7.12-0.52
		c-25.16,0-46.67,16.94-53.33,40.27c0.83-1.35,1.77-2.63,2.81-3.83c0.1-0.11,0.19-0.22,0.29-0.33c0.2-0.22,0.4-0.44,0.61-0.66
		c0.16-0.17,0.33-0.35,0.5-0.51c0.18-0.18,0.36-0.36,0.54-0.53c0.22-0.22,0.46-0.43,0.69-0.63c0.15-0.13,0.29-0.27,0.44-0.4
		c0.39-0.34,0.79-0.67,1.21-0.99c22.66-20.03,57.24-18.97,78.66,2.45c0.4,0.4,0.8,0.81,1.19,1.24c0.12,0.13,0.25,0.28,0.37,0.41
		c0.22,0.24,0.44,0.48,0.66,0.73C170.92,78.78,160.91,65.88,147.89,57.48z"/>
	<path id="XMLID_00000008113258305011887870000016900355114530731965_" d="M140.77,54.96c1.06,0,2.13,0.04,3.26,0.11
		c-13.98-7.67-30.07-9.73-45.15-6.55c-2.24,1.7-4.07,3.26-5.68,4.87c-17.82,17.83-21.03,45.12-9.14,66.35
		c-0.88-3.5-1.12-7.17-0.65-10.88c0.01-0.15,0.02-0.3,0.04-0.46l0.03-0.33c0,0,0,0,0,0C85.71,78.26,110.73,54.96,140.77,54.96z"/>
	<g id="XMLID_00000156579534555354996410000013215877679856911767_">
		<path id="XMLID_00000088847273805723444380000014050528020964369046_" d="M77.12,167.53c2.67,0.35,4.95,0.52,7.12,0.52
			c25.16,0,46.67-16.94,53.33-40.27c-0.83,1.35-1.77,2.63-2.81,3.83c-0.1,0.11-0.19,0.22-0.29,0.33c-0.2,0.22-0.4,0.44-0.61,0.66
			c-0.16,0.17-0.33,0.35-0.5,0.51c-0.18,0.18-0.36,0.36-0.54,0.53c-0.22,0.22-0.46,0.43-0.69,0.63c-0.15,0.13-0.29,0.27-0.44,0.4
			c-0.39,0.34-0.79,0.67-1.21,0.99c-22.66,20.03-57.24,18.97-78.66-2.45c-0.4-0.4-0.8-0.81-1.19-1.24
			c-0.12-0.13-0.25-0.28-0.37-0.41c-0.22-0.24-0.44-0.48-0.66-0.73C54.09,146.23,64.1,159.13,77.12,167.53z"/>
		<path id="XMLID_00000133527140200205384430000005131925691360298889_" d="M84.24,170.05c-1.06,0-2.13-0.04-3.26-0.11
			c13.98,7.67,30.07,9.73,45.15,6.55c2.24-1.7,4.07-3.26,5.68-4.87c17.82-17.83,21.03-45.12,9.14-66.35
			c0.88,3.5,1.12,7.17,0.65,10.88c-0.01,0.15-0.02,0.3-0.04,0.46l-0.03,0.33c0,0,0,0,0,0C139.3,146.75,114.28,170.05,84.24,170.05z"
			/>
	</g>
	<path id="XMLID_00000028326016982615635640000010891594257721392042_" d="M89.27,130.56c-19.33-21.95-18.91-55.05,0.58-76.54
		c0.63-0.69,1.28-1.37,1.95-2.04c0.83-0.83,1.7-1.63,2.65-2.45c-15.42,4.43-28.35,14.36-36.8,27.34c-0.39,2.81-0.57,5.21-0.58,7.5
		c0,25.07,16.85,46.53,40.06,53.27C94.15,135.79,91.48,133.42,89.27,130.56z"/>
	<path id="XMLID_00000013913874703828548900000008228190247921067678_" d="M108.85,141.71c-28.24-1.79-50.8-24.05-53.51-51.74
		c-0.18-1.85-0.27-3.72-0.27-5.61c0-1.17,0.05-2.36,0.14-3.61c-7.81,14.1-9.91,30.35-6.65,45.56c1.7,2.24,3.25,4.05,4.84,5.63
		c17.93,17.93,45.44,20.97,66.62,9.05C116.43,141.93,112.65,142.19,108.85,141.71z"/>
	<g id="XMLID_00000060031164475877309160000005681938049432322976_">
		<path id="XMLID_00000088819782790622389960000011271597278586298528_" d="M135.79,94.55c19.33,21.95,18.91,55.05-0.58,76.54
			c-0.63,0.69-1.28,1.37-1.95,2.04c-0.83,0.83-1.7,1.63-2.65,2.45c15.42-4.43,28.35-14.36,36.8-27.34c0.39-2.81,0.57-5.21,0.58-7.5
			c0-25.07-16.85-46.53-40.06-53.27C130.91,89.32,133.57,91.69,135.79,94.55z"/>
		<path id="XMLID_00000104689959392638947680000000320898847087645883_" d="M116.21,83.41c28.24,1.79,50.8,24.05,53.51,51.74
			c0.18,1.85,0.27,3.72,0.27,5.61c0,1.17-0.05,2.36-0.14,3.61c7.81-14.1,9.91-30.35,6.65-45.56c-1.7-2.24-3.25-4.05-4.84-5.63
			c-17.93-17.93-45.44-20.97-66.62-9.05C108.63,83.19,112.41,82.92,116.21,83.41z"/>
	</g>
</g>
</svg>
