<?xml version="1.0" encoding="utf-8"?>
<!-- Generator: Adobe Illustrator 26.2.1, SVG Export Plug-In . SVG Version: 6.00 Build 0)  -->
<svg version="1.1" xmlns="http://www.w3.org/2000/svg" xmlns:xlink="http://www.w3.org/1999/xlink" x="0px" y="0px"
	 viewBox="0 0 225 225" style="enable-background:new 0 0 225 225;" xml:space="preserve">
<style type="text/css">
	.st0{display:none;}
	.st1{display:inline;fill:#FAB433;}
	.st2{fill:none;}
	.st3{fill:none;stroke:#000000;stroke-width:1.6;stroke-miterlimit:10;}
	.st4{fill:none;stroke:#000000;stroke-width:0.7265;stroke-miterlimit:10;}
	.st5{fill:none;stroke:#000000;stroke-linecap:round;stroke-linejoin:round;stroke-miterlimit:10;}
	.st6{fill:none;stroke:#000000;stroke-miterlimit:10;}
	.st7{fill:none;stroke:#000000;stroke-width:0.7105;stroke-miterlimit:10;}
	.st8{fill:none;stroke:#000000;stroke-width:5.4;stroke-linecap:round;stroke-linejoin:round;stroke-miterlimit:10;}
	.st9{fill:none;stroke:#000000;stroke-width:2.9309;stroke-linecap:round;stroke-linejoin:round;stroke-miterlimit:10;}
	.st10{fill:none;stroke:#000000;stroke-width:0.5;stroke-linecap:round;stroke-linejoin:round;}
	.st11{fill:none;stroke:#FFFFFF;stroke-width:0;stroke-linecap:round;stroke-linejoin:round;}
	.st12{fill:#FFFFFF;}
	.st13{fill:none;stroke:#000000;stroke-width:1.4;stroke-miterlimit:10;}
	.st14{fill:url(#);stroke:#000000;stroke-width:1.4387;stroke-miterlimit:10;}
	.st15{fill:url(#);stroke:#000000;stroke-width:1.3718;stroke-miterlimit:10;}
	.st16{fill:none;stroke:#000000;stroke-width:1.0041;stroke-miterlimit:10;}
	.st17{fill:none;stroke:#000000;stroke-width:1.3621;stroke-miterlimit:10;}
	.st18{fill:none;stroke:#000000;stroke-width:0.25;stroke-miterlimit:10;}
</style>
<g id="Layer_2" class="st0">
	<rect id="XMLID_3548_" x="-590.99" y="-30.01" class="st1" width="1160" height="772"/>
</g>
<g id="Layer_1">
	<g id="XMLID_213_">
		<path id="XMLID_216_" class="st9" d="M51.75,77.76c0.04-0.09,0.09-0.17,0.14-0.26c0.27-0.47,0.56-0.94,0.84-1.4
			c19.7-32.39,61.77-43.27,94.77-24.22c10.69,6.17,19.13,14.74,25.05,24.63c-3.93-6.46-9.49-12.05-16.5-16.1
			c-13.87-8-30.13-8.09-43.55-1.65C104.31,62.7,97.18,69.05,92.3,77.5c-3.61,6.27-5.62,13.02-6.12,19.79
			c-0.67,8.8,1.19,17.61,5.29,25.37c0,0,0.01,0.01,0.01,0.01c0.47,0.97,1.02,1.92,1.63,2.83c0,0.01,0.01,0.02,0.01,0.03
			c1.93,2.87,4.52,5.36,7.72,7.2c10.7,6.18,24.25,2.92,31.04-7.18c-4.84,7.77-11.63,13.64-19.36,17.35
			c-13.42,6.44-29.68,6.36-43.54-1.64c-1.03-0.6-2.02-1.22-2.99-1.89C46.07,125.8,39.65,99.01,51.75,77.76z"/>
		<path id="XMLID_215_" class="st9" d="M51.75,77.76c-12.1,21.25-5.68,48.04,14.23,61.59c0.97,0.67,1.96,1.29,2.99,1.89
			c13.86,8,30.13,8.08,43.54,1.64c7.74-3.7,14.53-9.57,19.36-17.35c0.04-0.06,0.08-0.12,0.12-0.19c0.02-0.03,0.04-0.06,0.06-0.1
			c0.23-0.35,0.46-0.71,0.67-1.08c0.23-0.4,0.44-0.8,0.64-1.2c0.03-0.06,0.07-0.13,0.1-0.19c5.38-10.93,1.42-24.32-9.29-30.51
			c-3.31-1.91-6.89-2.91-10.45-3.1c7.52,0.19,15.11,2.21,22.1,6.23c1.03,0.6,2.03,1.22,3,1.89c14.1,9.61,21.43,25.86,20.21,42.06
			c-0.51,6.76-2.51,13.52-6.12,19.78c-8.64,14.97-24.33,23.35-40.46,23.34v0.01c-11.87,0-23.91-3.02-34.93-9.39
			C44.11,153.83,32.62,111.19,51.75,77.76z"/>
		<path id="XMLID_214_" class="st9" d="M86.18,97.28c0.5-6.76,2.5-13.52,6.12-19.79c4.88-8.45,12.01-14.8,20.19-18.72
			c13.42-6.44,29.68-6.36,43.55,1.65c7.01,4.05,12.57,9.64,16.5,16.1c0.01,0.02,0.03,0.04,0.04,0.07c0.25,0.41,0.49,0.83,0.73,1.26
			c11.88,20.88,12.68,47.34-0.2,69.65c-12.96,22.45-36.49,35.01-60.68,35.01v-0.01c16.13,0.01,31.82-8.37,40.46-23.34
			c3.61-6.26,5.62-13.02,6.12-19.78c1.23-16.21-6.1-32.45-20.21-42.06c-0.97-0.67-1.97-1.3-3-1.89c-6.99-4.03-14.57-6.05-22.1-6.23
			c-0.05,0-0.11-0.01-0.16-0.01c-0.72-0.03-1.45-0.03-2.17,0.01h-0.14c-7.61,0.42-14.88,4.55-18.98,11.65
			c-4.01,6.95-4.05,15.1-0.81,21.82C87.37,114.9,85.51,106.08,86.18,97.28z"/>
	</g>
</g>
</svg>
