<?xml version="1.0" encoding="utf-8"?>
<!-- Generator: Adobe Illustrator 26.2.1, SVG Export Plug-In . SVG Version: 6.00 Build 0)  -->
<svg version="1.1" xmlns="http://www.w3.org/2000/svg" xmlns:xlink="http://www.w3.org/1999/xlink" x="0px" y="0px"
	 viewBox="0 0 225 225" style="enable-background:new 0 0 225 225;" xml:space="preserve">
<style type="text/css">
	.st0{display:none;}
	.st1{display:inline;fill:#FAB433;}
	.st2{fill:none;}
	.st3{fill:none;stroke:#000000;stroke-width:1.6;stroke-miterlimit:10;}
	.st4{fill:none;stroke:#000000;stroke-width:0.7265;stroke-miterlimit:10;}
	.st5{fill:none;stroke:#000000;stroke-linecap:round;stroke-linejoin:round;stroke-miterlimit:10;}
	.st6{fill:none;stroke:#000000;stroke-miterlimit:10;}
	.st7{fill:none;stroke:#000000;stroke-width:0.7105;stroke-miterlimit:10;}
	.st8{fill:none;stroke:#000000;stroke-width:5.4;stroke-linecap:round;stroke-linejoin:round;stroke-miterlimit:10;}
	.st9{fill:none;stroke:#000000;stroke-width:2.9309;stroke-linecap:round;stroke-linejoin:round;stroke-miterlimit:10;}
	.st10{fill:none;stroke:#000000;stroke-width:0.5;stroke-linecap:round;stroke-linejoin:round;}
	.st11{fill:none;stroke:#FFFFFF;stroke-width:0;stroke-linecap:round;stroke-linejoin:round;}
	.st12{fill:#FFFFFF;}
	.st13{fill:none;stroke:#000000;stroke-width:1.4;stroke-miterlimit:10;}
	.st14{fill:url(#);stroke:#000000;stroke-width:1.4387;stroke-miterlimit:10;}
	.st15{fill:url(#);stroke:#000000;stroke-width:1.3718;stroke-miterlimit:10;}
	.st16{fill:none;stroke:#000000;stroke-width:1.0041;stroke-miterlimit:10;}
	.st17{fill:none;stroke:#000000;stroke-width:1.3621;stroke-miterlimit:10;}
	.st18{fill:none;stroke:#000000;stroke-width:0.25;stroke-miterlimit:10;}
</style>
<g id="Layer_2" class="st0">
	<rect id="XMLID_2028_" x="-345.99" y="-520.01" class="st1" width="1160" height="772"/>
</g>
<g id="Layer_1">
	<g id="XMLID_900_">
		<path id="XMLID_1913_" d="M68.88,60.11C69.03,60.06,69.03,60.06,68.88,60.11L68.88,60.11z"/>
		<path id="XMLID_1912_" d="M152,83.69c-0.32-0.02-0.7,0.24-0.52,0.88c0.28,0.76,1,0.97,1.32,0.7
			C153.3,84.84,152.74,83.73,152,83.69z"/>
		<path id="XMLID_1911_" d="M150.32,85.68c-0.45-0.02-1.07,0.31-0.84,1.27c0.36,1.09,1.41,1.38,1.9,0.98
			C152.16,87.31,151.42,85.72,150.32,85.68z"/>
		<path id="XMLID_1910_" d="M140.65,120.89c0.56-0.31,0.73-0.85,0.79-1.02c0.24-0.93-0.3-1.83-1.17-1.92
			c-0.43-0.05-1.26,0.15-1.58,1.17c0,0,0,0.01,0,0.01C138.33,120.45,139.53,121.51,140.65,120.89z"/>
		<path id="XMLID_1909_" d="M143.44,73.92c-0.36,0.03-0.74,0.35-0.44,0.98c0.44,0.74,1.26,0.86,1.57,0.54
			C145.07,74.93,144.27,73.87,143.44,73.92z"/>
		<path id="XMLID_1908_" d="M144.98,100.86c-0.21,1.71,1.54,3.08,2.79,2.19c1-0.71,1.08-2.69-0.6-3.55
			C145.98,99.02,145.11,99.84,144.98,100.86z"/>
		<path id="XMLID_1907_" d="M136.89,128.38c0.37,0.44,1.24,0.42,1.56-0.44c0.18-0.57-0.13-1.11-0.68-1.18
			C136.95,126.66,136.36,127.75,136.89,128.38z"/>
		<path id="XMLID_1906_" d="M135.63,148.37c0.12-0.55-0.33-0.87-0.81-0.8h0c-0.75,0.15-1.11,0.91-0.83,1.35
			C134.37,149.49,135.46,149.13,135.63,148.37z"/>
		<path id="XMLID_1905_" d="M131.12,146.63c-0.9,0.14-1.33,1.05-0.94,1.58c0.49,0.68,1.75,0.26,1.9-0.64
			C132.15,147.15,131.9,146.58,131.12,146.63z"/>
		<path id="XMLID_1904_" d="M146.42,135.45c0.01-0.25-0.14-0.61-0.59-0.52c-0.57,0.18-0.67,0.84-0.4,1.11
			C145.77,136.37,146.4,136,146.42,135.45z"/>
		<path id="XMLID_1903_" d="M132.95,110.75c1.44,1.66,3.99,0.99,4.47-1.17c0.31-1.88-1-3.21-2.39-3.36
			C132.68,105.97,131.34,108.89,132.95,110.75z"/>
		<path id="XMLID_1902_" d="M152.77,95.74c0.32,1.67,1.81,2.44,2.72,1.81c1.3-0.89,0.46-3.56-1.19-3.76
			C153.57,93.7,152.61,94.25,152.77,95.74z"/>
		<path id="XMLID_1901_" d="M130.48,112.57c-1.3-0.16-2.17,1.42-1.37,2.5c0.62,0.83,2.15,0.85,2.61-0.59
			C131.95,113.42,131.26,112.67,130.48,112.57z"/>
		<path id="XMLID_1900_" d="M143.04,89.56c0.35-0.32,0.05-1.02-0.46-1.06c-0.23-0.01-0.55,0.16-0.48,0.6
			C142.23,89.62,142.76,89.82,143.04,89.56z"/>
		<path id="XMLID_1899_" d="M80.8,72.54c-0.8,1.11-0.42,2.01,0.4,2.25c1.59,0.46,3.58-1.45,2.88-2.76
			C83.64,71.21,82.03,71.05,80.8,72.54z"/>
		<path id="XMLID_1898_" d="M133.36,75.03c0.83,0.94,2.37,0.82,2.46-0.19c0-0.03,0-0.08,0-0.12c-0.09-0.89-0.99-1.36-1.6-1.41
			C133.11,73.22,132.62,74.19,133.36,75.03z"/>
		<path id="XMLID_1897_" d="M92.8,52.22c-0.19-0.05-0.73-0.06-1.38,0.3c-0.46,0.27-0.55,0.57-0.19,0.66c0.02,0,0.05,0.01,0.07,0.01
			c0.21,0.04,0.73,0.01,1.31-0.31c0,0,0,0,0.01,0C93.07,52.62,93.15,52.32,92.8,52.22z"/>
		<path id="XMLID_1896_" d="M86.23,54.53c-0.35,0.24-0.29,0.39-0.13,0.42c0.01,0,0.03,0,0.04,0c0.42,0.03,1.12-0.4,0.96-0.59
			C87.01,54.26,86.61,54.29,86.23,54.53z"/>
		<path id="XMLID_1895_" d="M130.04,63.89c0.14-0.16,0.07-0.54-0.47-0.68l0,0h0l0,0h0h0c0,0,0,0,0,0h0h0
			c-0.43-0.07-0.59,0.15-0.57,0.33C129.02,63.93,129.78,64.18,130.04,63.89z"/>
		<path id="XMLID_1894_" d="M95.68,52.34c-2.56,1.48-1.3,2.47-0.6,2.72c2.56,0.93,7.32-1.04,6.53-2.7
			C101.1,51.28,98.21,51.06,95.68,52.34z"/>
		<path id="XMLID_1893_" d="M137.13,62.09c-0.48,0.07-0.73,0.46-0.25,1.05c0.7,0.73,1.69,0.76,1.96,0.41
			C139.29,62.96,138.09,61.94,137.13,62.09z"/>
		<path id="XMLID_1892_" d="M138.86,68.47c0.13,1.37,2.23,2.43,3,1.52c0.54-0.64-0.04-1.96-1.39-2.47
			C139.2,67.14,138.81,67.9,138.86,68.47z"/>
		<path id="XMLID_1891_" d="M108.79,56.7c-0.73,0.36-0.63,0.89-0.11,1.19c0.92,0.53,2.4,0.09,2.23-0.66
			C110.78,56.68,109.66,56.31,108.79,56.7z"/>
		<path id="XMLID_1890_" d="M129.21,58.8c0.78,0.88,2.68,1.15,2.74,0.39c0.01-0.08-0.03-0.18-0.05-0.22c-0.28-0.6-1.26-1.07-2-1.13
			C129.04,57.78,128.7,58.23,129.21,58.8z"/>
		<path id="XMLID_1889_" d="M117.4,49.52c-2.64,0.49-2.59,1.82-1.21,2.82c0.09,0.06,0.2,0.14,0.3,0.2c3.13,1.92,8.67,1.53,8.12-0.58
			C124.2,50.35,120.42,49.07,117.4,49.52z"/>
		<path id="XMLID_1888_" d="M127.84,52.25c-0.54-0.07-0.73,0.16-0.69,0.35c0.08,0.46,1.1,0.72,1.37,0.36
			C128.69,52.73,128.42,52.36,127.84,52.25z"/>
		<path id="XMLID_1887_" d="M102.7,50.32c-0.6,0.24-0.72,0.6-0.26,0.8c0.03,0.01,0.06,0.02,0.08,0.03c0.88,0.29,2.41-0.18,2.21-0.68
			C104.62,50.16,103.69,49.96,102.7,50.32z"/>
		<path id="XMLID_1886_" d="M71.88,92.65c1.02,0.13,1.85-1.36,1.21-2.14c-0.42-0.51-1.43-0.42-1.89,0.67
			C70.9,92.09,71.41,92.59,71.88,92.65z"/>
		<path id="XMLID_1885_" d="M71.78,85.6c-0.58,1.37,0.03,2.39,0.92,2.55c1.77,0.32,3.45-2.15,2.43-3.58
			C74.41,83.57,72.69,83.85,71.78,85.6z"/>
		<path id="XMLID_1884_" d="M116.9,94c0,1.13,1.37,1.74,2.19,0.96c0.72-0.68,0.43-2.03-0.77-2.24
			C117.33,92.65,116.89,93.43,116.9,94z"/>
		<path id="XMLID_1883_" d="M126.98,102.13c-1.82-0.21-2.94,1.87-1.79,3.33c1.01,1.29,3.19,1.08,3.67-0.8
			C129.08,103.09,127.89,102.23,126.98,102.13z"/>
		<path id="XMLID_1866_" d="M71.1,115.89c-0.02,0.81,0.58,1.47,1.29,1.41c1.08-0.08,1.42-1.61,0.52-2.34
			C72.28,114.45,71.19,114.67,71.1,115.89z"/>
		<path id="XMLID_1865_" d="M74.46,82.71c0.94,0.17,1.91-1.12,1.4-1.87c-0.36-0.53-1.31-0.37-1.84,0.51
			C73.63,82.16,74.04,82.63,74.46,82.71z"/>
		<path id="XMLID_1864_" d="M81.15,76.46c-0.29,0.47-0.04,0.77,0.22,0.84c0.59,0.15,1.26-0.57,0.97-1.04
			C82.14,75.92,81.52,75.96,81.15,76.46z"/>
		<path id="XMLID_1863_" d="M84.1,77.83c-0.26-0.1-0.43-0.04-0.71,0.05c-0.66,0.32-0.87,0.97-0.68,1.42
			c0.18,0.41,0.55,0.53,1.12,0.35C84.75,79.2,84.79,78.09,84.1,77.83z"/>
		<path id="XMLID_1862_" d="M96.72,58.75c-0.72,0.5-0.78,1.16-0.13,1.48c1.1,0.55,3.03-0.34,2.79-1.28
			C99.22,58.33,97.94,57.98,96.72,58.75z"/>
		<path id="XMLID_1861_" d="M100.28,113.19c0.9-0.74,0.5-2.21-0.65-2.35c-0.58-0.07-1.42,0.28-1.5,1.3
			C98.17,113.38,99.49,113.84,100.28,113.19z"/>
		<path id="XMLID_1860_" d="M80.44,82.52c0.08,1.04,1.46,1.19,2.3,0.25c0.82-0.9,0.46-2.11-0.6-2.05c-0.09,0.01-0.17,0.02-0.22,0.03
			C80.97,80.98,80.38,81.85,80.44,82.52z"/>
		<path id="XMLID_1859_" d="M110.62,93.97c0.34-0.37,0.17-1-0.41-1.06c-0.48,0-0.69,0.39-0.68,0.66
			C109.55,94.14,110.23,94.39,110.62,93.97z"/>
		<path id="XMLID_1858_" d="M99.06,101.52c0.29-0.33,0.13-0.88-0.36-0.89c-0.33,0.03-0.5,0.33-0.47,0.6
			C98.29,101.68,98.77,101.85,99.06,101.52z"/>
		<path id="XMLID_1857_" d="M106.66,162.5c0.06-0.33-0.12-1.21-1.58-1.43c-1.39-0.11-2.1,0.86-1.55,1.63
			C104.3,163.77,106.47,163.63,106.66,162.5z"/>
		<path id="XMLID_1856_" d="M100.54,168.53c0.05-0.18-0.18-0.43-0.58-0.49h0c-0.48-0.06-0.7,0.17-0.57,0.4
			C99.6,168.82,100.43,168.89,100.54,168.53z"/>
		<path id="XMLID_1855_" d="M87.25,82.37c0.47-0.51,0.21-1.24-0.42-1.21c-0.02,0-0.05,0.01-0.08,0.01c-0.59,0.12-0.82,0.63-0.8,0.96
			C86,82.74,86.78,82.89,87.25,82.37z"/>
		<path id="XMLID_1854_" d="M119.61,161.35c0.12-0.46-0.19-1.11-1.27-1.13c-1.21,0.06-1.84,0.94-1.44,1.56
			C117.45,162.67,119.33,162.37,119.61,161.35z"/>
		<path id="XMLID_1853_" d="M111.67,157.2c0.22-0.84-0.51-1.61-1.6-1.69c-1.45-0.04-2.18,1.03-1.73,1.89
			C108.99,158.63,111.33,158.5,111.67,157.2z"/>
		<path id="XMLID_1852_" d="M83.37,118.89c-0.78-0.03-1.64,0.5-1.64,2.02c0,0.03,0,0.05,0,0.08c0.02,0.22,0.06,0.73,0.5,1.19
			c0.94,1,2.65,0.51,2.73-1.15C85,120.06,84.49,118.94,83.37,118.89z"/>
		<path id="XMLID_1851_" d="M90.02,150.24c0.12-0.41-0.08-1.13-0.91-1.45c-0.03-0.01-0.08-0.03-0.12-0.03
			c-0.91-0.22-1.51,0.54-1.05,1.34C88.44,150.99,89.77,151.08,90.02,150.24z"/>
		<path id="XMLID_1850_" d="M71.82,141.73c1.1-0.26,0.88-2.07-0.35-2.8c-1.06-0.64-1.98,0.05-1.67,1.25
			c0.01,0.03,0.02,0.07,0.03,0.1C70.22,141.37,71.17,141.88,71.82,141.73z"/>
		<path id="XMLID_1849_" d="M75.38,153.73c1.66,2.66,4.66,3.8,6.43,3.2c2.91-1,1.51-5.39-2.26-7.12c-3.19-1.47-5.66,0.12-4.63,2.97
			C75.06,153.16,75.25,153.49,75.38,153.73z"/>
		<path id="XMLID_1848_" d="M92.59,152.87c0.11-0.41-0.08-1.17-1.06-1.51c-1.18-0.29-1.66,0.6-1.29,1.31
			C90.77,153.69,92.33,153.82,92.59,152.87z"/>
		<path id="XMLID_1847_" d="M94.25,155.58c0.07-0.29-0.12-0.8-0.8-1c-0.81-0.18-1.2,0.38-0.89,0.9
			C92.97,156.17,94.09,156.23,94.25,155.58z"/>
		<path id="XMLID_1846_" d="M99.37,156.8c0.12-0.45-0.34-0.98-0.94-1.1c-0.85-0.13-1.24,0.5-0.9,1.05
			C97.99,157.47,99.19,157.51,99.37,156.8z"/>
		<path id="XMLID_1845_" d="M119.32,170.01c0.25,0.48,1.5,0.32,1.72-0.21c0.09-0.23-0.07-0.55-0.74-0.55
			C119.57,169.3,119.16,169.71,119.32,170.01z"/>
		<path id="XMLID_1844_" d="M74.79,73.61c-0.83,1.3-0.26,2.05,0.41,2.17c1.56,0.29,3.46-1.95,2.61-3.07
			C77.27,72.01,75.77,72.28,74.79,73.61z"/>
		<path id="XMLID_1843_" d="M92.56,56.09L92.56,56.09C92.57,56.08,92.57,56.08,92.56,56.09C92.57,56.08,92.57,56.08,92.56,56.09
			L92.56,56.09c0.01-0.01,0.01-0.01,0.01-0.01c0,0,0,0,0,0s0,0,0,0l0,0c0.42-0.32,0.25-0.55-0.02-0.59
			c-0.07-0.01-0.45-0.05-0.89,0.23c-0.41,0.28-0.37,0.54-0.08,0.61C91.75,56.36,92.14,56.35,92.56,56.09z"/>
		<path id="XMLID_1842_" d="M131.85,164.37c1.12-0.23,1.82-1.22,1.16-1.64c-0.45-0.28-1.36-0.12-1.94,0.35
			c-0.1,0.08-0.19,0.16-0.28,0.3C130.32,164.03,130.89,164.56,131.85,164.37z"/>
		<path id="XMLID_1841_" d="M130.07,166.8c-0.46-0.27-1.61-0.35-2.74,0.35c-0.14,0.1-0.39,0.28-0.55,0.53
			c-0.55,0.86,0.53,1.45,1.95,1.06C130.15,168.37,130.89,167.29,130.07,166.8z"/>
		<path id="XMLID_1840_" d="M124,174.47c0.78-0.22,1.29-0.7,0.79-0.98c-0.38-0.21-1.3-0.2-2.08,0.14c-0.14,0.06-0.42,0.2-0.55,0.4
			C121.84,174.54,122.89,174.79,124,174.47z"/>
		<path id="XMLID_1839_" d="M137.12,149.84l-0.13,0.01c-0.41,0.09-1.65,0.35-2.65,1.6c-1.48,1.85-0.79,4.19,1.91,3.94
			c1.46-0.15,3.26-1.48,3.53-3.16C140.04,150.52,138.62,149.61,137.12,149.84z"/>
		<path id="XMLID_1838_" d="M139.07,159.12c-0.56-0.29-1.94-0.32-3.25,0.88c-0.17,0.18-0.35,0.37-0.51,0.66
			c-0.68,1.24,0.35,2.06,1.97,1.57C139.18,161.63,140.27,159.75,139.07,159.12z"/>
		<path id="XMLID_1837_" d="M69.51,98.95c-0.1,0.47,0.17,0.71,0.4,0.72c0.48,0.04,0.82-0.66,0.52-1.05
			C70.17,98.31,69.67,98.41,69.51,98.95z"/>
		<path id="XMLID_1836_" d="M117.4,170.94c0.17-0.38-0.2-0.79-1.09-0.81c-1.6,0.12-1.39,0.9-1.39,0.91
			C115.14,171.78,117.06,171.7,117.4,170.94z"/>
		<path id="XMLID_1835_" d="M108.54,174.6c0.03-0.13-0.18-0.33-0.76-0.37c-0.55-0.02-0.82,0.15-0.73,0.32
			C107.23,174.91,108.46,174.95,108.54,174.6z"/>
		<path id="XMLID_1834_" d="M109.01,169.62c0.19-0.52-0.36-1.16-1.58-1.27c-1.23-0.08-2.11,0.55-1.74,1.25
			C106.23,170.6,108.65,170.62,109.01,169.62z"/>
		<path id="XMLID_1833_" d="M107.16,172.62c-0.47-0.44-1.65-0.79-2.65-0.59c-0.16,0.04-0.49,0.12-0.68,0.32
			c-0.59,0.62,0.75,1.45,2.24,1.4C107.23,173.71,107.75,173.17,107.16,172.62z"/>
		<path id="XMLID_1832_" d="M141.03,145.36c0.08-0.41-0.22-0.8-0.73-0.71c-0.67,0.17-0.97,0.88-0.71,1.27
			C139.93,146.44,140.89,146.06,141.03,145.36z"/>
		<path id="XMLID_1831_" d="M119.03,58.23c1.04,0.84,3.18,0.56,3.09-0.41c0-0.05-0.01-0.09-0.02-0.13c-0.26-0.7-1.35-1.03-2.22-0.93
			C118.75,56.9,118.32,57.65,119.03,58.23z"/>
		<path id="XMLID_1830_" d="M118.34,166.15c0.25-0.93-0.42-2.47-3.27-2.64c-2.91,0.02-4.56,1.9-3.71,3.35
			C112.66,169.09,117.69,168.58,118.34,166.15z"/>
		<path id="XMLID_1829_" d="M71.73,151.41c0.11-0.03,0.26-0.17,0.09-0.51c0,0,0,0,0,0c0,0,0,0,0,0s0,0,0,0v0l0,0c0,0,0,0,0,0v0l0,0
			c-0.29-0.47-0.8-0.58-0.87-0.28c-0.03,0.14,0.04,0.28,0.07,0.35l0,0l0,0c0,0,0,0,0,0l0,0v0c0,0,0,0,0,0l0,0v0
			C71.24,151.34,71.57,151.45,71.73,151.41z"/>
		<path id="XMLID_1828_" d="M153.25,137.96c-0.28-0.12-0.81,0.01-1.13,0.64c-0.31,0.77,0.17,1.23,0.74,1
			C153.6,139.3,153.86,138.22,153.25,137.96z"/>
		<path id="XMLID_1827_" d="M161.29,143.19c0.56-0.24,0.9-1.21,0.49-1.38c-0.22-0.09-0.62,0.14-0.86,0.62
			c-0.01,0.02-0.02,0.04-0.03,0.06C160.68,142.99,160.88,143.36,161.29,143.19z"/>
		<path id="XMLID_1826_" d="M90.92,161.4L90.92,161.4L90.92,161.4L90.92,161.4l-0.01,0c0,0,0,0,0,0h0
			c-0.07-0.02-0.27-0.06-0.42,0.03c-0.31,0.18-0.06,0.66,0.41,0.79l0,0c0.47,0.11,0.53-0.17,0.54-0.21
			C91.47,161.85,91.33,161.54,90.92,161.4C90.92,161.41,90.92,161.4,90.92,161.4L90.92,161.4z"/>
		<path id="XMLID_1825_" d="M81.26,69.06c-0.59,0.75-0.26,1.24,0.17,1.35c0.99,0.25,2.32-1.03,1.82-1.76
			C82.94,68.2,81.95,68.3,81.26,69.06z"/>
		<path id="XMLID_1824_" d="M142.6,150.32c1.06-0.29,1.6-1.51,0.86-1.96c-0.44-0.26-1.25-0.12-1.79,0.56
			c-0.03,0.03-0.07,0.09-0.11,0.16C141.12,149.88,141.69,150.57,142.6,150.32z"/>
		<path id="XMLID_1823_" d="M163.94,144.08c1.38-0.61,2.41-3.36,1.38-3.73c-0.44-0.16-1.39,0.27-2.11,1.73
			c-0.02,0.06-0.06,0.14-0.08,0.2C162.61,143.58,163.02,144.49,163.94,144.08z"/>
		<path id="XMLID_1822_" d="M164.19,132.25c-0.63-0.28-1.49,0.41-1.86,1.48c-0.43,1.39,0.16,2.18,0.94,1.93
			C164.58,135.24,165.26,132.73,164.19,132.25z"/>
		<path id="XMLID_1821_" d="M139.95,74.69c0.41,0.82,1.33,0.94,1.65,0.55c0.45-0.55-0.31-1.6-1.12-1.57
			C140.1,73.68,139.68,74.01,139.95,74.69z"/>
		<path id="XMLID_1820_" d="M67.73,118.26c-0.92-0.84-2.24-0.33-2.28,1.32c0.09,1.4,1.03,1.99,1.67,1.95
			C68.49,121.45,68.89,119.31,67.73,118.26z"/>
		<path id="XMLID_1819_" d="M69.92,128.38c1.85-0.27,2.11-3.06,0.42-4.4c-1.49-1.18-3.23-0.1-3.04,1.89
			C67.54,127.62,68.84,128.54,69.92,128.38z"/>
		<path id="XMLID_1818_" d="M146.2,150.62c0.3-0.53,0.28-0.91-0.06-1.1c-0.37-0.21-1.02-0.05-1.48,0.57
			c-0.15,0.26-0.24,0.42-0.21,0.67C144.52,151.45,145.56,151.48,146.2,150.62z"/>
		<path id="XMLID_1817_" d="M158.73,131.43c-0.62-0.26-1.56,0.19-2,1.37c-0.47,1.43,0.39,2.31,1.36,1.91
			C159.43,134.14,159.87,131.91,158.73,131.43z"/>
		<path id="XMLID_1816_" d="M73.94,147.11c1.21-0.34,0.79-2.31-0.66-3.09c-1.2-0.64-2.17,0.08-1.8,1.34
			c0.02,0.08,0.05,0.15,0.08,0.23C72.1,146.75,73.23,147.32,73.94,147.11z"/>
		<path id="XMLID_1815_" d="M162.55,139.39c-0.18-0.07-0.48,0.11-0.65,0.47c-0.01,0.01-0.01,0.03-0.02,0.05
			c-0.15,0.41,0.01,0.71,0.32,0.57C162.64,140.29,162.88,139.53,162.55,139.39z"/>
		<path id="XMLID_1814_" d="M66.51,95.86c-0.31,1.2,0.26,2,1,2.09c1.42,0.16,2.49-2.08,1.53-3.19
			C68.36,93.98,67.03,94.34,66.51,95.86z"/>
		<path id="XMLID_1813_" d="M97.48,172.94C97.48,172.94,97.48,172.94,97.48,172.94c0.45,0.25,1.16,0.31,1.47,0.14
			c0.04-0.02,0.41-0.24-0.18-0.59c0,0,0,0,0,0c-0.67-0.37-1.75-0.27-1.6,0.15C97.21,172.78,97.4,172.89,97.48,172.94z"/>
		<path id="XMLID_1812_" d="M83.43,144.59c0.18-0.72-0.21-2.02-1.62-2.54c-0.03-0.01-0.08-0.02-0.12-0.03
			c-1.49-0.39-2.4,0.98-1.56,2.37C81.03,145.89,83.07,146.02,83.43,144.59z"/>
		<path id="XMLID_1811_" d="M62.81,115c-0.4-0.35-0.95-0.08-1,0.67c0.01,0.7,0.42,1,0.71,0.99C63.18,116.65,63.38,115.5,62.81,115z"
			/>
		<path id="XMLID_1810_" d="M57.49,121.57c0.06,0.63,0.41,0.9,0.64,0.89c0.51-0.02,0.58-1.07,0.11-1.5
			C57.93,120.68,57.47,120.84,57.49,121.57z"/>
		<path id="XMLID_1809_" d="M57.21,112.65c-0.05,1.7,0.81,2.75,1.68,2.77c1.67,0.04,2.33-3.18,0.94-4.6
			C58.95,109.92,57.44,110.31,57.21,112.65z"/>
		<path id="XMLID_1808_" d="M59.52,103.8c-0.14,1.07,0.39,1.56,0.82,1.57c0.97,0.02,1.52-1.75,0.8-2.56
			C60.63,102.26,59.76,102.63,59.52,103.8z"/>
		<path id="XMLID_1807_" d="M68.54,88.44c1.11,0.12,2.16-1.61,1.51-2.5c-0.42-0.58-1.53-0.44-2.12,0.81
			C67.54,87.76,67.95,88.38,68.54,88.44z"/>
		<path id="XMLID_1806_" d="M101.61,64.88c-0.05,1.25,2.01,1.65,3.05,0.59c0.71-0.71,0.45-1.94-1.18-1.99
			C102.34,63.53,101.63,64.23,101.61,64.88z"/>
		<path id="XMLID_1805_" d="M81.27,63.12c-0.65,0.67-0.5,1.19,0.02,1.29c1.02,0.19,2.54-1.13,2.06-1.78
			C83.1,62.28,82.16,62.3,81.27,63.12z"/>
		<path id="XMLID_1804_" d="M95.92,62.27C95.92,62.27,95.93,62.27,95.92,62.27c0.54-0.42,0.39-0.97-0.26-1.04
			c-0.21-0.02-0.62-0.01-1.06,0.31c0,0,0,0,0,0c-0.39,0.31-0.46,0.81,0.04,0.99C94.86,62.61,95.39,62.65,95.92,62.27z"/>
		<path id="XMLID_1803_" d="M76.96,67.34c1.09,0.15,2.64-1.37,2.09-2.06c-0.28-0.36-1.27-0.29-2.17,0.65
			C76.23,66.71,76.41,67.27,76.96,67.34z"/>
		<path id="XMLID_1802_" d="M110.62,151.22c0.18-0.7-0.4-1.38-1.24-1.45c-1.17-0.03-1.75,0.97-1.3,1.71
			C108.67,152.47,110.35,152.29,110.62,151.22z"/>
		<path id="XMLID_1801_" d="M89.84,164.6c0.7,0.62,1.68,0.72,2.19,0.46c0.76-0.39,0.25-1.35-0.88-1.69
			c-1.09-0.32-1.94,0.16-1.58,0.89C89.59,164.31,89.64,164.41,89.84,164.6z"/>
		<path id="XMLID_1800_" d="M89.93,159.23c0.1-0.4-0.2-1.13-1.22-1.49c-0.04-0.01-0.09-0.03-0.14-0.04c-1-0.24-1.63,0.41-1.15,1.19
			C88.05,159.88,89.71,160.1,89.93,159.23z"/>
		<path id="XMLID_1799_" d="M150.3,122.69c-0.13,0.75,0.49,1.1,0.93,0.88c0.64-0.31,0.64-1.32,0.01-1.52
			C150.95,121.96,150.46,122.09,150.3,122.69z"/>
		<path id="XMLID_1798_" d="M149.87,114.01c-0.6-0.12-1.58,0.19-1.7,1.52c0,1.48,1.32,2.23,2.25,1.64
			C151.62,116.41,151.25,114.29,149.87,114.01z"/>
		<path id="XMLID_1797_" d="M98.17,166.05c0.16-0.71-0.61-1.67-2.14-1.99c-1.61-0.26-2.62,0.61-1.93,1.66
			C95.02,167.13,97.87,167.36,98.17,166.05z"/>
		<path id="XMLID_1796_" d="M94.95,170.45c-1.14-0.35-2.16-0.07-1.88,0.52c0.1,0.22,0.33,0.37,0.47,0.47
			c0.73,0.47,1.84,0.64,2.38,0.37C96.54,171.49,96.04,170.78,94.95,170.45z"/>
		<path id="XMLID_1795_" d="M88.45,162.81c0.07-0.31-0.21-0.9-1.09-1.23c-0.03-0.01-0.08-0.03-0.12-0.04
			c-0.83-0.22-1.35,0.2-0.99,0.81C86.73,163.2,88.28,163.52,88.45,162.81z"/>
		<path id="XMLID_1794_" d="M130.51,153.32c0.4,0.47,1.37,0.1,1.46-0.55c0.05-0.36-0.2-0.7-0.72-0.64
			C130.53,152.25,130.18,152.95,130.51,153.32z"/>
		<path id="XMLID_1793_" d="M128.27,156.11c0.38,0.66,1.67,0.31,1.86-0.49c0.09-0.36-0.12-0.84-0.86-0.79
			C128.39,154.96,128.03,155.7,128.27,156.11z"/>
		<path id="XMLID_1792_" d="M66.94,146.65c0.73,1.54,2.07,2.28,2.9,2.09c1.39-0.32,0.75-2.85-0.99-3.93
			c-1.24-0.76-2.46-0.29-2.07,1.33C66.83,146.4,66.9,146.56,66.94,146.65z"/>
		<path id="XMLID_1791_" d="M67.84,150.73c0.27,0.51,0.89,1.01,1.32,0.92c0.2-0.04,0.46-0.29,0.14-0.94c0,0,0,0,0,0
			c-0.42-0.8-1.38-1.22-1.58-0.69C67.61,150.27,67.78,150.61,67.84,150.73C67.83,150.72,67.84,150.72,67.84,150.73z"/>
		<path id="XMLID_1790_" d="M78.78,164.6c0.5,0.51,1.34,0.86,1.77,0.74c0.54-0.16,0.14-0.91-0.74-1.4c-0.81-0.45-1.5-0.36-1.34,0.17
			C78.53,164.32,78.69,164.49,78.78,164.6z"/>
		<path id="XMLID_1789_" d="M85.12,158.26c0.05-0.17-0.06-0.51-0.53-0.71c-0.04-0.01-0.09-0.03-0.12-0.04
			c-0.42-0.1-0.66,0.18-0.46,0.52C84.27,158.49,85.02,158.64,85.12,158.26z"/>
		<path id="XMLID_1788_" d="M82.91,164.19c0.85-0.31,0.22-1.54-1.1-2.16c-1.17-0.55-2.11-0.26-1.83,0.57
			c0.09,0.26,0.27,0.47,0.38,0.6C81.06,163.96,82.26,164.42,82.91,164.19z"/>
		<path id="XMLID_1787_" d="M99.92,73.76c0.47-0.77-0.11-1.72-1.24-1.52c-0.9,0.2-1.29,0.93-1.13,1.48
			C97.83,74.69,99.33,74.72,99.92,73.76z"/>
		<path id="XMLID_1786_" d="M128.03,81.58c-0.01-0.92-0.86-1.52-1.68-1.57c-1.36-0.08-2.01,1.22-1.09,2.17
			C126.09,83.03,127.87,83.01,128.03,81.58z"/>
		<path id="XMLID_1785_" d="M124.13,91.51c-1.49-0.2-2.47,0.89-2.52,2.02c-0.09,2,2.24,3.21,3.72,1.93
			C126.65,94.33,126.23,92.01,124.13,91.51z"/>
		<path id="XMLID_1784_" d="M123.33,67.64c0.17,1.48,2.63,2.21,3.56,1.04c0.62-0.77-0.03-2.09-1.54-2.37
			C124.03,66.12,123.24,66.84,123.33,67.64z"/>
		<path id="XMLID_1783_" d="M125.61,99.33c0.67,0.72,1.95,0.57,2.17-0.53c0.08-0.89-0.66-1.36-1.21-1.4
			C125.46,97.3,124.86,98.52,125.61,99.33z"/>
		<path id="XMLID_1782_" d="M136.74,98.16c-0.23,1.81,1.7,3.2,3.08,2.22c1.12-0.8,1.17-2.99-0.75-3.75
			C137.78,96.25,136.87,97.11,136.74,98.16z"/>
		<path id="XMLID_1781_" d="M148.58,112.4c0.86,0.39,1.54-0.63,1.24-1.49c-0.12-0.33-0.25-0.43-0.5-0.6
			c-0.63-0.29-1.15,0.17-1.28,0.75c-0.09,0.41,0.03,0.72,0.09,0.85C148.22,112.16,148.35,112.25,148.58,112.4z"/>
		<path id="XMLID_1780_" d="M146.64,119.19c0.24-1.07-0.37-1.82-1.07-1.9c-1.23-0.14-2.05,1.54-1.26,2.6
			C144.91,120.73,146.28,120.5,146.64,119.19z"/>
		<path id="XMLID_1779_" d="M106.88,60.77c-0.87,0.06-1.5,0.58-1.37,1.14c0.21,0.89,2.04,0.96,2.65,0.1
			C108.56,61.43,108.04,60.73,106.88,60.77z"/>
		<path id="XMLID_1778_" d="M121.31,81.5c0.01,0.61,0.85,0.94,1.27,0.49c0.3-0.32,0.19-0.97-0.5-1.1
			C121.54,80.83,121.3,81.21,121.31,81.5z"/>
		<path id="XMLID_1777_" d="M142.89,95.36c-0.9-0.28-1.38,0.37-1.44,0.92c-0.12,1.17,1.2,2.04,2.01,1.33
			C144.1,97.06,143.91,95.8,142.89,95.36z"/>
		<path id="XMLID_1776_" d="M128.84,92.59c-0.9-0.15-1.34,0.53-1.36,1.06c-0.05,1.07,1.19,1.75,1.98,1.08
			C130.16,94.15,129.95,92.89,128.84,92.59z"/>
		<path id="XMLID_1775_" d="M123.14,78c-0.53,0-0.79,0.47-0.46,0.84c0.36,0.39,1.13,0.31,1.17-0.23
			C123.83,78.19,123.42,78,123.14,78z"/>
		<path id="XMLID_1774_" d="M127.21,113.63c0.17-0.77-0.29-1.47-1.03-1.56c-1.09-0.13-1.81,1.16-1.13,2.04
			C125.58,114.79,126.82,114.82,127.21,113.63z"/>
		<path id="XMLID_1773_" d="M132.98,91.47c-0.32-0.05-0.88,0.04-0.98,0.7v0c-0.08,0.84,1,1.43,1.62,0.88
			c0.21-0.19,0.24-0.41,0.26-0.52C133.92,92.04,133.52,91.55,132.98,91.47z"/>
		<path id="XMLID_1772_" d="M86.44,65.82c-0.91,0.96-0.6,1.81,0.2,2.04c1.5,0.43,3.56-1.21,2.97-2.37
			C89.25,64.78,87.76,64.6,86.44,65.82z"/>
		<path id="XMLID_1771_" d="M85.65,70.84c0.96,0.3,2.25-0.8,1.87-1.59c-0.28-0.57-1.33-0.57-2.07,0.21
			C84.85,70.18,85.21,70.7,85.65,70.84z"/>
		<path id="XMLID_1770_" d="M75.74,88.99c-0.69,1.79,0.22,3.12,1.51,3.36c2.32,0.45,4.38-2.38,3.15-4.33
			C79.51,86.62,76.96,86.49,75.74,88.99z"/>
		<path id="XMLID_1769_" d="M73.9,111.13c-0.02,0.34,0.21,0.54,0.44,0.54c0.42,0.01,0.62-0.55,0.3-0.86
			C74.39,110.58,73.96,110.69,73.9,111.13z"/>
		<path id="XMLID_1768_" d="M74.5,109.39c0,1.05,0.94,1.46,1.59,0.96c0.84-0.65,0.58-2.09-0.39-2.18
			C75.27,108.13,74.58,108.43,74.5,109.39z"/>
		<path id="XMLID_1767_" d="M121.54,106.98c0.18-1-0.52-1.71-1.31-1.82c-1.35-0.19-2.24,1.3-1.41,2.38
			C119.5,108.41,121.12,108.46,121.54,106.98z"/>
		<path id="XMLID_1766_" d="M123.85,110.61c0.19-1-0.54-1.56-1.11-1.64c-1.14-0.16-1.91,1.17-1.23,2.11
			C122.1,111.92,123.49,111.81,123.85,110.61z"/>
		<path id="XMLID_1765_" d="M120.09,115.41c0.34-1.38-0.6-2.38-1.66-2.52c-1.77-0.23-2.96,1.8-1.9,3.24
			C117.38,117.27,119.42,117.35,120.09,115.41z"/>
		<path id="XMLID_1764_" d="M96.84,66.6c0.45,0.19,0.94,0.1,1.46-0.26c0.64-0.58,0.26-1.23-0.48-1.29
			c-0.53-0.04-0.85,0.18-1.08,0.35C96.2,65.89,96.37,66.4,96.84,66.6z"/>
		<path id="XMLID_1763_" d="M134.96,98.87c-0.54-0.12-0.82,0.29-0.86,0.62c-0.07,0.66,0.65,1.13,1.14,0.74
			C135.68,99.89,135.6,99.09,134.96,98.87z"/>
		<path id="XMLID_1762_" d="M112.92,77.24c0.02,0.51,0.72,0.72,1.07,0.33c0.28-0.31,0.11-0.8-0.44-0.87
			C113.1,76.68,112.91,77,112.92,77.24z"/>
		<path id="XMLID_1761_" d="M143.44,102.71c0.75-0.51,0.67-1.87-0.38-2.34c-0.87-0.28-1.37,0.37-1.45,0.93
			C141.45,102.42,142.58,103.29,143.44,102.71z"/>
		<path id="XMLID_1760_" d="M128.43,118.46c0.25-0.98-0.39-1.69-1.12-1.79c-1.24-0.17-2.07,1.28-1.34,2.31
			C126.54,119.78,127.96,119.81,128.43,118.46z"/>
		<path id="XMLID_1759_" d="M107.38,82c0.04,2.75,3.74,4.07,5.82,2.08c1.69-1.62,1.23-4.9-2.2-5.28
			C108.73,78.76,107.36,80.43,107.38,82z"/>
		<path id="XMLID_1758_" d="M92.78,82.49c0.09,2.05,2.81,2.68,4.29,0.99c1.19-1.36,0.78-3.76-1.72-3.71
			C93.68,79.95,92.73,81.3,92.78,82.49z"/>
		<path id="XMLID_1757_" d="M86.63,129.91c-0.3-0.05-0.43-0.07-0.66,0.03c-0.82,0.36-0.78,1.68,0.3,2.05
			c0.33,0.06,0.46,0.08,0.75-0.07c0.1-0.05,0.32-0.23,0.42-0.53C87.61,130.85,87.36,130.16,86.63,129.91z"/>
		<path id="XMLID_1756_" d="M102.99,69.63c-1.25,0.2-1.81,1.12-1.62,1.86c0.34,1.33,2.53,1.41,3.3,0.11
			C105.29,70.55,104.38,69.48,102.99,69.63z"/>
		<path id="XMLID_1755_" d="M98.33,70.02c-0.02,0-0.06,0-0.08,0c-0.62,0.07-0.89,0.53-0.88,0.84c0.02,0.63,0.9,0.81,1.41,0.29
			C99.23,70.67,98.98,70.03,98.33,70.02z"/>
		<path id="XMLID_1754_" d="M76.9,131.07c0.53,0.97,1.74,0.99,2.03,0.04c0.17-0.57-0.13-1.39-0.85-1.69
			c-0.03-0.01-0.07-0.02-0.1-0.03C77.02,129.1,76.38,130.11,76.9,131.07z"/>
		<path id="XMLID_1753_" d="M140.47,105.43c-0.18,1.06,0.87,1.9,1.68,1.33c0.66-0.46,0.77-1.76-0.28-2.23
			C141.09,104.29,140.57,104.81,140.47,105.43z"/>
		<path id="XMLID_1752_" d="M88.5,71.03c-0.51,0.64-0.26,1.17,0.24,1.34c0.95,0.34,2.16-0.67,1.76-1.46
			C90.24,70.41,89.24,70.26,88.5,71.03z"/>
		<path id="XMLID_1751_" d="M81.45,103.76c0.64,0.75,1.87,0.21,1.97-0.86c0.06-0.62-0.31-1.26-1.11-1.22
			C81.15,101.86,80.93,103.14,81.45,103.76z"/>
		<path id="XMLID_1750_" d="M81.55,97.68c0.44,2.03,2.81,2.4,4.02,0.63c1.29-1.88,0.08-4.33-1.96-3.96
			C81.97,94.74,81.27,96.38,81.55,97.68z"/>
		<path id="XMLID_1749_" d="M86.88,78.88c0.3,0.71,0.95,0.92,1.92,0.61c1.58-0.77,1.66-2.68,0.47-3.13
			c-0.45-0.17-0.74-0.07-1.23,0.08C86.9,76.99,86.56,78.11,86.88,78.88z"/>
		<path id="XMLID_1748_" d="M81.6,116.6L81.6,116.6c-0.05-1.09-0.8-1.48-1.23-1.55c-0.87-0.13-1.63,0.6-1.63,1.56
			c0.01,0.18,0.03,0.75,0.5,1.19C80.17,118.68,81.6,117.95,81.6,116.6z"/>
		<path id="XMLID_1747_" d="M79.19,122.19c0.26,0.55,0.94,0.55,1.13,0c0.1-0.26,0.07-0.76-0.4-0.98
			C79.32,121.02,78.94,121.66,79.19,122.19z"/>
		<path id="XMLID_1746_" d="M104.05,74.04c-2.21,0.1-3.51,1.68-3.49,3.15c0.03,2.55,3.6,3.54,5.62,1.56
			C107.81,77.16,107.36,74.17,104.05,74.04z"/>
		<path id="XMLID_1745_" d="M100.46,135.21c0.09-0.39-0.11-1-0.8-1.15c-0.88-0.1-1.29,0.73-0.9,1.36
			C99.21,136.13,100.29,136,100.46,135.21z"/>
		<path id="XMLID_1744_" d="M104.27,81.27c-1.08,0.05-1.53,0.89-1.49,1.47c0.06,1.17,1.6,1.61,2.46,0.7
			C105.98,82.65,105.58,81.33,104.27,81.27z"/>
		<path id="XMLID_1743_" d="M122.72,126.01c0.31-0.89-0.19-1.82-1.11-2.09c-1.43-0.4-2.64,1.03-1.95,2.29
			C120.25,127.28,122.08,127.55,122.72,126.01z"/>
		<path id="XMLID_1742_" d="M110.97,90.18c0.01,1.61,2.03,2.42,3.18,1.27c0.93-0.93,0.69-2.84-1.19-3.1
			C111.71,88.3,110.97,89.24,110.97,90.18z"/>
		<path id="XMLID_1741_" d="M133.86,125.32c0.01-0.31-0.19-0.78-0.74-0.73c-0.63,0.12-0.81,0.89-0.45,1.3
			C133.1,126.36,133.85,126,133.86,125.32z"/>
		<path id="XMLID_1740_" d="M120.8,88.54c0,1.38,1.75,2.09,2.68,1.09c0.73-0.79,0.34-2.2-0.99-2.47
			C121.32,87.03,120.8,87.89,120.8,88.54z"/>
		<path id="XMLID_1739_" d="M142.19,122.78c0.14-0.52-0.15-1.04-0.63-1.08c-0.74-0.07-1.23,0.93-0.74,1.51
			C141.16,123.61,141.93,123.58,142.19,122.78z"/>
		<path id="XMLID_1738_" d="M118.34,80.49c-1.5-0.1-2.15,0.98-2.12,1.77c0.04,1.71,2.33,2.51,3.49,1.23
			C120.54,82.58,120.18,80.79,118.34,80.49z"/>
		<path id="XMLID_1737_" d="M130.35,127.03c0.04-0.77-0.46-1.84-1.7-1.8c-1.51,0.21-2.02,2.03-1.19,3.01
			C128.43,129.39,130.27,128.63,130.35,127.03z"/>
		<path id="XMLID_1736_" d="M167.68,130.75C167.68,130.75,167.68,130.74,167.68,130.75c0.23-0.9-0.07-1.3-0.28-1.4
			c-0.43-0.19-1.01,0.34-1.24,1.14c-0.16,0.63-0.06,0.99,0.06,1.18C166.57,132.26,167.39,131.76,167.68,130.75z"/>
		<path id="XMLID_1735_" d="M120.04,121.05c0.32-1.28-0.51-2.2-1.46-2.33c-1.61-0.22-2.7,1.67-1.74,3.02
			C117.57,122.76,119.43,122.8,120.04,121.05z"/>
		<path id="XMLID_1734_" d="M107.44,147.58c0.24-0.98-0.54-1.95-1.67-2.07c-1.62-0.1-2.4,1.26-1.79,2.34
			C104.77,149.27,107.06,149.09,107.44,147.58z"/>
		<path id="XMLID_1733_" d="M113.48,130.05c0.22-1.09-0.43-2.37-1.85-2.53c-1.74-0.09-2.84,1.86-1.87,3.33
			C110.78,132.39,113.11,131.9,113.48,130.05z"/>
		<path id="XMLID_1732_" d="M114.25,123.39C114.25,123.38,114.25,123.38,114.25,123.39c0.25-0.74-0.21-1.72-1.16-1.88
			c-0.44-0.07-1.27,0.05-1.63,0.98c0,0,0,0.01,0,0.01c-0.41,1.23,0.92,2.32,2.09,1.72C114.03,123.96,114.18,123.56,114.25,123.39z"
			/>
		<path id="XMLID_1731_" d="M116.35,128.21c0.05-0.37-0.15-0.91-0.77-0.96c-0.76,0.01-1.08,0.85-0.7,1.37
			C115.3,129.21,116.24,128.95,116.35,128.21z"/>
		<path id="XMLID_1730_" d="M147.41,113.97c0.17-0.94-0.43-1.41-0.84-1.48c-0.96-0.16-1.59,1.17-0.94,2
			C146.12,115.15,147.13,114.99,147.41,113.97z"/>
		<path id="XMLID_1729_" d="M151.21,104.16c-0.26-0.04-0.67,0.1-0.68,0.67c0.04,0.63,0.62,0.91,1,0.65
			C152.02,105.15,151.8,104.26,151.21,104.16z"/>
		<path id="XMLID_1728_" d="M96.08,115.2c0.88-0.68,0.52-2.11-0.57-2.25c-0.74-0.1-1.37,0.46-1.4,1.24
			C94.17,115.44,95.39,115.73,96.08,115.2z"/>
		<path id="XMLID_1727_" d="M148.02,92.62c-0.07,1.23,1.33,2.2,2.11,1.47c0.53-0.5,0.44-1.78-0.68-2.36
			C148.61,91.39,148.05,91.92,148.02,92.62z"/>
		<path id="XMLID_1726_" d="M100.86,100.91c-0.53,0.04-0.72,0.53-0.69,0.86c0.06,0.67,0.82,0.9,1.23,0.37
			C101.75,101.69,101.52,100.93,100.86,100.91z"/>
		<path id="XMLID_1725_" d="M145.78,88.15c-0.93-0.33-1.53,0.26-1.55,1c-0.04,1.32,1.54,2.31,2.38,1.49
			C147.17,90.08,147.02,88.72,145.78,88.15z"/>
		<path id="XMLID_1724_" d="M139.54,79.9c-2.67-0.71-4.25,0.99-4.19,2.97c0.12,3.51,4.75,5.83,6.88,3.44
			C143.96,84.38,142.47,80.85,139.54,79.9z"/>
		<path id="XMLID_1723_" d="M94.02,105.01c0.88-1.08,0.33-2.94-1.21-2.93c-1.22,0.16-1.63,1.3-1.52,2.06
			C91.48,105.59,93.12,106.11,94.02,105.01z"/>
		<path id="XMLID_1722_" d="M92.8,86.46c-0.68,0.1-0.93,0.68-0.89,1.05c0.07,0.77,1.04,0.97,1.55,0.32
			C93.9,87.25,93.62,86.42,92.8,86.46z"/>
		<path id="XMLID_1721_" d="M93.68,98.05c-0.79,0.08-1.35,0.88-1.2,1.71c0.2,1.12,1.52,1.44,2.2,0.53
			C95.3,99.47,94.98,98,93.68,98.05z"/>
		<path id="XMLID_1720_" d="M137.46,123.2c0.01-0.03,0.02-0.05,0.02-0.08c0.02-0.06,0.04-0.17,0.05-0.34
			c-0.07-0.02-0.14-0.04-0.21-0.06c0.06,0.02,0.12,0.03,0.19,0.05c0-0.93-0.6-1.48-1.21-1.61c-0.51-0.11-1.27,0.03-1.77,0.8
			c-0.01,0-0.01,0-0.02-0.01c-0.13,0.24-0.16,0.36-0.19,0.47c-0.35,1.62,1.17,2.52,2.35,1.8
			C137.22,123.89,137.39,123.4,137.46,123.2z"/>
		<path id="XMLID_1719_" d="M145.51,122.1c-0.02-0.27-0.23-0.64-0.63-0.56c-0.49,0.16-0.58,0.84-0.26,1.14
			C144.99,123.04,145.55,122.67,145.51,122.1z"/>
		<path id="XMLID_1718_" d="M148.36,122.43c-0.04-0.54-0.44-1.21-1.21-1.02c-0.97,0.35-1.09,1.77-0.41,2.29
			C147.46,124.24,148.44,123.47,148.36,122.43z"/>
		<path id="XMLID_1717_" d="M144.13,128.46c-0.01-0.9-0.64-2.06-2.03-1.82c-1.69,0.48-2.14,2.66-1.14,3.67
			C142.12,131.49,144.14,130.32,144.13,128.46z"/>
		<path id="XMLID_1716_" d="M106.73,115.23c0.91-0.74,0.5-2.16-0.66-2.3c-0.58-0.07-1.42,0.28-1.49,1.27
			C104.63,115.43,105.94,115.88,106.73,115.23z"/>
		<path id="XMLID_1715_" d="M120.88,60.02c-0.14-0.17-0.42-0.39-0.97-0.46h-0.01c-0.61-0.06-1.23,0.23-1.14,0.71
			c0.04,0.22,0.32,0.63,1.11,0.73c0,0,0,0,0,0C120.74,61.09,121.3,60.54,120.88,60.02z"/>
		<path id="XMLID_1714_" d="M119.94,62.72c-0.16-0.17-0.4-0.2-0.48-0.21h-0.01l0,0h-0.01l0,0c-0.45-0.01-0.62,0.23-0.59,0.41
			c0.02,0.12,0.17,0.35,0.58,0.4h0c0,0,0,0,0,0h0.01h0l0.01,0C120.01,63.33,120.16,62.96,119.94,62.72z"/>
		<path id="XMLID_1713_" d="M105.27,125.13c-0.67-0.06-1.15,0.52-1.12,1.05v0.01c0.02,0.13,0.05,0.42,0.33,0.68
			c0.68,0.61,1.76,0.12,1.71-0.78v-0.01C106.12,125.39,105.58,125.16,105.27,125.13z"/>
		<path id="XMLID_1712_" d="M122.08,62.74c0.26,1.75,3.76,2.57,4.73,1.11c0.61-0.91-0.27-2.3-2.17-2.63
			C122.88,60.98,121.94,61.82,122.08,62.74z"/>
		<path id="XMLID_1711_" d="M103.78,110.44c1.08-0.83,0.61-2.49-0.75-2.66c-0.79-0.09-1.65,0.42-1.73,1.43
			C101.33,110.75,102.91,111.11,103.78,110.44z"/>
		<path id="XMLID_1710_" d="M103.78,119.32c1.4-1.12,0.77-3.38-1-3.61c-1.06-0.14-2.23,0.59-2.26,2.01
			C100.68,119.77,102.67,120.21,103.78,119.32z"/>
		<path id="XMLID_1709_" d="M132.26,61.88c0.41,0.52,1.46,0.63,1.5,0.16c0-0.03,0-0.07-0.01-0.1c-0.13-0.41-0.67-0.65-1.01-0.68
			C132.21,61.2,131.97,61.52,132.26,61.88z"/>
		<path id="XMLID_1708_" d="M104.16,102.3c-0.91-0.13-2.28,0.39-2.46,1.97c-0.03,1.93,2.03,2.69,3.34,1.7
			C106.51,104.86,105.97,102.56,104.16,102.3z"/>
		<path id="XMLID_1707_" d="M93.82,78.48c0.66-0.74,0.32-1.83-0.84-1.8c-0.95,0.11-1.34,0.86-1.32,1.35
			C91.71,79.05,93.06,79.33,93.82,78.48z"/>
		<path id="XMLID_1706_" d="M131.22,64.19c0.55,0.55,1.63,0.46,1.63-0.12c0-0.02,0-0.05-0.01-0.07c-0.11-0.5-0.72-0.74-1.11-0.75
			C131.06,63.23,130.77,63.75,131.22,64.19z"/>
		<path id="XMLID_1705_" d="M129.34,68.83c0.08,1.31,2.2,2.12,3.02,1.15c0.56-0.65,0.06-1.83-1.24-2.18
			C129.96,67.54,129.3,68.13,129.34,68.83z"/>
		<path id="XMLID_1704_" d="M126.08,56.33c-0.71-0.1-0.97,0.21-0.92,0.46c0.11,0.61,1.46,0.96,1.82,0.47
			C127.2,56.96,126.85,56.48,126.08,56.33z"/>
		<path id="XMLID_1703_" d="M102.04,124.67c1.28-1.06,0.71-3.16-0.91-3.36c-0.95-0.12-1.99,0.57-2.01,1.88
			C99.27,125.04,101.07,125.47,102.04,124.67z"/>
		<path id="XMLID_1702_" d="M97.27,148.03c0.08-0.36-0.19-0.82-0.72-0.93c-0.72-0.11-1.05,0.53-0.72,1.02
			C96.22,148.69,97.13,148.64,97.27,148.03z"/>
		<path id="XMLID_1701_" d="M99.26,150.78c0.09-0.47-0.22-1.23-1.2-1.44c-1.15-0.15-1.69,0.77-1.2,1.53
			C97.47,151.81,99.06,151.76,99.26,150.78z"/>
		<path id="XMLID_1700_" d="M94.78,149.66c0.18-0.73-0.35-1.73-1.5-2.05c-1.34-0.31-2.21,0.8-1.53,1.94
			C92.53,150.84,94.48,150.92,94.78,149.66z"/>
		<path id="XMLID_1699_" d="M99.88,148.04c0.06-0.28-0.15-0.64-0.55-0.71c-0.57-0.07-0.84,0.43-0.57,0.8
			C99.06,148.57,99.77,148.51,99.88,148.04z"/>
		<path id="XMLID_1696_" d="M74.5,121.96c0.86,1.62,2.85,1.56,3.43-0.1c0.3-0.86,0.14-2.39-1.18-3.08
			c-0.05-0.02-0.13-0.05-0.18-0.07C74.87,118.12,73.56,120.19,74.5,121.96z M74.87,119.77c0.08-0.24,0.34-0.51,0.68-0.35
			c0.39,0.25,0.32,0.87-0.02,1.06C75.13,120.72,74.71,120.26,74.87,119.77z"/>
		<path id="XMLID_1695_" d="M102.02,152.67c0.07-0.36-0.17-0.94-0.94-1.09c-0.95-0.1-1.3,0.67-0.96,1.2
			C100.58,153.51,101.86,153.44,102.02,152.67z"/>
		<path id="XMLID_1694_" d="M103.23,149.71c0.04-0.21-0.08-0.57-0.57-0.66c-0.55-0.05-0.8,0.4-0.57,0.75
			C102.38,150.24,103.14,150.18,103.23,149.71z"/>
		<path id="XMLID_1693_" d="M109.39,118.3c0.2-0.76-0.32-1.34-0.92-1.44c-0.42-0.07-0.71,0.1-0.84,0.18
			c-0.23,0.14-0.29,0.28-0.43,0.58c-0.28,1.05,0.83,1.75,1.65,1.32C109.17,118.78,109.25,118.61,109.39,118.3z"/>
		<path id="XMLID_1692_" d="M113.28,107.97c-1.09-0.15-1.83,1.04-1.17,1.91c0.54,0.71,1.86,0.77,2.23-0.42
			C114.5,108.61,113.91,108.06,113.28,107.97z"/>
		<path id="XMLID_1691_" d="M73.14,127.8c0.75,1.49,2.59,1.56,3.01,0.12c0.2-0.67,0.06-1.97-1.18-2.6
			c-0.05-0.02-0.11-0.05-0.16-0.06C73.4,124.78,72.39,126.33,73.14,127.8z"/>
		<path id="XMLID_1690_" d="M88.97,143.13c0.11-0.43-0.11-1.2-0.97-1.46c-0.32-0.05-0.52-0.08-0.79,0.08
			c-0.73,0.41-0.52,1.65,0.56,1.98C88.05,143.76,88.78,143.84,88.97,143.13z"/>
		<path id="XMLID_1689_" d="M86.81,147.54c-0.02-0.01-0.04-0.01-0.06-0.02c-0.45-0.12-0.77,0.27-0.56,0.68
			c0.25,0.48,0.91,0.54,1.05,0.11C87.32,148.11,87.23,147.72,86.81,147.54z"/>
		<path id="XMLID_1688_" d="M107.8,139.93c0.2-0.88-0.36-1.94-1.62-2.13c-1.64-0.15-2.45,1.51-1.67,2.64
			C105.4,141.72,107.46,141.41,107.8,139.93z"/>
		<path id="XMLID_1687_" d="M103.24,128.84c0.11-0.59-0.17-1.5-1.16-1.67c-1.26-0.08-1.84,1.24-1.27,2.15
			C101.46,130.37,103.01,130.06,103.24,128.84z"/>
		<path id="XMLID_1686_" d="M89.3,109.95c2.04-1.39,1.49-4.55-0.84-4.91c-1.38-0.21-2.99,0.74-3.18,2.64
			C85.19,109.89,87.48,111.18,89.3,109.95z"/>
		<path id="XMLID_1685_" d="M128.34,154.02c0.24,0.36,0.95,0.18,1.07-0.28c0.08-0.29-0.16-0.53-0.5-0.5
			C128.37,153.3,128.18,153.77,128.34,154.02z"/>
		<path id="XMLID_1684_" d="M128.74,145.28c-0.67,0.09-0.96,0.74-0.68,1.14c0.36,0.51,1.28,0.22,1.38-0.44
			C129.49,145.7,129.34,145.26,128.74,145.28z"/>
		<path id="XMLID_1683_" d="M89.41,91.58c-1.34,0.25-1.79,1.48-1.68,2.27c0.21,1.5,2.02,1.93,3.01,0.72
			C91.76,93.34,91.16,91.44,89.41,91.58z"/>
		<path id="XMLID_1682_" d="M132.99,134.97c0.16-0.45-0.15-0.73-0.42-0.76c-0.54-0.06-0.93,0.59-0.59,0.98
			C132.23,135.49,132.79,135.44,132.99,134.97z"/>
		<path id="XMLID_1681_" d="M126.42,147.96c-1.87,0.15-2.82,1.92-2.15,3.08c0.92,1.57,3.72,0.91,4.16-0.99
			C128.68,149.01,127.98,147.92,126.42,147.96z"/>
		<path id="XMLID_1680_" d="M133.93,133.86c0.34,0.5,1.2,0.43,1.49-0.3c0.17-0.53-0.14-0.95-0.55-1.04
			C134.12,132.35,133.5,133.24,133.93,133.86z"/>
		<path id="XMLID_1679_" d="M120.54,157.13c0.69,0.69,2.16,0.23,2.21-0.7c0.02-0.42-0.36-0.98-1.27-0.91
			C120.38,155.69,120.01,156.6,120.54,157.13z"/>
		<path id="XMLID_1678_" d="M119.96,158.79c0.02-0.25-0.21-0.58-0.8-0.55c-0.7,0.09-0.89,0.61-0.65,0.89
			C118.9,159.59,119.91,159.35,119.96,158.79z"/>
		<path id="XMLID_1677_" d="M120.56,153.88c0.54,0.67,1.86,0.29,1.99-0.57c0.08-0.53-0.37-0.95-0.99-0.93c0,0,0,0-0.01,0
			C120.49,152.45,120.15,153.38,120.56,153.88z"/>
		<path id="XMLID_1676_" d="M107.72,153.71c0.05-0.28-0.15-0.7-0.75-0.78c-0.77-0.04-0.99,0.56-0.72,0.94
			C106.64,154.41,107.62,154.31,107.72,153.71z"/>
		<path id="XMLID_1675_" d="M91.9,115.1c1.05-0.84,0.62-2.59-0.68-2.76c-0.78-0.1-1.64,0.45-1.69,1.53
			C89.6,115.38,91.08,115.75,91.9,115.1z"/>
		<path id="XMLID_1674_" d="M121.36,150.41h0.02c0.4-0.03,0.57-0.31,0.61-0.46c0.07-0.31-0.17-0.58-0.52-0.57h-0.01
			c-0.07,0-0.25,0.02-0.41,0.15C120.71,149.8,120.76,150.36,121.36,150.41L121.36,150.41z"/>
		<path id="XMLID_1673_" d="M87,126.72c0.37-1.08-0.09-2.56-1.49-3.08c-1.8-0.55-3.2,1.4-2.28,3.15
			C84.11,128.48,86.4,128.43,87,126.72z"/>
		<path id="XMLID_1672_" d="M172.37,136.21c0.81-0.53,1.48-2.91,0.87-3.07c-0.16-0.04-0.67,0.16-1.16,1.54
			c-0.03,0.11-0.09,0.29-0.13,0.5C171.77,136.02,171.96,136.48,172.37,136.21z"/>
		<path id="XMLID_1671_" d="M154.55,154.06c-0.43-0.19-1.5,0.08-2.45,1.28c-0.06,0.08-0.21,0.28-0.34,0.56
			c-0.43,0.94,0.04,1.47,1,1.12C154.27,156.47,155.47,154.48,154.55,154.06z"/>
		<path id="XMLID_1670_" d="M61.91,90.17c-0.45,1.41,0.18,2.09,0.76,2.12c1.39,0.08,2.57-2.43,1.62-3.44
			C63.69,88.22,62.5,88.67,61.91,90.17z"/>
		<path id="XMLID_1669_" d="M52.8,111.61c0.48,0,0.66-1.15,0.24-1.57c-0.25-0.26-0.61-0.02-0.68,0.66
			C52.34,111.33,52.6,111.62,52.8,111.61z"/>
		<path id="XMLID_1668_" d="M54.79,124.08c-0.58-0.51-1.15,0-1.08,0.98c0.01,0.05,0.01,0.1,0.02,0.14c0.14,1.01,0.7,1.66,1.14,1.62
			C55.67,126.76,55.62,124.81,54.79,124.08z"/>
		<path id="XMLID_1667_" d="M64.05,86.2c-0.2-0.22-0.64-0.06-0.88,0.48c-0.17,0.45-0.01,0.74,0.23,0.76
			C63.9,87.47,64.38,86.56,64.05,86.2z"/>
		<path id="XMLID_1666_" d="M60.62,100.81c2.25,0.15,3.97-4,2.46-5.92c-0.96-1.22-3.12-0.82-4.03,2.22
			C58.55,99.29,59.47,100.73,60.62,100.81z"/>
		<path id="XMLID_1665_" d="M139.22,162.92c-0.45-0.24-1.44-0.05-2.21,0.61c-0.12,0.12-0.31,0.29-0.44,0.54
			c-0.34,0.7,0.29,1.09,1.28,0.8C139.12,164.49,139.95,163.31,139.22,162.92z"/>
		<path id="XMLID_1664_" d="M138.26,167.44c-0.53-0.24-1.79,0-2.8,0.73c-0.16,0.12-0.55,0.42-0.69,0.77c-0.3,0.72,0.7,0.98,1.98,0.5
			C138.22,168.9,139.05,167.79,138.26,167.44z"/>
		<path id="XMLID_1663_" d="M63.43,159.48c-0.53-1.15-3.24-3.85-3.4-3.4c-0.02,0.06-0.03,0.31,0.74,1.29
			c1.13,1.41,2.18,2.27,2.54,2.41C63.51,159.87,63.56,159.76,63.43,159.48z"/>
		<path id="XMLID_1662_" d="M55,148.98c0.1,0.05,0.11-0.05,0.04-0.25c-0.23-0.61-0.96-1.59-1.04-1.39c-0.02,0.05,0,0.19,0.21,0.6
			C54.54,148.56,54.87,148.92,55,148.98z"/>
		<path id="XMLID_1661_" d="M142.64,156.99c-0.38-0.21-1.16-0.03-1.7,0.56c-0.08,0.1-0.15,0.18-0.23,0.32
			c-0.35,0.67,0.12,1.12,0.93,0.89C142.65,158.47,143.29,157.34,142.64,156.99z"/>
		<path id="XMLID_1660_" d="M64.62,66.03c0.01,0,0.02,0,0.03-0.01c0.33-0.09,1.01-0.84,0.87-0.96c-0.08-0.07-0.41,0.13-0.74,0.51
			C64.48,65.92,64.52,66.04,64.62,66.03z"/>
		<path id="XMLID_1659_" d="M166.21,137.18c-0.12-0.05-0.39,0.06-0.58,0.51c-0.17,0.46,0,0.71,0.25,0.6
			C166.27,138.11,166.52,137.29,166.21,137.18z"/>
		<path id="XMLID_1658_" d="M165.94,143.94c-0.25-0.12-0.74,0.36-0.98,0.84c-0.31,0.65-0.17,1.02,0.16,0.91
			C165.72,145.49,166.36,144.14,165.94,143.94z"/>
		<path id="XMLID_1657_" d="M161.94,145.86c-0.91-0.39-2.75,0.55-4.12,2.76c-0.22,0.38-0.35,0.66-0.42,0.84
			c-0.79,1.98-0.06,3.13,1.57,2.47C161.51,150.89,163.63,146.58,161.94,145.86z"/>
		<path id="XMLID_1656_" d="M49.2,136.58c0.39,0.14,0.19-1.18-0.36-2.39c-0.37-0.82-0.75-1.25-0.88-0.99
			c-0.06,0.13-0.09,0.45,0.15,1.3C48.5,135.8,48.99,136.5,49.2,136.58z"/>
		<path id="XMLID_1655_" d="M66.86,142.69c0.34-0.07,0.21-0.72-0.2-0.97c-0.28-0.17-0.56-0.04-0.48,0.35
			c0.01,0.03,0.02,0.07,0.03,0.11c0,0,0,0,0,0l0,0c0,0,0,0,0,0.01c0,0,0,0,0,0l0,0l0,0c0,0,0,0,0,0.01v0
			C66.39,142.6,66.7,142.73,66.86,142.69z"/>
		<path id="XMLID_1654_" d="M63.78,161.02c-0.01,0.06-0.03,0.19,1.33,1.46c0.11,0.1,0.26,0.24,0.37,0.34
			c0.55,0.5,1.15,1.03,1.78,1.56c1.1,0.92,1.61,1.28,1.85,1.43c0.14,0.08,0.19,0.1,0.23,0.11c0.01-0.01,0.02-0.03,0.02-0.04
			C69.02,165.19,64.33,161.1,63.78,161.02z"/>
		<path id="XMLID_1653_" d="M161.44,156.41c1.03-0.82,1.91-2.29,1.41-2.35c-0.3-0.04-1.08,0.54-1.74,1.42
			c-0.43,0.59-0.53,0.91-0.54,1.07C160.55,156.9,160.91,156.84,161.44,156.41z"/>
		<path id="XMLID_1652_" d="M160.38,154.69c0.59-0.34,1.15-1.28,0.8-1.36c-0.15-0.04-0.55,0.16-0.95,0.71
			c-0.06,0.08-0.19,0.28-0.23,0.47C159.93,154.77,160.08,154.85,160.38,154.69z"/>
		<path id="XMLID_1651_" d="M49.66,118.17c0.54,0.01,0.59-1.69,0.06-2.17c-0.3-0.27-0.63,0.07-0.64,0.92
			C49.12,117.78,49.45,118.17,49.66,118.17z"/>
		<path id="XMLID_1650_" d="M49.74,113.93c0.91,0,1.16-2.79,0.32-3.56c-0.47-0.42-1.06,0.14-1.15,1.53
			C48.88,113.38,49.41,113.93,49.74,113.93z"/>
		<path id="XMLID_1649_" d="M49.53,139.19c-0.12,0.17-0.02,0.88,0.62,2.36c0.99,2.25,2.11,3.9,2.57,4.12c0.33,0.16,0.33-0.35,0-1.33
			C51.92,141.95,49.89,138.67,49.53,139.19z"/>
		<path id="XMLID_1648_" d="M58.2,154.18c0,0.02,0.01,0.08,0.16,0.31c0.21,0.29,0.43,0.52,0.51,0.57c0.05,0.03,0.05,0,0.04-0.04
			C58.83,154.79,58.23,154.09,58.2,154.18z"/>
		<path id="XMLID_1647_" d="M90,176.21c-0.09-0.02-0.38-0.08-0.4-0.02c-0.06,0.15,1.31,0.64,1.64,0.59c0.1-0.01,0.04-0.07-0.03-0.12
			C91.04,176.55,90.57,176.34,90,176.21z"/>
		<path id="XMLID_1646_" d="M83.64,56.31c0.54,0.1,1.63-0.6,1.39-0.89c-0.12-0.15-0.68-0.1-1.25,0.3
			C83.36,56.05,83.39,56.27,83.64,56.31z"/>
		<path id="XMLID_1645_" d="M87.9,176.23c-0.8-0.25-0.84-0.22-0.87-0.21c0.2,0.2,3.6,1.39,3.71,1.29c-0.02-0.02-0.04-0.04-0.17-0.1
			C90.22,177.04,89.09,176.61,87.9,176.23z"/>
		<path id="XMLID_1644_" d="M96.43,178.63c0-0.02-0.01-0.06-0.22-0.16c-0.41-0.19-1.59-0.58-2.93-0.85
			c-0.45-0.08-0.88-0.15-0.95-0.07C92.37,177.83,96.24,178.85,96.43,178.63z"/>
		<path id="XMLID_1643_" d="M108.29,177.76c-0.23-0.14-0.77-0.22-1.19-0.17c-0.08,0.01-0.31,0.04-0.36,0.14
			c-0.11,0.22,0.88,0.42,1.43,0.29C108.35,177.97,108.49,177.87,108.29,177.76z"/>
		<path id="XMLID_1642_" d="M81.72,168.84c2.41,1.88,4.54,1.96,5.16,1.83c1.37-0.28,0.87-1.67-1.04-2.9
			c-2.47-1.59-5.44-1.85-5.23-0.44C80.72,167.97,81.47,168.62,81.72,168.84z"/>
		<path id="XMLID_1641_" d="M48.89,107.98c1.98,0.07,3.24-6.29,1.58-8.01c-0.75-0.78-2.17,0.04-2.77,3.55
			C47.33,106.27,48.01,107.95,48.89,107.98z"/>
		<path id="XMLID_1640_" d="M98.29,178.83c-0.14-0.02-0.28-0.03-0.3,0.01c0.02,0.12,1.16,0.32,1.29,0.27
			c0.03-0.01,0.01-0.03-0.05-0.06C99.1,178.99,98.72,178.89,98.29,178.83z"/>
		<path id="XMLID_1639_" d="M87.25,173.03c-0.23,0.17,0.6,0.69,1.17,0.73c0.21,0.02,0.39-0.05,0.19-0.27
			c-0.16-0.18-0.6-0.42-1.02-0.49C87.53,172.99,87.34,172.97,87.25,173.03z"/>
		<path id="XMLID_1035_" d="M55.32,136.78c0.97-0.06,0.55-2.5-0.6-3.48c-0.7-0.59-1.25-0.15-1.14,0.92c0,0.02,0.02,0.19,0.09,0.48
			C54.04,136.02,54.81,136.81,55.32,136.78z"/>
		<path id="XMLID_1034_" d="M134.78,172.03c-0.16-0.06-0.53,0.01-0.84,0.19c-0.06,0.03-0.2,0.12-0.24,0.23
			c-0.09,0.22,0.37,0.2,0.77,0.02C134.79,172.32,134.99,172.1,134.78,172.03z"/>
		<path id="XMLID_1033_" d="M111.89,174.84c-0.22-0.17-0.82-0.28-1.32-0.16c-0.09,0.03-0.28,0.08-0.37,0.19
			c-0.22,0.28,0.45,0.56,1.15,0.49C111.86,175.32,112.2,175.08,111.89,174.84z"/>
		<path id="XMLID_1032_" d="M82.06,170.2C82.05,170.2,82.05,170.2,82.06,170.2c-0.62-0.47-1.55-0.73-1.54-0.43
			c0,0.15,0.25,0.34,0.33,0.41c0.42,0.32,1.02,0.57,1.34,0.56c0.31-0.01,0.22-0.22,0-0.42C82.15,170.27,82.09,170.23,82.06,170.2z"
			/>
		<path id="XMLID_1031_" d="M77.6,171.68c0.02,0.01,0.06,0.03,0.08,0.04l-0.39-0.22L77.6,171.68z"/>
		<path id="XMLID_1030_" d="M132.77,170.31c-0.76-0.35-2.78-0.33-4.87,0.79c-0.3,0.18-1.02,0.61-1.28,1.15
			c-0.59,1.24,1.69,1.68,4.13,0.8C132.98,172.26,134,170.87,132.77,170.31z"/>
		<path id="XMLID_1029_" d="M121.2,178.61c0.12-0.07,0.12-0.13-0.01-0.17c-0.21-0.06-0.74-0.05-1.22,0.08
			c-0.24,0.07-0.37,0.13-0.38,0.19C119.56,178.91,120.79,178.83,121.2,178.61z"/>
		<path id="XMLID_1028_" d="M116.87,177.09c1.11-0.3,1.45-0.83,0.78-1.2c-0.55-0.3-2.04-0.55-3.66-0.15
			c-0.25,0.08-0.92,0.27-1.09,0.62C112.51,177.15,115,177.6,116.87,177.09z"/>
		<path id="XMLID_1027_" d="M85.77,171.87c-0.19-0.25-0.8-0.68-1.55-0.87c-0.12-0.02-0.41-0.08-0.53,0.02
			c-0.31,0.26,0.92,1.1,1.77,1.19C85.83,172.26,85.95,172.12,85.77,171.87z"/>
		<path id="XMLID_1026_" d="M73.11,61.57c0.55-0.05,1.51-0.95,1.23-1.14c-0.14-0.09-0.62,0.04-1.13,0.52
			c-0.34,0.33-0.41,0.62-0.15,0.63C73.07,61.57,73.09,61.57,73.11,61.57z"/>
		<path id="XMLID_1025_" d="M72.21,63.96c1-0.05,2.65-1.69,2.1-2.09c-0.3-0.22-1.2,0.1-2.01,0.91
			C71.68,63.43,71.64,63.98,72.21,63.96z"/>
		<path id="XMLID_1024_" d="M125.21,166.45c-0.04,0.03-0.11,0.08-0.17,0.15c-0.21,0.28,0.1,0.53,0.57,0.47
			c0.52-0.07,0.83-0.46,0.54-0.67C125.94,166.24,125.51,166.26,125.21,166.45z"/>
		<path id="XMLID_1023_" d="M59.78,68c0.19-0.15,0.77-0.82,0.79-0.91c0,0-0.01,0-0.01,0c-0.07,0.04-0.32,0.29-0.58,0.6
			c-0.16,0.19-0.24,0.3-0.25,0.34c0,0,0,0,0.01,0C59.76,68.02,59.77,68.01,59.78,68z"/>
		<path id="XMLID_1022_" d="M59.63,68.39c-0.1-0.01-0.59,0.51-1.1,1.16c-0.33,0.43-0.48,0.67-0.46,0.73c0.01,0,0.03,0.01,0.1-0.04
			C58.54,69.94,59.71,68.53,59.63,68.39z"/>
		<path id="XMLID_1021_" d="M120.7,45.34c0.01-0.04,0.02-0.08,0.03-0.12c-0.12-0.09-0.26-0.16-0.95-0.27
			c-5.62-0.61-5.73-0.62-8.66-0.6c-5.26,0.25-5.26,0.25-8.47,0.73c-0.6,0.11-0.61,0.13-0.69,0.26c0.23,0.12,0.46,0.24,2.23,0.38
			C109.46,46.17,119.39,46.03,120.7,45.34z"/>
		<path id="XMLID_1020_" d="M125.03,49.81c0.07,0.07,0.16,0.14,0.24,0.2c1.4,1.02,4.4,1.35,4.34,0.48
			c-0.04-0.55-1.63-1.46-3.65-1.55C124.72,48.94,124.61,49.39,125.03,49.81z"/>
		<path id="XMLID_1019_" d="M153.49,147.79c-0.27-0.12-0.86,0.02-1.3,0.69c-0.03,0.05-0.07,0.13-0.1,0.18
			c-0.29,0.65,0.08,1.1,0.7,0.85C153.61,149.19,154.08,148.04,153.49,147.79z"/>
		<path id="XMLID_1018_" d="M174.43,120.83c-0.15,1.2,0.15,1.88,0.53,1.75c0.76-0.25,1.09-2.93,0.4-3.26
			C175.1,119.19,174.63,119.58,174.43,120.83z"/>
		<path id="XMLID_1017_" d="M175.86,112.93L175.86,112.93c0-0.01,0-0.01,0-0.01v-0.01c0.01-0.51-0.13-0.74-0.21-0.8
			c-0.13-0.08-0.33,0.1-0.35,0.65c-0.01,0.47,0.11,0.67,0.16,0.73C175.62,113.67,175.82,113.47,175.86,112.93z"/>
		<path id="XMLID_1016_" d="M45.9,118.39c0.87,0.08,0.93-4.08,0.08-5.23c-0.37-0.51-0.75-0.11-0.91,0.96
			C45,114.61,45,115.07,45,115.35C45.06,117.4,45.56,118.36,45.9,118.39z"/>
		<path id="XMLID_1015_" d="M56.98,72.32c0.02-0.01,0.05-0.02,0.07-0.03c0.5-0.31,1.76-2.04,1.51-2.08
			c-0.1-0.02-0.57,0.41-1.18,1.24C56.76,72.34,56.95,72.32,56.98,72.32z"/>
		<path id="XMLID_1013_" d="M174.55,96.4c0.19,0.95,0.55,1.37,0.73,1.36c0.45-0.04,0.1-1.96-0.43-2.32
			C174.57,95.24,174.43,95.68,174.55,96.4z"/>
		<path id="XMLID_1012_" d="M175.57,92.06c0.45,1.66,0.96,2.4,1.16,2.38c0.48-0.05-0.39-3.23-1.06-3.87
			c-0.02-0.02-0.04-0.03-0.06-0.05C175.36,90.35,175.26,90.82,175.57,92.06z"/>
		<path id="XMLID_1011_" d="M71.5,57.58c1.98-0.97,7.56-4.56,7.67-5.03c-0.12-0.01-0.21-0.02-1.17,0.5l-1.46,0.82
			c-1.46,0.93-3.41,2.17-4.82,3.17c-0.66,0.49-0.77,0.62-0.83,0.72c0.01,0.01,0.03,0.03,0.05,0.04
			C71.04,57.78,71.13,57.76,71.5,57.58z"/>
		<path id="XMLID_1010_" d="M175.97,90.18c0.15,0.02-0.21-1.1-0.44-1.37c-0.01-0.01-0.03-0.03-0.04-0.03
			c-0.04-0.03-0.1,0.04,0.05,0.53C175.71,89.85,175.9,90.17,175.97,90.18z"/>
		<path id="XMLID_1009_" d="M176.31,96.52c0.38-0.05-0.06-2.05-0.54-2.44c-0.01-0.01-0.03-0.02-0.04-0.03
			c-0.15-0.08-0.32,0.11-0.15,1C175.8,96.04,176.14,96.54,176.31,96.52z"/>
		<path id="XMLID_1008_" d="M96.26,47.27c-0.99,0.37-0.79,0.55-0.66,0.6c0.04,0.02,0.13,0.04,0.24,0.05
			c1.07,0.11,3.36-0.58,3.06-0.92C98.71,46.78,97.43,46.87,96.26,47.27z"/>
		<path id="XMLID_1007_" d="M92.26,47.09c1.2-0.25,4.12-1.03,4.25-1.17c-0.06-0.01-0.16-0.02-1.14,0.22l-2.66,0.7
			c-0.6,0.17-0.88,0.27-0.96,0.32C91.79,47.17,91.82,47.18,92.26,47.09z"/>
		<path id="XMLID_1006_" d="M61.46,68.94c-0.64,0.87-0.47,1.06-0.29,1.04c0.02,0,0.04-0.01,0.06-0.01c0.73-0.2,2.15-2.03,1.72-2.2
			C62.76,67.7,62.14,68.06,61.46,68.94z"/>
		<path id="XMLID_1005_" d="M61.03,68.46c0.04,0,0.09-0.02,0.13-0.03c0.86-0.35,2.77-2.62,2.29-2.74c-0.2-0.05-0.96,0.47-1.87,1.56
			C60.81,68.22,60.87,68.47,61.03,68.46z"/>
		<path id="XMLID_1004_" d="M139.55,57.46c2.67,2.23,5.59,2.75,6.35,2.11c1.42-1.19-3.38-4.83-6.33-4.8
			C138.14,54.79,137.74,55.8,139.55,57.46z"/>
		<path id="XMLID_1003_" d="M46.18,97.81c0.36-0.11,0.83-2.12,0.53-2.27c-0.1-0.05-0.34,0.26-0.55,1.13
			C45.98,97.46,46.03,97.85,46.18,97.81z"/>
		<path id="XMLID_1002_" d="M178.48,114.58c0.4-0.02,0.48-2.23,0.09-2.55c-0.14-0.11-0.36,0.16-0.41,1.13
			C178.14,114.15,178.33,114.59,178.48,114.58z"/>
		<path id="XMLID_1001_" d="M179.09,109.38C179.09,109.38,179.09,109.38,179.09,109.38c-0.03-0.83-0.2-1.03-0.2-1.04
			c-0.12-0.14-0.25,0.16-0.24,0.82c0.03,0.83,0.2,1.01,0.21,1.02C179.02,110.33,179.1,109.88,179.09,109.38z"/>
		<path id="XMLID_1000_" d="M76.79,159.87c-0.84-0.48-1.51-0.33-1.31,0.32c0.06,0.2,0.19,0.37,0.26,0.47
			c0.49,0.61,1.33,1.02,1.81,0.9C78.17,161.38,77.73,160.41,76.79,159.87z"/>
		<path id="XMLID_999_" d="M178.66,99.15c0.18-0.01-0.18-1.84-0.44-2.23c-0.01-0.02-0.02-0.04-0.04-0.05
			c-0.06-0.04-0.12,0.11,0.02,0.91C178.37,98.67,178.57,99.15,178.66,99.15z"/>
		<path id="XMLID_998_" d="M62.89,65.31c0.02,0,0.09-0.02,0.19-0.07c0.92-0.48,3.18-2.8,2.89-2.95c-0.14-0.07-1.07,0.59-2.26,1.83
			C62.66,65.23,62.85,65.3,62.89,65.31z"/>
		<path id="XMLID_997_" d="M77.43,54.99c0.56-0.11,1.77-0.92,1.54-1.03c-0.11-0.06-0.66,0.13-1.29,0.57
			c-0.56,0.41-0.41,0.47-0.37,0.47C77.33,55,77.38,55,77.43,54.99z"/>
		<path id="XMLID_996_" d="M64.43,69.22c0.97-0.12,2.71-2.19,2.22-2.63c-0.28-0.25-1.21,0.24-2.05,1.27
			C63.79,68.93,64.07,69.26,64.43,69.22z"/>
		<path id="XMLID_995_" d="M176.89,118.65c0.46-0.12,0.65-2.14,0.22-2.46c-0.23-0.17-0.5,0.35-0.58,1.12
			C176.46,118.27,176.7,118.71,176.89,118.65z"/>
		<path id="XMLID_994_" d="M169.86,75.97c-0.02-0.03-0.04-0.06-0.06-0.09c0.86,1.35,1.9,3.21,2.69,4.6
			C171.98,79.5,170.53,77.01,169.86,75.97z"/>
		<path id="XMLID_993_" d="M47.71,95.2c-0.13,0.55-0.05,0.76,0.05,0.74c0.27-0.06,0.6-1.33,0.37-1.43
			C48.05,94.46,47.86,94.66,47.71,95.2z"/>
		<path id="XMLID_992_" d="M155.61,150.19c0.12-0.24,0.45-0.89,0-1.1c-0.27-0.13-0.9,0.03-1.4,0.78c-0.14,0.26-0.27,0.51-0.22,0.78
			C154.09,151.24,155.02,151.08,155.61,150.19z"/>
		<path id="XMLID_991_" d="M149.49,55.32c-0.01,0-0.02-0.01-0.02-0.01l-1.51-0.95c0.04,0.02,0.07,0.05,0.11,0.07
			C148.44,54.67,149.4,55.27,149.49,55.32z"/>
		<path id="XMLID_990_" d="M51.8,80.37c0.29-0.21,1.07-1.67,0.93-1.74c-0.07-0.03-0.38,0.36-0.72,1c-0.35,0.67-0.3,0.79-0.23,0.75
			C51.78,80.38,51.79,80.37,51.8,80.37z"/>
		<path id="XMLID_989_" d="M147.77,54.24c-0.02-0.01-0.03-0.02-0.05-0.03c0,0,0.01,0.01,0.01,0.01L147.77,54.24z"/>
		<path id="XMLID_988_" d="M56.75,73.62c0.01,0,0.02-0.01,0.03-0.01c0.38-0.18,1.23-1.43,1.02-1.5c-0.09-0.03-0.42,0.25-0.83,0.84
			C56.59,73.54,56.66,73.64,56.75,73.62z"/>
		<path id="XMLID_987_" d="M50.1,84.04c0.01,0,0.02-0.01,0.02-0.01c0.29-0.19,0.99-1.72,0.78-1.72c-0.07,0-0.31,0.3-0.62,0.95
			C49.99,83.93,50.03,84.07,50.1,84.04z"/>
		<path id="XMLID_986_" d="M126.59,47.29L126.59,47.29L126.59,47.29L126.59,47.29L126.59,47.29l-0.01,0h0
			c-0.31-0.02-0.25,0.07-0.23,0.09c0.02,0.01,0.05,0.04,0.11,0.07c0.36,0.17,1.04,0.26,0.99,0.13
			C127.41,47.49,127.04,47.33,126.59,47.29L126.59,47.29z"/>
		<path id="XMLID_985_" d="M171.59,80.86c-0.11-0.06-0.2,0.06,0.13,0.83c0.4,0.9,0.83,1.43,0.95,1.4c0.24-0.06-0.54-1.75-1-2.17
			C171.64,80.9,171.62,80.88,171.59,80.86z"/>
		<path id="XMLID_984_" d="M147.21,54.52c0.89,0.76,2.88,1.91,2.91,1.69c0.02-0.16-1.12-1.01-2.36-1.69
			c-0.37-0.2-0.73-0.38-0.83-0.33C146.92,54.21,146.9,54.26,147.21,54.52z"/>
		<path id="XMLID_983_" d="M177.32,96.14c-0.12-0.09-0.24,0.09-0.08,0.97c0.19,0.97,0.46,1.47,0.59,1.46c0.28-0.03-0.11-2-0.47-2.39
			C177.35,96.16,177.33,96.15,177.32,96.14z"/>
		<path id="XMLID_982_" d="M162.52,88.19c-0.59-0.13-1.09,0.37-0.85,1.53c0.4,1.45,1.43,1.95,1.93,1.64
			C164.54,90.79,163.74,88.45,162.52,88.19z"/>
		<path id="XMLID_981_" d="M163.43,92.82c-0.69-0.19-1.32,0.42-1.13,1.74c0.27,1.44,1.34,2.26,2.03,1.93
			C165.47,95.94,164.8,93.19,163.43,92.82z"/>
		<path id="XMLID_980_" d="M153.6,59.09c-0.41-0.27-0.65-0.34-0.61-0.19c0.01,0.06,0.08,0.15,0.18,0.27
			c0.59,0.69,1.91,1.61,1.95,1.35C155.14,60.34,154.43,59.63,153.6,59.09z"/>
		<path id="XMLID_979_" d="M165.72,152.08c-0.41,0.63-0.5,0.93-0.52,1.05c-0.03,0.23,0.13,0.22,0.44-0.04
			c0.85-0.72,1.94-2.49,1.55-2.53C167.03,150.54,166.44,151.02,165.72,152.08z"/>
		<path id="XMLID_978_" d="M167.95,95.57c-0.55-0.2-0.92,0.4-0.79,1.28c0.2,1.15,0.91,1.77,1.38,1.53
			C169.32,97.99,168.88,95.91,167.95,95.57z"/>
		<path id="XMLID_977_" d="M161.48,68.19c-0.25-0.06-0.49,0.14,0.24,1.26c0.93,1.35,1.91,2.06,2.2,1.98
			c0.58-0.17-1.17-2.62-2.25-3.17C161.61,68.23,161.54,68.2,161.48,68.19z"/>
		<path id="XMLID_976_" d="M161.45,104.52c-0.39-0.11-0.97,0.17-0.98,1.11c0.03,0.33,0.07,0.7,0.39,1.04
			c0.55,0.58,1.38,0.24,1.39-0.84C162.16,104.9,161.76,104.6,161.45,104.52z"/>
		<path id="XMLID_975_" d="M172.5,140.82c-0.25-0.09-0.94,0.68-1.62,2.07c-0.02,0.04-0.04,0.09-0.06,0.13
			c-0.49,1.1-0.58,1.85-0.2,1.71C171.42,144.42,173.05,141.02,172.5,140.82z"/>
		<path id="XMLID_974_" d="M140.05,166.77c-0.06,0.05-0.17,0.15-0.23,0.27c-0.13,0.28,0.18,0.38,0.64,0.21
			c0.5-0.2,0.92-0.66,0.6-0.8C140.87,166.36,140.42,166.47,140.05,166.77z"/>
		<path id="XMLID_973_" d="M171.92,110.75c-0.18-0.08-0.34,0.15-0.36,0.51v0c0,0.49,0.21,0.69,0.36,0.64
			C172.23,111.8,172.23,110.9,171.92,110.75z"/>
		<path id="XMLID_972_" d="M168.32,148.3c-0.21,0.37-0.25,0.54-0.25,0.62c0,0.19,0.22-0.01,0.27-0.06c0.45-0.43,0.97-1.44,0.74-1.44
			C168.96,147.43,168.63,147.76,168.32,148.3z"/>
		<path id="XMLID_971_" d="M116.87,46.4C116.87,46.4,116.86,46.4,116.87,46.4c-0.35,0.03-0.62,0.14-0.45,0.29
			c0.04,0.04,0.11,0.08,0.21,0.12c0.22,0.08,0.78,0.22,1.43,0.18h0.01c0.34-0.03,0.6-0.13,0.44-0.29
			C118.31,46.52,117.57,46.36,116.87,46.4z"/>
		<path id="XMLID_970_" d="M104.41,46.95C104.4,46.95,104.4,46.95,104.41,46.95c-0.71,0.2-0.97,0.49-0.6,0.68
			c0.07,0.04,0.21,0.08,0.3,0.1c1.14,0.28,3.3-0.18,3.08-0.66C107.02,46.75,105.69,46.62,104.41,46.95z"/>
		<path id="XMLID_969_" d="M107.28,49.59c0.04,0.03,0.11,0.06,0.16,0.08c0.91,0.34,2.53-0.01,2.34-0.5
			c-0.13-0.33-1.14-0.53-2.1-0.28C107,49.09,106.97,49.4,107.28,49.59z"/>
		<path id="XMLID_967_" d="M170.79,119.82c0.64-0.31,0.71-1.95,0.09-2.12c-0.33-0.09-0.66,0.34-0.74,0.96v0.01
			C170.05,119.54,170.41,120,170.79,119.82z"/>
		<path id="XMLID_966_" d="M157.14,159.64c-1.85-0.11-7.63,2.22-14.71,7.73c-1.1,0.9-4.44,3.64-4.82,5.3
			c-0.4,1.81,3.18,1.3,9.87-2.67c1.22-0.75,2.79-1.84,3.98-2.64c0.81-0.59,2.02-1.51,3.2-2.56
			C158.01,161.82,159.01,159.74,157.14,159.64z"/>
		<path id="XMLID_965_" d="M169.05,105.98c0.51-0.25,0.37-1.57-0.18-1.79c-0.36-0.14-0.6,0.31-0.58,0.81v0.01
			C168.34,105.73,168.75,106.13,169.05,105.98z"/>
		<path id="XMLID_964_" d="M131.13,49.44c-0.84-0.09-0.89,0.17-0.67,0.41c0.04,0.05,0.13,0.13,0.24,0.2
			c0.98,0.7,2.97,1.06,2.83,0.51C133.43,50.19,132.25,49.58,131.13,49.44z"/>
		<path id="XMLID_962_" d="M132.44,51.43c-0.92-0.07-0.98,0.3-0.66,0.66c0.05,0.06,0.12,0.12,0.17,0.17
			c1.01,0.85,3.04,1.21,2.94,0.51C134.83,52.31,133.6,51.56,132.44,51.43z"/>
		<path id="XMLID_961_" d="M164.44,73.27c0.24-0.08-0.35-1-0.76-1.19c-0.01-0.01-0.03-0.01-0.04-0.02
			c-0.13-0.04-0.23,0.05,0.02,0.49C163.94,73.01,164.3,73.31,164.44,73.27z"/>
		<path id="XMLID_960_" d="M121.6,46.68c-1.47,0.02-1.1,0.47-1.02,0.56c0.1,0.1,0.25,0.2,0.46,0.3c1.53,0.74,4.49,0.89,4.22,0.22
			C125.07,47.26,123.15,46.7,121.6,46.68z"/>
		<path id="XMLID_958_" d="M118.97,47.69L118.97,47.69L118.97,47.69l-0.01,0h0c-0.37,0.05-0.21,0.18-0.19,0.19
			c0.02,0.01,0.04,0.03,0.06,0.04c0.15,0.08,0.45,0.16,0.77,0.14l0,0h0.01h0h0h0.01c0.35-0.05,0.23-0.17,0.2-0.2
			C119.71,47.78,119.38,47.66,118.97,47.69L118.97,47.69z"/>
		<path id="XMLID_957_" d="M171.64,109.72c0.44-0.22,0.34-1.49-0.13-1.61c-0.22-0.06-0.45,0.2-0.46,0.74
			C171.08,109.48,171.39,109.85,171.64,109.72z"/>
		<path id="XMLID_956_" d="M158.61,104.18c-0.41-0.22-0.97,0.01-1.09,0.65c-0.15,0.86,0.62,1.58,1.23,1.16
			C159.28,105.63,159.3,104.61,158.61,104.18C158.61,104.18,158.61,104.18,158.61,104.18z"/>
		<path id="XMLID_954_" d="M164.7,150.71L164.7,150.71L164.7,150.71L164.7,150.71L164.7,150.71l-0.01,0.01l0,0c0,0,0,0,0,0
			c0,0,0,0,0,0c-0.03,0.06-0.11,0.18-0.14,0.3c-0.04,0.14,0,0.23,0.15,0.14c0.32-0.19,0.72-0.87,0.54-0.93
			C165.16,150.22,164.94,150.36,164.7,150.71z"/>
		<path id="XMLID_953_" d="M178.64,123.25c-0.17,1.21-0.04,1.28,0.01,1.28c0.26-0.04,0.63-2.21,0.42-2.47
			C178.99,121.95,178.79,122.37,178.64,123.25z"/>
		<path id="XMLID_952_" d="M168.74,84.44c-1.13-0.54-1.9,0.52-1.19,3.2c0.74,2.49,2.5,4.6,3.56,4.26
			C172.88,91.34,171.03,85.55,168.74,84.44z"/>
		<path id="XMLID_951_" d="M170.6,131.73c0.98-0.36,1.6-2.91,0.8-3.29c-0.45-0.21-1.09,0.5-1.38,1.54
			C169.71,131.21,170.07,131.93,170.6,131.73z"/>
		<path id="XMLID_950_" d="M178.92,119.38c-0.07,0.68,0.01,0.97,0.08,0.95c0.2-0.05,0.37-1.59,0.2-1.76
			C179.12,118.49,178.99,118.77,178.92,119.38z"/>
		<path id="XMLID_949_" d="M179.19,115.07c-0.02,0.39,0.04,0.57,0.08,0.56c0.12-0.01,0.17-0.9,0.06-1.01
			C179.28,114.57,179.21,114.72,179.19,115.07z"/>
		<path id="XMLID_948_" d="M179.9,108.58c0.07,0.08,0.12-0.16,0.09-0.87c-0.05-0.77-0.13-1.06-0.18-1.16
			c-0.01-0.01-0.02-0.03-0.03-0.04c-0.06-0.04-0.11,0.22-0.08,0.89C179.77,108.37,179.87,108.55,179.9,108.58z"/>
		<path id="XMLID_947_" d="M148.36,130.04c-0.47-0.18-1.3-0.02-1.67,0.91c-0.36,1.19,0.6,1.9,1.5,1.47
			C149.21,131.91,149.32,130.4,148.36,130.04z"/>
		<path id="XMLID_945_" d="M174.64,98.97c-0.3-0.18-0.56,0.2-0.46,1.13c0.17,1.13,0.6,1.6,0.85,1.51
			C175.56,101.4,175.25,99.34,174.64,98.97z"/>
		<path id="XMLID_944_" d="M157.97,87.21c-0.53-0.07-0.98,0.36-0.77,1.31c0.33,1.11,1.3,1.61,1.8,1.2
			C159.74,89.12,159.01,87.36,157.97,87.21z"/>
		<path id="XMLID_943_" d="M159.41,92.58c0.13,0.56,0.57,0.75,0.79,0.58c0.34-0.26,0.05-1.09-0.4-1.17
			C159.61,91.96,159.33,92.09,159.41,92.58z"/>
		<path id="XMLID_942_" d="M173.9,139.02L173.9,139.02c-0.17,0.42-0.14,0.53-0.1,0.53c0.15-0.01,0.59-1.05,0.47-1.11
			C174.21,138.41,174.03,138.69,173.9,139.02z"/>
		<path id="XMLID_941_" d="M151.61,59.22c-0.64-0.45-0.65-0.27-0.64-0.2c0.01,0.06,0.07,0.18,0.16,0.3
			c0.56,0.77,1.94,1.83,1.97,1.52C153.13,60.6,152.35,59.75,151.61,59.22z"/>
		<path id="XMLID_939_" d="M157.74,65.49c0.16-0.1-0.41-0.75-0.77-0.87c-0.02-0.01-0.04-0.01-0.06-0.02c-0.02,0-0.23-0.02,0.07,0.37
			C157.3,65.36,157.65,65.54,157.74,65.49z"/>
		<path id="XMLID_938_" d="M176.34,131.34c-0.34,1.2-0.42,2.14-0.18,2.14c0.49,0,1.69-3.99,1.29-4.32
			C177.26,129.01,176.77,129.85,176.34,131.34z"/>
		<path id="XMLID_937_" d="M171.49,80.01c0.37-0.08-1.31-3.12-2.16-3.93c-0.09-0.08-0.16-0.13-0.18-0.13
			c-0.17-0.06-0.15,0.29,0.45,1.46C170.5,79.07,171.31,80.05,171.49,80.01z"/>
		<path id="XMLID_936_" d="M167.14,72.42c-0.04,0.07,0.2,0.46,0.39,0.76c0.52,0.8,1.09,1.51,1.19,1.5c0.07-0.15-0.98-1.68-1.43-2.14
			C167.18,72.42,167.16,72.42,167.14,72.42z"/>
		<path id="XMLID_935_" d="M166.8,73.62c-0.05-0.01-0.29-0.01,0.26,1.01c0.64,1.09,1.27,1.71,1.45,1.67
			c0.35-0.08-0.85-2.08-1.55-2.59C166.89,73.65,166.83,73.62,166.8,73.62z"/>
		<path id="XMLID_934_" d="M155.7,89.36c-0.61-0.07-1.37,0.41-1.14,1.7c0.4,1.53,1.72,2.02,2.37,1.53
			C157.97,91.79,157.11,89.53,155.7,89.36z"/>
		<path id="XMLID_933_" d="M167.28,99.99c0.46-0.23,0.24-1.42-0.29-1.61c-0.28-0.1-0.55,0.2-0.49,0.75
			C166.59,99.77,167,100.13,167.28,99.99z"/>
		<path id="XMLID_932_" d="M47.92,117.88c0.59,0.02,0.64-2.12,0.06-2.73c-0.34-0.36-0.67,0.13-0.69,1.01c0,0.04,0,0.1,0,0.14
			C47.34,117.44,47.7,117.88,47.92,117.88z"/>
		<path id="XMLID_931_" d="M70.7,162.98c-0.82-1.02-2.38-1.9-2.49-1.4c-0.04,0.18,0.12,0.47,0.48,0.88
			c0.88,0.94,1.73,1.35,2.06,1.39C71.18,163.9,71.15,163.54,70.7,162.98z"/>
		<path id="XMLID_929_" d="M133.77,176.7c0.1-0.12-0.04-0.18-0.41-0.17c-0.79,0.02-3.22,0.46-5.95,1.35
			c-1.29,0.45-1.88,0.73-1.95,0.94c0.13,0.25,1.21,0.11,2.54-0.2l0.9-0.22C131.09,177.82,133.56,176.97,133.77,176.7z"/>
		<path id="XMLID_928_" d="M173.05,94.29c-0.4-0.22-0.61,0.33-0.46,1.2c0.25,1.19,0.78,1.72,1.06,1.62
			C174.24,96.91,173.77,94.7,173.05,94.29z"/>
		<path id="XMLID_927_" d="M47.5,119.56c-0.04,0.04-0.1,0.15-0.09,0.47c0.03,0.39,0.17,0.64,0.28,0.64c0.06,0,0.16-0.11,0.15-0.5v0
			C47.81,119.75,47.63,119.43,47.5,119.56z"/>
		<path id="XMLID_926_" d="M114.43,180.64c0.28-0.01,0.56-0.02,0.84-0.04l-1.06,0.04C114.29,180.65,114.36,180.65,114.43,180.64z"/>
		<path id="XMLID_925_" d="M165.87,108.65c0.8-0.34,0.67-2.2-0.18-2.48c-0.56-0.19-0.95,0.44-0.95,1.11
			C164.77,108.4,165.43,108.84,165.87,108.65z"/>
		<path id="XMLID_924_" d="M51.12,133.22c2.02,0.06,1.13-6.77-1.16-9.02c-1.2-1.17-2.12-0.31-2.09,1.96
			c0.01,0.71,0.12,1.4,0.16,1.62C48.66,131.11,50.13,133.19,51.12,133.22z"/>
		<path id="XMLID_923_" d="M117.32,180.16c-0.28-0.03-1.03-0.01-1.66,0.06c-0.33,0.04-0.48,0.07-0.52,0.11c0,0,0,0.01,0.01,0.02
			c0.22,0.11,2.16-0.01,2.31-0.15c0-0.01,0-0.01,0-0.02C117.41,180.17,117.39,180.17,117.32,180.16z"/>
		<path id="XMLID_922_" d="M117.38,178.59c-0.9-0.31-3.4-0.58-6.15-0.2c-1.18,0.2-1.83,0.43-1.94,0.69
			c-0.42,1.02,6.42,1.23,8.32,0.26C118.11,179.09,118.02,178.81,117.38,178.59z"/>
		<path id="XMLID_921_" d="M169.83,116.26c1.44-0.64,1.47-4.15,0.03-4.75c-0.72-0.3-1.59,0.43-1.75,2.15
			C168.01,115.37,168.87,116.68,169.83,116.26z"/>
		<path id="XMLID_920_" d="M58.11,94.53c-0.11,0.43,0.07,0.63,0.23,0.64c0.39,0.01,0.7-0.78,0.42-1.08
			C58.58,93.9,58.26,94.06,58.11,94.53z"/>
		<path id="XMLID_919_" d="M168.14,118.67C168.14,118.67,168.14,118.67,168.14,118.67c-0.01,0.08-0.03,0.32,0.08,0.5
			c0.15,0.25,0.49,0.19,0.6-0.35v-0.01v0v0l0,0v0v0v0c0.04-0.4-0.12-0.58-0.22-0.62C168.41,118.09,168.19,118.33,168.14,118.67z"/>
		<path id="XMLID_918_" d="M122.66,179.28c-0.45-0.05-1.64,0.05-2.71,0.26c-0.73,0.15-0.86,0.25-0.85,0.3
			c0.06,0.26,3.43-0.15,3.75-0.45C122.9,179.35,122.89,179.3,122.66,179.28z"/>
		<path id="XMLID_917_" d="M171.44,99.89c-1.05-0.3-1.66,1.19-1.56,2.77l0,0.14c0.18,1.87,0.84,2.8,1.22,3.18
			c1.05,1.07,2.25,0.26,2.18-2.34C173.23,102.07,172.47,100.18,171.44,99.89z"/>
		<path id="XMLID_916_" d="M74.01,56.57c-0.58,0.46-0.62,0.64-0.48,0.66c0.02,0,0.08,0,0.16-0.02c0.33-0.09,0.81-0.37,1.43-0.83
			c0.58-0.46,0.61-0.64,0.46-0.65C75.57,55.72,75.16,55.72,74.01,56.57z"/>
		<path id="XMLID_915_" d="M78.52,57.33c-0.4,0.34-0.48,0.62-0.18,0.65c0.02,0,0.04,0,0.05,0c0.6-0.01,1.69-0.83,1.46-1.1
			C79.72,56.74,79.14,56.84,78.52,57.33z"/>
		<path id="XMLID_914_" d="M173.49,108.92c-0.3-0.13-0.75,0.19-0.8,1.32c0.01,1.15,0.48,1.81,0.89,1.63
			C174.32,111.53,174.25,109.25,173.49,108.92z"/>
		<path id="XMLID_913_" d="M166.87,111.96c0.48-0.24,0.42-1.33-0.08-1.49c-0.24-0.08-0.52,0.14-0.56,0.68
			C166.22,111.77,166.57,112.1,166.87,111.96z"/>
		<path id="XMLID_912_" d="M168.28,109.9c0.62-0.33,0.5-1.85-0.17-2.06c-0.28-0.09-0.69,0.14-0.72,0.94
			C167.41,109.65,167.89,110.11,168.28,109.9z"/>
		<path id="XMLID_911_" d="M71.56,158.97c-0.92-0.63-1.69-0.63-1.61,0.01c0.04,0.33,0.3,0.68,0.41,0.83c0,0,0,0,0,0.01
			c0.62,0.8,1.68,1.43,2.24,1.34C73.33,161.02,72.74,159.78,71.56,158.97z"/>
		<path id="XMLID_910_" d="M78.22,59.33c-0.07,0.07-0.21,0.22-0.41,0.46c-0.94,1.11-0.59,1.89,0.19,2.02
			c1.4,0.23,3.17-0.86,3.55-1.14c0.38-0.28,0.68-0.54,0.76-0.62c1.87-1.82,1.05-2.62-0.1-2.59c-0.31,0.01-1.95,0.13-3.88,1.76
			C78.3,59.26,78.26,59.29,78.22,59.33z"/>
		<path id="XMLID_909_" d="M103.06,179.9c-1.23-0.11-1.98-0.17-2.21-0.19l0.34,0.06c3.66,0.59,4,0.61,9.6,0.81
			c-0.16-0.01-0.32-0.02-0.48-0.03C107.88,180.36,105.47,180.12,103.06,179.9z"/>
		<path id="XMLID_908_" d="M87.34,175.64c-0.04,0.1,1.03,0.51,1.21,0.47c0.02-0.01,0.04-0.02-0.04-0.08
			c-0.11-0.08-0.46-0.24-0.87-0.36C87.45,175.63,87.35,175.61,87.34,175.64z"/>
		<path id="XMLID_907_" d="M63.19,126.27c-3.65-2.38-6.71,0.61-5.75,5.62c1.11,4.8,4.51,7.58,6.99,7.16
			C68.9,138.29,68.05,129.45,63.19,126.27z"/>
		<path id="XMLID_906_" d="M98.5,160.8c0.19-1.03-0.68-2.74-3.19-3.32c-2.8-0.44-4.03,1.32-2.93,3.02
			C93.91,162.86,98.09,163.07,98.5,160.8z"/>
		<path id="XMLID_905_" d="M156.43,61.77c-0.34-0.24-0.33-0.13-0.32-0.1c0,0.02,0.02,0.06,0.07,0.13c0.27,0.39,1.02,0.96,1.03,0.79
			C157.21,62.48,156.85,62.08,156.43,61.77z"/>
		<path id="XMLID_904_" d="M75.33,120.26c0.34-0.2,0.41-0.81,0.02-1.06c-0.34-0.16-0.6,0.1-0.68,0.35
			C74.51,120.04,74.93,120.49,75.33,120.26z"/>
		<path id="XMLID_903_" d="M127.71,178.81c0.29-0.07,0.59-0.14,0.9-0.22L127.71,178.81z"/>
		<path id="XMLID_902_" d="M75.79,119.43c0-0.07-0.01-0.14-0.03-0.22c-0.21-0.69-0.92-0.06-1.11,0.28
			c-0.05,0.08-0.05,0.16-0.03,0.23c-0.04,0.08-0.07,0.16-0.09,0.26c-0.04,0.23,0.14,0.38,0.32,0.39c0.04,0.09,0.1,0.17,0.17,0.25
			c0.06,0.06,0.13,0.08,0.21,0.08c0.09,0.1,0.23,0.14,0.37,0.05c0.24-0.15,0.4-0.42,0.46-0.7
			C76.11,119.83,76.01,119.54,75.79,119.43z"/>
		<path id="XMLID_901_" d="M76.21,119.69c-0.02-0.04-0.04-0.07-0.07-0.1c0.09-0.16,0.1-0.33-0.08-0.49
			c-0.03-0.14-0.15-0.27-0.3-0.26c-0.06,0.01-0.12,0.03-0.18,0.04c-0.07-0.02-0.15-0.01-0.23,0.03c-0.01,0-0.01,0.01-0.02,0.01
			c-0.05,0-0.1,0.01-0.15,0.04c-0.25,0.15-0.46,0.32-0.58,0.58c-0.03,0.06-0.03,0.12-0.02,0.17c0,0.01-0.01,0.01-0.01,0.01
			c0,0,0,0.01,0,0.01l-0.08,0.07c-0.18,0.15-0.11,0.36,0.04,0.46c0,0.05,0,0.1,0.01,0.15c0.03,0.12,0.12,0.19,0.23,0.21
			c0.02,0.09,0.04,0.19,0.1,0.27c0.04,0.06,0.08,0.09,0.13,0.11c0.1,0.12,0.28,0.18,0.41,0.08c0.01-0.01,0.02-0.01,0.02-0.02
			c0.03,0.03,0.05,0.05,0.09,0.08c0.32,0.18,0.61-0.24,0.41-0.47c0.01-0.01,0.01-0.02,0.02-0.04c0.04-0.06,0.08-0.12,0.12-0.18
			c0.08-0.12,0.18-0.23,0.24-0.36C76.41,119.95,76.34,119.78,76.21,119.69z"/>
	</g>
</g>
</svg>
