<?xml version="1.0" encoding="utf-8"?>
<!-- Generator: Adobe Illustrator 26.2.1, SVG Export Plug-In . SVG Version: 6.00 Build 0)  -->
<svg version="1.1" xmlns="http://www.w3.org/2000/svg" xmlns:xlink="http://www.w3.org/1999/xlink" x="0px" y="0px"
	 viewBox="0 0 225 225" style="enable-background:new 0 0 225 225;" xml:space="preserve">
<style type="text/css">
	.st0{display:none;}
	.st1{display:inline;fill:#FAB433;}
	.st2{fill:none;}
	.st3{fill:none;stroke:#000000;stroke-width:1.6;stroke-miterlimit:10;}
	.st4{fill:none;stroke:#000000;stroke-width:0.7265;stroke-miterlimit:10;}
	.st5{fill:none;stroke:#000000;stroke-linecap:round;stroke-linejoin:round;stroke-miterlimit:10;}
	.st6{fill:none;stroke:#000000;stroke-miterlimit:10;}
	.st7{fill:none;stroke:#000000;stroke-width:0.7105;stroke-miterlimit:10;}
	.st8{fill:none;stroke:#000000;stroke-width:5.4;stroke-linecap:round;stroke-linejoin:round;stroke-miterlimit:10;}
	.st9{fill:none;stroke:#000000;stroke-width:2.9309;stroke-linecap:round;stroke-linejoin:round;stroke-miterlimit:10;}
	.st10{fill:none;stroke:#000000;stroke-width:0.5;stroke-linecap:round;stroke-linejoin:round;}
	.st11{fill:none;stroke:#FFFFFF;stroke-width:0;stroke-linecap:round;stroke-linejoin:round;}
	.st12{fill:#FFFFFF;}
	.st13{fill:none;stroke:#000000;stroke-width:1.4;stroke-miterlimit:10;}
	.st14{fill:url(#);stroke:#000000;stroke-width:1.4387;stroke-miterlimit:10;}
	.st15{fill:url(#);stroke:#000000;stroke-width:1.3718;stroke-miterlimit:10;}
	.st16{fill:none;stroke:#000000;stroke-width:1.0041;stroke-miterlimit:10;}
	.st17{fill:none;stroke:#000000;stroke-width:1.3621;stroke-miterlimit:10;}
	.st18{fill:none;stroke:#000000;stroke-width:0.25;stroke-miterlimit:10;}
</style>
<g id="Layer_2" class="st0">
	<rect id="XMLID_16010_" x="-345.99" y="-30.01" class="st1" width="1160" height="772"/>
</g>
<g id="Layer_1">
	<g id="XMLID_00000077293511338301230760000007157303398553113516_">
		<g id="XMLID_00000047041691133985168580000001585241548843766424_">
			<g id="XMLID_00000061474086659469773950000009025599094049951167_">
				<path id="XMLID_00000043429331358512674850000011905134611120442276_" class="st17" d="M112.5,171.77
					c-6.31,0.01-12.63-0.96-18.98-2.97c-6.4-2.03-12.94-2.49-19.58-2.45C64.29,166.4,45,166.4,45,166.4"/>
				<path id="XMLID_00000118389481658078570870000003268113770629118904_" class="st17" d="M112.5,88.91
					C100.47,89,88.39,84.01,79.56,73.92c-2.49-2.85-5.27-4.09-8.87-4.09c-8.25,0-25.68,0-25.68,0"/>
				<path id="XMLID_00000023258138533556582470000009932552423725932943_" class="st17" d="M112.5,99.53
					c-17.25,0-30.78-7.44-40.68-20.95c-1.6-2.18-3.8-3.05-6.36-3.05c-6.97,0-20.46,0-20.46,0"/>
				<path id="XMLID_00000182506518517072884750000005948171910679377329_" class="st17" d="M112.5,77.04
					c-8.89,0.05-17.8-2.97-24.79-9.05c-2.5-2.18-5.27-3.41-8.49-3.41c-11.43,0-34.21,0-34.21,0"/>
				<path id="XMLID_00000149363851948053011580000007132866641883336884_" class="st17" d="M112.5,109.73
					c-15.86,0.04-31.87-6.87-42.9-21.09c-0.83-1.07-1.65-2.17-2.33-3.33c-1.44-2.48-3.63-3.44-6.37-3.44c-4.99,0-15.89,0-15.89,0"/>
				<path id="XMLID_00000149378541435423308150000009373521633927935109_" class="st17" d="M112.5,118.54
					c-1.1,0-2.21-0.02-3.34-0.07c-17.68-0.81-32.03-8.72-43.13-22.5c-0.81-1.01-1.57-2.1-2.13-3.26c-1.55-3.22-4.17-4.34-7.59-4.34
					c-4.1,0-11.32,0-11.32,0"/>
				<path id="XMLID_00000029731993162314268830000007550679732911995562_" class="st17" d="M112.5,127.23
					c-19.38,0.15-38.83-8.87-51.11-27.1c-2.32-3.45-5.06-4.73-9.14-4.73c-2.41,0-7.25,0-7.25,0"/>
				<path id="XMLID_00000147920066291336286580000014655328640903199930_" class="st17" d="M112.5,66.46
					c-4.4,0.07-8.78-1.22-13.09-3.84c-3.6-2.18-7.54-2.75-11.58-2.77c-14.28-0.06-42.83,0-42.83,0"/>
				<path id="XMLID_00000018211845732541967990000015907769257728021406_" class="st17" d="M112.5,167.68
					c-5.96,0.02-12-0.74-18.15-2.27c-6.18-1.54-12.04-3.86-17.57-7.02c-2.63-1.5-5.41-2.16-8.43-2.16c-7.79,0-23.36,0-23.36,0"/>
				<path id="XMLID_00000135680085286661389120000011889132231676067223_" class="st17" d="M112.5,134.68
					c-20.99,0.13-41.21-10.07-53.54-28.23c-1.81-2.66-4.07-3.87-7.22-3.87c-2.24,0-6.74,0-6.74,0"/>
				<path id="XMLID_00000154427875834417400480000018265454289362964869_" class="st17" d="M112.5,141.41
					c-21.23,0.04-41.91-9.97-54.67-27.68c-1.53-2.12-3.63-3.2-6.11-3.2c-2.39,0-6.72,0-6.72,0"/>
				<path id="XMLID_00000173132011724055383200000003779600705745489854_" class="st17" d="M112.5,147.36
					c-3.95-0.03-8-0.36-12.15-0.99c-15.41-2.34-28.53-9.48-39.39-20.68c-1.18-1.21-2.26-2.53-3.34-3.83
					c-1.71-2.07-3.94-3.05-6.55-3.05c-2.2,0-6.06,0-6.06,0"/>
				<path id="XMLID_00000087410680213726805790000016955292244585715858_" class="st17" d="M112.5,163.19
					c-15.16,0.09-29.2-4.07-41.8-12.92c-3.8-2.67-7.78-3.87-12.34-3.87c-4.58,0-13.36,0-13.36,0"/>
				<path id="XMLID_00000019670790778452774430000004458086450782178459_" class="st17" d="M112.5,158.47
					c-2.68-0.01-5.39-0.16-8.13-0.45c-15.53-1.69-29.36-7.54-41-18.16c-2.18-1.99-4.79-3.01-7.72-3.01c-3.6,0-10.64,0-10.64,0"/>
				<path id="XMLID_00000080900935392790008490000010809810397975689877_" class="st17" d="M112.5,153.24
					c-19.2-0.02-38.31-7.52-52.23-21.84c-2.32-2.39-4.92-3.75-8.2-3.8c-2.36-0.03-7.07-0.01-7.07-0.01"/>
			</g>
			<g id="XMLID_00000073723425017627439660000005443973143730312355_">
				<path id="XMLID_00000027584700744746124460000009224402192936090529_" class="st17" d="M45,58.6c0,0,19.29,0,28.94,0.05
					c6.64,0.04,13.18-0.42,19.58-2.45c6.35-2.01,12.67-2.99,18.98-2.97"/>
				<path id="XMLID_00000114031458567046840050000011742828199272329886_" class="st17" d="M45,155.17c0,0,17.44,0,25.68,0
					c3.6,0,6.38-1.25,8.87-4.09c8.83-10.09,20.91-15.07,32.94-14.98"/>
				<path id="XMLID_00000107561303984865129670000008888397971013404597_" class="st17" d="M45,149.48c0,0,13.49,0,20.46,0
					c2.56,0,4.76-0.88,6.36-3.05c9.9-13.51,23.43-20.95,40.68-20.95"/>
				<path id="XMLID_00000067943325064650638380000007348006494881587603_" class="st17" d="M45,160.42c0,0,22.78,0,34.21,0
					c3.23,0,5.99-1.24,8.49-3.41c6.99-6.07,15.9-9.1,24.79-9.05"/>
				<path id="XMLID_00000069372346919281176630000002372651937752254087_" class="st17" d="M45,143.13c0,0,10.9,0,15.89,0
					c2.74,0,4.94-0.96,6.37-3.44c0.68-1.17,1.5-2.26,2.33-3.33c11.03-14.21,27.05-21.13,42.9-21.09"/>
				<path id="XMLID_00000008863594116953131930000005371827159824544953_" class="st17" d="M45,136.63c0,0,7.21,0,11.32,0
					c3.42,0,6.03-1.12,7.59-4.34c0.56-1.16,1.32-2.25,2.13-3.26c11.09-13.78,25.45-21.69,43.13-22.5c1.13-0.05,2.24-0.08,3.34-0.07"
					/>
				<path id="XMLID_00000010299897836697396470000017139190429612959623_" class="st17" d="M45,129.59c0,0,4.84,0,7.25,0
					c4.08,0,6.81-1.28,9.14-4.73c12.29-18.23,31.73-27.25,51.11-27.1"/>
				<path id="XMLID_00000028290811442994696760000015262757251044037561_" class="st17" d="M45,165.14c0,0,28.56,0.06,42.83,0
					c4.04-0.02,7.98-0.59,11.58-2.77c4.31-2.62,8.69-3.91,13.09-3.84"/>
				<path id="XMLID_00000144321656694516519380000011283704390384632746_" class="st17" d="M45,68.77c0,0,15.57,0,23.36,0
					c3.01,0,5.8-0.66,8.43-2.16c5.53-3.16,11.39-5.47,17.57-7.02c6.14-1.53,12.19-2.29,18.15-2.27"/>
				<path id="XMLID_00000168109517040666841950000008884447908002495159_" class="st17" d="M45,122.42c0,0,4.5,0,6.74,0
					c3.15,0,5.4-1.2,7.22-3.87c12.34-18.16,32.55-28.36,53.54-28.23"/>
				<path id="XMLID_00000040544360181374086970000010008445306719937688_" class="st17" d="M45,114.48c0,0,4.33,0,6.72,0
					c2.48,0,4.58-1.08,6.11-3.2c12.76-17.72,33.44-27.73,54.67-27.68"/>
				<path id="XMLID_00000133504288348908076940000013730271046050355383_" class="st17" d="M45,106.19c0,0,3.86,0,6.06,0
					c2.62,0,4.85-0.98,6.55-3.05c1.08-1.31,2.17-2.62,3.34-3.83c10.86-11.2,23.97-18.34,39.39-20.68c4.15-0.63,8.2-0.96,12.15-0.99"
					/>
				<path id="XMLID_00000042708915892577708130000008755825181707212979_" class="st17" d="M45,78.6c0,0,8.78,0,13.36,0
					c4.56,0,8.54-1.2,12.34-3.87c12.59-8.85,26.63-13.01,41.8-12.92"/>
				<path id="XMLID_00000009590159995663586840000015044082901789501063_" class="st17" d="M45,88.15c0,0,7.04,0,10.64,0
					c2.93,0,5.54-1.02,7.72-3.01c11.65-10.62,25.47-16.47,41-18.16c2.74-0.3,5.45-0.45,8.13-0.45"/>
				<path id="XMLID_00000051381939275504421980000000629203472095215265_" class="st17" d="M45,97.4c0,0,4.72,0.03,7.07-0.01
					c3.27-0.05,5.87-1.42,8.2-3.8C74.19,79.28,93.3,71.78,112.5,71.76"/>
			</g>
		</g>
		<g id="XMLID_00000181084714332879429530000000251500916921946017_">
			<g id="XMLID_00000043451201225613760180000002501690330315948189_">
				<path id="XMLID_00000013889894303568234080000015088779632956952254_" class="st17" d="M112.5,171.77
					c6.31,0.01,12.63-0.96,18.98-2.97c6.4-2.03,12.94-2.49,19.58-2.45c9.65,0.06,28.94,0.05,28.94,0.05"/>
				<path id="XMLID_00000007426913109557671300000014379805303765400200_" class="st17" d="M112.5,88.91
					c12.03,0.09,24.11-4.89,32.94-14.98c2.49-2.85,5.27-4.09,8.87-4.09c8.25,0,25.68,0,25.68,0"/>
				<path id="XMLID_00000038387282046040847600000010677832111720835503_" class="st17" d="M112.5,99.53
					c17.25,0,30.78-7.44,40.68-20.95c1.6-2.18,3.8-3.05,6.36-3.05c6.97,0,20.46,0,20.46,0"/>
				<path id="XMLID_00000108988676986310403660000007090594865938127772_" class="st17" d="M112.5,77.04
					c8.89,0.05,17.8-2.97,24.79-9.05c2.5-2.18,5.27-3.41,8.49-3.41c11.43,0,34.21,0,34.21,0"/>
				<path id="XMLID_00000106827911562949997280000018422635491829156017_" class="st17" d="M112.5,109.73
					c15.86,0.04,31.87-6.87,42.9-21.09c0.83-1.07,1.65-2.17,2.33-3.33c1.44-2.48,3.63-3.44,6.37-3.44c4.99,0,15.89,0,15.89,0"/>
				<path id="XMLID_00000181057063812012871930000010291195984013398945_" class="st17" d="M112.5,118.54c1.1,0,2.21-0.02,3.34-0.07
					c17.68-0.81,32.03-8.72,43.13-22.5c0.81-1.01,1.57-2.1,2.13-3.26c1.55-3.22,4.17-4.34,7.59-4.34c4.1,0,11.32,0,11.32,0"/>
				<path id="XMLID_00000160879456579241397070000009057077984912568494_" class="st17" d="M112.5,127.23
					c19.38,0.15,38.83-8.87,51.11-27.1c2.32-3.45,5.06-4.73,9.14-4.73c2.41,0,7.25,0,7.25,0"/>
				<path id="XMLID_00000180343597558565048080000009439593344741186699_" class="st17" d="M112.5,66.46
					c4.4,0.07,8.78-1.22,13.09-3.84c3.6-2.18,7.54-2.75,11.58-2.77c14.28-0.06,42.83,0,42.83,0"/>
				<path id="XMLID_00000021091426107027972390000010666283320730284178_" class="st17" d="M112.5,167.68
					c5.96,0.02,12-0.74,18.15-2.27c6.18-1.54,12.04-3.86,17.57-7.02c2.63-1.5,5.41-2.16,8.43-2.16c7.79,0,23.36,0,23.36,0"/>
				<path id="XMLID_00000149379884533228823220000015230335343391781772_" class="st17" d="M112.5,134.68
					c20.99,0.13,41.21-10.07,53.54-28.23c1.81-2.66,4.07-3.87,7.22-3.87c2.24,0,6.74,0,6.74,0"/>
				<path id="XMLID_00000128455008446231837440000005955410262409741217_" class="st17" d="M112.5,141.41
					c21.23,0.04,41.91-9.97,54.67-27.68c1.53-2.12,3.63-3.2,6.11-3.2c2.39,0,6.72,0,6.72,0"/>
				<path id="XMLID_00000164471521417212038360000008538402577862528410_" class="st17" d="M112.5,147.36
					c3.95-0.03,8-0.36,12.15-0.99c15.41-2.34,28.53-9.48,39.39-20.68c1.18-1.21,2.26-2.53,3.34-3.83c1.71-2.07,3.94-3.05,6.55-3.05
					c2.2,0,6.06,0,6.06,0"/>
				<path id="XMLID_00000101066147538105494270000015331693695205166255_" class="st17" d="M112.5,163.19
					c15.16,0.09,29.2-4.07,41.8-12.92c3.8-2.67,7.78-3.87,12.34-3.87c4.58,0,13.36,0,13.36,0"/>
				<path id="XMLID_00000176006646942386547290000004044950473773393288_" class="st17" d="M112.5,158.47
					c2.68-0.01,5.39-0.16,8.13-0.45c15.53-1.69,29.36-7.54,41-18.16c2.18-1.99,4.79-3.01,7.72-3.01c3.6,0,10.64,0,10.64,0"/>
				<path id="XMLID_00000074407775971891522000000013960753546884442534_" class="st17" d="M112.5,153.24
					c19.2-0.02,38.31-7.52,52.23-21.84c2.32-2.39,4.92-3.75,8.2-3.8c2.36-0.03,7.07-0.01,7.07-0.01"/>
			</g>
			<g id="XMLID_00000057112228547562205100000012894477848585565331_">
				<path id="XMLID_00000155867678338247568840000004987641247969344651_" class="st17" d="M180,58.6c0,0-19.29,0-28.94,0.05
					c-6.64,0.04-13.18-0.42-19.58-2.45c-6.35-2.01-12.67-2.99-18.98-2.97"/>
				<path id="XMLID_00000084492871928718876140000013114763197162247299_" class="st17" d="M180,155.17c0,0-17.44,0-25.68,0
					c-3.6,0-6.38-1.25-8.87-4.09c-8.83-10.09-20.91-15.07-32.94-14.98"/>
				<path id="XMLID_00000008115358627043762050000000219406776299125686_" class="st17" d="M180,149.48c0,0-13.49,0-20.46,0
					c-2.56,0-4.76-0.88-6.36-3.05c-9.9-13.51-23.43-20.95-40.68-20.95"/>
				<path id="XMLID_00000183958375385950250350000002405602433601416582_" class="st17" d="M180,160.42c0,0-22.78,0-34.21,0
					c-3.23,0-5.99-1.24-8.49-3.41c-6.99-6.07-15.9-9.1-24.79-9.05"/>
				<path id="XMLID_00000169546791967120304950000004674285706958396811_" class="st17" d="M180,143.13c0,0-10.9,0-15.89,0
					c-2.74,0-4.94-0.96-6.37-3.44c-0.68-1.17-1.5-2.26-2.33-3.33c-11.03-14.21-27.05-21.13-42.9-21.09"/>
				<path id="XMLID_00000150810309205294707300000012190321148789794969_" class="st17" d="M180,136.63c0,0-7.21,0-11.32,0
					c-3.42,0-6.03-1.12-7.59-4.34c-0.56-1.16-1.32-2.25-2.13-3.26c-11.09-13.78-25.45-21.69-43.13-22.5
					c-1.13-0.05-2.24-0.08-3.34-0.07"/>
				<path id="XMLID_00000133502099417517974360000010144696193770490543_" class="st17" d="M180,129.59c0,0-4.84,0-7.25,0
					c-4.08,0-6.81-1.28-9.14-4.73c-12.29-18.23-31.73-27.25-51.11-27.1"/>
				<path id="XMLID_00000112622798245531468000000000806353068445067919_" class="st17" d="M180,165.14c0,0-28.56,0.06-42.83,0
					c-4.04-0.02-7.98-0.59-11.58-2.77c-4.31-2.62-8.69-3.91-13.09-3.84"/>
				<path id="XMLID_00000115492254753846532160000014338127613915952525_" class="st17" d="M180,68.77c0,0-15.57,0-23.36,0
					c-3.01,0-5.8-0.66-8.43-2.16c-5.53-3.16-11.39-5.47-17.57-7.02c-6.14-1.53-12.19-2.29-18.15-2.27"/>
				<path id="XMLID_00000082350711781923830250000000678310351418330513_" class="st17" d="M180,122.42c0,0-4.5,0-6.74,0
					c-3.15,0-5.4-1.2-7.22-3.87c-12.34-18.16-32.55-28.36-53.54-28.23"/>
				<path id="XMLID_00000062169343523316744080000001540406899842453945_" class="st17" d="M180,114.48c0,0-4.33,0-6.72,0
					c-2.48,0-4.58-1.08-6.11-3.2c-12.76-17.72-33.44-27.73-54.67-27.68"/>
				<path id="XMLID_00000109015312988277044060000017557786471922531765_" class="st17" d="M180,106.19c0,0-3.86,0-6.06,0
					c-2.62,0-4.85-0.98-6.55-3.05c-1.08-1.31-2.17-2.62-3.34-3.83c-10.86-11.2-23.97-18.34-39.39-20.68
					c-4.15-0.63-8.2-0.96-12.15-0.99"/>
				<path id="XMLID_00000076568470925569997920000009681109097339117737_" class="st17" d="M180,78.6c0,0-8.78,0-13.36,0
					c-4.56,0-8.54-1.2-12.34-3.87c-12.59-8.85-26.63-13.01-41.8-12.92"/>
				<path id="XMLID_00000142156768630509536980000010635855174952575371_" class="st17" d="M180,88.15c0,0-7.04,0-10.64,0
					c-2.93,0-5.54-1.02-7.72-3.01c-11.65-10.62-25.47-16.47-41-18.16c-2.74-0.3-5.45-0.45-8.13-0.45"/>
				<path id="XMLID_00000182492487359640153540000018334045587358694553_" class="st17" d="M180,97.4c0,0-4.72,0.03-7.07-0.01
					c-3.27-0.05-5.87-1.42-8.2-3.8c-13.92-14.31-33.03-21.82-52.23-21.84"/>
			</g>
		</g>
	</g>
</g>
</svg>
