<?xml version="1.0" encoding="utf-8"?>
<!-- Generator: Adobe Illustrator 26.2.1, SVG Export Plug-In . SVG Version: 6.00 Build 0)  -->
<svg version="1.1" xmlns="http://www.w3.org/2000/svg" xmlns:xlink="http://www.w3.org/1999/xlink" x="0px" y="0px"
	 viewBox="0 0 225 225" style="enable-background:new 0 0 225 225;" xml:space="preserve">
<style type="text/css">
	.st0{display:none;}
	.st1{display:inline;fill:#FAB433;}
	.st2{fill:none;}
	.st3{fill:none;stroke:#000000;stroke-width:1.6;stroke-miterlimit:10;}
	.st4{fill:none;stroke:#000000;stroke-width:0.7265;stroke-miterlimit:10;}
	.st5{fill:none;stroke:#000000;stroke-linecap:round;stroke-linejoin:round;stroke-miterlimit:10;}
	.st6{fill:none;stroke:#000000;stroke-miterlimit:10;}
	.st7{fill:none;stroke:#000000;stroke-width:0.7105;stroke-miterlimit:10;}
	.st8{fill:none;stroke:#000000;stroke-width:5.4;stroke-linecap:round;stroke-linejoin:round;stroke-miterlimit:10;}
	.st9{fill:none;stroke:#000000;stroke-width:2.9309;stroke-linecap:round;stroke-linejoin:round;stroke-miterlimit:10;}
	.st10{fill:none;stroke:#000000;stroke-width:0.5;stroke-linecap:round;stroke-linejoin:round;}
	.st11{fill:none;stroke:#FFFFFF;stroke-width:0;stroke-linecap:round;stroke-linejoin:round;}
	.st12{fill:#FFFFFF;}
	.st13{fill:none;stroke:#000000;stroke-width:1.4;stroke-miterlimit:10;}
	.st14{fill:url(#);stroke:#000000;stroke-width:1.4387;stroke-miterlimit:10;}
	.st15{fill:url(#);stroke:#000000;stroke-width:1.3718;stroke-miterlimit:10;}
	.st16{fill:none;stroke:#000000;stroke-width:1.0041;stroke-miterlimit:10;}
	.st17{fill:none;stroke:#000000;stroke-width:1.3621;stroke-miterlimit:10;}
	.st18{fill:none;stroke:#000000;stroke-width:0.25;stroke-miterlimit:10;}
</style>
<g id="Layer_2" class="st0">
	<rect id="XMLID_1014_" x="-590.99" y="-275.01" class="st1" width="1160" height="772"/>
</g>
<g id="Layer_1">
	<g>
		<path d="M52.31,134.75v-0.23v-22.03h-1.11v22.03v0.23v1.07v0c0,0,0,0,0,0c0.35,0.92,0.72,1.82,1.1,2.72V134.75z"/>
		<path d="M74.45,134.52v-11.99c0,0,0,0,0,0c-0.08-0.32-0.16-0.64-0.23-0.96c-0.06-0.25-0.12-0.5-0.17-0.75
			c-0.07-0.31-0.13-0.63-0.19-0.94c-0.05-0.27-0.1-0.55-0.15-0.82c-0.05-0.3-0.1-0.6-0.15-0.91c-0.05-0.32-0.08-0.63-0.12-0.95
			c-0.03-0.27-0.07-0.54-0.1-0.82v18.15v0.23v30.35v0c0.36,0.27,0.74,0.52,1.11,0.79v0v-31.14V134.52z"/>
		<path d="M68.92,134.75v-0.23v-22.03h-1.11v22.03v0.23v25.72l0,0c0,0,0,0,0,0c0.37,0.34,0.73,0.68,1.11,1.01V134.75z"/>
		<path d="M56.74,134.52v0.23v12.26c0.36,0.58,0.73,1.16,1.11,1.73v-13.98v-0.23v-22.03h-1.11V134.52z"/>
		<path d="M151.94,134.52v-22.03h-0.07c0,0.74-0.02,1.47-0.07,2.2c-0.01,0.14-0.02,0.28-0.03,0.43c-0.04,0.61-0.09,1.22-0.16,1.82
			c-0.01,0.1-0.03,0.2-0.04,0.3c-0.08,0.66-0.18,1.31-0.29,1.96c-0.01,0.04-0.01,0.08-0.02,0.12c-0.12,0.71-0.27,1.41-0.43,2.11
			c0,0,0,0,0,0v13.08v0.23v30.95c0.37-0.27,0.74-0.53,1.11-0.8c0,0,0,0,0,0v0v-30.15V134.52z"/>
		<path d="M174.08,134.52v-22.03h-1.11v22.03v0.23v3.21c0.13-0.31,0.25-0.64,0.38-0.95c0.25-0.62,0.5-1.23,0.73-1.85l0,0v-0.41
			V134.52z"/>
		<path d="M168.54,134.75v-0.23v-22.03h-1.11v22.03v0.23v13.57v0c0.21-0.33,0.42-0.66,0.63-0.99c0.16-0.25,0.32-0.49,0.47-0.74
			V134.75z"/>
		<path d="M157.47,134.52v-22.03h-1.11v22.03v0.23v26.5c0.37-0.34,0.73-0.68,1.1-1.03c0,0,0.01-0.01,0.01-0.01v0v-25.47V134.52z"/>
		<path d="M63.38,134.75v-0.23v-22.03h-1.11v22.03v0.23v19.89v0c0.31,0.37,0.63,0.73,0.94,1.09c0.05,0.06,0.11,0.13,0.16,0.19
			V134.75z"/>
		<path d="M78.88,134.52v0.23v32.98v0.23v0.84c0.36,0.22,0.74,0.43,1.11,0.64v-1.48v-0.23v-32.98v-0.11
			c-0.38-0.56-0.75-1.13-1.11-1.71V134.52z"/>
		<path d="M113.19,167.73v-15.9c-0.23,0-0.46,0.02-0.68,0.02c-0.14,0-0.28-0.01-0.42-0.01v15.89v0.23v10.12
			c0.14,0,0.28,0.01,0.42,0.01c0.23,0,0.46-0.01,0.68-0.02v0v-10.11V167.73z"/>
		<path d="M163.01,134.75v-0.23v-22.03h-1.11v22.03v0.23v20.87v0c0.19-0.22,0.38-0.44,0.57-0.66c0.18-0.2,0.36-0.41,0.53-0.61
			V134.75z"/>
		<path d="M84.41,140.03v27.7v0.23v3.81c0.37,0.17,0.74,0.33,1.11,0.5v-4.31v-0.23v-26.62c0,0,0,0,0,0
			C85.14,140.75,84.77,140.39,84.41,140.03z"/>
		<path d="M118.73,167.73v-16.37c-0.37,0.06-0.74,0.1-1.11,0.15v16.22v0.23v9.91c0.07-0.01,0.13-0.01,0.2-0.01
			c0.3-0.02,0.61-0.04,0.91-0.07v0v-9.83V167.73z"/>
		<path d="M107.66,167.73v-16.19c-0.37-0.05-0.74-0.09-1.11-0.14v16.33v0.23v9.85v0c0.37,0.03,0.74,0.06,1.11,0.08l0,0v-9.93V167.73
			z"/>
		<path d="M96.59,167.73v-19.25c-0.17-0.08-0.34-0.15-0.51-0.23c-0.2-0.09-0.4-0.18-0.6-0.27v19.75v0.23v7.88v0c0,0,0,0,0,0
			c0.37,0.1,0.73,0.2,1.1,0.29c0,0,0,0,0,0l0,0v-8.17V167.73z"/>
		<path d="M102.12,167.73v-17.28c-0.37-0.1-0.74-0.2-1.11-0.31v17.59v0.23v9.1v0c0.37,0.07,0.74,0.14,1.11,0.2v0v-9.3V167.73z"/>
		<path d="M91.05,167.73v-22.26c0,0,0,0-0.01,0c-0.37-0.24-0.73-0.49-1.09-0.74c0,0-0.01,0-0.01-0.01v23.01v0.23v6.14
			c0.35,0.13,0.71,0.24,1.07,0.36c0.01,0,0.03,0.01,0.04,0.01l0,0v-6.52V167.73z"/>
		<path d="M140.87,167.73v-27.98c-0.36,0.38-0.73,0.74-1.11,1.11v26.87v0.23v4.19l0,0c0.37-0.17,0.74-0.33,1.11-0.5v0v-3.69V167.73z
			"/>
		<path d="M129.8,167.96v-0.23v-19.88c0,0,0,0,0,0c-0.36,0.18-0.73,0.35-1.1,0.51v19.37v0.23v8.11v0c0,0,0,0,0.01,0
			c0.37-0.09,0.73-0.2,1.1-0.3V167.96z"/>
		<path d="M146.4,167.73v-32.98v-0.23v-2.04c-0.35,0.6-0.72,1.19-1.11,1.77v0.28v0.23v32.98v0.23v1.33v0
			c0.37-0.21,0.74-0.42,1.11-0.64l0,0v-0.69V167.73z"/>
		<path d="M135.33,167.96v-0.23v-23.2c0,0-0.01,0-0.01,0.01c-0.36,0.26-0.72,0.51-1.09,0.76c0,0,0,0,0,0v22.43v0.23v6.43l0,0
			c0,0,0,0,0,0c0.37-0.13,0.74-0.25,1.1-0.39V167.96z"/>
		<path d="M124.26,167.73v-17.67c-0.37,0.11-0.74,0.21-1.11,0.32v17.35v0.23v9.25v0c0.37-0.06,0.74-0.13,1.11-0.2v0v-9.06V167.73z"
			/>
		<path d="M52.31,112.49h4.43h1.11h4.43h1.11h4.43h1.11h4.24c0-4.15,0.65-8.14,1.84-11.9c0,0,0,0,0,0h0
			c1.14-3.59,2.78-6.96,4.84-10.03v0c0,0,0,0,0,0c0.2-0.3,0.41-0.59,0.62-0.88c0,0,0.01-0.01,0.01-0.01v0
			c0.89-1.24,1.84-2.43,2.86-3.56h0c0,0,0,0,0,0c0.19-0.21,0.38-0.41,0.58-0.61c0.01-0.01,0.01-0.01,0.02-0.02h0
			c1.28-1.35,2.65-2.61,4.1-3.77c0,0,0,0,0,0v0c1.45-1.15,2.98-2.21,4.58-3.15h0c0.2-0.12,0.41-0.23,0.61-0.35
			c5.21-2.94,11.14-4.73,17.47-5.02c0,0,0,0,0.01,0v0c0.6-0.03,1.2-0.05,1.81-0.05c1.74,0,3.44,0.12,5.12,0.34v0
			c0.06,0.01,0.12,0.02,0.18,0.02c5.03,0.68,9.75,2.31,14,4.7c0.2,0.12,0.41,0.23,0.61,0.35h0c0.11,0.06,0.22,0.13,0.33,0.19v0
			c0,0,0,0,0,0c3.09,1.86,5.89,4.13,8.36,6.74h0c0.01,0.01,0.01,0.01,0.02,0.02c0.19,0.2,0.39,0.4,0.58,0.61c0,0,0,0,0,0h0
			c2.78,3.08,5.08,6.6,6.79,10.44c0,0,0,0.01,0,0.01v0c0.58,1.31,1.1,2.66,1.54,4.04h0c0,0,0,0,0,0c1.19,3.75,1.84,7.75,1.84,11.9
			h0.07h4.43h1.11h4.43h1.11h4.43h1.11h4.43h1.11h4.03c0-36.21-29.39-65.6-65.6-65.6s-65.6,29.39-65.6,65.6h4.29H52.31z"/>
		<path d="M79.84,101.23v6.93H73.4c-0.02,0.21-0.04,0.42-0.06,0.63h6.5v3.71h0.63v-3.71h6.93v3.71h0.63v-3.71h3.31h0.31h3.31v3.71
			h0.63v-3.71h6.93v3.71h0.63v-3.71h6.93v3.71h0.63v-3.71h6.93v3.71h0.63v-3.71h6.93v3.71h0.63v-3.71h6.93v3.71h0.63v-3.71h3.31
			h0.32h3.31v3.71h0.63v-3.71h6.93v3.71h0.63v-3.71h3.2c-0.02-0.21-0.04-0.42-0.06-0.63h-3.14v-6.93h1.73
			c-0.06-0.21-0.12-0.42-0.19-0.63c0,0,0,0,0,0h0h-1.54v-3.31v-0.32v-0.42v0c0,0,0-0.01,0-0.01c-0.2-0.45-0.41-0.91-0.63-1.35v1.77
			v0.32v3.31h-6.93v-3.31v-0.32v-3.31h6.14c-0.12-0.21-0.24-0.42-0.36-0.63h-5.78v-6.93h0.77h0c0,0,0,0,0,0
			c-0.19-0.21-0.38-0.41-0.58-0.61c-0.01-0.01-0.01-0.01-0.02-0.02h0h-0.17V85.3c-0.21-0.22-0.41-0.44-0.63-0.66v0.84h-3.31h-0.32
			h-3.31v-6.34c-0.21-0.13-0.42-0.26-0.63-0.39c0,0,0,0,0,0v0v6.74h-6.93v-6.93h6.6h0c-0.2-0.12-0.41-0.23-0.61-0.35
			c-0.16-0.09-0.32-0.19-0.48-0.28h-5.5v-2.47c-0.21-0.08-0.42-0.14-0.63-0.21v2.68h-6.93v-4.36c-0.15-0.02-0.3-0.04-0.45-0.06
			c-0.06-0.01-0.12-0.01-0.18-0.02v0v4.44h-6.93v-4.74v0c0,0,0,0-0.01,0c-0.21,0.01-0.41,0.02-0.62,0.04v4.7h-6.93v-3.65
			c-0.21,0.05-0.42,0.1-0.63,0.15v3.5h-6.93v-0.96c-0.21,0.1-0.42,0.21-0.63,0.32v0.64H93.7c-0.16,0.09-0.32,0.19-0.48,0.28
			c-0.2,0.12-0.41,0.23-0.61,0.35h0h2.34v6.93h-3.31h-0.31h-3.31v-3.77v0c0,0,0,0,0,0c-0.21,0.17-0.42,0.33-0.63,0.5v3.27h-3.48h0
			c-0.01,0.01-0.01,0.01-0.02,0.02c-0.19,0.2-0.39,0.4-0.58,0.61c0,0,0,0,0,0h0h4.07v6.93h-6.93v-3.36v0c0,0-0.01,0.01-0.01,0.01
			c-0.21,0.29-0.42,0.58-0.62,0.88c0,0,0,0,0,0v0v2.47h-1.52c-0.12,0.21-0.25,0.42-0.36,0.63h1.89v3.31v0.32v3.31h-4.84h0
			c0,0,0,0,0,0c-0.07,0.21-0.13,0.42-0.19,0.63H79.84z M140.93,101.23h6.93v6.93h-6.93V101.23z M133.37,86.11h3.31h0.32h3.31v6.93
			h-3.31h-0.32h-3.31V86.11z M133.37,97.29v-0.32v-3.31h3.31h0.32h3.31v3.31v0.32v3.31h-3.31h-0.32h-3.31V97.29z M133.37,101.23
			h3.31h0.32h3.31v6.93h-3.31h-0.32h-3.31V101.23z M125.81,86.11h6.93v6.93h-6.93V86.11z M125.81,97.29v-0.32v-3.31h6.93v3.31v0.32
			v3.31h-6.93V97.29z M125.81,101.23h6.93v6.93h-6.93V101.23z M118.26,78.55h6.93v6.93h-6.93V78.55z M118.26,86.11h6.93v6.93h-6.93
			V86.11z M118.26,97.29v-0.32v-3.31h6.93v3.31v0.32v3.31h-6.93V97.29z M118.26,101.23h6.93v6.93h-6.93V101.23z M117.63,108.15
			h-6.93v-6.93h6.93V108.15z M117.63,96.97v0.32v3.31h-6.93v-3.31v-0.32v-3.31h6.93V96.97z M117.63,93.04h-6.93v-6.93h6.93V93.04z
			 M117.63,78.55v6.93h-6.93v-6.93H117.63z M103.14,78.55h6.93v6.93h-6.93V78.55z M103.14,86.11h6.93v6.93h-6.93V86.11z
			 M103.14,97.29v-0.32v-3.31h6.93v3.31v0.32v3.31h-6.93V97.29z M103.14,101.23h6.93v6.93h-6.93V101.23z M95.58,78.55h6.93v6.93
			h-6.93V78.55z M95.58,86.11h6.93v6.93h-6.93V86.11z M95.58,97.29v-0.32v-3.31h6.93v3.31v0.32v3.31h-6.93V97.29z M95.58,101.23
			h6.93v6.93h-6.93V101.23z M94.95,108.15h-3.31h-0.31h-3.31v-6.93h3.31h0.31h3.31V108.15z M94.95,96.97v0.32v3.31h-3.31h-0.31
			h-3.31v-3.31v-0.32v-3.31h3.31h0.31h3.31V96.97z M91.33,86.11h0.31h3.31v6.93h-3.31h-0.31h-3.31v-6.93H91.33z M87.39,108.15h-6.93
			v-6.93h6.93V108.15z M87.39,93.67v3.31v0.32v3.31h-6.93v-3.31v-0.32v-3.31H87.39z"/>
		<path d="M147.86,112.49h-6.93h-0.63h-6.93h-0.63h-6.93h-0.63h-6.93h-0.63h-6.93h-0.63h-6.93h-0.63h-6.93h-0.63h-6.93h-0.63h-6.93
			h-0.63h-6.68c0,1.31,0.07,2.6,0.19,3.88c0.03,0.27,0.06,0.54,0.1,0.82c0.04,0.32,0.08,0.64,0.12,0.95
			c0.04,0.3,0.09,0.61,0.15,0.91c0.05,0.28,0.1,0.55,0.15,0.82c0.06,0.31,0.12,0.63,0.19,0.94c0.05,0.25,0.11,0.5,0.17,0.75
			c0.08,0.32,0.15,0.64,0.23,0.96c0.98,3.71,2.48,7.2,4.43,10.4c0.35,0.58,0.72,1.15,1.11,1.71c1.32,1.93,2.8,3.73,4.43,5.39
			c0.36,0.37,0.73,0.73,1.1,1.08c1.39,1.31,2.87,2.52,4.44,3.62c0.36,0.25,0.72,0.5,1.09,0.74c1.42,0.93,2.9,1.77,4.44,2.51
			c0.2,0.09,0.4,0.18,0.6,0.27c4.88,2.25,10.3,3.53,16.01,3.59c0.14,0,0.28,0.01,0.42,0.01c1.73,0,3.44-0.12,5.11-0.34
			c0.37-0.05,0.74-0.09,1.11-0.15c1.51-0.24,2.98-0.57,4.43-0.98c0.37-0.1,0.74-0.2,1.11-0.32c1.52-0.48,2.99-1.05,4.43-1.7
			c0.37-0.17,0.74-0.33,1.1-0.51c1.54-0.75,3.02-1.61,4.43-2.55c0.37-0.25,0.73-0.5,1.09-0.76c1.57-1.12,3.05-2.35,4.44-3.68
			c0.38-0.36,0.74-0.73,1.11-1.11c1.63-1.7,3.12-3.54,4.43-5.51c0.38-0.58,0.75-1.17,1.11-1.77c2-3.39,3.51-7.1,4.43-11.04
			c0.16-0.7,0.31-1.4,0.43-2.11c0.01-0.04,0.01-0.08,0.02-0.12c0.11-0.65,0.21-1.3,0.29-1.96c0.01-0.1,0.03-0.2,0.04-0.3
			c0.07-0.6,0.12-1.21,0.16-1.82c0.01-0.14,0.02-0.28,0.03-0.43c0.04-0.73,0.07-1.46,0.07-2.2h-3.38H147.86z"/>
	</g>
</g>
</svg>
